<svg xmlns="http://www.w3.org/2000/svg" width="32" height="32"><defs><linearGradient id="a" x1="51.322" x2="51.322" y1="4.83" y2="21.717" gradientTransform="translate(-35.322 -2.83)" gradientUnits="userSpaceOnUse"><stop offset="0" stop-color="#fff" stop-opacity=".75"/><stop offset="1" stop-color="#ececec"/></linearGradient><linearGradient id="b" x1="37.322" x2="51.322" y1="25.83" y2="25.83" gradientTransform="translate(-35.322 -2.83)" gradientUnits="userSpaceOnUse"><stop offset="0" stop-color="#fff" stop-opacity="0"/><stop offset="1" stop-color="#ececec"/></linearGradient><linearGradient id="d" x1="39.322" x2="43.348" y1="29.83" y2="29.83" gradientTransform="translate(-35.322 -2.83)" gradientUnits="userSpaceOnUse"><stop offset="0" stop-color="#fff" stop-opacity="0"/><stop offset="1" stop-color="#ececec"/></linearGradient><linearGradient id="e" x1="45.322" x2="63.321" y1="29.83" y2="29.83" gradientTransform="translate(-35.322 -2.83)" gradientUnits="userSpaceOnUse"><stop offset="0" stop-color="#fff" stop-opacity="0"/><stop offset="1" stop-color="#ececec"/></linearGradient><linearGradient id="c" x1="55.322" x2="63.321" y1="25.83" y2="25.83" gradientTransform="translate(-35.322 -2.83)" gradientUnits="userSpaceOnUse"><stop offset="0" stop-color="#fff" stop-opacity="0"/><stop offset="1" stop-color="#ececec"/></linearGradient></defs><path fill="url(#a)" d="M16 4c-3.673 0-6.733 2.404-7.875 5.688C4.68 10.124 2 13.037 2 16.602c0 1.24.352 2.387.918 3.398h26.695A5.6 5.6 0 0 0 30 18a5.603 5.603 0 0 0-5.601-5.602A8.397 8.397 0 0 0 16 4"/><path fill="url(#b)" d="M3.167 22h11.666a1.167 1 0 0 1 1.166 1 1.167 1 0 0 1-1.166 1H3.167A1.167 1 0 0 1 2 23a1.167 1 0 0 1 1.167-1"/><path fill="url(#c)" d="M21.142 22h5.714a1.143 1 0 0 1 1.143 1 1.143 1 0 0 1-1.143 1h-5.714a1.143 1 0 0 1-1.143-1 1.143 1 0 0 1 1.143-1"/><path fill="url(#d)" d="M4.98 26h2.013A1.007 1 0 0 1 8 27a1.007 1 0 0 1-1.007 1H4.98a1.007 1 0 0 1-1.006-1 1.007 1 0 0 1 1.006-1"/><path fill="url(#e)" d="M11.2 26h15.6a1.2 1 0 0 1 1.2 1 1.2 1 0 0 1-1.2 1H11.2a1.2 1 0 0 1-1.2-1 1.2 1 0 0 1 1.2-1"/></svg>