<svg xmlns="http://www.w3.org/2000/svg" width="64" height="64" viewBox="0 0 64 64"><defs><linearGradient id="a" x1=".5" x2=".49" y1="0" y2="1"><stop offset="0%" style="stop-color:rgba(255,255,255,.1)"/><stop offset="100%" style="stop-color:rgba(0,0,0,.1)"/></linearGradient></defs><path d="M15.295 4h33.41C54.939 4 60 9.061 60 15.295v33.41C60 54.939 54.939 60 48.705 60h-33.41C9.061 60 4 54.939 4 48.705v-33.41C4 9.061 9.061 4 15.295 4" style="stroke:none;fill:#ff5722;stroke-miterlimit:10"/><path d="M15.295 4h33.41C54.939 4 60 9.061 60 15.295v33.41C60 54.939 54.939 60 48.705 60h-33.41C9.061 60 4 54.939 4 48.705v-33.41C4 9.061 9.061 4 15.295 4" style="stroke:none;fill:url(#a);stroke-miterlimit:10"/><path fill="#f9f9f9" d="M31.999 16c-.995 0-1.988.343-2.999 1.017-3 2-7-1.001-8-1.001s-7 7.285-7 10c0 2 7.5 6.599 7.5 7.999 0 1-1.5 1.48-1.5 3.603 0 1.397 2 3.897 4 3.897s7.003-3.925 6.999-4.897v-.603c0-1.2-4.5-2.712-4.5-4.999 0-2 1.501-2.74 1.501-5 0-1.943-4-2.5-7-3-1 0 3-3.289 8.5.266 1.392.899-1.5 4.457-1 7.734.75.7 2.126 1.05 3.499 1.05 1.376 0 2.75-.35 3.501-1.05.499-3.276-2.393-6.835-1.001-7.734 5.5-3.555 9.5-.266 8.501-.266-3 .5-7 1.056-7 3 0 2.26 1.501 3 1.501 5 0 2.287-4.5 3.799-4.5 4.999v.603c-.005.971 4.999 4.898 6.999 4.898s4-2.501 4-3.898c0-2.12-1.5-2.603-1.5-3.603 0-1.4 7.5-5.999 7.5-7.999 0-2.713-6-10-7-10s-5 3-8 1C33.989 16.342 33.001 16 32.001 16zm0 23.816c-2 0-6.5 3.1-6.5 3.7s4.5 5.499 6.5 5.499 6.501-4.899 6.501-5.499-4.501-3.701-6.501-3.701z" opacity="1"/></svg>
