<svg xmlns="http://www.w3.org/2000/svg" width="64" height="64" viewBox="0 0 64 64"><defs><linearGradient id="a" x1=".5" x2=".49" y1="0" y2="1"><stop offset="0%" style="stop-color:#fc8a55"/><stop offset="100%" style="stop-color:#fb2669"/></linearGradient></defs><path d="M16 4.01h32c6.623 0 12 5.377 12 12v32c0 6.623-5.377 12-12 12H16c-6.623 0-12-5.377-12-12v-32c0-6.623 5.377-12 12-12" style="stroke:none;fill:url(#a);stroke-miterlimit:10"/><path fill="#fff" fill-rule="evenodd" d="m16.595 22.816 12.87 22.738s.699 1.217 2.452 1.217c1.75 0 2.446-1.217 2.446-1.217s8.946-13.701 12.597-21.007c.367-.737.764-1.481.93-2.279a3.8 3.8 0 0 0 .034-1.674 3.6 3.6 0 0 0-.964-1.807 3.78 3.78 0 0 0-2.158-.937 4.53 4.53 0 0 0-2.491.502 3.26 3.26 0 0 0-1.285 1.248 4 4 0 0 0-.408 1.727c-.003.55.087 1.097.265 1.618.124.332.279.653.408.978.098.28.242.545.268.836.068.47.024.949-.128 1.398-.839 2.136-2.287 4.177-4.196 5.428-.793.514-1.806.642-2.747.688-1.078.045-2.325-.038-3.194-.518-.873-.473-1.285-1.3-1.833-2.026-2.514-3.337-6.618-10.64-6.618-10.64s-1.788-3.156-5.001-1.247c-3.212 1.916-1.251 4.978-1.251 4.978z" opacity=".9"/></svg>