<svg xmlns="http://www.w3.org/2000/svg" width="64" height="64" viewBox="0 0 64 64"><defs><linearGradient id="a" x1=".5" x2=".521" y1="1" y2=".004"><stop offset="0%" style="stop-color:rgba(1,1,1,.1)"/><stop offset="100%" style="stop-color:rgba(255,255,255,.1)"/></linearGradient></defs><path d="M16 4h32c6.623 0 12 5.377 12 12v32c0 6.623-5.377 12-12 12H16C9.377 60 4 54.623 4 48V16C4 9.377 9.377 4 16 4" style="stroke:none;fill:#fff;stroke-miterlimit:10"/><path d="M16 4h32c6.623 0 12 5.377 12 12v32c0 6.623-5.377 12-12 12H16C9.377 60 4 54.623 4 48V16C4 9.377 9.377 4 16 4" style="stroke:none;fill:url(#a);stroke-miterlimit:10"/><g style="opacity:.9"><linearGradient id="b" x1="0" x2="1" y1=".848" y2=".845" gradientTransform="matrix(40 0 0 37.679 12 14.321)" gradientUnits="userSpaceOnUse"><stop offset="0%" stop-opacity=".965" style="stop-color:#c0bfbc"/><stop offset="12.2%" stop-opacity=".965" style="stop-color:#f6f5f4"/><stop offset="24.1%" stop-opacity=".965" style="stop-color:#c0bfbc"/><stop offset="72.9%" stop-opacity=".965" style="stop-color:#c0bfbc"/><stop offset="86.2%" stop-opacity=".965" style="stop-color:#f6f5f4"/><stop offset="100%" stop-opacity=".965" style="stop-color:#c0bfbc"/></linearGradient><path fill="url(#b)" d="M32 14.321c-11.045 0-20 8.434-20 18.839a18 18 0 0 0 2.543 9.178l-1.048 4.032c-.377-.051-.714.225-.713.584l.006 2.27v.229q.002.074.022.145c.164 1.291 1.496 2.224 2.802 1.961l7.477-1.541A21 21 0 0 0 32 52c11.046 0 20-8.435 20-18.84s-8.954-18.839-20-18.839"/><path fill="#fff" d="M32 12c-11.045 0-20 8.435-20 18.839a18 18 0 0 0 2.543 9.178l-1.494 5.747-.202.776c-.4 1.535 1.136 3.034 2.765 2.698l7.477-1.54A21 21 0 0 0 32 49.679c11.046 0 20-8.435 20-18.84S43.046 12 32 12"/><linearGradient id="c" x1=".5" x2=".5" y1="1" y2="0" gradientTransform="matrix(33.913 0 0 32.174 14.957 14.657)" gradientUnits="userSpaceOnUse"><stop offset="0%" style="stop-color:#209232"/><stop offset="100%" style="stop-color:#34c640"/></linearGradient><path fill="url(#c)" d="M31.913 14.657c-5.374.002-10.43 2.421-13.626 6.521l14.416.685-17.705 7.821q-.04.53-.041 1.06c0 8.885 7.591 16.087 16.956 16.087 6.102-.001 11.732-3.112 14.744-8.146l-14.388-.684 16.601-7.333c-.044-8.854-7.623-16.011-16.957-16.011"/></g></svg>