<svg xmlns="http://www.w3.org/2000/svg" width="64" height="64" viewBox="0 0 64 64"><defs><linearGradient id="a" x1=".5" x2=".521" y1="1" y2=".004"><stop offset="0%" style="stop-color:rgba(1,1,1,.1)"/><stop offset="100%" style="stop-color:rgba(255,255,255,.1)"/></linearGradient></defs><path d="M48 4H16C9.377 4 4 9.377 4 16v32c0 6.623 5.377 12 12 12h32c6.623 0 12-5.377 12-12V16c0-6.623-5.377-12-12-12" style="stroke:none;fill:#29b6f6;stroke-miterlimit:10"/><path d="M48 4H16C9.377 4 4 9.377 4 16v32c0 6.623 5.377 12 12 12h32c6.623 0 12-5.377 12-12V16c0-6.623-5.377-12-12-12" style="stroke:none;fill:url(#a);stroke-miterlimit:10"/><path fill="#fff" d="M32.064 12c-3.276 0-5.855.565-8.673 1.901-6.059 2.872-10.279 8.624-11.246 15.33-.193 1.342-.194 4.04-.001 5.508.449 3.428 1.811 6.672 4 9.53.783 1.021 2.574 2.825 3.53 3.552 2.928 2.233 6.283 3.631 9.79 4.081 1.129.146 4.035.126 5.265-.036 3.559-.466 7.148-2.028 9.961-4.336 1.027-.841 2.572-2.468 3.364-3.539C50.717 40.389 52 36.515 52 32.074c0-3.374-.578-5.932-2.004-8.871-1.054-2.174-2.285-3.854-4.121-5.626-3.811-3.677-8.513-5.575-13.812-5.575zm-.067 3.029c2.909.003 5.124.526 7.707 1.823 1.704.854 3.026 1.838 4.481 3.33 2.332 2.396 3.812 5.194 4.499 8.508.26 1.251.359 4.132.189 5.494-.353 2.828-1.552 5.757-3.314 8.096-.649.861-2.2 2.426-3.095 3.125-1.687 1.316-3.433 2.223-5.575 2.899-.736.232-.859.235-.793.017.149-.496.255-1.164.292-1.85.057-1.087.746-2.81 1.435-3.596.606-.689.721-1.24.733-3.482.01-1.856.03-2.072.269-2.905.405-1.417.826-2.417 1.318-3.133a22 22 0 0 0 .885-1.446q.363-.656.767-1.288c.481-.726 1.509-1.731 2.015-1.969.567-.266 1.192-.984 1.399-1.607.213-.64.148-1.65-.13-2.021-.163-.217-.268-.256-.687-.256-.384 0-.548-.053-.739-.231-.263-.247-.456-.213-.456.078 0 .229-.35.666-.452.565-.042-.043.003-.285.1-.539.357-.929.472-1.523.416-2.124-.094-.991-.711-2.506-1.047-2.57-.081-.016-.52.285-.976.669-2.376 2-4.182 3.372-5.439 4.132-.6.362-.602.363-1.614.341-1.198-.026-1.368.037-3.365 1.248-.693.42-1.473.845-1.734.944-.262.1-1.095.244-1.862.323-1.576.162-1.998.26-2.587.6-.582.338-.729.588-.605 1.038.122.439.766 1.304 1.543 2.067l.584.574-.452.699a13 13 0 0 0-.83 1.573c-.413.96-.527 1.14-1.352 2.157-.714.879-1.506 2.146-2.246 3.596-.632 1.24-.935 1.561-2.096 2.226-.65.372-.626.384-1.362-.726a17.4 17.4 0 0 1-2.65-6.906c-.187-1.226-.183-3.766.006-5.045.291-1.951 1.033-4.087 2.047-5.886 1.377-2.443 3.892-4.961 6.324-6.332 2.672-1.507 5.371-2.212 8.45-2.21zm3.165 11.091-.905 1.156-1.452.205.903-1.157z" opacity=".9"/></svg>