<svg xmlns="http://www.w3.org/2000/svg" width="64" height="64" viewBox="0 0 64 64"><defs><linearGradient id="a" x1=".5" x2=".521" y1="1" y2=".004"><stop offset="0%" style="stop-color:rgba(1,1,1,.1)"/><stop offset="100%" style="stop-color:rgba(255,255,255,.1)"/></linearGradient></defs><path d="M16 4h32c6.623 0 12 5.377 12 12v32c0 6.623-5.377 12-12 12H16C9.377 60 4 54.623 4 48V16C4 9.377 9.377 4 16 4" style="stroke:none;fill:#333;stroke-miterlimit:10"/><path d="M16 4h32c6.623 0 12 5.377 12 12v32c0 6.623-5.377 12-12 12H16C9.377 60 4 54.623 4 48V16C4 9.377 9.377 4 16 4" style="stroke:none;fill:url(#a);stroke-miterlimit:10"/><path fill="#6c31e3" d="M42.186 50.002c-.256 1.914-2.098 3.408-3.94 2.897-2.599-.732-5.613-1.874-8.341-2.085l-4.165-.321a2.72 2.72 0 0 1-1.773-.842l-7.189-7.516a2.83 2.83 0 0 1-.532-3.107s4.442-9.922 4.609-10.443c.168-.512.768-5.012 1.123-7.437.097-.642.41-1.23.886-1.664l8.489-7.767a2.73 2.73 0 0 1 2.073-.703 2.75 2.75 0 0 1 1.925 1.054l7.14 9.22c.399.525.614 1.171.61 1.834 0 1.744.148 5.332 1.094 7.647a30.5 30.5 0 0 0 3.505 5.863c.35.453.393 1.076.109 1.574a124 124 0 0 1-3.614 5.803 14.5 14.5 0 0 0-2.009 5.993"/><radialGradient id="b" cx=".5" cy=".5" r="1" fx=".728" fy=".969" gradientTransform="matrix(11.492 0 0 21.899 16.003 28.314)" gradientUnits="userSpaceOnUse"><stop offset="0%" stop-opacity=".4" style="stop-color:#fff"/><stop offset="100%" style="stop-color:#000"/></radialGradient><path fill="url(#b)" d="M24.735 50.213c3.339-6.886 3.25-11.827 1.822-15.334-1.3-3.248-3.732-5.292-5.643-6.565a2.5 2.5 0 0 1-.177.541l-4.491 10.173a2.84 2.84 0 0 0 .542 3.107l7.179 7.516c.227.231.492.421.768.562"/><radialGradient id="c" cx=".5" cy=".5" r="1" fx=".529" fy=".906" gradientTransform="matrix(16.177 0 0 32.844 31.824 11.917)" gradientUnits="userSpaceOnUse"><stop offset="0%" stop-opacity=".6" style="stop-color:#fff"/><stop offset="100%" stop-opacity=".1" style="stop-color:#fff"/></radialGradient><path fill="url(#c)" d="M33.815 36.242c.896.09 1.773.29 2.639.611 2.738 1.042 5.229 3.387 7.288 7.908.147-.261.295-.512.453-.752q1.886-2.85 3.614-5.803a1.42 1.42 0 0 0-.099-1.574 30.5 30.5 0 0 1-3.515-5.863c-.946-2.305-1.084-5.903-1.094-7.647 0-.661-.206-1.313-.61-1.834l-7.14-9.22-.118-.151c.522 1.754.492 3.157.167 4.43-.295 1.183-.846 2.255-1.427 3.388q-.302.58-.582 1.172a14.2 14.2 0 0 0-1.555 5.813c-.099 2.426.384 5.463 1.979 9.522"/><radialGradient id="d" cx=".5" cy=".5" r="1" fx=".312" fy=".971" gradientTransform="matrix(14.721 0 0 25.913 20.914 11)" gradientUnits="userSpaceOnUse"><stop offset="0%" stop-opacity=".8" style="stop-color:#fff"/><stop offset="100%" stop-opacity=".4" style="stop-color:#fff"/></radialGradient><path fill="url(#d)" d="M33.805 36.242c-1.585-4.059-2.068-7.096-1.969-9.522.098-2.405.787-4.209 1.555-5.813l.591-1.172c.572-1.133 1.113-2.205 1.418-3.388.363-1.462.305-3-.167-4.43a2.72 2.72 0 0 0-3.88-.2l-8.489 7.767a2.82 2.82 0 0 0-.886 1.664l-1.034 6.975c0 .071-.02.131-.03.201 1.911 1.263 4.333 3.307 5.643 6.545.256.641.473 1.312.63 2.044 2.15-.609 4.39-.836 6.618-.671"/><radialGradient id="e" cx=".5" cy=".5" r="1" fx=".718" fy="1" gradientTransform="matrix(19.006 0 0 16.837 24.745 36.163)" gradientUnits="userSpaceOnUse"><stop offset="0%" stop-opacity=".3" style="stop-color:#fff"/><stop offset="100%" style="stop-color:#000"/></radialGradient><path fill="url(#e)" d="M38.256 52.899c1.832.511 3.674-.983 3.93-2.907a15.5 15.5 0 0 1 1.565-5.231c-2.068-4.521-4.559-6.866-7.287-7.908-2.905-1.103-6.066-.732-9.277.06.719 3.317.296 7.657-2.442 13.3.305.16.65.25.995.28l4.323.331c2.344.17 5.84 1.403 8.193 2.075"/><radialGradient id="f" cx=".5" cy=".5" r="1" fx="1.17" fy=".348" gradientTransform="matrix(4.166 0 0 21.879 31.481 13.892)" gradientUnits="userSpaceOnUse"><stop offset="0%" stop-opacity="0" style="stop-color:#fff"/><stop offset="100%" stop-opacity=".2" style="stop-color:#fff"/></radialGradient><path fill="url(#f)" fill-rule="evenodd" d="M31.855 26.57c-.108 2.405.187 5.152 1.773 9.201l-.493-.051c-1.427-4.219-1.743-6.384-1.634-8.819.098-2.436.876-4.31 1.644-5.913.197-.401.65-1.153.847-1.534.571-1.132.955-1.724 1.28-2.756.473-1.443.375-2.125.316-2.806.364 2.455-1.025 4.59-2.068 6.765a14.6 14.6 0 0 0-1.665 5.913"/><radialGradient id="g" cx=".5" cy=".5" r="1" fx="-.094" fy=".087" gradientTransform="matrix(6.578 0 0 8.168 20.934 28.334)" gradientUnits="userSpaceOnUse"><stop offset="0%" stop-opacity=".2" style="stop-color:#fff"/><stop offset="100%" stop-opacity=".4" style="stop-color:#fff"/></radialGradient><path fill="url(#g)" fill-rule="evenodd" d="M27.03 35.049c.197.441.364.802.482 1.353l-.423.1c-.168-.641-.296-1.102-.542-1.654-1.438-3.437-3.742-5.211-5.613-6.514 2.265 1.243 4.599 3.197 6.096 6.715"/><radialGradient id="i" cx=".5" cy=".5" r="1" fx="1.039" fy="-.223" gradientTransform="matrix(2.986 0 0 13.189 24.824 36.843)" gradientUnits="userSpaceOnUse"><stop offset="0%" stop-opacity=".1" style="stop-color:#fff"/><stop offset="100%" stop-opacity=".3" style="stop-color:#fff"/></radialGradient><path fill="url(#i)" fill-rule="evenodd" d="M27.532 36.843c.788 3.758-.098 8.539-2.708 13.189 2.186-4.61 3.25-9.03 2.363-13.129z"/><radialGradient id="j" cx=".5" cy=".5" r="1" fx=".993" fy=".892" gradientTransform="matrix(16.623 0 0 8.996 27.099 35.703)" gradientUnits="userSpaceOnUse"><stop offset="0%" stop-opacity=".2" style="stop-color:#fff"/><stop offset="50%" stop-opacity=".2" style="stop-color:#fff"/><stop offset="100%" stop-opacity=".3" style="stop-color:#fff"/></radialGradient><path fill="url(#j)" fill-rule="evenodd" d="M36.553 36.492c4.283 1.634 5.938 5.212 7.169 8.208-1.527-3.127-3.644-6.584-7.327-7.867-2.797-.982-5.16-.862-9.208.07l-.088-.401c4.293-1.002 6.539-1.122 9.454-.01"/></svg>