<svg xmlns="http://www.w3.org/2000/svg" xml:space="preserve" style="fill-rule:evenodd;clip-rule:evenodd;stroke-linecap:round;stroke-linejoin:round" viewBox="0 0 64 64"><path d="M13.83 4.02C8.33 4.35 3.99 8.98 4 14.48v35c0 5.82 4.68 10.5 10.5 10.5h35c5.74.01 10.48-4.71 10.49-10.45V14.44c-.01-5.49-4.34-10.09-9.82-10.42z" style="fill:url(#a);fill-rule:nonzero"/><path d="M4 32.67V49.5c0 5.75 4.73 10.48 10.48 10.48h35.04C55.27 59.98 60 55.25 60 49.5V32.68z" style="fill:#927b63;fill-rule:nonzero"/><path d="M4 28.35v13.93l2.7.8 1.48.35 1.36-4.44 4.15-.42 3.01 1.53h3.47l3.48 2.45 3.46-.71 2.97 2.13 2.47.53-1.44-4.17 6.77.62 3.46.53 6.06-2.31 11.76-.53.84-.03V28.34z" style="fill:#353b71;fill-rule:nonzero"/><path d="m25.82 38.91-8.15.75-.89.53 2.72.32 1.61 2.73-.99 2.4-5.56.32-3.84-2.41s-1.24 2.74-1.98 1.77c-.75-.96-2.97.8-2.97.8L4 47.07v2.43c0 5.75 4.73 10.48 10.48 10.48h7.42q-.375-.495-.66-1.02c-.75-1.29 0-2.89.74-4.66s4.33 1.61 4.33 1.61 1.31 2.33 2.19 4.07h9.51c1.35-1.13 4.33-2.13 4.88-1.99.3.08.69 1 1.07 1.99h5.54c.25-.01.49-.02.74-.04l1.31-1.63s1.86-3.36 2.48-3.85c.61-.48 2.22.33 2.96 1.13.16.17.22.54.24.99 1.78-1.93 2.77-4.47 2.77-7.1v-7.62c-7 .07-14.76.25-14.76.25l-5.44-.8-2.36-1.05-.37 1.05-3.58.64s-1.74-1.28-1.86-2.08c-.13-.8-5.81-.96-5.81-.96" style="fill:#d5e8f9;fill-rule:nonzero"/><path d="m18.07 40.03-.62.81s1.05 1.67 1.17 2.04-.3.93-.74 1.3c-.43.37-1.17.62-1.73.74-.56.13-1.92-.31-2.84-1.3-.93-.99-2.6-.74-2.6-.74l-1.3 1.73-.62 1.61s-2.6-.19-2.97-.62c-.19-.22-1.03-.39-1.82-.51v2.95c0 .44.89 3.33.96 3.74 2.28.47 9.53 3.21 10.68 3.59 1.31.44 5.42-.44 5.42-.44s.79.71.7 1.06c-.08.34.7 1.39.7 1.39s2.1-1.84 2.36-1.05c.27.79 1.23 1.14 1.67 1.67.43.53 5.68.87 6.65 1.13.96.27 8.48.18 8.48.18s6.82-.97 8.57-1.23 4.03-1.66 4.73-1.83c.7-.18.61.44 1.13 1.05.53.61 2.37-2.28 2.37-2.28s0-7.17.7-9.18-.09-2.98-.44-4.2c-.35-1.23-1.4-1.32-1.4-1.32l-4.81.79h-5.42l-14.2.22s-3.03.81-3.71.93-7.18-.93-7.18-.93z" style="fill-opacity:.15;fill-rule:nonzero"/><path d="m25.81 38.91-7.4.51-1.63.76 2.72.33 1.61 2.72-.99 2.41-5.56.32-3.84-2.41s-1.24 2.73-1.99 1.77c-.74-.97-2.96.8-2.96.8L4 47.07v2.43c0 5.75 4.73 10.48 10.48 10.48h7.42c-.25-.33-.47-.67-.67-1.03-.74-1.28 0-2.88.75-4.65.74-1.76 4.33 1.6 4.33 1.6s1.31 2.34 2.19 4.08H38c1.36-1.13 4.33-2.13 4.88-1.99.3.08.7.99 1.07 1.99h5.55c.24-.01.49-.02.73-.04l1.31-1.63s1.86-3.37 2.48-3.85 2.23.33 2.97 1.12c.16.17.21.54.23 1a10.43 10.43 0 0 0 2.77-7.06v-7.66c-6.99.07-14.76.25-14.76.25l-5.44-.8-1.36-.19-1.36.19-3.59.64s-1.73-1.28-1.86-2.08c-.12-.81-5.81-.96-5.81-.96" style="fill:#d5e8f9;fill-rule:nonzero"/><path d="m27.45 39.01 1.81.84 2.79.76c-.2-.21-.34-.46-.42-.74-.09-.58-2.52-.77-4.18-.86m11.42.69-1.6 1.09.91-.19 5.44 2.72 6.68-.5 6.19.25s1.68 1.1 3.51 2.44v-3.65c-7 .07-14.76.25-14.76.25l-5.44-.8zm-28.15 3.85s-.32.7-.73 1.27l3.68 1.47 4.46.74 4.46-1.99-1.94-.69-.53 1.29-5.56.32zm44.65 8.8-3.83 3.59-1.19 3.86 1.19-1.49s1.87-3.36 2.49-3.85c.61-.48 2.22.33 2.96 1.13.16.17.21.54.23.99.63-.68 1.17-1.44 1.6-2.26l-.35-1.1zm-31.32 1.07c-.12-.01-.24.01-.35.04-.22.11-.56.21-1.03.38 1.29-.12 3.64 2.07 3.64 2.07s1.31 2.33 2.19 4.07h1.79l-1.03-.82.5-2.36-1.24-2.72s-2.43-.48-3.86-.62c-.2-.02-.41-.04-.62-.04zm-1.79.57c-.37.13-.91.34-.91.34l-1.37 2.35-2.84.74-1.24 2.11-1.16.45h7.16c-.25-.33-.47-.67-.67-1.02-.74-1.29 0-2.89.74-4.65.07-.17.19-.24.29-.32m20.87 2.31-4.34 1.62-1.68 2.06h.9c1.35-1.13 4.33-2.13 4.87-1.99.16.05.34.31.52.69l.59-1.01z" style="fill:#b9e3e9;fill-rule:nonzero"/><path d="m45.64 51.78-.52-5.6-2.98-.17s-.52.7-1.05 1.75c-.52 1.05-3.85 1.58-3.85 1.58s-2.09.17-1.57 1.57c.53 1.4 4.37 3.85 4.37 3.85l3.33-.7 8.57-.7 5.25.17s1.4-3.84 1.05-4.89.71-6.65-1.05-5.25c-1.75 1.4-2.1 2.27-2.62 3.15-.53.87-3.33.52-3.33.52l-2.27-1.05-.53 3.68-1.39 2.09z" style="fill:#927b63;fill-rule:nonzero"/><path d="m45.64 51.78-.52-5.6-2.98-.17s-.52.7-1.05 1.75c-.52 1.05-3.85 1.58-3.85 1.58s-2.09.17-1.57 1.57c.53 1.4 4.37 3.85 4.37 3.85l3.33-.7 8.57-.7 5.25.17s1.4-3.84 1.05-4.89.71-6.65-1.05-5.25c-1.75 1.4-2.1 2.27-2.62 3.15-.53.87-3.33.52-3.33.52l-2.27-1.05-.53 3.68-1.39 2.09z" style="fill:#927b63;fill-rule:nonzero"/><path d="M57.72 43.17c-.13-.03-.31.05-.52.22-1.76 1.4-2.11 2.27-2.63 3.15-.53.87-3.33.52-3.33.52l-2.27-1.05-.53 3.68-1.39 2.09h-1.41l-.12-1.3-.14 1.09s.48 1.22.66 1.18l2.27-.53.7-1.92.79-1.49s.48-1.01.83-.96c.35.04 3.63.26 3.63.26l2.32-.88 1.05.53s.44.83.44 1.05-.09 1.31-.18 1.66-.83 1.36-.83 1.36l-1.09.92-.09.39-1.01-.35-.78.57-.7-.04-.92.06 4.72.15s1.4-3.84 1.05-4.89c-.3-.93.46-5.33-.52-5.47m-15.58 2.84s-.52.7-1.05 1.75c-.52 1.05-3.85 1.58-3.85 1.58s-2.09.17-1.57 1.57c.51 1.37 4.13 3.69 4.29 3.79.08-.32.16-.68.08-.82-.13-.22-1.18-1.13-1.18-1.13s-.96-.88-.78-1.18c.17-.31 1-.66 1.31-1.01s2.4-1.75 2.66-2.01c.27-.26 1.06-1.75 1.06-1.75l1.48.39.83 2.19-.3-3.2zm3.94 7.48-.83.41 4.06-.33-1.61-.04z" style="fill-opacity:.15;fill-rule:nonzero"/><path d="M35.08 32.92 4 33.27v2.43l3.25.19s4.45-.37 4.94-.25c.5.13 5.2.87 5.2.87l12.74-1.12 11.39.13 12.12-1.12 4.33.99-2.35-1.35s-3.22 0-3.96.24c-.74.25-21.9 1.23-25.37 1.23-3.46 0-21.39-.48-21.39-.48l1.23-.87 20.54-.37z" style="fill:#fff;fill-opacity:.15;fill-rule:nonzero"/><path d="M59.96 37.61s-.38.02-5.56 0c-8.82 0-16.14-1.13-16.76-2.6.48 1.96 7.84 3.49 16.76 3.5 4.82.02 5.34.07 5.59.1z" style="fill:#fff;fill-opacity:.08;fill-rule:nonzero"/><circle cx="46" cy="46" r="16" style="fill:url(#b)"/><circle cx="46" cy="46" r="11.2" style="fill:url(#c)"/><circle cx="46" cy="46" r="8.93" style="fill:url(#d)"/><circle cx="46" cy="46" r="7.44" style="fill:url(#e)"/><circle cx="46" cy="46" r="5.79" style="fill:url(#f);stroke:#0d224d;stroke-width:.47px"/><g style="filter:url(#g)"><path d="m41.05 43.2 2.06 1.14s.64-.67 1.08-.96c.49-.33 1.56-.59 1.54-.51l-.34-2.48s-2.28-.22-4.34 2.81" style="fill:#4678cc;fill-opacity:.8;fill-rule:nonzero"/></g><g style="filter:url(#h)"><path d="m40.83 43.57 2.2.98s-.13.28-.17.59c-.05.28 0 .54 0 .54l-2.54-.02s.1-1.46.51-2.09" style="fill:#4678cc;fill-opacity:.8;fill-rule:nonzero"/></g><g style="filter:url(#i)"><path d="M42.98 43.09c.37-.32.84-.4 1.04-.17.2.24.06.69-.32 1.01-.37.33-.84.4-1.04.17s-.06-.68.32-1.01" style="fill:#fff;fill-opacity:.3"/></g><g style="filter:url(#j)"><path d="M44.07 44.58c.16-.13.35-.17.43-.07.08.09.02.28-.13.41s-.34.16-.42.07c-.09-.09-.03-.28.12-.41" style="fill:#fff;fill-opacity:.3"/></g><g style="filter:url(#k)"><path d="M46.78 47.09c1.69-1.13 3.64-1.2 4.34-.16.7 1.05-.11 2.82-1.81 3.96-1.69 1.13-3.64 1.2-4.34.16-.7-1.05.11-2.82 1.81-3.96" style="fill:#fff;fill-opacity:.2"/></g><g style="filter:url(#l)"><path d="M46.81 47.98c.29-.26.66-.32.81-.13.16.18.05.53-.24.78-.3.26-.66.32-.82.13-.15-.18-.04-.53.25-.78" style="fill:#fff;fill-opacity:.3"/></g><g style="filter:url(#m)"><path d="M47.87 49.11c.62-.54 1.39-.66 1.72-.28.34.38.1 1.13-.52 1.67s-1.39.66-1.73.28c-.33-.38-.09-1.13.53-1.67" style="fill:#fff"/></g><g style="filter:url(#n)"><path d="M46.43 45.96c2.01-1.18 4.23-1.14 4.96.1s-.3 3.21-2.31 4.39-4.23 1.14-4.96-.1.31-3.21 2.31-4.39" style="fill:#4397ee;fill-opacity:.45"/></g><g style="filter:url(#o)"><path d="M43.27 43.44c.2-.16.44-.2.54-.08.11.12.03.35-.16.52s-.44.21-.54.09-.03-.36.16-.53" style="fill:#fff;fill-opacity:.85"/></g><g style="filter:url(#p)"><path d="M45.38 46.12c.1-.09.23-.11.28-.04.06.06.02.19-.08.27-.11.09-.24.11-.29.05-.06-.06-.02-.19.09-.28" style="fill:#fff;fill-opacity:.3"/></g><defs><filter id="g" width="6.5" height="5.78" x="40.14" y="39.48" filterUnits="userSpaceOnUse"><feGaussianBlur in="SourceGraphic" stdDeviation=".15"/></filter><filter id="h" width="4.53" height="3.94" x="39.41" y="42.66" filterUnits="userSpaceOnUse"><feGaussianBlur in="SourceGraphic" stdDeviation=".15"/></filter><filter id="i" width="3.94" height="3.87" x="41.37" y="41.58" filterUnits="userSpaceOnUse"><feGaussianBlur in="SourceGraphic" stdDeviation=".13"/></filter><filter id="j" width="2.1" height="2.07" x="43.18" y="43.72" filterUnits="userSpaceOnUse"><feGaussianBlur in="SourceGraphic" stdDeviation=".09"/></filter><filter id="k" width="19.6" height="18.82" x="38.24" y="39.58" filterUnits="userSpaceOnUse"><feGaussianBlur in="SourceGraphic" stdDeviation=".76"/></filter><filter id="l" width="2.06" height="2.01" x="46.06" y="47.3" filterUnits="userSpaceOnUse"><feGaussianBlur in="SourceGraphic" stdDeviation=".03"/></filter><filter id="m" width="18.8" height="18.68" x="39.07" y="40.46" filterUnits="userSpaceOnUse"><feGaussianBlur in="SourceGraphic" stdDeviation="1.06"/></filter><filter id="n" width="52.4" height="51.26" x="21.56" y="22.58" filterUnits="userSpaceOnUse"><feGaussianBlur in="SourceGraphic" stdDeviation="2.99"/></filter><filter id="o" width="8.49" height="8.45" x="39.22" y="39.44" filterUnits="userSpaceOnUse"><feGaussianBlur in="SourceGraphic" stdDeviation=".51"/></filter><filter id="p" width="1.82" height="1.8" x="44.57" y="45.34" filterUnits="userSpaceOnUse"><feGaussianBlur in="SourceGraphic" stdDeviation=".09"/></filter><linearGradient id="a" x1="0" x2="1" y1="0" y2="0" gradientTransform="rotate(-90 46.002 14.01)scale(55.98892)" gradientUnits="userSpaceOnUse"><stop offset="0" style="stop-color:#b6c9e7;stop-opacity:1"/><stop offset="1" style="stop-color:#92b7ef;stop-opacity:1"/></linearGradient><linearGradient id="b" x1="0" x2="1" y1="0" y2="0" gradientTransform="rotate(90 8 38)scale(31.99997)" gradientUnits="userSpaceOnUse"><stop offset="0" style="stop-color:#ccc;stop-opacity:1"/><stop offset="1" style="stop-color:#ebebeb;stop-opacity:1"/></linearGradient><linearGradient id="c" x1="0" x2="1" y1="0" y2="0" gradientTransform="rotate(90 5.655 40.344)scale(22.58033)" gradientUnits="userSpaceOnUse"><stop offset="0" style="stop-color:#666;stop-opacity:1"/><stop offset="1" style="stop-color:#9f9f9f;stop-opacity:1"/></linearGradient><linearGradient id="d" x1="0" x2="1" y1="0" y2="0" gradientTransform="rotate(90 4.463 41.537)scale(17.85587)" gradientUnits="userSpaceOnUse"><stop offset="0" style="stop-color:#333;stop-opacity:1"/><stop offset="1" style="stop-color:#666;stop-opacity:1"/></linearGradient><linearGradient id="e" x1="0" x2="1" y1="0" y2="0" gradientTransform="rotate(90 3.718 42.283)scale(14.8752)" gradientUnits="userSpaceOnUse"><stop offset="0" style="stop-color:#000;stop-opacity:1"/><stop offset="1" style="stop-color:#121212;stop-opacity:1"/></linearGradient><radialGradient id="f" cx="0" cy="0" r="1" gradientTransform="matrix(5.31565 0 0 4.46439 45.997 46.008)" gradientUnits="userSpaceOnUse"><stop offset="0" style="stop-color:#2561db;stop-opacity:.94"/><stop offset="1" style="stop-color:#0d0d0d;stop-opacity:1"/></radialGradient></defs></svg>