<svg xmlns="http://www.w3.org/2000/svg" width="64" height="64" viewBox="0 0 64 64"><path d="M15.999 3.97h32.002C54.623 3.97 60 9.347 60 15.969v32.002c0 6.622-5.377 11.999-11.999 11.999H15.999C9.377 59.97 4 54.593 4 47.971V15.969C4 9.347 9.377 3.97 15.999 3.97" style="stroke:none;fill:#fff;stroke-miterlimit:10"/><path fill="#f03e3e" d="M41.019 46H22.981l8.937-12.217q2.665-3.587 3.454-5.319t.789-3.372q0-2.337-1.425-3.71-1.424-1.373-3.863-1.373-2.481 0-3.926 1.67-1.445 1.671-1.445 4.582 0 .143.021.41.02.266.02.389h-2.07v-1.25q0-3.751 2.142-5.781T31.672 18q4.018 0 6.58 2.245t2.562 5.729q0 1.803-.697 3.577-.697 1.773-2.316 3.986L30.155 43.95h10.864z"/><linearGradient id="a" x1=".541" x2=".537" y1=".003" y2="1.012" gradientTransform="matrix(56.002 0 0 28 3.999 32)" gradientUnits="userSpaceOnUse"><stop offset="0%" stop-opacity=".1" style="stop-color:#fff"/><stop offset="100%" stop-opacity=".1" style="stop-color:#000"/></linearGradient><path fill="url(#a)" d="M3.999 32h56.002v16c0 6.623-5.377 12-12 12H15.999c-6.623 0-12-5.377-12-12z"/><linearGradient id="b" x1=".541" x2=".537" y1=".003" y2="1.012" gradientTransform="matrix(56.002 0 0 28 3.999 4)" gradientUnits="userSpaceOnUse"><stop offset="0%" stop-opacity=".1" style="stop-color:#fff"/><stop offset="100%" stop-opacity=".1" style="stop-color:#000"/></linearGradient><path fill="url(#b)" d="M15.999 4h32.002c6.623 0 12 5.377 12 12v16H3.999V16c0-6.623 5.377-12 12-12"/><g style="opacity:.9"><circle cx="9" cy="27.01" r="2" vector-effect="non-scaling-stroke"/><circle cx="9" cy="36.99" r="2" vector-effect="non-scaling-stroke"/><circle cx="55" cy="36.99" r="2" vector-effect="non-scaling-stroke"/><circle cx="55" cy="27.01" r="2" vector-effect="non-scaling-stroke"/></g><defs><linearGradient id="c" x1=".5" x2=".5" y1="0" y2="1"><stop offset="0%" style="stop-color:transparent"/><stop offset="50%" style="stop-color:rgba(255,255,255,.5)"/><stop offset="100%" style="stop-color:transparent"/></linearGradient></defs><path d="M54.5 26h1a1 1 0 0 1 1 1v10a1 1 0 0 1-1 1h-1a1 1 0 0 1-1-1V27a1 1 0 0 1 1-1" style="stroke:none;fill:#90a4ae;stroke-miterlimit:10"/><path d="M54.5 26h1a1 1 0 0 1 1 1v10a1 1 0 0 1-1 1h-1a1 1 0 0 1-1-1V27a1 1 0 0 1 1-1" style="stroke:none;fill:url(#c);stroke-miterlimit:10"/><defs><linearGradient id="d" x1=".5" x2=".5" y1="0" y2="1"><stop offset="0%" style="stop-color:transparent"/><stop offset="50%" style="stop-color:rgba(255,255,255,.5)"/><stop offset="100%" style="stop-color:transparent"/></linearGradient></defs><path d="M8.5 26h1a1 1 0 0 1 1 1v10a1 1 0 0 1-1 1h-1a1 1 0 0 1-1-1V27a1 1 0 0 1 1-1" style="stroke:none;fill:#90a4ae;stroke-miterlimit:10"/><path d="M8.5 26h1a1 1 0 0 1 1 1v10a1 1 0 0 1-1 1h-1a1 1 0 0 1-1-1V27a1 1 0 0 1 1-1" style="stroke:none;fill:url(#d);stroke-miterlimit:10"/></svg>