<svg xmlns="http://www.w3.org/2000/svg" width="64" height="64" viewBox="0 0 64 64"><path fill="#8d6e63" d="M16 4h32c6.623 0 12 5.377 12 12v32c0 6.623-5.377 12-12 12H16C9.377 60 4 54.623 4 48V16C4 9.377 9.377 4 16 4"/><linearGradient id="a" x1="0" x2=".004" y1=".5" y2="1.5" gradientTransform="matrix(56 0 0 56 4 4)" gradientUnits="userSpaceOnUse"><stop offset="0%" stop-opacity=".1" style="stop-color:#fff"/><stop offset="100%" stop-opacity=".1" style="stop-color:#000"/></linearGradient><path fill="url(#a)" d="M16 4h32c6.623 0 12 5.377 12 12v32c0 6.623-5.377 12-12 12H16C9.377 60 4 54.623 4 48V16C4 9.377 9.377 4 16 4"/><linearGradient id="b" x1=".291" x2=".291" y1="1.034" y2="-.779" gradientTransform="matrix(38 0 0 37.5 13 13)" gradientUnits="userSpaceOnUse"><stop offset="0%" style="stop-color:#333"/><stop offset="100%" style="stop-color:#666"/></linearGradient><path fill="url(#b)" d="M31.681 13c-1.176-.002-2.343.424-3.187 1.288L14.467 28.643c-4.74 5.87 3.226 5.188 6.641 6.879 1.225 1.252-4.694 2.171-3.469 3.425 1.225 1.252 7.402 2.412 8.629 3.663 1.225 1.252-2.506 2.582-1.281 3.834s4.056.066 4.586 2.956c.379 2.066 5.111.888 7.424-.804 1.224-1.253-2.343-1.13-1.117-2.382 3.045-3.116 5.881-1.137 6.923-4.259.515-1.543-4.487-2.373-3.261-3.626 3.526-2.058 15.706-3.399 9.925-9.18l-14.54-14.86a4.7 4.7 0 0 0-3.246-1.288zm-6.544 23.295c.374.234 6.044 1.387 7.43 1.616.48.102.141.597-.521.931-1.494.397-8.737-2.546-6.91-2.546zm22.053 3.946c-1.142.04-2.266.62-2.577 1.713 0 .712 5.242 1.183 5.242-.164-.374-1.082-1.525-1.588-2.665-1.549m-24.063 3.083c-1.645-.016-3.571 1.19-2.152 2.419 1.242 1.075 3.161-.272 3.737-1.772-.339-.449-.942-.641-1.585-.647m20.823.097c-1.602 1.437.178 2.894 1.757 1.965.352-.357-.008-1.608-1.757-1.965"/><path fill-opacity=".3" d="M31.681 13c-1.176-.002-2.343.424-3.187 1.288L14.467 28.643c-4.74 5.87 3.226 5.188 6.641 6.879 1.225 1.252-4.694 2.171-3.469 3.425 1.225 1.252 7.402 2.412 8.629 3.663 1.225 1.252-2.506 2.582-1.281 3.834s4.056.066 4.586 2.956c.379 2.066 5.111.888 7.424-.804 1.224-1.253-2.343-1.13-1.117-2.382 3.045-3.116 5.881-1.137 6.923-4.259.515-1.543-4.487-2.373-3.261-3.626 3.526-2.058 15.706-3.399 9.925-9.18l-14.54-14.86a4.7 4.7 0 0 0-3.246-1.288zm-6.544 23.295c.374.234 6.044 1.387 7.43 1.616.48.102.141.597-.521.931-1.494.397-8.737-2.546-6.91-2.546zm22.053 3.946c-1.142.04-2.266.62-2.577 1.713 0 .712 5.242 1.183 5.242-.164-.374-1.082-1.525-1.588-2.665-1.549m-24.063 3.083c-1.645-.016-3.571 1.19-2.152 2.419 1.242 1.075 3.161-.272 3.737-1.772-.339-.449-.942-.641-1.585-.647m20.823.097c-1.602 1.437.178 2.894 1.757 1.965.352-.357-.008-1.608-1.757-1.965"/><path fill="#fff" d="M31.8 14.362c.839.005 1.676.322 2.278.931l5.555 5.637c.526.537.517 1.576.222 1.875L37.1 20.602l-.543 3.267-2.301-1.212-3.691 2.323-1.222-4.907-1.981 3.425h-3.023c-1.234 0-1.381-1.566-.26-2.688 1.959-2.115 4.206-4.268 5.428-5.517a3.18 3.18 0 0 1 2.293-.931"/></svg>
