<svg xmlns="http://www.w3.org/2000/svg" xml:space="preserve" style="fill-rule:evenodd;clip-rule:evenodd;stroke-linejoin:round;stroke-miterlimit:2" viewBox="0 0 64 64"><path d="M60 16v32c0 6.63-5.38 12.01-12 12.01H16C9.37 60.01 4 54.63 4 48V16C4 9.38 9.37 4 16 4h32c6.62 0 12 5.38 12 12" style="fill:#fff"/><path d="M60 16v32c0 6.63-5.38 12.01-12 12.01H16C9.37 60.01 4 54.63 4 48V16C4 9.38 9.37 4 16 4h32c6.62 0 12 5.38 12 12" style="fill:url(#a)"/><path d="M49.57 18.65a21.67 21.67 0 0 0-16.69-8.64c-5.11-.11-8.64 1.43-10.63 2.67 2.67-1.55 6.53-2.44 9.92-2.39 8.7.11 18.05 6.05 19.44 16.76 1.59 12.29-6.95 22.54-18.97 22.57-13.22.04-21.26-11.69-19.16-22.23.04-.52.11-1.03.23-1.53.26-2.7 1.04-5.33 2.3-7.73-1.52.79-3.46 3.29-4.42 5.6a22.9 22.9 0 0 0-1.43 11.12c.04.29.07.57.1.85C12.09 46.24 21.3 54 31.97 54 44.06 54 54 44.04 54 31.93c0-4.79-1.56-9.45-4.43-13.28" style="fill:url(#b);fill-rule:nonzero"/><path d="M49.57 18.65a21.67 21.67 0 0 0-16.69-8.64c-5.11-.11-8.64 1.43-10.63 2.67 2.67-1.55 6.53-2.44 9.92-2.39 8.7.11 18.05 6.05 19.44 16.76 1.59 12.29-6.95 22.54-18.97 22.57-13.22.04-21.26-11.69-19.16-22.23.04-.52.11-1.03.23-1.53.26-2.7 1.04-5.33 2.3-7.73-1.52.79-3.46 3.29-4.42 5.6a22.9 22.9 0 0 0-1.43 11.12c.04.29.07.57.1.85C12.09 46.24 21.3 54 31.97 54 44.06 54 54 44.04 54 31.93c0-4.79-1.56-9.45-4.43-13.28" style="fill:url(#c);fill-rule:nonzero"/><path d="M49.57 18.65a21.67 21.67 0 0 0-16.69-8.64c-5.11-.11-8.64 1.43-10.63 2.67 2.67-1.55 6.53-2.44 9.92-2.39 8.7.11 18.05 6.05 19.44 16.76 1.59 12.29-6.95 22.54-18.97 22.57-13.22.04-21.26-11.69-19.16-22.23.04-.52.11-1.03.23-1.53.26-2.7 1.04-5.33 2.3-7.73-1.52.79-3.46 3.29-4.42 5.6a22.9 22.9 0 0 0-1.43 11.12c.04.29.07.57.1.85C12.09 46.24 21.3 54 31.97 54 44.06 54 54 44.04 54 31.93c0-4.79-1.56-9.45-4.43-13.28" style="fill:url(#d);fill-rule:nonzero"/><path d="M49.57 18.65a21.67 21.67 0 0 0-16.69-8.64c-5.11-.11-8.64 1.43-10.63 2.67 2.67-1.55 6.53-2.44 9.92-2.39 8.7.11 18.05 6.05 19.44 16.76 1.59 12.29-6.95 22.54-18.97 22.57-13.22.04-21.26-11.69-19.16-22.23.04-.52.11-1.03.23-1.53.26-2.7 1.04-5.33 2.3-7.73-1.52.79-3.46 3.29-4.42 5.6a22.9 22.9 0 0 0-1.43 11.12c.04.29.07.57.1.85C12.09 46.24 21.3 54 31.97 54 44.06 54 54 44.04 54 31.93c0-4.79-1.56-9.45-4.43-13.28" style="fill:url(#e);fill-rule:nonzero"/><path d="M49.57 18.65a21.67 21.67 0 0 0-16.69-8.64c-5.11-.11-8.64 1.43-10.63 2.67 2.67-1.55 6.53-2.44 9.92-2.39 8.7.11 18.05 6.05 19.44 16.76 1.59 12.29-6.95 22.54-18.97 22.57-13.22.04-21.26-11.69-19.16-22.23.04-.52.11-1.03.23-1.53.26-2.7 1.04-5.33 2.3-7.73-1.52.79-3.46 3.29-4.42 5.6a22.9 22.9 0 0 0-1.43 11.12c.04.29.07.57.1.85C12.09 46.24 21.3 54 31.97 54 44.06 54 54 44.04 54 31.93c0-4.79-1.56-9.45-4.43-13.28" style="fill:url(#f);fill-rule:nonzero"/><path d="M51.61 27.05c.17 1.32.23 2.66.16 3.99.73-.11 1.46-.21 2.2-.29-.24-4.38-1.77-8.6-4.4-12.1a21.67 21.67 0 0 0-16.69-8.64c-5.11-.11-8.64 1.43-10.63 2.67 2.67-1.55 6.53-2.44 9.92-2.39 8.7.11 18.05 6.05 19.44 16.76" style="fill:url(#g);fill-rule:nonzero"/><path d="M52.14 26.43c-1.23-11.19-11.19-16.21-19.97-16.14-3.39.03-7.25.84-9.92 2.39-.71.42-1.37.92-1.96 1.49.07-.06.28-.24.63-.48l.04-.02.03-.02a14.3 14.3 0 0 1 4.23-1.97c2.36-.66 4.8-.94 7.25-.85 9.35.56 16.84 8.24 17.18 17.62.2 7.28-5.74 13.08-12.59 13.42-4.99.24-9.68-2.17-11.97-7.01-.54-1.1-.9-2.27-1.08-3.48-1.09-7.36 3.84-13.63 8.36-15.19-2.44-2.13-8.55-1.99-13.1 1.37-3.27 2.41-5.4 6.08-6.1 10.47a18.2 18.2 0 0 0 1.28 9.91C17.3 44.68 23.72 49.26 31 49.76c.55.04 1.09.06 1.64.06 14.55 0 20.87-11.07 19.5-23.39" style="fill:url(#h);fill-rule:nonzero"/><path d="M52.14 26.43c-1.23-11.19-11.19-16.21-19.97-16.14-3.39.03-7.25.84-9.92 2.39-.71.42-1.37.92-1.96 1.49.07-.06.28-.24.63-.48l.04-.02.03-.02a14.3 14.3 0 0 1 4.23-1.97c2.36-.66 4.8-.94 7.25-.85 9.35.56 16.84 8.24 17.18 17.62.2 7.28-5.74 13.08-12.59 13.42-4.99.24-9.68-2.17-11.97-7.01-.54-1.1-.9-2.27-1.08-3.48-1.09-7.36 3.84-13.63 8.36-15.19-2.44-2.13-8.55-1.99-13.1 1.37-3.27 2.41-5.4 6.08-6.1 10.47a18.2 18.2 0 0 0 1.28 9.91C17.3 44.68 23.72 49.26 31 49.76c.55.04 1.09.06 1.64.06 14.55 0 20.87-11.07 19.5-23.39" style="fill:url(#i);fill-rule:nonzero"/><path d="M52.14 26.43c-1.23-11.19-11.19-16.21-19.97-16.14-3.39.03-7.25.84-9.92 2.39-.71.42-1.37.92-1.96 1.49.07-.06.28-.24.63-.48l.04-.02.03-.02a14.3 14.3 0 0 1 4.23-1.97c2.36-.66 4.8-.94 7.25-.85 9.35.56 16.84 8.24 17.18 17.62.2 7.28-5.74 13.08-12.59 13.42-4.99.24-9.68-2.17-11.97-7.01-.54-1.1-.9-2.27-1.08-3.48-1.09-7.36 3.84-13.63 8.36-15.19-2.44-2.13-8.55-1.99-13.1 1.37-3.27 2.41-5.4 6.08-6.1 10.47a18.2 18.2 0 0 0 1.28 9.91C17.3 44.68 23.72 49.26 31 49.76c.55.04 1.09.06 1.64.06 14.55 0 20.87-11.07 19.5-23.39" style="fill:url(#j);fill-rule:nonzero"/><path d="M52.14 26.43c-1.23-11.19-11.19-16.21-19.97-16.14-3.39.03-7.25.84-9.92 2.39-.71.42-1.37.92-1.96 1.49.07-.06.28-.24.63-.48l.04-.02.03-.02a14.3 14.3 0 0 1 4.23-1.97c2.36-.66 4.8-.94 7.25-.85 9.35.56 16.84 8.24 17.18 17.62.2 7.28-5.74 13.08-12.59 13.42-4.99.24-9.68-2.17-11.97-7.01-.54-1.1-.9-2.27-1.08-3.48-1.09-7.36 3.84-13.63 8.36-15.19-2.44-2.13-8.55-1.99-13.1 1.37-3.27 2.41-5.4 6.08-6.1 10.47a18.2 18.2 0 0 0 1.28 9.91C17.3 44.68 23.72 49.26 31 49.76c.55.04 1.09.06 1.64.06 14.55 0 20.87-11.07 19.5-23.39" style="fill:url(#k);fill-rule:nonzero"/><path d="M37.06 41.87c9.4-.57 13.43-8.38 13.68-13.91.39-8.65-4.73-17.97-18.27-17.13-2.45-.09-4.89.2-7.25.85-1.5.44-2.93 1.11-4.23 1.97l-.03.02-.04.02c-.21.15-.41.3-.62.47 3.51-1.97 7.56-2.73 11.54-2.17 7.78 1.02 14.89 7.08 14.89 15.08 0 6.15-4.75 10.85-10.31 10.52-8.25-.5-10.34-8.99-6.04-12.65-1.16-.25-3.33.24-4.85 2.51-1.36 2.04-1.28 5.18-.44 7.41 2.13 4.6 6.92 7.4 11.97 7.01" style="fill:url(#l);fill-rule:nonzero"/><path d="M49.57 18.65c-.59-.77-1.23-1.5-1.91-2.19a18 18 0 0 0-1.75-1.62c.35.32.69.64 1.02.99 1.2 1.29 2.11 2.82 2.68 4.49 1.15 3.49 1.07 7.85-1.12 11.28-2.48 3.9-6.86 6.19-11.47 6-.2 0-.4 0-.6-.01-8.25-.5-10.34-8.99-6.04-12.65-1.16-.25-3.33.24-4.85 2.51-1.36 2.04-1.28 5.18-.44 7.41-.54-1.1-.9-2.27-1.08-3.48-1.09-7.36 3.84-13.63 8.36-15.19-2.44-2.13-8.55-1.99-13.1 1.37-2.67 2-4.62 4.83-5.55 8.04.3-2.61 1.07-5.14 2.29-7.47-1.52.79-3.46 3.29-4.42 5.6a22.9 22.9 0 0 0-1.43 11.12c.04.29.07.57.1.85C12.09 46.24 21.3 54 31.97 54 44.06 54 54 44.04 54 31.93c0-4.79-1.56-9.45-4.43-13.28" style="fill:url(#m);fill-rule:nonzero"/><path d="M49.61 20.32c-.57-1.67-1.48-3.2-2.68-4.49a16.8 16.8 0 0 0-5.01-3.58c-1.56-.77-3.21-1.36-4.91-1.74-3-.66-6.1-.68-9.11-.06-3.13.66-5.87 2.02-7.61 3.71 1.38-.78 2.87-1.38 4.41-1.76 6.1-1.54 12.57.15 17.15 4.46a15.2 15.2 0 0 1 2.38 2.92c2.69 4.39 2.43 9.9.34 13.15-1.56 2.42-4.9 4.69-8.02 4.66 4.77.36 9.37-1.95 11.94-5.99 2.19-3.43 2.27-7.79 1.12-11.28" style="fill:url(#n);fill-rule:nonzero"/><path d="M49.61 20.32c-.57-1.67-1.48-3.2-2.68-4.49a16.8 16.8 0 0 0-5.01-3.58c-1.56-.77-3.21-1.36-4.91-1.74-3-.66-6.1-.68-9.11-.06-3.13.66-5.87 2.02-7.61 3.71 1.38-.78 2.87-1.38 4.41-1.76 6.1-1.54 12.57.15 17.15 4.46a15.2 15.2 0 0 1 2.38 2.92c2.69 4.39 2.43 9.9.34 13.15-1.56 2.42-4.9 4.69-8.02 4.66 4.77.36 9.37-1.95 11.94-5.99 2.19-3.43 2.27-7.79 1.12-11.28" style="fill:url(#o);fill-rule:nonzero"/><defs><radialGradient id="b" cx="0" cy="0" r="1" gradientTransform="matrix(49.91963 0 0 50.01813 49.343 19.029)" gradientUnits="userSpaceOnUse"><stop offset="0" style="stop-color:#fff36e;stop-opacity:1"/><stop offset=".5" style="stop-color:#fc4055;stop-opacity:1"/><stop offset="1" style="stop-color:#e31587;stop-opacity:1"/></radialGradient><radialGradient id="c" cx="0" cy="0" r="1" gradientTransform="matrix(29.54376 0 0 29.60205 13.654 21.097)" gradientUnits="userSpaceOnUse"><stop offset="0" style="stop-color:#c60084;stop-opacity:.67"/><stop offset="0" style="stop-color:#c60084;stop-opacity:.67"/><stop offset="1" style="stop-color:#fc4055;stop-opacity:0"/></radialGradient><radialGradient id="d" cx="0" cy="0" r="1" gradientTransform="matrix(58.61845 0 0 58.7341 53.61 16.182)" gradientUnits="userSpaceOnUse"><stop offset="0" style="stop-color:#ffde67;stop-opacity:.6"/><stop offset=".09" style="stop-color:#ffd966;stop-opacity:.58"/><stop offset=".2" style="stop-color:#ffca65;stop-opacity:.52"/><stop offset=".32" style="stop-color:#feb262;stop-opacity:.43"/><stop offset=".45" style="stop-color:#fe8f5e;stop-opacity:.3"/><stop offset=".57" style="stop-color:#fd6459;stop-opacity:.13"/><stop offset=".66" style="stop-color:#fc4055;stop-opacity:0"/><stop offset="1" style="stop-color:#fc4055;stop-opacity:0"/></radialGradient><radialGradient id="e" cx="0" cy="0" r="1" gradientTransform="matrix(75.62236 0 0 75.77157 33.261 34.467)" gradientUnits="userSpaceOnUse"><stop offset="0" style="stop-color:#810220;stop-opacity:1"/><stop offset=".15" style="stop-color:#810220;stop-opacity:1"/><stop offset=".17" style="stop-color:#920b27;stop-opacity:.86"/><stop offset=".22" style="stop-color:#cb2740;stop-opacity:.4"/><stop offset=".25" style="stop-color:#ef394f;stop-opacity:.11"/><stop offset=".27" style="stop-color:#fc4055;stop-opacity:0"/><stop offset="1" style="stop-color:#fc4055;stop-opacity:0"/></radialGradient><radialGradient id="f" cx="0" cy="0" r="1" gradientTransform="matrix(75.62236 0 0 75.77157 27.538 33.514)" gradientUnits="userSpaceOnUse"><stop offset="0" style="stop-color:#810220;stop-opacity:1"/><stop offset=".11" style="stop-color:#810220;stop-opacity:1"/><stop offset=".13" style="stop-color:#920b27;stop-opacity:.86"/><stop offset=".2" style="stop-color:#cb2740;stop-opacity:.4"/><stop offset=".26" style="stop-color:#ef394f;stop-opacity:.11"/><stop offset=".28" style="stop-color:#fc4055;stop-opacity:0"/><stop offset="1" style="stop-color:#fc4055;stop-opacity:0"/></radialGradient><radialGradient id="h" cx="0" cy="0" r="1" gradientTransform="matrix(46.862 0 0 47.05238 48.202 16.663)" gradientUnits="userSpaceOnUse"><stop offset="0" style="stop-color:#ff9640;stop-opacity:1"/><stop offset=".8" style="stop-color:#fc4055;stop-opacity:1"/><stop offset="1" style="stop-color:#fc4055;stop-opacity:1"/></radialGradient><radialGradient id="i" cx="0" cy="0" r="1" gradientTransform="matrix(46.862 0 0 47.05238 48.202 16.663)" gradientUnits="userSpaceOnUse"><stop offset="0" style="stop-color:#ffde67;stop-opacity:1"/><stop offset=".08" style="stop-color:#ffde67;stop-opacity:1"/><stop offset=".15" style="stop-color:#ffdc66;stop-opacity:.96"/><stop offset=".25" style="stop-color:#ffd562;stop-opacity:.88"/><stop offset=".37" style="stop-color:#ffcb5d;stop-opacity:.73"/><stop offset=".51" style="stop-color:#ffbc55;stop-opacity:.53"/><stop offset=".67" style="stop-color:#ffaa4b;stop-opacity:.28"/><stop offset=".82" style="stop-color:#ff9640;stop-opacity:0"/><stop offset="1" style="stop-color:#ff9640;stop-opacity:0"/></radialGradient><radialGradient id="j" cx="0" cy="0" r="1" gradientTransform="matrix(5.6761 22.35779 -23.23297 5.96361 37.469 31.298)" gradientUnits="userSpaceOnUse"><stop offset="0" style="stop-color:#fc4055;stop-opacity:.53"/><stop offset=".36" style="stop-color:#fc4055;stop-opacity:.53"/><stop offset=".44" style="stop-color:#fd604d;stop-opacity:.33"/><stop offset=".55" style="stop-color:#fe8644;stop-opacity:.1"/><stop offset=".59" style="stop-color:#ff9640;stop-opacity:0"/><stop offset="1" style="stop-color:#ff9640;stop-opacity:0"/></radialGradient><radialGradient id="k" cx="0" cy="0" r="1" gradientTransform="matrix(22.98019 0 0 23.02553 33.51 33.196)" gradientUnits="userSpaceOnUse"><stop offset="0" style="stop-color:#fc4055;stop-opacity:.42"/><stop offset=".22" style="stop-color:#fc4055;stop-opacity:.42"/><stop offset=".27" style="stop-color:#fd5251;stop-opacity:.33"/><stop offset=".41" style="stop-color:#fe8345;stop-opacity:.1"/><stop offset=".47" style="stop-color:#ff9640;stop-opacity:0"/><stop offset="1" style="stop-color:#ff9640;stop-opacity:0"/></radialGradient><radialGradient id="l" cx="0" cy="0" r="1" gradientTransform="matrix(79.2055 0 0 79.52728 57.555 11.348)" gradientUnits="userSpaceOnUse"><stop offset="0" style="stop-color:#fff36e;stop-opacity:1"/><stop offset=".05" style="stop-color:#fff36e;stop-opacity:1"/><stop offset=".46" style="stop-color:#ff9640;stop-opacity:1"/><stop offset="1" style="stop-color:#ff9640;stop-opacity:1"/></radialGradient><linearGradient id="a" x1="0" x2="1" y1="0" y2="0" gradientTransform="matrix(0 56 -48.66283 0 32 4)" gradientUnits="userSpaceOnUse"><stop offset="0" style="stop-color:#fff;stop-opacity:.1"/><stop offset="1" style="stop-color:#000;stop-opacity:.1"/></linearGradient><linearGradient id="g" x1="0" x2="1" y1="0" y2="0" gradientTransform="matrix(12.95447 22.48226 -22.43799 12.98003 35.211 14.291)" gradientUnits="userSpaceOnUse"><stop offset="0" style="stop-color:#ffbd4f;stop-opacity:1"/><stop offset=".51" style="stop-color:#ff9640;stop-opacity:0"/><stop offset="1" style="stop-color:#ff9640;stop-opacity:0"/></linearGradient><linearGradient id="m" x1="0" x2="1" y1="0" y2="0" gradientTransform="matrix(-22.48913 39.0299 -38.95304 -22.5335 42.481 13.903)" gradientUnits="userSpaceOnUse"><stop offset="0" style="stop-color:#fff36e;stop-opacity:.8"/><stop offset=".09" style="stop-color:#fff36e;stop-opacity:.7"/><stop offset=".75" style="stop-color:#fff36e;stop-opacity:0"/><stop offset="1" style="stop-color:#fff36e;stop-opacity:0"/></linearGradient><linearGradient id="n" x1="0" x2="1" y1="0" y2="0" gradientTransform="matrix(11.94101 34.64188 -34.57366 11.96457 32.326 9.632)" gradientUnits="userSpaceOnUse"><stop offset="0" style="stop-color:#b833e1;stop-opacity:1"/><stop offset=".37" style="stop-color:#9059ff;stop-opacity:1"/><stop offset=".61" style="stop-color:#5b6df8;stop-opacity:1"/><stop offset="1" style="stop-color:#0090ed;stop-opacity:1"/></linearGradient><linearGradient id="o" x1="0" x2="1" y1="0" y2="0" gradientTransform="matrix(22.19439 22.23818 -22.19439 22.23818 25.246 10.18)" gradientUnits="userSpaceOnUse"><stop offset="0" style="stop-color:#722291;stop-opacity:0"/><stop offset=".81" style="stop-color:#722291;stop-opacity:0"/><stop offset="1" style="stop-color:#592acb;stop-opacity:.5"/></linearGradient></defs></svg>