<svg xmlns="http://www.w3.org/2000/svg" width="64" height="64" viewBox="0 0 64 64"><defs><linearGradient id="a" x1=".5" x2=".49" y1="0" y2="1"><stop offset="0%" style="stop-color:rgba(255,255,255,.1)"/><stop offset="100%" style="stop-color:rgba(0,0,0,.1)"/></linearGradient></defs><path d="M16 4h32c6.623 0 12 5.377 12 12v32c0 6.623-5.377 12-12 12H16C9.377 60 4 54.623 4 48V16C4 9.377 9.377 4 16 4" style="stroke:none;fill:#37b24d;stroke-miterlimit:10"/><path d="M16 4h32c6.623 0 12 5.377 12 12v32c0 6.623-5.377 12-12 12H16C9.377 60 4 54.623 4 48V16C4 9.377 9.377 4 16 4" style="stroke:none;fill:url(#a);stroke-miterlimit:10"/><path fill="#fff" fill-rule="evenodd" d="M33.273 14.182 23.091 34.545h7.636v15.273l10.182-20.363h-7.636z"/></svg>