<svg xmlns="http://www.w3.org/2000/svg" xml:space="preserve" style="fill-rule:evenodd;clip-rule:evenodd;stroke-linejoin:round;stroke-miterlimit:2" viewBox="0 0 64 64"><path d="M16 4h32c6.62 0 12 5.38 12 12v32c0 6.62-5.38 12-12 12H16C9.38 60 4 54.62 4 48V16C4 9.38 9.38 4 16 4" style="fill:url(#a);fill-rule:nonzero"/><path d="M16.65 25.06c-2.3-3.99-.46-9.36 4.1-12 4.56-2.63 10.14-1.53 12.44 2.45 2.3 3.99.47 9.37-4.1 12-4.56 2.64-10.14 1.54-12.44-2.45" style="fill:url(#b);fill-rule:nonzero"/><circle cx="32" cy="32.35" r="20" style="fill:url(#c)"/><circle cx="28.32" cy="26.14" r="6.67" style="fill:url(#d)"/><defs><linearGradient id="a" x1="0" x2="1" y1="0" y2="0" gradientTransform="rotate(90 16.576 15.928)scale(72.632)" gradientUnits="userSpaceOnUse"><stop offset="0" style="stop-color:#fbb521;stop-opacity:1"/><stop offset="1" style="stop-color:#f15f19;stop-opacity:1"/></linearGradient><linearGradient id="b" x1="0" x2="1" y1="0" y2="0" gradientTransform="rotate(52.138 -5.323 25.196)scale(13.67814)" gradientUnits="userSpaceOnUse"><stop offset="0" style="stop-color:#e8ebec;stop-opacity:1"/><stop offset="1" style="stop-color:#fdfeff;stop-opacity:1"/></linearGradient><linearGradient id="c" x1="0" x2="1" y1="0" y2="0" gradientTransform="rotate(90 13.546 19.132)scale(53.16)" gradientUnits="userSpaceOnUse"><stop offset="0" style="stop-color:#e8ebec;stop-opacity:1"/><stop offset="1" style="stop-color:#fdfeff;stop-opacity:1"/></linearGradient><linearGradient id="d" x1="0" x2="1" y1="0" y2="0" gradientTransform="rotate(90 8.9 19.55)scale(23.9595)" gradientUnits="userSpaceOnUse"><stop offset="0" style="stop-color:#197cf1;stop-opacity:1"/><stop offset="1" style="stop-color:#21c9fb;stop-opacity:1"/></linearGradient></defs></svg>