<svg xmlns="http://www.w3.org/2000/svg" width="64" height="64" viewBox="0 0 64 64"><defs><linearGradient id="a" x1=".5" x2=".49" y1="0" y2="1"><stop offset="0%" style="stop-color:rgba(255,255,255,.1)"/><stop offset="100%" style="stop-color:rgba(0,0,0,.1)"/></linearGradient></defs><path d="M16 4h32c6.623 0 12 5.377 12 12v32c0 6.623-5.377 12-12 12H16C9.377 60 4 54.623 4 48V16C4 9.377 9.377 4 16 4" style="stroke:none;fill:#ff922b;stroke-miterlimit:10"/><path d="M16 4h32c6.623 0 12 5.377 12 12v32c0 6.623-5.377 12-12 12H16C9.377 60 4 54.623 4 48V16C4 9.377 9.377 4 16 4" style="stroke:none;fill:url(#a);stroke-miterlimit:10"/><linearGradient id="b" x1=".927" x2="-.029" y1=".876" y2=".353" gradientTransform="matrix(36.449 0 0 32.765 15.115 14.856)" gradientUnits="userSpaceOnUse"><stop offset="0%" style="stop-color:#6c5548"/><stop offset="100%" style="stop-color:#bb9d71"/></linearGradient><path fill="url(#b)" fill-rule="evenodd" d="M48.881 14.857c-.341-.014-.622.204-.78.436-.156.227-.254.502-.324.84-.124.586-.58 2.755-2.85 5.109-2.269 2.357-6.301 5.408-13.777 6.459-5.692.723-9.603-2.541-11.626-7.326l.339 2.929.927 8.231.057.103s.509.831.214 2.059c-.294 1.233-1.817 2.967-5.494 4.507l-.452.188.144.463c.341 1.121 1.319 2.199 2.698 3.257 1.383 1.057 3.185 2.083 5.247 2.959 4.125 1.752 9.285 2.916 14.113 2.445 4.828-.476 9.351-2.649 11.95-7.517 2.602-4.865 3.217-12.861.679-23.92l-.003-.003v-.003a2.2 2.2 0 0 0-.328-.774c-.154-.214-.392-.428-.734-.442"/><path fill-rule="evenodd" d="M28.391 40.98c7.175.686 10.58-1.111 12.468-3.073-.639-.697-1.101-1.483-1.101-1.483s1.955.508 2.953 1.593c.994 1.084.539 1.875.488 3.415-.652-1.272-1.644-1.664-1.83-2.177-1.558 2.987-6.249 3.412-12.978 1.725"/><linearGradient id="c" x1=".698" x2=".632" y1=".29" y2=".361" gradientTransform="matrix(12.185 0 0 6.284 38.964 38.938)" gradientUnits="userSpaceOnUse"><stop offset="0%" style="stop-color:#ffa92d"/><stop offset="100%" style="stop-color:#cd7223"/></linearGradient><path fill="url(#c)" d="m50.389 45.222.76-2.083c-3.988-2.262-11.17-4.201-11.17-4.201l-1.015.72s6.875 4.807 11.424 5.564z"/><linearGradient id="d" x1=".35" x2=".453" y1=".857" y2=".709" gradientTransform="matrix(7.513 0 0 4.832 48.226 41.592)" gradientUnits="userSpaceOnUse"><stop offset="0%" style="stop-color:#6f8181"/><stop offset="100%" style="stop-color:#b0b8b8"/></linearGradient><path fill="url(#d)" d="m50.007 41.592-.478.399c-.446.318-.784.807-1.038 1.356-.262.887-.342 1.43-.185 2.25l.73-.214s4.031.666 5.947 1.041l.167-.439.589-1.56-5.652-2.116z"/><radialGradient id="e" cx=".177" cy=".428" r="1" fx=".177" fy=".428" gradientTransform="matrix(8.074 0 0 6.935 53.833 44.094)" gradientUnits="userSpaceOnUse"><stop offset="0%" style="stop-color:#334545"/><stop offset="100%" style="stop-color:#172525"/></radialGradient><path fill="url(#e)" d="M61.907 51.029c-1.832-4.17-2.699-7.548-6.141-6.841-2.772.569-2.524 4.436.492 5.162q2.864.706 5.649 1.678z"/><radialGradient id="f" cx=".5" cy=".5" r="1" fx=".5" fy=".5" gradientTransform="matrix(9.681 0 0 9.676 19.837 27.375)" gradientUnits="userSpaceOnUse"><stop offset="0%" style="stop-color:#cfd5d5"/><stop offset="100%" style="stop-color:#fcfcfc"/></radialGradient><path fill="url(#f)" fill-rule="evenodd" d="M24.122 27.41c-1.185.137-2.334.669-3.147 1.583-.817.915-1.279 2.217-1.099 3.774.177 1.557.925 2.722 1.928 3.425 1.005.707 2.241.96 3.429.823 1.185-.137 2.334-.666 3.151-1.58s1.276-2.22 1.095-3.776c-.177-1.558-.925-2.722-1.928-3.426-1.002-.703-2.241-.96-3.429-.823"/><radialGradient id="g" cx=".203" cy=".234" r="1" fx=".203" fy=".234" gradientTransform="matrix(12.235 0 0 12.515 11.643 31.623)" gradientUnits="userSpaceOnUse"><stop offset="0%" style="stop-color:#334545"/><stop offset="100%" style="stop-color:#172525"/></radialGradient><path fill="url(#g)" fill-rule="evenodd" d="M15.527 31.649a5 5 0 0 0-.757.144 4.26 4.26 0 0 0-1.721.943c-1.935 1.765-2.096 5.278.935 8.582 3.025 3.309 6.545 3.469 8.484 1.704s2.1-5.273-.931-8.581c-1.985-2.17-4.186-2.987-6.01-2.789z"/><radialGradient id="h" cx=".5" cy=".5" r="1" fx=".5" fy=".5" gradientTransform="matrix(10.758 0 0 10.75 28.427 26.328)" gradientUnits="userSpaceOnUse"><stop offset="0%" style="stop-color:#cfd5d5"/><stop offset="100%" style="stop-color:#fcfcfc"/></radialGradient><path fill="url(#h)" fill-rule="evenodd" d="M33.189 26.369c-1.32.15-2.596.743-3.502 1.757-.908 1.011-1.417 2.458-1.216 4.195.201 1.734 1.024 3.024 2.14 3.807 1.111.78 2.49 1.062 3.81.911s2.598-.743 3.502-1.757c.908-1.015 1.419-2.458 1.219-4.193-.201-1.738-1.029-3.03-2.143-3.81-1.112-.78-2.491-1.065-3.81-.91"/><radialGradient id="i" cx=".5" cy=".5" r="1" fx=".5" fy=".5" gradientTransform="matrix(5.376 0 0 5.378 32.781 29.359)" gradientUnits="userSpaceOnUse"><stop offset="0%" style="stop-color:#334545"/><stop offset="100%" style="stop-color:#172525"/></radialGradient><path fill="url(#i)" fill-rule="evenodd" d="M35.161 29.381a2.74 2.74 0 0 0-1.745.878c-.459.512-.713 1.249-.613 2.099.098.847.513 1.507 1.075 1.899.555.38 1.231.543 1.899.458a2.75 2.75 0 0 0 1.748-.88c.458-.509.709-1.245.612-2.096-.097-.847-.512-1.507-1.075-1.899a2.74 2.74 0 0 0-1.901-.459"/><radialGradient id="j" cx=".5" cy=".5" r="1" fx=".5" fy=".5" gradientTransform="matrix(4.303 0 0 4.302 24.188 30.412)" gradientUnits="userSpaceOnUse"><stop offset="0%" style="stop-color:#334545"/><stop offset="100%" style="stop-color:#172525"/></radialGradient><path fill="url(#j)" fill-rule="evenodd" d="M26.094 30.43a2.2 2.2 0 0 0-1.399.699c-.366.412-.57.998-.489 1.681.077.677.408 1.206.857 1.521.446.305.988.435 1.523.365a2.2 2.2 0 0 0 1.397-.703c.364-.409.569-.999.492-1.678-.081-.68-.412-1.206-.861-1.52a2.2 2.2 0 0 0-1.521-.365z"/></svg>