<svg xmlns="http://www.w3.org/2000/svg" width="16" height="16" viewBox="0 0 16 16"><path fill="gray" d="M-3.262 1.291a.58.58 0 0 1 .4.137A9 9 0 0 1 0 8a9 9 0 0 1-2.877 6.58c-.497.42-1.123-.257-.678-.728A8 8 0 0 0-1 8a8 8 0 0 0-2.545-5.84c-.341-.38-.092-.842.283-.869m-2.34 1.416a.64.64 0 0 1 .377.182A7 7 0 0 1-3 7.999a7 7 0 0 1-2.236 5.118c-.506.418-1.148-.282-.68-.728A6 6 0 0 0-4 7.999a6 6 0 0 0-1.908-4.378c-.403-.396-.118-.947.307-.914M-10 3v10l-3-3h-2c-.554 0-1-.446-1-1V7c0-.554.446-1 1-1h2zm2.065 1.184a.56.56 0 0 1 .345.166A5 5 0 0 1-6 8a5 5 0 0 1-1.598 3.656c-.54.422-1.152-.3-.68-.73A4 4 0 0 0-7 8a4 4 0 0 0-1.273-2.92c-.369-.399-.063-.922.337-.896z" style="paint-order:normal" transform="scale(-1 1)"/></svg>