<svg xmlns="http://www.w3.org/2000/svg" width="48" height="48" viewBox="0 0 12.7 12.7"><g transform="translate(0 -284.3)"><path d="M24 11a13 13 0 0 0-4.559.844v-.002l-.037.02a13 13 0 0 0-1.088.47l-.115.055a13 13 0 0 0-1.03.576l-.093.057a13 13 0 0 0-.935.65l-.163.123a13 13 0 0 0-.777.666 13 13 0 0 0-.242.225 13 13 0 0 0-.652.685 13 13 0 0 0-.237.268 13 13 0 0 0-.549.705 13 13 0 0 0-.265.37 13 13 0 0 0-.432.686 13 13 0 0 0-.25.434 13 13 0 0 0-.33.658 13 13 0 0 0-.248.559 13 13 0 0 0-.164.392l.014.004A13 13 0 0 0 11 24.002a13 13 0 0 0 .846 4.559h-.004l.017.033a13 13 0 0 0 .45 1.047l.091.187a13 13 0 0 0 .534.957l.1.164a13 13 0 0 0 .632.905l.125.164a13 13 0 0 0 .664.779 13 13 0 0 0 .229.244 13 13 0 0 0 .658.63 13 13 0 0 0 .308.27 13 13 0 0 0 .682.532 13 13 0 0 0 .38.271 13 13 0 0 0 .663.418 13 13 0 0 0 .469.268 13 13 0 0 0 .625.314 13 13 0 0 0 .603.268 13 13 0 0 0 .367.154l.004-.016a13 13 0 0 0 4.557.848 13 13 0 0 0 4.559-.844v.002l.037-.02a13 13 0 0 0 1.076-.466l.135-.065a13 13 0 0 0 .996-.556l.138-.082a13 13 0 0 0 .891-.621l.205-.157a13 13 0 0 0 .744-.634 13 13 0 0 0 .262-.246 13 13 0 0 0 .635-.666 13 13 0 0 0 .263-.3 13 13 0 0 0 .51-.652 13 13 0 0 0 .307-.433 13 13 0 0 0 .388-.617 13 13 0 0 0 .293-.508 13 13 0 0 0 .291-.584 13 13 0 0 0 .284-.633 13 13 0 0 0 .152-.36l-.014-.003A13 13 0 0 0 37 23.996a13 13 0 0 0-.846-4.558h.004l-.017-.034a13 13 0 0 0-.471-1.088l-.055-.115a13 13 0 0 0-.574-1.03l-.059-.095a13 13 0 0 0-.65-.933l-.121-.16a13 13 0 0 0-.69-.805l-.185-.2a13 13 0 0 0-.707-.675 13 13 0 0 0-.262-.229 13 13 0 0 0-.726-.568 13 13 0 0 0-.336-.238 13 13 0 0 0-.707-.446 13 13 0 0 0-.426-.244 13 13 0 0 0-.662-.332 13 13 0 0 0-.573-.254 13 13 0 0 0-.376-.16l-.004.016A13 13 0 0 0 24 11m0 3a10 10 0 0 1 10 10 10 10 0 0 1-10 10 10 10 0 0 1-10-10 10 10 0 0 1 10-10" style="opacity:1;vector-effect:none;fill:gray;fill-opacity:1;stroke:none;stroke-width:1.00199997;stroke-linecap:butt;stroke-linejoin:miter;stroke-miterlimit:4;stroke-dasharray:none;stroke-dashoffset:6.5999999;stroke-opacity:1" transform="translate(0 284.3)scale(.26458)"/><circle cx="6.35" cy="290.65" r="1.058" style="opacity:1;vector-effect:none;fill:gray;fill-opacity:1;stroke:none;stroke-width:.26511249;stroke-linecap:butt;stroke-linejoin:miter;stroke-miterlimit:4;stroke-dasharray:none;stroke-dashoffset:6.5999999;stroke-opacity:1"/><rect width="9.79" height="9.79" x="1.455" y="285.755" rx=".979" ry=".979" style="opacity:1;vector-effect:none;fill:none;fill-opacity:1;stroke:gray;stroke-width:.79375;stroke-linecap:butt;stroke-linejoin:miter;stroke-miterlimit:4;stroke-dasharray:none;stroke-dashoffset:6.5999999;stroke-opacity:1"/><circle cx="3.175" cy="287.475" r=".529" style="opacity:1;vector-effect:none;fill:gray;fill-opacity:1;stroke:none;stroke-width:.79374999;stroke-linecap:butt;stroke-linejoin:miter;stroke-miterlimit:4;stroke-dasharray:none;stroke-dashoffset:6.5999999;stroke-opacity:1"/><circle cx="9.525" cy="287.475" r=".529" style="opacity:1;vector-effect:none;fill:gray;fill-opacity:1;stroke:none;stroke-width:.79374999;stroke-linecap:butt;stroke-linejoin:miter;stroke-miterlimit:4;stroke-dasharray:none;stroke-dashoffset:6.5999999;stroke-opacity:1"/><circle cx="3.175" cy="293.825" r=".529" style="opacity:1;vector-effect:none;fill:gray;fill-opacity:1;stroke:none;stroke-width:.79374999;stroke-linecap:butt;stroke-linejoin:miter;stroke-miterlimit:4;stroke-dasharray:none;stroke-dashoffset:6.5999999;stroke-opacity:1"/><circle cx="9.525" cy="293.825" r=".529" style="opacity:1;vector-effect:none;fill:gray;fill-opacity:1;stroke:none;stroke-width:.79374999;stroke-linecap:butt;stroke-linejoin:miter;stroke-miterlimit:4;stroke-dasharray:none;stroke-dashoffset:6.5999999;stroke-opacity:1"/></g></svg>