<svg xmlns="http://www.w3.org/2000/svg" width="16" height="16" viewBox="0 0 16 16"><path fill="gray" d="M3 3c-1.108 0-2 .892-2 2v7c0 1.108.892 2 2 2h10c1.108 0 2-.892 2-2V5c0-1.108-.892-2-2-2zm0 1h10c.554 0 1 .446 1 1v7c0 .554-.446 1-1 1H3c-.554 0-1-.446-1-1V5c0-.554.446-1 1-1"/><rect width="1" height="3" x="4" y="1" fill="gray" rx=".5" ry=".5" style="paint-order:fill markers stroke"/><rect width="1" height="3" x="7.5" y="1" fill="gray" rx=".5" ry=".5" style="paint-order:fill markers stroke"/><rect width="1" height="3" x="11" y="1" fill="gray" rx=".5" ry=".5" style="paint-order:fill markers stroke"/><rect width="1" height="3" x="4" y="13" fill="gray" rx=".5" ry=".5" style="paint-order:fill markers stroke"/><rect width="1" height="3" x="7.5" y="13" fill="gray" rx=".5" ry=".5" style="paint-order:fill markers stroke"/><rect width="1" height="3" x="11" y="13" fill="gray" rx=".5" ry=".5" style="paint-order:fill markers stroke"/></svg>