<svg xmlns="http://www.w3.org/2000/svg" viewBox="0 0 16.933 16.933">
    <rect width="48" height="56" x="8" y="4" fill="#f5f5f5" rx="6" transform="scale(.26458)"/>
    <path fill="#757575" d="M5.755 6.586h-.31V4.982q0-.338.015-.633l-.479.408-.169-.211.676-.535h.267zm.901-1.295q0-.661.197-.985.211-.337.62-.337.421 0 .618.337.211.324.211.985 0 .662-.21 1-.198.323-.62.323-.408 0-.62-.323-.196-.338-.196-1m1.323 0q0-.59-.141-.816-.127-.225-.366-.225-.225 0-.366.225-.126.211-.126.816 0 .62.126.845.14.211.366.211.24 0 .366-.225.14-.225.14-.83zm.661 0q0-.661.197-.985.211-.337.62-.337.422 0 .619.337.21.324.21.985 0 .662-.21 1-.197.323-.62.323-.408 0-.619-.323-.197-.338-.197-1m1.323 0q0-.59-.14-.816-.127-.225-.366-.225-.226 0-.366.225-.127.211-.127.816 0 .62.127.845.14.211.366.211.239 0 .365-.225.141-.225.141-.83zm.662 0q0-.661.197-.985.211-.337.62-.337.421 0 .618.337.211.324.211.985 0 .662-.21 1-.198.323-.62.323-.408 0-.62-.323-.196-.338-.196-1m1.323 0q0-.59-.141-.816-.127-.225-.366-.225-.225 0-.366.225-.126.211-.126.816 0 .62.126.845.14.211.366.211.24 0 .366-.225.14-.225.14-.83zM4.672 8.466q0-.66.197-.985.21-.337.619-.337.422 0 .619.337.211.324.211.986 0 .66-.21.999-.198.323-.62.323-.408 0-.62-.323-.196-.338-.196-1m1.322 0q0-.59-.14-.816-.127-.225-.366-.225-.225 0-.366.225-.127.211-.127.816 0 .62.127.845.14.211.366.211.24 0 .366-.225.14-.225.14-.83zM7.74 9.761h-.31V8.157q0-.338.014-.633l-.478.408-.17-.211.676-.535h.268zm.9-1.295q0-.66.197-.985.211-.337.62-.337.422 0 .619.337.21.324.21.986 0 .66-.21.999-.197.323-.62.323-.408 0-.619-.323-.197-.338-.197-1m1.323 0q0-.59-.14-.816-.127-.225-.366-.225-.226 0-.366.225-.127.211-.127.816 0 .62.127.845.14.211.366.211.239 0 .365-.225.141-.225.141-.83zm.662 0q0-.66.197-.985.211-.337.62-.337.421 0 .618.337.211.324.211.986 0 .66-.21.999-.198.323-.62.323-.408 0-.62-.323-.196-.338-.196-1m1.323 0q0-.59-.141-.816-.127-.225-.366-.225-.225 0-.366.225-.126.211-.126.816 0 .62.126.845.14.211.366.211.24 0 .366-.225.14-.225.14-.83zm-7.286 3.175q0-.661.197-.985.21-.337.619-.337.422 0 .619.337.211.324.211.985t-.211 1q-.197.323-.62.323-.407 0-.618-.323-.197-.338-.197-1m1.322 0q0-.59-.14-.816-.127-.225-.366-.225-.225 0-.366.225-.127.211-.127.816 0 .62.127.845.14.211.366.211.24 0 .366-.225.14-.225.14-.83zm.662 0q0-.661.197-.985.211-.337.62-.337.421 0 .618.337.212.324.212.985t-.212 1q-.197.323-.619.323-.408 0-.619-.323-.197-.338-.197-1m1.323 0q0-.59-.14-.816-.128-.225-.367-.225-.225 0-.366.225-.126.211-.126.816 0 .62.126.845.141.211.366.211.24 0 .366-.225.14-.225.14-.83zm1.745 1.295h-.31v-1.604q0-.338.014-.633l-.478.408-.169-.211.676-.535h.267zm.901-1.295q0-.661.197-.985.211-.337.62-.337.421 0 .618.337.211.324.211.985t-.21 1q-.198.323-.62.323-.408 0-.62-.323-.196-.338-.196-1m1.323 0q0-.59-.141-.816-.127-.225-.366-.225-.225 0-.366.225-.126.211-.126.816 0 .62.126.845.14.211.366.211.24 0 .366-.225.14-.225.14-.83z"/>
</svg>
