<svg xmlns="http://www.w3.org/2000/svg" viewBox="0 0 64 64">
    <rect width="48" height="56" x="8" y="4" fill="#f5f5f5" rx="6"/>
    <path fill="#757575" d="M25.781 19a.75.75 0 0 0-.75.75v13.5c0 .415.335.75.75.75h12.5c.416 0 .75-.335.75-.75v-13.5a.75.75 0 0 0-.75-.75zm.25 1h1v1h-1zm2.5 0h7c.277 0 .5.223.5.5v5c0 .277-.223.5-.5.5h-7a.5.5 0 0 1-.5-.5v-5c0-.277.223-.5.5-.5m8.5 0h1v1h-1zm-11 2h1v1h-1zm11 0h1v1h-1zm-11 2h1v1h-1zm11 0h1v1h-1zm-11 2h1v1h-1zm11 0h1v1h-1zm-8.5 1h7c.277 0 .5.223.5.5v5c0 .277-.223.5-.5.5h-7a.5.5 0 0 1-.5-.5v-5c0-.277.223-.5.5-.5m-2.5 1h1v1h-1zm11 0h1v1h-1zm-11 2h1v1h-1zm11 0h1v1h-1zm-11 2h1v1h-1zm11 0h1v1h-1zm-19.5 17a1.5 1.5 0 0 0-1.5 1.5 1.5 1.5 0 0 0 1.5 1.5 1.5 1.5 0 0 0 1.5-1.5 1.5 1.5 0 0 0-1.5-1.5m5 0a1.5 1.5 0 0 0-1.5 1.5 1.5 1.5 0 0 0 1.5 1.5 1.5 1.5 0 0 0 1.5-1.5 1.5 1.5 0 0 0-1.5-1.5m5 0a1.5 1.5 0 0 0-1.5 1.5 1.5 1.5 0 0 0 1.5 1.5 1.5 1.5 0 0 0 1.5-1.5 1.5 1.5 0 0 0-1.5-1.5m5 0a1.5 1.5 0 0 0-1.5 1.5 1.5 1.5 0 0 0 1.5 1.5 1.5 1.5 0 0 0 1.5-1.5 1.5 1.5 0 0 0-1.5-1.5m5 0a1.5 1.5 0 0 0-1.5 1.5 1.5 1.5 0 0 0 1.5 1.5 1.5 1.5 0 0 0 1.5-1.5 1.5 1.5 0 0 0-1.5-1.5m5 0a1.5 1.5 0 0 0-1.5 1.5 1.5 1.5 0 0 0 1.5 1.5 1.5 1.5 0 0 0 1.5-1.5 1.5 1.5 0 0 0-1.5-1.5m5 0a1.5 1.5 0 0 0-1.5 1.5 1.5 1.5 0 0 0 1.5 1.5 1.5 1.5 0 0 0 1.5-1.5 1.5 1.5 0 0 0-1.5-1.5"/>
</svg>
