<svg xmlns="http://www.w3.org/2000/svg" viewBox="0 0 16.933 16.933">
    <rect width="48" height="56" x="8" y="4" fill="#f03e3e" rx="6" transform="scale(.26458)"/>
    <path fill="#f5f5f5" d="M8.766 4.762c-1.29.23-2.581.535-3.871.76v5.89c1.283.225 2.567.525 3.848.759h.385V4.762zM6.825 7.095c.254-.005.498.031.697.21.38.462.28 1.31-.284 1.587-.2.102-.43.088-.647.08q-.002.518-.001 1.035l-.525-.044c-.008-.942-.01-1.84 0-2.783.25-.03.505-.08.76-.085m-.03.511c-.07-.002-.14.005-.205.008-.003.296-.005.591.014.887.175-.021.403-.004.503-.185a.64.64 0 0 0-.011-.579c-.073-.102-.185-.128-.3-.13zM9.393 5.82v.88c.124-.027.259-.077.397-.085v1.19h1.182c-.042.361-.203.732-.52.92-.313.21-.71.213-1.059.105v.695h2.116v.264H9.393v.53h2.116v.264H9.393v.794h2.646V5.82zm.661.635a1.24 1.24 0 0 1 1.09 1.085h-1.09z"/>
</svg>
