<svg xmlns="http://www.w3.org/2000/svg" viewBox="0 0 64 64">
    <rect width="48" height="56" x="8" y="4" fill="#f5f5f5" rx="6"/>
    <path fill="#8f76e4" d="M56 45.25v1.5H34c-3.91 0-7.67-1.55-10.43-4.32A14.73 14.73 0 0 1 19.25 32c0-3.91 1.55-7.66 4.32-10.43 2.76-2.76 6.52-4.32 10.43-4.32v1.5A13.247 13.247 0 0 0 20.75 32c0 3.52 1.39 6.89 3.88 9.37 2.48 2.49 5.86 3.88 9.37 3.88z"/>
    <path fill="#8f76e4" d="M56 41.25v1.5H33.99c-2.12 0-4.2-.63-5.97-1.81a10.75 10.75 0 0 1-1.64-16.53c2.02-2.02 4.76-3.16 7.61-3.16 1.41 0 2.8.28 4.1.81l-.57 1.39c-1.12-.46-2.32-.7-3.53-.7-2.45 0-4.81.98-6.55 2.72a9.23 9.23 0 0 0-1.99 10.08 9.25 9.25 0 0 0 8.54 5.7z"/>
    <path fill="#8f76e4" d="M56 37.25v1.5H33.99c-1.48 0-2.93-.49-4.11-1.39a6.8 6.8 0 0 1-2.41-3.61 6.764 6.764 0 0 1 3.15-7.6 6.76 6.76 0 0 1 8.15 1.08l-1.06 1.06a5.24 5.24 0 0 0-3.72-1.54c-.92 0-1.83.24-2.62.7a5.25 5.25 0 0 0 2.62 9.8z"/>
</svg>
