<svg xmlns="http://www.w3.org/2000/svg" viewBox="0 0 16.933 16.933">
    <rect width="48" height="56" x="8" y="4" fill="#f5f5f5" rx="6" transform="scale(.26458)"/>
    <g fill="none" stroke="#757575" stroke-width=".529" transform="translate(-19.843 2.315)">
        <ellipse cx="28.31" cy="3.77" stroke-dashoffset="1" stroke-linejoin="round" rx="3.439" ry="1.323"/>
        <path d="M24.87 3.704v4.829"/>
        <path stroke-dashoffset="1" stroke-linejoin="round" d="M31.749 5.357a3.44 1.323 0 0 1-1.72 1.146 3.44 1.323 0 0 1-3.44 0 3.44 1.323 0 0 1-1.72-1.146m6.88 1.588a3.44 1.323 0 0 1-1.72 1.145 3.44 1.323 0 0 1-3.44 0 3.44 1.323 0 0 1-1.72-1.145m6.88 1.587a3.44 1.323 0 0 1-1.72 1.146 3.44 1.323 0 0 1-3.44 0 3.44 1.323 0 0 1-1.72-1.146"/>
        <path d="M31.749 3.704v4.829"/>
    </g>
</svg>
