<svg xmlns="http://www.w3.org/2000/svg" width="64" height="64" viewBox="0 0 64 64">
    <rect width="48" height="56" x="8" y="4" fill="#3b82f6" rx="6"/>
    <linearGradient id="a" x1=".5" x2=".5" y1="0" y2="1" gradientTransform="matrix(48 0 0 56 8 4)" gradientUnits="userSpaceOnUse">
        <stop offset="0" stop-opacity=".1" style="stop-color:#fef9c3"/>
        <stop offset="1" stop-opacity=".1" style="stop-color:#262626"/>
    </linearGradient>
    <path fill="url(#a)" d="M16 4h32c4.415 0 8 3.585 8 8v40c0 4.415-3.585 8-8 8H16c-4.415 0-8-3.585-8-8V12c0-4.415 3.585-8 8-8"/>
    <path fill="#f5f5f5" fill-rule="evenodd" d="M32 18c-7.718 0-14 6.283-14 14s6.282 14 14 14c1.251 0 2.287-.336 3.005-.98.717-.648 1.03-1.545 1.039-2.349.012-1.347-.905-2.269-1.402-2.684a3.5 3.5 0 0 1-.451-.424c-.361-.441.185-.812.394-.915.383-.191 1.12-.254 1.767-.254 2.867 0 5.264-.768 6.976-2.173A7.32 7.32 0 0 0 46 30.506C46 23.068 39.138 18 32 18m0 1.75c6.31 0 12.25 4.393 12.25 10.757 0 1.755-.721 3.287-2.034 4.365-1.333 1.093-3.309 1.772-5.866 1.772-.756 0-1.496-.082-2.542.434-.314.156-.648.319-1.05.868a2.3 2.3 0 0 0-.438 1.236c-.019.541.21 1.118.515 1.489.224.277.39.413.686.66.329.275.778.777.773 1.323a1.5 1.5 0 0 1-.458 1.062c-.321.289-.898.534-1.836.534-6.767 0-12.25-5.483-12.25-12.25S25.233 19.75 32 19.75m-8.547 14.11a1.75 1.75 0 1 1 3.501.001 1.75 1.75 0 0 1-3.501-.001m1.13-5.936a1.75 1.75 0 1 1 3.499.001 1.75 1.75 0 0 1-3.499-.001M30.25 25a1.75 1.75 0 1 1 3.501.001A1.75 1.75 0 0 1 30.25 25m5.749 3.227a1.75 1.75 0 1 1 3.501.001 1.75 1.75 0 0 1-3.5-.001"/>
</svg>
