<svg xmlns="http://www.w3.org/2000/svg" viewBox="0 0 64 64">
    <rect width="48" height="56" x="8" y="4" fill="#333" rx="6"/>
    <g fill="#f5f5f5">
        <path fill-rule="evenodd" d="M18 19c-.554 0-1 .446-1 1v20c0 .554.446 1 1 1h28c.554 0 1-.446 1-1V20c0-.554-.446-1-1-1zm20 1a1 1 0 0 1 1 1 1 1 0 0 1-1 1 1 1 0 0 1-1-1 1 1 0 0 1 1-1m3 0a1 1 0 0 1 1 1 1 1 0 0 1-1 1 1 1 0 0 1-1-1 1 1 0 0 1 1-1m3 0a1 1 0 0 1 1 1 1 1 0 0 1-1 1 1 1 0 0 1-1-1 1 1 0 0 1 1-1m-26 3h6v17h-6zm7 0h21v17H25z" style="paint-order:fill markers stroke" transform="translate(0 4)"/>
        <path d="M31.371 41h1.323l1.446-2.701c.26-.491.519-1.01.805-1.61H35c.327.6.6 1.119.86 1.61L37.332 41h1.391l-2.92-5.102L38.535 31H37.21l-1.337 2.551c-.246.464-.437.887-.71 1.46h-.054c-.327-.573-.532-.996-.791-1.46L32.953 31h-1.391l2.728 4.83z" aria-label="X"/>
    </g>
</svg>
