<svg xmlns="http://www.w3.org/2000/svg" width="64" height="64" viewBox="0 0 64 64">
    <rect width="48" height="56" x="8" y="4" fill="#3b82f6" rx="6"/>
    <linearGradient id="a" x1=".5" x2=".5" y1="0" y2="1" gradientTransform="matrix(48 0 0 56 8 4)" gradientUnits="userSpaceOnUse">
        <stop offset="0" stop-opacity=".1" style="stop-color:#fef9c3"/>
        <stop offset="1" stop-opacity=".1" style="stop-color:#000"/>
    </linearGradient>
    <path fill="url(#a)" d="M16 4h32c4.415 0 8 3.585 8 8v40c0 4.415-3.585 8-8 8H16c-4.415 0-8-3.585-8-8V12c0-4.415 3.585-8 8-8"/>
    <path fill="#f5f5f5" d="m31.998 15.734-7.771 7.779 7.775 7.782 7.774-7.778zm8.489 8.486-7.779 7.778 7.779 7.778 7.774-7.778zm-16.97 0-7.779 7.778 7.779 7.778 7.774-7.778zm8.485 8.485-7.779 7.778 7.779 7.778 7.774-7.778z"/>
</svg>
