<svg xmlns="http://www.w3.org/2000/svg" viewBox="0 0 16.933 16.933">
    <rect width="48" height="56" x="8" y="4" fill="#0d9488" rx="6" transform="scale(.26458)"/>
    <path fill="#f5f5f5" d="M8.766 4.762c-1.29.23-2.581.535-3.871.76v5.89c1.283.225 2.567.525 3.848.759h.385V4.762zm-.861 2.31q-.336.69-.68 1.379c.232.471.469.939.7 1.41l-.607-.038c-.143-.351-.317-.69-.42-1.057-.114.341-.277.664-.409.999q-.276-.005-.553-.018c.217-.423.425-.85.648-1.27-.189-.434-.397-.86-.592-1.29l.555-.032c.126.329.263.654.366.991.112-.357.277-.694.42-1.04q.284-.02.572-.034M9.392 5.82v.53h.794v.53h-.794v.264h.794v.53h-.794v.263h.794v.53h-.794v.264h.794v.53h-.794v.264h.794v.529h-.794v.265h.794v.529h-.794v.529h2.646V5.82zm1.058.53h1.059v.53H10.45zm0 .794h1.059v.53H10.45zm0 .793h1.059v.53H10.45zm0 .794h1.059v.53H10.45zm0 .794h1.059v.529H10.45zm0 .794h1.059v.529H10.45z"/>
</svg>
