<svg xmlns="http://www.w3.org/2000/svg" width="64" height="64" viewBox="0 0 64 64">
    <rect width="48" height="56" x="8" y="4" fill="#f03e3e" rx="6"/>
    <linearGradient id="a" x1=".5" x2=".5" y1="0" y2="1" gradientTransform="matrix(48 0 0 56 8 4)" gradientUnits="userSpaceOnUse">
        <stop offset="0" stop-opacity=".1" style="stop-color:#fef9c3"/>
        <stop offset="1" stop-opacity=".1" style="stop-color:#262626"/>
    </linearGradient>
    <path fill="url(#a)" d="M16 4h32c4.415 0 8 3.585 8 8v40c0 4.415-3.585 8-8 8H16c-4.415 0-8-3.585-8-8V12c0-4.415 3.585-8 8-8"/>
    <path fill="#f5f5f5" fill-rule="evenodd" d="M21.391 21.055c1.818 7.163-6.414 9.326-9.385 13.787-2.023 3.04.993 6.306 5.106 10.016-1.604-3.625-7.042-6.798.002-12.361 8.783-6.933 4.277-11.441 4.277-11.441zm5.436 8.861s-14.854 3.71-7.76 11.883c2.094 2.41-.55 4.578-.55 4.578s5.314-2.743 2.874-6.18c-2.28-3.202-4.027-4.794 5.435-10.28zm2.628 14.602a5 5 0 0 0-1.644.291c-.456.162-.695.537-.695.537s.289-.115.931-.25c2.627-.547 6.39 3.518-1.75 7.747a.7.7 0 0 1-.162.212c9.681-2.545 7.57-8.545 3.32-8.537m-17.443.412c-.453-.01-1.986.017-4.011.6v.857c1.059-.716 4.152-1.45 4.152-1.45q0-.002-.139-.007zm14.318 1.586s-3.275.586-6.539.86c-3.994.335-8.28.4-10.432.113-.656-.088-1.09-.196-1.36-.316v1.294c4.292.518 11.612.357 16.349-.888.833-.568 1.982-1.063 1.982-1.063m-16.016 3.342c-1.519.504-2.225 1.022-2.314 1.5v.201c.314 1.722 8.83 2.795 16.674.5a5.1 5.1 0 0 1-1.785-1.088c-5.02.967-7.92.936-11.594.557-2.84-.294-.98-1.67-.98-1.67zm1.04 4.75c-6.671 1.864 4.058 5.714 12.553 2.074-1.392-.54-2.39-1.164-2.39-1.164-3.787.716-5.543.772-8.982.38-2.837-.326-1.181-1.29-1.181-1.29m18.944 3.514s1.227 1.01-1.351 1.793c-.1.03-.228.057-.336.086h1.562c1.158-.66 1.318-1.341.125-1.88z" opacity=".35"/>
    <path fill="#f5f5f5" d="M32 5v1.002h-2.003V5zm1.999 22.001v6.5a.503.503 0 0 1-.498.499H30.5a.5.5 0 0 1-.356-.143.5.5 0 0 1-.143-.356v-6.5zm-1.001 3.998h-1.999v2.004h2.006zM32 6.002h2.003v1.999H32zm0 1.999v2.003h-2.003V8.001zm0 2.003h2.003V12H32zM32 12v2.003h-2.003V12zm0 2.003h2.003v1.999H32zm0 1.999v2h-2.003v-2.003zm0 2h2.003v1.999H32zm0 1.999v2.003h-2.003v-2.003zm0 2.003h2.003V24H32zM32 24v2.003h-2.003V24z"/>
</svg>
