<svg xmlns="http://www.w3.org/2000/svg" width="64" height="64" viewBox="0 0 64 64">
    <rect width="48" height="56" x="8" y="4" fill="#ec4899" rx="6"/>
    <linearGradient id="a" x1=".5" x2=".5" y1="0" y2="1" gradientTransform="matrix(48 0 0 56 8 4)" gradientUnits="userSpaceOnUse">
        <stop offset="0" stop-opacity=".1" style="stop-color:#fef9c3"/>
        <stop offset="1" stop-opacity=".1" style="stop-color:#262626"/>
    </linearGradient>
    <path fill="#d70751" d="M25.354 34.799c-.69.057-1.377.094-2.055.18l.297.04c.498-.181 1.228-.1 1.758-.22m-3.01.314c-1.12.068-2.68.654-2.199.122-1.829.816-5.074 1.964-6.896 3.673l-.06-.384c-.834 1.002-3.639 2.99-3.862 4.289l-.227.052c-.434.736-.716 1.572-1.06 2.329-.015.024-.026.036-.04.058v5.994c.3-.822.95-1.75 1.473-3.06l-.396-.07c.76-1.327 4.34-5.333 6-5.128.804-1.01-.157-.002-.315-.255 1.767-1.828 2.318-1.29 3.51-1.62 1.285-.762-1.097.298-.488-.29 2.222-.568 1.57-1.289 4.469-1.577.306.174-.707.269-.961.494 1.85-.906 5.853-.701 8.457.5 3.019 1.412 6.412 5.585 6.547 9.51l.156.041c-.077 1.56.236 3.364-.313 5.022l.371-.785c.044 1.192-.348 1.768-.703 2.793l-.634.32c-.522 1.014.047.643-.327 1.45-.404.358-1.015.918-1.591 1.407h2.273c.302-.292.553-.522.668-.529-.286.43-.127.388-.13.53h.042c.476-.926-.407-.414.705-2.026l.45.617c-.168-1.107 1.371-2.451 1.214-4.201.354-.535.399.58.024 1.81.52-1.365.134-1.585.267-2.712.144.378.335.78.432 1.181-.34-1.32.347-2.225.517-2.992-.168-.074-.523.582-.605-.977.012-.677.188-.35.256-.517-.132-.077-.48-.6-.692-1.596.153-.234.414.607.623.64-.134-.79-.369-1.394-.378-2.001-.612-1.279-.216.172-.711-.547-.652-2.03.536-.469.617-1.39.986 1.428 1.551 3.644 1.81 4.562a18.7 18.7 0 0 0-.908-3.254c.3.127-.477-2.3.397-.692-.933-3.427-3.989-6.634-6.8-8.136.344.314.773.71.618.773-1.399-.832-1.15-.899-1.35-1.25-1.137-.463-1.214.037-1.966 0-2.147-1.139-2.558-1.016-4.534-1.728l.086.417c-1.422-.473-1.657.178-3.193 0-.094-.072.494-.26.976-.33-1.375.182-1.308-.275-2.654.045.33-.232.683-.385 1.035-.582m1.108.256c.393.07.85.127.785.221.432-.096.53-.183-.785-.22zm.785.221-.274.059.256-.024zm.984 11.479c-2.182.036-4.225 1.42-4.906 2.926-1.117.703-1.248 2.712-1.734 3.08-.44 3.228.282 5.22 1.755 6.924h1.721c-1.337-1.364-2.233-3.214-2.203-5.295-.044.331-.124.25-.215.383-.212-2.69 1.248-5.39 3.701-6.494 2.4-1.188 5.214-.702 6.932.902-.944-1.237-2.824-2.547-5.05-2.426zm6.336 5.568c-.091.003-.209.23-.268.483.138.072.247.937.38.402.044-.664-.02-.887-.112-.885m8.06 2.235-.103.273c-.198 1.41-.63 2.81-1.287 4.104a13 13 0 0 0 1.39-4.377m-8.537.5c-.099.488-.366.91-.617 1.355-1.378.868-.13-.514 0-1.04-1.481 1.866-.201 1.118-.256 1.64.441-.607.76-1.27.873-1.955m-3.007 2.846c-.599.146-1.208.148-1.823.093-.737.01.137.381 1.1.53.267-.209.507-.42.723-.623m-9.307.1c.163.597.5 1.105.809 1.628l-.233-.668c-.257-.284-.405-.621-.576-.96m-.565 1.005-.105.52.11.156h.382c-.126-.217-.23-.375-.387-.676"/>
    <path fill="url(#a)" d="M16 4h32c4.415 0 8 3.585 8 8v40c0 4.415-3.585 8-8 8H16c-4.415 0-8-3.585-8-8V12c0-4.415 3.585-8 8-8"/>
    <path fill="#f5f5f5" d="M32 5v1.002h-2.003V5zm1.999 22.001v6.5a.5.5 0 0 1-.498.499H30.5a.5.5 0 0 1-.356-.143.5.5 0 0 1-.143-.356v-6.5zm-1.001 3.998h-1.999v2.004h2.006zM32 6.002h2.003v1.999H32zm0 1.999v2.003h-2.003V8.001zm0 2.003h2.003V12H32zM32 12v2.003h-2.003V12zm0 2.003h2.003v1.999H32zm0 1.999v2h-2.003v-2.003zm0 2h2.003v1.999H32zm0 1.999v2.003h-2.003v-2.003zm0 2.003h2.003V24H32zM32 24v2.003h-2.003V24z"/>
</svg>
