<svg xmlns="http://www.w3.org/2000/svg" width="64" height="64" viewBox="0 0 64 64">
    <rect width="48" height="56" x="8" y="4" fill="#f03e3e" rx="6"/>
    <linearGradient id="a" x1=".5" x2=".5" y1="0" y2="1" gradientTransform="matrix(48 0 0 56 8 4)" gradientUnits="userSpaceOnUse">
        <stop offset="0" stop-opacity=".1" style="stop-color:#fef9c3"/>
        <stop offset="1" stop-opacity=".1" style="stop-color:#262626"/>
    </linearGradient>
    <path fill="url(#a)" d="M16 4h32c4.415 0 8 3.585 8 8v40c0 4.415-3.585 8-8 8H16c-4.415 0-8-3.585-8-8V12c0-4.415 3.585-8 8-8"/>
    <path fill="#f5f5f5" fill-rule="evenodd" d="M35.252 15.732c1.365 5.37-4.808 6.993-7.034 10.338-1.517 2.279.746 4.731 3.829 7.51-1.201-2.718-5.28-5.095 0-9.264 6.587-5.206 3.209-8.584 3.209-8.584zm4.079 6.645s-11.138 2.783-5.821 8.911c1.574 1.804-.41 3.431-.41 3.431s3.985-2.053 2.156-4.632c-1.709-2.402-3.021-3.595 4.075-7.706zm1.972 10.949c-.42.003-.836.078-1.23.221-.344.123-.525.402-.525.402s.217-.086.697-.189c1.972-.41 4.796 2.636-1.312 5.809-.024.078-.123.164-.123.164 7.264-1.91 5.682-6.411 2.493-6.407m-13.077.311a11.5 11.5 0 0 0-5.021 1.214c-3.337 1.615 8.264 2.353 14.265.77.627-.426 1.488-.795 1.488-.795s-2.456.439-4.903.644c-2.992.254-6.21.303-7.821.086-3.821-.513 2.09-1.915 2.09-1.915l-.102-.004zm-1.275 3.694c-5.509 1.828 3.066 3.902 10.765 1.652a3.7 3.7 0 0 1-1.337-.82c-3.763.729-5.939.705-8.69.422-2.132-.221-.738-1.254-.738-1.254m.779 3.566c-5.001 1.394 3.042 4.28 9.412 1.554-1.041-.41-1.791-.873-1.791-.873-2.841.532-4.157.573-6.735.286-2.132-.246-.886-.971-.886-.971zm-3.476 2.357c-2.246.07-6.641 2.091-2.624 2.742 12.987 2.103 23.674-.946 20.308-2.467 0 0 .918.758-1.017 1.344-3.672 1.115-15.302 1.451-18.528.041-1.16-.5 1.016-1.201 1.701-1.352.713-.152 1.119-.123 1.119-.123-.201-.144-.545-.197-.959-.185M44 45.185s-.41 1.049-4.845 1.886c-5.001.942-11.171.832-14.827.229 0 0 .75.615 4.599.865 5.862.377 14.86-.205 15.073-2.98"/>
</svg>
