<svg xmlns="http://www.w3.org/2000/svg" viewBox="0 0 16.933 16.933">
    <rect width="48" height="56" x="8" y="4" fill="#1e88e5" rx="6" transform="scale(.26458)"/>
    <path fill="#f5f5f5" d="M8.632 4.762c-1.29.23-2.581.535-3.871.76v5.89c1.283.225 2.567.525 3.848.759h.384V4.762zm1.521 1.026q-.451.005-.895.068v1.095c.83.126 1.695.1 2.495-.17.17-.074.384-.166.419-.372-.048-.251-.33-.346-.54-.424a4.9 4.9 0 0 0-1.479-.197m2.018 1.047c-.314.252-.719.336-1.107.393a7 7 0 0 1-1.806.004v1.143c.748.096 1.516.092 2.252-.082.226-.065.477-.132.635-.32.056-.375.007-.759.026-1.138m-5.08.257c.295.988.575 1.981.867 2.97a23 23 0 0 1-.61-.047q-.08-.33-.169-.66-.405-.002-.811-.023-.078.313-.159.625l-.517-.037c.258-.929.526-1.854.782-2.783zm-.332.529c-.06.419-.192.822-.28 1.235l.582.003c-.1-.413-.223-.82-.302-1.238m5.412.625c-.312.251-.714.335-1.101.393a7 7 0 0 1-1.812.004v1.144c.75.095 1.52.09 2.259-.085.225-.064.475-.131.63-.32.051-.376.007-.758.024-1.136m0 1.411c-.314.251-.717.336-1.105.393a7 7 0 0 1-1.808.004c0 .38.003.76-.003 1.14.63.09 1.272.089 1.901-.008.343-.07.74-.12.989-.391.055-.376.008-.76.026-1.138"/>
</svg>
