<svg xmlns="http://www.w3.org/2000/svg" width="64" height="64" viewBox="0 0 64 64">
    <path d="M16 4h32c4.415 0 8 3.585 8 8v40c0 4.415-3.585 8-8 8H16c-4.415 0-8-3.585-8-8V12c0-4.415 3.585-8 8-8" style="stroke:none;fill:#f4f4f4;stroke-miterlimit:10"/>
    <path fill="#757575" d="M47.999 31.998a15.95 15.95 0 0 0-4.672-11.327A15.95 15.95 0 0 0 32 15.999a15.95 15.95 0 0 0-15.999 16.003 15.95 15.95 0 0 0 4.672 11.327A15.95 15.95 0 0 0 32 48.001a15.95 15.95 0 0 0 11.327-4.672 15.95 15.95 0 0 0 4.672-11.327zm-10.148 0A5.826 5.826 0 0 1 32 37.856a5.816 5.816 0 0 1-5.858-5.858c0-3.22 2.373-5.851 5.854-5.851s5.851 2.695 5.851 5.851z" opacity=".3"/>
    <path d="M32.128 26.002a5.999 5.999 0 1 0 .003 11.996 6 6 0 0 0 0-11.996zm0 2.997a3 3 0 1 1 0 6 3 3 0 0 1 0-6" opacity=".5"/>
</svg>
