<svg xmlns="http://www.w3.org/2000/svg" width="64" height="64" viewBox="0 0 64 64">
    <rect width="48" height="56" x="8" y="4" fill="#0d9488" rx="6"/>
    <linearGradient id="a" x1=".512" x2=".522" y1=".001" y2=".996" gradientTransform="matrix(48 0 0 56 8 4)" gradientUnits="userSpaceOnUse">
        <stop offset="0" stop-opacity=".1" style="stop-color:#fef9c3"/>
        <stop offset="1" stop-opacity=".1" style="stop-color:#262626"/>
    </linearGradient>
    <path fill="url(#a)" d="M16 4h32c4.415 0 8 3.585 8 8v40c0 4.415-3.585 8-8 8H16c-4.415 0-8-3.585-8-8V12c0-4.415 3.585-8 8-8"/>
    <path fill="#f5f5f5" fill-rule="evenodd" d="M44 35.5c0-4.412-3.585-7.993-8-7.993s-8 3.581-8 7.993 3.585 7.993 8 7.993 8-3.581 8-7.993m-4 1.007a3.001 3.001 0 0 0-6 0c0 1.655 1.344 3 3 3s3-1.345 3-3"/>
    <path fill="#f5f5f5" d="m30.762 30.846-10.68-10.333h3.926l9.322 8.861a8.3 8.3 0 0 0-2.568 1.47"/>
    <path fill="#f5f5f5" fill-rule="evenodd" d="m29.017 33.507-1.349-1.613-.117-1.516a56 56 0 0 0-1.474-.055l-.753-.549V28.14l-.002-.002-1.609-.025-.681-.786-.016-1.484L20 24.39l.007-3.883.754.002L31 30.846a7.9 7.9 0 0 0-1.983 2.661" opacity=".75"/>
</svg>
