<svg xmlns="http://www.w3.org/2000/svg" width="64" height="64" viewBox="0 0 64 64">
    <path fill="#f03e3e" d="M16 4h32c4.415 0 8 3.585 8 8v40c0 4.415-3.585 8-8 8H16c-4.415 0-8-3.585-8-8V12c0-4.415 3.585-8 8-8"/>
    <linearGradient id="a" x1=".5" x2=".5" y1="0" y2="1" gradientTransform="matrix(48 0 0 56 8 4)" gradientUnits="userSpaceOnUse">
        <stop offset="0" stop-opacity=".1" style="stop-color:#fef9c3"/>
        <stop offset="1" stop-opacity=".1" style="stop-color:#262626"/>
    </linearGradient>
    <path fill="url(#a)" d="M16 4h32c4.415 0 8 3.585 8 8v40c0 4.415-3.585 8-8 8H16c-4.415 0-8-3.585-8-8V12c0-4.415 3.585-8 8-8"/>
    <path fill="#f5f5f5" d="M26.238 34.678c.998-1.954 2.128-4.158 3.035-6.365l.359-.87c-1.183-4.509-1.894-8.126-1.259-10.465.17-.605.877-.979 1.629-.979l.461.008h.084c1.035-.016 1.523 1.3 1.576 1.81.09.85-.303 2.29-.303 2.29 0-.582.023-1.519-.34-2.332-.431-.937-.839-1.5-1.206-1.587-.185.121-.362.378-.427.869a12.5 12.5 0 0 0-.162 2.011c0 1.584.31 3.677.922 5.832q.178-.503.302-.956c.125-.473.923-3.614.923-3.614s-.197 4.181-.484 5.447q-.087.393-.193.801c1.009 2.827 2.638 5.348 4.585 7.166.767.718 1.734 1.293 2.649 1.818a36 36 0 0 1 5.382-.404c2.041.026 3.534.328 4.143.926.294.291.415.642.453 1.035a4 4 0 0 1-.087.601c.023-.109.023-.642-1.617-1.172-1.285-.408-3.704-.396-6.596-.086 3.349 1.636 6.615 2.453 7.646 1.965.216-.148.406-.332.56-.544 0 0-.185.827-.314 1.035a1.6 1.6 0 0 1-.805.548c-1.633.439-5.885-.57-9.589-2.687a79.6 79.6 0 0 0-12.333 2.929c-3.579 6.274-6.274 9.158-8.466 8.062l-.801-.404c-.329-.189-.378-.643-.302-1.013.257-1.248 1.821-3.134 4.97-5.012.34-.204 1.848-1.002 1.848-1.002s-1.119 1.081-1.38 1.293c-2.513 2.06-4.365 4.649-4.32 5.654l.008.087c2.135-.302 5.337-4.649 9.449-12.699m1.304.669c-.688 1.296-1.361 2.494-1.981 3.598 3.432-1.436 7.121-2.358 10.636-3.012q-.704-.487-1.361-1.036a18.15 18.15 0 0 1-4.478-5.832 50 50 0 0 1-2.816 6.282"/>
</svg>
