<svg xmlns="http://www.w3.org/2000/svg" width="64" height="64" viewBox="0 0 64 64">
    <rect width="48" height="56" x="8" y="4" fill="#f03e3e" rx="6"/>
    <linearGradient id="a" x1=".5" x2=".5" y1="0" y2="1" gradientTransform="matrix(48 0 0 56 8 4)" gradientUnits="userSpaceOnUse">
        <stop offset="0" stop-opacity=".1" style="stop-color:#fef9c3"/>
        <stop offset="1" stop-opacity=".1" style="stop-color:#262626"/>
    </linearGradient>
    <path fill="url(#a)" d="M16 4h32c4.415 0 8 3.585 8 8v40c0 4.415-3.585 8-8 8H16c-4.415 0-8-3.585-8-8V12c0-4.415 3.585-8 8-8"/>
    <path fill="#f5f5f5" d="M32 5v1.002h-2.003V5zm1.999 22.001v6.5a.5.5 0 0 1-.498.499H30.5a.5.5 0 0 1-.356-.143.5.5 0 0 1-.143-.356v-6.5zm-1.001 3.998h-1.999v2.004h2.006zM32 6.002h2.003v1.999H32zm0 1.999v2.003h-2.003V8.001zm0 2.003h2.003V12H32zM32 12v2.003h-2.003V12zm0 2.003h2.003v1.999H32zm0 1.999v2h-2.003v-2.003zm0 2h2.003v1.999H32zm0 1.999v2.003h-2.003v-2.003zm0 2.003h2.003V24H32zM32 24v2.003h-2.003V24z"/>
    <path fill="#f5f5f5" d="M19.501 34.5a16 16 0 0 0-11.5 4.883v3.145a13.98 13.98 0 0 1 11.5-6.029A14 14 0 0 1 33.5 50.498 13.98 13.98 0 0 1 29.759 60h2.592a16 16 0 0 0 3.149-9.502c-.001-8.835-7.164-15.997-15.999-15.998" opacity=".5"/>
    <path fill="#f5f5f5" d="M19.501 40.498a10.03 10.03 0 0 0-6.636 2.536l1.417 1.417a8 8 0 0 1 5.216-1.954 8 8 0 0 1 8.004 8.001h2c-.002-5.523-4.478-9.999-10.001-10m-9.051 5.779a10 10 0 0 0-.945 4.221H11.5c.002-.919.163-1.83.477-2.694z" opacity=".5"/>
    <path fill="#f5f5f5" d="m22.189 44.829-4.29 9.955c-.29.332-.484.737-.559 1.172l-.012.026h.012c-.182 1.123.442 2.174 1.436 2.423.998.253 2.041-.378 2.419-1.451h.011v-.057l.049-.151c.089-.361.095-.737.015-1.1z" opacity=".5"/>
</svg>
