<svg xmlns="http://www.w3.org/2000/svg" width="64" height="64" viewBox="0 0 64 64">
    <rect width="48" height="56" x="8" y="4" fill="#7c3aed" rx="6"/>
    <linearGradient id="a" x1=".5" x2=".5" y1="0" y2="1" gradientTransform="matrix(48 0 0 56 8 4)" gradientUnits="userSpaceOnUse">
        <stop offset="0" stop-opacity=".1" style="stop-color:#fef9c3"/>
        <stop offset="1" stop-opacity=".1" style="stop-color:#262626"/>
    </linearGradient>
    <path fill="#f5f5f5" d="M20.432 22.046c0-.128.257-.223.405-.223 1.171-.053 2.91-.09 4.728-.09 5.08 0 7.06 2.785 7.06 6.361 0 4.656-3.375 6.655-7.521 6.655-.696 0-.934-.037-1.429-.037v7.041c0 .147-.053.219-.219.219h-2.804c-.148 0-.22-.053-.22-.219zm3.262 9.733c.423.037.756.037 1.486.037 2.146 0 4.161-.752 4.161-3.666 0-2.328-1.448-3.503-3.886-3.503-.733 0-1.428.037-1.761.056zm15.769-2.181c-1.448 0-1.943.733-1.943 1.338 0 .661.329 1.119 2.271 2.128 2.88 1.391 3.78 2.732 3.78 4.694 0 2.933-2.241 4.509-5.265 4.509-1.595 0-2.971-.329-3.757-.79-.128-.053-.147-.147-.147-.291v-2.695c0-.185.09-.238.219-.151a6.8 6.8 0 0 0 3.685 1.085c1.448 0 2.052-.605 2.052-1.429 0-.661-.419-1.247-2.271-2.2-2.604-1.247-3.685-2.513-3.685-4.622 0-2.366 1.852-4.328 5.061-4.328 1.576 0 2.675.242 3.28.514.148.095.185.238.185.367v2.513c0 .148-.094.238-.275.182-.809-.51-2-.824-3.19-.824"/>
    <path fill="url(#a)" d="M16 4h32c4.415 0 8 3.585 8 8v40c0 4.415-3.585 8-8 8H16c-4.415 0-8-3.585-8-8V12c0-4.415 3.585-8 8-8"/>
</svg>
