<svg xmlns="http://www.w3.org/2000/svg" width="64" height="64" viewBox="0 0 64 64">
    <defs>
        <linearGradient id="a" x1=".5" x2=".5" y1="0" y2="1">
            <stop offset="0" style="stop-color:#f6ad55"/>
            <stop offset="1" style="stop-color:#ed8936"/>
        </linearGradient>
    </defs>
    <rect width="48" height="56" x="8" y="4" fill="url(#a)" rx="6"/>
    <path d="m25.765 36.673-1.451 5.503c-.038.144-.091.182-.272.182h-2.695c-.185 0-.223-.053-.185-.276L26.37 23.86c.091-.328.144-.623.182-1.523q.008-.189.147-.181h3.851c.129 0 .182.038.22.181l5.828 19.783c.037.147 0 .238-.144.238h-3.046c-.144 0-.238-.038-.272-.167l-1.524-5.518zm5.095-2.967c-.514-2.037-1.723-6.474-2.181-8.617h-.037c-.386 2.143-1.357 5.775-2.125 8.617zm8.251-10.193c0-1.172.824-1.871 1.871-1.871 1.119 0 1.867.752 1.867 1.871 0 1.209-.786 1.867-1.905 1.867-1.062 0-1.833-.658-1.833-1.867m.219 4.157c0-.143.057-.215.219-.215h2.881c.147 0 .219.053.219.219v14.464c0 .148-.038.22-.219.22h-2.843c-.181 0-.238-.091-.238-.238V27.674z" style="fill:#f5f5f5;fill-rule:nonzero"/>
</svg>
