<svg xmlns="http://www.w3.org/2000/svg" viewBox="0 0 64 64">
    <rect width="48" height="56" x="8" y="4" fill="#f5f5f5" rx="6"/>
    <path fill="#757575" d="M34.026 21.941a2.34 2.34 0 0 0-2.024-1.141c-.839 0-1.613.436-2.024 1.141l-2.692 4.635-1.662-.806 2.729-4.705C29.091 19.79 30.487 19 32.002 19s2.911.79 3.649 2.065l2.544 4.383.334-1.288c.138-.462.63-.735 1.115-.62a.894.894 0 0 1 .686 1.05l-.929 3.578c-.123.479-.626.771-1.123.653l-3.714-.895a.92.92 0 0 1-.7-.616.87.87 0 0 1 .228-.888.95.95 0 0 1 .918-.231l1.727.411zm5.013 8.66 1.672-.805 3.75 6.477c1.56 2.684-.455 5.994-3.639 5.994H34.23l1.207 1.163a.88.88 0 0 1 .292.891.92.92 0 0 1-.69.656.95.95 0 0 1-.92-.294l-2.785-2.684a.87.87 0 0 1 0-1.253l2.785-2.684a.95.95 0 0 1 .92-.293.91.91 0 0 1 .69.655.88.88 0 0 1-.292.891l-1.207 1.163h6.583a2.34 2.34 0 0 0 2-1.106c.416-.684.425-1.53.024-2.222l-3.807-6.549zm-9.822 9.877h-6.035a2.34 2.34 0 0 1-2.001-1.106 2.17 2.17 0 0 1-.023-2.222l3.593-6.2.836 1.834a.943.943 0 0 0 1.201.419.884.884 0 0 0 .498-1.134l-1.625-3.579a.94.94 0 0 0-1.068-.51l-3.946.895a.92.92 0 0 0-.739.605.87.87 0 0 0 .224.91c.246.238.61.323.942.22l2.015-.447-3.556 6.11a3.9 3.9 0 0 0 .041 4.005c.751 1.234 2.124 1.991 3.608 1.989h6.035z"/>
</svg>
