<svg xmlns="http://www.w3.org/2000/svg" viewBox="0 0 64 64">
    <rect width="48" height="56" x="8" y="4" fill="#f5f5f5" rx="6"/>
    <path fill="#f55" fill-rule="evenodd" d="m30.662 18.545-1.291 1.666-2.05-.467-.557 2.03-2.075.355.264 2.088-1.781 1.123 1.045 1.828L23 28.887l1.662 1.289-.463 2.053 2.03.554.355 2.074.812-.103v10.404l4.594-3.342 4.594 3.342v-9.832l.098.023.556-2.029 2.075-.357-.266-2.088 1.781-1.121-1.043-1.83L41 26.207l-1.662-1.291.465-2.051-2.03-.557-.355-2.072-2.088.264-1.123-1.782-1.828 1.043zM32 22.852a5 5 0 0 1 5 5 5 5 0 0 1-5 5 5 5 0 0 1-5-5 5 5 0 0 1 5-5" color="#4d4d4d"/>
</svg>
