<svg xmlns="http://www.w3.org/2000/svg" width="64" height="64" viewBox="0 0 64 64">
    <rect width="48" height="56" x="8" y="4" fill="#9333ea" rx="6"/>
    <linearGradient id="a" x1=".5" x2=".5" y1="0" y2="1" gradientTransform="matrix(48 0 0 56 8 4)" gradientUnits="userSpaceOnUse">
        <stop offset="0" stop-opacity=".1" style="stop-color:#fef9c3"/>
        <stop offset="1" stop-opacity=".1" style="stop-color:#262626"/>
    </linearGradient>
    <path fill="url(#a)" d="M16 4h32c4.415 0 8 3.585 8 8v40c0 4.415-3.585 8-8 8H16c-4.415 0-8-3.585-8-8V12c0-4.415 3.585-8 8-8"/>
    <path fill="#f5f5f5" d="M32 5v1.002h-2.003V5zm1.999 22.001v6.5a.5.5 0 0 1-.498.499H30.5a.5.5 0 0 1-.356-.143.5.5 0 0 1-.143-.356v-6.5zm-1.001 3.998h-1.999v2.004h2.006zM32 6.002h2.003v1.999H32zm0 1.999v2.003h-2.003V8.001zm0 2.003h2.003V12H32zM32 12v2.003h-2.003V12zm0 2.003h2.003v1.999H32zm0 1.999v2h-2.003v-2.003zm0 2h2.003v1.999H32zm0 1.999v2.003h-2.003v-2.003zm0 2.003h2.003V24H32zM32 24v2.003h-2.003V24z"/>
</svg>
