<svg xmlns="http://www.w3.org/2000/svg" width="64" height="64" viewBox="0 0 64 64">
    <rect width="48" height="56" x="8" y="4" fill="#7c3aed" rx="6"/>
    <path fill="#f5f5f5" d="M26.5 21.9c-.831 0-1.5.669-1.5 1.5s.669 1.5 1.5 1.5 1.5-.669 1.5-1.5-.669-1.5-1.5-1.5m8.5.1-3 3 5 5-5 5 3 3 8-8zm-11.5 8c-1.385 0-2.5 1.115-2.5 2.5s1.115 2.5 2.5 2.5 2.5-1.115 2.5-2.5-1.115-2.5-2.5-2.5m5.5 8c-1.662 0-3 1.338-3 3s1.338 3 3 3 3-1.338 3-3-1.338-3-3-3" color="#4d4d4d" style="isolation:auto;mix-blend-mode:normal"/>
</svg>
