<svg xmlns="http://www.w3.org/2000/svg" viewBox="0 0 16.933 16.933">
    <rect width="48" height="56" x="8" y="4" fill="#f5f5f5" rx="6" transform="scale(.26458)"/>
    <path fill="#eb577a" d="M10.848 5.292a3 3 0 0 0-.385.038l-2.766.423c-.668.142-.666.187-.668.75v4.579l-.084-.059a1.27 1.27 0 0 0-.742-.243c-.38 0-.608.146-.745.338s-.183.434-.183.62c0 .226.077.467.244.65s.424.312.793.312q.626-.002.876-.344c.13-.179.203-.418.228-.713l.009-.111c.003-.059.002-.168.002-.168V7.86c0-.5 0-.53.668-.645l1.968-.308c.669-.088.669-.027.669.349v3.217q-.04-.03-.082-.057a1.27 1.27 0 0 0-.742-.243c-.38 0-.607.146-.745.337a1.1 1.1 0 0 0-.183.621.97.97 0 0 0 .244.65c.167.183.424.311.793.311q.626-.001.876-.343c.13-.18.203-.418.228-.713v-.001l.009-.11c.003-.059.003-.168.003-.168V5.879c0-.439-.003-.584-.285-.587"/>
</svg>
