<svg xmlns="http://www.w3.org/2000/svg" viewBox="0 0 16.933 16.933">
    <rect width="48" height="56" x="8" y="4" fill="#f5f5f5" rx="6" transform="scale(.26458)"/>
    <path fill="#757575" d="M8.372 6.324a2.1 2.1 0 0 0-.991.237l.154.428q.375-.202.766-.202.308 0 .469.16a.54.54 0 0 1 .16.404.6.6 0 0 1-.071.285q-.066.13-.173.249-.106.12-.225.237-.119.113-.226.25-.105.13-.178.284A.9.9 0 0 0 7.992 9q0 .131.024.25h.463a.3.3 0 0 1-.006-.065v-.066a.8.8 0 0 1 .077-.35q.077-.16.19-.29.113-.138.249-.262c.136-.124.174-.17.25-.26a1.5 1.5 0 0 0 .19-.292.8.8 0 0 0 .076-.362 1.1 1.1 0 0 0-.053-.332.76.76 0 0 0-.178-.32.95.95 0 0 0-.35-.232 1.4 1.4 0 0 0-.552-.095m-1.575 1.11L4.233 8.52v.475l2.564 1.086.154-.457-2.107-.867 2.107-.866zm3.34 0-.155.457 2.106.866-2.106.867.154.457L12.7 8.995V8.52zm-1.86 2.38a.37.37 0 0 0-.29.118q-.108.119-.108.28c0 .161.036.199.107.278q.107.12.29.119c.183-.001.22-.04.292-.119s.107-.172.107-.279q0-.16-.107-.279a.37.37 0 0 0-.291-.118"/>
</svg>
