<svg xmlns="http://www.w3.org/2000/svg" viewBox="0 0 64 64">
    <rect width="48" height="56" x="8" y="4" fill="#f5f5f5" rx="6"/>
    <g fill="#95458d">
        <path d="M23.492 17.5v29h5.02c.018-3.78-.04-7.56.034-11.338.125-1.775.223-4.035 1.914-5.007.93-.535 2.177-.665 3.202-.332 1.503.488 1.755 2.424 1.82 3.819.024 4.286.003 8.572.01 12.858h5c-.01-4.816.038-9.684 0-14.5-.052-2.42-1.043-5.07-3.358-6.175-1.98-.944-4.322-.662-6.33.099-.948.36-2.256 2.108-2.256 2.108L28.512 17.5z" color="#000"/>
        <path d="M35 17v3h-3v1h3v3h1v-3h3v-1h-3v-3zm8 0v3h-3v1h3v3h1v-3h3v-1h-3v-3z" opacity=".75"/>
    </g>
</svg>
