<svg xmlns="http://www.w3.org/2000/svg" viewBox="0 0 16.933 16.933">
    <rect width="48" height="56" x="8" y="4" fill="#f5f5f5" rx="6" transform="scale(.26458)"/>
    <path fill="#3f51b5" fill-rule="evenodd" d="M9.462 8.93s.305.091.482.18a1 1 0 0 1 .244.175.7.7 0 0 1 .112.16l1.214 2.196H9.301l-.906-1.666s-.186-.32-.3-.412c-.096-.077-.136-.104-.23-.104h-.462v2.181H5.419V5.291h3.075c1.092 0 2.532.327 2.532 1.821S9.462 8.93 9.462 8.93m-2.06-2.448v1.587h.943s.73 0 .778-.776c.05-.81-.779-.81-.779-.81z"/>
</svg>
