<svg xmlns="http://www.w3.org/2000/svg" viewBox="0 0 16.933 16.933">
    <rect width="48" height="56" x="8" y="4" fill="#f5f5f5" rx="6" transform="scale(.26458)"/>
    <path fill="#7839b7" d="m28.138 45.125-.564-23.909q-2.46.923-3.845 2.888-1.367 1.966-1.367 4.888 0 .666.068 1.094.085.41.17.666.086.24.155.376.085.137.085.24-.906 0-1.606-.171-.7-.188-1.18-.582-.46-.393-.717-1.042-.24-.65-.24-1.606 0-1.163.496-2.29.513-1.128 1.384-2.137.89-1.008 2.068-1.862 1.197-.855 2.547-1.47 1.367-.632 2.837-.974 1.486-.36 2.956-.36.393 0 .718.018.342.017.683.051l.308 21.533 7.366-21.43h2.444L33.18 45.123z" color="#000" style="isolation:auto;mix-blend-mode:normal" transform="translate(.03 -.242)scale(.27214)"/>
</svg>
