<svg xmlns="http://www.w3.org/2000/svg" viewBox="0 0 16.933 16.933">
    <rect width="48" height="56" x="8" y="4" fill="#f5f5f5" rx="6" transform="scale(.26458)"/>
    <path fill="#2f5fdd" d="M11.475 9.632q-.035.752-.406 1.331-.37.574-1.044.89-.668.318-1.53.318-1.42 0-2.236-.926-.816-.925-.816-2.613v-.356q0-1.059.366-1.85.37-.798 1.064-1.228.693-.436 1.603-.436 1.312 0 2.108.693.797.688.906 1.9H9.758q-.02-.658-.332-.945-.311-.287-.95-.287-.648 0-.95.485t-.317 1.55v.509q0 1.153.287 1.648.292.495 1 .495.599 0 .915-.282.317-.283.337-.896z"/>
</svg>
