<svg xmlns="http://www.w3.org/2000/svg" width="64" height="64" viewBox="0 0 64 64">
    <rect width="48" height="56" x="8" y="4" fill="#0d9488" rx="6"/>
    <path fill="#f5f5f5" fill-rule="evenodd" d="M18 21c-.554 0-1 .446-1 1v20c0 .554.446 1 1 1h28c.554 0 1-.446 1-1V22c0-.554-.446-1-1-1zm20 1a1 1 0 0 1 1 1 1 1 0 0 1-1 1 1 1 0 0 1-1-1 1 1 0 0 1 1-1m3 0a1 1 0 0 1 1 1 1 1 0 0 1-1 1 1 1 0 0 1-1-1 1 1 0 0 1 1-1m3 0a1 1 0 0 1 1 1 1 1 0 0 1-1 1 1 1 0 0 1-1-1 1 1 0 0 1 1-1m-26 3h6v17h-6zm7 0h21v17H25z" style="paint-order:fill markers stroke"/>
</svg>
