<svg xmlns="http://www.w3.org/2000/svg" width="64" height="64" viewBox="0 0 64 64">
    <path d="M16 4h32c4.415 0 8 3.585 8 8v40c0 4.415-3.585 8-8 8H16c-4.415 0-8-3.585-8-8V12c0-4.415 3.585-8 8-8" style="stroke:none;fill:#f5f5f5;stroke-miterlimit:10"/>
    <path fill="#757575" d="M32 21.95a2.275 2.275 0 1 0 0 4.55 2.275 2.275 0 0 0 0-4.55m-4.225 2.275a4.226 4.226 0 1 1 8.451.001 4.226 4.226 0 0 1-8.451-.001m-4.875.325a1.95 1.95 0 1 0 0 3.9 1.95 1.95 0 0 0 0-3.9M19 26.5a3.9 3.9 0 1 1 7.8 0 3.9 3.9 0 0 1-7.8 0m20.15 0a1.95 1.95 0 1 1 3.9 0 1.95 1.95 0 0 1-3.9 0m1.95-3.9a3.9 3.9 0 1 0 0 7.8 3.9 3.9 0 0 0 0-7.8M26.15 32.675a2.27 2.27 0 0 1 2.275-2.275h7.15a2.27 2.27 0 0 1 2.275 2.275v4.875a5.85 5.85 0 0 1-11.7 0zm2.275-.325a.325.325 0 0 0-.325.325v4.875a3.9 3.9 0 0 0 7.8 0v-4.875a.325.325 0 0 0-.325-.325zm-3.432-.676c-.091.312-.143.65-.143 1.001v1.053l-3.653.975a.323.323 0 0 0-.234.403l.923 3.458a3.9 3.9 0 0 0 4.108 2.859c.416.65.91 1.209 1.495 1.69a5.85 5.85 0 0 1-7.488-4.055l-.923-3.445a2.257 2.257 0 0 1 1.612-2.782l4.303-1.17zm11.518 11.439.325.091a5.85 5.85 0 0 0 7.15-4.146l.936-3.445a2.257 2.257 0 0 0-1.612-2.782l-4.303-1.17c.091.325.143.663.143 1.014v1.053l3.666.975a.34.34 0 0 1 .221.403l-.91 3.458a3.9 3.9 0 0 1-4.121 2.859 7.2 7.2 0 0 1-1.495 1.69"/>
</svg>
