<svg xmlns="http://www.w3.org/2000/svg" viewBox="0 0 16.933 16.933">
    <rect width="48" height="56" x="8" y="4" fill="#f5f5f5" rx="6" transform="scale(.26458)"/>
    <path fill="#8c59d9" d="M5.82 6.35s-1.058 0-1.058 1.058v2.117c0 1.058 1.059 1.058 1.059 1.058h1.587v-.53H5.821s-.53 0-.53-.528V7.408c0-.529.53-.529.53-.529h1.587v-.53zm3.176 0v1.058H7.937v.53h1.059v1.058H7.937v.529h1.059v1.058h.529V9.525h1.058v1.058h.53V9.525h1.058v-.53h-1.059V7.938h1.059v-.529h-1.059V6.35h-.529v1.058H9.525V6.35zm.529 1.587h1.058v1.059H9.525z" color="#000" style="text-decoration-line:none;text-indent:0;text-transform:none"/>
</svg>
