<svg xmlns="http://www.w3.org/2000/svg" viewBox="0 0 16.933 16.933">
    <rect width="48" height="56" x="8" y="4" fill="#f5f5f5" rx="6" transform="scale(.26458)"/>
    <path fill="#1a7fd4" d="M10.96 6.07c.268.067.473.186.66.38.098.105.242.294.254.34.003.013-.456.321-.735.494-.01.007-.05-.037-.095-.104-.136-.198-.278-.283-.496-.298-.32-.022-.527.146-.525.426 0 .082.012.13.045.197.07.146.201.233.612.411.756.325 1.08.54 1.28.845.225.34.276.883.123 1.287-.168.44-.583.738-1.168.837-.181.032-.61.027-.805-.009-.424-.075-.826-.285-1.074-.56-.098-.107-.287-.387-.275-.407a1 1 0 0 1 .097-.062l.392-.226.304-.176.063.094c.09.135.284.322.4.384.338.177.8.152 1.029-.052a.39.39 0 0 0 .137-.317.4.4 0 0 0-.079-.268c-.082-.118-.25-.217-.726-.423-.544-.235-.78-.38-.994-.612a1.4 1.4 0 0 1-.29-.528 2.1 2.1 0 0 1-.018-.674c.112-.526.51-.893 1.083-1.002.186-.035.618-.022.801.023m-2.48.441.004.433H7.11v3.906h-.972V6.944H4.763V6.52c0-.235.005-.431.011-.436.005-.007.842-.01 1.856-.009l1.846.005z" class="st1"/>
</svg>
