<svg xmlns="http://www.w3.org/2000/svg" viewBox="0 0 64 64">
    <rect width="48" height="56" x="8" y="4" fill="#f5f5f5" rx="6"/>
    <path fill="#757575" d="M44 24a1 1 0 0 0-1-1H30.333a1 1 0 0 0 0 2H43c.547 0 1-.453 1-1m-17.333 0a1 1 0 0 0-1-1H21a1 1 0 0 0 0 2h4.667c.546 0 1-.453 1-1M44 29.333a1 1 0 0 0-1-1H30.333a1 1 0 0 0 0 2H43c.547 0 1-.453 1-1m-17.333 0a1 1 0 0 0-1-1H21a1 1 0 0 0 0 2h4.667c.546 0 1-.453 1-1M44 34.667a1 1 0 0 0-1-1H30.333a1 1 0 1 0 0 2H43c.547 0 1-.454 1-1m-17.333 0a1 1 0 0 0-1-1H21a1 1 0 1 0 0 2h4.667c.546 0 1-.454 1-1M44 40a1 1 0 0 0-1-1H30.333a1 1 0 0 0 0 2H43c.547 0 1-.453 1-1m-17.333 0a1 1 0 0 0-1-1H21a1 1 0 0 0 0 2h4.667c.546 0 1-.453 1-1"/>
</svg>
