<svg xmlns="http://www.w3.org/2000/svg" viewBox="0 0 16.933 16.933">
    <rect width="48" height="56" x="8" y="4" fill="#f5f5f5" rx="6" transform="scale(.26458)"/>
    <g fill="#31c6b7">
        <path d="M8.376 7.474c-.37.094-.622.164-.985.258-.088.023-.094.03-.17-.059a.8.8 0 0 0-.276-.223c-.369-.181-.726-.128-1.06.088a1.25 1.25 0 0 0-.598 1.114.92.92 0 0 0 .79.92c.4.053.734-.088.997-.386.053-.065.1-.135.159-.217H6.1c-.123 0-.152-.077-.111-.176.076-.182.217-.487.299-.64a.16.16 0 0 1 .146-.093H8.57c-.012.158-.012.317-.035.475a2.5 2.5 0 0 1-.48 1.149c-.423.557-.974.902-1.671.996-.575.076-1.108-.035-1.577-.387a1.84 1.84 0 0 1-.745-1.3c-.076-.64.112-1.214.499-1.718A2.6 2.6 0 0 1 6.2 6.26c.551-.1 1.078-.036 1.553.287.311.205.534.486.68.826.035.053.012.082-.058.1z"/>
        <path d="M10.316 10.715c-.534-.011-1.02-.164-1.43-.515a1.84 1.84 0 0 1-.633-1.132c-.106-.662.076-1.248.474-1.77.428-.563.944-.856 1.642-.979.597-.105 1.16-.047 1.67.3.463.316.75.744.827 1.306.1.792-.13 1.436-.674 1.987a2.7 2.7 0 0 1-1.407.75c-.159.03-.317.036-.47.053zm1.395-2.368c-.006-.076-.006-.135-.018-.193-.105-.58-.639-.909-1.195-.78-.546.123-.897.47-1.026 1.02a.965.965 0 0 0 .539 1.108c.322.14.645.123.955-.035.464-.24.716-.616.745-1.12"/>
    </g>
</svg>
