<svg xmlns="http://www.w3.org/2000/svg" viewBox="0 0 64 64">
    <rect width="48" height="56" x="8" y="4" fill="#f5f5f5" rx="6"/>
    <path fill="#757575" d="M41.296 35.327a.64.64 0 0 1 .6.426l.533 1.64a3.36 3.36 0 0 0 2.132 2.132l1.626.533h.04a.65.65 0 0 1 0 1.213l-1.639.533a3.37 3.37 0 0 0-2.132 2.132l-.533 1.626v.04a.64.64 0 0 1-1.2-.04l-.533-1.639a3.36 3.36 0 0 0-2.132-2.133l-1.639-.533a.655.655 0 0 1-.307-.973.64.64 0 0 1 .307-.239l1.639-.534c.16-.053.293-.119.44-.186a3.36 3.36 0 0 0 1.639-1.892l.013-.04.533-1.64a.64.64 0 0 1 .613-.426M38.658 22a5.33 5.33 0 0 1 0 10.661H25.331a3.332 3.332 0 0 0 0 6.664h9.848l-.066.067-.094.119c-.2.294-.319.64-.359.987v.306c.026.173.053.36.119.52h-9.448a5.331 5.331 0 0 1 0-10.662h13.327a3.33 3.33 0 1 0 0-6.663h-5.664a1 1 0 1 1 0-1.999zm-15.659 0a.999.999 0 1 1 0 1.999H21A.999.999 0 1 1 21 22zm5.997 0a.999.999 0 1 1 0 1.999h-1.999a1 1 0 1 1 0-1.999z"/>
</svg>
