<svg xmlns="http://www.w3.org/2000/svg" viewBox="0 0 16.933 16.933">
    <rect width="48" height="56" x="8" y="4" fill="#f5f5f5" rx="6" transform="scale(.26458)"/>
    <path fill="#eab305" d="M9.354 9.518c.226.37.52.64 1.042.64.437.001.717-.218.717-.52 0-.362-.287-.49-.769-.701l-.264-.114c-.762-.323-1.27-.731-1.27-1.591 0-.792.604-1.395 1.547-1.395.672 0 1.155.233 1.503.845l-.823.528c-.181-.324-.376-.452-.68-.452-.31 0-.505.196-.505.452 0 .317.196.446.65.642l.263.113c.898.385 1.405.777 1.405 1.66 0 .95-.748 1.471-1.75 1.471-.982 0-1.616-.467-1.926-1.08zm-3.732.091c.166.294.317.543.68.543.347 0 .566-.135.566-.663V5.897h1.056v3.606c0 1.094-.641 1.591-1.577 1.591-.846 0-1.336-.437-1.585-.964z"/>
</svg>
