<svg xmlns="http://www.w3.org/2000/svg" viewBox="0 0 16.933 16.933">
    <rect width="48" height="56" x="8" y="4" fill="#f5f5f5" rx="6" transform="scale(.26458)"/>
    <path fill="#5884f4" d="M6.692 4.234q-.315.003-.532.073a.84.84 0 0 0-.357.203.7.7 0 0 0-.19.326q-.056.195-.056.449v2.363a.7.7 0 0 1-.037.222.5.5 0 0 1-.105.19.6.6 0 0 1-.172.136.6.6 0 0 1-.216.047v.447a.5.5 0 0 1 .216.053.5.5 0 0 1 .172.136q.074.08.105.19.037.105.037.216v2.363q0 .252.055.45.055.196.19.331c.135.135.21.158.358.204q.218.065.532.066h.187v-.45h-.187q-.31-.008-.453-.127-.147-.123-.147-.48V9.438q0-.406-.11-.627a.8.8 0 0 0-.302-.344.8.8 0 0 0 .301-.345q.11-.222.11-.627V5.29q0-.357.148-.48.143-.12.453-.128h.187v-.45zm3.362 0v.45h.187q.31.008.453.127.147.123.147.48v2.204q0 .406.111.627.105.222.302.345a.8.8 0 0 0-.302.344q-.11.222-.11.627v2.204q0 .357-.148.48-.143.12-.453.128h-.187v.45h.187q.315-.002.533-.068a.84.84 0 0 0 .356-.203q.135-.134.191-.332.056-.195.056-.449V9.285q0-.111.036-.216a.46.46 0 0 1 .105-.19.5.5 0 0 1 .172-.136.5.5 0 0 1 .216-.053v-.447a.6.6 0 0 1-.216-.047.6.6 0 0 1-.172-.136.5.5 0 0 1-.105-.19.7.7 0 0 1-.036-.222V5.285q0-.252-.056-.45a.7.7 0 0 0-.19-.325.84.84 0 0 0-.357-.203 1.8 1.8 0 0 0-.533-.073z"/>
</svg>
