<svg xmlns="http://www.w3.org/2000/svg" viewBox="0 0 16.933 16.933">
    <defs>
        <linearGradient id="a" x1="49.571" x2="51.714" y1="52.714" y2="54.857" gradientTransform="translate(-68.667 -72.001)scale(2.3333)" gradientUnits="userSpaceOnUse">
            <stop offset="0"/>
            <stop offset="1" stop-opacity="0"/>
        </linearGradient>
    </defs>
    <g transform="scale(.26458)">
        <rect width="48" height="56" x="8" y="4" fill="#f5f5f5" rx="6"/>
        <path fill="url(#a)" fill-rule="evenodd" d="M56 46 42 60h9c2.77 0 5-2.23 5-5z" opacity=".1"/>
    </g>
    <g fill="#757575">
        <path d="M8.996 5.292v.265h3.175v-.265zm0 .794v.264h3.175v-.264zm0 .793v.265h3.175v-.265zm0 .794v.265h3.175v-.265zm0 .794v.265h3.175v-.265zm-4.233.794v.264h7.408v-.264zm0 .793v.265h7.408v-.265zm0 .794v.265h7.408v-.265zm0 .794v.264h7.408v-.264zm0 .794v.264h4.233v-.264z"/>
        <path d="m6.388 5.027-1.305 3.44h-.32v.264h.925v-.264h-.296l.31-.795h1.534l.309.795h-.4v.264h1.328v-.264h-.367l-1.305-3.44zm.08.595.676 1.787h-1.34z" color="#757575" font-size="13.717" font-weight="400" letter-spacing="0" overflow="visible" word-spacing="0"/>
    </g>
</svg>
