<svg xmlns="http://www.w3.org/2000/svg" viewBox="0 0 64 64">
    <rect width="48" height="56" x="8" y="4" fill="#7c3aed" rx="6"/>
    <path fill="#f5f5f5" d="M29.02 22.988v3.118h3.116v-3.118zm4 0v3.118h3.116v-3.118zm8.52 2.568a3 3 0 0 0-1.204 3.244A3 3 0 0 0 43 31.012a3 3 0 0 0 2.824 2 3 3 0 0 0 2.824-2 3 3 0 0 0-2.824-2 3 3 0 0 0-1.696.532 3 3 0 0 0-2.588-3.992zM43 31.012H19c0 6.628 5.372 10 12 10s12-3.372 12-10m-19.118-4.008v3.118h3.12v-3.118zm4 0v3.118h3.12v-3.118zm4 0v3.118h3.12v-3.118zm4 0v3.118h3.12v-3.118zm-11.88 6.008a1 1 0 0 1 1 1 1 1 0 0 1-1 1 1 1 0 0 1-1-1 1 1 0 0 1 1-1"/>
</svg>
