<svg xmlns="http://www.w3.org/2000/svg" viewBox="0 0 16.933 16.933">
    <rect width="48" height="56" x="8" y="4" fill="#f5f5f5" rx="6" transform="scale(.26458)"/>
    <path fill="#2b898f" d="M5.292 6.614H6.35v.53H5.292s-.53 0-.53.529V9.26c0 .53.53.53.53.53H6.35v.529H5.292s-1.059 0-1.059-1.059V7.673c0-1.058 1.059-1.058 1.059-1.058zm2.645.53h.53v1.058h1.058v.53H8.467v1.057h-.53V8.731H6.88v-.529h1.058zm3.175 0h.53v1.058H12.7v.53h-1.06v1.057h-.529V8.731h-1.058v-.529h1.058z" color="#000" style="text-decoration-line:none;text-indent:0;text-transform:none"/>
</svg>
