<svg xmlns="http://www.w3.org/2000/svg" viewBox="0 0 16.933 16.933">
    <rect width="48" height="56" x="8" y="4" fill="#f5f5f5" rx="6" transform="scale(.26458)"/>
    <path fill="#347ab4" d="M8.334 4.63c-.88 0-1.587.354-1.587.794v1.058h1.587v.265h-2.91c-.44 0-.794.708-.794 1.587V8.6c0 .88.354 1.587.794 1.587h1.058v-.793s0-1.059 1.058-1.059h2.117s.53 0 .53-.529V5.424c0-.44-.709-.794-1.588-.794zm-.794.53a.265.265 0 1 1 0 .529.265.265 0 0 1 0-.53z"/>
    <path fill="#ffd43b" d="M8.599 12.303c.88 0 1.587-.354 1.587-.794v-1.058H8.6v-.265h2.91c.44 0 .794-.708.794-1.587v-.265c0-.88-.354-1.587-.794-1.587h-1.058v1.058c0 .794-.794.794-.794.794H7.541c-.794 0-.794.794-.794.794v2.116c0 .44.708.794 1.587.794zm.794-.794a.265.265 0 1 1 0-.529.265.265 0 0 1 0 .53z"/>
</svg>
