<svg xmlns="http://www.w3.org/2000/svg" width="64" height="64" viewBox="0 0 64 64">
    <defs>
        <linearGradient id="a" x1=".5" x2=".5" y1="0" y2="1">
            <stop offset="0" stop-opacity=".1" style="stop-color:#f5f5f5"/>
            <stop offset="1" stop-opacity=".1" style="stop-color:#f5f5f5"/>
        </linearGradient>
    </defs>
    <path d="M16 4h32c4.415 0 8 3.585 8 8v40c0 4.415-3.585 8-8 8H16c-4.415 0-8-3.585-8-8V12c0-4.415 3.585-8 8-8" style="stroke:none;fill:#f5f5f5;stroke-miterlimit:10"/>
    <path d="M16 4h32c4.415 0 8 3.585 8 8v40c0 4.415-3.585 8-8 8H16c-4.415 0-8-3.585-8-8V12c0-4.415 3.585-8 8-8" style="stroke:none;fill:url(#a);stroke-miterlimit:10"/>
    <path fill="#757575" d="M21 42.001h22a1 1 0 0 0 1-1V22.999a1 1 0 0 0-1-1H21a1 1 0 0 0-1 1v18.002a1 1 0 0 0 1 1m.999-17.999h3.999v3.999h-3.999zm5.998 0h14v3.999h-14zm-5.998 5.999h3.999v3.998h-3.999zm5.998 0h14v3.998h-14zm-5.998 6.002h3.999v3.998h-3.999zm5.998 0h14v3.998h-14z"/>
</svg>
