<svg xmlns="http://www.w3.org/2000/svg" width="64" height="64" viewBox="0 0 64 64">
    <rect width="48" height="56" x="8" y="4" fill="#3b82f6" rx="6"/>
    <path fill="#f5f5f5" d="M44.573 29.844q0 2.592-.84 4.698-.823 2.093-2.309 3.235-1.474 1.145-3.311 1.145-1.425 0-2.207-.616-.779-.612-.779-1.837l.038-.983h-.083q-.952 1.72-2.366 2.586-1.398.846-3.031.846-2.268 0-3.527-1.421-1.239-1.421-1.239-3.942 0-2.29.922-4.256.941-1.965 2.615-3.125 1.675-1.161 3.712-1.157 3.16 0 4.346 2.54h.087l.564-2.23h2.252l-1.678 7.053q-.529 2.286-.529 3.526 0 1.311 1.164 1.311 1.153 0 2.12-.963.983-.96 1.55-2.646.559-1.689.559-3.742 0-2.494-1.111-4.414-1.111-1.939-3.205-2.971-2.094-1.047-4.898-1.047-3.493 0-6.18 1.493-2.683 1.493-4.214 4.309-1.531 2.8-1.531 6.285 0 2.691 1.127 4.755 1.137 2.048 3.276 3.152 2.155 1.1 5.012 1.1 2.094 0 4.245-.529 2.154-.518 4.459-1.728l.794 1.561q-2.09 1.21-4.547 1.841-2.441.643-4.951.643-3.477 0-6.096-1.342-2.597-1.323-3.984-3.78-1.372-2.464-1.372-5.669 0-3.904 1.792-7.098 1.802-3.194 4.996-4.963 3.19-1.784 7.144-1.784 3.484 0 6.009 1.266 2.532 1.255 3.855 3.553 1.346 2.306 1.346 5.345zm-8.754.113q0-1.425-.952-2.291-.953-.876-2.54-.876-1.463 0-2.604.892-1.123.876-1.777 2.456-.646 1.558-.646 3.383 0 1.678.68 2.627.692.945 2.117.945 1.81 0 3.311-1.463t2.078-3.651q.333-1.285.333-2.022"/>
</svg>
