<svg xmlns="http://www.w3.org/2000/svg" width="128" height="128" viewBox="0 0 128 128"><linearGradient id="b" x1="48" x2="464" y1="204" y2="204" gradientTransform="matrix(.21154 0 0 .25 9.846 57)" gradientUnits="userSpaceOnUse"><stop offset="0" stop-color="#3d3846"/><stop offset=".045" stop-color="#5e5c64"/><stop offset=".091" stop-color="#3d3846"/><stop offset=".909" stop-color="#3d3846"/><stop offset=".955" stop-color="#5e5c64"/><stop offset="1" stop-color="#3d3846"/></linearGradient><filter id="a" width="100%" height="100%" x="0%" y="0%"><feColorMatrix in="SourceGraphic" values="0 0 0 0 1 0 0 0 0 1 0 0 0 0 1 0 0 0 1 0"/></filter><mask id="d"><g filter="url(#a)"><path fill-opacity=".5" d="M0 0h128v128H0z"/></g></mask><clipPath id="c"><path d="M0 0h192v152H0z"/></clipPath><path fill="url(#b)" d="M28 36h72a8 8 0 0 1 8 8v68a8 8 0 0 1-8 8H28a8 8 0 0 1-8-8V44a8 8 0 0 1 8-8m0 0"/><path fill="#5e5c64" d="M28 8h72a8 8 0 0 1 8 8v92a8 8 0 0 1-8 8H28a8 8 0 0 1-8-8V16a8 8 0 0 1 8-8m0 0"/><path fill="#deddda" d="M32 16h64c2.21 0 4 1.79 4 4v80c0 2.21-1.79 4-4 4H32c-2.21 0-4-1.79-4-4V20c0-2.21 1.79-4 4-4m0 0"/><path fill="#c0bfbc" d="M30 78v22c0 1.11.89 2 2 2h64c1.11 0 1.934-.895 2-2V82s-10-6-28.785-5.594C56.012 76.696 44 88 30 78m0 0"/><path fill="#3d3846" d="M32 14c-2.215 0-4 1.785-4 4v2c0-2.215 1.785-4 4-4h64c2.215 0 4 1.785 4 4v-2c0-2.215-1.785-4-4-4zm0 0"/><g fill="#c0bfbc"><path d="M75.219 42.594c-.563 5.218-5.254 8.996-10.473 8.43-5.223-.563-9-5.25-8.433-10.473.562-5.223 5.253-8.996 10.472-8.434 5.223.563 8.996 5.254 8.434 10.477m-7.285 9.34-.38 2.57c.016.57-.07 1.129-.245 1.68a9.1 9.1 0 0 1-2.88.14c-.324-.601-.327-1.203-.34-1.8l-.558-2.922.328.148.489 2.762c1.05-.082 1.859-.082 2.965-.063l.347-2.441zm0 0"/><path d="M67.926 52.027c-1.469.196-2.91.125-4.324-.195-.586-.832-1.372-1.352-2.329-1.883l4.348-.797 4.7.774c-1.442.87-2.067 1.246-2.395 2.101m-1.871 1.27a.45.45 0 0 1-.414.488.45.45 0 0 1-.489-.41.455.455 0 0 1 .414-.492.454.454 0 0 1 .489.414m-.41.555a.7.7 0 0 1 .757.636.706.706 0 0 1-.64.758.7.7 0 0 1-.117-1.394m-.528-.457-.41.14.234.02-.14.14.199-.054-.098.226.282-.297-.043-.074zm.981-.082.43.066-.231.059.164.113-.207-.016.137.203-.329-.246.032-.078zm30.722-.426a6.492 6.492 0 1 1-12.957-.824 6.492 6.492 0 0 1 12.957.824m-4.687 6.59-.18 1.765a3.5 3.5 0 0 1-.117 1.153 6.3 6.3 0 0 1-1.957.183c-.242-.402-.262-.808-.29-1.219l-.468-1.976.445.07.418 1.867c.715-.086.868-.066 1.621-.09l.165-1.675zm0 0"/><path d="M92.133 59.54a8.3 8.3 0 0 1-2.957 0c-.426-.552-.977-.884-1.645-1.216l2.942-.676 3.226.387c-.957.637-1.367.914-1.566 1.504m-1.117 1.715c.035.324-.047.601-.188.617s-.281-.238-.316-.562.047-.598.187-.614c.14-.015.281.235.317.559m-39.59-5.691a5.313 5.313 0 1 1-10.562-1.129 5.31 5.31 0 0 1 5.843-4.72 5.313 5.313 0 0 1 4.719 5.849m0 0"/><path d="m47.363 60.785-.21 1.438q.01.475-.137.937a5.1 5.1 0 0 1-1.606.082c-.183-.336-.183-.672-.195-1.008l-.313-1.632.32.074.274 1.539c.59-.047.8-.02 1.418-.012l.191-1.363zm0 0"/><path d="M47.36 60.836a6.8 6.8 0 0 1-2.419-.102c-.328-.464-.765-.757-1.3-1.054l2.43-.446 2.624.43c-.804.488-1.152.7-1.336 1.172m-.972 1.364c.02.269-.063.487-.176.495s-.223-.199-.238-.468c-.02-.266.058-.489.175-.497.114-.003.223.204.239.47m0 0"/></g><g clip-path="url(#c)" mask="url(#d)" transform="translate(-8 -16)"><path fill="#3d3846" d="M64 124h16a2 2 0 1 1 0 4H64a2 2 0 1 1 0-4m0 0"/></g></svg>