<svg xmlns="http://www.w3.org/2000/svg" xmlns:xlink="http://www.w3.org/1999/xlink" width="128" height="128" viewBox="0 0 128 128"><linearGradient id="b" x1="0" x2="128" y1="88" y2="88" gradientTransform="matrix(.95518 0 0 .95517 2.763 9.025)" gradientUnits="userSpaceOnUse"><stop offset="0" stop-color="#3d3846"/><stop offset=".109" stop-color="#9a9996"/><stop offset=".235" stop-color="#5e5c64"/><stop offset=".766" stop-color="#5e5c64"/><stop offset=".891" stop-color="#9a9996"/><stop offset="1" stop-color="#3d3846"/></linearGradient><linearGradient id="a" gradientUnits="userSpaceOnUse"><stop offset="0" stop-color="#9a9996"/><stop offset="1" stop-color="#9a9996" stop-opacity="0"/></linearGradient><linearGradient xlink:href="#a" id="c" x1="38" x2="50" y1="248" y2="248" gradientTransform="matrix(0 -1.33569 -1.33569 0 414.265 140.752)"/><linearGradient xlink:href="#a" id="d" x1="38" x2="50" y1="248" y2="248" gradientTransform="matrix(0 -1.33569 -1.33569 0 375.233 140.752)"/><path fill="none" stroke="#77767b" stroke-linejoin="round" stroke-width="32" d="m25.877 220.092-9.876 47.91 35.403-44" transform="matrix(-.95518 0 0 .95517 125.026 -155.265)"/><path fill="none" stroke="#77767b" stroke-linejoin="round" stroke-width="32" d="m90.874 86.094-9.872 47.91 35.403-44" transform="matrix(.95518 0 0 .95517 -59.324 -27.274)"/><path fill="url(#b)" d="m60.504 65.648-30.55 37.965a15.28 15.28 0 0 1-15.38 5.282A15.28 15.28 0 0 1 3.141 97.332l-.063.305a15.29 15.29 0 0 0 8.457 16.902 15.29 15.29 0 0 0 18.418-4.238L63.77 68.273zm6.781 0-3.265 2.625 33.816 42.028a15.29 15.29 0 0 0 18.418 4.238 15.29 15.29 0 0 0 8.457-16.902l-.063-.305a15.28 15.28 0 0 1-11.433 11.563 15.28 15.28 0 0 1-15.38-5.282zm0 0"/><g fill="#5e5c64"><path d="M54.344 55.828c0 11.606-9.41 21.016-21.016 21.016s-21.012-9.41-21.012-21.016 9.407-21.012 21.012-21.012 21.016 9.407 21.016 21.012m0 0"/><path d="M60.074 85.438c0 8.44-6.844 15.285-15.285 15.285-8.437 0-15.281-6.844-15.281-15.285 0-8.438 6.844-15.282 15.281-15.282 8.441 0 15.285 6.844 15.285 15.281m38.207.001c0 8.44-6.844 15.285-15.285 15.285-8.437 0-15.281-6.844-15.281-15.285 0-8.438 6.844-15.282 15.281-15.282 8.442 0 15.285 6.844 15.285 15.281m0 0"/><path d="M46.7 72.066h34.386v15.282H46.699zm0 0"/><path d="M115.473 55.828c0 11.606-9.407 21.016-21.012 21.016s-21.016-9.41-21.016-21.016 9.41-21.012 21.016-21.012 21.012 9.407 21.012 21.012m0 0"/></g><path fill="#deddda" d="M46.7 45.32h34.386v40.118H46.699zm0 0"/><path fill="#deddda" d="M60.074 83.527c0 8.442-6.844 15.285-15.285 15.285-8.437 0-15.281-6.843-15.281-15.285 0-8.437 6.844-15.28 15.281-15.28 8.441 0 15.285 6.843 15.285 15.28m38.207 0c0 8.442-6.844 15.285-15.285 15.285-8.437 0-15.281-6.843-15.281-15.285 0-8.437 6.844-15.28 15.281-15.28 8.442 0 15.285 6.843 15.285 15.28m0 0"/><path fill="#deddda" d="M33.328 32c-11.605 0-21.012 9.398-21.012 20.988 0 11.594 9.407 20.989 21.012 20.989v.957h61.133v-.957c11.605 0 21.012-9.395 21.012-20.989 0-11.59-9.407-20.988-21.012-20.988zm0 0"/><path fill="#3d3846" d="M32 40c-1.11 0-2 .89-2 2v6h-6c-1.11 0-2 .89-2 2v4c0 1.11.89 2 2 2h6v6c0 1.11.89 2 2 2h4c1.11 0 2-.89 2-2v-6h6c1.11 0 2-.89 2-2v-4c0-1.11-.89-2-2-2h-6v-6c0-1.11-.89-2-2-2zm0 0"/><path fill="#5e5c64" d="M32 38c-1.11 0-2 .89-2 2v6h-6c-1.11 0-2 .89-2 2v4c0 1.11.89 2 2 2h6v6c0 1.11.89 2 2 2h4c1.11 0 2-.89 2-2v-6h6c1.11 0 2-.89 2-2v-4c0-1.11-.89-2-2-2h-6v-6c0-1.11-.89-2-2-2zm0 0"/><path fill="#c01c28" d="M108 54v2c0 3.324-2.676 6-6 6s-6-2.676-6-6v-2zm0 0"/><path fill="#ed333b" d="M96 54c0 3.313 2.688 6 6 6s6-2.687 6-6a6 6 0 0 0-12 0m0 0"/><path fill="#1a5fb4" d="M92 46v2c0 3.324-2.676 6-6 6s-6-2.676-6-6v-2zm0 0"/><path fill="#3584e4" d="M80 46c0 3.313 2.688 6 6 6s6-2.687 6-6a6 6 0 0 0-12 0m0 0"/><path fill="#3d3846" d="M93.031 83.984c0 5.536-4.484 10.02-10.015 10.02a10.02 10.02 0 0 1-10.02-10.02c0-5.53 4.484-10.015 10.02-10.015 5.53 0 10.015 4.484 10.015 10.015m0 0"/><path fill="#5e5c64" d="M93.031 81.98c0 5.536-4.484 10.02-10.015 10.02a10.02 10.02 0 0 1-10.02-10.02c0-5.53 4.484-10.015 10.02-10.015 5.53 0 10.015 4.484 10.015 10.015m0 0"/><path fill="url(#c)" d="M83.016 73.969a8.014 8.014 0 1 0 0 16.027 8.01 8.01 0 0 0 8.011-8.016 8.01 8.01 0 0 0-8.011-8.011m0 0"/><path fill="#3d3846" d="M54 83.984c0 5.536-4.484 10.02-10.02 10.02-5.53 0-10.015-4.484-10.015-10.02 0-5.53 4.484-10.015 10.015-10.015 5.536 0 10.02 4.484 10.02 10.015m0 0"/><path fill="#5e5c64" d="M54 81.98C54 87.516 49.516 92 43.98 92c-5.53 0-10.015-4.484-10.015-10.02 0-5.53 4.484-10.015 10.015-10.015 5.536 0 10.02 4.484 10.02 10.015m0 0"/><path fill="url(#d)" d="M43.98 73.969a8.01 8.01 0 0 0-8.011 8.011 8.01 8.01 0 0 0 8.011 8.016 8.01 8.01 0 0 0 8.016-8.016 8.01 8.01 0 0 0-8.016-8.011m0 0"/></svg>