<svg xmlns="http://www.w3.org/2000/svg" width="128" height="128" viewBox="0 0 128 128"><linearGradient id="a" x1="-280.624" x2="-287.765" y1="-66.117" y2="-66.117" gradientTransform="matrix(0 -.93287 -1 0 0 -170.918)" gradientUnits="userSpaceOnUse"><stop offset="0" stop-color="#313133"/><stop offset="1" stop-color="#9a9996"/></linearGradient><linearGradient id="b" x1="-271.975" x2="-266.415" y1="-62.938" y2="-62.938" gradientTransform="matrix(0 -1 -1 0 0 -172)" gradientUnits="userSpaceOnUse"><stop offset="0" stop-color="#aeadab"/><stop offset="1" stop-color="#aeadab" stop-opacity="0"/></linearGradient><linearGradient id="c" x1="1202" x2="1246" y1="-735" y2="-735" gradientTransform="matrix(2.38179 0 0 2.0835 -2851.153 1636.157)" gradientUnits="userSpaceOnUse"><stop offset="0" stop-color="#9a9996" stop-opacity="0"/><stop offset=".091" stop-color="#9a9996"/><stop offset=".909" stop-color="#9a9996"/><stop offset="1" stop-color="#9a9996" stop-opacity="0"/></linearGradient><linearGradient id="d" x1="904" x2="904" y1="-340" y2="-385.948" gradientTransform="matrix(.25 0 0 .16667 -164 168.667)" gradientUnits="userSpaceOnUse"><stop offset="0" stop-color="#77767b"/><stop offset=".603" stop-color="#c0bfbc"/><stop offset="1" stop-color="#aeadab"/></linearGradient><linearGradient id="e" x1="88.596" x2="536.596" y1="-449.394" y2="-449.394" gradientTransform="matrix(.23234 0 0 .23317 -8.672 198.783)" gradientUnits="userSpaceOnUse"><stop offset="0" stop-color="#c4c4c6"/><stop offset=".036" stop-color="#f0f0ee"/><stop offset=".071" stop-color="#cfcfcd"/><stop offset=".929" stop-color="#d5d5d5"/><stop offset=".964" stop-color="#c0bfbc"/><stop offset="1" stop-color="#77767b"/></linearGradient><linearGradient id="f" x1="45.544" x2="45.544" y1="72.562" y2="83.275" gradientUnits="userSpaceOnUse"><stop offset="0" stop-color="#77767b"/><stop offset="1" stop-color="#c0bfbc"/></linearGradient><path fill="url(#a)" d="M68 105.21V75.36h-8v29.85zm0 0"/><path fill="url(#b)" d="M63.797 105.21V75.36H62v29.85zm0 0"/><path fill="url(#c)" d="M8.18 105.832h111.945V110H8.18zm0 0"/><path fill="url(#d)" d="M51.73 104h24.54a3.73 3.73 0 0 1 3.73 3.73v.54a3.73 3.73 0 0 1-3.73 3.73H51.73a3.73 3.73 0 0 1-3.73-3.73v-.54a3.73 3.73 0 0 1 3.73-3.73m0 0"/><path fill="url(#e)" d="M19.355 23.117h89.204c4.109 0 7.441 3.34 7.441 7.461V86.54c0 4.121-3.332 7.461-7.441 7.461H19.355c-4.109 0-7.44-3.34-7.44-7.46V30.577c0-4.121 3.331-7.46 7.44-7.46m0 0"/><path fill="#deddda" d="M19.563 12h88.93A7.505 7.505 0 0 1 116 19.508V60.23a7.505 7.505 0 0 1-7.508 7.508h-88.93a7.51 7.51 0 0 1-7.507-7.508V19.508A7.51 7.51 0 0 1 19.562 12m0 0"/><path fill="#ff7800" d="M104 84.996c0 .563-.457 1.024-1.023 1.024a1.024 1.024 0 0 1 0-2.047c.566 0 1.023.46 1.023 1.023m0-3.973a1.021 1.021 0 1 1-2.042-.003 1.021 1.021 0 0 1 2.042.003m0-3.983a1.022 1.022 0 1 1-2.044.002A1.022 1.022 0 0 1 104 77.04m0 0"/><path fill="#f6f5f4" d="M11.914 58.566v1.86a7.495 7.495 0 0 0 7.508 7.52h89.066a7.5 7.5 0 0 0 7.512-7.52v-1.86a7.5 7.5 0 0 1-7.512 7.52H19.422a7.5 7.5 0 0 1-7.508-7.52m0 0"/><path fill="#c01c28" d="M101.012 84.996c0 .563-.457 1.024-1.02 1.024a1.024 1.024 0 0 1 0-2.047c.563 0 1.02.46 1.02 1.023m0 0"/><path fill="#ff7800" d="M101.012 81.023a1.021 1.021 0 1 1-2.044-.003 1.021 1.021 0 0 1 2.044.003m0 0"/><path fill="#c01c28" d="M101.012 77.04a1.021 1.021 0 1 1-2.042.004 1.021 1.021 0 0 1 2.042-.005m0 0"/><path fill="#ff7800" d="M98.027 84.996c0 .563-.457 1.024-1.023 1.024a1.024 1.024 0 0 1 0-2.047c.566 0 1.023.46 1.023 1.023m0 0"/><path fill="#c01c28" d="M98.027 81.023a1.021 1.021 0 1 1-2.042-.003 1.021 1.021 0 0 1 2.042.003m0-3.983a1.022 1.022 0 1 1-2.044.002 1.022 1.022 0 0 1 2.044-.003m0 0"/><path fill="url(#f)" d="M65.422 80.441a1.94 1.94 0 0 0-1.356.579l-3.644 3.714a1.92 1.92 0 0 0 .027 2.715c.758.742 1.973.73 2.715-.023l3.645-3.719a1.923 1.923 0 0 0-.024-2.715 1.94 1.94 0 0 0-1.363-.55m-35.875-8.375a1.94 1.94 0 0 0-1.352.579l-3.644 3.714a1.923 1.923 0 0 0 .023 2.715 1.916 1.916 0 0 0 2.715-.023l3.649-3.719a1.92 1.92 0 0 0-.028-2.715 1.93 1.93 0 0 0-1.363-.55M38.223 72a1.93 1.93 0 0 0-1.364.55L24.574 84.649a1.92 1.92 0 1 0 2.692 2.739L39.555 75.29a1.92 1.92 0 0 0 .02-2.715A1.92 1.92 0 0 0 38.222 72m9.117 0c-.512-.004-1 .195-1.363.55l-12.29 12.098a1.923 1.923 0 0 0-.019 2.715 1.92 1.92 0 0 0 2.715.024l12.289-12.098a1.92 1.92 0 0 0 .02-2.715A1.92 1.92 0 0 0 47.34 72m9.117 0a1.92 1.92 0 0 0-1.36.55L42.81 84.649a1.92 1.92 0 0 0-.02 2.715 1.92 1.92 0 0 0 2.715.024L57.794 75.29A1.923 1.923 0 0 0 56.457 72m7.758.55L51.93 84.649a1.92 1.92 0 0 0-.02 2.715 1.92 1.92 0 0 0 2.715.024L66.91 75.289c.758-.746.766-1.96.02-2.715a1.92 1.92 0 0 0-2.715-.023m0 0"/></svg>