<svg xmlns="http://www.w3.org/2000/svg" width="64pt" height="64pt"  viewBox="0 0 64 64"><defs><clipPath id="a"><path d="M0 0h64v64H0z"/></clipPath></defs><g clip-path="url(#a)"><path d="M18 0h28c2.76 0 5 2.24 5 5v54c0 2.76-2.24 5-5 5H18c-2.76 0-5-2.24-5-5V5c0-2.76 2.24-5 5-5" style="stroke:none;fill:#4d4d4d;stroke-miterlimit:10"/><defs><linearGradient id="b" x1=".402" x2=".402" y1=".008" y2=".643"><stop offset="0%" style="stop-color:#4285db"/><stop offset="100%" style="stop-color:#42b9db"/></linearGradient></defs><path d="M18 2h28c1.656 0 3 1.344 3 3v54c0 1.656-1.344 3-3 3H18c-1.656 0-3-1.344-3-3V5c0-1.656 1.344-3 3-3" style="stroke:none;fill:url(#b);stroke-miterlimit:10"/><circle cx="32" cy="6" r="1" fill="#333" vector-effect="non-scaling-stroke"/><g opacity=".5" style="mix-blend-mode:normal"><path d="M23.5 58h17a.5.5 0 0 1 0 1h-17a.5.5 0 0 1 0-1" style="stroke:none;fill:#fff;stroke-miterlimit:10"/></g></g></svg>