<svg xmlns="http://www.w3.org/2000/svg" width="32" height="32"><defs><linearGradient id="a" x1="18.124" x2="18.124" y1="3.336" y2="28.783" gradientTransform="translate(-2)" gradientUnits="userSpaceOnUse"><stop offset="0" stop-color="#fff133"/><stop offset="1" stop-color="#ffc40a"/></linearGradient></defs><path fill="url(#a)" d="M16 2c-.554 0-1 .446-1 1v1c0 .554.446 1 1 1s1-.446 1-1V3c0-.554-.446-1-1-1M6.762 5.772a1 1 0 0 0-.659.292 1 1 0 0 0 0 1.415l.708.707a1 1 0 0 0 1.414 0 1 1 0 0 0 0-1.415l-.707-.707a1 1 0 0 0-.756-.293zm18.385 0a1 1 0 0 0-.658.292l-.708.708a1 1 0 0 0 0 1.414 1 1 0 0 0 1.415 0l.707-.707a1 1 0 0 0 0-1.415 1 1 0 0 0-.756-.293zM16 6A10 10 0 0 0 6 16a10 10 0 0 0 10 10 10 10 0 0 0 10-10A10 10 0 0 0 16 6M3 15c-.554 0-1 .446-1 1s.446 1 1 1h1c.554 0 1-.446 1-1s-.446-1-1-1zm25 0c-.554 0-1 .446-1 1s.446 1 1 1h1c.554 0 1-.446 1-1s-.446-1-1-1zM7.471 23.45a1 1 0 0 0-.66.292l-.707.707a1 1 0 0 0 0 1.414 1 1 0 0 0 1.414 0l.707-.707a1 1 0 0 0 0-1.414 1 1 0 0 0-.754-.293zm16.97 0a1 1 0 0 0-.659.292 1 1 0 0 0 0 1.414l.707.707c.392.392 1.022.392 1.414 0s.392-1.022 0-1.414l-.707-.707a1 1 0 0 0-.756-.293zM16 27c-.554 0-1 .446-1 1v1c0 .554.446 1 1 1s1-.446 1-1v-1c0-.554-.446-1-1-1"/></svg>