<svg xmlns="http://www.w3.org/2000/svg" width="16pt" height="16pt" viewBox="0 0 16 16"><defs><clipPath id="a"><path d="M0 0h16v16H0z"/></clipPath></defs><g fill="gray" clip-path="url(#a)"><path d="M5.143 5v.5c0 .403-.044.803-.125 1.18a4.6 4.6 0 0 1-.324 1.027c-.142.307-.315.57-.508.781l-.003.004-.002.002c-.056.059-.122.076-.181.125V11h3.429c.316 0 .571-.446.571-1V6c0-.554-.255-1-.571-1z"/><path d="M6 3v1h6c1.108 0 1.925.895 2 2v4c0 1.108-.892 2-2 2H4v1h8c1.662 0 3-1.338 3-3V9h1V7h-1V6c0-1.662-1.338-3-3-3zM5 5.5q0 .438-.156.844a2.4 2.4 0 0 1-.406.734 2.6 2.6 0 0 1-.641.563q-.36.218-.797.312V13H2V7.953a2.7 2.7 0 0 1-.812-.312A2.7 2.7 0 0 1 .141 6.344 2.6 2.6 0 0 1 0 5.5V3h1V1h1v2h1V1h1v2h1zm-4 0q0 .625.438 1.063Q1.875 7 2.5 7a1.45 1.45 0 0 0 1.063-.437A1.45 1.45 0 0 0 4 5.5V4H1z"/></g></svg>