<svg xmlns="http://www.w3.org/2000/svg" width="16pt" height="16pt" viewBox="0 0 16 16"><defs><clipPath id="a"><path d="M0 0h16v16H0z"/></clipPath></defs><g fill="gray" clip-path="url(#a)"><path d="M5.781 6.68c-.128.373-.319.72-.566 1.027-.249.307-.551.57-.889.781l-.006.004-.004.002c-.097.06-.214.076-.316.125V11h1c.554 0 1-.446 1-1V6c0-.554-.077.303-.219.68"/><path d="M6 3v1h6c1.108 0 1.925.895 2 2v4c0 1.108-.892 2-2 2H4v1h8c1.662 0 3-1.338 3-3V9h1V7h-1V6c0-1.662-1.338-3-3-3zM5 5.5q0 .438-.157.844-.14.405-.406.734c-.266.33-.39.406-.64.563q-.36.218-.797.312V13H2V7.953a2.7 2.7 0 0 1-.813-.312A2.7 2.7 0 0 1 .14 6.344 2.6 2.6 0 0 1 0 5.5V3h1V1h1v2h1V1h1v2h1zm-4 0q0 .624.437 1.063C1.874 7.002 2.083 7 2.5 7q.625 0 1.062-.437T4 5.5V4H1z"/></g></svg>