<svg xmlns="http://www.w3.org/2000/svg" width="16" height="16"><defs><style id="current-color-scheme" type="text/css">.ColorScheme-Text{color:gray}</style></defs><path fill="currentColor" d="M12.5 9a3.5 3.5 0 1 0 0 7 3.5 3.5 0 0 0 0-7m-1.414 1.586c.128 0 .255.048.353.146l1.06 1.06 1.061-1.06a.499.499 0 1 1 .707.707l-1.06 1.06 1.06 1.061a.499.499 0 1 1-.707.707l-1.06-1.06-1.06 1.06a.499.499 0 1 1-.708-.707l1.06-1.06-1.06-1.06a.499.499 0 0 1 .354-.854" class="ColorScheme-Text"/><path fill="currentColor" d="M7.48 1.002a.5.5 0 0 0-.185.043A.5.5 0 0 0 7 1.5v5.285L4.266 5.076a.5.5 0 0 0-.69.158.5.5 0 0 0 .158.69L7 7.964v.071l-3.266 2.041a.5.5 0 0 0-.158.69.5.5 0 0 0 .69.158L7 9.214V14.5a.5.5 0 0 0 .832.373l.572-.51a4.5 4.5 0 0 1-.322-1.05L8 13.387V8.59l1.27.793a4.5 4.5 0 0 1 .808-.674L8.943 8l3.323-2.076a.5.5 0 0 0 .066-.797l-4.5-4a.5.5 0 0 0-.352-.125M8 2.613l3.17 2.817L8 7.41z" class="ColorScheme-Text"/></svg>