<svg xmlns="http://www.w3.org/2000/svg" width="64" height="64" viewBox="0 0 64 64"><rect width="56" height="48" x="4" y="9" ry="6" style="opacity:.2;fill:#000;stroke-width:1;stroke-linecap:round;stroke-linejoin:round"/><rect width="56" height="48" x="4" y="8" ry="6" style="fill:#eaeaea;fill-opacity:1;stroke-width:1;stroke-linecap:round;stroke-linejoin:round"/><path d="M16 28a4 4 0 0 0-4 4 4 4 0 0 0 4 4 4 4 0 0 0 4-4 4 4 0 0 0-4-4m16 0a4 4 0 0 0-4 4 4 4 0 0 0 4 4 4 4 0 0 0 4-4 4 4 0 0 0-4-4m16 0a4 4 0 0 0-4 4 4 4 0 0 0 4 4 4 4 0 0 0 4-4 4 4 0 0 0-4-4" style="fill:#999;fill-opacity:1;stroke-width:2"/></svg>