<svg xmlns="http://www.w3.org/2000/svg" width="16" height="16" viewBox="0 0 16 16"><path fill="gray" d="M8 5.5a.5.5 0 0 0-.5.5.5.5 0 0 0 .5.5.5.5 0 0 0 .5-.5.5.5 0 0 0-.5-.5M4.076 7.111a.5.5 0 0 0-.318.147.5.5 0 0 0 0 .707.5.5 0 0 0 .707 0 .5.5 0 0 0 0-.707.5.5 0 0 0-.389-.147m7.778 0a.5.5 0 0 0-.319.147.5.5 0 0 0 0 .707.5.5 0 0 0 .707 0 .5.5 0 0 0 0-.707.5.5 0 0 0-.389-.147M2.5 11a.5.5 0 0 0-.5.5.5.5 0 0 0 .5.5.5.5 0 0 0 .5-.5.5.5 0 0 0-.5-.5M5 11v1h6v-1zm8.5 0a.5.5 0 0 0-.5.5.5.5 0 0 0 .5.5.5.5 0 0 0 .5-.5.5.5 0 0 0-.5-.5" opacity=".35"/><rect width="20" height="1" x="1.314" y="-.5" fill="gray" rx=".5" ry=".5" style="paint-order:markers stroke fill" transform="rotate(45)"/></svg>