<svg xmlns="http://www.w3.org/2000/svg" width="16" height="16" viewBox="0 0 16 16"><path fill="gray" d="M2 2C.892 2 0 2.892 0 4v8c0 1.108.892 2 2 2h6.762a4.5 4.5 0 0 1-.498-1H2a.98.98 0 0 1-.963-.816l4.461-3.551 1.17.931c.433.346 1.033.48 1.601.416a4.5 4.5 0 0 1 1.088-1.7l-.818.652a.89.89 0 0 1-1.078 0L1.037 3.816A.98.98 0 0 1 2 3h12c.489 0 .874.354.963.816l-4.89 3.895A4.5 4.5 0 0 1 12.5 7l.047.002L15 5.049v2.71c.378.253.715.561 1 .915V4c0-1.108-.892-2-2-2zM1 5.049 4.705 8 1 10.951z"/><circle cx="12.5" cy="11.5" r="3.5" fill="#42a5f5" vector-effect="non-scaling-stroke"/></svg>