<svg xmlns="http://www.w3.org/2000/svg" width="16pt" height="16pt" viewBox="0 0 16 16"><defs><clipPath id="a"><path d="M0 0h16v16H0z"/></clipPath></defs><g fill="gray" clip-path="url(#a)"><path d="M7.998 0a2.5 2.5 0 0 0-.814.156L7.146.17C6.012.617 3.379 1.488 1.955 2.056l-.023.01c-.23.099-.557.309-.739.639-.182.329-.189.618-.189.848L1 8.894c-.001 1.495.474 2.739 1.473 3.709.996.969 2.395 1.77 4.47 3.036l.004.002q.003 0 .004.002c.315.194.677.354 1.039.355l.002.002h.002l.002-.002c.358-.001.737-.163 1.053-.359h.002c2.047-1.238 3.445-2.035 4.447-3.006 1.004-.974 1.497-2.228 1.498-3.737L15 3.555c0-.23-.004-.522-.191-.858-.188-.336-.535-.552-.784-.646l-.019-.006C12.641 1.559 10.021.628 8.859.17L8.82.156A2.5 2.5 0 0 0 7.998 0m0 1c.137 0 .284.028.494.101 1.208.476 3.815 1.4 5.178 1.885.265.101.33.237.33.567l-.004 5.341c-.002 2.682-1.355 3.405-5.473 5.895-.264.164-.392.21-.529.211-.127-.001-.259-.047-.523-.211C3.298 12.244 1.998 11.558 2 8.894l.004-5.341c0-.33.064-.457.32-.567 1.354-.54 3.982-1.409 5.19-1.885A1.5 1.5 0 0 1 7.998 1"/><path d="M6.5 5a2.5 2.5 0 1 0 0 5 2.5 2.5 0 0 0 2.443-2H11v.5a.499.499 0 1 0 1 0V8h.5a.499.499 0 1 0 0-1H8.949A2.5 2.5 0 0 0 6.5 5m0 1a1.5 1.5 0 1 1-.001 3.001A1.5 1.5 0 0 1 6.5 6"/></g></svg>