<svg xmlns="http://www.w3.org/2000/svg" width="16" height="16" viewBox="0 0 16 16"><path fill="gray" d="M4 1C2.338 1 1 2.338 1 4v6c0 1.662 1.338 3 3 3h2v1H3.5a.499.499 0 1 0 0 1h9a.499.499 0 1 0 0-1H10v-1h2c1.662 0 3-1.338 3-3V4c0-1.662-1.338-3-3-3zm0 1h.662L2 4.66V4c0-1.108.892-2 2-2m2.076 0H7.49L2 7.488V6.074zm2.828 0h1.414l-8.295 8.293A2 2 0 0 1 2 10V8.904zm2.828 0H12c1.108 0 2 .892 2 2v6c0 1.108-.892 2-2 2H4a2 2 0 0 1-1.543-.725zM7 13h2v1H7z" opacity=".35"/><rect width="22" height="1" x=".314" y="-.5" fill="gray" rx=".5" ry=".5" transform="rotate(45)"/></svg>