<svg xmlns="http://www.w3.org/2000/svg" id="svg5" width="16" height="16" viewBox="0 0 16 16"><defs id="defs2"><style id="current-color-scheme" type="text/css">.ColorScheme-Text{color:gray}</style></defs><path id="path1603" d="M6.5 6v2.842A3.5 3.5 0 0 0 4.5 12a3.5 3.5 0 1 0 5-3.162V6z" class="ColorScheme-Text" style="fill:currentColor;opacity:.3"/><path id="path2003" d="M8 0C6.892 0 6 .892 6 2v6.547A4 4 0 0 0 4 12a4 4 0 1 0 6-3.463V2c0-1.108-.892-2-2-2m0 1c.554 0 1 .446 1 1v7.172A3 3 0 1 1 5 12a3 3 0 0 1 2-2.82V2c0-.554.446-1 1-1" class="ColorScheme-Text" style="fill:currentColor"/></svg>