<svg xmlns="http://www.w3.org/2000/svg" width="16" height="16" viewBox="0 0 16 16"><defs><clipPath id="a"><path d="M0 0h16v16H0z"/></clipPath></defs><g fill="gray" clip-path="url(#a)"><path d="M11.5 1C9.58 1 8 2.58 8 4.5S9.58 8 11.5 8 15 6.42 15 4.5 13.42 1 11.5 1m0 1C12.871 2 14 3.129 14 4.5S12.871 7 11.5 7A2.513 2.513 0 0 1 9 4.5C9 3.129 10.129 2 11.5 2m-7 6C2.58 8 1 9.58 1 11.5S2.58 15 4.5 15 8 13.42 8 11.5 6.42 8 4.5 8m0 1C5.871 9 7 10.129 7 11.5S5.871 14 4.5 14A2.513 2.513 0 0 1 2 11.5C2 10.129 3.129 9 4.5 9m10 3c.274 0 .5-.226.5-.5s-.226-.5-.5-.5H8.965q.03.25.035.5a5 5 0 0 1-.035.5zm-13-8c-.274 0-.5.226-.5.5s.226.5.5.5h5.535A5 5 0 0 1 7 4.5q.005-.25.035-.5z"/></g></svg>