<svg xmlns="http://www.w3.org/2000/svg" width="16" height="16" viewBox="0 0 16 16"><defs><clipPath id="a"><path d="M0 0h16v16H0z"/></clipPath></defs><g clip-path="url(#a)"><path fill="gray" d="M3.098 1.039 3 13.118c0 1.134.658 1.411 1.469.618l2.003-1.958 1.455 2.972.002.002c.187.418.595.655.98.719a2 2 0 0 0 1.126-.161c.355-.157.684-.409.882-.784s.217-.877-.005-1.33l-1.415-3.031 2.44-.014c1.134-.007 1.403-.664.602-1.465L3.824.738c-.401-.401-.726-.266-.726.301m1.753 2.178 6.675 5.91L8 9.5l1.986 4.142.003.005c.1.202.077.288.019.4a.83.83 0 0 1-.389.324c-.184.082-.404.11-.545.086s-.178-.054-.21-.126l-.003-.008-2.095-4.272-2.741 2.681.1-9.215c0-.567.326-.701.726-.3"/></g></svg>