<svg xmlns="http://www.w3.org/2000/svg" width="21.341" height="16" viewBox="0 0 16.006 16"><defs><clipPath id="a"><path d="M0 0h16.006v16H0z"/></clipPath></defs><g clip-path="url(#a)"><path fill="gray" fill-rule="evenodd" d="M1 0h5c.554 0 1 .446 1 1v5c0 .554-.446 1-1 1H1c-.554 0-1-.446-1-1V1c0-.554.446-1 1-1m8 1h5v5H9zm0 8h5v5H9zM1 9h5v5H1zm8-9c-.554 0-1 .446-1 1v5c0 .554.446 1 1 1h5c.554 0 1-.446 1-1V1c0-.554-.446-1-1-1zm0 8c-.554 0-1 .446-1 1v5c0 .554.446 1 1 1h5c.554 0 1-.446 1-1V9c0-.554-.446-1-1-1zM1 8c-.554 0-1 .446-1 1v5c0 .554.446 1 1 1h5c.554 0 1-.446 1-1V9c0-.554-.446-1-1-1zm0-7h5v5H1z"/></g></svg>