<svg xmlns="http://www.w3.org/2000/svg" width="24" height="24" viewBox="0 0 24 24"><defs><clipPath id="a"><path d="M0 0h24v24H0z"/></clipPath></defs><g clip-path="url(#a)"><path fill="gray" d="M3 5.5A2.5 2.5 0 0 1 5.5 3h3A2.5 2.5 0 0 1 11 5.5v3A2.5 2.5 0 0 1 8.5 11h-3A2.5 2.5 0 0 1 3 8.5zM5.5 4C4.67 4 4 4.67 4 5.5v3c0 .83.67 1.5 1.5 1.5h3c.83 0 1.5-.67 1.5-1.5v-3C10 4.67 9.33 4 8.5 4zm0 9A2.5 2.5 0 0 0 3 15.5v3A2.5 2.5 0 0 0 5.5 21h3a2.5 2.5 0 0 0 2.5-2.5v-3A2.5 2.5 0 0 0 8.5 13zM4 15.5c0-.83.67-1.5 1.5-1.5h3c.83 0 1.5.67 1.5 1.5v3c0 .83-.67 1.5-1.5 1.5h-3A1.5 1.5 0 0 1 4 18.5zm9-10A2.5 2.5 0 0 1 15.5 3h3A2.5 2.5 0 0 1 21 5.5v3a2.5 2.5 0 0 1-2.5 2.5h-3A2.5 2.5 0 0 1 13 8.5zM15.5 4c-.83 0-1.5.67-1.5 1.5v3c0 .83.67 1.5 1.5 1.5h3c.83 0 1.5-.67 1.5-1.5v-3c0-.83-.67-1.5-1.5-1.5zm0 9a2.5 2.5 0 0 0-2.5 2.5v3a2.5 2.5 0 0 0 2.5 2.5h3a2.5 2.5 0 0 0 2.5-2.5v-3a2.5 2.5 0 0 0-2.5-2.5zM14 15.5c0-.83.67-1.5 1.5-1.5h3c.83 0 1.5.67 1.5 1.5v3c0 .83-.67 1.5-1.5 1.5h-3a1.5 1.5 0 0 1-1.5-1.5z" opacity=".75"/></g></svg>