<svg xmlns="http://www.w3.org/2000/svg" width="32" height="32" viewBox="0 0 32 32"><defs><clipPath id="a"><path d="M0 0h32v32H0z"/></clipPath></defs><g clip-path="url(#a)"><path fill="gray" fill-rule="evenodd" d="M8 6h4a2 2 0 0 1 2 2v4a2 2 0 0 1-2 2H8a2 2 0 0 1-2-2V8a2 2 0 0 1 2-2m11.997 0h4a2 2 0 0 1 2 2v4a2 2 0 0 1-2 2h-4a2 2 0 0 1-2-2V8a2 2 0 0 1 2-2M7.994 18h4a2 2 0 0 1 2 2v4a2 2 0 0 1-2 2h-4a2 2 0 0 1-2-2v-4a2 2 0 0 1 2-2M20 18h4a2 2 0 0 1 2 2v4a2 2 0 0 1-2 2h-4a2 2 0 0 1-2-2v-4a2 2 0 0 1 2-2M7.997 6.997h4a1 1 0 0 1 .71.3c.19.18.29.44.29.7v4a.99.99 0 0 1-1 1h-4c-.26 0-.52-.1-.7-.29a1 1 0 0 1-.3-.71v-4c0-.26.11-.52.3-.7.18-.19.44-.3.7-.3m11.997 0h4a1 1 0 0 1 .71.3c.19.18.29.44.29.7v4a.99.99 0 0 1-1 1h-4c-.26 0-.52-.1-.7-.29a1 1 0 0 1-.3-.71v-4c0-.26.11-.52.3-.7.18-.19.44-.3.7-.3m-12.003 12h4a1 1 0 0 1 .71.3c.19.18.29.44.29.7v4a.99.99 0 0 1-1 1h-4c-.26 0-.52-.1-.7-.29a1 1 0 0 1-.3-.71v-4c0-.26.11-.52.3-.7.18-.19.44-.3.7-.3m12.006 0h4a1 1 0 0 1 .71.3c.19.18.29.44.29.7v4a.99.99 0 0 1-1 1h-4c-.26 0-.52-.1-.7-.29a1 1 0 0 1-.3-.71v-4c0-.26.11-.52.3-.7.18-.19.44-.3.7-.3" opacity=".5"/></g></svg>