<svg xmlns="http://www.w3.org/2000/svg" width="16" height="16" viewBox="0 0 16 16"><filter id="a" width="1" height="1" x="0" y="0"><feColorMatrix in="SourceGraphic" values="0 0 0 0 1 0 0 0 0 1 0 0 0 0 1 0 0 0 1 0"/></filter><mask id="c"><g filter="url(#a)"><path fill-opacity=".3" d="M0 0h16v16H0z"/></g></mask><clipPath id="b"><path d="M0 0h800v800H0z"/></clipPath><mask id="e"><g filter="url(#a)"><path fill-opacity=".35" d="M0 0h16v16H0z"/></g></mask><clipPath id="d"><path d="M0 0h800v800H0z"/></clipPath><mask id="h"><g filter="url(#a)"><path fill-opacity=".35" d="M0 0h16v16H0z"/></g></mask><clipPath id="g"><path d="M0 0h800v800H0z"/></clipPath><mask id="j"><g filter="url(#a)"><path fill-opacity=".35" d="M0 0h16v16H0z"/></g></mask><clipPath id="i"><path d="M0 0h800v800H0z"/></clipPath><mask id="l"><g filter="url(#a)"><path fill-opacity=".35" d="M0 0h16v16H0z"/></g></mask><clipPath id="k"><path d="M0 0h800v800H0z"/></clipPath><path fill="gray" d="M15 6.488H1v-4.5h14z" opacity=".25"/><path fill="gray" d="M3 .988c-1.644 0-3 1.356-3 3v8c0 1.645 1.356 3 3 3h10c1.645 0 3-1.355 3-3v-8c0-1.644-1.355-3-3-3zM3 2h10c1.108 0 2 .892 2 2v8c0 1.108-.892 2-2 2H3c-1.108 0-2-.892-2-2V4c0-1.108.892-2 2-2"/><path fill="gray" d="M1 5.988v1h14v-1z"/><g clip-path="url(#b)" mask="url(#c)" transform="matrix(1 0 0 -1 -380 355.99)"><path fill="#2e3436" d="M142.5 351h10.449c-1.184.492-1.297 2.457 0 3H142.5z"/></g><g clip-path="url(#d)" mask="url(#e)" transform="matrix(1 0 0 -1 -380 355.99)"><path fill="#2e3436" d="M104 502c0 .55-.45 1-1 1s-1-.45-1-1 .45-1 1-1 1 .45 1 1"/></g><g clip-path="url(#g)" mask="url(#h)" transform="matrix(1 0 0 -1 -380 355.99)"><path fill="#2e3436" fill-rule="evenodd" d="M106 501v2h8v-2z"/></g><g clip-path="url(#i)" mask="url(#j)" transform="matrix(1 0 0 -1 -380 355.99)"><path fill="#2e3436" d="M104 514c0 .55-.45 1-1 1s-1-.45-1-1 .45-1 1-1 1 .45 1 1"/></g><g clip-path="url(#k)" mask="url(#l)" transform="matrix(1 0 0 -1 -380 355.99)"><path fill="#2e3436" fill-rule="evenodd" d="M106 513v2h8v-2z"/></g></svg>