<svg xmlns="http://www.w3.org/2000/svg" viewBox="0 0 16 16"><path fill="gray" d="M355.99 62c-1.258.015-2.179-.03-2.932.385-.376.207-.675.56-.84.998s-.222.96-.222 1.617v7c0 .658.058 1.179.223 1.617.164.439.463.79.84.998.752.416 1.673.37 2.931.385h8.012c1.258-.014 2.179.03 2.932-.385a1.88 1.88 0 0 0 .837-.998c.165-.438.225-.96.225-1.617v-7c0-.658-.06-1.179-.225-1.617a1.88 1.88 0 0 0-.838-.998c-.752-.416-1.673-.37-2.931-.385h-8.01zm.006 1h8c1.26.015 2.087.058 2.453.26.183.101.29.214.387.474s.16.674.16 1.266v7c0 .592-.063 1.006-.16 1.266-.098.26-.204.373-.387.474-.366.202-1.194.245-2.453.26h-8z" color="#000" style="isolation:auto;mix-blend-mode:normal;text-decoration-color:#000;text-decoration-line:none;text-decoration-style:solid;text-indent:0;text-transform:none;white-space:normal" transform="translate(-352 -60)"/></svg>