<svg xmlns="http://www.w3.org/2000/svg" width="64" height="64" viewBox="0 0 16.933 16.933"><defs><linearGradient id="b" x1="-127" x2="-72" y1="60" y2="5" gradientTransform="translate(51.411 8.54)scale(.26458)" gradientUnits="userSpaceOnUse"><stop offset="0" stop-color="#2e55e7"/><stop offset="1" stop-color="#91a7ff"/></linearGradient><filter id="a" width="1.054" height="1.054" x="-.027" y="-.027" color-interpolation-filters="sRGB"><feGaussianBlur stdDeviation=".619"/></filter></defs><g transform="translate(-16.619 -8.675)"><rect width="55" height="55" x="4.5" y="4.5" fill="#141414" filter="url(#a)" opacity=".3" ry="15" transform="translate(16.619 8.675)scale(.26458)"/><rect width="14.552" height="14.552" x="17.81" y="9.866" fill="url(#b)" ry="3.969"/><path fill="#fff" d="M25.482 12.512a4.63 4.63 0 0 0-4.63 4.627v3.915c0 .398.32.718.719.718h3.913a4.63 4.63 0 0 0-.002-9.26m1.396 1.015c.185 0 .318.022.49.066.251.065.456.272.456.511 0 .29-.21.5-.524.5-.15 0-.204-.03-.423-.03-.646 0-1.17.526-1.17 1.17v1.014c0 .092.072.166.163.166h.771a.517.517 0 1 1 0 1.033h-.935v1.183a2.22 2.22 0 0 1-2.22 2.22c-.186 0-.318-.022-.49-.067-.252-.065-.457-.271-.457-.51 0-.29.21-.5.525-.5.149 0 .203.028.422.028.646 0 1.17-.524 1.171-1.17v-1.017a.165.165 0 0 0-.165-.166h-.77a.517.517 0 1 1 .006-1.034h.93v-1.177a2.22 2.22 0 0 1 2.22-2.22"/></g></svg>