<svg xmlns="http://www.w3.org/2000/svg" width="16" height="16" viewBox="0 0 16 16"><path fill="gray" d="M3 0C1.338 0 0 1.338 0 3v10c0 1.662 1.338 3 3 3h10c1.662 0 3-1.338 3-3V9c0-1.662-1.338-3-3-3 0-1.662-1.338-3-3-3 0-1.662-1.338-3-3-3zm0 1h4c1.108 0 2 .892 2 2H3c-.771 0-1.47.29-2 .766V3c0-1.108.892-2 2-2m0 3h6v2H3c-.771 0-1.47.29-2 .766V6c0-1.108.892-2 2-2m7 0c1.108 0 2 .892 2 2h-2zM3 7h6v6c0 1.108-.892 2-2 2H3a2 2 0 0 1-.78-.156A2 2 0 0 1 1 13V9c0-1.108.892-2 2-2m7 0h2v6c0 1.108-.892 2-2 2h-.766c.475-.53.766-1.229.766-2zm3 0c1.108 0 2 .892 2 2v4c0 1.108-.892 2-2 2h-.766c.475-.53.766-1.229.766-2z"/></svg>