<svg xmlns="http://www.w3.org/2000/svg" width="16" height="16.007"><path fill="gray" d="M4.5 1A1.5 1.5 0 0 0 3 2.5V3h-.5A2.5 2.5 0 0 0 0 5.5v5A1.5 1.5 0 0 0 1.5 12H3v1.5A1.5 1.5 0 0 0 4.5 15H10v-.145A4 4 0 0 1 8.357 14H4.5a.5.5 0 0 1-.5-.5v-4a.5.5 0 0 1 .5-.5h3.047a4 4 0 0 1 .81-1H4.5A1.5 1.5 0 0 0 3 9.5V11H1.5a.5.5 0 0 1-.5-.5v-5A1.5 1.5 0 0 1 2.5 4h11A1.5 1.5 0 0 1 15 5.5v5a.5.5 0 0 1-.018.127A4 4 0 0 1 15 11a4 4 0 0 1-.123.95A1.5 1.5 0 0 0 16 10.5v-5A2.5 2.5 0 0 0 13.5 3H13v-.5A1.5 1.5 0 0 0 11.5 1zm0 1h7a.5.5 0 0 1 .5.5V3H4v-.5a.5.5 0 0 1 .5-.5"/><path fill="gray" d="M10.957 8.008a3 3 0 0 0-2.078.877 3 3 0 0 0 0 4.244 3 3 0 0 0 3.86.324l1.796 1.797a.499.499 0 1 0 .707-.707l-1.8-1.8a3 3 0 0 0-.32-3.858 3 3 0 0 0-2.165-.877m.072 1a2 2 0 0 1 1.385.586 2 2 0 0 1 0 2.828 2 2 0 0 1-2.828 0 2 2 0 0 1 0-2.828 2 2 0 0 1 1.443-.586"/></svg>