<svg xmlns="http://www.w3.org/2000/svg" width="16pt" height="16pt" viewBox="0 0 16 16"><defs><clipPath id="a"><path d="M0 0h16v16H0z"/></clipPath></defs><g fill="gray" clip-path="url(#a)"><path d="M4 1c-1.108 0-2 .892-2 2v10c0 1.108.892 2 2 2h8c1.108 0 2-.892 2-2V7.32c-.321.135-.657.23-1 .283V13c0 .554-.446 1-1 1H4c-.554 0-1-.446-1-1V3c0-.554.446-1 1-1h4.211c.115-.352.274-.688.475-1z"/><path d="M12.5 0a3.5 3.5 0 1 0 0 7 3.5 3.5 0 0 0 0-7m0 1.086 2.5 2.5-.707.707L13 3v3h-1V3l-1.293 1.293L10 3.586z"/></g></svg>