<svg xmlns="http://www.w3.org/2000/svg" width="16" height="16"><g fill="gray"><path d="M6.643 2.014a5 5 0 0 0-3.178 1.45 5 5 0 0 0-1.313 4.727l.08-.08L4 9.88l.115-.115a4 4 0 0 1 .057-5.592 4 4 0 0 1 5.656 0 4 4 0 0 1 0 5.656 4 4 0 0 1-2.697 1.162l-.932.932a5 5 0 0 0 4.336-1.387 5 5 0 0 0 0-7.07 5 5 0 0 0-3.892-1.451"/><path d="m10.182 9.475 4.95 4.95-.707.707-4.95-4.95z"/></g><path fill="gray" d="m2.232 9.525-.707.707L3.293 12l-1.768 1.768.707.707L4 12.707l1.768 1.768.707-.707L4.707 12l1.768-1.768-.707-.707L4 11.293z" color="#000" style="-inkscape-stroke:none"/></svg>