<svg xmlns="http://www.w3.org/2000/svg" viewBox="0 0 16.025 16"><path fill="gray" d="M4 3c-1.244.015-2.154-.03-2.898.385-.373.207-.666.56-.829.998S.051 5.343.051 6L0 13h1l.012-7h14L15 13h1l.012-7c0-.638-.06-1.178-.223-1.617a1.9 1.9 0 0 0-.844-.998c-.744-.416-1.638-.37-2.882-.385zm5 1h1v1H9zm2 0h1v1h-1zm2.012 0h1v1h-1z" color="#000" style="isolation:auto;mix-blend-mode:normal;text-decoration-color:#000;text-decoration-line:none;text-decoration-style:solid;text-indent:0;text-transform:none;white-space:normal"/></svg>