<svg xmlns="http://www.w3.org/2000/svg" width="16" height="16"><g style="display:inline"><path d="M198.96 482q-.606 1.281-1.179 2.598-.572 1.315-1.162 2.77-.571 1.454-1.178 3.083c-.25.67-.525 1.448-.793 2.194l3.645-3.645h-.117c.312-.86.62-1.694.906-2.445q.52-1.317.918-2.235c.242.562.533 1.28.86 2.114l1.486-1.487c-.048-.112-.097-.239-.145-.35a89 89 0 0 0-1.178-2.597zm6.759.988-2.96 2.96-1.513 1.513-1.539 1.539-2 2-.324.324-2.676 2.676-1.01 1.01.707.707 1.717-1.717h.309l.166-.475L199.12 491h3.28c.161.485.406 1.136.58 1.598q.26.692.503 1.402h2.358a136 136 0 0 0-1.301-3.549 118 118 0 0 0-1.195-3.084c-.058-.146-.117-.278-.174-.418l3.254-3.254zm-4.088 5.502c.064.17.126.331.191.51h-.7z" style="font-style:normal;font-variant:normal;font-weight:500;font-stretch:normal;font-size:17.33333397px;line-height:1.25;font-family:Ubuntu;-inkscape-font-specification:&quot;Ubuntu, Medium&quot;;font-variant-ligatures:normal;font-variant-caps:normal;font-variant-numeric:normal;font-feature-settings:normal;text-align:start;letter-spacing:0;word-spacing:0;writing-mode:lr-tb;text-anchor:start;display:inline;fill:gray;fill-opacity:1;stroke:none;stroke-width:.99950039" transform="translate(-192 -480)"/></g></svg>