<svg xmlns="http://www.w3.org/2000/svg" width="16" height="16"><g style="display:inline"><path d="M218.96 481q-.606 1.281-1.179 2.598-.572 1.315-1.162 2.77-.571 1.454-1.178 3.083a204 204 0 0 0-1.283 3.549h2.272l.484-1.385c.173-.473.424-1.13.586-1.615h4.9c.162.485.407 1.136.58 1.598q.262.692.504 1.402h2.358a136 136 0 0 0-1.301-3.549 118 118 0 0 0-1.195-3.084 85 85 0 0 0-2.323-5.367zm1.04 2.32q.381.884.9 2.217c.297.762.608 1.6.922 2.463h-3.646c.312-.86.62-1.694.906-2.445q.52-1.317.918-2.235M214 494v1h12v-1z" style="font-style:normal;font-variant:normal;font-weight:500;font-stretch:normal;font-size:17.33333397px;line-height:1.25;font-family:Ubuntu;-inkscape-font-specification:&quot;Ubuntu, Medium&quot;;font-variant-ligatures:normal;font-variant-caps:normal;font-variant-numeric:normal;font-feature-settings:normal;text-align:start;letter-spacing:0;word-spacing:0;writing-mode:lr-tb;text-anchor:start;fill:gray;fill-opacity:1;stroke:none;stroke-width:.99950039" transform="translate(-212 -480)"/></g></svg>