<svg xmlns="http://www.w3.org/2000/svg" width="16" height="16" viewBox="0 0 16 16"><path fill="gray" d="M2.667 2.667v10.667c0 .978.8 1.778 1.778 1.778h8.444a.444.444 0 0 0 0-.888H4.445a.89.89 0 0 1-.889-.889h8.889a.89.89 0 0 0 .889-.889V2.668c0-.982-.796-1.778-1.778-1.778H4.445c-.982 0-1.778.796-1.778 1.778zm8.889-.889c.491 0 .889.398.889.889v9.778H3.556V2.667c0-.491.398-.889.889-.889zM6.898 4.8c.169-.169.489-.356 1.102-.356s.933.187 1.102.356a.85.85 0 0 1 .231.533c0 .4-.24.622-.64.818a5 5 0 0 1-.271.127l-.04.016-.018.009-.284.133a1.2 1.2 0 0 0-.311.204.65.65 0 0 0-.213.471V8a.444.444 0 0 0 .888 0v-.756l.036-.018.249-.116h.009c.165-.068.282-.122.397-.179l-.042.019c.48-.24 1.129-.684 1.129-1.618 0-.329-.124-.773-.48-1.138-.364-.382-.933-.64-1.742-.64s-1.378.258-1.742.64a1.66 1.66 0 0 0-.48 1.138.444.444 0 0 0 .888 0 .8.8 0 0 1 .231-.533zM8 10.667a.667.667 0 1 0 0-1.334.667.667 0 1 0 0 1.334"/></svg>