<svg xmlns="http://www.w3.org/2000/svg" width="16" height="16" viewBox="0 0 16 16"><path fill="gray" d="M7.333 5.6a1 1 0 0 0-.222.622.444.444 0 0 1-.888 0l-.001-.045a1.733 1.733 0 0 1 1.78-1.732H8l.045-.001c.957 0 1.733.776 1.733 1.733l-.001.047v-.002c0 .436-.107.773-.267 1.058-.151.249-.338.444-.489.604l-.036.036c-.169.178-.293.311-.382.489s-.16.4-.16.738a.444.444 0 0 1-.888 0l-.001-.059c0-.706.305-1.341.79-1.78l.002-.002.018-.018c.169-.178.284-.302.373-.453s.151-.329.151-.613a1 1 0 0 0-.222-.622.84.84 0 0 0-.669-.266h.002c-.32 0-.533.116-.667.267zM8 11.742a.622.622 0 0 0 0-1.244.622.622 0 0 0 0 1.244M.889 8v-.002a7.111 7.111 0 1 1 3.749 6.267l.038.019-3.236.827a.444.444 0 0 1-.533-.545l-.001.003.8-3.236a7 7 0 0 1-.818-3.311v-.024.001zM8 1.778a6.222 6.222 0 0 0-5.406 9.293l-.016-.031a.43.43 0 0 1 .035.332l.001-.003-.667 2.684 2.684-.667a.45.45 0 0 1 .331.045l-.002-.001a6.14 6.14 0 0 0 3.036.791A6.222 6.222 0 0 0 8 1.777z"/></svg>