<svg xmlns="http://www.w3.org/2000/svg" xmlns:xlink="http://www.w3.org/1999/xlink" width="16" height="16" viewBox="0 0 16 16"><defs><clipPath id="b"><path d="M0 0h16v16H0z"/></clipPath><filter id="a" width="100%" height="100%" x="0%" y="0%"><feColorMatrix color-interpolation-filters="sRGB" values="0 0 0 0 1 0 0 0 0 1 0 0 0 0 1 0 0 0 1 0"/></filter><mask id="c"><g filter="url(#a)"><path fill-opacity=".15" d="M-1.6-1.6h19.2v19.2H-1.6z"/></g></mask><g id="d" clip-path="url(#b)"><path fill="gray" d="M8.89 5.332a2.669 2.669 0 0 0 0 5.336l.055-.004a3.1 3.1 0 0 1 1.918-.875 2.666 2.666 0 0 0-1.972-4.457"/></g></defs><path fill="gray" d="M12.445 5.332v5.777a2.2 2.2 0 0 0-1.336-.441c-1.23 0-2.218.988-2.218 2.223 0 1.23.988 2.218 2.218 2.218a2.213 2.213 0 0 0 2.223-2.218V7.109h1.777c0-.984-.793-1.777-1.777-1.777Zm0 0"/><g mask="url(#c)"><use xlink:href="#d"/></g><path fill="gray" d="M2.668.89A2.66 2.66 0 0 0 0 3.556v8.89a2.66 2.66 0 0 0 2.668 2.664h6.273a3 3 0 0 1-.636-.886H2.668V1.777h10.664c.984 0 1.777.793 1.777 1.778v1.582c.543.488.891 1.195.891 1.972V3.555A2.66 2.66 0 0 0 13.332.89Zm-.89 1.126v11.968a1.77 1.77 0 0 1-.887-1.539v-8.89c0-.66.355-1.23.886-1.54m7.114.653A5.335 5.335 0 0 0 3.555 8a5.34 5.34 0 0 0 4.468 5.258q-.053-.453.024-.899a4.44 4.44 0 0 1-1.145-8.332 4.44 4.44 0 0 1 4.653.418h1.308a5.33 5.33 0 0 0-3.972-1.777m0 4.441a.89.89 0 1 0 0 1.782A.89.89 0 0 0 9.777 8a.89.89 0 0 0-.886-.89m6.218.89v4.445c0 .758-.468 1.403-1.136 1.657a3.1 3.1 0 0 1-.696 1.007h.055A2.66 2.66 0 0 0 16 12.445V8Zm0 0"/></svg>