<svg xmlns="http://www.w3.org/2000/svg" width="16" height="16" viewBox="0 0 16 16"><path fill="gray" d="M11.555.89v2.665H8.89v.89h2.664V7.11h.89V4.445h2.664v-.89h-2.664V.89Zm-9.332.887C1.602 1.777.89 2.398.89 3.11s.71 1.336 1.332 1.336A1.35 1.35 0 0 0 3.555 3.11c0-.71-.594-1.332-1.332-1.332m0 5.332C1.539 7.11.89 7.742.89 8.445c0 .711.648 1.332 1.332 1.332.71 0 1.332-.62 1.332-1.332 0-.703-.621-1.336-1.332-1.336m3.109 1.782v.886H8.89v-.886Zm-3.11 3.554c-.683 0-1.331.621-1.331 1.332s.648 1.332 1.332 1.332c.71 0 1.332-.62 1.332-1.332 0-.71-.621-1.332-1.332-1.332m3.109 0v.887h9.777v-.887Zm0 1.778v.886H8.89v-.886Zm0 0"/></svg>