<svg xmlns="http://www.w3.org/2000/svg" width="16" height="15.999" viewBox="0 0 16 15.999"><path fill="gray" d="M6.5 4.996c-.277 0-.5.227-.5.5V10.5a.498.498 0 0 0 .996 0V5.492a.497.497 0 0 0-.496-.496m2.996 0a.5.5 0 0 0-.496.5V10.5c0 .277.219.5.496.5s.5-.227.5-.5V5.496c0-.273-.223-.5-.5-.5"/><path fill="gray" d="M8 0a8 8 0 0 0 0 16h.004A8 8 0 0 0 16 8c0-4.418-3.582-8-8-7.996Zm0 .996h.004a7 7 0 0 1 6.996 7v.008A6.997 6.997 0 0 1 8.004 15h-.008c-3.867 0-7-3.133-7-6.996v-.008c0-3.867 3.133-7 7-7Zm0 0"/></svg>