<svg xmlns="http://www.w3.org/2000/svg" viewBox="2 2 18 18"><path fill="currentColor" d="M9.826 5.66c-.38 0-.542.124-.652.186l-.022.013-6.935 4.096c-.075.044-.209.108-.37.305-.162.2-.257.529-.257.736 0 .208.088.52.242.72.153.199.296.277.385.329l6.935 4.096.022.013c.162.09.388.18.652.18.257 0 .588-.096.832-.342.245-.245.342-.587.342-.847v-3.252c.086.073.162.12.217.152l6.935 4.096.022.013c.162.09.388.18.652.18.257 0 .588-.097.832-.342.245-.245.342-.587.342-.847V6.857c0-.26-.09-.586-.32-.832a1.2 1.2 0 0 0-.854-.365c-.38 0-.542.124-.652.186l-.022.013-6.935 4.096c-.05.029-.126.07-.217.149V6.857c0-.26-.09-.586-.32-.832a1.2 1.2 0 0 0-.854-.365m0 1c.098 0 .174.069.174.197v8.288c0 .128-.076.189-.174.189a.35.35 0 0 1-.166-.055l-6.935-4.095c-.091-.053-.135-.097-.135-.188s.044-.129.135-.182L9.66 6.72a.4.4 0 0 1 .166-.059m9 0c.098 0 .174.069.174.197v8.288c0 .128-.076.189-.174.189a.35.35 0 0 1-.166-.055l-6.935-4.095c-.091-.053-.135-.097-.135-.188s.044-.129.135-.182L18.66 6.72a.4.4 0 0 1 .166-.059" style="color:gray"/></svg>