<svg xmlns="http://www.w3.org/2000/svg" width="16" height="15.999" viewBox="0 0 16 15.999"><path fill="gray" d="M8 0a8 8 0 0 0 0 16h.004A8 8 0 0 0 16 8c0-4.418-3.582-8-8-7.996Zm0 .996h.004a7 7 0 0 1 6.996 7v.008A6.997 6.997 0 0 1 8.004 15h-.008c-3.867 0-7-3.133-7-6.996v-.008c0-3.867 3.133-7 7-7Zm0 0"/><path fill="gray" d="M8 9.996h-.012a.7.7 0 0 1-.246-.043h.004a.8.8 0 0 1-.406-.3v-.005l-3.2-4.39a.75.75 0 0 1-.132-.559v.004a.8.8 0 0 1 .262-.5h.003A.77.77 0 0 1 4.79 4h6.414a.8.8 0 0 1 .527.203c.305.266.36.723.125 1.055v-.004l-3.2 4.394a.78.78 0 0 1-.398.305H8.25a.6.6 0 0 1-.242.047h-.012Zm-3.5 2h6.996l.024.004a.501.501 0 0 0 0-1H4.477a.501.501 0 0 0 0 1Zm0 0"/></svg>