<svg xmlns="http://www.w3.org/2000/svg" viewBox="2 2 18 18"><defs><style id="current-color-scheme" type="text/css">.ColorScheme-Text{color:gray}</style></defs><path fill="currentColor" d="M15.826 5.663c-.38 0-.542.124-.652.186l-.022.013-6.935 4.096c-.076.044-.21.108-.37.305a1.33 1.33 0 0 0-.257.736c0 .208.087.52.242.72.153.199.296.277.385.329l6.935 4.096.022.013c.162.09.387.18.652.18.256 0 .588-.097.832-.342s.342-.587.342-.848V6.86c0-.26-.09-.586-.32-.832a1.2 1.2 0 0 0-.854-.365m0 1c.098 0 .174.069.174.197v8.287c0 .129-.076.19-.174.19a.35.35 0 0 1-.166-.055l-6.936-4.095c-.09-.053-.134-.097-.134-.188s.044-.129.134-.182l6.936-4.095a.4.4 0 0 1 .166-.059" class="ColorScheme-Text"/><rect width="1" height="10" x="5" y="6" fill="currentColor" class="ColorScheme-Text" rx=".5" ry=".5"/></svg>