<svg xmlns="http://www.w3.org/2000/svg" width="16" height="16" viewBox="0 0 16 16"><path fill="gray" d="M2.223.89A1.33 1.33 0 0 0 .89 2.224a1.331 1.331 0 1 0 2.664 0A1.33 1.33 0 0 0 2.222.892m2.222.886v.891h.887v-.89Zm1.778 0v.891h8.886v-.89Zm0 1.778v.89H8.89v-.89Zm-4 2.668A1.33 1.33 0 0 0 .89 7.555a1.332 1.332 0 1 0 2.664 0c0-.735-.598-1.332-1.332-1.332m2.222.886V8h.887v-.89Zm1.778 0V8h8.886v-.89Zm5.332 1.782v2.664H8.89v.89h2.664v2.664h.89v-2.664h2.664v-.89h-2.664V8.89Zm-9.332 2.664c-.739 0-1.332.597-1.332 1.336a1.331 1.331 0 1 0 2.664 0c0-.739-.598-1.336-1.332-1.336m2.222.89v.887h.887v-.887Zm0 0"/></svg>