<svg xmlns="http://www.w3.org/2000/svg" viewBox="2 2 18 18"><defs><style id="current-color-scheme" type="text/css">.ColorScheme-Text{color:gray}</style></defs><path fill="currentColor" d="M6.174 5.663c.38 0 .542.124.652.186l.022.013 6.935 4.096c.075.044.209.108.37.305.162.199.257.529.257.736 0 .208-.087.52-.242.72-.153.199-.296.277-.385.329l-6.935 4.096-.022.013a1.35 1.35 0 0 1-.652.18c-.256 0-.588-.097-.832-.342A1.24 1.24 0 0 1 5 15.147V6.86c0-.26.09-.586.32-.832.23-.245.571-.365.854-.365m0 1c-.098 0-.174.069-.174.197v8.287c0 .129.076.19.174.19a.35.35 0 0 0 .166-.055l6.935-4.095c.091-.053.135-.097.135-.188s-.044-.129-.135-.182L6.34 6.722a.4.4 0 0 0-.166-.059" class="ColorScheme-Text"/><rect width="1" height="10" x="-17" y="6" fill="currentColor" class="ColorScheme-Text" rx=".5" ry=".5" transform="scale(-1 1)"/></svg>