<svg xmlns="http://www.w3.org/2000/svg" viewBox="0 0 16 16"><g fill="gray"><path d="M8 0a8 8 0 0 0-8 8 8 8 0 0 0 8 8 8 8 0 0 0 8-8 8 8 0 0 0-8-8m0 1a7 7 0 0 1 7 7 7 7 0 0 1-7 7 7 7 0 0 1-7-7 7 7 0 0 1 7-7"/><path d="M8.23 3q-.666 0-1.26.152a5 5 0 0 0-.973.372l.3.832c.574-.291 1.162-.45 1.764-.45.506 0 .907.133 1.184.409.273.263.41.614.41 1.03q0 .39-.18.723-.162.323-.424.613-.255.285-.54.57h-.002q-.277.264-.527.583v.001q-.247.301-.41.656-.147.346-.148.779c0 .173.02.336.047.495h.906c0-.02-.005-.037-.005-.057v-.155q0-.486.193-.876.189-.391.465-.712l.001-.002q.273-.33.602-.63.32-.291.583-.611.26-.316.439-.672.173-.359.174-.819 0-.365-.123-.762v-.004a1.7 1.7 0 0 0-.402-.722 2.2 2.2 0 0 0-.797-.525l-.004-.002Q9.02 3 8.229 3zm-.226 8.303c-.27 0-.468.082-.619.25a.85.85 0 0 0-.229.598c0 .232.075.426.23.598.15.168.347.25.618.25.27 0 .469-.082.62-.25a.86.86 0 0 0 .228-.598.85.85 0 0 0-.229-.598c-.15-.168-.348-.25-.619-.25"/></g></svg>