<svg xmlns="http://www.w3.org/2000/svg" viewBox="0 0 16 16"><g fill="gray" stroke-width=".97"><path d="m5.93.273.23-.058zM7.136.046l.197-.018zm.75-.045h.16zm1.862.195.18.04zm.18.04.231.062zM6.447 2.204l.186-.045zm5.738-1.021.136.085zm1.126.836.135.122zm-2.268.81.154.094zm.154.094.166.107zm3.086.128.117.15zm-2.115.633.14.139zm.552.613.124.16zm.128.168.114.163zm.114.163.113.172zm2.022-.53.056.103zm-1.596 1.265.078.163zm.078.163.08.189zm.08.189.077.192zm.077.192.068.194zm1.818-.843.084.222zM.273 10.07a8 8 0 0 0 9.798 5.657 8 8 0 0 0 5.657-9.798l-1.932.518a6 6 0 0 1-4.243 7.348 6 6 0 0 1-7.348-4.242z"/><path d="M5.93.273A8 8 0 0 0 .272 10.07l1.931-.518a6 6 0 0 1 4.243-7.349z" opacity=".5"/></g><circle cx="8" cy="8" r="3" fill="gray"/></svg>