<svg xmlns="http://www.w3.org/2000/svg" width="64" height="64" style="isolation:isolate" viewBox="0 0 64 64"><path fill="#4caf50" d="M16.06 4.22h31.88c4.371.002 7.968 3.598 7.97 7.969v39.842c-.002 4.371-3.599 7.967-7.97 7.969H16.06c-4.371-.002-7.968-3.598-7.97-7.969V12.189c.002-4.371 3.599-7.967 7.97-7.969"/><path fill="#0c2809" fill-opacity=".5" d="m40.205 40.782 3.023-3.023a1.15 1.15 0 0 0 0-1.649 1.153 1.153 0 0 0-1.653 0l-3.437 3.441a13.55 13.55 0 0 0-6.136-1.469c-2.147 0-4.264.503-6.182 1.469l-3.464-3.441a1.15 1.15 0 0 0-1.652 0 1.147 1.147 0 0 0 0 1.649l3.049 3.045a13.94 13.94 0 0 0-5.696 11.227h27.889a13.86 13.86 0 0 0-5.741-11.249M27.021 47.05h-1.995v-1.995h1.995zm11.953 0h-1.995v-1.995h1.995z"/><linearGradient id="a" x1=".5" x2=".5" y1="-.004" y2="1" gradientTransform="matrix(47.82 0 0 55.78 8.09 4.22)" gradientUnits="userSpaceOnUse"><stop offset="0" stop-opacity=".1" style="stop-color:#fff"/><stop offset="1" stop-opacity=".1" style="stop-color:#000"/></linearGradient><path fill="url(#a)" d="M16.06 4.22h31.88c4.371.002 7.968 3.598 7.97 7.969v39.842c-.002 4.371-3.599 7.967-7.97 7.969H16.06c-4.371-.002-7.968-3.598-7.97-7.969V12.189c.002-4.371 3.599-7.967 7.97-7.969"/><path fill="#fff" fill-opacity=".9" d="M32 5v1.002h-2.003V5zm1.999 22.001v6.5a.503.503 0 0 1-.498.499H30.5a.5.5 0 0 1-.356-.143.5.5 0 0 1-.143-.356v-6.5zm-1.001 3.998h-1.999v2.004h2.006zM32 6.002h2.003v1.999H32zm0 1.999v2.003h-2.003V8.001zm0 2.003h2.003V12H32zM32 12v2.003h-2.003V12zm0 2.003h2.003v1.999H32zm0 1.999v2h-2.003v-2.003zm0 2h2.003v1.999H32zm0 1.999v2.003h-2.003v-2.003zm0 2.003h2.003V24H32zM32 24v2.003h-2.003V24z"/></svg>