<svg xmlns="http://www.w3.org/2000/svg" width="64" height="64" style="isolation:isolate" viewBox="0 0 64 64"><defs><linearGradient id="a" x1=".5" x2=".5" y1="0" y2="1"><stop offset="0" style="stop-color:#e6c35c"/><stop offset="1" style="stop-color:#ffa94d"/></linearGradient></defs><path d="M10 8h44c3.311 0 6 2.689 6 6v36c0 3.311-2.689 6-6 6H10c-3.311 0-6-2.689-6-6V14c0-3.311 2.689-6 6-6" style="stroke:none;fill:url(#a);stroke-miterlimit:10"/><path fill="#fff" d="M43.596 38.619 54 50H30l9.996-11.381c.808-.92 2.746-.934 3.6 0" opacity=".6" style="opacity:.6"/><path fill="#fff" d="M27.596 34.622 42 50H10l13.996-15.378c.824-.905 2.735-.924 3.6 0"/><circle cx="45" cy="21" r="5" fill="#fff" vector-effect="non-scaling-stroke"/></svg>