<svg xmlns="http://www.w3.org/2000/svg" width="64" height="64"  viewBox="0 0 64 64">
    <path d="M16 4h32c4.415 0 8 3.585 8 8v40c0 4.415-3.585 8-8 8H16c-4.415 0-8-3.585-8-8V12c0-4.415 3.585-8 8-8" style="stroke:none;fill:#e9ecf2;stroke-miterlimit:10"/>
    <path fill="gray" d="M37.3 31.3a1 1 0 0 1 1.4 1.4l-6 6a1 1 0 0 1-1.4 0l-6-6a1.001 1.001 0 1 1 1.4-1.4l4.3 4.29V26a1 1 0 0 1 2 0v9.59l4.3-4.3zM23.5 19a4.5 4.5 0 0 0-4.5 4.5v17a4.5 4.5 0 0 0 4.5 4.5h17a4.5 4.5 0 0 0 4.5-4.5v-17a4.5 4.5 0 0 0-4.5-4.5zM21 23.5a2.5 2.5 0 0 1 2.5-2.5h17a2.5 2.5 0 0 1 2.5 2.5v17a2.5 2.5 0 0 1-2.5 2.5h-17a2.5 2.5 0 0 1-2.5-2.5z"/>
</svg>
