<svg xmlns="http://www.w3.org/2000/svg" width="64" height="64"  viewBox="0 0 64 64"><path d="M16 4h32c4.415 0 8 3.585 8 8v40c0 4.415-3.585 8-8 8H16c-4.415 0-8-3.585-8-8V12c0-4.415 3.585-8 8-8" style="stroke:none;fill:#e9ecf2;stroke-miterlimit:10"/><path fill="#4caf50" d="M44 24a1 1 0 0 0-1-1H30.333a1 1 0 0 0 0 2H43c.547 0 1-.453 1-1m0 5.333a1 1 0 0 0-1-1H30.333a1 1 0 0 0 0 2H43c.547 0 1-.453 1-1m0 5.334a1 1 0 0 0-1-1H30.333a1 1 0 1 0 0 2H43c.547 0 1-.454 1-1M44 40a1 1 0 0 0-1-1H30.333a1 1 0 0 0 0 2H43c.547 0 1-.453 1-1"/><path fill="#ef5350" d="M26.667 24a1 1 0 0 0-1-1H21a1 1 0 0 0 0 2h4.667c.546 0 1-.453 1-1m0 5.333a1 1 0 0 0-1-1H21a1 1 0 0 0 0 2h4.667c.546 0 1-.453 1-1m0 5.334a1 1 0 0 0-1-1H21a1 1 0 1 0 0 2h4.667c.546 0 1-.454 1-1m0 5.333a1 1 0 0 0-1-1H21a1 1 0 0 0 0 2h4.667c.546 0 1-.453 1-1"/></svg>