<svg xmlns="http://www.w3.org/2000/svg" viewBox="0 0 16.933 16.933"><rect width="48" height="56" x="8" y="4" fill="#e9ecf2" ry="8" style="paint-order:stroke fill markers" transform="scale(.26458)"/><path fill="#5884f4" d="M4.762 4.366v.264h4.763v-.264zm0 .793v.265h7.409v-.265zm0 .794v.265h3.705v-.265z"/><path fill="#b3b3b3" d="M4.762 11.51v.264h7.409v-.265zm0 .793v.265h3.705v-.265z"/><path fill="#c43ac4" d="M7.408 6.747v.264h4.366v-.264zm0 .793v.265h4.763V7.54zm0 .794V8.6h3.704v-.265z"/><path fill="#8c59d9" d="M4.762 6.747v.264H6.88v-.264zm0 .793v.265H6.88V7.54zm0 .794V8.6H6.88v-.265z"/><path fill="#76c22b" d="M7.408 9.128v.265h4.763v-.265zm0 .794v.264h3.704v-.264z"/><path fill="#f22c42" d="M4.762 9.128v.265H6.88v-.265zm0 .794v.264H6.88v-.264zm0 .793v.265H6.88v-.265z"/><path fill="#b3b3b3" d="M7.408 10.715v.265h4.763v-.265z"/></svg>