<svg xmlns="http://www.w3.org/2000/svg" width="64" height="64" style="isolation:isolate" viewBox="0 0 64 64"><path d="M12 8h40c4.415 0 8 3.585 8 8v32c0 4.415-3.585 8-8 8H12c-4.415 0-8-3.585-8-8V16c0-4.415 3.585-8 8-8" style="stroke:none;fill:#333;stroke-miterlimit:10"/><path fill="#fff" fill-rule="evenodd" d="M57 45.076h-3v-3.998h3zm0-7.154h-3v-3.844h3zm-1.5 13c-.828 0-1.5-.673-1.5-1.5v-1.344h3v1.344c0 .827-.672 1.5-1.5 1.5M57 31.077h-3v-3.999h3zm0-7.151h-3v-3.844h3zm0-6.848h-3v-2.499a1.5 1.5 0 0 1 3 0zM7 45.077l3-.001v-3.999l-3 .001zm0-7.155 3-.001v-3.844l-3 .001zm1.5 12.999c.828 0 1.5-.673 1.5-1.5v-1.345l-3 .001v1.344c0 .827.672 1.5 1.5 1.5M7 31.076l3-.001v-3.999l-3 .001zm0-7.151 3-.001V20.08l-3 .001zm0-6.847h3v-2.5a1.5 1.5 0 1 0-3 .001z" opacity=".3"/><path fill="#fff" d="M23.964 21a.973.973 0 0 0-.964.978v21.043a.98.98 0 0 0 .471.842.95.95 0 0 0 .954.017l18.074-11.023a.98.98 0 0 0 .499-.858.98.98 0 0 0-.499-.857L26.232 22.12l-1.807-.997A.94.94 0 0 0 23.96 21z" opacity=".9"/></svg>