<svg xmlns="http://www.w3.org/2000/svg" width="64" height="64" style="isolation:isolate" viewBox="0 0 64 64"><path d="M16 4h32c4.415 0 8 3.585 8 8v40c0 4.415-3.585 8-8 8H16c-4.415 0-8-3.585-8-8V12c0-4.415 3.585-8 8-8" style="stroke:none;fill:#e9ecf2;stroke-miterlimit:10"/><path d="M25.342 10h13.316c.741 0 1.342.601 1.342 1.342v.316c0 .741-.601 1.342-1.342 1.342H25.342A1.34 1.34 0 0 1 24 11.658v-.316c0-.741.601-1.342 1.342-1.342" style="stroke:none;fill:#4d4d4d;stroke-miterlimit:10"/><path fill="#808080" d="M16 24a2 2 0 1 0-.001 3.999A2 2 0 0 0 16 24m8 0a2 2 0 1 0-.001 3.999A2 2 0 0 0 24 24m8 0a2 2 0 1 0-.001 3.999A2 2 0 0 0 32 24m8 0a2 2 0 1 0-.001 3.999A2 2 0 0 0 40 24m8 0a2 2 0 1 0-.001 3.999A2 2 0 0 0 48 24m-32 8a2 2 0 1 0-.001 3.999A2 2 0 0 0 16 32m8 0a2 2 0 1 0-.001 3.999A2 2 0 0 0 24 32m8 0a2 2 0 1 0-.001 3.999A2 2 0 0 0 32 32m8 0a2 2 0 1 0-.001 3.999A2 2 0 0 0 40 32m8 0a2 2 0 1 0-.001 3.999A2 2 0 0 0 48 32m-32 8a2 2 0 1 0-.001 3.999A2 2 0 0 0 16 40m8 0a2 2 0 1 0-.001 3.999A2 2 0 0 0 24 40m8 0a2 2 0 1 0-.001 3.999A2 2 0 0 0 32 40m8 0a2 2 0 1 0-.001 3.999A2 2 0 0 0 40 40m8 0a2 2 0 1 0-.001 3.999A2 2 0 0 0 48 40m-32 8a2 2 0 1 0-.001 3.999A2 2 0 0 0 16 48m8 0a2 2 0 1 0-.001 3.999A2 2 0 0 0 24 48m8 0a2 2 0 1 0-.001 3.999A2 2 0 0 0 32 48"/><circle cx="16" cy="26" r="2.5" fill="#e53935" vector-effect="non-scaling-stroke"/></svg>