<svg xmlns="http://www.w3.org/2000/svg" width="64" height="64" style="isolation:isolate" viewBox="0 0 64 64"><defs><linearGradient id="a" x1=".5" x2=".5" y1="0" y2="1"><stop offset="0" stop-opacity=".1" style="stop-color:#fff"/><stop offset="1" stop-opacity=".1" style="stop-color:#000"/></linearGradient></defs><path d="M16 4h32c4.415 0 8 3.585 8 8v40c0 4.415-3.585 8-8 8H16c-4.415 0-8-3.585-8-8V12c0-4.415 3.585-8 8-8" style="stroke:none;fill:#673ab7;stroke-miterlimit:10"/><path d="M16 4h32c4.415 0 8 3.585 8 8v40c0 4.415-3.585 8-8 8H16c-4.415 0-8-3.585-8-8V12c0-4.415 3.585-8 8-8" style="stroke:none;fill:url(#a);stroke-miterlimit:10"/><path fill="#fff" fill-rule="evenodd" d="M47 21 17 43h6v-2h2v2h2v-2h2v2h2v-2h2v2h2v-2h2v2h2v-2h2v2h2v-2h2v2h2m-2-18.449v12.45H29"/></svg>