<svg xmlns="http://www.w3.org/2000/svg" width="64" height="64" style="isolation:isolate" viewBox="0 0 64 64"><defs><linearGradient id="a" x1=".5" x2=".5" y1="0" y2="1"><stop offset="0" stop-opacity=".1" style="stop-color:#fff"/><stop offset="1" stop-opacity=".1" style="stop-color:#000"/></linearGradient></defs><path d="M16 4h32c4.415 0 8 3.585 8 8v40c0 4.415-3.585 8-8 8H16c-4.415 0-8-3.585-8-8V12c0-4.415 3.585-8 8-8" style="stroke:none;fill:#1e88e5;stroke-miterlimit:10"/><path d="M16 4h32c4.415 0 8 3.585 8 8v40c0 4.415-3.585 8-8 8H16c-4.415 0-8-3.585-8-8V12c0-4.415 3.585-8 8-8" style="stroke:none;fill:url(#a);stroke-miterlimit:10"/><path fill="#fff" d="M17.998 20.999h28.004v2.004H17.998zm0 3.999h28.004v2.003H17.998zm0 4.003h28.004V31H17.998zm0 3.999h28.004v2.003H17.998zm0 4.002h28.004v2H17.998zm0 3.999h15.005v2.003H17.998z"/></svg>