<svg xmlns="http://www.w3.org/2000/svg" width="64" height="64"  viewBox="0 0 64 64"><defs><linearGradient id="a" x1=".5" x2=".5" y1="0" y2="1"><stop offset="0" stop-opacity=".1" style="stop-color:#fff"/><stop offset="1" stop-opacity=".1" style="stop-color:#000"/></linearGradient></defs><path d="M16 4h32c4.415 0 8 3.585 8 8v40c0 4.415-3.585 8-8 8H16c-4.415 0-8-3.585-8-8V12c0-4.415 3.585-8 8-8" style="stroke:none;fill:#ff9230;stroke-miterlimit:10"/><path d="M16 4h32c4.415 0 8 3.585 8 8v40c0 4.415-3.585 8-8 8H16c-4.415 0-8-3.585-8-8V12c0-4.415 3.585-8 8-8" style="stroke:none;fill:url(#a);stroke-miterlimit:10"/><path fill="#fff" d="M24.169 23.335a5.335 5.335 0 1 0 5.329 5.33h-5.329zm8.001 1.331v2.003h12.998v-2.003zm.14 6.002-.144 1.999h13.002v-2.003zm-12.14 7.994v2.003h19.998v-2.003z"/></svg>