<svg xmlns="http://www.w3.org/2000/svg" width="16" height="16" viewBox="0 0 16 16"><g fill="gray"><path fill-rule="evenodd" d="M0 13v1c0 1.108.892 2 2 2h12c1.108 0 2-.892 2-2v-1h-1v1c0 .554-.446 1-1 1H2c-.554 0-1-.446-1-1v-1z"/><path d="M8 1a.513.513 0 0 0-.527.5v8.793L3.9 6.904a.547.547 0 0 0-.746 0 .483.483 0 0 0 0 .707l4.473 4.243a.5.5 0 0 0 .079.06l.042.024q.027.014.054.025a.55.55 0 0 0 .306.027l.011-.004.078-.023q.029-.011.054-.025.022-.011.043-.024a1 1 0 0 0 .078-.06l4.474-4.243a.48.48 0 0 0 .136-.483.52.52 0 0 0-.373-.353.55.55 0 0 0-.509.129l-3.573 3.389V1.5c0-.277-.235-.5-.527-.5"/></g></svg>