<svg xmlns="http://www.w3.org/2000/svg" width="16" height="16" viewBox="0 0 16 16"><path fill="gray" d="M1 9v4c0 1.108.892 2 2 2h10c1.108 0 2-.892 2-2V9h-1v4c0 .554-.446 1-1 1H3c-.554 0-1-.446-1-1V9z"/><path fill="gray" d="M8 1c-.277 0-.5.223-.5.5v8.793L4.111 6.904a.5.5 0 0 0-.353-.148.5.5 0 0 0-.354.148.5.5 0 0 0 0 .707l4.242 4.243a.5.5 0 0 0 .075.06l.04.024q.026.014.051.025a.5.5 0 0 0 .29.027l.011-.004.074-.023q.027-.011.051-.025.021-.011.041-.024a.5.5 0 0 0 .074-.06l4.243-4.243a.499.499 0 1 0-.707-.707L8.5 10.293V1.5c0-.277-.223-.5-.5-.5"/></svg>