<svg xmlns="http://www.w3.org/2000/svg" width="16" height="16"><path fill="gray" d="M1 10v1h1v-1zm13 0v1h1v-1zM1 12v1q.002.354.08.686l.928-.536Q2 13.075 2 13v-1zm13 0v.805l.998.267L15 13v-1zm-.164 1.795a2 2 0 0 1-.422.619l.707.707c.298-.299.534-.66.686-1.064zm-11.498.32-.865.5c.234.367.546.678.912.912l.502-.867a2 2 0 0 1-.55-.545m10.18.817A2 2 0 0 1 12 15v1c.465 0 .902-.106 1.293-.293zm-8.668.062-.535.926q.331.078.685.08h1v-1H4q-.075 0-.15-.006M6 15v1h1v-1zm2 0v1h1v-1zm2 0v1h1v-1z"/><path fill="gray" d="M4 0C2.338 0 1 1.338 1 3v6h1V3c0-1.108.892-2 2-2h6v2c0 1.108.892 2 2 2h2v4h1V4l-4-4z" style="color:gray"/></svg>