<svg xmlns="http://www.w3.org/2000/svg" width="16" height="16" viewBox="0 0 16 16"><path fill="gray" d="M12.571 5.143a1.714 1.714 0 1 1-3.428 0 1.714 1.714 0 0 1 3.428 0m-1.142 0a.571.571 0 1 0-1.143 0 .571.571 0 0 0 1.143 0M0 3.429A3.43 3.43 0 0 1 3.429 0h9.142A3.43 3.43 0 0 1 16 3.429v9.142A3.43 3.43 0 0 1 12.571 16H3.43A3.43 3.43 0 0 1 0 12.571Zm3.429-2.286a2.286 2.286 0 0 0-2.286 2.286v9.142c0 .427.116.826.32 1.166l5.336-5.243a1.714 1.714 0 0 1 2.402 0l5.337 5.243a2.3 2.3 0 0 0 .32-1.166V3.43a2.286 2.286 0 0 0-2.287-2.286Zm0 13.714h9.142c.423 0 .818-.114 1.157-.313L8.4 9.31a.57.57 0 0 0-.8 0l-5.328 5.234a2.3 2.3 0 0 0 1.157.313" style="stroke-width:1.14286"/></svg>