<svg xmlns="http://www.w3.org/2000/svg" width="16" height="16" viewBox="0 0 16 16"><defs><clipPath id="a"><path d="M0 0h16v16H0z"/></clipPath></defs><g clip-path="url(#a)"><path fill="gray" fill-rule="evenodd" d="M2 1C.892 1 0 1.892 0 3q.493 9.932.5 10c.103 1.01 1.462 2 2.5 2h10.5c1.108 0 2-.892 2-2l.5-9c0-1.108-.892-2-2-2H8l-1.106-.553C6.401 1.2 5.552 1 5 1zm0 1h2.5c.552 0 1.425.143 1.948.319L7 2.504l-.898 1.193c-.332.441-1.05.799-1.602.799H1V3c0-.554.446-1 1-1m6 1h6c.554 0 1 .446 1 1l-.5 9c0 .554-.446 1-1 1H3c-.554 0-1.5-.446-1.5-1L1 5.496h4c.552 0 1.28-.35 1.625-.78z"/></g></svg>