<svg xmlns="http://www.w3.org/2000/svg" viewBox="0 0 16 16"><g fill="gray"><path d="M4 0c-.658 0-1.18.06-1.617.225a1.88 1.88 0 0 0-.998.838c-.416.752-.37 1.673-.385 2.931v.94a2.9 2.9 0 0 1 1-.637V4c.015-1.26.058-2.087.26-2.453.1-.184.214-.29.474-.387S3.408 1 4 1l8 .006c.592 0 1.006.063 1.266.16.26.098.373.204.474.387.202.366.245 1.193.26 2.453V4.3c.378.139.714.36 1 .636V4c-.015-1.258.03-2.179-.385-2.932a1.88 1.88 0 0 0-.998-.838C13.18.066 12.657.006 12 .006zm-.015 10c-.66 0-1.183.06-1.623.225a1.9 1.9 0 0 0-1.001.838C1.068 11.589 1.018 12.25 1 13c.018.75.068 1.411.36 1.938a1.9 1.9 0 0 0 1.002.837c.44.165.963.225 1.623.225l8.03.006c.659 0 1.183-.06 1.623-.225a1.9 1.9 0 0 0 1.001-.838c.292-.528.343-1.191.361-1.943-.018-.746-.07-1.406-.36-1.932a1.9 1.9 0 0 0-1.002-.837c-.44-.165-.964-.225-1.624-.225zm0 1 8.03.006c.594 0 1.009.063 1.27.16.26.098.375.204.476.387.138.248.19.784.222 1.447-.032.67-.084 1.21-.222 1.46-.101.182-.215.288-.476.386-.261.097-.676.16-1.27.16L3.985 15c-.594 0-1.009-.063-1.27-.16-.26-.097-.376-.203-.476-.387-.138-.249-.19-.787-.222-1.453.032-.666.084-1.204.222-1.453.1-.184.215-.29.476-.387s.676-.16 1.27-.16M4 5c-.658 0-1.18.06-1.617.225a1.88 1.88 0 0 0-.998.838c-.416.752-.37 1.673-.385 2.931v.94a2.9 2.9 0 0 1 1-.637V9c.015-1.26.058-2.087.26-2.453.1-.184.214-.29.474-.387S3.408 6 4 6l8 .006c.592 0 1.006.063 1.266.16.26.098.373.204.474.387.202.366.245 1.193.26 2.453V9.3c.378.139.714.36 1 .636V9c-.015-1.258.03-2.179-.385-2.932a1.88 1.88 0 0 0-.998-.838c-.438-.164-.96-.224-1.617-.224z" style="isolation:auto;mix-blend-mode:normal;text-decoration-color:#000;text-decoration-line:none;text-decoration-style:solid;text-indent:0;text-transform:none;white-space:normal"/><path d="M11 3h2v1h-2zm0 5h2v1h-2zm0 5h2v1h-2z"/></g></svg>