<svg xmlns="http://www.w3.org/2000/svg" width="16" height="16" viewBox="0 0 16 16"><path fill="gray" d="M7.638 1.622a2.002 2.002 0 0 1 3.2-.52l4.06 4.05a2 2 0 0 1-.52 3.2l-3.46 1.74a1.5 1.5 0 0 0-.72.78l-1.43 3.61a1 1 0 0 1-1.64.33l-2.61-2.63-3.3 3.3h-.7v-.7l3.3-3.3-2.62-2.61a1.002 1.002 0 0 1 .34-1.64l3.58-1.43c.34-.14.62-.4.78-.72l1.73-3.46zm2.5.18a1 1 0 0 0-1.6.26l-1.73 3.46a2.5 2.5 0 0 1-1.31 1.2l-3.59 1.45 5.93 5.93 1.43-3.59a2.5 2.5 0 0 1 1.2-1.3l3.46-1.74a1 1 0 0 0 .26-1.6l-4.05-4.06z"/></svg>