<svg xmlns="http://www.w3.org/2000/svg" width="16" height="16" viewBox="0 0 16 16"><defs><clipPath id="a"><path d="M0 0h16v16H0z"/></clipPath></defs><g clip-path="url(#a)"><path fill="gray" fill-rule="evenodd" d="M15.152 5.887a1.5 1.5 0 0 1 0 2.62l-5.23 2.88a5.6 5.6 0 0 0-.16-1.05l4.9-2.7a.5.5 0 0 0 0-.88l-9.99-5.5a.5.5 0 0 0-.74.44v4.52c-.34.03-.68.1-1 .19v-4.71a1.498 1.498 0 0 1 2.22-1.32l10 5.5zm-13.16 2.75a2 2 0 0 1-1.43 2.48l-.46.12q-.05.506.01 1.01l.35.09a2 2 0 0 1 1.47 2.52l-.13.42c.26.2.54.38.84.52l.32-.35a1.997 1.997 0 0 1 2.91 0l.34.36c.3-.13.57-.3.82-.5l-.16-.55a2 2 0 0 1 1.44-2.48l.46-.12a4.7 4.7 0 0 0-.01-1.01l-.35-.09a2 2 0 0 1-1.287-.939 2 2 0 0 1-.193-1.581l.13-.42c-.26-.2-.54-.38-.84-.52l-.32.35a2 2 0 0 1-2.91 0l-.34-.36c-.3.13-.57.3-.82.5l.15.55zm.425 3.06a2 2 0 1 1 4.001.001 2 2 0 0 1-4.001-.001"/></g></svg>