<svg xmlns="http://www.w3.org/2000/svg" xmlns:xlink="http://www.w3.org/1999/xlink" viewBox="0 0 64 64"><defs><linearGradient id="b" x1="257.03" x2="258.45" y1="1035.4" y2="1004.8" gradientTransform="matrix(.22355 0 0 .25234 -38.57 -234.9)" gradientUnits="userSpaceOnUse"><stop offset="0" stop-color="#ebe9ea"/><stop offset="1" stop-color="#ebe9ea"/></linearGradient><linearGradient xlink:href="#a" id="c" x1="313" x2="313.5" y1="1034.4" y2="964.36" gradientTransform="matrix(-.22355 0 0 .25234 111.45 -234.9)" gradientUnits="userSpaceOnUse"/><linearGradient id="a"><stop offset="0" stop-color="#d9e5ee"/><stop offset="1" stop-color="#f0f3f6"/></linearGradient><linearGradient xlink:href="#a" id="d" x1="313" x2="313.5" y1="1034.4" y2="964.36" gradientTransform="matrix(.22355 0 0 .25234 -38.57 -234.9)" gradientUnits="userSpaceOnUse"/></defs><rect width="56.002" height="56.002" x="4" y="3.969" fill="#ccc" rx="13.002" ry="13.002"/><path fill="#fff" d="M3.998 18.004v-1C3.998 9.801 9.798 4 17.002 4h29.996c7.203 0 13.004 5.8 13.004 13.004v1c0-7.203-5.8-13.002-13.004-13.002H17.002A12.975 12.975 0 0 0 3.998 18.004" opacity=".5"/><rect width="51.996" height="51.939" x="6.002" y="5.998" fill="#030000" rx="10.999" ry="10.999"/><rect width="46" height="46" x="9" y="9" fill="#21bbfa" rx="8" ry="8"/><path fill="#f9f9f9" d="M3.998 46v.969A12.974 12.974 0 0 0 17 59.97h30a12.974 12.974 0 0 0 13.002-13.002V46z"/><path fill="#1e1f28" d="M34.874 55.998a4 4 0 0 1-.383.689q-.302.43-.493.596-.295.27-.634.279a1.6 1.6 0 0 1-.586-.14 1.7 1.7 0 0 0-.63-.14 1.7 1.7 0 0 0-.649.14q-.347.141-.56.147-.325.014-.648-.286-.207-.18-.516-.618a4.3 4.3 0 0 1-.546-1.083 4 4 0 0 1-.23-1.292q0-.717.31-1.234.244-.416.65-.656.405-.24.876-.248.258 0 .679.158.42.158.538.158.088 0 .597-.186.48-.172.81-.144.9.071 1.35.71-.805.488-.796 1.363.007.683.493 1.133.22.21.494.324-.06.172-.126.33m-1.375-5.409q0 .536-.39.997c-.312.366-.69.578-1.101.544a1 1 0 0 1-.009-.135c0-.342.15-.708.414-1.007q.198-.227.503-.378.305-.149.576-.163.008.072.008.142z"/><path d="M3.998 45.998v1c0 7.203 5.8 13.004 13.004 13.004h29.996c7.203 0 13.004-5.8 13.004-13.004v-1c0 7.203-5.8 13.002-13.004 13.002H17.002A12.975 12.975 0 0 1 3.998 45.998" opacity=".1"/><ellipse cx="18.949" cy="22.562" fill="#fff" rx="4.485" ry="5.063"/><ellipse cx="18.949" cy="22.562" fill="url(#b)" rx="4.262" ry="4.811"/><g fill-rule="evenodd" stroke-width=".626"><path fill="#566279" d="M39.955 9.014v.726l-1.155.445a.55.55 0 0 1-.604-.162c-.128-.153-.194-.355-.25-.55-.054-.19-.053-.412.061-.573a1.1 1.1 0 0 1 .272-.277c.164-.075.347-.038.516-.01.398.085.784.235 1.16.401"/><path fill="url(#c)" d="M39.948 9.739c1.643.162 3.408.85 4.366 2.459 1.219 2.06 1.081 4.766.325 6.996-.894 2.457-2.152 4.73-3.532 6.873-.378.28.023.443.217.638.157.067.375.508.476.225.772-1.437 1.566-2.86 2.323-4.306.837-1.905 1.63-3.903 1.814-6.041.123-1.975-.21-4.167-1.493-5.62a7.08 7.08 0 0 0-3.993-1.922c-.43-.17-.577.035-.503.474z"/><path fill="#374154" d="M30.992 27.206c.362-.251.763-.817 1.101-.869 1.324 2.021 2.632 4.06 3.965 6.07 1.474.828 1.97-1.978 2.859-2.863.738-.872 1.334-2.797 2.154-3.066.364.327.958.61.417 1.11-1.136 2.048-2.378 4.028-3.437 6.126-.976 2.19-.352 4.655-.425 6.983-.008 4.033-.012 8.264-1.53 12-1.325 3.085-4.481 5.111-7.513 4.404-3.01-.623-5.704-3.295-6.252-6.765-.891-4.791.685-9.551 2.18-13.962.702-2.279 1.898-4.776 1.008-7.206-.866-2.084-2.457-3.68-4.298-4.628-.75-.18-1.949-1.735-.407-1.468 2.222.447 4.094 2.276 5.308 4.355 1.476 2.498 1.108 5.69.152 8.33-1.462 4-2.886 8.187-2.859 12.581-.026 2.087.781 4.119 2.198 5.467 1.81 1.964 4.8 2.988 7.042 1.326 2.18-1.577 3.137-4.511 3.405-7.3.405-3.835.52-7.772-.134-11.58-.688-3.565-3.08-6.212-4.934-9.045"/></g><ellipse cx="18.949" cy="22.562" fill="#54585b" rx="2.865" ry="3.234"/><ellipse cx="18.949" cy="22.562" fill="#f2f2f2" rx="2.154" ry="2.431"/><g stroke-width=".626"><ellipse cx="18.949" cy="22.562" fill="#999" rx="1.798" ry="2.03"/><ellipse cx="18.949" cy="22.562" fill="#7c7c7c" opacity=".99" rx="1.601" ry="1.807"/><path fill="#566279" fill-rule="evenodd" d="M32.924 9.014v.726l1.155.445a.55.55 0 0 0 .604-.162c.128-.153.194-.355.25-.55.054-.19.053-.412-.061-.573a1.062 1.199 0 0 0-.272-.277c-.164-.075-.347-.038-.516-.01a6 6 0 0 0-1.16.401"/></g><path fill="url(#d)" fill-rule="evenodd" d="M32.93 9.739c-.107 0-2.975.202-4.301 2.352-1.399 2.267-1.169 5.327-.058 7.99a38 38 0 0 0 3.388 6.267l-.81.714-2.322-4.282s-1.68-3.502-1.877-6.067c-.214-2.789.587-5.053 1.818-6.067s2.859-1.634 4.16-1.634z"/></svg>