<svg xmlns="http://www.w3.org/2000/svg" xmlns:xlink="http://www.w3.org/1999/xlink" width="64" height="64" enable-background="new 0 0 1024 1024" image-rendering="optimizeSpeed"><defs><linearGradient id="a" x1="-506.45" x2="-506.45" y1="-19.101" y2="1013.6" gradientTransform="translate(61.791 3.124)scale(.05882)" gradientUnits="userSpaceOnUse"><stop offset="0" stop-color="#333"/><stop offset=".508" stop-color="#333"/><stop offset="1" stop-color="#4a4a4a"/></linearGradient><linearGradient xlink:href="#a" id="d" x1="21.19" x2="27.603" y1="28.362" y2="28.362" gradientUnits="userSpaceOnUse"/><linearGradient xlink:href="#a" id="f" x1="20.5" x2="45.5" y1="40" y2="40" gradientTransform="matrix(1.0833 0 0 1 -3.75 0)" gradientUnits="userSpaceOnUse"/><linearGradient id="b" x1="7.937" x2="7.937" y1="15.081" y2="1.852" gradientTransform="scale(3.7796)" gradientUnits="userSpaceOnUse"><stop offset="0" stop-color="#f1efeb"/><stop offset="1" stop-color="#fdfcfc"/></linearGradient><filter id="c" width="1.412" height="1.244" x="-.206" y="-.122" color-interpolation-filters="sRGB"><feGaussianBlur stdDeviation=".551"/></filter><filter id="e" width="1.102" height="2.322" x="-.051" y="-.661" color-interpolation-filters="sRGB"><feGaussianBlur stdDeviation=".551"/></filter></defs><rect width="56.002" height="56.002" x="4" y="3.969" fill="url(#b)" rx="13.002" ry="13.002"/><path d="M22.329 22.949q-.469 0-.804.335-.331.33-.332.801c-.001.471.112.581.332.801L25 28.362l-3.472 3.472a1.1 1.1 0 0 0-.338.804q.005.47.335.802.336.33.8.335a1.1 1.1 0 0 0 .808-.335l3.862-3.865q1.215-1.213 0-2.43l-3.865-3.864a1.1 1.1 0 0 0-.801-.332" filter="url(#c)" opacity=".35" style="paint-order:stroke markers fill"/><path fill="url(#d)" d="M22.329 22.949q-.469 0-.804.335-.331.33-.332.801c-.001.471.112.581.332.801L25 28.362l-3.472 3.472a1.1 1.1 0 0 0-.338.804q.005.47.335.802.336.33.8.335a1.1 1.1 0 0 0 .808-.335l3.862-3.865q1.215-1.213 0-2.43l-3.865-3.864a1.1 1.1 0 0 0-.801-.332" style="paint-order:stroke markers fill"/><rect width="26" height="2" x="19" y="39" filter="url(#e)" opacity=".35" rx="1" style="paint-order:stroke markers fill"/><rect width="26" height="2" x="19" y="39" fill="url(#f)" rx="1" style="paint-order:stroke markers fill"/></svg>