<svg xmlns="http://www.w3.org/2000/svg" width="64" height="64"><defs><linearGradient id="c" x1="30.207" x2="14" y1="43" y2="10" gradientTransform="matrix(1.5 0 0 1.5 -4.777 -4.1)" gradientUnits="userSpaceOnUse"><stop offset="0" stop-color="#cebee5"/><stop offset="1" stop-color="#f1f1f1"/></linearGradient><linearGradient id="a" x1="30.279" x2="30.279" y1="61.778" y2="4.731" gradientTransform="translate(-106.44)" gradientUnits="userSpaceOnUse"><stop offset="0" stop-color="#65257e"/><stop offset="1" stop-color="#ae79c4"/></linearGradient><filter id="b" width="1.131" height="1.111" x="-.065" y="-.055" color-interpolation-filters="sRGB"><feGaussianBlur stdDeviation="1.145"/></filter></defs><rect width="56.002" height="56.002" x="4" y="3.969" fill="url(#a)" rx="13.002" ry="13.002"/><path d="M35.908 9.4s-4.796 3.29-5.124 5.157c0 0-10.146-3.207-19.061 5.344h4.5s-11.795 7.37-12 12c.205-.13 2.168-1.153 3-1.5 0 0-2.865 6.598-.686 13.037C10.808 52.672 20.1 59.03 31.017 59.03c.33 0 .65-.036.976-.047.376-1.288 2.117-7.923-1.084-12.056-2.755-3.565-7.563-13.236-1.186-16.526 0 0 4.03 5.656 8.762 6.205 0 0 .553 4.848 6.273 1.77 1.526-.819 2.094-3.526.553-5.722L44.1 30.899s-4.016-9.645-6.876-12.498c0 0-1.5-4.5 0-7.5 0 0-1.7 1.262-2.25 2.25 0 0 .382-3.205.934-3.75z" filter="url(#b)" opacity=".25"/><path fill="url(#c)" d="M35.908 9.4s-4.797 3.29-5.125 5.157c0 0-10.146-3.208-19.061 5.343h4.5s-11.795 7.37-12 12c.205-.13 2.168-1.152 3-1.5 0 0-1.916 4.089-3.223 8.817v7.752A12.974 12.974 0 0 0 17.001 59.97h15.23c.567-3.46 1.117-9.892-1.324-13.043-2.755-3.565-7.562-13.237-1.185-16.527 0 0 4.03 5.656 8.761 6.205 0 0 .554 4.85 6.274 1.772 1.526-.82 2.093-3.527.552-5.723l-1.21-1.756s-4.015-9.645-6.875-12.498c0 0-1.5-4.5 0-7.5 0 0-1.7 1.262-2.25 2.25 0 0 .381-3.205.933-3.75z"/></svg>