<svg xmlns="http://www.w3.org/2000/svg" viewBox="0 0 64 64"><rect width="56.002" height="56.002" x="4" y="3.969" fill="#f2f2f2" rx="13.002" ry="13.002"/><path d="M3.998 45.998v1c0 7.203 5.8 13.004 13.004 13.004h29.996c7.203 0 13.004-5.8 13.004-13.004v-1c0 7.203-5.8 13.002-13.004 13.002H17.002A12.975 12.975 0 0 1 3.998 45.998" opacity=".1"/><path fill="#fff" d="M3.998 18.004v-1C3.998 9.801 9.798 4 17.002 4h29.996c7.203 0 13.004 5.8 13.004 13.004v1c0-7.203-5.8-13.002-13.004-13.002H17.002A12.975 12.975 0 0 0 3.998 18.004" opacity=".5"/><path fill="#f3de3f" d="M16 48.09c0 2.183.727 2.91 2.91 2.91h26.18c2.183 0 2.91-.727 2.91-2.91V34.274c0-2.91-7.636-5.9-9.818-13.441l-1.091-8.296c-1.455-1.508-3.293-2.263-5.091-2.263-1.818 0-3.636.755-5.09 2.263l-1.092 8.296C23.636 28.374 16 31.364 16 34.272zm13.09-30.545c0-1.454 1.455-2.909 2.91-2.909s2.909 1.455 2.909 2.91-1.455 2.908-2.91 2.908-2.908-1.454-2.908-2.909"/><path fill="#ffc000" d="M27.636 31.364v7.426a4 4 0 0 0-1.074-.154 4 4 0 0 0-4.017 3.965 4 4 0 0 0 3.948 4.035 4 4 0 0 0 4.052-3.93v-8.434h5.819v4.517a4 4 0 0 0-1.074-.153 4 4 0 0 0-4.017 3.965 4 4 0 0 0 3.947 4.035 4 4 0 0 0 4.053-3.93V31.363z"/><path fill="#fff176" d="M32 10.273a7.273 7.273 0 1 0 0 14.545 7.273 7.273 0 0 0 0-14.545m0 2.909q4.364 0 4.364 4.363c0 2.537-1.455 4.364-4.364 4.364s-4.364-1.455-4.364-4.364 1.827-4.363 4.364-4.363"/></svg>