<svg xmlns="http://www.w3.org/2000/svg" viewBox="0 0 64 64"><defs><linearGradient id="a" x1="24.738" x2="24.738" y1="3.969" y2="59.971" gradientUnits="userSpaceOnUse"><stop offset="0" stop-color="#e21c1c" style="stop-color:#df4e4e;stop-opacity:1"/><stop offset="1" stop-color="#1c73e2" style="stop-color:#5190e0;stop-opacity:1"/></linearGradient></defs><rect width="56.002" height="56.002" x="4" y="3.969" fill="url(#a)" rx="13.002" ry="13.002"/><path fill="#fff" d="M21.224 13A8.21 8.21 0 0 0 13 21.227v21.547A8.21 8.21 0 0 0 21.226 51h21.547A8.21 8.21 0 0 0 51 42.774V21.226A8.21 8.21 0 0 0 42.773 13H21.225zm.002 5.43h21.547a2.79 2.79 0 0 1 2.797 2.797v18.49l-6.582-6.637a3.936 3.936 0 0 0-5.524-.063l-4.296 4.129-1.25-1.288a3.936 3.936 0 0 0-5.578-.083l-3.91 3.799v-18.35a2.79 2.79 0 0 1 2.797-2.795zm5.107 5.424a2.716 2.716 0 0 0-2.511 2.71 2.716 2.716 0 0 0 5.431-.003 2.716 2.716 0 0 0-2.92-2.707M36.21 34.63a1.22 1.22 0 0 1 .849.362l8.419 8.489a2.79 2.79 0 0 1-2.704 2.09h-5.43l-6.285-6.476 4.29-4.126a1.22 1.22 0 0 1 .86-.339zm-11.105 2.754a1.23 1.23 0 0 1 .86.361l7.596 7.826H21.223a2.796 2.796 0 0 1-2.716-2.29l5.729-5.554a1.23 1.23 0 0 1 .867-.343z"/><path d="M3.998 45.998v1c0 7.203 5.8 13.004 13.004 13.004h29.996c7.203 0 13.004-5.8 13.004-13.004v-1c0 7.203-5.8 13.002-13.004 13.002H17.002A12.975 12.975 0 0 1 3.998 45.998" opacity=".15"/><path fill="#fff" d="M3.998 18.004v-1C3.998 9.801 9.798 4 17.002 4h29.996c7.203 0 13.004 5.8 13.004 13.004v1c0-7.203-5.8-13.002-13.004-13.002H17.002A12.975 12.975 0 0 0 3.998 18.004" opacity=".15"/></svg>