<svg xmlns="http://www.w3.org/2000/svg" xml:space="preserve" width="64" height="64"><defs><linearGradient id="a" x1="7.937" x2="7.937" y1="15.081" y2="1.852" gradientTransform="scale(3.7796)" gradientUnits="userSpaceOnUse"><stop offset="0" stop-color="#363636"/><stop offset="1" stop-color="#6c6c6c"/></linearGradient><linearGradient id="b" x1="22.056" x2="22.056" y1="38.358" y2="-4.642" gradientUnits="userSpaceOnUse"><stop stop-color="#01d6e6"/><stop offset="1" stop-color="#0182e7"/></linearGradient></defs><rect width="56" height="56" x="4" y="4" fill="url(#a)" rx="13" ry="13" style="fill:url(#a)"/><g style="fill:none"><path fill="url(#b)" d="m22.056 38.358 21.056-32.25H1Z" style="fill:url(#b)" transform="translate(9.09 10.983)scale(1.0387)"/><path fill="#fff" d="M15.323 40.434c.891-.951 3.102-3.126 4.813-4.22s3.763-4.218 4.575-5.644c2.476-3.645 8.022-11.255 10.4-12.538a50 50 0 0 0 1.306-1.07c.892-1.98 3.922-5.348 8.914-2.971.428-.143 1.485-.178 1.96-.178-.376.257-1.164 1.01-1.307 1.96-.38 2.615-1.822 4.14-2.495 4.576-.476 3.03-1.13 5.705-2.556 6.655l1.308 2.318c1.96 2.08 6.025 6.572 6.595 7.903-1.9-.618-3.129-1.208-3.505-1.426l3.505 4.813c-2.06-.158-6.69-1.497-8.734-5.586.808 2.187 1.604 4.913 1.901 6.002-1.11-.911-3.494-3.553-4.16-6.834.19 3.185.159 5.447.12 6.18-.535-.495-1.771-2.032-2.437-4.219v3.684c-.798-1.11-2.404-3.803-2.549-5.836.134 2.304.053 3.384-.006 3.638l-3.03-2.852c-.813.435-2.995 1.426-5.23 1.901-1.52 1.284-3.367 4.496-4.1 5.942V40.79l-2.02 2.02.713-2.139-1.307 1.13c-.297.178-.987.534-1.367.534.143-.333.416-.693.535-.832l-1.723.654c.198-.575.82-1.842 1.723-2.318-1.236.476-1.743.595-1.842.595"/></g></svg>