<svg xmlns="http://www.w3.org/2000/svg" viewBox="0 0 64 64"><rect width="64" height="64" fill="none" rx="0" ry="0" style="paint-order:stroke fill markers"/><rect width="56.002" height="56.002" x="4" y="3.969" fill="#307ea1" rx="13.002" ry="13.002"/><circle cx="32.02" cy="32.044" r="30.001" fill="none"/><path fill="#fff" d="M30.881 14.121c-.274-.027-1.415.41-2.186.861-1.05.616-2.75 2.362-3.261 3.352-.194.374-.487 1.194-.653 1.822l-.3 1.143-.373-.867c-.206-.477-.426-1.478-.487-2.223-.06-.745-.169-1.354-.242-1.354-.184.001-1.145 1.573-1.965 3.215-1.124 2.252-2.126 4.896-3.168 8.362-.54 1.799-1.477 4.295-2.084 5.546-1.385 2.857-3.346 4.954-5.668 6.057-1.32.628-4.663 1.53-6.494 1.846v5.088A12.973 12.973 0 0 0 17.002 59.97h15.336c.518-2.21.565-6.43.037-8.825-.545-2.475-.651-2.328 1.59-2.248 1.343.048 2.363-.045 3.307-.3.75-.204 1.902-.39 2.558-.414 1.3-.05 3.052-.72 3.866-1.479.559-.522 1.337-1.91 1.337-2.387 0-.165.196-.477.434-.693.3-.272.434-.665.434-1.29 0-1.13-.767-2.358-2.577-4.122-1.253-1.222-1.328-1.35-1.328-2.315 0-1.573-1.043-2.286-2.353-1.609-.627.324-.677.32-.889-.076-.275-.515-.299-1.967-.031-1.967.107 0 .497-.283.867-.629 1.24-1.159.63-3.113-1.158-3.703-.404-.133-.993-.582-1.31-.998-.825-1.08-2.093-1.846-3.528-2.133-1.184-.236-1.252-.287-1.441-1.047-.449-1.796 1.012-3.988 3.425-5.134 1.04-.494 4.035-1.315 4.797-1.315.072 0 .075-.087.006-.197-.205-.332-3.037-.887-4.533-.887-2.334 0-5.362 1.194-6.408 2.523l-.45.57v-.53c0-.94.628-2.681 1.3-3.608.358-.495.652-.944.652-.996q-.002-.035-.06-.041z"/><path d="M3.999 45.998V47A12.975 12.975 0 0 0 17 60.002h30A12.975 12.975 0 0 0 60.002 47v-1.002A12.975 12.975 0 0 1 47 59H17A12.975 12.975 0 0 1 4 45.998z" opacity=".15"/><path fill="#fff" d="M3.999 18.002v-.994A12.975 12.975 0 0 1 17 4.006h30a12.975 12.975 0 0 1 13.002 13.002v1.002A12.975 12.975 0 0 0 47 5.008H17A12.975 12.975 0 0 0 4 18.01z" opacity=".15"/></svg>