<svg xmlns="http://www.w3.org/2000/svg" width="64" height="64" viewBox="0 0 64 64"><defs><linearGradient id="a" x1=".5" x2=".521" y1="1" y2=".004"><stop offset="0%" style="stop-color:rgba(1,1,1,.1)"/><stop offset="100%" style="stop-color:rgba(255,255,255,.1)"/></linearGradient></defs><path d="M15.999 4h32.002C54.623 4 60 9.377 60 15.999v32.002C60 54.623 54.623 60 48.001 60H15.999C9.377 60 4 54.623 4 48.001V15.999C4 9.377 9.377 4 15.999 4" style="stroke:none;fill:#0f3612;stroke-miterlimit:10"/><path d="M15.999 4h32.002C54.623 4 60 9.377 60 15.999v32.002C60 54.623 54.623 60 48.001 60H15.999C9.377 60 4 54.623 4 48.001V15.999C4 9.377 9.377 4 15.999 4" style="stroke:none;fill:url(#a);stroke-miterlimit:10"/><circle cx="32.002" cy="31.998" r="22.368" fill="none" stroke="#81dc8a" stroke-width="1.765" opacity=".9" vector-effect="non-scaling-stroke"/><path fill="#81dc8a" d="M39.308 45.091c-2.03-3.825-4.521-7.397-7.219-10.772-2.767 3.462-5.541 6.943-7.786 10.775h-4.8c2.721-4.958 6.327-9.347 9.819-13.769l-9.426-12.419h5.246l7.056 9.146 6.49-9.146h4.966l-8.636 12.132c3.364 4.539 6.879 9.022 9.483 14.053z" opacity=".9"/></svg>