<svg xmlns="http://www.w3.org/2000/svg" viewBox="0 0 64 64"><rect width="56.002" height="56.002" x="4" y="3.969" fill="#f2f2f2" rx="13.002" ry="13.002" style="fill:#f2f1e3;fill-opacity:1"/><path d="M3.998 45.998v1c0 7.203 5.8 13.004 13.004 13.004h29.996c7.203 0 13.004-5.8 13.004-13.004v-1c0 7.203-5.8 13.002-13.004 13.002H17.002A12.975 12.975 0 0 1 3.998 45.998" opacity=".1"/><path fill="#fff" d="M3.998 18.004v-1C3.998 9.801 9.798 4 17.002 4h29.996c7.203 0 13.004 5.8 13.004 13.004v1c0-7.203-5.8-13.002-13.004-13.002H17.002A12.975 12.975 0 0 0 3.998 18.004" opacity=".5"/><g stroke="#f76f53" style="fill:none" transform="translate(4.303 5.005)scale(.05236)"><circle cx="529" cy="515" r="340" stroke-width="70" style="fill:none"/><circle cx="529" cy="515" r="224.915" stroke-width="51" style="fill:none"/><circle cx="529" cy="515" r="129.018" stroke-width="31" style="fill:none"/></g></svg>