<svg xmlns="http://www.w3.org/2000/svg" width="64" height="64"><defs><linearGradient id="a" x1="7.937" x2="7.937" y1="15.081" y2="1.852" gradientTransform="scale(3.7796)" gradientUnits="userSpaceOnUse"><stop offset="0" stop-color="#d00c23"/><stop offset="1" stop-color="#ff5151"/></linearGradient><linearGradient id="c" x1="1643.1" x2="1643.1" y1="1003" y2="2366.7" gradientTransform="translate(-2.084 -2.322)scale(.02124)" gradientUnits="userSpaceOnUse"><stop offset="0" stop-color="#fff"/><stop offset="1" stop-color="#ffd4cc"/></linearGradient><filter id="b" width="1.216" height="1.216" x="-.108" y="-.108" color-interpolation-filters="sRGB"><feGaussianBlur stdDeviation=".429"/></filter></defs><rect width="56.002" height="56.002" x="4" y="3.969" fill="url(#a)" rx="13.002" ry="13.002"/><path d="M8.443 3.973a4.76 4.76 0 0 0-4.739 4.763 4.76 4.76 0 0 0 4.763 4.762 4.76 4.76 0 0 0 4.762-4.762 4.76 4.76 0 0 0-4.763-4.763zM7.339 6.265a.5.5 0 0 1 .259.09L10.564 8.4a.51.51 0 0 1 .195.584.5.5 0 0 1-.196.259l-2.965 2.044a.5.5 0 0 1-.353.087q-.192-.024-.32-.17c-.128-.146-.13-.21-.13-.339V6.777q0-.195.13-.34a.5.5 0 0 1 .414-.172" filter="url(#b)" opacity=".15" transform="translate(0 .983)scale(3.7796)"/><path fill="url(#c)" d="M31.91 14A18 18 0 0 0 14 32a18 18 0 0 0 18 18 18 18 0 0 0 18-18 18 18 0 0 0-18-18zm-4.17 8.66q.522.027.977.344l11.213 7.727q.53.374.734.982a1.9 1.9 0 0 1 0 1.225 1.9 1.9 0 0 1-.738.978l-11.21 7.727a1.88 1.88 0 0 1-1.331.328 1.88 1.88 0 0 1-1.213-.639 1.87 1.87 0 0 1-.49-1.283V24.6q.001-.736.49-1.286a1.88 1.88 0 0 1 1.213-.639q.181-.023.355-.013z"/></svg>