<svg xmlns="http://www.w3.org/2000/svg" viewBox="0 0 64 64"><rect width="56.002" height="56.002" x="4" y="3.969" fill="#f9484b" rx="13.002" ry="13.002"/><path d="M3.998 45.998v1c0 7.203 5.8 13.004 13.004 13.004h29.996c7.203 0 13.004-5.8 13.004-13.004v-1c0 7.203-5.8 13.002-13.004 13.002H17.002A12.975 12.975 0 0 1 3.998 45.998" opacity=".15"/><path fill="#fff" d="M3.998 18.004v-1C3.998 9.801 9.798 4 17.002 4h29.996c7.203 0 13.004 5.8 13.004 13.004v1c0-7.203-5.8-13.002-13.004-13.002H17.002A12.975 12.975 0 0 0 3.998 18.004" opacity=".15"/><path fill="#fff" d="M31.91 14A18 18 0 0 0 14 32a18 18 0 0 0 18 18 18 18 0 0 0 18-18 18 18 0 0 0-18-18zm-4.17 8.66q.522.027.977.344l11.213 7.727q.53.374.734.982a1.9 1.9 0 0 1 0 1.225 1.9 1.9 0 0 1-.738.978l-11.21 7.727a1.88 1.88 0 0 1-1.331.328q-.727-.09-1.213-.639c-.486-.549-.49-.793-.49-1.283V24.6q.001-.736.49-1.286a1.88 1.88 0 0 1 1.213-.639q.181-.023.355-.013z"/></svg>