<svg xmlns="http://www.w3.org/2000/svg" width="64" height="64"><defs><linearGradient id="a" x1="7.937" x2="7.937" y1="15.081" y2="1.852" gradientTransform="scale(3.7796)" gradientUnits="userSpaceOnUse"><stop offset="0" stop-color="#363636"/><stop offset="1" stop-color="#525252"/></linearGradient></defs><rect width="56" height="56" x="4" y="4" fill="url(#a)" rx="13" ry="13"/><path fill="#fff" d="M31.999 38.923a6.923 6.923 0 1 0-.001-13.847 6.923 6.923 0 0 0 .001 13.847M37.537 32a5.54 5.54 0 1 1-11.074 0 5.54 5.54 0 0 1 11.074 0m6.462 0c0 6.627-5.373 11.999-12 11.999s-12-5.373-12-12 5.373-11.998 12-11.998S44 25.373 44 32m-12 9.693c5.353 0 9.693-4.34 9.693-9.693s-4.34-9.693-9.693-9.693-9.692 4.34-9.692 9.693 4.34 9.693 9.692 9.693M50 32c0 9.94-8.058 18-18 18s-18-8.06-18-18 8.059-18 18-18 18 8.06 18 18M32 46.769c8.157 0 14.77-6.613 14.77-14.77S40.156 17.232 32 17.232 17.23 23.844 17.23 32 23.842 46.769 32 46.769"/></svg>