<svg xmlns="http://www.w3.org/2000/svg" width="64" height="64"><defs><linearGradient id="a" x1="7.937" x2="7.937" y1="15.081" y2="1.852" gradientTransform="scale(3.7796)" gradientUnits="userSpaceOnUse"><stop offset="0" stop-color="#f1efeb"/><stop offset="1" stop-color="#fdfcfc"/></linearGradient><linearGradient id="d" x1="4.085" x2="42.614" y1="28.92" y2="28.92" gradientUnits="userSpaceOnUse"><stop offset="0" stop-color="#33d17a"/><stop offset="1" stop-color="#33d1b1"/></linearGradient><linearGradient id="c" x1="25.566" x2="42.543" y1="43.308" y2="43.308" gradientUnits="userSpaceOnUse"><stop offset="0" stop-color="#1d7a4f"/><stop offset="1" stop-color="#1b646a"/></linearGradient><linearGradient id="b" x1="32.011" x2="62.085" y1="38.127" y2="38.127" gradientUnits="userSpaceOnUse"><stop offset="0" stop-color="#d1d1d1"/><stop offset="1" stop-color="#ededed"/></linearGradient></defs><rect width="56.002" height="56.002" x="4" y="3.969" fill="url(#a)" rx="13.002" ry="13.002"/><path fill="url(#b)" d="M32.011 20.127h26.285c2.1 0 3.789 1.665 3.789 3.735v28.53c0 2.07-1.689 3.735-3.789 3.735H37.381c-1.074 0-1.777-.316-2.417-1.059z" transform="translate(9.183 9.154)scale(.68966)"/><path fill="#6b6a6e" d="m39.321 30.865-1.205-.068c.013.364-.014.686-.068 1.117-.028.228-.081.938-.135 1.287h-.231c-.825 0-1.855-.095-2.573-.215l.015 1.049c.785.067 1.638.135 2.572.135h.013c-.338 1.52-.88 3.454-1.57 4.798l1.001.364c.136-.242.258-.43.42-.633.907-1.062 2.398-2.09 4.007-2.09 1.585 0 2.41 1.257 2.41 2.252 0 2.22-3.032 2.745-6.173 2.314l.284 1.076c4.116.43 7-.605 7-3.416 0-1.561-1.26-3.14-3.412-3.14-1.408 0-2.626.813-3.804 1.633.284-.767.595-2.055.84-3.185 1.718-.068 3.79-.284 5.374-.565l-.013-1.022c-1.665.362-3.575.55-5.159.618.068-.296.108-.978.15-1.18.08-.363.148-.78.256-1.13zm5.077-.472-.718.31c.366.498.826 1.317 1.097 1.87l.732-.323a17 17 0 0 0-1.111-1.857m1.503-.538-.718.31c.38.497.826 1.265 1.124 1.855l.731-.334c-.258-.5-.786-1.333-1.137-1.83z"/><path fill="url(#c)" d="M42.352 47.057c.376.931.284 1.929-1.074 2.667l-4.434 3.202c-.795.389-2.148 2.134 0 3.174-1.827-.238-2.215-1.532-2.685-2.641l-8.593-22.942 13.564 8.536z" transform="translate(9.183 9.154)scale(.68966)"/><path fill="url(#d)" d="m7.873 10.175 20.349-.048c2.1-.005 3.032 1.854 3.789 3.784 1.252 3.586 10.603 33.802 10.603 33.802-.433-.91-1.473-1.586-2.547-1.586H7.874c-2.1 0-3.789-1.668-3.789-3.739V13.911a3.794 3.794 0 0 1 3.789-3.784z" transform="translate(9.183 9.154)scale(.68966)"/><path fill="#fff" d="M18.207 33.38H22.4c3.058 0 5.463-2.124 5.463-4.799 0-2.717-2.405-4.857-5.463-4.857h-4.192zm4.134-7.587c1.624 0 2.763 1.244 2.763 2.788 0 1.514-1.147 2.567-2.763 2.73h-1.375v-5.518z"/></svg>