<svg xmlns="http://www.w3.org/2000/svg" viewBox="0 0 64 64"><defs><linearGradient id="a" x1="7.937" x2="7.937" y1="15.081" y2="1.852" gradientTransform="translate(-.001 .03)scale(3.7796)" gradientUnits="userSpaceOnUse"><stop offset="0" stop-color="#175eb5"/><stop offset="1" stop-color="#4a91e8"/></linearGradient></defs><rect width="56.002" height="56.002" x="3.999" y="3.999" fill="url(#a)" rx="13.002" ry="13.002" style="fill:#448be2;fill-opacity:1"/><path fill="none" stroke="#99c1f1" stroke-width="1.109" d="M15.206 15.686h-8.87m8.87 18.849h-8.87m2.772-2.772V18.458m28.273 31.599h19.957M37.381 38.97h8.87m-2.772-2.772V22.893m-6.098-2.772h19.957m-2.771 27.164V22.893"/><path fill="#99c1f1" d="m11.88 19.567-2.772-3.326-2.772 3.326zm0 11.087L9.108 33.98l-2.772-3.326zm39.915 15.522 2.772 3.326 2.772-3.326zM40.707 24.002l2.772-3.326 2.772 3.326zm0 11.087 2.772 3.326 2.772-3.326zm11.088-11.087 2.772-3.326 2.772 3.326z"/><path d="M3.998 45.998v1c0 7.203 5.8 13.004 13.004 13.004h29.996c7.203 0 13.004-5.8 13.004-13.004v-1c0 7.203-5.8 13.002-13.004 13.002H17.002A12.975 12.975 0 0 1 3.998 45.998" opacity=".15"/><path fill="#fff" d="M3.998 18.004v-1C3.998 9.801 9.798 4 17.002 4h29.996c7.203 0 13.004 5.8 13.004 13.004v1c0-7.203-5.8-13.002-13.004-13.002H17.002A12.975 12.975 0 0 0 3.998 18.004" opacity=".15"/><g fill="none" stroke-linecap="round" stroke-linejoin="round" stroke-width="3.326"><path d="M34.953 9.258a1.66 1.66 0 0 0-1.25.666c.004-.006-.051.03-.23.097-.488.182-1.451.428-2.618.663-1.437.288-3.203.577-4.982.873-1.778.292-3.566.587-5.096.894-1.238.248-2.276.489-3.123.805h-.004c-.37.14-.702.28-1.062.54-.36.263-.914.8-.914 1.68a1.663 1.663 0 0 0 1.664 1.663 1.66 1.66 0 0 0 1.252-.67c-.002.004.052-.03.228-.098l.004-.002c.489-.182 1.446-.425 2.61-.658 1.44-.289 3.205-.578 4.984-.871l.002-.002c1.775-.295 3.564-.587 5.092-.893l.002-.002c1.237-.249 2.278-.488 3.125-.804.371-.139.703-.28 1.062-.541s.916-.786.916-1.678a1.663 1.663 0 0 0-1.662-1.662m0 8.808a1.66 1.66 0 0 0-1.25.666c.004-.005-.051.031-.23.098l-.004.002c-.484.182-1.447.428-2.612.66h-.003c-1.437.29-3.203.581-4.979.873-1.779.293-3.567.588-5.098.895-1.238.248-2.276.49-3.12.806-.374.14-.707.28-1.067.541-.36.262-.916.791-.916 1.678a1.663 1.663 0 0 0 1.664 1.662 1.66 1.66 0 0 0 1.25-.668c-.002.005.049-.03.226-.095l.006-.002c.489-.183 1.447-.427 2.612-.66v-.002c1.439-.29 3.203-.579 4.982-.872 1.776-.291 3.565-.586 5.094-.894 1.237-.247 2.28-.487 3.129-.807l.004-.002c.37-.138.7-.279 1.058-.539.36-.26.916-.785.916-1.677a1.663 1.663 0 0 0-1.662-1.663m0 9.877a1.66 1.66 0 0 0-1.25.668c.003-.005-.052.031-.23.098-.488.182-1.452.426-2.62.662-1.438.287-3.203.578-4.98.873-1.78.291-3.567.586-5.094.89h-.004c-1.235.25-2.271.49-3.119.807-.373.14-.706.28-1.066.541-.36.262-.916.791-.916 1.678a1.663 1.663 0 0 0 1.664 1.662 1.66 1.66 0 0 0 1.25-.668c-.002.005.049-.03.226-.095l.006-.002c.485-.182 1.445-.425 2.61-.66 1.442-.288 3.207-.58 4.984-.872h.004c1.776-.294 3.563-.59 5.09-.894h.004c1.237-.25 2.278-.49 3.125-.807.371-.138.703-.28 1.062-.54.36-.261.916-.786.916-1.679a1.663 1.663 0 0 0-1.662-1.662m0 8.81a1.66 1.66 0 0 0-1.25.667c.004-.006-.051.03-.23.098l-.004.002c-.484.182-1.447.427-2.612.66h-.003c-1.437.29-3.203.58-4.979.873-1.779.293-3.567.587-5.098.894-1.238.249-2.276.49-3.12.807-.374.139-.707.28-1.067.54-.36.263-.916.792-.916 1.679a1.663 1.663 0 0 0 1.664 1.662 1.66 1.66 0 0 0 1.25-.668c-.002.004.049-.03.226-.096l.006-.002c.489-.183 1.447-.429 2.612-.662 1.44-.289 3.205-.58 4.984-.873l-.002.002c1.778-.292 3.569-.588 5.098-.897 1.235-.246 2.276-.485 3.125-.804l.004-.002c.37-.138.7-.28 1.058-.54.36-.26.916-.785.916-1.677a1.663 1.663 0 0 0-1.662-1.662m0 9.546a1.66 1.66 0 0 0-1.25.666c.004-.006-.051.03-.23.097-.488.182-1.451.428-2.618.663-1.437.288-3.203.577-4.982.873-1.78.292-3.566.586-5.094.89l-.004.002c-1.236.25-2.274.49-3.12.807h-.005c-.37.14-.702.28-1.062.54-.36.263-.914.8-.914 1.68a1.663 1.663 0 0 0 1.664 1.663 1.66 1.66 0 0 0 1.252-.67c-.002.004.052-.03.228-.098l.004-.002c.488-.181 1.444-.425 2.608-.66 1.442-.287 3.206-.577 4.984-.87l.004-.001c1.775-.295 3.564-.587 5.092-.893l.002-.002c1.237-.249 2.278-.488 3.125-.804.371-.139.703-.28 1.062-.541s.916-.786.916-1.678a1.663 1.663 0 0 0-1.662-1.662" style="color:#000;fill:#b3b3b3;-inkscape-stroke:none;fill-opacity:1"/><path d="M25.303 1.273a1.663 1.663 0 0 0-1.664 1.663c0 1.935-.016 2.839.134 3.691s.527 1.425.872 2.021c.853 1.476 2.228 1.671 3.369 1.895.904.177 1.804.275 2.42.363.14.028.253.048.423.082 1.166.234 2.13.479 2.61.66l.008.002c.178.067.23.102.228.098a1.66 1.66 0 0 0 1.25.668 1.66 1.66 0 0 0 1.176-.502 1.7 1.7 0 0 0 .25-.324l.021-.033a1.7 1.7 0 0 0 .159-.383l.002-.006v-.002a1.7 1.7 0 0 0 .056-.412v-.016q0-.075-.006-.146c-.057-.803-.575-1.289-.914-1.533-.359-.26-.687-.399-1.056-.538h-.002c-.849-.317-1.887-.558-3.123-.808h-.004a14 14 0 0 0-.672-.113c-.877-.166-1.467-.253-2.631-.442-.561-.186-.824-.413-.686-.174-.406-.703-.422-.637-.474-.935-.053-.298-.084-1.186-.084-3.113a1.663 1.663 0 0 0-1.662-1.663m-7.965 12.39a1.663 1.663 0 0 0-1.662 1.661c0 .885.553 1.416.914 1.678.36.262.691.402 1.064.541.842.314 1.884.56 3.123.807 1.53.308 3.319.602 5.096.894 1.78.293 3.546.584 4.984.873 1.166.234 2.13.479 2.61.66l.008.002c.178.067.23.102.228.098a1.66 1.66 0 0 0 1.25.668 1.663 1.663 0 0 0 1.664-1.664c0-.892-.558-1.417-.918-1.678-.357-.259-.688-.4-1.056-.537-.854-.322-1.895-.562-3.131-.81-1.53-.308-3.32-.6-5.098-.893-1.776-.292-3.54-.585-4.98-.875h-.002c-1.163-.232-2.123-.477-2.614-.66l-.004-.002c-.126-.047-.118-.048-.16-.069a1.66 1.66 0 0 0-1.316-.695m0 9.544a1.663 1.663 0 0 0-1.662 1.662c0 .885.553 1.416.914 1.678.36.261.691.402 1.064.54.846.317 1.886.557 3.123.808l.004.001c1.528.305 3.315.6 5.092.891 1.78.294 3.546.586 4.986.873 1.164.236 2.129.48 2.612.66l.004.002c.178.067.23.102.228.098a1.66 1.66 0 0 0 1.25.668 1.663 1.663 0 0 0 1.664-1.664c0-.892-.558-1.417-.918-1.678-.358-.26-.69-.4-1.06-.539-.85-.318-1.89-.559-3.125-.809h-.004c-1.528-.304-3.315-.598-5.094-.892h-.002c-1.775-.292-3.537-.584-4.978-.871h-.004c-1.165-.236-2.126-.48-2.614-.662l-.004-.002c-.126-.047-.118-.048-.16-.069a1.66 1.66 0 0 0-1.316-.695m0 9.14a1.663 1.663 0 0 0-1.662 1.665c0 .884.553 1.413.914 1.675.36.262.691.403 1.064.542.842.314 1.884.559 3.123.806 1.53.308 3.319.603 5.096.895 1.78.293 3.546.584 4.984.873 1.166.234 2.13.478 2.61.66l.008.002c.178.066.23.102.228.097a1.66 1.66 0 0 0 1.25.668 1.663 1.663 0 0 0 1.664-1.664c0-.892-.558-1.417-.918-1.677-.36-.261-.692-.4-1.064-.54-.852-.32-1.89-.56-3.123-.808-1.53-.307-3.32-.6-5.098-.893-1.776-.291-3.54-.583-4.98-.873l-.002-.002c-1.163-.232-2.123-.476-2.614-.66l-.004-.002c-.128-.047-.12-.047-.162-.068a1.66 1.66 0 0 0-1.314-.695m0 9.544a1.663 1.663 0 0 0-1.662 1.664c0 .878.553 1.415.914 1.677.36.263.691.402 1.062.541h.002c.845.316 1.886.558 3.123.805 1.53.308 3.319.603 5.096.895s3.54.586 4.98.873c1.168.236 2.133.48 2.618.662h.004c.178.066.23.102.228.097a1.66 1.66 0 0 0 1.25.668 1.663 1.663 0 0 0 1.664-1.664c0-.892-.558-1.417-.918-1.677-.36-.261-.692-.4-1.064-.54-.85-.317-1.888-.556-3.121-.806l-.004-.002c-1.528-.305-3.315-.599-5.094-.893h-.002c-1.776-.291-3.54-.583-4.98-.873l-.002-.002c-1.164-.232-2.123-.476-2.612-.658h-.002c-.129-.048-.125-.05-.166-.07a1.66 1.66 0 0 0-1.314-.697m0 8.795a1.66 1.66 0 0 0-1.03.373l-.011.01a1.7 1.7 0 0 0-.24.24l-.04.05a1.7 1.7 0 0 0-.162.256 2 2 0 0 0-.052.127 2 2 0 0 0-.078.227 2 2 0 0 0-.04.287l-.011.092v.017q0 .075.006.145c.056.8.57 1.286.91 1.533.36.262.693.402 1.066.541.814.304 1.869.577 3.139.81h.004l.006.002q1.2.228 2.418.34.212.034.414.073c.869.17 1.302.59 1.13.295.322.556.383.688.462 1.31.078.622.095 1.724.095 3.65a1.663 1.663 0 0 0 1.662 1.663 1.663 1.663 0 0 0 1.664-1.663c0-1.934.003-3.08-.12-4.064a6.7 6.7 0 0 0-.884-2.56c-.853-1.477-2.229-1.671-3.369-1.895q-.28-.055-.556-.1l-.014-.002c-.938-.154-1.815-.237-2.275-.33-1.164-.233-2.121-.476-2.61-.658l-.004-.002c-.14-.053-.148-.061-.181-.078a1.66 1.66 0 0 0-1.3-.69" style="color:#000;fill:#deddda;-inkscape-stroke:none;fill-opacity:1"/></g></svg>