<svg xmlns="http://www.w3.org/2000/svg" viewBox="0 0 64 64"><rect width="56.002" height="56.002" x="4" y="3.969" fill="#4d4d4d" rx="13.002" ry="13.002"/><path d="M3.998 45.998v1c0 7.203 5.8 13.004 13.004 13.004h29.996c7.203 0 13.004-5.8 13.004-13.004v-1c0 7.203-5.8 13.002-13.004 13.002H17.002A12.975 12.975 0 0 1 3.998 45.998" opacity=".35"/><path fill="#fff" d="M3.998 18.004v-1C3.998 9.801 9.798 4 17.002 4h29.996c7.203 0 13.004 5.8 13.004 13.004v1c0-7.203-5.8-13.002-13.004-13.002H17.002A12.975 12.975 0 0 0 3.998 18.004" opacity=".15"/><path fill="#aaa" d="M23 50v-3h-3v-3h-3v-3h-3V23h3v-3h3v-3h3v-3h18v3h3v3h3v3h3v18h-3v3h-3v3h-3v3zm15-3v-3h3v-3h3v-3h3V26h-3v-3h-3v-3h-3v-3H26v3h-3v3h-3v3h-3v12h3v3h3v3h3v3z"/><path fill="#5f5" d="M29 44V29h-3v3h-6v-3h3v-3h3v-3h3v-3h6v3h3v3h3v3h3v3h-6v-3h-3v15z"/><path fill="#a50" d="M17 11v3h-3v3h-3v30h3v3h3v3h30v-3h3v-3h3V17h-3v-3h-3v-3zm6 3h18v3h3v3h3v3h3v18h-3v3h-3v3h-3v3H23v-3h-3v-3h-3v-3h-3V23h3v-3h3v-3h3z"/><path fill="#00a" d="M26 47v-3h-3v-3h-3v-3h-3V26h3v-3h3v-3h3v-3h12v3h3v3h3v3h3v12h-3v3h-3v3h-3v3zm9-3V29h3v3h6v-3h-3v-3h-3v-3h-3v-3h-6v3h-3v3h-3v3h-3v3h6v-3h3v15z"/></svg>