<svg xmlns="http://www.w3.org/2000/svg" width="64" height="64" viewBox="0 0 16.933 16.933"><defs><linearGradient id="d" x1="16.933" x2="16.933" y1="291.12" y2="268.25" gradientTransform="translate(2.197 -95.084)scale(.37024)" gradientUnits="userSpaceOnUse"><stop offset="0" stop-color="#112b53"/><stop offset="1" stop-color="#47a0f0"/></linearGradient><linearGradient id="e" x1="16.933" x2="16.933" y1="288.26" y2="271.87" gradientTransform="translate(2.197 -95.084)scale(.37024)" gradientUnits="userSpaceOnUse"><stop offset="0" stop-color="#e5e5e5"/><stop offset="1" stop-color="#f1f1f1"/></linearGradient><linearGradient id="f" x1="47.902" x2="47.902" y1="1016.9" y2="991.52" gradientTransform="translate(-12.691 -12.309)scale(.0679)" gradientUnits="userSpaceOnUse"><stop offset="0" stop-color="#fff"/><stop offset="1" stop-color="#fff" stop-opacity="0"/></linearGradient><linearGradient id="g" x1="48.543" x2="48.543" y1="1016.1" y2="993.68" gradientTransform="translate(-12.691 -12.309)scale(.0679)" gradientUnits="userSpaceOnUse"><stop offset="0" stop-color="#d6d6d6"/><stop offset="1" stop-color="#d0d0d0"/></linearGradient><linearGradient id="h" x1="31.807" x2="31.807" y1="26.918" y2="36.986" gradientTransform="translate(0 .001)scale(.26458)" gradientUnits="userSpaceOnUse"><stop offset="0"/><stop offset="1" stop-opacity=".5"/></linearGradient><linearGradient id="i" x1="299.74" x2="323.46" y1="304.59" y2="304.59" gradientTransform="matrix(.06693 0 0 .06642 -12.39 -11.5)" gradientUnits="userSpaceOnUse"><stop offset="0" stop-color="#1a1d1e"/><stop offset=".167" stop-color="#282d30"/><stop offset=".506" stop-color="#34393d"/><stop offset=".833" stop-color="#2a2e32"/><stop offset="1" stop-color="#1b1d1f"/></linearGradient><linearGradient id="b" x1="8.343" x2="8.343" y1="13.824" y2="3.354" gradientUnits="userSpaceOnUse"><stop offset="0" stop-color="#ccc"/><stop offset="1" stop-color="#fff" stop-opacity=".992"/></linearGradient><linearGradient id="a" x1="8.587" x2="8.587" y1="15.747" y2="1.097" gradientUnits="userSpaceOnUse"><stop offset="0" stop-color="#333"/><stop offset="1" stop-color="gray"/></linearGradient><radialGradient id="c" cx="259.52" cy="558.97" r="34" gradientTransform="translate(-25.865 -65.479)scale(.13229)" gradientUnits="userSpaceOnUse"><stop offset="0" stop-color="#1e457b"/><stop offset=".724" stop-color="#1e457d"/><stop offset=".801" stop-color="#479ff0"/><stop offset=".941" stop-color="#479fef"/><stop offset="1" stop-color="#2869b6"/></radialGradient></defs><rect width="14.817" height="14.817" x="1.058" y="1.05" fill="url(#a)" rx="3.44" ry="3.44"/><g stroke-width=".359"><rect width="11.642" height="11.642" x="2.646" y="3.144" opacity=".037" rx="5.821" ry="5.821"/><rect width="11.642" height="11.642" x="2.646" y="2.91" opacity=".063" rx="5.821" ry="5.821"/><rect width="8.996" height="8.996" x="3.969" y="4.232" opacity=".25" rx="4.498" ry="4.498"/><rect width="8.89" height="8.89" x="4.022" y="4.284" opacity=".25" rx="4.445" ry="4.445"/><rect width="8.89" height="8.89" x="4.022" y="4.284" opacity=".087" rx="4.445" ry="4.445"/><rect width="6.879" height="6.879" x="5.027" y="5.291" opacity=".25" rx="3.44" ry="3.44"/><rect width="3.647" height="3.647" x="6.643" y="6.905" opacity=".25" rx="1.823" ry="1.823"/><rect width="3.366" height="3.366" x="6.784" y="7.046" opacity=".25" rx="1.683" ry="1.683"/><rect width="3.704" height="3.704" x="6.615" y="6.88" opacity=".25" rx="1.852" ry="1.852"/></g><g stroke-width=".359"><rect width="11.642" height="11.642" x="2.646" y="2.77" opacity=".175" rx="5.821" ry="5.821"/><rect width="8.996" height="8.996" x="3.969" y="4.092" opacity=".35" rx="4.498" ry="4.498"/><rect width="8.89" height="8.89" x="4.022" y="4.144" opacity=".35" rx="4.445" ry="4.445"/><rect width="8.89" height="8.89" x="4.022" y="4.144" opacity=".122" rx="4.445" ry="4.445"/><rect width="6.879" height="6.879" x="5.027" y="5.151" opacity=".35" rx="3.44" ry="3.44"/><rect width="3.647" height="3.647" x="6.643" y="6.765" opacity=".35" rx="1.823" ry="1.823"/><rect width="3.366" height="3.366" x="6.784" y="6.906" opacity=".35" rx="1.683" ry="1.683"/><rect width="3.704" height="3.704" x="6.615" y="6.739" opacity=".35" rx="1.852" ry="1.852"/></g><g stroke-width=".359"><rect width="8.996" height="8.996" x="3.969" y="4.228" opacity=".25" rx="4.498" ry="4.498"/><rect width="8.89" height="8.89" x="4.022" y="4.28" opacity=".25" rx="4.445" ry="4.445"/><rect width="8.89" height="8.89" x="4.022" y="4.28" opacity=".087" rx="4.445" ry="4.445"/><rect width="6.879" height="6.879" x="5.027" y="5.287" opacity=".25" rx="3.44" ry="3.44"/><rect width="3.647" height="3.647" x="6.643" y="6.901" opacity=".25" rx="1.823" ry="1.823"/><rect width="3.366" height="3.366" x="6.783" y="7.042" opacity=".25" rx="1.683" ry="1.683"/><rect width="3.704" height="3.704" x="6.614" y="6.875" opacity=".25" rx="1.852" ry="1.852"/></g><path d="M8.467 6.874a1.85 1.85 0 0 0-1.853 1.852c0 1.026.827 1.852 1.853 1.852s1.852-.826 1.852-1.852a1.85 1.85 0 0 0-1.852-1.852m0 .056c.994 0 1.795.801 1.795 1.796 0 .994-.801 1.795-1.795 1.795a1.79 1.79 0 0 1-1.796-1.795c0-.995.801-1.796 1.796-1.796" opacity=".087"/><path d="M7.807 6.08a.134.134 0 0 0-.134.134V7.67l.526.512-.526.513v2.542c0 .075.06.134.134.134h1.32c.074 0 .133-.06.133-.134V9.77l-.529-.515.53-.516V6.214a.134.134 0 0 0-.135-.134z" opacity=".25"/><g stroke-width=".359"><rect width="8.996" height="8.996" x="3.969" y="4.088" opacity=".35" rx="4.498" ry="4.498"/><rect width="8.89" height="8.89" x="4.022" y="4.14" opacity=".35" rx="4.445" ry="4.445"/><rect width="8.89" height="8.89" x="4.022" y="4.14" opacity=".122" rx="4.445" ry="4.445"/><rect width="6.879" height="6.879" x="5.027" y="5.147" opacity=".35" rx="3.44" ry="3.44"/><rect width="3.647" height="3.647" x="6.643" y="6.761" opacity=".35" rx="1.823" ry="1.823"/><rect width="3.366" height="3.366" x="6.783" y="6.902" opacity=".35" rx="1.683" ry="1.683"/><rect width="3.704" height="3.704" x="6.614" y="6.735" opacity=".35" rx="1.852" ry="1.852"/></g><path d="M8.467 6.734c-1.026 0-1.853.826-1.853 1.852s.827 1.852 1.853 1.852 1.852-.826 1.852-1.852-.826-1.852-1.852-1.852m0 .056c.994 0 1.795.801 1.795 1.796 0 .994-.801 1.795-1.795 1.795a1.79 1.79 0 0 1-1.796-1.795c0-.995.801-1.796 1.796-1.796" opacity=".122"/><path d="M7.807 5.94a.134.134 0 0 0-.134.134V7.53l.526.512-.526.513v2.542c0 .075.06.134.134.134h1.32c.074 0 .133-.06.133-.134V9.63l-.529-.515.53-.516V6.074a.134.134 0 0 0-.135-.134z" opacity=".35"/><g stroke-width=".359"><rect width="11.641" height="11.641" x="2.646" y="2.648" fill="url(#b)" rx="5.821" ry="5.821"/><rect width="8.996" height="8.996" x="3.969" y="3.97" fill="#2d6db4" rx="4.498" ry="4.498"/><rect width="8.89" height="8.89" x="4.022" y="4.022" fill="url(#c)" rx="4.445" ry="4.445"/><rect width="8.89" height="8.89" x="4.022" y="4.022" fill="url(#d)" opacity=".35" rx="4.445" ry="4.445"/><rect width="6.879" height="6.879" x="5.027" y="5.029" fill="url(#e)" rx="3.44" ry="3.44"/><rect width="3.647" height="3.647" x="6.643" y="6.643" fill="url(#f)" rx="1.823" ry="1.823"/><rect width="3.366" height="3.366" x="6.783" y="6.784" fill="url(#g)" rx="1.683" ry="1.683"/><rect width="3.704" height="3.704" x="6.614" y="6.617" fill="#dfdfdf" rx="1.852" ry="1.852"/></g><path fill="url(#h)" d="M8.467 6.616a1.85 1.85 0 0 0-1.853 1.852c0 1.026.827 1.852 1.853 1.852s1.852-.826 1.852-1.852a1.85 1.85 0 0 0-1.852-1.852m0 .056c.994 0 1.795.801 1.795 1.796 0 .994-.801 1.795-1.795 1.795a1.79 1.79 0 0 1-1.796-1.795c0-.995.801-1.796 1.796-1.796" opacity=".35"/><path fill="url(#i)" d="M7.807 5.822a.134.134 0 0 0-.134.134v1.456l.526.512-.526.513v2.542c0 .075.06.134.134.134h1.32c.074 0 .133-.06.133-.134V9.512l-.529-.515.53-.516V5.956a.134.134 0 0 0-.135-.134z"/></svg>