<svg xmlns="http://www.w3.org/2000/svg" width="64" height="64" enable-background="new 0 0 1024 1024" image-rendering="optimizeSpeed"><defs><linearGradient id="a" x1="7.937" x2="7.937" y1="15.081" y2="1.852" gradientTransform="scale(3.7796)" gradientUnits="userSpaceOnUse"><stop offset="0" stop-color="#0e71de"/><stop offset="1" stop-color="#25c9ff"/></linearGradient><filter id="b" width="1.243" height="1.194" x="-.122" y="-.097" color-interpolation-filters="sRGB"><feGaussianBlur stdDeviation="1.537"/></filter></defs><rect width="56.002" height="56.002" x="4" y="3.969" fill="url(#a)" rx="13.002" ry="13.002"/><path d="M16.843 16c0 2.747.375 6.646 2.35 8.773 1.06 1.141 2.807 1.451 4.21 1.956 3.065 1.104 6.458 2.783 9.726 3.069l-4.298-.631-9.726-1.857c.02.98.219 1.805.59 2.714 2.43 5.974 8.3 4.75 13.66 4.75-2.02.614-4.245.687-6.333.968-.696.094-2.037.118-2.472.774-.733 1.104 1.34 2.622 2.02 3.175 2.967 2.411 5.932 1.95 9.273.511l-1.13 5.655h3.618L36.521 54l4.243-5.428 4.805-6.56h-4.75c1.558-2.928 3.476-5.659 5.026-8.595.68-1.286 1.625-2.777 1.21-4.298-.648-2.369-4.876-3.41-6.914-4.11-5.601-1.92-11.023-4.17-16.512-6.373-2.143-.86-4.453-2.515-6.786-2.636" filter="url(#b)" opacity=".15"/><path fill="#fafefe" d="M16.843 14.608c0 2.747.375 6.646 2.35 8.773 1.06 1.141 2.807 1.451 4.21 1.956 3.065 1.104 6.458 2.783 9.726 3.069l-4.298-.631-9.726-1.857c.02.98.219 1.805.59 2.714 2.43 5.974 8.3 4.75 13.66 4.75-2.02.614-4.245.687-6.333.968-.696.094-2.037.118-2.472.774-.733 1.104 1.34 2.622 2.02 3.175 2.967 2.411 5.932 1.95 9.273.511l-1.13 5.655h3.618l-1.81 8.143 4.243-5.428 4.805-6.56h-4.75c1.558-2.928 3.476-5.659 5.026-8.595.68-1.286 1.625-2.777 1.21-4.298-.648-2.369-4.876-3.41-6.914-4.11-5.601-1.92-11.023-4.17-16.512-6.373-2.143-.86-4.453-2.515-6.786-2.636"/></svg>