<svg xmlns="http://www.w3.org/2000/svg" image-rendering="optimizeSpeed" viewBox="0 0 64 64"><defs><linearGradient id="a" x1="7.937" x2="7.937" y1="15.081" y2="1.852" gradientTransform="scale(3.7796)" gradientUnits="userSpaceOnUse"><stop offset="0" stop-color="#0e71de"/><stop offset="1" stop-color="#25c9ff"/></linearGradient></defs><rect width="56.002" height="56.002" x="4" y="3.969" fill="url(#a)" rx="13.002" ry="13.002" style="fill:#1a9def;fill-opacity:1"/><path fill="#fafefe" d="M16.843 14.608c0 2.747.375 6.646 2.35 8.773 1.06 1.141 2.807 1.451 4.21 1.956 3.065 1.104 6.458 2.783 9.726 3.069l-4.298-.631-9.726-1.857c.02.98.219 1.805.59 2.714 2.43 5.974 8.3 4.75 13.66 4.75-2.02.614-4.245.687-6.333.968-.696.094-2.037.118-2.472.774-.733 1.104 1.34 2.622 2.02 3.175 2.967 2.411 5.932 1.95 9.273.511l-1.13 5.655h3.618l-1.81 8.143 4.243-5.428 4.805-6.56h-4.75c1.558-2.928 3.476-5.659 5.026-8.595.68-1.286 1.625-2.777 1.21-4.298-.648-2.369-4.876-3.41-6.914-4.11-5.601-1.92-11.023-4.17-16.512-6.373-2.143-.86-4.453-2.515-6.786-2.636"/><path d="M3.998 45.998v1c0 7.203 5.8 13.004 13.004 13.004h29.996c7.203 0 13.004-5.8 13.004-13.004v-1c0 7.203-5.8 13.002-13.004 13.002H17.002A12.975 12.975 0 0 1 3.998 45.998" opacity=".35" style="opacity:.15"/><path fill="#fff" d="M3.998 18.004v-1C3.998 9.801 9.798 4 17.002 4h29.996c7.203 0 13.004 5.8 13.004 13.004v1c0-7.203-5.8-13.002-13.004-13.002H17.002A12.975 12.975 0 0 0 3.998 18.004" opacity=".15"/></svg>