<svg xmlns="http://www.w3.org/2000/svg" viewBox="0 0 64 64"><defs><linearGradient id="b" x1="13.527" x2="49.767" y1="19.881" y2="19.881" gradientUnits="userSpaceOnUse"><stop offset="0" stop-color="#3f3f3f"/><stop offset="1" stop-color="#6b6b6b"/></linearGradient><linearGradient id="c" x1="12.233" x2="43.296" y1="32.824" y2="32.824" gradientUnits="userSpaceOnUse"><stop offset="0" stop-color="#f5ad3b"/><stop offset="1" stop-color="#fff300"/></linearGradient><linearGradient id="a" x1="7.937" x2="7.937" y1="15.081" y2="1.852" gradientTransform="scale(3.7796)" gradientUnits="userSpaceOnUse"><stop offset="0" stop-color="#f54800"/><stop offset="1" stop-color="#ffb200"/></linearGradient></defs><rect width="56.002" height="56.002" x="4" y="3.969" fill="url(#a)" rx="13.002" ry="13.002" style="fill:#fa8000;fill-opacity:1"/><path fill="#fff" d="M47.955 48.354a1.81 1.81 0 0 0 1.813-1.813V23.764h-36.24v22.779c0 1.003.808 1.812 1.811 1.812z"/><path fill="url(#b)" d="M47.955 15.998c1.004 0 1.812.808 1.812 1.812v5.954h-36.24V17.81c0-1.004.808-1.812 1.812-1.812z" style="fill:#666"/><circle cx="19.5" cy="39.5" r="1.5" fill-rule="evenodd" opacity=".15"/><rect width="22" height="3" x="23" y="30" fill-rule="evenodd" opacity=".15" rx="1.5" ry="1.5"/><rect width="22" height="3" x="23" y="38" fill-rule="evenodd" opacity=".15" rx="1.5" ry="1.5"/><circle cx="19.5" cy="31.5" r="1.5" fill-rule="evenodd" opacity=".15"/><path fill="url(#c)" d="M12.233 19.234v24.915c0 2.265 2.219 2.265 2.219 2.265h28.844zM17.41 31.53l11.648 9.06H17.41z" style="fill:#fce010;fill-opacity:1"/><circle cx="45.5" cy="20.5" r="1.5" fill-rule="evenodd" opacity=".5"/><circle cx="40.5" cy="20.5" r="1.5" fill-rule="evenodd" opacity=".5"/><circle cx="35.5" cy="20.5" r="1.5" fill-rule="evenodd" opacity=".5"/><path d="M3.998 45.998v1c0 7.203 5.8 13.004 13.004 13.004h29.996c7.203 0 13.004-5.8 13.004-13.004v-1c0 7.203-5.8 13.002-13.004 13.002H17.002A12.975 12.975 0 0 1 3.998 45.998" opacity=".15"/><path fill="#fff" d="M3.998 18.004v-1C3.998 9.801 9.798 4 17.002 4h29.996c7.203 0 13.004 5.8 13.004 13.004v1c0-7.203-5.8-13.002-13.004-13.002H17.002A12.975 12.975 0 0 0 3.998 18.004" opacity=".15"/></svg>