<svg xmlns="http://www.w3.org/2000/svg" width="64" height="64"><defs><linearGradient id="a" x1="7.937" x2="7.937" y1="15.081" y2="1.852" gradientTransform="scale(3.7796)" gradientUnits="userSpaceOnUse"><stop offset="0" stop-color="#0e71de"/><stop offset="1" stop-color="#25c9ff" style="stop-color:#57e389;stop-opacity:1"/></linearGradient></defs><rect width="56" height="56" x="4" y="4" fill="url(#a)" rx="13" ry="13" style="fill:url(#a)"/><path fill="#fff" fill-rule="evenodd" d="M17.62 17.62h28.76a2.877 2.877 0 0 1 2.875 2.877v23.006a2.877 2.877 0 0 1-2.876 2.876H17.621a2.877 2.877 0 0 1-2.876-2.876V20.497a2.877 2.877 0 0 1 2.876-2.876m0 0" style="stroke-width:.479312"/><path fill="none" stroke="#fff" stroke-linecap="round" stroke-opacity=".5" stroke-width="1.917" d="M11.869 22.414v-1.917a5.75 5.75 0 0 1 5.752-5.752h1.917m32.593 7.669v-1.917a5.75 5.75 0 0 0-5.752-5.752h-1.917M11.869 41.586v1.917a5.75 5.75 0 0 0 5.752 5.752h1.917m32.593-7.669v1.917a5.75 5.75 0 0 1-5.752 5.752h-1.917"/><path fill="#dcdcdc" fill-rule="evenodd" d="M46.901 21.365a1.438 1.438 0 1 1-2.876 0 1.438 1.438 0 0 1 2.876 0m0 0" style="stroke-width:.479312"/></svg>