<svg xmlns="http://www.w3.org/2000/svg" xmlns:xlink="http://www.w3.org/1999/xlink" width="64" height="64"><defs><linearGradient id="b"><stop offset="0" stop-color="#760000"/><stop offset=".155" stop-color="#890000"/><stop offset=".31" stop-color="#6d0000"/><stop offset=".479" stop-color="#3e0000"/><stop offset=".841" stop-color="#ff1b1b"/><stop offset="1" stop-color="#960000"/></linearGradient><linearGradient id="a"><stop offset="0" stop-color="#780000"/><stop offset=".5" stop-color="#b20000"/><stop offset="1" stop-color="#7b0000"/></linearGradient><linearGradient id="s" x1="-89.108" x2="-65.971" y1="60.088" y2="101.09" gradientTransform="translate(73.998 4.186)scale(.39833)" gradientUnits="userSpaceOnUse"><stop offset="0" stop-color="#780000"/><stop offset=".583" stop-color="#db0000"/><stop offset="1" stop-color="#7b0000"/></linearGradient><linearGradient id="r" x1="-102.81" x2="-74.339" y1="-23.585" y2="198.15" gradientTransform="translate(51.029 22.796)scale(.19383)" gradientUnits="userSpaceOnUse"><stop offset="0" stop-color="#760000"/><stop offset=".155" stop-color="#a90000"/><stop offset=".246" stop-color="#6d0000"/><stop offset=".439" stop-color="#3e0000"/><stop offset=".841" stop-color="#ed0000"/><stop offset="1" stop-color="#960000"/></linearGradient><linearGradient id="q" x1="80.565" x2="95.81" y1="62.356" y2="60.725" gradientTransform="translate(6.914 4.108)scale(.39833)" gradientUnits="userSpaceOnUse"><stop offset="0" stop-color="#760000"/><stop offset=".155" stop-color="#a90000"/><stop offset=".246" stop-color="#6d0000"/><stop offset=".503" stop-color="#3e0000"/><stop offset=".841" stop-color="#ed0000"/><stop offset="1" stop-color="#960000"/></linearGradient><linearGradient xlink:href="#a" id="p" x1="54.381" x2="94.747" y1="111.75" y2="111.75" gradientTransform="translate(6.914 4.108)scale(.39833)" gradientUnits="userSpaceOnUse"/><linearGradient id="o" x1="218.45" x2="246.25" y1="53.338" y2="25.537" gradientTransform="translate(-12.437 24.447)scale(.19126)" gradientUnits="userSpaceOnUse"><stop offset="0" stop-color="#473a56"/><stop offset=".5" stop-color="#c4c4c4"/><stop offset="1" stop-color="#282131"/></linearGradient><linearGradient xlink:href="#a" id="n" x1="-133.81" x2="-33.805" y1="20.749" y2="-11.969" gradientTransform="translate(38.69 23.515)scale(.22813)" gradientUnits="userSpaceOnUse"/><linearGradient xlink:href="#b" id="m" x1="-99.982" x2="-34.955" y1="119.22" y2="-84.759" gradientTransform="translate(38.69 23.515)scale(.22813)" gradientUnits="userSpaceOnUse"/><linearGradient id="l" x1="249.46" x2="215.54" y1="44.263" y2="10.338" gradientTransform="matrix(.16619 0 0 .16624 -6.64 27.452)" gradientUnits="userSpaceOnUse"><stop offset=".3" stop-color="#fff" stop-opacity="0"/><stop offset=".497" stop-color="#fff"/><stop offset=".7" stop-color="#fff" stop-opacity="0"/></linearGradient><linearGradient xlink:href="#b" id="i" x1="-88.87" x2="2.547" y1="112.43" y2="-91.456" gradientTransform="rotate(-1.369 1142.5 -2141.3)scale(.21029)" gradientUnits="userSpaceOnUse"/><linearGradient xlink:href="#a" id="j" x1="-119.61" x2="11.063" y1="-11.969" y2="-84.826" gradientTransform="matrix(.21746 -.00513 .00496 .21023 51.085 26.39)" gradientUnits="userSpaceOnUse"/><linearGradient xlink:href="#a" id="h" x1="-119.61" x2="40.819" y1="-11.969" y2="-127.75" gradientTransform="matrix(-.18149 0 0 .18149 9.002 28.101)" gradientUnits="userSpaceOnUse"/><linearGradient xlink:href="#b" id="g" x1="-88.87" x2="-8.183" y1="112.43" y2="-413" gradientTransform="matrix(-.18149 0 0 .18149 9.002 25.312)" gradientUnits="userSpaceOnUse"/><linearGradient xlink:href="#b" id="f" x1="-4.142" x2="84.972" y1="124.5" y2="86.638" gradientTransform="translate(6.914 4.108)scale(.39833)" gradientUnits="userSpaceOnUse"/><linearGradient id="v" x1="71.566" x2="62.526" y1="66.889" y2="158.67" gradientTransform="matrix(.34686 0 0 .28485 9.687 16.558)" gradientUnits="userSpaceOnUse"><stop offset="0" stop-color="#760000"/><stop offset=".155" stop-color="#a90000"/><stop offset=".31" stop-color="#6d0000"/><stop offset=".479" stop-color="#3e0000"/><stop offset=".71" stop-color="#ed0000"/><stop offset="1" stop-color="#960000"/></linearGradient><linearGradient id="e" x1="7.937" x2="7.937" y1="15.081" y2="1.852" gradientTransform="scale(3.7796)" gradientUnits="userSpaceOnUse"><stop offset="0" stop-color="#f1efeb"/><stop offset="1" stop-color="#fdfcfc"/></linearGradient><linearGradient id="d" x1="109.97" x2="232" y1="88.016" y2="88.016" gradientUnits="userSpaceOnUse"><stop offset="0" stop-color="#fff"/><stop offset="1" stop-color="#fff" stop-opacity="0"/></linearGradient><pattern xlink:href="#c" id="u" patternTransform="matrix(.02117 .0133 -.02117 .03369 -12.638 24.36)"/><pattern xlink:href="#d" id="c" patternTransform="rotate(32.147)scale(.12902 .20528)"/><pattern xlink:href="#d" id="t" patternTransform="matrix(.0678 0 0 .02656 -12.638 24.36)"/><filter id="k" width="1.096" height="1.096" x="-.048" y="-.048"><feGaussianBlur stdDeviation="2.441"/></filter></defs><rect width="56.002" height="56.002" x="4" y="3.969" fill="url(#e)" rx="13.002" ry="13.002"/><path fill="url(#f)" d="m14.028 33.818-3.13 4.049C13.405 50.41 20.497 53.407 29.52 53.7l.327-2.917c-16.654-2.157-11.943-14.603-15.82-16.966z"/><path fill="url(#g)" d="M14.642 13.731c-3.323 9.043-.76 13.722 2.813 17.215v-5.714c-.535-.621-1.024-1.277-1.431-2.029-.363-.669-.646-1.404-.897-2.153-.27-.81-.414-1.63-.51-2.552-.15-1.427-.277-3.032.025-4.767m11.131 31.468a8.8 8.8 0 0 1-1.494 1.98c1.081-.55 2.082-1.206 2.95-1.98z"/><path fill="url(#h)" d="M14.642 13.731c-.25 1.541-.377 4.002-.037 5.564.425 3.646 2.753 6.427 5.464 8.938v-3.647c-2.642-2.632-4.916-5.843-5.427-10.855"/><path fill="url(#i)" d="M42.972 8.677c.397 2.002.68 5.532.545 7.19-.086 1.07-.248 2.029-.54 2.975-.27.874-.56 1.728-.961 2.513-.957 1.872-2.712 1.634-4.163 3.107l8.608 3.455c.06-2.886.876-9.763-3.489-19.24"/><path fill="url(#j)" d="M43.024 8.739c-.153 7.011-2.144 10.759-5.393 13.238l.09 3.858c2.752-3.052 5.226-3.656 5.635-7.881.562-2.467.01-7.437-.332-9.216z"/><path fill="#e6e6e6" d="M32.049 11.995c-11.019 0-19.952 8.933-19.952 19.952s8.933 19.952 19.952 19.952 19.952-8.933 19.952-19.952-8.933-19.952-19.952-19.952m0 26.603a6.651 6.651 0 1 1 0-13.302 6.651 6.651 0 0 1 0 13.302"/><path fill="#fff" d="M32 25.341a6.65 6.65 0 0 0-6.648 6.65 6.649 6.649 0 1 0 13.296 0A6.65 6.65 0 0 0 32 25.34zm0 9.31a2.66 2.66 0 1 1 0-5.32 2.66 2.66 0 0 1 0 5.32" opacity=".5"/><path fill="url(#d)" d="M109.97 78.957 232 27l-31.944 122.03Z" filter="url(#k)" opacity=".54" transform="matrix(.16619 0 0 .16624 -6.6 27.412)"/><path fill="none" stroke="#d0d0d0" stroke-width=".2" d="M32 28c-2.2 0-3.989 1.79-3.989 3.99s1.79 3.99 3.989 3.99c2.2 0 3.989-1.79 3.989-3.99S34.199 28 32 28z"/><path fill="#fff" d="M32 28c-2.2 0-3.989 1.79-3.989 3.99s1.79 3.99 3.989 3.99c2.2 0 3.989-1.79 3.989-3.99S34.199 28 32 28m0 6.65a2.66 2.66 0 1 1 0-5.319 2.66 2.66 0 0 1 0 5.319" opacity=".2"/><path fill="url(#l)" d="M32 28c-2.2 0-3.989 1.79-3.989 3.99s1.79 3.99 3.989 3.99c2.2 0 3.989-1.79 3.989-3.99S34.199 28 32 28m0 6.65a2.66 2.66 0 1 1 0-5.319 2.66 2.66 0 0 1 0 5.319" opacity=".5"/><path fill="#323232" d="M32 24.011c-4.399 0-7.977 3.58-7.977 7.98S27.6 39.97 32 39.97c4.399 0 7.977-3.58 7.977-7.98S36.4 24.011 32 24.011m0 14.629a6.65 6.65 0 0 1-6.648-6.65 6.649 6.649 0 1 1 13.296 0A6.65 6.65 0 0 1 32 38.64" opacity=".1"/><path fill="#666" d="M32.05 11.921c-11.059 0-20.025 8.966-20.025 20.025s8.966 20.025 20.025 20.025 20.025-8.966 20.025-20.025-8.966-20.025-20.025-20.025m0 .347c10.868 0 19.679 8.81 19.679 19.68 0 10.867-8.81 19.678-19.679 19.678s-19.679-8.81-19.679-19.679 8.81-19.679 19.679-19.679" opacity=".5"/><path fill="url(#m)" d="M30.654 4.179c.38 2.181.232 4.197.044 5.99-.12 1.16-.311 2.2-.652 3.22-.315.94-.663 1.857-1.119 2.698-1.173 2.169-2.872 3.754-4.625 5.454-3.733 3.621-8.85 6.506-11.492 10.03-1.42 1.895-2.373 4.225-2.199 6.684.397 5.581 4.732 13.01 13.314 14.785-3.374-2.693-8.898-7.165-8.467-12.327.5-6.003 3.967-9.707 8.68-13.482 6.438-5.154 10.554-14.47 6.516-23.052"/><path fill="url(#n)" d="M30.673 4.163c.284 17.215-19.869 17.58-20.062 30.986-.005.376-.012 1.867.03 2.256 1.12-9.947 18.713-14.559 20.076-26.239.427-1.963.272-5.065-.044-7.003"/><path fill="url(#o)" d="M31.997 29.275c-1.5 0-2.713 1.208-2.713 2.707s1.213 2.726 2.713 2.726 2.72-1.226 2.72-2.726-1.22-2.707-2.72-2.707m0 .218c1.38 0 2.502 1.11 2.502 2.49a2.51 2.51 0 0 1-2.502 2.507 2.505 2.505 0 0 1-2.496-2.508 2.49 2.49 0 0 1 2.496-2.49z"/><path fill="url(#p)" d="M43.081 39.059c2.287 6.353-5.334 12.627-10.031 13.368l-1.684 1.253c7.366.413 13.24-1.2 14.264-5.593.954-3.31.043-6.713-2.549-9.028"/><path fill="url(#q)" d="M45.009 19.767c-2.815 3.044-2.072 13.175-.132 13.904l-3.305-5.368c.694-2.26 1.066-7.04 3.437-8.536"/><path fill="url(#r)" d="M44.577 46.643c-.287 2.276-1.756 3.938-3.557 5.992 3.206-1.16 6.368-3.48 7.508-7.275l-3.772-10.456c-1.924-1.38-4.094-3.066-4.313-7.136-.392 3.18.908 6.71 3.36 13.155.261.687 1.014 3.812.774 5.72"/><path fill="url(#s)" d="M45.009 19.767c-2.535 1.165-4.374 5.468-4.537 7.184-.686 7.187 9.512 15.488 7.46 19.924 3.261-6.822-4.191-14.251-5.188-18.567-.972-4.213.988-7.39 2.265-8.541"/><path fill="url(#t)" d="M30.673 4.163c.284 17.215-19.869 17.58-20.062 30.986-.005.376-.012 1.867.03 2.256 1.12-9.947 18.713-14.559 20.076-26.239.427-1.963.272-5.065-.044-7.003" opacity=".04"/><path fill="url(#u)" d="M30.654 4.179c.38 2.181.232 4.197.044 5.99-.12 1.16-.311 2.2-.652 3.22-.315.94-.663 1.857-1.119 2.698-1.173 2.169-2.872 3.754-4.625 5.454-3.733 3.621-8.85 6.506-11.492 10.03-1.42 1.895-2.373 4.225-2.199 6.684.397 5.581 4.732 13.01 13.314 14.785-3.374-2.693-8.898-7.165-8.467-12.327.5-6.003 3.938-9.744 8.68-13.482 6.389-5.034 10.542-14.433 6.516-23.052" opacity=".04"/><path fill="url(#v)" d="M23.121 41.639q-.11.127-.2.273c-.527.782-.81 1.742-.925 2.774l-.004.027v.006c-.044.339-.06.686-.057 1.037a14 14 0 0 0 .061 1.408v.01q.016.183.037.365c.178 1.574.573 3.088.943 4.229l.002.008.034.105.002.004q.094.286.183.535v.002l.012.031-.043-.011c-1.498-.573-2.88-.502-3.248.736.859-.812 2.863-.55 3.004-.187 1.233.109 1.003.075 1.943.226l-.002-.002c.321.055.676.112 1.14.184q0-.005-.003-.008c.291.038.597.09.902.133l1.647.185.695.006 1.055.059h.008l6.775-.125c.18-.814 3.16-1.804 4.262.023-.45-2.643-2.062-2.916-3.867-1.832q-.123.05-.247.11c1.214-1.38 2.21-3.294 1.723-4.399-.088.299-.23.59-.41.875a1.3 1.3 0 0 0-.148-.484l-.002.004v-.004c-.4 1.124-1.733 1.914-3.229 2.543.437-.867.648-1.784.576-2.645.035-.345.01-.686-.084-1.011-.625.419-.91.741-1.207 1.173-.47.549-.528.817-.728 1.079-.474.615-1.463 1.49-4.324 1.882l-.002-.017c.144-.945-.193-2.352-.407-3.022a9 9 0 0 0-.392 1.393c-.095.366-.213.75-.366 1.11-2.078-1.34-3.744-3.778-4.57-5.74v-.003l-.004-.01c-.313-.908-.505-1.733-.55-2.367v-.002q.005-.062.015-.12l-.006.007-.004.004-.006.006-.003.004a3 3 0 0 1 .02-.567z"/></svg>