<svg xmlns="http://www.w3.org/2000/svg" xmlns:xlink="http://www.w3.org/1999/xlink" width="64" height="64"><defs><radialGradient xlink:href="#a" id="c" cx="139.83" cy="462.64" r="9.181" gradientTransform="matrix(-1.4129 -.6322 .69731 -1.2767 14.802 1141.7)" gradientUnits="userSpaceOnUse"/><radialGradient xlink:href="#a" id="e" cx="139.83" cy="462.64" r="9.181" gradientTransform="matrix(-1.4129 -.6322 .69731 -1.2767 14.802 1141.7)" gradientUnits="userSpaceOnUse"/><linearGradient id="b" x1="7.937" x2="7.937" y1="15.081" y2="1.852" gradientTransform="scale(3.7796)" gradientUnits="userSpaceOnUse"><stop offset="0" stop-color="#f1efeb"/><stop offset="1" stop-color="#fdfcfc"/></linearGradient><linearGradient id="a"><stop offset="0" stop-color="#ffc7c7"/><stop offset="1" stop-color="#ff3f3f" stop-opacity=".498"/></linearGradient><filter id="d" width="2.391" height="2.584" x="-.696" y="-.792" color-interpolation-filters="sRGB"><feGaussianBlur stdDeviation="8.402"/></filter><filter id="f" width="2.391" height="2.584" x="-.696" y="-.792" color-interpolation-filters="sRGB"><feGaussianBlur stdDeviation="8.402"/></filter></defs><rect width="56.002" height="56.002" x="4" y="3.969" fill="url(#b)" rx="13.002" ry="13.002"/><g transform="translate(-21.217 -77.335)scale(.29048)"><ellipse cx="183.11" cy="385.99" fill="#ffdfc6" rx="55.401" ry="44.475"/><ellipse cx="183.53" cy="405.62" fill="#ff7c7c" fill-opacity=".49" rx="19.312" ry="16.222"/><ellipse cx="177.41" cy="405.91" fill="#a72929" rx="3.219" ry="2.897"/><ellipse cx="188.68" cy="405.91" fill="#a72929" rx="3.219" ry="2.897"/><ellipse cx="-170.5" cy="384.15" rx="4.212" ry="4.712" transform="scale(-1 1)"/><ellipse cx="195.71" cy="384.15" rx="4.212" ry="4.712"/><path d="M182.96 322.33c-25.074 0-42.844 6.926-54.469 17.438-10.898 9.855-16.348 22.774-17.406 35.906-.368 3.247-.163 6.586.5 9.688.687 3.214 2.48 6.39 5 8.5 3.68 3.08 13.5 5 13.5 5s-4.637-12.617-.5-24.5c1.992-5.724 9.5-15.5 9.5-15.5s-9.918-2.048-14.5-.5c-3.606 1.217-7.015 3.638-9.406 6.687 2.507-8.748 7.269-16.982 14.719-23.719 11.172-10.102 28.376-16.875 53.062-16.875s42.047 6.77 53.344 16.875c7.56 6.763 12.392 15.03 14.938 23.812-2.394-3.095-5.856-5.55-9.5-6.781-4.582-1.547-14.5.5-14.5.5s7.507 9.777 9.5 15.5c4.137 11.884-.5 24.5-.5 24.5s9.82-1.92 13.5-5c2.52-2.11 4.313-5.286 5-8.5.483-2.263.734-4.641.687-7.031h.063c-.51-14.027-6.064-28.054-17.812-38.562s-29.644-17.438-54.72-17.438"/><ellipse cx="139.83" cy="462.64" fill="url(#c)" filter="url(#d)" rx="14.496" ry="12.728" transform="matrix(.82687 0 0 .91357 36.393 -23.787)"/><path fill="none" d="M198.56 372.135a3.668 3.447-37.282 0 0-2.736-1.308 3.668 3.447-37.282 0 0-2.874 1.357m-26.035-.062a3.447 3.668-52.72 0 1 2.736-1.308 3.447 3.668-52.72 0 1 2.874 1.358"/><ellipse cx="139.83" cy="462.64" fill="url(#e)" filter="url(#f)" rx="14.496" ry="12.728" transform="matrix(.82687 0 0 .91357 98.107 -23.847)"/></g></svg>