<svg xmlns="http://www.w3.org/2000/svg" viewBox="0 0 64 64"><rect width="56.002" height="56.002" x="4" y="3.969" fill="#f4e7e0" rx="13.002" ry="13.002"/><path d="M3.998 45.998v1c0 7.203 5.8 13.004 13.004 13.004h29.996c7.203 0 13.004-5.8 13.004-13.004v-1c0 7.203-5.8 13.002-13.004 13.002H17.002A12.975 12.975 0 0 1 3.998 45.998" opacity=".1"/><path fill="#fff" d="M3.998 18.004v-1C3.998 9.801 9.798 4 17.002 4h29.996c7.203 0 13.004 5.8 13.004 13.004v1c0-7.203-5.8-13.002-13.004-13.002H17.002A12.975 12.975 0 0 0 3.998 18.004" opacity=".5"/><g stroke-width="1.304"><path fill="#505556" d="M18.957 20.261a2.603 2.603 0 0 0-2.609 2.609v15.652a2.603 2.603 0 0 0 2.609 2.608h9.13v7.826l7.827-7.826h9.13a2.603 2.603 0 0 0 2.609-2.608V22.87a2.603 2.603 0 0 0-2.61-2.609zm1.304 2.609H43.74c.723 0 1.305.581 1.305 1.304v13.043c0 .723-.582 1.304-1.305 1.304h-8.608l-4.435 4.436V38.52H20.26a1.3 1.3 0 0 1-1.304-1.304V24.174a1.3 1.3 0 0 1 1.304-1.304z" style="paint-order:normal"/><path fill="#f48c4f" d="M43.791 15.045a1.3 1.3 0 0 0-1.167.635L32.215 32.591a1.301 1.301 0 1 0 2.217 1.362l10.409-16.91a1.301 1.301 0 0 0-1.05-1.998" color="#000" style="font-feature-settings:normal;font-variant-alternates:normal;font-variant-caps:normal;font-variant-ligatures:normal;font-variant-numeric:normal;font-variant-position:normal;isolation:auto;mix-blend-mode:normal;shape-padding:0;text-decoration-color:#000;text-decoration-line:none;text-decoration-style:solid;text-indent:0;text-orientation:mixed;text-transform:none;white-space:normal"/></g></svg>