<svg xmlns="http://www.w3.org/2000/svg" fill="none" style="-webkit-print-color-adjust:exact" viewBox="0 0 64 64"><rect width="56.002" height="56.002" x="4" y="3.969" fill="#f2f2f2" rx="13.002" ry="13.002"/><path fill="#000" d="M3.998 45.998v1c0 7.203 5.8 13.004 13.004 13.004h29.996c7.203 0 13.004-5.8 13.004-13.004v-1c0 7.203-5.8 13.002-13.004 13.002H17.002A12.975 12.975 0 0 1 3.998 45.998" opacity=".1"/><path fill="#fff" d="M3.998 18.004v-1C3.998 9.801 9.798 4 17.002 4h29.996c7.203 0 13.004 5.8 13.004 13.004v1c0-7.203-5.8-13.002-13.004-13.002H17.002A12.975 12.975 0 0 0 3.998 18.004" opacity=".5"/><path fill="#000" d="M3.998 45.998v1c0 7.203 5.8 13.004 13.004 13.004h29.996c7.203 0 13.004-5.8 13.004-13.004v-1c0 7.203-5.8 13.002-13.004 13.002H17.002A12.975 12.975 0 0 1 3.998 45.998" opacity=".1"/><path fill="#6d4aff" d="M31.913 12.5c-9.54 0-17.274 7.727-17.274 17.261v17.375a3.347 3.347 0 0 0 3.348 3.345h28.211a2.99 2.99 0 0 0 2.989-2.988V29.761c0-9.532-7.733-17.261-17.274-17.261m9.943 17.165-7.55 6.356a3.665 3.665 0 0 1-4.718 0l-7.55-6.356c0-5.393 4.376-9.766 9.773-9.766h.272c5.397 0 9.773 4.373 9.773 9.766"/><path fill="#a58fff" d="M34.311 36.098c-.786.636-2.832 1.528-4.721 0-1.888-1.529-5.807-4.907-7.531-6.405h.009l-.033-.028c0-5.393 4.374-9.766 9.77-9.766h.271c5.396 0 9.77 4.373 9.77 9.766l-.033.028h.03v20.788h4.342a2.99 2.99 0 0 0 2.989-2.987V29.761c0-9.532-7.73-17.261-17.267-17.261S14.64 20.228 14.64 29.761v1.091l10.679 9.179c.787.749 2.855 1.797 4.833 0a137 137 0 0 0 4.159-3.933"/></svg>