<svg xmlns="http://www.w3.org/2000/svg" class="icon" viewBox="0 0 1024 1024"><rect width="896.03" height="896.03" x="64" y="63.498" fill="#f2f2f2" rx="208.03" ry="208.03" style="fill:#ff9102;fill-opacity:1"/><path d="M63.968 735.97v16c0 115.25 92.81 208.06 208.06 208.06h479.94c115.25 0 208.06-92.81 208.06-208.06v-16c0 115.25-92.811 208.03-208.06 208.03h-479.94c-115.25 0-208.06-92.781-208.06-208.03" opacity=".1"/><path fill="#fff" d="M63.968 288.06v-16c0-115.25 92.81-208.06 208.06-208.06h479.94c115.25 0 208.06 92.81 208.06 208.06v16c0-115.25-92.811-208.03-208.06-208.03h-479.94c-115.25 0-208.06 92.781-208.06 208.03" opacity=".5"/><g fill="#fff"><path d="M396.098 663.442a9.634 9.634 0 0 0-11.15-8.078 9.76 9.76 0 0 0-6.258 4.02l-37.168 51.572a9.73 9.73 0 0 0-1.825 7.217 10.04 10.04 0 0 0 3.887 6.379 9.86 9.86 0 0 0 7.299 1.68 9.6 9.6 0 0 0 6.258-3.983l37.15-51.498a9.66 9.66 0 0 0 1.807-7.31m72.384 33.242a9.66 9.66 0 0 0-13.283 3.545l-34.961 59.684a9.7 9.7 0 0 0 3.457 13.259 9.66 9.66 0 0 0 7.336 1.014 9.67 9.67 0 0 0 5.902-4.477l34.943-59.685a9.687 9.687 0 0 0-3.394-13.34m-33.647-26.955a9.656 9.656 0 0 0-13.356 2.96l-56.328 88.376a9.695 9.695 0 0 0 2.77 13.645 9.66 9.66 0 0 0 10.94-.367 9.7 9.7 0 0 0 2.585-2.862l56.345-88.375a9.72 9.72 0 0 0 1.282-7.3 9.7 9.7 0 0 0-4.238-6.077"/><path d="m698.006 680.674 1.004-1.096a445 445 0 0 0 4.944-5.483l1.095-1.26c1.824-2.066 3.65-4.186 5.346-6.324.365-.439.712-.895 1.077-1.352a279 279 0 0 0 4.561-5.81l.84-1.098a297 297 0 0 0 4.872-6.725l1.076-1.553a278 278 0 0 0 4.27-6.378c.164-.274.347-.53.51-.785a288 288 0 0 0 4.416-7.127c.329-.567.658-1.133 1.004-1.7 1.387-2.394 2.774-4.788 4.087-7.31l.11-.164c1.35-2.486 2.627-5.008 3.905-7.548.291-.584.602-1.188.894-1.827a909 909 0 0 0 3.65-7.657l.272-.62a260 260 0 0 0 3.121-7.312c.255-.602.493-1.224.747-1.827a290 290 0 0 0 3.03-7.894c.127-.384.273-.786.401-1.188q1.296-3.564 2.464-7.182c.181-.603.382-1.188.565-1.827.857-2.687 1.66-5.483 2.427-8.132.146-.512.292-1.042.42-1.572a122 122 0 0 0 1.824-7.31c.128-.548.273-1.097.401-1.644.658-2.76 1.26-5.483 1.826-8.37.126-.603.236-1.225.364-1.827.475-2.504.93-5.026 1.332-7.567 0-.456.165-.913.238-1.37a280 280 0 0 0 1.168-8.607c.09-.676.163-1.353.236-2.028.292-2.687.566-5.484.785-8.114v-.896a238 238 0 0 0 .53-8.845v-2.138c.11-2.997.182-6.013.182-9.046 0-68-26.972-133.213-74.981-181.296-48.01-48.082-113.124-75.095-181.02-75.095-67.895 0-133.009 27.013-181.018 75.095C282.971 370.948 256 436.162 256 504.161c0 2.632 0 5.263.128 7.876 0 .822 0 1.627.09 2.449 0 1.827.166 3.655.275 5.482 0 .914.11 1.828.182 2.724q.192 2.741.438 5.482l.219 2.376c.273 2.558.566 5.117.894 7.674 7.784 58.543 35.55 112.585 78.588 152.958l13.102-22.715c-38.42-37.97-62.273-88.27-67.385-142.084L534.04 401.22a32.19 32.19 0 0 1 30.276.849 32.29 32.29 0 0 1 16.198 25.631l21.896 289.266a231.4 231.4 0 0 1-118.22 16.703l-13.684 23.757a256.9 256.9 0 0 0 133.912-13.797l.565-.238a238 238 0 0 0 7.792-3.198l1.551-.657a228 228 0 0 0 6.806-3.108l1.295-.602a241 241 0 0 0 7.5-3.747l1.642-.858a474 474 0 0 0 6.714-3.655l.895-.493a285 285 0 0 0 7.207-4.296l1.642-1.04a229 229 0 0 0 6.843-4.442l.291-.183a222 222 0 0 0 6.898-4.86c.53-.366 1.058-.75 1.57-1.152a259 259 0 0 0 6.714-5.08l.365-.292a222 222 0 0 0 6.204-5.1l1.477-1.241a634 634 0 0 0 6.241-5.483l.803-.75a459 459 0 0 0 5.473-5.19l1.314-1.278a197 197 0 0 1 5.785-6.013"/><path d="M486.656 598.146c23.066 0 41.766-18.727 41.766-41.83 0-23.101-18.7-41.83-41.766-41.83-23.068 0-41.767 18.729-41.767 41.83 0 23.103 18.7 41.83 41.767 41.83"/></g></svg>