<svg xmlns="http://www.w3.org/2000/svg" viewBox="0 0 64 64"><path fill="#f55" d="M17.002 3.97h29.996C54.174 3.97 60 9.796 60 16.972v29.996c0 7.176-5.826 13.002-13.002 13.002H17.002C9.826 59.97 4 54.144 4 46.968V16.972C4 9.796 9.826 3.97 17.002 3.97" style="display:inline;isolation:isolate;fill:#ff2811;fill-opacity:1"/><path fill="#ff7e7f" d="M1024 256.028v-20.896H704.452V0h-22.244v235.132H340.895V0h-21.316v235.132H0v20.896h319.576v235.094H0v20.896h319.576v235.096H0v20.896h319.576V1024h21.316V768.011h341.313v255.987h22.244V768.011H1024v-20.896H704.452V512.019H1024v-20.896H704.452V256.028ZM682.208 747.112H340.895V512.019h341.313zm0-255.99H340.895V256.028h341.313z" opacity=".2" style="display:inline" transform="matrix(.05469 0 0 .05273 4 5)"/><path d="M3.998 45.998v1c0 7.203 5.8 13.004 13.004 13.004h29.996c7.203 0 13.004-5.8 13.004-13.004v-1c0 7.203-5.8 13.002-13.004 13.002H17.002A12.975 12.975 0 0 1 3.998 45.998" opacity=".15" style="display:inline"/><path fill="#fff" d="M3.998 18.004v-1C3.998 9.801 9.798 4 17.002 4h29.996c7.203 0 13.004 5.8 13.004 13.004v1c0-7.203-5.8-13.002-13.004-13.002H17.002A12.975 12.975 0 0 0 3.998 18.004" opacity=".15" style="display:inline"/><path fill="#ffd8d8" d="M192.02 533.989h-42.023v64.014h-42.989V768h127.998V598.003H192.02ZM192.005 726h-42.999v-85.998h42.999zm84.999 62.999h43.01v63.995h42.985v-63.995h42.002V576.003H277.004Zm85.986-276.993h-43v63.982h43zm341.02-127.987H661v41.987h43.01zM534 405.016h-43.009v106.977h-42.99v234.021h128.001V511.991H534Zm-.001 298.985h-43V555.004h43zM831.979 768h43.012v-63.998h-43.012ZM618.997 576.003h127.997V426.006H618.997Zm42.003 43h43.01v-42.987H661Zm213.979-383.98v-64H832v64h-43.005v468.978h127.997V235.023Zm.013 425.979h-43V277.009h43z" style="display:inline" transform="translate(3.997 3.996)scale(.0547)"/></svg>