<svg xmlns="http://www.w3.org/2000/svg" viewBox="0 0 64 64"><rect width="56.002" height="56.002" x="4" y="3.969" fill="#d9d9d9" rx="13.002" ry="13.002"/><path d="M3.998 45.998v1c0 7.203 5.8 13.004 13.004 13.004h29.996c7.203 0 13.004-5.8 13.004-13.004v-1c0 7.203-5.8 13.002-13.004 13.002H17.002A12.975 12.975 0 0 1 3.998 45.998" opacity=".1"/><path fill="#fff" d="M3.998 18.004v-1C3.998 9.801 9.798 4 17.002 4h29.996c7.203 0 13.004 5.8 13.004 13.004v1c0-7.203-5.8-13.002-13.004-13.002H17.002A12.975 12.975 0 0 0 3.998 18.004" opacity=".5"/><path fill="#f2f2f2" d="M17.153 27.307v1.454a5.805 5.805 0 0 0 5.818 5.819h1.455v-4.364h4.363c.806 0 1.455.649 1.455 1.454s-.649 1.455-1.455 1.455h-1.454v1.454H38.97l5.818-7.272z"/><path fill="#fff" d="m21.517 11.307 23.272 16-5.818 5.818-8.727-5.818c-5.818-4.364-8.727-8.727-8.727-16"/><path fill="#f7584c" d="M44.062 24.398c-1.348.001-2.685.499-3.636 1.454L22.972 43.306c-.956.952-1.453 2.289-1.455 3.637a5.087 5.087 0 0 0 5.091 5.09c1.348 0 2.685-.498 3.636-1.454l17.454-17.454c.956-.951 1.453-2.288 1.455-3.636a5.087 5.087 0 0 0-5.091-5.091"/><path fill="#f9f9f9" d="m27.335 41.852-.727.727 1.09 1.091-.727.727-1.09-1.09-.728.727 1.091 1.09-1.09 1.092.726.727 1.091-1.091.728.727-1.091 1.091.727.727 1.09-1.09 1.092 1.09.727-.727-1.09-1.09.726-.728 1.091 1.09.728-.726-1.091-1.091 1.09-1.091-.727-.727-1.09 1.09-.728-.727 1.091-1.09-.727-.728-1.091 1.09zm1.09 2.545.728.728-.727.727-.727-.727z"/><path fill="#c4c4c4" d="M25.88 15.761v1.454l8.727 6v-1.454z"/></svg>