<svg xmlns="http://www.w3.org/2000/svg" image-rendering="optimizeSpeed" viewBox="0 0 64 64"><defs><linearGradient id="a" x1="66" x2="66" y1="19" y2="45" gradientTransform="translate(-35)" gradientUnits="userSpaceOnUse"><stop offset="0" stop-color="#151617"/><stop offset="1" stop-color="#0c0c0c"/></linearGradient><linearGradient id="b" x1="67" x2="67" y1="18.9" y2="45.1" gradientTransform="translate(-35)" gradientUnits="userSpaceOnUse"><stop offset="0" stop-color="#131515"/><stop offset="1" stop-color="#080c0c"/></linearGradient></defs><rect width="56.002" height="56.002" x="4" y="3.969" fill="#4d4d4d" rx="13.002" ry="13.002"/><path d="M3.998 45.998v1c0 7.203 5.8 13.004 13.004 13.004h29.996c7.203 0 13.004-5.8 13.004-13.004v-1c0 7.203-5.8 13.002-13.004 13.002H17.002A12.975 12.975 0 0 1 3.998 45.998" opacity=".35"/><path fill="#fff" d="M3.998 18.004v-1C3.998 9.801 9.798 4 17.002 4h29.996c7.203 0 13.004 5.8 13.004 13.004v1c0-7.203-5.8-13.002-13.004-13.002H17.002A12.975 12.975 0 0 0 3.998 18.004" opacity=".15"/><g fill-rule="evenodd"><circle cx="32" cy="32" r="21" fill="#c3c3c3" style="paint-order:normal"/><circle cx="32" cy="32" r="15" opacity=".9" style="paint-order:normal"/><circle cx="32" cy="32" r="14" fill="#fff" opacity=".15" style="paint-order:normal"/><path fill="url(#a)" stroke="url(#b)" stroke-linecap="round" stroke-linejoin="round" stroke-width=".1" d="M32 19a.3.3 0 0 0-.3.3v2.4a.3.3 0 1 0 .6 0v-2.4a.3.3 0 0 0-.3-.3m-3.365.443a.3.3 0 0 0-.211.368l.361 1.351a.3.3 0 1 0 .58-.154l-.363-1.354a.3.3 0 0 0-.367-.21zm6.73 0a.3.3 0 0 0-.367.211l-.363 1.354a.3.3 0 1 0 .58.154l.361-1.352a.3.3 0 0 0-.21-.367zm-9.636 1.268a.301.301 0 0 0-.338.441l.699 1.211a.3.3 0 1 0 .52-.299l-.7-1.212a.3.3 0 0 0-.181-.141m12.543 0a.3.3 0 0 0-.182.14l-.7 1.213a.3.3 0 1 0 .52.3l.7-1.212a.301.301 0 0 0-.338-.441M23.02 22.719a.3.3 0 0 0-.213.513l.99.99a.301.301 0 0 0 .426-.425l-.99-.99a.3.3 0 0 0-.213-.088m17.96 0a.3.3 0 0 0-.212.088l-.99.99a.301.301 0 0 0 .425.426l.989-.99a.301.301 0 0 0-.211-.514zm-20.056 2.64a.3.3 0 0 0-.182.141.3.3 0 0 0 .11.41l1.212.7a.3.3 0 1 0 .3-.52l-1.212-.7a.3.3 0 0 0-.228-.03zm22.152 0a.3.3 0 0 0-.229.032l-1.21.699a.3.3 0 1 0 .298.52l1.213-.7a.3.3 0 0 0 .11-.41.3.3 0 0 0-.182-.14zM19.81 28.424a.299.299 0 1 0-.156.578l1.353.363a.3.3 0 1 0 .154-.58zm24.379 0-1.352.361a.3.3 0 1 0 .154.58l1.354-.363a.3.3 0 0 0 .21-.367.3.3 0 0 0-.366-.211m-24.89 3.275a.3.3 0 1 0 0 .602h2.399a.3.3 0 1 0 0-.602zm23 0a.3.3 0 1 0 0 .602h2.399a.3.3 0 1 0 0-.602zm-21.292 2.936-1.354.363a.3.3 0 0 0-.21.367c.042.16.206.254.366.211l1.352-.361a.3.3 0 1 0-.154-.58m21.984 0a.3.3 0 1 0-.155.58l1.352.361a.299.299 0 1 0 .156-.578zM22.29 37.359a.3.3 0 0 0-.227.032l-1.213.699a.3.3 0 1 0 .3.52l1.212-.7a.3.3 0 0 0-.072-.55zm19.418 0a.3.3 0 0 0-.072.55l1.21.7a.3.3 0 1 0 .301-.52l-1.213-.698a.3.3 0 0 0-.226-.032m-17.7 2.33a.3.3 0 0 0-.212.088l-.99.99a.301.301 0 0 0 .425.426l.99-.99a.301.301 0 0 0-.212-.514zm15.98 0a.3.3 0 0 0-.212.514l.99.99a.3.3 0 0 0 .424-.426l-.989-.99a.3.3 0 0 0-.212-.088zM26.27 41.496a.3.3 0 0 0-.182.14l-.7 1.212a.3.3 0 1 0 .52.3l.7-1.213a.3.3 0 0 0-.338-.439m11.457 0a.3.3 0 0 0-.338.44l.699 1.212a.3.3 0 1 0 .52-.3l-.7-1.211a.3.3 0 0 0-.181-.14zM31.998 42a.3.3 0 0 0-.3.3v2.4a.3.3 0 1 0 .6 0v-2.4a.3.3 0 0 0-.3-.3m-2.848.625a.3.3 0 0 0-.367.213l-.361 1.351a.299.299 0 1 0 .578.156l.363-1.353a.3.3 0 0 0-.213-.367m5.696 0a.3.3 0 0 0-.213.367l.363 1.354c.043.16.207.254.367.21a.3.3 0 0 0 .211-.367l-.361-1.351a.3.3 0 0 0-.367-.213" style="paint-order:normal"/><ellipse cx="32" cy="32" fill="#fff" opacity=".35" rx="8" ry="7.999" style="paint-order:normal"/><circle cx="32" cy="32" r="6" fill="#c3c3c3" style="paint-order:normal"/><circle cx="8" cy="31" r="1" fill="#c3c3c3" opacity=".9" style="paint-order:normal"/><circle cx="56" cy="31" r="1" fill="#c3c3c3" opacity=".9" style="paint-order:normal"/><circle cx="32" cy="8" r="1" fill="#c3c3c3" opacity=".9" style="paint-order:normal"/><circle cx="32" cy="56" r="1" fill="#c3c3c3" opacity=".9" style="paint-order:normal"/><path fill="#fff" stroke="#697e86" stroke-linecap="round" stroke-linejoin="round" stroke-width=".2" d="M29 13h6l-3 3v0z" opacity=".9" style="paint-order:normal"/></g></svg>