<svg xmlns="http://www.w3.org/2000/svg" width="64" height="64"><defs><linearGradient id="b" x1="540" x2="540" y1="4" y2="1024" gradientTransform="translate(-44.253 28.643)scale(.0339)" gradientUnits="userSpaceOnUse"><stop offset="0" stop-color="#c8c4b7"/><stop offset="1" stop-color="#888"/></linearGradient><linearGradient id="d" x1="500" x2="500" y1="4" y2="1024" gradientTransform="translate(28.589 28.903)scale(.034)" gradientUnits="userSpaceOnUse"><stop offset="0" stop-color="#fff"/><stop offset="1" stop-color="#e6e6e6"/></linearGradient><linearGradient id="c" x1="555.95" x2="555.95" y1="2.854" y2="932.3" gradientTransform="translate(28.589 28.903)scale(.034)" gradientUnits="userSpaceOnUse"><stop offset="0"/><stop offset="1" stop-color="#666"/></linearGradient><linearGradient id="a" x1="7.937" x2="7.937" y1="15.081" y2="1.852" gradientTransform="scale(3.7796)" gradientUnits="userSpaceOnUse"><stop offset="0" stop-color="#1560ff"/><stop offset="1" stop-color="#15afff"/></linearGradient></defs><rect width="56.002" height="56.002" x="4" y="3.969" fill="url(#a)" rx="13.002" ry="13.002"/><path fill="#fff" d="m18.339 31-.011-9.751 10.938-1.63V31zm12.752-11.671 14.578-2.328v14H31.091zM45.673 33l-.004 14-14.578-2.249v-11.75zM29.27 44.498l-10.931-1.644v-9.857h10.927v11.498z"/><circle cx="46" cy="46" r="16" fill="url(#b)"/><path fill="url(#c)" d="M41.531 40.27h8.725c3.398 0 6.18 2.78 6.18 6.18s-2.781 6.18-6.18 6.18H41.53c-3.399 0-6.18-2.781-6.18-6.18 0-3.4 2.781-6.18 6.18-6.18" image-rendering="optimizeSpeed"/><circle cx="50.252" cy="46.451" r="4.362" fill="url(#d)" image-rendering="optimizeSpeed"/></svg>