<svg xmlns="http://www.w3.org/2000/svg" width="64" height="64" image-rendering="optimizeSpeed"><defs><linearGradient id="a" x1="7.937" x2="7.937" y1="15.081" y2="1.852" gradientTransform="scale(3.7796)" gradientUnits="userSpaceOnUse"><stop offset="0" stop-color="#1fc13f"/><stop offset="1" stop-color="#9fde46"/></linearGradient><linearGradient id="b" x1="520.03" x2="520.03" y1="283.11" y2="825.22" gradientTransform="translate(-13.99 -15.653)scale(.08982)" gradientUnits="userSpaceOnUse"><stop offset="0" stop-color="#fff"/><stop offset="1" stop-color="#d7d7d7"/></linearGradient></defs><rect width="56.002" height="56.002" x="4" y="3.969" fill="url(#a)" rx="13.002" ry="13.002"/><path fill="url(#b)" d="M32 14c-9.982 0-18 8.018-18 18s8.018 18 18 18 18-8.018 18-18-8.018-18-18-18m7.936 21.027-7.362 7.363a.88.88 0 0 1-.574.246.74.74 0 0 1-.572-.245l-7.363-7.364a.74.74 0 0 1-.246-.572.74.74 0 0 1 .245-.573l1.146-1.146a.79.79 0 0 1 1.145 0l3.272 3.273c.247.246.737.082.737-.327V22.181c0-.491.327-.819.818-.819h1.638c.49 0 .817.328.817.819v13.582c0 .327.41.573.737.327l3.272-3.273a.79.79 0 0 1 1.145 0l1.146 1.146a.74.74 0 0 1 .245.573q.001.245-.245.49z"/></svg>