<svg xmlns="http://www.w3.org/2000/svg" viewBox="0 0 16.933 16.933"><rect width="14.816" height="14.816" x="1.058" y="1.058" fill="#535e67" rx="3.44" ry="3.44"/><path fill="#fff" d="M12.395 4.234H5.52l-.074.36.198.025c.485.062.709.274.709.672 0 .111-.025.435-.05.534l-.957 5.284c-.174.858-.41 1.119-1.094 1.206l-.211.024-.062.361h3.58l.062-.36-.261-.025c-.572-.05-.82-.261-.82-.684 0-.137.024-.348.05-.522l.472-2.574h.932c.46 0 .82.112.982.286.162.187.286.572.286.908 0 .05-.012.137-.025.26v.1h.398l.659-3.605h-.41l-.025.062-.199.597a1.5 1.5 0 0 1-.274.435c-.298.336-.621.46-1.23.46H7.149l.348-1.94c.1-.546.224-.894.335-1.006.261-.249.585-.324 1.43-.324 1.554 0 2.536.634 3.22 2.076l.472-.149z" aria-label="F"/><path d="M1.058 12.17v.265a3.433 3.433 0 0 0 3.44 3.44h7.937a3.433 3.433 0 0 0 3.44-3.44v-.265a3.433 3.433 0 0 1-3.44 3.44H4.498a3.433 3.433 0 0 1-3.44-3.44" opacity=".15"/><path fill="#fff" d="M1.058 4.763V4.5a3.433 3.433 0 0 1 3.44-3.44h7.937a3.433 3.433 0 0 1 3.44 3.44v.265a3.433 3.433 0 0 0-3.44-3.44H4.498a3.433 3.433 0 0 0-3.44 3.44z" opacity=".15"/></svg>