<svg xmlns="http://www.w3.org/2000/svg" width="64" height="64" image-rendering="optimizeSpeed"><defs><linearGradient id="a" x1="7.937" x2="7.937" y1="15.081" y2="1.852" gradientTransform="scale(3.7796)" gradientUnits="userSpaceOnUse"><stop offset="0" stop-color="#767574"/><stop offset="1" stop-color="#d1e7ee"/></linearGradient></defs><rect width="56.002" height="56.002" x="4" y="3.969" fill="url(#a)" rx="13.002" ry="13.002"/><rect width="51.996" height="51.939" x="6.002" y="6" fill="#030000" rx="11" ry="11"/><rect width="46.002" height="46.002" x="9" y="9" fill="#262626" rx="8" ry="8"/><g fill="#fff"><path d="M15 18.409v-1.537l5 2.846v1.451l-5 2.846v-1.537l3.764-2.028z"/><rect width="6" height="1" x="20" y="26" rx="0" ry="0"/><path d="M32 9v46.002h15.002c4.432 0 8-3.568 8-8V17c0-4.432-3.568-8-8-8z" opacity=".05"/><path d="M38.5 18.409v-1.537l5 2.846v1.451l-5 2.846v-1.537l3.764-2.028z"/><rect width="6" height="1" x="43.5" y="26" rx="0" ry="0"/></g></svg>