<svg xmlns="http://www.w3.org/2000/svg" xmlns:xlink="http://www.w3.org/1999/xlink" viewBox="0 0 64 64"><defs><linearGradient xlink:href="#a" id="c" x1="24" x2="60" y1="29" y2="29"/><linearGradient id="a" gradientUnits="userSpaceOnUse"><stop offset="0" stop-color="#a51d2d"/><stop offset=".2" stop-color="#e01b24"/><stop offset="1" stop-color="#a51d2d"/></linearGradient><linearGradient xlink:href="#b" id="d" x1="24" x2="60" y1="22" y2="22"/><linearGradient id="b" gradientUnits="userSpaceOnUse"><stop offset="0" stop-color="#c01c28"/><stop offset=".156" stop-color="#e01b24"/><stop offset=".333" stop-color="#f66151"/><stop offset=".575" stop-color="#e01b24"/><stop offset=".73" stop-color="#e01b24"/><stop offset="1" stop-color="#a51d2d"/></linearGradient><linearGradient xlink:href="#a" id="e" x1="-68" x2="-32" y1="125" y2="125" gradientTransform="matrix(-1 0 0 1 36 -96)"/><linearGradient xlink:href="#b" id="f" x1="-68" x2="-32" y1="118" y2="118" gradientTransform="matrix(-1 0 0 1 36 -96)"/><linearGradient id="g" x1="60" x2="68" y1="221" y2="221" gradientTransform="matrix(2 0 0 .94444 -64 -175.222)" gradientUnits="userSpaceOnUse"><stop offset="0" stop-color="#a51d2d"/><stop offset=".5" stop-color="#ed333b"/><stop offset="1" stop-color="#c01c28"/></linearGradient></defs><path d="M60.002 18.967A12.973 12.973 0 0 1 47 31.969H17.002A12.973 12.973 0 0 1 4 18.967v28.002A12.973 12.973 0 0 0 17.002 59.97H47a12.973 12.973 0 0 0 13.002-13.002z" style="fill:#ffdc70;stroke-width:3.7796;fill-opacity:1"/><path d="M60.002 16.97A12.973 12.973 0 0 0 47 3.97H17.002A12.973 12.973 0 0 0 4 16.97v1.996a12.973 12.973 0 0 0 13.002 13.002H47a12.973 12.973 0 0 0 13.002-13.002z" style="fill:#ffc913;stroke-width:3.7796;fill-opacity:1"/><g fill="#241f31" style="fill:#333"><path d="m22.657 42.62-4.852 13.099h-4.672l7.187-19.406h4.672l7.187 19.406h-4.67z" style="fill:#333"/><path d="M17.445 48.532h10.421v3.592h-10.42Zm27.493-6.469h4.312V55.72h-4.312zm0 0" style="fill:#333"/><path d="M40.75 42.063c-3.652.032-6.594 3.16-6.594 7.008 0 3.87 2.978 7.008 6.648 7.008 3.672 0 6.65-3.138 6.65-7.008s-2.978-7.008-6.65-7.008zm.953 3.953c1.588 0 2.874 1.366 2.874 3.055 0 1.687-1.286 3.053-2.874 3.053s-2.874-1.366-2.874-3.053c0-1.689 1.286-3.055 2.874-3.055m0 0" style="fill:#333"/></g><path fill="#ed333b" d="M3.998 14.75h56.004v6.469H3.998Zm0 0" style="stroke-width:.585719"/><path fill="#a51d2d" d="M35.234 32v28.031h-6.468V32Zm0 0" style="stroke-width:.519456"/><path fill="#ed333b" d="M35.234 3.969V32h-6.468V3.969Zm0 0"/><path fill="url(#c)" d="M24 18v10c0 6.629 5.371 12 12 12h24V28H36a12 12 0 0 1-11.824-10Zm0 0" style="fill:#c61c28;fill-opacity:1" transform="translate(-2.5 -.344)scale(.53907)"/><path fill="#fff" d="M3.998 18.004v-1C3.998 9.801 9.798 4 17.002 4h29.996c7.203 0 13.004 5.8 13.004 13.004v1c0-7.203-5.8-13.002-13.004-13.002H17.002A12.975 12.975 0 0 0 3.998 18.004" opacity=".15"/><path fill="url(#d)" d="M36 4c-6.629 0-12 5.371-12 12v12c0-6.629 5.371-12 12-12s12 5.371 12 12c0 2.105.555 4.176 1.605 6 2.145 3.71 6.11 6 10.395 6V28c-4.285 0-8.25-2.29-10.395-6A12 12 0 0 1 48 16c0-6.629-5.371-12-12-12m0 0" style="fill:#e62f31;fill-opacity:1" transform="translate(-2.5 -.344)scale(.53907)"/><path fill="url(#e)" d="M104 18v10c0 6.629-5.371 12-12 12H68V28h24a12 12 0 0 0 11.824-10zm0 0" style="fill:#c61c28;fill-opacity:1" transform="translate(-2.5 -.344)scale(.53907)"/><path fill="url(#f)" d="M92 4c6.629 0 12 5.371 12 12v12c0-6.629-5.371-12-12-12s-12 5.371-12 12c0 2.105-.555 4.176-1.605 6-2.145 3.71-6.11 6-10.395 6V28c4.285 0 8.25-2.29 10.395-6A12 12 0 0 0 80 16c0-6.629 5.371-12 12-12m0 0" style="fill:#e62f31;fill-opacity:1" transform="translate(-2.5 -.344)scale(.53907)"/><path fill="url(#g)" d="M61 25h6a5 5 0 0 1 5 5v7a5 5 0 0 1-5 5h-6a5 5 0 0 1-5-5v-7a5 5 0 0 1 5-5m0 0" style="fill:#ea5254;fill-opacity:1" transform="translate(-2.5 -.344)scale(.53907)"/><path fill="#a51d2d" d="M27.687 17.445v2.156a2.69 2.69 0 0 0 2.696 2.696h3.234a2.69 2.69 0 0 0 2.696-2.696v-2.156a2.69 2.69 0 0 1-2.696 2.696h-3.234a2.69 2.69 0 0 1-2.696-2.696m0 0"/><path d="M3.998 45.998v1c0 7.203 5.8 13.004 13.004 13.004h29.996c7.203 0 13.004-5.8 13.004-13.004v-1c0 7.203-5.8 13.002-13.004 13.002H17.002A12.975 12.975 0 0 1 3.998 45.998" opacity=".35" style="opacity:.15"/></svg>