<svg xmlns="http://www.w3.org/2000/svg" viewBox="0 0 64 64"><rect width="56.002" height="56.002" x="4" y="3.969" fill="#4d4d4d" rx="13.002" ry="13.002"/><path d="M3.998 45.998v1c0 7.203 5.8 13.004 13.004 13.004h29.996c7.203 0 13.004-5.8 13.004-13.004v-1c0 7.203-5.8 13.002-13.004 13.002H17.002A12.975 12.975 0 0 1 3.998 45.998" opacity=".35"/><path fill="#fff" d="M3.998 18.004v-1C3.998 9.801 9.798 4 17.002 4h29.996c7.203 0 13.004 5.8 13.004 13.004v1c0-7.203-5.8-13.002-13.004-13.002H17.002A12.975 12.975 0 0 0 3.998 18.004" opacity=".15"/><path fill="#ed333b" d="M10.837 15.141h9.492c1.113 0 2.014.902 2.014 2.015v7.56a2.014 2.014 0 0 1-2.014 2.015h-9.492a2.014 2.014 0 0 1-2.014-2.015v-7.56c0-1.113.901-2.015 2.014-2.015m0 0" style="stroke-width:.482882" transform="translate(.008 2.863)scale(.99971)"/><path fill="#3d3846" d="M43.673 15.141h9.492c1.113 0 2.014.902 2.014 2.015v7.56a2.014 2.014 0 0 1-2.014 2.015h-9.492a2.014 2.014 0 0 1-2.014-2.015v-7.56c0-1.113.901-2.015 2.014-2.015m0 0" style="stroke-width:.482882" transform="translate(.008 2.863)scale(.99971)"/><path fill="#33d17a" d="M27.255 15.141h9.492c1.113 0 2.014.902 2.014 2.015v7.56a2.014 2.014 0 0 1-2.014 2.015h-9.492a2.014 2.014 0 0 1-2.014-2.015v-7.56c0-1.113.901-2.015 2.014-2.015m0 0" style="stroke-width:.482882" transform="translate(.008 2.863)scale(.99971)"/><path fill="#62a0ea" d="M43.673 31.56h9.492c1.113 0 2.014.901 2.014 2.014v7.56a2.014 2.014 0 0 1-2.014 2.015h-9.492a2.014 2.014 0 0 1-2.014-2.015v-7.56c0-1.113.901-2.015 2.014-2.015m0 0" style="stroke-width:.482882" transform="translate(.008 2.863)scale(.99971)"/><path fill="#3d3846" d="M27.255 31.56h9.492c1.113 0 2.014.901 2.014 2.014v7.56a2.014 2.014 0 0 1-2.014 2.015h-9.492a2.014 2.014 0 0 1-2.014-2.015v-7.56c0-1.113.901-2.015 2.014-2.015m-16.418.001h9.492c1.113 0 2.014.901 2.014 2.014v7.56a2.014 2.014 0 0 1-2.014 2.015h-9.492a2.014 2.014 0 0 1-2.014-2.015v-7.56c0-1.113.901-2.015 2.014-2.015m0 0" style="stroke-width:.482882" transform="translate(.008 2.863)scale(.99971)"/><path fill="#fff" stroke-linejoin="round" stroke-width="1.932" d="M17.997 20.936a2.414 2.414 0 1 1-4.828 0 2.414 2.414 0 0 1 4.828 0M30.07 35.422h3.863v3.864h-3.864zm4.345-14.486-4.346-2.414v4.828zm0 0" style="stroke:#fff;stroke-linecap:round" transform="translate(.008 2.863)scale(.99971)"/><path fill="none" stroke-width="3.863" d="m13.651 35.905 1.932 1.932 1.932-1.932" style="stroke:#fff;stroke-linecap:round" transform="translate(.008 2.863)scale(.99971)"/><path fill="none" stroke-width="1.932" d="M45.039 37.354h6.924" style="stroke:#fff;stroke-linecap:round" transform="translate(.008 2.863)scale(.99971)"/><path fill="none" stroke-linejoin="round" stroke-width="1.932" d="m49.624 39.768 2.415-2.414-2.415-2.414" style="stroke:#fff;stroke-linecap:round" transform="translate(.008 2.863)scale(.99971)"/><path fill="#fff" d="M47.936 22.868a1.449 1.449 0 1 1-2.898-.001 1.449 1.449 0 0 1 2.898 0m3.864.001a1.45 1.45 0 1 1-2.899-.001 1.449 1.449 0 0 1 2.898 0m-3.863-3.862a1.449 1.449 0 1 1-2.898-.001 1.449 1.449 0 0 1 2.898 0m3.864.001a1.45 1.45 0 1 1-2.899-.001 1.449 1.449 0 0 1 2.898 0m0 0" style="stroke-width:.482882" transform="translate(.008 2.863)scale(.99971)"/></svg>