<svg xmlns="http://www.w3.org/2000/svg" viewBox="0 0 16.933 16.933"><rect width="14.817" height="14.817" x="1.058" y="1.05" fill="#f2f2f2" rx="3.44" ry="3.44"/><path d="M1.058 12.17v.265a3.433 3.433 0 0 0 3.44 3.44h7.937a3.433 3.433 0 0 0 3.44-3.44v-.265a3.433 3.433 0 0 1-3.44 3.44H4.498a3.433 3.433 0 0 1-3.44-3.44" opacity=".1"/><path fill="#fff" d="M1.058 4.763V4.5a3.433 3.433 0 0 1 3.44-3.44h7.937a3.433 3.433 0 0 1 3.44 3.44v.265a3.433 3.433 0 0 0-3.44-3.44H4.498a3.433 3.433 0 0 0-3.44 3.44z" opacity=".5"/><path fill="#333" d="M8.297 3.726a.6.6 0 0 0-.25.05L4.561 5.242a.65.65 0 0 0-.396.595v5.651a.646.646 0 0 0 .474.622l3.828 1.073a.6.6 0 0 0 .174.024.7.7 0 0 0 .188-.028l3.483-1.06a.645.645 0 0 0 .458-.618V5.85a.645.645 0 0 0-.414-.603L8.53 3.768a.7.7 0 0 0-.233-.042m.361.856 3.399 1.314v5.289l-3.399-.91zm-.713.009v5.692l-3.069.895V5.88l3.07-1.29zm-.613 1.897a.356.356 0 0 0-.355.356v1.48l-.948-1.307a.356.356 0 0 0-.642.21v2.576a.356.356 0 0 0 .355.355.356.356 0 0 0 .356-.355v-1.48l.947 1.306a.356.356 0 0 0 .643-.21V6.845a.356.356 0 0 0-.356-.356zm1.793.742a.356.356 0 0 0-.338.27.356.356 0 0 0 .26.432l2.119.525a.356.356 0 0 0 .43-.26.356.356 0 0 0-.258-.431L9.217 7.24a.4.4 0 0 0-.092-.01m-.002.946a.356.356 0 0 0-.336.273.356.356 0 0 0 .264.428l1.466.35a.356.356 0 0 0 .428-.264.356.356 0 0 0-.263-.428l-1.467-.35a.4.4 0 0 0-.092-.009m.002.95a.356.356 0 0 0-.338.27.356.356 0 0 0 .26.432l2.119.524a.356.356 0 0 0 .43-.26.356.356 0 0 0-.258-.43l-2.121-.525a.4.4 0 0 0-.092-.01zm-.818 1.792 2.93.784-2.6.794-2.923-.821z"/></svg>