<svg xmlns="http://www.w3.org/2000/svg" xmlns:xlink="http://www.w3.org/1999/xlink" viewBox="0 0 64 64"><defs><linearGradient id="a"><stop offset="0" stop-color="#19b77d"/><stop offset="1" stop-color="#66ebba"/></linearGradient><linearGradient xlink:href="#a" id="d" x1="21.565" x2="42.435" y1="42.435" y2="42.435" gradientTransform="translate(-1.733 -2.233)scale(1.0542)" gradientUnits="userSpaceOnUse"/><linearGradient xlink:href="#a" id="c" x1="28.087" x2="35.913" y1="18.304" y2="18.304" gradientTransform="matrix(1.0222 0 0 1.0143 -.711 -.196)" gradientUnits="userSpaceOnUse"/><linearGradient id="b" x1="22.87" x2="41.13" y1="30.043" y2="30.043" gradientTransform="translate(0 .13)" gradientUnits="userSpaceOnUse"><stop offset="0" stop-color="#292929"/><stop offset="1" stop-color="#5c5c5c"/></linearGradient></defs><rect width="56.002" height="56.002" x="4" y="3.969" fill="#f2f2f2" rx="13.002" ry="13.002"/><path d="M3.998 45.998v1c0 7.203 5.8 13.004 13.004 13.004h29.996c7.203 0 13.004-5.8 13.004-13.004v-1c0 7.203-5.8 13.002-13.004 13.002H17.002A12.975 12.975 0 0 1 3.998 45.998" opacity=".1"/><path fill="#fff" d="M3.998 18.004v-1C3.998 9.801 9.798 4 17.002 4h29.996c7.203 0 13.004 5.8 13.004 13.004v1c0-7.203-5.8-13.002-13.004-13.002H17.002A12.975 12.975 0 0 0 3.998 18.004" opacity=".5"/><g stroke-linecap="round" stroke-linejoin="round" stroke-opacity=".35" stroke-width=".075" opacity=".25" transform="translate(0 1.002)scale(3.7796)"><rect width="12.171" height=".132" x="2.381" y="3.969" opacity=".75" rx="0" ry=".066"/><rect width="12.171" height=".132" x="2.381" y="6.085" opacity=".75" rx="0" ry=".066"/><rect width="12.171" height=".132" x="2.381" y="8.202" opacity=".75" rx="0" ry=".066"/><rect width="12.171" height=".132" x="2.381" y="10.054" opacity=".75" rx="0" ry=".066"/><rect width="12.171" height=".132" x="2.381" y="12.171" opacity=".75" rx="0" ry=".066"/><rect width="12.171" height=".132" x="2.116" y="-4.503" fill="#3dd09a" opacity=".75" rx="0" ry=".066" transform="rotate(90)"/></g><circle cx="32.02" cy="32.044" r="30.001" fill="none"/><path fill="url(#b)" d="M28.087 23c-.723 0-1.304.582-1.304 1.304 0 0 0 9.13-2.609 9.13-.723 0-1.304.582-1.304 1.305v2.609h18.26v-2.609a1.3 1.3 0 0 0-1.304-1.304c-2.608 0-2.608-9.13-2.608-9.13 0-.723-.582-1.305-1.305-1.305z" style="paint-order:stroke fill markers;fill:#424242;fill-opacity:1"/><path fill="url(#c)" d="m28 13.739 8 3.969V23h-8z" style="paint-order:stroke fill markers;fill:#3dcf9a;fill-opacity:1"/><rect width="8" height="1" x="28" y="22" opacity=".15" rx="0" ry="0"/><path fill="url(#d)" d="M22.375 37h19.25c.762 0 1.375.613 1.375 1.375V48H21v-9.625c0-.762.613-1.375 1.375-1.375" style="paint-order:stroke fill markers;fill:#3dcf9a;fill-opacity:1"/><rect width="18" height="1" x="23" y="36" opacity=".15" rx="0" ry="0"/></svg>