<svg xmlns="http://www.w3.org/2000/svg" viewBox="0 0 64 64"><defs><clipPath id="f"><path stroke-width=".538" d="M34.154 47.951h2.154v2.154h-2.154z"/></clipPath><clipPath id="d"><path stroke-width=".538" d="M34.154 10.258h2.154v2.154h-2.154z"/></clipPath><clipPath id="e"><path stroke-width=".538" d="M34.154 43.643h2.154v2.154h-2.154z"/></clipPath><clipPath id="g"><path stroke-width=".538" d="M27.692 10.258h2.154v2.154h-2.154z"/></clipPath><clipPath id="h"><path stroke-width=".538" d="M27.692 47.951h2.154v2.154h-2.154z"/></clipPath><clipPath id="i"><path stroke-width=".538" d="M3.999 31.797H60v12.924H3.999z"/></clipPath><clipPath id="b"><path stroke-width=".538" d="M3.999 14.565H60v16.154H3.999z"/></clipPath><clipPath id="j"><path stroke-width=".538" d="M5.614 29.104h22.078V51.72H5.614z"/></clipPath><clipPath id="k"><path stroke-width=".538" d="M9.384 32.874h14.539v15.077H9.383z"/></clipPath><clipPath id="l"><path stroke-width=".538" d="M36.308 7.565h21.539v22.078H36.308z"/></clipPath><clipPath id="m"><path stroke-width=".538" d="M40.077 11.335h14v14.539h-14z"/></clipPath><clipPath id="n"><path stroke-width=".538" d="M27.692 14.101h2.154v2.154h-2.154z"/></clipPath><linearGradient id="a" x1="4" x2="60.002" y1="31.97" y2="31.97" gradientTransform="translate(-39.029 -1.77)scale(.53342)" gradientUnits="userSpaceOnUse"><stop offset="0" stop-color="#807e79"/><stop offset=".199" stop-color="#c0bfbc"/><stop offset=".801" stop-color="#c1c0bd"/><stop offset="1" stop-color="#7b7974"/></linearGradient><linearGradient id="c" x1="12" x2="116" y1="62" y2="62" gradientTransform="matrix(.53848 0 0 .56002 -2.462 -2.752)" gradientUnits="userSpaceOnUse"><stop offset="0" stop-color="#fff"/><stop offset=".419" stop-color="#deddda"/><stop offset=".5" stop-color="#c0bfbc"/><stop offset=".5" stop-color="#fff"/><stop offset=".575" stop-color="#deddda"/><stop offset="1" stop-color="#fff"/></linearGradient></defs><path fill="url(#a)" d="M17.002 3.969A12.973 12.973 0 0 0 4 16.97v29.998A12.973 12.973 0 0 0 17.002 59.97H47a12.973 12.973 0 0 0 13.002-13.002V16.97A12.973 12.973 0 0 0 47 3.969H36.266c-2.137 0-4.35 2.236-4.35 4.48 0-2.26-1.625-4.48-4.08-4.48z" style="fill:#b3b3b3"/><path fill="#fc0" d="M59.771 14.566H36.307a5.2 5.2 0 0 0-3.678 1.522l-1.892 1.894a10.4 10.4 0 0 1-7.353 3.045H3.999v9.693h19.385c2.64 0 5.927-.856 7.786-2.732l1.881-1.9c.93-.935 2.361-1.372 3.682-1.372H60V16.97c0-.822-.086-1.624-.23-2.404" clip-path="url(#b)"/><path fill="url(#c)" d="M60.002 24.717H36.734c-1.32 0-2.752.437-3.681 1.373l-1.881 1.898c-1.86 1.877-5.147 2.733-7.787 2.733H4v11.65q0 .676.066 1.334a13 13 0 0 0 1.498 4.873 13 13 0 0 0 2.237 2.994q.44.442.922.84a12.97 12.97 0 0 0 8.279 2.961l10.65.117c2.606.029 4.4 1.777 4.4 4.48 0-2.71 2.061-4.454 4.362-4.48L47 55.373q.676 0 1.334-.066a13 13 0 0 0 4.873-1.498 13 13 0 0 0 2.994-2.237q.442-.44.84-.922a12.97 12.97 0 0 0 2.961-8.279zm-43-20.748A12.974 12.974 0 0 0 4 16.97v4.056h19.385a10.4 10.4 0 0 0 7.353-3.045l1.893-1.894a5.2 5.2 0 0 1 3.678-1.522H59.77A12.964 12.964 0 0 0 47 3.97H36.266c-2.137 0-4.35 2.236-4.35 4.48 0-2.26-1.625-4.48-4.08-4.48z" style="fill:#f9f9f9"/><path d="M36.266 3.97c-1.898 0-3.852 1.764-4.266 3.731v9.018l.63-.631a5.2 5.2 0 0 1 3.679-1.524h23.46A12.964 12.964 0 0 0 47 3.971zm.468 20.747c-1.32 0-2.752.437-3.681 1.373L32 27.152V59.23c.031.239.053.485.053.74 0-2.71 2.06-4.454 4.361-4.48L47 55.373q.675 0 1.334-.066a13 13 0 0 0 4.873-1.498 13 13 0 0 0 2.994-2.237q.443-.44.84-.922a12.97 12.97 0 0 0 2.961-8.279V24.717z" style="opacity:.05;fill:#000;stroke-width:0;stroke-linecap:square;stroke-linejoin:round;paint-order:fill markers stroke"/><path fill="#9a9996" d="M35.231 10.258a1.077 1.077 0 1 1 0 2.154 1.077 1.077 0 1 1 0-2.154" clip-path="url(#d)"/><path fill="#9a9996" d="M35.231 43.643a1.077 1.077 0 1 1 0 2.154 1.077 1.077 0 1 1 0-2.154" clip-path="url(#e)"/><path fill="#9a9996" d="M35.231 47.951a1.077 1.077 0 1 1 0 2.154 1.077 1.077 0 1 1 0-2.154" clip-path="url(#f)"/><path fill="#9a9996" d="M28.769 10.258a1.077 1.077 0 1 1 0 2.154 1.077 1.077 0 1 1 0-2.154" clip-path="url(#g)"/><path fill="#9a9996" d="M28.769 47.951a1.077 1.077 0 1 1 0 2.154 1.077 1.077 0 1 1 0-2.154" clip-path="url(#h)"/><path fill="#540" d="m30.937 34.477-1.395 1.163a6.65 6.65 0 0 1-4.259 1.542H2.922v7.538H25.35c1.495 0 2.669-.094 4.804-1.766l1.353-1.063c1.428-1.63 3.733-3.02 6.449-3.081h23.659v-7.013H38.339a11.57 11.57 0 0 0-7.402 2.68" clip-path="url(#i)"/><path fill="#a80" d="M27.692 40.439c0 5.97-4.84 10.81-10.812 10.81-5.97 0-10.809-4.84-10.809-10.809 0-5.972 4.84-10.812 10.809-10.812 5.972 0 10.812 4.84 10.812 10.811" clip-path="url(#j)"/><path fill="#fff" d="M15.892 33.389a1.4 1.4 0 0 1 .942.412l5.608 5.612q.038.033.072.068l.957.958-.968.966q-.032.035-.067.07l-5.602 5.601a1.41 1.41 0 0 1-1.994 0 1.41 1.41 0 0 1 0-1.994l3.233-3.233h-6.937a1.41 1.41 0 0 1-1.41-1.41 1.41 1.41 0 0 1 1.41-1.41h6.937l-3.233-3.234a1.41 1.41 0 0 1 .955-2.406 1 1 0 0 1 .097 0" clip-path="url(#k)"/><path fill="#f1e86b" d="M57.847 18.806c0 5.949-4.821 10.77-10.77 10.77s-10.77-4.821-10.77-10.77 4.821-10.77 10.77-10.77 10.77 4.821 10.77 10.77" clip-path="url(#l)"/><path fill="#540" d="M47.668 11.783a1.4 1.4 0 0 0-.939.412l-5.588 5.59-.07.067-.955.954.966.964.067.07 5.58 5.58a1.405 1.405 0 0 0 1.986-1.988l-3.22-3.22h6.91a1.405 1.405 0 1 0 0-2.811h-6.91l3.22-3.22a1.403 1.403 0 0 0 0-1.985 1.4 1.4 0 0 0-.95-.413z" clip-path="url(#m)"/><path fill="#9a9996" d="M28.769 14.101a1.076 1.076 0 1 1 0 2.154 1.077 1.077 0 1 1 0-2.154" clip-path="url(#n)"/></svg>