<svg xmlns="http://www.w3.org/2000/svg" width="64" height="64"><defs><linearGradient id="a" x1="7.937" x2="7.937" y1="15.081" y2="1.852" gradientTransform="scale(3.7796)" gradientUnits="userSpaceOnUse"><stop offset="0" stop-color="#f1efeb"/><stop offset="1" stop-color="#fdfcfc"/></linearGradient><linearGradient id="b" x1="21.989" x2="21.989" y1="29.084" y2="15.076" gradientUnits="userSpaceOnUse"><stop offset="0" stop-color="#85ec51"/><stop offset="1" stop-color="#beff66"/></linearGradient><linearGradient id="c" x1="25.382" x2="25.382" y1="30.613" y2="14.219" gradientUnits="userSpaceOnUse"><stop offset="0" stop-color="#43db59"/><stop offset="1" stop-color="#6af1b0"/></linearGradient></defs><rect width="56.002" height="56.002" x="4" y="3.969" fill="url(#a)" rx="13.002" ry="13.002"/><path fill="url(#b)" d="M24 10c-3.531 3.988-6 6.9-6 12 0 5.5 3.525 8.863 6 11 1-3 1-19 0-23" transform="translate(-8 -6.333)scale(1.6667)"/><path fill="url(#c)" d="M24 10v25.199L25 36v-3c2.105-2.195 5-4.5 5-11 0-4-3-7-5-10-.413-.62-1-2-1-2" transform="translate(-8 -6.333)scale(1.6667)"/></svg>