<svg xmlns="http://www.w3.org/2000/svg" xmlns:xlink="http://www.w3.org/1999/xlink" width="64" height="64" ><defs><linearGradient id="a"><stop offset="0" style="stop-color:#ff413f;stop-opacity:1"/><stop offset="1" style="stop-color:#e62f2e;stop-opacity:1"/></linearGradient><linearGradient xlink:href="#a" id="f" x1="31.525" x2="31.525" y1="6.542" y2="59.045" gradientUnits="userSpaceOnUse"/><clipPath id="b"><path d="M0 0h64v64H0z"/></clipPath><clipPath id="e" clipPathUnits="userSpaceOnUse"><path d="M17.002 3.969h29.996C54.174 3.969 60 9.795 60 16.971v29.996c0 7.176-5.826 13.002-13.002 13.002H17.002C9.826 59.969 4 54.143 4 46.967V16.971C4 9.795 9.826 3.969 17.002 3.969" style="display:inline;isolation:isolate;fill:#fa5344;stroke:none;stroke-width:.999997;stroke-miterlimit:10"/></clipPath><filter id="g" width="2" height="2.17" x="-.47" y="-.59" style="color-interpolation-filters:sRGB"><feFlood flood-color="#ea423a" flood-opacity=".316" result="flood"/><feComposite in="flood" in2="SourceGraphic" operator="out" result="composite1"/><feGaussianBlur in="composite1" result="blur" stdDeviation="5.159"/><feOffset dy="-3.032" result="offset"/><feComposite in="offset" in2="SourceGraphic" operator="atop" result="fbSourceGraphic"/><feColorMatrix in="fbSourceGraphic" result="fbSourceGraphicAlpha" values="0 0 0 -1 0 0 0 0 -1 0 0 0 0 -1 0 0 0 0 1 0"/><feFlood flood-color="#000" flood-opacity=".119" result="flood"/><feComposite in="flood" in2="fbSourceGraphic" operator="in" result="composite1"/><feGaussianBlur in="composite1" result="blur" stdDeviation="4.996"/><feOffset dx="-.949" dy="5.087" result="offset"/><feComposite in="fbSourceGraphic" in2="offset" result="composite2"/></filter></defs><g clip-path="url(#b)"><defs><mask id="c"><path d="M.625 3.743h62.749v60.254H.625Z" style="fill:#fff;stroke:#000;stroke-miterlimit:10"/></mask></defs><g mask="url(#c)" style="display:inline"><use xlink:href="#d" width="100%" height="100%" transform="matrix(.25 0 0 .24 .625 3.743)"/></g><g clip-path="url(#e)"><path d="M17.002 3.97h29.996C54.174 3.97 60 9.796 60 16.972v29.996c0 7.176-5.826 13.002-13.002 13.002H17.002C9.826 59.97 4 54.144 4 46.968V16.972C4 9.796 9.826 3.97 17.002 3.97" style="display:inline;opacity:1;fill:url(#f);fill-opacity:1;stroke:none;stroke-miterlimit:10"/><g style="filter:url(#g)" transform="translate(10.713 7.957)scale(.77553)"><path d="m41.1 5.5 19.3 19.2L41.1 44l5.5 5.4 24.7-24.7L46.6 0z" class="st0" style="fill:#fff;fill-opacity:1" transform="matrix(.75 0 0 .75 .736 12.423)"/><path d="M-21.41 22.378H4.84v26.25h-26.25z" class="st0" style="fill:#fff;fill-opacity:1;stroke-width:.749992" transform="rotate(-45)"/></g></g></g></svg>