<svg xmlns="http://www.w3.org/2000/svg" width="64" height="64"><defs><linearGradient id="b" x1="543.8" x2="503.8" gradientTransform="matrix(0 1 -1.1667 0 -444.67 -492.8)" gradientUnits="userSpaceOnUse"><stop offset="0" stop-color="#197cf1"/><stop offset="1" stop-color="#21c9fb"/></linearGradient><linearGradient id="d" x2="0" y1="44" y2="20" gradientTransform="translate(8 7)" gradientUnits="userSpaceOnUse"><stop offset="0" stop-color="#eef1f2"/><stop offset="1" stop-color="#f9fafb"/></linearGradient><linearGradient id="f" x1="384.57" x2="414.57" gradientTransform="translate(-376.57 -492.8)" gradientUnits="userSpaceOnUse"><stop offset="0" stop-opacity=".275"/><stop offset="1" stop-color="#fff" stop-opacity="0"/></linearGradient><linearGradient id="e" x1="432.57" x2="421.02" y1="547.8" y2="527.8" gradientTransform="translate(-376.57 -492.8)" gradientUnits="userSpaceOnUse"><stop offset="0" stop-opacity=".082"/><stop offset="1" stop-opacity="0"/></linearGradient><linearGradient id="g" x1="384.57" x2="394.57" y1="547.8" y2="530.48" gradientTransform="translate(-376.57 -492.8)" gradientUnits="userSpaceOnUse"><stop offset="0" stop-color="#fff" stop-opacity="0"/><stop offset="1" stop-color="#fff" stop-opacity=".314"/></linearGradient><linearGradient id="a" x1="7.937" x2="7.937" y1="15.081" y2="1.852" gradientTransform="scale(3.7796)" gradientUnits="userSpaceOnUse"><stop offset="0" stop-color="#ccc"/><stop offset="1" stop-color="#f5f5f5"/></linearGradient><filter id="c" width="1.086" height="1.2" x="-.043" y="-.1" color-interpolation-filters="sRGB"><feGaussianBlur stdDeviation=".655"/></filter><filter id="h" width="1.028" height="2.092" x="-.014" y="-.546" color-interpolation-filters="sRGB"><feGaussianBlur stdDeviation=".228"/></filter></defs><rect width="56.002" height="56.002" x="4" y="3.969" fill="url(#a)" rx="13.002" ry="13.002"/><circle cx="32.017" cy="31.998" r="30" fill="none"/><path fill="#c8cfd3" fill-rule="evenodd" d="M32 15 12 27l20 15 20-15z"/><path fill="url(#b)" d="M20 11c-1.108 0-2 .892-2 2v30c0 1.108.892 2 2 2h24c1.108 0 2-.892 2-2V19l-8-8z"/><path fill-rule="evenodd" d="m13.083 27.495 5.8 3.042 3.853 2.885 5.022 4.008 8.443-.126 3.255-2.212 3.017-2.43 4.005-2.656 4.763-2.581-3.34 14.955H15.259z" filter="url(#c)" opacity=".15" style="paint-order:fill markers stroke"/><path fill="url(#d)" d="M12 27v22c0 1.108.892 2 2 2h36c1.108 0 2-.892 2-2V27L36 39h-8z"/><g fill-rule="evenodd"><path fill="url(#e)" d="M52 27 36 39l15.322 11.492c.413-.366.678-.895.678-1.492z"/><path fill="url(#f)" d="M28 39 12.678 50.492c.353.313.812.508 1.322.508h36c.51 0 .97-.195 1.323-.508L36 39z"/><path fill="url(#g)" d="M12 27v22c0 .598.265 1.126.678 1.492L28 39z"/></g><path d="M12.275 50c.346.596.984 1 1.725 1h36a1.99 1.99 0 0 0 1.724-1z" filter="url(#h)" opacity=".15"/><path fill="#fff" d="M38 11v6c0 1.108.892 2 2 2h6z" opacity=".5"/></svg>