<svg xmlns="http://www.w3.org/2000/svg" width="64" height="64"><defs><linearGradient id="a" x1="7.937" x2="7.937" y1="15.081" y2="1.852" gradientTransform="scale(3.7796)" gradientUnits="userSpaceOnUse"><stop offset="0" stop-color="#ff540d"/><stop offset="1" stop-color="#ff9f00"/></linearGradient><linearGradient id="b" x1="32.19" x2="32.19" y1="17.629" y2="46.398" gradientUnits="userSpaceOnUse"><stop offset="0" stop-color="#ffefd6"/><stop offset="1" stop-color="#ffd0b9"/></linearGradient></defs><rect width="56.002" height="56.002" x="4" y="3.969" fill="url(#a)" rx="13.002" ry="13.002"/><path fill="#fff" d="M28 25.59 18 42.91l2.598 1.5 10-17.32zm8 0-2.598 1.5 10 17.32L46 42.91z" opacity=".5"/><path fill="url(#b)" d="M28 16c-1.662 0-3 1.338-3 3v6c0 1.662 1.338 3 3 3h8c1.662 0 3-1.338 3-3v-6c0-1.662-1.338-3-3-3zM17 36c-1.662 0-3 1.338-3 3v6c0 1.662 1.338 3 3 3h8c1.662 0 3-1.338 3-3v-6c0-1.662-1.338-3-3-3zm22 0c-1.662 0-3 1.338-3 3v6c0 1.662 1.338 3 3 3h8c1.662 0 3-1.338 3-3v-6c0-1.662-1.338-3-3-3z"/></svg>