<svg xmlns="http://www.w3.org/2000/svg" viewBox="0 0 64 64"><defs><clipPath id="a" clipPathUnits="userSpaceOnUse"/></defs><rect width="56.002" height="56.002" x="4" y="3.969" fill="#4d4d4d" rx="13.002" ry="13.002" style="fill:#3a382b;fill-opacity:1"/><path d="M3.998 45.998v1c0 7.203 5.8 13.004 13.004 13.004h29.996c7.203 0 13.004-5.8 13.004-13.004v-1c0 7.203-5.8 13.002-13.004 13.002H17.002A12.975 12.975 0 0 1 3.998 45.998" opacity=".35"/><path fill="#fff" d="M3.998 18.004v-1C3.998 9.801 9.798 4 17.002 4h29.996c7.203 0 13.004 5.8 13.004 13.004v1c0-7.203-5.8-13.002-13.004-13.002H17.002A12.975 12.975 0 0 0 3.998 18.004" opacity=".15"/><path fill="url(#a-3)" fill-rule="evenodd" d="M28.225 39.498h11.042a5.366 5.366 0 0 1 5.365 5.366v1.772A5.366 5.366 0 0 1 39.267 52H28.225a5.366 5.366 0 0 1-5.366-5.365v-1.772a5.366 5.366 0 0 1 5.366-5.366" style="fill:#5e5c64;fill-opacity:1;stroke-width:.35088"/><path d="M27.07 36.69h13.35a4.21 4.21 0 0 1 4.21 4.211v4.082a4.21 4.21 0 0 1-4.21 4.21H27.07a4.21 4.21 0 0 1-4.21-4.21v-4.082a4.21 4.21 0 0 1 4.21-4.21" style="fill:#4e4c54;fill-opacity:1;stroke-width:.35088"/><path d="M25.322 26.898a3.855 3.855 0 0 0-3.828 3.348h-8.441v1.404a7.72 7.72 0 0 0 5.613 7.424v.647c0 .58.472 1.052 1.053 1.052 3.158 0 .905 3.508 5.603 3.508h18.953a3.86 3.86 0 0 0 3.866-3.867v-9.648a3.86 3.86 0 0 0-3.866-3.868z" style="fill:#888591;fill-opacity:1;stroke-width:.35088"/><path d="M24.512 26.035a3.05 3.05 0 0 0-3.057 3.057v.129c0 .566-.46 1.025-1.025 1.025h-7.377a6.714 6.714 0 0 0 6.172 5.6h.002q.069.013.142.013h.41l.674.002c.554 0 .982.467 1.172.983.415 1.13 1.548 1.824 2.887 1.824h20.572a3.05 3.05 0 0 0 3.057-3.057v-6.52a3.05 3.05 0 0 0-3.057-3.056z" style="fill:#aeaab9;fill-opacity:1;stroke-width:.35088"/><path d="M32.913 34.457h-4.019a21.3 21.3 0 0 1-7.567-1.393l-.299-.114a15.2 15.2 0 0 0-6.922-.95l1.77-3.492 6.896 3.44a.56.56 0 0 0 .807-.5v-.15c0-.449-.175-.882-.488-1.205l-1.607-1.658.392-1.092 2.354 1.864a.465.465 0 0 0 .753-.365c0-.446-.19-.873-.52-1.173l-3.707-3.37a11.7 11.7 0 0 0-2.977-1.97l-2.116-.974a.26.26 0 0 1-.155-.237.27.27 0 0 1 .146-.243l3.95-1.975a.94.94 0 0 1 1.35.709l.21 1.509a5.4 5.4 0 0 0 1.655 3.184l2.442 2.28a8.4 8.4 0 0 0 5.728 2.26h.105c1.017 0 1.978-.46 2.614-1.254l6.822-8.501 1.215.701-4.19 8.157a2.55 2.55 0 0 0 .07 2.457l.368.623c.271.462.839.659 1.339.466l.603-.235a15.1 15.1 0 0 0 4.682-2.877l1.016-.913.763 4.088-.512-.02a13.3 13.3 0 0 0-5.388.935l-2.574 1.027a13.5 13.5 0 0 1-5.008.96z" style="opacity:.35;fill:#fff;stroke-width:.35088"/><path fill="url(#s)" fill-rule="evenodd" d="M29.193 21.131H52.35v5.614H29.193Z" clip-path="url(#a)" style="fill:#e88d42;fill-opacity:1;stroke-width:.35088"/><path d="M32 22.535a2.805 2.805 0 0 0-2.715 2.106A2.806 2.806 0 0 0 32 26.746h17.545a2.806 2.806 0 0 0 2.715-2.105 2.805 2.805 0 0 0-2.715-2.106z" style="fill:#865e3c;fill-opacity:1;stroke-width:.35088"/><path fill="url(#w)" d="M25.103 21.131h4.844c.455 0 .824.369.824.824v3.968a.823.823 0 0 1-.824.822h-4.844a.823.823 0 0 1-.822-.822v-3.968c0-.455.368-.824.822-.824" style="fill:#865e3c;fill-opacity:1;stroke-width:.35088"/><path fill="url(#x)" d="M33.467 12a2.086 2.086 0 0 1 2.065 2.106v13.906h-9.785V19.72a7.72 7.72 0 0 1 7.72-7.72" style="fill:#aeadaa;fill-opacity:1;stroke-width:.35088"/><path fill="#5e5c64" d="M33.467 16.908a2.09 2.09 0 0 1 2.065 2.11v11.93c0 1.17-.95 2.12-2.12 2.12h-5.528a2.137 2.137 0 0 1-2.137-2.137v-6.303a7.72 7.72 0 0 1 7.72-7.72" style="stroke-width:.35088"/><path fill="#f6d32d" d="M21.497 17.654a4.21 4.21 0 1 1-8.42.001 4.21 4.21 0 0 1 8.42-.001" style="stroke-width:.35088"/><path fill="#fff" d="M21.424 18.434c-.101.567-1.731.498-2.107.935-.382.445-.085 2.06-.637 2.259-.541.196-1.297-1.25-1.863-1.357-.575-.109-1.827.956-2.275.577-.44-.372.435-1.748.244-2.29-.194-.554-1.74-1.105-1.638-1.682.102-.568 1.731-.498 2.107-.935.382-.446.086-2.06.637-2.259.543-.196 1.297 1.25 1.863 1.357.577.108 1.827-.957 2.275-.578.441.371-.434 1.749-.244 2.291.195.554 1.742 1.105 1.638 1.682" style="stroke-width:.35088"/><path fill="#f5c211" fill-opacity=".776" d="M17.3 29.58a2.826 2.826 0 1 1-5.651.001 2.826 2.826 0 0 1 5.65 0" style="stroke-width:.35088"/><path fill="#fff" d="M17.25 30.106c-.11.59-1.275.194-1.711.605-.437.41-.113 1.597-.707 1.672-.595.075-.579-1.154-1.104-1.442s-1.553.387-1.809-.155c-.255-.543.92-.907 1.03-1.495.113-.59-.846-1.358-.41-1.77.435-.41 1.145.595 1.74.52.594-.077 1.03-1.227 1.555-.939.526.29-.212 1.273.045 1.816.255.541 1.484.6 1.372 1.188" style="stroke-width:.35088"/><path fill="#f5c211" fill-opacity=".784" d="M47.86 28.434a2.109 2.109 0 1 1-3.653 2.11 2.109 2.109 0 0 1 3.653-2.11" style="stroke-width:.35088"/><path fill="#fff" d="M48.025 28.793c.145.34-.821.769-.982 1.102-.175.363.058 1.425-.314 1.584-.338.144-.769-.822-1.102-.982-.363-.176-1.425.059-1.583-.313-.145-.34.821-.77.982-1.103.175-.363-.058-1.426.314-1.583.338-.145.769.82 1.102.981.363.176 1.425-.057 1.583.314" style="stroke-width:.35088"/><path fill="#f8e45c" d="M43.942 17.335a2.109 2.109 0 1 1-3.653 2.107 2.109 2.109 0 0 1 3.653-2.107" style="stroke-width:.35088"/><path fill="#fff" d="M44.107 17.694c.13.356-.8.83-.965 1.172-.169.348.034 1.38-.33 1.513-.357.132-.83-.8-1.172-.965-.349-.168-1.382.034-1.515-.33-.13-.357.8-.83.966-1.172.168-.348-.034-1.38.33-1.513.357-.13.83.8 1.171.965.35.168 1.382-.035 1.515.33" style="stroke-width:.35088"/><path fill="#f5c211" fill-opacity=".761" d="M22.278 27.147a2.109 2.109 0 1 1-4.218 0 2.109 2.109 0 0 1 4.218 0" style="stroke-width:.35088"/><path fill="#fff" d="M22.241 27.54c-.028.375-1.16.1-1.469.312-.35.238-.574 1.4-.995 1.367-.374-.03-.1-1.16-.311-1.469-.239-.35-1.401-.574-1.368-.996.03-.375 1.16-.1 1.47-.311.349-.238.574-1.4.994-1.367.376.029.1 1.158.313 1.47.237.349 1.4.574 1.366.994" style="stroke-width:.35088"/></svg>