<svg xmlns="http://www.w3.org/2000/svg" viewBox="0 0 64 64"><defs><linearGradient id="a" x1="7.937" x2="7.937" y1="15.081" y2="1.852" gradientTransform="translate(3.431 3.457)scale(3.3743)" gradientUnits="userSpaceOnUse"><stop offset="0" stop-color="#f1efeb"/><stop offset="1" stop-color="#fff"/></linearGradient></defs><path fill="#00aa85" d="M16.987 4A12.973 12.973 0 0 0 3.985 17.002V47a12.973 12.973 0 0 0 13.002 13.002h29.998A12.973 12.973 0 0 0 59.987 47V17.002A12.973 12.973 0 0 0 46.985 4z"/><rect width="49.997" height="49.997" x="7.003" y="7" fill="url(#a)" rx="10" ry="10"/><path fill="#fff" d="M17.004 7c-5.54 0-10 4.46-10 10v29.998c0 5.54 4.46 10 10 10h14.998V7z"/><circle cx="32.02" cy="32.044" r="30.001" fill="none"/><path fill="#f2f2f2" d="M46.999 7c5.54 0 10 4.46 10 10v29.998c0 5.54-4.46 10-10 10H32.001V7z"/><g stroke-width=".265" transform="scale(3.7796)"><rect width="4.498" height=".132" x="9.525" y="3.704" opacity=".1" rx="0" ry="0"/><rect width="4.498" height=".132" x="9.525" y="4.762" opacity=".1" rx="0" ry="0"/><rect width="4.498" height=".132" x="9.525" y="5.821" opacity=".1" rx="0" ry="0"/><rect width="4.498" height=".132" x="9.525" y="6.879" opacity=".1" rx="0" ry="0"/><rect width="4.498" height=".132" x="9.525" y="7.937" opacity=".1" rx="0" ry="0"/><rect width="4.498" height=".132" x="9.525" y="8.996" opacity=".1" rx="0" ry="0"/></g><path fill="#00aa85" d="M16 4.735h12V41l-6-5-6 5z"/><path d="M3.998 45.998v1c0 7.203 5.8 13.004 13.004 13.004h29.996c7.203 0 13.004-5.8 13.004-13.004v-1c0 7.203-5.8 13.002-13.004 13.002H17.002A12.975 12.975 0 0 1 3.998 45.998" opacity=".15"/><path fill="#fff" d="M3.998 18.004v-1C3.998 9.801 9.798 4 17.002 4h29.996c7.203 0 13.004 5.8 13.004 13.004v1c0-7.203-5.8-13.002-13.004-13.002H17.002A12.975 12.975 0 0 0 3.998 18.004" opacity=".15"/><circle cx="46.002" cy="47" r="16" fill="#333"/><circle cx="46.002" cy="46.002" r="16" fill="#4d4d4d"/><path fill="#fff" d="M46.002 30.002a16 16 0 0 0-16 16 16 16 0 0 0 .035.498A16 16 0 0 1 46.002 31a16 16 0 0 1 15.982 15.26l.018-.258a16 16 0 0 0-16-16" opacity=".1"/><path fill="#fff" d="m52.387 36.025-.501 1.34a.24.24 0 0 0 .074.26l.59.452a.25.25 0 0 0 .272.004l1.163-.83a.21.21 0 0 1 .259.022l.487.487a.206.206 0 0 1 .022.258l-.83 1.163a.24.24 0 0 0 .005.272l.452.59a.25.25 0 0 0 .261.074l1.338-.501a.206.206 0 0 1 .244.088l.344.596a.205.205 0 0 1-.046.255l-1.104.909a.24.24 0 0 0-.066.264l.284.686c.035.084.14.149.233.14l1.423-.138a.21.21 0 0 1 .214.147l.178.666a.205.205 0 0 1-.11.234l-1.303.592a.24.24 0 0 0-.132.238l.097.736c.012.09.097.18.19.196l1.41.234a.21.21 0 0 1 .167.198v.689a.205.205 0 0 1-.167.197l-1.409.235a.24.24 0 0 0-.189.195l-.096.737a.25.25 0 0 0 .132.238l1.3.592a.21.21 0 0 1 .11.234l-.178.665a.206.206 0 0 1-.213.148l-1.422-.138a.24.24 0 0 0-.233.14l-.285.687a.24.24 0 0 0 .066.263l1.104.909c.072.06.093.173.046.255l-.345.596a.206.206 0 0 1-.244.088l-1.34-.501a.24.24 0 0 0-.26.074l-.452.59a.25.25 0 0 0-.004.273l.83 1.163a.21.21 0 0 1-.022.258l-.487.487a.206.206 0 0 1-.258.022l-1.163-.83a.24.24 0 0 0-.272.004l-.59.453a.25.25 0 0 0-.074.261l.501 1.338a.206.206 0 0 1-.088.243l-.596.345a.205.205 0 0 1-.255-.046l-.909-1.104a.24.24 0 0 0-.263-.066l-.687.284a.25.25 0 0 0-.14.233l.138 1.423a.21.21 0 0 1-.147.214l-.666.178a.205.205 0 0 1-.234-.11l-.592-1.303a.24.24 0 0 0-.238-.132l-.736.097a.25.25 0 0 0-.195.19l-.235 1.41a.21.21 0 0 1-.198.167h-.689a.205.205 0 0 1-.197-.167l-.235-1.409a.24.24 0 0 0-.195-.189l-.737-.096a.25.25 0 0 0-.238.132l-.591 1.3a.21.21 0 0 1-.235.11l-.665-.178a.206.206 0 0 1-.148-.213l.138-1.422a.24.24 0 0 0-.14-.233l-.687-.285a.24.24 0 0 0-.263.066l-.909 1.104a.21.21 0 0 1-.255.046l-.596-.345a.206.206 0 0 1-.088-.244l.501-1.34a.24.24 0 0 0-.074-.26l-.59-.452a.25.25 0 0 0-.272-.004l-1.164.83a.21.21 0 0 1-.258-.021l-.487-.488a.206.206 0 0 1-.022-.258l.83-1.162a.24.24 0 0 0-.005-.272l-.452-.59a.25.25 0 0 0-.261-.075l-1.338.501a.206.206 0 0 1-.244-.088l-.344-.596a.205.205 0 0 1 .046-.255l1.104-.909a.24.24 0 0 0 .066-.263l-.284-.687a.25.25 0 0 0-.233-.14l-1.424.139a.21.21 0 0 1-.213-.148l-.178-.666a.205.205 0 0 1 .11-.234l1.303-.592a.24.24 0 0 0 .132-.238l-.097-.736a.25.25 0 0 0-.19-.195l-1.41-.235a.21.21 0 0 1-.167-.198v-.688c0-.096.074-.183.167-.198l1.409-.235a.24.24 0 0 0 .189-.195l.096-.737a.25.25 0 0 0-.132-.238l-1.3-.591a.21.21 0 0 1-.11-.234l.178-.666a.206.206 0 0 1 .213-.148l1.422.138a.24.24 0 0 0 .233-.14l.285-.686a.24.24 0 0 0-.066-.264l-1.104-.909a.21.21 0 0 1-.046-.255l.344-.596a.206.206 0 0 1 .245-.088l1.34.502a.24.24 0 0 0 .26-.075l.452-.59a.25.25 0 0 0 .004-.272l-.83-1.163a.21.21 0 0 1 .022-.258l.487-.488a.206.206 0 0 1 .258-.022l1.162.83a.24.24 0 0 0 .273-.004l.59-.453a.25.25 0 0 0 .074-.26l-.501-1.339a.206.206 0 0 1 .088-.243l.596-.345a.205.205 0 0 1 .255.046l.909 1.104a.24.24 0 0 0 .263.066l.687-.283a.25.25 0 0 0 .14-.234l-.139-1.423a.21.21 0 0 1 .148-.213l.666-.178a.205.205 0 0 1 .234.11l.592 1.302a.24.24 0 0 0 .238.133l.736-.098a.25.25 0 0 0 .195-.19l.235-1.41a.21.21 0 0 1 .198-.167h.688c.096 0 .183.075.198.167l.235 1.41a.24.24 0 0 0 .195.188l.737.096a.25.25 0 0 0 .238-.132l.591-1.3a.21.21 0 0 1 .234-.11l.666.178c.092.025.157.12.148.213l-.138 1.422a.24.24 0 0 0 .14.233l.686.286a.24.24 0 0 0 .264-.067l.909-1.104a.21.21 0 0 1 .255-.045l.596.344c.083.048.12.156.088.244m-2.283 2.854a8.2 8.2 0 0 0-6.135-.85c-.386.097-.16.044-.16.044-.537.183-.752.738-.48 1.232 0 0-.157-.285.012.022l2.413 4.403c.364.663 1.273 1.19 2.03 1.174l5.35-.112c.33-.007 0 0 0 0 .548-.011.905-.473.785-.99a8.2 8.2 0 0 0-3.814-4.923zm-.134 14.318a8.2 8.2 0 0 0 3.889-4.822c.115-.381.044-.16.044-.16.12-.555-.245-1.024-.809-1.046l-.025-.001-5.016-.2c-.756-.03-1.675.479-2.052 1.137l-2.66 4.642c-.164.288 0 0 0 0-.272.476-.06 1.02.445 1.184 0 0-.319-.089 0 0a8.2 8.2 0 0 0 6.184-.734m-9.733-1.31c.394.355.972.267 1.248-.208 0 0-.166.287 0 0l2.69-4.624c.38-.655.362-1.705-.042-2.345l-2.68-4.245c-.188-.296-.014-.021-.014-.021-.3-.477-.89-.558-1.31-.177 0 0 .156-.172-.117.119a8.2 8.2 0 0 0-2.23 5.778 8.2 8.2 0 0 0 2.456 5.722z" class="shp86"/></svg>