<svg xmlns="http://www.w3.org/2000/svg" xmlns:xlink="http://www.w3.org/1999/xlink" width="64" height="64" enable-background="new 0 0 1024 1024" image-rendering="optimizeSpeed"><defs><linearGradient id="b" x1="14.825" x2="11.385" y1="2.109" y2="5.548" gradientTransform="rotate(90 32.001 31.97)scale(3.7796)" gradientUnits="userSpaceOnUse"><stop offset="0" stop-color="#ececec"/><stop offset="1" stop-color="#999"/></linearGradient><linearGradient id="c" x1="13.237" x2="2.654" y1="7.665" y2="7.665" gradientTransform="rotate(90 32.001 31.97)scale(3.7796)" gradientUnits="userSpaceOnUse"><stop offset="0" stop-color="#e6e6e6"/><stop offset="1" stop-color="#f9f9f9"/></linearGradient><linearGradient id="d" x1="45" x2="60.076" y1="19" y2="3.924" gradientTransform="rotate(90 32.001 31.97)" gradientUnits="userSpaceOnUse"><stop offset="0" stop-color="#fff"/><stop offset="1" stop-color="#b3b3b3"/></linearGradient><linearGradient xlink:href="#a" id="h" x1="-48" x2="-24" y1="248" y2="248" gradientTransform="matrix(.83333 0 0 .95455 -278.5 -124.98)" gradientUnits="userSpaceOnUse"/><linearGradient id="a"><stop offset="0" stop-color="#e01b24"/><stop offset="1" stop-color="#f66151"/></linearGradient><linearGradient xlink:href="#a" id="i" x1="-42" x2="-30" y1="194" y2="194" gradientTransform="rotate(-90 69.125 203.38)" gradientUnits="userSpaceOnUse"/><linearGradient id="e" x1="35" x2="35" y1="5" y2="14" gradientUnits="userSpaceOnUse"><stop offset="0" stop-color="gray"/><stop offset="1" stop-color="#666"/></linearGradient><clipPath id="f"><rect width="112" height="82" x="-120" y="-282" fill="#f6f5f4" rx="8" ry="8" style="paint-order:normal" transform="scale(-1)"/></clipPath><filter id="g" width="1.12" height="1.12" x="-.06" y="-.06" color-interpolation-filters="sRGB"><feGaussianBlur stdDeviation="2.08"/></filter></defs><path fill="url(#b)" d="M60.002 34.969c0 6-19.031 25.002-25.031 25.002H47a12.973 12.973 0 0 0 13.002-13.002z"/><path fill="#fff" d="M17.002 7a9.95 9.95 0 0 0-9.97 9.97v30a9.95 9.95 0 0 0 9.97 9.97H47a9.95 9.95 0 0 0 9.97-9.97v-30A9.95 9.95 0 0 0 47 7zm0 1H47c4.97 0 8.97 4 8.97 8.97v30c0 4.97-4 8.97-8.97 8.97H17.002c-4.97 0-8.97-4-8.97-8.97v-30c0-4.97 4-8.971 8.97-8.971z"/><g fill="#fff"><path d="M55.97 48.968v1.001h-23v-1.001z"/><path d="M49.971 55.967H48.97V32.968h1.001z"/></g><path fill="url(#c)" d="M4.164 15c-.032.212-.076.42-.098.637v.002A13 13 0 0 0 4 16.97v29.998c0 1.35.203 2.652.582 3.875a13 13 0 0 0 8.545 8.545 13.1 13.1 0 0 0 3.875.582h17.969c6 0 25.031-19.002 25.031-25.002V16.97q-.001-1.006-.146-1.971H4.165z"/><path fill="url(#d)" d="M59.971 34.969c-1 4-7 5-11 6-3.88.97-6.545 3.18-8 9-1 4-.64 8-6 10 .024 0 .048-.004.072-.004 6.996-.11 23.738-16.605 24.893-24.209.02-.265.035-.528.035-.787"/><path fill="url(#e)" d="M17.002 3.969a12.96 12.96 0 0 0-9.203 3.8 13 13 0 0 0-3.217 5.327c-.19.614-.32 1.254-.418 1.904h55.691a13 13 0 0 0-1.418-4.236A13 13 0 0 0 55.28 6.93a12.93 12.93 0 0 0-6.945-2.895h-.002A13 13 0 0 0 47 3.97H17.002z"/><path fill-opacity=".292" d="m117.29 187.67-63.398 63.396 1.414 1.414-7.07 15.557 2.828 2.828 15.557-7.07 1.414 1.414 63.396-63.398z" clip-path="url(#f)" enable-background="new" filter="url(#g)" transform="translate(-.288 -90.48)scale(.5024)"/><path fill="none" stroke="#e01b24" stroke-linecap="round" stroke-width="2.01" d="M11.72 25.323c6.724 2.282-2.808 8.89 6.994 9.518 5.76.368 5.715 8.316 5.715 8.316"/><path fill="url(#h)" d="M-318.5 69.75h20v84h-20z" enable-background="new" transform="rotate(225 -61.776 -2.013)scale(.5024)"/><path fill="#3d3846" d="m58.048 17.094-7.105-7.105 1.421-1.421 7.105 7.105zM38.154 36.988l-7.105-7.105 1.421-1.421 7.105 7.105z" enable-background="new"/><path fill="url(#i)" d="M69.75 316.5v-16l-16 6v4z" enable-background="new" transform="rotate(-45 -108.893 102.022)scale(.5024)"/><path fill-opacity=".259" d="m34.602 40.54-7.105-7.105-.71.71 7.104 7.106z" enable-background="new"/><path fill="#3d3846" d="M38.154 22.778a5.024 2.512-45 0 0 5.329-1.776 5.024 2.512-45 0 0 1.776-5.33z" enable-background="new"/></svg>