<svg xmlns="http://www.w3.org/2000/svg" viewBox="0 0 16.933 16.933"><rect width="14.817" height="14.817" x="1.058" y="1.05" fill="#4dbc93" rx="3.44" ry="3.44"/><circle cx="8.472" cy="8.478" r="7.938" fill="none"/><path d="M1.058 12.17v.265a3.433 3.433 0 0 0 3.44 3.44h7.937a3.433 3.433 0 0 0 3.44-3.44v-.265a3.433 3.433 0 0 1-3.44 3.44H4.498a3.433 3.433 0 0 1-3.44-3.44" opacity=".15"/><path fill="#fff" d="M1.058 4.764v-.265a3.433 3.433 0 0 1 3.44-3.44h7.937a3.433 3.433 0 0 1 3.44 3.44v.265a3.433 3.433 0 0 0-3.44-3.44H4.498a3.433 3.433 0 0 0-3.44 3.44" opacity=".15"/><rect width="10.583" height="10.583" x="3.175" y="3.175" fill="#3e3e3e" rx="1.588" ry="1.588"/><path fill="#fff" d="M6.614 4.762c-1.273 0-1.923.913-1.923 2.094s.696 2.162 1.923 2.14c.788 0 1.266-.31 1.682-.773l-.527-.538c-.324.301-.691.54-1.154.54-.714 0-1.15-.667-1.154-1.38.005-.713.462-1.313 1.154-1.313.416 0 .77.155 1.094.456l.503-.603c-.394-.393-.81-.623-1.598-.623m2.31.001v4.233h2.693v-.77H9.693V4.763zm-4.162 6.349h3.97v.794h-3.97z"/></svg>