<svg xmlns="http://www.w3.org/2000/svg" width="64" height="64"><defs><linearGradient id="c" x1="60" x2="60" y1="54" y2="10.534" gradientUnits="userSpaceOnUse"><stop offset="0" stop-color="#09090b"/><stop offset="1" stop-color="#131315"/></linearGradient><linearGradient id="e" x1="59" x2="59" y1="47" y2="17" gradientUnits="userSpaceOnUse"><stop offset="0" stop-color="#323232"/><stop offset="1" stop-color="#444"/></linearGradient><linearGradient id="f" x1="60" x2="60" y1="58.216" y2="10.534" gradientTransform="translate(-27)" gradientUnits="userSpaceOnUse"><stop offset="0" stop-color="#09090b" stop-opacity="0"/><stop offset="1" stop-color="#131315" stop-opacity=".392"/></linearGradient><linearGradient id="g" x1="59" x2="59" y1="48" y2="52" gradientUnits="userSpaceOnUse"><stop offset="0" stop-color="#1e1e1e"/><stop offset="1" stop-color="#333" stop-opacity=".118"/></linearGradient><linearGradient id="a" x1="7.937" x2="7.937" y1="15.081" y2="1.852" gradientTransform="scale(3.7796)" gradientUnits="userSpaceOnUse"><stop offset="0" stop-color="#f1efeb"/><stop offset="1" stop-color="#fff"/></linearGradient><radialGradient id="b" cx="32.407" cy="53.593" r="16" gradientTransform="matrix(1.1059 0 0 .1851 -3.433 43.673)" gradientUnits="userSpaceOnUse"><stop offset="0"/><stop offset="1" stop-opacity="0"/></radialGradient><filter id="d" width="1.069" height="1.037" x="-.034" y="-.018" color-interpolation-filters="sRGB"><feGaussianBlur stdDeviation=".315"/></filter></defs><rect width="56.002" height="56.002" x="4" y="3.969" fill="url(#a)" rx="13.002" ry="13.002"/><ellipse cx="32.407" cy="53.593" fill="url(#b)" opacity=".35" rx="17.695" ry="2.962"/><g fill-rule="evenodd" transform="translate(-27)"><rect width="24" height="43" x="47" y="11" fill="#a8a8a8" stroke="#000" stroke-opacity=".392" stroke-width=".4" ry="3" style="paint-order:fill markers stroke"/><rect width="22" height="41" x="48" y="12" fill="url(#c)" filter="url(#d)" ry="2" style="paint-order:fill markers stroke"/><rect width="22" height="41" x="48" y="12" fill="url(#c)" ry="2" style="paint-order:fill markers stroke"/><path fill="url(#e)" d="M49 17h20v30H49z" style="paint-order:fill markers stroke"/><path fill="url(#f)" d="M40.1 12 21 43.959V51c0 1.108.892 2 2 2h18c1.108 0 2-.892 2-2V14c0-1.108-.892-2-2-2z" style="paint-order:fill markers stroke" transform="translate(27)"/><circle cx="59" cy="50" r="2" fill="url(#g)" style="paint-order:fill markers stroke"/><path fill="#333" d="M55 11h1v1h-1zm-8 37h1v1h-1zm23 0h1v1h-1z" opacity=".5" style="paint-order:fill markers stroke"/><rect width="4" height="1" x="58" y="14" fill="#666" ry=".475" style="paint-order:fill markers stroke"/><circle cx="55.5" cy="14.5" r=".5" fill="#666" style="paint-order:fill markers stroke"/></g><path fill="none" stroke="#fff" stroke-linecap="round" stroke-linejoin="round" stroke-width=".2" d="M58.3 49.3h1.401v1.401H58.3z" opacity=".15" style="paint-order:fill markers stroke" transform="translate(-27)"/></svg>