<svg xmlns="http://www.w3.org/2000/svg" xml:space="preserve" viewBox="0 0 64 64"><defs><linearGradient id="a" x1="7.937" x2="7.937" y1="15.081" y2="1.852" gradientTransform="scale(3.7796)" gradientUnits="userSpaceOnUse"><stop offset="0" stop-color="#363636"/><stop offset="1" stop-color="#6c6c6c"/></linearGradient></defs><rect width="6.129" height="7.403" x="14.469" y=".527" ry="1.713" style="opacity:1;fill:#9e7522;stroke-width:2;stroke-linecap:round;stroke-linejoin:bevel;fill-opacity:1"/><rect width="6.129" height="4.375" x="43.404" y="2.714" ry="1.713" style="fill:#9e7522;fill-opacity:1;stroke-width:2;stroke-linecap:round;stroke-linejoin:bevel"/><rect width="56.002" height="56.002" x="4" y="3.969" fill="url(#a)" rx="13.002" ry="13.002" style="fill:#9d7f65;fill-opacity:1"/><path fill="url(#h)" d="M94 98c-14.36 0-26-11.64-26-26s11.64-26 26-26 26 11.64 26 26-11.64 26-26 26m0 0" style="fill:#664e16;fill-opacity:1" transform="translate(2.133 -1.632)scale(.46668)"/><path fill="url(#g)" d="M34 98C19.64 98 8 86.36 8 72s11.64-26 26-26 26 11.64 26 26-11.64 26-26 26m0 0" style="display:inline;fill:#664e16;fill-opacity:1" transform="translate(2.133 -1.632)scale(.46668)"/><path fill="#f6f5f4" d="M29.2 31.97c0 6.185-5.014 11.2-11.2 11.2S6.8 38.155 6.8 31.97c0-6.186 5.015-11.2 11.2-11.2 6.186 0 11.2 5.014 11.2 11.2m0 0"/><path fill="#3d3846" d="M28.268 32.436H26.4v-.933h1.867zm0 0"/><path fill="#77767b" d="m26.658 37.508-1.615-.934.466-.809 1.616.933zm-3.928 3.586-.934-1.616.81-.466.933 1.615zm0 0"/><path fill="#3d3846" d="M17.534 42.237V40.37h.933v1.867zm0 0"/><path fill="#77767b" d="m12.462 40.627.934-1.615.81.466-.934 1.616zm-3.586-3.929 1.616-.933.466.81-1.615.933zm0 0"/><path fill="#3d3846" d="M7.733 31.503H9.6v.933H7.733zm0 0"/><path fill="#77767b" d="m9.343 26.431 1.615.934-.466.81-1.616-.934zm3.929-3.585.933 1.615-.81.466-.933-1.615zm0 0"/><path fill="#3d3846" d="M18.467 21.703v1.866h-.933v-1.866zm0 0"/><path fill="#77767b" d="m23.539 23.312-.934 1.615-.81-.466.934-1.615zm3.586 3.928-1.616.934-.466-.81 1.615-.933zm0 0"/><path fill="#e01b24" d="M14.267 22.636h.933v3.733h-.933zm0 0"/><path fill="#e01b24" d="M15.667 22.636a.933.933 0 1 1-1.866.001.933.933 0 0 1 1.866-.001m0 0"/><g fill="#241f31" style="display:inline"><path d="M19.867 31.97a1.866 1.866 0 1 1-3.733 0 1.866 1.866 0 1 1 3.733 0m0 0"/><path d="m18.01 36.73-.925-4.576 1.83-.369.925 4.574zm0 0"/><path d="m10.75 28.717 7.416 2.817-.331.873-7.416-2.818Zm0 0"/></g><path fill="#f6f5f4" d="M57.202 31.97c0 6.185-5.015 11.2-11.2 11.2-6.186 0-11.2-5.015-11.2-11.2 0-6.186 5.014-11.2 11.2-11.2s11.2 5.014 11.2 11.2m0 0"/><path fill="#3d3846" d="M56.269 32.436h-1.867v-.933h1.867zm0 0"/><path fill="#77767b" d="m54.659 37.508-1.615-.934.466-.809 1.616.933zm-3.929 3.586-.933-1.616.81-.466.933 1.615zm0 0"/><path fill="#3d3846" d="M45.535 42.237V40.37h.933v1.867zm0 0"/><path fill="#77767b" d="m40.463 40.627.934-1.615.81.466-.934 1.616zm-3.586-3.929 1.616-.933.466.81-1.615.933zm0 0"/><path fill="#3d3846" d="M35.734 31.503h1.867v.933h-1.867zm0 0"/><path fill="#77767b" d="m37.344 26.431 1.615.934-.466.81-1.616-.934zm3.929-3.585.933 1.615-.81.466-.933-1.615zm0 0"/><path fill="#3d3846" d="M46.468 21.703v1.866h-.933v-1.866zm0 0"/><path fill="#77767b" d="m51.54 23.312-.934 1.615-.81-.466.934-1.615zm3.586 3.928-1.616.934-.466-.81 1.615-.933zm0 0"/><path fill="#e01b24" d="M42.268 22.636h.933v3.733h-.933zm0 0"/><path fill="#e01b24" d="M43.668 22.636a.933.933 0 1 1-1.866.001.933.933 0 0 1 1.866-.001m0 0"/><path fill="#241f31" d="M47.868 31.97a1.866 1.866 0 1 1-3.733 0 1.866 1.866 0 1 1 3.733 0m0 0"/><path fill="#241f31" d="m46.01 36.73-.924-4.576 1.83-.369.925 4.574zm0 0"/><path fill="#241f31" d="m38.752 28.717 7.415 2.817-.331.873-7.416-2.818Zm0 0"/><path d="M3.998 45.998v1c0 7.203 5.8 13.004 13.004 13.004h29.996c7.203 0 13.004-5.8 13.004-13.004v-1c0 7.203-5.8 13.002-13.004 13.002H17.002A12.975 12.975 0 0 1 3.998 45.998" opacity=".15"/><path fill="#fff" d="M3.998 18.004v-1C3.998 9.801 9.798 4 17.002 4h29.996c7.203 0 13.004 5.8 13.004 13.004v1c0-7.203-5.8-13.002-13.004-13.002H17.002A12.975 12.975 0 0 0 3.998 18.004" opacity=".15"/></svg>