<svg xmlns="http://www.w3.org/2000/svg" viewBox="0 0 64 64"><rect width="56.002" height="56.002" x="4" y="3.969" fill="#4d4d4d" rx="13.002" ry="13.002"/><rect width="44" height="44" x="10" y="10" fill="#fff" opacity=".15" rx="7" ry="7" style="paint-order:normal"/><rect width="44" height="32" x="10" y="22" fill="#fb9a2c" rx="7" ry="7" style="paint-order:normal"/><path fill="none" stroke="#fff" stroke-linecap="round" stroke-width="2" d="M17 34v-5h6m24 5v-5h-6m6 13v5h-6m-24-5v5h6"/><circle cx="48" cy="16" r="3" fill="maroon"/><rect width="14" height="2" x="25" y="15" fill="#f2f2f2" rx="1" ry="1"/><circle cx="48" cy="16" r="2" fill="#ff8080"/><path d="M3.998 45.998v1c0 7.203 5.8 13.004 13.004 13.004h29.996c7.203 0 13.004-5.8 13.004-13.004v-1c0 7.203-5.8 13.002-13.004 13.002H17.002A12.975 12.975 0 0 1 3.998 45.998" opacity=".35"/><path fill="#fff" d="M3.998 18.004v-1C3.998 9.801 9.798 4 17.002 4h29.996c7.203 0 13.004 5.8 13.004 13.004v1c0-7.203-5.8-13.002-13.004-13.002H17.002A12.975 12.975 0 0 0 3.998 18.004" opacity=".15"/></svg>