<svg xmlns="http://www.w3.org/2000/svg" viewBox="0 0 64 64"><rect width="56.002" height="56.002" x="4" y="3.969" fill="#aebbbd" rx="13.002" ry="13.002"/><path d="M3.998 45.998v1c0 7.203 5.8 13.004 13.004 13.004h29.996c7.203 0 13.004-5.8 13.004-13.004v-1c0 7.203-5.8 13.002-13.004 13.002H17.002A12.975 12.975 0 0 1 3.998 45.998" opacity=".12"/><path fill="#fff" d="M3.998 18.004v-1C3.998 9.801 9.798 4 17.002 4h29.996c7.203 0 13.004 5.8 13.004 13.004v1c0-7.203-5.8-13.002-13.004-13.002H17.002A12.975 12.975 0 0 0 3.998 18.004" opacity=".2"/><path fill="#ececec" d="M28.739 13.739c-1.084 0-1.889.875-1.956 1.957v21.522l-7.095-5.95a1.95 1.95 0 0 0-1.384-.572 1.95 1.95 0 0 0-1.956 1.956c0 .5.19 1.002.573 1.384l11.818 11.008s2.457 2.61 5.87 2.608c4.322 0 7.826-2.92 7.826-6.521V28.088c0-.723-.582-1.305-1.305-1.305h-1.304v6.522h-1.304v-8.053c0-.722-.582-1.304-1.305-1.304h-1.304V32H34.61V21.24c0-.542-.582-.979-1.304-.979S32 20.698 32 21.24v9.456h-1.304v-15a1.95 1.95 0 0 0-1.957-1.956z"/></svg>