<svg xmlns="http://www.w3.org/2000/svg" xmlns:xlink="http://www.w3.org/1999/xlink" viewBox="0 0 64 64"><defs><linearGradient id="a" x1="7.937" x2="7.937" y1="15.081" y2="1.852" gradientTransform="scale(3.7796)" gradientUnits="userSpaceOnUse"><stop offset="0" stop-color="#f1efeb"/><stop offset="1" stop-color="#fdfcfc"/></linearGradient><linearGradient xlink:href="#a" id="b" x1="7.937" x2="7.937" y1="15.081" y2="1.852" gradientTransform="scale(3.7796)" gradientUnits="userSpaceOnUse"/><clipPath id="d"><rect width="56.003" height="56.003" x="4" y="3.969" fill="url(#b)" stroke-width="3.779" rx="13.002" ry="13.002"/></clipPath><clipPath id="c"><rect width="56.003" height="56.003" x="4" y="3.969" fill="url(#b)" stroke-width="3.779" rx="13.002" ry="13.002"/></clipPath></defs><path fill="#db3a12" d="M4.06 15.762c-.036.399-.06.8-.06 1.209v29.998c0 .411.024.817.06 1.219l12.233-7.086 15.709-9.111-15.71-9.12z"/><path fill="#ffbd4b" d="m32.002 31.973-15.709 9.113-12.232 7.088a12.95 12.95 0 0 0 6.346 9.996l.517.3a13 13 0 0 0 6.078 1.501h15.086v-9.297z"/><path fill="#42c41e" d="m59.941 15.746-12.232 7.11-15.707 9.117 15.707 9.113 12.232 7.088c.036-.397.06-.799.06-1.205V16.97c0-.414-.023-.821-.06-1.225"/><path fill="#d5f389" d="m32.002 31.973.086 18.701v9.297H47c2.198 0 4.264-.545 6.076-1.5l.52-.299A12.95 12.95 0 0 0 59.94 48.17l-12.23-7.084z"/><path fill="#0060e7" d="M32.088 3.969v9.306l-.086 18.697 15.707-9.109 12.234-7.086a12.95 12.95 0 0 0-6.168-9.9l-.758-.436A13 13 0 0 0 47 3.968z"/><path fill="#31b1ff" d="M17.002 3.969c-2.177 0-4.22.537-6.02 1.474l-.763.44a12.95 12.95 0 0 0-6.16 9.894l12.234 7.086 15.709 9.11.086-18.697V3.969z"/><path fill="#202020" d="M32.001 9.591c-3.474 0-6.35 2.879-6.35 6.353 0 .495.184.933.294 1.398-1.13-1.787-3.034-3.053-5.28-3.053-3.474 0-6.352 2.875-6.352 6.35 0 2.246 1.267 4.148 3.057 5.278-.467-.108-.907-.291-1.403-.291-3.473 0-6.348 2.875-6.348 6.348 0 3.474 2.875 6.35 6.348 6.35.494 0 .936-.184 1.403-.294-1.79 1.131-3.057 3.037-3.057 5.284 0 3.472 2.874 6.35 6.348 6.35 2.25 0 4.154-1.272 5.284-3.061-.11.467-.294.909-.294 1.405 0 3.474 2.877 6.35 6.35 6.35s6.35-2.876 6.35-6.35c0-.495-.184-.937-.294-1.402 1.13 1.788 3.033 3.057 5.28 3.057 3.475 0 6.349-2.877 6.349-6.35 0-2.247-1.268-4.152-3.057-5.283.468.111.913.293 1.41.293 3.47 0 6.344-2.875 6.344-6.35s-2.872-6.347-6.345-6.347c-.496 0-.94.182-1.406.291 1.79-1.13 3.057-3.032 3.057-5.278 0-3.475-2.875-6.35-6.348-6.35-2.25 0-4.154 1.269-5.284 3.06.11-.467.293-.909.293-1.405 0-3.476-2.876-6.352-6.349-6.352" clip-path="url(#c)"/><path fill="#fff" d="M37.721 34.343h7.057a3.415 3.415 0 1 0 0-4.737H37.72l4.989-4.99.067.001a3.415 3.415 0 1 0-3.417-3.415l.002.064-4.99 4.99v-7.055a3.415 3.415 0 1 0-4.738 0v7.055l-4.99-4.99v-.064a3.416 3.416 0 1 0-6.833 0 3.415 3.415 0 0 0 3.416 3.415l.065-.001 4.992 4.99h-7.058a3.415 3.415 0 1 0 0 4.737h7.058l-4.992 4.99-.065-.001a3.415 3.415 0 1 0 3.417 3.417l-.002-.065 4.989-4.993v7.059a3.417 3.417 0 1 0 4.74 0v-7.06l4.989 4.993v.065a3.415 3.415 0 1 0 3.415-3.417l-.067.001z" clip-path="url(#d)"/><path d="M3.998 45.998v1c0 7.203 5.8 13.004 13.004 13.004h29.996c7.203 0 13.004-5.8 13.004-13.004v-1c0 7.203-5.8 13.002-13.004 13.002H17.002A12.975 12.975 0 0 1 3.998 45.998" opacity=".15"/><path fill="#fff" d="M3.998 18.004v-1C3.998 9.801 9.798 4 17.002 4h29.996c7.203 0 13.004 5.8 13.004 13.004v1c0-7.203-5.8-13.002-13.004-13.002H17.002A12.975 12.975 0 0 0 3.998 18.004" opacity=".15"/></svg>