<svg xmlns="http://www.w3.org/2000/svg" viewBox="0 0 64 64"><rect width="56.002" height="56.002" x="4" y="3.969" fill="#f2f2f2" rx="13.002" ry="13.002"/><path d="M3.998 45.998v1c0 7.203 5.8 13.004 13.004 13.004h29.996c7.203 0 13.004-5.8 13.004-13.004v-1c0 7.203-5.8 13.002-13.004 13.002H17.002A12.975 12.975 0 0 1 3.998 45.998" opacity=".1"/><path fill="#fff" d="M3.998 18.004v-1C3.998 9.801 9.798 4 17.002 4h29.996c7.203 0 13.004 5.8 13.004 13.004v1c0-7.203-5.8-13.002-13.004-13.002H17.002A12.975 12.975 0 0 0 3.998 18.004" opacity=".5"/><path fill="#4f4f4f" d="m32 7.417-20.691 12.06v24.17L32 55.708 52.691 43.54V19.587l-11.489-6.755-6.391 4.056 11.072 6.517.029 16.195L32 47.843l-13.878-8.147-.039-16.411 20.247-12.16z"/><path fill="#7baf31" d="m17.98 23.455.04 16.31 3.453 2.3v-5.073l7.04 4.082v5.086l3.5 1.815v-16.61zm10.507 14.13-6.96-4.055v-3.827l6.96 3.946z"/><path fill="#4f4f4f" d="m32 7.063 6.933 4.057L17.98 23.456 11 19.303zm2.221 9.834 6.973-4.425L53 19.411l-7.013 4.167z"/><path fill="#89c236" d="M45.987 23.333 32 31.367v4.22l5.25-3.015v12.224l3.5-2.07v-12.32l5.237-3.002z"/><path fill="#3f3f3f" d="M11 19.302v24.52l21 12.24v-8.227L18.02 39.52l-.04-16.065z"/><path fill="#5b5b5b" d="M53 43.714 32 56.062v-8.227l14.013-8.41-.027-16.093L53 19.41z"/></svg>