<svg xmlns="http://www.w3.org/2000/svg" viewBox="0 0 64 64"><rect width="56.002" height="56.002" x="4" y="3.969" fill="#f2f2f2" rx="13.002" ry="13.002"/><path d="M3.998 45.998v1c0 7.203 5.8 13.004 13.004 13.004h29.996c7.203 0 13.004-5.8 13.004-13.004v-1c0 7.203-5.8 13.002-13.004 13.002H17.002A12.975 12.975 0 0 1 3.998 45.998" opacity=".1"/><path fill="#fff" d="M3.998 18.004v-1C3.998 9.801 9.798 4 17.002 4h29.996c7.203 0 13.004 5.8 13.004 13.004v1c0-7.203-5.8-13.002-13.004-13.002H17.002A12.975 12.975 0 0 0 3.998 18.004" opacity=".5"/><path fill="#484848" d="m30.655 12.999-15.438 8.868 16.861 9.737 16.706-9.737-15.28-8.868v6.81l6.018 3.482c.238.079.238.476 0 .635l-7.125 4.115c-.238.08-.477.08-.635 0l-7.125-4.115c-.238-.08-.238-.477 0-.635l6.018-3.483zm18.13 8.868-16.706 9.739-16.861-9.739v17.655l5.857-3.405V29.23c0-.237.316-.397.475-.318l7.127 4.117c.238.08.316.316.316.633v8.235c.159.237-.159.395-.396.316l-6.018-3.482-5.857 3.402 15.357 8.868 15.28-8.868-5.858-3.402-6.018 3.562c-.237.159-.474-.08-.474-.318v-8.233c0-.237.158-.474.316-.633l7.125-4.117c.238-.158.477.079.477.316v6.887l5.857 3.405z"/><path fill="#fff" d="m28.596 42.212-6.017-3.483-5.858 3.404 15.358 8.866V31.604l-16.863-9.738V39.52v-.079.08l5.859-3.405v-6.887c0-.238.316-.396.475-.317l7.125 4.117c.237.079.316.316.316.633v8.233c.159.238-.158.396-.395.317" class="st1" opacity=".1"/><path fill="#fff" d="M33.504 12.999v6.808l6.017 3.484c.237.079.237.475 0 .633l-7.125 4.117c-.238.079-.475.079-.634 0l-7.125-4.117c-.237-.08-.237-.475 0-.633l6.017-3.484v-6.808l-15.438 8.867 16.863 9.737 16.704-9.737z" class="st0" opacity=".2"/></svg>