<svg xmlns="http://www.w3.org/2000/svg" viewBox="0 0 64 64"><rect width="56.002" height="56.002" x="4" y="3.969" fill="#686868" rx="13.002" ry="13.002"/><path fill="#c3c6cb" d="M21 10h21c2.77 0 4.505 2.169 5 4.767l6 31.465C53.496 48.831 50.77 51 48 51H16.002c-2.77 0-5.415-2.156-5-4.768L16 14.767C16.415 12.156 18.23 10 21 10"/><rect width="42" height="10" x="11" y="42" fill="#2c2c2e" ry="5"/><rect width="20" height="2" x="20" y="46" fill="#559ef7" ry="1"/><circle cx="15.997" cy="47" r="2" opacity=".452"/><path fill="#fff" d="M16 46.075a.14.14 0 0 0-.105.045.14.14 0 0 0-.043.103v.745q-.001.06.043.103c.044.043.065.045.105.045a.14.14 0 0 0 .104-.045.14.14 0 0 0 .044-.103v-.745a.14.14 0 0 0-.044-.103.14.14 0 0 0-.104-.045m-.428.219c-.04 0-.076 0-.11.03a.87.87 0 0 0-.357.71q.001.18.073.346.07.165.19.285a.9.9 0 0 0 .63.26q.18 0 .346-.07a.87.87 0 0 0 .474-.475.88.88 0 0 0-.285-1.057.14.14 0 0 0-.111-.03c-.041 0-.074.025-.098.057a.14.14 0 0 0-.027.11q.008.06.057.1a.592.592 0 0 1-.586 1.02.6.6 0 0 1-.319-.316.59.59 0 0 1 .191-.705.15.15 0 0 0 .06-.1.14.14 0 0 0-.03-.109.13.13 0 0 0-.098-.056"/><path d="M3.998 45.998v1c0 7.203 5.8 13.004 13.004 13.004h29.996c7.203 0 13.004-5.8 13.004-13.004v-1c0 7.203-5.8 13.002-13.004 13.002H17.002A12.975 12.975 0 0 1 3.998 45.998" opacity=".15"/><path fill="#ececec" d="M60.833 39.873q-.292-.706-.658-1.384a14 14 0 0 0-.437-.76 16.7 16.7 0 0 0-2.425-3.043Q52.627 30 45.998 30q-6.627 0-11.312 4.686Q30.001 39.371 30 45.998c-.001 6.627 1.563 8.191 4.686 11.314q4.686 4.685 11.312 4.684 6.629.001 11.315-4.684 2.58-2.583 3.74-5.754.944-2.584.944-5.56 0-2.282-.556-4.337a21 21 0 0 0-.132-.46 16 16 0 0 0-.476-1.328" image-rendering="optimizeSpeed"/><path fill="#539df6" d="M38 47a8 8 0 0 0 8 8c4.373 0 7.92-3.211 7.992-7.568Q54 47.366 54 47.3c0-.737-.764-1.3-1.5-1.3s-1.5.563-1.5 1.3c0 2.945-2.054 4.7-5 4.7-2.945 0-5-2.054-5-5 0-2.945 2.054-5 5-5v3l6-4.5-6-4.5v2.999a8 8 0 0 0-8 8z"/><path fill="#fff" d="M3.998 18.004v-1C3.998 9.801 9.798 4 17.002 4h29.996c7.203 0 13.004 5.8 13.004 13.004v1c0-7.203-5.8-13.002-13.004-13.002H17.002A12.975 12.975 0 0 0 3.998 18.004" opacity=".15"/></svg>