<svg xmlns="http://www.w3.org/2000/svg" viewBox="0 0 16.933 16.933"><rect width="14.817" height="14.817" x="1.058" y="1.05" fill="#b3b3b3" rx="3.44" ry="3.44"/><rect width="13.757" height="13.742" x="1.588" y="1.587" fill="#030000" rx="2.91" ry="2.91"/><rect width="12.171" height="12.171" x="2.381" y="2.381" fill="#262626" rx="2.117" ry="2.117"/><g fill-rule="evenodd" stroke-width=".361" clip-rule="evenodd"><path fill="#2096ff" d="m7.72 9.222-.336.784 1.083 3.247 1.082-3.247-.336-.784z" style="paint-order:normal" transform="translate(0 .446)"/><path fill="#ff7314" d="M7.745 3.873 4.498 12.17H5.94l2.526-6.134 2.525 6.134h1.443L9.188 3.873z" style="paint-order:normal" transform="translate(0 .446)"/><path fill="#c1eefd" d="M8.466 7.48 7.72 9.222l.747 1.866.746-1.866z" style="paint-order:normal" transform="translate(0 .446)"/></g><path d="M1.058 12.17v.265a3.433 3.433 0 0 0 3.44 3.44h7.937a3.433 3.433 0 0 0 3.44-3.44v-.265a3.433 3.433 0 0 1-3.44 3.44H4.498a3.433 3.433 0 0 1-3.44-3.44" opacity=".15"/><path fill="#fff" d="M1.058 4.763V4.5a3.433 3.433 0 0 1 3.44-3.44h7.937a3.433 3.433 0 0 1 3.44 3.44v.265a3.433 3.433 0 0 0-3.44-3.44H4.498a3.433 3.433 0 0 0-3.44 3.44z" opacity=".35"/></svg>