<svg xmlns="http://www.w3.org/2000/svg" viewBox="0 0 64 64"><rect width="56" height="56" x="4" y="4" fill="#4d4d4d" rx="13.002" ry="13.002"/><rect width="56" height="56" x="4" y="4" fill="#4d4d4d" rx="13.002" ry="13.002"/><path d="M3.998 45.998v1c0 7.203 5.8 13.004 13.004 13.004h29.996c7.203 0 13.004-5.8 13.004-13.004v-1c0 7.203-5.8 13.002-13.004 13.002H17.002A12.975 12.975 0 0 1 3.998 45.998" opacity=".35"/><path fill="#fff" d="M3.998 18.004v-1C3.998 9.801 9.798 4 17.002 4h29.996c7.203 0 13.004 5.8 13.004 13.004v1c0-7.203-5.8-13.002-13.004-13.002H17.002A12.975 12.975 0 0 0 3.998 18.004" opacity=".15"/><path fill="#f2f2f2" fill-rule="evenodd" d="M26.553 10.074c-3.935 2.076-7.228 5.96-7.322 10.581-.076 2.399.425 4.928 1.597 6.995 4.115.07 8.351 2.419 9.794 6.42 2.114 5.29-.374 12.313-5.936 14.262-2.852 1.027-6.024.57-8.781-.538 3.769 2.373 8.787 3.28 12.837 1.043C30.862 47.713 32.729 46.014 34 44c-2-3.607-2.08-8.446.661-11.703 3.514-4.48 10.835-5.86 15.308-2.02 2.317 1.954 3.504 4.93 3.924 7.87.169-4.447-1.547-9.242-5.5-11.633-2.032-1.296-4.432-2.006-6.814-2.17-2.125 3.536-6.275 6.027-10.467 5.285-5.633-.796-10.495-6.437-9.407-12.228.532-2.985 2.519-5.5 4.852-7.33z"/></svg>