<svg xmlns="http://www.w3.org/2000/svg" xmlns:xlink="http://www.w3.org/1999/xlink" width="64" height="64"><defs><linearGradient id="a" x1="399.57" x2="399.57" y1="545.8" y2="517.8" gradientTransform="translate(-826.34 -1107.5)scale(2.1429)" gradientUnits="userSpaceOnUse"><stop offset="0" stop-color="#3889e9"/><stop offset="1" stop-color="#5ea5fb"/></linearGradient><linearGradient id="d" x1="26" x2="26" y1="35" y2="7" gradientTransform="translate(8 5)" gradientUnits="userSpaceOnUse"><stop offset="0" stop-color="#b6b9bf"/><stop offset="1" stop-color="#dddfe2"/></linearGradient><linearGradient id="e" x1="3" x2="45" y1="42" y2="42" gradientTransform="translate(8 5)" gradientUnits="userSpaceOnUse"><stop offset="0" stop-color="#1a1a1a"/><stop offset=".111" stop-color="#2c2c2e"/><stop offset=".29" stop-color="#2b2b2d"/><stop offset=".512" stop-color="#2a2b2d"/><stop offset=".752" stop-color="#2b2b2d"/><stop offset=".897" stop-color="#323232"/><stop offset="1" stop-color="#171717"/></linearGradient><linearGradient id="g" x1="467.17" x2="467.17" y1="546.85" y2="544.72" gradientTransform="translate(-864.23 -981.74)scale(1.8844)" gradientUnits="userSpaceOnUse"><stop offset="0" stop-color="#040404"/><stop offset="1" stop-color="#121212" stop-opacity=".908"/></linearGradient><linearGradient id="b" x1="7.937" x2="7.937" y1="15.081" y2="1.852" gradientTransform="scale(3.7796)" gradientUnits="userSpaceOnUse"><stop offset="0" stop-color="#4d4d4d"/><stop offset="1" stop-color="gray"/></linearGradient><linearGradient id="h" x1="499.95" x2="499.95" y1="2.008" y2="1026" gradientTransform="translate(2 2)scale(.99609)" gradientUnits="userSpaceOnUse"><stop offset="0" stop-color="#fff"/><stop offset="1" stop-color="#d7d7d7"/></linearGradient><linearGradient xlink:href="#a" id="j" x1="46" x2="46" y1="55" y2="36" gradientUnits="userSpaceOnUse"/><linearGradient xlink:href="#a" id="f" x1="27" x2="27" y1="48" y2="46" gradientUnits="userSpaceOnUse"/><filter id="c" width="1.117" height="1.123" x="-.059" y="-.061" color-interpolation-filters="sRGB"><feGaussianBlur stdDeviation="1.075"/></filter><filter id="i" width="1.236" height="1.199" x="-.118" y="-.099" color-interpolation-filters="sRGB"><feGaussianBlur stdDeviation=".788"/></filter></defs><rect width="56.002" height="56.002" x="4" y="3.969" fill="url(#b)" rx="13.002" ry="13.002"/><path d="M20.507 11c-2.894 0-4.79 2.156-5.224 4.768l-5.221 31.465c-.065.388-.051.766.016 1.129C10.27 50.96 12.517 53 15.283 53h33.432c2.66 0 4.84-1.887 5.175-4.344.122-.45.147-.929.049-1.423L47.67 15.768C47.153 13.169 45.34 11 42.447 11z" filter="url(#c)" opacity=".15"/><path fill="url(#d)" d="M21 10h21c2.77 0 4.505 2.169 5 4.767l6 31.465C53.496 48.831 50.77 51 48 51H16.002c-2.77 0-5.415-2.156-5-4.768L16 14.767C16.415 12.156 18.23 10 21 10"/><rect width="42" height="10" x="11" y="42" fill="url(#e)" ry="5"/><rect width="20" height="2" x="20" y="46" fill="url(#f)" ry="1"/><circle cx="15.997" cy="47" r="2" fill="url(#g)" opacity=".452"/><path fill="#fff" d="M16 46.075a.14.14 0 0 0-.105.045.14.14 0 0 0-.043.103v.745q-.001.06.043.103c.044.043.065.045.105.045a.14.14 0 0 0 .104-.045.14.14 0 0 0 .044-.103v-.745a.14.14 0 0 0-.044-.103.14.14 0 0 0-.104-.045m-.428.219c-.04 0-.076 0-.11.03a.87.87 0 0 0-.357.71q.001.18.073.346.07.165.19.285a.9.9 0 0 0 .63.26q.18 0 .346-.07a.87.87 0 0 0 .474-.475.88.88 0 0 0-.285-1.057.14.14 0 0 0-.111-.03c-.041 0-.074.025-.098.057a.14.14 0 0 0-.027.11q.008.06.057.1a.592.592 0 0 1-.586 1.02.6.6 0 0 1-.319-.316.59.59 0 0 1 .191-.705.15.15 0 0 0 .06-.1.14.14 0 0 0-.03-.109.13.13 0 0 0-.098-.056"/><path d="M16 42c-2.77 0-5 2.23-5 5 0 .059.006.116.008.174a4.724 4.724 0 0 1 4.732-4.652h32.52a4.724 4.724 0 0 1 4.733 4.652q.005-.086.007-.174c0-2.77-2.23-5-5-5zm22.398-22.722-2.803-.004a.46.46 0 0 0-.284.094.3.3 0 0 0-.119.229l-.004 2.26c0 .178.179.323.401.323h.39l-.003 1.722-2.971 1.605.013-6.577 1.034.001a.34.34 0 0 0 .271-.122.21.21 0 0 0 .011-.25l-2.037-3.183a.34.34 0 0 0-.282-.139.33.33 0 0 0-.282.138l-2.052 3.177a.21.21 0 0 0 .01.25.34.34 0 0 0 .271.124l1.034.001-.019 9.11-3.198-1.742.003-1.366c.496-.264.824-.716.825-1.23.003-.817-.817-1.48-1.831-1.481-1.013-.002-1.834.659-1.837 1.475-.001.515.326.968.821 1.234l-.004 1.8c0 .27.166.524.446.676L30.973 30l-.006 2.809c-.673.29-1.136.856-1.138 1.515-.001.954.956 1.73 2.141 1.732 1.186.001 2.148-.771 2.15-1.726.001-.659-.46-1.225-1.131-1.518L33 27.471l4.549-2.457q.082-.046.15-.1a.75.75 0 0 0 .298-.576L38 22.184h.391a.46.46 0 0 0 .284-.095.3.3 0 0 0 .119-.229l.004-2.258c0-.18-.179-.324-.401-.324z" opacity=".15"/><path fill="url(#h)" d="M984.88 316.75q-9.292-22.529-20.962-44.139a452 452 0 0 0-13.938-24.203c-21.124-34.252-46.894-66.614-77.311-97.029-99.568-99.568-219.83-149.38-360.67-149.38-140.85 0-261.05 49.811-360.61 149.38-99.569 99.572-149.38 219.78-149.38 360.61s49.811 261.11 149.38 360.67c99.568 99.568 219.78 149.32 360.61 149.32 140.84 0 261.11-49.758 360.67-149.32 54.836-54.89 94.598-116.04 119.23-183.42 20.043-54.943 30.092-113.99 30.092-177.25 0-48.515-5.889-94.598-17.72-138.25a657 657 0 0 0-4.214-14.695 498 498 0 0 0-15.18-42.302z" image-rendering="optimizeSpeed" transform="translate(29.937 29.937)scale(.03137)"/><path d="M38 48a8 8 0 0 0 8 8c4.373 0 7.92-3.211 7.992-7.568Q54 48.366 54 48.3c0-.737-.764-1.3-1.5-1.3s-1.5.563-1.5 1.3c0 2.945-2.054 4.7-5 4.7-2.945 0-5-2.054-5-5 0-2.945 2.054-5 5-5v3l6-4.5-6-4.5v2.999a8 8 0 0 0-8 8z" filter="url(#i)" opacity=".15"/><path fill="url(#j)" d="M38 47a8 8 0 0 0 8 8c4.373 0 7.92-3.211 7.992-7.568Q54 47.366 54 47.3c0-.737-.764-1.3-1.5-1.3s-1.5.563-1.5 1.3c0 2.945-2.054 4.7-5 4.7-2.945 0-5-2.054-5-5 0-2.945 2.054-5 5-5v3l6-4.5-6-4.5v2.999a8 8 0 0 0-8 8z"/></svg>