<svg xmlns="http://www.w3.org/2000/svg" viewBox="0 0 64 64"><path fill="#ff6555" d="M17.001 4A12.973 12.973 0 0 0 3.999 17v30a12.973 12.973 0 0 0 13.002 13.002h29.998A12.973 12.973 0 0 0 60.001 47V17.001A12.973 12.973 0 0 0 46.999 4z"/><path fill="#fff" d="M16 14.417v14.41c.077 5.432.395 9.932 2.693 13.254 2.77 3.985 7.373 7.502 13.307 10.336 5.921-2.828 10.554-6.35 13.318-10.336 2.297-3.322 2.605-7.822 2.681-13.254v-14.41"/><path fill="#e64b4b" d="M46 20.618 24.526 45.06c2.11 1.824 4.544 3.376 7.474 4.806 5.182-2.53 9.236-5.668 11.654-9.232 2.012-2.972 2.278-6.998 2.346-11.858"/><path fill="#55c71e" d="M18 16v12.777c.054 3.88.49 7.052 1.588 9.756L40.748 16"/><path d="M3.998 45.998v1c0 7.203 5.8 13.004 13.004 13.004h29.996c7.203 0 13.004-5.8 13.004-13.004v-1c0 7.203-5.8 13.002-13.004 13.002H17.002A12.975 12.975 0 0 1 3.998 45.998" opacity=".15"/><path fill="#fff" d="M3.998 18.004v-1C3.998 9.801 9.798 4 17.002 4h29.996c7.203 0 13.004 5.8 13.004 13.004v1c0-7.203-5.8-13.002-13.004-13.002H17.002A12.975 12.975 0 0 0 3.998 18.004" opacity=".15"/></svg>