<svg xmlns="http://www.w3.org/2000/svg" viewBox="0 0 64 64"><rect width="56.002" height="56.002" x="4" y="3.969" fill="#4d4d4d" rx="13.002" ry="13.002"/><path d="M3.998 45.998v1c0 7.203 5.8 13.004 13.004 13.004h29.996c7.203 0 13.004-5.8 13.004-13.004v-1c0 7.203-5.8 13.002-13.004 13.002H17.002A12.975 12.975 0 0 1 3.998 45.998" opacity=".35"/><path fill="#fff" d="M3.998 18.004v-1C3.998 9.801 9.798 4 17.002 4h29.996c7.203 0 13.004 5.8 13.004 13.004v1c0-7.203-5.8-13.002-13.004-13.002H17.002A12.975 12.975 0 0 0 3.998 18.004" opacity=".15"/><g stroke-width=".571" transform="translate(-6.001 -5.964)scale(1.1875)"><circle cx="32.001" cy="31.97" r="16" fill="#43d392"/><path fill="#48ad79" d="M33.144 18.255v.837c6.201.855 10.879 5.533 11.734 11.734h.837a14.604 14.604 0 0 0-12.571-12.57zm0 3.429v.83c4.2.77 7.535 4.003 8.313 8.312h.83c-.794-4.733-4.532-8.355-9.143-9.142M18.287 33.113a14.604 14.604 0 0 0 12.571 12.57v-.836c-6.201-.855-10.879-5.534-11.734-11.734zm3.429 0c.793 4.734 4.531 8.355 9.142 9.143v-.83c-4.2-.772-7.535-4.004-8.312-8.313z"/><path fill="#48ad79" d="M32.621 38.799c3.77-.34 6.55-3.662 6.209-7.42l-.005-.05c-.34-3.757-3.673-6.528-7.444-6.188s-6.55 3.662-6.209 7.42l.005.05c.34 3.757 3.674 6.528 7.444 6.188"/><path fill="#fff" d="M32.208 29.693a2.28 2.28 0 0 1 2.07 2.473l-.002.017a2.283 2.283 0 0 1-2.481 2.063 2.28 2.28 0 0 1-2.07-2.474l.002-.016a2.283 2.283 0 0 1 2.481-2.063"/></g></svg>