<svg xmlns="http://www.w3.org/2000/svg" fill="none" viewBox="0 0 64 64"><g clip-path="url(#a)"><path fill="#cdfadf" d="M47 3.969H17.002C9.822 3.969 4 9.79 4 16.971v29.998c0 7.18 5.821 13.002 13.002 13.002H47c7.18 0 13.002-5.821 13.002-13.002V16.971c0-7.18-5.821-13.002-13.002-13.002"/><path fill="#3ecb76" fill-rule="evenodd" d="M41.012 12.015c-.45.053-.882.214-1.257.47.65.811-.662 8.457.98 9.492l1.281.808V41.22l-2.012 1.515c-1.552 1.166.14 7.891-.267 8.756.45.276 1.122.57 1.71.498q.297-.035.566-.168l8.193-4.034c.892-.44 1.794-.803 1.794-1.801V18.019c0-.998-.902-1.362-1.794-1.802l-8.192-4.034a1.74 1.74 0 0 0-1.002-.168" clip-rule="evenodd"/><path fill="url(#b)" fill-rule="evenodd" d="M12.586 37.597 39.24 12.86c1.21-1.123 2.776-.725 2.776 1.599v8.326l-24.64 18.924c-.43.339-1.553 1.151-2.533.216l-2.493-2.38c-.653-.625-.282-1.467.237-1.949z" clip-rule="evenodd"/><path fill="url(#c)" fill-rule="evenodd" d="M12.586 26.394 39.24 51.133c1.21 1.123 2.776.725 2.776-1.599v-8.326l-24.64-18.925c-.43-.34-1.554-1.152-2.534-.217l-2.493 2.38c-.653.625-.282 1.467.237 1.95z" clip-rule="evenodd"/></g><defs><linearGradient id="b" x1="41.973" x2="15.648" y1="17.375" y2="38.765" gradientUnits="userSpaceOnUse"><stop offset="0" stop-color="#138346"/><stop offset="1" stop-color="#30b063"/></linearGradient><linearGradient id="c" x1="41.825" x2="14.614" y1="45.875" y2="24.044" gradientUnits="userSpaceOnUse"><stop offset="0" stop-color="#138346"/><stop offset="1" stop-color="#30b063"/></linearGradient><clipPath id="a"><path fill="#fff" d="M0 0h64v64H0z"/></clipPath></defs><path fill="#000" d="M3.998 45.998v1c0 7.203 5.8 13.004 13.004 13.004h29.996c7.203 0 13.004-5.8 13.004-13.004v-1c0 7.203-5.8 13.002-13.004 13.002H17.002A12.975 12.975 0 0 1 3.998 45.998" opacity=".1"/><path fill="#fff" d="M3.998 18.004v-1C3.998 9.801 9.798 4 17.002 4h29.996c7.203 0 13.004 5.8 13.004 13.004v1c0-7.203-5.8-13.002-13.004-13.002H17.002A12.975 12.975 0 0 0 3.998 18.004" opacity=".45"/></svg>