<svg xmlns="http://www.w3.org/2000/svg" viewBox="0 0 64 64"><rect width="56.002" height="56.002" x="4" y="3.969" fill="#f2f2f2" rx="13.002" ry="13.002"/><path d="M3.998 45.998v1c0 7.203 5.8 13.004 13.004 13.004h29.996c7.203 0 13.004-5.8 13.004-13.004v-1c0 7.203-5.8 13.002-13.004 13.002H17.002A12.975 12.975 0 0 1 3.998 45.998" opacity=".1"/><path fill="#fff" d="M3.998 18.004v-1C3.998 9.801 9.798 4 17.002 4h29.996c7.203 0 13.004 5.8 13.004 13.004v1c0-7.203-5.8-13.002-13.004-13.002H17.002A12.975 12.975 0 0 0 3.998 18.004" opacity=".5"/><path fill="#4288ce" d="M32 13c-2.533 0-6.333 2.533-6.333 7.6 0 8.867 20.267 3.8 20.267 22.8 0 .523-.034 1.05-.086 1.576A18.97 18.97 0 0 0 51 32c.006-10.493-8.507-19-18.999-19zm-13.856 6.035A18.98 18.98 0 0 0 13 32c-.006 10.493 8.507 19 19 19 2.532 0 6.332-2.534 6.332-7.6 0-12.667-20.267-6.334-20.267-22.8 0-.524.03-1.045.078-1.566z"/></svg>