<svg xmlns="http://www.w3.org/2000/svg" width="64" height="64"><defs><linearGradient id="b" x1="429.07" x2="429.07" y1="14.723" y2="1034.7" gradientTransform="translate(.202 -1.054)scale(.06376)" gradientUnits="userSpaceOnUse"><stop offset="0" stop-color="#fff"/><stop offset="1" stop-color="#d7d7d7"/></linearGradient><linearGradient id="c" x1="540" x2="540" y1="452.36" y2="632.36" gradientTransform="translate(-1.906 -2.295)scale(.06401)" gradientUnits="userSpaceOnUse"><stop offset="0" stop-color="#d7d7d7"/><stop offset="1" stop-color="#fff"/></linearGradient><linearGradient id="a" x1="7.937" x2="7.937" y1="15.081" y2="1.852" gradientTransform="scale(3.7796)" gradientUnits="userSpaceOnUse"><stop offset="0" stop-color="#112b40"/><stop offset="1" stop-color="#0074a4"/></linearGradient></defs><rect width="56.002" height="56.002" x="4" y="3.969" fill="url(#a)" rx="13.002" ry="13.002"/><path fill="url(#b)" d="M32.648 21c-6.26 0-11.35 5.102-11.35 11.371q0 .076.002.148l-7.291 10.592a8 8 0 0 0-.338-.011 8.3 8.3 0 0 0-4.596 1.394l-.787-.324L4 42.4v4.569a12.97 12.97 0 0 0 10.262 12.709 8.3 8.3 0 0 0 2.828-.711l.026-.014a8.3 8.3 0 0 0 4.863-7.549l-.01-.214 10.424-7.45q.128.004.256.004C38.91 43.744 44 38.64 44 32.371c0-6.27-5.09-11.369-11.352-11.369zm0 3.795c4.171 0 7.566 3.401 7.566 7.576 0 4.178-3.395 7.578-7.566 7.578-4.169 0-7.56-3.4-7.56-7.578 0-4.175 3.392-7.576 7.56-7.576m.014 1.871c-3.135 0-5.68 2.55-5.68 5.693a5.687 5.687 0 0 0 5.68 5.692 5.687 5.687 0 0 0 5.681-5.692c0-3.143-2.544-5.693-5.681-5.693m-18.99 18.375a6.4 6.4 0 0 1 1.851.275 6.4 6.4 0 0 1 2.194 1.18 6.37 6.37 0 0 1 2.187 3.654l.018.078q.038.213.062.428l.028.22q.023.265.025.528v.002a6.364 6.364 0 0 1-6.365 6.362 6.36 6.36 0 0 1-5.586-3.327l3.377 1.393a4.79 4.79 0 0 0 5.885-1.885l.004-.004c.014-.022.023-.05.037-.072.123-.204.247-.406.341-.633.006-.013.007-.026.012-.039q.182-.44.272-.89v-.006a4.74 4.74 0 0 0-.701-3.533l-.016-.02a4.7 4.7 0 0 0-.557-.682 5 5 0 0 0-.555-.465c-.049-.036-.09-.082-.14-.117l-.004-.002a5 5 0 0 0-.893-.488l-3.736-1.54a6.4 6.4 0 0 1 2.26-.417" color="#000"/><circle cx="32.643" cy="32.365" r="4.775" fill="url(#c)" style="paint-order:stroke markers fill"/></svg>