<svg xmlns="http://www.w3.org/2000/svg" width="64" height="64" viewBox="0 0 16.933 16.933"><defs><linearGradient id="a" x1="3.969" x2="10.583" y1="14.552" y2="6.614" gradientTransform="scale(3.7796)" gradientUnits="userSpaceOnUse"><stop offset="0" stop-color="#3d9ebe"/><stop offset="1" stop-color="#57d078"/></linearGradient><linearGradient id="b" x1="13.229" x2="6.614" y1="13.229" y2="1.323" gradientTransform="scale(3.7796)" gradientUnits="userSpaceOnUse"><stop offset="0" stop-color="#e23180" stop-opacity="0"/><stop offset="1" stop-color="#e23180"/></linearGradient></defs><g transform="scale(.26458)"><rect width="64" height="64" fill="none" rx="0" ry="0" style="paint-order:stroke fill markers"/><rect width="56.002" height="56.002" x="4" y="3.969" fill="url(#a)" rx="13.002" ry="13.002"/><circle cx="32.02" cy="32.044" r="30.001" fill="none"/><path fill="url(#b)" d="m25.42 3.969 16 56.002H47a12.973 12.973 0 0 0 13.002-13.002V16.97A12.973 12.973 0 0 0 47 3.969z"/></g><rect width="10.583" height="10.583" x="3.175" y="3.175" fill-rule="evenodd" rx="1.588" ry="1.588" style="paint-order:stroke fill markers"/><path fill="#f9f9f9" d="M6.614 4.762c-1.273 0-1.923.913-1.923 2.094s.696 2.162 1.923 2.14c.788 0 1.266-.31 1.682-.773l-.527-.538c-.324.301-.691.54-1.154.54-.714 0-1.15-.667-1.154-1.38.005-.713.462-1.313 1.154-1.313.416 0 .77.155 1.094.456l.503-.603c-.394-.393-.81-.623-1.598-.623m2.31.001v4.233h2.693v-.77H9.693V4.763zm-4.162 6.349h3.97v.794h-3.97z"/></svg>