<svg xmlns="http://www.w3.org/2000/svg" viewBox="0 0 64 64"><rect width="56.002" height="56.002" x="4" y="3.969" fill="#f2f2f2" rx="13.002" ry="13.002"/><path d="M3.998 45.998v1c0 7.203 5.8 13.004 13.004 13.004h29.996c7.203 0 13.004-5.8 13.004-13.004v-1c0 7.203-5.8 13.002-13.004 13.002H17.002A12.975 12.975 0 0 1 3.998 45.998" opacity=".1"/><path fill="#fff" d="M3.998 18.004v-1C3.998 9.801 9.798 4 17.002 4h29.996c7.203 0 13.004 5.8 13.004 13.004v1c0-7.203-5.8-13.002-13.004-13.002H17.002A12.975 12.975 0 0 0 3.998 18.004" opacity=".5"/><path fill="#5d50d6" d="M46.027 15.708a4.707 4.707 0 1 0 .191 9.412 4.707 4.707 0 0 0-.191-9.412m-5.31 11.586a1.47 1.47 0 0 0-1.473 1.475v.492c5.629 1.012 0 5.841 0 8.762v.848h.01a6.88 6.88 0 0 0 13.738 0h.01V28.769c0-.817-.658-1.475-1.475-1.475z"/><path fill="#6d69f1" d="M33.088 11.362a6.88 6.88 0 0 0-6.88 6.881 6.88 6.88 0 0 0 6.88 6.88 6.88 6.88 0 0 0 6.88-6.88 6.88 6.88 0 0 0-6.88-6.881m-8.114 15.933a2.38 2.38 0 0 0-2.386 2.387v11.932h.004a10.5 10.5 0 0 0 10.496 10.303 10.5 10.5 0 0 0 10.498-10.303h.002V29.682a2.38 2.38 0 0 0-2.387-2.387H24.973z"/><rect width="21" height="21" x="11" y="21.5" fill="#4d4fd4" rx="1.432" ry="1.432"/><path fill="#fff" d="M16.069 25.847v3.62h3.621v9.414h3.621v-9.415h3.622v-3.619H16.07z"/></svg>