<svg xmlns="http://www.w3.org/2000/svg" viewBox="0 0 64 64"><rect width="56.002" height="56.002" x="4" y="3.969" fill="#364960" rx="13.002" ry="13.002"/><circle cx="32.02" cy="32.044" r="30.001" fill="none"/><path d="M3.998 45.998v1c0 7.203 5.8 13.004 13.004 13.004h29.996c7.203 0 13.004-5.8 13.004-13.004v-1c0 7.203-5.8 13.002-13.004 13.002H17.002A12.975 12.975 0 0 1 3.998 45.998" opacity=".35"/><path fill="#fff" d="M3.998 18.004v-1C3.998 9.801 9.798 4 17.002 4h29.996c7.203 0 13.004 5.8 13.004 13.004v1c0-7.203-5.8-13.002-13.004-13.002H17.002A12.975 12.975 0 0 0 3.998 18.004" opacity=".15"/><path fill="#dfdfdf" d="M24 16c-4.432 0-8 3.568-8 8v16c0 4.432 3.568 8 8 8h16c4.432 0 8-3.568 8-8V24c0-4.432-3.568-8-8-8zm8 8a8 8 0 0 1 8 8 8 8 0 0 1-8 8 8 8 0 0 1-8-8 8 8 0 0 1 8-8" style="paint-order:normal"/><path fill="#5aa681" d="M32.003 28a4.001 4.001 0 0 0-2.834 6.824l-.004.004A4 4 0 0 0 31.997 36 4 4 0 0 0 36 32a4 4 0 0 0-1.169-2.822l.002-.006A4 4 0 0 0 32.003 28" style="paint-order:normal"/></svg>