<svg xmlns="http://www.w3.org/2000/svg" xmlns:xlink="http://www.w3.org/1999/xlink" width="64" height="64" viewBox="0 0 16.933 16.933"><defs><linearGradient id="b" x1="7.937" x2="7.937" y1="15.081" y2="1.852" gradientUnits="userSpaceOnUse"><stop offset="0" stop-color="#2e2e2e"/><stop offset="1" stop-color="#5c5c5c"/></linearGradient><linearGradient id="d" x1="32" x2="32" y1="4.865" y2="64" gradientTransform="translate(0 -.189)scale(.26458)" gradientUnits="userSpaceOnUse"><stop offset="0" stop-color="#fff"/><stop offset="1" stop-color="#f0f0f0"/></linearGradient><linearGradient id="e" x1="32" x2="32.049" y1="9" y2="62" gradientTransform="translate(0 -.713)" gradientUnits="userSpaceOnUse"><stop offset="0" stop-color="#f2f2f2"/><stop offset="1" stop-color="#dfdfdf"/></linearGradient><linearGradient id="f" x1="31.996" x2="32" y1="2" y2="64" gradientTransform="translate(0 -.189)scale(.26458)" gradientUnits="userSpaceOnUse"><stop offset="0" stop-color="#afafaf"/><stop offset="1" stop-color="#d0d0d0"/></linearGradient><linearGradient id="h" x1="46" x2="46" y1="60" y2="30" gradientTransform="translate(-.001 .264)scale(.2646)" gradientUnits="userSpaceOnUse"><stop offset="0" stop-color="#1e1e1e"/><stop offset="1" stop-color="#3c3c3c"/></linearGradient><linearGradient xlink:href="#a" id="i" x1="29.864" x2="25.661" y1="7.585" y2="6.983" gradientUnits="userSpaceOnUse"/><linearGradient id="a"><stop offset="0"/><stop offset="1" stop-opacity="0"/></linearGradient><linearGradient xlink:href="#a" id="j" x1="29.864" x2="25.661" y1="7.585" y2="6.983" gradientTransform="rotate(-15.553 32.213 7.79)" gradientUnits="userSpaceOnUse"/><linearGradient xlink:href="#a" id="k" x1="29.864" x2="25.661" y1="7.585" y2="6.983" gradientTransform="rotate(-36.889 31.544 8.132)" gradientUnits="userSpaceOnUse"/><linearGradient xlink:href="#a" id="l" x1="29.864" x2="25.661" y1="7.585" y2="6.983" gradientTransform="matrix(-1 0 0 1 64.065 0)" gradientUnits="userSpaceOnUse"/><linearGradient xlink:href="#a" id="m" x1="29.864" x2="25.661" y1="7.585" y2="6.983" gradientTransform="rotate(-164.448 8.757 .006)scale(.26459 -.26459)" gradientUnits="userSpaceOnUse"/><linearGradient xlink:href="#a" id="n" x1="29.864" x2="25.661" y1="7.585" y2="6.983" gradientTransform="rotate(36.889 .13 27.561)scale(-.26458 .26458)" gradientUnits="userSpaceOnUse"/><radialGradient id="g" cx="12.171" cy="12.171" r="4.762" gradientUnits="userSpaceOnUse"><stop offset="0"/><stop offset="1" stop-opacity="0"/></radialGradient><filter id="c" width="1.087" height="1.194" x="-.043" y="-.097" color-interpolation-filters="sRGB"><feGaussianBlur stdDeviation=".597"/></filter></defs><rect width="14.817" height="14.817" x="1.058" y="1.05" fill="url(#b)" rx="3.44" ry="3.44"/><path fill="#fff" d="M4.498 1.05q-.18 0-.355.018c-.64.557-1.204 1.27-1.712 2.148C3.896 4.784 5.786 6.16 8.467 6.16c2.68-.002 4.645-1.15 6.109-2.719-.558-.962-1.193-1.761-1.926-2.381-.071-.004-.142-.01-.215-.01H4.5z" opacity=".5"/><path d="M44.486 2.795a29.86 29.86 0 0 1-14.045 3.492 29.86 29.86 0 0 1-14.045-3.49 30 30 0 0 0-2.39 1.399l9.435 12.092c1.55.247 5.006 1.297 6.626 1.297 1.66 0 8.898-1.038 10.485-1.297l6.422-12.031a30 30 0 0 0-2.489-1.461z" filter="url(#c)" opacity=".15" transform="translate(.413 .53)scale(.26458)"/><path fill="url(#d)" d="M12.182 1.269a7.9 7.9 0 0 1-3.716.924 7.9 7.9 0 0 1-3.716-.924 8 8 0 0 0-.632.37l3.036 14.228h2.654L12.84 1.655a8 8 0 0 0-.659-.386z"/><g fill-rule="evenodd" transform="translate(0 -.189)scale(.26458)"><path fill="url(#e)" d="M28 8.287v51.684h8V8.287z" style="paint-order:fill markers stroke" transform="translate(0 .713)"/><path d="M28 8.287v51.684h1V8.287z" opacity=".1" style="paint-order:fill markers stroke" transform="translate(0 .713)"/><circle cx="32" cy="26.5" r="1.5" fill="#333" style="paint-order:fill markers stroke"/><circle cx="32" cy="44" r="1.5" fill="#333" style="paint-order:fill markers stroke"/></g><path fill="#4d4d4d" d="M6.036 1.177c-.054.41-.08.754 0 1.206.03.452.135.703.202 1.055.36.179.551.108.809 0 .49-.257.637-.452 1.213-.603.152-.05.232-.086.202-.15L8.26 1.78c-.202-.05-.374-.074-.607-.15a9 9 0 0 1-.808-.302c-.125-.04-.228-.084-.374-.119a2 2 0 0 0-.435-.032m4.864 0c-.137 0-.276 0-.435.032-.145.035-.249.08-.373.12a9 9 0 0 1-.809.3c-.232.077-.404.101-.606.151l-.202.905c-.031.064.05.1.202.15.575.15.723.346 1.213.603.257.108.449.179.808 0 .068-.352.172-.603.202-1.055.08-.452.055-.795 0-1.206"/><rect width="1.064" height="1.064" x="7.934" y="1.78" fill="#333" fill-rule="evenodd" rx=".233" ry=".233" style="paint-order:fill markers stroke"/><path fill="url(#f)" fill-rule="evenodd" d="M4.498 1.05c-.916 0-1.744.357-2.36.938.428 4.27 1.367 10.296 2.487 13.88H7.43C6.148 11.022 5.386 6.773 5.1 1.05h-.6zm7.335 0c-.285 5.723-1.047 9.971-2.33 14.817h2.806c1.12-3.583 2.058-9.61 2.486-13.88a3.43 3.43 0 0 0-2.36-.937z" style="paint-order:fill markers stroke"/><circle cx="12.171" cy="12.171" r="4.762" fill="url(#g)"/><circle cx="12.171" cy="12.171" r="4.233" fill="url(#h)"/><path fill="url(#i)" d="m25.186 6.203 4.508 1.356-4.576-.034z" opacity=".35" transform="scale(.26458)"/><path fill="url(#j)" d="m25.018 8.146 4.707.097-4.418 1.194z" opacity=".35" transform="scale(.26458)"/><path fill="url(#k)" d="m25.301 10.406 4.42-1.622-3.68 2.72z" opacity=".35" transform="scale(.26458)"/><path fill="url(#l)" d="M38.879 6.203 34.371 7.56l4.576-.034z" opacity=".35" transform="scale(.26458)"/><path fill="url(#m)" d="m10.331 2.155-1.245.026 1.168.316z" opacity=".35"/><path fill="url(#n)" d="m10.256 2.753-1.17-.429.974.72z" opacity=".35"/><path fill="#fff" d="M12.465 14.165h-.507l-1.35-1.796-.388.344v1.452h-.43V10.46h.43v1.837l1.68-1.837h.51l-1.49 1.609zm1.051 0-1.054-2.777h.451l.598 1.647q.203.578.238.75h.02q.028-.134.175-.555.15-.423.667-1.842h.45l-1.053 2.777z" aria-label="Kv"/></svg>