<svg xmlns="http://www.w3.org/2000/svg" xmlns:xlink="http://www.w3.org/1999/xlink" xml:space="preserve" width="64" height="64"><defs><linearGradient id="g"><stop offset="0" style="stop-color:#000;stop-opacity:1"/><stop offset="1" style="stop-color:#000;stop-opacity:0"/></linearGradient><linearGradient id="f"><stop offset="0" style="stop-color:#b38259;stop-opacity:1"/><stop offset="1" style="stop-color:#604521;stop-opacity:1"/></linearGradient><linearGradient id="c" x1="7.937" x2="7.937" y1="15.081" y2="1.852" gradientTransform="scale(3.7796)" gradientUnits="userSpaceOnUse" spreadMethod="pad"><stop offset="0" stop-color="#ffc30d" style="stop-color:#805533;stop-opacity:1"/><stop offset=".204" stop-color="#ffc30d" style="stop-color:#b38259;stop-opacity:1"/><stop offset=".804" stop-color="#ffc30d" style="stop-color:#b38259;stop-opacity:1"/><stop offset="1" stop-color="#fff63f" style="stop-color:#7f5432;stop-opacity:1"/></linearGradient><linearGradient id="e"><stop offset="0" style="stop-color:#ccab8f;stop-opacity:1"/><stop offset="1" style="stop-color:#bb906b;stop-opacity:1"/></linearGradient><linearGradient id="d"><stop offset="0" style="stop-color:#68462b;stop-opacity:1"/><stop offset="1" style="stop-color:#49331f;stop-opacity:1"/></linearGradient><linearGradient xlink:href="#a" id="h" x1="7.937" x2="7.937" y1="15.081" y2="1.852" gradientTransform="translate(152.44 -6.999)scale(3.7796)" gradientUnits="userSpaceOnUse"/><linearGradient xlink:href="#b" id="a" x1="7.937" x2="7.937" y1="15.081" y2="1.852" gradientTransform="scale(3.7796)" gradientUnits="userSpaceOnUse"><stop offset="0" stop-color="#ffc30d"/><stop offset="1" stop-color="#fff63f"/></linearGradient><linearGradient id="b" x1="7.937" x2="7.937" y1="15.081" y2="1.852" gradientTransform="scale(3.7796)" gradientUnits="userSpaceOnUse" spreadMethod="pad"><stop offset="0" stop-color="#ffc30d" style="stop-color:#d9a300;stop-opacity:1"/><stop offset="1" stop-color="#fff63f"/></linearGradient><linearGradient xlink:href="#c" id="q" x1="1.058" x2="15.875" y1="12.427" y2="12.427" gradientTransform="scale(3.7796)" gradientUnits="userSpaceOnUse"/><linearGradient xlink:href="#c" id="i" x1="156.441" x2="212.443" y1="18.47" y2="18.47" gradientUnits="userSpaceOnUse"/><linearGradient xlink:href="#d" id="j" x1="184.441" x2="184.441" y1="12.173" y2="48.547" gradientUnits="userSpaceOnUse"/><linearGradient xlink:href="#e" id="p" x1="-184.442" x2="-184.442" y1="-39.97" y2="3.03" gradientUnits="userSpaceOnUse"/><linearGradient xlink:href="#f" id="k" x1="-159.753" x2="-159.753" y1="-19.117" y2="-22.725" gradientUnits="userSpaceOnUse"/><linearGradient xlink:href="#f" id="l" x1="-159.753" x2="-159.753" y1="-19.117" y2="-22.725" gradientTransform="matrix(.89487 0 0 1 -20.014 19.238)" gradientUnits="userSpaceOnUse"/><linearGradient xlink:href="#g" id="m" x1="-185.128" x2="-185.318" y1="-36.461" y2="-25.66" gradientUnits="userSpaceOnUse"/><linearGradient xlink:href="#g" id="n" x1="-185.128" x2="-185.318" y1="-36.461" y2="-25.66" gradientTransform="translate(.219 19.983)" gradientUnits="userSpaceOnUse"/></defs><g style="display:inline" transform="rotate(180 108.221 28.47)"><rect width="56.002" height="56.002" x="156.441" y="-3.03" fill="url(#a)" rx="13.002" ry="13.002" style="fill:url(#h)"/><rect width="56.002" height="43" x="156.441" y="-3.03" fill="url(#a)" rx="13.002" ry="13.002" style="display:inline;fill:url(#i);fill-opacity:1"/><rect width="49.375" height="36.375" x="159.753" y="12.173" fill="url(#a)" rx="10.168" ry="9.756" style="fill:url(#j);fill-opacity:1"/><rect width="49.377" height="11.89" x="-209.13" y="-30.916" ry="0" style="fill:url(#k);fill-opacity:1;stroke-width:9.3932;stroke-linecap:round;stroke-linejoin:round;paint-order:markers stroke fill" transform="scale(-1)"/><rect width="44.186" height="11.89" x="-207.158" y="-11.677" ry="0" style="display:inline;fill:url(#l);fill-opacity:1;stroke-width:8.88574;stroke-linecap:round;stroke-linejoin:round;paint-order:markers stroke fill" transform="scale(-1)"/><g style="display:inline"><path d="M28 32h72v20H28Zm0 44h72v20H28Zm0 0" style="fill:#bd8f6b;fill-opacity:1;fill-rule:nonzero;stroke:none" transform="matrix(.6817 0 0 .44676 140.636 -6.289)"/><path d="M92 18h-8v34h8zm0 0" style="fill:#3382e3;fill-opacity:1;fill-rule:nonzero;stroke:none" transform="matrix(.6817 0 0 .44676 140.636 -6.289)"/><path d="M81.938 21c-1.083.016-1.938.46-1.938 1v30h4V22c0-.55-.895-1-2-1zm0 0" style="fill:#ff7800;fill-opacity:1;fill-rule:nonzero;stroke:none" transform="matrix(.6817 0 0 .44676 140.636 -6.289)"/><path d="M77.938 21c-1.083.016-1.938.46-1.938 1v30h4V22c0-.55-.895-1-2-1zm0 0" style="fill:#f8f068;fill-opacity:1;fill-rule:nonzero;stroke:none" transform="matrix(.6817 0 0 .44676 140.636 -6.289)"/><path d="M76 18h-4v34h4zm0 0" style="fill:#195eb3;fill-opacity:1;fill-rule:nonzero;stroke:none" transform="matrix(.6817 0 0 .44676 140.636 -6.289)"/><path d="M100 22h-8v30h8zm0 0" style="fill:#fff;fill-opacity:1;fill-rule:nonzero;stroke:none" transform="matrix(.6817 0 0 .44676 140.636 -6.289)"/><path d="M100 41h-8v11h8zm0 0" style="fill:#ff7800;fill-opacity:1;fill-rule:nonzero;stroke:none" transform="matrix(.6817 0 0 .44676 140.636 -6.289)"/><path d="M84 22h8v6h-8zm0 25h8v2.984h-8zm0-3h8v1h-8zm0 0" style="fill:#195eb3;fill-opacity:1;fill-rule:nonzero;stroke:none" transform="matrix(.6817 0 0 .44676 140.636 -6.289)"/><path d="M100 37h-8v2h8zm0 0" style="fill:#ff7800;fill-opacity:1;fill-rule:nonzero;stroke:none" transform="matrix(.6817 0 0 .44676 140.636 -6.289)"/><path d="M65 19a45 45 0 0 0-3.5.133c-2.164.18-3.496.512-3.5.867v32h14V20c0-.355-1.336-.687-3.5-.867A45 45 0 0 0 65 19m0 0" style="fill:#eb333a;fill-opacity:1;fill-rule:nonzero;stroke:none" transform="matrix(.6817 0 0 .44676 140.636 -6.289)"/><path d="M62.5 40.5a2.5 2.5 0 1 0 5 0 2.5 2.5 0 0 0-5 0M65 25a45 45 0 0 0-3.5.133c-2.164.18-3.496.512-3.5.867v8c.004-.355 1.336-.687 3.5-.867A45 45 0 0 1 65 33c1.21 0 2.418.047 3.5.133 2.164.18 3.5.512 3.5.867v-8c0-.355-1.336-.687-3.5-.867A45 45 0 0 0 65 25m0 22a45 45 0 0 0-3.5.133c-2.164.18-3.496.512-3.5.867v2c.004-.355 1.336-.687 3.5-.867A45 45 0 0 1 65 49c1.21 0 2.418.047 3.5.133 2.164.18 3.5.512 3.5.867v-2c0-.355-1.336-.687-3.5-.867A45 45 0 0 0 65 47m0 0" style="fill:#bf1926;fill-opacity:1;fill-rule:nonzero;stroke:none" transform="matrix(.6817 0 0 .44676 140.636 -6.289)"/><path d="M32 20h6v32h-6zm0 0" style="fill:#ff7800;fill-opacity:1;fill-rule:nonzero;stroke:none" transform="matrix(.6817 0 0 .44676 140.636 -6.289)"/><path d="M44 24h4v28h-4zm0 0" style="fill:#de1923;fill-opacity:1;fill-rule:nonzero;stroke:none" transform="matrix(.6817 0 0 .44676 140.636 -6.289)"/><path d="M28 22h4v30h-4zm0 0" style="fill:#195eb3;fill-opacity:1;fill-rule:nonzero;stroke:none" transform="matrix(.6817 0 0 .44676 140.636 -6.289)"/><path d="M37 48a1.999 1.999 0 1 1-4 0 1.999 1.999 0 1 1 4 0m0 0" style="fill:#c54500;fill-opacity:1;fill-rule:nonzero;stroke:none" transform="matrix(.6817 0 0 .44676 140.636 -6.289)"/><path d="M41 17c.52 0 1.035.043 1.5.133.93.18 1.5.512 1.5.867v34h-6V18c0-.355.574-.687 1.5-.867A8.4 8.4 0 0 1 41 17m0 0" style="fill:#2ec27d;fill-opacity:1;fill-rule:nonzero;stroke:none" transform="matrix(.6817 0 0 .44676 140.636 -6.289)"/><path d="M53 21c-2.762 0-5 .45-5 1v30h10V22c0-.55-2.238-1-5-1m0 0" style="fill:#dedcd9;fill-opacity:1;fill-rule:nonzero;stroke:none" transform="matrix(.6817 0 0 .44676 140.636 -6.289)"/><path d="M53 24c-2.762 0-5 .45-5 1v2c0-.55 2.238-1 5-1s5 .45 5 1v-2c0-.55-2.238-1-5-1m0 20c-2.762 0-5 .45-5 1v4c0-.55 2.238-1 5-1s5 .45 5 1v-4c0-.55-2.238-1-5-1m0 0" style="fill:#5c5c63;fill-opacity:1;fill-rule:nonzero;stroke:none" transform="matrix(.6817 0 0 .44676 140.636 -6.289)"/><path d="M41 25c-.516 0-1.035.043-1.5.133-.926.18-1.5.512-1.5.867v16c0-.355.574-.687 1.5-.867A8.4 8.4 0 0 1 41 41c.52 0 1.035.043 1.5.133.93.18 1.5.512 1.5.867V26c0-.355-.57-.687-1.5-.867A8.4 8.4 0 0 0 41 25m0 0" style="fill:#23a168;fill-opacity:1;fill-rule:nonzero;stroke:none" transform="matrix(.6817 0 0 .44676 140.636 -6.289)"/><path d="M52 30h2v10h-2zm0 0" style="fill:#5c5c63;fill-opacity:1;fill-rule:nonzero;stroke:none" transform="matrix(.6817 0 0 .44676 140.636 -6.289)"/><path d="M52 30h2v10h-2zm0 0" style="fill:#999994;fill-opacity:1;fill-rule:nonzero;stroke:none" transform="matrix(.6817 0 0 .44676 140.636 -6.289)"/><path d="M59 63c-.516 0-1.035.043-1.5.133-.926.18-1.5.512-1.5.867v32h6V64c0-.355-.57-.687-1.5-.867A8.4 8.4 0 0 0 59 63m0 0" style="fill:#3a3545;fill-opacity:1;fill-rule:nonzero;stroke:none" transform="matrix(.6817 0 0 .44676 140.636 -6.289)"/><path d="M72 66H62v30h10zm0 0" style="fill:#f5d12b;fill-opacity:1;fill-rule:nonzero;stroke:none" transform="matrix(.6817 0 0 .44676 140.636 -6.289)"/><path d="M56 62H44v34h12zm0 0" style="fill:#3382e3;fill-opacity:1;fill-rule:nonzero;stroke:none" transform="matrix(.6817 0 0 .44676 140.636 -6.289)"/><path d="M72 90H62v2h10zm0 3H62v1h10zm0 0" style="fill:#75757a;fill-opacity:1;fill-rule:nonzero;stroke:none" transform="matrix(.6817 0 0 .44676 140.636 -6.289)"/><path d="M54 66h-8v4h8zm0 0" style="fill:#195eb3;fill-opacity:1;fill-rule:nonzero;stroke:none" transform="matrix(.6817 0 0 .44676 140.636 -6.289)"/><path d="M28 62h8v34h-8zm44 4h8v30h-8zm0 0" style="fill:#eb333a;fill-opacity:1;fill-rule:nonzero;stroke:none" transform="matrix(.6817 0 0 .44676 140.636 -6.289)"/><path d="M36 66h8v30h-8zm0 0" style="fill:#fff;fill-opacity:1;fill-rule:nonzero;stroke:none" transform="matrix(.6817 0 0 .44676 140.636 -6.289)"/><path d="M36 85h8v11h-8zm0 0" style="fill:#bf61ca;fill-opacity:1;fill-rule:nonzero;stroke:none" transform="matrix(.6817 0 0 .44676 140.636 -6.289)"/><path d="M36 66h-8v6h8zm0 25h-8v2.984h8zm0-3h-8v1h8zm0 0" style="fill:#5c5c63;fill-opacity:1;fill-rule:nonzero;stroke:none" transform="matrix(.6817 0 0 .44676 140.636 -6.289)"/><path d="M36 81h8v2h-8zm0 0" style="fill:#bf61ca;fill-opacity:1;fill-rule:nonzero;stroke:none" transform="matrix(.6817 0 0 .44676 140.636 -6.289)"/><path d="M80 62h4v34h-4zm0 0" style="fill:#3382e3;fill-opacity:1;fill-rule:nonzero;stroke:none" transform="matrix(.6817 0 0 .44676 140.636 -6.289)"/><path d="M80 64h4v6h-4zm0 8h4v2h-4zm0 0" style="fill:#195eb3;fill-opacity:1;fill-rule:nonzero;stroke:none" transform="matrix(.6817 0 0 .44676 140.636 -6.289)"/><path d="M97 63c-.516 0-1.035.043-1.5.133-.926.18-1.5.512-1.5.867v32h6V64c0-.355-.57-.687-1.5-.867A8.4 8.4 0 0 0 97 63m0 0" style="fill:#8f3fab;fill-opacity:1;fill-rule:nonzero;stroke:none" transform="matrix(.6817 0 0 .44676 140.636 -6.289)"/><path d="M89 66c-.863 0-1.727.043-2.5.133-1.547.18-2.496.512-2.5.867v29h10V67c0-.355-.953-.687-2.5-.867A23 23 0 0 0 89 66m0 0" style="fill:#57e387;fill-opacity:1;fill-rule:nonzero;stroke:none" transform="matrix(.6817 0 0 .44676 140.636 -6.289)"/><path d="M96 68h2v24h-2zm0 0" style="fill:#613382;fill-opacity:1;fill-rule:nonzero;stroke:none" transform="matrix(.6817 0 0 .44676 140.636 -6.289)"/><path d="M75 78h2v10h-2zm-3-8h8v3h-8zm0 0" style="fill:#a31c2b;fill-opacity:1;fill-rule:nonzero;stroke:none" transform="matrix(.6817 0 0 .44676 140.636 -6.289)"/></g><rect width="49.786" height="11.972" x="-209.421" y="-37.026" ry="3.867" style="display:inline;fill:url(#m);fill-opacity:1;stroke-width:5.297;stroke-linecap:round;stroke-linejoin:round;paint-order:markers stroke fill;opacity:.33816823" transform="scale(-1)"/><rect width="49.786" height="11.972" x="-209.202" y="-17.043" ry="0" style="display:inline;opacity:.338168;fill:url(#n);fill-opacity:1;stroke-width:5.297;stroke-linecap:round;stroke-linejoin:round;paint-order:markers stroke fill" transform="scale(-1)"/><path d="M-199.44-39.97a12.973 12.973 0 0 0-13.003 13.002V-9.97a12.973 12.973 0 0 0 13.003 13h29.998A12.973 12.973 0 0 0-156.44-9.971v-16.997a12.973 12.973 0 0 0-13.002-13.001zm.48 3.313h29.037c5.633 0 10.17 4.351 10.17 9.756v6.54h-49.377v-6.54c0-5.405 4.536-9.756 10.17-9.756m-10.17 20.078h49.377v6.541c0 5.405-4.537 9.756-10.17 9.756h-29.037c-5.634 0-10.17-4.351-10.17-9.756z" style="opacity:1;fill:url(#p);fill-opacity:1;stroke-width:5.64118;stroke-linecap:round;stroke-linejoin:round;paint-order:markers stroke fill" transform="scale(-1)"/><path d="M4 33.967v13.002A12.973 12.973 0 0 0 17.002 59.97H47a12.973 12.973 0 0 0 13.002-13.002V33.967A12.973 12.973 0 0 1 47 46.969H17.002A12.973 12.973 0 0 1 4 33.967" style="display:inline;fill:url(#q)" transform="translate(152.44 -6.999)"/></g></svg>