<svg xmlns="http://www.w3.org/2000/svg" viewBox="0 0 64 64"><rect width="56.002" height="56.002" x="4" y="3.969" fill="#4d4d4d" rx="13.002" ry="13.002" style="fill:#494248;fill-opacity:1"/><path d="M3.998 45.998v1c0 7.203 5.8 13.004 13.004 13.004h29.996c7.203 0 13.004-5.8 13.004-13.004v-1c0 7.203-5.8 13.002-13.004 13.002H17.002A12.975 12.975 0 0 1 3.998 45.998" opacity=".35"/><path fill="#fff" d="M3.998 18.004v-1C3.998 9.801 9.798 4 17.002 4h29.996c7.203 0 13.004 5.8 13.004 13.004v1c0-7.203-5.8-13.002-13.004-13.002H17.002A12.975 12.975 0 0 0 3.998 18.004" opacity=".15"/><rect width="50.054" height="50.054" x="6.974" y="6.943" fill="url(#b)" rx="10.028" ry="10.028" style="fill:#788fa2;fill-opacity:1"/><rect width="50.054" height="41.875" x="6.974" y="6.943" fill="url(#c)" rx="10.028" ry="10.028" style="fill:#eaebed;fill-opacity:1"/><rect width="4.918" height="18.404" x="20" y="20" fill="#5f4f5b" rx="1.707" ry="1.534"/><rect width="4.918" height="18.404" x="40" y="20" fill="#5f4f5b" rx="1.707" ry="1.534"/></svg>