<svg xmlns="http://www.w3.org/2000/svg" width="64" height="64"><defs><linearGradient id="a" x1="7.937" x2="7.937" y1="15.081" y2="1.852" gradientTransform="scale(3.7796)" gradientUnits="userSpaceOnUse"><stop offset="0" stop-color="#003745"/><stop offset="1" stop-color="#006680"/></linearGradient><filter id="b" width="1.142" height="1.159" x="-.071" y="-.079" color-interpolation-filters="sRGB"><feGaussianBlur stdDeviation="1.125"/></filter></defs><rect width="56.002" height="56.002" x="4" y="3.969" fill="url(#a)" rx="13.002" ry="13.002"/><path d="M36.021 16a3.889 6.07 78.451 0 0-2.342.314 3.889 6.07 78.451 0 0-4.531 5.245 3.889 6.07 78.451 0 0 7.172 2.125 3.889 6.07 78.451 0 0 4.531-5.245A3.889 6.07 78.451 0 0 36.021 16m-19.758 1.008a6.681 5.231 45 0 0-3.139 1.428 6.681 5.231 45 0 0 1.377 8.457 6.681 5.231 45 0 0 8.373.671 6.681 5.231 45 0 0-1.377-8.457 6.681 5.231 45 0 0-5.234-2.1zM35.499 28a14.5 11 0 0 0-14.5 11 14.5 11 0 0 0 14.5 11 14.5 11 0 0 0 14.5-11 14.5 11 0 0 0-14.5-11" filter="url(#b)" opacity=".2"/><path fill="#85c8c8" d="M36.021 15a3.889 6.07 78.451 0 0-2.342.314 3.889 6.07 78.451 0 0-4.531 5.245 3.889 6.07 78.451 0 0 7.172 2.125 3.889 6.07 78.451 0 0 4.531-5.245A3.889 6.07 78.451 0 0 36.021 15m-19.758 1.008a6.681 5.231 45 0 0-3.139 1.428 6.681 5.231 45 0 0 1.377 8.457 6.681 5.231 45 0 0 8.373.671 6.681 5.231 45 0 0-1.377-8.457 6.681 5.231 45 0 0-5.234-2.1zM35.499 27a14.5 11 0 0 0-14.5 11 14.5 11 0 0 0 14.5 11 14.5 11 0 0 0 14.5-11 14.5 11 0 0 0-14.5-11"/><path fill="#fff" d="M36.021 15a3.889 6.07 78.451 0 0-2.342.314 3.889 6.07 78.451 0 0-4.594 4.885 3.889 6.07 78.451 0 1 4.594-3.885A3.889 6.07 78.451 0 1 36.021 16a3.889 6.07 78.451 0 1 4.83 2.44 3.889 6.07 78.451 0 1 .063.359 3.889 6.07 78.451 0 0-.063-1.36A3.889 6.07 78.451 0 0 36.021 15m-19.758 1.008a6.681 5.231 45 0 0-3.139 1.428 6.681 5.231 45 0 0-1.07 3.709 6.681 5.231 45 0 1 1.07-2.71 6.681 5.231 45 0 1 3.139-1.427 6.681 5.231 45 0 1 5.234 2.1 6.681 5.231 45 0 1 2.448 4.747 6.681 5.231 45 0 0-2.448-5.748 6.681 5.231 45 0 0-5.234-2.1zM35.499 27a14.5 11 0 0 0-14.5 11 14.5 11 0 0 0 .05.5A14.5 11 0 0 1 35.5 28a14.5 11 0 0 1 14.469 10.309A14.5 11 0 0 0 50 38a14.5 11 0 0 0-14.5-11z" opacity=".2"/></svg>