<svg xmlns="http://www.w3.org/2000/svg" fill="none" viewBox="0 0 64 64"><path fill="#31bffc" d="M46.998 4H17.002C9.822 4 4 9.821 4 17.002v29.996C4 54.178 9.821 60 17.002 60h29.996C54.178 60 60 54.179 60 46.998V17.002C60 9.822 54.179 4 46.998 4"/><path fill="#fff" d="M36.517 47q-4.135 0-7.392-1.1-3.256-1.145-5.5-3.168a13.9 13.9 0 0 1-3.432-4.884q-1.188-2.816-1.188-6.248 0-3.431 1.188-6.248a13.5 13.5 0 0 1 3.432-4.84q2.289-2.068 5.5-3.168 3.256-1.144 7.392-1.144h4.664v7.436h-4.356q-2.023 0-3.564.616t-2.552 1.716a7.1 7.1 0 0 0-1.54 2.508 9.8 9.8 0 0 0-.484 3.124 9.8 9.8 0 0 0 .484 3.124 7.5 7.5 0 0 0 1.54 2.552q1.013 1.056 2.552 1.672t3.564.616h4.356V47z"/><path fill="#000" d="M3.998 45.998v1c0 7.203 5.8 13.004 13.004 13.004h29.996c7.203 0 13.004-5.8 13.004-13.004v-1c0 7.203-5.8 13.002-13.004 13.002H17.002A12.975 12.975 0 0 1 3.998 45.998" opacity=".15"/><path fill="#fff" d="M3.998 18.004v-1C3.998 9.801 9.798 4 17.002 4h29.996c7.203 0 13.004 5.8 13.004 13.004v1c0-7.203-5.8-13.002-13.004-13.002H17.002A12.975 12.975 0 0 0 3.998 18.004" opacity=".15"/></svg>