<svg xmlns="http://www.w3.org/2000/svg" image-rendering="optimizeSpeed" viewBox="0 0 64 64"><path fill="#ccc" d="M60.002 34.969c0 6-19.031 25.002-25.031 25.002H47a12.973 12.973 0 0 0 13.002-13.002z"/><path fill="#fff" d="M17.002 7a9.95 9.95 0 0 0-9.97 9.97v30a9.95 9.95 0 0 0 9.97 9.97H47a9.95 9.95 0 0 0 9.97-9.97v-30A9.95 9.95 0 0 0 47 7zm0 1H47c4.97 0 8.97 4 8.97 8.97v30c0 4.97-4 8.97-8.97 8.97H17.002c-4.97 0-8.97-4-8.97-8.97v-30c0-4.97 4-8.971 8.97-8.971z"/><g fill="#fff"><path d="M55.97 48.968v1.001h-23v-1.001z"/><path d="M49.971 55.967H48.97V32.968h1.001z"/></g><path fill="#f2f2f2" d="M4.164 15c-.032.212-.076.42-.098.637v.002A13 13 0 0 0 4 16.97v29.998c0 1.35.203 2.652.582 3.875a13 13 0 0 0 8.545 8.545 13.1 13.1 0 0 0 3.875.582h17.969c6 0 25.031-19.002 25.031-25.002V16.97q-.001-1.006-.146-1.971H4.165z" style="fill:#e6e6e6"/><path fill="#fff" d="M59.971 34.969c-1 4-7 5-11 6-3.88.97-6.545 3.18-8 9-1 4-.64 8-6 10 .024 0 .048-.004.072-.004 6.996-.11 23.738-16.605 24.893-24.209.02-.265.035-.528.035-.787"/><path fill="#666" d="M17.002 3.969a12.96 12.96 0 0 0-9.203 3.8 13 13 0 0 0-3.217 5.327c-.19.614-.32 1.254-.418 1.904h55.691a13 13 0 0 0-1.418-4.236A13 13 0 0 0 55.28 6.93a12.93 12.93 0 0 0-6.945-2.895h-.002A13 13 0 0 0 47 3.97H17.002z"/><path fill="#de8787" d="M12.043 24.371a1.005 1.005 0 0 0-1.275.629 1.005 1.005 0 0 0 .629 1.275c1.473.5 1.756.99 1.892 1.621.137.632-.051 1.587-.219 2.65-.167 1.065-.297 2.39.575 3.49s2.432 1.643 5.005 1.808c1.21.077 2.024.516 2.68 1.166s1.133 1.54 1.453 2.459c.641 1.837.64 3.681.64 3.681a1.005 1.005 0 0 0 1 1.012 1.005 1.005 0 0 0 1.01-1s.024-2.127-.753-4.355c-.389-1.115-.98-2.28-1.936-3.225-.955-.945-2.297-1.637-3.967-1.744-2.327-.15-3.25-.665-3.558-1.053s-.314-.974-.164-1.926c.15-.951.473-2.118.199-3.386s-1.322-2.46-3.21-3.102z" color="#000" style="-inkscape-stroke:none"/><path fill="#fff" d="M3.998 18.004v-1C3.998 9.801 9.798 4 17.002 4h29.996c7.203 0 13.004 5.8 13.004 13.004v1c0-7.203-5.8-13.002-13.004-13.002H17.002A12.975 12.975 0 0 0 3.998 18.004" opacity=".15"/><path fill="#f55e4f" d="m33.896 41.25-7.105-7.105 29.84-29.84 7.106 7.104z"/><path fill="#3d3846" d="m58.053 17.093-7.105-7.105 1.42-1.42 7.106 7.104zM38.159 36.987l-7.105-7.105 1.42-1.42 7.106 7.104z"/><path fill="#f55e4f" d="m33.185 40.54-5.684-5.684-3.552 7.815 1.42 1.421z"/><path fill-opacity=".259" d="m34.606 40.54-7.105-7.105-.71.71 7.105 7.105z"/><path fill="#3d3846" d="M38.159 22.777a5.024 2.512-45 0 0 5.329-1.776 5.024 2.512-45 0 0 1.776-5.329z"/><path d="M3.998 45.998v1c0 7.203 5.8 13.004 13.004 13.004h29.996c7.203 0 13.004-5.8 13.004-13.004v-1c0 7.203-5.8 13.002-13.004 13.002H17.002A12.975 12.975 0 0 1 3.998 45.998" opacity=".1"/></svg>