<svg xmlns="http://www.w3.org/2000/svg" viewBox="0 0 64 64"><rect width="56.002" height="56.002" x="4" y="3.969" fill="#e6e6e6" rx="13.002" ry="13.002"/><path d="M3.998 45.998v1c0 7.203 5.8 13.004 13.004 13.004h29.996c7.203 0 13.004-5.8 13.004-13.004v-1c0 7.203-5.8 13.002-13.004 13.002H17.002A12.975 12.975 0 0 1 3.998 45.998" opacity=".1"/><path fill="#fff" d="M3.998 18.004v-1C3.998 9.801 9.798 4 17.002 4h29.996c7.203 0 13.004 5.8 13.004 13.004v1c0-7.203-5.8-13.002-13.004-13.002H17.002A12.975 12.975 0 0 0 3.998 18.004" opacity=".5"/><path fill="#424c72" d="M51.505 17.79h-40c-.6 0-1 .4-1 1v30c0 .6.4 1 1 1h14.3c1 0 1.9.4 2.4 1.2.7 1.1 1.9 1.8 3.3 1.8s2.6-.7 3.3-1.8c.5-.8 1.5-1.2 2.4-1.2h14.3c.6 0 1-.4 1-1v-30c0-.6-.4-1-1-1"/><path fill="#e4e7ef" d="M13.505 28.79v18h16c1.1 0 2 .9 2 2 0-1.1.9-2 2-2h16v-18z"/><path fill="#fff" d="M34.505 13.79c-1.7 0-3 1.3-3 3 0-1.7-1.3-3-3-3h-15v31h16c1.1 0 2 .9 2 2 0-1.1.9-2 2-2h16v-31z"/><path fill="#57d1f7" d="M17.505 16.79h4v7h-4z"/><path fill="#e4e7ef" d="M28.505 27.29h-11c-.3 0-.5-.2-.5-.5s.2-.5.5-.5h11c.3 0 .5.2.5.5s-.2.5-.5.5m0-3h-4.4c-.3 0-.5-.2-.5-.5s.2-.5.5-.5h4.4c.3 0 .5.2.5.5s-.2.5-.5.5m0-3h-4.4c-.3 0-.5-.2-.5-.5s.2-.5.5-.5h4.4c.3 0 .5.2.5.5s-.2.5-.5.5m0-3h-4.4c-.3 0-.5-.2-.5-.5s.2-.5.5-.5h4.4c.3 0 .5.2.5.5s-.2.5-.5.5m0 12h-11c-.3 0-.5-.2-.5-.5s.2-.5.5-.5h11c.3 0 .5.2.5.5s-.2.5-.5.5m0 3h-11c-.3 0-.5-.2-.5-.5s.2-.5.5-.5h11c.3 0 .5.2.5.5s-.2.5-.5.5m0 3h-11c-.3 0-.5-.2-.5-.5s.2-.5.5-.5h11c.3 0 .5.2.5.5s-.2.5-.5.5m0 3h-11c-.3 0-.5-.2-.5-.5s.2-.5.5-.5h11c.3 0 .5.2.5.5s-.2.5-.5.5m0 3h-11c-.3 0-.5-.2-.5-.5s.2-.5.5-.5h11c.3 0 .5.2.5.5s-.2.5-.5.5m17-15h-11c-.3 0-.5-.2-.5-.5s.2-.5.5-.5h11c.3 0 .5.2.5.5s-.2.5-.5.5m0 3h-11c-.3 0-.5-.2-.5-.5s.2-.5.5-.5h11c.3 0 .5.2.5.5s-.2.5-.5.5m0-9h-11c-.3 0-.5-.2-.5-.5s.2-.5.5-.5h11c.3 0 .5.2.5.5s-.2.5-.5.5m0-3h-11c-.3 0-.5-.2-.5-.5s.2-.5.5-.5h11c.3 0 .5.2.5.5s-.2.5-.5.5m0 6h-11c-.3 0-.5-.2-.5-.5s.2-.5.5-.5h11c.3 0 .5.2.5.5s-.2.5-.5.5m0 9h-11c-.3 0-.5-.2-.5-.5s.2-.5.5-.5h11c.3 0 .5.2.5.5s-.2.5-.5.5m0 3h-11c-.3 0-.5-.2-.5-.5s.2-.5.5-.5h11c.3 0 .5.2.5.5s-.2.5-.5.5m0 3h-11c-.3 0-.5-.2-.5-.5s.2-.5.5-.5h11c.3 0 .5.2.5.5s-.2.5-.5.5m0 3h-11c-.3 0-.5-.2-.5-.5s.2-.5.5-.5h11c.3 0 .5.2.5.5s-.2.5-.5.5"/></svg>