<svg xmlns="http://www.w3.org/2000/svg" viewBox="0 0 64 64"><rect width="56.002" height="56.002" x="4" y="3.969" fill="#d93428" rx="13.002" ry="13.002"/><path fill="#fafafa" d="m30.275 3.969-7.117 24.014C18.882 25.365 10.515 22.84 4 21.653v6.072c6.092 1.195 13.269 3.588 17.39 6.21l-8.001 25.52c1.147.33 2.357.517 3.613.517h2.537l7.135-22.752C31.934 40.685 37.301 44 44.002 44c4.617 0 8.208-.3 12.357-1.671a217 217 0 0 0 3.643-1.293v-6.488c-2.024.83-4.42 1.719-5.524 2.084C51.015 37.775 48.384 38 44.001 38c-5.107 0-9.96-3.086-15.555-6.752l8.086-27.28z"/><path d="M3.998 45.998v1c0 7.203 5.8 13.004 13.004 13.004h29.996c7.203 0 13.004-5.8 13.004-13.004v-1c0 7.203-5.8 13.002-13.004 13.002H17.002A12.975 12.975 0 0 1 3.998 45.998" opacity=".15"/><path fill="#fff" d="M3.998 18.004v-1C3.998 9.801 9.798 4 17.002 4h29.996c7.203 0 13.004 5.8 13.004 13.004v1c0-7.203-5.8-13.002-13.004-13.002H17.002A12.975 12.975 0 0 0 3.998 18.004" opacity=".15"/></svg>