<svg xmlns="http://www.w3.org/2000/svg" width="64" height="64"><defs><linearGradient id="a" x1="7.937" x2="7.937" y1="15.081" y2="1.852" gradientTransform="scale(3.7796)" gradientUnits="userSpaceOnUse"><stop offset="0" stop-color="#f1efeb"/><stop offset="1" stop-color="#fdfcfc"/></linearGradient><linearGradient id="b" x1="29.777" x2="29.777" y1="10.826" y2="59.912" gradientUnits="userSpaceOnUse"><stop offset="0" stop-color="#b864e6"/><stop offset="1" stop-color="#e664d9"/></linearGradient></defs><rect width="56.002" height="56.002" x="4" y="3.969" fill="url(#a)" rx="13.002" ry="13.002"/><g transform="matrix(.75 0 0 .75 8 8)"><circle cx="32" cy="32" r="28" fill="url(#b)"/><path fill="#fff" d="M18.766 10.826A25 25 0 0 0 7 32h12a13 13 0 0 1 6.113-11.018zM45 32a13 13 0 0 1-6.113 11.018l6.347 10.156A25 25 0 0 0 57 32z" opacity=".15"/><circle cx="32" cy="32" r="10" fill="#4f4f4f"/><circle cx="32" cy="32" r="2" fill="#fff"/></g></svg>