<svg xmlns="http://www.w3.org/2000/svg" width="64" height="64"><defs><clipPath id="b"><rect width="94.626" height="94.626" x="16.289" y="16.856" fill="#b3b3b3" stroke-width="1.69" rx="21.967" ry="21.967"/></clipPath></defs><rect width="56" height="56" x="4" y="4" fill="#b3b3b3" rx="13" ry="13"/><g clip-path="url(#b)" transform="translate(-5.64 -5.975)scale(.5918)"><path fill="#989898" d="M74 33c0 9.941-8.059 18-18 18s-18-8.059-18-18 8.059-18 18-18 18 8.059 18 18m-3-16.5a1.5 1.5 0 1 1-3 0 1.5 1.5 0 0 1 3 0M94 43c0 5.523-4.477 10-10 10s-10-4.477-10-10 4.477-10 10-10 10 4.477 10 10"/><path fill="#989898" d="M104 61c0 7.73-6.27 14-14 14s-14-6.27-14-14 6.27-14 14-14 14 6.27 14 14m14 2a6.001 6.001 0 1 1-6-6c3.313 0 6 2.688 6 6m-6 20c0 5.523-4.477 10-10 10s-10-4.477-10-10 4.477-10 10-10 10 4.477 10 10m-22 6a6.001 6.001 0 1 1-6-6c3.313 0 6 2.688 6 6"/><path fill="#989898" d="M78 53a8 8 0 1 1-16 0 8 8 0 0 1 16 0M46 79c0 5.523-4.477 10-10 10s-10-4.477-10-10 4.477-10 10-10 10 4.477 10 10"/><path fill="#989898" d="M26 77a6.001 6.001 0 1 1-6-6c3.313 0 6 2.688 6 6m20-34c0 9.941-8.059 18-18 18s-18-8.059-18-18 8.059-18 18-18 18 8.059 18 18"/><path fill="#989898" d="M60 55a8 8 0 1 1-16 0 8 8 0 0 1 16 0M41.5 21c0 4.14-3.36 7.5-7.5 7.5s-7.5-3.36-7.5-7.5 3.36-7.5 7.5-7.5 7.5 3.36 7.5 7.5M96 23a6.001 6.001 0 1 1-6-6c3.313 0 6 2.688 6 6m10 4c0 .55-.45 1-1 1s-1-.45-1-1 .45-1 1-1 1 .45 1 1m14.4 22a1.397 1.397 0 1 1-1.398-1.398c.773 0 1.398.625 1.398 1.398m-2.4-3c0 .55-.45 1-1 1s-1-.45-1-1 .45-1 1-1 1 .45 1 1m-6-2c0 .55-.45 1-1 1s-1-.45-1-1 .45-1 1-1 1 .45 1 1m.5 7a1.5 1.5 0 1 1-3 0 1.5 1.5 0 0 1 3 0M28 86a2 2 0 1 1-2-2 2 2 0 0 1 2 2m65 24a2 2 0 1 1-2-2 2 2 0 0 1 2 2m7-7a2 2 0 1 1-2-2 2 2 0 0 1 2 2M66 87c0 .55-.45 1-1 1s-1-.45-1-1 .45-1 1-1 1 .45 1 1M55 73a2 2 0 1 1-2-2 2 2 0 0 1 2 2m-11-6c0 6.629-5.371 12-12 12s-12-5.371-12-12 5.371-12 12-12 12 5.371 12 12"/><path fill="#77767b" d="M34 13.5c-4.14 0-7.5 3.36-7.5 7.5.023.39.082.777.168 1.16A7.494 7.494 0 0 1 34 15.5a7.496 7.496 0 0 1 7.394 6.324q.076-.409.106-.824c0-4.14-3.36-7.5-7.5-7.5M56 15a18 18 0 0 0-14.531 7.492q.024.257.031.508a7.5 7.5 0 0 1-.215 1.695A18.01 18.01 0 0 1 56 17c9.36 0 17.156 7.172 17.938 16.5q.035-.25.063-.5c0-9.941-8.059-18-18-18zm13.5 0a1.5 1.5 0 0 0-1.5 1.5c.008.375.156.73.414 1A1.5 1.5 0 0 1 69.5 17c.414.004.812.176 1.094.48.25-.265.394-.613.406-.98a1.5 1.5 0 0 0-1.5-1.5M90 17c-3.312 0-6 2.688-6 6q.059.509.2 1a6 6 0 0 1 5.8-5 6 6 0 0 1 5.852 4.742q.097-.365.148-.742c0-3.312-2.687-6-6-6m-63.184 8.137C17.394 25.754 10.05 33.555 10 43q.046.468.121.937c.559-9.344 8.191-16.699 17.551-16.914a7.6 7.6 0 0 1-.855-1.887zM105 26c-.55 0-1 .45-1 1s.45 1 1 1 1-.45 1-1-.45-1-1-1m-65.629 2.207a7.5 7.5 0 0 1-1.96 1.453q.62.38 1.198.805c.207-.77.457-1.524.762-2.258M84 33c-5.523 0-10 4.477-10 10q.023.622.121 1.238A10 10 0 0 1 84 35a10 10 0 0 1 9.914 8.742c.04-.246.066-.492.086-.742 0-5.523-4.477-10-10-10m27 10c-.55 0-1 .45-1 1s.45 1 1 1 1-.45 1-1-.45-1-1-1m6 2c-.55 0-1 .45-1 1s.45 1 1 1 1-.45 1-1-.45-1-1-1m-46.293.113a18 18 0 0 1-1.363 1.934A9 9 0 0 1 70 47c1.672 0 3.3.523 4.66 1.5a10 10 0 0 1-.539-2.27 7.9 7.9 0 0 0-3.414-1.117m22.918 2.446A10 10 0 0 1 93 49.332a13.99 13.99 0 0 1 10.863 12.688q.089-.51.137-1.02a14 14 0 0 0-10.375-13.44zm25.375.043a1.392 1.392 0 0 0-.969 2.398 1.39 1.39 0 0 1 1.95 0 1.4 1.4 0 0 0 .417-1A1.39 1.39 0 0 0 119 47.602m-8 1.898a1.5 1.5 0 0 0-1.5 1.5c.008.375.156.73.414 1a1.5 1.5 0 0 1 1.086-.5c.414.004.812.176 1.094.48.25-.265.394-.613.406-.98a1.5 1.5 0 0 0-1.5-1.5m-65.016.371A8 8 0 0 0 44 55c.03.336.086.668.156 1a8.02 8.02 0 0 1 3.023-5.36 19 19 0 0 1-1.195-.769m16.75 1.777q-.299.093-.61.172-.106.586-.124 1.18.04.409.129.812a8.2 8.2 0 0 1 .605-2.164m-3.156.895a18 18 0 0 1-.793.226c.578.97.937 2.051 1.066 3.168q.1-.462.149-.937a8 8 0 0 0-.422-2.457m18.09.176q.18.607.262 1.238.064-.478.07-.957v-.063a10 10 0 0 1-.332-.218m.777.507q-.27.36-.512.735Q78 54.48 78 55a8 8 0 0 1-.07.969q.638-1.127 1.476-2.114a10 10 0 0 1-.96-.629M112 57c-3.312 0-6 2.687-6 6q.06.509.2 1a6 6 0 0 1 5.8-5 6 6 0 0 1 5.852 4.742q.097-.365.148-.742a6 6 0 0 0-6-6m-71.973 1.199q-.516.535-1.07 1.027a12 12 0 0 1 4.93 8.832q.08-.526.113-1.058a12 12 0 0 0-3.973-8.801m36.391 1.543q-.146.147-.293.29c-.055.323-.094.644-.125.968q.046.497.13.988c.034-.754.132-1.508.288-2.246m-54.965 1.89A12 12 0 0 0 20 67c.016.422.059.844.121 1.262a12 12 0 0 1 2.149-6.239 17 17 0 0 1-.817-.39M20 71c-3.312 0-6 2.687-6 6q.06.509.2 1a6 6 0 0 1 5.8-5q.37 0 .734.047a12 12 0 0 1-.546-2.035zm33 0a1.999 1.999 0 0 0-1.734 3A2.01 2.01 0 0 1 53 73a1.99 1.99 0 0 1 1.723 1.008c.18-.305.277-.653.277-1.008 0-1.106-.894-2-2-2m-9.57 1.418a12 12 0 0 1-.461 1.418 10 10 0 0 1 2.886 6.082Q45.95 79.46 46 79a10 10 0 0 0-2.57-6.582M102 73c-.953.015-1.899.164-2.813.445a13.9 13.9 0 0 1-4.05 2.45A10 10 0 0 0 92 83c.035.336.09.668.156 1A10.003 10.003 0 0 1 102 75a10 10 0 0 1 9.898 8.644c.04-.21.074-.43.102-.644 0-5.524-4.477-10-10-10m-75.938 6.394.047.305.023-.266zM84 83a6 6 0 0 0-6 6q.058.509.199 1a6 6 0 0 1 5.8-5 6 6 0 0 1 5.852 4.742q.098-.365.149-.742c0-3.313-2.688-6-6-6m-58 1c-1.106 0-2 .894-2 2 0 .351.093.695.265 1a1.988 1.988 0 0 1 3.457.008q.06-.152.09-.317a10.2 10.2 0 0 1-1.328-2.629A2 2 0 0 0 26 84m39 2c-.551 0-1 .45-1 1s.449 1 1 1 1-.45 1-1-.45-1-1-1m33 15c-1.106 0-2 .894-2 2 0 .351.093.695.265 1a1.989 1.989 0 0 1 3.457.008c.18-.305.278-.653.278-1.008 0-1.106-.895-2-2-2m-7 7c-1.106 0-2 .894-2 2 0 .351.093.695.265 1a1.989 1.989 0 0 1 3.457.008c.18-.305.278-.653.278-1.008 0-1.106-.895-2-2-2"/><path fill="#fff" fill-opacity=".2" d="M43.125 79.156 46 73l-1.531 7.594-.059 6.707 3.09 1.574L51 87l4-1 2-2-1-2-1-1 8-8h2-2l-7 8 2 4-3 1-5 2 1 1h2l2 2-1 1 4-1 4-6 1-3h2-1l-1 2-1 1-2 4-3 3h-2l-1 1v2l1 1 2 1h3l10-2 4-1 3-2h4l-25 9-1 1 2 1 5 1 1 2H53l-2 1v2l-2 1-2-1h-1l-3 1-2 1 2 3v2l-4-1h-2l-1-4-2-1-1-2h-1l-3 3-1-1 1-2 1-1 1-2-3-3v-2l-3-1h-5l-2-1 1-1 4 2 5-1-1-1-5-2-1-2-4-3-3-4-1-2-2-3 1-1 1 2 4 6 3 2 4 3h5l2-2v-2l-1-2-2-3-1-4-.719-4.531-1.187-8.032 1.625 9.25 2.176 5.829L33 89.059l6.934-.665z"/><path fill="#fff" fill-opacity=".102" d="M49 99c0 5.523-4.477 10-10 10s-10-4.477-10-10 4.477-10 10-10 10 4.477 10 10"/><path fill="#f5f5f5" fill-opacity=".302" d="M41 99a2 2 0 1 1-2-2 2 2 0 0 1 2 2"/><path fill="url(#a)" d="M124 63c0 33.137-26.863 60-60 60S4 96.137 4 63 30.863 3 64 3s60 26.863 60 60"/></g></svg>