<svg xmlns="http://www.w3.org/2000/svg" viewBox="0 0 64 64"><rect width="56.002" height="56.002" x="4" y="3.969" fill="#f2f2f2" rx="13.002" ry="13.002"/><path d="M3.998 45.998v1c0 7.203 5.8 13.004 13.004 13.004h29.996c7.203 0 13.004-5.8 13.004-13.004v-1c0 7.203-5.8 13.002-13.004 13.002H17.002A12.975 12.975 0 0 1 3.998 45.998" opacity=".1"/><path fill="#fff" d="M3.998 18.004v-1C3.998 9.801 9.798 4 17.002 4h29.996c7.203 0 13.004 5.8 13.004 13.004v1c0-7.203-5.8-13.002-13.004-13.002H17.002A12.975 12.975 0 0 0 3.998 18.004" opacity=".5"/><g fill-rule="evenodd" stroke-opacity=".255" stroke-width=".215"><path fill="#201f1f" d="M34.29 29.707c0 1.683.042 3.081-.77 4.575-.654 1.21-1.694 1.954-2.85 1.954-1.584 0-2.502-1.259-2.502-3.119 0-3.674 3.148-4.344 6.122-4.344zm4.154 10.503a.831.832 0 0 1-.971.106c-1.365-1.187-1.61-1.74-2.366-2.873-2.26 2.412-3.855 3.134-6.788 3.134-3.466 0-6.168-2.238-6.168-6.715 0-3.497 1.814-5.883 4.392-7.047 2.23-1.028 5.355-1.21 7.744-1.493v-.56c0-1.02.075-2.234-.495-3.119-.503-.794-1.467-1.123-2.313-1.123-1.573 0-2.971.843-3.311 2.59-.076.39-.34.767-.718.786l-3.995-.446c-.336-.08-.707-.363-.616-.903.926-5.059 5.299-6.59 9.214-6.59 2.003 0 4.622.56 6.198 2.147 2.007 1.955 1.814 4.567 1.814 7.41v6.715c0 2.019.802 2.904 1.554 3.996.264.386.325.855-.008 1.146a198.003 198.07 0 0 0-3.16 2.862l-.015-.015"/><path fill="#f90" d="M44.922 43.9c-3.504 2.646-8.58 4.057-12.956 4.057a23.119 23.127 0 0 1-15.824-6.193c-.329-.303-.038-.718.359-.48a31.256 31.266 0 0 0 15.836 4.302 30.757 30.767 0 0 0 12.079-2.533c.593-.257 1.092.397.51.843"/><path fill="#f90" d="M46.38 42.191c-.445-.59-2.962-.28-4.085-.14-.347.038-.4-.264-.087-.488 2-1.444 5.291-1.028 5.67-.54.381.484-.099 3.86-1.985 5.47-.287.25-.56.114-.43-.211.415-1.081 1.368-3.505.918-4.09"/></g></svg>