<svg xmlns="http://www.w3.org/2000/svg" viewBox="0 0 64 64"><path fill="#75b768" d="M17.001 3.999A12.973 12.973 0 0 0 3.999 17.001v29.998a12.973 12.973 0 0 0 13.002 13.002h29.998a12.973 12.973 0 0 0 13.002-13.002V17.001A12.973 12.973 0 0 0 46.999 3.999z"/><path d="M3.998 45.998v1c0 7.203 5.8 13.004 13.004 13.004h29.996c7.203 0 13.004-5.8 13.004-13.004v-1c0 7.203-5.8 13.002-13.004 13.002H17.002A12.975 12.975 0 0 1 3.998 45.998" opacity=".15"/><path fill="#fff" d="M3.998 18.004v-1C3.998 9.801 9.798 4 17.002 4h29.996c7.203 0 13.004 5.8 13.004 13.004v1c0-7.203-5.8-13.002-13.004-13.002H17.002A12.975 12.975 0 0 0 3.998 18.004" opacity=".15"/><g transform="translate(.696 .696)scale(1.3043)"><rect width="24" height="22" x="12" y="14" fill="#876e59" ry="3"/><rect width="20" height="18" x="14" y="16" fill="#ede89f" ry="1"/><path fill="#ebce70" d="M18 16v6h4v-6zm4 6v6h4v-6zm4 0h4v-6h-4zm4 0v6h4v-6zm0 6h-4v6h4zm-8 0h-4v6h4zm-4 0v-6h-4v6z"/><path fill="#327ddc" d="M22 10c-.554 0-1 .446-1 1v1a3 3 0 0 0 2 2.82V23h-1c-1.108 0-2 .892-2 2v5c0 .508.38.97 1 1.322h6c.62-.352 1-.814 1-1.322v-5c0-1.108-.892-2-2-2h-1v-8.18A3 3 0 0 0 27 12v-1c0-.554-.446-1-1-1zm1 1h2v1a1 1 0 0 1-1 1 1 1 0 0 1-1-1z"/><path fill="#225faa" d="M22 25c-.554 0-1 .446-1 1v5.322c.732.416 1.8.678 3 .678s2.268-.262 3-.678V26c0-.554-.446-1-1-1z"/></g></svg>