<svg xmlns="http://www.w3.org/2000/svg" viewBox="0 0 64 64"><rect width="56.002" height="56.002" x="4" y="3.969" fill="#3d8bff" rx="13.002" ry="13.002"/><path d="M3.998 45.998v1c0 7.203 5.8 13.004 13.004 13.004h29.996c7.203 0 13.004-5.8 13.004-13.004v-1c0 7.203-5.8 13.002-13.004 13.002H17.002A12.975 12.975 0 0 1 3.998 45.998" opacity=".15"/><path fill="#fff" d="M3.998 18.004v-1C3.998 9.801 9.798 4 17.002 4h29.996c7.203 0 13.004 5.8 13.004 13.004v1c0-7.203-5.8-13.002-13.004-13.002H17.002A12.975 12.975 0 0 0 3.998 18.004" opacity=".15"/><g stroke-width="1.125"><path fill="#fff" d="M30.57 12a4.246 4.246 0 0 0-4.287 4.287v2.57h-6.856A3.44 3.44 0 0 0 16 22.285v6.516h2.57a4.61 4.61 0 0 1 4.629 4.574l.002.055a4.61 4.61 0 0 1-4.631 4.627H16v6.513A3.44 3.44 0 0 0 19.427 48h6.516v-2.57a4.61 4.61 0 0 1 4.627-4.631l.055.004V40.8a4.61 4.61 0 0 1 4.574 4.629V48h6.513a3.44 3.44 0 0 0 3.43-3.43v-6.855h2.57A4.246 4.246 0 0 0 52 33.428l-.002-.053c-.028-2.375-1.903-4.232-4.286-4.232h-2.57v-6.858a3.44 3.44 0 0 0-3.428-3.428h-6.859v-2.57a4.243 4.243 0 0 0-4.23-4.285z"/><path fill="#3d8bff" d="M30.625 12.002v21.373h21.373a4.24 4.24 0 0 0-4.285-4.232h-2.57v-6.858a3.44 3.44 0 0 0-3.428-3.427h-6.86v-2.571a4.24 4.24 0 0 0-4.23-4.285m-7.427 21.373.002.055a4.61 4.61 0 0 1-4.63 4.627H16v6.513A3.44 3.44 0 0 0 19.428 48h6.514v-2.57a4.61 4.61 0 0 1 4.628-4.63l.055.002v-7.427z" opacity=".35"/></g></svg>