<svg xmlns="http://www.w3.org/2000/svg" xml:space="preserve" viewBox="0 0 16.933 16.933"><defs><radialGradient id="a" cx="13.114" cy="9.296" r="5.964" gradientTransform="rotate(26.443 29.613 -44.82)scale(2.57824 1.99872)" gradientUnits="userSpaceOnUse"><stop offset="0" stop-color="#0794ff"/><stop offset=".615" stop-color="#a033fd"/><stop offset="1" stop-color="#ff6969"/></radialGradient></defs><rect width="14.817" height="14.817" x="1.058" y="1.05" fill="#f2f2f2" rx="3.44" ry="3.44"/><path d="M1.058 12.17v.265a3.433 3.433 0 0 0 3.44 3.44h7.937a3.433 3.433 0 0 0 3.44-3.44v-.265a3.433 3.433 0 0 1-3.44 3.44H4.498a3.433 3.433 0 0 1-3.44-3.44" opacity=".1"/><path fill="#fff" d="M1.058 4.763V4.5a3.433 3.433 0 0 1 3.44-3.44h7.937a3.433 3.433 0 0 1 3.44 3.44v.265a3.433 3.433 0 0 0-3.44-3.44H4.498a3.433 3.433 0 0 0-3.44 3.44z" opacity=".5"/><g stroke-width="1.129"><path fill="url(#a)" d="M4.6 14.05c-.04-.2-.056-.552-.056-.552-.014-.348-.043-.68-.064-.74-.023-.058-.186-.258-.362-.443a7.5 7.5 0 0 1-.715-.862 3.6 3.6 0 0 1-.322-.578l-.189-.496c-.528-1.389-.519-2.94.024-4.245.069-.166.152-.374.186-.462.164-.436.562-.959 1.24-1.626.429-.422.575-.517 1.501-.99.24-.122.964-.357 1.35-.438a6.5 6.5 0 0 1 2.569.002c.431.096 1.115.328 1.402.475.873.445 1.015.541 1.435.957.832.824 1.047 1.135 1.402 2.029.553 1.39.573 2.878.054 4.243l-.191.508a2.8 2.8 0 0 1-.354.63l-.25.336c-.17.225-.878.979-.923.979-.014 0-.176.101-.359.225a6.2 6.2 0 0 1-2.5 1.015c-.729.118-1.775.08-2.472-.09a4 4 0 0 0-.428-.085c-.04 0-.217.061-.397.137-.966.41-1.042.447-1.202.442-.218-.005-.339-.169-.378-.371z" transform="matrix(.84286 0 0 .84265 1.33 1.341)"/><path fill="#fff" d="m5.834 10.04.252-.172c.067-.045.133-.097.15-.115s.249-.197.515-.397c.267-.2.53-.404.584-.453.071-.065.126-.089.209-.089.114 0 .11-.003 1.194.824.251.192.41.254.65.253.299 0 .547-.156.716-.449.043-.073.204-.324.357-.557a5.176 5.175 0 0 0 .281-.451c0-.025.352-.58.671-1.06.174-.26.19-.376.072-.495-.133-.133-.257-.108-.528.106-.582.461-.727.572-.744.572-.03 0-.529.378-.606.461-.086.091-.24.128-.332.078a6.452 6.45 0 0 1-.385-.276 5 5 0 0 0-.364-.257.2.2 0 0 1-.074-.053c-.095-.114-.548-.407-.695-.45-.33-.095-.636.038-.882.383-.22.31-.654 1.005-.654 1.049a.4.4 0 0 1-.085.143c-.048.057-.173.246-.281.418s-.257.411-.333.53c-.17.26-.179.36-.048.47.12.102.2.098.361-.013z"/></g></svg>