<svg xmlns="http://www.w3.org/2000/svg" xmlns:xlink="http://www.w3.org/1999/xlink" style="isolation:isolate" viewBox="0 0 64 64"><defs><clipPath id="b"/><clipPath id="d"><path d="M0 0h64v64H0z"/></clipPath><clipPath id="g"><path d="M0 0h64v64H0z"/></clipPath><clipPath id="f"><path d="M0 0h64v64H0z"/></clipPath><clipPath id="e"><path d="M0 0h64v64H0z"/></clipPath><mask id="c" maskUnits="userSpaceOnUse"><path fill="#fff" stroke="#000" stroke-miterlimit="10" d="M.625 3.743h62.749v60.254H.625z" transform="matrix(4 0 0 4.1667 -2.5 -15.596)"/></mask></defs><use xlink:href="#a" width="100%" height="100%" clip-path="url(#b)" mask="url(#c)" transform="matrix(.25 0 0 .24 .625 3.743)"/><path fill="#ed534d" d="M17.002 3.97h29.996C54.174 3.97 60 9.796 60 16.972v29.996c0 7.176-5.826 13.002-13.002 13.002H17.002C9.826 59.97 4 54.144 4 46.968V16.972C4 9.796 9.826 3.97 17.002 3.97" clip-path="url(#d)"/><g fill="#fff"><path d="m4 20.01 9.891 5.699c.526.303 1.38.304 1.907.002l19.233-11.014c.432-.247 1.13-.244 1.559.006l1.812 1.053c.787.458.786 1.199-.003 1.654L15.97 30.35c-.622.359-1.63.357-2.25-.003L4 24.697z" clip-path="url(#e)"/><path d="m4 29.414 9.891 5.699c.526.303 1.38.304 1.907.002l19.233-11.014c.432-.247 1.13-.244 1.559.005l1.812 1.054c.787.458.786 1.199-.003 1.654L15.97 39.754c-.622.359-1.63.357-2.25-.003L4 34.101z" clip-path="url(#f)"/><path d="m4 38.789 9.891 5.699c.526.303 1.38.304 1.907.002l19.233-11.014c.432-.247 1.13-.244 1.559.005l1.812 1.054c.787.458.786 1.199-.003 1.654L15.97 49.129c-.622.359-1.63.357-2.25-.003L4 43.476z" clip-path="url(#g)"/></g><path d="M3.999 45.998V47A12.975 12.975 0 0 0 17 60.002h30A12.975 12.975 0 0 0 60.002 47v-1.002A12.975 12.975 0 0 1 47 59H17A12.975 12.975 0 0 1 4 45.998z" opacity=".15"/><path fill="#fff" d="M3.999 18.002v-.994A12.975 12.975 0 0 1 17 4.006h30a12.975 12.975 0 0 1 13.002 13.002v1.002A12.975 12.975 0 0 0 47 5.008H17A12.975 12.975 0 0 0 4 18.01z" opacity=".15"/></svg>