<svg xmlns="http://www.w3.org/2000/svg" viewBox="0 0 16.933 16.933"><rect width="14.817" height="14.817" x="1.058" y="1.05" fill="#48494d" rx="3.44" ry="3.44"/><path d="M2.117 2.007A3.43 3.43 0 0 0 1.058 4.49v7.937c0 .979.407 1.858 1.059 2.483z" opacity=".35"/><path fill="#41b3f7" d="M11.85 1.05a1 1 0 0 0-.332.247C6.745 5.213 5.488 5.695 2.117 6.48v1.678a12.9 12.9 0 0 0 4.525-1.671c2.664-1.602 5.849-4.644 5.849-4.644-.83 1.562-1.111 7.055-1.152 14.025h1.097q.174 0 .346-.017h.006l.02-.003a4 4 0 0 0 .518-.096 3.43 3.43 0 0 0 2.55-3.324v-.001c-1.16-2.735-1.329-5.947-.256-9.242a3.4 3.4 0 0 0-.674-1.05h-.001l-.002-.002a3.5 3.5 0 0 0-.358-.33l-.019-.015a4 4 0 0 0-.18-.133l-.01-.008-.003-.002a3 3 0 0 0-.188-.118l-.05-.029a3 3 0 0 0-.186-.099l-.007-.004h-.002a3 3 0 0 0-.213-.094l-.04-.016a3 3 0 0 0-.214-.076h-.003a3.4 3.4 0 0 0-.731-.144 4 4 0 0 0-.302-.014h-.587zM2.117 9.24v1.768c2.173.267 4.878 2.103 6.546 4.859h1.569C8.46 12.72 3.903 9.569 2.117 9.239z"/><path fill="#fff" d="M4.498 1.05a3.43 3.43 0 0 0-3.44 3.44v.273a3.43 3.43 0 0 1 3.44-3.44h7.937a3.43 3.43 0 0 1 3.44 3.44V4.49a3.43 3.43 0 0 0-3.44-3.44z" opacity=".25"/><path d="M4.498 15.875a3.43 3.43 0 0 1-3.44-3.44v-.273a3.43 3.43 0 0 0 3.44 3.44h7.937a3.43 3.43 0 0 0 3.44-3.44v.273a3.43 3.43 0 0 1-3.44 3.44z" opacity=".25"/></svg>