<svg xmlns="http://www.w3.org/2000/svg" width="64" height="64"><defs><linearGradient id="a" x1="7.937" x2="7.937" y1="15.081" y2="1.852" gradientTransform="scale(3.7796)" gradientUnits="userSpaceOnUse"><stop offset="0" stop-color="#f1efeb"/><stop offset="1" stop-color="#fdfcfc"/></linearGradient></defs><rect width="56.002" height="56.002" x="4" y="3.969" fill="url(#a)" rx="13.002" ry="13.002"/><g fill="#d07517" transform="matrix(2 0 0 2 1 2)"><rect width="3" height="3" x="14" y="14" ry=".721"/><rect width="3" height="3" x="14" y="10" ry=".721"/><rect width="3" height="3" x="14" y="22" ry=".721"/><rect width="3" height="3" x="14" y="18" ry=".721"/><rect width="3" height="3" x="14" y="6" ry=".721"/><rect width="3" height="3" x="10" y="6" ry=".721"/><rect width="3" height="3" x="6" y="6" ry=".721"/><rect width="3" height="3" x="22" y="6" ry=".721"/><rect width="3" height="3" x="18" y="6" ry=".721"/></g></svg>