<svg xmlns="http://www.w3.org/2000/svg" image-rendering="optimizeSpeed" viewBox="0 0 64 64"><rect width="56.002" height="56.002" x="4" y="3.969" fill="#ffde1f" rx="13.002" ry="13.002"/><path fill="#10dbae" d="M42.847 11c-2.332 1.899-6.413 3.528-9.926 4.4-2.51.622-6.546.647-7.54.644a1.52 1.52 0 0 0-1.441.049 1.525 1.525 0 0 0-.56 2.088l10.604 18.366a9.937 8.409 0 0 0-2.893-.364 9.937 8.409 0 0 0-9.937 8.408A9.937 8.409 0 0 0 31.092 53a9.937 8.409 0 0 0 9.937-8.409 9.937 8.409 0 0 0-1.16-3.941 2 2 0 0 0-.081-.166l-9.086-15.737c5.54-2.75 10.788-8.324 12.145-13.748z"/><path d="M3.998 45.998v1c0 7.203 5.8 13.004 13.004 13.004h29.996c7.203 0 13.004-5.8 13.004-13.004v-1c0 7.203-5.8 13.002-13.004 13.002H17.002A12.975 12.975 0 0 1 3.998 45.998" opacity=".15"/><path fill="#fff" d="M3.998 18.004v-1C3.998 9.801 9.798 4 17.002 4h29.996c7.203 0 13.004 5.8 13.004 13.004v1c0-7.203-5.8-13.002-13.004-13.002H17.002A12.975 12.975 0 0 0 3.998 18.004" opacity=".15"/></svg>