<svg xmlns="http://www.w3.org/2000/svg" width="64" height="64"><defs><filter id="b" width="1.528" height="1.172" x="-.264" y="-.086" color-interpolation-filters="sRGB"><feGaussianBlur stdDeviation=".66"/></filter><filter id="c" width="1.088" height="1.106" x="-.044" y="-.053" color-interpolation-filters="sRGB"><feGaussianBlur stdDeviation=".66"/></filter><filter id="d" width="1.528" height="1.172" x="-.264" y="-.086" color-interpolation-filters="sRGB"><feGaussianBlur stdDeviation=".66"/></filter><linearGradient id="a" x1="7.937" x2="7.937" y1="15.081" y2="1.852" gradientTransform="scale(3.7796)" gradientUnits="userSpaceOnUse"><stop offset="0" stop-color="#363636"/><stop offset="1" stop-color="#6c6c6c"/></linearGradient></defs><rect width="56.002" height="56.002" x="4" y="3.969" fill="url(#a)" rx="13.002" ry="13.002"/><path d="M14 25.564h4v9.056l2 1.131v8.213l-6-3.604z" filter="url(#b)" opacity=".2"/><path fill="#137fb0" d="M14 24.564h4v9.056l2 1.131v8.213l-6-3.604z"/><path d="m14 18.992.002 7.057 17.979 10.38.02-.011.02.012 17.978-10.381.002-7.057-18 10.393-18-10.393zm8 17.668v6.57l4.31 2.49L32 49.008l5.691-3.287L42 43.232V36.66l-10 5.773z" filter="url(#c)" opacity=".2"/><path fill="#0ea3e7" d="m14 17.993 24.093 13.911-6.112 3.526-17.98-10.382z"/><path d="M50 25.564h-4v9.056l-2 1.131v8.213l6-3.604z" filter="url(#d)" opacity=".2"/><path fill="#0ea3e7" d="m42 35.661-15.692 9.06L32 48.008l10-5.776z"/><path fill="#35cfee" d="M22 35.661v6.57l10 5.774 5.692-3.284z"/><path fill="#229eb5" d="M50 24.564h-4v9.056l-2 1.131v8.213l6-3.604z"/><path fill="#35cfee" d="M50 17.993 25.907 31.904l6.112 3.526 17.98-10.382z"/></svg>