<svg xmlns="http://www.w3.org/2000/svg" width="64" height="64"><defs><linearGradient id="c" x1="31.995" x2="31.995" y1="17.647" y2="46.337" gradientUnits="userSpaceOnUse"><stop offset="0" stop-color="#289dc7"/><stop offset="1" stop-color="#393f95"/></linearGradient><linearGradient id="e" x1="32" x2="32" y1="28.113" y2="38.548" gradientUnits="userSpaceOnUse"><stop offset="0" stop-color="#f80095"/><stop offset="1" stop-color="#f8004e"/></linearGradient><linearGradient id="a" x1="7.937" x2="7.937" y1="15.081" y2="1.852" gradientTransform="scale(3.7796)" gradientUnits="userSpaceOnUse"><stop offset="0" stop-color="#f1efeb"/><stop offset="1" stop-color="#fff"/></linearGradient><filter id="b" width="1.199" height="1.236" x="-.1" y="-.118" color-interpolation-filters="sRGB"><feGaussianBlur stdDeviation="1.409"/></filter><filter id="d" width="1.12" height="1.12" x="-.06" y="-.06" color-interpolation-filters="sRGB"><feGaussianBlur stdDeviation=".261"/></filter></defs><rect width="56.002" height="56.002" x="4" y="3.969" fill="url(#a)" rx="13.002" ry="13.002"/><path d="M27.475 17.652q-.94 0-1.834.612c-.894.612-.999.906-1.227 1.462l-.898 3.138h-3.952c-1.248 0-2.298.444-3.18 1.305-.887.866-1.345 1.92-1.345 3.138V41.94c0 1.218.46 2.237 1.345 3.098.882.86 1.93 1.299 3.18 1.299h24.861c1.248 0 2.339-.444 3.22-1.3.882-.865 1.305-1.884 1.305-3.097V27.307c0-1.218-.423-2.272-1.304-3.138s-1.973-1.305-3.22-1.305h-3.953l-.897-3.138c-.22-.56-.627-1.055-1.224-1.467-.596-.409-1.213-.612-1.834-.612m-5.1 7.826c4.285-.316 8.407 3.53 8.398 7.82 0 4.103-3.73 7.827-7.821 7.827-4.103 0-7.826-3.73-7.826-7.826-.01-3.913 3.352-7.54 7.256-7.821" filter="url(#b)" opacity=".15"/><path fill="url(#c)" d="M27.475 17.652q-.94 0-1.834.612c-.894.612-.999.906-1.227 1.462l-.898 3.138h-3.952c-1.248 0-2.298.444-3.18 1.305-.887.866-1.345 1.92-1.345 3.138V41.94c0 1.218.46 2.237 1.345 3.098.882.86 1.93 1.299 3.18 1.299h24.861c1.248 0 2.339-.444 3.22-1.3.882-.865 1.305-1.884 1.305-3.097V27.307c0-1.218-.423-2.272-1.304-3.138s-1.973-1.305-3.22-1.305h-3.953l-.897-3.138c-.22-.56-.627-1.055-1.224-1.467-.596-.409-1.213-.612-1.834-.612m-5.1 7.826c4.285-.316 8.407 3.53 8.398 7.82 0 4.103-3.73 7.827-7.821 7.827-4.103 0-7.826-3.73-7.826-7.826-.01-3.913 3.352-7.54 7.256-7.821"/><path d="M37.217 33.33a5.218 5.218 0 1 1-10.435 0 5.218 5.218 0 0 1 10.435 0" filter="url(#d)" opacity=".15"/><path fill="url(#e)" d="M37.217 33.33a5.218 5.218 0 1 1-10.435 0 5.218 5.218 0 0 1 10.435 0"/></svg>