<svg xmlns="http://www.w3.org/2000/svg" viewBox="0 0 16.933 16.933"><rect width="14.816" height="14.816" x="1.058" y="1.058" fill="#6eb85a" rx="3.44" ry="3.44"/><path d="M1.058 12.17v.265a3.433 3.433 0 0 0 3.44 3.44h7.937a3.433 3.433 0 0 0 3.44-3.44v-.265a3.433 3.433 0 0 1-3.44 3.44H4.498a3.433 3.433 0 0 1-3.44-3.44" opacity=".15"/><rect width="10.583" height="10.583" x="3.175" y="3.175" fill="#3e3e3e" fill-rule="evenodd" rx="1.588" ry="1.588" style="paint-order:stroke fill markers"/><path fill="#f2f2f2" d="M4.941 11.112h3.97v.794h-3.97z"/><path fill="#fff" d="M1.058 4.763V4.5a3.433 3.433 0 0 1 3.44-3.44h7.937a3.433 3.433 0 0 1 3.44 3.44v.265a3.433 3.433 0 0 0-3.44-3.44H4.498a3.433 3.433 0 0 0-3.44 3.44z" opacity=".15"/><path fill="#fff" d="M4.999 9.05h.786V7.47H6.5l.903 1.58h.945L7.286 7.306c.494-.232.793-.69.793-1.257 0-.78-.567-1.232-1.5-1.232h-1.58zm.786-2.244V5.5h.69c.494 0 .787.25.787.671 0 .397-.244.635-.684.635zM8.94 9.05h.787V7.47h.714l.902 1.58h.946l-1.062-1.744c.494-.232.793-.69.793-1.257 0-.78-.567-1.232-1.5-1.232H8.94zm.787-2.244V5.5h.69c.493 0 .786.25.786.671 0 .397-.244.635-.683.635z" aria-label="RR"/></svg>