<svg xmlns="http://www.w3.org/2000/svg" fill="none" viewBox="0 0 64 64"><g clip-path="url(#a)"><path fill="#eb4a50" fill-rule="evenodd" d="M17.002 3.969H47c7.18 0 13.002 5.82 13.002 13.002v29.997c0 5.386-3.274 10.007-7.941 11.98 4.033-1.705 7.026-5.387 7.764-9.832-1.23-4.345-3.753-8.49-8.597-11.005-4.965-2.585-11.5-3.984-16.38-5.029-3.805-.814-6.603-1.413-6.862-2.19a.8.8 0 0 1-.033-.22c.011-1.216 3.784-1.501 6.256-1.622 2.614-.13 6.574-.482 7.055-2.366a1 1 0 0 0 .033-.263c.01-1.753-4.484-2.421-4.484-2.421s3.707.603 3.696 2.125c0 .055 0 .099-.01.154-.218 1.36-3.933 1.564-6.51 1.706-.537.03-1.024.056-1.42.09-.334.03-.751.05-1.225.076h-.002c-2.782.145-7.512.39-8.858 2.74a.9.9 0 0 0-.12.416c-.005 1.03 2.197 1.924 4.845 2.999 3.8 1.542 8.52 3.458 8.958 6.686.022.175.033.362.033.537-.011 5.554-11.824 10.462-26.283 16.247l-.091.037A12.99 12.99 0 0 1 4 46.968V16.97c0-7.18 5.821-13 13.002-13Z" clip-rule="evenodd"/><path fill="#fff" d="M59.825 49.116c-1.23-4.345-3.753-8.49-8.597-11.005-4.965-2.585-11.5-3.984-16.38-5.029-3.805-.814-6.603-1.413-6.862-2.19a.8.8 0 0 1-.033-.22c.011-1.216 3.784-1.501 6.256-1.622 2.614-.13 6.574-.482 7.055-2.366a1 1 0 0 0 .033-.263c.01-1.753-4.484-2.421-4.484-2.421s3.707.603 3.696 2.125c0 .055 0 .099-.01.154-.218 1.36-3.933 1.564-6.51 1.706-.537.03-1.024.056-1.42.09-.334.03-.751.05-1.225.076h-.002c-2.782.145-7.512.39-8.858 2.74a.9.9 0 0 0-.12.416c-.005 1.03 2.197 1.924 4.845 2.999 3.8 1.542 8.52 3.458 8.958 6.686.022.175.033.362.033.537-.011 5.554-11.824 10.462-26.283 16.247l-.091.037a12.94 12.94 0 0 0 7.176 2.157H47c6.45 0 11.802-4.695 12.825-10.854"/></g><defs><clipPath id="a"><path fill="#fff" d="M0 0h64v64H0z"/></clipPath></defs><path fill="#000" d="M3.999 45.998V47A12.975 12.975 0 0 0 17 60.002h30A12.975 12.975 0 0 0 60.002 47v-1.002A12.975 12.975 0 0 1 47 59H17A12.975 12.975 0 0 1 4 45.998z" opacity=".15"/><path fill="#fff" d="M3.999 18.002v-.994A12.975 12.975 0 0 1 17 4.006h30a12.975 12.975 0 0 1 13.002 13.002v1.002A12.975 12.975 0 0 0 47 5.008H17A12.975 12.975 0 0 0 4 18.01z" opacity=".15"/></svg>