<svg xmlns="http://www.w3.org/2000/svg" viewBox="0 0 64 64"><rect width="56.002" height="56.002" x="4" y="3.969" fill="#f2f2f2" rx="13.002" ry="13.002"/><path d="M3.998 45.998v1c0 7.203 5.8 13.004 13.004 13.004h29.996c7.203 0 13.004-5.8 13.004-13.004v-1c0 7.203-5.8 13.002-13.004 13.002H17.002A12.975 12.975 0 0 1 3.998 45.998" opacity=".1"/><path fill="#fff" d="M3.998 18.004v-1C3.998 9.801 9.798 4 17.002 4h29.996c7.203 0 13.004 5.8 13.004 13.004v1c0-7.203-5.8-13.002-13.004-13.002H17.002A12.975 12.975 0 0 0 3.998 18.004" opacity=".5"/><path fill="#0192ed" d="m45.546 21.902-3.101 3.082c-.546.49-.81 1.277-.504 1.942 2.065 4.323 1.281 9.476-2.109 12.863-3.391 3.386-8.55 4.169-12.877 2.105-.638-.287-1.386-.044-1.877.453l-3.151 3.147a1.676 1.676 0 0 0 .302 2.63 18.89 18.89 0 0 0 23.108-2.778 18.84 18.84 0 0 0 2.84-23.075 1.676 1.676 0 0 0-2.631-.369m-26.822-3.348a18.84 18.84 0 0 0-2.934 23.072 1.676 1.676 0 0 0 2.632.369l3.085-3.065c.56-.488.83-1.284.521-1.958-2.066-4.322-1.284-9.475 2.108-12.863 3.39-3.387 8.55-4.17 12.877-2.106.63.282 1.368.048 1.86-.435l3.17-3.167a1.673 1.673 0 0 0-.302-2.629 18.895 18.895 0 0 0-23.084 2.866z"/></svg>