<svg xmlns="http://www.w3.org/2000/svg" viewBox="0 0 64 64"><rect width="56.002" height="56.002" x="4" y="3.969" fill="#423f76" rx="13.002" ry="13.002"/><path d="M3.998 45.998v1c0 7.203 5.8 13.004 13.004 13.004h29.996c7.203 0 13.004-5.8 13.004-13.004v-1c0 7.203-5.8 13.002-13.004 13.002H17.002A12.975 12.975 0 0 1 3.998 45.998" opacity=".15"/><path fill="#fff" d="M3.998 18.004v-1C3.998 9.801 9.798 4 17.002 4h29.996c7.203 0 13.004 5.8 13.004 13.004v1c0-7.203-5.8-13.002-13.004-13.002H17.002A12.975 12.975 0 0 0 3.998 18.004" opacity=".15"/><circle cx="32.02" cy="32.044" r="30.001" fill="none"/><rect width="48" height="48" x="8" y="8" fill="#4f61aa" rx="11.144" ry="11.144"/><path fill="#34e7e2" d="M23.813 17.224a.65.65 0 0 0-.29.092 16.96 16.96 0 0 0-7.9 19.073A16.96 16.96 0 0 0 27.25 48.276a.652.652 0 0 0 .835-.624v-6.005a10 10 0 0 0 1.305.443v7.898c-2.995-.437-5.862-1.528-8.295-3.34a18.255 18.255 0 0 1-6.255-20.893.652.652 0 0 0-.652-.884.65.65 0 0 0-.573.438 19.565 19.565 0 0 0 16.36 26.15.65.65 0 0 0 .719-.647v-8.47a10 10 0 0 0 1.307.091 10 10 0 0 0 1.307-.094v8.473a.65.65 0 0 0 .721.647 19.56 19.56 0 0 0 16.355-26.15.65.65 0 0 0-.657-.438.652.652 0 0 0-.568.884 18.26 18.26 0 0 1-6.254 20.893c-2.434 1.812-5.298 2.906-8.293 3.342v-7.907a10 10 0 0 0 1.307-.428v5.997a.652.652 0 0 0 .833.624A16.96 16.96 0 0 0 48.38 36.389a16.96 16.96 0 0 0-7.9-19.073.65.65 0 0 0-.374-.092.652.652 0 0 0-.278 1.22 15.65 15.65 0 0 1 7.294 17.606c-1.335 4.984-5.076 8.887-9.897 10.608v-5.597a3.26 3.26 0 0 0 2.603-3.192 3.26 3.26 0 0 0-2.017-3.01c1.092-5.18 3.322-3.385 3.322-5.356v-.716c0-1.852-5.602-11.135-9.13-11.135s-9.131 9.284-9.131 11.135v.716c0 1.97 2.23.177 3.322 5.353a3.26 3.26 0 0 0-2.018 3.013 3.26 3.26 0 0 0 2.606 3.19v5.602c-4.823-1.721-8.564-5.626-9.9-10.611a15.65 15.65 0 0 1 7.294-17.606.652.652 0 0 0-.362-1.22zm3.623 18.689a1.956 1.956 0 0 1 1.956 1.956 1.956 1.956 0 0 1-1.956 1.957 1.956 1.956 0 0 1-1.957-1.957 1.956 1.956 0 0 1 1.957-1.956m9.13 0a1.956 1.956 0 0 1 1.956 1.956 1.956 1.956 0 0 1-1.956 1.957 1.956 1.956 0 0 1-1.957-1.957 1.956 1.956 0 0 1 1.957-1.956"/></svg>