<svg xmlns="http://www.w3.org/2000/svg" xmlns:xlink="http://www.w3.org/1999/xlink" width="64" height="64"><defs><linearGradient id="d" x1="7.937" x2="7.937" y1="15.081" y2="1.852" gradientTransform="scale(3.7796)" gradientUnits="userSpaceOnUse"><stop offset="0" stop-color="#f1efeb"/><stop offset="1" stop-color="#fdfcfc"/></linearGradient><linearGradient xlink:href="#a" id="e" x1="14.999" x2="25.017" y1="282.02" y2="288" gradientTransform="translate(-32.999 -206)" gradientUnits="userSpaceOnUse"/><linearGradient id="a"><stop offset=".5" stop-color="#4d4d4d"/><stop offset="1" stop-color="#999"/></linearGradient><linearGradient xlink:href="#a" id="f" x1="14.999" x2="25.017" y1="282.02" y2="288" gradientTransform="translate(60.983 -206)" gradientUnits="userSpaceOnUse"/><linearGradient xlink:href="#b" id="g" x1="106" x2="116" y1="240" y2="240" gradientTransform="translate(-30 -206)" gradientUnits="userSpaceOnUse"/><linearGradient id="b"><stop offset="0" stop-color="#fff"/><stop offset=".565" stop-color="#fff" stop-opacity="0"/></linearGradient><linearGradient xlink:href="#b" id="h" x1="106" x2="116" y1="240" y2="240" gradientTransform="translate(-124 -206)" gradientUnits="userSpaceOnUse"/><linearGradient xlink:href="#c" id="i" x1="25.719" x2="14.316" y1="286.21" y2="283.81" gradientTransform="rotate(180 50.509 132.5)" gradientUnits="userSpaceOnUse"/><linearGradient id="c"><stop offset="0" stop-color="#fff" stop-opacity=".5"/><stop offset=".735" stop-color="#fff" stop-opacity="0"/></linearGradient><linearGradient id="j" x1="-16" x2="-16.004" y1="228" y2="212.23" gradientUnits="userSpaceOnUse"><stop offset="0" stop-color="#cb5931" stop-opacity=".984"/><stop offset="1" stop-color="#dc9074"/></linearGradient><linearGradient id="k" x1="-16" x2="-16" y1="228" y2="219" gradientUnits="userSpaceOnUse"><stop offset="0" stop-color="#fff" stop-opacity="0"/><stop offset="1" stop-color="#fff" stop-opacity=".138"/></linearGradient><linearGradient id="l" x1="-16" x2="-16.004" y1="228" y2="212.23" gradientUnits="userSpaceOnUse"><stop offset="0" stop-color="#4090bc" stop-opacity=".984"/><stop offset="1" stop-color="#639bba"/></linearGradient><linearGradient id="m" x1="-16" x2="-16.004" y1="228" y2="212.23" gradientUnits="userSpaceOnUse"><stop offset="0" stop-color="#cb7e31" stop-opacity=".984"/><stop offset="1" stop-color="#dca874"/></linearGradient><linearGradient xlink:href="#c" id="n" x1="25.719" x2="14.316" y1="286.21" y2="283.81" gradientTransform="rotate(180 3.509 132.5)" gradientUnits="userSpaceOnUse"/></defs><rect width="56" height="56" x="4" y="4" fill="url(#d)" rx="13" ry="13"/><g transform="translate(18.269 20.087)scale(.40385)"><path fill="#4d4d4d" d="M80.982-22A4.97 4.97 0 0 0 76-17.018v94.035A4.97 4.97 0 0 0 80.982 82h.035A4.97 4.97 0 0 0 86 77.017v-94.035A4.97 4.97 0 0 0 81.017-22zM81-13a2 2 0 0 1 2 2 2 2 0 0 1-2 2 2 2 0 0 1-2-2 2 2 0 0 1 2-2m0 9a2 2 0 0 1 2 2 2 2 0 0 1-2 2 2 2 0 0 1-2-2 2 2 0 0 1 2-2m0 9a2 2 0 0 1 2 2 2 2 0 0 1-2 2 2 2 0 0 1-2-2 2 2 0 0 1 2-2m0 9a2 2 0 0 1 2 2 2 2 0 0 1-2 2 2 2 0 0 1-2-2 2 2 0 0 1 2-2m0 9a2 2 0 0 1 2 2 2 2 0 0 1-2 2 2 2 0 0 1-2-2 2 2 0 0 1 2-2m0 9a2 2 0 0 1 2 2 2 2 0 0 1-2 2 2 2 0 0 1-2-2 2 2 0 0 1 2-2m0 9a2 2 0 0 1 2 2 2 2 0 0 1-2 2 2 2 0 0 1-2-2 2 2 0 0 1 2-2m0 9a2 2 0 0 1 2 2 2 2 0 0 1-2 2 2 2 0 0 1-2-2 2 2 0 0 1 2-2m0 9a2 2 0 0 1 2 2 2 2 0 0 1-2 2 2 2 0 0 1-2-2 2 2 0 0 1 2-2m0 9a2 2 0 0 1 2 2 2 2 0 0 1-2 2 2 2 0 0 1-2-2 2 2 0 0 1 2-2"/><rect width="8" height="84" x="-67.796" y="-8" fill="gray" rx="0" ry="0" transform="rotate(-90)"/><rect width="7" height="84" x="-68.796" y="-8" fill="#666" rx="0" ry="0" transform="rotate(-90)"/><rect width="8" height="84" x="-24" y="-8" fill="gray" rx="0" ry="0" transform="rotate(-90)"/><rect width="7" height="84" x="-25" y="-8" fill="#666" rx="0" ry="0" transform="rotate(-90)"/><path fill="#666" d="M80.982-23A4.97 4.97 0 0 0 76-18.018v94.035A4.97 4.97 0 0 0 80.982 81h.035A4.97 4.97 0 0 0 86 76.017v-94.035A4.97 4.97 0 0 0 81.017-23zM81-14a2 2 0 0 1 2 2 2 2 0 0 1-2 2 2 2 0 0 1-2-2 2 2 0 0 1 2-2m0 9a2 2 0 0 1 2 2 2 2 0 0 1-2 2 2 2 0 0 1-2-2 2 2 0 0 1 2-2m0 9a2 2 0 0 1 2 2 2 2 0 0 1-2 2 2 2 0 0 1-2-2 2 2 0 0 1 2-2m0 9a2 2 0 0 1 2 2 2 2 0 0 1-2 2 2 2 0 0 1-2-2 2 2 0 0 1 2-2m0 9a2 2 0 0 1 2 2 2 2 0 0 1-2 2 2 2 0 0 1-2-2 2 2 0 0 1 2-2m0 9a2 2 0 0 1 2 2 2 2 0 0 1-2 2 2 2 0 0 1-2-2 2 2 0 0 1 2-2m0 9a2 2 0 0 1 2 2 2 2 0 0 1-2 2 2 2 0 0 1-2-2 2 2 0 0 1 2-2m0 9a2 2 0 0 1 2 2 2 2 0 0 1-2 2 2 2 0 0 1-2-2 2 2 0 0 1 2-2m0 9a2 2 0 0 1 2 2 2 2 0 0 1-2 2 2 2 0 0 1-2-2 2 2 0 0 1 2-2m0 9a2 2 0 0 1 2 2 2 2 0 0 1-2 2 2 2 0 0 1-2-2 2 2 0 0 1 2-2"/><path fill="#4d4d4d" d="M-13.018-22A4.97 4.97 0 0 0-18-17.018v94.035A4.97 4.97 0 0 0-13.018 82h.035A4.97 4.97 0 0 0-8 77.017v-94.035A4.97 4.97 0 0 0-12.983-22zm.018 9a2 2 0 0 1 2 2 2 2 0 0 1-2 2 2 2 0 0 1-2-2 2 2 0 0 1 2-2m0 9a2 2 0 0 1 2 2 2 2 0 0 1-2 2 2 2 0 0 1-2-2 2 2 0 0 1 2-2m0 9a2 2 0 0 1 2 2 2 2 0 0 1-2 2 2 2 0 0 1-2-2 2 2 0 0 1 2-2m0 9a2 2 0 0 1 2 2 2 2 0 0 1-2 2 2 2 0 0 1-2-2 2 2 0 0 1 2-2m0 9a2 2 0 0 1 2 2 2 2 0 0 1-2 2 2 2 0 0 1-2-2 2 2 0 0 1 2-2m0 9a2 2 0 0 1 2 2 2 2 0 0 1-2 2 2 2 0 0 1-2-2 2 2 0 0 1 2-2m0 9a2 2 0 0 1 2 2 2 2 0 0 1-2 2 2 2 0 0 1-2-2 2 2 0 0 1 2-2m0 9a2 2 0 0 1 2 2 2 2 0 0 1-2 2 2 2 0 0 1-2-2 2 2 0 0 1 2-2m0 9a2 2 0 0 1 2 2 2 2 0 0 1-2 2 2 2 0 0 1-2-2 2 2 0 0 1 2-2m0 9a2 2 0 0 1 2 2 2 2 0 0 1-2 2 2 2 0 0 1-2-2 2 2 0 0 1 2-2"/><path fill="#666" d="M-13.018-23A4.97 4.97 0 0 0-18-18.018v94.035A4.97 4.97 0 0 0-13.018 81h.035A4.97 4.97 0 0 0-8 76.017v-94.035A4.97 4.97 0 0 0-12.983-23zm.018 9a2 2 0 0 1 2 2 2 2 0 0 1-2 2 2 2 0 0 1-2-2 2 2 0 0 1 2-2m0 9a2 2 0 0 1 2 2 2 2 0 0 1-2 2 2 2 0 0 1-2-2 2 2 0 0 1 2-2m0 9a2 2 0 0 1 2 2 2 2 0 0 1-2 2 2 2 0 0 1-2-2 2 2 0 0 1 2-2m0 9a2 2 0 0 1 2 2 2 2 0 0 1-2 2 2 2 0 0 1-2-2 2 2 0 0 1 2-2m0 9a2 2 0 0 1 2 2 2 2 0 0 1-2 2 2 2 0 0 1-2-2 2 2 0 0 1 2-2m0 9a2 2 0 0 1 2 2 2 2 0 0 1-2 2 2 2 0 0 1-2-2 2 2 0 0 1 2-2m0 9a2 2 0 0 1 2 2 2 2 0 0 1-2 2 2 2 0 0 1-2-2 2 2 0 0 1 2-2m0 9a2 2 0 0 1 2 2 2 2 0 0 1-2 2 2 2 0 0 1-2-2 2 2 0 0 1 2-2m0 9a2 2 0 0 1 2 2 2 2 0 0 1-2 2 2 2 0 0 1-2-2 2 2 0 0 1 2-2m0 9a2 2 0 0 1 2 2 2 2 0 0 1-2 2 2 2 0 0 1-2-2 2 2 0 0 1 2-2"/><path fill="url(#e)" d="M-17.982 76.018v1A4.97 4.97 0 0 0-13 82h.036a4.97 4.97 0 0 0 4.982-4.982v-1A4.97 4.97 0 0 1-12.964 81H-13a4.97 4.97 0 0 1-4.982-4.982"/><path fill="url(#f)" d="M76 76.018v1A4.97 4.97 0 0 0 80.982 82h.036A4.97 4.97 0 0 0 86 77.018v-1A4.97 4.97 0 0 1 81.018 81h-.036A4.97 4.97 0 0 1 76 76.018"/><path fill="url(#g)" d="M81-14a2 2 0 0 0-2 2 2 2 0 0 0 .133.5A2 2 0 0 1 81-13a2 2 0 0 1 1.895 1.393A2 2 0 0 0 83-12a2 2 0 0 0-2-2m0 9a2 2 0 0 0-2 2 2 2 0 0 0 .133.5A2 2 0 0 1 81-4a2 2 0 0 1 1.895 1.393A2 2 0 0 0 83-3a2 2 0 0 0-2-2m0 9a2 2 0 0 0-2 2 2 2 0 0 0 .133.5A2 2 0 0 1 81 5a2 2 0 0 1 1.895 1.393A2 2 0 0 0 83 6a2 2 0 0 0-2-2m0 9a2 2 0 0 0-2 2 2 2 0 0 0 .133.5A2 2 0 0 1 81 14a2 2 0 0 1 1.895 1.393A2 2 0 0 0 83 15a2 2 0 0 0-2-2m0 9a2 2 0 0 0-2 2 2 2 0 0 0 .133.5A2 2 0 0 1 81 23a2 2 0 0 1 1.895 1.393A2 2 0 0 0 83 24a2 2 0 0 0-2-2m0 9a2 2 0 0 0-2 2 2 2 0 0 0 .133.5A2 2 0 0 1 81 32a2 2 0 0 1 1.895 1.393A2 2 0 0 0 83 33a2 2 0 0 0-2-2m0 9a2 2 0 0 0-2 2 2 2 0 0 0 .133.5A2 2 0 0 1 81 41a2 2 0 0 1 1.895 1.393A2 2 0 0 0 83 42a2 2 0 0 0-2-2m0 9a2 2 0 0 0-2 2 2 2 0 0 0 .133.5A2 2 0 0 1 81 50a2 2 0 0 1 1.895 1.393A2 2 0 0 0 83 51a2 2 0 0 0-2-2m0 9a2 2 0 0 0-2 2 2 2 0 0 0 .133.5A2 2 0 0 1 81 59a2 2 0 0 1 1.895 1.393A2 2 0 0 0 83 60a2 2 0 0 0-2-2m0 9a2 2 0 0 0-2 2 2 2 0 0 0 .133.5A2 2 0 0 1 81 68a2 2 0 0 1 1.895 1.393A2 2 0 0 0 83 69a2 2 0 0 0-2-2"/><path fill="url(#h)" d="M-13-14a2 2 0 0 0-2 2 2 2 0 0 0 .133.5A2 2 0 0 1-13-13a2 2 0 0 1 1.895 1.393A2 2 0 0 0-11-12a2 2 0 0 0-2-2m0 9a2 2 0 0 0-2 2 2 2 0 0 0 .133.5A2 2 0 0 1-13-4a2 2 0 0 1 1.895 1.393A2 2 0 0 0-11-3a2 2 0 0 0-2-2m0 9a2 2 0 0 0-2 2 2 2 0 0 0 .133.5A2 2 0 0 1-13 5a2 2 0 0 1 1.895 1.393A2 2 0 0 0-11 6a2 2 0 0 0-2-2m0 9a2 2 0 0 0-2 2 2 2 0 0 0 .133.5A2 2 0 0 1-13 14a2 2 0 0 1 1.895 1.393A2 2 0 0 0-11 15a2 2 0 0 0-2-2m0 9a2 2 0 0 0-2 2 2 2 0 0 0 .133.5A2 2 0 0 1-13 23a2 2 0 0 1 1.895 1.393A2 2 0 0 0-11 24a2 2 0 0 0-2-2m0 9a2 2 0 0 0-2 2 2 2 0 0 0 .133.5A2 2 0 0 1-13 32a2 2 0 0 1 1.895 1.393A2 2 0 0 0-11 33a2 2 0 0 0-2-2m0 9a2 2 0 0 0-2 2 2 2 0 0 0 .133.5A2 2 0 0 1-13 41a2 2 0 0 1 1.895 1.393A2 2 0 0 0-11 42a2 2 0 0 0-2-2m0 9a2 2 0 0 0-2 2 2 2 0 0 0 .133.5A2 2 0 0 1-13 50a2 2 0 0 1 1.895 1.393A2 2 0 0 0-11 51a2 2 0 0 0-2-2m0 9a2 2 0 0 0-2 2 2 2 0 0 0 .133.5A2 2 0 0 1-13 59a2 2 0 0 1 1.895 1.393A2 2 0 0 0-11 60a2 2 0 0 0-2-2m0 9a2 2 0 0 0-2 2 2 2 0 0 0 .133.5A2 2 0 0 1-13 68a2 2 0 0 1 1.895 1.393A2 2 0 0 0-11 69a2 2 0 0 0-2-2"/><path fill="url(#i)" d="M86-17.018v-1A4.97 4.97 0 0 0 81.018-23h-.036A4.97 4.97 0 0 0 76-18.018v1A4.97 4.97 0 0 1 80.982-22h.036A4.97 4.97 0 0 1 86-17.018"/><g transform="matrix(1 0 0 .9697 69.001 -227.36)"><rect width="32" height="32" x="-32" y="220" fill="#c45631" fill-opacity=".984" rx="6" ry="6"/><rect width="32" height="32" x="-32" y="219" fill="url(#j)" rx="6" ry="6"/><path fill="#d26f4b" fill-opacity=".984" d="M-32 228v16.979A6 6 0 0 0-26 251h20c3.324 0 6-2.685 6-6.021V228z"/><path fill="#ab4b2b" fill-opacity=".984" d="M-17 219h2v9h-2z"/></g><g transform="matrix(1 0 0 .9697 73.001 -183.36)"><rect width="32" height="32" x="-32" y="220" fill="#71a550" fill-opacity=".984" rx="6" ry="6"/><rect width="32" height="32" x="-32" y="219" fill="#71a550" fill-opacity=".984" rx="6" ry="6"/><rect width="32" height="32" x="-32" y="219" fill="url(#k)" rx="6" ry="6"/><path fill="#85be5f" fill-opacity=".984" d="M-32 228v16.979A6 6 0 0 0-26 251h20c3.324 0 6-2.685 6-6.021V228z"/><path fill="#629244" fill-opacity=".984" d="M-17 219h2v9h-2z"/></g><g transform="matrix(1 0 0 .9697 29.001 -183.36)"><rect width="32" height="32" x="-32" y="220" fill="#398ebc" fill-opacity=".984" rx="6" ry="6"/><rect width="32" height="32" x="-32" y="219" fill="url(#l)" rx="6" ry="6"/><path fill="#629cbb" fill-opacity=".984" d="M-32 228v16.979A6 6 0 0 0-26 251h20c3.324 0 6-2.685 6-6.021V228z"/><path fill="#427794" fill-opacity=".984" d="M-17 219h2v9h-2z"/></g><g transform="matrix(1 0 0 .9697 29.001 -227.36)"><rect width="32" height="32" x="-32" y="220" fill="#c47b31" fill-opacity=".984" rx="6" ry="6"/><rect width="32" height="32" x="-32" y="219" fill="url(#m)" rx="6" ry="6"/><path fill="#d28e4b" fill-opacity=".984" d="M-32 228v16.979A6 6 0 0 0-26 251h20c3.324 0 6-2.685 6-6.021V228z"/><path fill="#ab6b2b" fill-opacity=".984" d="M-17 219h2v9h-2z"/></g><path fill="url(#n)" d="M-8-17.018v-1A4.97 4.97 0 0 0-12.982-23h-.036A4.97 4.97 0 0 0-18-18.018v1A4.97 4.97 0 0 1-13.018-22h.036A4.97 4.97 0 0 1-8-17.018"/></g></svg>