<svg xmlns="http://www.w3.org/2000/svg" viewBox="0 0 64 64"><defs><linearGradient id="b" x1="23.876" x2="23.876" y1="16.35" y2="31.354" gradientTransform="translate(.067 -.001)" gradientUnits="userSpaceOnUse"><stop offset="0" stop-color="#f62f09"/><stop offset="1" stop-color="#ff0034"/></linearGradient><linearGradient id="a" x1="31.991" x2="31.991" y1="11" y2="53" gradientUnits="userSpaceOnUse"><stop offset="0" stop-color="#151515"/><stop offset="1" stop-color="#2e2e2e"/></linearGradient></defs><rect width="56.002" height="56.002" x="4" y="3.969" fill="#f2f2f2" rx="13.002" ry="13.002"/><path d="M3.998 45.998v1c0 7.203 5.8 13.004 13.004 13.004h29.996c7.203 0 13.004-5.8 13.004-13.004v-1c0 7.203-5.8 13.002-13.004 13.002H17.002A12.975 12.975 0 0 1 3.998 45.998" opacity=".1"/><path fill="#fff" d="M3.998 18.004v-1C3.998 9.801 9.798 4 17.002 4h29.996c7.203 0 13.004 5.8 13.004 13.004v1c0-7.203-5.8-13.002-13.004-13.002H17.002A12.975 12.975 0 0 0 3.998 18.004" opacity=".5"/><path fill="#fcc431" d="M31.537 49.301s4.95-3.11 10.202-.09c0 0 5.228 2.746-2.166 3.387l-5.92.157z"/><path fill="#fcc431" d="M32.462 49.301s-4.95-3.11-10.202-.09c0 0-5.228 2.746 2.166 3.387l5.92.157z"/><ellipse cx="31.991" cy="32" fill="url(#a)" rx="15.323" ry="21" style="paint-order:normal"/><g transform="translate(-69.81 9.298)scale(.79618)"><ellipse cx="127.88" cy="24.638" fill="#242424" opacity=".41" rx="11.079" ry="3.386"/><g fill="#fdfdfd" transform="translate(98.129 .04)scale(1.2308)"><ellipse cx="20.264" cy="12.583" rx="2.649" ry="4.161"/><ellipse cx="27.55" cy="12.583" rx="2.649" ry="4.161"/></g><ellipse cx="123.88" cy="15.364" rx="1.387" ry="2.062"/><path d="M131.14 14.417c.606 0 1.117.575 1.307 1.376.025.105.08.108.08-.004 0-1.138-.621-2.061-1.387-2.061s-1.387.923-1.387 2.061c0 .112.053.116.077.015.188-.806.702-1.387 1.31-1.387"/><ellipse cx="21.26" cy="12.431" fill="#fefefe" rx=".462" ry=".633" transform="translate(98.129 .04)scale(1.2308)"/><ellipse cx="20.954" cy="13.103" fill="#fefefe" opacity=".6" rx=".272" ry=".285" transform="rotate(-2.766 75.713 -2015.83)scale(1.2307)"/><path fill="#fcc431" d="M127.88 21.225c-6.239 0-11.298 2.298-11.298 3.272 0 .72 1.908 1.78 4.808 2.497-1.173-1.02-1.844-1.95-1.87-1.926l.154-.002c.796.725 7.46 7.42 16.376-.158l.13-.002a19.6 19.6 0 0 1-2.4 2.254c3.226-.681 5.398-1.8 5.398-2.664 0-1.207-5.06-3.271-11.299-3.271z"/></g><path fill="#242424" d="M19.039 31.048s-5.236.53-7.296 5.577c0 0-2.194 4.842 3.412 1.208l4.291-3.161zm25.922 0s5.236.53 7.296 5.577c0 0 2.194 4.842-3.412 1.208l-4.291-3.161z"/><path fill="#fff" d="M42.56 34c-1.938 3.05-6.067 2.662-10.52 2.667-4.45-.003-8.06.39-10.003-2.655-.769 1.92-1.616 1.698-1.621 3.834C20.416 45.663 25.62 52 32.04 52s11.625-6.337 11.625-14.154c-.003-2.14.04-1.922-.73-3.846z" style="paint-order:normal"/><path fill="#d4001b" d="M22.551 35.662s-1.612 6.352.765 7.615c0 0 1.2.826 2.973.395 0 0 1.544-.318 1.275-2.614 0 0-.23-3.017.031-4.363z"/><path fill="url(#b)" d="M37.317 16.887c-2.448 5.129-7.22 8.138-13.251 8.138-5.885 0-10.571-2.612-13.09-7.541-1.07-2.094-3.067 3.726-1.664 6.013 2.815 4.59 8.109 7.737 14.213 7.853 6.681.125 12.484-3.417 15.17-8.625.991-1.92-.563-7.545-1.378-5.838" transform="matrix(1.1152 .01545 -.01046 .78656 5.509 13.514)"/></svg>