<svg xmlns="http://www.w3.org/2000/svg" viewBox="0 0 16.933 16.933"><rect width="14.817" height="14.817" x="1.058" y="1.05" fill="#98a0a2" rx="3.44" ry="3.44"/><rect width="12.7" height="12.7" x="2.117" y="2.117" fill="#f57aa5" rx="2.209" ry="2.209"/><path d="M4.498 1.323A3.16 3.16 0 0 0 1.331 4.49v7.937a3.16 3.16 0 0 0 3.167 3.167h7.937a3.16 3.16 0 0 0 3.168-3.167V4.49a3.16 3.16 0 0 0-3.168-3.167zm0 .794h7.937A2.37 2.37 0 0 1 14.81 4.49v7.937a2.37 2.37 0 0 1-2.374 2.373H4.498a2.37 2.37 0 0 1-2.373-2.373V4.49a2.37 2.37 0 0 1 2.373-2.373"/><path fill="#fff" d="M11.575 6.35a.066.066 0 0 0-.066.066v.397c0 .037.03.066.066.066h.132c.037 0 .066-.03.066-.066v-.397a.066.066 0 0 0-.066-.066zm-1.243.515a.07.07 0 0 0-.047.02l-.094.093a.066.066 0 0 0 0 .093l.28.28a.066.066 0 0 0 .094 0l.094-.093a.066.066 0 0 0 0-.093l-.28-.28a.07.07 0 0 0-.047-.02m2.618 0a.07.07 0 0 0-.046.02l-.28.28a.066.066 0 0 0 0 .093l.093.094a.066.066 0 0 0 .094 0l.28-.28a.066.066 0 0 0 0-.094l-.093-.094a.07.07 0 0 0-.047-.019zm-1.309.543a.926.926 0 1 0 0 1.852.926.926 0 0 0 0-1.852m-1.918.794a.066.066 0 0 0-.066.066V8.4c0 .037.03.067.066.067h.397c.036 0 .066-.03.066-.067v-.132a.066.066 0 0 0-.066-.066zm3.44 0a.066.066 0 0 0-.067.066V8.4c0 .037.03.067.066.067h.397c.037 0 .066-.03.066-.067v-.132a.066.066 0 0 0-.066-.066zm-2.644 1.095a.07.07 0 0 0-.047.02l-.28.28a.066.066 0 0 0 0 .094l.093.093a.066.066 0 0 0 .093 0l.28-.28a.066.066 0 0 0 0-.094l-.093-.093a.07.07 0 0 0-.046-.02m2.244 0a.07.07 0 0 0-.046.02l-.094.093a.066.066 0 0 0 0 .094l.28.28a.066.066 0 0 0 .095 0l.093-.093a.066.066 0 0 0 0-.094l-.28-.28a.07.07 0 0 0-.048-.02m-1.188.492a.066.066 0 0 0-.066.067v.396c0 .037.03.067.066.067h.132c.037 0 .066-.03.066-.067v-.396a.066.066 0 0 0-.066-.067z" overflow="visible" style="isolation:auto;mix-blend-mode:normal"/><path d="M8.466 2.117v12.7h-4.14a2.204 2.204 0 0 1-2.21-2.209V4.325c0-1.223.986-2.208 2.21-2.208z" opacity=".1"/><path fill="#fff" d="M5.414 6.35A1.984 1.984 0 0 0 3.44 8.334a1.984 1.984 0 0 0 1.984 1.984 2 2 0 0 0 1.014-.279 2 2 0 0 1-.22.015 1.72 1.72 0 0 1-1.72-1.72 1.72 1.72 0 0 1 1.72-1.72 2 2 0 0 1 .22.015 2 2 0 0 0-1.014-.28h-.01z"/></svg>