<svg xmlns="http://www.w3.org/2000/svg" viewBox="0 0 64 64"><rect width="56.002" height="56.002" x="4" y="3.969" fill="#3f3f3f" rx="13.002" ry="13.002"/><path d="M3.998 45.998v1c0 7.203 5.8 13.004 13.004 13.004h29.996c7.203 0 13.004-5.8 13.004-13.004v-1c0 7.203-5.8 13.002-13.004 13.002H17.002A12.975 12.975 0 0 1 3.998 45.998" opacity=".35"/><path fill="#fff" d="M3.998 18.004v-1C3.998 9.801 9.798 4 17.002 4h29.996c7.203 0 13.004 5.8 13.004 13.004v1c0-7.203-5.8-13.002-13.004-13.002H17.002A12.975 12.975 0 0 0 3.998 18.004" opacity=".15"/><path d="M14 25.564h4v9.056l2 1.131v8.213l-6-3.604z" opacity=".2"/><path fill="#137fb0" d="M14 24.564h4v9.056l2 1.131v8.213l-6-3.604z"/><path d="m42 36.661-15.692 9.06L32 49.008l10-5.776zM14 18.993l24.093 13.911-6.112 3.526-17.98-10.382z" opacity=".2"/><path d="M22 36.661v6.57l10 5.774 5.692-3.284z" opacity=".2"/><path fill="#0ea3e7" d="m14 17.993 24.093 13.911-6.112 3.526-17.98-10.382z"/><path d="M50 25.564h-4v9.056l-2 1.131v8.213l6-3.604z" opacity=".2"/><path fill="#0ea3e7" d="m42 35.661-15.692 9.06L32 48.008l10-5.776z"/><path fill="#35cfee" d="M22 35.661v6.57l10 5.774 5.692-3.284z"/><path fill="#229eb5" d="M50 24.564h-4v9.056l-2 1.131v8.213l6-3.604z"/><path d="M50 18.993 25.907 32.904l6.112 3.526 17.98-10.382z" opacity=".2"/><path fill="#35cfee" d="M50 17.993 25.907 31.904l6.112 3.526 17.98-10.382z"/></svg>