<svg xmlns="http://www.w3.org/2000/svg" fill="none" viewBox="0 0 64 64"><rect width="56.002" height="56.002" x="4" y="3.969" fill="#39264d" rx="13.002" ry="13.002"/><path d="M8.2 5A4.19 4.19 0 0 0 4 9.2v47.6A4.19 4.19 0 0 0 8.2 61h47.6a4.19 4.19 0 0 0 4.2-4.2V9.2A4.19 4.19 0 0 0 55.8 5H32z" opacity=".2"/><path fill="#5491df" d="M18 46v-4h-7V21h7v-7h7v7h-7v14h7v14h-7z"/><path fill="#df605d" d="M39 46v-4h7v-7h-7V14h7v7h7v21h-7v7h-7z"/><path fill="#37955a" d="M25 46v-4h14v7H25v-2.8zm0-28.5V14h14v7H25z"/><path fill="#f7e4d7" d="M18 21h7v7h-7zm7 0h7v7h-7zm-7 7h7v7h-7zm21 7h7v7h-7z"/><path d="M3.998 45.998v1c0 7.203 5.8 13.004 13.004 13.004h29.996c7.203 0 13.004-5.8 13.004-13.004v-1c0 7.203-5.8 13.002-13.004 13.002H17.002A12.975 12.975 0 0 1 3.998 45.998" opacity=".15"/><path fill="#fff" d="M3.998 18.004v-1C3.998 9.801 9.798 4 17.002 4h29.996c7.203 0 13.004 5.8 13.004 13.004v1c0-7.203-5.8-13.002-13.004-13.002H17.002A12.975 12.975 0 0 0 3.998 18.004" opacity=".15"/></svg>