<svg xmlns="http://www.w3.org/2000/svg" viewBox="0 0 64 64"><rect width="56.002" height="56.002" x="4" y="3.969" fill="#f2f2f2" rx="13.002" ry="13.002"/><path d="M3.998 45.998v1c0 7.203 5.8 13.004 13.004 13.004h29.996c7.203 0 13.004-5.8 13.004-13.004v-1c0 7.203-5.8 13.002-13.004 13.002H17.002A12.975 12.975 0 0 1 3.998 45.998" opacity=".1"/><path fill="#fff" d="M3.998 18.004v-1C3.998 9.801 9.798 4 17.002 4h29.996c7.203 0 13.004 5.8 13.004 13.004v1c0-7.203-5.8-13.002-13.004-13.002H17.002A12.975 12.975 0 0 0 3.998 18.004" opacity=".5"/><g stroke-width="1.556"><path fill="#97c33d" d="M26.178 26.136c-.401 7.191-6.89 11.752-10.852 11.752a3.111 3.111 0 1 0 0 6.222c8.081 0 16.691-7.266 17.075-17.934a6.2 6.2 0 0 1-3.075.824 6.2 6.2 0 0 1-3.147-.863z"/><path fill="#3f96b9" d="M18.539 22.601a4.67 4.67 0 0 1-3.214 1.288 4.67 4.67 0 0 1-2.984-1.078C13.17 32.68 19.991 41 29.325 41a3.111 3.111 0 1 0 0-6.223c-5.258 0-10.064-5.145-10.786-12.177z"/><path fill="#196260" d="M15.325 16.111a3.11 3.11 0 0 0-3.111 3.111 3.11 3.11 0 0 0 3.111 3.111 3.11 3.11 0 0 0 3.111-3.11 3.11 3.11 0 0 0-3.111-3.112m0 1.556a1.556 1.556 0 0 1 1.556 1.555 1.556 1.556 0 0 1-1.556 1.556 1.556 1.556 0 0 1-1.556-1.556 1.556 1.556 0 0 1 1.556-1.555" style="paint-order:normal"/><path fill="#3f96b9" d="M29.325 16.111a4.667 4.667 0 0 0-4.667 4.667 4.667 4.667 0 0 0 4.667 4.666 4.667 4.667 0 0 0 4.667-4.666 4.667 4.667 0 0 0-4.667-4.667m0 1.556a3.11 3.11 0 0 1 3.111 3.11 3.11 3.11 0 0 1-3.111 3.112 3.11 3.11 0 0 1-3.111-3.111 3.11 3.11 0 0 1 3.111-3.111m0 1.555a1.556 1.556 0 0 0-1.556 1.556 1.556 1.556 0 0 0 1.556 1.555 1.556 1.556 0 0 0 1.556-1.555 1.556 1.556 0 0 0-1.556-1.556" style="paint-order:normal"/><path fill="#5d7dbd" d="M34.734 17.666c.531.933.812 2.037.814 3.111a6.2 6.2 0 0 1-.878 3.172c4.962.673 10.211 6.161 10.211 9.273a3.111 3.111 0 1 0 6.222 0c0-7.778-9.333-15.556-16.369-15.556"/><path fill="#196260" d="M49.547 22.333c-7.428 0-14.35 7.778-15.313 14.55a7.8 7.8 0 0 1 2.868-.55 7.8 7.8 0 0 1 3.433.808c.297-3.919 5.9-8.586 9.011-8.586a3.111 3.111 0 1 0 0-6.222z"/><path fill="#5d7dbd" d="M37.103 37.888a6.22 6.22 0 0 0-6.222 6.222 6.22 6.22 0 0 0 6.222 6.222 6.22 6.22 0 0 0 6.222-6.222 6.22 6.22 0 0 0-6.222-6.222m0 1.556a4.667 4.667 0 0 1 4.667 4.666 4.667 4.667 0 0 1-4.667 4.667 4.667 4.667 0 0 1-4.667-4.667 4.667 4.667 0 0 1 4.667-4.666m0 1.555a3.11 3.11 0 0 0-3.111 3.111 3.11 3.11 0 0 0 3.111 3.111 3.11 3.11 0 0 0 3.111-3.11 3.11 3.11 0 0 0-3.111-3.112m0 1.556a1.556 1.556 0 0 1 1.556 1.555 1.556 1.556 0 0 1-1.556 1.556 1.556 1.556 0 0 1-1.556-1.556 1.556 1.556 0 0 1 1.556-1.555"/></g></svg>