<svg xmlns="http://www.w3.org/2000/svg" viewBox="0 0 64 64"><rect width="56.002" height="56.002" x="4" y="3.969" fill="#f2f2f2" rx="13.002" ry="13.002"/><path fill="#3da24d" d="M15.217 21.127A19.9 19.9 0 0 0 12 32c.026 10.535 8.22 19.244 18.734 19.91l8.793-14.781c7.832-10.434-16.173-22.837-16.73-5.15.012.856.143 1.707.389 2.527z"/><path fill="#f5c227" d="m49.658 22.643-17.561.115-.076-.002-.035.004h-.125l.002.01c-2.904.138-1.707.65.213.863 12.032 1.3 7.45 13.496 7.45 13.496l-8.808 14.807q.64.054 1.281.067c11.046 0 20-8.955 20-20a20 20 0 0 0-2.341-9.36"/><path fill="#d73131" d="M32 12a20 20 0 0 0-16.768 9.133l7.953 13.373a9.2 9.2 0 0 1-.389-2.527 9.224 9.224 0 0 1 9.067-9.21l-.002-.01h.125l.035-.003.076.002 17.562-.115A20 20 0 0 0 32 12"/><circle cx="32.021" cy="31.979" r="9.224" fill="#fff"/><circle cx="32.021" cy="31.979" r="7.308" fill="#3b6de6"/><path d="M3.998 45.998v1c0 7.203 5.8 13.004 13.004 13.004h29.996c7.203 0 13.004-5.8 13.004-13.004v-1c0 7.203-5.8 13.002-13.004 13.002H17.002A12.975 12.975 0 0 1 3.998 45.998" opacity=".1"/><path fill="#fff" d="M3.998 18.004v-1C3.998 9.801 9.798 4 17.002 4h29.996c7.203 0 13.004 5.8 13.004 13.004v1c0-7.203-5.8-13.002-13.004-13.002H17.002A12.975 12.975 0 0 0 3.998 18.004" opacity=".5"/></svg>