<svg xmlns="http://www.w3.org/2000/svg" viewBox="0 0 64 64"><defs><linearGradient id="a" x1="7.937" x2="7.937" y1="15.081" y2="1.852" gradientTransform="translate(0 .032)scale(3.7795)" gradientUnits="userSpaceOnUse"><stop offset="0" stop-color="#1fe0aa" style="stop-color:#17dc4e;stop-opacity:1"/><stop offset="1" stop-color="#b2ff85" style="stop-color:#0b1d00;stop-opacity:1"/></linearGradient></defs><rect width="56" height="56" x="4" y="4" fill="url(#a)" rx="13.002" ry="13.002" style="fill:#117f28;fill-opacity:1"/><circle cx="32" cy="32" r="24.213" style="display:inline;fill:#2c2738;fill-opacity:1;stroke-width:.664034"/><circle cx="32" cy="32" r="12.913" style="display:inline;fill:#f6f5f4;fill-opacity:1;stroke-width:.404208"/><path d="M31.881 41.438c4.494 0 7.455-2.274 7.455-5.631 0-5.974-9.729-4.52-9.729-7.904 0-.978.9-1.692 2.327-1.692s2.353.714 2.353 1.824c0 1.137-1.005 1.93-2.485 2.062l3.092 1.586c2.46-.899 3.834-2.538 3.834-4.494 0-2.776-2.697-4.626-6.556-4.626-4.23 0-7.006 2.247-7.006 5.578 0 6.106 9.728 4.679 9.728 7.93 0 1.005-1.03 1.718-2.722 1.718-1.85 0-3.067-.898-3.067-2.3 0-1.295 1.057-2.035 2.908-2.088l-2.617-1.665c-2.96.528-4.732 2.22-4.732 4.6 0 3.04 2.935 5.102 7.217 5.102" aria-label="8" style="font-weight:800;font-size:65.5067px;font-family:Cantarell;-inkscape-font-specification:&quot;Cantarell Ultra-Bold&quot;;fill:#241f31;stroke-width:2.20294"/><path d="M3.998 45.998v1c0 7.203 5.8 13.004 13.004 13.004h29.996c7.203 0 13.004-5.8 13.004-13.004v-1c0 7.203-5.8 13.002-13.004 13.002H17.002A12.975 12.975 0 0 1 3.998 45.998" opacity=".15"/><path fill="#fff" d="M3.998 18.004v-1C3.998 9.801 9.798 4 17.002 4h29.996c7.203 0 13.004 5.8 13.004 13.004v1c0-7.203-5.8-13.002-13.004-13.002H17.002A12.975 12.975 0 0 0 3.998 18.004" opacity=".15"/></svg>