<svg xmlns="http://www.w3.org/2000/svg" width="64" height="64"><rect width="56" height="56" x="4" y="4" rx="13" ry="13"/><path fill="#fff" d="M45.252 42.632A14.003 14.003 0 0 1 18 38.099v-6.86l4.923 2.056v4.801a9.06 9.06 0 0 0 3.673 7.29 9.04 9.04 0 0 0 5.009 1.779c.062 0 .121.005.182.006h.42c.07 0 .12 0 .182-.006a9.04 9.04 0 0 0 5.582-2.242 9.1 9.1 0 0 0 2.712-4.2zM46 25.899v12.199c0 .157 0 .316-.01.473l-4.914-2.054V25.899a9.079 9.079 0 0 0-15.102-6.787 9.08 9.08 0 0 0-3.051 6.787v3.03L18 26.873V11.899h14a14 14 0 0 1 14 14"/></svg>