<svg xmlns="http://www.w3.org/2000/svg" image-rendering="optimizeSpeed" viewBox="0 0 64 64"><defs><linearGradient id="a" x1="116.53" x2="211.49" y1="400.49" y2="324.75" gradientTransform="matrix(.11943 0 0 .07962 10.946 9.537)" gradientUnits="userSpaceOnUse"><stop offset="0" stop-color="#ff9700"/><stop offset=".574" stop-color="#f48e00"/><stop offset="1" stop-color="#ce6e00"/></linearGradient><linearGradient id="b" x1="20.308" x2="45.272" y1="23.514" y2="23.514" gradientUnits="userSpaceOnUse"><stop offset="0" stop-color="#ff9800"/><stop offset="1" stop-color="#ffc522"/></linearGradient></defs><rect width="56.002" height="56.002" x="4" y="3.969" fill="#4d4d4d" rx="13.002" ry="13.002"/><circle cx="32.02" cy="32.044" r="30.001" fill="none"/><path d="M3.998 45.998v1c0 7.203 5.8 13.004 13.004 13.004h29.996c7.203 0 13.004-5.8 13.004-13.004v-1c0 7.203-5.8 13.002-13.004 13.002H17.002A12.975 12.975 0 0 1 3.998 45.998" opacity=".35"/><path fill="#fff" d="M3.998 18.004v-1C3.998 9.801 9.798 4 17.002 4h29.996c7.203 0 13.004 5.8 13.004 13.004v1c0-7.203-5.8-13.002-13.004-13.002H17.002A12.975 12.975 0 0 0 3.998 18.004" opacity=".15"/><path fill="url(#a)" d="M45.272 31.49c0-.38-.28-.6-.626-.49l-23.713 7.52c-.345.11-.625.507-.625.887v7.688c0 .38.28.6.625.49l23.713-7.521c.345-.11.626-.507.626-.887z" style="fill:#de7b00"/><path fill="#ff9800" d="M20.308 31.287c0 .38.28.778.625.887l23.713 7.522c.346.11.626-.11.626-.49V31.52c0-.38-.28-.777-.626-.887L20.933 23.11c-.345-.11-.625.11-.625.49z" style="fill:#ff9800"/><path fill="url(#b)" d="M45.272 15.712c0-.38-.28-.6-.626-.49l-23.713 7.52c-.345.11-.625.508-.625.888v7.688c0 .38.28.6.625.49l23.713-7.522c.345-.11.626-.507.626-.886z" style="fill:#ffb819"/></svg>