<svg xmlns="http://www.w3.org/2000/svg" image-rendering="optimizeSpeed" viewBox="0 0 64 64"><rect width="56" height="56" x="4" y="4" fill="#4d4d4d" rx="13.002" ry="13.002"/><path fill="#00c1c2" fill-rule="evenodd" d="M32.708 36.498a.68.68 0 0 1-.44-.122l-15.54-10.88a.685.685 0 0 1-.167-.953l4.381-6.257a.683.683 0 0 1 .953-.168l13.397 9.38h7.772a.7.7 0 0 1 .49.206c.018.02.226.207.513.517l3.295 3.296c.267.267.267.7 0 .968l-3.465 3.464v-.004c-.203.22-.34.351-.355.365a.68.68 0 0 1-.478.195h-10.35z" clip-rule="evenodd"/><path fill="#00f4f5" fill-rule="evenodd" d="m32.71 27.503.003-.004h10.351c.186 0 .355.074.478.194.015.014.155.148.362.371v-.006l3.459 3.459c.266.267.266.7 0 .968l-3.27 3.27c-.3.326-.521.524-.54.543a.68.68 0 0 1-.489.207h-7.777l-13.392 9.377a.684.684 0 0 1-.953-.168l-4.38-6.257a.685.685 0 0 1 .167-.953l15.539-10.88a.68.68 0 0 1 .442-.121" clip-rule="evenodd"/><path d="M3.999 45.998V47A12.975 12.975 0 0 0 17 60.002h30A12.975 12.975 0 0 0 60.002 47v-1.002A12.975 12.975 0 0 1 47 59H17A12.975 12.975 0 0 1 4 45.998z" opacity=".35"/><path fill="#fff" d="M3.999 18.002v-.994A12.975 12.975 0 0 1 17 4.006h30a12.975 12.975 0 0 1 13.002 13.002v1.002A12.975 12.975 0 0 0 47 5.008H17A12.975 12.975 0 0 0 4 18.01z" opacity=".15"/></svg>