<svg xmlns="http://www.w3.org/2000/svg" viewBox="0 0 64 64"><rect width="56.002" height="56.002" x="4" y="3.969" fill="#f2f2f2" rx="13.002" ry="13.002"/><path d="M3.998 45.998v1c0 7.203 5.8 13.004 13.004 13.004h29.996c7.203 0 13.004-5.8 13.004-13.004v-1c0 7.203-5.8 13.002-13.004 13.002H17.002A12.975 12.975 0 0 1 3.998 45.998" opacity=".1"/><path fill="#fff" d="M3.998 18.004v-1C3.998 9.801 9.798 4 17.002 4h29.996c7.203 0 13.004 5.8 13.004 13.004v1c0-7.203-5.8-13.002-13.004-13.002H17.002A12.975 12.975 0 0 0 3.998 18.004" opacity=".5"/><path fill="#d7000f" d="M32 11c11.59 0 20.962 9.38 21 20.981C53 43.581 43.59 53 32 53s-21-9.418-21-21.019S20.41 11 32 11m-.038 1.723c-10.634 0-19.24 8.614-19.24 19.258S21.365 51.239 32 51.239c10.596 0 19.24-8.614 19.202-19.258 0-10.644-8.606-19.258-19.24-19.258m.019 1.242c2.527 0 4.939.496 7.12 1.45.345.192.805.536.805 1.032 0 .955-1.34.764-2.986 2.063-1.502 1.198-2.304 2.873-2.335 4.738v26.35c-.843.114-1.724.19-2.604.19-.793 0-1.585-.062-2.35-.158l-.254-.033V23.36c0-1.91-.765-3.628-2.297-4.85-1.684-1.299-2.986-1.108-2.986-2.063 0-.534.46-.84.804-1.031 2.182-.917 4.556-1.451 7.083-1.451m7.86 5.037v29.136c-1.043.54-2.19.945-3.34 1.246l-.217.056V23.979c0-1.761.612-3.025 1.836-3.982.612-.46 1.34-.804 1.722-.995m-15.72 29.136V19.002l.308.154c.398.2.94.487 1.413.842 1.197.936 1.809 2.165 1.835 3.867V49.44c-1.142-.285-2.251-.704-3.327-1.195ZM22.4 16.819V30.87c-2.027-.038-2.792-1.263-3.022-1.76-.191-.384-.306-.805-.65-.805-.574 0-1.071 1.723-1.071 3.829l.001.196c.03 2.016.514 3.633 1.07 3.633.344 0 .459-.421.65-.804l.054-.104c.28-.512 1.05-1.582 2.866-1.655l.102-.003v13.745c-5.011-3.177-8.339-8.767-8.339-15.161s3.29-11.984 8.339-15.162m19.202-.038c4.743 3.025 7.956 8.155 8.3 14.09-1.95-.077-2.677-1.302-2.907-1.762-.19-.383-.305-.804-.65-.804-.612 0-1.07 1.723-1.07 3.829v.196c.028 2.016.477 3.633 1.07 3.633.317 0 .44-.357.606-.712l.044-.092c.23-.46.957-1.647 2.87-1.8-.417 5.724-3.57 10.696-8.124 13.656l-.139.089z" style="stroke-width:.0617647"/></svg>