<svg xmlns="http://www.w3.org/2000/svg" viewBox="0 0 64 64"><rect width="56.002" height="56.002" x="4" y="3.969" fill="#1899ed" rx="13.002" ry="13.002"/><path d="M3.998 45.998v1c0 7.203 5.8 13.004 13.004 13.004h29.996c7.203 0 13.004-5.8 13.004-13.004v-1c0 7.203-5.8 13.002-13.004 13.002H17.002A12.975 12.975 0 0 1 3.998 45.998" opacity=".15"/><path fill="#fff" d="M3.998 18.004v-1C3.998 9.801 9.798 4 17.002 4h29.996c7.203 0 13.004 5.8 13.004 13.004v1c0-7.203-5.8-13.002-13.004-13.002H17.002A12.975 12.975 0 0 0 3.998 18.004" opacity=".15"/><path fill="#fff" d="M25.332 34.657c0 4.561.086 6.153-2.84 6.153s-5.25.947-5.25 3.615 2.754 3.959 4.475 3.959c1.722 0 5.121-1.205 5.121-4.82v-16.35l14.63-3.4v12.522s.172 1.506-1.764 1.506-6.196-.56-6.196 3.529c0 4.087 4.13 3.83 4.776 3.83s4.82-.69 4.82-5.552V16.671l-17.858 3.443z"/></svg>