<svg xmlns="http://www.w3.org/2000/svg" viewBox="0 0 16.933 16.933"><defs><radialGradient id="a" cx="55" cy="24" r="28.001" gradientTransform="matrix(.37795 0 0 .3307 -6.236 -1.323)" gradientUnits="userSpaceOnUse"><stop offset="0" stop-color="#ff3de3"/><stop offset=".155" stop-color="#fe3ee2"/><stop offset="1" stop-color="#fa47e0" stop-opacity="0"/></radialGradient></defs><g stroke-width=".265"><rect width="14.817" height="14.817" x="1.058" y="1.05" fill="#8266f1" rx="3.44" ry="3.44"/><rect width="14.817" height="14.817" x="1.058" y="1.05" fill="url(#a)" rx="3.44" ry="3.44"/><rect width="14.817" height="14.817" x="1.058" y="1.05" fill="#4cb2bd" rx="3.44" ry="3.44"/></g><rect width="10.583" height="10.583" x="3.175" y="3.175" fill="#3e3e3e" fill-rule="evenodd" rx="1.588" ry="1.588" style="paint-order:stroke fill markers"/><path fill="#f2f2f2" d="M4.762 11.112h3.97v.794h-3.97zm0-6.35h1.665c.995 0 1.798.777 1.798 2.107v.02c0 1.343-.965 2.09-1.71 2.1l-.599.007H4.762zm1.54 3.464c.463 0 1.154-.378 1.154-1.337v-.02c0-.946-.691-1.337-1.155-1.337h-.77v2.694zm4.425-3.464c-.61 0-1.154.202-1.535.582-.38.38-.582.924-.582 1.535s.202 1.154.582 1.535c.38.38.924.582 1.535.582.559 0 .978-.175 1.249-.358s.419-.4.419-.4l.064-.096V6.686h-1.925v.77h1.155v.416c-.024.03-.031.052-.143.128-.162.109-.416.226-.82.226-.447 0-.769-.136-.99-.356-.22-.221-.356-.543-.356-.991s.135-.77.356-.99c.221-.221.543-.357.99-.357.448 0 .77.135.991.356l.545-.544c-.38-.38-.924-.582-1.535-.582"/><path d="M1.058 12.17v.265a3.433 3.433 0 0 0 3.44 3.44h7.937a3.433 3.433 0 0 0 3.44-3.44v-.265a3.433 3.433 0 0 1-3.44 3.44H4.498a3.433 3.433 0 0 1-3.44-3.44" opacity=".15"/><path fill="#fff" d="M1.058 4.763V4.5a3.433 3.433 0 0 1 3.44-3.44h7.937a3.433 3.433 0 0 1 3.44 3.44v.265a3.433 3.433 0 0 0-3.44-3.44H4.498a3.433 3.433 0 0 0-3.44 3.44z" opacity=".15"/></svg>