<svg xmlns="http://www.w3.org/2000/svg" viewBox="0 0 64 64"><rect width="56.002" height="56.002" x="4" y="3.969" fill="#1eadf7" rx="13.002" ry="13.002"/><path d="M3.998 45.998v1c0 7.203 5.8 13.004 13.004 13.004h29.996c7.203 0 13.004-5.8 13.004-13.004v-1c0 7.203-5.8 13.002-13.004 13.002H17.002A12.975 12.975 0 0 1 3.998 45.998" opacity=".15"/><path fill="#fff" d="M3.998 18.004v-1C3.998 9.801 9.798 4 17.002 4h29.996c7.203 0 13.004 5.8 13.004 13.004v1c0-7.203-5.8-13.002-13.004-13.002H17.002A12.975 12.975 0 0 0 3.998 18.004" opacity=".15"/><circle cx="32.02" cy="32.044" r="30.001" fill="none"/><path fill="#fff" fill-rule="evenodd" d="m45.844 18.846-1.385.69s1.316 5.833-.85 7.906c-.592.566-1.017 1.078-1.32 1.53.084.078.175.154.259.232 1.62 1.503 3.138 2.962 4.496 3.454.337.121.633.185.906.226-.523-6.557-2.106-14.038-2.106-14.038m-27.69.004s-1.583 7.479-2.106 14.036a4.7 4.7 0 0 0 .906-.226c1.358-.492 2.876-1.95 4.497-3.454.083-.078.174-.154.259-.232-.304-.452-.73-.964-1.321-1.53-2.166-2.074-.85-7.903-.85-7.903zm17.942 7.966c-1.684.092-4.097 1.231-4.097 1.231s-3.152-1.486-4.764-1.2v.002c-3.996.71-6.883 5.719-10.06 6.862-2.008.723-3.175-.331-3.175-.331s1.058 2.615 3.176 3.758c2.859 1.544 6.407 1.88 9.53 1.143C28.717 37.807 32 35.428 32 35.428s3.282 2.352 5.293 2.826c3.122.736 6.672.426 9.53-1.118C48.941 35.992 50 33.377 50 33.377s-1.168 1.055-3.177.332c-3.176-1.144-6.063-6.152-10.059-6.862a3 3 0 0 0-.667-.031zM48.077 37.42c-.29.223-.6.435-.941.62-2.15 1.16-4.4 1.653-6.83 1.575.81 1.948 1.36 3.588 0 5.538 0 0 2.999-.393 4.325-.927 1.571-.632 2.652-1.561 3.16-4.061.165-.814.254-1.743.286-2.745m-32.154.002c.032 1 .121 1.93.286 2.743.508 2.5 1.586 3.429 3.158 4.061 1.326.534 4.327.927 4.327.927-1.36-1.95-.81-3.59 0-5.538-2.43.078-4.681-.413-6.832-1.573a7 7 0 0 1-.939-.62"/></svg>