<svg xmlns="http://www.w3.org/2000/svg" width="64" height="64"><defs><linearGradient id="b" x1="17.187" x2="17.187" y1="46.737" y2="199.98" gradientTransform="matrix(.2 0 0 .2 12 12)" gradientUnits="userSpaceOnUse"><stop offset="0" stop-color="#35c130"/><stop offset=".348" stop-color="#34bd30"/><stop offset=".681" stop-color="#31b231"/><stop offset="1" stop-color="#2c9f32"/></linearGradient><linearGradient id="f" x1="95.97" x2="95.97" y1="2.292" y2="198.44" gradientTransform="translate(24.714 24.671)scale(.07308)" gradientUnits="userSpaceOnUse"><stop offset="0" stop-color="#47b9ff"/><stop offset="1" stop-color="#3d8aff"/></linearGradient><linearGradient id="c" x1="114.75" x2="114.75" y1="56.681" y2="188.93" gradientTransform="translate(10.342 10.3)scale(.21679)" gradientUnits="userSpaceOnUse"><stop offset="0" stop-color="#ffce00"/><stop offset="1" stop-color="#e6bc00"/></linearGradient><linearGradient id="e" x1="103.67" x2="103.67" y1="-4.662" y2="206.5" gradientTransform="translate(22.797 22.755)scale(.09224)" gradientUnits="userSpaceOnUse"><stop offset="0" stop-color="#fff"/><stop offset="1" stop-color="#d7d7d7"/></linearGradient><linearGradient id="d" x1="97.425" x2="97.425" y1="-9.007" y2="209.87" gradientTransform="matrix(.2 0 0 .2 12 12)" gradientUnits="userSpaceOnUse"><stop offset="0" stop-color="#f6503b"/><stop offset=".217" stop-color="#f24735"/><stop offset=".572" stop-color="#e62f25"/><stop offset="1" stop-color="#d4090d"/></linearGradient><linearGradient id="a" x1="7.937" x2="7.937" y1="15.081" y2="1.852" gradientTransform="scale(3.7796)" gradientUnits="userSpaceOnUse"><stop offset="0" stop-color="#f8fcfc"/><stop offset="1" stop-color="#fff"/></linearGradient></defs><rect width="56.002" height="56.002" x="4" y="3.969" fill="url(#a)" rx="13.002" ry="13.002"/><g stroke-width=".667"><circle cx="32" cy="32" r="20" fill="url(#b)" color="#000"/><path fill="url(#c)" d="M44.834 16.665c-4.112.979-23.557 5.8-12.758 6.968 12.032 1.3 7.452 13.495 7.452 13.495l-8.81 14.808a20 20 0 0 0 1.282.065 20 20 0 0 0 20-20 20 20 0 0 0-7.166-15.335z"/><path fill="url(#d)" d="M32 12a20 20 0 0 0-16.767 9.132l8.942 15.04s-.24-7.245.359-7.964c.599-.718 3.533-3.473 3.533-3.473l4.012-1.197-.217-.779 17.799-.117A20 20 0 0 0 32 12" color="#000"/></g><circle cx="32.021" cy="31.979" r="9.224" fill="url(#e)" color="#000"/><circle cx="32.021" cy="31.979" r="7.308" fill="url(#f)" color="#000"/></svg>