<svg xmlns="http://www.w3.org/2000/svg" viewBox="0 0 64 64"><rect width="56.002" height="56.002" x="4" y="3.969" fill="#f2f2f2" rx="13.002" ry="13.002"/><path d="M3.998 45.998v1c0 7.203 5.8 13.004 13.004 13.004h29.996c7.203 0 13.004-5.8 13.004-13.004v-1c0 7.203-5.8 13.002-13.004 13.002H17.002A12.975 12.975 0 0 1 3.998 45.998" opacity=".1"/><path fill="#fff" d="M3.998 18.004v-1C3.998 9.801 9.798 4 17.002 4h29.996c7.203 0 13.004 5.8 13.004 13.004v1c0-7.203-5.8-13.002-13.004-13.002H17.002A12.975 12.975 0 0 0 3.998 18.004" opacity=".5"/><path fill="#1a1a1a" d="m19.123 13.998-.93 4.498 4.037.004h8.52c4.118 0 7.5 3.382 7.5 7.5 0 3.822-2.914 7.005-6.625 7.443l1.738 4.258q.017-.004.033-.01l4.44 12.31h4.594l-4.754-14.259c3.053-2.19 5.074-5.758 5.074-9.742 0-6.55-5.45-12-12-12h-8.519zm-1.36 6.498L11.663 50h4.594l4.996-24.201A1 1 0 0 1 22.23 25h8.52a1 1 0 0 1 0 2h-7.705l-4.746 23h4.594l2.789-13.512L31.199 50h4.594l-6.822-18.5h1.779a5.5 5.5 0 0 0 0-11h-8.52zm32.079 9.065-3.051.003-.805 4.4h-4.473l-.552 3h4.476l-.804 4.403 3.05-.002.805-4.4h4.473l.553-3h-4.477z" color="#000" style="-inkscape-stroke:none;paint-order:markers fill stroke"/></svg>