<svg xmlns="http://www.w3.org/2000/svg" xmlns:xlink="http://www.w3.org/1999/xlink" viewBox="0 0 64 64"><defs><linearGradient xlink:href="#a" id="f" x1="48.242" x2="80.242" y1="24" y2="24" gradientTransform="translate(-2.635 -2.807)scale(.54119)"/><linearGradient id="a" gradientUnits="userSpaceOnUse"><stop offset="0" stop-color="#c9c9c9"/><stop offset=".052" stop-color="#f6f6f6"/><stop offset=".117" stop-color="#e0e0e0"/><stop offset=".887" stop-color="#dbdbdb"/><stop offset=".945" stop-color="#f6f6f6"/><stop offset="1" stop-color="#c4c4c4"/></linearGradient><linearGradient xlink:href="#a" id="g" x1="56.08" x2="72.709" y1="247.91" y2="247.91" gradientTransform="matrix(-.54119 0 0 .54119 68.868 -95.891)"/><linearGradient xlink:href="#a" id="h" x1="53.354" x2="69.983" y1="75.907" y2="75.907" gradientTransform="translate(-2.635 -2.807)scale(.54119)"/><linearGradient xlink:href="#a" id="i" x1="56.322" x2="72.951" y1="75.907" y2="75.907" gradientTransform="translate(-2.635 -2.807)scale(.54119)"/><linearGradient xlink:href="#b" id="j" x1="46.362" x2="32.483" y1="98.864" y2="51.725" gradientTransform="matrix(.54119 0 0 .54034 -2.635 -2.76)"/><linearGradient id="b" gradientUnits="userSpaceOnUse"><stop offset="0" stop-color="#5e5c64"/><stop offset="1" stop-color="#3d3846"/></linearGradient><linearGradient xlink:href="#b" id="k" x1="96.622" x2="103.48" y1="91.228" y2="53.788" gradientTransform="translate(-2.635 -2.807)scale(.54119)"/><linearGradient xlink:href="#c" id="m" x1="25.764" x2="30.945" y1="208.47" y2="237.74" gradientTransform="matrix(-.54119 0 0 .54119 66.768 -95.891)"/><linearGradient id="c" gradientUnits="userSpaceOnUse"><stop offset="0" stop-color="#54cef7" stop-opacity="0"/><stop offset="1" stop-color="#1e5ab1"/></linearGradient><linearGradient id="d" gradientUnits="userSpaceOnUse"><stop offset="0" stop-color="#ace7fb"/><stop offset="1" stop-color="#0dafe3"/></linearGradient><linearGradient xlink:href="#c" id="o" x1="26.512" x2="31.672" y1="39.72" y2="64.99" gradientTransform="translate(-2.635 -2.807)scale(.54119)"/><linearGradient id="e" gradientUnits="userSpaceOnUse"><stop offset="0" stop-color="#fff" stop-opacity=".184"/><stop offset="1" stop-color="#fff" stop-opacity="0"/></linearGradient><linearGradient id="x" x1="64.242" x2="64.242" y1="40" y2="56" gradientTransform="translate(-2.635 -2.807)scale(.54119)" gradientUnits="userSpaceOnUse"><stop offset="0" stop-color="#54cef7" stop-opacity="0"/><stop offset="1" stop-color="#1e5ab1" stop-opacity=".667"/></linearGradient><radialGradient id="l" cx="61.052" cy="203.55" r="16" gradientTransform="matrix(-.03191 -.54051 -2.8674 .16929 619.5 15.76)" gradientUnits="userSpaceOnUse"><stop offset="0" stop-color="#95e1f9"/><stop offset="1" stop-color="#18bcf2"/></radialGradient><radialGradient xlink:href="#d" id="n" cx="65.765" cy="202.6" r="16" gradientTransform="matrix(.03191 -.54051 2.8674 .16929 -555.24 15.76)"/><radialGradient xlink:href="#e" id="p" cx="78.551" cy="212.4" r="9.496" gradientTransform="matrix(.80539 .0175 -.01108 .51021 -20.903 -92.72)"/><radialGradient xlink:href="#e" id="r" cx="78.551" cy="212.4" r="9.496" gradientTransform="matrix(.7826 .19102 -.12101 .49577 4.442 -99.96)"/><radialGradient id="s" cx="78.551" cy="212.4" r="9.496" gradientTransform="matrix(-1.37 .0117 .01886 .34107 126.96 -55.99)" gradientUnits="userSpaceOnUse"><stop offset="0" stop-color="#fff" stop-opacity=".306"/><stop offset="1" stop-color="#fff" stop-opacity="0"/></radialGradient><radialGradient xlink:href="#e" id="t" cx="78.551" cy="212.4" r="9.496" gradientTransform="matrix(-1.9527 0 .16268 .36131 142.56 -56.113)"/><radialGradient xlink:href="#d" id="v" cx="64" cy="204" r="16" gradientTransform="matrix(0 .77314 -.81178 0 197.74 -34.97)"/></defs><rect width="56.002" height="56.002" x="4" y="3.969" fill="#4d4d4d" rx="13.002" ry="13.002" style="fill:#3c3942;fill-opacity:1"/><path d="M3.998 45.998v1c0 7.203 5.8 13.004 13.004 13.004h29.996c7.203 0 13.004-5.8 13.004-13.004v-1c0 7.203-5.8 13.002-13.004 13.002H17.002A12.975 12.975 0 0 1 3.998 45.998" opacity=".35"/><path fill="#fff" d="M3.998 18.004v-1C3.998 9.801 9.798 4 17.002 4h29.996c7.203 0 13.004 5.8 13.004 13.004v1c0-7.203-5.8-13.002-13.004-13.002H17.002A12.975 12.975 0 0 0 3.998 18.004" opacity=".15"/><path fill="url(#f)" d="M27.803 10.181h8.659a4.33 4.33 0 0 1 4.33 4.33v8.659a4.33 4.33 0 0 1-4.33 4.329h-8.659a4.33 4.33 0 0 1-4.33-4.33V14.51a4.33 4.33 0 0 1 4.33-4.329"/><path fill="#deddda" d="m14.814 26.37 13.043-5.682 9.08.012 9.57 4.695-4.294 15.73-6.914 14.37-2.955 2.361-9.036-13.939-1.146-7.366z" style="fill:#ccc"/><path fill="url(#g)" d="m38.595 25.396-1.755-.909h-7.382v31.008l3.01 2.213 6.127-3.452z" style="fill:#fff;opacity:.5"/><path fill="url(#h)" d="m26.141 25.244 1.75-.7 7.408-.057v31.008L32.43 57.71l-6.268-3.453z" style="fill:#fff;opacity:.5"/><path fill="url(#i)" d="m27.769 24.508 9.137-.021v31.008l-4.486 2.342-4.65-3.58z" style="fill:#fff;opacity:.5"/><path fill="url(#j)" d="M20.423 27.709c2.133 10.423 4.945 20.615 11.978 30.05-7.002-2.594-13.276-5.524-17.709-11.199l7.545-8.276-10.58 1.93c-2.128-2.356-2.756-4.923-3.069-7.532z" style="fill:#5a5860;fill-opacity:1"/><path fill="#097ba0" d="M34.297 32.363a2.16 2.16 0 0 1-2.165 2.161 2.161 2.161 0 1 1 0-4.322c1.197 0 2.165.966 2.165 2.161m0 8.645a2.16 2.16 0 0 1-2.165 2.161 2.161 2.161 0 1 1 0-4.322c1.197 0 2.165.966 2.165 2.161m0 8.646a2.16 2.16 0 0 1-2.165 2.161 2.161 2.161 0 1 1 0-4.322c1.197 0 2.165.966 2.165 2.161"/><path fill="#0dafe3" d="M34.297 31.829a2.163 2.163 0 0 1-2.165 2.165 2.164 2.164 0 1 1 2.165-2.165"/><path fill="url(#k)" d="M45.233 28.926c-2.133 10.437-5.856 19.483-12.889 28.93 7.002-2.596 13.635-5.387 18.071-11.071l-7.608-4.978 9.707.655c2.129-2.362 3.691-6.962 4.004-9.575z" style="fill:#5a5860;fill-opacity:1"/><path fill="#0dafe3" d="M34.297 40.488a2.164 2.164 0 0 1-2.165 2.165 2.163 2.163 0 0 1-2.165-2.165 2.165 2.165 0 1 1 4.33 0m0 8.659a2.163 2.163 0 0 1-2.165 2.165 2.163 2.163 0 0 1-2.165-2.165 2.165 2.165 0 1 1 4.33 0"/><path fill="url(#l)" d="M40.791 14.511v8.659a6.4 6.4 0 0 0 4.02 5.938l9.588 3.835a5.862 5.862 0 0 0 8.04-5.444V10.181a5.86 5.86 0 0 0-8.04-5.443l-9.587 3.835a6.4 6.4 0 0 0-4.021 5.938"/><path fill="url(#m)" d="M40.791 14.511v8.659a6.4 6.4 0 0 0 4.02 5.938l9.588 3.835a5.862 5.862 0 0 0 8.04-5.444V10.181a5.86 5.86 0 0 0-8.04-5.443l-9.587 3.835a6.4 6.4 0 0 0-4.021 5.938" style="fill:#36bff0;fill-opacity:1"/><path fill="url(#n)" d="M23.473 14.511v8.659a6.4 6.4 0 0 1-4.019 5.938l-9.589 3.835a5.862 5.862 0 0 1-8.04-5.444V10.181a5.86 5.86 0 0 1 8.04-5.443l9.59 3.835a6.4 6.4 0 0 1 4.018 5.938"/><path fill="url(#o)" d="M23.473 14.511v8.659a6.4 6.4 0 0 1-4.019 5.938l-9.589 3.835a5.862 5.862 0 0 1-8.04-5.444V10.181a5.86 5.86 0 0 1 8.04-5.443l9.59 3.835a6.4 6.4 0 0 1 4.018 5.938" style="fill:#36bff0;fill-opacity:1"/><path fill="url(#p)" d="m48.414 15.12-10.278 1.355 1.021.478 8.243.664z" style="fill:#fff;opacity:.15"/><path fill="url(#r)" d="m48.833 20.305-10.327-.896 1.068.976 7.728 2.138z" style="fill:#fff;opacity:.15"/><path fill="url(#s)" d="m9.05 16.098 17.482.907-1.737.32-14.02.443z" style="fill:#fff;opacity:.15"/><path fill="url(#t)" d="m6.35 21.202 19.612-1.2-1.398.652-16.21 2.032z" style="fill:#fff;opacity:.15"/><path fill="url(#v)" d="M27.803 10.181h8.659a4.33 4.33 0 0 1 4.33 4.33v8.659a4.33 4.33 0 0 1-4.33 4.329h-8.659a4.33 4.33 0 0 1-4.33-4.33V14.51a4.33 4.33 0 0 1 4.33-4.329"/><path fill="url(#x)" d="M27.803 10.181h8.659a4.33 4.33 0 0 1 4.33 4.33v8.659a4.33 4.33 0 0 1-4.33 4.329h-8.659a4.33 4.33 0 0 1-4.33-4.33V14.51a4.33 4.33 0 0 1 4.33-4.329" style="fill:#00adeb;fill-opacity:1"/></svg>