<svg xmlns="http://www.w3.org/2000/svg" width="64" height="64"><defs><linearGradient id="a" x1="7.937" x2="7.937" y1="15.081" y2="1.852" gradientTransform="scale(3.7796)" gradientUnits="userSpaceOnUse"><stop offset="0" stop-color="#363636"/><stop offset="1" stop-color="#6c6c6c"/></linearGradient></defs><rect width="56" height="56" x="4" y="4" fill="url(#a)" rx="13" ry="13" style="fill:url(#a)"/><g fill-rule="evenodd"><path fill="#55c5e4" d="M46.686 47.34A2.61 2.61 0 0 1 48 49.603V57L17.325 39.384a2.63 2.63 0 0 1-1.326-2.283v-5.862c0-.471.127-.924.355-1.318 0 0 24.352 13.984 30.331 17.419z"/><path fill="#706bc8" d="m16 7 30.675 17.616A2.63 2.63 0 0 1 48 26.899v5.862c0 .47-.126.924-.355 1.318 0 0-24.352-13.984-30.331-17.419A2.61 2.61 0 0 1 16 14.396z"/><path fill="#997bc8" d="M18.952 50.964a1.95 1.95 0 0 0-.717.713 1.96 1.96 0 0 0 .695 2.664l-1.604-.921A2.63 2.63 0 0 1 16 51.137v-5.862c0-.942.505-1.812 1.325-2.283L45.05 27.073l.013-.008c.283-.165.529-.403.704-.706a1.96 1.96 0 0 0-.695-2.663l1.604.921A2.63 2.63 0 0 1 48 26.9v5.862c0 .941-.505 1.812-1.325 2.283l-1.648.946.022-.014z"/><path fill="#84ddea" d="M18.952 36.928a1.94 1.94 0 0 0-.717.714 1.96 1.96 0 0 0 .695 2.663l-1.604-.921A2.63 2.63 0 0 1 16 37.101v-5.862c0-.942.505-1.812 1.325-2.283L45.05 13.037l.013-.008a1.94 1.94 0 0 0 .704-.705 1.96 1.96 0 0 0-.695-2.664l1.604.921A2.63 2.63 0 0 1 48 12.865v5.86c0 .943-.505 1.813-1.325 2.284l-1.648.947.022-.015z"/></g></svg>