<svg xmlns="http://www.w3.org/2000/svg" image-rendering="optimizeSpeed" viewBox="0 0 64 64"><rect width="56" height="56" x="4" y="4" fill="#4d4d4d" rx="13.002" ry="13.002"/><path fill="#fff" d="m35.253 19.027.026 2.989 3.132-.028L38.385 19zm-14.846 1.57-1.487 7.106-4.767.041.016 1.877 4.385-.038-1.301 6.428-3.916.033.016 1.878 3.498-.03-1.402 7.106 1.916-.017 1.4-7.106 6.315-.055-1.434 7.107 1.913-.016 1.47-7.107 4.924-.043-.016-1.877-4.524.039 1.302-6.427 4.054-.035-.016-1.877-3.672.032 1.47-7.106-1.913.017-1.47 7.105-6.316.054 1.47-7.105zm24.18 1.13-.886 4.216-2.297.02.02 2.277 2.175-.018.108 12.55q.037 4.26 3.795 4.228a12 12 0 0 0 3.163-.446l-.02-2.311q-1.18.252-1.808.259c-.73.006-1.248-.166-1.552-.525q-.44-.554-.452-1.91l-.102-11.872 3.48-.03-.02-2.277-3.48.03-.036-4.207zm-9.273 4.288.162 18.81 3.132-.027-.162-18.81zM20.52 29.567l6.263-.054-1.302 6.427-6.3.054z"/><path d="M3.999 45.998V47A12.975 12.975 0 0 0 17 60.002h30A12.975 12.975 0 0 0 60.002 47v-1.002A12.975 12.975 0 0 1 47 59H17A12.975 12.975 0 0 1 4 45.998z" opacity=".15"/><path fill="#fff" d="M3.999 18.002v-.994A12.975 12.975 0 0 1 17 4.006h30a12.975 12.975 0 0 1 13.002 13.002v1.002A12.975 12.975 0 0 0 47 5.008H17A12.975 12.975 0 0 0 4 18.01z" opacity=".15"/></svg>