<svg xmlns="http://www.w3.org/2000/svg" width="64" height="64" image-rendering="optimizeSpeed"><defs><radialGradient id="b" cx="60" cy="30" r="28.001" gradientTransform="translate(135 57.5)scale(-1.25)" gradientUnits="userSpaceOnUse"><stop offset="0" stop-color="#00bff0"/><stop offset=".197" stop-color="#00bff0"/><stop offset="1" stop-color="#00bff0" stop-opacity="0"/></radialGradient><radialGradient id="c" cx="50" cy="50" r="28.001" gradientUnits="userSpaceOnUse"><stop offset="0" stop-color="#f7f63a"/><stop offset="1" stop-color="#f7f63a" stop-opacity="0"/></radialGradient><linearGradient id="a" x1="2.646" x2="14.552" y1="14.552" y2="3.969" gradientTransform="scale(3.7796)" gradientUnits="userSpaceOnUse"><stop offset="0" stop-color="#3ada70"/><stop offset="1" stop-color="#07d589"/></linearGradient></defs><rect width="64" height="64" fill="none" rx="0" ry="0" style="paint-order:stroke fill markers"/><rect width="56.002" height="56.002" x="4" y="3.969" fill="url(#a)" rx="13.002" ry="13.002"/><circle cx="32.02" cy="32.044" r="30.001" fill="none"/><rect width="56.002" height="56.002" x="4" y="3.969" fill="url(#b)" rx="13.002" ry="13.002"/><rect width="56.002" height="56.002" x="4" y="3.969" fill="url(#c)" rx="13.002" ry="13.002"/><rect width="40" height="40" x="12" y="12" fill-rule="evenodd" rx="6" ry="6" style="paint-order:stroke fill markers"/><path fill="#f9f9f9" d="M18 41.999h15v3H18zM18 18h6.291c3.764 0 5.344 1.852 5.344 5.09v.073c0 3.589-2.316 5.018-5.817 5.018h-2.91v5.818H18zm5.818 7.272c1.75 0 2.909-.796 2.909-2.109v-.073c0-1.575-1.159-2.181-2.91-2.181H20.91v4.363zm8.726.64c0-4.464 2.458-7.912 7.272-7.912 2.977 0 4.548.866 6.036 2.354L43.95 22.63c-1.225-1.138-2.56-1.722-4.135-1.722-2.626 0-4.363 2.29-4.363 5.004v-.088c0 2.714 1.65 5.265 4.363 5.265 1.75 0 3.138-.906 4.363-2.044l1.996 2.031c-1.576 1.75-3.383 2.921-6.359 2.921-4.64.088-7.272-3.621-7.272-8.086"/></svg>