<svg xmlns="http://www.w3.org/2000/svg" width="64" height="64"><defs><linearGradient id="a" x1="7.937" x2="7.937" y1="15.081" y2="1.852" gradientTransform="scale(3.7796)" gradientUnits="userSpaceOnUse"><stop offset="0" stop-color="#b81e31"/><stop offset="1" stop-color="#ff5c5c"/></linearGradient><filter id="b" width="1.092" height="1.059" x="-.046" y="-.03" color-interpolation-filters="sRGB"><feGaussianBlur stdDeviation=".345"/></filter></defs><rect width="64" height="64" fill="none" rx="0" ry="0" style="paint-order:stroke fill markers"/><rect width="56.002" height="56.002" x="4" y="3.969" fill="url(#a)" rx="13.002" ry="13.002"/><circle cx="32.02" cy="32.044" r="30.001" fill="none"/><g filter="url(#b)" opacity=".15" transform="translate(-10.886 -7.748)scale(1.2857)"><path d="m25.356 16.915 17 3.5-17 3.5zm0 10 17 3.5-17 3.5z"/><path d="m28.356 22.915 13 2.5-13 2.5z"/><path fill-opacity=".978" d="m31.356 34.915-3.5 10-3.5-10zm9 0-3.5 10-3.5-10z"/></g><g fill="#f9f9f9"><path d="m21.714 14 21.857 4.5L21.714 23zm0 12.856 21.857 4.5-21.857 4.5z"/><path d="m25.571 21.714 16.714 3.214-16.714 3.214z"/><path fill-opacity=".978" d="m29.428 37.142-4.5 12.857-4.5-12.857zm11.572 0-4.5 12.857L32 37.142z"/></g></svg>