<svg xmlns="http://www.w3.org/2000/svg" class="icon" viewBox="0 0 1024 1024"><defs><linearGradient id="a" x1="8.364" x2="8.364" y1="2.37" y2="14.902" gradientTransform="translate(2026.3 .484)scale(60.474)" gradientUnits="userSpaceOnUse"><stop offset="0" stop-color="#20ef85"/><stop offset="1" stop-color="#12a97e"/></linearGradient><clipPath id="b"><rect width="896.04" height="896.04" x="63.981" y="63.981" fill="url(#a)" stroke-width="60.474" rx="208.03" ry="208.03"/></clipPath></defs><path fill="#0377fc" d="M254.4 64h515.2Q960 64 960 254.4v515.2Q960 960 769.6 960H254.4Q64 960 64 769.6V254.4Q64 64 254.4 64" clip-path="url(#b)"/><path fill="#fff" d="M809.584 529.248 736 456.616 624.28 344 511.72 455.272 399.16 344 287.44 456.56l-73.136 72.744a54.71 54.71 0 0 0 0 77.168L287.44 680l112.112-111.72L511.72 681.792 623.832 568.28 736 681.344l73.584-73.136a56.56 56.56 0 0 0 0-78.96"/><path fill="#e0ebfd" d="m404.85 325.69 118.79 118.79-237.59 237.59-118.79-118.79z"/><path fill="#abc4fb" d="m405.05 325.89 118.23 118.25-123.51 124.19-.077-1.218z"/><path d="M63.968 735.97v16c0 115.25 92.81 208.06 208.06 208.06h479.94c115.25 0 208.06-92.81 208.06-208.06v-16c0 115.25-92.811 208.03-208.06 208.03h-479.94c-115.25 0-208.06-92.781-208.06-208.03" opacity=".15"/><path fill="#fff" d="M63.968 288.06v-16c0-115.25 92.81-208.06 208.06-208.06h479.94c115.25 0 208.06 92.81 208.06 208.06v16c0-115.25-92.811-208.03-208.06-208.03h-479.94c-115.25 0-208.06 92.781-208.06 208.03" opacity=".15"/></svg>