<svg xmlns="http://www.w3.org/2000/svg" viewBox="0 0 64 64"><defs><linearGradient id="a" x1="7.937" x2="7.937" y1="15.081" y2="1.852" gradientTransform="scale(3.7796)" gradientUnits="userSpaceOnUse"><stop offset="0" stop-color="#f54800"/><stop offset="1" stop-color="#ffb200"/></linearGradient><linearGradient id="b" x1="23" x2="23" y1="238" y2="222" gradientTransform="rotate(90 184 149)scale(1.5)" gradientUnits="userSpaceOnUse"><stop offset="0" stop-color="#2ec27e"/><stop offset=".5" stop-color="#8ff0a4"/><stop offset="1" stop-color="#2ec27e"/></linearGradient><linearGradient id="d" x1="15" x2="33" y1="58" y2="58" gradientTransform="translate(-36 -35)" gradientUnits="userSpaceOnUse"><stop offset="0" stop-color="#2ec27e"/><stop offset=".5" stop-color="#57e389"/><stop offset="1" stop-color="#2ec27e"/></linearGradient><linearGradient id="e" x1="46" x2="46" y1="232" y2="228" gradientTransform="matrix(0 -1.1875 -2 0 448 108.5)" gradientUnits="userSpaceOnUse"><stop offset="0" stop-color="#9a9996"/><stop offset=".5" stop-color="#fff"/><stop offset="1" stop-color="#c0bfbc"/></linearGradient><linearGradient id="h" gradientUnits="userSpaceOnUse"><stop offset="0" stop-color="#c0bfbc"/><stop offset=".5" stop-color="#deddda"/><stop offset="1" stop-color="#9a9996"/></linearGradient><clipPath id="f"><path d="M24 10c-6.629 0-12 5.371-12 12v22c0 2.21 1.79 4 4 4a2 2 0 0 1 2 2v7a2 2 0 0 1-2 2c-2.21 0-4 1.79-4 4v2h24v-2c0-2.21-1.79-4-4-4a2 2 0 0 1-2-2v-7a2 2 0 0 1 2-2c2.21 0 4-1.79 4-4V22c0-6.629-5.371-12-12-12m0 0"/></clipPath><clipPath id="g"><path d="M24 10c-6.629 0-12 5.371-12 12v22c0 2.21 1.79 4 4 4a2 2 0 0 1 2 2v7a2 2 0 0 1-2 2c-2.21 0-4 1.79-4 4v2h24v-2c0-2.21-1.79-4-4-4a2 2 0 0 1-2-2v-7a2 2 0 0 1 2-2c2.21 0 4-1.79 4-4V22c0-6.629-5.371-12-12-12m0 0"/></clipPath><radialGradient id="c" cx="24" cy="53" r="14" gradientTransform="translate(-36 -35)" gradientUnits="userSpaceOnUse"><stop offset="0" stop-color="#26a269"/><stop offset=".7" stop-color="#26a269" stop-opacity=".478"/><stop offset="1" stop-color="#26a269" stop-opacity="0"/></radialGradient></defs><rect width="56.002" height="56.002" x="4" y="3.969" fill="url(#a)" rx="13.002" ry="13.002" style="fill:#88868c;fill-opacity:1"/><path fill="#5e5c64" d="M13.61 16.674h36.783a3.065 3.065 0 0 1 3.065 3.065V44.26a3.065 3.065 0 0 1-3.065 3.065H13.609a3.065 3.065 0 0 1-3.065-3.065V19.74a3.065 3.065 0 0 1 3.065-3.065zm0 0"/><path fill="#fff" fill-opacity=".6" d="m6.74 23.982 5.513 20.579c.35 1.306 1.59 2.933 2.578 3.855 1.29 1.204 2.177 2.58 3.057 4.313l3.932-1.054c-.104-1.94-.024-3.576.491-5.263.394-1.293.655-3.321.305-4.628l-5.514-20.578Zm0 0" style="fill:#e6e6e6;fill-opacity:.99157345"/><path fill="url(#b)" d="M79.002 19.22c7.73 0 14 6.27 14 14s-6.27 14-14 14-14-6.27-14-14 6.27-14 14-14m0 0" style="fill:#42bdf0;fill-opacity:1" transform="translate(14.758 12.375)scale(.38316)"/><path fill="url(#c)" d="M45.002 19.22c7.73 0 14 6.27 14 14s-6.27 14-14 14-14-6.27-14-14 6.27-14 14-14m0 0" style="fill:#fff" transform="translate(14.758 12.375)scale(.38316)"/><path fill="url(#d)" d="M79.002 55.22c7.73 0 14 6.27 14 14s-6.27 14-14 14-14-6.27-14-14 6.27-14 14-14m0 0" style="fill:#f1c422;fill-opacity:1" transform="translate(14.758 12.375)scale(.38316)"/><path fill="url(#e)" d="M45.002 55.22c7.73 0 14 6.27 14 14s-6.27 14-14 14-14-6.27-14-14 6.27-14 14-14m0 0" style="fill:#da24a2;fill-opacity:1" transform="translate(14.758 12.375)scale(.38316)"/><path fill="url(#f)" d="M4.625 31.826c-2.731 1.14-2.914 4.052-3.405 6.748-.909 5.21-4.399 1.15-7.821 2.095-.67.184-1.285.717-1.834 1.442-.386.492-.717 1.127-.989 1.624L-1.74 72.41c.519 1.935 3.508 6.226 5.595 8.174 2.993 2.793 5.162 6.026 7.152 9.528l4.384-1.174c-.028-4.029.234-7.913 1.429-11.828.833-2.73 1.277-7.941.759-9.877L7.956 31.338c-1.236-.07-2.266.146-3.33.488zm0 0" style="fill:#1eb8f1;fill-opacity:1" transform="translate(14.4 16.42)scale(.38316)"/><path fill="none" stroke="#fff" stroke-linecap="round" stroke-opacity=".302" stroke-width="1.533" d="M15.173 43.614 9.898 23.929"/><path fill="#fff" d="M3.998 18.004v-1C3.998 9.801 9.798 4 17.002 4h29.996c7.203 0 13.004 5.8 13.004 13.004v1c0-7.203-5.8-13.002-13.004-13.002H17.002A12.975 12.975 0 0 0 3.998 18.004" opacity=".15"/><path fill="url(#g)" d="M-18.377-28.317c7.467-2 15.146 2.432 17.146 9.9L3.946.9c2 7.467-2.433 15.146-9.9 17.146s-15.145-2.432-17.146-9.9l-5.177-19.318c-2-7.467 2.433-15.145 9.9-17.146zm0 0" style="fill:#34303f;fill-opacity:1" transform="translate(14.4 16.42)scale(.38316)"/><path fill="url(#h)" d="M-31.276 12.41 13.157.502a3 3 0 0 1 3.674 2.122l1.553 5.795a3 3 0 0 1-2.122 3.675L-28.17 24a3 3 0 0 1-3.674-2.121l-1.553-5.796a3 3 0 0 1 2.121-3.674zm0 0" style="fill:#4a4556;fill-opacity:1" transform="translate(14.4 16.42)scale(.38316)"/><path d="M3.998 45.998v1c0 7.203 5.8 13.004 13.004 13.004h29.996c7.203 0 13.004-5.8 13.004-13.004v-1c0 7.203-5.8 13.002-13.004 13.002H17.002A12.975 12.975 0 0 1 3.998 45.998" opacity=".35" style="opacity:.15"/></svg>