<svg xmlns="http://www.w3.org/2000/svg" xml:space="preserve" width="64" height="64" viewBox="0 0 16.933 16.933"><defs><linearGradient id="a" x1="7.937" x2="7.937" y1="15.081" y2="1.852" gradientUnits="userSpaceOnUse"><stop offset="0" stop-color="#767574"/><stop offset="1" stop-color="#d1e7ee"/></linearGradient></defs><rect width="14.817" height="14.817" x="1.058" y="1.05" fill="url(#a)" rx="3.44" ry="3.44"/><rect width="13.757" height="13.742" x="1.588" y="1.587" fill="#030000" rx="2.91" ry="2.91"/><rect width="12.171" height="12.171" x="2.381" y="2.381" fill="#262626" rx="2.117" ry="2.117" style="fill:#1e355b;fill-opacity:1"/><path d="M5.422 3.257a2.116 2.116 0 0 0-2.116 2.117v2.458c0 .39.32.72.71.717a.7.7 0 0 0 .431-.15.43.43 0 0 1 .539 0 .7.7 0 0 0 .872 0 .43.43 0 0 1 .534-.005c.13.105.299.164.481.154a.71.71 0 0 0 .666-.715V5.374a2.117 2.117 0 0 0-2.117-2.117M4.09 4.581a.27.27 0 0 1 .157.044l.794.53a.265.265 0 0 1 0 .44l-.794.529a.265.265 0 0 1-.366-.073.265.265 0 0 1 .073-.367l.463-.31-.463-.308a.265.265 0 0 1-.073-.367.27.27 0 0 1 .209-.118m1.863.53h.793a.265.265 0 0 1 .265.264.265.265 0 0 1-.265.264h-.793a.265.265 0 0 1-.265-.264.265.265 0 0 1 .265-.265" style="fill:#e4e4e4;stroke-width:.264578"/></svg>