<svg xmlns="http://www.w3.org/2000/svg" viewBox="0 0 64 64"><rect width="55.999" height="55.999" x="4" y="4" fill="#f2f2f2" rx="13.001" ry="13.001"/><path d="M3.998 45.998v1c0 7.203 5.8 13.004 13.004 13.004h29.996c7.203 0 13.004-5.8 13.004-13.004v-1c0 7.203-5.8 13.002-13.004 13.002H17.002A12.975 12.975 0 0 1 3.998 45.998" opacity=".1"/><path fill="#fff" d="M3.998 18.004v-1C3.998 9.801 9.798 4 17.002 4h29.996c7.203 0 13.004 5.8 13.004 13.004v1c0-7.203-5.8-13.002-13.004-13.002H17.002A12.975 12.975 0 0 0 3.998 18.004" opacity=".5"/><path fill="#2689fd" d="M31.312 14.36c-1.13.676-1.456 2.078-.728 3.128 4.003 5.784 4.948 10.147 4.54 13.97-1.658 7.32-5.26 8.806-8.408 8.806-3.073 0-2.25-4.719.06-6.1 1.38-.803 3.145-1.325 4.501-1.325 1.343 0 2.432-1.012 2.432-2.262s-1.089-2.263-2.432-2.263c-1.583 0-3.137.311-4.587.84.296-1.305.406-2.714.023-4.212-.581-2.274-2.255-4.447-5.16-6.553a2.56 2.56 0 0 0-1.796-.46c-.64.073-1.223.38-1.619.854-.824.987-.634 2.408.427 3.176 2.367 1.715 3.149 2.985 3.416 4.03.268 1.045.053 2.167-.484 3.708-.686 2.076-1.484 3.93-1.833 5.707-.172.875-.186 1.827-.23 2.587-1.706-1.55-2.373-3.596-2.373-6.588 0-1.249-1.09-2.262-2.432-2.262-1.343.001-2.43 1.014-2.43 2.262 0 4.086 1.28 7.972 4.712 10.564 3.106 2.762 11.006 1.743 11.006 6.175 0 1.249 1.963 1.857 3.305 1.857 1.378 0 3.11-.857 3.11-1.857 0-5.03 5.682-8.086 15.035-8.074 1.343.002 2.433-1.01 2.433-2.259.004-1.25-1.083-2.265-2.426-2.267q-.958.002-1.88.053c1.048-2.294 1.513-4.82 1.416-7.548-.044-1.25-1.167-2.228-2.51-2.188s-2.397 1.088-2.354 2.338c.126 3.572-.015 6.762-2.87 8.444-.81.477-1.753.892-2.647.892.696-1.763 1.218-3.622 1.434-5.626.137-1.28.151-2.8-.003-3.979-.245-1.83-.537-3.904.205-5.466.67-1.345 2.167-1.91 4.367-1.91 1.343 0 2.43-1.013 2.43-2.261 0-1.25-1.087-2.264-2.43-2.265-3.27 0-5.745 1.605-7.15 3.543a38 38 0 0 0-2.709-4.532 2.44 2.44 0 0 0-1.529-.986 2.6 2.6 0 0 0-.948-.016 2.6 2.6 0 0 0-.884.324z"/></svg>