<svg xmlns="http://www.w3.org/2000/svg" viewBox="0 0 64 64"><defs><linearGradient id="a" x1="7.937" x2="7.937" y1="15.081" y2="1.852" gradientTransform="scale(3.7796)" gradientUnits="userSpaceOnUse"><stop offset="0" stop-color="#d51683"/><stop offset="1" stop-color="#ff5cbc"/></linearGradient></defs><rect width="56.002" height="56.002" x="4" y="3.969" fill="url(#a)" rx="13.002" ry="13.002" style="fill:#ee40a5;fill-opacity:1"/><path d="m50.649 96.56-3.105 7.464 3.577 7.087.473-3.78 4.063 2.268-.189-3.874 1.984-5.764z" style="fill:#e53935;fill-opacity:1;stroke:#fff;stroke-width:3;stroke-linecap:butt;stroke-linejoin:miter;stroke-miterlimit:4;stroke-dasharray:none;stroke-opacity:1" transform="translate(-12.335 -24.257)scale(.457)"/><path d="m51.886 94.385 5.566 5.576-1.984 5.764.189 3.874 3.307 4.914 18.521.284 6.71-7.56-8.41-14.741-21.073-1.7z" style="fill:#f4511e;fill-opacity:1;stroke:#fff;stroke-width:3;stroke-linecap:butt;stroke-linejoin:miter;stroke-miterlimit:4;stroke-dasharray:none;stroke-opacity:1" transform="translate(-12.335 -24.257)scale(.457)"/><path d="m58.964 114.513 1.418 10.489 8.39 11.338 9.753-5.101-3.308-6.899 2.268-9.543 15.497.189-8.788-7.749-6.709 7.56z" style="fill:#fdd835;fill-opacity:1;stroke:#fff;stroke-width:3;stroke-linecap:butt;stroke-linejoin:miter;stroke-miterlimit:4;stroke-dasharray:none;stroke-opacity:1" transform="translate(-12.335 -24.257)scale(.457)"/><path d="m70.71 135.48 16.225 16.17 22.773.377-20.506-9.45-10.677-11.338z" style="fill:#c0ca33;fill-opacity:1;stroke:#fff;stroke-width:3;stroke-linecap:butt;stroke-linejoin:miter;stroke-miterlimit:4;stroke-dasharray:none;stroke-opacity:1" transform="translate(-12.335 -24.257)scale(.457)"/><path d="m92.982 114.986 16.631 12.473 7.749 6.614 4.063 13.607-10.772-.188 1.795 6.142-2.74-1.607-20.506-9.45-10.677-11.338-3.308-6.899 2.268-9.543z" style="fill:#43a047;fill-opacity:1;stroke:#fff;stroke-width:3;stroke-linecap:butt;stroke-linejoin:miter;stroke-miterlimit:4;stroke-dasharray:none;stroke-opacity:1" transform="translate(-12.335 -24.257)scale(.457)"/><path d="m117.42 134.084 3.816 5.187 21.922 12-12.473 1.229-9.26-4.82z" style="fill:#00897b;fill-opacity:1;stroke:#fff;stroke-width:3;stroke-linecap:butt;stroke-linejoin:miter;stroke-miterlimit:4;stroke-dasharray:none;stroke-opacity:1" transform="translate(-12.335 -24.257)scale(.457)"/><path d="m110.653 147.492 10.772.189 9.132 4.847-18.676-.973z" style="fill:#c0ca33;fill-opacity:1;stroke:#fff;stroke-width:3;stroke-linecap:butt;stroke-linejoin:miter;stroke-miterlimit:4;stroke-dasharray:none;stroke-opacity:1" transform="translate(-12.335 -24.257)scale(.457)"/><path d="M3.998 45.998v1c0 7.203 5.8 13.004 13.004 13.004h29.996c7.203 0 13.004-5.8 13.004-13.004v-1c0 7.203-5.8 13.002-13.004 13.002H17.002A12.975 12.975 0 0 1 3.998 45.998" opacity=".15"/><path fill="#fff" d="M3.998 18.004v-1C3.998 9.801 9.798 4 17.002 4h29.996c7.203 0 13.004 5.8 13.004 13.004v1c0-7.203-5.8-13.002-13.004-13.002H17.002A12.975 12.975 0 0 0 3.998 18.004" opacity=".15"/></svg>