<svg xmlns="http://www.w3.org/2000/svg" viewBox="0 0 64 64"><rect width="56.002" height="56.002" x="4" y="3.969" fill="#f2f2f2" rx="13.002" ry="13.002"/><path fill="#fff" d="M3.998 18.004v-1C3.998 9.801 9.798 4 17.002 4h29.996c7.203 0 13.004 5.8 13.004 13.004v1c0-7.203-5.8-13.002-13.004-13.002H17.002A12.975 12.975 0 0 0 3.998 18.004" opacity=".5"/><path d="M3.998 45.998v1c0 7.203 5.8 13.004 13.004 13.004h29.996c7.203 0 13.004-5.8 13.004-13.004v-1c0 7.203-5.8 13.002-13.004 13.002H17.002A12.975 12.975 0 0 1 3.998 45.998" opacity=".1"/><path fill="#e4e4e4" d="M31.26 23.034h18.127c1.449 0 2.613 1.149 2.613 2.576v19.676c0 1.428-1.164 2.576-2.613 2.576H34.963c-.74 0-1.225-.218-1.667-.73z"/><path fill="#6b6a6e" d="m39.321 30.865-1.205-.068c.013.364-.014.686-.068 1.117-.028.228-.081.938-.135 1.287h-.231c-.825 0-1.855-.095-2.573-.215l.015 1.049c.785.067 1.638.135 2.572.135h.013c-.338 1.52-.88 3.454-1.57 4.798l1.001.364c.136-.242.258-.43.42-.633.907-1.062 2.398-2.09 4.007-2.09 1.585 0 2.41 1.257 2.41 2.252 0 2.22-3.032 2.745-6.173 2.314l.284 1.076c4.116.43 7-.605 7-3.416 0-1.561-1.26-3.14-3.412-3.14-1.408 0-2.626.813-3.804 1.633.284-.767.595-2.055.84-3.185 1.718-.068 3.79-.284 5.374-.565l-.013-1.022c-1.665.362-3.575.55-5.159.618.068-.296.108-.978.15-1.18.08-.363.148-.78.256-1.13zm5.077-.472-.718.31c.366.498.826 1.317 1.097 1.87l.732-.323a17 17 0 0 0-1.111-1.857m1.503-.538-.718.31c.38.497.826 1.265 1.124 1.855l.731-.334c-.258-.5-.786-1.333-1.137-1.83z"/><path fill="#1d7a4f" d="M38.391 41.607c.26.642.196 1.33-.74 1.84l-3.058 2.208c-.549.268-1.482 1.471 0 2.189-1.26-.165-1.528-1.057-1.852-1.822L26.815 30.2l9.354 5.887z"/><path fill="#33d17a" d="m14.613 16.171 14.033-.033c1.449-.003 2.092 1.279 2.614 2.61.863 2.473 7.312 23.311 7.312 23.311-.299-.627-1.016-1.093-1.756-1.093H14.613c-1.448 0-2.613-1.15-2.613-2.579v-19.64a2.616 2.616 0 0 1 2.613-2.61z"/><path fill="#fff" d="M18.207 33.38H22.4c3.058 0 5.463-2.124 5.463-4.799 0-2.717-2.405-4.857-5.463-4.857h-4.192zm4.134-7.587c1.624 0 2.763 1.244 2.763 2.788 0 1.514-1.147 2.567-2.763 2.73h-1.375v-5.518z"/></svg>