<svg xmlns="http://www.w3.org/2000/svg" viewBox="0 0 64 64"><defs><linearGradient id="a" x1="7.937" x2="7.937" y1="15.081" y2="1.852" gradientTransform="translate(3.431 3.457)scale(3.3743)" gradientUnits="userSpaceOnUse"><stop offset="0" stop-color="#f1efeb"/><stop offset="1" stop-color="#fff"/></linearGradient></defs><path fill="#fa942a" d="M16.987 4A12.973 12.973 0 0 0 3.985 17.002V47a12.973 12.973 0 0 0 13.002 13.002h29.998A12.973 12.973 0 0 0 59.987 47V17.002A12.973 12.973 0 0 0 46.985 4z"/><rect width="49.997" height="49.997" x="7.003" y="7" fill="url(#a)" rx="10" ry="10"/><path fill="#fff" d="M17.004 7c-5.54 0-10 4.46-10 10v29.998c0 5.54 4.46 10 10 10h14.998V7z"/><circle cx="32.02" cy="32.044" r="30.001" fill="none"/><path fill="#f2f2f2" d="M46.999 7c5.54 0 10 4.46 10 10v29.998c0 5.54-4.46 10-10 10H32.001V7z"/><g stroke-width=".265" transform="scale(3.7796)"><rect width="4.498" height=".132" x="9.525" y="3.704" opacity=".1" rx="0" ry="0"/><rect width="4.498" height=".132" x="9.525" y="4.762" opacity=".1" rx="0" ry="0"/><rect width="4.498" height=".132" x="9.525" y="5.821" opacity=".1" rx="0" ry="0"/><rect width="4.498" height=".132" x="9.525" y="6.879" opacity=".1" rx="0" ry="0"/><rect width="4.498" height=".132" x="9.525" y="7.937" opacity=".1" rx="0" ry="0"/><rect width="4.498" height=".132" x="9.525" y="8.996" opacity=".1" rx="0" ry="0"/></g><path fill="#fa942a" d="M16 4.735h12V41l-6-5-6 5z"/><path d="M3.998 45.998v1c0 7.203 5.8 13.004 13.004 13.004h29.996c7.203 0 13.004-5.8 13.004-13.004v-1c0 7.203-5.8 13.002-13.004 13.002H17.002A12.975 12.975 0 0 1 3.998 45.998" opacity=".15"/><path fill="#fff" d="M3.998 18.004v-1C3.998 9.801 9.798 4 17.002 4h29.996c7.203 0 13.004 5.8 13.004 13.004v1c0-7.203-5.8-13.002-13.004-13.002H17.002A12.975 12.975 0 0 0 3.998 18.004" opacity=".15"/><circle cx="46.002" cy="47" r="16" fill="#333"/><circle cx="46.002" cy="46.002" r="16" fill="#4d4d4d"/><path fill="#fff" d="M46.002 30.002a16 16 0 0 0-16 16 16 16 0 0 0 .035.498A16 16 0 0 1 46.002 31a16 16 0 0 1 15.982 15.26l.018-.258a16 16 0 0 0-16-16" opacity=".1"/><path fill="#fff" d="M46.002 38.502c-2.326.023-4.668.554-6.694 1.702-.808.527-1.777 1.206-2.508 1.89-1.15 1.126-2.133 2.439-2.798 3.91 1.822 4.02 5.828 6.967 10.236 7.402 2.89.327 5.916-.172 8.457-1.603.808-.526 1.777-1.205 2.508-1.89 1.15-1.128 2.134-2.44 2.798-3.91-1.821-4.02-5.829-6.966-10.235-7.4a15 15 0 0 0-1.764-.102zm0 3c2.41-.053 4.545 2.104 4.5 4.502.077 2.65-2.563 4.937-5.174 4.442-2.636-.31-4.488-3.267-3.62-5.773.553-1.843 2.363-3.192 4.295-3.17zm0 3.001a1.5 1.5 0 0 0-1.5 1.503 1.5 1.5 0 0 0 1.5 1.5 1.5 1.5 0 0 0 1.5-1.5 1.5 1.5 0 0 0-1.5-1.5z"/></svg>