<svg xmlns="http://www.w3.org/2000/svg" xmlns:xlink="http://www.w3.org/1999/xlink" xml:space="preserve" width="64" height="64" image-rendering="optimizeSpeed"><defs><linearGradient id="b"><stop offset="0" stop-color="#1c65ba"/><stop offset="1" stop-color="#3390ff"/></linearGradient><linearGradient id="a"><stop offset="0" stop-color="#cbcbba"/><stop offset="1" stop-color="#f0f0eb"/></linearGradient><linearGradient id="c" x1="7.937" x2="7.937" y1="15.081" y2="1.852" gradientTransform="scale(3.7796)" gradientUnits="userSpaceOnUse"><stop offset="0" stop-color="#f1efeb"/><stop offset="1" stop-color="#fdfcfc"/></linearGradient><linearGradient id="j" x1="37.482" x2="51" y1="36.558" y2="36.558" gradientUnits="userSpaceOnUse"><stop offset="0" stop-color="#c1151b"/><stop offset="1" stop-color="#ff7072"/></linearGradient><linearGradient id="d" x1="26.52" x2="37.48" y1="34.192" y2="34.192" gradientUnits="userSpaceOnUse"><stop offset="0" stop-color="#e5e5e5"/><stop offset="1" stop-color="#fdfdfd"/></linearGradient><linearGradient xlink:href="#a" id="e" x1="26.52" x2="37.48" y1="20.037" y2="20.037" gradientUnits="userSpaceOnUse"/><linearGradient id="i" x1="13.001" x2="26.52" y1="34.193" y2="34.193" gradientUnits="userSpaceOnUse"><stop offset="0" stop-color="#ff9a1f"/><stop offset="1" stop-color="#ffcf99"/></linearGradient><linearGradient id="f" x1="13" x2="26.52" y1="20.29" y2="20.29" gradientUnits="userSpaceOnUse"><stop offset="0" stop-color="#c9c7c2"/><stop offset="1" stop-color="#fff"/></linearGradient><linearGradient id="k" x1="17.385" x2="22.135" y1="13.731" y2="13.731" gradientUnits="userSpaceOnUse"><stop offset="0" stop-color="#2ddc6c"/><stop offset="1" stop-color="#96eeb5"/></linearGradient><linearGradient xlink:href="#b" id="g" x1="28.346" x2="35.654" y1="16.461" y2="16.461" gradientUnits="userSpaceOnUse"/><linearGradient xlink:href="#b" id="h" x1="26.52" x2="37.48" y1="33.461" y2="33.461" gradientUnits="userSpaceOnUse"/><linearGradient xlink:href="#a" id="l" x1="40.404" x2="48.078" y1="20.115" y2="20.115" gradientUnits="userSpaceOnUse"/></defs><rect width="56.002" height="56.002" x="4" y="3.969" fill="url(#c)" rx="13.002" ry="13.002"/><g stroke-width="1.188"><path fill="url(#d)" d="M28.546 17.385s-2.026 4.972-2.026 5.303v28.31h10.961v-28.31l-1.826-5.303z"/><path fill="url(#e)" d="M28.346 17.385s-1.826 4.972-1.826 5.302h10.96c0-.178-1.826-5.302-1.826-5.302z"/><path fill="url(#f)" d="M13 26.116c.182.005 13.52 0 13.52 0 0-4.684-4.327-8.73-4.384-11.654h-4.75c0 2.924-4.387 6.97-4.386 11.654"/><path fill="url(#g)" d="M28.346 15.536v1.849h7.308v-1.849z"/></g><path fill="url(#h)" d="M32 29.091c-2.74 0-2.74 3.456-2.74 3.456h-2.74v5.285h10.96v-5.285h-2.739s0-3.456-2.74-3.456zm0 .73s1.993 2.431 1.264 3.633-1.8 1.202-2.529 0S32 29.82 32 29.82z"/><g stroke-width="1.188"><path fill="url(#i)" d="m16.437 17.385-.004.004c-1.29 2.486-3.434 5.45-3.431 8.724v21.963a3.5 3.5 0 0 0 .053.592 3 3 0 0 0 .158.548 3 3 0 0 0 .58.93 3 3 0 0 0 .625.502q.116.067.238.124.123.053.25.096l.129.04a2 2 0 0 0 .4.076 2 2 0 0 0 .279.016H26.52V26.114c0-3.275-2.116-6.238-3.408-8.725l-.004-.003z"/><path fill="url(#j)" d="M40.404 22.115c-1.554.76-2.922 2.452-2.922 4.212V51h10.524c1.66-.007 2.995-1.375 2.995-3.073V26.326c0-1.764-1.364-3.453-2.924-4.211z"/><path fill="url(#k)" d="M17.385 13h4.75v1.462h-4.75z"/></g><g stroke-width="1.188"><path fill="#67656c" d="M40.404 21.384h7.674v.743h-7.674z"/><path fill="url(#l)" d="M40.404 18.846h7.674v2.538h-7.674z"/><path fill="#fff" d="M46.616 44.967H51v1.648h-4.384z" opacity=".5"/><path fill="#33d17a" fill-opacity=".855" d="M19.76 28.346a3.654 3.654 0 1 0 0 7.308 3.654 3.654 0 0 0 0-7.308"/></g></svg>