<svg xmlns="http://www.w3.org/2000/svg" viewBox="0 0 64 64"><defs><radialGradient id="b" cx="105.224" cy="148.63" r="160" gradientTransform="matrix(-.34149 -.18581 -.02812 .28036 -28.234 62.479)" gradientUnits="userSpaceOnUse"><stop offset="0" stop-color="#e0371b"/><stop offset="1" stop-color="#f6d32d"/></radialGradient></defs><rect width="56.002" height="56.002" x="4" y="3.969" fill="url(#a)" rx="13.002" ry="13.002" style="display:inline;fill:#a7a7a7;fill-opacity:1"/><path d="M4 42.855v4.114A12.973 12.973 0 0 0 17.002 59.97H47a12.973 12.973 0 0 0 13.002-13.002v-4.114A12.973 12.973 0 0 1 47 55.857H17.002A12.973 12.973 0 0 1 4 42.855" style="display:inline;fill:#7c7c7c;fill-opacity:1"/><g style="display:inline"><path fill="url(#m)" d="M-111.871 30.504h88v46h-88zm0 0" style="fill:#dfdedb;fill-opacity:1" transform="matrix(.57373 0 0 .5919 70.487 10.008)"/><path fill-opacity=".137" d="m-23.871 72.504-.137 4h-87.742l-.121-4zm0 0" style="display:inline" transform="matrix(.57373 0 0 .5919 70.487 10.008)"/><path fill="#f6f5f4" fill-opacity=".598" d="M-24.18 73.473h-71.76L-24.7 74.5s.52-.773.52-1.027m0 0" style="display:inline" transform="matrix(.57373 0 0 .5919 70.487 10.008)"/><path fill-opacity=".171" d="M-25.098 74.992h-72.605l71.266 1.024c.554-.29 1.132-.63 1.34-1.024m0 0" style="display:inline" transform="matrix(.57373 0 0 .5919 70.487 10.008)"/><path fill="#f6f5f4" d="m-102.094 33.973 52.239-42.254c2.41-1.953 5.898-1.614 7.812.758l21.664 26.777-3.348 29.25-40.265 32.57c-2.414 1.953-5.899 1.613-7.817-.754l-31.18-38.547c-1.913-2.37-1.519-5.847.895-7.8m0 0" style="display:inline" transform="matrix(.57373 0 0 .5919 70.487 10.008)"/><path fill="url(#b)" d="m-98.602 38.289 31.149 38.508 40.266-32.57-6-7.422c-1.918-2.371-1.52-5.852.89-7.801l7.617-6.16L-46.363-3.97zm0 0" style="display:inline;fill:url(#b)" transform="matrix(.57373 0 0 .5919 70.487 10.008)"/></g><rect width="56.002" height="43" x="4" y="3.969" fill="url(#a)" rx="13.002" ry="13.002" style="display:inline;fill:#a7a7a7;fill-opacity:1"/><path d="M4 33.967v4.113a12.973 12.973 0 0 0 13.002 13.002H47A12.973 12.973 0 0 0 60.002 38.08v-4.113A12.973 12.973 0 0 1 47 46.969H17.002A12.973 12.973 0 0 1 4 33.967" style="display:inline;fill:#7c7c7c;fill-opacity:1"/><g style="fill:#cfcfcf;fill-opacity:1"><path d="M28.17 16.302 46.7 2.567m-1.067-1.438-18.53 13.734a1.79 1.79 0 0 0-.373 2.506 1.79 1.79 0 0 0 2.506.373L47.768 4.008a1.79 1.79 0 0 0 .37-2.508 1.79 1.79 0 0 0-2.505-.371" style="color:#000;fill:#cfcfcf;stroke-linecap:round;-inkscape-stroke:none;fill-opacity:1"/></g><path d="M34.211 19.787s-.72 1.948-2.616 2.14c-1.897.191-2.712-1.074-2.712-1.074l-.532 1.066s1.115 1.482 3.244 1.358c2.128-.124 3.083-2.403 3.148-2.424zm0 0" style="display:inline;stroke-width:.44796"/><path d="M34.211 21.919s-.768 1.948-2.663 2.14c-1.897.19-2.665-1.074-2.665-1.074l-.532 1.065s1.067 1.482 3.197 1.358c2.128-.124 3.13-2.404 3.195-2.423zm0-4.263s-.72 1.948-2.616 2.14c-1.897.19-2.712-1.074-2.712-1.074l-.532 1.066s1.115 1.482 3.244 1.357c2.128-.122 3.083-2.402 3.148-2.423zm0 0" style="display:inline;stroke-width:.44796"/><path fill="url(#r)" d="M31.548 16.755a8.07 8.07 0 0 0-8.069 8.068v2.522a8.068 8.068 0 0 0 16.136 0v-2.522a8.07 8.07 0 0 0-8.067-8.068m0 0" style="fill:gray;fill-opacity:1;stroke-width:.44796"/><path fill="#deddda" d="M31.548 16.88a7.704 7.704 0 1 0 0 15.407 7.704 7.704 0 0 0 0-15.408m0 0"/><path fill="url(#s)" d="m28.883 14.46-.532 1.065.532 1.066-.532 1.065.532 1.066-.532 1.065.532 1.066-.532 1.066.532 1.066-.532 1.065v.532a3.195 3.195 0 0 0 4.795 2.768 3.2 3.2 0 0 0 1.597-2.768v-1.597l-.532-1.067.532-1.065-.532-1.066.532-1.065-.532-1.066.532-1.066-.532-1.065.532-1.066-.532-1.066zm0 0" style="fill:#b8b8b8;stroke-width:.44796;fill-opacity:1"/><path fill="#fff" fill-opacity=".382" d="M34.212 15.525s-.721 1.947-2.616 2.14c-1.897.192-2.713-1.075-2.713-1.075l-.532 1.066s1.115 1.482 3.245 1.36c2.127-.124 3.083-2.405 3.147-2.426zm0 0"/><path fill="#241f31" fill-opacity=".339" d="M34.743 16.59c-.065.021-1.02 2.302-3.148 2.426-2.13.122-3.244-1.36-3.244-1.36l.532 1.066s.815 1.265 2.712 1.074c1.895-.192 2.616-2.14 2.616-2.14l.023.046zm0 0" style="display:inline;stroke-width:.44796"/><path fill="#241f31" fill-opacity=".339" d="M34.743 20.853c-.064.021-1.02 2.301-3.147 2.424-2.13.124-3.245-1.358-3.245-1.358l.532 1.065s.816 1.266 2.713 1.073c1.895-.19 2.616-2.138 2.616-2.138l.022.045zm0 0"/><path fill="#241f31" fill-opacity=".339" d="M34.743 18.722c-.064.02-1.02 2.3-3.147 2.423-2.13.125-3.245-1.358-3.245-1.358l.532 1.066s.816 1.265 2.713 1.073c1.895-.191 2.616-2.139 2.616-2.139l.022.046zm0 0"/><g style="fill:#bdbdbd;fill-opacity:1"><path d="M34.213 16.192 16.46 2.485m1.095-1.419a1.79 1.79 0 0 0-2.514.325 1.79 1.79 0 0 0 .324 2.513L33.12 17.61a1.79 1.79 0 0 0 2.512-.322 1.79 1.79 0 0 0-.322-2.514z" style="color:#000;fill:#bdbdbd;stroke-linecap:round;-inkscape-stroke:none;fill-opacity:1"/></g><path fill="url(#u)" d="M37.94 14.993a6.393 6.393 0 1 0-12.786 0 6.393 6.393 0 0 0 12.786 0m0 0" style="fill:#8e8d91;stroke-width:.44796;fill-opacity:1"/><path fill="url(#w)" d="M31.548 5.402a6.394 6.394 0 1 0 0 12.787 6.394 6.394 0 0 0 0-12.787m0 0" style="fill:#c5c5c5;stroke-width:.44796;fill-opacity:1"/><path fill="#77767b" d="M25.165 14.676q-.008.157-.01.317a6.393 6.393 0 0 0 6.393 6.392 6.39 6.39 0 0 0 6.392-6.392 4 4 0 0 0-.01-.217 6.39 6.39 0 0 1-6.382 6.077 6.396 6.396 0 0 1-6.383-6.177m0 0"/><path fill="#c0bfbc" d="M31.548 5.402a5.526 5.526 0 1 0 0 11.053 5.526 5.526 0 0 0 0-11.053m0 0" style="fill:#7f7f7f;stroke-width:.44796;fill-opacity:1"/><g style="fill:#bdbdbd;fill-opacity:1"><path d="m46.636 25.476-9.479-7.438m-.214-1.778a1.8 1.8 0 0 0-1.195.672 1.79 1.79 0 0 0 .303 2.515l9.478 7.44a1.79 1.79 0 0 0 2.516-.305 1.79 1.79 0 0 0-.303-2.516l-9.478-7.437a1.8 1.8 0 0 0-1.32-.37" style="color:#000;fill:#bdbdbd;stroke-linecap:round;-inkscape-stroke:none;fill-opacity:1"/></g><g style="fill:#cfcfcf;fill-opacity:1"><path d="m16.395 25.684 9.52-7.385m.224-1.778a1.8 1.8 0 0 0-1.323.362l-9.52 7.387a1.79 1.79 0 0 0-.317 2.513 1.79 1.79 0 0 0 2.515.317l9.518-7.385a1.79 1.79 0 0 0 .318-2.514 1.8 1.8 0 0 0-1.191-.68" style="color:#000;fill:#cfcfcf;stroke-linecap:round;-inkscape-stroke:none;fill-opacity:1"/></g><path fill="url(#A)" d="M14.602 25.823a1.653 1.653 0 0 0 1.656 1.653c.521 0 1.01-.665 1.01-1.254a1.657 1.657 0 0 0-1.656-1.656c-.504 0-1.01.525-1.01 1.257m0 0" style="fill:#b5b5b5;stroke-width:.44796;fill-opacity:1"/><path fill="#9c98a2" d="M48.417 25.543c0 1-.812 1.81-1.811 1.81-.573 0-1.106-.725-1.106-1.373 0-1 .812-1.811 1.81-1.811.552 0 1.107.574 1.107 1.374m0 0"/><path fill="url(#B)" d="M48.416 25.784a1.57 1.57 0 0 1-1.569 1.57c-.495 0-.959-.63-.959-1.19a1.57 1.57 0 0 1 1.571-1.57c.478 0 .957.497.957 1.19m0 0" style="fill:#7c7c7c;stroke-width:.44796;fill-opacity:1"/></svg>