<svg xmlns="http://www.w3.org/2000/svg" width="64" height="64" image-rendering="optimizeSpeed"><defs><linearGradient id="a" x1="7.937" x2="7.937" y1="15.081" y2="1.852" gradientTransform="scale(3.7796)" gradientUnits="userSpaceOnUse"><stop offset="0" stop-color="#343434"/><stop offset="1" stop-color="#767676"/></linearGradient><linearGradient id="b" x2="1" gradientTransform="rotate(-72.587 32.446 .381)scale(1.01656)" gradientUnits="userSpaceOnUse"><stop offset="0" stop-color="#ff8000"/><stop offset="1" stop-color="#fec919"/></linearGradient><linearGradient id="d" x2="1" gradientTransform="rotate(-86.885 52.663 17.175)scale(8.7437)" gradientUnits="userSpaceOnUse"><stop offset="0"/><stop offset="1" stop-opacity="0"/></linearGradient><linearGradient id="e" x2="1" gradientTransform="rotate(-90 25.66 -6.867)scale(8.0754)" gradientUnits="userSpaceOnUse"><stop offset="0" stop-color="#ff8000"/><stop offset="1" stop-color="#fec919"/></linearGradient><linearGradient id="f" x2="1" gradientTransform="rotate(56.438 5.23 21.734)scale(63.348)" gradientUnits="userSpaceOnUse"><stop offset="0" stop-color="#ff8000"/><stop offset="1" stop-color="#fec919"/></linearGradient><linearGradient id="g" x2="1" gradientTransform="rotate(90 8.986 23.326)scale(6.5715)" gradientUnits="userSpaceOnUse"><stop offset="0" stop-opacity=".25"/><stop offset="1" stop-opacity="0"/></linearGradient><linearGradient id="h" x2="1" gradientTransform="rotate(54.174 -16.144 53.781)scale(6.1731)" gradientUnits="userSpaceOnUse"><stop offset="0" stop-opacity=".25"/><stop offset="1" stop-opacity="0"/></linearGradient><linearGradient id="i" x2="1" gradientTransform="rotate(-90 32.84 0)scale(1.7747)" gradientUnits="userSpaceOnUse"><stop offset="0" stop-opacity=".25"/><stop offset="1" stop-opacity="0"/></linearGradient><linearGradient id="j" x2="1" gradientTransform="rotate(-42.942 70.425 6.697)scale(30.341)" gradientUnits="userSpaceOnUse"><stop offset="0" stop-color="#ff8000"/><stop offset="1" stop-color="#fec919"/></linearGradient><clipPath id="c"><path d="M31.195 60.829c0-.83 1.377-1.503 3.109-1.503q.135 0 .268.005c.071.003 2.369 0 2.369 0L32.805 70.5l-4.628-1.812s3.018-7.029 3.018-7.859"/></clipPath></defs><rect width="56.002" height="56.002" x="4" y="3.969" fill="url(#a)" rx="13.002" ry="13.002"/><g fill-rule="evenodd" stroke-linejoin="round" stroke-miterlimit="1.414" clip-rule="evenodd"><path fill="url(#b)" d="M21.948 31.028c0-.254.422-.46.953-.46h.082c.022.002.726 0 .726 0l-1.268 3.423-1.418-.555s.925-2.154.925-2.408"/><g clip-path="url(#c)" transform="translate(12.389 12.389)scale(.30642)"><path fill="url(#d)" d="M24.718 55.601h15.868V72.95H24.718z"/></g><g stroke-width=".306"><path fill="url(#e)" d="M35.062 13.308h-5.007l2.471 3.781z"/><path fill="url(#f)" d="M29.851 13.52c.047-.127.13-.212.226-.212.07 0 .135.047.182.124l2.145 3.325c.054.085.198.094.264 0l2.19-3.325c.048-.077.112-.124.183-.124.096 0 .179.085.226.212l-.001-.003 14.387 35.77c.078.176.047.23-.157.096L28.337 36.595 15.361 49.54z"/><path fill="url(#g)" d="M30.076 13.309c-.095 0-.178.084-.225.21-.002.01-2.217 5.514-3.502 8.706h12.418l-3.502-8.705v-.002c-.046-.126-.13-.209-.224-.209-.071 0-.136.046-.184.123l-2.19 3.324c-.065.095-.21.086-.263.002l-2.144-3.326c-.048-.077-.113-.123-.184-.123"/><path fill="url(#h)" d="m42.705 32.018-18.996.262 5.725 4.978 8.927 5.397 6.7-4.783z"/><path fill="url(#i)" d="m44.489 29.109-21.808.021-1.916 4.93 21.903-1.044z"/><path fill="#fff" fill-opacity=".2" d="m23.434 37.254 8.359-22.039 1.423-.003L44.13 42.909l-14.409-9.06z"/><path fill="url(#j)" d="M22.9 31.489h22.541c.149 0 .14.049-.002.14L14.493 50.631q-.28.17-.136-.14l7.591-19.494s-.07.447.953.492z"/></g><path fill="#fff" d="M21.384 32.472c.027.386.404.506.794.511l18.836-.17-25.653 15.11zm12.642-19.164-1.5 2.336-1.429-2.336z" opacity=".35"/></g></svg>