<svg xmlns="http://www.w3.org/2000/svg" xml:space="preserve" viewBox="0 0 64 64"><defs><linearGradient id="a" x1="7.937" x2="7.937" y1="15.081" y2="1.852" gradientTransform="scale(3.7796)" gradientUnits="userSpaceOnUse"><stop offset="0" stop-color="#363636" style="stop-color:#6b6110;stop-opacity:1"/><stop offset="1" stop-color="#6c6c6c" style="stop-color:#360026;stop-opacity:1"/></linearGradient></defs><rect width="56.002" height="56.002" x="4" y="3.969" fill="url(#a)" rx="13.002" ry="13.002" style="fill:#4c271d;fill-opacity:1"/><g transform="translate(5.068 6.597)scale(.83664)"><circle cx="32.779" cy="30.011" r="11.238" fill="none" style="fill:#fff;fill-opacity:0;stroke:#e1c525;stroke-width:3.336;stroke-miterlimit:4;stroke-dasharray:none;stroke-opacity:1"/><path d="M32.404 3.04q-.713.014-1.449.083c-12.682 1.192-17.491 7.205-18.629 8.934L6.82 8.08 5.33 22.637 3.838 37.193l13.353-5.988 13.352-5.986-8.533-6.166c.158-2.087 1.53-11.063 13.52-10.746 11.996.316 19.26 10.683 19.26 10.683S47.163 2.714 32.404 3.04" style="fill:#a200e5;fill-opacity:1;stroke:none;stroke-width:.96277px;stroke-linecap:butt;stroke-linejoin:miter;stroke-opacity:1"/><path d="m60.545 24.014-13.211 6.29-13.211 6.292 6.982 4.806c-.052 1.32-.862 11.278-13.533 10.944-11.997-.317-19.26-10.684-19.26-10.684s8.127 17.345 23.836 15.87c14.166-1.332 18.502-8.645 18.868-9.307l7.214 4.964 1.159-14.587z" style="fill:#ff2408;fill-opacity:1;stroke:none;stroke-width:.96277px;stroke-linecap:butt;stroke-linejoin:miter;stroke-opacity:1"/></g><path d="M3.998 45.998v1c0 7.203 5.8 13.004 13.004 13.004h29.996c7.203 0 13.004-5.8 13.004-13.004v-1c0 7.203-5.8 13.002-13.004 13.002H17.002A12.975 12.975 0 0 1 3.998 45.998" opacity=".15" style="opacity:.35"/><path fill="#fff" d="M3.998 18.004v-1C3.998 9.801 9.798 4 17.002 4h29.996c7.203 0 13.004 5.8 13.004 13.004v1c0-7.203-5.8-13.002-13.004-13.002H17.002A12.975 12.975 0 0 0 3.998 18.004" opacity=".15"/></svg>