<svg xmlns="http://www.w3.org/2000/svg" viewBox="0 0 64 64"><rect width="56.002" height="56.002" x="4" y="3.969" fill="#f2f2f2" rx="13.002" ry="13.002"/><path d="M3.998 45.998v1c0 7.203 5.8 13.004 13.004 13.004h29.996c7.203 0 13.004-5.8 13.004-13.004v-1c0 7.203-5.8 13.002-13.004 13.002H17.002A12.975 12.975 0 0 1 3.998 45.998" opacity=".1"/><path fill="#fff" d="M3.998 18.004v-1C3.998 9.801 9.798 4 17.002 4h29.996c7.203 0 13.004 5.8 13.004 13.004v1c0-7.203-5.8-13.002-13.004-13.002H17.002A12.975 12.975 0 0 0 3.998 18.004" opacity=".5"/><path fill="#84d993" d="M35.555 18.835 15.738 36.617a3.3 3.3 0 0 0-.91 3.565c.885.333 3.613 1.243 9.152 2.896 6.449 0 12.03-.247 12.07-.248l4.3-14.964z"/><path fill="#50bf94" d="m37.126 23.733-1.57 1.374v16.814c1.415-.038 2.49-.394 3.935-.827 8.548-2.563 6.895-16.535 6.895-16.535l1.322-1.291v-4.961h-3.307c-1.984-.692-3.72-1.52-5.534-2.444l-3.312 2.971v3.793z"/><path fill="#fdf3d3" d="m44.402 31.638-2.811 6.728 4.164-.067a12.3 12.3 0 0 0 1.954-6.66v-8.372h-3.307zm-9.095 9.094h-7.44c0 1.437 2.562 3.304 7.688 3.304h.008a12.3 12.3 0 0 0 3.928-.728l2.844-2.297-2.844-1.3a9 9 0 0 1-4.184 1.021"/><path fill="#b9f291" d="M48.535 46.52h-1.11l-1.67-8.22-1.354-6.661a2.48 2.48 0 0 0-4.91.494V46.52s2.182 1.024 5.863 2.48h5.661a2.48 2.48 0 0 0-2.48-2.48"/><path fill="#50bf94" d="M42.874 46.52h-14.18c.413.858 1.048 1.628 1.9 2.48h14.76a2.48 2.48 0 0 0-2.48-2.48"/><path fill="#b9f291" d="M35.555 44.04a4.94 4.94 0 0 0-1.264-3.307 4.95 4.95 0 0 0-3.696-1.654h-12.65a4.94 4.94 0 0 0-3.508 1.453 4.95 4.95 0 0 0-1.452 3.508l10.913 3.751z"/><path fill="#84d993" d="M34.89 46.52c.422-.73.665-1.576.665-2.48h-22.57a4.96 4.96 0 0 0 4.96 4.96h12.65a4.96 4.96 0 0 0 4.295-2.48"/><path fill="#b9f291" d="M35.555 22.626h2.48v2.48h-2.48zm-10.593 8.185h2.48v2.48h-2.48zm3.308 3.308h2.48v2.48h-2.48z"/><path fill="#aa3e51" d="M41.095 21.614a3.307 3.307 0 0 0 0-6.614l-2.15 3.607z"/><path fill="#f72349" d="M37.787 18.307a3.307 3.307 0 0 0 3.307 3.307V15c-.848 0-1.622.32-2.207.845l-.009.008-.011.01a3.3 3.3 0 0 0-1.08 2.444"/></svg>