<svg xmlns="http://www.w3.org/2000/svg" width="64" height="64" viewBox="0 0 16.933 16.933"><defs><linearGradient id="a" x1="8.466" x2="8.466" y1="1.05" y2="15.867" gradientUnits="userSpaceOnUse"><stop offset="0" stop-color="#18d5fe"/><stop offset="1" stop-color="#0f9dd9"/></linearGradient><filter id="b" width="1.177" height="1.131" x="-.088" y="-.066" color-interpolation-filters="sRGB"><feGaussianBlur stdDeviation=".359"/></filter></defs><rect width="14.817" height="14.817" x="1.058" y="1.05" fill="url(#a)" rx="3.44" ry="3.44"/><path d="M7.95 15.037c-1.095-.886-2.494-2.06-2.556-2.148-.1-.141-1.841-8.272-1.804-8.422a.44.44 0 0 1 .115-.187c.12-.107 4.621-2.09 4.748-2.092.13-.001 4.66 1.994 4.779 2.105.049.046.099.13.111.188.013.06-.096.676-.257 1.451l-.834 4.043a163 163 0 0 1-.596 2.822c-.032.1-.336.364-1.455 1.264a428 428 0 0 0-1.48 1.195.5.5 0 0 1-.222.078c-.146.02-.177.003-.548-.297zm.758-.83c.118-.082.215-.176.216-.21 0-.033-.034-.31-.077-.614a19 19 0 0 1-.08-.597c0-.023-.07-.098-.154-.166l-.154-.124-.298.257-.073.534c-.106.786-.11.754.134.921.114.078.222.143.24.145.017.001.128-.065.246-.146m-1.25-1.457c.617-.104.625-.108.802-.408.065-.11.064-.115-.08-.306l-.147-.193-.614-.109c-.338-.06-.642-.11-.676-.111-.038-.002-.127.12-.23.313l-.169.317.171.315c.153.282.181.313.27.297l.674-.115zm2.96-.196.172-.31-.165-.302c-.09-.166-.17-.309-.176-.317-.011-.013-1.188.179-1.324.216-.032.01-.12.104-.192.212l-.133.195.13.192c.07.105.133.197.138.203.014.019 1.3.238 1.343.229.02-.004.114-.147.208-.318zm-1.779-.691.13-.112.257-2.612.328-3.34.072-.729-.322-.56c-.59-1.025-.662-1.142-.692-1.108-.016.018-.24.4-.496.846l-.467.813.126 1.208.355 3.347.23 2.138.133.111a.5.5 0 0 0 .175.11c.023 0 .1-.051.171-.112" filter="url(#b)" opacity=".15"/><path fill="#fff" d="M7.95 14.739c-1.095-.886-2.494-2.06-2.556-2.148-.1-.141-1.841-8.272-1.804-8.422a.44.44 0 0 1 .115-.187c.12-.107 4.621-2.09 4.748-2.092.13-.001 4.66 1.994 4.779 2.105.049.046.099.13.111.188.013.06-.096.676-.257 1.451l-.834 4.043a163 163 0 0 1-.596 2.822c-.032.1-.336.364-1.455 1.264a428 428 0 0 0-1.48 1.195.5.5 0 0 1-.222.078c-.146.02-.177.003-.548-.297zm.758-.83c.118-.082.215-.176.216-.21 0-.033-.034-.31-.077-.614a19 19 0 0 1-.08-.597c0-.023-.07-.098-.154-.166l-.154-.124-.298.257-.073.534c-.106.786-.11.754.134.921.114.078.222.143.24.145.018.001.128-.065.246-.146m-1.25-1.457c.617-.104.625-.108.802-.408.065-.11.064-.115-.08-.306l-.147-.193-.614-.109c-.338-.06-.642-.11-.676-.111-.038-.002-.127.12-.23.313l-.169.317.171.315c.153.282.181.313.27.297l.674-.115zm2.96-.196.172-.31-.165-.302c-.09-.166-.17-.309-.176-.317-.011-.013-1.188.179-1.324.216-.033.01-.12.104-.192.212l-.133.195.13.192c.07.105.133.197.138.203.014.019 1.3.238 1.343.229.02-.004.114-.147.208-.318zm-1.779-.691.13-.112.257-2.612.328-3.34.072-.729-.322-.56c-.59-1.025-.662-1.142-.692-1.108-.016.018-.24.4-.496.846l-.467.813.126 1.208.355 3.347.23 2.138.133.111a.5.5 0 0 0 .175.11c.023 0 .1-.051.171-.112"/></svg>