<svg xmlns="http://www.w3.org/2000/svg" viewBox="0 0 64 64"><defs><linearGradient id="a" x1="15.875" x2="1.058" y1="8.458" y2="8.458" gradientTransform="translate(0 .032)scale(3.7795)" gradientUnits="userSpaceOnUse"><stop offset="0" stop-color="#1fe0aa" style="stop-color:#145732;stop-opacity:1"/><stop offset=".497" stop-color="#1fe0aa" style="stop-color:#411c4a;stop-opacity:1"/><stop offset="1" stop-color="#b2ff85" style="stop-color:#103b70;stop-opacity:1"/></linearGradient></defs><rect width="56" height="56" x="4" y="4" fill="url(#a)" rx="13.002" ry="13.002" style="fill:#3e1e4c;fill-opacity:1"/><path d="m5.422 21.953 65.246-17.48a7.503 7.503 0 0 1 9.191 5.304l22.34 83.371a7.51 7.51 0 0 1-5.308 9.192l-65.246 17.48a7.503 7.503 0 0 1-9.192-5.304L.113 31.145a7.51 7.51 0 0 1 5.309-9.192m0 0" style="fill:#3382e3;fill-opacity:1;fill-rule:nonzero;stroke:none" transform="translate(7.076 7.075)scale(.38943)"/><path d="m24.191 97.219 3.133 11.691 60.317-16.16-1.254-4.676 7.539-2.023-1.88-7.012Zm0 0" style="fill:#143359;fill-opacity:1;fill-rule:nonzero;stroke:none" transform="translate(7.076 7.075)scale(.38943)"/><path d="m23.945 96.313 3.133 11.69 60.317-16.16-1.25-4.675 7.539-2.023-1.88-7.012zm0 0" style="fill:#235c9e;fill-opacity:1;fill-rule:nonzero;stroke:none" transform="translate(7.076 7.075)scale(.38943)"/><path d="m6.406 30.848 1.254 4.675 37.695-10.101-1.253-4.676zm0 0" style="fill:#235c9e;fill-opacity:1;fill-rule:evenodd;stroke:none" transform="translate(7.076 7.075)scale(.38943)"/><path d="m15.805 65.918 33.925-9.09 5.641 21.043-15.082 4.04 1.254 4.675-18.848 5.05zm28.914-27.797 3.758 14.031-33.926 9.09L8.91 40.2l67.855-18.183 1.882 7.015Zm0 0" style="fill:#235c9e;fill-opacity:1;fill-rule:nonzero;stroke:none" transform="translate(7.076 7.075)scale(.38943)"/><path d="M30.336 9.367h67.547a7.504 7.504 0 0 1 7.504 7.504v86.313a7.504 7.504 0 0 1-7.504 7.503H30.336a7.507 7.507 0 0 1-7.508-7.503V16.87a7.507 7.507 0 0 1 7.508-7.504m0 0" style="fill:#a145b8;fill-opacity:1;fill-rule:nonzero;stroke:none" transform="translate(7.076 7.075)scale(.38943)"/><path d="M28.984 86.926v12.101H91.43v-4.84h7.804v-7.261zm0 0" style="fill:#3f194a;fill-opacity:1;fill-rule:nonzero;stroke:none" transform="translate(7.076 7.075)scale(.38943)"/><path d="M28.984 85.988V98.09H91.43v-4.84h7.804v-7.262zm0 0" style="fill:#70307f;fill-opacity:1;fill-rule:nonzero;stroke:none" transform="translate(7.076 7.075)scale(.38943)"/><path d="M28.984 18.21v4.845h39.028V18.21zm0 0" style="fill:#70307f;fill-opacity:1;fill-rule:evenodd;stroke:none" transform="translate(7.076 7.075)scale(.38943)"/><path d="M28.984 54.52H64.11v21.785H48.496v4.843H28.984ZM64.11 35.156V49.68H28.984V27.895h70.25v7.261zm0 0" style="fill:#70307f;fill-opacity:1;fill-rule:nonzero;stroke:none" transform="translate(7.076 7.075)scale(.38943)"/><path d="m57.336 4.473 65.242 17.48c4.004 1.074 6.383 5.188 5.309 9.192l-22.34 83.37a7.5 7.5 0 0 1-9.192 5.305L31.11 102.34a7.503 7.503 0 0 1-5.304-9.192L48.14 9.778a7.507 7.507 0 0 1 9.195-5.305m0 0" style="fill:#33cf78;fill-opacity:1;fill-rule:nonzero;stroke:none" transform="translate(7.076 7.075)scale(.38943)"/><path d="M36.2 78.133 33.065 89.82l60.317 16.164 1.254-4.675 7.539 2.02 1.879-7.016zm0 0" style="fill:#219154;fill-opacity:1;fill-rule:nonzero;stroke:none" transform="translate(7.076 7.075)scale(.38943)"/><path d="m53.738 12.664-1.25 4.676 37.696 10.1 1.254-4.675zm0 0" style="fill:#219154;fill-opacity:1;fill-rule:evenodd;stroke:none" transform="translate(7.076 7.075)scale(.38943)"/><path d="m44.344 47.738 33.926 9.09-5.637 21.043-15.078-4.043-1.254 4.68-18.848-5.051zm38.937-9.617-3.758 14.031-33.93-9.093 5.641-21.043 67.856 18.183-1.88 7.016zm0 0" style="fill:#219154;fill-opacity:1;fill-rule:nonzero;stroke:none" transform="translate(7.076 7.075)scale(.38943)"/><path d="m85.5 43.59 30.492 8.168-9.433 35.203-30.493-8.172zm0 0" style="fill:#219154;fill-opacity:1;fill-rule:nonzero;stroke:none" transform="translate(7.076 7.075)scale(.38943)"/><path d="m106.793 74.988-3.715-5.27a.826.826 0 0 0-1.473.262l-.64 2.395-1.336-.36c-1.106-.296-2.285-1.535-2.621-2.628l-2.633-9.239a6.56 6.56 0 0 0-4.605-4.445l-4.524-1.215-.851 3.192 4.523 1.21a3.29 3.29 0 0 1 2.3 2.223l3.044 9.778c.672 2.191 1.547 3.52 4.511 4.312l1.336.36-.64 2.39a.828.828 0 0 0 1.144.965l5.852-2.707a.827.827 0 0 0 .328-1.223m0 0" style="fill:#33cf78;fill-opacity:1;fill-rule:nonzero;stroke:none" transform="translate(7.076 7.075)scale(.38943)"/><path d="m110.21 62.23-3.714-5.265a.83.83 0 0 0-.82-.336.81.81 0 0 0-.653.598l-.64 2.39-1.383-.414c-2.195-.66-4.488.043-6.164 1.606l-.414.382 1.074 3.516 1.774-1.644c.84-.782 1.816-.91 2.921-.614l1.336.356-.64 2.394a.824.824 0 0 0 1.144.961l5.852-2.703a.82.82 0 0 0 .449-.535.84.84 0 0 0-.121-.692M91.05 66.203l-1.59 1.48c-.839.782-2.28 1.09-3.382.774l-4.25-1.21-.855 3.187 4.332 1.105c2.222.563 4.73.121 6.406-1.441l.41-.383zm0 0" style="fill:#33cf78;fill-opacity:1;fill-rule:nonzero;stroke:none" transform="translate(7.076 7.075)scale(.38943)"/><path d="M3.998 45.998v1c0 7.203 5.8 13.004 13.004 13.004h29.996c7.203 0 13.004-5.8 13.004-13.004v-1c0 7.203-5.8 13.002-13.004 13.002H17.002A12.975 12.975 0 0 1 3.998 45.998" opacity=".35"/><path fill="#fff" d="M3.998 18.004v-1C3.998 9.801 9.798 4 17.002 4h29.996c7.203 0 13.004 5.8 13.004 13.004v1c0-7.203-5.8-13.002-13.004-13.002H17.002A12.975 12.975 0 0 0 3.998 18.004" opacity=".15"/></svg>