<svg xmlns="http://www.w3.org/2000/svg" viewBox="0 0 64 64"><rect width="56.002" height="56.002" x="4" y="3.969" fill="#185564" rx="13.002" ry="13.002"/><path fill="#fbfcfc" d="M18.889 13.447v.836h2.58v-.836zm2.95 0v.836h2.394v-.836zm2.779 0v.836h2.138v-.836zm2.49 0v.836h.92v-.836zm1.289 0v.836h2.064v-.836zm2.469 0v.836h5.418v-.836zm5.787 0v.836h4.127v-.836zm4.496 0v.836H42.4v-.836zM18.89 15.994v.838h4v-.838zm4.465 0v.838h1.91v-.838zm2.263 0v.838h.944v-.838zm1.328 0v.838h1.76v-.838zm2.13 0v.838h1.804v-.838zm2.146 0v.838h2.834v-.838zm3.203 0v.838h3.74v-.838zM18.89 18.53v.836h3.385v-.836zm3.74 0v.836h5.576v-.836zm5.918 0v.836h2.705v-.836zm3.05 0v.836h2.53v-.836zm2.894 0v.836h2.154v-.836zm2.503 0-.005.836 3.39.023.006-.836zm-18.104 2.56v.836h4.707v-.836zm5.077 0v.836h5.088v-.836zm5.44 0v.836h2v-.836zm2.366 0v.836h4.758v-.836zm5.078 0v.836h3.262v-.836zm3.631 0v.836h1.291v-.836zm1.66 0v.836h.713v-.836zm-23.251 2.548v.836h1.755v-.836zm2.296 0v.836h6.506v-.836zm-2.296 3.397v.836h2.58v-.836zm2.947 0v.836h2.394v-.836zm2.781 0v.836h2.139v-.836zm2.488 0v.836h.922v-.836zm1.291 0v.836h2.065v-.836zm2.47 0v.836h5.417v-.836zm5.784 0v.836h4.13v-.836zM18.89 29.582v.836h4.344v-.836zm4.686 0v.836h4.615v-.836zm4.965 0v.836h1.804v-.836zm2.144 0v.836h4.34v-.836zm4.69 0v.836h4.74v-.836zm-16.482 2.545v.838H23.6v-.838zm5.076 0v.838h5.088v-.838zm5.44 0v.838h2v-.838zm2.367 0v.838h4.757v-.838zm-12.883 2.55v.836h4v-.835zm4.464 0v.836h1.91v-.835zm2.264 0v.836h.943v-.835zm1.328 0v.836h1.76v-.835zm2.129 0v.836h1.805v-.835zm2.147 0v.836h2.834v-.835zm-12.332 3.36v.838h3.384v-.838zm3.74 0v.838h5.576v-.838zm5.918 0v.838h2.705v-.838zm12.26.07v.836h5.523v-.836zm-21.92 2.514v.838h4.058v-.838zm4.496 0v.838h1.789v-.838zm2.209 0v.838h.89v-.838zm1.176 0v.838h1.761v-.838zm1.996 0v.838h9.33v-.838zm9.77 0v.838h2.49v-.838zm2.825 0v.838h.63v-.838zm-22.475 2.547v.838h4.239v-.838zm4.627 0v.838h1.325v-.838zm1.663 0v.838h3.082v-.838zm3.406 0v.838h4.525v-.838zm4.875 0v.838h3.07v-.838zm3.379 0v.838h.632v-.838zm.978 0v.838h3.897v-.838zm4.295 0v.838h2.04v-.838z" color="#000" opacity=".25" style="-inkscape-stroke:none" transform="translate(-15 -10.359)scale(1.4735)"/><path fill="#268bd2" d="M26.842 9.455v1.232h3.042V9.455zm8.884 3.753v1.235h5.508v-1.235zm3.28 16.266v1.235h6.082v-1.235zm-8.003 11.261v1.235h4.179v-1.235z" color="#000"/><path fill="#859900" d="M18.889 13.447v.836h2.58v-.836zm12.885 7.643v.836h4.758v-.836zm-12.883 5.943v.838h2.58v-.838zm2.947 0v.838h2.395v-.838zm9.936 5.096v.838h4.758v-.838zm-4.828 2.547v.837h1.76v-.837z" color="#000" style="-inkscape-stroke:none" transform="translate(-15 -10.359)scale(1.4735)"/><path fill="#d33682" d="M18.889 18.531v.836h3.385v-.836zm23.252 2.559v.836h.715v-.836zm-23.25 5.943v.838h2.58v-.838zm9.648 2.549v.836h1.805v-.836zm-9.648 5.094v.837h4v-.837zm9.693 8.492v.838h4.524v-.838z" color="#000" style="-inkscape-stroke:none" transform="translate(-15 -10.359)scale(1.4735)"/><path fill="#fff" d="M18.33 16.986v29.266h10.973v-4.877h-6.096v-19.51h6.102v-4.879zm15.885 0v4.879h1.154c4.096 0 7.35 3.229 7.35 7.316v4.877c0 4.085-3.255 7.317-7.35 7.317h-1.154v4.877h1.154c6.714 0 12.227-5.472 12.227-12.193v-4.877c0-6.724-5.513-12.195-12.227-12.195z" color="#000" style="-inkscape-stroke:none"/><path d="M3.999 45.998V47A12.975 12.975 0 0 0 17 60.002h30A12.975 12.975 0 0 0 60.002 47v-1.002A12.975 12.975 0 0 1 47 59H17A12.975 12.975 0 0 1 4 45.998z" opacity=".15"/><path fill="#fff" d="M3.999 18.002v-.994A12.975 12.975 0 0 1 17 4.006h30a12.975 12.975 0 0 1 13.002 13.002v1.002A12.975 12.975 0 0 0 47 5.008H17A12.975 12.975 0 0 0 4 18.01z" opacity=".15"/></svg>