<svg xmlns="http://www.w3.org/2000/svg" viewBox="0 0 64 64"><rect width="55.999" height="55.999" x="4" y="4" fill="#00e676" rx="13.001" ry="13.001"/><path fill="#333" d="M43.836 43.748c.767-.478.95-1.605.399-2.448-.299-.455-3.725-2.186-5.793-2.926-4.06-1.452-8.267-2.038-12.14-1.692-2.962.267-7.087 1.182-8.609 1.912-1.14.548-1.438 1.778-.646 2.678.654.747 1.025.768 2.933.17 7.08-2.216 13.748-1.746 20.102 1.417 2.748 1.368 2.92 1.408 3.753.89zm3.038-7.529c.8-.735.922-2.016.263-2.763-.814-.922-7.24-3.368-10.828-4.12-5.848-1.225-12.138-1.047-18.227.519-1.965.505-2.434.751-2.804 1.473-.34.66-.351 1.155-.044 1.805.476 1.004 1.568 1.31 3.047.854 1.322-.408 3.935-.927 5.837-1.162 2.171-.267 6.277-.303 8.172-.07 3.833.472 8.024 1.704 11.585 3.405 1.48.707 2.278.723 3 .06zm2.073-7.726c.554-.332 1.053-1.214 1.053-1.86 0-.648-.332-1.346-.844-1.777-.966-.812-6.208-2.742-9.835-3.62-4.285-1.04-7.702-1.395-12.145-1.265-5.32.155-11.305 1.201-12.408 2.17-1.29 1.131-.894 3.216.728 3.836.63.24.69.237 2.226-.129a54 54 0 0 1 6.648-1.118c2.275-.231 8.135-.105 10.099.214 3.478.568 7.312 1.645 10.252 2.88 2.912 1.224 3.22 1.273 4.227.67z"/><circle cx="32.02" cy="32.044" r="30.001" fill="none"/><path d="M3.998 45.998v1c0 7.203 5.8 13.004 13.004 13.004h29.996c7.203 0 13.004-5.8 13.004-13.004v-1c0 7.203-5.8 13.002-13.004 13.002H17.002A12.975 12.975 0 0 1 3.998 45.998" opacity=".15"/><path fill="#fff" d="M3.998 18.004v-1C3.998 9.801 9.798 4 17.002 4h29.996c7.203 0 13.004 5.8 13.004 13.004v1c0-7.203-5.8-13.002-13.004-13.002H17.002A12.975 12.975 0 0 0 3.998 18.004" opacity=".15"/></svg>