<svg xmlns="http://www.w3.org/2000/svg" viewBox="0 0 64 64"><rect width="56.002" height="56.002" x="4" y="3.969" fill="#f2f2f2" rx="13.002" ry="13.002"/><path fill="#0c5399" d="M48.823 42.599c-2.002 1.97-5.109 2.438-7.58 2.45-7.725 0-14.454-5.94-14.454-12.757a5.14 5.14 0 0 1 2.682-4.457c-6.986.293-8.782 7.573-8.782 11.838 0 12.058 11.115 13.28 13.51 13.28 1.29 0 3.238-.375 4.407-.744l.213-.071A20.95 20.95 0 0 0 49.69 43.52c.363-.571-.276-1.25-.868-.92z" class="cls-1"/><path fill="#0680d7" d="M27.737 50.903a12.9 12.9 0 0 1-3.712-3.483c-4.824-6.609-1.894-15.97 5.447-19.585.51-.24 1.38-.674 2.537-.653a5.28 5.28 0 0 1 4.193 2.122 5.2 5.2 0 0 1 1.039 3.045c0-.034 3.992-12.992-13.06-12.992-7.165 0-13.058 6.8-13.058 12.765a21.2 21.2 0 0 0 1.976 9.14c4.499 9.597 15.471 14.305 25.526 10.953-3.442 1.085-7.814.608-10.875-1.305z" class="cls-3"/><path fill="#4fe3b2" d="M35.97 34.872c-.132.171-.539.408-.539.924 0 .426.278.835.77 1.18 2.348 1.632 6.773 1.416 6.785 1.416a9.7 9.7 0 0 0 4.94-1.362c3.07-1.793 4.96-4.152 4.968-7.706.043-3.658-1.306-6.09-1.851-7.167-3.459-6.765-10.925-10.656-19.044-10.656-11.426 0-20.733 9.175-20.894 20.597.078-5.963 6.007-11.497 13.059-11.497.571 0 3.83.056 6.856 1.644 2.667 1.4 4.064 3.808 5.036 5.484 1.411 2.663 1.472 5.11-.085 7.143z" class="cls-5"/><path d="M3.998 45.998v1c0 7.203 5.8 13.004 13.004 13.004h29.996c7.203 0 13.004-5.8 13.004-13.004v-1c0 7.203-5.8 13.002-13.004 13.002H17.002A12.975 12.975 0 0 1 3.998 45.998" opacity=".1"/><path fill="#fff" d="M3.998 18.004v-1C3.998 9.801 9.798 4 17.002 4h29.996c7.203 0 13.004 5.8 13.004 13.004v1c0-7.203-5.8-13.002-13.004-13.002H17.002A12.975 12.975 0 0 0 3.998 18.004" opacity=".5"/></svg>