<svg xmlns="http://www.w3.org/2000/svg" viewBox="0 0 64 64"><defs><linearGradient id="a" x1="31.995" x2="31.995" y1="17.647" y2="46.337" gradientUnits="userSpaceOnUse"><stop offset="0" stop-color="#289dc7"/><stop offset="1" stop-color="#393f95"/></linearGradient><linearGradient id="c" x1="32" x2="32" y1="28.113" y2="38.548" gradientUnits="userSpaceOnUse"><stop offset="0" stop-color="#f80095"/><stop offset="1" stop-color="#f8004e"/></linearGradient><filter id="b" width="1.12" height="1.12" x="-.06" y="-.06" color-interpolation-filters="sRGB"><feGaussianBlur stdDeviation=".261"/></filter></defs><rect width="56.002" height="56.002" x="4" y="3.969" fill="#f2f2f2" rx="13.002" ry="13.002"/><path d="M3.998 45.998v1c0 7.203 5.8 13.004 13.004 13.004h29.996c7.203 0 13.004-5.8 13.004-13.004v-1c0 7.203-5.8 13.002-13.004 13.002H17.002A12.975 12.975 0 0 1 3.998 45.998" opacity=".1"/><path fill="#fff" d="M3.998 18.004v-1C3.998 9.801 9.798 4 17.002 4h29.996c7.203 0 13.004 5.8 13.004 13.004v1c0-7.203-5.8-13.002-13.004-13.002H17.002A12.975 12.975 0 0 0 3.998 18.004" opacity=".5"/><path fill="url(#a)" d="M27.475 17.652q-.94 0-1.834.612c-.894.612-.999.906-1.227 1.462l-.898 3.138h-3.952c-1.248 0-2.298.444-3.18 1.305-.887.866-1.345 1.92-1.345 3.138V41.94c0 1.218.46 2.237 1.345 3.098.882.86 1.93 1.299 3.18 1.299h24.861c1.248 0 2.339-.444 3.22-1.3.882-.865 1.305-1.884 1.305-3.097V27.307c0-1.218-.423-2.272-1.304-3.138s-1.973-1.305-3.22-1.305h-3.953l-.897-3.138c-.22-.56-.627-1.055-1.224-1.467-.596-.409-1.213-.612-1.834-.612m-5.1 7.826c4.285-.316 8.407 3.53 8.398 7.82 0 4.103-3.73 7.827-7.821 7.827-4.103 0-7.826-3.73-7.826-7.826-.01-3.913 3.352-7.54 7.256-7.821" style="fill:#2f93ef"/><path d="M37.217 33.33a5.218 5.218 0 1 1-10.435 0 5.218 5.218 0 0 1 10.435 0" filter="url(#b)" opacity=".15"/><path fill="url(#c)" d="M37.217 33.33a5.218 5.218 0 1 1-10.435 0 5.218 5.218 0 0 1 10.435 0" style="fill:#f80076"/></svg>