<svg xmlns="http://www.w3.org/2000/svg" width="64" height="64"><defs><linearGradient id="d" x1="26" x2="26" y1="35" y2="7" gradientTransform="translate(0 14)" gradientUnits="userSpaceOnUse"><stop offset="0" stop-color="#b6b9bf"/><stop offset="1" stop-color="#dddfe2"/></linearGradient><linearGradient id="e" x1="3" x2="45" y1="42" y2="42" gradientTransform="translate(0 14)" gradientUnits="userSpaceOnUse"><stop offset="0" stop-color="#1a1a1a"/><stop offset=".111" stop-color="#2c2c2e"/><stop offset=".29" stop-color="#2b2b2d"/><stop offset=".512" stop-color="#2a2b2d"/><stop offset=".752" stop-color="#2b2b2d"/><stop offset=".897" stop-color="#323232"/><stop offset="1" stop-color="#171717"/></linearGradient><linearGradient id="f" x1="450.06" x2="450.06" y1="544.2" y2="543.43" gradientTransform="matrix(.88172 0 0 2.6012 -374.83 -1358.6)" gradientUnits="userSpaceOnUse"><stop offset="0" stop-color="#24785a"/><stop offset="1" stop-color="#67e5b8"/></linearGradient><linearGradient id="g" x1="467.17" x2="467.17" y1="546.85" y2="544.72" gradientTransform="translate(-841.23 -972.74)scale(1.8844)" gradientUnits="userSpaceOnUse"><stop offset="0" stop-color="#040404"/><stop offset="1" stop-color="#121212" stop-opacity=".908"/></linearGradient><linearGradient id="a" x1="7.937" x2="7.937" y1="15.081" y2="1.852" gradientTransform="scale(3.7796)" gradientUnits="userSpaceOnUse"><stop offset="0" stop-color="#4d4d4d"/><stop offset="1" stop-color="gray"/></linearGradient><clipPath id="b"><rect width="48" height="48" y="16" stroke-width=".995" opacity="0" rx="0" ry=".987"/></clipPath><filter id="c" width="1.117" height="1.123" x="-.059" y="-.061" color-interpolation-filters="sRGB"><feGaussianBlur stdDeviation="1.075"/></filter></defs><rect width="56.002" height="56.002" x="4" y="3.969" fill="url(#a)" rx="13.002" ry="13.002"/><g clip-path="url(#b)" transform="translate(8 -9)"><path d="M12.507 20c-2.894 0-4.79 2.156-5.224 4.768L2.061 56.233a3.3 3.3 0 0 0 .017 1.129C2.27 59.96 4.517 62 7.283 62h33.432c2.66 0 4.84-1.887 5.175-4.344.122-.45.147-.929.049-1.423L39.67 24.768C39.153 22.169 37.34 20 34.447 20z" filter="url(#c)" opacity=".15"/><path fill="url(#d)" d="M13 19h21c2.77 0 4.505 2.169 5 4.767l6 31.465C45.496 57.831 42.77 60 40 60H8.002c-2.77 0-5.415-2.156-5-4.768L8 23.767C8.415 21.156 10.23 19 13 19"/><rect width="42" height="10" x="3" y="51" fill="url(#e)" ry="5"/><rect width="20" height="2" x="12" y="55" fill="url(#f)" ry="1"/><circle cx="39" cy="56" r="2" fill="url(#g)" opacity=".452"/><path fill="#fff" d="M39.003 55.075a.14.14 0 0 0-.105.045.14.14 0 0 0-.043.103v.745q-.001.06.043.103c.044.043.065.045.105.045a.14.14 0 0 0 .104-.045.14.14 0 0 0 .044-.103v-.745a.14.14 0 0 0-.044-.103.14.14 0 0 0-.104-.045m-.428.219c-.04 0-.076 0-.11.03a.87.87 0 0 0-.357.71q.001.18.073.346.07.165.19.285a.9.9 0 0 0 .63.26q.18 0 .346-.07a.87.87 0 0 0 .474-.475.88.88 0 0 0-.285-1.057.14.14 0 0 0-.111-.03c-.041 0-.074.025-.098.057a.14.14 0 0 0-.027.11q.008.06.057.1a.592.592 0 0 1-.586 1.02.6.6 0 0 1-.319-.316.59.59 0 0 1 .191-.705.15.15 0 0 0 .06-.1.14.14 0 0 0-.03-.109.13.13 0 0 0-.098-.056"/><path d="M8 51c-2.77 0-5 2.23-5 5 0 .059.006.116.008.174a4.724 4.724 0 0 1 4.732-4.652h32.52a4.724 4.724 0 0 1 4.733 4.652q.005-.086.007-.174c0-2.77-2.23-5-5-5z" opacity=".15"/></g><path d="m38.398 19.278-2.803-.004a.46.46 0 0 0-.284.094.3.3 0 0 0-.119.229l-.004 2.26c0 .178.179.323.401.323h.39l-.003 1.722-2.971 1.605.013-6.577 1.034.001a.34.34 0 0 0 .271-.122.21.21 0 0 0 .011-.25l-2.037-3.183a.34.34 0 0 0-.282-.139.33.33 0 0 0-.282.138l-2.052 3.177a.21.21 0 0 0 .01.25.34.34 0 0 0 .271.124l1.034.001-.019 9.11-3.198-1.742.003-1.366c.496-.264.824-.716.825-1.23.003-.817-.817-1.48-1.831-1.481-1.013-.002-1.834.659-1.837 1.475-.001.515.326.968.821 1.234l-.004 1.8c0 .27.166.524.446.676L30.973 30l-.006 2.809c-.673.29-1.136.856-1.138 1.515-.001.954.956 1.73 2.141 1.732 1.186.001 2.148-.771 2.15-1.726.001-.659-.46-1.225-1.131-1.518L33 27.471l4.549-2.457q.082-.046.15-.1a.75.75 0 0 0 .298-.576L38 22.184h.391a.46.46 0 0 0 .284-.095.3.3 0 0 0 .119-.229l.004-2.258c0-.18-.179-.324-.401-.324z" opacity=".15"/></svg>