<svg xmlns="http://www.w3.org/2000/svg" viewBox="0 0 64 64"><rect width="56.002" height="56.002" x="4" y="3.969" fill="#37474f" rx="13.002" ry="13.002"/><path d="M3.998 45.998v1c0 7.203 5.8 13.004 13.004 13.004h29.996c7.203 0 13.004-5.8 13.004-13.004v-1c0 7.203-5.8 13.002-13.004 13.002H17.002A12.975 12.975 0 0 1 3.998 45.998" opacity=".35"/><path fill="#fff" d="M3.998 18.004v-1C3.998 9.801 9.798 4 17.002 4h29.996c7.203 0 13.004 5.8 13.004 13.004v1c0-7.203-5.8-13.002-13.004-13.002H17.002A12.975 12.975 0 0 0 3.998 18.004" opacity=".15"/><rect width="48" height="48" x="8" y="8" fill="#e4e4e4" rx="9" ry="9"/><path fill="#ccc" d="M8 16v.5h48V16zm0 8v.5h48V24zm0 8v.5h48V32zm0 8v.5h48V40zm0 8v.5h48V48z"/><path fill="#df574d" d="M17 8h1v48h-1z"/><path fill="#3f3f3f" d="M44.904 22.332c-.068-.552.356-1.426.299-2.616-.059-1.191-.636-2.852-3.007-4.057l-.129-.064c-1.542-.752-3.79-1.29-6.412-1.027-2.037.205-4.153.885-6.148 2.085a16.5 16.5 0 0 0-4.791 4.37 16.4 16.4 0 0 0-1.968 3.84q-.322.908-.52 1.87A11.3 11.3 0 0 0 22 29.431c.097 1.52.526 3.183 1.485 4.679A8.1 8.1 0 0 0 25.152 36a7.2 7.2 0 0 0 2.197 1.255c1.296.447 2.57.447 3.625.279a9.4 9.4 0 0 0 1.525-.38 16 16 0 0 0 1.478-.589c.884-.409 1.713-.9 2.373-1.294.66-.396 1.307-.793 1.929-1.114a12 12 0 0 1 1.245-.55q.174-.062.347-.113c.432-.126.86-.182 1.24-.142.324.033.599.146.784.283a.8.8 0 0 1 .203.204c.05.071.083.14.101.176.02.047.031.142-.003.28-.033.139-.105.3-.215.46a2.6 2.6 0 0 1-.484.512q-.313.256-.748.498c-.636.323-1.269.54-2.158.891-.807.318-1.77.729-2.672 1.38a7 7 0 0 0-1.353 1.325 5.5 5.5 0 0 0-.954 1.93 4.7 4.7 0 0 0 .052 2.395c.119.409.302.796.537 1.141.238.349.537.665.891.917a3.5 3.5 0 0 0 1.922.622h.203a4.7 4.7 0 0 0 1.434-.281c.462-.15.88-.351 1.24-.53.366-.183.649-.333.944-.457.27-.126.504-.207.717-.242a1.1 1.1 0 0 1 .486.018.5.5 0 0 1 .214.126c.02.01.039.025.052.029.014 0 .027.007.046.004.016-.004 0 .058-.066.139-.077.095-.19.19-.362.331-.167.134-.394.31-.601.527-.23.239-.453.541-.59.915a2.2 2.2 0 0 0-.103 1.106c.066.398.24.723.442.954.271.314.586.447.82.484a1 1 0 0 0 .159.01c.414-.016.581-.35.655-.45-.103-.102-.208-.366-.29-.59q-.015-.038-.026-.074a.8.8 0 0 1-.055-.305.4.4 0 0 1 .051-.19.24.24 0 0 1 .096-.09c.033-.016.088-.063.187-.126.123-.078.209-.123.427-.247a4.4 4.4 0 0 0 .666-.441c.242-.2.52-.49.718-.896a2.66 2.66 0 0 0 .263-1.158 2.8 2.8 0 0 0-.23-1.122 3 3 0 0 0-.608-.882 3.1 3.1 0 0 0-.81-.583 3.6 3.6 0 0 0-1.732-.349 5.4 5.4 0 0 0-1.485.293c-.414.147-.843.34-1.148.47-.35.15-.62.253-.875.315-.24.044-.421.04-.553.01l-.05-.014c-.134-.045-.207-.122-.187-.161.011-.016.013-.035.017-.068a.3.3 0 0 1 .022-.097c.022-.066.058-.18.134-.287a1.5 1.5 0 0 1 .297-.403c.154-.155.355-.312.597-.451.488-.31 1.07-.54 1.823-.79.697-.233 1.652-.518 2.53-.904.473-.197.965-.44 1.442-.746.487-.312.97-.695 1.41-1.17a6.4 6.4 0 0 0 1.144-1.736c.299-.674.493-1.44.511-2.26a5.9 5.9 0 0 0-.397-2.245 6.1 6.1 0 0 0-1.124-1.852 6.44 6.44 0 0 0-3.358-1.979c-1.3-.304-2.52-.192-3.456.018q-.39.09-.736.197a11 11 0 0 0-2.088.913c-.82.448-1.636.992-2.191 1.35-.646.417-1.223.777-1.803 1.055-.258.125-.54.238-.834.315-.235.06-.464.101-.69.113-.43.023-.793-.058-1.04-.208-.142-.08-.289-.2-.423-.354a2 2 0 0 1-.324-.533 2.8 2.8 0 0 1-.154-1.446q.032-.463.185-.926.118-.358.324-.724c.323-.574.79-1.116 1.339-1.583a8.5 8.5 0 0 1 2.862-1.822 8.9 8.9 0 0 1 3.15-.59c1.21-.008 2.294.21 3.143.315l.072.008c1.342.157 2.37-.175 3.284-.636.885-.445 1.678-1.048 2.173-1.052z"/></svg>