<svg xmlns="http://www.w3.org/2000/svg" viewBox="0 0 64 64"><defs><linearGradient id="a" x1="21.989" x2="21.989" y1="29.084" y2="15.076" gradientUnits="userSpaceOnUse"><stop offset="0" stop-color="#85ec51"/><stop offset="1" stop-color="#beff66"/></linearGradient><linearGradient id="b" x1="25.382" x2="25.382" y1="30.613" y2="14.219" gradientUnits="userSpaceOnUse"><stop offset="0" stop-color="#43db59"/><stop offset="1" stop-color="#6af1b0"/></linearGradient></defs><rect width="56.002" height="56.002" x="4" y="3.969" fill="#f2f2f2" rx="13.002" ry="13.002"/><path d="M3.998 45.998v1c0 7.203 5.8 13.004 13.004 13.004h29.996c7.203 0 13.004-5.8 13.004-13.004v-1c0 7.203-5.8 13.002-13.004 13.002H17.002A12.975 12.975 0 0 1 3.998 45.998" opacity=".1"/><path fill="#fff" d="M3.998 18.004v-1C3.998 9.801 9.798 4 17.002 4h29.996c7.203 0 13.004 5.8 13.004 13.004v1c0-7.203-5.8-13.002-13.004-13.002H17.002A12.975 12.975 0 0 0 3.998 18.004" opacity=".5"/><path fill="url(#a)" d="M24 10c-3.531 3.988-6 6.9-6 12 0 5.5 3.525 8.863 6 11 1-3 1-19 0-23" style="fill:#b0fa61" transform="translate(-8 -6.333)scale(1.6667)"/><path fill="url(#b)" d="M24 10v25.199L25 36v-3c2.105-2.195 5-4.5 5-11 0-4-3-7-5-10-.413-.62-1-2-1-2" style="fill:#53e47d" transform="translate(-8 -6.333)scale(1.6667)"/></svg>