<svg xmlns="http://www.w3.org/2000/svg" image-rendering="optimizeSpeed" viewBox="0 0 64 64"><rect width="56" height="56" x="4" y="4" fill="#b473e8" rx="13.002" ry="13.002"/><path fill="#fff" d="M34.354 19.291c-.602 0-1.102.481-1.108 1.064-.003.585.497 1.078 1.103 1.08 2.617.02 4.77.847 6.504 2.479 1.715 1.616 2.61 3.855 2.632 6.777v.002c.006.581.506 1.061 1.11 1.061l.012-.002c.605-.006 1.108-.494 1.103-1.078v-.003c-.015-1.703-.291-3.269-.833-4.647a10 10 0 0 0-2.468-3.648c-2.147-2.02-4.89-3.062-8.045-3.084h-.01zm-11.241 2.52c-.422-.072-.88.006-1.336.226h-.037l-.05.029q-1.27.722-2.384 1.935l-.058.063v.059c-.514.64-.854 1.286-.933 1.933-.025.11-.024.208-.024.314 0 .294.043.593.134.886l.024.082.051.03c.294 1.007.96 2.574 2.418 5.228.97 1.76 1.962 3.229 2.947 4.467a24 24 0 0 0 1.858 2.077c.01.01.026.033.063.07l.068.068h.005q.037.038.044.047l.012.014.012.012a23 23 0 0 0 2.013 1.782 32 32 0 0 0 4.464 2.958c2.658 1.466 4.24 2.128 5.241 2.417l.037.044.06.022c.285.094.58.138.872.133.119.007.224-.001.324-.024q1.029-.122 2.038-.969l.007-.01.008-.005c.01-.01.004-.005.01-.012l.014-.017a9.8 9.8 0 0 0 1.92-2.361l.032-.054v-.05c.444-.924.269-1.868-.452-2.469a76 76 0 0 0-.794-.655 40 40 0 0 0-1.313-1.036 25 25 0 0 0-2.28-1.456h-.003c-1.127-.63-2.304-.264-2.822.407l-.908 1.136c-.366.462-1.098.418-1.117.417-6.159-1.585-7.814-7.777-7.826-7.821-.001-.02-.045-.753.416-1.125L27 29.697c.673-.514 1.05-1.691.417-2.82-.331-.585-.971-1.621-1.456-2.282h-.003c-.26-.35-.68-.874-1.037-1.314-.178-.22-.341-.421-.46-.565l-.141-.17-.041-.047-.013-.014a1.92 1.92 0 0 0-1.154-.674zm11.307 2.468c-.594-.042-1.128.403-1.17.976-.044.573.418 1.085 1.012 1.127 1.467.103 2.457.535 3.2 1.322v.002c.76.801 1.106 1.717 1.077 2.967v.005c-.013.576.47 1.064 1.066 1.076h.027c.587 0 1.077-.464 1.09-1.032.04-1.719-.52-3.253-1.648-4.442-1.133-1.196-2.739-1.865-4.654-2.001"/><path d="M3.998 45.998v1c0 7.203 5.8 13.004 13.004 13.004h29.996c7.203 0 13.004-5.8 13.004-13.004v-1c0 7.203-5.8 13.002-13.004 13.002H17.002A12.975 12.975 0 0 1 3.998 45.998" opacity=".15"/><path fill="#fff" d="M3.998 18.004v-1C3.998 9.801 9.798 4 17.002 4h29.996c7.203 0 13.004 5.8 13.004 13.004v1c0-7.203-5.8-13.002-13.004-13.002H17.002A12.975 12.975 0 0 0 3.998 18.004" opacity=".15"/></svg>