<svg xmlns="http://www.w3.org/2000/svg" width="64" height="64"><defs><linearGradient id="f" x1="46" x2="46" y1="60" y2="30" gradientTransform="translate(-.002)" gradientUnits="userSpaceOnUse"><stop offset="0" stop-color="#1e1e1e"/><stop offset="1" stop-color="#3c3c3c"/></linearGradient><linearGradient id="a" x1="7.937" x2="7.937" y1="15.081" y2="1.852" gradientTransform="scale(3.7796)" gradientUnits="userSpaceOnUse"><stop offset="0" stop-color="#666"/><stop offset="1" stop-color="#b3b3b3"/></linearGradient><linearGradient id="c" x1="48.192" x2="48.192" y1="13.361" y2="-4.371" gradientTransform="matrix(2.3195 0 0 2.3122 -79.781 22.106)" gradientUnits="userSpaceOnUse"><stop offset="0" stop-color="#9ca0a1"/><stop offset="1" stop-color="#e5e6e6"/></linearGradient><linearGradient id="d" x1="49.178" x2="48.877" y1="4.35" y2="8.059" gradientTransform="matrix(2.3195 0 0 1.9157 -79.782 27.339)" gradientUnits="userSpaceOnUse"><stop offset="0" stop-color="#f4d984"/><stop offset="1" stop-color="#f8db80"/></linearGradient><filter id="b" width="1.253" height="1.188" x="-.127" y="-.094" color-interpolation-filters="sRGB"><feGaussianBlur stdDeviation="1.688"/></filter><filter id="g" width="1.135" height="1.54" x="-.068" y="-.27" color-interpolation-filters="sRGB"><feGaussianBlur stdDeviation=".675"/></filter><radialGradient id="e" cx="12.171" cy="12.171" r="4.762" gradientTransform="scale(3.7796)" gradientUnits="userSpaceOnUse"><stop offset="0"/><stop offset=".473"/><stop offset="1" stop-opacity="0"/></radialGradient></defs><rect width="56.002" height="56.002" x="4" y="3.969" fill="url(#a)" rx="13.002" ry="13.002"/><path d="M32 11c-6.094 0-11 4.906-11 11v6h-3c-1.108 0-2 .892-2 2v22c0 1.108.892 2 2 2h28c1.108 0 2-.892 2-2V30c0-1.108-.892-2-2-2h-3v-6c0-6.094-4.906-11-11-11m0 4c3.878 0 7 3.122 7 7v6H25v-6c0-3.878 3.122-7 7-7" filter="url(#b)" opacity=".15"/><path fill="url(#c)" d="M32 10c-6.094 0-11 4.906-11 11v6h-3c-1.108 0-2 .892-2 2v22c0 1.108.892 2 2 2h28c1.108 0 2-.892 2-2V29c0-1.108-.892-2-2-2h-3v-6c0-6.094-4.906-11-11-11m0 4c3.878 0 7 3.122 7 7v6H25v-6c0-3.878 3.122-7 7-7"/><path fill="url(#d)" d="M16 35v8h32v-8z" opacity=".809"/><path fill="#222" d="M21.708 35 16 43h4.018l5.71-8zm7.25 0-5.707 8h4.019l5.708-8zm7.252 0-5.709 8h4.02l5.707-8zm7.25 0-5.707 8h4.018l5.708-8z"/><circle cx="46.002" cy="46.002" r="18" fill="url(#e)" opacity=".65"/><circle cx="46" cy="45" r="16" fill="url(#f)"/><path d="M36.949 43a3 3 0 0 0-2.95 3 3 3 0 0 0 3 3 3 3 0 0 0 3-3 3 3 0 0 0-3-3zm9 0a3 3 0 0 0-2.95 3 3 3 0 0 0 3 3 3 3 0 0 0 3-3 3 3 0 0 0-3-3zm9 0a3 3 0 0 0-2.95 3 3 3 0 0 0 3 3 3 3 0 0 0 3-3 3 3 0 0 0-3-3z" filter="url(#g)" opacity=".35"/><g fill="#ececec"><circle cx="37" cy="45" r="3"/><circle cx="46" cy="45" r="3"/><circle cx="55" cy="45" r="3"/></g></svg>