<svg xmlns="http://www.w3.org/2000/svg" viewBox="0 0 16.933 16.933"><rect width="14.817" height="14.817" x="1.058" y="1.05" fill="#666" rx="3.44" ry="3.44"/><path fill="#fff" d="M7.228 1.05c.186.446.24.875.262 1.206A4.146 4.146 0 0 1 3.6 6.643c-.67.038-1.798-.05-2.542-.631V7.39c.04-.02.082-.05.13-.098.078-.097.168-.225.286-.393.187.08.282.1.479.156-.004.556-.045.775.21.844.221.06.293-.138.483-.693q.27.035.546.04c.14.606.185.814.417.777.26-.041.244-.263.297-.813q.273-.037.542-.105c.258.536.352.725.566.64.245-.1.178-.312.107-.864q.25-.103.485-.232c.403.451.545.608.728.466.208-.162.086-.348-.132-.854q.221-.17.422-.365c.484.324.66.437.8.256.158-.206 0-.356-.33-.779q.162-.207.298-.432c.578.166.781.224.86.006.088-.243-.107-.34-.544-.637q.11-.26.188-.532c.598.019.81.024.833-.206.025-.257-.189-.302-.686-.485q.036-.283.037-.568c.567-.109.772-.153.744-.38-.032-.257-.252-.252-.784-.322a5 5 0 0 0-.105-.527c.101-.052.178-.093.254-.135.042-.043.05-.077.035-.105zm.985 4.617-.324.043a.05.05 0 0 0-.035.02.06.06 0 0 0-.011.04l.006.404a2.4 2.4 0 0 0-.668.28l-.275-.29a.06.06 0 0 0-.036-.02.05.05 0 0 0-.04.01l-.26.198a.05.05 0 0 0-.02.037.1.1 0 0 0 .01.04l.2.35q-.261.253-.434.573l-.38-.111a.054.054 0 0 0-.07.03l-.127.3a.06.06 0 0 0 0 .042.07.07 0 0 0 .03.03l.348.202a2.4 2.4 0 0 0-.09.714l-.388.094a.06.06 0 0 0-.037.02.05.05 0 0 0-.01.04l.042.324q.004.023.02.036a.06.06 0 0 0 .04.011l.406.002c.059.233.153.457.279.663l-.29.274a.054.054 0 0 0-.01.076l.2.26a.05.05 0 0 0 .036.02.06.06 0 0 0 .04-.01l.348-.2q.255.261.575.436l-.111.379a.06.06 0 0 0 0 .041.05.05 0 0 0 .029.03l.3.125a.06.06 0 0 0 .043 0 .07.07 0 0 0 .03-.03l.202-.347a2.4 2.4 0 0 0 .714.09l.093.388a.06.06 0 0 0 .021.036.05.05 0 0 0 .04.01l.324-.042a.05.05 0 0 0 .036-.02.07.07 0 0 0 .011-.041l.002-.405a2.4 2.4 0 0 0 .646-.27l.294.279c.076.01.022.019.036.02a.05.05 0 0 0 .04-.01l.259-.199a.05.05 0 0 0 .02-.036.06.06 0 0 0-.01-.04l-.206-.344a2.4 2.4 0 0 0 .429-.562l.394.095c.07-.03.029.005.042 0a.05.05 0 0 0 .029-.03l.125-.301a.06.06 0 0 0 0-.042.06.06 0 0 0-.03-.03l-.354-.196q.093-.321.094-.656l-.002-.044.387-.115c.047-.061.028-.01.036-.02a.05.05 0 0 0 .01-.04l-.042-.325a.05.05 0 0 0-.02-.035.06.06 0 0 0-.04-.011l-.404.007a2.4 2.4 0 0 0-.271-.652l.28-.294c.01-.076.018-.023.02-.036a.05.05 0 0 0-.01-.04l-.2-.26a.05.05 0 0 0-.035-.02.06.06 0 0 0-.04.01l-.345.207a2.4 2.4 0 0 0-.561-.429l.094-.394c-.03-.071.005-.03 0-.042a.05.05 0 0 0-.029-.03l-.302-.125a.05.05 0 0 0-.04 0 .06.06 0 0 0-.03.03l-.197.355a2.4 2.4 0 0 0-.7-.093l-.115-.387c-.061-.047-.01-.027-.02-.036a.05.05 0 0 0-.041-.01zm.219.939a1.892 1.892 0 1 1 0 3.783 1.892 1.892 0 0 1 0-3.783m6.14 2.218c-.263-.001-.283.219-.424.748a5 5 0 0 0-.547.012c-.178-.583-.24-.787-.467-.734-.257.06-.223.281-.237.837q-.262.06-.515.149c-.313-.524-.422-.706-.63-.6-.238.121-.148.328-.026.887a5 5 0 0 0-.458.272c-.458-.413-.616-.557-.784-.394-.19.184-.048.355.225.838a5 5 0 0 0-.375.39c-.544-.292-.732-.394-.856-.195-.14.225.04.357.426.766q-.141.222-.258.459c-.543-.116-.749-.2-.867.036-.105.209.079.316.608.629a5 5 0 0 0-.132.52c-.55.029-.77.003-.823.26-.046.227.157.285.737.445q-.01.266.01.53c-.52.182-.739.219-.717.481.019.228.228.229.812.22q.047.2.11.398.016.05.042.09h.78c-.207-.844-.458-1.953-.01-3.11.083-.217.183-.404.296-.55a4.15 4.15 0 0 1 2.099-1.714 1.8 1.8 0 0 1 .448-.138q.19-.048.383-.078a4 4 0 0 1 .412-.04 4.8 4.8 0 0 1 2.041.406V9.25c-.036-.04-.079-.049-.13-.007-.1.097-.2.277-.368.541a5 5 0 0 0-.52-.13c-.038-.616-.05-.829-.285-.83" opacity=".15"/><path d="M1.058 12.17v.265a3.433 3.433 0 0 0 3.44 3.44h7.937a3.433 3.433 0 0 0 3.44-3.44v-.265a3.433 3.433 0 0 1-3.44 3.44H4.498a3.433 3.433 0 0 1-3.44-3.44" opacity=".2"/><path fill="#fff" d="M1.058 4.763V4.5a3.433 3.433 0 0 1 3.44-3.44h7.937a3.433 3.433 0 0 1 3.44 3.44v.265a3.433 3.433 0 0 0-3.44-3.44H4.498a3.433 3.433 0 0 0-3.44 3.44z" opacity=".15"/><path fill="#fff" d="m5.814 3.888-.016.01c-.204.148-.094.329.096.821a4.55 4.564 88.59 0 0-.407.314c-.472-.35-.634-.47-.778-.3-.164.192-.012.341.295.779a4.55 4.564 88.59 0 0-.307.397c-.495-.184-.677-.291-.821-.085-.128.182.03.309.486.676a4.55 4.564 88.59 0 0-.197.471c-.52-.05-.724-.104-.81.131-.075.207.109.29.632.52a4.55 4.564 88.59 0 0-.065.5c-.513.1-.724.105-.74.355-.014.217.183.246.734.318a4.55 4.564 88.59 0 0 .073.531c-.471.207-.674.26-.635.505.035.219.237.2.813.147a4.55 4.564 88.59 0 0 .204.49c-.402.313-.584.414-.486.641.088.205.278.136.83-.058a4.55 4.564 88.59 0 0 .298.385c-.304.445-.455.596-.289.787.145.167.307.045.768-.305a4.55 4.564 88.59 0 0 .408.314c-.185.514-.296.698-.086.843.184.127.309-.034.676-.499l-.09-.053a4.55 4.564 88.59 0 0 .537.229c-.036.527-.087.734.152.813.206.07.285-.114.497-.63a4.55 4.564 88.59 0 0 .517.069c.097.584.129.784.351.762.25-.024.247-.236.328-.756a4.55 4.564 88.59 0 0 .521-.068c.215.523.293.708.501.639.239-.08.187-.286.151-.814a4.55 4.564 88.59 0 0 .475-.192c.356.45.482.609.664.484.206-.142.102-.326-.077-.82a4.55 4.564 88.59 0 0 .422-.321c.441.335.602.452.745.289.162-.187.02-.34-.268-.76a4.55 4.564 88.59 0 0 .308-.392c.539.19.728.256.815.054.098-.226-.082-.329-.48-.636a4.55 4.564 88.59 0 0 .209-.495c.567.053.767.07.802-.147.04-.243-.161-.298-.623-.5a4.55 4.564 88.59 0 0 .068-.537c.545-.071.741-.102.728-.318-.016-.247-.225-.255-.726-.35a4.55 4.564 88.59 0 0-.07-.508c.516-.227.697-.311.623-.517-.085-.233-.288-.18-.8-.131a4.55 4.564 88.59 0 0-.197-.48c.446-.359.603-.486.476-.667-.143-.205-.326-.098-.816.084a4.55 4.564 88.59 0 0-.315-.407c.331-.468.447-.633.276-.772-.192-.156-.34-.008-.751.295a4.55 4.564 88.59 0 0-.417-.319c.22-.535.296-.722.097-.82-.228-.111-.334.075-.69.486a4.55 4.564 88.59 0 0-.471-.194c.049-.585.067-.787-.153-.82-.247-.038-.297.166-.502.645a4.55 4.564 88.59 0 0-.517-.065c-.087-.572-.118-.773-.338-.754-.25.021-.25.234-.34.754a4.55 4.564 88.59 0 0-.505.07c-.222-.536-.3-.723-.51-.652-.24.081-.184.289-.147.831a4.55 4.564 88.59 0 0-.468.193c-.352-.424-.487-.589-.65-.5zm1.794.81c.138-.08.386-.113.661-.118.506-.008 1.105.082 1.3.167.848.258 1.633.733 2.3 1.84.125.205.214.405.254.588.04.192.026.415-.098.59-.107.14-.238.273-.422.29-.571.053-1.346.023-1.958.016-.103-.001-.2-.042-.23-.075h-.001l-.03-.059a1.06 1.06 0 0 0-1.005-.525.4.4 0 0 1-.104-.096 32 32 0 0 1-.956-1.638c-.216-.375-.074-.751.251-.954l.025-.017zm-1.95 1.154.022-.013a.73.73 0 0 1 .417-.099c.174.024.354.074.458.226.327.471.682 1.16.976 1.697a.4.4 0 0 1 .05.224 1.06 1.06 0 0 0-.031 1.109l.027.042a.4.4 0 0 1-.032.19 32 32 0 0 1-.958 1.637c-.221.372-.619.433-.954.249-.396-.166-.927-1.414-.962-1.752-.19-.866-.162-1.783.474-2.908.119-.21.25-.385.39-.51a1 1 0 0 1 .103-.079zm2.544 2.156a.53.53 0 0 1 .723.194.53.53 0 0 1-.194.723.53.53 0 0 1-.723-.194.53.53 0 0 1 .194-.723m.17 1.545.009-.005a.1.1 0 0 1 .038-.017l.016-.007a1.06 1.06 0 0 0 .56-.141 1.06 1.06 0 0 0 .402-.413.4.4 0 0 1 .188-.074 34 34 0 0 1 1.897.01c.433.006.684.32.693.703.053.426-.762 1.51-1.037 1.71-.654.597-1.463 1.03-2.755 1.042a2 2 0 0 1-.636-.08c-.186-.064-.37-.19-.459-.387-.066-.162-.112-.343-.033-.51.245-.518.666-1.17.983-1.692a.44.44 0 0 1 .134-.14z"/></svg>