<svg xmlns="http://www.w3.org/2000/svg" viewBox="0 0 64 64"><rect width="56.002" height="56.002" x="4" y="3.969" fill="#f2f2f2" rx="13.002" ry="13.002"/><path d="M3.998 45.998v1c0 7.203 5.8 13.004 13.004 13.004h29.996c7.203 0 13.004-5.8 13.004-13.004v-1c0 7.203-5.8 13.002-13.004 13.002H17.002A12.975 12.975 0 0 1 3.998 45.998" opacity=".1"/><path fill="#fff" d="M3.998 18.004v-1C3.998 9.801 9.798 4 17.002 4h29.996c7.203 0 13.004 5.8 13.004 13.004v1c0-7.203-5.8-13.002-13.004-13.002H17.002A12.975 12.975 0 0 0 3.998 18.004" opacity=".5"/><path fill="#1e88e5" d="M14.013 15.345A3.006 3.02 0 0 0 11 18.373v27.254a3.013 3.013 0 0 0 3.013 3.028H32.66v-33.31z"/><path fill="#ff3737" d="M22.586 23.311a3.62 3.62 0 1 1-3.621-3.621 3.62 3.62 0 0 1 3.621 3.621"/><path fill="#ffc025" d="M27.043 23.311a3.621 3.621 0 1 1-7.243-.002 3.621 3.621 0 0 1 7.243.002"/><path fill="#ff872b" d="M21.19 20.46a3.63 3.63 0 0 0-1.39 2.851 3.62 3.62 0 0 0 1.397 2.85 3.62 3.62 0 0 0 1.39-2.85 3.62 3.62 0 0 0-1.397-2.851"/><path fill="#9a9996" d="M15.345 41.414h13.034v2.896H15.345z"/><path fill="#deddda" d="M15.345 37.07h7.241v2.171h-7.241z"/><path fill="#2196f3" d="M32 15.345v33.31h15.207V44.31H53V19.69h-5.793v-4.345z"/><path d="M34.173 31.276h6.517v6.517h-6.517z" opacity=".15"/><path fill="#fff" d="M40.69 31.276h6.518v6.517H40.69zm-6.517 6.517h6.517v6.518h-6.517z" opacity=".2"/><path d="M40.69 37.793h6.518v6.518H40.69z" opacity=".15"/><path fill="none" stroke="#e4e4e4" stroke-linecap="round" stroke-width="4.345" d="M32 13.172v37.656"/></svg>