<svg xmlns="http://www.w3.org/2000/svg" viewBox="0 0 16.933 16.933"><rect width="14.817" height="14.817" x="1.058" y="1.05" fill="#f2f2f2" rx="3.44" ry="3.44"/><path d="M1.058 12.17v.265a3.433 3.433 0 0 0 3.44 3.44h7.937a3.433 3.433 0 0 0 3.44-3.44v-.265a3.433 3.433 0 0 1-3.44 3.44H4.498a3.433 3.433 0 0 1-3.44-3.44" opacity=".1"/><rect width="11.641" height="11.641" x="2.646" y="2.646" fill="#fafafa" fill-rule="evenodd" rx="1.852" ry="1.852" style="paint-order:stroke fill markers"/><path fill="#b3b3b3" d="M10.921 5.283a.265.265 0 0 0 0 .373.265.265 0 0 0 .374.001l.375-.374 1.309 1.309-3.367 3.367a.265.265 0 0 0-.002.374l4.117 4.117a.265.265 0 0 0 .375-.001.265.265 0 0 0 0-.373l-3.93-3.93 3.369-3.368a.265.265 0 0 0-.001-.374l-1.684-1.683a.265.265 0 0 0-.373 0z" color="#000"/><path fill="#70a7ea" d="M1.076 4.132a4 4 0 0 0-.018.358v2.667l4.814 5.049a.53.53 0 0 0 .748 0l1.123-1.123z" style="paint-order:stroke fill markers"/><path fill="#6fdda0" d="M2.05 2.07a3.43 3.43 0 0 0-.974 2.062l6.666 6.951L9.24 9.587 2.049 2.07z" style="paint-order:stroke fill markers"/><path fill="#f7de6a" d="M3.96 1.091a3.43 3.43 0 0 0-1.952 1.022l7.231 7.473 1.497-1.496-6.776-7z" style="paint-order:stroke fill markers"/><path fill="#e35a60" d="M4.498 1.05a3.5 3.5 0 0 0-.538.041l6.776 7 1.122-1.124a.53.53 0 0 0 0-.748L6.862 1.05z" style="paint-order:stroke fill markers"/><rect width="8.466" height="3.175" x="-4.479" y="10.137" fill-rule="evenodd" opacity=".5" rx=".529" ry=".529" style="mix-blend-mode:soft-light;paint-order:stroke fill markers" transform="rotate(-45)"/><rect width="1.587" height="4.233" x="-1.04" y="16.22" fill="#ad7c55" fill-rule="evenodd" rx=".529" ry=".529" style="paint-order:stroke fill markers" transform="rotate(-45)"/><path fill="#fff" d="M1.058 4.763V4.5a3.433 3.433 0 0 1 3.44-3.44h7.937a3.433 3.433 0 0 1 3.44 3.44v.265a3.433 3.433 0 0 0-3.44-3.44H4.498a3.433 3.433 0 0 0-3.44 3.44z" opacity=".5"/></svg>