<svg xmlns="http://www.w3.org/2000/svg" viewBox="0 0 64 64"><rect width="56.002" height="56.002" x="4" y="3.969" fill="#4e5a6b" rx="13.002" ry="13.002"/><circle cx="32.02" cy="32.044" r="30.001" fill="none"/><path d="M3.998 45.998v1c0 7.203 5.8 13.004 13.004 13.004h29.996c7.203 0 13.004-5.8 13.004-13.004v-1c0 7.203-5.8 13.002-13.004 13.002H17.002A12.975 12.975 0 0 1 3.998 45.998" opacity=".15"/><path fill="#fff" d="M3.998 18.004v-1C3.998 9.801 9.798 4 17.002 4h29.996c7.203 0 13.004 5.8 13.004 13.004v1c0-7.203-5.8-13.002-13.004-13.002H17.002A12.975 12.975 0 0 0 3.998 18.004" opacity=".15"/><rect width="64" height="64" fill="none" rx="0" ry="0" style="paint-order:stroke fill markers"/><circle cx="32.02" cy="32.044" r="30.001" fill="none"/><g stroke-width="1.304"><path fill="#f2f2f2" d="M15.043 24.174c-.723 0-1.304.582-1.304 1.304v13.043c0 .723.581 1.305 1.304 1.305h19.565v-2.61H16.347V26.783h18.261v-2.609zm27.391 0v2.609h5.217v10.435h-5.217v2.608h6.522c.722 0 1.304-.581 1.304-1.304V25.48c0-.723-.582-1.304-1.304-1.304zm-23.478 5.217v5.218h11.739V29.39z"/><path fill="#fcefbb" d="M32.652 18.957a.65.65 0 0 0-.652.652v1.304c0 .362.29.653.652.653h4.565v20.87h-4.565a.65.65 0 0 0-.652.652v1.304c0 .361.29.652.652.652h11.739a.65.65 0 0 0 .652-.652v-1.304a.65.65 0 0 0-.652-.652h-4.565v-20.87h4.565a.65.65 0 0 0 .652-.653V19.61a.65.65 0 0 0-.652-.652z"/></g></svg>