<svg xmlns="http://www.w3.org/2000/svg" width="64" height="64"><defs><linearGradient id="a" x1="7.937" x2="7.937" y1="15.081" y2="1.852" gradientTransform="scale(3.7796)" gradientUnits="userSpaceOnUse"><stop offset="0" stop-color="#343d47"/><stop offset="1" stop-color="#566375"/></linearGradient></defs><rect width="56.002" height="56.002" x="4" y="3.969" fill="url(#a)" rx="13.002" ry="13.002"/><path fill="#f9f9f9" d="M15.043 24.174c-.723 0-1.304.582-1.304 1.304v13.043c0 .723.581 1.305 1.304 1.305h19.565v-2.61H16.347V26.783h18.261v-2.609zm27.391 0v2.609h5.217v10.435h-5.217v2.608h6.522c.722 0 1.304-.581 1.304-1.304V25.48c0-.723-.582-1.304-1.304-1.304zm-23.478 5.217v5.218h11.739V29.39z"/><path fill="#fcefbb" d="M32.652 18.957a.65.65 0 0 0-.652.652v1.304c0 .362.29.653.652.653h4.565v20.87h-4.565a.65.65 0 0 0-.652.652v1.304c0 .361.29.652.652.652h11.739a.65.65 0 0 0 .652-.652v-1.304a.65.65 0 0 0-.652-.652h-4.565v-20.87h4.565a.65.65 0 0 0 .652-.653V19.61a.65.65 0 0 0-.652-.652z"/></svg>