<svg xmlns="http://www.w3.org/2000/svg" viewBox="0 0 64 64"><path fill="#bf783d" d="M17.002 3.97h29.996C54.174 3.97 60 9.796 60 16.972v29.996c0 7.176-5.826 13.002-13.002 13.002H17.002C9.826 59.97 4 54.144 4 46.968V16.972C4 9.796 9.826 3.97 17.002 3.97" style="isolation:isolate"/><path d="M3.998 45.998v1c0 7.203 5.8 13.004 13.004 13.004h29.996c7.203 0 13.004-5.8 13.004-13.004v-1c0 7.203-5.8 13.002-13.004 13.002H17.002A12.975 12.975 0 0 1 3.998 45.998" opacity=".15"/><path fill="#fff" d="M3.998 18.004v-1C3.998 9.801 9.798 4 17.002 4h29.996c7.203 0 13.004 5.8 13.004 13.004v1c0-7.203-5.8-13.002-13.004-13.002H17.002A12.975 12.975 0 0 0 3.998 18.004" opacity=".15"/><rect width="64" height="64" fill="none" rx="0" ry="0" style="paint-order:stroke fill markers"/><circle cx="32.02" cy="32.044" r="30.001" fill="none"/><rect width="46" height="46" x="9" y="9" opacity=".5" rx="8" ry="8"/><path fill="#fff" d="M14 16v1.778h1.8v10.667H14v1.778h9v-1.778h1.8V17.778H23V16zm14.4 0v1.778h-1.8v10.667h1.8v1.778h7.2v-1.778h1.8V17.778h-1.8V16zM41 16v1.778h-1.8v3.555H41v1.778h3.6v1.778h1.8v3.556h-3.6v-3.556h-3.6v3.556H41v1.777h7.2v-1.777H50v-3.556h-1.8v-1.778h-1.8v-1.778h-3.6v-3.555h3.6v3.555H50v-3.555h-1.8V16zm-21.6 1.778h1.8v10.667h-1.8zm10.8 0h3.6v10.667h-3.6zm-16.2 16v1.778h1.8v10.667H14V48h9v-1.777h1.8v-5.334H23v-1.778h1.8v-3.555H23v-1.778zm14.4 0v1.778h-1.8v10.667h1.8V48h7.2v-1.777h1.8V35.556h-1.8v-1.778zm9 0v1.778h1.8v3.555H41v3.556h-1.8v3.555h-1.8V48H41v-1.778h1.8v-1.777h1.8v1.777h1.8V48H50v-1.778h-1.8v-3.555h-1.8V39.11h1.8v-3.555H50v-1.778h-3.6v1.778h-1.8v1.777h-1.8v-1.777H41v-1.778zm-18 1.778h1.8v3.555h-1.8zm10.8 0h3.6v10.667h-3.6zm-10.8 5.333h1.8v5.333h-1.8z"/></svg>