<svg xmlns="http://www.w3.org/2000/svg" xmlns:xlink="http://www.w3.org/1999/xlink" enable-background="new 0 0 1024 1024" image-rendering="optimizeSpeed" viewBox="0 0 64 64"><defs><linearGradient id="d"><stop offset="0" stop-color="#fff" stop-opacity=".025"/><stop offset=".5" stop-color="#fff"/><stop offset="1" stop-color="#fff" stop-opacity=".209"/></linearGradient><linearGradient id="c"><stop offset="0" stop-color="#3689e6"/><stop offset=".088" stop-color="#8cd5ff"/><stop offset=".5" stop-color="#3d97e7"/><stop offset=".911" stop-color="#8cd5ff"/><stop offset="1" stop-color="#3689e6"/></linearGradient><linearGradient id="b"><stop offset="0" stop-color="#333"/><stop offset="1" stop-color="#666"/></linearGradient><linearGradient id="a"><stop offset="0" stop-color="#fff" stop-opacity=".783"/><stop offset="1" stop-color="#fff" stop-opacity=".392"/></linearGradient><linearGradient xlink:href="#a" id="q" x1="24.023" x2="24" y1="5.112" y2="42.262" gradientTransform="matrix(.93565 0 0 .26865 10.296 15.137)" gradientUnits="userSpaceOnUse"/><linearGradient xlink:href="#b" id="u" x1="92" x2="92" y1="34" y2="44" gradientTransform="matrix(.11425 0 0 .30849 30.352 9.72)" gradientUnits="userSpaceOnUse"/><linearGradient xlink:href="#c" id="p" x1="20" x2="108" y1="-12.5" y2="-12.5" gradientTransform="matrix(.34276 0 0 2.0566 10.812 52.085)" gradientUnits="userSpaceOnUse"/><linearGradient xlink:href="#c" id="j" x1="20" x2="108" y1="-12.5" y2="-12.5" gradientTransform="matrix(.34276 0 0 2.0566 10.812 64.082)" gradientUnits="userSpaceOnUse"/><linearGradient xlink:href="#d" id="w" x1="31" x2="38" y1="49.5" y2="49.5" gradientTransform="translate(10.812 10.268)scale(.34276)" gradientUnits="userSpaceOnUse"/><linearGradient xlink:href="#d" id="y" x1="89" x2="96" y1="84.5" y2="84.5" gradientTransform="translate(10.812 10.268)scale(.34276)" gradientUnits="userSpaceOnUse"/><linearGradient xlink:href="#a" id="e" x1="24.023" x2="24" y1="5.112" y2="42.262" gradientTransform="matrix(.93565 0 0 .26865 10.296 39.131)" gradientUnits="userSpaceOnUse"/><linearGradient xlink:href="#b" id="f" x1="92" x2="92" y1="34" y2="44" gradientTransform="matrix(.11425 0 0 .30849 31.38 33.713)" gradientUnits="userSpaceOnUse"/><linearGradient xlink:href="#b" id="g" x1="92" x2="92" y1="34" y2="44" gradientTransform="matrix(.11425 0 0 .30849 32.409 33.713)" gradientUnits="userSpaceOnUse"/><linearGradient xlink:href="#b" id="h" x1="92" x2="92" y1="34" y2="44" gradientTransform="matrix(.11425 0 0 .30849 33.437 33.713)" gradientUnits="userSpaceOnUse"/><linearGradient xlink:href="#b" id="i" x1="92" x2="92" y1="34" y2="44" gradientTransform="matrix(.11425 0 0 .30849 30.352 33.713)" gradientUnits="userSpaceOnUse"/><linearGradient xlink:href="#a" id="k" x1="24.023" x2="24" y1="5.112" y2="42.262" gradientTransform="matrix(.93565 0 0 .26865 10.296 27.134)" gradientUnits="userSpaceOnUse"/><linearGradient xlink:href="#b" id="l" x1="92" x2="92" y1="34" y2="44" gradientTransform="matrix(.11425 0 0 .30849 31.38 21.717)" gradientUnits="userSpaceOnUse"/><linearGradient xlink:href="#b" id="m" x1="92" x2="92" y1="34" y2="44" gradientTransform="matrix(.11425 0 0 .30849 32.409 21.717)" gradientUnits="userSpaceOnUse"/><linearGradient xlink:href="#b" id="n" x1="92" x2="92" y1="34" y2="44" gradientTransform="matrix(.11425 0 0 .30849 33.437 21.717)" gradientUnits="userSpaceOnUse"/><linearGradient xlink:href="#b" id="o" x1="92" x2="92" y1="34" y2="44" gradientTransform="matrix(.11425 0 0 .30849 30.352 21.717)" gradientUnits="userSpaceOnUse"/><linearGradient xlink:href="#b" id="r" x1="92" x2="92" y1="34" y2="44" gradientTransform="matrix(.11425 0 0 .30849 31.38 9.72)" gradientUnits="userSpaceOnUse"/><linearGradient xlink:href="#b" id="s" x1="92" x2="92" y1="34" y2="44" gradientTransform="matrix(.11425 0 0 .30849 32.409 9.72)" gradientUnits="userSpaceOnUse"/><linearGradient xlink:href="#b" id="t" x1="92" x2="92" y1="34" y2="44" gradientTransform="matrix(.11425 0 0 .30849 33.437 9.72)" gradientUnits="userSpaceOnUse"/><filter id="v" width="1.48" height="2.44" x="-.24" y="-.72" color-interpolation-filters="sRGB"><feGaussianBlur stdDeviation="1.5"/></filter><filter id="x" width="1.48" height="2.44" x="-.24" y="-.72" color-interpolation-filters="sRGB"><feGaussianBlur stdDeviation="1.5"/></filter></defs><rect width="56.002" height="56.002" x="4" y="3.969" fill="#b3b3b3" rx="13.002" ry="13.002"/><path d="M3.998 45.998v1c0 7.203 5.8 13.004 13.004 13.004h29.996c7.203 0 13.004-5.8 13.004-13.004v-1c0 7.203-5.8 13.002-13.004 13.002H17.002A12.975 12.975 0 0 1 3.998 45.998" opacity=".1"/><path fill="#fff" d="M3.998 18.004v-1C3.998 9.801 9.798 4 17.002 4h29.996c7.203 0 13.004 5.8 13.004 13.004v1c0-7.203-5.8-13.002-13.004-13.002H17.002A12.975 12.975 0 0 0 3.998 18.004" opacity=".2"/><g transform="translate(-1.724 -.635)scale(1.0297)"><rect width="30.849" height="2.742" x="17.324" y="37.004" fill="#eee" opacity=".4" rx=".686" ry=".686"/><path fill="#dbdbdb" d="M19.362 36.752c.088-.053.262-.091.262-.091H45.6s.315.017.493.107.365.284.365.284l3.51 4.065H15.613l3.5-4.137s.161-.176.249-.228" enable-background="accumulate"/><path fill="#eee" d="M16.813 40.431H48.69c.855 0 1.542.688 1.542 1.542v7.198a1.54 1.54 0 0 1-1.542 1.543H16.813a1.54 1.54 0 0 1-1.542-1.543v-7.198c0-.854.688-1.542 1.542-1.542" enable-background="accumulate"/></g><path fill="none" stroke="url(#e)" stroke-linecap="round" stroke-linejoin="round" stroke-width=".343" d="M16.813 40.608H48.69c.76 0 1.371.611 1.371 1.371v7.198c0 .76-.611 1.371-1.371 1.371H16.813c-.76 0-1.371-.611-1.371-1.371v-7.198c0-.76.611-1.371 1.371-1.371" transform="translate(-1.724 -.635)scale(1.0297)"/><g transform="translate(-1.724 -.635)scale(1.0297)"><g fill-rule="evenodd"><path fill="#fff" d="M17.67 42.831a.343.343 0 0 1-.686 0 .343.343 0 1 1 .686 0" enable-background="accumulate"/><path d="M17.67 42.488a.343.343 0 0 1-.686 0 .343.343 0 1 1 .686 0" enable-background="accumulate" opacity=".3"/><path fill="#fff" d="M48.518 42.831a.343.343 0 0 1-.686 0 .343.343 0 1 1 .686 0" enable-background="accumulate" opacity=".8"/><path d="M48.518 42.488a.343.343 0 0 1-.686 0 .343.343 0 1 1 .686 0" enable-background="accumulate" opacity=".3"/><path fill="#fff" d="M17.67 49a.343.343 0 0 1-.686 0 .343.343 0 1 1 .686 0" enable-background="accumulate"/><path d="M17.67 48.658a.343.343 0 0 1-.686 0 .343.343 0 1 1 .686 0" enable-background="accumulate" opacity=".3"/><path fill="#fff" d="M48.518 49a.343.343 0 0 1-.686 0 .343.343 0 1 1 .686 0" enable-background="accumulate" opacity=".8"/><path d="M48.518 48.658a.343.343 0 0 1-.686 0 .343.343 0 1 1 .686 0" enable-background="accumulate" opacity=".3"/></g><path fill="url(#f)" d="M41.663 44.202h.343v3.085h-.343z"/><path fill="#fff" d="M41.663 47.287h.343v.343h-.343z" opacity=".9"/><path fill="url(#g)" d="M42.691 44.202h.343v3.085h-.343z"/><path fill="#fff" d="M42.691 47.287h.343v.343h-.343z" opacity=".9"/><path fill="url(#h)" d="M43.72 44.202h.343v3.085h-.343z"/><path fill="#fff" d="M43.72 47.287h.343v.343h-.343z" opacity=".9"/><path fill="url(#i)" d="M40.635 44.202h.343v3.085h-.343z"/><path fill="#fff" d="M40.635 47.287h.343v.343h-.343z" opacity=".9"/><circle cx="22.126" cy="45.23" r=".686" fill="#fff"/><circle cx="22.126" cy="45.573" r=".686" fill="#8cd5ff"/><path fill="#64baff" d="M22.789 45.4a.686.686 0 0 1-.663.515.686.686 0 0 1-.664-.512.7.7 0 0 0-.022.17.686.686 0 0 0 .686.685.686.686 0 0 0 .685-.685.7.7 0 0 0-.022-.173"/><circle cx="20.069" cy="45.23" r=".686" fill="#fff"/><circle cx="20.069" cy="45.573" r=".686" fill="#8cd5ff"/><path fill="#64baff" d="M20.733 45.4a.686.686 0 0 1-.663.515.686.686 0 0 1-.664-.512.7.7 0 0 0-.022.17.686.686 0 0 0 .686.685.686.686 0 0 0 .685-.685.7.7 0 0 0-.022-.173"/><circle cx="24.182" cy="45.23" r=".686" fill="#fff"/><circle cx="24.182" cy="45.573" r=".686" fill="#9bdb4d"/><path fill="#68b723" d="M24.846 45.4a.686.686 0 0 1-.663.515.686.686 0 0 1-.664-.512.7.7 0 0 0-.022.17.686.686 0 0 0 .686.685.686.686 0 0 0 .685-.685.7.7 0 0 0-.022-.173"/><rect width="30.163" height="2.057" x="17.667" y="37.346" fill="url(#j)" rx=".343" ry=".343"/><path fill="#dbdbdb" d="M19.362 24.755c.088-.053.262-.091.262-.091H45.6s.315.017.493.107.365.284.365.284l3.51 4.065H15.613l3.5-4.137s.161-.176.249-.228" enable-background="accumulate"/><path fill="#eee" d="M16.813 28.435H48.69c.855 0 1.542.688 1.542 1.542v7.198a1.54 1.54 0 0 1-1.542 1.543H16.813a1.54 1.54 0 0 1-1.542-1.543v-7.198c0-.854.688-1.542 1.542-1.542" enable-background="accumulate"/></g><path fill="none" stroke="url(#k)" stroke-linecap="round" stroke-linejoin="round" stroke-width=".343" d="M16.813 28.612H48.69c.76 0 1.371.611 1.371 1.371v7.198c0 .76-.611 1.371-1.371 1.371H16.813c-.76 0-1.371-.611-1.371-1.371v-7.198c0-.76.611-1.371 1.371-1.371" transform="translate(-1.724 -.635)scale(1.0297)"/><g transform="translate(-1.724 -.635)scale(1.0297)"><g fill-rule="evenodd"><path fill="#fff" d="M17.67 30.834a.343.343 0 0 1-.686 0 .343.343 0 1 1 .686 0" enable-background="accumulate"/><path d="M17.67 30.491a.343.343 0 0 1-.686 0 .343.343 0 1 1 .686 0" enable-background="accumulate" opacity=".3"/><path fill="#fff" d="M48.518 30.834a.343.343 0 0 1-.686 0 .343.343 0 1 1 .686 0" enable-background="accumulate" opacity=".8"/><path d="M48.518 30.491a.343.343 0 0 1-.686 0 .343.343 0 1 1 .686 0" enable-background="accumulate" opacity=".3"/><path fill="#fff" d="M17.67 37.004a.343.343 0 0 1-.686 0 .343.343 0 1 1 .686 0" enable-background="accumulate"/><path d="M17.67 36.661a.343.343 0 0 1-.686 0 .343.343 0 1 1 .686 0" enable-background="accumulate" opacity=".3"/><path fill="#fff" d="M48.518 37.004a.343.343 0 0 1-.686 0 .343.343 0 1 1 .686 0" enable-background="accumulate" opacity=".8"/><path d="M48.518 36.661a.343.343 0 0 1-.686 0 .343.343 0 1 1 .686 0" enable-background="accumulate" opacity=".3"/></g><path fill="url(#l)" d="M41.663 32.205h.343v3.085h-.343z"/><path fill="#fff" d="M41.663 35.29h.343v.343h-.343z" opacity=".9"/><path fill="url(#m)" d="M42.691 32.205h.343v3.085h-.343z"/><path fill="#fff" d="M42.691 35.29h.343v.343h-.343z" opacity=".9"/><path fill="url(#n)" d="M43.72 32.205h.343v3.085h-.343z"/><path fill="#fff" d="M43.72 35.29h.343v.343h-.343z" opacity=".9"/><path fill="url(#o)" d="M40.635 32.205h.343v3.085h-.343z"/><path fill="#fff" d="M40.635 35.29h.343v.343h-.343z" opacity=".9"/><circle cx="22.126" cy="33.233" r=".686" fill="#fff"/><circle cx="22.126" cy="33.576" r=".686" fill="#8cd5ff"/><path fill="#64baff" d="M22.789 33.403a.686.686 0 0 1-.663.515.686.686 0 0 1-.664-.512.7.7 0 0 0-.022.17.686.686 0 0 0 .686.685.686.686 0 0 0 .685-.685.7.7 0 0 0-.022-.173"/><circle cx="20.069" cy="33.233" r=".686" fill="#fff"/><circle cx="20.069" cy="33.576" r=".686" fill="#8cd5ff"/><path fill="#64baff" d="M20.733 33.403a.686.686 0 0 1-.663.515.686.686 0 0 1-.664-.512.7.7 0 0 0-.022.17.686.686 0 0 0 .686.685.686.686 0 0 0 .685-.685.7.7 0 0 0-.022-.173"/><circle cx="24.182" cy="33.233" r=".686" fill="#fff"/><circle cx="24.182" cy="33.576" r=".686" fill="#9bdb4d"/><path fill="#68b723" d="M24.846 33.403a.686.686 0 0 1-.663.515.686.686 0 0 1-.664-.512.7.7 0 0 0-.022.17.686.686 0 0 0 .686.685.686.686 0 0 0 .685-.685.7.7 0 0 0-.022-.173"/><rect width="30.849" height="2.742" x="17.324" y="25.007" fill="#104785" opacity=".4" rx=".686" ry=".686"/><rect width="30.163" height="2.057" x="17.667" y="25.35" fill="url(#p)" rx=".343" ry=".343"/><path fill="#dbdbdb" d="M19.362 12.759c.088-.053.262-.091.262-.091H45.6s.315.017.493.107.365.284.365.284l3.51 4.065H15.613l3.5-4.137s.161-.176.249-.228" enable-background="accumulate"/><path fill="#eee" d="M16.813 16.438H48.69c.855 0 1.542.688 1.542 1.542v7.198a1.54 1.54 0 0 1-1.542 1.543H16.813a1.54 1.54 0 0 1-1.542-1.543V17.98c0-.854.688-1.542 1.542-1.542" enable-background="accumulate"/></g><path fill="none" stroke="url(#q)" stroke-linecap="round" stroke-linejoin="round" stroke-width=".343" d="M16.813 16.615H48.69c.76 0 1.371.611 1.371 1.371v7.198c0 .76-.611 1.371-1.371 1.371H16.813c-.76 0-1.371-.611-1.371-1.371v-7.198c0-.76.611-1.371 1.371-1.371" transform="translate(-1.724 -.635)scale(1.0297)"/><g transform="translate(-1.724 -.635)scale(1.0297)"><g fill-rule="evenodd"><path fill="#fff" d="M17.67 18.837a.343.343 0 0 1-.686 0 .343.343 0 1 1 .686 0" enable-background="accumulate"/><path d="M17.67 18.495a.343.343 0 0 1-.686 0 .343.343 0 1 1 .686 0" enable-background="accumulate" opacity=".3"/><path fill="#fff" d="M48.518 18.837a.343.343 0 0 1-.686 0 .343.343 0 1 1 .686 0" enable-background="accumulate" opacity=".8"/><path d="M48.518 18.495a.343.343 0 0 1-.686 0 .343.343 0 1 1 .686 0" enable-background="accumulate" opacity=".3"/><path fill="#fff" d="M17.67 25.007a.343.343 0 0 1-.686 0 .343.343 0 1 1 .686 0" enable-background="accumulate"/><path d="M17.67 24.664a.343.343 0 0 1-.686 0 .343.343 0 1 1 .686 0" enable-background="accumulate" opacity=".3"/><path fill="#fff" d="M48.518 25.007a.343.343 0 0 1-.686 0 .343.343 0 1 1 .686 0" enable-background="accumulate" opacity=".8"/><path d="M48.518 24.664a.343.343 0 0 1-.686 0 .343.343 0 1 1 .686 0" enable-background="accumulate" opacity=".3"/></g><path fill="url(#r)" d="M41.663 20.208h.343v3.085h-.343z"/><path fill="#fff" d="M41.663 23.293h.343v.343h-.343z" opacity=".9"/><path fill="url(#s)" d="M42.691 20.208h.343v3.085h-.343z"/><path fill="#fff" d="M42.691 23.293h.343v.343h-.343z" opacity=".9"/><path fill="url(#t)" d="M43.72 20.208h.343v3.085h-.343z"/><path fill="#fff" d="M43.72 23.293h.343v.343h-.343z" opacity=".9"/><path fill="url(#u)" d="M40.635 20.208h.343v3.085h-.343z"/><path fill="#fff" d="M40.635 23.293h.343v.343h-.343z" opacity=".9"/><circle cx="22.126" cy="21.237" r=".686" fill="#fff"/><circle cx="22.126" cy="21.579" r=".686" fill="#8cd5ff"/><path fill="#64baff" d="M22.789 21.407a.686.686 0 0 1-.663.515.686.686 0 0 1-.664-.512.7.7 0 0 0-.022.17.686.686 0 0 0 .686.685.686.686 0 0 0 .685-.685.7.7 0 0 0-.022-.173"/><circle cx="20.069" cy="21.237" r=".686" fill="#fff"/><circle cx="20.069" cy="21.579" r=".686" fill="#8cd5ff"/><path fill="#64baff" d="M20.733 21.407a.686.686 0 0 1-.663.515.686.686 0 0 1-.664-.512.7.7 0 0 0-.022.17.686.686 0 0 0 .686.685.686.686 0 0 0 .685-.685.7.7 0 0 0-.022-.173"/><circle cx="24.182" cy="21.237" r=".686" fill="#fff"/><circle cx="24.182" cy="21.579" r=".686" fill="#9bdb4d"/><path fill="#68b723" d="M24.846 21.407a.686.686 0 0 1-.663.515.686.686 0 0 1-.664-.512.7.7 0 0 0-.022.17.686.686 0 0 0 .686.685.686.686 0 0 0 .685-.685.7.7 0 0 0-.022-.173"/><path fill="#8cd5ff" d="M27 47h15v5H27z" filter="url(#v)" opacity=".8" transform="translate(10.812 10.268)scale(.34276)"/><path fill="url(#w)" d="M21.437 27.064h2.399v.343h-2.399z"/><path fill="#8cd5ff" d="M85 82h15v5H85z" filter="url(#x)" opacity=".8" transform="translate(10.812 10.268)scale(.34276)"/><path fill="url(#y)" d="M41.318 39.06h2.399v.343h-2.399z"/></g></svg>