<svg xmlns="http://www.w3.org/2000/svg" image-rendering="optimizeSpeed" viewBox="0 0 64 64"><rect width="56.002" height="56.002" x="4" y="3.969" fill="#7dd644" rx="13.002" ry="13.002"/><path d="M3.998 45.998v1c0 7.203 5.8 13.004 13.004 13.004h29.996c7.203 0 13.004-5.8 13.004-13.004v-1c0 7.203-5.8 13.002-13.004 13.002H17.002A12.975 12.975 0 0 1 3.998 45.998" opacity=".15"/><path fill="#fff" d="M3.998 18.004v-1C3.998 9.801 9.798 4 17.002 4h29.996c7.203 0 13.004 5.8 13.004 13.004v1c0-7.203-5.8-13.002-13.004-13.002H17.002A12.975 12.975 0 0 0 3.998 18.004" opacity=".15"/><path fill="#fff" d="M31.89 16.662c-8.84 0-15.94 7.1-15.94 15.94s7.1 15.94 15.94 15.94 15.94-7.1 15.94-15.94-7.1-15.94-15.94-15.94m7.028 18.621-6.52 6.52a.78.78 0 0 1-.508.218.66.66 0 0 1-.507-.217l-6.52-6.521c-.146-.145-.218-.29-.218-.507s.072-.362.217-.507l1.015-1.015a.7.7 0 0 1 1.014 0l2.898 2.899c.218.217.652.072.652-.29V23.907c0-.435.29-.725.725-.725h1.45c.434 0 .724.29.724.725v12.028c0 .29.362.507.652.29l2.898-2.899a.7.7 0 0 1 1.014 0l1.015 1.015c.145.145.217.29.217.507q0 .218-.217.435z"/></svg>