<svg xmlns="http://www.w3.org/2000/svg" viewBox="0 0 16.933 16.933"><rect width="14.817" height="14.817" x="1.058" y="1.05" fill="#ff4e5e" rx="3.44" ry="3.44"/><path d="M1.058 12.17v.265a3.433 3.433 0 0 0 3.44 3.44h7.937a3.433 3.433 0 0 0 3.44-3.44v-.265a3.433 3.433 0 0 1-3.44 3.44H4.498a3.433 3.433 0 0 1-3.44-3.44" opacity=".15"/><path fill="#fff" d="M1.058 4.763V4.5a3.433 3.433 0 0 1 3.44-3.44h7.937a3.433 3.433 0 0 1 3.44 3.44v.265a3.433 3.433 0 0 0-3.44-3.44H4.498a3.433 3.433 0 0 0-3.44 3.44z" opacity=".15"/><path fill="#fff" fill-rule="evenodd" d="m4.391 6.04 3.405 6.016s.185.322.649.322c.463 0 .647-.322.647-.322s2.367-3.625 3.333-5.558c.097-.195.202-.392.246-.603a1 1 0 0 0 .009-.443.95.95 0 0 0-.255-.478 1 1 0 0 0-.571-.248 1.2 1.2 0 0 0-.659.133.86.86 0 0 0-.34.33 1.05 1.05 0 0 0-.108.457 1.3 1.3 0 0 0 .07.428c.033.088.074.173.108.259.026.074.064.144.071.221a.8.8 0 0 1-.034.37c-.222.565-.605 1.105-1.11 1.436-.21.136-.478.17-.727.182-.285.012-.615-.01-.845-.137-.231-.125-.34-.344-.485-.536-.665-.883-1.751-2.815-1.751-2.815s-.473-.835-1.323-.33c-.85.507-.331 1.317-.331 1.317z"/></svg>