<svg xmlns="http://www.w3.org/2000/svg" viewBox="0 0 16.933 16.933"><rect width="14.816" height="14.816" x="1.058" y="1.058" fill="#ec4c7a" rx="3.44" ry="3.44"/><path d="M1.058 12.17v.265a3.433 3.433 0 0 0 3.44 3.44h7.937a3.433 3.433 0 0 0 3.44-3.44v-.265a3.433 3.433 0 0 1-3.44 3.44H4.498a3.433 3.433 0 0 1-3.44-3.44" opacity=".15"/><path fill="#fff" d="M1.058 4.763V4.5a3.433 3.433 0 0 1 3.44-3.44h7.937a3.433 3.433 0 0 1 3.44 3.44v.265a3.433 3.433 0 0 0-3.44-3.44H4.498a3.433 3.433 0 0 0-3.44 3.44z" opacity=".15"/><rect width="10.583" height="10.583" x="3.175" y="3.175" fill="#3e3e3e" fill-rule="evenodd" rx="1.588" ry="1.588" style="paint-order:stroke fill markers"/><path fill="#fff" d="M4.941 11.112h3.97v.794h-3.97zM4.93 4.768v4.23h.77v-1.54h.615l.924 1.54h.768l-.96-1.605c.595-.14.962-.529.962-1.263v-.02c0-.855-.417-1.346-1.413-1.346zm3.463 0v4.23h1.153l.599-.007c.745-.009 1.709-.756 1.709-2.1v-.018c0-1.33-.801-2.106-1.796-2.106zM5.7 5.535h.77c.462 0 .768.151.768.568v.02c0 .346-.306.568-.768.567H5.7zm3.463 0h.767c.465 0 1.156.392 1.156 1.338v.019c0 .958-.691 1.337-1.154 1.337h-.77z"/></svg>