<svg xmlns="http://www.w3.org/2000/svg" viewBox="0 0 16.933 16.933"><defs><radialGradient id="a" cx="55" cy="15" r="28.001" gradientTransform="matrix(-.37795 0 0 -.47243 35.34 11.055)" gradientUnits="userSpaceOnUse"><stop offset="0" stop-color="#42e863"/><stop offset=".3" stop-color="#42e863"/><stop offset="1" stop-color="#42e863" stop-opacity="0"/></radialGradient></defs><rect width="16.933" height="16.933" fill="none" rx="0" ry="0" style="paint-order:stroke fill markers"/><rect width="14.817" height="14.817" x="1.058" y="1.05" fill="#009aff" rx="3.44" ry="3.44"/><circle cx="8.472" cy="8.478" r="7.938" fill="none"/><rect width="14.817" height="14.817" x="1.058" y="1.05" fill="url(#a)" opacity=".9" rx="3.44" ry="3.44"/><rect width="14.817" height="14.817" x="1.058" y="1.05" fill="#7681f9" rx="3.44" ry="3.44"/><rect width="10.583" height="10.583" x="3.175" y="3.175" fill="#3e3e3e" fill-rule="evenodd" rx="1.588" ry="1.588" style="paint-order:stroke fill markers"/><path fill="#f2f2f2" d="M4.762 11.112h3.97v.794h-3.97z"/><path fill="#fff" d="M6.49 9.012c.567 0 1.046-.22 1.322-.49V6.68h-1.45v.666h.722v.805c-.115.1-.314.154-.507.154-.804 0-1.212-.534-1.212-1.422 0-.876.474-1.405 1.152-1.405.37 0 .6.149.804.342l.43-.518a1.72 1.72 0 0 0-1.262-.524c-1.086 0-1.956.788-1.956 2.133 0 1.361.848 2.1 1.956 2.1zm3.819 0c1.08 0 1.824-.81 1.824-2.133s-.744-2.1-1.824-2.1-1.825.771-1.825 2.1c0 1.323.745 2.133 1.825 2.133m0-.706c-.606 0-.992-.556-.992-1.427 0-.876.386-1.4.992-1.4s.992.524.992 1.4c0 .87-.386 1.427-.992 1.427" aria-label="GO"/><path d="M1.058 12.17v.265a3.433 3.433 0 0 0 3.44 3.44h7.937a3.433 3.433 0 0 0 3.44-3.44v-.265a3.433 3.433 0 0 1-3.44 3.44H4.498a3.433 3.433 0 0 1-3.44-3.44" opacity=".15"/><path fill="#fff" d="M1.058 4.763V4.5a3.433 3.433 0 0 1 3.44-3.44h7.937a3.433 3.433 0 0 1 3.44 3.44v.265a3.433 3.433 0 0 0-3.44-3.44H4.498a3.433 3.433 0 0 0-3.44 3.44z" opacity=".15"/></svg>