<svg xmlns="http://www.w3.org/2000/svg" viewBox="0 0 64 64"><rect width="64" height="64" fill="none" rx="0" ry="0" style="paint-order:stroke fill markers"/><rect width="56.002" height="56.002" x="4" y="3.969" fill="#c6a05d" rx="13.002" ry="13.002"/><circle cx="32.02" cy="32.044" r="30.001" fill="none"/><path fill="#825d21" d="M31.997 12.434c-10.806 0-19.565 8.759-19.565 19.565s8.759 19.564 19.565 19.564S51.56 42.805 51.56 32s-8.758-19.565-19.564-19.565z"/><path fill="#d6b987" d="M30.692 16.409a15.65 15.65 0 0 0-14.28 14.286h14.28zm2.609.005v14.28h14.286a15.65 15.65 0 0 0-14.286-14.28m-16.895 16.89a15.65 15.65 0 0 0 14.286 14.28v-14.28zm16.895 0v14.285a15.65 15.65 0 0 0 14.28-14.286z"/><path d="M3.998 45.998v1c0 7.203 5.8 13.004 13.004 13.004h29.996c7.203 0 13.004-5.8 13.004-13.004v-1c0 7.203-5.8 13.002-13.004 13.002H17.002A12.975 12.975 0 0 1 3.998 45.998" opacity=".15"/><path fill="#fff" d="M3.998 18.004v-1C3.998 9.801 9.798 4 17.002 4h29.996c7.203 0 13.004 5.8 13.004 13.004v1c0-7.203-5.8-13.002-13.004-13.002H17.002A12.975 12.975 0 0 0 3.998 18.004" opacity=".15"/></svg>