<svg xmlns="http://www.w3.org/2000/svg" xmlns:xlink="http://www.w3.org/1999/xlink" fill="none" viewBox="0 0 64 64"><path fill="url(#a)" d="M1.559 1.999h60.882V64H1.559z"/><path fill="#f2f2f2" d="M17.001 3.999A12.973 12.973 0 0 0 3.999 17.001v29.998a12.973 12.973 0 0 0 13.002 13.002h29.998a12.975 12.975 0 0 0 13.002-13.002V17.001A12.975 12.975 0 0 0 46.999 3.999z"/><path fill="#4285f4" d="M45.423 49.509a.731.731 0 0 1-1.34.569l-1.76-3.27a1.075 1.075 0 1 1 1.972-.837z"/><mask id="b" width="11" height="14" x="39" y="25" maskUnits="userSpaceOnUse" style="mask-type:alpha"><path fill="#fff" d="M44.047 37.775a6.25 6.25 0 0 0 2.682-3.883l.014.003.74.139 1.24.233a.573.573 0 0 0 .578-.884.57.57 0 0 0-.367-.239l-.518-.097-.721-.136-.74-.14-.08-.014.002-.061a6.2 6.2 0 0 0-.357-2.236l-.022-.06a6.2 6.2 0 0 0-1.137-1.941l.05-.058.487-.572.477-.558.343-.401a.571.571 0 1 0-.872-.742l-.342.401-.476.558-.489.572-.004.005a6.3 6.3 0 0 0-3.043-1.318 6.2 6.2 0 0 0-2.308.104l4.144 11.729a6 6 0 0 0 .72-.404z"/></mask><g mask="url(#b)"><path fill="#4faf53" d="m50.373 35.769-4.42-12.525-7.047 2.486 4.42 12.525z"/></g><path fill="#000" d="M43.859 35.096c.28.21.713.108.968-.23.254-.338.233-.782-.048-.993-.28-.21-.714-.107-.968.23-.254.338-.233.782.048.993"/><g filter="url(#c)"><path fill="#000" d="M42.132 29.302c.41.104.81-.081.895-.413s-.18-.685-.59-.788c-.41-.104-.811.081-.895.413s.18.685.59.788"/></g><path fill="#4386f5" d="M19.716 29.587a2.4 2.4 0 0 0-1.549-1.147 2.77 2.77 0 0 0-2.005.296 2.78 2.78 0 0 0-1.285 1.567c-.207.653-.083 1.442.242 2.018l2.378-1.227 2.22-1.507z"/><path fill="#4285f4" fill-rule="evenodd" d="M19.695 29.552c3.441 5.697 10.645 8.134 16.94 5.444l2.102 4.917c-8.782 3.753-18.82.35-23.62-7.596z" clip-rule="evenodd"/><path fill="#4285f4" d="M18.689 49.509a.73.73 0 0 0 1.34.569l1.761-3.27a1.077 1.077 0 1 0-1.973-.837z"/><path fill="#4285f4" d="M27.674 18.685a3.028 3.028 0 0 1 5.69 2.071l-8.885 24.41a3.026 3.026 0 1 1-5.69-2.07l8.884-24.411z"/><path fill="#4285f4" d="M33.962 13.175a1.903 1.903 0 1 0-3.809 0v3.613a1.903 1.903 0 1 0 3.809 0z"/><path fill="#4285f4" d="M30.691 20.728a2.993 2.993 0 0 1 5.62-2.06l8.961 24.456a2.992 2.992 0 1 1-5.62 2.059z"/><path fill="#fff" d="M32.009 24.064a3.711 3.711 0 1 0 0-7.423 3.711 3.711 0 0 0 0 7.423"/><path fill="#202124" fill-rule="evenodd" d="M32.009 17.619a2.735 2.735 0 1 0 0 5.469 2.735 2.735 0 0 0 0-5.47zm-4.688 2.734a4.688 4.688 0 1 1 9.376 0 4.688 4.688 0 0 1-9.376 0" clip-rule="evenodd"/><path fill="#000" d="M3.998 45.998v1c0 7.203 5.8 13.004 13.004 13.004h29.996c7.203 0 13.004-5.8 13.004-13.004v-1c0 7.203-5.8 13.002-13.004 13.002H17.002A12.976 12.976 0 0 1 3.998 45.998" opacity=".15"/><path fill="#fff" d="M3.998 18.004v-1C3.998 9.801 9.798 4 17.002 4h29.996c7.203 0 13.004 5.8 13.004 13.004v1c0-7.203-5.8-13.002-13.004-13.002H17.002A12.975 12.975 0 0 0 3.998 18.004" opacity=".5"/><defs><pattern id="a" width="1" height="1" patternContentUnits="objectBoundingBox"><use xlink:href="#d" transform="scale(.00398)"/></pattern><filter id="c" width="1.564" height="1.307" x="41.49" y="28.071" color-interpolation-filters="sRGB" filterUnits="userSpaceOnUse"><feFlood flood-opacity="0" result="BackgroundImageFix"/><feColorMatrix in="SourceAlpha" result="hardAlpha" values="0 0 0 0 0 0 0 0 0 0 0 0 0 0 0 0 0 0 127 0"/><feOffset dx="-.012" dy=".023"/><feGaussianBlur stdDeviation=".012"/><feComposite in2="hardAlpha" operator="out"/><feColorMatrix values="0 0 0 0 0.0156863 0 0 0 0 0.231373 0 0 0 0 0.0666667 0 0 0 0.7 0"/><feBlend in2="BackgroundImageFix" result="effect1_dropShadow_5_658"/><feBlend in="SourceGraphic" in2="effect1_dropShadow_5_658" result="shape"/></filter></defs></svg>