<svg xmlns="http://www.w3.org/2000/svg" xml:space="preserve" viewBox="0 0 16.933 16.933"><rect width="14.817" height="14.817" x="1.058" y="1.05" fill="#f2f2f2" rx="3.44" ry="3.44"/><path d="M1.058 12.17v.265a3.433 3.433 0 0 0 3.44 3.44h7.937a3.433 3.433 0 0 0 3.44-3.44v-.265a3.433 3.433 0 0 1-3.44 3.44H4.498a3.433 3.433 0 0 1-3.44-3.44" opacity=".1"/><path fill="#fff" d="M1.058 4.763V4.5a3.433 3.433 0 0 1 3.44-3.44h7.937a3.433 3.433 0 0 1 3.44 3.44v.265a3.433 3.433 0 0 0-3.44-3.44H4.498a3.433 3.433 0 0 0-3.44 3.44z" opacity=".5"/><path fill="#3d3846" d="M3.094 9.688H7v3.907H3.094Zm0-6.35H7v3.907H3.094Zm6.838 0h3.907v3.907H9.932Zm0 0"/><path fill="#f6f5f4" d="M4.07 4.315h1.954v1.953H4.07Zm0 0"/><path fill="#3d3846" d="M4.559 4.803h.977v.977h-.977zm0 0"/><path fill="#f6f5f4" d="M10.909 4.315h1.954v1.953h-1.954Zm0 0"/><path fill="#3d3846" d="M11.397 4.803h.977v.977h-.977zm0 0"/><path fill="#f6f5f4" d="M4.07 10.665h1.954v1.953H4.07Zm0 0"/><g fill="#3d3846"><path d="M4.559 11.153h.977v.977h-.977zM3.094 7.734h.488v.488h-.488zm.488.488h.977V9.2h-.977zm.977-.488h.977v.488h-.977zm1.465.488h.977V9.2h-.977zm1.466 0h2.442V9.2H7.49Zm-2.443.488h.489v.49h-.489zm.489-.488h.488v.489h-.488zm0 0"/><path d="M7.001 8.222h.489v.489H7zm.489-.488h.488v.488H7.49zm.488-.489h.489v.489h-.489zm.489.489h.976v.488h-.976zM7.49 6.268h1.953v.977H7.49Zm.488 3.42h1.465v.488H7.978Zm-.488 3.419h1.953v.488H7.49Zm0-2.931h.976v1.465H7.49zm.977-6.838h.976v1.465h-.976zm-.489 1.465h.489v.489h-.489zm.489.489h.488v.488h-.489zm0 0"/><path d="M7.49 5.78h.488v.488H7.49zm0-1.954h1.465v.489H7.49Zm2.93 4.884h1.466v-.488H10.42Zm.489-.488h.488v-.488h-.488zm.488 1.954h1.466v-.488h-1.466Zm0 0"/><path d="M10.42 9.2h.489v-.49h-.489zm-.488-.978h.488v-.488h-.488zm2.442-.488h.977v.977h-.977zm-2.931 2.442h1.954v.489H9.443Zm.977 0h.489v-.488h-.489zm-.488-.488h.488v-.489h-.488zm.488 1.465h1.466v1.465H10.42Zm-.977 1.465h.489v.489h-.489zm-.488-.488h.488v-.489h-.488zm-.488-.489h.488v-.488h-.489zm-.977.489h.488v.488H7.49zm.732.488h.489v.489h-.489zm2.198.489h.977v.488h-.977zM7.49 9.2h.488v.488H7.49zm5.861 1.465h.488v-.489h-.488zm0-.977h.488v-.489h-.488zm-1.465 2.93h.488v-.488h-.488zm.488-.488h.489v-.489h-.489zm0 0"/><path d="M11.397 11.153h.489v1.954h-.489zm.977 1.465h1.465v.977h-1.465Zm.977 0h.488v-.488h-.488zm0 0"/><path d="M11.886 11.641h.488v-.976h-.488zm.977 0h.488v-1.465h-.488zm-.977 1.954h.488v-.488h-.488zm0 0"/></g><g clip-path="url(#h)" mask="url(#f)" transform="translate(-.326 -1.058)scale(.12211)"><path fill="url(#g)" d="M20 100V60h104v40zm0 0"/></g></svg>