<svg xmlns="http://www.w3.org/2000/svg" viewBox="0 0 64 64"><rect width="56.002" height="56.002" x="4" y="3.969" fill="#f8474a" rx="13.002" ry="13.002"/><path fill="#fff" d="M26.039 24c-.046.031-.055 15.936-.01 15.986.017.018.066.018.108 0s2.784-1.573 6.095-3.457v.002C40.17 32.015 40 32.114 40 32.023c0-.085-13.893-8.07-13.961-8.023M55 6.72V10h2.975A13 13 0 0 0 55 6.72M9 6.724A13 13 0 0 0 6.027 10H9V6.723zM6 12v5h3v-5zm49 0v5h3v-5zM6 19v5h3v-5zm49 0v5h3v-5zM6 26v5h3v-5zm49 0v5h3v-5zM6 33v5h3v-5zm49 0v5h3v-5zM6 40v5h3v-5zm49 0v5h3v-5zM6 47v5h3v-5zm49 0v5h3v-5zM6.064 54A13 13 0 0 0 9 57.215V54zM55 54v3.217A13 13 0 0 0 57.938 54z"/><path d="M3.999 45.998V47A12.975 12.975 0 0 0 17 60.002h30A12.975 12.975 0 0 0 60.002 47v-1.002A12.975 12.975 0 0 1 47 59H17A12.975 12.975 0 0 1 4 45.998z" opacity=".15"/><path fill="#fff" d="M3.999 18.002v-.994A12.975 12.975 0 0 1 17 4.006h30a12.975 12.975 0 0 1 13.002 13.002v1.002A12.975 12.975 0 0 0 47 5.008H17A12.975 12.975 0 0 0 4 18.01z" opacity=".15"/></svg>