<svg xmlns="http://www.w3.org/2000/svg" viewBox="0 0 64 64"><rect width="56.002" height="56.002" x="4" y="3.969" fill="#ff8a24" rx="13.002" ry="13.002"/><circle cx="32.02" cy="32.044" r="30.001" fill="none"/><path d="M3.998 45.998v1c0 7.203 5.8 13.004 13.004 13.004h29.996c7.203 0 13.004-5.8 13.004-13.004v-1c0 7.203-5.8 13.002-13.004 13.002H17.002A12.975 12.975 0 0 1 3.998 45.998" opacity=".15"/><path fill="#fff" d="M3.998 18.004v-1C3.998 9.801 9.798 4 17.002 4h29.996c7.203 0 13.004 5.8 13.004 13.004v1c0-7.203-5.8-13.002-13.004-13.002H17.002A12.975 12.975 0 0 0 3.998 18.004" opacity=".15"/><path fill="#fcefc6" d="M17 8a8.98 8.991 0 0 0-9 9.011v29.977A8.986 8.986 0 0 0 17 56h29.999c4.986 0 9-4.02 9-9.012V17.011A8.986 8.986 0 0 0 47 8zm26.247 9.045a3.63 3.635 0 0 1 2.438.81l-3.229 3.217a.26.26 0 0 0 0 .345l2.508 2.497a3.64 3.645 0 0 1-4.21-.72l.014.03a3.646 3.65 0 0 1 .116-5.168 3.64 3.645 0 0 1 2.363-1.012m2.783 1.14a3.61 3.615 0 0 1-.115 5.038 4 4.005 0 0 1-.549.448l-2.406-2.411zm-.12 1.856a.26.26 0 0 0-.183.036c-.13.057-.202.217-.144.346 0 .015.014.015.014.03a.81.811 0 0 1-.1.893c-.1.101-.116.274-.016.375l.016.016c.058.014.13.014.188 0a.28.28 0 0 0 .2-.102 1.33 1.332 0 0 0 .173-1.5.23.23 0 0 0-.149-.094zm-7.247 2.521c.516.043.92.287 1.328.618a1.73 1.732 0 0 0-1.181.505L29.9 32.6l-1.902-1.904c6.573-6.57 9.117-8.26 10.664-8.135m1.357 1.169c.318 0 .635.118.88.355.245.246.374.578.36.91a1.25 1.252 0 0 1-.418.896l-9.384 8.284-1.195-1.255 8.878-8.835c.245-.237.563-.355.88-.355m1.383 2.233c-.302 2.684-4.079 6.494-7.956 10.203l-1.672-1.674 9.382-8.269c.087-.072.174-.16.246-.26m-13.751 5.022 1.774 1.819-4.022.865a.16.16 0 0 1-.187-.13c-.015-.058 0-.1.043-.145l.043-.056zm2.278 2.353.994.923-2.205.563a.11.11 0 0 1-.13 0 .13.13 0 0 1 0-.144zm1.412 1.371 1.744 1.744a48.602 48.662 0 0 1-10.203 6.553v.028h-.016a.465.466 0 0 0-.244.506l.402 1.731a.275.275 0 0 1-.115.29c-.086.072-.215.072-.287 0l-2.451-2.527 7.523-7.547zm-11.56 8.687 2.452 2.438-4.21-.273c-.057-.015-.116-.06-.13-.102a.3.3 0 0 1 0-.159z"/></svg>