<svg xmlns="http://www.w3.org/2000/svg" viewBox="0 0 64 64"><rect width="56.002" height="56.002" x="4" y="3.969" fill="#4d4d4d" rx="13.002" ry="13.002"/><path d="M3.998 45.998v1c0 7.203 5.8 13.004 13.004 13.004h29.996c7.203 0 13.004-5.8 13.004-13.004v-1c0 7.203-5.8 13.002-13.004 13.002H17.002A12.975 12.975 0 0 1 3.998 45.998" opacity=".35"/><path fill="#fff" d="M3.998 18.004v-1C3.998 9.801 9.798 4 17.002 4h29.996c7.203 0 13.004 5.8 13.004 13.004v1c0-7.203-5.8-13.002-13.004-13.002H17.002A12.975 12.975 0 0 0 3.998 18.004" opacity=".15"/><g fill-rule="evenodd"><path fill="#55c5e4" d="M46.686 47.34A2.61 2.61 0 0 1 48 49.603V57L17.325 39.384a2.63 2.63 0 0 1-1.326-2.283v-5.862c0-.471.127-.924.355-1.318 0 0 24.352 13.984 30.331 17.419z"/><path fill="#706bc8" d="m16 7 30.675 17.616A2.63 2.63 0 0 1 48 26.899v5.862c0 .47-.126.924-.355 1.318 0 0-24.352-13.984-30.331-17.419A2.61 2.61 0 0 1 16 14.396z"/><path fill="#997bc8" d="M18.952 50.964a1.95 1.95 0 0 0-.717.713 1.96 1.96 0 0 0 .695 2.664l-1.604-.921A2.63 2.63 0 0 1 16 51.137v-5.862c0-.942.505-1.812 1.325-2.283L45.05 27.073l.013-.008c.283-.165.529-.403.704-.706a1.96 1.96 0 0 0-.695-2.663l1.604.921A2.63 2.63 0 0 1 48 26.9v5.862c0 .941-.505 1.812-1.325 2.283l-1.648.946.022-.014z"/><path fill="#84ddea" d="M18.952 36.928a1.94 1.94 0 0 0-.717.714 1.96 1.96 0 0 0 .695 2.663l-1.604-.921A2.63 2.63 0 0 1 16 37.101v-5.862c0-.942.505-1.812 1.325-2.283L45.05 13.037l.013-.008a1.94 1.94 0 0 0 .704-.705 1.96 1.96 0 0 0-.695-2.664l1.604.921A2.63 2.63 0 0 1 48 12.865v5.86c0 .943-.505 1.813-1.325 2.284l-1.648.947.022-.015z"/></g></svg>