<svg xmlns="http://www.w3.org/2000/svg" width="64" height="64" fill="none" style="-webkit-print-color-adjust:exact"><defs><linearGradient id="a" x1="7.937" x2="7.937" y1="15.081" y2="1.852" gradientTransform="scale(3.7796)" gradientUnits="userSpaceOnUse"><stop offset="0" stop-color="#f1efeb"/><stop offset="1" stop-color="#fdfcfc"/></linearGradient><linearGradient id="b" x1="12" x2="52" y1="31.999" y2="31.999" gradientUnits="userSpaceOnUse"><stop offset="0" stop-color="#00d6ff"/><stop offset="1" stop-color="#076ff8"/></linearGradient></defs><rect width="56.002" height="56.002" x="4" y="3.969" fill="url(#a)" rx="13.002" ry="13.002"/><path fill="url(#b)" d="m46.347 21.336-3.285 3.265c-.578.518-.858 1.352-.534 2.056 2.188 4.579 1.357 10.037-2.234 13.625-3.592 3.586-9.057 4.415-13.64 2.229-.675-.303-1.467-.046-1.987.48l-3.339 3.334a1.78 1.78 0 0 0 .32 2.785 20.01 20.01 0 0 0 24.477-2.942 19.95 19.95 0 0 0 3.009-24.441 1.774 1.774 0 0 0-2.787-.391M17.936 17.79a19.95 19.95 0 0 0-3.108 24.438 1.773 1.773 0 0 0 2.788.391l3.268-3.246c.592-.517.88-1.36.552-2.074-2.189-4.578-1.36-10.037 2.232-13.625 3.591-3.587 9.057-4.417 13.64-2.23.668.298 1.449.05 1.971-.462l3.357-3.354a1.774 1.774 0 0 0-.32-2.784 20.01 20.01 0 0 0-24.451 3.035z"/></svg>