<svg xmlns="http://www.w3.org/2000/svg" viewBox="0 0 64 64"><defs><linearGradient id="a" x1="30.268" x2="30.268" y1="18.174" y2="41.457" gradientUnits="userSpaceOnUse"><stop offset="0" stop-color="#a9d2f9"/><stop offset="1" stop-color="#a2d1f6"/></linearGradient></defs><rect width="56.002" height="56.002" x="4" y="3.969" fill="#289cff" rx="13.002" ry="13.002"/><circle cx="32.02" cy="32.044" r="30.001" fill="none"/><g stroke-width="1.5"><path fill="#e5f4ff" d="m31.999 21.19-11.25 6.714v15.393h22.5V27.904z"/><path fill="#cfebff" d="M43.249 43.28V27.923l-11.25-6.72V36.56"/><path fill="#61abea" d="M20.749 27.921v15.375L31.999 50l11.25-6.704V27.921l-11.25 6.704z"/><path fill="#68b2ec" d="m43.249 27.921-11.25 6.721v15.354l11.25-6.718z"/><path fill="url(#a)" d="m23.64 14.534-10.781 7.201 7.5 6.721 11.25-6.72zm7.969 7.201 11.25 6.721 7.5-6.72-10.781-7.202zm11.25 6.721-11.25 6.72 7.5 6.716 11.25-7.195zm-11.25 6.72-11.25-6.72-7.5 6.24 11.25 7.196z" transform="translate(.391 -.534)"/></g><path d="M3.998 45.998v1c0 7.203 5.8 13.004 13.004 13.004h29.996c7.203 0 13.004-5.8 13.004-13.004v-1c0 7.203-5.8 13.002-13.004 13.002H17.002A12.975 12.975 0 0 1 3.998 45.998" opacity=".15"/><path fill="#fff" d="M3.998 18.004v-1C3.998 9.801 9.798 4 17.002 4h29.996c7.203 0 13.004 5.8 13.004 13.004v1c0-7.203-5.8-13.002-13.004-13.002H17.002A12.975 12.975 0 0 0 3.998 18.004" opacity=".15"/></svg>