<svg xmlns="http://www.w3.org/2000/svg" xmlns:xlink="http://www.w3.org/1999/xlink" fill="none" viewBox="0 0 64 64"><g clip-path="url(#a)"><path fill="url(#b)" d="M1.559 2h60.882v62.001H1.559z"/><path fill="#f9a822" d="M47 3.969H17.002C9.822 3.969 4 9.79 4 16.971v29.998c0 7.18 5.821 13.002 13.002 13.002H47c7.18 0 13.002-5.821 13.002-13.002V16.971c0-7.18-5.821-13.002-13.002-13.002"/><path fill="#fff" d="M45.19 19.756a31 31 0 0 0-7.84-2.464c-.337.61-.732 1.432-1.004 2.085q-4.385-.66-8.688 0a22 22 0 0 0-1.017-2.085 30.8 30.8 0 0 0-7.845 2.47c-4.962 7.497-6.307 14.81-5.634 22.016 3.29 2.457 6.48 3.95 9.615 4.927a24 24 0 0 0 2.06-3.391 20.3 20.3 0 0 1-3.244-1.579q.409-.303.795-.628c6.253 2.924 13.046 2.924 19.224 0q.39.325.795.628a20 20 0 0 1-3.248 1.582 24 24 0 0 0 2.06 3.391c3.137-.977 6.33-2.47 9.62-4.93.79-8.355-1.348-15.599-5.649-22.022m-19.502 17.59c-1.877 0-3.416-1.752-3.416-3.886s1.506-3.89 3.416-3.89 3.45 1.753 3.416 3.89c.003 2.134-1.506 3.886-3.416 3.886m12.625 0c-1.877 0-3.416-1.752-3.416-3.886s1.506-3.89 3.416-3.89 3.45 1.753 3.416 3.89c0 2.134-1.506 3.886-3.416 3.886"/><path fill="#000" d="M3.998 45.998v1c0 7.203 5.8 13.004 13.004 13.004h29.996c7.203 0 13.004-5.8 13.004-13.004v-1c0 7.203-5.8 13.002-13.004 13.002H17.002A12.974 12.974 0 0 1 3.998 45.998" opacity=".15"/><path fill="#fff" d="M3.998 18.004v-1C3.998 9.801 9.798 4 17.002 4h29.996c7.203 0 13.004 5.8 13.004 13.004v1c0-7.203-5.8-13.002-13.004-13.002H17.002A12.975 12.975 0 0 0 3.998 18.004" opacity=".15"/></g><defs><clipPath id="a"><path fill="#fff" d="M0 0h64v64H0z"/></clipPath><pattern id="b" width="1" height="1" patternContentUnits="objectBoundingBox"><use xlink:href="#c" transform="scale(.00398)"/></pattern></defs></svg>