<svg xmlns="http://www.w3.org/2000/svg" image-rendering="optimizeSpeed" viewBox="0 0 64 64"><rect width="56.002" height="56.002" x="4" y="3.969" fill="#737b7d" rx="13.002" ry="13.002"/><path d="M17 4v6.172l4 4V4zm6 0v12.172l3.5 3.5.672-.672H26V4zm5 0v14.172L31.172 15H31V4zm5 0v9.172l3-3V4zm5 0v7L27.914 21.086 29 22.172l12-12V4zm5 0v7L29.564 24.436 29 23.872l-.565.564-1.935-1.935-1.936 1.935-.564-.564-.565.564L10 11V6.037a12.9 12.9 0 0 0-3.846 3.754v7.133L4 19.076v2.154l3.23 3.23h9.589l-7.47-7.468A1.5 1.5 0 0 1 8 15.5 1.5 1.5 0 0 1 9.5 14a1.5 1.5 0 0 1 1.5 1.5 1.5 1.5 0 0 1-.027.287l8.674 8.674h28.508l7.537-8.615h4.254a13 13 0 0 0-.143-1.077h-4.111v-4.308l-8.615 9.693h-3.23l8.614-9.693V5.174A13 13 0 0 0 48 4.035V11L34.562 24.436l-1.414-1.414L46 10.172V4zm-28 .148a13 13 0 0 0-3 .834v5.19l12 12 1.086-1.086L23 19h-2v-2l-6-6V4.15zm-.23 33.236L4 46v.968c0 .73.074 1.44.189 2.137l6.271-4.182v2.153l-5.834 3.89c.046.142.103.279.153.418h3.53v5.246a12.9 12.9 0 0 0 6.46 3.137V48.154l6.46-5.385h3.231L18 48.154V59.97h4v-5.1l13.436-13.435.564.564.564-.564L38.5 43.37l1.935-1.935.565.564.564-.564L55 54.87v2.34a13 13 0 0 0 2.252-2.26L45.15 42.849l1.414-1.415 11.814 11.814a13 13 0 0 0 1.461-4.32l-7.379-9.39h-2.152l-2.154-2.155H35.199l.236.237-12.463 12.463a1.5 1.5 0 0 1 .027.287 1.5 1.5 0 0 1-1.5 1.5 1.5 1.5 0 0 1-1.5-1.5 1.5 1.5 0 0 1 1.35-1.493l11.494-11.494H14.77zM36 43.7l-12 12v4.271h3v-5.1l6-6v-2h2l2.085-2.085L36 43.699zm5 0-1.086 1.086L50 54.87v4.74a13 13 0 0 0 3-1.111v-2.801l-12-12zm-2.5 2.5L35 49.7v10.27h3v-13.1h1.171zm1.5 1.5v12.27h3v-9.1h.171L40 47.698zm-7 4-4 4v4.271h4zm12 1v7.271h2c.337 0 .669-.02 1-.044V55.7z" opacity=".15"/><path fill="#f9e153" d="M19 14.952v3.967h-4v2h4v2h-4v2h4v2h-4v2h4v2h-4v2h4v2h-4v2h4v2h-4v2h4v2h-4v2h4v4.033h2v-4.033h2v4.033h2v-4.033h2v4.033h2v-4.033h2v4.033h2v-4.033h2v4.033h2v-4.033h2v4.033h2v-4.033h2v4.033h2v-4.033h4v-2h-4v-2h4v-2h-4v-2h4v-2h-4v-2h4v-2h-4v-2h4v-2h-4v-2h4v-2h-4v-2h4v-2h-4v-3.967h-2v3.967h-2v-3.967h-2v3.967h-2v-3.967h-2v3.967h-2v-3.967h-2v3.967h-2v-3.967h-2v3.967h-2v-3.967h-2v3.967h-2v-3.967zm2 5.967h2v2h-2zm4 0h2v2h-2zm4 0h2v2h-2zm4 0h2v2h-2zm4 0h2v2h-2zm4 0h2v2h-2zm-20 4h2v2h-2zm4 0h2v2h-2zm4 0h2v2h-2zm4 0h2v2h-2zm4 0h2v2h-2zm4 0h2v2h-2zm-20 4h2v2h-2zm4 0h2v2h-2zm4 0h2v2h-2zm4 0h2v2h-2zm4 0h2v2h-2zm4 0h2v2h-2zm-20 4h2v2h-2zm4 0h2v2h-2zm4 0h2v2h-2zm4 0h2v2h-2zm4 0h2v2h-2zm4 0h2v2h-2zm-20 4h2v2h-2zm4 0h2v2h-2zm4 0h2v2h-2zm4 0h2v2h-2zm4 0h2v2h-2zm4 0h2v2h-2zm-20 4h2v2h-2zm4 0h2v2h-2zm4 0h2v2h-2zm4 0h2v2h-2zm4 0h2v2h-2zm4 0h2v2h-2z"/><g fill-rule="evenodd"><rect width="27.999" height="27.999" x="18.002" y="17.909" fill="#f2f2f2" rx="1.999" ry="1.999"/><g transform="translate(0 -1058.6)scale(3.7796)"><circle cx="5.424" cy="285.49" r=".132" opacity=".35" style="paint-order:stroke fill markers"/><circle cx="11.509" cy="285.49" r=".132" opacity=".35" style="paint-order:stroke fill markers"/><circle cx="5.424" cy="291.58" r=".132" opacity=".35" style="paint-order:stroke fill markers"/><circle cx="11.509" cy="291.58" r=".132" opacity=".35" style="paint-order:stroke fill markers"/></g><path d="M25.47 36q-1.006 0-1.713-.591t-1.022-1.47T22.42 32q0-1.006.326-1.895.326-.89 1.039-1.497T25.47 28q.895 0 1.442.42t.945 1.138l-1.16.663q-.52-.972-1.227-.972-.586 0-.978.447-.392.448-.547 1.039T23.79 32q0 1.138.431 1.945.431.806 1.249.806.596 0 .911-.397.315-.398.315-1.039v-.166h-1.348v-1.237h2.696v1.071q0 1.426-.718 2.221T25.47 36m5.436-.133h-1.315v-7.734h2.73q1.336 0 1.96.696.625.696.625 1.701 0 .95-.652 1.674t-1.934.724h-1.414zm0-6.497v2.32h1.48q.597 0 .89-.342t.293-.818q0-.453-.282-.806t-.9-.354zM38.961 36q-1.149 0-1.878-.735-.73-.735-.73-2.348v-4.784h1.304v4.784q0 1.006.343 1.42.342.414.961.414 1.304 0 1.304-1.834v-4.784h1.315v4.784q0 1.591-.73 2.337-.729.746-1.889.746" opacity=".25" style="isolation:isolate"/></g><path d="M3.998 45.998v1c0 7.203 5.8 13.004 13.004 13.004h29.996c7.203 0 13.004-5.8 13.004-13.004v-1c0 7.203-5.8 13.002-13.004 13.002H17.002A12.975 12.975 0 0 1 3.998 45.998" opacity=".15"/><path fill="#fff" d="M3.998 18.004v-1C3.998 9.801 9.798 4 17.002 4h29.996c7.203 0 13.004 5.8 13.004 13.004v1c0-7.203-5.8-13.002-13.004-13.002H17.002A12.975 12.975 0 0 0 3.998 18.004" opacity=".15"/></svg>