<svg xmlns="http://www.w3.org/2000/svg" width="64" height="64"><defs><linearGradient id="a" x1="7.937" x2="7.937" y1="15.081" y2="1.852" gradientTransform="scale(3.7796)" gradientUnits="userSpaceOnUse"><stop offset="0" stop-color="#f1efeb"/><stop offset="1" stop-color="#fdfcfc"/></linearGradient><filter id="b" width="1.12" height="1.12" x="-.06" y="-.06" color-interpolation-filters="sRGB"><feGaussianBlur stdDeviation=".212"/></filter></defs><rect width="56.002" height="56.002" x="4" y="3.969" fill="url(#a)" rx="13.002" ry="13.002"/><g fill-rule="evenodd" stroke-opacity=".255" stroke-width=".215" filter="url(#b)" opacity=".25" transform="matrix(3.7794 0 0 3.7807 0 -1058.9)"><path d="M9.073 287.938c0 .445.011.815-.204 1.21-.173.32-.448.517-.754.517-.419 0-.662-.333-.662-.825 0-.972.833-1.149 1.62-1.149zm1.099 2.778a.22.22 0 0 1-.257.028c-.361-.314-.426-.46-.626-.76-.598.638-1.02.829-1.796.829-.917 0-1.632-.592-1.632-1.776 0-.925.48-1.556 1.162-1.864.59-.272 1.417-.32 2.049-.395v-.148c0-.27.02-.591-.131-.825-.133-.21-.388-.297-.612-.297-.416 0-.786.223-.876.685-.02.103-.09.203-.19.208l-1.057-.118c-.089-.021-.187-.096-.163-.239.245-1.338 1.402-1.743 2.438-1.743.53 0 1.223.148 1.64.568.531.517.48 1.208.48 1.96v1.776c0 .534.212.768.411 1.057.07.102.086.226-.002.303a52 52 0 0 0-.836.757l-.004-.004m1.716.974c-.927.7-2.27 1.073-3.428 1.073a6.12 6.12 0 0 1-4.187-1.638c-.087-.08-.01-.19.095-.127a8.27 8.27 0 0 0 4.19 1.138 8.1 8.1 0 0 0 3.196-.67c.157-.068.289.105.135.223"/><path d="M12.272 291.24c-.118-.156-.784-.074-1.081-.037-.092.01-.106-.07-.023-.129.529-.382 1.4-.272 1.5-.143.101.128-.026 1.021-.525 1.447-.076.066-.148.03-.114-.056.11-.286.362-.927.243-1.082"/></g><g fill-rule="evenodd" stroke-opacity=".255" stroke-width=".215"><path fill="#201f1f" d="M34.29 29.707c0 1.683.042 3.081-.77 4.575-.654 1.21-1.694 1.954-2.85 1.954-1.584 0-2.502-1.259-2.502-3.119 0-3.674 3.148-4.344 6.122-4.344zm4.154 10.503a.831.832 0 0 1-.971.106c-1.365-1.187-1.61-1.74-2.366-2.873-2.26 2.412-3.855 3.134-6.788 3.134-3.466 0-6.168-2.238-6.168-6.715 0-3.497 1.814-5.883 4.392-7.047 2.23-1.028 5.355-1.21 7.744-1.493v-.56c0-1.02.075-2.234-.495-3.119-.503-.794-1.467-1.123-2.313-1.123-1.573 0-2.971.843-3.311 2.59-.076.39-.34.767-.718.786l-3.995-.446c-.336-.08-.707-.363-.616-.903.926-5.059 5.299-6.59 9.214-6.59 2.003 0 4.622.56 6.198 2.147 2.007 1.955 1.814 4.567 1.814 7.41v6.715c0 2.019.802 2.904 1.554 3.996.264.386.325.855-.008 1.146a198.003 198.07 0 0 0-3.16 2.862l-.015-.015"/><path fill="#f90" d="M44.922 43.9c-3.504 2.646-8.58 4.057-12.956 4.057a23.119 23.127 0 0 1-15.824-6.193c-.329-.303-.038-.718.359-.48a31.256 31.266 0 0 0 15.836 4.302 30.757 30.767 0 0 0 12.079-2.533c.593-.257 1.092.397.51.843"/><path fill="#f90" d="M46.38 42.191c-.445-.59-2.962-.28-4.085-.14-.347.038-.4-.264-.087-.488 2-1.444 5.291-1.028 5.67-.54.381.484-.099 3.86-1.985 5.47-.287.25-.56.114-.43-.211.415-1.081 1.368-3.505.918-4.09"/></g></svg>