<svg xmlns="http://www.w3.org/2000/svg" width="64" height="64"><defs><linearGradient id="b" x1="24" x2="24" y1="1032.4" y2="1018.4" gradientTransform="matrix(1.5 0 0 1.5 -4 -1516.5)" gradientUnits="userSpaceOnUse"><stop offset="0" stop-color="#272b2d"/><stop offset="1" stop-color="#3e4447"/></linearGradient><linearGradient id="d" x1="89.897" x2="86.04" y1="100.56" y2="98.374" gradientTransform="scale(.5)" gradientUnits="userSpaceOnUse"><stop offset="0" stop-color="#4285f4"/><stop offset="1" stop-color="#034eca"/></linearGradient><linearGradient id="j" x1="60.209" x2="78.764" y1="75.081" y2="73.616" gradientTransform="scale(.5)" gradientUnits="userSpaceOnUse"><stop offset="0" stop-color="#4285f4"/><stop offset=".703" stop-color="#044fcb"/></linearGradient><linearGradient id="k" x1="39.018" x2="43.018" y1="99.585" y2="97.223" gradientTransform="scale(.5)" gradientUnits="userSpaceOnUse"><stop offset="0" stop-color="#4285f4"/><stop offset="1" stop-color="#034eca"/></linearGradient><linearGradient id="o" x1="67.866" x2="78.004" y1="46.531" y2="67.72" gradientTransform="scale(.5)" gradientUnits="userSpaceOnUse"><stop offset="0" stop-color="#034dc9"/><stop offset="1" stop-color="#4285f4"/></linearGradient><linearGradient id="a" x1="7.937" x2="7.937" y1="15.081" y2="1.852" gradientTransform="scale(3.7796)" gradientUnits="userSpaceOnUse"><stop offset="0" stop-color="#f1efeb"/><stop offset="1" stop-color="#fdfcfc"/></linearGradient><linearGradient id="l" x1="23.046" x2="29.704" y1="29.694" y2="32.001" gradientUnits="userSpaceOnUse"><stop offset="0" stop-color="#75a5f7"/><stop offset=".279" stop-color="#4285f4"/><stop offset=".757" stop-color="#4285f4"/><stop offset="1" stop-color="#76a6f7"/></linearGradient><linearGradient id="e" x1="81.739" x2="91.577" y1="52.197" y2="74.989" gradientUnits="userSpaceOnUse"><stop offset="0" stop-color="#6fbe72"/><stop offset="1" stop-color="#469b4a"/></linearGradient><linearGradient id="m" x1="30.872" x2="33.681" y1="12.371" y2="18.009" gradientUnits="userSpaceOnUse"><stop offset="0" stop-color="#4285f4"/><stop offset="1" stop-color="#2660c5"/></linearGradient><filter id="f" width="3.078" height="2.566" x="83.017" y="56.143" color-interpolation-filters="sRGB" filterUnits="userSpaceOnUse"><feFlood flood-opacity="0" result="BackgroundImageFix"/><feColorMatrix in="SourceAlpha" result="hardAlpha" values="0 0 0 0 0 0 0 0 0 0 0 0 0 0 0 0 0 0 127 0"/><feOffset dx="-.012" dy=".023"/><feGaussianBlur stdDeviation=".012"/><feComposite in2="hardAlpha" operator="out"/><feColorMatrix values="0 0 0 0 0.0156863 0 0 0 0 0.231373 0 0 0 0 0.0666667 0 0 0 0.7 0"/><feBlend in2="BackgroundImageFix" result="effect1_dropShadow_1081_1678"/><feBlend in="SourceGraphic" in2="effect1_dropShadow_1081_1678" result="shape"/></filter><filter id="g" width="2.752" height="2.91" x="87.242" y="67.513" color-interpolation-filters="sRGB" filterUnits="userSpaceOnUse"><feFlood flood-opacity="0" result="BackgroundImageFix"/><feColorMatrix in="SourceAlpha" result="hardAlpha" values="0 0 0 0 0 0 0 0 0 0 0 0 0 0 0 0 0 0 127 0"/><feOffset dx="-.012" dy=".023"/><feGaussianBlur stdDeviation=".012"/><feComposite in2="hardAlpha" operator="out"/><feColorMatrix values="0 0 0 0 0.0156863 0 0 0 0 0.231373 0 0 0 0 0.0666667 0 0 0 0.7 0"/><feBlend in2="BackgroundImageFix" result="effect1_dropShadow_1081_1678"/><feBlend in="SourceGraphic" in2="effect1_dropShadow_1081_1678" result="shape"/></filter><filter id="h" width=".791" height=".553" x="84.591" y="56.471" color-interpolation-filters="sRGB" filterUnits="userSpaceOnUse"><feFlood flood-opacity="0" result="BackgroundImageFix"/><feBlend in="SourceGraphic" in2="BackgroundImageFix" result="shape"/><feGaussianBlur result="effect1_foregroundBlur_1081_1678" stdDeviation=".012"/></filter><filter id="i" width=".512" height=".758" x="89.119" y="68.801" color-interpolation-filters="sRGB" filterUnits="userSpaceOnUse"><feFlood flood-opacity="0" result="BackgroundImageFix"/><feBlend in="SourceGraphic" in2="BackgroundImageFix" result="shape"/><feGaussianBlur result="effect1_foregroundBlur_1081_1678" stdDeviation=".012"/></filter><filter id="n" width="7.775" height="12.643" x="70.583" y="69.436" color-interpolation-filters="sRGB" filterUnits="userSpaceOnUse"><feFlood flood-opacity="0" result="BackgroundImageFix"/><feBlend in="SourceGraphic" in2="BackgroundImageFix" result="shape"/><feGaussianBlur result="effect1_foregroundBlur_1081_1678" stdDeviation=".293"/></filter><radialGradient id="c" cx="24" cy="1025.4" r="2" gradientTransform="matrix(1.5 0 0 1.4998 -4 -1516.4)" gradientUnits="userSpaceOnUse"><stop offset="0" stop-color="#acacac"/><stop offset="1" stop-color="#cbcbcb"/></radialGradient><radialGradient id="p" cx="0" cy="0" r="1" gradientTransform="rotate(134.502 13.096 12.856)scale(.84083 .58579)" gradientUnits="userSpaceOnUse"><stop offset="0" stop-color="#fff"/><stop offset=".948" stop-color="#fff" stop-opacity="0"/></radialGradient></defs><rect width="56.002" height="56.002" x="4" y="3.969" fill="url(#a)" rx="13.002" ry="13.002"/><path fill="url(#b)" d="M36.671 15.5h-1.67V11h-6v4.5h-1.696c-1.536 0-2.805 1.27-2.805 2.789v7.343h.025c-.025.241.122.507.439.82l5.634 4.97c.39.385.902.578 1.39.578v-.024l.024.024a1.9 1.9 0 0 0 1.39-.579l5.635-4.97c.317-.312.439-.602.439-.819h.024v-7.32c-.024-1.542-1.268-2.812-2.83-2.812z"/><path fill="url(#c)" d="M32.01 24.5h-.02A2.99 2.99 0 0 1 29 21.52a2.99 2.99 0 0 1 2.99-2.98v-.04l.02.04c1.642.02 2.99 1.335 2.99 2.98s-1.348 2.96-2.99 2.98"/><path fill="url(#d)" d="M45.424 49.509a.731.731 0 0 1-1.34.569l-1.761-3.27a1.076 1.076 0 1 1 1.972-.837z"/><path fill="url(#e)" d="M92.465 51.855a1.14 1.14 0 0 0-.773.402l-.684.801-.953 1.117-.977 1.14-.008.013a12.6 12.6 0 0 0-6.085-2.637 12.5 12.5 0 0 0-4.618.207l8.29 23.461a13 13 0 0 0 1.44-.809 12.4 12.4 0 0 0 3.38-3.273 12.5 12.5 0 0 0 1.422-2.645q.351-.9.562-1.847l.028.004 1.476.277 2.48.469a1.146 1.146 0 0 0 1.32-1.41 1.2 1.2 0 0 0-.163-.36 1.14 1.14 0 0 0-.73-.476l-1.04-.196-1.441-.273-1.48-.277-.16-.032.003-.12a12.5 12.5 0 0 0-.715-4.473l-.043-.118a12.5 12.5 0 0 0-2.273-3.882l.101-.118.973-1.144.953-1.113.688-.805a1.14 1.14 0 0 0-.14-1.617 1.14 1.14 0 0 0-.833-.266" transform="scale(.5)"/><path d="M84.263 58.605c.82.207 1.621-.163 1.79-.827.168-.664-.36-1.37-1.18-1.577s-1.622.163-1.79.827.36 1.37 1.18 1.577" filter="url(#f)" transform="scale(.5)"/><path d="M87.638 68.2c.508-.675 1.364-.889 1.912-.478s.58 1.292.072 1.967c-.507.675-1.363.889-1.911.478s-.58-1.292-.073-1.967" filter="url(#g)" transform="scale(.5)"/><path fill="#e2dce1" d="M85.359 56.834c-.136-.228-.459-.321-.603-.34l-.141.188c.048.006.178.034.31.098.133.064.292.173.354.22z" filter="url(#h)" opacity=".8" transform="scale(.5)"/><path fill="#e2dce1" d="M89.603 68.904c.038.26-.145.529-.241.631l-.22-.059c.032-.034.112-.135.172-.265s.11-.312.128-.387l.16.08z" filter="url(#i)" opacity=".8" transform="scale(.5)"/><path fill="#4386f5" d="M19.716 29.587a2.4 2.4 0 0 0-1.55-1.147c-.666-.16-1.387-.053-2.004.297s-1.08.912-1.285 1.566c-.207.654-.084 1.443.242 2.018l2.377-1.227z"/><path fill="url(#j)" d="M19.695 29.552c3.441 5.697 10.644 8.134 16.94 5.444l2.102 4.918c-8.782 3.753-18.82.35-23.62-7.596z"/><path fill="url(#k)" d="M18.689 49.509a.731.731 0 0 0 1.34.569l1.761-3.27a1.076 1.076 0 1 0-1.972-.837z"/><path fill="url(#l)" d="M27.674 18.685a3.028 3.028 0 1 1 5.69 2.071l-8.885 24.41a3.028 3.028 0 1 1-5.69-2.07z"/><path fill="url(#m)" d="M33.962 13.175a1.905 1.905 0 1 0-3.808 0v3.614a1.905 1.905 0 1 0 3.808 0z"/><path fill="#044fcb" d="M71.662 81.487c-1.49.128.91-1.714.543-5.998-.247-2.89.76-5.335 2.249-5.462 1.489-.128 2.897 2.11 3.144 5 1.233 4.628-4.447 6.332-5.936 6.46" filter="url(#n)" opacity=".5" transform="scale(.5)"/><path fill="url(#o)" d="M30.691 20.728a2.993 2.993 0 0 1 5.62-2.06l8.961 24.456a2.993 2.993 0 1 1-5.62 2.059z"/><path fill="url(#p)" d="M30.5 13.473c.427.427 1.196.35 1.719-.173.521-.522.6-1.292.172-1.718-.426-.428-1.196-.35-1.718.172-.522.523-.6 1.293-.173 1.719" opacity=".3"/><path fill="#fff" d="M32.009 24.064a3.711 3.711 0 1 0 0-7.422 3.711 3.711 0 0 0 0 7.422"/><path fill="#202124" d="M32.009 17.618a2.735 2.735 0 1 0 0 5.469 2.735 2.735 0 0 0 0-5.469m-4.687 2.735a4.688 4.688 0 1 1 9.375 0 4.688 4.688 0 0 1-9.376 0"/></svg>