<svg xmlns="http://www.w3.org/2000/svg" xmlns:xlink="http://www.w3.org/1999/xlink" viewBox="0 0 64 64"><defs><linearGradient id="a" x1="110.25" x2="496.14" y1="213.3" y2="436.09" gradientUnits="userSpaceOnUse"><stop offset="0" style="stop-color:#aa5cc3"/><stop offset="1" style="stop-color:#00a4dc"/></linearGradient><linearGradient xlink:href="#a" id="b" x1="110.25" x2="496.14" y1="213.3" y2="436.09" gradientUnits="userSpaceOnUse"/><linearGradient xlink:href="#a" id="c" x1="110.25" x2="496.14" y1="213.3" y2="436.09" gradientUnits="userSpaceOnUse"/></defs><rect width="56.002" height="56.002" x="4" y="3.969" fill="#4d4d4d" rx="13.002" ry="13.002"/><path d="M3.998 45.998v1c0 7.203 5.8 13.004 13.004 13.004h29.996c7.203 0 13.004-5.8 13.004-13.004v-1c0 7.203-5.8 13.002-13.004 13.002H17.002A12.975 12.975 0 0 1 3.998 45.998" opacity=".35"/><path fill="#fff" d="M3.998 18.004v-1C3.998 9.801 9.798 4 17.002 4h29.996c7.203 0 13.004 5.8 13.004 13.004v1c0-7.203-5.8-13.002-13.004-13.002H17.002A12.975 12.975 0 0 0 3.998 18.004" opacity=".15"/><path d="M256 23.3c-61.6 0-259.8 359.4-229.6 420.1s429.3 60 459.2 0S317.6 23.3 256 23.3m150.5 367.5c-19.6 39.3-281.1 39.8-300.9 0S215.7 115.5 256 115.5s170.1 235.9 150.5 275.3" style="fill:url(#b)" transform="translate(8.898 8.897)scale(.09025)"/><path d="M256 201.6c-20.4 0-86.2 119.3-76.2 139.4s142.5 19.9 152.4 0-55.7-139.4-76.2-139.4" style="fill:url(#c)" transform="translate(8.898 8.897)scale(.09025)"/></svg>