<svg xmlns="http://www.w3.org/2000/svg" viewBox="0 0 16.933 16.933"><rect width="14.817" height="14.817" x="1.058" y="1.05" fill="#174977" rx="3.44" ry="3.44"/><path fill="#fff" d="M8.75 14.011c-.618-.03-1.078-.125-1.078-.221 0-.043.152-.096.369-.133.138-.023.383-.05.683-.073.288-.024.457-.046.675-.086 1.103-.203 1.981-.734 2.58-1.558.203-.28.384-.627.488-.93.037-.108.067-.14.127-.14.123 0 .253.24.308.567.037.226.01.591-.063.846-.117.404-.332.691-.777 1.038-.27.21-.415.295-.683.394-.614.23-1.638.345-2.629.296m1.238-3.007c-.3-.046-.567-.09-.598-.097-.213-.054-.446-.242-.487-.393a.43.43 0 0 1 .032-.272c.046-.09.192-.234.332-.326.201-.133.597-.311 1.089-.488.634-.23 1.08-.251 1.29-.064.122.11.18.287.167.513-.025.439-.232.823-.562 1.035a1 1 0 0 1-.563.17c-.147.004-.195 0-.7-.078m-3.477-.012a1.7 1.7 0 0 1-.388-.05 1.13 1.13 0 0 1-.674-.47 3 3 0 0 1-.253-.528 2.1 2.1 0 0 1-.1-.817c.03-.371.103-.567.27-.719.188-.171.443-.194.722-.064.397.186 1.12.734 1.596 1.208.253.252.387.42.469.59a.45.45 0 0 1 .06.203c.014.222-.125.44-.361.562-.16.082-.19.087-.707.09-.252.002-.538 0-.635-.005zm-2.653-.837a1.4 1.4 0 0 1-.194-.029 1.3 1.3 0 0 1-.338-.152 1 1 0 0 1-.387-.603c-.027-.128-.036-.516-.02-.968.012-.34.015-.377.044-.477a.93.93 0 0 1 .497-.59c.088-.045.133-.1.15-.187a5 5 0 0 1 .77-1.858q.136-.203.137-.238a.3.3 0 0 0-.038-.104c-.068-.134-.042-.185.24-.476.501-.516 1.005-.868 1.606-1.123.466-.199 1.1-.355 1.698-.42a7 7 0 0 1 .997-.006c1.058.11 1.995.52 2.877 1.264.168.14.468.424.507.478.08.112.086.202.018.326l-.039.07.055.072A4.8 4.8 0 0 1 13.3 7.06a.8.8 0 0 0 .055.183.4.4 0 0 0 .099.072c.206.108.366.265.45.44.101.21.115.321.118.951.002.485-.01.618-.064.787-.103.311-.374.56-.707.646a1.1 1.1 0 0 1-.437.001.26.26 0 0 1-.16-.161q-.014-.047-.013-.99c0-.97-.008-1.221-.048-1.537-.164-1.276-.817-2.283-1.936-2.985a4.02 4.02 0 0 0-2.783-.585A4.27 4.27 0 0 0 5.5 5.084 4.05 4.05 0 0 0 4.328 7.48c-.017.133-.02.323-.023 1.293-.002.82-.007 1.153-.018 1.196-.037.16-.145.207-.43.187z"/><path d="M1.058 12.17v.265a3.433 3.433 0 0 0 3.44 3.44h7.937a3.433 3.433 0 0 0 3.44-3.44v-.265a3.433 3.433 0 0 1-3.44 3.44H4.498a3.433 3.433 0 0 1-3.44-3.44" opacity=".25"/><path fill="#fff" d="M1.058 4.764v-.265a3.433 3.433 0 0 1 3.44-3.44h7.937a3.433 3.433 0 0 1 3.44 3.44v.265a3.433 3.433 0 0 0-3.44-3.44H4.498a3.433 3.433 0 0 0-3.44 3.44" opacity=".15"/></svg>