<svg xmlns="http://www.w3.org/2000/svg" xmlns:xlink="http://www.w3.org/1999/xlink" viewBox="0 0 64 64"><defs><radialGradient xlink:href="#a" id="d" cx="31.132" cy="86" r="76.065" gradientTransform="translate(7.705 3.48)scale(.43664)"/><radialGradient id="e" cx="109.988" cy="3.57" r="66.012" gradientUnits="userSpaceOnUse"><stop offset="0" stop-color="#f66151"/><stop offset="1" stop-color="#ed333b" stop-opacity=".001"/></radialGradient><linearGradient id="c" x1="7.937" x2="7.937" y1="15.081" y2="1.852" gradientTransform="scale(3.7796)" gradientUnits="userSpaceOnUse"><stop offset="0" stop-color="#f1efeb"/><stop offset="1" stop-color="#fdfcfc"/></linearGradient><linearGradient id="a" gradientUnits="userSpaceOnUse"><stop offset="0" stop-color="#4bbfe5"/><stop offset="1" stop-color="#9141ac"/></linearGradient><clipPath id="f" clipPathUnits="userSpaceOnUse"/><filter id="b" width="1" height="1" x="0" y="0"><feColorMatrix in="SourceGraphic" values="0 0 0 0 1 0 0 0 0 1 0 0 0 0 1 0 0 0 1 0"/></filter><mask id="g" maskUnits="userSpaceOnUse"><g filter="url(#b)"><path fill-opacity=".154" d="M0 0h128v128H0Z"/></g></mask></defs><rect width="56.002" height="56.002" x="4" y="3.969" fill="#f2f2f2" rx="13.002" ry="13.002"/><path d="M3.998 45.998v1c0 7.203 5.8 13.004 13.004 13.004h29.996c7.203 0 13.004-5.8 13.004-13.004v-1c0 7.203-5.8 13.002-13.004 13.002H17.002A12.975 12.975 0 0 1 3.998 45.998" opacity=".1"/><path fill="#fff" d="M3.998 18.004v-1C3.998 9.801 9.798 4 17.002 4h29.996c7.203 0 13.004 5.8 13.004 13.004v1c0-7.203-5.8-13.002-13.004-13.002H17.002A12.975 12.975 0 0 0 3.998 18.004" opacity=".5"/><rect width="50" height="39" x="7" y="7" fill="url(#c)" rx="10" ry="10" style="fill:#907ccf;fill-opacity:1"/><path fill="url(#d)" d="M53.088 23.541c0 7.22-5.852 13.073-13.072 13.073S26.945 30.76 26.945 23.54s5.852-13.07 13.071-13.07c7.22 0 13.072 5.852 13.072 13.071m0 0" style="fill:url(#d);stroke-width:.43664"/><path fill="url(#e)" d="M53.088 23.541c0 7.22-5.852 13.073-13.072 13.073S26.945 30.76 26.945 23.54s5.852-13.07 13.071-13.07c7.22 0 13.072 5.852 13.072 13.071m0 0" style="fill:#8d5dac;fill-opacity:1;stroke-width:.43664"/><path fill="none" stroke="#9a9996" stroke-linejoin="round" stroke-width="1.644" d="M26.866 24.387c0 7.263 5.888 13.15 13.15 13.15s13.151-5.887 13.151-13.15c0-7.262-5.888-13.15-13.15-13.15s-13.15 5.888-13.15 13.15zm0 0"/><path fill="none" stroke="#deddda" stroke-linejoin="round" stroke-width="1.644" d="M26.866 23.514c0 7.263 5.888 13.15 13.15 13.15s13.151-5.887 13.151-13.15-5.888-13.15-13.15-13.15-13.15 5.887-13.15 13.15zm0 0"/><path fill="none" stroke="#fff" stroke-linecap="round" stroke-width="2" d="m129 104.883-16-16" clip-path="url(#f)" mask="url(#g)" transform="translate(4.212 -3.507)scale(.43664)"/><path d="M13 55h25v-2H13Zm0-4h38v-2H13Z" style="fill:#000;opacity:.15"/></svg>