<svg xmlns="http://www.w3.org/2000/svg" data-name="Camada 1" viewBox="0 0 64 64"><defs><clipPath id="a"><rect width="56.002" height="56.002" x="4" y="3.969" rx="13.002" style="fill:none"/></clipPath></defs><rect width="56.002" height="56.002" x="3.999" y="3.969" fill="#1955aa" rx="13.002" ry="13.002"/><path d="M3.998 45.998v1c0 7.203 5.8 13.004 13.004 13.004h29.996c7.203 0 13.004-5.8 13.004-13.004v-1c0 7.203-5.8 13.002-13.004 13.002H17.002A12.975 12.975 0 0 1 3.998 45.998" opacity=".15"/><path fill="#fff" d="M3.998 18.004v-1C3.998 9.801 9.798 4 17.002 4h29.996c7.203 0 13.004 5.8 13.004 13.004v1c0-7.203-5.8-13.002-13.004-13.002H17.002A12.975 12.975 0 0 0 3.998 18.004" opacity=".15"/><path d="M41 15.5a11 11 0 0 0-10.965 10.66l-6.727 9.39a8 8 0 0 0-3.902 1.415l-16.64-7.707v8.873l13.286 6.115a8 8 0 0 0 15.936-.59l10.486-6.277A11 11 0 0 0 52 26.499a11 11 0 0 0-11-11zm0 4a7 7 0 0 1 0 14 7 7 0 0 1 0-14m0 2a5 5 0 0 0-5 5 5 5 0 0 0 5 5 5 5 0 0 0 5-5 5 5 0 0 0-5-5m-17 16a6 6 0 0 1 5.713 4.172l.217.914a6 6 0 0 1 .07.914 6 6 0 0 1-6 6 6 6 0 0 1-5.728-4.234l4.056 1.867a4 4 0 0 0 3.531-7.178 4 4 0 0 0-.187-.088l-4.027-1.865A6 6 0 0 1 24 37.5" clip-path="url(#a)" style="fill:#fff"/></svg>