<svg xmlns="http://www.w3.org/2000/svg" viewBox="0 0 16.933 16.933"><rect width="14.817" height="14.817" x="1.058" y="1.05" fill="#7283f9" rx="3.44" ry="3.44"/><path fill="#fff" d="M12.676 5.577a.5.5 0 0 0-.18.043c-.106.048-1.369 1.117-1.694 1.434-.115.112-.215.188-.216.371l-.003 1.041.004 1.041c0 .184.1.26.215.372.325.317 1.588 1.386 1.694 1.434a.5.5 0 0 0 .18.043.56.56 0 0 0 .482-.259s.07-.1.07-.211V6.047c0-.11-.07-.211-.07-.211a.56.56 0 0 0-.482-.26zm-7.703-.021h3.81c.704 0 1.27.571 1.27 1.28v3.26c0 .71-.566 1.28-1.27 1.28h-3.81c-.703 0-1.27-.57-1.27-1.28v-3.26c0-.709.567-1.28 1.27-1.28"/><path d="M1.058 12.17v.265a3.433 3.433 0 0 0 3.44 3.44h7.937a3.433 3.433 0 0 0 3.44-3.44v-.265a3.433 3.433 0 0 1-3.44 3.44H4.498a3.433 3.433 0 0 1-3.44-3.44" opacity=".15"/><circle cx="12.171" cy="12.171" r="4.233" fill="#393939"/><path fill="#fff" d="M10.868 10.054a.814.814 0 0 0 0 1.628.8.8 0 0 0 .397-.112l.641.6-.64.601a.8.8 0 0 0-.397-.112.814.814 0 1 0 .783.6l.692-.671 1.455 1.374h.489v-.326l-2.636-2.554a.814.814 0 0 0-.784-1.028m0 .488a.326.326 0 1 1 0 .652.326.326 0 0 1 0-.652m2.93-.162-1.281 1.21.427.418 1.343-1.303v-.325zm-2.93 2.768a.326.326 0 1 1 0 .65.326.326 0 0 1 0-.65"/><path fill="#fff" d="M1.058 4.763V4.5a3.433 3.433 0 0 1 3.44-3.44h7.937a3.433 3.433 0 0 1 3.44 3.44v.265a3.433 3.433 0 0 0-3.44-3.44H4.498a3.433 3.433 0 0 0-3.44 3.44z" opacity=".15"/></svg>