<svg xmlns="http://www.w3.org/2000/svg" viewBox="0 0 64 64"><defs><linearGradient id="a" x2="0" y1="44" y2="20" gradientTransform="translate(8 7)" gradientUnits="userSpaceOnUse"><stop offset="0" stop-color="#eef1f2"/><stop offset="1" stop-color="#f9fafb"/></linearGradient></defs><rect width="56.002" height="56.002" x="4" y="3.969" fill="#ccc" rx="13.002" ry="13.002"/><path d="M3.998 45.998v1c0 7.203 5.8 13.004 13.004 13.004h29.996c7.203 0 13.004-5.8 13.004-13.004v-1c0 7.203-5.8 13.002-13.004 13.002H17.002A12.975 12.975 0 0 1 3.998 45.998" opacity=".1"/><path fill="#fff" d="M3.998 18.004v-1C3.998 9.801 9.798 4 17.002 4h29.996c7.203 0 13.004 5.8 13.004 13.004v1c0-7.203-5.8-13.002-13.004-13.002H17.002A12.975 12.975 0 0 0 3.998 18.004" opacity=".25"/><circle cx="32.017" cy="31.998" r="30" fill="none"/><path fill="#b8b8b8" fill-rule="evenodd" d="M32 15 12 27l20 15 20-15z"/><path fill="#20bffa" d="M20 11c-1.108 0-2 .892-2 2v30c0 1.108.892 2 2 2h24c1.108 0 2-.892 2-2V19l-8-8z"/><path fill="url(#a)" d="M12 27v22c0 1.108.892 2 2 2h36c1.108 0 2-.892 2-2V27L36 39h-8z"/><path fill="#b8b8b8" fill-rule="evenodd" d="M28 39 12.678 50.492c.353.313.812.508 1.322.508h36c.51 0 .97-.195 1.323-.508L36 39z" opacity=".25"/><path fill="#fff" d="M38 11v6c0 1.108.892 2 2 2h6z" opacity=".5"/></svg>