<svg xmlns="http://www.w3.org/2000/svg" viewBox="0 0 64 64"><defs><linearGradient id="b" x1="14.023" x2="27.879" y1="8.129" y2="34.944" gradientTransform="matrix(1.2 0 0 1.2 3.2 3.2)" gradientUnits="userSpaceOnUse"><stop offset="0" stop-color="#fff"/><stop offset="1" stop-color="#eea9a9"/></linearGradient><linearGradient id="a" x1="7.937" x2="7.937" y1="15.081" y2="1.852" gradientTransform="scale(3.7796)" gradientUnits="userSpaceOnUse"><stop offset="0" stop-color="#b81e31"/><stop offset="1" stop-color="#ff5c5c"/></linearGradient></defs><rect width="56.002" height="56.002" x="4" y="3.969" fill="url(#a)" rx="13.002" ry="13.002" style="fill:#dc3d47;fill-opacity:1"/><path fill="url(#b)" d="M21.824 18.803c-1.567.049-3.08.757-4.24 1.829-1.178 1.09-2.022 2.587-2.193 4.197a5.6 5.6 0 0 0 .26 2.394 4.9 4.9 0 0 0 1.298 2.01c.695.641 1.565 1.046 2.365 1.548.4.25.785.529 1.116.868s.607.74.758 1.192c.135.402.168.836.108 1.257s-.213.826-.436 1.185c-.446.718-1.165 1.241-1.955 1.521-.915.324-1.923.34-2.806.749a3.62 3.62 0 0 0-1.652 1.571 3.9 3.9 0 0 0-.422 2.263c.105.91.533 1.776 1.176 2.418a4.33 4.33 0 0 0 2.383 1.2c1.307.203 2.704-.223 3.653-1.157a4.1 4.1 0 0 0 1.04-1.69 4 4 0 0 0 .112-1.992c-.1-.502-.298-.979-.48-1.457-.183-.478-.355-.967-.4-1.478-.077-.902.263-1.82.852-2.499.59-.679 1.414-1.126 2.283-1.323a4.4 4.4 0 0 1 1.713-.058 3.6 3.6 0 0 1 1.574.678c.46.351.826.83 1.03 1.375.204.547.24 1.162.078 1.722-.167.574-.525 1.066-.887 1.538-.363.472-.742.945-.957 1.502a3.23 3.23 0 0 0-.099 1.946 3.9 3.9 0 0 0 .957 1.7 4.3 4.3 0 0 0 1.816 1.135c.687.216 1.389.253 2.107.253s1.468-.037 2.154-.253a4.3 4.3 0 0 0 1.816-1.135c.45-.475.795-1.061.958-1.7a3.23 3.23 0 0 0-.099-1.946c-.215-.557-.595-1.03-.957-1.502-.363-.472-.72-.964-.887-1.538a2.77 2.77 0 0 1 .077-1.722 3.13 3.13 0 0 1 1.03-1.375 3.6 3.6 0 0 1 1.575-.678 4.4 4.4 0 0 1 1.712.058c.87.197 1.694.644 2.283 1.323.59.68.93 1.597.852 2.499-.044.511-.216 1-.399 1.478s-.38.955-.48 1.457a4 4 0 0 0 .112 1.992 4.1 4.1 0 0 0 1.04 1.69c.949.934 2.346 1.36 3.652 1.157a4.33 4.33 0 0 0 2.384-1.2 4.12 4.12 0 0 0 1.176-2.418 3.9 3.9 0 0 0-.423-2.263 3.62 3.62 0 0 0-1.652-1.571c-.882-.408-1.89-.425-2.806-.749-.789-.28-1.508-.803-1.954-1.521a3.1 3.1 0 0 1-.437-1.185 2.76 2.76 0 0 1 .108-1.257c.152-.452.427-.854.758-1.192a6 6 0 0 1 1.117-.868c.8-.502 1.67-.907 2.365-1.548a4.9 4.9 0 0 0 1.297-2.01c.263-.764.346-1.59.26-2.394-.17-1.61-1.015-3.107-2.193-4.197-1.16-1.072-2.673-1.78-4.24-1.829a5.4 5.4 0 0 0-2.294.424 4.9 4.9 0 0 0-1.875 1.405c-.572.704-.932 1.559-1.262 2.408-.33.85-.641 1.716-1.14 2.476-.823 1.252-2.122 2.441-3.604 2.441s-2.78-1.19-3.604-2.441c-.5-.76-.81-1.626-1.14-2.476s-.69-1.704-1.263-2.408a4.9 4.9 0 0 0-1.874-1.405 5.4 5.4 0 0 0-2.295-.424M32 30.399a2.402 2.442 0 0 1 2.402 2.442A2.402 2.442 0 0 1 32 35.283a2.402 2.442 0 0 1-2.402-2.442A2.402 2.442 0 0 1 32 30.399" style="fill:#f5cece;fill-opacity:1"/><path d="M3.998 45.998v1c0 7.203 5.8 13.004 13.004 13.004h29.996c7.203 0 13.004-5.8 13.004-13.004v-1c0 7.203-5.8 13.002-13.004 13.002H17.002A12.975 12.975 0 0 1 3.998 45.998" opacity=".15"/><path fill="#fff" d="M3.998 18.004v-1C3.998 9.801 9.798 4 17.002 4h29.996c7.203 0 13.004 5.8 13.004 13.004v1c0-7.203-5.8-13.002-13.004-13.002H17.002A12.975 12.975 0 0 0 3.998 18.004" opacity=".15"/></svg>