<svg xmlns="http://www.w3.org/2000/svg" width="64" height="64" viewBox="0 0 16.933 16.933"><defs><radialGradient id="b" cx="13.114" cy="9.296" r="5.964" gradientTransform="rotate(26.443 29.613 -44.82)scale(2.57824 1.99872)" gradientUnits="userSpaceOnUse"><stop offset="0" stop-color="#0794ff"/><stop offset=".615" stop-color="#a033fd"/><stop offset="1" stop-color="#ff6969"/></radialGradient><linearGradient id="a" x1="7.937" x2="7.937" y1="15.081" y2="1.852" gradientUnits="userSpaceOnUse"><stop offset="0" stop-color="#f1f1f1"/><stop offset="1" stop-color="#fff"/></linearGradient></defs><rect width="14.817" height="14.817" x="1.058" y="1.05" fill="url(#a)" rx="3.44" ry="3.44"/><g stroke-width="1.129"><path fill="url(#b)" d="M4.6 14.05c-.04-.2-.056-.552-.056-.552-.014-.348-.043-.68-.064-.74-.023-.058-.186-.258-.362-.443a7.5 7.5 0 0 1-.715-.862 3.6 3.6 0 0 1-.322-.578l-.189-.496c-.528-1.389-.519-2.94.024-4.245.069-.166.152-.374.186-.462.164-.436.562-.959 1.24-1.626.429-.422.575-.517 1.501-.99.24-.122.964-.357 1.35-.438a6.5 6.5 0 0 1 2.569.002c.431.096 1.115.328 1.402.475.873.445 1.015.541 1.435.957.832.824 1.047 1.135 1.402 2.029.553 1.39.573 2.878.054 4.243l-.191.508a2.8 2.8 0 0 1-.354.63l-.25.336c-.17.225-.878.979-.923.979-.014 0-.176.101-.359.225a6.2 6.2 0 0 1-2.5 1.015c-.729.118-1.775.08-2.472-.09a4 4 0 0 0-.428-.085c-.04 0-.217.061-.397.137-.966.41-1.042.447-1.202.442-.218-.005-.339-.169-.378-.371z" transform="matrix(.88723 0 0 .887 .955 .966)"/><path fill="#fff" d="m5.696 10.123.265-.18c.07-.049.14-.103.157-.122.018-.02.263-.207.543-.418.28-.21.558-.425.614-.477.075-.068.133-.093.22-.093.12 0 .116-.004 1.258.867.264.202.43.267.683.266.315 0 .577-.164.754-.472.046-.077.215-.342.377-.587a6 6 0 0 0 .295-.475c0-.026.37-.61.706-1.115.183-.275.2-.396.076-.521-.14-.14-.27-.114-.556.111-.613.486-.765.602-.783.602-.032 0-.557.398-.638.486-.09.096-.252.134-.35.082a6.791 6.79 0 0 1-.404-.29 4.815 4.814 0 0 0-.384-.271.2.2 0 0 1-.078-.056c-.1-.12-.577-.429-.731-.474-.347-.1-.67.04-.929.404-.232.326-.688 1.057-.688 1.103a.4.4 0 0 1-.09.15c-.05.06-.182.26-.295.441s-.27.433-.351.558c-.178.274-.188.378-.05.495.126.107.21.103.38-.015z"/></g></svg>