<svg xmlns="http://www.w3.org/2000/svg" width="64" height="64"><defs><linearGradient id="b" x1="399.57" x2="399.57" y1="545.8" y2="517.8" gradientTransform="translate(-826.36 -1107.5)scale(2.1429)" gradientUnits="userSpaceOnUse"><stop offset="0" stop-color="#3889e9"/><stop offset="1" stop-color="#5ea5fb"/></linearGradient><linearGradient id="linearGradient914" x1="90" x2="90" y1="43" y2="13" gradientTransform="translate(-61 1)" gradientUnits="userSpaceOnUse"><stop offset="0" stop-color="#3cd1fb"/><stop offset="1" stop-color="#87e2fd"/></linearGradient><linearGradient id="linearGradient929" x1="90" x2="90" y1="43" y2="13" gradientTransform="translate(-58 8)" gradientUnits="userSpaceOnUse"><stop offset="0" stop-color="#3e9e9b"/><stop offset=".464" stop-color="#5e91a8"/><stop offset="1" stop-color="#d9d1a1"/></linearGradient><linearGradient id="linearGradient971" x1="30" x2="30" y1="57" y2="8" gradientUnits="userSpaceOnUse"><stop offset="0" stop-color="#2e2e2e"/><stop offset="1" stop-color="#525252"/></linearGradient><filter id="filter955" width="1.144" height="1.186" x="-.072" y="-.093" color-interpolation-filters="sRGB"><feGaussianBlur stdDeviation="1.318"/></filter><filter id="filter961" width="1.144" height="1.186" x="-.072" y="-.093" color-interpolation-filters="sRGB"><feGaussianBlur stdDeviation="1.318"/></filter><style id="current-color-scheme" type="text/css">.ColorScheme-Text{color:#363636}</style></defs><circle cx="32.02" cy="32.044" r="30.001" fill-opacity="0" stroke-width="1.571"/><rect width="56.002" height="56.002" x="4" y="3.969" fill="url(#linearGradient971)" stroke-width="3.78" rx="13.002" ry="13.002"/><g stroke-linecap="round" stroke-linejoin="round" stroke-width="2"><rect width="44" height="34" x="12" y="20" filter="url(#filter955)" opacity=".35" rx="4" ry="4"/><rect width="44" height="34" x="12" y="19" fill="url(#linearGradient929)" rx="4" ry="4"/><rect width="44" height="34" x="9" y="13" filter="url(#filter961)" opacity=".35" rx="4" ry="4"/><rect width="44" height="34" x="9" y="12" fill="url(#linearGradient914)" rx="4" ry="4"/><path fill="#fff" d="M13 12c-2.216 0-4 1.784-4 4v3h44v-3c0-2.216-1.784-4-4-4z" opacity=".25"/></g><path fill="#273a3f" stroke-width=".188" d="M14.225 15.594a.65.65 0 0 1 .324-.563.68.68 0 0 0-.549-.3c-.233-.037-.456.132-.574.132s-.301-.132-.495-.132c-.255 0-.49.15-.62.375-.265.47-.068 1.144.19 1.52.126.168.276.374.473.374.19 0 .262-.131.492-.131s.294.131.495.131c.204 0 .334-.187.459-.375.145-.206.204-.412.208-.431a.65.65 0 0 1-.403-.6m-.378-1.106a.7.7 0 0 0 .156-.488.63.63 0 0 0-.442.225c-.097.113-.181.3-.159.469.169.019.34-.094.445-.206" class="ColorScheme-Text"/><path fill="#273a3f" stroke-width=".214" d="M47.334 14A1.174 1.174 0 1 0 48 16.142l.786.787c.205.215.52-.108.3-.307l-.501-.502-.284-.284A1.174 1.174 0 0 0 47.334 14m0 .214a.96.96 0 1 1 0 1.921.96.96 0 0 1 0-1.921" class="ColorScheme-Text"/></svg>