<svg xmlns="http://www.w3.org/2000/svg" xmlns:xlink="http://www.w3.org/1999/xlink" xml:space="preserve" viewBox="0 0 64 64"><defs><linearGradient id="c" x1="7.937" x2="7.937" y1="15.081" y2="1.852" gradientTransform="scale(3.7796)" gradientUnits="userSpaceOnUse" spreadMethod="pad"><stop offset="0" stop-color="#ffc30d" style="stop-color:#805533;stop-opacity:1"/><stop offset=".204" stop-color="#ffc30d" style="stop-color:#b38259;stop-opacity:1"/><stop offset=".804" stop-color="#ffc30d" style="stop-color:#b38259;stop-opacity:1"/><stop offset="1" stop-color="#fff63f" style="stop-color:#7f5432;stop-opacity:1"/></linearGradient><linearGradient id="d"><stop offset="0" style="stop-color:#68462b;stop-opacity:1"/><stop offset="1" style="stop-color:#49331f;stop-opacity:1"/></linearGradient><linearGradient xlink:href="#a" id="e" x1="7.937" x2="7.937" y1="15.081" y2="1.852" gradientTransform="translate(-64.002 -63.939)scale(3.7796)" gradientUnits="userSpaceOnUse"/><linearGradient xlink:href="#b" id="a" x1="7.937" x2="7.937" y1="15.081" y2="1.852" gradientTransform="scale(3.7796)" gradientUnits="userSpaceOnUse"><stop offset="0" stop-color="#ffc30d"/><stop offset="1" stop-color="#fff63f"/></linearGradient><linearGradient id="b" x1="7.937" x2="7.937" y1="15.081" y2="1.852" gradientTransform="scale(3.7796)" gradientUnits="userSpaceOnUse" spreadMethod="pad"><stop offset="0" stop-color="#ffc30d" style="stop-color:#d9a300;stop-opacity:1"/><stop offset="1" stop-color="#fff63f"/></linearGradient><linearGradient xlink:href="#c" id="f" x1="156.441" x2="212.443" y1="18.47" y2="18.47" gradientTransform="translate(-216.442 -56.94)" gradientUnits="userSpaceOnUse"/><linearGradient xlink:href="#d" id="g" x1="184.441" x2="184.441" y1="12.173" y2="48.547" gradientTransform="translate(-216.442 -56.94)" gradientUnits="userSpaceOnUse"/></defs><rect width="56.002" height="56.002" x="-60.001" y="-59.97" fill="url(#a)" rx="13.002" ry="13.002" style="fill:url(#e)" transform="scale(-1)"/><rect width="56.002" height="43" x="-60.001" y="-59.97" fill="url(#a)" rx="13.002" ry="13.002" style="display:inline;fill:url(#f);fill-opacity:1" transform="scale(-1)"/><rect width="49.375" height="36.375" x="-56.689" y="-44.767" fill="url(#a)" rx="10.168" ry="9.756" style="fill:url(#g);fill-opacity:1" transform="scale(-1)"/><rect width="49.377" height="11.89" x="7.312" y="26.024" ry="0" style="fill:#815d37;fill-opacity:1;stroke-width:9.3932;stroke-linecap:round;stroke-linejoin:round;paint-order:markers stroke fill"/><rect width="44.186" height="11.89" x="9.284" y="45.263" ry="0" style="display:inline;fill:#815d37;fill-opacity:1;stroke-width:8.88574;stroke-linecap:round;stroke-linejoin:round;paint-order:markers stroke fill"/><path d="M56.718 48.933H7.636v-8.936h49.082zm0-19.658H7.636V20.34h49.082zm0 0" style="fill:#bd8f6b;fill-opacity:1;fill-rule:nonzero;stroke:none;stroke-width:.551866"/><path d="M13.09 55.187h5.453v-15.19H13.09zm0 0" style="fill:#3382e3;fill-opacity:1;fill-rule:nonzero;stroke:none;stroke-width:.551866"/><path d="M19.949 53.847c.738-.007 1.321-.205 1.321-.447V39.997h-2.727V53.4c0 .246.61.447 1.364.447zm0 0" style="fill:#ff7800;fill-opacity:1;fill-rule:nonzero;stroke:none;stroke-width:.551866"/><path d="M22.676 53.847c.738-.007 1.32-.205 1.32-.447V39.997H21.27V53.4c0 .246.61.447 1.363.447zm0 0" style="fill:#f8f068;fill-opacity:1;fill-rule:nonzero;stroke:none;stroke-width:.551866"/><path d="M23.997 55.187h2.727v-15.19h-2.727zm0 0" style="fill:#195eb3;fill-opacity:1;fill-rule:nonzero;stroke:none;stroke-width:.551866"/><path d="M7.636 53.4h5.454V39.997H7.636Zm0 0" style="fill:#fff;fill-opacity:1;fill-rule:nonzero;stroke:none;stroke-width:.551866"/><path d="M7.636 44.912h5.454v-4.915H7.636Zm0 0" style="fill:#ff7800;fill-opacity:1;fill-rule:nonzero;stroke:none;stroke-width:.551866"/><path d="M18.543 53.4H13.09v-2.68h5.453zm0-11.169H13.09v-1.333h5.453zm0 1.34H13.09v-.446h5.453zm0 0" style="fill:#195eb3;fill-opacity:1;fill-rule:nonzero;stroke:none;stroke-width:.551866"/><path d="M7.636 46.699h5.454v-.894H7.636Zm0 0" style="fill:#ff7800;fill-opacity:1;fill-rule:nonzero;stroke:none;stroke-width:.551866"/><path d="M31.496 54.74a30.677 20.104 0 0 0 2.385-.059c1.476-.08 2.384-.229 2.386-.387V39.997h-9.543v14.297c0 .158.91.307 2.386.387a30.677 20.104 0 0 0 2.386.06m0 0" style="fill:#eb333a;fill-opacity:1;fill-rule:nonzero;stroke:none;stroke-width:.551866"/><path d="M33.2 45.135a1.704 1.117 0 1 0-3.409 0 1.704 1.117 0 0 0 3.409 0m-1.705 6.925a30.677 20.104 0 0 0 2.386-.06c1.476-.08 2.384-.228 2.386-.387V48.04c-.002.159-.91.307-2.386.387a30.677 20.104 0 0 1-2.385.06c-.825 0-1.649-.021-2.386-.06-1.476-.08-2.386-.228-2.386-.387v3.574c0 .159.91.307 2.386.388a30.677 20.104 0 0 0 2.386.059m0-9.829a30.677 20.104 0 0 0 2.385-.06c1.476-.08 2.384-.228 2.386-.386v-.894c-.002.159-.91.307-2.386.387a30.677 20.104 0 0 1-2.385.06c-.825 0-1.649-.021-2.386-.06-1.476-.08-2.386-.228-2.386-.387v.894c0 .158.91.306 2.386.387a30.677 20.104 0 0 0 2.386.06m0 0" style="fill:#bf1926;fill-opacity:1;fill-rule:nonzero;stroke:none;stroke-width:.551866"/><path d="M53.992 54.294h-4.09V39.997h4.09zm0 0" style="fill:#ff7800;fill-opacity:1;fill-rule:nonzero;stroke:none;stroke-width:.551866"/><path d="M45.811 52.507h-2.727v-12.51h2.727zm0 0" style="fill:#de1923;fill-opacity:1;fill-rule:nonzero;stroke:none;stroke-width:.551866"/><path d="M56.718 53.4h-2.726V39.997h2.726zm0 0" style="fill:#195eb3;fill-opacity:1;fill-rule:nonzero;stroke:none;stroke-width:.551866"/><path d="M50.583 41.785a1.363.894 0 1 1 2.727 0 1.363.894 0 1 1-2.727 0m0 0" style="fill:#c54500;fill-opacity:1;fill-rule:nonzero;stroke:none;stroke-width:.551866"/><path d="M47.856 55.634c-.354 0-.705-.02-1.022-.06-.634-.08-1.023-.228-1.023-.387v-15.19h4.09v15.19c0 .159-.39.307-1.022.388a5.726 3.753 0 0 1-1.023.06m0 0" style="fill:#2ec27d;fill-opacity:1;fill-rule:nonzero;stroke:none;stroke-width:.551866"/><path d="M39.676 53.847c1.883 0 3.408-.201 3.408-.447V39.997h-6.817V53.4c0 .246 1.526.447 3.409.447m0 0" style="fill:#dedcd9;fill-opacity:1;fill-rule:nonzero;stroke:none;stroke-width:.551866"/><path d="M39.676 52.507c1.883 0 3.408-.201 3.408-.447v-.894c0 .246-1.525.447-3.408.447s-3.409-.2-3.409-.447v.894c0 .246 1.526.447 3.409.447m0-8.935c1.883 0 3.408-.201 3.408-.447v-1.787c0 .245-1.525.447-3.408.447s-3.409-.202-3.409-.447v1.787c0 .246 1.526.447 3.409.447m0 0" style="fill:#5c5c63;fill-opacity:1;fill-rule:nonzero;stroke:none;stroke-width:.551866"/><path d="M47.856 52.06c.352 0 .706-.02 1.023-.06.631-.08 1.022-.228 1.022-.387v-7.148c0 .159-.39.307-1.022.387a5.726 3.753 0 0 1-1.023.06c-.354 0-.705-.02-1.022-.06-.634-.08-1.023-.228-1.023-.387v7.148c0 .159.389.307 1.023.388a5.726 3.753 0 0 0 1.022.059m0 0" style="fill:#23a168;fill-opacity:1;fill-rule:nonzero;stroke:none;stroke-width:.551866"/><path d="M40.358 49.826h-1.364V45.36h1.364zm0 0" style="fill:#5c5c63;fill-opacity:1;fill-rule:nonzero;stroke:none;stroke-width:.551866"/><path d="M40.358 49.826h-1.364V45.36h1.364zm0 0" style="fill:#999994;fill-opacity:1;fill-rule:nonzero;stroke:none;stroke-width:.551866"/><path d="M35.586 35.083c.351 0 .705-.02 1.022-.06.632-.08 1.023-.228 1.023-.387V20.34h-4.09v14.296c0 .159.388.307 1.022.388a5.726 3.753 0 0 0 1.023.06m0 0" style="fill:#3a3545;fill-opacity:1;fill-rule:nonzero;stroke:none;stroke-width:.551866"/><path d="M26.724 33.743h6.817V20.34h-6.817zm0 0" style="fill:#f5d12b;fill-opacity:1;fill-rule:nonzero;stroke:none;stroke-width:.551866"/><path d="M37.63 35.53h8.181V20.34h-8.18zm0 0" style="fill:#3382e3;fill-opacity:1;fill-rule:nonzero;stroke:none;stroke-width:.551866"/><path d="M26.724 23.02h6.817v-.893h-6.817zm0-1.34h6.817v-.446h-6.817zm0 0" style="fill:#75757a;fill-opacity:1;fill-rule:nonzero;stroke:none;stroke-width:.551866"/><path d="M38.994 33.743h5.454v-1.787h-5.454zm0 0" style="fill:#195eb3;fill-opacity:1;fill-rule:nonzero;stroke:none;stroke-width:.551866"/><path d="M56.718 35.53h-5.453V20.34h5.453zm-29.994-1.787H21.27V20.34h5.454zm0 0" style="fill:#eb333a;fill-opacity:1;fill-rule:nonzero;stroke:none;stroke-width:.551866"/><path d="M51.265 33.743H45.81V20.34h5.454zm0 0" style="fill:#fff;fill-opacity:1;fill-rule:nonzero;stroke:none;stroke-width:.551866"/><path d="M51.265 25.254H45.81V20.34h5.454zm0 0" style="fill:#bf61ca;fill-opacity:1;fill-rule:nonzero;stroke:none;stroke-width:.551866"/><path d="M51.265 33.743h5.453v-2.68h-5.453zm0-11.17h5.453v-1.332h-5.453zm0 1.341h5.453v-.447h-5.453zm0 0" style="fill:#5c5c63;fill-opacity:1;fill-rule:nonzero;stroke:none;stroke-width:.551866"/><path d="M51.265 27.041H45.81v-.893h5.454zm0 0" style="fill:#bf61ca;fill-opacity:1;fill-rule:nonzero;stroke:none;stroke-width:.551866"/><path d="M21.27 35.53h-2.727V20.34h2.727Zm0 0" style="fill:#3382e3;fill-opacity:1;fill-rule:nonzero;stroke:none;stroke-width:.551866"/><path d="M21.27 34.636h-2.727v-2.68h2.727Zm0-3.574h-2.727v-.893h2.727Zm0 0" style="fill:#195eb3;fill-opacity:1;fill-rule:nonzero;stroke:none;stroke-width:.551866"/><path d="M9.681 35.083c.352 0 .706-.02 1.023-.06.63-.08 1.022-.228 1.022-.387V20.34h-4.09v14.296c0 .159.389.307 1.023.388a5.726 3.753 0 0 0 1.022.06m0 0" style="fill:#8f3fab;fill-opacity:1;fill-rule:nonzero;stroke:none;stroke-width:.551866"/><path d="M15.135 33.743c.588 0 1.177-.02 1.704-.06 1.055-.08 1.701-.228 1.704-.387V20.34h-6.817v12.956c0 .159.65.307 1.704.387a15.68 10.275 0 0 0 1.705.06m0 0" style="fill:#57e387;fill-opacity:1;fill-rule:nonzero;stroke:none;stroke-width:.551866"/><path d="M10.363 32.85H8.999V22.126h1.364zm0 0" style="fill:#613382;fill-opacity:1;fill-rule:nonzero;stroke:none;stroke-width:.551866"/><path d="M24.679 28.382h-1.364v-4.468h1.363zm2.045 3.574H21.27v-1.34h5.454zm0 0" style="fill:#a31c2b;fill-opacity:1;fill-rule:nonzero;stroke:none;stroke-width:.551866"/><path d="M17.002 16.97A12.973 12.973 0 0 0 3.999 29.972V46.97a12.973 12.973 0 0 0 13.003 13H47a12.973 12.973 0 0 0 13.002-13.001V29.972A12.973 12.973 0 0 0 47 16.971Zm.48 3.313h29.037c5.633 0 10.17 4.351 10.17 9.756v6.54H7.312v-6.54c0-5.405 4.536-9.756 10.17-9.756M7.312 40.361h49.377v6.541c0 5.405-4.537 9.756-10.17 9.756H17.482c-5.634 0-10.17-4.351-10.17-9.756z" style="fill:#c6a283;fill-opacity:1;stroke-width:5.64118;stroke-linecap:round;stroke-linejoin:round;paint-order:markers stroke fill"/><path d="M60.002 29.972V16.97A12.973 12.973 0 0 0 47 3.969H17.002A12.973 12.973 0 0 0 4 16.971v13.001A12.973 12.973 0 0 1 17.002 16.97H47a12.973 12.973 0 0 1 13.002 13.002" style="display:inline;fill:#b38259;fill-opacity:1"/><path d="M3.998 45.998v1c0 7.203 5.8 13.004 13.004 13.004h29.996c7.203 0 13.004-5.8 13.004-13.004v-1c0 7.203-5.8 13.002-13.004 13.002H17.002A12.975 12.975 0 0 1 3.998 45.998" opacity=".15"/><path fill="#fff" d="M3.998 18.004v-1C3.998 9.801 9.798 4 17.002 4h29.996c7.203 0 13.004 5.8 13.004 13.004v1c0-7.203-5.8-13.002-13.004-13.002H17.002A12.975 12.975 0 0 0 3.998 18.004" opacity=".15"/></svg>