<svg xmlns="http://www.w3.org/2000/svg" width="64" height="64" image-rendering="optimizeSpeed"><defs><linearGradient id="a" x1="7.937" x2="7.937" y1="15.081" y2="1.852" gradientTransform="scale(3.7796)" gradientUnits="userSpaceOnUse"><stop offset="0" stop-color="#424242"/><stop offset="1" stop-color="gray"/></linearGradient></defs><rect width="56.002" height="56.002" x="4" y="3.969" fill="url(#a)" rx="13.002" ry="13.002"/><path fill="#fff" d="M30.526 13C20.742 13.59 13 21.887 13 32.002 13 42.501 21.595 51 32.013 51 42.122 51 50.518 42.71 51 32.852h-4.538c-.48 7.584-6.715 13.601-14.33 13.601-7.93 0-14.617-6.483-14.617-14.471 0-7.605 6.238-13.825 13.011-14.409zm2.26 0v4.57c3.763.241 5.98 1.447 8.207 3.326l3.317-3.225C41.253 14.977 37.3 13.257 32.786 13m13.374 6.224-3.208 3.212a14.65 14.65 0 0 1 3.49 8.142h4.53c-.303-4.55-2.069-8.29-4.812-11.353zm-5.772 4.247-9.565 5.91.01.01a3 3 0 0 0-1.533 2.612c0 1.66 1.338 3.007 2.985 3.007 1.158 0 2.15-.67 2.646-1.64l.007.007z"/></svg>