<svg xmlns="http://www.w3.org/2000/svg" viewBox="0 0 64 64"><rect width="56.002" height="56.002" x="4" y="3.969" fill="#c281de" rx="13.002" ry="13.002" style="fill:#f45270;fill-opacity:1"/><path d="M3.998 45.998v1c0 7.203 5.8 13.004 13.004 13.004h29.996c7.203 0 13.004-5.8 13.004-13.004v-1c0 7.203-5.8 13.002-13.004 13.002H17.002A12.975 12.975 0 0 1 3.998 45.998" opacity=".15"/><path fill="#fff" d="M3.998 18.004v-1C3.998 9.801 9.798 4 17.002 4h29.996c7.203 0 13.004 5.8 13.004 13.004v1c0-7.203-5.8-13.002-13.004-13.002H17.002A12.975 12.975 0 0 0 3.998 18.004" opacity=".15"/><circle cx="32.02" cy="32.044" r="30.001" fill="none"/><circle cx="32.02" cy="32.044" r="30.001" fill="none"/><path d="M72.827 34.083a19.05 19.05 0 0 1 3.86 9.395c.007.12.031.24.044.36v.027c.005.123.023.248.033.373v.064c.004.124.007.247.024.37q.003.187.016.374 0 .131.003.262v.492a19.1 19.1 0 0 1-3.431 10.938 17.2 17.2 0 0 1 .203 5.944 16.7 16.7 0 0 0 3.151-1.087 17 17 0 0 0 2.172-1.194q.214.74.358 1.507c.201 1.06.302 2.137.3 3.216 0 .857-.062 1.715-.19 2.563a16.9 16.9 0 0 0 6.512-2.066 16.6 16.6 0 0 1 .268 3.028c0 1.18-.118 2.356-.36 3.511a17 17 0 0 0 5.161-1.029 28.3 28.3 0 0 0 1.791-9.94 25 25 0 0 0-.062-2.206 28.4 28.4 0 0 0-1.237-6.374c-.26.701-.59 1.375-.985 2.011a25.48 25.48 0 0 0-10.425-16.956 25.4 25.4 0 0 0-7.21-3.583zm-25.677.034a33 33 0 0 0-7.27 4.52 33.05 33.05 0 0 0-11.247 17.956 33 33 0 0 0-.89 7.633 32.9 32.9 0 0 0 4.037 15.84 17 17 0 0 1 1.206-4.64A31.58 31.58 0 0 0 56.238 94.36a17 17 0 0 1-2.175-3.743 29.8 29.8 0 0 0 8.463 1.443c.255 0 .513.011.769.011a29.8 29.8 0 0 0 13.185-3.058 17 17 0 0 1-1.962-1.291 28.46 28.46 0 0 0 15.373-14.044 17 17 0 0 1-4.811.993c-.35.024-.705.033-1.056.033h-.35a17 17 0 0 0 .533-4.245q0-.957-.107-1.907a16.9 16.9 0 0 1-6.816 1.743q.25-1.244.31-2.51c.007-.28.017-.564.017-.847a17 17 0 0 0-.384-3.606 17 17 0 0 1-4.14 1.746q-.788.215-1.604.356l-.006-.02a16.7 16.7 0 0 0 .327-3.316c0-1.025-.09-2.046-.274-3.054a19.1 19.1 0 0 1-13.863 5.92 19.1 19.1 0 0 1-8.794-2.13 17 17 0 0 0 3.505-1.856 17.06 17.06 0 0 1-9.399-18.45 16.8 16.8 0 0 1 2.128-5.658 17 17 0 0 1 2.046-2.751z" style="opacity:.2;stroke-width:1.71639" transform="translate(.488 -1.143)scale(.52308)"/><path d="M72.827 32.361a19.05 19.05 0 0 1 3.86 9.395c.007.119.031.24.044.36v.027c.005.123.023.248.033.373v.064c.004.124.007.247.024.37q.003.187.016.373 0 .132.003.263v.491a19.1 19.1 0 0 1-3.431 10.939 17.2 17.2 0 0 1 .203 5.943 16.7 16.7 0 0 0 3.151-1.086 17 17 0 0 0 2.172-1.194q.214.738.358 1.507c.201 1.06.302 2.137.3 3.215 0 .858-.062 1.716-.19 2.564a16.9 16.9 0 0 0 6.512-2.066 16.6 16.6 0 0 1 .268 3.028c0 1.18-.118 2.356-.36 3.511a17 17 0 0 0 5.161-1.029 28.3 28.3 0 0 0 1.791-9.94 25 25 0 0 0-.062-2.206 28.4 28.4 0 0 0-1.237-6.375 11 11 0 0 1-.985 2.012 25.48 25.48 0 0 0-10.425-16.957 25.4 25.4 0 0 0-7.211-3.582zm-25.677.034a33 33 0 0 0-7.27 4.52 33.05 33.05 0 0 0-11.247 17.956 33 33 0 0 0-.89 7.632 32.9 32.9 0 0 0 4.037 15.84c.18-1.595.586-3.158 1.206-4.638a31.58 31.58 0 0 0 23.252 18.934 17 17 0 0 1-2.175-3.744 29.8 29.8 0 0 0 8.463 1.443c.255 0 .513.01.769.01A29.8 29.8 0 0 0 76.48 87.29 17 17 0 0 1 74.518 86a28.46 28.46 0 0 0 15.373-14.044 17 17 0 0 1-4.811.993c-.35.024-.705.033-1.056.033h-.35a17 17 0 0 0 .533-4.245q0-.956-.107-1.907a16.9 16.9 0 0 1-6.816 1.743q.25-1.244.31-2.51c.007-.28.017-.564.017-.847a17 17 0 0 0-.384-3.606 17 17 0 0 1-4.14 1.746q-.788.215-1.604.356l-.006-.019a16.7 16.7 0 0 0 .327-3.316q.001-1.54-.274-3.055a19.1 19.1 0 0 1-13.863 5.92 19.1 19.1 0 0 1-8.794-2.129 17 17 0 0 0 3.505-1.857 17.06 17.06 0 0 1-9.399-18.45 16.8 16.8 0 0 1 2.128-5.658 17 17 0 0 1 2.046-2.75z" style="fill:#fff;fill-opacity:1;stroke-width:1.71639" transform="translate(.488 -1.143)scale(.52308)"/></svg>