<svg xmlns="http://www.w3.org/2000/svg" viewBox="0 0 64 64"><rect width="56.002" height="56.002" x="4" y="3.969" fill="#f2f2f2" rx="13.002" ry="13.002"/><path d="M3.998 45.998v1c0 7.203 5.8 13.004 13.004 13.004h29.996c7.203 0 13.004-5.8 13.004-13.004v-1c0 7.203-5.8 13.002-13.004 13.002H17.002A12.975 12.975 0 0 1 3.998 45.998" opacity=".1"/><path fill="#fff" d="M3.998 18.004v-1C3.998 9.801 9.798 4 17.002 4h29.996c7.203 0 13.004 5.8 13.004 13.004v1c0-7.203-5.8-13.002-13.004-13.002H17.002A12.975 12.975 0 0 0 3.998 18.004" opacity=".5"/><path fill="#3f3f3f" d="M32.5 27.474c-.828 0-1.5.638-1.5 1.425v22.676c0 .787.672 1.425 1.5 1.425s1.5-.638 1.5-1.425V28.899c0-.787-.672-1.425-1.5-1.425"/><ellipse cx="40.346" cy="12.98" fill="#3f3f3f" rx="5.235" ry="3.687" transform="rotate(30.9)scale(.9986 1)skewY(-3.023)"/><ellipse cx="-17.563" cy="39.87" fill="#3f3f3f" rx="5.235" ry="3.687" transform="matrix(-.88399 .46751 .51354 .85806 0 0)"/><path fill="#e27f29" d="M21.378 21.027C18.728 22.975 17 26.112 17 29.641c0 3.592 1.79 6.778 4.523 8.717l1.678-2.285a7.81 7.81 0 0 1-3.351-6.432 7.8 7.8 0 0 1 3.142-6.276z"/><path fill="#e27f29" d="M17.755 16.215C13.655 19.342 11 24.275 11 29.817c0 5.471 2.587 10.349 6.6 13.482l1.677-2.285a14.21 14.21 0 0 1-5.427-11.197c0-4.59 2.16-8.663 5.517-11.266zm25.845-.621-1.614 2.338a7.8 7.8 0 0 1 3.142 6.276 7.81 7.81 0 0 1-3.351 6.432l1.678 2.285c2.732-1.94 4.523-5.125 4.523-8.717 0-3.529-1.727-6.666-4.378-8.614"/><path fill="#e27f29" d="m47.222 10.782-1.611 2.335a14.21 14.21 0 0 1 5.516 11.266c0 4.55-2.121 8.59-5.427 11.197l1.678 2.285c4.012-3.132 6.599-8.01 6.599-13.482 0-5.541-2.655-10.475-6.755-13.602z"/><path fill="#fff" d="M21.1 3C11.627 3 4 10.626 4 20.1v1C4 11.627 11.626 4 21.1 4h22.801c9.473 0 17.1 7.626 17.1 17.1v-1c0-9.473-7.626-17.1-17.1-17.1z" opacity=".2"/></svg>