<svg xmlns="http://www.w3.org/2000/svg" viewBox="0 0 64 64"><rect width="56.002" height="56.002" x="4" y="3.969" fill="#06b7e1" rx="13.002" ry="13.002"/><g fill="#fff"><rect width="2" height="40" x="18" y="12" opacity=".75" rx="1" ry="1" style="paint-order:markers stroke fill"/><rect width="2" height="40" x="30" y="12" opacity=".75" rx="1" ry="1" style="paint-order:markers stroke fill"/><rect width="2" height="40" x="42" y="12" opacity=".75" rx="1" ry="1" style="paint-order:markers stroke fill"/></g><circle cx="31" cy="20" r="3" fill="#fff" style="paint-order:markers stroke fill"/><circle cx="43" cy="46" r="3" fill="#fff" style="paint-order:markers stroke fill"/><circle cx="19" cy="38" r="3" fill="#fff" style="paint-order:markers stroke fill"/><path d="M3.998 45.998v1c0 7.203 5.8 13.004 13.004 13.004h29.996c7.203 0 13.004-5.8 13.004-13.004v-1c0 7.203-5.8 13.002-13.004 13.002H17.002A12.975 12.975 0 0 1 3.998 45.998" opacity=".15"/><path fill="#fff" d="M3.998 18.004v-1C3.998 9.801 9.798 4 17.002 4h29.996c7.203 0 13.004 5.8 13.004 13.004v1c0-7.203-5.8-13.002-13.004-13.002H17.002A12.975 12.975 0 0 0 3.998 18.004" opacity=".15"/></svg>