<svg xmlns="http://www.w3.org/2000/svg" viewBox="0 0 64 64"><rect width="64" height="64" fill="none" rx="0" ry="0" style="paint-order:stroke fill markers"/><rect width="56.002" height="56.002" x="4" y="3.969" fill="#74f295" rx="13.002" ry="13.002"/><circle cx="32.02" cy="32.044" r="30.001" fill="none"/><path fill="#2597e6" d="M31.877 17.233a3.56 3.56 0 0 0-3.569 3.569v.245c0 .453.09.881.242 1.279l-4.788 3.99a5.5 5.5 0 0 0-2.224-.47A5.54 5.54 0 0 0 16 31.386a5.54 5.54 0 0 0 5.538 5.538 5.5 5.5 0 0 0 2.346-.53l4.877 4.065a4.14 4.14 0 0 0-.454 1.861v.283a4.157 4.157 0 0 0 4.166 4.166H42.6a4.157 4.157 0 0 0 4.165-4.166v-.283a4.157 4.157 0 0 0-4.165-4.166H32.473c-.917 0-1.757.3-2.442.798l-3.826-4.593a5.5 5.5 0 0 0 .685-1.57l2.847-.259a2.96 2.96 0 0 0 2.779 1.932h12.509A2.97 2.97 0 0 0 48 31.485v-.201a2.97 2.97 0 0 0-2.976-2.976h-12.51a2.96 2.96 0 0 0-2.778 1.93l-2.844-.258a5.5 5.5 0 0 0-.745-1.664l3.65-4.38c.586.423 1.3.678 2.08.678H43.2a3.56 3.56 0 0 0 3.57-3.569v-.244a3.56 3.56 0 0 0-3.57-3.57H31.88z"/><g fill="#d0f9e7"><rect width="15.999" height="4.923" x="29.539" y="18.464" rx="2.38"/><rect width="15.999" height="3.692" x="30.769" y="29.54" rx="1.784"/><rect width="15.999" height="6.153" x="29.539" y="39.385" rx="2.974"/></g><circle cx="21.539" cy="31.386" r="4.307" fill="#87c5e0"/><path d="M3.999 45.998V47A12.975 12.975 0 0 0 17 60.002h30A12.975 12.975 0 0 0 60.002 47v-1.002A12.975 12.975 0 0 1 47 59H17A12.975 12.975 0 0 1 4 45.998z" opacity=".15"/><path fill="#fff" d="M3.999 18.002v-.994A12.975 12.975 0 0 1 17 4.006h30a12.975 12.975 0 0 1 13.002 13.002v1.002A12.975 12.975 0 0 0 47 5.008H17A12.975 12.975 0 0 0 4 18.01z" opacity=".15"/></svg>