<svg xmlns="http://www.w3.org/2000/svg" image-rendering="optimizeSpeed" viewBox="0 0 64 64"><defs><linearGradient id="a" x2="1" gradientTransform="rotate(-90 25.66 -6.867)scale(8.0754)" gradientUnits="userSpaceOnUse"><stop offset="0" stop-color="#ff8000"/><stop offset="1" stop-color="#fec919"/></linearGradient></defs><rect width="56.002" height="56.002" x="4" y="3.969" fill="#666" rx="13.002" ry="13.002"/><g fill-rule="evenodd" stroke-linejoin="round" stroke-miterlimit="1.414" clip-rule="evenodd"><path fill="#ff8c04" d="M21.948 31.028c0-.254.422-.46.953-.46h.082c.022.002.726 0 .726 0l-1.268 3.423-1.418-.555s.925-2.154.925-2.408"/><g stroke-width=".306"><path fill="url(#a)" d="M35.062 13.308h-5.007l2.471 3.781z"/><path fill="#ff9f0b" d="M29.851 13.52c.047-.127.13-.212.226-.212.07 0 .135.047.182.124l2.145 3.325c.054.085.198.094.264 0l2.19-3.325c.048-.077.112-.124.183-.124.096 0 .179.085.226.212l-.001-.003 14.387 35.77c.078.176.047.23-.157.096L28.337 36.595 15.361 49.54z"/><path fill="#fff" fill-opacity=".2" d="m23.434 37.254 8.359-22.039 1.423-.003L44.13 42.909l-14.409-9.06z"/><path fill="#fec919" d="M22.9 31.489h22.541c.149 0 .14.049-.002.14L14.493 50.631q-.28.17-.136-.14l7.591-19.494s-.07.447.953.492z"/></g><path fill="#fff" d="M21.384 32.472c.027.386.404.506.794.511l18.836-.17-25.653 15.11zm12.642-19.164-1.5 2.336-1.429-2.336z" opacity=".35"/></g><path d="M3.999 45.998V47A12.975 12.975 0 0 0 17 60.002h30A12.975 12.975 0 0 0 60.002 47v-1.002A12.975 12.975 0 0 1 47 59H17A12.975 12.975 0 0 1 4 45.998z" opacity=".15"/><path fill="#fff" d="M3.999 18.002v-.994A12.975 12.975 0 0 1 17 4.006h30a12.975 12.975 0 0 1 13.002 13.002v1.002A12.975 12.975 0 0 0 47 5.008H17A12.975 12.975 0 0 0 4 18.01z" opacity=".15"/></svg>