<svg xmlns="http://www.w3.org/2000/svg" viewBox="0 0 64 64"><rect width="56.002" height="56.002" x="4" y="3.969" fill="#4d4d4d" rx="13.002" ry="13.002"/><path d="M3.998 45.998v1c0 7.203 5.8 13.004 13.004 13.004h29.996c7.203 0 13.004-5.8 13.004-13.004v-1c0 7.203-5.8 13.002-13.004 13.002H17.002A12.975 12.975 0 0 1 3.998 45.998" opacity=".35"/><path fill="#fff" d="M3.998 18.004v-1C3.998 9.801 9.798 4 17.002 4h29.996c7.203 0 13.004 5.8 13.004 13.004v1c0-7.203-5.8-13.002-13.004-13.002H17.002A12.975 12.975 0 0 0 3.998 18.004" opacity=".15"/><path fill="#fefefe" d="M32.017 19.498c6.89 0 12.485 5.595 12.485 12.52v.069h.385a9.7 9.7 0 0 1 7.764 3.847c.245-1.258.349-2.587.349-3.917C53 20.407 43.593 11 32.017 11 20.407 11 11 20.407 11 32.017 11 43.593 20.407 53 32.017 53a21.1 21.1 0 0 0 8.779-1.924 8.6 8.6 0 0 0 3.007.525h.595c4.406-.314 7.938-3.986 7.938-8.498 0-1.678-.49-3.217-1.294-4.546-1.539-2.378-4.197-3.987-7.239-3.987a8.52 8.52 0 0 0-8.533 8.533c0 .315 0 .63.035.945-1.05.28-2.168.454-3.288.454-6.924 0-12.519-5.595-12.519-12.485a12.507 12.507 0 0 1 12.52-12.519m5.28 9.197c-1.12-1.749-3.078-2.938-5.28-2.938a6.254 6.254 0 0 0-6.26 6.26c0 3.427 2.798 6.226 6.26 6.226.139 0 .28 0 .419-.035a6.2 6.2 0 0 0 5.806-6.19 6.27 6.27 0 0 0-.945-3.323" class="fil2" style="fill:#fefefe;stroke-width:.0349715"/></svg>