<svg xmlns="http://www.w3.org/2000/svg" width="64" height="64"><defs><linearGradient id="a" x1="7.937" x2="7.937" y1="15.081" y2="1.852" gradientTransform="scale(3.7796)" gradientUnits="userSpaceOnUse"><stop offset="0" stop-color="#0e71de"/><stop offset="1" stop-color="#25c9ff"/></linearGradient><linearGradient id="b" x1="30" x2="30" y1="19" y2="45" gradientUnits="userSpaceOnUse"><stop offset="0" stop-color="#fff"/><stop offset="1" stop-color="#c1efff"/></linearGradient></defs><rect width="64" height="64" fill="none" rx="0" ry="0" style="paint-order:stroke fill markers"/><rect width="56.002" height="56.002" x="4" y="3.969" fill="url(#a)" rx="13.002" ry="13.002"/><circle cx="32.02" cy="32.044" r="30.001" fill="none"/><path fill="url(#b)" d="M27.076 33.723V44.33l4.239.564V46H19.727v-1.106l3.32-.564V19.65l-3.592-.543v-1.106h12.09q5.26 0 7.766 1.774t2.506 5.7q0 2.798-1.524 4.845-1.524 2.025-4.218 2.818l7.58 11.192 3.027.564v1.107H39.98l-7.872-12.277zm10.586-7.955q0-3.195-1.566-4.531-1.545-1.357-5.45-1.357h-3.57v11.964h3.695q3.738 0 5.304-1.378 1.587-1.4 1.587-4.698" aria-label="R" style="paint-order:stroke fill markers"/></svg>