<svg xmlns="http://www.w3.org/2000/svg" width="64" height="64" viewBox="0 0 16.933 16.933"><defs><linearGradient id="b" x1="4" x2="8" y1="31.97" y2="31.97" gradientUnits="userSpaceOnUse"><stop offset="0" stop-color="#1e170b" stop-opacity=".45"/><stop offset=".486" stop-opacity=".15"/><stop offset="1" stop-opacity=".35"/></linearGradient><linearGradient id="a" x1="8.111" x2="8.111" y1="14.648" y2="2.624" gradientUnits="userSpaceOnUse"><stop offset="0" stop-color="#2d3137"/><stop offset="1" stop-color="#4a4a4e"/></linearGradient><linearGradient id="c" x1="8" x2="60.002" y1="31.969" y2="31.969" gradientUnits="userSpaceOnUse"><stop offset="0" stop-color="#0894e6"/><stop offset="1" stop-color="#44b5f8"/></linearGradient></defs><rect width="14.817" height="14.817" x="1.058" y="1.05" fill="url(#a)" rx="3.44" ry="3.44"/><path fill="url(#b)" d="M8 7.586a12.95 12.95 0 0 0-4 9.385v29.998c0 3.699 1.537 7.021 4 9.384z" opacity=".5" transform="scale(.26458)"/><path fill="url(#c)" d="M44.789 3.969c-.484.228-.91.533-1.256.933C25.494 19.702 20.743 21.526 8 24.488v6.342c3.395-.547 10.024-2.06 17.103-6.316C35.171 18.459 47.208 6.963 47.208 6.963c-3.134 5.903-4.198 26.663-4.353 53.007h4.144q.656-.001 1.305-.065.014 0 .027-.002l.084-.01a14 14 0 0 0 1.67-.292q.135-.032.27-.067A12.97 12.97 0 0 0 60 46.968c-4.385-10.336-5.022-22.479-.969-34.935a12.97 12.97 0 0 0-4.785-5.869 13 13 0 0 0-2.254-1.207 13 13 0 0 0-2.425-.734l-.059-.012a13 13 0 0 0-2.51-.242zM8 34.919v6.688c8.213 1.008 18.437 7.947 24.744 18.363h5.928C31.976 48.078 14.752 36.165 8 34.92z" transform="scale(.26458)"/><path fill="#fff" d="M4.498 1.05a3.43 3.43 0 0 0-3.44 3.44v.273a3.43 3.43 0 0 1 3.44-3.44h7.937a3.43 3.43 0 0 1 3.44 3.44V4.49a3.43 3.43 0 0 0-3.44-3.44z" opacity=".25"/><path d="M4.498 15.875a3.43 3.43 0 0 1-3.44-3.44v-.273a3.43 3.43 0 0 0 3.44 3.44h7.937a3.43 3.43 0 0 0 3.44-3.44v.273a3.43 3.43 0 0 1-3.44 3.44z" opacity=".25"/></svg>