<svg xmlns="http://www.w3.org/2000/svg" width="64" height="64" viewBox="0 0 16.933 16.933"><defs><radialGradient id="b" cx="55" cy="10" r="28.001" gradientTransform="translate(15.808 5.954)scale(-.3307)" gradientUnits="userSpaceOnUse"><stop offset="0" stop-color="#ff2488"/><stop offset=".36" stop-color="#ff24ab"/><stop offset="1" stop-color="#f924ff" stop-opacity="0"/></radialGradient><linearGradient id="a" x1="7.937" x2="7.937" y1="15.081" y2="1.852" gradientTransform="translate(0 .008)scale(.99996)" gradientUnits="userSpaceOnUse"><stop offset="0" stop-color="#873df0"/><stop offset="1" stop-color="#f25ef3"/></linearGradient></defs><rect width="14.816" height="14.816" x="1.058" y="1.058" fill="url(#a)" rx="3.44" ry="3.44"/><rect width="14.817" height="14.817" x="-15.875" y="1.05" fill="url(#b)" opacity=".75" rx="3.44" ry="3.44" transform="scale(-1 1)"/><rect width="10.583" height="10.583" x="3.175" y="3.175" fill-rule="evenodd" rx="1.588" ry="1.588" style="paint-order:stroke fill markers"/><path fill="#f9f9f9" d="M4.786 4.877v4.232h.77v-1.54h.768c.927 0 1.54-.377 1.54-1.326v-.02c0-.857-.418-1.346-1.413-1.346zm5.396 0c-.833 0-1.557.418-1.557 1.183v.023c0 .537.538 1.012 1.372 1.222.693.186.955.353.955.584v.023c0 .255-.4.428-.77.428-.463 0-.784-.173-1.154-.474l-.503.545c.487.44 1.032.675 1.657.699.88 0 1.523-.55 1.523-1.266v-.025c0-.633-.496-.898-1.33-1.13-.694-.186-.962-.315-.962-.592v-.072c0-.21.421-.38.768-.38s.61.026.979.28l.428-.583c-.437-.265-.805-.465-1.406-.465m-4.627.768h.77c.463 0 .769.16.769.578v.02c0 .347-.306.558-.768.558h-.77zm-1.057 5.467h3.968v.794H4.498z"/></svg>