<svg xmlns="http://www.w3.org/2000/svg" viewBox="0 0 64 64"><rect width="64" height="64" fill="none" rx="0" ry="0" style="paint-order:stroke fill markers"/><rect width="56.002" height="56.002" x="4" y="3.969" fill="#ffcf19" rx="13.002" ry="13.002"/><circle cx="32.02" cy="32.044" r="30.001" fill="none"/><path fill="#674b20" d="M11 26v6h6v-6zm6 6v6h6v-6zm6 0h6v-6h-6zm6 0v6h6v-6zm6 0h6v-6h-6zm6 0v6h6v-6zm6 0h6v-6h-6z"/><path d="M3.998 45.998v1c0 7.203 5.8 13.004 13.004 13.004h29.996c7.203 0 13.004-5.8 13.004-13.004v-1c0 7.203-5.8 13.002-13.004 13.002H17.002A12.975 12.975 0 0 1 3.998 45.998" opacity=".15"/><path fill="#fff" d="M3.998 18.004v-1C3.998 9.801 9.798 4 17.002 4h29.996c7.203 0 13.004 5.8 13.004 13.004v1c0-7.203-5.8-13.002-13.004-13.002H17.002A12.975 12.975 0 0 0 3.998 18.004" opacity=".15"/></svg>