<svg xmlns="http://www.w3.org/2000/svg" width="64" height="64"><defs><linearGradient id="b" x2="0" y1="33" y2="7" gradientTransform="translate(54.75 -3)scale(1.75)" gradientUnits="userSpaceOnUse"><stop offset="0" stop-color="#fb9614"/><stop offset="1" stop-color="#fe3838"/></linearGradient><linearGradient id="a" x1="7.937" x2="7.937" y1="15.081" y2="1.852" gradientTransform="scale(3.7796)" gradientUnits="userSpaceOnUse"><stop offset="0" stop-color="#f1efeb"/><stop offset="1" stop-color="#fdfcfc"/></linearGradient></defs><rect width="56.002" height="56.002" x="4" y="3.969" fill="url(#a)" rx="13.002" ry="13.002"/><path fill="url(#b)" d="M25 9.25c-.875 0-3.938 3.5-4.375 3.5h-2.188c-.875 0-3.937 3.063-3.937 3.938v2.625c0 .437-3.48 3.5-3.5 4.375S17.125 45.126 18 46s10.5 8.75 13.125 8.75h1.75C35.5 54.75 45.125 46.875 46 46s7.018-21.438 7-22.312c-.02-.87-3.5-3.938-3.5-4.375v-2.625c0-.875-3.063-3.938-3.938-3.938h-2.187c-.438 0-3.5-3.5-4.375-3.5z"/><path fill="#fff" d="M32 15.361c-.872 0-1.74.3-2.625.889-2.625 1.75-6.125-.875-7-.875s-6.125 6.375-6.125 8.75c0 1.75 6.563 5.775 6.563 7 0 .875-1.313 1.295-1.313 3.152 0 1.223 1.75 3.41 3.5 3.41s6.128-3.435 6.125-4.285v-.527c0-1.05-3.938-2.373-3.938-4.375 0-1.75 1.313-2.397 1.313-4.375 0-1.7-3.5-2.187-6.125-2.625-.875 0 2.625-2.879 7.438.233 1.218.787-1.313 3.9-.875 6.767.656.613 1.86.919 3.062.919 1.204 0 2.406-.307 3.063-.919.437-2.866-2.094-5.98-.876-6.767C39 18.62 42.5 21.5 41.626 21.5c-2.625.438-6.125.924-6.125 2.625 0 1.978 1.313 2.625 1.313 4.375 0 2.002-3.938 3.325-3.938 4.375v.527c-.004.85 4.375 4.286 6.125 4.286s3.5-2.188 3.5-3.411c0-1.855-1.313-2.277-1.313-3.152 0-1.225 6.563-5.25 6.563-7 0-2.375-5.25-8.75-6.125-8.75s-4.375 2.625-7 .875c-.885-.59-1.75-.889-2.625-.889zM32 36.2c-1.75 0-5.688 2.712-5.688 3.237S30.25 44.25 32 44.25s5.688-4.287 5.688-4.813S33.75 36.2 32 36.2"/></svg>