<svg xmlns="http://www.w3.org/2000/svg" width="64" height="64" aria-label="Wikipedia"><defs><linearGradient id="a" x1="7.937" x2="7.937" y1="15.081" y2="1.852" gradientTransform="scale(3.7796)" gradientUnits="userSpaceOnUse"><stop offset="0" stop-color="#f1efeb"/><stop offset="1" stop-color="#fdfcfc"/></linearGradient></defs><rect width="64" height="64" fill="none" rx="0" ry="0" style="paint-order:stroke fill markers"/><rect width="56.002" height="56.002" x="4" y="3.969" fill="url(#a)" rx="13.002" ry="13.002"/><path d="M9.82 18v.929c0 .232.117.348.465.348 2.323.116 2.323.58 3.252 2.671l10.45 22.76c.814 1.626 1.859 1.858 2.904-.116l5.225-10.219 4.877 10.219c.93 1.742 1.858 1.858 2.787 0l9.987-22.527c.929-1.974 2.206-2.787 4.18-2.787.232 0 .232-.116.232-.348V18h-9.29l-.116.117v.813c0 .232.233.348.465.348 1.161 0 3.367.232 2.438 2.206L39.548 40.76l-.348-.116-4.994-10.219 4.297-8.36c.929-1.742 1.161-2.787 2.903-2.787.232 0 .464-.116.464-.349v-.813L41.754 18h-7.432l-.116.116v.813c0 .349.465.349.813.349 2.09.116 1.858.929 1.161 2.206l-3.135 6.503-2.903-6.039c-1.045-1.857-1.277-2.438.232-2.554.349-.116.93-.116.93-.465v-.813L31.186 18h-8.012l-.116.116v.93c0 .232.232.232.58.232 1.394.232 1.394.348 2.671 3.019l4.645 9.754-4.297 8.71-.348-.117-8.825-19.392c-.929-1.974.232-1.858 2.09-1.974.348 0 .348-.116.348-.349v-.812L19.807 18z"/></svg>