<svg xmlns="http://www.w3.org/2000/svg" xml:space="preserve" image-rendering="optimizeSpeed" viewBox="0 0 64 64"><rect width="56.002" height="56.002" x="4" y="3.969" fill="#ececec" rx="13.002" ry="13.002"/><path d="M3.998 45.998v1c0 7.203 5.8 13.004 13.004 13.004h29.996c7.203 0 13.004-5.8 13.004-13.004v-1c0 7.203-5.8 13.002-13.004 13.002H17.002A12.975 12.975 0 0 1 3.998 45.998" opacity=".1"/><path fill="#fff" d="M3.998 18.004v-1C3.998 9.801 9.798 4 17.002 4h29.996c7.203 0 13.004 5.8 13.004 13.004v1c0-7.203-5.8-13.002-13.004-13.002H17.002A12.975 12.975 0 0 0 3.998 18.004" opacity=".5"/><g stroke-width="1.188"><path fill="#fff" d="M28.546 17.385s-2.026 4.972-2.026 5.303v28.31h10.961v-28.31l-1.826-5.303z"/><path fill="#e1e1d8" d="M28.346 17.385s-1.826 4.972-1.826 5.302h10.96c0-.178-1.826-5.302-1.826-5.302z"/><path fill="#e0dedb" d="M13 26.116c.182.005 13.52 0 13.52 0 0-4.684-4.327-8.73-4.384-11.654h-4.75c0 2.924-4.387 6.97-4.386 11.654"/><path fill="#2a7fe4" d="M28.346 15.536v1.849h7.308v-1.849z"/></g><path fill="#2a7fe4" d="M32 29.091c-2.74 0-2.74 3.456-2.74 3.456h-2.74v5.285h10.96v-5.285h-2.739s0-3.456-2.74-3.456zm0 .73s1.993 2.431 1.264 3.633-1.8 1.202-2.529 0S32 29.82 32 29.82z"/><g stroke-width="1.188"><path fill="#ffba69" d="m16.437 17.385-.004.004c-1.29 2.486-3.434 5.45-3.431 8.724v21.963a3.5 3.5 0 0 0 .053.592 3 3 0 0 0 .158.548 3 3 0 0 0 .58.93 3 3 0 0 0 .625.502q.116.067.238.124.123.053.25.096l.129.04a2 2 0 0 0 .4.076 2 2 0 0 0 .279.016H26.52V26.114c0-3.275-2.116-6.238-3.408-8.725l-.004-.003z"/><path fill="#eb5356" d="M40.404 22.115c-1.554.76-2.922 2.452-2.922 4.212V51h10.524c1.66-.007 2.995-1.375 2.995-3.073V26.326c0-1.764-1.364-3.453-2.924-4.211z"/><path fill="#50ce77" d="M17.385 13h4.75v1.462h-4.75z"/><path fill="#67656c" d="M40.404 21.384h7.674v.743h-7.674z"/><path fill="#e1e1d8" d="M40.404 18.846h7.674v2.538h-7.674z"/><path fill="#fff" d="M46.616 44.967H51v1.648h-4.384z" opacity=".5"/><path fill="#33d17a" fill-opacity=".855" d="M19.76 28.346a3.654 3.654 0 1 0 0 7.308 3.654 3.654 0 0 0 0-7.308"/></g></svg>