<svg xmlns="http://www.w3.org/2000/svg" viewBox="0 0 64 64"><defs><linearGradient id="a" x1="7.937" x2="7.937" y1="15.081" y2="1.852" gradientTransform="scale(3.7796)" gradientUnits="userSpaceOnUse"><stop offset="0" stop-color="#f54800"/><stop offset="1" stop-color="#ffb200"/></linearGradient></defs><rect width="56.002" height="56.002" x="4" y="3.969" fill="url(#a)" rx="13.002" ry="13.002" style="fill:#fa7f00;fill-opacity:1"/><path d="M3.998 45.998v1c0 7.203 5.8 13.004 13.004 13.004h29.996c7.203 0 13.004-5.8 13.004-13.004v-1c0 7.203-5.8 13.002-13.004 13.002H17.002A12.975 12.975 0 0 1 3.998 45.998" opacity=".15"/><path fill="#fff" d="M3.998 18.004v-1C3.998 9.801 9.798 4 17.002 4h29.996c7.203 0 13.004 5.8 13.004 13.004v1c0-7.203-5.8-13.002-13.004-13.002H17.002A12.975 12.975 0 0 0 3.998 18.004" opacity=".15"/><path fill="#f9f9f9" d="M35.326 32.059c0 1.553-1.311 2.815-2.923 2.815-1.789 0-2.775-1.57-2.934-3.025-.305-2.777 1.202-4.289 2.52-5.066a7.7 7.7 0 0 1 1.735-.74s1.42 4.354 1.531 5.03c.122.744.07.986.07.986m6.98-8.733c-1.57-.984-3.496-1.524-5.48-1.62l-.444-1.565.015.016q-.026-.071-.048-.138l-.131-.462c-.302-1.339.247-1.977.53-2.205q.071-.053.15-.106c1.298-.829 3.135.5 3.238.579.818.76 2.313.947 3.12.17.816-.785.623-2.254-.191-3.04-1.269-1.222-5.168-3.183-8.481-1.054-2.98 1.913-3.04 4.605-2.55 6.162l.596 2.105c-.998.276-1.95.67-2.825 1.186-3.263 1.925-4.898 5.181-4.49 8.915.423 3.837 3.4 6.626 7.087 6.626 3.912 0 7.098-3.068 7.098-6.837-.053-.899-.043-.89-.166-1.693-.123-.785-1.327-4.473-1.327-4.473.74.165 1.43.433 2.026.805 6.73 4.213 3.93 10.918 3.805 11.21-1.853 4.285-5.897 6.843-11.09 7.018-3.385.116-6.629-1.103-9.133-3.431-2.64-2.455-4.155-5.894-4.155-9.435 0-5.333 3.483-10.177 8.666-12.05 1.08-.39 1.95-1.5 1.354-2.79-.47-1.015-1.74-1.364-2.822-.973-6.803 2.458-11.375 8.814-11.375 15.814 0 4.625 1.98 9.12 5.43 12.328a16.93 16.93 0 0 0 12.185 4.557c6.796-.23 12.327-3.777 14.79-9.471 1.54-3.459 2.398-11.284-5.375-16.149"/></svg>