<svg xmlns="http://www.w3.org/2000/svg" width="64" height="64" enable-background="new 0 0 1024 1024" image-rendering="optimizeSpeed"><defs><linearGradient id="b" x1="29.532" x2="29.532" y1="15.029" y2="49.05" gradientTransform="translate(.126 .666)scale(.99727)" gradientUnits="userSpaceOnUse"><stop offset="0" stop-color="#45ca7e"/><stop offset="1" stop-color="#309c3a"/></linearGradient><linearGradient id="a" x1="7.937" x2="7.937" y1="15.081" y2="1.852" gradientTransform="scale(3.7796)" gradientUnits="userSpaceOnUse"><stop offset="0" stop-color="#cdcdcd"/><stop offset="1" stop-color="#fefefe"/></linearGradient><filter id="c" width="1.208" height="1.224" x="-.104" y="-.112" color-interpolation-filters="sRGB"><feGaussianBlur stdDeviation=".827"/></filter></defs><rect width="56.002" height="56.002" x="4" y="3.969" fill="url(#a)" rx="13.002" ry="13.002"/><path fill="url(#b)" d="M32 13a19 19 0 0 0-19 19 19 19 0 0 0 2.284 8.995l-.035-.028c.958 2.25.888 2.863.737 4.742-.105 1.31-.46 2.647-.904 3.4-.402.681-.725 1.386-.725 1.565 0 .555 3.202.36 6.037-.366 3.152-.807 3.597-.89 5.959-.169l.073.024.301.09-.026-.02A19 19 0 0 0 32 51a19 19 0 0 0 19-19 19 19 0 0 0-19-19"/><path d="M39.107 40.32c1.428-.682 2.092-1.538 2.321-2.992.175-1.108.094-1.39-2.078-2.437-2.763-1.33-2.593-1.336-3.783.141-.74.92-1.059 1.218-1.299 1.218-2.815-.761-5.68-2.96-6.591-5.847 0-.124.3-.576.666-1.005 1.077-1.263 1.078-1.293.138-3.61-1.083-2.667-1.449-2.649-2.628-2.697-1.207-.05-1.588.141-2.352 1.182-.79 1.077-1.072 1.944-1.065 3.273.008 1.688.561 3.043 2.163 5.298 2.75 3.871 5.433 5.972 9.298 7.281 2.364.801 3.826.856 5.21.195" filter="url(#c)" opacity=".15" transform="translate(.126 .666)scale(.99727)"/><path fill="#fff" d="M39.126 40.368c1.424-.68 2.087-1.534 2.315-2.983.174-1.105.094-1.388-2.073-2.431-2.755-1.327-2.585-1.333-3.772.14-.739.918-1.056 1.215-1.296 1.215-2.807-.759-5.664-2.952-6.573-5.831 0-.123.299-.574.664-1.003 1.074-1.258 1.075-1.29.138-3.6-1.08-2.659-1.445-2.64-2.62-2.69-1.204-.049-1.585.142-2.346 1.18-.788 1.075-1.07 1.939-1.063 3.265.009 1.683.56 3.034 2.158 5.283 2.742 3.86 5.418 5.956 9.272 7.261 2.357.799 3.816.853 5.196.194"/></svg>