<svg xmlns="http://www.w3.org/2000/svg" xml:space="preserve" image-rendering="optimizeSpeed" viewBox="0 0 64 64"><rect width="56.002" height="56.002" x="4" y="3.969" fill="#f2f2f2" rx="13.002" ry="13.002"/><path d="M3.998 45.998v1c0 7.203 5.8 13.004 13.004 13.004h29.996c7.203 0 13.004-5.8 13.004-13.004v-1c0 7.203-5.8 13.002-13.004 13.002H17.002A12.975 12.975 0 0 1 3.998 45.998" opacity=".1"/><path fill="#fff" d="M3.998 18.004v-1C3.998 9.801 9.798 4 17.002 4h29.996c7.203 0 13.004 5.8 13.004 13.004v1c0-7.203-5.8-13.002-13.004-13.002H17.002A12.975 12.975 0 0 0 3.998 18.004" opacity=".5"/><g stroke-width="1.583"><path fill="#b3d3fb" d="m27.25 13-7.917 7.917 3.167 28.5V51h3.167v-4.75h3.166V51H32v-4.75l4.75-1.583 4.75 1.583V51h3.167v-4.75h3.166V51H51v-9.5l-3.167-4.75L51 32v-9.5l-6.333-4.75c0-2.631-5.285-4.75-7.917-4.75z"/><path fill="#3483e4" d="M17.75 13v9.5H32v-4.75A4.74 4.74 0 0 0 27.25 13zM32 22.5V32h9.5v-9.5zm9.5 0H51v-4.75A4.74 4.74 0 0 0 46.25 13h-9.5a4.74 4.74 0 0 1 4.75 4.75zm0 9.5v9.5H51V32zm0 9.5H32v4.75h3.167V51h3.166v-4.75H41.5zm-9.5 0V32H17.75v9.5z"/><path fill="#1e5da8" d="M17.75 13A4.74 4.74 0 0 0 13 17.75v30.083h3.167v-4.75h3.166v4.75H22.5V17.75A4.74 4.74 0 0 0 17.75 13"/></g></svg>