<svg xmlns="http://www.w3.org/2000/svg" xml:space="preserve" viewBox="0 0 64 64"><defs><linearGradient id="a" x1="7.937" x2="7.937" y1="15.081" y2="1.852" gradientTransform="scale(3.7796)" gradientUnits="userSpaceOnUse"><stop offset="0" stop-color="#363636" style="stop-color:#ead438;stop-opacity:1"/><stop offset="1" stop-color="#6c6c6c" style="stop-color:#f5e997;stop-opacity:1"/></linearGradient></defs><rect width="56.002" height="56.002" x="4" y="3.969" fill="url(#a)" rx="13.002" ry="13.002" style="fill:#f0e06d;fill-opacity:1"/><path d="M19.615 52.947c-3.215-.373-6.172-2.47-7.592-5.384-.577-1.185-.834-2.094-.975-3.444-.24-2.29.423-4.733 1.801-6.65.533-.74 13.211-13.406 13.615-13.6a3.53 3.53 0 0 1 1.806-.34c1.174.108 1.195.126 6.642 5.572 5.447 5.448 5.466 5.469 5.572 6.644a3.53 3.53 0 0 1-.339 1.806c-.194.403-12.86 13.081-13.601 13.614a9.7 9.7 0 0 1-4.407 1.748c-1.125.153-1.453.158-2.521.034m2.957-2.273c.869-.205 1.948-.705 2.709-1.254.33-.238 3.398-3.236 6.82-6.662l6.222-6.229v-.971l-4.934-4.934-4.933-4.933h-.972l-6.229 6.221c-3.426 3.423-6.423 6.492-6.661 6.82-.984 1.362-1.45 2.84-1.437 4.554.04 4.926 4.618 8.519 9.415 7.388m-4.622-4.61c-.555-.555-.313-1.507.447-1.758.285-.094.397-.084.703.066 1.067.521.747 1.976-.435 1.976-.347 0-.487-.055-.715-.284m6.347.132c-.75-.526-.583-1.547.31-1.886.813-.31 1.624.682 1.213 1.485-.27.528-1.05.733-1.523.401m-3.237-3.243c-.233-.233-.284-.366-.284-.736 0-.375.051-.504.295-.749.27-.27.34-.292.786-.25.642.063.875.295.937.937.043.447.021.517-.25.786-.244.245-.373.296-.748.296-.37 0-.504-.052-.736-.284m6.323.16c-.576-.454-.638-1.1-.152-1.586.27-.271.405-.332.739-.332.335 0 .468.06.739.332.477.476.438 1.106-.094 1.538-.243.197-1.006.226-1.233.048m-9.2-3.074c-.392-.245-.518-.48-.518-.968 0-.82.967-1.28 1.656-.79 1.051.749-.045 2.443-1.139 1.758m6.222.028c-.302-.149-.614-.636-.614-.957 0-.246.265-.704.507-.873.118-.084.385-.152.593-.152.299 0 .445.068.707.331.543.543.426 1.311-.254 1.663-.353.182-.55.18-.94-.012m-3.143-3.12c-.386-.266-.477-.44-.478-.904-.003-.988 1.015-1.428 1.706-.739.27.271.33.404.33.739s-.06.468-.331.739c-.378.379-.829.439-1.227.164m10.487-.172c-.025-.026-.558-.179-1.182-.34-4.377-1.131-4.145-1.047-4.149-1.51-.002-.266 4.06-4.326 4.325-4.323.423.003.427.01.928 1.918.158.602.424 1.608.591 2.236.406 1.52.43 1.707.232 1.904-.149.149-.636.224-.745.115m5.628-10.234c-3.836-3.836-6.975-7.02-6.975-7.075s.264-.36.586-.679l.585-.579 7.045 7.047c3.875 3.875 7.045 7.092 7.046 7.146.002.155-1.007 1.115-1.17 1.115-.078 0-3.28-3.138-7.117-6.975m4.52-4.521-9.844-9.844.61-.604.61-.605 9.864 9.863L53 30.694l-.58.585c-.317.321-.6.585-.63.585-.028 0-4.481-4.43-9.895-9.844m-6.756 6.755-1.434-1.436.633-.627.634-.628 1.408 1.406c.775.773 1.41 1.452 1.41 1.508 0 .098-1.076 1.213-1.171 1.213-.026 0-.692-.646-1.481-1.436m4.521-4.422c-2.311-2.312-4.204-4.25-4.204-4.304s.264-.36.585-.678l.585-.579 4.274 4.274 4.275 4.274-.603.61c-.332.334-.627.608-.655.608-.03 0-1.944-1.891-4.257-4.205" style="fill:#4d4d4d;stroke-width:.0911358"/><path d="M3.998 45.998v1c0 7.203 5.8 13.004 13.004 13.004h29.996c7.203 0 13.004-5.8 13.004-13.004v-1c0 7.203-5.8 13.002-13.004 13.002H17.002A12.975 12.975 0 0 1 3.998 45.998" opacity=".35" style="opacity:.15"/><path fill="#fff" d="M3.998 18.004v-1C3.998 9.801 9.798 4 17.002 4h29.996c7.203 0 13.004 5.8 13.004 13.004v1c0-7.203-5.8-13.002-13.004-13.002H17.002A12.975 12.975 0 0 0 3.998 18.004" opacity=".15" style="opacity:.45"/></svg>