<svg xmlns="http://www.w3.org/2000/svg" width="64" height="64" viewBox="0 0 16.933 16.933"><defs><linearGradient id="a" x1="7.937" x2="7.937" y1="15.081" y2="1.852" gradientUnits="userSpaceOnUse"><stop offset="0" stop-color="#f1efeb"/><stop offset="1" stop-color="#fdfcfc"/></linearGradient><linearGradient id="b" x1="9.36" x2="9.36" y1="3.635" y2="13.501" gradientUnits="userSpaceOnUse"><stop offset="0" stop-color="#f5f5f5"/><stop offset="1" stop-color="#e0e0e0"/></linearGradient><linearGradient id="c" x1="1.058" x2="7.743" y1="8.247" y2="8.247" gradientUnits="userSpaceOnUse"><stop offset="0" stop-color="#70a7ea"/><stop offset="1" stop-color="#7086ea"/></linearGradient><linearGradient id="d" x1="1.076" x2="9.239" y1="6.577" y2="6.577" gradientUnits="userSpaceOnUse"><stop offset="0" stop-color="#6fdda0"/><stop offset="1" stop-color="#6fddda"/></linearGradient><linearGradient id="e" x1="2.008" x2="10.736" y1="5.339" y2="5.339" gradientUnits="userSpaceOnUse"><stop offset="0" stop-color="#f7c96a"/><stop offset="1" stop-color="#e9f76a"/></linearGradient><linearGradient id="f" x1="3.96" x2="12.014" y1="4.57" y2="4.57" gradientUnits="userSpaceOnUse"><stop offset="0" stop-color="#e35a60"/><stop offset="1" stop-color="#e35a9a"/></linearGradient><linearGradient id="g" x1="-1.04" x2=".548" y1="18.337" y2="18.337" gradientUnits="userSpaceOnUse"><stop offset="0" stop-color="#915b45"/><stop offset="1" stop-color="#ac7a53"/></linearGradient></defs><rect width="14.817" height="14.817" x="1.058" y="1.05" fill="url(#a)" rx="3.44" ry="3.44"/><rect width="11.641" height="11.641" x="2.646" y="2.646" fill="url(#b)" fill-rule="evenodd" rx="1.852" ry="1.852" style="paint-order:stroke fill markers"/><path fill="#b3b3b3" d="M10.921 5.283a.265.265 0 0 0 0 .373.265.265 0 0 0 .374.001l.375-.374 1.309 1.309-3.367 3.367a.265.265 0 0 0-.002.374l4.117 4.117a.265.265 0 0 0 .375-.001.265.265 0 0 0 0-.373l-3.93-3.93 3.369-3.368a.265.265 0 0 0-.001-.374l-1.684-1.683a.265.265 0 0 0-.373 0z" color="#000"/><path fill="url(#c)" d="M1.076 4.132a4 4 0 0 0-.018.358v2.667l4.814 5.049a.53.53 0 0 0 .748 0l1.123-1.123z" style="paint-order:stroke fill markers"/><path fill="url(#d)" d="M2.05 2.07a3.43 3.43 0 0 0-.974 2.062l6.666 6.951L9.24 9.587 2.049 2.07z" style="paint-order:stroke fill markers"/><path fill="url(#e)" d="M3.96 1.091a3.43 3.43 0 0 0-1.952 1.022l7.231 7.473 1.497-1.496-6.776-7z" style="paint-order:stroke fill markers"/><path fill="url(#f)" d="M4.498 1.05a3.5 3.5 0 0 0-.538.041l6.776 7 1.122-1.124a.53.53 0 0 0 0-.748L6.862 1.05z" style="paint-order:stroke fill markers"/><rect width="8.466" height="3.175" x="-4.479" y="10.137" fill-rule="evenodd" opacity=".5" rx=".529" ry=".529" style="mix-blend-mode:soft-light;paint-order:stroke fill markers" transform="rotate(-45)"/><rect width="1.587" height="4.233" x="-1.04" y="16.22" fill="url(#g)" fill-rule="evenodd" rx=".529" ry=".529" style="paint-order:stroke fill markers" transform="rotate(-45)"/></svg>