<svg xmlns="http://www.w3.org/2000/svg" viewBox="0 0 64 64"><rect width="56.002" height="56.002" x="4" y="3.969" fill="#15a2ff" rx="13.002" ry="13.002"/><path fill="#fff" d="m18.339 31-.011-9.751 10.938-1.63V31zm12.752-11.671 14.578-2.328v14H31.091zM45.673 33l-.004 14-14.578-2.249v-11.75zM29.27 44.498l-10.931-1.644v-9.857h10.927v11.498z"/><path d="M3.998 45.998v1c0 7.203 5.8 13.004 13.004 13.004h29.996c7.203 0 13.004-5.8 13.004-13.004v-1c0 7.203-5.8 13.002-13.004 13.002H17.002A12.975 12.975 0 0 1 3.998 45.998" opacity=".15"/><path fill="#fff" d="M3.998 18.004v-1C3.998 9.801 9.798 4 17.002 4h29.996c7.203 0 13.004 5.8 13.004 13.004v1c0-7.203-5.8-13.002-13.004-13.002H17.002A12.975 12.975 0 0 0 3.998 18.004" opacity=".15"/><path fill="#ccc" d="M61.516 41.932A15.1 15.1 0 0 0 59.904 38h-.001q-1.037-1.763-2.587-3.314Q52.629 30.001 46 30c-6.629-.001-8.19 1.563-11.314 4.686Q30 39.372 29.999 46q0 6.63 4.687 11.316c2.307 2.307 4.966 3.761 7.962 4.361a17 17 0 0 0 3.351.324q6.63.001 11.316-4.685 2.472-2.47 3.639-5.485a15.7 15.7 0 0 0 1.015-4.77q.03-.52.03-1.06c0-1.415-.159-2.766-.484-4.068z" image-rendering="optimizeSpeed"/><path fill="#333" d="M41.531 40.27h8.725c3.398 0 6.18 2.781 6.18 6.18s-2.782 6.18-6.18 6.18H41.53c-3.399 0-6.18-2.781-6.18-6.18s2.781-6.18 6.18-6.18z" image-rendering="optimizeSpeed"/><circle cx="50.252" cy="46.451" r="4.362" fill="#fff" image-rendering="optimizeSpeed"/></svg>