<svg xmlns="http://www.w3.org/2000/svg" image-rendering="optimizeSpeed" viewBox="0 0 64 64"><rect width="56.002" height="56.002" x="4" y="3.969" fill="#dd3f80" rx="13.002" ry="13.002"/><path fill="#fff" d="M52.067 30H11.884C10.32 30 9 28.6 9 26.823v-7.646C9 17.454 10.27 16 11.884 16h40.232C53.68 16 55 17.4 55 19.177v7.7C54.951 28.6 53.68 30 52.067 30" class="st7"/><g fill="none" stroke-miterlimit="10"><path stroke="#abacae" stroke-width=".87" d="M12.035 18.777v8.279m3.408-6.818v5.357m2.922-5.357v5.357m3.409-6.818v8.279m3.409-6.818v5.357m3.408-5.357v5.357M32 18.777v8.279m3.409-6.818v5.357m3.408-5.357v5.357m3.409-6.818v8.279m9.739-8.279v8.279m-6.33-6.818v5.357m2.922-5.357v5.357" class="st8"/><path stroke="#de3e80" stroke-width="1.067" d="M27.13 16.83v12.66" class="st9"/></g><circle cx="32.243" cy="42.522" r="8.522" fill="#fff" class="st10" opacity=".75"/><circle cx="32.243" cy="42.522" r="6.817" fill="#273445" stroke="#de3e80" stroke-linecap="round" stroke-linejoin="round" stroke-width=".445" class="st11"/><circle cx="32.243" cy="42.522" r="5.843" fill="#fafafa" class="st12"/><path fill="#d3d3d3" d="M32.243 39.746c-.146 0-.243-.097-.243-.243v-2.29c0-.145.097-.243.243-.243s.243.098.243.244v2.289c0 .146-.097.243-.243.243"/><path fill="#101520" d="M54.643 39.843H44.417c-.682 0-1.217-.536-1.217-1.217s.535-1.218 1.217-1.218h10.226c.682 0 1.217.536 1.217 1.218s-.535 1.217-1.217 1.217m0 3.896h-9.74c-.68 0-1.216-.536-1.216-1.217s.535-1.218 1.217-1.218h9.739c.682 0 1.217.536 1.217 1.218s-.535 1.217-1.217 1.217m0 3.896H44.417a1.206 1.206 0 0 1-1.217-1.217c0-.682.535-1.218 1.217-1.218h10.226c.682 0 1.217.536 1.217 1.218s-.535 1.217-1.217 1.217M9.357 39.843h10.226c.681 0 1.217-.536 1.217-1.217s-.536-1.218-1.217-1.218H9.357c-.682 0-1.218.536-1.218 1.218s.536 1.217 1.218 1.217m0 3.896h9.739c.681 0 1.217-.536 1.217-1.217s-.536-1.218-1.217-1.218h-9.74c-.681 0-1.217.536-1.217 1.218s.536 1.217 1.218 1.217m0 3.896h10.226c.681 0 1.217-.536 1.217-1.217 0-.682-.536-1.218-1.217-1.218H9.357c-.682 0-1.218.536-1.218 1.218s.536 1.217 1.218 1.217" class="st15"/><path d="M3.999 45.998V47A12.975 12.975 0 0 0 17 60.002h30A12.975 12.975 0 0 0 60.002 47v-1.002A12.975 12.975 0 0 1 47 59H17A12.975 12.975 0 0 1 4 45.998z" opacity=".15"/><path fill="#fff" d="M3.999 18.002v-.994A12.975 12.975 0 0 1 17 4.006h30a12.975 12.975 0 0 1 13.002 13.002v1.002A12.975 12.975 0 0 0 47 5.008H17A12.975 12.975 0 0 0 4 18.01z" opacity=".15"/></svg>