<svg xmlns="http://www.w3.org/2000/svg" viewBox="0 0 64 64"><rect width="56.002" height="56.002" x="4" y="3.969" fill="#1aa0f0" rx="13.002" ry="13.002"/><rect width="46.238" height="31.977" x="8.882" y="18.15" fill="#fff" ry="7.783"/><path fill="#fff" fill-rule="evenodd" d="M14.28 19.324s.175-9.35 4.002-10.816 5.922 10.774 5.922 10.774m25.034.042s-.176-9.35-4.003-10.816-5.922 10.774-5.922 10.774"/><circle cx="21.265" cy="30.456" r="3.356" fill="#4d4d4d"/><circle cx="42.29" cy="30.545" r="3.356" fill="#4d4d4d"/><path fill="#4d4d4d" d="M27.848 24.453a.853.853 0 0 0-.65 1.016.4.4 0 0 1 .015-.117c.01-.02-.01.024-.106.09-.189.131-.636.318-1.226.464-1.18.292-2.92.471-4.682.56-3.521.18-7.144.03-7.144.03a.853.853 0 0 0-.887.816.853.853 0 0 0 .816.89s3.674.152 7.303-.032c1.814-.092 3.611-.263 5.004-.608.696-.172 1.294-.374 1.791-.72.249-.173.48-.39.64-.694a1.6 1.6 0 0 0 .141-1.043.853.853 0 0 0-1.015-.652m7.859.088a.853.853 0 0 0-1.016.652c-.075.347-.019.74.141 1.043.16.304.392.523.64.696.498.346 1.095.548 1.792.72 1.393.345 3.191.516 5.006.608 3.628.184 7.302.03 7.302.03a.853.853 0 0 0 .817-.888.853.853 0 0 0-.889-.818s-3.623.15-7.145-.03c-1.76-.089-3.502-.266-4.681-.558-.59-.146-1.037-.333-1.227-.465-.077-.054-.083-.072-.086-.074a.85.85 0 0 0-.654-.916" style="-inkscape-stroke:none"/><path fill="#fff" d="M8.898 42.86c.712 6.02 2.21 7.55 7.362 7.177 5.153-.372 5.374 4.948 11.251 2.588 5.878-2.36 8.066-1.716 8.418-1.75.353-.033 8.816 5.015 11.596 1.875s4.033-.938 5.287-2.124 2.802-4.556 2.218-7.812"/><path fill="#4d4d4d" d="M31.182 37.234a.853.853 0 0 0-.493 1.102s1.45 3.843 3.809 6.67c1.18 1.413 2.616 2.644 4.385 2.86 1.769.214 3.642-.75 5.299-3.098a.853.853 0 0 0-.205-1.19.853.853 0 0 0-1.19.205c-1.453 2.06-2.635 2.518-3.7 2.389-1.063-.13-2.236-1.01-3.278-2.26-2.085-2.499-3.526-6.187-3.526-6.187a.853.853 0 0 0-1.101-.49" style="-inkscape-stroke:none"/><path fill="#4d4d4d" d="M32.393 37.256a.853.853 0 0 0-1.104.49s-1.438 3.689-3.523 6.188c-1.043 1.249-2.218 2.13-3.282 2.26-1.063.129-2.245-.331-3.699-2.391a.853.853 0 0 0-1.19-.205.853.853 0 0 0-.204 1.19c1.657 2.348 3.53 3.314 5.298 3.099 1.77-.215 3.208-1.446 4.387-2.86 2.359-2.827 3.807-6.67 3.807-6.67a.853.853 0 0 0-.49-1.101" style="-inkscape-stroke:none"/><ellipse cx="31.753" cy="37.912" fill="#4d4d4d" rx="2.57" ry="2.413"/><path d="M3.998 45.998v1c0 7.203 5.8 13.004 13.004 13.004h29.996c7.203 0 13.004-5.8 13.004-13.004v-1c0 7.203-5.8 13.002-13.004 13.002H17.002A12.975 12.975 0 0 1 3.998 45.998" opacity=".15"/><path fill="#fff" d="M3.998 18.004v-1C3.998 9.801 9.798 4 17.002 4h29.996c7.203 0 13.004 5.8 13.004 13.004v1c0-7.203-5.8-13.002-13.004-13.002H17.002A12.975 12.975 0 0 0 3.998 18.004" opacity=".15"/></svg>