<svg xmlns="http://www.w3.org/2000/svg" image-rendering="optimizeSpeed" viewBox="0 0 64 64"><defs><linearGradient id="b" x2="1" gradientTransform="rotate(90 11.305 27.333)scale(32.792)" gradientUnits="userSpaceOnUse"><stop offset="0" stop-color="#9c0000"/><stop offset=".7" stop-color="#ff4b4b"/><stop offset="1" stop-color="#ff4b4b"/></linearGradient><linearGradient id="a" x2="1" gradientTransform="rotate(90 7.595 21.438)scale(37.076)" gradientUnits="userSpaceOnUse"><stop offset="0" stop-color="#ff1b2d"/><stop offset=".3" stop-color="#ff1b2d"/><stop offset=".61" stop-color="#ff1b2d"/><stop offset="1" stop-color="#a70014"/></linearGradient></defs><rect width="56.002" height="56.002" x="4" y="3.969" fill="#f2f2f2" rx="13.002" ry="13.002"/><path d="M3.998 45.998v1c0 7.203 5.8 13.004 13.004 13.004h29.996c7.203 0 13.004-5.8 13.004-13.004v-1c0 7.203-5.8 13.002-13.004 13.002H17.002A12.975 12.975 0 0 1 3.998 45.998" opacity=".1"/><path fill="#fff" d="M3.998 18.004v-1C3.998 9.801 9.798 4 17.002 4h29.996c7.203 0 13.004 5.8 13.004 13.004v1c0-7.203-5.8-13.002-13.004-13.002H17.002A12.975 12.975 0 0 0 3.998 18.004" opacity=".5"/><path fill="url(#a)" d="M32.223 13.218c-10.563 0-19.129 8.565-19.129 19.129 0 10.259 8.078 18.63 18.219 19.106a19.06 19.06 0 0 0 13.659-4.846c-2.242 1.489-4.865 2.341-7.667 2.341-4.556 0-8.633-2.261-11.378-5.824-2.116-2.497-3.483-6.186-3.578-10.328v-.902c.095-4.142 1.462-7.835 3.578-10.328 2.745-3.563 6.825-5.824 11.378-5.824 2.802 0 5.425.856 7.667 2.345a19.07 19.07 0 0 0-12.677-4.87z" style="fill:#ff3342"/><path fill="url(#b)" d="M25.926 21.567c1.755-2.07 4.024-3.323 6.498-3.323 5.57 0 10.084 6.315 10.084 14.1 0 7.788-4.515 14.1-10.084 14.1-2.478 0-4.743-1.249-6.498-3.32 2.745 3.563 6.822 5.825 11.378 5.825 2.802 0 5.425-.857 7.667-2.341a19.07 19.07 0 0 0 6.38-14.26 19.08 19.08 0 0 0-6.38-14.26c-2.242-1.489-4.865-2.342-7.667-2.342-4.557 0-8.633 2.262-11.378 5.825" style="fill:#a52727"/></svg>