<svg xmlns="http://www.w3.org/2000/svg" width="64" height="64"><defs><linearGradient id="a" x1="7.937" x2="7.937" y1="15.081" y2="1.852" gradientTransform="scale(3.7796)" gradientUnits="userSpaceOnUse"><stop offset="0" stop-color="#d00c23"/><stop offset="1" stop-color="#ff5151"/></linearGradient></defs><rect width="56.002" height="56.002" x="4" y="3.969" fill="url(#a)" rx="13.002" ry="13.002"/><path fill="#f9f9f9" d="M35.326 33.104c0 1.553-1.311 2.816-2.924 2.816-1.788 0-2.774-1.57-2.933-3.026-.305-2.777 1.202-4.288 2.52-5.066a7.7 7.7 0 0 1 1.735-.74s1.42 4.354 1.531 5.03c.122.744.07.986.07.986m6.98-8.733c-1.57-.984-3.497-1.524-5.48-1.62l-.444-1.564.014.015q-.026-.071-.047-.138l-.131-.462c-.302-1.339.246-1.976.53-2.205q.071-.052.15-.106c1.298-.829 3.135.5 3.238.579.818.76 2.313.947 3.12.17.815-.785.622-2.254-.191-3.04-1.27-1.222-5.168-3.183-8.481-1.054-2.98 1.913-3.04 4.605-2.55 6.162l.595 2.105c-.997.276-1.95.67-2.824 1.186-3.263 1.925-4.898 5.181-4.49 8.915.422 3.837 3.4 6.626 7.087 6.626 3.912 0 7.097-3.068 7.097-6.837-.052-.899-.042-.89-.165-1.693-.124-.784-1.327-4.473-1.327-4.473.74.165 1.43.433 2.026.805 6.73 4.213 3.929 10.919 3.804 11.21-1.852 4.285-5.897 6.843-11.09 7.018-3.385.116-6.629-1.103-9.133-3.431-2.64-2.456-4.155-5.895-4.155-9.435 0-5.333 3.483-10.177 8.666-12.05 1.08-.39 1.95-1.5 1.354-2.791-.47-1.015-1.74-1.363-2.822-.972-6.803 2.458-11.375 8.814-11.375 15.813 0 4.625 1.98 9.12 5.43 12.329a16.93 16.93 0 0 0 12.185 4.556c6.796-.23 12.326-3.777 14.79-9.47 1.54-3.459 2.397-11.285-5.376-16.15"/></svg>