<svg xmlns="http://www.w3.org/2000/svg" xml:space="preserve" viewBox="0 0 64 64"><path fill="#ff5c8f" d="M17.001 4A12.973 12.973 0 0 0 3.999 17v30a12.973 12.973 0 0 0 13.002 13.002h29.998A12.973 12.973 0 0 0 60.001 47V17.001A12.973 12.973 0 0 0 46.999 4z"/><path d="M3.998 45.998v1c0 7.203 5.8 13.004 13.004 13.004h29.996c7.203 0 13.004-5.8 13.004-13.004v-1c0 7.203-5.8 13.002-13.004 13.002H17.002A12.975 12.975 0 0 1 3.998 45.998" opacity=".15"/><path fill="#fff" d="M3.998 18.004v-1C3.998 9.801 9.798 4 17.002 4h29.996c7.203 0 13.004 5.8 13.004 13.004v1c0-7.203-5.8-13.002-13.004-13.002H17.002A12.975 12.975 0 0 0 3.998 18.004" opacity=".15"/><g style="fill:#fff;fill-opacity:1"><path d="M15.768 18.724c-.606-.129-1.252-.755-1.447-1.404-.207-.692.032-1.39.665-1.946.39-.342.615-.428 1.121-.428 1.245 0 2.021.768 2.022 2.001 0 .56-.074.75-.455 1.165-.506.551-1.176.766-1.906.612m-.543 7.593c-.58-.354-.884-.955-.884-1.748 0-1.178 1.237-2.095 2.383-1.767 2.165.621 1.818 3.79-.414 3.789-.383 0-.815-.11-1.085-.274m8.521 16.609c-.641-.279-.96-.579-1.282-1.21-.254-.498-.265-1.003-.265-11.444V19.35l.405-.638q.405-.639 1.026-.94c.619-.3.665-.3 11.346-.297 10.17.003 10.754.016 11.302.265.714.324 1.255 1.013 1.445 1.839.092.4.146 4.322.148 10.81.004 11.128 0 11.184-.8 11.95-.874.838-.444.81-12.135.803-9.212-.004-10.77-.035-11.19-.216m20.06-12.616V21.4H26.127v17.82h17.679zm-13.975 6.043c-.535-.233-.985-.84-1.102-1.488-.066-.36-.005-.648.233-1.108.965-1.862 3.62-1.236 3.619.854-.001 1.457-1.387 2.335-2.75 1.742m8.508-.045c-1.364-.688-1.349-2.711.024-3.416.672-.345 1.14-.338 1.789.027.69.388.988.923.988 1.778 0 1.462-1.446 2.294-2.801 1.61m-8.566-8.575c-1.733-.926-1.05-3.667.914-3.667.593 0 1.355.44 1.66.96 1.004 1.71-.83 3.64-2.574 2.707m8.485 0c-.602-.367-.93-.934-.94-1.624-.013-.796.382-1.422 1.123-1.78.82-.397 1.464-.268 2.166.434.488.487.533.598.533 1.302 0 .568-.077.867-.293 1.142-.62.788-1.775 1.022-2.59.526" style="fill:#fff;stroke-width:.140308;fill-opacity:1" transform="translate(-.511 -.66)"/><path d="M15.44 50.128c-.221-.135-.59-.542-.82-.904l-.419-.66v-16.21l.414-.472a3.4 3.4 0 0 1 .98-.726c.533-.24.6-.242 1.175-.022.336.128.795.425 1.02.66l.41.428.039 6.922.039 6.921 1.995.095c1.098.052 8.131.138 15.63.19l13.633.095.376.35c.446.417.91 1.275.91 1.684 0 .456-.526 1.374-.943 1.647-.356.233-1.363.248-17.207.248-15.771 0-16.853-.016-17.231-.246" style="fill:#fff;stroke-width:.140308;fill-opacity:1" transform="translate(-.511 -.66)"/></g></svg>