<svg xmlns="http://www.w3.org/2000/svg" viewBox="0 0 64 64"><path fill="#ff8255" d="M17.001 4A12.973 12.973 0 0 0 3.999 17v30a12.973 12.973 0 0 0 13.002 13.002h29.998A12.973 12.973 0 0 0 60.001 47V17.001A12.973 12.973 0 0 0 46.999 4z" style="display:inline;fill:#ff6900;fill-opacity:1"/><path fill="#ff8255" d="M18.609 7A11.583 11.583 0 0 0 7 18.609V45.39A11.583 11.583 0 0 0 18.609 57H45.39A11.583 11.583 0 0 0 57 45.391V18.61A11.583 11.583 0 0 0 45.391 7Z" style="display:inline;fill:#fff;fill-opacity:1"/><path d="M3.998 45.998v1c0 7.203 5.8 13.004 13.004 13.004h29.996c7.203 0 13.004-5.8 13.004-13.004v-1c0 7.203-5.8 13.002-13.004 13.002H17.002A12.975 12.975 0 0 1 3.998 45.998" opacity=".15"/><path fill="#fff" d="M3.998 18.004v-1C3.998 9.801 9.798 4 17.002 4h29.996c7.203 0 13.004 5.8 13.004 13.004v1c0-7.203-5.8-13.002-13.004-13.002H17.002A12.975 12.975 0 0 0 3.998 18.004" opacity=".15"/><g style="display:inline"><path fill="#ff6900" d="M-178.754-11.428c0 12.215 0 24.43-.022 36.659-.098.366-.17.72-.252 1.07-.474 2.008-1.439 3.75-2.86 5.238-.33.345-.7.65-1.064.96a9.9 9.9 0 0 1-2.97 1.72c-.76.282-1.575.417-2.364.623-.037.01-.062.07-.093.105-6.947 0-13.893 0-20.872-.025-.033-1.49-.037-2.955-.03-4.42.001-.187-.055-.29-.22-.384-.567-.324-1.14-.644-1.68-1.01-1-.68-1.809-1.541-2.36-2.632.01-.009.027-.027.046-.022 1.103.636 2.192 1.26 3.273 1.9 3.278 1.938 7.318.882 9.223-2.417l1.693-2.93c2.16-3.74 4.34-7.471 6.474-11.227 1.798-3.165.719-7.12-2.425-8.954-3.795-2.213-7.606-4.398-11.41-6.596-2.7-1.561-5.403-3.12-8.099-4.689-1.377-.8-1.7-2.497-.735-3.767q2.663-3.508 6.674-5.329l.711-.323c-.144-.021-.214-.037-.285-.041-1.507-.083-3.006-.02-4.489.276-3.634.727-6.732 2.434-9.302 5.107-1.996 2.076-2.448 5.094-1.132 7.655.636 1.238 1.598 2.15 2.808 2.823.762.423 1.51.872 2.266 1.31-.026.062-.039.106-.061.145q-3.036 5.259-6.082 10.51a.37.37 0 0 1-.271.155c-3.364.007-6.727.004-10.09.003 0-7.13 0-14.258.022-21.4.098-.367.17-.72.252-1.072.474-2.007 1.44-3.75 2.86-5.237.33-.345.7-.65 1.065-.96a9.9 9.9 0 0 1 2.97-1.72c.76-.282 1.574-.417 2.363-.623.038-.01.062-.07.093-.105 12.215 0 24.43 0 36.659.021.132.045.253.06.37.093.749.214 1.511.394 2.243.658 1.36.49 2.548 1.278 3.598 2.267.38.357.715.763 1.056 1.16.759.88 1.317 1.891 1.72 2.969.283.76.418 1.575.624 2.364.01.037.069.062.105.093m-12.86 16.34-.013-.003q.006.008.013.01c.006 0 .012-.005-.005.03q.028.076.061.15c1.07 2.306 1.069 4.61-.045 6.895-.33.676-.732 1.315-1.103 1.973.026.023.045.044.067.057l.68.404c1.258.746 2.61 1.11 4.073.942 2.492-.288 4.332-1.552 5.383-3.831.696-1.508.948-3.15 1.051-4.8.235-3.744-.64-7.22-2.62-10.411-.139-.225-.292-.442-.48-.725.006.12.005.156.01.191.436 3.128.041 6.15-1.173 9.063-.667 1.6-2.28 2.132-3.778 1.262-.7-.406-1.404-.802-2.121-1.208z" style="display:inline;stroke-width:.0546875" transform="translate(223.986 25.549)scale(.92857)"/><path fill="#ff6901" d="M-214.309 5.902a4.095 4.095 0 0 1 5.743-.538 4.095 4.095 0 0 1 1.24 4.542c-.559 1.583-2.093 2.687-3.778 2.687-1.695 0-2.976-.763-3.717-2.274-.756-1.54-.554-3.035.512-4.417" style="display:inline;stroke-width:.0546875" transform="translate(223.986 25.549)scale(.92857)"/></g></svg>