<svg xmlns="http://www.w3.org/2000/svg" viewBox="0 0 16.933 16.933"><rect width="14.817" height="14.817" x="1.058" y="1.05" fill="#f2f2f2" rx="3.44" ry="3.44"/><path d="M1.058 12.17v.265a3.433 3.433 0 0 0 3.44 3.44h7.937a3.433 3.433 0 0 0 3.44-3.44v-.265a3.433 3.433 0 0 1-3.44 3.44H4.498a3.433 3.433 0 0 1-3.44-3.44" opacity=".1"/><path fill="#fff" d="M1.058 4.763V4.5a3.433 3.433 0 0 1 3.44-3.44h7.937a3.433 3.433 0 0 1 3.44 3.44v.265a3.433 3.433 0 0 0-3.44-3.44H4.498a3.433 3.433 0 0 0-3.44 3.44z" opacity=".5"/><g stroke-linecap="round" stroke-linejoin="round" stroke-opacity=".35" stroke-width=".075"><rect width="12.171" height=".132" x="2.381" y="4.234" opacity=".188" rx="0" ry=".066"/><rect width="12.171" height=".132" x="2.381" y="6.35" opacity=".188" rx="0" ry=".066"/><rect width="12.171" height=".132" x="2.381" y="8.467" opacity=".188" rx="0" ry=".066"/><rect width="12.171" height=".132" x="2.381" y="10.319" opacity=".188" rx="0" ry=".066"/><rect width="12.171" height=".132" x="2.381" y="12.436" opacity=".188" rx="0" ry=".066"/><rect width="12.171" height=".132" x="2.381" y="-5.024" fill="#6ac095" opacity=".188" rx="0" ry=".066" transform="rotate(90)"/></g><g stroke-width=".265"><path fill="#444" d="M7.431 6.085a.344.344 0 0 0-.345.345s0 2.416-.69 2.416a.344.344 0 0 0-.345.345v.69h4.831v-.69a.344.344 0 0 0-.345-.345c-.69 0-.69-2.415-.69-2.415a.345.345 0 0 0-.345-.346z" style="paint-order:stroke fill markers"/><path fill="#3fd19b" d="m7.408 3.635 2.117 1.05v1.4H7.408z" style="paint-order:stroke fill markers"/><rect width="2.117" height=".265" x="7.408" y="5.821" opacity=".15" rx="0" ry="0"/><path fill="#3fd19b" d="M5.92 9.79h5.093c.202 0 .364.162.364.363V12.7h-5.82v-2.547c0-.201.161-.364.363-.364" style="paint-order:stroke fill markers"/><rect width="4.762" height=".265" x="6.085" y="9.525" opacity=".15" rx="0" ry="0"/></g></svg>