<svg xmlns="http://www.w3.org/2000/svg" viewBox="0 0 64 64"><rect width="56.002" height="56.002" x="4" y="3.969" fill="#f2f2f2" rx="13.002" ry="13.002"/><path d="M3.998 45.998v1c0 7.203 5.8 13.004 13.004 13.004h29.996c7.203 0 13.004-5.8 13.004-13.004v-1c0 7.203-5.8 13.002-13.004 13.002H17.002A12.975 12.975 0 0 1 3.998 45.998" opacity=".1"/><path fill="#fff" d="M3.998 18.004v-1C3.998 9.801 9.798 4 17.002 4h29.996c7.203 0 13.004 5.8 13.004 13.004v1c0-7.203-5.8-13.002-13.004-13.002H17.002A12.975 12.975 0 0 0 3.998 18.004" opacity=".5"/><g stroke-width="1.304"><path fill="#2eb67d" d="M36.565 15.043a3.26 3.26 0 0 0-3.26 3.26v9.131a3.26 3.26 0 0 0 3.26 3.261 3.26 3.26 0 0 0 3.26-3.26v-9.131a3.26 3.26 0 0 0-3.26-3.261m9.13 9.13a3.26 3.26 0 0 0-3.26 3.261v3.261h3.26a3.26 3.26 0 0 0 3.261-3.26 3.26 3.26 0 0 0-3.26-3.262z"/><path fill="#ecb22e" d="M48.957 36.565a3.26 3.26 0 0 0-3.26-3.26h-9.131a3.26 3.26 0 0 0-3.261 3.26 3.26 3.26 0 0 0 3.26 3.26h9.131a3.26 3.26 0 0 0 3.261-3.26m-9.13 9.13a3.26 3.26 0 0 0-3.261-3.26h-3.261v3.26a3.26 3.26 0 0 0 3.26 3.261 3.26 3.26 0 0 0 3.262-3.26z"/><path fill="#d6285e" d="M27.435 48.957a3.26 3.26 0 0 0 3.26-3.26v-9.131a3.26 3.26 0 0 0-3.26-3.261 3.26 3.26 0 0 0-3.26 3.26v9.131a3.26 3.26 0 0 0 3.26 3.261m-9.13-9.13a3.26 3.26 0 0 0 3.26-3.261v-3.261h-3.26a3.26 3.26 0 0 0-3.261 3.26 3.26 3.26 0 0 0 3.26 3.262z"/><path fill="#36c5f0" d="M15.043 27.435a3.26 3.26 0 0 0 3.26 3.26h9.131a3.26 3.26 0 0 0 3.261-3.26 3.26 3.26 0 0 0-3.26-3.26h-9.131a3.26 3.26 0 0 0-3.261 3.26m9.13-9.13a3.26 3.26 0 0 0 3.261 3.26h3.261v-3.26a3.26 3.26 0 0 0-3.26-3.261 3.26 3.26 0 0 0-3.262 3.26z"/></g></svg>