<svg xmlns="http://www.w3.org/2000/svg" width="64" height="64"><defs><linearGradient id="a" x1="7.937" x2="7.937" y1="15.081" y2="1.852" gradientTransform="scale(3.7796)" gradientUnits="userSpaceOnUse"><stop offset="0" stop-color="#1fe0aa"/><stop offset="1" stop-color="#b2ff85"/></linearGradient><linearGradient id="b" x1="23.813" x2="23.813" y1="13.436" y2="35.036" gradientTransform="translate(3.695 2.465)scale(1.2307)" gradientUnits="userSpaceOnUse"><stop offset="0" stop-color="#20adff"/><stop offset="1" stop-color="#345da2"/></linearGradient></defs><rect width="64" height="64" fill="none" rx="0" ry="0" style="paint-order:stroke fill markers"/><rect width="56.002" height="56.002" x="4" y="3.969" fill="url(#a)" rx="13.002" ry="13.002"/><circle cx="32.02" cy="32.044" r="30.001" fill="none"/><path fill="url(#b)" d="M31.877 17.233a3.56 3.56 0 0 0-3.569 3.569v.245c0 .453.09.881.242 1.279l-4.788 3.99a5.5 5.5 0 0 0-2.224-.47A5.54 5.54 0 0 0 16 31.386a5.54 5.54 0 0 0 5.538 5.538 5.5 5.5 0 0 0 2.346-.53l4.877 4.065a4.14 4.14 0 0 0-.454 1.861v.283a4.157 4.157 0 0 0 4.166 4.166H42.6a4.157 4.157 0 0 0 4.165-4.166v-.283a4.157 4.157 0 0 0-4.165-4.166H32.473c-.917 0-1.757.3-2.442.798l-3.826-4.593a5.5 5.5 0 0 0 .685-1.57l2.847-.259a2.96 2.96 0 0 0 2.779 1.932h12.509A2.97 2.97 0 0 0 48 31.485v-.201a2.97 2.97 0 0 0-2.976-2.976h-12.51a2.96 2.96 0 0 0-2.778 1.93l-2.844-.258a5.5 5.5 0 0 0-.745-1.664l3.65-4.38c.586.423 1.3.678 2.08.678H43.2a3.56 3.56 0 0 0 3.57-3.569v-.244a3.56 3.56 0 0 0-3.57-3.57H31.88z"/><g fill="#d0f9e7"><rect width="15.999" height="4.923" x="29.539" y="18.464" rx="2.38"/><rect width="15.999" height="3.692" x="30.769" y="29.54" rx="1.784"/><rect width="15.999" height="6.153" x="29.539" y="39.385" rx="2.974"/></g><circle cx="21.539" cy="31.386" r="4.307" fill="#87c5e0"/></svg>