<svg xmlns="http://www.w3.org/2000/svg" viewBox="0 0 64 64"><rect width="55.999" height="55.999" x="4" y="4" fill="#f95341" rx="13" ry="13"/><path fill="#fff" d="M43.652 15.063v6.824c-6.389.122-8.22 7.305-8.22 7.305h5.389v5.654h-7.797C28.53 49.632 18.206 48.925 18.206 48.925V42.1s6.56 1.298 9.909-11.739C32.3 14.062 43.652 15.028 43.652 15.028"/><path d="M3.998 45.998v1c0 7.203 5.8 13.004 13.004 13.004h29.996c7.203 0 13.004-5.8 13.004-13.004v-1c0 7.203-5.8 13.002-13.004 13.002H17.002A12.975 12.975 0 0 1 3.998 45.998" opacity=".15"/><path fill="#fff" d="M3.998 18.004v-1C3.998 9.801 9.798 4 17.002 4h29.996c7.203 0 13.004 5.8 13.004 13.004v1c0-7.203-5.8-13.002-13.004-13.002H17.002A12.975 12.975 0 0 0 3.998 18.004" opacity=".15"/></svg>