<svg xmlns="http://www.w3.org/2000/svg" viewBox="0 0 64 64"><rect width="56.002" height="56.002" x="4" y="3.983" fill="#f8291a" rx="13.002" ry="13.002"/><path d="M17 4.015v6.172l4 4V4.013zm6 0v12.172l3.5 3.5.672-.672H26v-15zm5 0v14.172l3.172-3.172H31v-11zm5 0v9.172l3-3V4.015zm5 0v7L27.914 21.1 29 22.187l12-12V4.014zm5 0v7L29.564 24.45 29 23.885l-.565.564-1.935-1.935-1.936 1.935-.564-.564-.565.564L10 11.014V6.051a12.9 12.9 0 0 0-3.846 3.754v7.133L4 19.09v2.154l3.23 3.23h9.589l-7.47-7.468A1.5 1.5 0 0 1 8 15.514a1.5 1.5 0 0 1 1.5-1.5 1.5 1.5 0 0 1 1.5 1.5 1.5 1.5 0 0 1-.027.287l8.674 8.674h28.508l7.537-8.615h4.254a13 13 0 0 0-.143-1.077h-4.111v-4.308l-8.615 9.693h-3.23l8.614-9.693V5.188A13 13 0 0 0 48 4.05v6.965L34.562 24.45l-1.414-1.414L46 10.186V4.014zm-28 .148a13 13 0 0 0-3 .833v5.19l12 12 1.086-1.086L23 19.015h-2v-2l-6-6v-6.85zm-.23 33.235L4 46.015v.968c0 .73.074 1.44.189 2.138l6.271-4.182v2.152l-5.834 3.89c.046.143.103.28.153.419h3.53v5.245a12.9 12.9 0 0 0 6.46 3.138V48.169l6.46-5.385h3.231L18 48.169v11.816h4v-5.1L35.436 41.45l.564.563.564-.563 1.936 1.934 1.935-1.934.565.563.564-.563L55 54.884v2.34a13 13 0 0 0 2.252-2.26l-12.102-12.1 1.414-1.415 11.814 11.814a13 13 0 0 0 1.461-4.32l-7.379-9.39h-2.152l-2.154-2.155H35.199l.236.237-12.463 12.463a1.5 1.5 0 0 1 .027.287 1.5 1.5 0 0 1-1.5 1.5 1.5 1.5 0 0 1-1.5-1.5 1.5 1.5 0 0 1 1.35-1.493l11.494-11.494zM36 43.715l-12 12v4.272h3v-5.1l6-6v-2h2l2.085-2.086zm5 0-1.086 1.087L50 54.884v4.74a13 13 0 0 0 3-1.11v-2.801l-12-12zm-2.5 2.5-3.5 3.5v10.27h3v-13.1h1.171zm1.5 1.5v12.27h3v-9.1h.171L40 47.713zm-7 4-4 4v4.272h4zm12 1v7.272h2c.337 0 .669-.02 1-.044v-4.227z" opacity=".1"/><path fill="#edb913" d="m20 12.972-.5 2H19v3.967h-4v.533l-2 .5 2 .5v.467h4v2h-4v.533l-2 .5 2 .5v.467h4v2h-4v.533l-2 .5 2 .5v.467h4v2h-4v.533l-2 .5 2 .5v.467h4v2h-4v.533l-2 .5 2 .5v.467h4v2h-4v.533l-2 .5 2 .5v.467h4v2h-4v.533l-2 .5 2 .5v.467h4v4.033h.5l.5 2 .5-2h.5v-4.033h2v4.033h.5l.5 2 .5-2h.5v-4.033h2v4.033h.5l.5 2 .5-2h.5v-4.033h2v4.033h.5l.5 2 .5-2h.5v-4.033h2v4.033h.5l.5 2 .5-2h.5v-4.033h2v4.033h.5l.5 2 .5-2h.5v-4.033h2v4.033h.5l.5 2 .5-2h.5v-4.033h4v-.467l2-.5-2-.5v-.533h-4v-2h4v-.467l2-.5-2-.5v-.533h-4v-2h4v-.467l2-.5-2-.5v-.533h-4v-2h4v-.467l2-.5-2-.5v-.533h-4v-2h4v-.467l2-.5-2-.5v-.533h-4v-2h4v-.467l2-.5-2-.5v-.533h-4v-2h4v-.467l2-.5-2-.5v-.533h-4v-3.967h-.5l-.5-2-.5 2H43v3.967h-2v-3.967h-.5l-.5-2-.5 2H39v3.967h-2v-3.967h-.5l-.5-2-.5 2H35v3.967h-2v-3.967h-.5l-.5-2-.5 2H31v3.967h-2v-3.967h-.5l-.5-2-.5 2H27v3.967h-2v-3.967h-.5l-.5-2-.5 2H23v3.967h-2v-3.967h-.5zm1 7.967h2v2h-2zm4 0h2v2h-2zm4 0h2v2h-2zm4 0h2v2h-2zm4 0h2v2h-2zm4 0h2v2h-2zm-20 4h2v2h-2zm4 0h2v2h-2zm4 0h2v2h-2zm4 0h2v2h-2zm4 0h2v2h-2zm4 0h2v2h-2zm-20 4h2v2h-2zm4 0h2v2h-2zm4 0h2v2h-2zm4 0h2v2h-2zm4 0h2v2h-2zm4 0h2v2h-2zm-20 4h2v2h-2zm4 0h2v2h-2zm4 0h2v2h-2zm4 0h2v2h-2zm4 0h2v2h-2zm4 0h2v2h-2zm-20 4h2v2h-2zm4 0h2v2h-2zm4 0h2v2h-2zm4 0h2v2h-2zm4 0h2v2h-2zm4 0h2v2h-2zm-20 4h2v2h-2zm4 0h2v2h-2zm4 0h2v2h-2zm4 0h2v2h-2zm4 0h2v2h-2zm4 0h2v2h-2z"/><path fill="#4d4d4d" fill-rule="evenodd" d="M20 17.924h24c1.108 0 2 .892 2 2v24c0 1.108-.892 2-2 2H20c-1.108 0-2-.892-2-2v-24c0-1.108.892-2 2-2"/><path fill-rule="evenodd" d="M21.001 20.452a.5.5 0 0 1-.5.5.5.5 0 0 1-.5-.5.5.5 0 0 1 .5-.5.5.5 0 0 1 .5.5m22.997 0a.5.5 0 0 1-.5.5.5.5 0 0 1-.5-.5.5.5 0 0 1 .5-.5.5.5 0 0 1 .5.5M21.001 43.47a.5.5 0 0 1-.5.5.5.5 0 0 1-.5-.5.5.5 0 0 1 .5-.5.5.5 0 0 1 .5.5m22.997 0a.5.5 0 0 1-.5.5.5.5 0 0 1-.5-.5.5.5 0 0 1 .5-.5.5.5 0 0 1 .5.5" opacity=".35" style="paint-order:stroke fill markers"/><path fill="#fff" d="M34.699 25.77c-2.722.035-5.762.791-8.211 2.23v.366c5.591-2.777 13.524-2.759 14.246 1.219.207 1.12-.32 2.273-1.324 3.08v-4.2H38.3v4.666c0 .392.153.74.538.938v.023l.019-.01c.15.074.327.128.553.149v-.398c1.443-.774 2.714-2.482 2.281-4.53-.518-2.428-3.492-3.578-6.992-3.533m-9.623 2.836v.994h1.11v-.994zm6.482.443v4.047c0 .582.38 1.174 1.28 1.174h.65v-.867h-.447c-.263 0-.385-.131-.385-.37V31.01h.832v-.84h-.832v-1.12zm-7.199.29c-1.62 1.372-2.5 3.108-1.992 5.158.648 2.63 4.102 4.118 9.377 3.623 2.088-.194 4.822-.845 6.719-1.852v-1.43c-1.724.993-4.576 1.814-6.952 2.026-3.863.344-7.89-.198-8.453-3.114-.28-1.435.402-2.96 1.301-3.906zm11.447.761c-1.159 0-2.04.764-2.04 2.115 0 1.58 1.01 2.123 2.063 2.123.808 0 1.264-.246 1.7-.65l-.678-.613c-.283.262-.525.39-1.014.39-.622 0-.976-.39-.976-.922h2.793v-.375c0-1.174-.673-2.068-1.848-2.068m-10.73.07v3.047c0 .548.278 1.026 1.11 1.102V30.17zm2.09 0v4.104h1.1v-3.266l.912.002c.322 0 .455.149.455.393v2.87h1.103v-2.874c0-.584-.332-1.229-1.297-1.229zm8.592.79c.565 0 .778.428.802.876h-1.699a1.1 1.1 0 0 1 .11-.447c.12-.248.411-.43.787-.43z" opacity=".5"/><path d="M3.998 46.012v1c0 7.203 5.8 13.004 13.004 13.004h29.996c7.203 0 13.004-5.8 13.004-13.004v-1c0 7.203-5.8 13.002-13.004 13.002H17.002A12.975 12.975 0 0 1 3.998 46.012" opacity=".15"/><path fill="#fff" d="M3.998 18.018v-1c0-7.203 5.8-13.004 13.004-13.004h29.996c7.203 0 13.004 5.8 13.004 13.004v1c0-7.203-5.8-13.002-13.004-13.002H17.002A12.975 12.975 0 0 0 3.998 18.018" opacity=".15"/></svg>