<svg xmlns="http://www.w3.org/2000/svg" viewBox="0 0 64 64"><defs><linearGradient id="a" x1="7.937" x2="7.937" y1="15.081" y2="1.852" gradientTransform="scale(3.7796)" gradientUnits="userSpaceOnUse"><stop offset="0" stop-color="#f54800"/><stop offset="1" stop-color="#ffb200"/></linearGradient><linearGradient id="b" x1="29.504" x2="29.504" y1="47.747" y2="17.014" gradientUnits="userSpaceOnUse"><stop offset="0" stop-color="#ffb8c4"/><stop offset="1" stop-color="#fff"/></linearGradient></defs><rect width="56.002" height="56.002" x="4" y="3.969" fill="url(#a)" rx="13.002" ry="13.002" style="fill:#fa8000;fill-opacity:1"/><path fill="url(#b)" d="M43.527 12.188c-.337-.007-.758.054-1.287.174L33.18 14.2l-8.047 1.588c-.924.197-1.382.593-1.588 1.181a2.3 2.3 0 0 0-.095.375 4.6 4.6 0 0 0-.047.889l.023 20.363c-.016.358-.04.674-.09.953v.002c-.074.418-.21.75-.482 1.002s-.68.425-1.297.523c-1.82.271-3.184.634-4.195 1.082a7 7 0 0 0-.565.28q-.524.29-.9.619a3.5 3.5 0 0 0-1.014 1.476 4.2 4.2 0 0 0-.2.854 6.4 6.4 0 0 0-.048.926c.014.958.313 1.845.832 2.564a4.2 4.2 0 0 0 1.315 1.186 4.45 4.45 0 0 0 1.783.568q.495.051 1.03-.002c.94-.104 1.789-.273 2.544-.564 1.259-.485 2.255-1.313 2.97-2.76q.084-.165.153-.37c.14-.41.238-.934.297-1.528.08-.793.09-1.705.035-2.623l-.023-16.197c.002-.425-.022-.78.023-1.073v-.002c.004-.026.015-.047.02-.072a.85.85 0 0 1 .197-.436c.187-.216.513-.377 1.076-.494l9.045-1.824v-.002l5.37-1.082c.436-.088.757-.056.97.12.213.175.32.496.326.988l.024 12.102c-.034.715-.085 1.237-.334 1.613a1.2 1.2 0 0 1-.227.254c-.18.152-.42.273-.742.365h-.002a5 5 0 0 1-.55.117q-1.09.164-1.972.375c-.882.211-1.617.46-2.224.738q-.608.28-1.057.602c-.449.322-.55.444-.758.686-.73.844-.94 1.846-.925 2.968.022 1.597.85 2.945 2.168 3.66a4.6 4.6 0 0 0 1.793.532q.496.046 1.033-.008c.939-.104 1.778-.26 2.52-.537a5.3 5.3 0 0 0 1.36-.734c.617-.468 1.139-1.101 1.569-1.97q.083-.162.149-.364v-.002c.304-.942.336-2.473.369-4.108l-.016-24.777c0-.3-.017-.553-.045-.783a3 3 0 0 0-.043-.275q-.011-.063-.025-.122a1.5 1.5 0 0 0-.133-.351.9.9 0 0 0-.207-.246q-.039-.032-.082-.059a1 1 0 0 0-.215-.107q-.048-.02-.1-.035a1.7 1.7 0 0 0-.4-.055z" style="fill:#ffdee3;fill-opacity:1"/><path d="M3.998 45.998v1c0 7.203 5.8 13.004 13.004 13.004h29.996c7.203 0 13.004-5.8 13.004-13.004v-1c0 7.203-5.8 13.002-13.004 13.002H17.002A12.975 12.975 0 0 1 3.998 45.998" opacity=".35" style="opacity:.15"/><path fill="#fff" d="M3.998 18.004v-1C3.998 9.801 9.798 4 17.002 4h29.996c7.203 0 13.004 5.8 13.004 13.004v1c0-7.203-5.8-13.002-13.004-13.002H17.002A12.975 12.975 0 0 0 3.998 18.004" opacity=".15"/></svg>