<svg xmlns="http://www.w3.org/2000/svg" viewBox="0 0 64 64"><rect width="56.002" height="56.002" x="4" y="3.969" fill="#4d4d4d" rx="13.002" ry="13.002"/><path d="M3.998 45.998v1c0 7.203 5.8 13.004 13.004 13.004h29.996c7.203 0 13.004-5.8 13.004-13.004v-1c0 7.203-5.8 13.002-13.004 13.002H17.002A12.975 12.975 0 0 1 3.998 45.998" opacity=".35"/><path fill="#fff" d="M3.998 18.004v-1C3.998 9.801 9.798 4 17.002 4h29.996c7.203 0 13.004 5.8 13.004 13.004v1c0-7.203-5.8-13.002-13.004-13.002H17.002A12.975 12.975 0 0 0 3.998 18.004" opacity=".15"/><path d="M11.708 13.647h37.647v30.804H11.708Z" style="fill:#ff2e88;fill-opacity:.114921;stroke-width:1.14084"/><path d="M14.56 14.788h-2.28a.573.573 0 0 1-.572-.57c0-.314.256-.57.573-.57h2.28a.57.57 0 0 1 0 1.14zm6.845 0h-2.278a.573.573 0 0 1-.57-.57c0-.314.256-.57.57-.57h2.281a.57.57 0 0 1 .003 1.14zm-6.846 29.66h-2.278a.573.573 0 0 1-.573-.567c0-.316.256-.573.573-.573h2.28a.57.57 0 0 1 0 1.14zm6.846 0h-2.278a.573.573 0 0 1-.57-.567c0-.316.256-.573.57-.573h2.281a.57.57 0 0 1 .003 1.14zm6.847-29.66H25.97a.573.573 0 0 1-.57-.57c0-.314.257-.57.568-.57h2.284a.57.57 0 0 1 0 1.14m6.843 0h-2.281a.573.573 0 0 1-.568-.57.57.57 0 0 1 .568-.57h2.281a.57.57 0 0 1 .003 1.14zm6.846 0h-2.28a.573.573 0 0 1-.571-.57c0-.314.257-.57.567-.57h2.284a.57.57 0 0 1 0 1.14m6.846 0h-2.283a.573.573 0 0 1-.568-.57.57.57 0 0 1 .568-.57h2.283a.57.57 0 0 1 0 1.14m-36.506 9.125a.573.573 0 0 1-.573-.568v-2.284a.573.573 0 0 1 1.14 0v2.281a.57.57 0 0 1-.567.57" style="fill:#ff2e88;fill-opacity:1;stroke-width:1.14084"/><path d="M12.28 17.07a.573.573 0 0 1-.572-.571v-2.281a.573.573 0 0 1 1.14 0v2.28a.57.57 0 0 1-.567.568zm0 20.532a.573.573 0 0 1-.572-.567V34.75a.573.573 0 0 1 1.14 0v2.284a.57.57 0 0 1-.567.567m0 6.846a.573.573 0 0 1-.573-.567v-2.284a.573.573 0 0 1 1.14 0v2.281a.57.57 0 0 1-.567.57m0-13.69a.573.573 0 0 1-.573-.57v-2.28a.573.573 0 0 1 1.14 0v2.28a.57.57 0 0 1-.567.57m36.506-6.845a.573.573 0 0 1-.57-.568V21.06a.57.57 0 0 1 1.14 0v2.281a.57.57 0 0 1-.57.57m0-6.843a.573.573 0 0 1-.57-.57v-2.281a.57.57 0 0 1 1.14-.003v2.284a.57.57 0 0 1-.57.567zm0 13.69a.573.573 0 0 1-.57-.57v-2.282a.57.57 0 0 1 1.14-.002v2.283c0 .314-.256.57-.57.57" style="fill:#ff2e88;fill-opacity:1;stroke-width:1.14084"/><path d="M11.708 13.647h1.14v1.14h-1.14zm36.51 0h1.14v1.14h-1.14Zm-36.51 29.66h1.14v1.141h-1.14zm36.512.568v-2.28a.57.57 0 0 1 1.14 0v2.28c0 .314-.256.57-.57.57a.573.573 0 0 1-.57-.567Z" style="fill:#ff2e88;fill-opacity:1;stroke-width:1.14084"/><path d="M45.906 43.875a.57.57 0 0 1 .57-.567h2.284a.569.569 0 0 1 0 1.138h-2.283a.573.573 0 0 1-.568-.568Z" style="fill:#ff2e88;fill-opacity:1;stroke-width:1.14084"/><path d="M49.358 43.308v1.14h-1.14v-1.14Zm-.589-5.717a.573.573 0 0 1-.57-.57v-2.284a.57.57 0 0 1 1.14 0v2.284a.57.57 0 0 1-.57.568zM28.24 44.438h-2.28a.573.573 0 0 1-.57-.57c0-.314.256-.571.567-.571h2.284c.313 0 .57.257.57.57 0 .314-.257.57-.57.57m6.846 0h-2.284a.573.573 0 0 1-.568-.57.57.57 0 0 1 .568-.57h2.284a.57.57 0 0 1 0 1.14m6.843 0h-2.28a.573.573 0 0 1-.571-.57c0-.313.257-.57.568-.57h2.283a.57.57 0 0 1 .003 1.14z" style="fill:#ff2e88;fill-opacity:1;stroke-width:1.14084"/><rect width="4.133" height="42.89" x="-2.524" y="34.551" rx="1.118" ry="1.091" style="fill:#3b3b3d;fill-opacity:1;stroke:#fff;stroke-width:.53217;stroke-linejoin:round;stroke-miterlimit:4;stroke-dasharray:none;stroke-opacity:1" transform="rotate(-45)"/><path d="m23.416 25.445 1.392-1.392a1.08 1.08 0 0 1 1.533 0l5.77 5.77-2.922 2.925-5.773-5.773a1.08 1.08 0 0 1 0-1.53" style="color:#000;font-style:normal;font-variant:normal;font-weight:400;font-stretch:normal;font-size:medium;line-height:normal;font-family:sans-serif;font-variant-ligatures:normal;font-variant-position:normal;font-variant-caps:normal;font-variant-numeric:normal;font-variant-alternates:normal;font-variant-east-asian:normal;font-feature-settings:normal;font-variation-settings:normal;text-indent:0;text-align:start;text-decoration:none;text-decoration-line:none;text-decoration-style:solid;text-decoration-color:#000;letter-spacing:normal;word-spacing:normal;text-transform:none;writing-mode:lr-tb;direction:ltr;text-orientation:mixed;dominant-baseline:auto;baseline-shift:baseline;text-anchor:start;white-space:normal;shape-padding:0;shape-margin:0;inline-size:0;clip-rule:nonzero;display:inline;overflow:visible;visibility:visible;isolation:auto;mix-blend-mode:normal;color-interpolation:sRGB;color-interpolation-filters:linearRGB;solid-color:#000;solid-opacity:1;vector-effect:none;fill:#fff;fill-opacity:1;fill-rule:nonzero;stroke:none;stroke-width:.532171;stroke-linecap:butt;stroke-linejoin:round;stroke-miterlimit:4;stroke-dasharray:none;stroke-dashoffset:0;stroke-opacity:1;color-rendering:auto;image-rendering:auto;shape-rendering:auto;text-rendering:auto;stop-color:#000"/><path d="M23.232 25.259a1.35 1.35 0 0 0-.008 1.908l8.93 9 3.303-3.305-8.927-9a1.35 1.35 0 0 0-1.906.005zm.37.37 1.393-1.392a.81.81 0 0 1 1.156.005c-1.843 1.4-1.135.787-2.543 2.544a.81.81 0 0 1-.005-1.157" style="color:#000;font-style:normal;font-variant:normal;font-weight:400;font-stretch:normal;font-size:medium;line-height:normal;font-family:sans-serif;font-variant-ligatures:normal;font-variant-position:normal;font-variant-caps:normal;font-variant-numeric:normal;font-variant-alternates:normal;font-variant-east-asian:normal;font-feature-settings:normal;font-variation-settings:normal;text-indent:0;text-align:start;text-decoration:none;text-decoration-line:none;text-decoration-style:solid;text-decoration-color:#000;letter-spacing:normal;word-spacing:normal;text-transform:none;writing-mode:lr-tb;direction:ltr;text-orientation:mixed;dominant-baseline:auto;baseline-shift:baseline;text-anchor:start;white-space:normal;shape-padding:0;shape-margin:0;inline-size:0;clip-rule:nonzero;display:inline;overflow:visible;visibility:visible;isolation:auto;mix-blend-mode:normal;color-interpolation:sRGB;color-interpolation-filters:linearRGB;solid-color:#000;solid-opacity:1;vector-effect:none;fill:#fff;fill-opacity:1;fill-rule:nonzero;stroke:none;stroke-width:.27028;stroke-linecap:butt;stroke-linejoin:round;stroke-miterlimit:4;stroke-dasharray:none;stroke-dashoffset:0;stroke-opacity:1;color-rendering:auto;image-rendering:auto;shape-rendering:auto;text-rendering:auto;stop-color:#000"/><path d="m30.96 20.48 3.954 1.476.181 4.216 2.627-3.303L41.79 24l-2.333-3.519 2.333-3.519-4.068 1.13-2.627-3.303-.181 4.216zM8.3 29.643l3.097 1.156.143 3.306 2.057-2.59 3.19.884-1.828-2.756 1.827-2.757-3.189.883-2.054-2.589-.146 3.306zm4.232-14.885 4.981 1.86.23 5.31 3.308-4.162 5.122 1.422-2.935-4.433 2.935-4.432-5.122 1.427-3.308-4.162-.23 5.31z" style="fill:#fff;fill-opacity:1;stroke:none;stroke-width:.492956;stroke-linejoin:round;stroke-miterlimit:4;stroke-dasharray:none;stroke-opacity:1"/></svg>