<svg xmlns="http://www.w3.org/2000/svg" width="64" height="64" viewBox="0 0 16.933 16.933"><defs><radialGradient id="a" cx="55" cy="15" r="28.001" gradientTransform="matrix(-1.4285 0 0 -1.7856 133.57 41.784)" gradientUnits="userSpaceOnUse"><stop offset="0" stop-color="#42e863"/><stop offset=".3" stop-color="#42e863"/><stop offset="1" stop-color="#42e863" stop-opacity="0"/></radialGradient><radialGradient id="b" cx="10" cy="15" r="28.001" gradientTransform="matrix(0 2.1428 -1.2499 0 28.748 -6.428)" gradientUnits="userSpaceOnUse"><stop offset="0" stop-color="#ac58f6"/><stop offset=".2" stop-color="#ac58f6"/><stop offset="1" stop-color="#ac58f6" stop-opacity="0"/></radialGradient></defs><g transform="scale(.26458)"><rect width="64" height="64" fill="none" rx="0" ry="0" style="paint-order:stroke fill markers"/><rect width="56.002" height="56.002" x="4" y="3.969" fill="#009aff" rx="13.002" ry="13.002"/><circle cx="32.02" cy="32.044" r="30.001" fill="none"/><rect width="56.002" height="56.002" x="4" y="3.969" fill="url(#a)" opacity=".9" rx="13.002" ry="13.002"/><rect width="56.002" height="56.002" x="4" y="3.969" fill="url(#b)" opacity=".95" rx="13.002" ry="13.002"/></g><rect width="10.583" height="10.583" x="3.175" y="3.175" fill-rule="evenodd" rx="1.588" ry="1.588" style="paint-order:stroke fill markers"/><path fill="#f9f9f9" d="M4.762 11.112h3.97v.794h-3.97z"/><path fill="#fff" d="M6.49 9.012c.567 0 1.046-.22 1.322-.49V6.68h-1.45v.666h.722v.805c-.115.1-.314.154-.507.154-.804 0-1.212-.534-1.212-1.422 0-.876.474-1.405 1.152-1.405.37 0 .6.149.804.342l.43-.518a1.72 1.72 0 0 0-1.262-.524c-1.086 0-1.956.788-1.956 2.133 0 1.361.848 2.1 1.956 2.1zm3.819 0c1.08 0 1.824-.81 1.824-2.133s-.744-2.1-1.824-2.1-1.825.771-1.825 2.1c0 1.323.745 2.133 1.825 2.133m0-.706c-.606 0-.992-.556-.992-1.427 0-.876.386-1.4.992-1.4s.992.524.992 1.4c0 .87-.386 1.427-.992 1.427" aria-label="GO"/></svg>