<svg xmlns="http://www.w3.org/2000/svg" width="64" height="64" viewBox="0 0 16.933 16.933"><defs><linearGradient id="a" x1="7.937" x2="7.937" y1="15.081" y2="1.852" gradientUnits="userSpaceOnUse"><stop offset="0" stop-color="#ff2666"/><stop offset="1" stop-color="#ff8752"/></linearGradient><linearGradient id="b" x1="8.368" x2="8.368" y1="5.147" y2="11.387" gradientUnits="userSpaceOnUse"><stop offset="0" stop-color="#fff"/><stop offset="1" stop-color="#ffcdd6"/></linearGradient></defs><rect width="14.817" height="14.817" x="1.058" y="1.05" fill="url(#a)" rx="3.44" ry="3.44"/><path fill="url(#b)" fill-rule="evenodd" d="m4.391 6.04 3.405 6.016s.185.322.649.322c.463 0 .647-.322.647-.322s2.367-3.625 3.333-5.558c.097-.195.202-.392.246-.603a1 1 0 0 0 .009-.443.95.95 0 0 0-.255-.478 1 1 0 0 0-.571-.248 1.2 1.2 0 0 0-.659.133.86.86 0 0 0-.34.33 1.05 1.05 0 0 0-.108.457 1.3 1.3 0 0 0 .07.428c.033.088.074.173.108.259.026.074.064.144.071.221a.8.8 0 0 1-.034.37c-.222.565-.605 1.105-1.11 1.436-.21.136-.478.17-.727.182-.285.012-.615-.01-.845-.137-.231-.125-.34-.344-.485-.536-.665-.883-1.751-2.815-1.751-2.815s-.473-.835-1.323-.33c-.85.507-.331 1.317-.331 1.317z"/></svg>