<svg xmlns="http://www.w3.org/2000/svg" xmlns:xlink="http://www.w3.org/1999/xlink" width="64" height="64"><defs><linearGradient id="a" x1="7.937" x2="7.937" y1="15.081" y2="1.852" gradientTransform="scale(3.7796)" gradientUnits="userSpaceOnUse"><stop offset="0" stop-color="#f1efeb" style="stop-color:#f55c4e;stop-opacity:.88235295"/><stop offset=".328" stop-color="#f1efeb" style="stop-color:#b965b5;stop-opacity:.94117647"/><stop offset="1" stop-color="#fdfcfc" style="stop-color:#628be6;stop-opacity:1"/></linearGradient><linearGradient id="d" x1="7.937" x2="7.937" y1="15.081" y2="1.852" gradientTransform="scale(3.7796)" gradientUnits="userSpaceOnUse"><stop offset="0" stop-color="#f1efeb"/><stop offset="1" stop-color="#fdfcfc"/></linearGradient><linearGradient id="b" gradientUnits="userSpaceOnUse"><stop offset="0" stop-color="#4bbfe5"/><stop offset="1" stop-color="#9141ac"/></linearGradient><linearGradient xlink:href="#a" id="e" x1="15.379" x2="1.712" y1="2.704" y2="10.922" gradientTransform="scale(3.7796)" gradientUnits="userSpaceOnUse"/><radialGradient xlink:href="#b" id="i" cx="31.132" cy="86" r="76.065"/><radialGradient id="j" cx="109.988" cy="3.57" r="66.012" gradientUnits="userSpaceOnUse"><stop offset="0" stop-color="#f66151"/><stop offset="1" stop-color="#ed333b" stop-opacity=".001"/></radialGradient><clipPath id="f"><path d="M0 0h192v152H0z"/></clipPath><clipPath id="k"><path d="M0 0h192v152H0z"/></clipPath><filter id="c" width="1" height="1" x="0" y="0"><feColorMatrix in="SourceGraphic" values="0 0 0 0 1 0 0 0 0 1 0 0 0 0 1 0 0 0 1 0"/></filter><filter id="h" width="1.157" height="1.157" x="-.051" y="-.051" style="color-interpolation-filters:sRGB"><feGaussianBlur stdDeviation=".775"/></filter><mask id="g"><g filter="url(#c)"><path fill-opacity=".1" d="M0 0h128v128H0z"/></g></mask><mask id="l"><g filter="url(#c)"><path fill-opacity=".154" d="M0 0h128v128H0z"/></g></mask></defs><rect width="56.002" height="56.002" x="4" y="3.969" fill="url(#d)" rx="13.002" ry="13.002"/><rect width="56.002" height="43" x="4" y="3.969" fill="url(#d)" rx="13.002" ry="13.002" style="fill:url(#e)"/><g style="display:inline"><g fill="none" stroke="#00000f" clip-path="url(#f)" mask="url(#g)" style="display:inline;fill:#000;fill-opacity:1;filter:url(#h)" transform="translate(4.212 -3.507)scale(.43664)"><path stroke-width="6" d="m36 250-8 8" style="fill:none;fill-opacity:1;stroke:#000;stroke-opacity:1" transform="matrix(-1 0 0 1 140 -162.118)"/><path stroke-linecap="round" stroke-width="12" d="m28 258-14 14" style="fill:none;fill-opacity:1;stroke:#000;stroke-opacity:1" transform="matrix(-1 0 0 1 140 -162.118)"/><path stroke-linejoin="round" stroke-width="3.765" d="M88.117 228c0 16.633-13.484 30.118-30.117 30.118S27.883 244.633 27.883 228 41.367 197.883 58 197.883 88.117 211.368 88.117 228zm0 0" style="fill:none;fill-opacity:1;stroke:#000;stroke-opacity:1" transform="matrix(-1 0 0 1 140 -162.118)"/></g><path fill="url(#i)" d="M103.938 45.945c0 16.535-13.403 29.938-29.938 29.938S44.063 62.48 44.063 45.945 57.465 16.008 74 16.008s29.938 13.402 29.938 29.937m0 0" style="fill:url(#i)" transform="translate(7.705 3.48)scale(.43664)"/><path fill="url(#j)" d="M103.938 45.945c0 16.535-13.403 29.938-29.938 29.938S44.063 62.48 44.063 45.945 57.465 16.008 74 16.008s29.938 13.402 29.938 29.937m0 0" style="fill:url(#j)" transform="translate(7.705 3.48)scale(.43664)"/><path fill="none" stroke="#9a9996" stroke-linejoin="round" stroke-width="1.644" d="M26.866 24.387c0 7.263 5.888 13.15 13.15 13.15s13.151-5.887 13.151-13.15c0-7.262-5.888-13.15-13.15-13.15s-13.15 5.888-13.15 13.15zm0 0"/><path fill="none" stroke="#deddda" stroke-linejoin="round" stroke-width="1.644" d="M26.866 23.514c0 7.263 5.888 13.15 13.15 13.15s13.151-5.887 13.151-13.15-5.888-13.15-13.15-13.15-13.15 5.887-13.15 13.15zm0 0"/><g clip-path="url(#k)" mask="url(#l)" transform="translate(4.212 -3.507)scale(.43664)"><path fill="none" stroke="#fff" stroke-linecap="round" stroke-width="2" d="m129 104.883-16-16"/></g></g><path fill="#c0bfbc" d="M13.084 55.263h24.591v-1.891H13.084Zm0-3.783h37.833v-1.892H13.084Zm0 0"/></svg>