<svg xmlns="http://www.w3.org/2000/svg" viewBox="0 0 64 64"><rect width="56.002" height="56.002" x="4" y="3.969" fill="#e2dff6" rx="13.002" ry="13.002"/><path d="M3.998 45.998v1c0 7.203 5.8 13.004 13.004 13.004h29.996c7.203 0 13.004-5.8 13.004-13.004v-1c0 7.203-5.8 13.002-13.004 13.002H17.002A12.975 12.975 0 0 1 3.998 45.998" opacity=".1"/><path fill="#fff" d="M3.998 18.004v-1C3.998 9.801 9.798 4 17.002 4h29.996c7.203 0 13.004 5.8 13.004 13.004v1c0-7.203-5.8-13.002-13.004-13.002H17.002A12.975 12.975 0 0 0 3.998 18.004" opacity=".5"/><path fill="#bf00d2" d="M30.092 11.137A21 21 0 0 0 11.134 30.14a21.5 21.5 0 0 0 1.654 8.233c3.687 8.89 14.08 14.812 23.59 10.662 6.47-2.824 10.79-10.542 7.544-17.556v-.001c-1.076-2.326-2.956-4.192-5.263-5.25s-5.156-1.25-7.728.024a7.82 7.82 0 0 0-3.713 3.89c-.741 1.7-.847 3.855.167 5.747.64 1.194 1.638 2.104 2.906 2.623s2.946.563 4.36-.271a4.26 4.26 0 0 0 1.872-2.228c.366-.974.365-2.345-.359-3.438v-.001c-.44-.663-1-1.107-1.788-1.37-.635-.212-1.536-.203-2.327.158.288-.347.622-.66.993-.844h.001c1.196-.593 2.406-.525 3.632.037s2.35 1.675 2.927 2.923c1.974 4.268-.856 9.33-5.129 11.195-6.768 2.954-14.526-1.463-17.287-8.123-4.154-10.017 2.331-21.241 12.11-25.118h.002q.394-.156.794-.296zm1.414 20.526q-.002 0-.004.003l-.005.003zm.58 2.437h2.97c-.007.122.024.282-.002.374-.129.458-.297.693-.657.97-.476.364-1.19.388-1.528.275s-.487-.233-.674-.515c-.188-.284-.18-.728-.129-.865.047-.124.058-.132.143-.182-.01-.004-.034-.017-.116-.051-.002 0-.005-.005-.007-.006m.123.057c.01.003.003-.005.02-.015-.01.007-.01.009-.02.015"/><path fill="#3724b4" d="M32 11a21 21 0 0 0-5.36.73c-7.855 3.58-13.159 12.272-11.584 21.6 1.508 8.925 9.614 15.988 18.603 14.22 7.243-1.421 12.682-8.643 11.262-16.471-1.132-6.241-6.89-11.226-13.303-9.867h-.001c-5.084 1.08-8.855 6.17-7.772 11.678.85 4.315 4.92 7.813 9.487 6.756 3.564-.826 6.163-4.408 5.324-8.285v-.002c-.648-2.985-3.557-5.462-6.854-4.614a5.14 5.14 0 0 0-3.03 2.19c.714-1.596 2.174-2.835 3.808-3.182 3.538-.75 7.051 2.174 7.773 6.154.951 5.245-2.868 10.164-7.588 11.09h-.001c-6.126 1.205-12.008-3.79-13.131-10.438-1.426-8.445 4.674-16.273 12.33-17.68 9.615-1.768 18.677 6.035 20.304 16.293.282 1.78.338 3.538.206 5.255A21 21 0 0 0 52.999 32a21 21 0 0 0-21-21zm1.115 20.227c.38.026.86.441 1.006 1.116.033.155-.006.305-.01.459a1.65 1.65 0 0 1-.87.689 1.55 1.55 0 0 1-.702.045v-1.977c.007.004.034.001.039.005.079.057.06.05.069.085-.033-.138.202-.38.31-.409h.002a.5.5 0 0 1 .156-.013"/><path fill="#3724b4" d="M38.255 12.867c-3.294-.085-6.615.578-9.715 2.146-3.595 1.821-6.575 4.934-8.207 8.65-1.632 3.714-1.846 8.16.372 12.125a11.2 11.2 0 0 0 5.529 4.888c2.355.953 5.25 1.009 7.721-.55v-.002a6.9 6.9 0 0 0 2.82-3.496c.537-1.485.501-3.427-.63-4.966a4.27 4.27 0 0 0-2.258-1.608c-.97-.299-2.393-.203-3.393.69l-.003.003-.002.001c-.484.435-.766.877-.93 1.566s0 1.913.827 2.615c.408.347.666.466 1.212.546.273.04.636.057 1.089-.102.018-.006.036-.025.053-.032-.213.468-.628.98-1.027 1.233-1.235.779-2.52.77-3.903.21s-2.719-1.758-3.44-3.046c-1.525-2.729-1.402-5.632-.192-8.387s3.577-5.232 6.259-6.59c6.391-3.235 14.364-1.561 19.897 3.01a21 21 0 0 0-9.09-8.621q-1.486-.242-2.99-.283zm-6.54 18.457c.122-.007.228.004.329.013v4.042l-.477-.056c-.6-.14-1.221-.72-1.425-1.177a1.84 1.84 0 0 1-.177-.956c.021-.376-.004-.436.263-.878.226-.398.671-.763 1.063-.9.165-.059.302-.082.424-.088m2.185 3.014-.066.112c.028-.044.021-.049.044-.086.005-.01.017-.017.022-.026"/><path fill="#af1876" d="M34.148 17.741a14.5 14.5 0 0 0-3.19.28c-6.784 1.356-12.032 7.914-10.537 15.07 1.164 5.575 6.595 9.886 12.524 8.59 4.574-.998 8.116-5.487 6.988-10.395-.86-3.751-4.58-6.655-8.655-5.67-3.083.746-5.478 3.839-4.606 7.239v.001c.656 2.55 3.25 4.534 6.116 3.75.44-.12.841-.348 1.225-.595-.588.525-1.264.962-2.058 1.135-3.184.696-6.32-1.79-6.99-5.004-.923-4.416 2.49-8.688 6.903-9.57h.001c5.895-1.18 11.52 3.341 12.643 9.176 1.468 7.63-4.366 14.84-11.897 16.236-9.67 1.79-18.742-5.58-20.445-15.085-.495-2.756-.393-5.62.257-8.359A21 21 0 0 0 11 32a21 21 0 0 0 19.358 20.88c1.024-.035 2.06-.14 3.103-.333 9.923-1.84 17.602-11.322 15.609-21.677-1.384-7.192-7.609-12.958-14.921-13.13zm-2.85 11.082-.003.002h-.005zm3.13 2.338.004.01-.004-.006zm1.436.206.001.003-.001-.002zm-4.339.743h2.082a1.5 1.5 0 0 1-.195.582 1.2 1.2 0 0 1-.714.556c-.683.216-1.157-.136-1.286-.57-.103-.353.016-.51.153-.548h-.002c-.007.002-.028-.019-.038-.02m-2.362.8v.004zm3.75 1.797-.01.004q.003 0 .005-.003z"/><path fill="#691bf9" d="M34.687 14.506a17.6 17.6 0 0 0-3.897.34c-8.256 1.651-14.641 9.636-12.83 18.317 1.405 6.734 7.963 11.942 15.089 10.385 5.469-1.194 9.701-6.564 8.361-12.402-1.017-4.43-5.41-7.864-10.192-6.706-3.592.869-6.378 4.471-5.37 8.401.75 2.921 3.72 5.192 6.973 4.301h.002c2.389-.656 4.26-3.13 3.46-5.854-.12-.409-.341-.78-.578-1.135.546.568 1 1.24 1.18 2.031.708 3.082-1.703 6.147-4.826 6.83-4.38.956-8.643-2.425-9.556-6.8-1.24-5.942 3.314-11.64 9.198-12.816 7.803-1.561 15.207 4.392 16.686 12.08 1.922 10-5.689 19.411-15.513 21.234a20 20 0 0 1-1.63.234A21 21 0 0 0 32 53a21 21 0 0 0 21-21 21 21 0 0 0-.05-1.358l-.007-.04c-1.694-8.812-9.32-15.88-18.257-16.096z"/></svg>