<svg xmlns="http://www.w3.org/2000/svg" xmlns:xlink="http://www.w3.org/1999/xlink" width="64" height="64"><defs><linearGradient id="a" x1="409.83" x2="410.06" y1="539.74" y2="507.72" gradientTransform="rotate(6.96 5776.715 -3550.451)scale(1.33212)" gradientUnits="userSpaceOnUse"><stop offset="0" stop-color="#d1d1d1"/><stop offset="1" stop-color="#fff"/></linearGradient><linearGradient id="b" x1="7.937" x2="7.937" y1="15.081" y2="1.852" gradientTransform="scale(3.7796)" gradientUnits="userSpaceOnUse"><stop offset="0" stop-color="#0c8acb"/><stop offset="1" stop-color="#00e9f9"/></linearGradient><linearGradient xlink:href="#a" id="g" x1="-3" x2="-3" y1="35" y2="29" gradientTransform="translate(22 6)" gradientUnits="userSpaceOnUse"/><linearGradient xlink:href="#a" id="e" x1="19" x2="19" y1="41" y2="35" gradientTransform="translate(12 -18)" gradientUnits="userSpaceOnUse"/><linearGradient xlink:href="#a" id="f" x1="19" x2="19" y1="41" y2="35" gradientTransform="translate(24 8)" gradientUnits="userSpaceOnUse"/><filter id="c" width="1.252" height="1.189" x="-.126" y="-.095" color-interpolation-filters="sRGB"><feGaussianBlur stdDeviation="1.575"/></filter><filter id="d" width="1.223" height="1.209" x="-.112" y="-.105" color-interpolation-filters="sRGB"><feGaussianBlur stdDeviation="1.395"/></filter></defs><rect width="56.002" height="56.002" x="4" y="3.969" fill="url(#b)" rx="13.002" ry="13.002"/><path d="M19 13c-.554 0-1 .446-1 1v22.174A3 3 0 0 0 16 39a3 3 0 0 0 2 2.828V52c0 .554.446 1 1 1s1-.446 1-1V41.826A3 3 0 0 0 22 39a3 3 0 0 0-2-2.828V14c0-.554-.446-1-1-1m12 0c-.554 0-1 .446-1 1v4.174A3 3 0 0 0 28 21a3 3 0 0 0 2 2.828V52c0 .554.446 1 1 1s1-.446 1-1V23.826A3 3 0 0 0 34 21a3 3 0 0 0-2-2.828V14c0-.554-.446-1-1-1m12 0c-.554 0-1 .446-1 1v30.174A3 3 0 0 0 40 47a3 3 0 0 0 2 2.828V52c0 .554.446 1 1 1s1-.446 1-1v-2.174A3 3 0 0 0 46 47a3 3 0 0 0-2-2.828V14c0-.554-.446-1-1-1" filter="url(#c)" opacity=".15" style="paint-order:markers stroke fill"/><g fill="#fff"><rect width="2" height="40" x="18" y="12" opacity=".75" rx="1" ry="1" style="paint-order:markers stroke fill"/><rect width="2" height="40" x="30" y="12" opacity=".75" rx="1" ry="1" style="paint-order:markers stroke fill"/><rect width="2" height="40" x="42" y="12" opacity=".75" rx="1" ry="1" style="paint-order:markers stroke fill"/></g><path d="M30.949 18a3 3 0 0 0-2.95 3 3 3 0 0 0 3 3 3 3 0 0 0 3-3 3 3 0 0 0-3-3zm-12 18a3 3 0 0 0-2.95 3 3 3 0 0 0 3 3 3 3 0 0 0 3-3 3 3 0 0 0-3-3zm24 8a3 3 0 0 0-2.95 3 3 3 0 0 0 3 3 3 3 0 0 0 3-3 3 3 0 0 0-3-3z" filter="url(#d)" opacity=".15" style="paint-order:markers stroke fill"/><circle cx="31" cy="20" r="3" fill="url(#e)" style="paint-order:markers stroke fill"/><circle cx="43" cy="46" r="3" fill="url(#f)" style="paint-order:markers stroke fill"/><circle cx="19" cy="38" r="3" fill="url(#g)" style="paint-order:markers stroke fill"/></svg>