<svg xmlns="http://www.w3.org/2000/svg" image-rendering="optimizeSpeed" viewBox="0 0 64 64"><rect width="56.002" height="56.002" x="4" y="3.969" fill="#4d4d4d" rx="13.002" ry="13.002"/><path fill="#fff" d="M30.526 13C20.742 13.59 13 21.887 13 32.002 13 42.501 21.595 51 32.013 51 42.122 51 50.518 42.71 51 32.852h-4.538c-.48 7.584-6.715 13.601-14.33 13.601-7.93 0-14.617-6.483-14.617-14.471 0-7.605 6.238-13.825 13.011-14.409zm2.26 0v4.57c3.763.241 5.98 1.447 8.207 3.326l3.317-3.225C41.253 14.977 37.3 13.257 32.786 13m13.374 6.224-3.208 3.212a14.65 14.65 0 0 1 3.49 8.142h4.53c-.303-4.55-2.069-8.29-4.812-11.353zm-5.772 4.247-9.565 5.91.01.01a3 3 0 0 0-1.533 2.612c0 1.66 1.338 3.007 2.985 3.007 1.158 0 2.15-.67 2.646-1.64l.007.007z"/><path d="M3.998 45.998v1c0 7.203 5.8 13.004 13.004 13.004h29.996c7.203 0 13.004-5.8 13.004-13.004v-1c0 7.203-5.8 13.002-13.004 13.002H17.002A12.975 12.975 0 0 1 3.998 45.998" opacity=".35"/><path fill="#fff" d="M3.998 18.004v-1C3.998 9.801 9.798 4 17.002 4h29.996c7.203 0 13.004 5.8 13.004 13.004v1c0-7.203-5.8-13.002-13.004-13.002H17.002A12.975 12.975 0 0 0 3.998 18.004" opacity=".15"/></svg>