<svg xmlns="http://www.w3.org/2000/svg" viewBox="0 0 16.933 16.933"><defs><linearGradient id="a" x1="17.367" x2="17.367" y1="10.635" y2="10.254" gradientTransform="matrix(1 0 0 .66667 -.434 3.49)" gradientUnits="userSpaceOnUse"><stop offset="0" stop-color="#212020"/><stop offset=".633" stop-color="#1c2328"/><stop offset="1" stop-color="#212020"/></linearGradient><linearGradient id="b" x1="17.367" x2="17.367" y1="10.635" y2="10.254" gradientUnits="userSpaceOnUse"><stop offset="0" stop-color="#212020"/><stop offset=".284" stop-color="#212020"/><stop offset=".635" stop-color="#374550"/><stop offset=".793" stop-color="#374550"/><stop offset="1" stop-color="#212020"/></linearGradient><linearGradient id="c" x1="30.946" x2="30.946" y1="11.199" y2="9.364" gradientTransform="matrix(1 0 0 .54079 3.25 4.869)" gradientUnits="userSpaceOnUse"><stop offset="0" stop-color="#212020"/><stop offset=".284" stop-color="#212020"/><stop offset=".635" stop-color="#374550"/><stop offset=".679" stop-color="#fefefe"/><stop offset=".767" stop-color="#fff"/><stop offset=".793" stop-color="#374550"/><stop offset="1" stop-color="#212020"/></linearGradient><linearGradient id="d" x1="25.135" x2="25.135" y1="11.222" y2="9.39" gradientTransform="translate(2.182 .144)" gradientUnits="userSpaceOnUse"><stop offset="0" stop-color="#212020"/><stop offset=".284" stop-color="#212020"/><stop offset=".635" stop-color="#5d7788"/><stop offset=".679" stop-color="#fff"/><stop offset=".767" stop-color="#fff"/><stop offset=".793" stop-color="#374550"/><stop offset="1" stop-color="#212020"/></linearGradient><linearGradient id="e" x1="81.162" x2="81.162" y1="42.393" y2="35.405" gradientTransform="translate(2.182 .144)scale(.26458)" gradientUnits="userSpaceOnUse"><stop offset="0" stop-color="#212020"/><stop offset=".51" stop-color="#688297"/><stop offset="1" stop-color="#212020"/></linearGradient><linearGradient id="f" x1="25.135" x2="25.135" y1="11.222" y2="9.39" gradientTransform="translate(-10.229 .144)" gradientUnits="userSpaceOnUse"><stop offset="0" stop-color="#212020"/><stop offset=".284" stop-color="#212020"/><stop offset=".635" stop-color="#374550"/><stop offset="1" stop-color="#212020"/></linearGradient></defs><rect width="14.817" height="14.817" x="1.058" y="1.05" fill="#f2f2f2" rx="3.44" ry="3.44"/><path d="M1.058 12.17v.265a3.433 3.433 0 0 0 3.44 3.44h7.937a3.433 3.433 0 0 0 3.44-3.44v-.265a3.433 3.433 0 0 1-3.44 3.44H4.498a3.433 3.433 0 0 1-3.44-3.44" opacity=".1"/><path fill="#fff" d="M1.058 4.763V4.5a3.433 3.433 0 0 1 3.44-3.44h7.937a3.433 3.433 0 0 1 3.44 3.44v.265a3.433 3.433 0 0 0-3.44-3.44H4.498a3.433 3.433 0 0 0-3.44 3.44z" opacity=".5"/><g stroke-linecap="round" stroke-linejoin="round" stroke-opacity=".35" stroke-width=".075" opacity=".25" transform="translate(0 .265)"><rect width="12.171" height=".132" x="2.381" y="3.969" opacity=".75" rx="0" ry=".066"/><rect width="12.171" height=".132" x="2.381" y="6.085" opacity=".75" rx="0" ry=".066"/><rect width="12.171" height=".132" x="2.381" y="8.202" opacity=".75" rx="0" ry=".066"/><rect width="12.171" height=".132" x="2.381" y="10.054" opacity=".75" rx="0" ry=".066"/><rect width="12.171" height=".132" x="2.381" y="12.171" opacity=".75" rx="0" ry=".066"/></g><path fill="#3d3846" d="M7.951 4.45c-.42 0-.608.158-1.172 1.042L5.983 6.75l-.376-1.288c-.232-.81-.55-1.014-.926-1.014-.42 0-.927.362-1.578 1.1-.073.058.058.189.116.116.39-.405.723-.593.97-.593.202 0 .492.1.723.868l.492 1.65-1.013 1.505c-.231.333-.449.434-.637.434-.29 0-.318-.29-.651-.29-.231 0-.39.145-.42.348-.057.39.347.723.724.723.434 0 .622-.173 1.172-1.056l.897-1.418L5.94 9.4c.217.753.492.911.868.911.42 0 .926-.375 1.577-1.1.073-.072-.043-.187-.115-.13-.391.406-.71.594-.956.594-.217 0-.477-.058-.68-.738l-.579-1.954.912-1.331c.232-.319.449-.434.637-.434.29 0 .318.289.651.289.232 0 .39-.145.42-.347.058-.377-.347-.71-.724-.71m0 0"/><g stroke-linecap="round" stroke-linejoin="round" stroke-opacity=".35" stroke-width=".667" transform="rotate(-60 16.113 15.283)scale(.74422)"><rect width=".656" height=".265" x="16.643" y="10.319" fill="url(#a)" rx=".048" ry=".048"/><rect width=".656" height=".397" x="17.077" y="10.243" fill="url(#b)" rx=".072" ry=".072"/><path fill="url(#c)" d="M33.137 9.933c.147 0 .265.223.265.5s-.118.501-.265.501h1.587c.147 0 .265-.223.265-.5 0-.278-.118-.501-.264-.501z"/><path fill="#212020" d="M33.72 9.933c.147 0 .185.223.185.5s-.038.501-.185.501h.132c.146 0 .185-.223.185-.5 0-.278-.039-.501-.185-.501z"/><path fill="url(#d)" d="M21.231 9.508c.147 0 .265.413.265.926s-.118.926-.265.926h12.292c.221 0 .398-.413.398-.926s-.177-.926-.398-.926z"/><path fill="url(#e)" d="m21.572 9.508.057.212-.11.41-.155-.58-.046.013c.062.075.11.231.14.428.006.033.013.06.017.095q.027.139.031.297l.013-.049.11.409-.11.408-.065-.246q-.011.064-.024.12l.062.229-.029.106h.055l.001-.004.001.004h.055l-.028-.107.11-.408.109.408-.029.107h.055l.001-.004.001.004h.055l-.029-.107.11-.408.11.408-.029.107h.055v-.004l.002.004h.055l-.029-.107.11-.408.11.41-.029.105h.055l.001-.003.001.003h.055l-.028-.106.11-.409.108.408-.028.107h.055v-.005l.002.005h.054l-.028-.107.11-.408.11.41-.029.105h.055v-.003l.002.003h.055l-.029-.106.11-.409.11.409-.03.106h.056v-.004l.002.004h.055l-.029-.107.11-.408.11.409-.03.106h.056v-.004l.002.004h.054l-.028-.106.11-.41.109.41-.028.106h.054l.001-.004.001.004h.055l-.028-.106.11-.409.109.409-.029.106h.055l.001-.004.001.004h.055l-.028-.107.11-.408.109.409-.029.106h.055l.001-.004.001.004h.055l-.029-.106.11-.409.11.409-.029.106h.055v-.004l.002.004h.055l-.029-.107.11-.408.11.409-.03.106h.056v-.004l.002.004h.054l-.028-.106.11-.41.11.41-.03.106h.055l.001-.004.001.004h.055l-.028-.106.11-.41.109.41-.029.106h.056v-.003l.002.003h.054l-.028-.105.11-.41.109.408-.029.107h.055l.001-.005.001.005h.055l-.029-.107.11-.409.11.41-.029.106h.055v-.004l.002.004h.055l-.029-.106.11-.41.11.41-.03.106h.056v-.004l.002.004h.037l.016-.004-.027-.103.11-.408.102.385c.103-.14.175-.381.192-.667l-.02.077-.11-.41.075-.281-.029-.094-.073.274-.11-.408.036-.133q-.022-.021-.046-.036l-.017.066-.025-.093a.2.2 0 0 0-.059-.014l.056.21-.11.408-.109-.41.057-.211h-.055l-.03.11-.029-.11h-.054l.056.212-.11.409-.108-.408.057-.213h-.056l-.03.11-.029-.11h-.054l.057.212-.11.41-.11-.41.057-.212h-.055l-.029.11-.03-.11h-.054l.057.212-.11.408-.11-.408.057-.212h-.054l-.03.11-.03-.11h-.054l.057.212-.11.41-.11-.41.057-.212h-.054l-.03.11-.03-.11h-.054l.057.212-.11.409-.11-.409.058-.212h-.055l-.03.11-.03-.11h-.054l.057.212-.11.41-.11-.41.058-.212h-.055l-.03.11-.029-.11h-.055l.057.213-.11.408-.109-.409.057-.212h-.055l-.03.11-.029-.11h-.055l.057.212-.11.41-.109-.41.057-.212h-.055l-.03.11-.029-.11h-.055l.057.213-.11.408-.109-.409.057-.212h-.055l-.03.11-.029-.11h-.054l.056.212-.11.41-.109-.41.057-.212h-.055l-.03.11-.029-.11h-.054l.057.213-.11.409-.11-.41.057-.212h-.055l-.029.11-.03-.11h-.054l.057.212-.11.41-.11-.41.057-.212h-.054l-.03.11-.03-.11h-.054l.058.213-.11.409-.11-.409.058-.213h-.056l-.03.11-.029-.11h-.054l.056.213-.11.408-.109-.409.057-.212h-.055l-.029.11-.03-.11h-.054l.057.212-.11.409-.11-.408.057-.213h-.054l-.03.11-.03-.11h-.054l.057.213-.11.408-.11-.409.057-.212h-.054l-.03.11-.03-.11zm3.645.314.11.409-.11.409-.11-.409zm.274 0 .11.41-.11.408-.11-.41zm.548 0 .11.41-.11.408-.11-.41zm-4.383 0 .11.41-.11.409-.11-.41zm.548 0 .11.41-.11.408-.11-.409zm.548 0 .11.41-.11.409-.11-.409zm.274 0 .11.41-.11.409-.11-.41zm.548 0 .11.41-.11.409-.11-.41zm.274 0 .11.41-.11.409-.11-.41zm.274 0 .11.41-.11.409-.11-.41zm.274 0 .11.41-.11.409-.11-.41zm.273 0 .11.41-.11.409-.11-.41zm.274 0 .11.41-.11.409-.11-.41zm-3.013.001.11.408-.11.409-.11-.409zm1.37 0 .11.409-.11.409-.11-.409zm2.465 0 .11.408-.11.41-.11-.408zm.548 0 .11.408-.11.409-.11-.408zm-3.835 0 .11.41-.11.408-.11-.41zm2.876.51.11.41-.11.409-.11-.41zm.548 0 .11.41-.11.409-.11-.41zm.548 0 .11.41-.11.408-.11-.409zm-4.657 0 .11.41-.11.408-.11-.408zm.274 0 .11.41-.11.408-.11-.409zm.274 0 .11.41-.11.41-.11-.41zm.548 0 .11.41-.11.41-.11-.41zm.548 0 .11.41-.11.41-.11-.41zm.274 0 .11.41-.11.409-.11-.41zm.548 0 .11.41-.11.409-.11-.41zm.273 0 .11.41-.11.408-.11-.409zm.274 0 .11.41-.11.409-.11-.41zm.274 0 .11.41-.11.409-.11-.41zm-1.917.001.11.409-.11.409-.11-.41zm.822 0 .11.409-.11.409-.11-.41zm1.643 0 .11.408-.11.41-.11-.41zm.548 0 .11.408-.11.41-.11-.41zm-3.56 0 .108.409-.11.408-.108-.408zm-1.37 1.02q-.008.005-.015.006h.013z" opacity=".75"/><g fill="#212020"><path d="M31.562 9.508c.221 0 .399.413.399.926s-.178.926-.399.926h.118c.22 0 .399-.413.399-.926s-.178-.926-.4-.926zm3.288.487c.04.084.099.242.099.435s-.06.359-.099.443c.08-.082.133-.237.137-.42v-.039c-.004-.182-.057-.337-.137-.419"/><path d="m27.116 9.454 6.431.214c.033.002.273.187.26.217l-.112.244c-.014.03-.026.06-.06.06H27.14c-.033 0-.052-.028-.06-.06l-.088-.401c-.007-.032.091-.274.124-.274"/></g><path fill="#374550" d="M27.171 9.404h6.495c.033 0 .053.027.06.06l.088.4c.007.032-.026.06-.06.06H27.26c-.033 0-.052-.028-.06-.06l-.088-.4c-.007-.033.027-.06.06-.06z"/><path fill="#565e64" d="M27.147 9.413c-.022.01-.041.027-.036.05l.088.4c.007.033.027.06.06.06h6.495c.033 0 .067-.027.06-.06l-.005-.02c-.008.004-.015.01-.023.01H27.29c-.033 0-.052-.027-.06-.06z"/><g stroke-width=".07"><path fill="url(#f)" d="M17.674 10.198s-.018.01-.011.047c.037.045.052.148.053.19a.5.5 0 0 1-.048.208c.003.034.016.04.016.04l3.54.677c.216.042.287-.413.287-.926s-.083-.968-.3-.926z"/><path fill="#374550" d="M17.792 10.301s-.03 0-.027.081c.001.082.027.087.027.087l3.37.029c.221.002.23-.356.23-.5 0-.213-.15-.389-.229-.373z"/><path fill="#565e64" d="M17.792 10.301s-.03 0-.027.081c.001.082.027.087.027.087l3.322-.123c.22-.008.201-.205.201-.35 0-.213-.093-.296-.173-.282z"/><path fill="#fff" d="M17.792 10.319s-.03-.018-.027.064c.001.082.027.068.027.068l3.356-.243c.084-.006.12-.068.12-.213 0-.213-.077-.205-.144-.195z"/></g><path fill="#fff" d="M17.41 10.353c0 .013-.122.024-.2.024s-.081-.01-.081-.024.003-.024.081-.024.2.01.2.024"/><path fill="#374550" d="M16.983 10.412c0 .013-.122.024-.2.024s-.081-.01-.081-.024.003-.024.081-.024.2.01.2.024"/><path fill="#212020" d="M26.174 9.508c.221 0 .399.413.399.926s-.178.926-.399.926h.118c.22 0 .399-.413.399-.926s-.178-.926-.4-.926zm-3.326 0c.221 0 .399.413.399.926s-.178.926-.399.926h.118c.22 0 .399-.413.399-.926s-.178-.926-.4-.926zm-.614 0c.221 0 .399.413.399.926s-.178.926-.399.926h.118c.22 0 .399-.413.399-.926s-.178-.926-.4-.926z" opacity=".75"/></g></svg>