<svg xmlns="http://www.w3.org/2000/svg" xmlns:xlink="http://www.w3.org/1999/xlink" fill="none" viewBox="0 0 64 64"><g clip-path="url(#a)"><path fill="url(#b)" d="M1.559 2h60.882v62.001H1.559z"/><path fill="#b4befe" d="M47 3.969H17.002C9.822 3.969 4 9.79 4 16.971v29.998c0 7.18 5.821 13.002 13.002 13.002H47c7.18 0 13.002-5.821 13.002-13.002V16.971c0-7.18-5.821-13.002-13.002-13.002"/><path fill="#000" d="M41.87 54.657a9.1 9.1 0 0 1-4.934-1.458 9.1 9.1 0 0 1-4.934 1.458 9.1 9.1 0 0 1-4.934-1.458 8.96 8.96 0 0 1-4.874 1.458h-.053a8.9 8.9 0 0 1-6.315-2.606c-1.662-1.654-2.576-3.83-2.576-6.128V29.176c.003-10.074 8.414-18.27 18.752-18.27s18.749 8.196 18.749 18.27v16.753c0 4.638-3.684 8.465-8.388 8.715q-.247.014-.493.013" opacity=".2"/><path fill="#28283f" d="M41.87 53.876a9.1 9.1 0 0 1-4.934-1.459 9.1 9.1 0 0 1-4.934 1.459 9.1 9.1 0 0 1-4.934-1.459 8.96 8.96 0 0 1-4.874 1.459h-.053a8.9 8.9 0 0 1-6.315-2.606c-1.662-1.654-2.576-3.83-2.576-6.128V28.394c.003-10.073 8.414-18.269 18.752-18.269s18.749 8.196 18.749 18.27v16.753c0 4.638-3.684 8.465-8.388 8.715q-.247.014-.493.013"/><path fill="#000" d="M46.063 29.344v15.971c0 2.445-1.928 4.513-4.425 4.648a4.74 4.74 0 0 1-3.197-1.003c-1.037-.816-2.497-.779-3.544.028a4.73 4.73 0 0 1-2.9.98c-1.097 0-2.1-.366-2.897-.98a2.92 2.92 0 0 0-3.578 0 4.73 4.73 0 0 1-2.865.98c-2.597.019-4.72-2.12-4.72-4.659V29.344c0-7.593 6.298-13.75 14.063-13.75s14.063 6.157 14.063 13.75" opacity=".2"/><path fill="#dadfff" d="M46.063 28.563v15.97c0 2.445-1.928 4.514-4.425 4.648a4.74 4.74 0 0 1-3.197-1.002c-1.037-.816-2.497-.78-3.544.027a4.73 4.73 0 0 1-2.9.981c-1.097 0-2.1-.366-2.897-.98a2.92 2.92 0 0 0-3.578 0 4.73 4.73 0 0 1-2.865.98c-2.597.019-4.72-2.12-4.72-4.66V28.563c0-7.593 6.298-13.75 14.063-13.75s14.063 6.158 14.063 13.75"/><path stroke="#000" stroke-linecap="round" stroke-linejoin="round" stroke-width="4" d="m22.625 26.532 5.47 3.125-5.47 3.125" opacity=".1"/><path stroke="#28283f" stroke-linecap="round" stroke-linejoin="round" stroke-width="4" d="m22.625 25.75 5.47 3.125L22.624 32"/><path stroke="#000" stroke-linecap="round" stroke-linejoin="round" stroke-width="4" d="M33.563 29.657h7.656" opacity=".1"/><path stroke="#28283f" stroke-linecap="round" stroke-linejoin="round" stroke-width="4" d="M33.563 28.875h7.656"/><path fill="#dadfff" d="M32.002 10.125c-10.338 0-18.749 8.196-18.752 18.27v.781c.003-10.074 8.414-18.27 18.752-18.27s18.749 8.196 18.749 18.27v-.781c0-10.074-8.411-18.27-18.749-18.27" opacity=".1"/></g><defs><clipPath id="a"><path fill="#fff" d="M0 0h64v64H0z"/></clipPath><pattern id="b" width="1" height="1" patternContentUnits="objectBoundingBox"><use xlink:href="#c" transform="scale(.00398)"/></pattern></defs></svg>