<svg xmlns="http://www.w3.org/2000/svg" viewBox="0 0 64 64"><rect width="56" height="56" x="4" y="4" fill="#f2f2f2" rx="13" ry="13"/><path fill="#6d4aff" fill-rule="evenodd" d="M22.24 38.061c4.815 0 6.896 2.402 11.821 0s5.718-11.311 11.998-14.48c1.75-2.654 1.811-3.091-1.35-3.458l-13.434-.159c-3.444-.396-20.907-3.395-19.213-.346z" clip-rule="evenodd"/><path fill="#24ecc6" d="m22.239 42.799 5.742 10.405c1.552 2.823 5.56 2.964 7.31.282L42.306 42.8z" style="paint-order:fill markers stroke" transform="translate(.001 -4.738)"/><path fill="#b1a7ff" d="m30.381 43.64-1.468 2.201a1.405 1.405 0 0 1-2.427-.113l1.496 2.738c.282.48.62.904.988 1.214 1.863 1.58 4.855 1.299 6.323-.931l16.485-25.122c1.75-2.654.084-6.239-3.077-6.606l-32.405-3.726c-3.444-.395-5.928 3.275-4.234 6.323l.14.226 27.579 3.19c1.75.198 2.681 2.202 1.722 3.67z"/><path d="M3.998 45.998v1c0 7.203 5.8 13.004 13.004 13.004h29.996c7.203 0 13.004-5.8 13.004-13.004v-1c0 7.203-5.8 13.002-13.004 13.002H17.002A12.975 12.975 0 0 1 3.998 45.998" opacity=".15"/><path fill="#fff" d="M3.998 18.004v-1C3.998 9.801 9.798 4 17.002 4h29.996c7.203 0 13.004 5.8 13.004 13.004v1c0-7.203-5.8-13.002-13.004-13.002H17.002A12.975 12.975 0 0 0 3.998 18.004" opacity=".5"/></svg>