<svg xmlns="http://www.w3.org/2000/svg" viewBox="0 0 16.933 16.933"><rect width="14.816" height="14.816" x="1.058" y="1.058" fill="#ff6b4a" rx="3.44" ry="3.44"/><path d="M1.058 12.17v.265a3.433 3.433 0 0 0 3.44 3.44h7.937a3.433 3.433 0 0 0 3.44-3.44v-.265a3.433 3.433 0 0 1-3.44 3.44H4.498a3.433 3.433 0 0 1-3.44-3.44" opacity=".15"/><path fill="#fff" d="M1.058 4.763V4.5a3.433 3.433 0 0 1 3.44-3.44h7.937a3.433 3.433 0 0 1 3.44 3.44v.265a3.433 3.433 0 0 0-3.44-3.44H4.498a3.433 3.433 0 0 0-3.44 3.44z" opacity=".15"/><rect width="10.583" height="10.583" x="3.175" y="3.175" fill="#3e3e3e" fill-rule="evenodd" rx="1.588" ry="1.588" style="paint-order:stroke fill markers"/><path fill="#fff" d="M4.941 11.112h3.97v.794h-3.97zm3.585-6.347h.768l1.154 1.923 1.155-1.924h.77v4.233h-.769V6.304l-1.156 1.924-1.153-1.924v2.693h-.77M6.217 4.764c.77 0 1.539.6 1.539 1.346 0 .578-.362.93-.849 1.205l.849 1.682h-.77l-.769-1.539h-.77v1.539h-.768V4.764zm0 1.924c.6 0 .77-.273.78-.576-.01-.27-.17-.578-.78-.578h-.77v1.154z"/></svg>