<svg xmlns="http://www.w3.org/2000/svg" xmlns:xlink="http://www.w3.org/1999/xlink" width="64" height="64" style="isolation:isolate"><defs><linearGradient id="a"><stop offset="0" style="stop-color:#ff625c;stop-opacity:1"/><stop offset="1" style="stop-color:#d03b36;stop-opacity:1"/></linearGradient><linearGradient xlink:href="#a" id="f" x1="32.445" x2="32.445" y1="5.101" y2="59.459" gradientUnits="userSpaceOnUse"/><clipPath id="b"><path d="M0 0h64v64H0z"/></clipPath><clipPath id="e" clipPathUnits="userSpaceOnUse"><path d="M17.002 3.969h29.996C54.174 3.969 60 9.795 60 16.971v29.996c0 7.176-5.826 13.002-13.002 13.002H17.002C9.826 59.969 4 54.143 4 46.967V16.971C4 9.795 9.826 3.969 17.002 3.969" style="display:inline;isolation:isolate;fill:#fa5344;stroke:none;stroke-width:.999997;stroke-miterlimit:10"/></clipPath><filter id="g" width="1.77" height="1.78" x="-.08" y="-.39" style="color-interpolation-filters:sRGB"><feFlood flood-color="#faaca4" flood-opacity="1" result="flood"/><feComposite in="flood" in2="SourceGraphic" operator="out" result="composite1"/><feGaussianBlur in="composite1" result="blur" stdDeviation=".696"/><feOffset dx="-.303" dy="-1.307" result="offset"/><feComposite in="offset" in2="SourceGraphic" operator="atop" result="fbSourceGraphic"/><feColorMatrix in="fbSourceGraphic" result="fbSourceGraphicAlpha" values="0 0 0 -1 0 0 0 0 -1 0 0 0 0 -1 0 0 0 0 1 0"/><feFlood flood-color="#000" flood-opacity=".341" result="flood"/><feComposite in="flood" in2="fbSourceGraphic" operator="in" result="composite1"/><feGaussianBlur in="composite1" result="blur" stdDeviation="1.678"/><feOffset dx=".194" dy=".67" result="offset"/><feComposite in="fbSourceGraphic" in2="offset" result="composite2"/></filter></defs><g clip-path="url(#b)" style="display:inline"><defs><mask id="c"><path d="M.625 3.743h62.749v60.254H.625Z" style="fill:#fff;stroke:#000;stroke-miterlimit:10"/></mask></defs><g mask="url(#c)" style="display:inline"><use xlink:href="#d" width="100%" height="100%" transform="matrix(.25 0 0 .24 .625 3.743)"/></g><g clip-path="url(#e)"><path d="M17.002 3.97h29.996C54.174 3.97 60 9.796 60 16.972v29.996c0 7.176-5.826 13.002-13.002 13.002H17.002C9.826 59.97 4 54.144 4 46.968V16.972C4 9.796 9.826 3.97 17.002 3.97" style="display:inline;fill:url(#f);fill-opacity:1;stroke:none;stroke-miterlimit:10"/><g fill="#fff" style="filter:url(#g)"><path d="m4 20.01 9.891 5.699c.526.303 1.38.304 1.907.002l19.233-11.014c.432-.247 1.13-.244 1.559.006l1.812 1.053c.787.458.786 1.199-.003 1.654L15.97 30.35c-.622.359-1.63.357-2.25-.003L4 24.697Z" style="display:inline"/><path d="m4 29.414 9.891 5.699c.526.303 1.38.304 1.907.002l19.233-11.014c.432-.247 1.13-.244 1.559.005l1.812 1.054c.787.458.786 1.199-.003 1.654L15.97 39.754c-.622.359-1.63.357-2.25-.003L4 34.101Z" style="display:inline"/><path d="m4 38.789 9.891 5.699c.526.303 1.38.304 1.907.002l19.233-11.014c.432-.247 1.13-.244 1.559.005l1.812 1.054c.787.458.786 1.199-.003 1.654L15.97 49.129c-.622.359-1.63.357-2.25-.003L4 43.476Z"/></g></g></g></svg>