<svg xmlns="http://www.w3.org/2000/svg" viewBox="0 0 64 64"><rect width="56.002" height="56.002" x="4" y="3.969" fill="#f2f2f2" rx="13.002" ry="13.002"/><path fill="#fff" d="M3.998 18.004v-1C3.998 9.801 9.798 4 17.002 4h29.996c7.203 0 13.004 5.8 13.004 13.004v1c0-7.203-5.8-13.002-13.004-13.002H17.002A12.975 12.975 0 0 0 3.998 18.004" opacity=".5"/><path fill="#0eadff" d="M32.4 13c-6.312.055-11.401 5.187-11.4 11.5q0 .754.1 1.502L21 26h-.02c-5.515.01-9.98 4.485-9.98 10a10 10 0 0 0 16.578 7.531L39.97 33.28l.147-.164c.769-.71 1.627-.919 2.359-1.038.731-.12 1.331-.073 1.934-.056.144.013.125.015.187.024a4 4 0 0 1 .736.183 4 4 0 0 1 2.037 1.618l.034.05a4 4 0 0 1 .314.63l.006.011.004.012a4 4 0 0 1 .197.676l.01.046v.002a4 4 0 0 1-.021 1.56l-.006.03q-.035.15-.078.297l-.004.01a3.9 3.9 0 0 1-.69 1.314l-.006.008a4 4 0 0 1-.547.56l-.043.038-.011.01a4 4 0 0 1-1.248.69l-.047.017a4 4 0 0 1-2.23.066l-.005-.002a4 4 0 0 1-.623-.215l-.007-.004a4 4 0 0 1-.446-.234l-.008-.006q-.063-.038-.127-.08l-.007-.006a4 4 0 0 1-.473-.37l-.049-.044-.004-.004a4 4 0 0 1-.492-.56 3 3 0 0 0-4.81 3.585c2.965 4.023 8.513 5.236 12.887 2.819 4.373-2.418 6.297-7.762 4.468-12.412-1.371-3.488-4.554-5.822-8.105-6.262a10 10 0 0 0-.895-.07c-.135-.005-.272.012-.408.013v-.002q.1-.755.102-1.519C44 18.15 38.85 13 32.5 13zm.1 6a5.5 5.5 0 0 1 4.742 2.715l.002.002.01.017.02.036a6 6 0 0 1 .155.293l.01.019q.038.078.074.158l.01.022q.036.08.069.16l.01.021.062.162.008.022.007.025a5.5 5.5 0 0 1 .239.905l.004.023.002.018a6 6 0 0 1 .048.35l.002.023q.009.087.014.174l.002.021a6 6 0 0 1 .01.334 5.5 5.5 0 1 1-5.5-5.5M20.939 32h.06a4 4 0 0 1 2.22.674l.016.012q.063.04.124.084l.015.011a4 4 0 0 1 .246.198l.016.013.11.1.013.013q.114.11.22.227l.014.016q.05.056.096.113l.014.016.03.04a4 4 0 0 1 .16.212l.01.017q.042.06.08.123l.013.018.076.127.01.017.07.131.008.018q.035.066.066.133l.008.017q.03.067.059.137l.007.017a5 5 0 0 1 .11.297l.006.02.04.142.007.02.035.142.004.02a4 4 0 0 1 .078.479l.002.019.002.031a4 4 0 0 1 .015.346 4 4 0 0 1-6.078 3.418h-.002a4 4 0 0 1-.9-.75 4 4 0 0 1-.492-.68v-.002l-.08-.146v-.002l-.075-.149v-.002a4 4 0 0 1-.128-.308v-.002A4 4 0 0 1 17 36a4 4 0 0 1 3.939-4"/><path fill="#ff5472" d="m40.648 24.041-.146.002a3 3 0 0 0-2.739 2.053l-.015.049v.002a5.5 5.5 0 0 1-.334.824v.002a5.5 5.5 0 0 1-.428.707l-.05.072a5.5 5.5 0 0 1-.477.566l-.116.116a6 6 0 0 1-.51.44l-.148.109a6 6 0 0 1-.594.369l-.12.06a5.5 5.5 0 0 1-.694.293l-.057.02-.011.004a5.5 5.5 0 0 1-.782.191l-.062.01a5.5 5.5 0 0 1-.854.07h-.012a5.5 5.5 0 0 1-.863-.068l-.031-.006a5.5 5.5 0 0 1-.799-.193l-.05-.016-.008-.004a5.5 5.5 0 0 1-.721-.299l-.106-.056a6 6 0 0 1-.6-.37l-.122-.088-.008-.005a6 6 0 0 1-.525-.454l-.118-.119a6 6 0 0 1-.465-.545l-.005-.007-.057-.08a5.5 5.5 0 0 1-.412-.676l-.026-.05a5.5 5.5 0 0 1-.326-.802l-.002-.008a3 3 0 0 0-3.765-1.943 3 3 0 0 0-1.952 3.766A11.52 11.52 0 0 0 32.518 36a11.52 11.52 0 0 0 10.955-8.06 3 3 0 0 0-1.966-3.76 3 3 0 0 0-.86-.139z" style="font-feature-settings:normal;font-variant-alternates:normal;font-variant-caps:normal;font-variant-east-asian:normal;font-variant-ligatures:normal;font-variant-numeric:normal;font-variant-position:normal;font-variation-settings:normal;inline-size:0;isolation:auto;mix-blend-mode:normal;shape-margin:0;shape-padding:0;text-decoration-color:#000;text-decoration-line:none;text-decoration-style:solid;text-indent:0;text-orientation:mixed;text-transform:none;white-space:normal"/><path fill="#ff5472" d="M22 56h11v4H22z"/><path fill="#0eadff" d="M33 56h11v4H33z"/><path d="M3.998 45.998v1c0 7.203 5.8 13.004 13.004 13.004h29.996c7.203 0 13.004-5.8 13.004-13.004v-1c0 7.203-5.8 13.002-13.004 13.002H17.002A12.975 12.975 0 0 1 3.998 45.998" opacity=".1"/></svg>