<svg xmlns="http://www.w3.org/2000/svg" xml:space="preserve" viewBox="0 0 64 64"><defs><linearGradient id="a" x1="54.964" x2="8.165" y1="7.922" y2="57.157" gradientUnits="userSpaceOnUse"><stop offset="0" stop-color="#fc6f01"/><stop offset="1" stop-color="#fc6f01" stop-opacity="0"/></linearGradient></defs><path fill="#ec5601" d="M15.971 59.903c-2.525-.172-5.158-1.218-7.134-2.835-.74-.606-1.924-1.867-2.465-2.628-1.16-1.628-2.037-3.93-2.251-5.904-.093-.86-.1-30.51-.007-32.388.04-.793.117-1.524.206-1.928.672-3.055 2.598-5.978 5.125-7.776 1.299-.925 3.306-1.822 4.81-2.152 1.032-.225 4.27-.262 19.675-.224 13.348.033 15.068.05 15.509.15 4.54 1.026 7.93 3.851 9.595 7.999.349.869.68 2.064.814 2.937.118.772.176 31.661.062 32.934-.148 1.648-.546 3.105-1.242 4.545-2.037 4.216-6.07 6.933-10.799 7.274-1.172.084-30.654.08-31.899-.004z"/><g fill="#fff" stroke-width=".829"><circle cx="48.624" cy="38.603" r="2.622"/><circle cx="42.019" cy="38.653" r="2.622"/><circle cx="22.027" cy="38.603" r="2.622"/><circle cx="15.316" cy="38.606" r="2.622"/><circle cx="48.682" cy="31.98" r="2.622"/><circle cx="41.997" cy="32.001" r="2.622"/><circle cx="35.312" cy="32.001" r="2.622"/><circle cx="28.669" cy="31.98" r="2.622"/><circle cx="21.942" cy="31.98" r="2.622"/><circle cx="15.298" cy="31.959" r="2.622"/></g><path fill="url(#a)" d="M15.935 59.906c-2.121-.15-4.312-.917-6.19-2.168-.857-.57-2.162-1.766-2.86-2.62-1.221-1.495-2.144-3.441-2.642-5.572l-.157-.675-.012-16.006c-.007-8.803.014-16.454.045-17 .095-1.66.437-2.918 1.235-4.543.98-1.994 2.373-3.655 4.09-4.878 1.306-.929 3.371-1.854 4.804-2.15.311-.064 1.217-.142 2.077-.178 1.849-.078 26.98-.078 30.522 0 2.507.055 2.524.056 3.303.27 3.842 1.056 6.79 3.465 8.482 6.928.477.976.859 2.068 1.062 3.037.28 1.33.296 2.435.268 18.585l-.026 15.51-.154.78c-1.014 5.176-4.618 9.057-9.59 10.325-1.584.405-.51.38-17.683.396-8.687.008-16.145-.011-16.574-.041m.408-18.861c.44-.198 1.085-.812 1.321-1.26.172-.324.187-.424.186-1.17-.001-.745-.018-.848-.19-1.172-.242-.458-.77-.968-1.264-1.219-.346-.176-.466-.199-1.064-.199-.583 0-.73.026-1.08.19a3.1 3.1 0 0 0-1.304 1.209c-.195.352-.207.42-.207 1.19 0 .747.016.847.188 1.171.327.614.994 1.187 1.622 1.393.34.111 1.428.03 1.792-.133m6.748-.043c.435-.213 1.016-.79 1.265-1.257.149-.279.168-.407.166-1.13 0-.742-.018-.85-.187-1.172-.237-.452-.878-1.06-1.315-1.248-.397-.17-1.482-.204-1.921-.06-.597.196-1.18.706-1.497 1.308-.17.323-.186.429-.188 1.171 0 .725.018.852.168 1.136.37.697.853 1.141 1.5 1.377.498.182 1.51.119 2.009-.125m20.017 0c.437-.214 1.02-.794 1.263-1.257.143-.273.165-.418.167-1.095.003-.712-.015-.816-.193-1.18-.243-.494-.78-1.006-1.315-1.254-.35-.162-.5-.187-1.08-.187-.832.002-1.174.137-1.763.699-.617.588-.752.906-.781 1.837-.023.72-.012.792.173 1.17a2.97 2.97 0 0 0 1.661 1.444c.098.032.471.048.83.035.531-.02.725-.06 1.038-.212m6.682-.005c.428-.21 1.01-.791 1.254-1.252.146-.277.165-.412.165-1.13 0-.77-.013-.84-.209-1.197-.25-.458-.795-.965-1.278-1.192-.482-.225-1.678-.24-2.15-.026-.42.19-1.11.868-1.326 1.301-.158.317-.18.45-.18 1.113 0 .659.023.797.176 1.104.34.681.928 1.22 1.557 1.427.474.156 1.529.078 1.99-.148zm-33.383-6.656c.461-.212 1.055-.791 1.282-1.252.141-.287.163-.439.163-1.147 0-.726-.02-.854-.174-1.157-.216-.424-.788-.97-1.267-1.214-.326-.165-.446-.184-1.134-.184-.68 0-.81.02-1.13.18-.463.23-1.044.846-1.275 1.351-.165.36-.18.462-.154 1.118.022.583.06.79.2 1.077.292.601.96 1.17 1.633 1.393.098.033.468.049.823.036.503-.019.73-.063 1.033-.201m6.672 0c.462-.212 1.055-.791 1.282-1.252.142-.287.163-.439.163-1.147 0-.772-.011-.837-.21-1.195-.252-.456-.823-.995-1.292-1.22-.479-.23-1.596-.237-2.1-.014-.411.182-1.065.787-1.32 1.221-.176.299-.188.379-.188 1.173 0 .76.018.89.174 1.206.296.603.963 1.171 1.636 1.394.097.032.467.048.822.035.503-.018.73-.063 1.033-.201m6.612.028c.435-.192 1.11-.836 1.332-1.271.154-.302.174-.43.174-1.156 0-.772-.012-.837-.21-1.195-.246-.443-.826-.998-1.265-1.21-.452-.22-1.685-.218-2.152.002-.423.199-1.048.774-1.292 1.188-.181.31-.192.378-.192 1.215 0 .794.017.92.166 1.199.31.58.999 1.152 1.644 1.366.33.109 1.428.025 1.795-.138m6.745-.04c.435-.213 1.017-.79 1.265-1.256.147-.278.167-.411.167-1.131 0-.77-.011-.838-.207-1.19-.267-.483-.793-.973-1.289-1.2-.336-.154-.492-.179-1.092-.178-.616.002-.746.025-1.096.197-.488.239-1.126.89-1.325 1.355-.126.292-.144.457-.124 1.13.022.762.031.8.28 1.206.306.497.964 1.058 1.411 1.203.518.167 1.532.099 2.01-.135zm6.672 0c.437-.213 1.02-.792 1.263-1.256.146-.277.166-.413.166-1.131 0-.965-.095-1.208-.711-1.824-.58-.58-.965-.73-1.88-.73-.655-.001-.793.02-1.101.174-.462.23-1.053.825-1.279 1.286-.158.323-.18.457-.177 1.1.002.632.026.78.18 1.09.231.472.543.84.942 1.115.49.337.815.418 1.56.39.529-.02.726-.061 1.037-.213zm6.682-.004c.427-.21 1.01-.79 1.255-1.253.147-.276.167-.408.165-1.095-.003-.954-.123-1.27-.702-1.85-.582-.582-1.015-.756-1.88-.756-.877 0-1.286.173-1.879.794-.578.607-.711.94-.71 1.784.001.593.026.732.19 1.065.348.708.928 1.247 1.57 1.458.475.157 1.529.079 1.99-.147zm-26.721-6.65c.473-.219 1.003-.733 1.263-1.225.176-.334.192-.43.192-1.18 0-.772-.012-.837-.21-1.195-.244-.44-.871-1.042-1.28-1.228-.22-.1-.464-.13-1.07-.131-.698-.001-.823.018-1.145.178-.42.21-1 .795-1.234 1.245-.216.416-.28 1.526-.114 2.011.231.678.912 1.383 1.58 1.638.453.172 1.53.112 2.018-.114zm6.686-.014c.581-.284 1.225-.994 1.377-1.518.183-.627.112-1.589-.153-2.075-.242-.444-.817-.99-1.267-1.201-.44-.207-1.7-.219-2.136-.02-.466.212-1.07.819-1.32 1.324-.215.439-.221.476-.193 1.22.032.835.096 1.026.533 1.564.276.341.747.687 1.14.838.18.068.486.095.943.082.571-.015.738-.049 1.076-.214m6.663.01c.468-.215.95-.682 1.237-1.2.2-.362.213-.43.213-1.166 0-.709-.018-.817-.196-1.18-.242-.494-.779-1.006-1.314-1.253-.348-.161-.503-.188-1.08-.19-.594-.001-.723.022-1.073.193-.496.243-1.077.847-1.316 1.368-.244.534-.259 1.544-.03 2.061.286.646.905 1.241 1.55 1.49.43.165 1.526.098 2.008-.123zm6.616.029c.438-.197 1.112-.841 1.333-1.274.153-.302.172-.432.173-1.156 0-.772-.012-.837-.21-1.196-.254-.46-.798-.966-1.28-1.192-.302-.141-.466-.166-1.1-.165-.908 0-1.17.101-1.778.68-.624.596-.778.97-.776 1.886.001.58.031.798.145 1.047.295.652.956 1.264 1.585 1.47.443.144 1.486.09 1.908-.1"/><g fill="#fff" stroke-width=".829"><circle cx="21.96" cy="25.306" r="2.622"/><circle cx="28.612" cy="25.274" r="2.622"/><circle cx="35.291" cy="25.295" r="2.622"/><circle cx="41.976" cy="25.316" r="2.622"/></g><path d="M3.999 45.998V47A12.975 12.975 0 0 0 17 60.002h30A12.975 12.975 0 0 0 60.002 47v-1.002A12.975 12.975 0 0 1 47 59H17A12.975 12.975 0 0 1 4 45.998z" opacity=".15"/><path fill="#fff" d="M3.999 18.002v-.994A12.975 12.975 0 0 1 17 4.006h30a12.975 12.975 0 0 1 13.002 13.002v1.002A12.975 12.975 0 0 0 47 5.008H17A12.975 12.975 0 0 0 4 18.01z" opacity=".15"/></svg>