<svg xmlns="http://www.w3.org/2000/svg" xmlns:xlink="http://www.w3.org/1999/xlink" xml:space="preserve" viewBox="0 0 64 64"><defs><linearGradient id="a" x1="7.937" x2="7.937" y1="15.081" y2="1.852" gradientTransform="scale(3.7796)" gradientUnits="userSpaceOnUse" spreadMethod="pad"><stop offset="0" stop-color="#f1efeb" style="stop-color:#eef1eb;stop-opacity:1"/><stop offset="1" stop-color="#fdfcfc"/></linearGradient><linearGradient xlink:href="#a" id="b" x1="7.937" x2="7.937" y1="15.081" y2="1.852" gradientTransform="scale(3.7796)" gradientUnits="userSpaceOnUse"><stop offset="0" stop-color="#f1efeb"/><stop offset="1" stop-color="#fdfcfc"/></linearGradient><linearGradient id="e" x1="64" x2="64" y1="64" y2="72" gradientTransform="matrix(.4 0 0 .4 6.401 12.77)" gradientUnits="userSpaceOnUse"><stop offset="0" stop-color="#ffbe6f"/><stop offset="1" stop-color="#cdab8f"/></linearGradient><linearGradient id="f" x1="91" x2="96" y1="49" y2="48" gradientTransform="matrix(.4 0 0 .4 6.401 12.77)" gradientUnits="userSpaceOnUse" spreadMethod="reflect"><stop offset="0" stop-color="#f6d32d"/><stop offset="1" stop-color="#f9f06b"/></linearGradient><linearGradient xlink:href="#b" id="c" x1="7.937" x2="7.937" y1="15.081" y2="1.852" gradientTransform="scale(3.7796)" gradientUnits="userSpaceOnUse"/><clipPath id="d" clipPathUnits="userSpaceOnUse"><rect width="56.002" height="56.002" x="4" y="3.969" fill="url(#b)" stroke-width="3.78" rx="13.002" ry="13.002" style="fill:url(#c)"/></clipPath></defs><rect width="56.002" height="56.002" x="4" y="3.969" fill="url(#b)" rx="13.002" ry="13.002" style="fill:#4d8a0a;fill-opacity:1"/><g clip-path="url(#d)"><path fill="#c0bfbc" d="m16 30.338-4.799.038v-.006c-1.2 0-3.2.8-3.2 3.2v26.4l3.2-.002V35.17c0-1.6.8-1.6 2.4-1.6l2.4-.032zm32.003 0 4.798.038v-.006c1.2 0 3.2.8 3.2 3.2v26.4l-3.2-.002V35.17c0-1.6-.8-1.6-2.4-1.6l-2.4-.032zm0 0" style="stroke-width:.4"/><path fill="url(#e)" d="M22.401 22.37h19.2c5.302 0 9.6 4.298 9.6 9.6s-4.298 9.6-9.6 9.6h-19.2c-5.302 0-9.6-4.299-9.6-9.6a9.6 9.6 0 0 1 9.6-9.6m0 0" style="fill:#ffbe6f;stroke-width:.4;fill-opacity:1"/><path fill="url(#f)" d="M40.801 22.37v19.2h.8a9.6 9.6 0 0 0 3.2-.546v-18.11a9.6 9.6 0 0 0-3.2-.544zm0 0" style="fill:#f8eb60;stroke-width:.4;fill-opacity:1"/><path fill="#3d3846" d="M25.601 22.37h3.2v19.2h-3.2zm0 0" style="stroke-width:.4"/><path fill="#ed333b" d="M32.001 22.37h3.2v19.2h-3.2zm0 0" style="stroke-width:.4"/><path fill="#986a44" d="M22.401 22.37a9.6 9.6 0 0 0-3.2.545v18.11a9.6 9.6 0 0 0 3.2.545zm0 0" style="stroke-width:.4"/></g><path d="M3.998 45.998v1c0 7.203 5.8 13.004 13.004 13.004h29.996c7.203 0 13.004-5.8 13.004-13.004v-1c0 7.203-5.8 13.002-13.004 13.002H17.002A12.975 12.975 0 0 1 3.998 45.998" opacity=".35" style="opacity:.15"/><path fill="#fff" d="M3.998 18.004v-1C3.998 9.801 9.798 4 17.002 4h29.996c7.203 0 13.004 5.8 13.004 13.004v1c0-7.203-5.8-13.002-13.004-13.002H17.002A12.975 12.975 0 0 0 3.998 18.004" opacity=".15"/></svg>