<svg xmlns="http://www.w3.org/2000/svg" viewBox="0 0 16.933 16.933"><defs><linearGradient id="a" x1="282.24" x2="261.03" y1="1013.7" y2="988.43" gradientTransform="rotate(40.002 224.77 60.904)scale(.14976)" gradientUnits="userSpaceOnUse"><stop offset="0" stop-color="#fff"/><stop offset="1" stop-color="#fff" stop-opacity="0"/></linearGradient></defs><rect width="14.817" height="14.817" x="1.058" y="1.05" fill="#f2f2f2" rx="3.44" ry="3.44"/><path d="M1.058 12.17v.265a3.433 3.433 0 0 0 3.44 3.44h7.937a3.433 3.433 0 0 0 3.44-3.44v-.265a3.433 3.433 0 0 1-3.44 3.44H4.498a3.433 3.433 0 0 1-3.44-3.44" opacity=".1"/><path fill="#fff" d="M1.058 4.763V4.5a3.433 3.433 0 0 1 3.44-3.44h7.937a3.433 3.433 0 0 1 3.44 3.44v.265a3.433 3.433 0 0 0-3.44-3.44H4.498a3.433 3.433 0 0 0-3.44 3.44z" opacity=".5"/><g stroke-linecap="round" stroke-linejoin="round" stroke-opacity=".35" stroke-width=".075" opacity=".25" transform="translate(0 .265)"><rect width="12.171" height=".132" x="2.381" y="3.969" opacity=".75" rx="0" ry=".066"/><rect width="12.171" height=".132" x="2.381" y="6.085" opacity=".75" rx="0" ry=".066"/><rect width="12.171" height=".132" x="2.381" y="8.202" opacity=".75" rx="0" ry=".066"/><rect width="12.171" height=".132" x="2.381" y="10.054" opacity=".75" rx="0" ry=".066"/><rect width="12.171" height=".132" x="2.381" y="12.171" opacity=".75" rx="0" ry=".066"/></g><path fill="#da4d45" d="M4.719 1.058h.132v14.816h-.132z" opacity=".15"/><path fill="#4291e6" d="m4 4.598-.73.87-.395-.332-.265.316.711.597.994-1.185zM4 8.63l-.73.87-.395-.332-.265.316.711.597.994-1.185zm0 2.055-.73.869-.395-.331-.265.315.711.597.994-1.185z" opacity=".2"/><path fill="none" stroke="url(#a)" stroke-linecap="square" stroke-linejoin="round" stroke-width=".3" d="M30.11 4.47a.6.6 0 0 0-.844.075l-3.85 4.589-1.836-1.54a.6.6 0 0 0-.844.073l-.77.918a.6.6 0 0 0 .074.844l3.212 2.695c.254.214.63.18.844-.073l5.006-5.966a.6.6 0 0 0-.074-.844z" opacity=".5" transform="translate(-14.659 1.235)scale(.87155)"/><path fill="#4291e6" d="M11.583 5.13a.52.52 0 0 0-.735.066l-3.356 4-1.6-1.342a.52.52 0 0 0-.735.063l-.672.8a.52.52 0 0 0 .065.736l2.8 2.349a.52.52 0 0 0 .735-.064l4.363-5.2a.52.52 0 0 0-.065-.735z"/></svg>