<svg xmlns="http://www.w3.org/2000/svg" viewBox="0 0 64 64"><rect width="56.002" height="56.002" x="4" y="3.969" fill="#4d4d4d" rx="13.002" ry="13.002"/><g fill-rule="evenodd"><path fill="#ececec" d="M29.383 24.325c-4.649.288-7.374 8.592-8.029 11.235.066.004.108.009.15.014.01.079.027.229.027.482 0 .154-.012.318-.042.438s-.073.185-.095.2l-.027.012-.013.015s-.283.288-.39.773c-.105.485-.021 1.184.632 1.932.643.736 1.574 1.448 2.604 2.346.515.45.899.883 1.238 1.24q.256.27.39.465c.087.13.12.234.12.254a56 56 0 0 0-.254 2.89c-.043.735-.066 1.091-.027 1.673.02.291.047.546.106.748.03.101.069.187.123.267s.13.157.241.186c.486.124 1.003-.13 1.411-.453s.734-.575.754-.993c.031-.656-.406-.984-.456-1.04-.012-.046-.079.053-.121-.302a2.7 2.7 0 0 1-.027-.544c.015-.162.07-.286.106-.323.051-.05.122-.068.256-.066.134.001.31.024.498.066.187.042.391.104.59.121a.95.95 0 0 0 .594-.12c.397-.248 1.14-.79 1.524-1.28.193-.245.266-.407.523-.626.06-.05.12-.063.182-.057-3.258-10.63.03-18.342-1.19-19.513a32 32 0 0 1-1.398-.04m5.205 0c4.649.288 7.374 8.592 8.029 11.235a2 2 0 0 0-.15.014 3.5 3.5 0 0 0-.027.482c0 .154.012.318.042.438s.073.185.095.2l.027.012.013.015s.283.288.39.773c.105.485.021 1.184-.632 1.932-.643.736-1.574 1.448-2.604 2.346-.515.45-.899.883-1.238 1.24q-.257.27-.39.465a.7.7 0 0 0-.12.254c.003.026.168 1.436.254 2.89.043.735.066 1.091.027 1.673-.02.291-.047.546-.106.748a1 1 0 0 1-.123.267.42.42 0 0 1-.241.186c-.486.124-1.003-.13-1.411-.453s-.734-.575-.754-.993c-.031-.656.406-.984.456-1.04.012-.046.079.053.121-.302.023-.191.043-.382.027-.544s-.07-.286-.106-.323c-.051-.05-.122-.068-.256-.066-.134.001-.31.024-.498.066-.187.042-.391.104-.59.121a.94.94 0 0 1-.594-.12c-.397-.248-1.14-.79-1.524-1.28-.193-.245-.266-.407-.523-.626a.23.23 0 0 0-.182-.057c3.258-10.63-.03-18.342 1.19-19.513a32 32 0 0 0 1.398-.04"/><path fill="#fff" d="M25.15 22.928c-.41.004-.977.016-1.652.041-1.35.05-3.126.175-4.912.477s-3.586.774-4.994 1.568c-1.405.792-2.439 2.052-2.59 3.592v.013c-.001.012-.005.037 0 .08q.01.078.056.2c.06.158.182.377.434.625.504.495 1.507 1.146 3.568 1.898 0 0 .368.147.672.371.152.112.277.25.336.36.06.11.07.17 0 .279v.014s-.05.073-.07.171a.9.9 0 0 0 .014.399c.075.333.323 1.026.964 1.568l.057.04.027.013c.014.005.023-.001.03 0 .014.003.019.013.027.014.017.002.025-.002.043 0 .037.003.096.007.152.013.114.013.264.029.42.067.313.076.626.233.756.465.07.124.18.153.281.185.102.033.21.052.334.067.25.03.55.047.84.052.29.006.57.003.77.014l.154.014s4.84.172 7.613-4.143 2.03-7.02 2.03-7.02l-1.442-.048c-.15-.014-.233-.22-.45-.385-.803-.735-1.913-.858-2.825-1.004-.12.032.018-.001-.014 0-.032.002-.052-.002-.14 0s-.284-.002-.489 0m13.057 0c-.912.146-2.022.269-2.826 1.004-.216.164-.3.371-.45.385l-1.44.048s-.745 2.705 2.028 7.02 7.614 4.143 7.614 4.143l.154-.014c.2-.01.48-.008.77-.014.29-.005.59-.022.84-.052.124-.016.232-.034.333-.067s.212-.06.282-.185c.13-.232.442-.39.756-.465.156-.038.306-.054.42-.067.056-.006.115-.01.152-.013.018-.002.026.002.043 0 .008-.001.013-.01.027-.014.007-.002.015.005.03 0l.027-.014.056-.039c.642-.542.89-1.235.965-1.568a.9.9 0 0 0 .014-.399.5.5 0 0 0-.07-.171v-.014c-.07-.11-.06-.17 0-.28s.184-.247.336-.359c.304-.224.671-.37.671-.37 2.062-.753 3.065-1.404 3.569-1.9a1.8 1.8 0 0 0 .433-.624 1 1 0 0 0 .057-.2c.004-.043.001-.068 0-.08v-.013c-.152-1.54-1.185-2.8-2.59-3.592-1.408-.794-3.207-1.267-4.994-1.569-1.787-.301-3.562-.426-4.912-.476a64 64 0 0 0-1.652-.041c-.205-.002-.4.002-.489 0s-.109.001-.14 0c-.032-.002.107.032-.014 0"/></g><path fill="#999" d="M26.453 13.773c-.415 0-.753.371-.753.829 0 .374.225.688.535.791.467 1.75 1.564 3.397 3.08 4.594a5.3 5.3 0 0 0-.465 2.186c.001 1.193.383 2.33 1.05 3.126v19.034c0 1.822.839 3.15 2.1 3.15s2.097-1.382 2.1-3.15V25.297c.667-.796 1.049-1.931 1.05-3.124a5.3 5.3 0 0 0-.463-2.186c1.515-1.197 2.612-2.846 3.078-4.594.31-.103.535-.417.535-.791 0-.458-.338-.829-.753-.829-.416 0-.754.372-.754.829 0 .252.103.476.264.627-.425 1.545-1.408 3.003-2.756 4.081-.595-.851-1.428-1.335-2.3-1.337-.872.003-1.704.487-2.299 1.337-1.349-1.078-2.333-2.536-2.758-4.08a.86.86 0 0 0 .264-.628c0-.457-.339-.828-.754-.828z"/><path d="M3.999 45.998V47A12.975 12.975 0 0 0 17 60.002h30A12.975 12.975 0 0 0 60.002 47v-1.002A12.975 12.975 0 0 1 47 59H17A12.975 12.975 0 0 1 4 45.998z" opacity=".25"/><path fill="#fff" d="M3.999 18.002v-.994A12.975 12.975 0 0 1 17 4.006h30a12.975 12.975 0 0 1 13.002 13.002v1.002A12.975 12.975 0 0 0 47 5.008H17A12.975 12.975 0 0 0 4 18.01z" opacity=".15"/></svg>