<svg xmlns="http://www.w3.org/2000/svg" xmlns:xlink="http://www.w3.org/1999/xlink" style="isolation:isolate" viewBox="0 0 64 64"><use xlink:href="#a" width="100%" height="100%" transform="matrix(.25 0 0 .24 .625 3.743)"/><path fill="#fc3f3d" d="M17.002 3.97h29.996C54.174 3.97 60 9.796 60 16.972v29.996c0 7.176-5.826 13.002-13.002 13.002H17.002C9.826 59.97 4 54.144 4 46.968V16.972C4 9.796 9.826 3.97 17.002 3.97"/><path fill="#fff" d="m35.19 20.79 11.226 11.168L35.19 43.184l3.2 3.14 14.366-14.366L38.39 17.59z" class="st0" clip-path="url(#clipPath1465)"/><path fill="#fff" d="m11.244 31.97 14.395-14.395L40.034 31.97 25.639 46.365z" class="st0" clip-path="url(#clipPath1457)"/><path d="M3.998 45.998v1c0 7.203 5.8 13.004 13.004 13.004h29.996c7.203 0 13.004-5.8 13.004-13.004v-1c0 7.203-5.8 13.002-13.004 13.002H17.002A12.975 12.975 0 0 1 3.998 45.998" opacity=".15"/><path fill="#fff" d="M3.998 18.004v-1C3.998 9.801 9.798 4 17.002 4h29.996c7.203 0 13.004 5.8 13.004 13.004v1c0-7.203-5.8-13.002-13.004-13.002H17.002A12.975 12.975 0 0 0 3.998 18.004" opacity=".25"/></svg>