<svg xmlns="http://www.w3.org/2000/svg" image-rendering="optimizeSpeed" viewBox="0 0 64 64"><rect width="56.002" height="56.002" x="4" y="3.969" fill="#ccc" rx="13.002" ry="13.002"/><rect width="51.996" height="51.939" x="6.002" y="6" fill="#030000" rx="11" ry="11"/><rect width="46.002" height="46.002" x="9" y="9" fill="#292929" rx="8" ry="8"/><g fill="#fff"><path d="M15 18.409v-1.537l5 2.846v1.451l-5 2.846v-1.537l3.764-2.028z"/><rect width="6" height="1" x="20" y="26" rx="0" ry="0"/><path d="M32 9v46.002h15.002c4.432 0 8-3.568 8-8V17c0-4.432-3.568-8-8-8z" opacity=".05"/><path d="M38.5 18.409v-1.537l5 2.846v1.451l-5 2.846v-1.537l3.764-2.028z"/><rect width="6" height="1" x="43.5" y="26" rx="0" ry="0"/></g><path d="M3.999 45.998V47A12.975 12.975 0 0 0 17 60.002h30A12.975 12.975 0 0 0 60.002 47v-1.002A12.975 12.975 0 0 1 47 59H17A12.975 12.975 0 0 1 4 45.998z" opacity=".15"/><path fill="#fff" d="M3.999 18.002v-.994A12.975 12.975 0 0 1 17 4.006h30a12.975 12.975 0 0 1 13.002 13.002v1.002A12.975 12.975 0 0 0 47 5.008H17A12.975 12.975 0 0 0 4 18.01z" opacity=".15"/></svg>