<svg xmlns="http://www.w3.org/2000/svg" viewBox="0 0 16.933 16.933"><rect width="14.816" height="14.816" x="1.058" y="1.058" fill="#bc4df1" rx="3.44" ry="3.44"/><path d="M1.058 12.17v.265a3.433 3.433 0 0 0 3.44 3.44h7.937a3.433 3.433 0 0 0 3.44-3.44v-.265a3.433 3.433 0 0 1-3.44 3.44H4.498a3.433 3.433 0 0 1-3.44-3.44" opacity=".15"/><rect width="10.583" height="10.583" x="3.175" y="3.175" fill="#3e3e3e" fill-rule="evenodd" rx="1.588" ry="1.588" style="paint-order:stroke fill markers"/><path fill="#fff" d="M4.941 11.112h3.97v.794h-3.97z"/><path fill="#fff" d="M1.058 4.763V4.5a3.433 3.433 0 0 1 3.44-3.44h7.937a3.433 3.433 0 0 1 3.44 3.44v.265a3.433 3.433 0 0 0-3.44-3.44H4.498a3.433 3.433 0 0 0-3.44 3.44z" opacity=".15"/><path fill="#fff" d="M6.73 4.82q.808 0 1.177.352.375.346.375.955 0 .275-.082.527-.082.246-.275.446-.188.193-.498.304t-.768.111h-.38v1.488h-.885V4.821zm-.047.727h-.405v1.242h.293q.252 0 .434-.064.181-.065.281-.205.1-.141.1-.364 0-.31-.17-.457-.17-.152-.533-.152m4.856 2.296q0 .37-.182.645t-.527.428q-.34.146-.832.146-.217 0-.428-.03-.205-.029-.398-.081-.187-.059-.357-.14v-.827q.299.129.615.24.322.106.638.106.217 0 .346-.059.135-.058.193-.158.065-.1.065-.228 0-.159-.111-.27-.106-.111-.288-.205-.181-.1-.415-.21-.147-.071-.317-.165-.17-.1-.328-.24-.152-.147-.252-.352t-.1-.492q0-.375.17-.638.176-.27.493-.41.322-.141.755-.141.328 0 .621.076.3.076.621.217l-.287.691q-.287-.117-.515-.181T10.25 5.5q-.164 0-.281.053t-.182.146q-.058.094-.058.223 0 .146.088.252.087.1.263.193.176.094.44.223.322.152.544.316.229.164.352.387t.123.55" aria-label="PS"/></svg>