<svg xmlns="http://www.w3.org/2000/svg" viewBox="0 0 64 64"><path fill="#4d4d4d" d="M17.002 4C9.799 4 4 9.8 4 17.002v29.996c0 1.775.356 3.463.994 5.002h54.012A13 13 0 0 0 60 46.998V17.002A12.974 12.974 0 0 0 46.998 4z"/><path fill="#74d625" d="M60 29.6c-14.521.273-27.785 7.716-27.785 7.716s.554 7.425 4.489 15.617h6.9c-2.832-6.51-3.08-12.464-3.08-12.464S48.203 33.871 60 33.681zm-.371 9.348c-7.6.403-12.872 3.784-12.872 3.784s-.002 4.971 2.485 10.201h5.899c-1.775-3.831-1.818-7.604-1.818-7.604s3.023-2.1 6.677-2.375v-4.006c-.123 0-.249-.014-.37 0z"/><path fill="#74d625" d="M4.994 52a12.97 12.97 0 0 0 12.008 8h29.996a12.97 12.97 0 0 0 12.008-8z"/><path d="M3.998 45.998v1c0 7.203 5.8 13.004 13.004 13.004h29.996c7.203 0 13.004-5.8 13.004-13.004v-1c0 7.203-5.8 13.002-13.004 13.002H17.002A12.975 12.975 0 0 1 3.998 45.998" opacity=".15"/><path fill="#fff" d="M3.998 18.004v-1C3.998 9.801 9.798 4 17.002 4h29.996c7.203 0 13.004 5.8 13.004 13.004v1c0-7.203-5.8-13.002-13.004-13.002H17.002A12.975 12.975 0 0 0 3.998 18.004" opacity=".15"/></svg>