<svg xmlns="http://www.w3.org/2000/svg" width="64" height="64"><defs><linearGradient id="a" x1="7.937" x2="7.937" y1="15.081" y2="1.852" gradientTransform="scale(3.7796)" gradientUnits="userSpaceOnUse"><stop offset="0" stop-color="#d00c23"/><stop offset="1" stop-color="#ff5151"/></linearGradient><filter id="b" width="1.231" height="1.202" x="-.116" y="-.101" color-interpolation-filters="sRGB"><feGaussianBlur stdDeviation=".675"/></filter></defs><rect width="56.002" height="56.002" x="4" y="3.969" fill="url(#a)" rx="13.002" ry="13.002"/><path d="M26.039 25.469c-.046.031-.055 15.936-.01 15.986.017.018.066.018.108 0s2.784-1.573 6.095-3.457V38C40.17 33.484 40 33.583 40 33.492c0-.085-13.893-8.07-13.961-8.023" filter="url(#b)" opacity=".15"/><path fill="#fff" d="M26.039 24c-.046.031-.055 15.936-.01 15.986.017.018.066.018.108 0s2.784-1.573 6.095-3.457v.002C40.17 32.015 40 32.114 40 32.023c0-.085-13.893-8.07-13.961-8.023M55 6.72V10h2.975A13 13 0 0 0 55 6.72M9 6.724A13 13 0 0 0 6.027 10H9V6.723zM6 12v5h3v-5zm49 0v5h3v-5zM6 19v5h3v-5zm49 0v5h3v-5zM6 26v5h3v-5zm49 0v5h3v-5zM6 33v5h3v-5zm49 0v5h3v-5zM6 40v5h3v-5zm49 0v5h3v-5zM6 47v5h3v-5zm49 0v5h3v-5zM6.064 54A13 13 0 0 0 9 57.215V54zM55 54v3.217A13 13 0 0 0 57.938 54z"/></svg>