<svg xmlns="http://www.w3.org/2000/svg" viewBox="0 0 64 64"><defs><radialGradient id="b" cx="12.171" cy="12.171" r="4.762" gradientTransform="scale(3.7796)" gradientUnits="userSpaceOnUse"><stop offset="0"/><stop offset=".473"/><stop offset="1" stop-opacity="0"/></radialGradient><linearGradient id="a" x1="49.178" x2="48.877" y1="4.35" y2="8.059" gradientTransform="matrix(2.3195 0 0 1.9157 -79.782 27.339)" gradientUnits="userSpaceOnUse"><stop offset="0" stop-color="#f4d984"/><stop offset="1" stop-color="#f8db80"/></linearGradient></defs><rect width="56.002" height="56.002" x="4" y="3.969" fill="#909090" rx="13.002" ry="13.002"/><path fill="#d4d6d6" d="M32 10c-6.094 0-11 4.906-11 11v6h-3c-1.108 0-2 .892-2 2v22c0 1.108.892 2 2 2h28c1.108 0 2-.892 2-2V29c0-1.108-.892-2-2-2h-3v-6c0-6.094-4.906-11-11-11m0 4c3.878 0 7 3.122 7 7v6H25v-6c0-3.878 3.122-7 7-7"/><path fill="url(#a)" d="M16 35v8h32v-8z" opacity=".809"/><path fill="#222" d="M21.708 35 16 43h4.018l5.71-8zm7.25 0-5.707 8h4.019l5.708-8zm7.252 0-5.709 8h4.02l5.707-8zm7.25 0-5.707 8h4.018l5.708-8z"/><circle cx="46.002" cy="46.002" r="18" fill="url(#b)" opacity=".65"/><path d="M3.999 45.998V47A12.975 12.975 0 0 0 17 60.002h30A12.975 12.975 0 0 0 60.002 47v-1.002A12.975 12.975 0 0 1 47 59H17A12.975 12.975 0 0 1 4 45.998z" opacity=".15"/><circle cx="46" cy="45" r="16" fill="#383838"/><g fill="#ececec"><circle cx="37" cy="45" r="3"/><circle cx="46" cy="45" r="3"/><circle cx="55" cy="45" r="3"/></g><path fill="#fff" d="M3.999 18.002v-.994A12.975 12.975 0 0 1 17 4.006h30a12.975 12.975 0 0 1 13.002 13.002v1.002A12.975 12.975 0 0 0 47 5.008H17A12.975 12.975 0 0 0 4 18.01z" opacity=".15"/></svg>