<svg xmlns="http://www.w3.org/2000/svg" width="64" height="64" viewBox="0 0 16.933 16.933"><defs><radialGradient id="a" cx="55" cy="24" r="28.001" gradientTransform="matrix(1.4285 0 0 1.2499 -23.568 -4.999)" gradientUnits="userSpaceOnUse"><stop offset="0" stop-color="#ff3de3"/><stop offset=".155" stop-color="#fe3ee2"/><stop offset="1" stop-color="#fa47e0" stop-opacity="0"/></radialGradient><radialGradient id="b" cx="5.034" cy="35" r="28.001" gradientTransform="matrix(1.2491 0 0 2.6785 -1.264 -58.746)" gradientUnits="userSpaceOnUse"><stop offset="0" stop-color="#14d180"/><stop offset=".428" stop-color="#14d180"/><stop offset="1" stop-color="#14d180" stop-opacity="0"/></radialGradient></defs><g transform="scale(.26458)"><rect width="64" height="64" fill="none" rx="0" ry="0" style="paint-order:stroke fill markers"/><rect width="56.002" height="56.002" x="4" y="3.969" fill="#8266f1" rx="13.002" ry="13.002"/><circle cx="32.02" cy="32.044" r="30.001" fill="none"/><rect width="56.002" height="56.002" x="4" y="3.969" fill="url(#a)" rx="13.002" ry="13.002"/><rect width="56.002" height="56.002" x="4" y="3.969" fill="url(#b)" rx="13.002" ry="13.002"/></g><rect width="10.583" height="10.583" x="3.175" y="3.175" fill-rule="evenodd" rx="1.588" ry="1.588" style="paint-order:stroke fill markers"/><path fill="#f9f9f9" d="M4.762 11.112h3.97v.794h-3.97zm0-6.35h1.665c.995 0 1.798.777 1.798 2.107v.02c0 1.343-.965 2.09-1.71 2.1l-.599.007H4.762zm1.54 3.464c.463 0 1.154-.378 1.154-1.337v-.02c0-.946-.691-1.337-1.155-1.337h-.77v2.694zm4.425-3.464c-.61 0-1.154.202-1.535.582-.38.38-.582.924-.582 1.535s.202 1.154.582 1.535c.38.38.924.582 1.535.582.559 0 .978-.175 1.249-.358s.419-.4.419-.4l.064-.096V6.686h-1.925v.77h1.155v.416c-.024.03-.031.052-.143.128-.162.109-.416.226-.82.226-.447 0-.769-.136-.99-.356-.22-.221-.356-.543-.356-.991s.135-.77.356-.99c.221-.221.543-.357.99-.357.448 0 .77.135.991.356l.545-.544c-.38-.38-.924-.582-1.535-.582"/></svg>