<svg xmlns="http://www.w3.org/2000/svg" viewBox="0 0 64 64"><rect width="56.002" height="56.002" x="4" y="3.969" fill="#666" rx="13.002" ry="13.002"/><path d="M3.998 45.998v1c0 7.203 5.8 13.004 13.004 13.004h29.996c7.203 0 13.004-5.8 13.004-13.004v-1c0 7.203-5.8 13.002-13.004 13.002H17.002A12.975 12.975 0 0 1 3.998 45.998" opacity=".35"/><path fill="#fff" d="M3.998 18.004v-1C3.998 9.801 9.798 4 17.002 4h29.996c7.203 0 13.004 5.8 13.004 13.004v1c0-7.203-5.8-13.002-13.004-13.002H17.002A12.975 12.975 0 0 0 3.998 18.004" opacity=".15"/><g transform="matrix(.67857 0 0 .67852 10.286 10.289)"><path fill="#ccc" d="M37.689 23.894c-3.364 1.828-8.987 7.783-11.057 9.716C13.102 46.247 24.464 60 24.464 60c4.589-9.244 18.505-31.537 18.505-31.537s-3.883-3.068-5.28-4.57z"/><path fill="#ececec" d="M26.371 23.894c3.364 1.828 8.987 7.783 11.057 9.716C50.958 46.247 39.596 60 39.596 60 35.007 50.756 21.09 28.463 21.09 28.463s3.883-3.068 5.28-4.57z"/><path fill="#37e079" d="M18 3.996C10.314 3.996 3.998 10.314 4 18c0 7.685 6.315 14 14 14 7.686 0 14.002-6.318 14-14.004 0-7.684-6.315-14-14-14M18 12c3.364 0 6 2.638 6 6a4.141 4.139 0 0 0 0 .004C24 21.366 21.364 24 18 24s-6-2.634-6-5.996A4.141 4.139 0 0 0 12 18c0-3.362 2.636-6 6-6"/><circle cx="32" cy="35" r="3" opacity=".2"/><path fill="#37e079" d="M46 3.996c-7.686 0-14.002 6.318-14 14.004 0 7.685 6.315 14 14 14 7.686 0 14.002-6.318 14-14.004 0-7.684-6.315-14-14-14M46 12c3.364 0 6 2.638 6 6a4.141 4.139 0 0 0 0 .004C52 21.366 49.364 24 46 24s-6-2.634-6-5.996A4.141 4.139 0 0 0 40 18c0-3.362 2.636-6 6-6"/></g></svg>