<svg xmlns="http://www.w3.org/2000/svg" viewBox="0 0 64 64"><rect width="56.002" height="56.002" x="4" y="3.969" fill="#f2f2f2" rx="13.002" ry="13.002"/><path d="M3.998 45.998v1c0 7.203 5.8 13.004 13.004 13.004h29.996c7.203 0 13.004-5.8 13.004-13.004v-1c0 7.203-5.8 13.002-13.004 13.002H17.002A12.975 12.975 0 0 1 3.998 45.998" opacity=".1"/><path fill="#fff" d="M3.998 18.004v-1C3.998 9.801 9.798 4 17.002 4h29.996c7.203 0 13.004 5.8 13.004 13.004v1c0-7.203-5.8-13.002-13.004-13.002H17.002A12.975 12.975 0 0 0 3.998 18.004" opacity=".5"/><g transform="translate(7.662 7.41)scale(.37885)"><path d="M50.705 2.615c-9.927.265-15.802 9.673-19.979 17.798-.772.41-1.549.804-2.318 1.23-7.882 5.3-14.338 12.636-19.324 20.665C4.698 50.05 2.038 58.661 1.05 67.485c-.587 8.947.435 18.064 3.804 26.434 6.378 14.377 22.167 31.144 36.795 30.964-3.169-1.832-11.102-9.015-13.586-22.642 2.637 5.164 14.544 12.01 18.117 13.582-1.775-1.658-8.59-11.595-9.056-17.431l-22.762-6.999c-2.008-6.351-3.206-12.923-3.938-19.638-.093-1.501-.28-3.126.261-2.726 2.023 3.207 4.81 4.219 8.322 6.04-3.33-5.239-4.848-11.245-4.3-17.471.55-6.248 4.074-12.306 7.945-16.794.46-.526.974-1.023 1.452-1.54.207 1.608.472 3.215.659 4.77-.056 1.203.683 3.731.106 3.986-1.165 3.517-2.276 8.055.509 11.126.882-3.976 5.22-5.893 8.64-7.565 3.865-1.678 6.994-5.35 10.821-7.114 5.043-2.893 9.913 1.186 16.391 1.186 6.194 0 12.74-2.266 18.869-5.022 1.426 1.476 3.977 3.872 5.092 5.623h-.013c3.194 5.11 5.408 11.05 6.136 16.878.908 7.625.146 15.219-4.362 20.992l-.036.005h.031c.093.011 8.18.589 13.573-4.53-3.848 29.752-22.091 45.655-31.698 49.81 12.392.834 21.84-8.288 22.425-8.866-1.387 1.747-5.543 6.894-8.843 8.866 8.357-2.34 13.953-3.19 19.227-7.038-.002 0 4.284-2.334 8.755-7.433.595-.678 1.617-1.616 2.23-2.389.38-.48.734-.973 1.106-1.455.065-.08.14-.159.203-.24 9.41-11.51 13.988-25.82 13.648-38.79.067-15.721-6.313-29.37-17.032-40.652-7.752-8.16-16.555-13.602-24.483-16.303-10.272-2.95-22.947-4.206-32.012-2.49-.859.286.13-4.72 1.19-5.473-2.17.203-4.487 4.317-6.402 6.304-.216.046-.405.1-.606.15 1.188-2.408.614-4.029 2.477-6.454-5.432 1.014-6.498 4.561-8.383 8.109-.715.241-1.403.538-2.106.805C42 10.147 45.247 7.13 50.706 2.615" style="display:inline;opacity:.2;stroke-width:2.26512"/><path d="M41.136 42.033a20.727 20.727 0 1 1 40.746-7.632 20.727 20.727 0 1 1-40.746 7.632" style="fill:none;stroke-width:1.01474"/><path d="M20.938 104.13c5.502 7.913 12.604 17.237 20.712 18.487-3.169-1.832-11.101-9.015-13.585-22.642 2.637 5.164 14.54 12.013 18.114 13.585-1.775-1.657-8.59-11.598-9.057-17.434l-22.843-7.022c.143.216.648 6.572 6.66 15.026" style="fill:#304776;stroke-width:2.26512"/><path d="M102.275 50.134 61.09 35.691l-44.137 2.941L5.688 52.69c2.005 12.995.76 27.061 7.74 38.415l78.034 24.717 10.747-29.996Z" style="opacity:.2;stroke-width:2.26512"/><path d="M102.275 47.872 61.09 33.43l-44.137 2.94L5.688 50.428c2.005 12.994.76 27.061 7.74 38.414l78.034 24.718 10.747-29.996Z" style="fill:#ebebeb;stroke-width:2.26512"/><path d="m18.01 35.526 7.435 1.062 2.042-9.952-4.083 1.99z" style="fill:#3f7da7;fill-rule:evenodd;stroke-width:2.26512"/><path d="m98.925 58.058-6.11-20.073-74.738-.75-.424.522-.7.878L46.197 79.63z" style="opacity:.2;stroke-width:2.26512"/><path d="m98.925 55.793-6.11-20.073-74.738-.75-.424.522-.7.878 29.244 40.995Z" style="fill:#f7f7f7;stroke-width:2.26512"/><path d="M60.929 10.17c-.008.003-9.397.046-13.495 1.362-6.83 1.576-12.957 4.481-19.027 7.846-7.883 5.3-14.338 12.637-19.324 20.667-4.386 7.741-7.044 16.353-8.032 25.177-.587 8.947.437 18.064 3.806 26.434 6.377 14.377 22.165 31.14 36.793 30.96-1.858-.286-3.273-2.167-5.018-3.187-5.87-3.433-11.453-9.2-15.694-15.299-6.01-8.454-6.515-14.807-6.658-15.023l.08.024c-2.008-6.352-3.203-12.922-3.935-19.64-.093-1.5-.28-3.128.26-2.728 2.023 3.206 4.812 4.222 8.323 6.042-3.33-5.238-4.85-11.244-4.302-17.47.55-6.248 4.075-12.305 7.946-16.794C32.795 26.93 47.594 17.536 60.93 10.171" style="fill:#2f67a4;stroke-width:2.26512"/><path d="M60.93 10.173c-.008.001-9.4.042-13.498 1.358-6.83 1.576-12.953 4.483-19.024 7.848-7.882 5.3-14.338 12.635-19.324 20.665C4.698 47.785 2.038 56.397 1.05 65.22a72 72 0 0 0-.133 5.375 73 73 0 0 1 .133-3.11c.988-8.824 3.648-17.435 8.034-25.177 4.986-8.03 11.442-15.365 19.324-20.665 6.07-3.365 12.194-6.272 19.024-7.848 2.417-.777 6.131-1.065 9.22-1.208a297 297 0 0 1 4.277-2.415" style="opacity:.1;fill:#fff;stroke-width:2.26512"/><path d="M50.707.351C39.977.638 33.95 11.626 29.72 20.108c-1.523 2.696-3.102 5.894-4.432 8.44-2.547 4.013-1.052 8.832-.524 13.222-.056 1.203.68 3.73.104 3.984-1.165 3.517-2.274 8.056.51 11.128.882-3.976 5.221-5.892 8.64-7.564 3.866-1.678 6.994-5.353 10.822-7.117 5.043-2.893 9.913 1.187 16.391 1.187 6.194 0 12.737-2.264 18.866-5.02 1.427 1.476 3.978 3.872 5.093 5.623h-.015c3.194 5.11 5.41 11.049 6.137 16.878.908 7.625.147 15.215-4.361 20.989l-.036.007h.032c.093.011 8.178.586 13.57-4.532-3.847 29.752-22.09 45.657-31.698 49.812 12.79.86 22.642-9.057 22.642-9.057 1.86-2.65-4.495 6.331-9.057 9.057 8.357-2.34 13.952-3.19 19.226-7.039-.002 0 4.285-2.333 8.756-7.432.594-.678 1.616-1.62 2.228-2.392.381-.48.733-.973 1.105-1.456.066-.079.14-.154.203-.235 9.41-11.51 13.992-25.822 13.653-38.792.066-15.721-6.315-29.369-17.034-40.65-7.752-8.16-16.555-13.604-24.483-16.306-10.273-2.95-22.946-4.207-32.012-2.491-.858.287.129-4.72 1.188-5.473-2.542.237-5.296 5.872-7.356 7.126 1.69-2.8.795-4.48 2.828-7.126-7.558 1.41-6.63 7.717-11.277 12.122C40.96 8.816 44.337 5.619 50.707.35Z" style="fill:#4a96e1;stroke-width:2.26512"/><path d="M29.47 45.635c15.096-.435 5.618-9.79 25.765-27.17-16.414 8.498-32.037 8.486-25.745 27.17z" style="fill:#4271a3;stroke-width:2.26512"/><path d="M38.52 38.042c-1.447 2.643-4.825 3.709-6.693 2.714-1.91-.995-1.9-4.323-.421-6.967 1.427-2.643 7.73-1.457 7.76-1.457s.801 3.076-.646 5.71" style="fill:#fff;stroke-width:2.26512"/><path d="M32.188 50.091s.813-.784.39-2.219c-5.068 1.676-7.556-3.175-7.539-3.175s-3.796 9.994.756 14.523c.394-3.73 6.205-8.934 6.222-8.934" style="fill:#5c5f60;stroke-width:2.26512"/><circle cx="34.872" cy="36.593" r="2.265" style="fill:#5c5f60;stroke-width:2.26512"/><path d="M50.705.351C39.975.637 33.951 11.628 29.722 20.11c-1.523 2.696-3.102 5.895-4.433 8.441-1.321 2.082-1.54 4.38-1.385 6.725.116-1.55.494-3.055 1.385-4.46 1.33-2.546 2.91-5.745 4.433-8.44 3.8-7.623 9.063-17.246 17.878-19.33.974-.87 1.937-1.728 3.105-2.694m0 4.53c-7.082 1.323-6.768 6.924-10.516 11.25a31 31 0 0 0-.76 3.137C43.793 15.13 43.243 9.31 49.43 7.452c.23-.8.542-1.618 1.274-2.57m4.53 0c-2.065.194-4.263 3.921-6.122 5.995-.223 1.031-.445 2.086-1.235 3.393 1.737-1.057 3.969-5.198 6.15-6.623.285-1.2.728-2.423 1.208-2.765m6.194 4.72c-2.623.078-5.117.324-7.383.753a.16.16 0 0 1-.133-.009c-.256 1.275-.287 2.414.133 2.274 9.065-1.715 21.74-.459 32.012 2.49 7.928 2.702 16.731 8.144 24.483 16.303 10.719 11.283 17.099 24.932 17.032 40.653.003.116-.002.234 0 .35q.034-1.317 0-2.615c.067-15.722-6.313-29.37-17.032-40.653-7.752-8.159-16.555-13.601-24.483-16.302C78.354 10.632 69.3 9.37 61.43 9.602" style="opacity:.1;fill:#fff;stroke-width:2.26512"/><g style="fill:#304776;fill-opacity:1"><path d="M10.74 32.484C10.74 43.732-3.431 52 9.325 52h45.352c12.756 0-1.416-8.268-1.416-19.516C53.26 19.939 47.59 6 32 6S10.74 19.94 10.74 32.484M22 52c1.477 3.475 5.373 6 10 6s8.523-2.525 10-6z" style="fill:#304776;fill-opacity:1" transform="rotate(17.656 -164.55 214.818)scale(.69067)"/><path d="M32 6C16.4 6 10.728 19.94 10.728 32.485c0 6.928-5.366 12.718-6.517 16.148a1.5 1.5 0 0 1-.156-.393c-.1.535-.073 1.007.156 1.393 1.151-3.43 6.517-9.22 6.517-16.148C10.728 20.939 16.399 7 32 7s21.272 13.94 21.272 26.485c0 6.928 5.366 12.718 6.517 16.148.229-.386.256-.858.156-1.393-.036.138-.084.27-.156.393-1.151-3.43-6.517-9.22-6.517-16.148C53.272 19.939 47.601 6 32 6" style="opacity:.1;fill:#304776;fill-opacity:1" transform="rotate(17.656 -164.55 214.818)scale(.69067)"/><path d="M59.948 50.24c-.295 1.133-1.756 1.76-5.252 1.76H9.301c-3.49 0-4.952-.625-5.25-1.756C3.725 52 4.892 53 9.302 53h45.395c4.414 0 5.582-1.002 5.252-2.76M22 53c1.478 3.476 5.374 6 10 6s8.522-2.524 10-6h-.514c-1.748 2.948-5.318 5-9.486 5s-7.738-2.052-9.486-5Z" style="opacity:.2;fill:#304776;fill-opacity:1" transform="rotate(17.656 -164.55 214.818)scale(.69067)"/></g><g style="font-style:italic;font-variant:normal;font-weight:400;font-stretch:normal;font-size:45.3573px;line-height:1.25;font-family:FreeMono;-inkscape-font-specification:&quot;FreeMono Italic&quot;;letter-spacing:0;word-spacing:0;opacity:1;fill:#afafe9;fill-opacity:1;stroke:none;stroke-width:.311386"><path d="m84.802 71.716 4.574-21.571h-2.421q-1.032 0-1.032-.763 0-1.076 1.435-1.076h11.57q2.871 0 4.62 1.48 1.794 1.435 1.794 3.812 0 4.126-5.113 6.592 4.485 1.66 4.485 5.248 0 3.139-2.78 5.65-2.736 2.467-6.19 2.467H81.977q-1.031 0-1.031-.762 0-1.077 1.435-1.077zm18.656-17.76q0-1.614-1.345-2.69-1.3-1.121-3.543-1.121h-7.355l-1.973 9.373h6.592q3.184 0 5.382-1.615 2.242-1.614 2.242-3.946m-.628 11.75q0-1.748-1.57-3.049-1.569-1.3-5.74-1.3h-6.682l-2.197 10.36h9.328q2.736 0 4.799-1.795 2.062-1.838 2.062-4.215" aria-label="B" style="font-style:italic;font-variant:normal;font-weight:400;font-stretch:normal;font-size:45.3573px;font-family:FreeMono;-inkscape-font-specification:&quot;FreeMono Italic&quot;;fill:#afafe9;fill-opacity:1;stroke-width:.307885" transform="rotate(17.45 -10.372 7.999)scale(.96508)"/></g></g></svg>