<svg xmlns="http://www.w3.org/2000/svg" viewBox="0 0 64 64"><rect width="56.002" height="56.002" x="4" y="3.969" fill="#f2f2f2" rx="13.002" ry="13.002"/><path d="M3.998 45.998v1c0 7.203 5.8 13.004 13.004 13.004h29.996c7.203 0 13.004-5.8 13.004-13.004v-1c0 7.203-5.8 13.002-13.004 13.002H17.002A12.975 12.975 0 0 1 3.998 45.998" opacity=".1"/><path fill="#fff" d="M3.998 18.004v-1C3.998 9.801 9.798 4 17.002 4h29.996c7.203 0 13.004 5.8 13.004 13.004v1c0-7.203-5.8-13.002-13.004-13.002H17.002A12.975 12.975 0 0 0 3.998 18.004" opacity=".5"/><rect width="64" height="64" fill="none" rx="0" ry="0" style="paint-order:stroke fill markers"/><path fill="#fb6500" d="M40.204 42.692a.6.6 0 0 0 .117.108 7.2 7.2 0 0 1 2.138 3.844 2.3 2.3 0 0 0 .078.474 2.33 2.33 0 0 0 .602 1.038 2.341 2.341 0 0 0 3.31-3.31 2.33 2.33 0 0 0-1.41-.673 7.2 7.2 0 0 1-4.004-2.23.56.56 0 0 0-.832.748"/><path fill="#0082ef" d="M47.604 44.49a.6.6 0 0 0 .108-.118 7.2 7.2 0 0 1 3.844-2.138 2.3 2.3 0 0 0 .474-.078 2.33 2.33 0 0 0 1.038-.602 2.34 2.34 0 0 0-3.31-3.31 2.33 2.33 0 0 0-.673 1.41 7.2 7.2 0 0 1-2.23 4.004h.001a.56.56 0 0 0 .748.832"/><path fill="#2dbc00" d="M49.402 37.09a.6.6 0 0 0-.118-.109 7.2 7.2 0 0 1-2.137-3.844 2.3 2.3 0 0 0-.079-.474 2.33 2.33 0 0 0-.602-1.038 2.34 2.34 0 0 0-3.31 3.31 2.33 2.33 0 0 0 1.41.673 7.2 7.2 0 0 1 4.005 2.23.56.56 0 0 0 .831-.748"/><path fill="#fc0" d="M42.002 35.291a.6.6 0 0 0-.109.118 7.2 7.2 0 0 1-3.844 2.137 2.3 2.3 0 0 0-.474.079 2.33 2.33 0 0 0-1.037.602 2.341 2.341 0 0 0 3.31 3.31 2.33 2.33 0 0 0 .672-1.41 7.2 7.2 0 0 1 2.23-4.005.56.56 0 0 0-.748-.831"/><path fill="#0092ea" d="M45.483 23.855a14.4 14.4 0 0 0-2.6-3.691c-2.714-2.807-6.514-4.615-10.7-5.091a20 20 0 0 0-2.214-.129c-.683 0-1.396.04-2.119.119-4.204.457-8.025 2.256-10.76 5.065a14.4 14.4 0 0 0-2.613 3.681 12.86 12.86 0 0 0-1.34 5.713c0 2.549.775 5.062 2.243 7.269.83 1.247 2.249 2.86 3.464 3.848l-.673 2.783-.194.783a1.3 1.3 0 0 0-.079.242q-.014.078-.02.159c-.004.04-.012.08-.012.121a1.295 1.295 0 0 0 1.295 1.296c.234 0 .45-.067.64-.175l.018-.01q.043-.023.082-.05l4.805-2.411c1.034.297 2.06.487 3.142.606a20 20 0 0 0 2.122.116c.718 0 1.463-.043 2.214-.129a18.8 18.8 0 0 0 4.241-.99 2.3 2.3 0 0 1-.427-.192 2.34 2.34 0 0 1-1.166-2.255 16 16 0 0 1-3.007.643 17 17 0 0 1-1.855.108 16 16 0 0 1-1.776-.098c-.123-.013-.245-.032-.368-.048a16 16 0 0 1-2.38-.5 1.6 1.6 0 0 0-.494-.075c-.267 0-.525.07-.787.207q-.051.024-.102.052l-3.083 1.816-.003.002c-.064.038-.1.051-.133.051a.2.2 0 0 1-.196-.204l.114-.46.13-.5.457-1.737a1.4 1.4 0 0 0 .06-.378 1.24 1.24 0 0 0-.507-1.002 13 13 0 0 1-1.235-1.037 12 12 0 0 1-1.75-2.07c-1.162-1.747-1.777-3.73-1.777-5.734 0-1.555.356-3.068 1.057-4.495a11.5 11.5 0 0 1 2.098-2.95c2.247-2.31 5.407-3.79 8.898-4.17a17 17 0 0 1 1.776-.1c.6 0 1.224.036 1.855.108 3.475.395 6.617 1.883 8.848 4.19a11.5 11.5 0 0 1 2.086 2.958 10.1 10.1 0 0 1 1.04 4.459c0 .16-.01.32-.018.48a2.34 2.34 0 0 1 2.873.336c.04.04.073.083.109.124a12.85 12.85 0 0 0-1.279-6.654"/></svg>