<svg xmlns="http://www.w3.org/2000/svg" viewBox="0 0 64 64"><rect width="56.002" height="56.002" x="4" y="3.969" fill="#f2f2f2" rx="13.002" ry="13.002"/><path fill="#fff" d="M3.998 18.004v-1C3.998 9.801 9.798 4 17.002 4h29.996c7.203 0 13.004 5.8 13.004 13.004v1c0-7.203-5.8-13.002-13.004-13.002H17.002A12.975 12.975 0 0 0 3.998 18.004" opacity=".5"/><path d="M3.998 45.998v1c0 7.203 5.8 13.004 13.004 13.004h29.996c7.203 0 13.004-5.8 13.004-13.004v-1c0 7.203-5.8 13.002-13.004 13.002H17.002A12.975 12.975 0 0 1 3.998 45.998" opacity=".1"/><path fill="#e6e6e6" d="M47.606 50C48.922 50 50 48.959 50 47.683v-23.65c0-1.276-1.079-2.318-2.395-2.318H24.23l10.48 16.024L33.611 50z"/><path fill="#1e57b9" d="M39.771 42.286h-8.375l2.215 7.715z"/><path fill="#5a717f" d="M38.43 27.5v1.93h-4.59v1.93h.784v-.002h5.786v.002h2.682c-.495 1.717-1.59 3.374-2.656 4.634-1.338-1.56-1.726-2.365-1.842-2.708h-1.966c.144.441.684 1.618 2.68 3.923-.862.868-1.514 1.383-1.514 1.383l.602 1.858s.911-.772 2.051-1.964c1.144 1.222 2.62 2.691 4.53 4.443l1.177-1.222a74 74 0 0 1-4.58-4.443c1.476-1.721 2.975-3.925 3.292-5.908h3.204v.003h.004v-1.93h-7.716V27.5z"/><path fill="#4285f4" d="M16.395 14C15.08 14 14 15.045 14 16.323v23.644c0 1.275 1.079 2.32 2.395 2.32h23.377L30.39 14z"/><path fill="#fff" d="M24.402 22.358c-3.258 0-5.901 2.592-5.901 5.785s2.643 5.786 5.9 5.786c3.414 0 5.671-2.348 5.671-5.66 0-.323-.027-.546-.07-.769h-5.073v1.928l1.138.002h1.946s-.715 2.644-3.727 2.57a3.857 3.857 0 1 1 2.574-6.727l1.497-1.409c-1.026-.927-2.362-1.506-3.955-1.506"/></svg>