<svg xmlns="http://www.w3.org/2000/svg" width="64" height="64"><defs><linearGradient id="a" x1="7.937" x2="7.937" y1="15.081" y2="1.852" gradientTransform="scale(3.7796)" gradientUnits="userSpaceOnUse"><stop offset="0" stop-color="#f1efeb"/><stop offset="1" stop-color="#fdfcfc"/></linearGradient></defs><rect width="56.002" height="56.002" x="4" y="3.969" fill="url(#a)" rx="13.002" ry="13.002"/><path fill="#a1d1f7" d="M26.496 53.473c-11.725-.939-19.82-3.7-20.842-7.11-.989-3.3 1.296-5.652 7.34-7.558 1.257-.397 2.916-.845 3.687-.997s1.402-.34 1.402-.418-.369-.785-.82-1.572C13.75 29.7 14.436 22.183 19.02 16.554c2.103-2.581 5.966-4.92 9.344-5.659 2.133-.466 5.138-.466 7.27 0 3.656.8 7.53 3.269 9.795 6.244 2.417 3.176 3.448 6.252 3.448 10.291 0 3.094-.436 4.998-1.753 7.659l-.861 1.739.502.383c.62.474.927.591 4.027 1.544 6.236 1.916 8.558 4.255 7.553 7.608-.884 2.952-7.426 5.574-16.79 6.729-2.49.307-12.746.566-15.06.381M39.899 50.9c9.248-.915 16.404-3.497 16.404-5.917 0-1.15-1.668-2.407-4.716-3.555-.725-.272-1.409-.495-1.52-.495-.432 0-.165.362.732.995 1.835 1.292 2.202 2.794 1.054 4.3-1.19 1.56-5.61 3.042-11.236 3.768-4.079.527-13.154.527-17.234 0-5.607-.724-10.046-2.21-11.226-3.757-1.36-1.783-.704-3.398 1.986-4.88 1.388-.765.906-.81-1.176-.112-3.273 1.099-5.27 2.514-5.27 3.736 0 1.786 3.917 3.726 10.012 4.96 2.445.496 7.162 1.077 10.137 1.249 2.163.125 9.683-.057 12.053-.292m1.304-3.21c4.414-.664 8.61-2.043 8.955-2.943.134-.351-.2-.906-.546-.906-.11 0-.567.313-1.014.696-1.364 1.167-2.47 1.409-7.25 1.584-2.342.085-5.132.083-6.2-.006s-4.013-.089-6.545 0c-5.522.196-8.05.03-9.378-.613-.882-.427-1.973-1.645-1.973-2.203 0-.627-.538-.656-1.765-.097-2.078.949-2.2 1.47-.555 2.365 1.856 1.01 5.989 1.972 10.421 2.425 2.835.29 13.239.092 15.85-.301"/><path fill="#fca200" d="M20.472 45.732c-2.092-.542-3.22-1.954-3.22-4.032 0-1.326.29-2.287.964-3.195.603-.813.604-.776-.024-1.6-.814-1.066-2.108-4.033-2.503-5.736-.784-3.385-.333-7.598 1.156-10.779 2.21-4.722 6.944-8.435 11.922-9.35 1.582-.291 4.884-.291 6.467 0 2.905.534 5.957 2.128 8.248 4.308 3.36 3.197 5.136 7.263 5.186 11.875.031 2.905-.465 5.09-1.738 7.654l-.996 2.004.448.312c.247.171.973.827 1.613 1.456 2.688 2.644 1.994 5.607-1.594 6.802-.82.273-2.049.336-6.715.348-3.142.008-6.04-.008-6.44-.035s-3.297-.008-6.439.04c-3.141.05-5.992.017-6.335-.072"/><path fill="#ea7200" d="M20.472 45.732c-2.092-.542-3.22-1.954-3.22-4.032 0-1.326.29-2.287.964-3.195.603-.813.604-.776-.024-1.6-.814-1.066-2.108-4.033-2.503-5.736-.784-3.385-.333-7.598 1.156-10.779 2.21-4.722 6.944-8.435 11.922-9.35 1.582-.291 4.884-.291 6.467 0 2.905.534 5.957 2.128 8.248 4.308 3.36 3.197 5.136 7.263 5.186 11.875.031 2.905-.465 5.09-1.738 7.654l-.996 2.004.448.312c.247.171.973.827 1.613 1.456 2.688 2.644 1.994 5.607-1.594 6.802-.82.273-2.049.336-6.715.348-3.142.008-6.04-.008-6.44-.035s-3.297-.008-6.439.04c-3.141.05-5.992.017-6.335-.072m11.1-7.942c1.647-1.571 4.407-2.674 6.69-2.674 1.33 0 1.856-.235 2.878-1.286 1.844-1.896 3.057-4.023 3.85-6.748 1.185-4.078.511-6.34-2.9-9.731-2.146-2.135-3.899-3.148-6.644-3.84-3.282-.826-6.896-.4-10.093 1.19-2.326 1.157-5.047 3.923-6.193 6.294-1.09 2.256-1.485 3.967-1.489 6.454-.005 3.486 1.35 7.253 3.173 8.812 1.62 1.388 5.276 2.543 8.15 2.577l1.461.017zm-4.102-6.837c-.976-.909-1.362-2.046-1.453-4.283-.102-2.504.249-3.841 1.3-4.956 1.655-1.754 3.566-.193 4.075 3.328.456 3.154-.907 6.335-2.715 6.335-.47 0-.923-.159-1.207-.424m6.394-.206c-.907-.97-1.338-2.493-1.32-4.667.018-2.162.553-3.713 1.577-4.574 1.176-.99 2.303-.565 3.218 1.213.733 1.426.91 4.247.38 6.069-.7 2.412-2.553 3.353-3.855 1.96"/><path fill="#a17424" d="M20.472 45.732c-2.092-.542-3.22-1.954-3.22-4.032 0-1.326.29-2.287.964-3.195.603-.813.604-.776-.024-1.6-.814-1.066-2.108-4.033-2.503-5.736-.784-3.385-.333-7.598 1.156-10.779 2.21-4.722 6.944-8.435 11.922-9.35 1.582-.291 4.884-.291 6.467 0 2.905.534 5.957 2.128 8.248 4.308 3.36 3.197 5.136 7.263 5.186 11.875.031 2.905-.465 5.09-1.738 7.654l-.996 2.004.448.312c.247.171.973.827 1.613 1.456 2.688 2.644 1.994 5.607-1.594 6.802-.82.273-2.049.336-6.715.348-3.142.008-6.04-.008-6.44-.035s-3.297-.008-6.439.04c-3.141.05-5.992.017-6.335-.072m9.659-4.656c0-.93.907-2.686 1.787-3.459 2.325-2.04 6.456-2.875 10.42-2.104 1.75.34 1.66.4 2.722-1.765 1.03-2.097 1.362-3.649 1.355-6.318-.012-4.268-1.223-7.19-4.225-10.188-2.967-2.965-6.03-4.239-10.19-4.239-4.154 0-7.213 1.272-10.2 4.239-1.498 1.49-1.94 2.093-2.747 3.75-1.623 3.333-1.99 6.837-1.076 10.266.954 3.58 3.556 6.932 6.857 8.836 1.231.71 3.918 1.656 4.726 1.663.509.005.57-.07.57-.68M27.81 31.06c-.324-.176-.801-.801-1.143-1.498-.526-1.07-.588-1.414-.588-3.273 0-1.745.08-2.253.497-3.175 1.16-2.57 3.05-2.57 4.191 0 .397.894.49 1.464.496 3.071.011 2.358-.394 3.62-1.465 4.56-.8.702-1.169.76-1.989.315m6.563-.073c-1.446-.882-2.197-4.615-1.447-7.195.829-2.85 3.079-3.473 4.245-1.176 1.277 2.514.986 6.286-.614 7.969-.847.89-1.26.966-2.184.402"/><path fill="#1c160d" stroke="#1c160d" stroke-width=".8" d="M21.822 45.708c-.857-.084-1.896-.295-2.31-.47-.946-.398-1.744-1.432-2.083-2.7-.335-1.252-.004-3.015.752-4.006.29-.378.525-.783.525-.898s-.369-.799-.82-1.52c-1.452-2.316-2.503-5.963-2.503-8.684 0-1.645.599-4.54 1.275-6.165C19.317 14.879 25.14 10.972 32 10.972c6.653 0 12.263 3.612 15.08 9.709 1.058 2.29 1.4 3.971 1.394 6.853-.007 3.022-.458 4.905-1.82 7.607l-.928 1.84 1.228.834c1.49 1.011 2.152 1.862 2.47 3.17.312 1.291.136 1.956-.772 2.908-1.3 1.363-2.408 1.635-7.398 1.821-2.394.09-5.198.08-6.232-.02-1.034-.102-2.814-.141-3.956-.088-4.587.213-7.764.248-9.244.102zm5.494-2.034c-.108-.092-.758-.386-1.443-.653-1.547-.605-3.292-1.635-4.602-2.717-.55-.455-1.068-.826-1.153-.826-.32 0-.788 1.26-.788 2.124 0 1.098.426 1.753 1.307 2.008.818.236 6.954.295 6.68.064zm17.632-.245c2.799-.575 3.133-1.68 1.103-3.652-.911-.885-1.378-1.149-2.945-1.662-4.159-1.363-9.14-.41-10.379 1.986-.404.781-.399 2.275.01 2.858.176.252.62.552.986.667.818.255 9.788.098 11.225-.197zm-14.516-2.711c.473-2.38 2.55-4.157 5.796-4.955 1.426-.351 4.99-.323 6.366.05 1.373.372 1.508.29 2.45-1.488 1.217-2.293 1.602-3.994 1.586-6.999-.013-2.342-.088-2.92-.566-4.362-.781-2.354-1.88-4.119-3.683-5.918-1.832-1.827-3.253-2.716-5.757-3.6-1.69-.597-2.02-.643-4.624-.643s-2.934.046-4.624.643c-1 .353-2.354.957-3.006 1.342-1.6.941-4.136 3.513-5.098 5.166-3.68 6.328-2.153 14.503 3.551 19.02 2.033 1.61 5.298 3.023 6.773 2.93.564-.035.625-.121.836-1.186zm-2.718-10.06c-.238-.166-.652-.797-.92-1.401-.618-1.39-.676-4.297-.117-5.77.659-1.734 1.912-2.53 2.852-1.814 1.006.767 1.723 3.648 1.432 5.757-.391 2.838-1.802 4.24-3.247 3.229zm6.296-.314c-.81-.962-1.076-1.999-1.068-4.16.005-1.55.1-2.178.441-2.928 1.694-3.72 4.432-1.41 4.184 3.53-.093 1.834-.415 2.778-1.265 3.708-.634.694-1.637.628-2.292-.15z"/></svg>