<svg xmlns="http://www.w3.org/2000/svg" width="64" height="64" viewBox="0 0 16.933 16.933"><defs><linearGradient id="a" x1="7.937" x2="7.937" y1="15.081" y2="1.852" gradientUnits="userSpaceOnUse"><stop offset="0" stop-color="#f1efeb"/><stop offset="1" stop-color="#fdfcfc"/></linearGradient><linearGradient id="e" x1="3.439" x2="9.24" y1="9.749" y2="9.749" gradientUnits="userSpaceOnUse"><stop offset="0" stop-color="#dfa716"/><stop offset="1" stop-color="#e9c50c"/></linearGradient><linearGradient id="f" x1="11.56" x2="11.56" y1="12.069" y2="7.448" gradientUnits="userSpaceOnUse"><stop offset="0" stop-color="#daa011"/><stop offset="1" stop-color="#f0dd0f"/></linearGradient><linearGradient id="d" x1="4.6" x2="13.493" y1="9.555" y2="9.555" gradientUnits="userSpaceOnUse"><stop offset="0" stop-color="#704533"/><stop offset="1" stop-color="#9a6b44"/></linearGradient><linearGradient id="b" x1="5.116" x2="11.56" y1="4.573" y2="4.573" gradientUnits="userSpaceOnUse"><stop offset="0" stop-color="#8c8c8c"/><stop offset="1" stop-color="#8c8c8c"/></linearGradient><linearGradient id="c" x1="4.6" x2="5.76" y1="5.302" y2="5.302" gradientUnits="userSpaceOnUse"><stop offset="0" stop-color="#616161"/><stop offset="1" stop-color="#858585"/></linearGradient></defs><rect width="14.817" height="14.817" x="1.058" y="1.05" fill="url(#a)" rx="3.44" ry="3.44"/><g stroke-width=".387"><path fill="url(#b)" d="M11.174 3.562a.39.39 0 0 0-.369.272l-2.67.602-.022-.094-2.997.677.129.566 2.996-.677-.02-.094 2.67-.604a.4.4 0 0 0 .283.125.387.387 0 0 0 .387-.387.387.387 0 0 0-.387-.386"/><circle cx="5.18" cy="5.302" r=".58" fill="url(#c)"/><rect width=".387" height="1.547" x="4.986" y="5.108" fill="#8c8c8c" ry=".193"/><path fill="url(#d)" d="M4.793 5.882a.193.193 0 0 0-.193.193v.774h1.16v-.774a.193.193 0 0 0-.194-.193zm4.447.386-.387 3.48.387 3.48h3.48a.77.77 0 0 0 .773-.772V7.042a.77.77 0 0 0-.773-.774z"/><path fill="url(#e)" d="M4.213 6.269a.77.77 0 0 0-.773.773v5.414c0 .428.344.773.773.773H9.24v-6.96z"/><path fill="url(#f)" d="M11.367 7.429a.967.967 0 0 0-.967.966.967.967 0 0 0 .967.967.967.967 0 0 0 .967-.967.967.967 0 0 0-.967-.966m-.387.386a.193.193 0 0 1 .194.194.193.193 0 0 1-.194.193.193.193 0 0 1-.193-.193.193.193 0 0 1 .193-.194m-.386 2.32a.193.193 0 0 0-.194.194v.386c0 .108.087.194.194.194h.386a.193.193 0 0 0 .194-.194v-.386a.193.193 0 0 0-.194-.194zm1.16 0a.193.193 0 0 0-.194.194v.386c0 .108.087.194.194.194h.386a.193.193 0 0 0 .194-.194v-.386a.193.193 0 0 0-.194-.194zm-1.16 1.16a.193.193 0 0 0-.194.194v.387c0 .107.087.193.194.193h.386a.193.193 0 0 0 .194-.193v-.387a.193.193 0 0 0-.194-.194zm1.16 0a.193.193 0 0 0-.194.194v.387c0 .107.087.193.194.193h.386a.193.193 0 0 0 .194-.193v-.387a.193.193 0 0 0-.194-.194z"/><path fill="#7c5637" d="M6.34 7.429a1.74 1.74 0 0 0-1.089.386h2.182A1.74 1.74 0 0 0 6.34 7.43zm-1.445.773a1.7 1.7 0 0 0-.192.387H7.98a1.7 1.7 0 0 0-.193-.387zm-.282.773a2 2 0 0 0-.013.194 2 2 0 0 0 .013.193h3.453a2 2 0 0 0 .014-.193 2 2 0 0 0-.011-.194zm.09.774a1.7 1.7 0 0 0 .192.386h2.89a1.7 1.7 0 0 0 .191-.386zm.548.773a1.74 1.74 0 0 0 1.089.387 1.74 1.74 0 0 0 1.088-.387zm-.458 1.16a.193.193 0 0 0-.193.194v.386c0 .107.086.194.193.194h.58v-.194a.193.193 0 1 1 .387 0v.194h2.127a.193.193 0 0 0 .193-.194v-.386a.193.193 0 0 0-.193-.194z"/><path fill="#fff" d="M4.986 11.682v.773h.387v-.773zm.774 0v.773h.386v-.773zm.773 0v.773h.387v-.773zm.773 0v.773h.387v-.773z" opacity=".12"/></g></svg>