<svg xmlns="http://www.w3.org/2000/svg" xmlns:xlink="http://www.w3.org/1999/xlink" xml:space="preserve" viewBox="0 0 64 64"><defs><linearGradient id="c"><stop offset="0" style="stop-color:#78acc2;stop-opacity:.547207"/><stop offset="1" style="stop-color:#5296b0;stop-opacity:.57270926"/></linearGradient><linearGradient id="a" x1="7.937" x2="7.937" y1="15.081" y2="1.852" gradientTransform="scale(3.7796)" gradientUnits="userSpaceOnUse"><stop offset="0" stop-color="#6c6c6c" style="stop-color:#63452c;stop-opacity:1"/><stop offset="1" stop-color="#363636" style="stop-color:#865e3c;stop-opacity:1"/></linearGradient><linearGradient id="b" gradientUnits="userSpaceOnUse"><stop offset="0" stop-color="#fefefe"/><stop offset=".6" stop-color="#bbbab7"/><stop offset="1" stop-color="#5e5c64"/></linearGradient><linearGradient xlink:href="#a" id="e" x1="7.937" x2="7.937" y1="15.081" y2="1.852" gradientTransform="scale(3.7796)" gradientUnits="userSpaceOnUse"/><radialGradient xlink:href="#b" id="f" cx="183.217" cy="-92.152" r="3" gradientTransform="matrix(0 .57145 -.6032 0 -33.346 -102.462)"/><radialGradient xlink:href="#b" id="g" cx="183.217" cy="-92.152" r="3" gradientTransform="matrix(0 .57145 .6032 0 97.352 -102.462)"/><radialGradient xlink:href="#c" id="d" cx="28.337" cy="38.198" r="19.272" fx="28.337" fy="38.198" gradientTransform="matrix(1 0 0 .80671 .25 7.628)" gradientUnits="userSpaceOnUse"/></defs><rect width="56.002" height="56.002" x="4" y="3.969" fill="url(#a)" rx="13.002" ry="13.002" style="fill:#5c4029;fill-opacity:1"/><rect width="38.544" height="31.094" x="9.314" y="22.896" ry="2.604" style="fill:url(#d);fill-opacity:.547207;stroke-width:5.297;stroke-linecap:round;stroke-linejoin:round;paint-order:markers stroke fill"/><path d="M17.002 16.97A12.973 12.973 0 0 0 4 29.974V46.97a12.973 12.973 0 0 0 13.002 13H47a12.973 12.973 0 0 0 13.002-13.002V29.973A12.973 12.973 0 0 0 47 16.97zm11.416 7.173c12.612 0 14.126.55 15.135 1.101s2.523 1.103 2.523 13.227-1.514 12.675-2.523 13.226S41.03 52.8 28.418 52.8s-14.126-.55-15.135-1.102c-1.009-.55-2.521-1.102-2.521-13.226s1.512-12.676 2.521-13.227c1.01-.551 2.523-1.101 15.135-1.101" style="fill:url(#e)"/><path fill="#fff" d="M3.998 18.004v-1C3.998 9.801 9.798 4 17.002 4h29.996c7.203 0 13.004 5.8 13.004 13.004v1c0-7.203-5.8-13.002-13.004-13.002H17.002A12.975 12.975 0 0 0 3.998 18.004" opacity=".15"/><path d="M23.744 2.406 22.092 4.06l8.258 8.257L32 10.664Z" style="color:#000;fill:#b5b3af;-inkscape-stroke:none;fill-opacity:1"/><path fill="url(#f)" d="M22.784 4.398a1.752 1.752 0 1 1-.91-3.383 1.752 1.752 0 0 1 .91 3.383m0 0" style="fill:#7b797d;stroke-width:.583926;fill-opacity:1"/><path d="m41.088 3.233-8.257 8.257m7.431-9.084-8.256 8.258 1.65 1.652 8.258-8.257z" style="color:#000;fill:#b5b3af;-inkscape-stroke:none;fill-opacity:1"/><path fill="url(#g)" d="M41.223 4.398a1.752 1.752 0 1 0 .909-3.383 1.752 1.752 0 0 0-.91 3.383m0 0" style="fill:#7b797d;stroke-width:.583926;fill-opacity:1"/><path fill="#63452c" d="M30.835 7.642h2.336c.646 0 1.168.522 1.168 1.167v2.336c0 .646-.522 1.168-1.168 1.168h-2.336a1.167 1.167 0 0 1-1.168-1.168V8.81c0-.645.523-1.167 1.168-1.167m0 0" style="fill:#4a3421;fill-opacity:1;stroke-width:.583926"/><path fill="#63452c" d="M30.835 9.977h2.336c.646 0 1.168.523 1.168 1.168v2.336c0 .645-.522 1.168-1.168 1.168h-2.336a1.167 1.167 0 0 1-1.168-1.168v-2.336c0-.645.523-1.168 1.168-1.168m0 0" style="stroke-width:.583926;fill:#7f5939;fill-opacity:1"/><path d="M28.418 23.04c-16.648 0-17.152.551-17.656 1.103-.505.55-1.01 1.101-1.01 14.328s.505 13.777 1.01 14.328c.504.55 1.008 1.101 17.656 1.101s17.154-.55 17.658-1.101 1.008-1.102 1.008-14.328c0-13.227-.503-13.777-1.008-14.328-.504-.552-1.01-1.104-17.658-1.104m0 1.103c12.612 0 14.126.55 15.135 1.101s2.523 1.103 2.523 13.227-1.514 12.675-2.523 13.226S41.03 52.8 28.418 52.8s-14.126-.55-15.135-1.102c-1.009-.55-2.521-1.102-2.521-13.226s1.512-12.676 2.521-13.227c1.01-.551 2.523-1.101 15.135-1.101" style="fill:#422d1c;fill-opacity:.4619;stroke-width:.527279"/><path fill="#63452c" d="M49.226 38.977a3.504 3.504 0 0 1 7.007 0 3.504 3.504 0 0 1-7.007 0m0 0" style="stroke-width:.583926"/><path fill="#3f2d1d" d="M53.606 40.437a.585.585 0 0 1 1.168 0 .585.585 0 0 1-1.168 0m0 0" style="stroke-width:.583926"/><path fill="#63452c" d="M56.233 28.466a3.504 3.504 0 0 0-7.007 0 3.504 3.504 0 0 0 7.007 0m0 0" style="stroke-width:.583926"/><path fill="#3f2d1d" d="M51.854 29.926a.585.585 0 0 0-1.168 0 .585.585 0 0 0 1.168 0m3.211 23.53h-4.67a1.167 1.167 0 1 1 0-2.336h4.67a1.167 1.167 0 1 1 0 2.336m0-3.504h-4.67a1.167 1.167 0 1 1 0-2.336h4.67a1.167 1.167 0 1 1 0 2.336m0-3.503h-4.67a1.167 1.167 0 1 1 0-2.336h4.67a1.167 1.167 0 1 1 0 2.336m0 0" style="stroke-width:.583926"/><path d="M3.998 45.998v1c0 7.203 5.8 13.004 13.004 13.004h29.996c7.203 0 13.004-5.8 13.004-13.004v-1c0 7.203-5.8 13.002-13.004 13.002H17.002A12.975 12.975 0 0 1 3.998 45.998" opacity=".35" style="opacity:.15"/></svg>