<svg xmlns="http://www.w3.org/2000/svg" xmlns:xlink="http://www.w3.org/1999/xlink" xml:space="preserve" width="64" height="64"><defs><linearGradient id="b"><stop offset="0" style="stop-color:#b5f3f7;stop-opacity:1"/><stop offset="1" style="stop-color:#dafafe;stop-opacity:1"/></linearGradient><linearGradient id="a"><stop offset="0" style="stop-color:#43cdd8;stop-opacity:1"/><stop offset="1" style="stop-color:#a1f6fc;stop-opacity:1"/></linearGradient><linearGradient xlink:href="#a" id="c" x1="33.386" x2="33.386" y1="28.318" y2="15.455" gradientTransform="matrix(1.45696 0 0 1.7612 -16.492 -16.871)" gradientUnits="userSpaceOnUse"/><linearGradient xlink:href="#a" id="e" x1="33.386" x2="33.386" y1="28.318" y2="15.455" gradientTransform="matrix(1.08967 0 0 1.31721 -4.322 -6.705)" gradientUnits="userSpaceOnUse"/><linearGradient xlink:href="#b" id="d" x1="32.045" x2="32.045" y1="26.472" y2="13.29" gradientUnits="userSpaceOnUse"/></defs><rect width="56" height="56" x="3.864" y="4.318" fill="url(#linearGradient862-3)" rx="13" ry="13" style="fill:#ffdc6f;stroke:#000;stroke-opacity:1;fill-opacity:1"/><path d="M4.5 24.042h54.994v13.114H4.5z" style="fill:#fff;stroke:none;stroke-width:.708006;stroke-opacity:1"/><ellipse cx="32.151" cy="21.675" rx="9.371" ry="9.647" style="fill:url(#c);stroke:none;stroke-width:1.01559;stroke-opacity:1"/><ellipse cx="32.045" cy="19.881" rx="6.591" ry="6.545" style="fill:url(#d);fill-opacity:1;stroke:none;stroke-width:.753978;stroke-opacity:1"/><ellipse cx="32.058" cy="22.124" rx="7.009" ry="7.215" style="fill:url(#e);stroke:none;stroke-width:.759565;stroke-opacity:1"/><path d="M29.974 43.398c-1.046-.898-1.048-.912-1.168-6.27l-.12-5.369-1.682-.892c-7.392-3.922-7.095-14.832.505-18.55 5.057-2.475 11.444-.79 13.759 4.414.801 1.8 1.101 2.366 1.101 4.975 0 2.61-.14 3.239-1.101 4.975-1.097 1.98-2.92 3.726-4.777 4.571l-.977.445-.12 5.4c-.12 5.392-.122 5.402-1.168 6.301-.584.502-1.525.9-2.126.9s-1.542-.398-2.126-.9m6.257-13.57c6.427-3.259 6.794-11.991.674-16.04-1.818-1.204-5.682-1.616-7.994-.853-1.778.587-4.108 2.691-5.136 4.638-1.13 2.142-1.12 6.143.022 8.308a9.276 9.276 0 0 0 12.434 3.947" style="fill:#000;stroke-width:1.1842"/></svg>