<svg xmlns="http://www.w3.org/2000/svg" xmlns:xlink="http://www.w3.org/1999/xlink" viewBox="0 0 64 64"><defs><linearGradient id="a" gradientUnits="userSpaceOnUse"><stop offset="0" stop-color="#deddda" style="stop-color:#000;stop-opacity:1"/><stop offset=".5" stop-color="#f6f5f4"/><stop offset="1" stop-color="#c0bfbc"/></linearGradient><linearGradient id="c" x1="7.937" x2="7.937" y1="15.081" y2="1.852" gradientTransform="scale(3.7796)" gradientUnits="userSpaceOnUse"><stop offset="0" stop-color="#b81e31"/><stop offset="1" stop-color="#ff5c5c"/></linearGradient><linearGradient id="d" x1="8" x2="120.384" y1="116" y2="116" gradientTransform="translate(5.579 1.845)scale(.41164)" gradientUnits="userSpaceOnUse"><stop offset="0" stop-color="#9a9996"/><stop offset=".036" stop-color="#deddda"/><stop offset=".071" stop-color="#77767b"/><stop offset=".929" stop-color="#c0bfbc"/><stop offset=".964" stop-color="#deddda"/><stop offset="1" stop-color="#9a9996"/></linearGradient><linearGradient xlink:href="#a" id="e" x1="64" x2="64" y1="28" y2="112" gradientTransform="translate(5.579 1.845)scale(.41164)"/><linearGradient id="b" gradientUnits="userSpaceOnUse"><stop offset="0" stop-color="#deddda"/><stop offset=".5" stop-color="#f6f5f4"/><stop offset="1" stop-color="#c0bfbc"/></linearGradient><linearGradient id="f" x1="48" x2="48" y1="40" y2="72" gradientTransform="translate(5.579 1.845)scale(.41164)" gradientUnits="userSpaceOnUse"><stop offset="0" stop-color="#3d3846"/><stop offset=".5" stop-color="#5e5c64"/><stop offset=".75" stop-color="#3d3846"/><stop offset="1" stop-color="#241f31"/></linearGradient><linearGradient xlink:href="#b" id="g" x1="64" x2="64" y1="28" y2="112" gradientTransform="translate(5.579 1.845)scale(.41164)"/><linearGradient id="h" x1="64" x2="64" y1="96" y2="84" gradientTransform="translate(5.579 1.845)scale(.41164)" gradientUnits="userSpaceOnUse"><stop offset="0" stop-color="#ed333b"/><stop offset="1" stop-color="#f66151"/></linearGradient></defs><rect width="56.002" height="56.002" x="4" y="3.969" fill="url(#c)" rx="13.002" ry="13.002" style="fill:#ed4d51;fill-opacity:1"/><path fill="url(#d)" d="M54.976 44.656v1.646a3.285 3.285 0 0 1-3.294 3.293H12.165a3.285 3.285 0 0 1-3.293-3.293v-1.646zm0 0" style="fill:#959496;stroke-width:.411638;fill-opacity:1" transform="translate(-.003 -.307)"/><path fill="url(#e)" d="M12.165 13.371H38.51c1.825 0 2.516 1.642 3.293 3.293l13.173 27.992c.776 1.651-1.469 3.293-3.294 3.293H12.165a3.285 3.285 0 0 1-3.293-3.293V16.664a3.285 3.285 0 0 1 3.293-3.293m0 0" style="fill:#ebeae8;stroke-width:.411638;fill-opacity:1" transform="translate(-.003 -.307)"/><path fill="#5e5c64" d="m25.338 46.302.823 3.293H12.165a3.285 3.285 0 0 1-3.293-3.293zm0 0" style="stroke-width:.411638" transform="translate(-.003 -.307)"/><path fill="#9a9996" d="M11.342 44.656h11.526c.455 0 .823.368.823.823v1.647a.823.823 0 0 1-.823.823H11.342a.823.823 0 0 1-.823-.823v-1.647c0-.455.368-.823.823-.823m0 0" style="stroke-width:.411638" transform="translate(-.003 -.307)"/><path fill="#241f31" d="M22.045 46.302c0 2.73-2.211 4.94-4.94 4.94a4.94 4.94 0 0 1-4.94-4.94 4.94 4.94 0 1 1 9.88 0m0 0" style="stroke-width:.411638" transform="translate(-.003 -.307)"/><path fill="#3d3846" d="M22.045 45.48a4.94 4.94 0 0 1-4.94 4.939 4.94 4.94 0 0 1-4.94-4.94c0-2.729 2.211-4.94 4.94-4.94s4.94 2.211 4.94 4.94m0 0" style="stroke-width:.411638" transform="translate(-.003 -.307)"/><path fill="#5e5c64" d="M20.81 45.48a3.706 3.706 0 0 1-7.41 0 3.706 3.706 0 0 1 7.41 0m0 0" style="stroke-width:.411638" transform="translate(-.003 -.307)"/><path fill-opacity=".2" d="M8.872 45.48v.822c0 .285.04.56.106.824h16.565l-.205-.824zm0 0" style="stroke-width:.411638" transform="translate(-.003 -.307)"/><path fill="url(#f)" d="M8.872 18.311h27.991c1.01 0 1.932.57 2.383 1.473L44.36 30.01a1.018 1.018 0 0 1-.91 1.473H8.872Zm0 0" style="fill:#54525b;stroke-width:.411638;fill-opacity:1" transform="translate(-.003 -.307)"/><path fill="url(#g)" d="M8.872 39.716h16.466v6.586H8.872Zm0 0" style="fill:#ebeae8;stroke-width:.411638;fill-opacity:1" transform="translate(-.003 -.307)"/><path fill="url(#h)" d="M8.872 36.423v4.94h44.553l-2.325-4.94Zm0 0" style="fill:#f35149;stroke-width:.411638;fill-opacity:1" transform="translate(-.003 -.307)"/><path d="M3.998 45.998v1c0 7.203 5.8 13.004 13.004 13.004h29.996c7.203 0 13.004-5.8 13.004-13.004v-1c0 7.203-5.8 13.002-13.004 13.002H17.002A12.975 12.975 0 0 1 3.998 45.998" opacity=".35" style="opacity:.15"/><path fill="#fff" d="M3.998 18.004v-1C3.998 9.801 9.798 4 17.002 4h29.996c7.203 0 13.004 5.8 13.004 13.004v1c0-7.203-5.8-13.002-13.004-13.002H17.002A12.975 12.975 0 0 0 3.998 18.004" opacity=".15"/></svg>