<svg xmlns="http://www.w3.org/2000/svg" xmlns:xlink="http://www.w3.org/1999/xlink" viewBox="0 0 64 64"><defs><linearGradient id="c" x1="7.937" x2="7.937" y1="15.081" y2="1.852" gradientTransform="scale(3.7796)" gradientUnits="userSpaceOnUse"><stop offset="0" stop-color="#f1efeb" style="stop-color:#6d1218;stop-opacity:1"/><stop offset="1" stop-color="#fdfcfc" style="stop-color:#e22027;stop-opacity:1"/></linearGradient><linearGradient id="d" x1="64" x2="64" y1="200" y2="284" gradientTransform="matrix(.82143 0 0 1.04762 11.429 -181.525)" gradientUnits="userSpaceOnUse"><stop offset="0" stop-color="#e01b24"/><stop offset=".5" stop-color="#f66151"/><stop offset="1" stop-color="#c01c28"/></linearGradient><linearGradient xlink:href="#a" id="e" x1="112" x2="112" y1="192" y2="292" gradientTransform="matrix(.375 0 0 1.04 75 -179.68)"/><linearGradient id="a" gradientUnits="userSpaceOnUse"><stop offset="0" stop-color="#deddda"/><stop offset=".5" stop-color="#f6f5f4"/><stop offset="1" stop-color="#9a9996"/></linearGradient><linearGradient xlink:href="#b" id="f" x1="112" x2="112" y1="187.652" y2="296.348" gradientTransform="matrix(.25 0 0 .96 84 -160.32)"/><linearGradient id="b" gradientUnits="userSpaceOnUse"><stop offset="0" stop-color="#deddda"/><stop offset=".5" stop-color="#f6f5f4"/><stop offset="1" stop-color="#c0bfbc"/></linearGradient><linearGradient xlink:href="#a" id="g" x1="112" x2="112" y1="192" y2="292" gradientTransform="matrix(.375 0 0 1.04 -31 -179.68)"/><linearGradient xlink:href="#b" id="h" x1="112" x2="112" y1="187.652" y2="296.348" gradientTransform="matrix(.25 0 0 .96 -12 -160.32)"/></defs><rect width="56.002" height="56.002" x="4" y="3.969" fill="url(#c)" rx="13.002" ry="13.002" style="fill:#aa1920;fill-opacity:1"/><path fill="url(#d)" d="M18 28h92v88H18Zm0 0" style="fill:#f25449;fill-opacity:1" transform="translate(7.073 3.926)scale(.3895)"/><path fill-opacity=".2" d="M14.084 48.328h35.834v.78H14.084Zm0 0"/><path fill="#fff" fill-opacity=".2" d="M14.084 14.832h35.834v.779H14.084Zm0 0"/><path fill="#deddda" d="M53.034 45.991h1.558c.432 0 .779.347.779.78v1.557a.777.777 0 0 1-.78.78h-1.557a.777.777 0 0 1-.78-.78V46.77c0-.432.348-.779.78-.779m0-7.79h1.558c.432 0 .779.347.779.78v1.558a.777.777 0 0 1-.78.779h-1.557a.777.777 0 0 1-.78-.78v-1.557c0-.433.348-.78.78-.78m0-7.79h1.558c.432 0 .779.348.779.78v1.558a.777.777 0 0 1-.78.779h-1.557a.777.777 0 0 1-.78-.78v-1.557c0-.432.348-.78.78-.78m0-7.79h1.558c.432 0 .779.348.779.78v1.558a.777.777 0 0 1-.78.779h-1.557a.777.777 0 0 1-.78-.78v-1.557c0-.432.348-.78.78-.78m0-7.79h1.558c.432 0 .779.348.779.78v1.558a.777.777 0 0 1-.78.779h-1.557a.777.777 0 0 1-.78-.78v-1.557c0-.432.348-.78.78-.78m0 0"/><path fill="#c0bfbc" d="M53.034 14.832a.777.777 0 0 0-.78.779v1.558c0 .432.348.779.78.779h1.558q.101 0 .195-.028a.775.775 0 0 1-.585-.751V15.61c0-.364.248-.665.585-.752a.7.7 0 0 0-.195-.027Zm0 7.79a.777.777 0 0 0-.78.779v1.558c0 .432.348.779.78.779h1.558q.101-.001.195-.028a.775.775 0 0 1-.585-.751V23.4c0-.364.248-.665.585-.752a.7.7 0 0 0-.195-.027Zm0 7.79a.777.777 0 0 0-.78.779v1.558c0 .432.348.779.78.779h1.558q.101-.001.195-.028a.775.775 0 0 1-.585-.751V31.19c0-.364.248-.665.585-.752a.7.7 0 0 0-.195-.027Zm0 7.79a.777.777 0 0 0-.78.779v1.558c0 .432.348.779.78.779h1.558q.101-.001.195-.028a.775.775 0 0 1-.585-.751V38.98c0-.364.248-.665.585-.752a.7.7 0 0 0-.195-.027Zm0 7.79a.777.777 0 0 0-.78.778v1.558c0 .433.348.78.78.78h1.558q.101-.001.195-.028a.775.775 0 0 1-.585-.752V46.77c0-.363.248-.664.585-.751a.7.7 0 0 0-.195-.028Zm0 0"/><path fill="url(#e)" d="M114 20h6v104h-6zm0 0" style="fill:#f2f1f0;fill-opacity:1" transform="translate(7.073 3.926)scale(.3895)"/><path fill="url(#f)" d="M110 24h4v96h-4zm0 0" style="fill:url(#f)" transform="translate(7.073 3.926)scale(.3895)"/><path fill="#77767b" fill-opacity=".502" d="M49.918 13.274h1.558v37.391h-1.558zm0 0"/><path fill="#fff" fill-opacity=".502" d="M49.918 13.274h.779v37.391h-.78zm0 0"/><path fill="#deddda" d="M9.41 45.991h1.558c.432 0 .78.347.78.78v1.557a.777.777 0 0 1-.78.78H9.41a.777.777 0 0 1-.779-.78V46.77c0-.432.347-.779.78-.779m0-7.79h1.558c.432 0 .78.347.78.78v1.558a.777.777 0 0 1-.78.779H9.41a.777.777 0 0 1-.779-.78v-1.557c0-.433.347-.78.78-.78m0-7.79h1.558c.432 0 .78.348.78.78v1.558a.777.777 0 0 1-.78.779H9.41a.777.777 0 0 1-.779-.78v-1.557c0-.432.347-.78.78-.78m0-7.79h1.558c.432 0 .78.348.78.78v1.558a.777.777 0 0 1-.78.779H9.41a.777.777 0 0 1-.779-.78v-1.557c0-.432.347-.78.78-.78m0-7.79h1.558c.432 0 .78.348.78.78v1.558a.777.777 0 0 1-.78.779H9.41a.777.777 0 0 1-.779-.78v-1.557c0-.432.347-.78.78-.78m0 0"/><path fill="#c0bfbc" d="M9.41 14.832a.7.7 0 0 0-.195.027.775.775 0 0 1 .585.752v1.558a.775.775 0 0 1-.585.751.7.7 0 0 0 .195.028h1.558a.777.777 0 0 0 .78-.78v-1.557a.777.777 0 0 0-.78-.78zm0 7.79a.7.7 0 0 0-.195.027.775.775 0 0 1 .585.752v1.558a.775.775 0 0 1-.585.751.7.7 0 0 0 .195.028h1.558a.777.777 0 0 0 .78-.78v-1.557a.777.777 0 0 0-.78-.78zm0 7.79a.7.7 0 0 0-.195.027.775.775 0 0 1 .585.752v1.558a.775.775 0 0 1-.585.751.7.7 0 0 0 .195.028h1.558a.777.777 0 0 0 .78-.78v-1.557a.777.777 0 0 0-.78-.78zm0 7.79a.7.7 0 0 0-.195.027.775.775 0 0 1 .585.752v1.558a.775.775 0 0 1-.585.751.7.7 0 0 0 .195.028h1.558a.777.777 0 0 0 .78-.78v-1.557a.777.777 0 0 0-.78-.78zm0 7.79a.7.7 0 0 0-.195.027.775.775 0 0 1 .585.751v1.558a.775.775 0 0 1-.585.752.7.7 0 0 0 .195.027h1.558a.777.777 0 0 0 .78-.779V46.77a.777.777 0 0 0-.78-.779zm0 0"/><path fill="url(#g)" d="M8 20h6v104H8Zm0 0" style="fill:#f2f1f0;fill-opacity:1" transform="translate(7.073 3.926)scale(.3895)"/><path fill="url(#h)" d="M14 24h4v96h-4zm0 0" style="fill:url(#h)" transform="translate(7.073 3.926)scale(.3895)"/><path fill="#77767b" fill-opacity=".502" d="M12.526 13.274h1.558v37.391h-1.558zm0 0"/><path fill="#fff" fill-opacity=".502" d="M13.305 13.274h.78v37.391h-.78zm0 0"/><path fill="#f6f5f4" d="M27.327 27.296v9.348a.904.904 0 0 0 1.353.785l8.2-4.686a.891.891 0 0 0 0-1.546l-8.2-4.686a.905.905 0 0 0-1.353.785m0 0"/><path d="M3.998 45.998v1c0 7.203 5.8 13.004 13.004 13.004h29.996c7.203 0 13.004-5.8 13.004-13.004v-1c0 7.203-5.8 13.002-13.004 13.002H17.002A12.975 12.975 0 0 1 3.998 45.998" opacity=".35" style="opacity:.15"/><path fill="#fff" d="M3.998 18.004v-1C3.998 9.801 9.798 4 17.002 4h29.996c7.203 0 13.004 5.8 13.004 13.004v1c0-7.203-5.8-13.002-13.004-13.002H17.002A12.975 12.975 0 0 0 3.998 18.004" opacity=".15"/></svg>