<svg xmlns="http://www.w3.org/2000/svg" viewBox="0 0 64 64"><defs><linearGradient id="a" x1="30.644" x2="30.644" y1="55.754" y2="14.754" gradientUnits="userSpaceOnUse"><stop offset="0" stop-color="#389bff"/><stop offset="1" stop-color="#38deff"/></linearGradient></defs><rect width="56.002" height="56.002" x="4" y="3.969" fill="#f2f2f2" rx="13.002" ry="13.002"/><path d="M3.998 45.998v1c0 7.203 5.8 13.004 13.004 13.004h29.996c7.203 0 13.004-5.8 13.004-13.004v-1c0 7.203-5.8 13.002-13.004 13.002H17.002A12.975 12.975 0 0 1 3.998 45.998" opacity=".1"/><path fill="#fff" d="M3.998 18.004v-1C3.998 9.801 9.798 4 17.002 4h29.996c7.203 0 13.004 5.8 13.004 13.004v1c0-7.203-5.8-13.002-13.004-13.002H17.002A12.975 12.975 0 0 0 3.998 18.004" opacity=".5"/><path fill="url(#a)" d="M41.644 47.754h1.002a4.99 4.99 0 0 0 4.998-4.994V19.748a5 5 0 0 0-4.998-4.994H18.641a4.99 4.99 0 0 0-4.998 4.994V42.76a5 5 0 0 0 4.998 4.994h13.12l9.882 8z" style="fill:#38c2ff;fill-opacity:1" transform="translate(1.356 -1.754)"/><path fill="#fffeff" d="m42.009 37.056-3.285 3.286L32 33.618l-6.724 6.724-3.285-3.286 5.818-5.818L20 26.73l2.323-4.024 7.412 4.279V18h4.647v8.918l7.295-4.212L44 26.73l-7.809 4.508z"/></svg>