<svg xmlns="http://www.w3.org/2000/svg" image-rendering="optimizeSpeed" viewBox="0 0 64 64"><rect width="56.002" height="56.002" x="4" y="3.969" fill="#4d4d4d" rx="13.002" ry="13.002"/><circle cx="32.02" cy="32.044" r="30.001" fill="none"/><path d="M3.998 45.998v1c0 7.203 5.8 13.004 13.004 13.004h29.996c7.203 0 13.004-5.8 13.004-13.004v-1c0 7.203-5.8 13.002-13.004 13.002H17.002A12.975 12.975 0 0 1 3.998 45.998" opacity=".35"/><path fill="#fff" d="M3.998 18.004v-1C3.998 9.801 9.798 4 17.002 4h29.996c7.203 0 13.004 5.8 13.004 13.004v1c0-7.203-5.8-13.002-13.004-13.002H17.002A12.975 12.975 0 0 0 3.998 18.004" opacity=".15"/><path d="M35.147 16.116c-3.307.427-6.861 2.036-9.752 6.798-6.61 10.882-6.141 14.67-7.195 15.893-1.057 1.22-3.907 1.88-3.495 3.266.412 1.38.828 1.203.828 1.203s4.162 6.028 16.232 4.465 13.742-4.11 13.633-5.374c-.11-1.266-2.656-2.189-2.656-2.189s-1.886-6.646-1.402-9.374c.484-2.73 2.323-6.708 4.14-7.564 1.813-.865 2.72 2.89 3.657 1.964.933-.927-1.573-8.081-4.344-8.137-1.552-.031-5.413-1.495-9.647-.943m.01 9.132.922 2.724 2.798.792-2.365 1.683.104 2.86-2.364-1.682-2.787.973.896-2.693-1.797-2.26 2.937-.028m-7.788 5.637.1 1.974 1.765 1.057-1.907.689-.479 1.953-1.298-1.521-2.03.13L22.95 35.9l-.776-1.85 1.97.51m9.443-.885 1.891 2.531 3.194-.125-1.855 2.563 1.088 2.918-3.063-.948-2.516 1.943-.022-3.146-2.65-1.73 3.036-.994" style="fill:#fff"/></svg>