<svg xmlns="http://www.w3.org/2000/svg" image-rendering="optimizeSpeed" viewBox="0 0 64 64"><defs><linearGradient id="a" x1="148.93" x2="155.51" y1="873.19" y2="886.31" gradientTransform="translate(-80.154 -572.72)scale(.67334)" gradientUnits="userSpaceOnUse"><stop offset="0" stop-color="#e6b793"/><stop offset="1" stop-color="#ea9f68"/></linearGradient><linearGradient id="b" x1="58.184" x2="64.173" y1="992.95" y2="979.05" gradientTransform="translate(-.312 -644.86)scale(.67334)" gradientUnits="userSpaceOnUse"><stop offset="0" stop-color="#da9e61"/><stop offset="1" stop-color="#ffc08d"/></linearGradient><linearGradient id="c" x1="54.138" x2="57.452" y1="1022.3" y2="1020.6" gradientTransform="translate(-.312 -644.86)scale(.67334)" gradientUnits="userSpaceOnUse"><stop offset="0" stop-color="#894e24"/><stop offset="1" stop-color="#75411b"/></linearGradient><linearGradient id="d" x1="69.802" x2="65.326" y1="1014" y2="1001.7" gradientTransform="translate(-.312 -644.86)scale(.67334)" gradientUnits="userSpaceOnUse"><stop offset="0" stop-color="#cd7b3c"/><stop offset="1" stop-color="#d99663"/></linearGradient><linearGradient id="e" x1="38.672" x2="44.922" y1="1020.1" y2="1022.7" gradientTransform="translate(-.312 -644.86)scale(.67334)" gradientUnits="userSpaceOnUse"><stop offset="0" stop-color="#552c0f"/><stop offset="1" stop-color="#783e16"/></linearGradient><linearGradient id="f" x1="26.575" x2="35.322" y1="1014.5" y2="1002.5" gradientTransform="translate(-.312 -644.86)scale(.67334)" gradientUnits="userSpaceOnUse"><stop offset="0" stop-color="#d38755"/><stop offset="1" stop-color="#dda375"/></linearGradient></defs><rect width="56" height="56" x="4" y="4" fill="#4d4d4d" rx="13.002" ry="13.002"/><path fill="#925c36" d="m31.921 19.649 12.469 7.718-12.384 7.769-12.53-7.77z"/><path fill="url(#a)" d="m11.011 20.375 12.469-7.718 8.468 6.972-12.466 7.737z"/><path fill="url(#b)" d="m31.93 19.64 12.495 7.734 8.532-6.94-12.53-7.769z"/><path fill="#894e24" d="M31.921 19.649v13.244l-12.385 7.77-.06-13.297z"/><path fill="#783e16" d="M31.921 19.649v13.244l12.385 7.77.06-13.297z"/><path fill="url(#c)" d="M44.365 27.36v15.03l-12.388 7.78-.057-15.091z"/><path fill="url(#d)" d="m32.012 35.09 12.469-7.718 8.532 6.94-12.53 7.769z"/><path fill="url(#e)" d="M19.476 27.36v15.03l12.502 7.78-.057-15.092z"/><path fill="url(#f)" d="m11.011 34.354 12.469 7.718 8.532-6.94-12.53-7.769z"/><path fill="#fbdf45" d="m19.467 27.356 12.503 7.748 12.477-7.725-12.53-7.745z" opacity=".7"/><path fill="#fbdf45" d="m19.467 23.856 12.503 7.748 12.477-7.725-12.53-7.745z" opacity=".7"/><path fill="#fbdf45" d="m19.47 23.859.027 3.533L32.02 35.13l12.428-7.738.005-3.517-12.485 7.73z" opacity=".35"/><path d="M3.998 45.998v1c0 7.203 5.8 13.004 13.004 13.004h29.996c7.203 0 13.004-5.8 13.004-13.004v-1c0 7.203-5.8 13.002-13.004 13.002H17.002A12.975 12.975 0 0 1 3.998 45.998" opacity=".35"/><path fill="#fff" d="M3.998 18.004v-1C3.998 9.801 9.798 4 17.002 4h29.996c7.203 0 13.004 5.8 13.004 13.004v1c0-7.203-5.8-13.002-13.004-13.002H17.002A12.975 12.975 0 0 0 3.998 18.004" opacity=".15"/></svg>