<svg xmlns="http://www.w3.org/2000/svg" viewBox="0 0 64 64"><rect width="56.002" height="56.002" x="4" y="3.969" fill="#f2f2f2" rx="13.002" ry="13.002"/><path d="M3.998 45.998v1c0 7.203 5.8 13.004 13.004 13.004h29.996c7.203 0 13.004-5.8 13.004-13.004v-1c0 7.203-5.8 13.002-13.004 13.002H17.002A12.975 12.975 0 0 1 3.998 45.998" opacity=".1"/><path fill="#fff" d="M3.998 18.004v-1C3.998 9.801 9.798 4 17.002 4h29.996c7.203 0 13.004 5.8 13.004 13.004v1c0-7.203-5.8-13.002-13.004-13.002H17.002A12.975 12.975 0 0 0 3.998 18.004" opacity=".5"/><path fill="#f9ba18" d="M38.52 31.999c0 3.6-2.922 6.521-6.521 6.521S25.477 35.6 25.477 32s2.922-6.521 6.522-6.521S38.52 28.4 38.52 32"/><path fill="#174575" d="m17.152 15.043-2.11 2.11 9.66 9.689c1.62-2.288 4.28-3.79 7.297-3.79a8.9 8.9 0 0 1 3.29.652l2.237-2.232a11.7 11.7 0 0 0-5.527-1.4c-2.751 0-5.279.951-7.297 2.516m22.143-7.545-9.69 9.624A8.95 8.95 0 0 1 40.942 32a8.9 8.9 0 0 1-.652 3.322l2.237 2.237c.887-1.66 1.4-3.547 1.4-5.56 0-2.75-.952-5.278-2.517-7.295l7.546-7.546-2.115-2.114M21.473 26.44a11.7 11.7 0 0 0-1.4 5.559c0 2.75.952 5.278 2.517 7.296l-7.546 7.546 2.11 2.114 9.63-9.69a8.94 8.94 0 0 1-3.73-7.27 9 9 0 0 1 .652-3.322m15.59 8.483A8.92 8.92 0 0 1 32 40.941a8.9 8.9 0 0 1-3.383-.682l-2.237 2.237A11.76 11.76 0 0 0 32 43.923c2.75 0 5.278-.948 7.296-2.512l7.546 7.545 2.114-2.114-9.66-9.69"/></svg>