<svg xmlns="http://www.w3.org/2000/svg" image-rendering="optimizeSpeed" viewBox="0 0 64 64"><rect width="56.002" height="56.002" x="4" y="3.969" fill="#fde8c7" rx="13.002" ry="13.002"/><path fill="#c4762f" d="M43.176 37.807c0 6-4 9-9 9s-9-3-9-9c0-7 4.828-19 9-19s9 12 9 19" style="paint-order:normal" transform="translate(-18.22 -16.238)scale(1.4483)"/><path fill="#f0c551" d="M34.176 19.806c-3.531 0-8 11-8 18 0 5 3.172 8 8 8 1.614 0 3.037-.341 4.225-.975 1.57-2.384 2.775-5.084 2.775-8.025.574 1.303.298 3.514-.309 5.799.843-1.271 1.309-2.888 1.309-4.799 0-7-4.469-18-8-18m-1.5 2s-.5 3.433-.5 5c0 2.028 1 5 1 6 0 1.484-1.5 4-1.5 4s.5-1.766.5-4c0-1-1-3.61-1-6 0-1.7 1.5-5 1.5-5m3.5 0s3 4.285 3 9c0 2-.358 3.593-1 5v-5c0-3.625-1-6-2-9m-7 6v3c0 2-.293 3.777-1 6v-4c0-1.7 1-5 1-5" style="paint-order:normal" transform="translate(-18.22 -16.238)scale(1.4483)"/><path fill="#403b3c" d="M29.676 38.806c-.828 0-1.5.895-1.5 2 .544-1 1.085-1 1.5-1s.926 0 1.5 1c0-1.105-.672-2-1.5-2m8 0c-.828 0-1.5.895-1.5 2 .544-1 1.085-1 1.5-1s.926 0 1.5 1c0-1.105-.672-2-1.5-2m-5 3a.5.5 0 0 0-.5.5c0 .831.669 1.5 1.5 1.5s1.5-.669 1.5-1.5a.5.5 0 0 0-.5-.5.5.5 0 0 0-.5.5.499.499 0 1 1-1 0 .5.5 0 0 0-.5-.5" style="paint-order:normal" transform="translate(-18.22 -16.238)scale(1.4483)"/><path d="M3.998 45.998v1c0 7.203 5.8 13.004 13.004 13.004h29.996c7.203 0 13.004-5.8 13.004-13.004v-1c0 7.203-5.8 13.002-13.004 13.002H17.002A12.975 12.975 0 0 1 3.998 45.998" opacity=".15"/><path fill="#fff" d="M3.998 18.004v-1C3.998 9.801 9.798 4 17.002 4h29.996c7.203 0 13.004 5.8 13.004 13.004v1c0-7.203-5.8-13.002-13.004-13.002H17.002A12.975 12.975 0 0 0 3.998 18.004" opacity=".35"/></svg>