<svg xmlns="http://www.w3.org/2000/svg" width="64" height="64"><defs><linearGradient id="a" x1="7.937" x2="7.937" y1="15.081" y2="1.852" gradientTransform="scale(3.7796)" gradientUnits="userSpaceOnUse"><stop offset="0" stop-color="#363636"/><stop offset="1" stop-color="#6c6c6c"/></linearGradient></defs><rect width="56.002" height="56.002" x="4" y="3.969" fill="url(#a)" rx="13.002" ry="13.002"/><path fill="#fff" d="M24.842 13.001c-1.587-.03-3.149.699-3.917 1.883l-.32.496-.062-.464c-.034-.255-.091-.71-.126-1.01l-.063-.547h-2.078v14.067h2.266l.042-4.586c.033-3.856.065-4.68.197-5.183.429-1.638 1.394-2.527 2.88-2.651 1.201-.1 2.165.353 2.613 1.23.42.824.459 1.356.46 6.414l.001 4.777h2.394l-.043-5.11c-.036-4.352-.066-5.214-.204-5.821-.461-2.038-1.54-3.14-3.36-3.434a5 5 0 0 0-.68-.061m10.735.257.094.217c.051.12 1.14 2.905 2.42 6.19l2.325 5.973-.336.838c-.768 1.92-1.172 2.278-2.664 2.355l-.89.048v1.685h1.083c1.465 0 2.13-.203 2.863-.873.656-.6 1.137-1.557 2.125-4.224a1577 1577 0 0 1 4.643-12.085c.036-.09-.21-.118-1.047-.118h-1.094l-.093.261c-.425 1.188-3.473 9.406-3.514 9.472-.029.047-.872-2.113-1.874-4.8l-1.824-4.886-1.109-.026zm6.189 18.92c-.046 0-.58.22-1.189.487l-1.105.487v3.685h-3.801v1.805h3.801l.004 4.254c.004 4.479.06 5.244.448 6.123a2.87 2.87 0 0 0 1.346 1.405c.46.232.744.314 1.767.516.105.02 1.056.042 2.115.048l1.925.011v-1.788l-1.83-.037c-2.026-.042-2.43-.134-2.872-.661-.497-.59-.527-.891-.527-5.562v-4.31h5.229v-1.804h-5.229v-2.33c0-1.28-.036-2.33-.083-2.33m-23.181 4.66c-.693 0-1.26.02-1.26.048 0 .027 1.083 1.492 2.406 3.255s2.438 3.262 2.48 3.33c.074.123-.374.742-3.92 5.414l-1.534 2.02h2.706l2.039-2.757c1.12-1.517 2.062-2.754 2.091-2.752s.969 1.243 2.086 2.756l2.034 2.752h1.325c.729 0 1.312-.035 1.293-.078-.017-.042-1.144-1.52-2.503-3.283-4.203-5.45-5.028-6.55-7.034-9.368l-.95-1.335zm10.088.02c-.668-.016-1.263-.009-1.322.014-.102.039-3.163 4.266-3.207 4.43-.013.043.25.448.584.9s.616.809.63.793c.012-.015 1.037-1.396 2.276-3.07l2.253-3.04z"/></svg>