<svg xmlns="http://www.w3.org/2000/svg" viewBox="0 0 64 64"><defs><linearGradient id="b" x1="17.309" x2="50.451" y1="32.843" y2="32.843" gradientUnits="userSpaceOnUse"><stop offset="0" stop-color="#4d4d4d"/><stop offset="1" stop-color="#757676"/></linearGradient><linearGradient id="a" x1="12.859" x2="50.896" y1="31.052" y2="31.052" gradientUnits="userSpaceOnUse"><stop offset="0" stop-color="#141414"/><stop offset="1" stop-color="#333"/></linearGradient></defs><rect width="56.002" height="56.002" x="4" y="3.969" fill="#ff5525" rx="13.002" ry="13.002"/><path fill="#fff" d="M17.002 8.97c-4.432 0-8 3.569-8 8v30c0 4.432 3.568 8 8 8H47c4.432 0 8-3.568 8-8v-30c0-4.432-3.568-8-8-8zm0 1.03H45v3H12.969v1H45v3H13.568v1H45v35.26h1V18h3v32.193h1V18h3.97v28.969a6.956 6.956 0 0 1-6.97 6.97H17.002a6.956 6.956 0 0 1-6.97-6.97V16.971a6.956 6.956 0 0 1 6.97-6.97zM46 10h1a7 7 0 0 1 2 .293V13h-3zm4 .682A6.96 6.96 0 0 1 52.732 13H50zM46 14h3v3h-3zm4 0h3.303a7 7 0 0 1 .668 2.97V17H50z" opacity=".25"/><path fill="#e6e6e6" d="M17 7C11.46 7 7 11.46 7 17v30a9.976 9.976 0 0 0 8.969 9.947c.58-.02 1.133-.037 1.449-.006h.002q.586.06 1.19.059H47c5.54 0 10-4.46 10-10V29.348C57 23.991 40.035 7 34.678 7H18.61z"/><path fill="url(#a)" d="M32.778 12.05c-5.179 4.105-9.617 2.232-9.617 2.232L12.86 25.31l5.547 5.579 5.396-5.639 23.444 24.802 3.65-3.973L27.35 21.326l7.12-7.541z" transform="translate(-.114 2.828)scale(.95485)"/><path fill="url(#b)" d="m40.926 16.286-3.865 3.951 1.51 5.957c-3.174 3.06-6.363 6.106-9.394 9.31l-1.96 2.016-5.956-1.51-3.951 3.865.021 4.238 4.431-4.308 3.925 1.219 1.218 3.924-4.307 4.426 4.237.027 3.865-3.957-1.51-5.951c3.37-3.256 6.731-6.52 9.969-9.908l1.384-1.418 5.957 1.51 3.951-3.866-.021-4.237-4.431 4.307-3.925-1.218c-2.731 2.715-5.197 5.189-8.194 8.178l8.194-8.178-1.218-3.924 4.307-4.431z" transform="translate(-.114 2.828)scale(.95485)"/><path fill="#fff" d="M34.678 7.028c3.571.893 4.464 6.25 5.357 9.82.866 3.466 2.838 5.844 8.036 7.144 3.57.892 7.142.571 8.928 5.357 0-.022-.004-.044-.004-.065C56.898 23.038 42.17 8.09 35.381 7.059a10 10 0 0 0-.702-.031z"/><path d="M3.999 45.998V47A12.975 12.975 0 0 0 17 60.002h30A12.975 12.975 0 0 0 60.002 47v-1.002A12.975 12.975 0 0 1 47 59H17A12.975 12.975 0 0 1 4 45.998z" opacity=".15"/><path fill="#fff" d="M3.999 18.002v-.994A12.975 12.975 0 0 1 17 4.006h30a12.975 12.975 0 0 1 13.002 13.002v1.002A12.975 12.975 0 0 0 47 5.008H17A12.975 12.975 0 0 0 4 18.01z" opacity=".15"/></svg>