<svg xmlns="http://www.w3.org/2000/svg" viewBox="0 0 64 64"><path fill="#68cb38" d="M17.001 3.999A12.973 12.973 0 0 0 3.999 17.001v29.998a12.973 12.973 0 0 0 13.002 13.002h29.998a12.973 12.973 0 0 0 13.002-13.002V17.001A12.973 12.973 0 0 0 46.999 3.999z"/><path d="M3.998 45.998v1c0 7.203 5.8 13.004 13.004 13.004h29.996c7.203 0 13.004-5.8 13.004-13.004v-1c0 7.203-5.8 13.002-13.004 13.002H17.002A12.975 12.975 0 0 1 3.998 45.998" opacity=".15"/><path fill="#fff" d="M3.998 18.004v-1C3.998 9.801 9.798 4 17.002 4h29.996c7.203 0 13.004 5.8 13.004 13.004v1c0-7.203-5.8-13.002-13.004-13.002H17.002A12.975 12.975 0 0 0 3.998 18.004" opacity=".15"/><path fill="#3d3d3d" d="M20.52 21.606h3.22a.33.33 0 0 0 .332-.331s-.04-2.726-.04-3.485v-.01c0-.623.132-1.168.366-1.62l.107-.204a.04.04 0 0 0-.035.02l-6.257 6.13a.1.1 0 0 0-.021.04 7 7 0 0 1 .331-.163c.545-.245 1.203-.377 1.997-.377m25.043-.668c-.254-1.355-1.064-2.018-1.804-2.282-.794-.286-2.405-.576-4.423-.81-1.63-.193-3.541-.18-4.698-.143-.137-.937-.805-1.793-1.55-2.093-1.986-.785-5.054-.596-5.843-.377-.623.168-1.32.524-1.703 1.07-.26.366-.427.836-.427 1.488 0 .366.01 1.238.02 2.012.01.786.021 1.473.021 1.473 0 .693-.566 1.254-1.269 1.27h-3.22c-.688 0-1.213.111-1.61.29a2.2 2.2 0 0 0-.901.713c-.433.572-.505 1.275-.505 1.992 0 0 .005.575.148 1.717.122.887 1.085 7.031 2.002 8.89.356.73.59 1.03 1.288 1.35 1.554.657 5.11 1.39 6.771 1.6 1.666.21 2.706.653 3.328-.626.005 0 .128-.32.296-.789.54-1.615.612-3.052.612-4.091 0-.102.157-.107.157 0 0 .734-.142 3.327 1.84 4.025.785.275 2.405.519 4.055.708 1.493.168 2.573.749 2.573 4.535 0 2.304-.489 2.609-3.041 2.609-2.074 0-2.863.056-2.863-1.574 0-1.32 1.32-1.172 2.293-1.172.433 0 .117-.32.117-1.13 0-.805.51-1.275.026-1.284-3.368-.091-5.354-.005-5.354 4.162 0 3.785 1.467 4.488 6.251 4.488 3.75 0 5.076-.127 6.624-4.875.305-.938 1.05-3.801 1.497-8.612.28-3.036-.27-12.207-.708-14.532m-6.535 10.14a6.7 6.7 0 0 0-1.334.082c.128-.938.515-2.085 1.885-2.034 1.534.051 1.748 1.483 1.753 2.451-.647-.286-1.438-.468-2.309-.5"/></svg>