<svg xmlns="http://www.w3.org/2000/svg" width="64" height="64" viewBox="0 0 16.933 16.933"><defs><linearGradient id="a" x1="7.937" x2="7.937" y1="15.081" y2="1.852" gradientUnits="userSpaceOnUse"><stop offset="0" stop-color="#345598"/><stop offset="1" stop-color="#0d7dbf"/></linearGradient><filter id="b" width="1.171" height="1.092" x="-.086" y="-.046" color-interpolation-filters="sRGB"><feGaussianBlur stdDeviation=".173"/></filter></defs><rect width="14.817" height="14.817" x="1.058" y="1.05" fill="url(#a)" rx="3.44" ry="3.44"/><path d="M6.045 6.736h1.038v-.692c0-.539.077-.911.203-1.176q.195-.397.708-.646.52-.252 1.309-.253c.539 0 1.105.139 1.585.345l-.345 1.039a3.3 3.3 0 0 0-.781-.082q-.412.001-.594.176c-.117.112-.356.272-.356.6v.69h1.73v1.038h-1.73v5.19H7.097l-.013-5.189H6.046" filter="url(#b)" opacity=".15"/><path fill="#f9f9f9" d="M6.045 6.736h1.038v-.692c0-.539.077-.911.203-1.176q.195-.397.708-.646.52-.252 1.309-.253c.539 0 1.105.139 1.585.345l-.345 1.039a3.3 3.3 0 0 0-.781-.082q-.412.001-.594.176c-.117.112-.356.272-.356.6v.69h1.73v1.038h-1.73v5.19H7.097l-.013-5.189H6.046"/></svg>