<svg xmlns="http://www.w3.org/2000/svg" viewBox="0 0 16.933 16.933"><rect width="14.817" height="14.817" x="1.058" y="1.05" fill="#1b6eb1" rx="3.44" ry="3.44"/><path fill="#fff" d="M6.045 6.736h1.038v-.692c0-.539.077-.911.203-1.176q.195-.397.708-.646.52-.252 1.309-.253c.539 0 1.105.139 1.585.345l-.345 1.039a3.3 3.3 0 0 0-.781-.082q-.412.001-.594.176c-.117.112-.356.272-.356.6v.69h1.73v1.038h-1.73v5.19H7.097l-.013-5.189H6.046"/><path d="M1.058 12.17v.265a3.433 3.433 0 0 0 3.44 3.44h7.937a3.433 3.433 0 0 0 3.44-3.44v-.265a3.433 3.433 0 0 1-3.44 3.44H4.498a3.433 3.433 0 0 1-3.44-3.44" opacity=".15"/><path fill="#fff" d="M1.058 4.764v-.265a3.433 3.433 0 0 1 3.44-3.44h7.937a3.433 3.433 0 0 1 3.44 3.44v.265a3.433 3.433 0 0 0-3.44-3.44H4.498a3.433 3.433 0 0 0-3.44 3.44" opacity=".15"/></svg>