<svg xmlns="http://www.w3.org/2000/svg" viewBox="0 0 64 64"><rect width="56.002" height="56.002" x="4" y="3.969" fill="#f2f2f2" rx="13.002" ry="13.002"/><path d="M3.998 45.998v1c0 7.203 5.8 13.004 13.004 13.004h29.996c7.203 0 13.004-5.8 13.004-13.004v-1c0 7.203-5.8 13.002-13.004 13.002H17.002A12.975 12.975 0 0 1 3.998 45.998" opacity=".1"/><path fill="#fff" d="M3.998 18.004v-1C3.998 9.801 9.798 4 17.002 4h29.996c7.203 0 13.004 5.8 13.004 13.004v1c0-7.203-5.8-13.002-13.004-13.002H17.002A12.975 12.975 0 0 0 3.998 18.004" opacity=".5"/><path fill="#537298" d="M31.964 22.312a2.242 1.542 0 0 0-1.548.451l-18.76 12.894a2.242 1.542 0 0 0 0 2.18l18.76 12.9a2.242 1.542 0 0 0 3.168 0l18.76-12.9a2.242 1.542 0 0 0 0-2.18l-18.76-12.894a2.242 1.542 0 0 0-1.62-.451m.036 5.25 13.366 9.188L32 45.937 18.634 36.75z"/><path fill="#ffb75a" d="M31.964 17.511a2.242 1.542 0 0 0-1.548.451l-18.76 12.894a2.242 1.542 0 0 0 0 2.18l18.76 12.9a2.242 1.542 0 0 0 3.168 0l18.76-12.9a2.242 1.542 0 0 0 0-2.18l-18.76-12.894a2.242 1.542 0 0 0-1.62-.451m.036 5.25 13.366 9.188L32 41.136 18.634 31.95z"/><path fill="#63a2da" d="M31.964 12.813a2.242 1.542 0 0 0-1.548.451l-18.76 12.894a2.242 1.542 0 0 0 0 2.18l18.76 12.9a2.242 1.542 0 0 0 3.168 0l18.76-12.9a2.242 1.542 0 0 0 0-2.18l-18.76-12.894a2.242 1.542 0 0 0-1.62-.451m.036 5.25 13.366 9.188L32 36.438l-13.366-9.187z"/></svg>