<svg xmlns="http://www.w3.org/2000/svg" viewBox="0 0 64 64"><rect width="56.002" height="56.002" x="4" y="3.969" fill="#4d4d4d" rx="13.002" ry="13.002"/><path fill="#fb7942" d="M35.367 12.347a55 55 0 0 0-4.953.179c-3.378.266-6.684.815-8.661 1.507-3.964 1.382-4.6 1.468-4.29 2.833 1.37 2.039 2.074 4.335 3.337 6.441.372.27.81.417 1.447.147 5.256-2.042 10.694-3.041 18.286-1.299 2.11-1.35 2.95-4.824 3.547-7.02.33-1.244-.113-1.642-4.606-2.462-1.123-.206-2.545-.306-4.106-.326zm3.617 3.32.005.002c.412-.035.775.265.805.668s-.27.754-.688.789c-.412.03-.78-.273-.81-.676s.28-.754.688-.785zm-16.49 1.245a.74.74 0 0 1 .807.668.745.745 0 0 1-.69.789.746.746 0 0 1-.805-.673.733.733 0 0 1 .687-.785"/><path fill="#4cc7e5" d="M32 16.261a15.65 15.65 0 0 0-15.652 15.652A15.65 15.65 0 0 0 32 47.565a15.65 15.65 0 0 0 15.652-15.652A15.65 15.65 0 0 0 32 16.261m0 10.435a5.217 5.217 0 0 1 5.217 5.217A5.217 5.217 0 0 1 32 37.131a5.217 5.217 0 0 1-5.217-5.218A5.217 5.217 0 0 1 32 26.696M32 28a3.913 3.913 0 0 0-3.913 3.913A3.913 3.913 0 0 0 32 35.826a3.913 3.913 0 0 0 3.913-3.913A3.913 3.913 0 0 0 32 28m0 1.305a2.61 2.61 0 0 1 2.609 2.608A2.61 2.61 0 0 1 32 34.522a2.61 2.61 0 0 1-2.609-2.609A2.61 2.61 0 0 1 32 29.305"/><path d="M3.999 45.998V47A12.975 12.975 0 0 0 17 60.002h30A12.975 12.975 0 0 0 60.002 47v-1.002A12.975 12.975 0 0 1 47 59H17A12.975 12.975 0 0 1 4 45.998z" opacity=".25"/><path fill="#fff" d="M3.999 18.002v-.994A12.975 12.975 0 0 1 17 4.006h30a12.975 12.975 0 0 1 13.002 13.002v1.002A12.975 12.975 0 0 0 47 5.008H17A12.975 12.975 0 0 0 4 18.01z" opacity=".15"/></svg>