<svg xmlns="http://www.w3.org/2000/svg" viewBox="0 0 64 64"><rect width="56.002" height="56.002" x="4" y="3.969" fill="#e4e4e4" rx="13.002" ry="13.002"/><path d="M3.998 45.998v1c0 7.203 5.8 13.004 13.004 13.004h29.996c7.203 0 13.004-5.8 13.004-13.004v-1c0 7.203-5.8 13.002-13.004 13.002H17.002A12.975 12.975 0 0 1 3.998 45.998" opacity=".1"/><path fill="#fff" d="M3.998 18.004v-1C3.998 9.801 9.798 4 17.002 4h29.996c7.203 0 13.004 5.8 13.004 13.004v1c0-7.203-5.8-13.002-13.004-13.002H17.002A12.975 12.975 0 0 0 3.998 18.004" opacity=".35"/><path fill="#813d9c" d="M30.516 12.019c-2.053.004-4.38.512-7.024 1.654-3.134 1.353-5.19 3.397-6.32 5.755s-1.347 4.979-1.055 7.528c.584 5.098 3.145 9.975 5.263 12.65a1.1 1.1 0 0 0 1.545.18 1.1 1.1 0 0 0 .18-1.545c-1.83-2.311-4.286-7.025-4.803-11.536-.258-2.255-.048-4.445.854-6.327.901-1.882 2.48-3.51 5.206-4.686 3.711-1.602 6.431-1.754 8.575-1.162 2.143.59 3.8 1.962 5.263 3.713s2.692 3.862 3.948 5.774 2.52 3.676 4.351 4.59a1.1 1.1 0 0 0 1.476-.492 1.1 1.1 0 0 0-.492-1.475c-1.129-.564-2.29-1.993-3.496-3.83s-2.47-4.028-4.099-5.977c-1.628-1.949-3.66-3.678-6.367-4.424a11 11 0 0 0-2.143-.362q-.423-.03-.863-.029zm-.088 4.23c-1.678-.031-3.586.463-5.745 1.575-3.715 1.914-5.177 5.984-4.31 10.491.867 4.508 3.877 9.613 8.993 14.47a1.1 1.1 0 0 0 1.555-.04 1.1 1.1 0 0 0-.04-1.556c-4.867-4.62-7.604-9.419-8.348-13.29s.315-6.654 3.157-8.119c2.95-1.52 4.88-1.596 6.395-1.011 1.515.584 2.776 1.97 3.997 3.821 2.443 3.703 4.507 9.15 9.31 11.412a1.1 1.1 0 0 0 1.465-.525 1.1 1.1 0 0 0-.527-1.464c-3.737-1.761-5.771-6.632-8.411-10.635-1.32-2.001-2.846-3.815-5.042-4.662a7 7 0 0 0-1.744-.423 8 8 0 0 0-.706-.045zm-.8 4.339a6 6 0 0 0-1.335.181c-2.187.546-3.574 2.081-3.85 3.905-.274 1.824.31 3.81 1.289 5.883 1.956 4.145 5.642 8.68 9.06 11.956a1.1 1.1 0 0 0 1.557-.033 1.1 1.1 0 0 0-.034-1.555c-3.25-3.114-6.834-7.578-8.594-11.307-.88-1.864-1.264-3.534-1.101-4.616s.62-1.703 2.205-2.099c1.355-.337 1.87-.133 2.508.462.64.596 1.298 1.79 2.1 3.325 1.605 3.071 3.934 7.417 9.59 10.713a1.1 1.1 0 0 0 1.503-.396 1.1 1.1 0 0 0-.396-1.505c-5.167-3.011-7.148-6.772-8.746-9.83-.8-1.53-1.465-2.907-2.55-3.917-.815-.758-1.924-1.192-3.206-1.167m.12 4.573a1.1 1.1 0 0 0-.406.072 1.1 1.1 0 0 0-.636 1.42c3.557 9.319 11.177 13.9 11.177 13.9a1.1 1.1 0 0 0 1.51-.372 1.1 1.1 0 0 0-.374-1.51s-6.988-4.235-10.258-12.802a1.1 1.1 0 0 0-1.013-.708"/><path fill="#fff" d="M60.002 17.004c-27.125-.287-41.888 25.8-41.888 25.8l21.538 11.413s8.44-10.829 20.35-11.13z" opacity=".9"/><path fill="#f5c211" d="m16.682 41.019 3.567-6.862c1.481-2.85 4.88-3.904 7.618-2.361 2.226 1.254 3.473 4.174 5.7 5.428 2.167 1.22 5.314.776 7.482 1.997 2.739 1.543 3.75 5.08 2.269 7.931l-3.567 6.862c-1.482 2.85-4.88 3.904-7.618 2.361-2.189-1.233-3.51-4.195-5.7-5.428-2.205-1.242-5.277-.755-7.482-1.997-2.739-1.543-3.75-5.08-2.269-7.931"/><g fill="#e5a50a"><ellipse cx="23.533" cy="38.815" rx="1.315" ry=".811"/><ellipse cx="30.42" cy="38.016" rx="1.617" ry=".893"/><ellipse cx="26.844" cy="44.706" rx="1.818" ry="1.072"/><ellipse cx="34.872" cy="42.853" rx="1.817" ry="1.018"/><ellipse cx="19.761" cy="43.57" rx="1.349" ry=".868"/><ellipse cx="25.374" cy="35.446" rx="1.419" ry=".885"/><ellipse cx="33.799" cy="50.299" rx="1.915" ry="1.323"/><ellipse cx="31.407" cy="45.92" rx="1.056" ry=".732"/><ellipse cx="40.189" cy="45.998" rx="1.379" ry=".836"/><ellipse cx="23.906" cy="48.69" rx="1.261" ry=".678"/><ellipse cx="40.094" cy="39.932" rx=".991" ry=".543"/><ellipse cx="33.322" cy="55.56" rx="1.37" ry=".676"/></g></svg>