<svg xmlns="http://www.w3.org/2000/svg" viewBox="0 0 64 64"><defs><linearGradient id="a" x1="29.011" x2="29.011" y1="56.512" y2="5.942" gradientTransform="scale(3.7796)" gradientUnits="userSpaceOnUse"><stop offset="0" stop-color="#946743"/><stop offset="1" stop-color="#b5835a"/></linearGradient></defs><rect width="56.002" height="56.002" x="4" y="3.969" fill="url(#a)" rx="13.002" ry="13.002"/><rect width="51.996" height="51.939" x="6.002" y="6" fill="#030000" opacity=".35" rx="11" ry="11"/><rect width="46.002" height="46.002" x="9" y="9" fill="#18ba82" rx="8" ry="8"/><path fill="none" stroke="#f6f5f4" stroke-linecap="round" stroke-linejoin="round" stroke-width="3" d="M17.005 39.571c6.699-3.135 10.725-13.14 11.732-18.021-.603 4.16-3.605 7.289-1.868 10.643 1.09 2.104 3.966 1.8 5.722.795 3.764-2.156 5.097-7.713 5.583-11.047-.767 4.897-3.238 13.752 3.78 11.421"/><path fill="#fff" d="m42.905 27.885 13.553-13.553 1.496.14 1.016 1.017-.137 1.492-13.417 13.417-2.396-.48.182-.537z"/><path fill="#deddda" d="m45.417 28.959 11.979-12.458-.938-2.17 1.496.141 1.016 1.016-.136 1.492-13.417 13.417-2.396-.479-.116-2.033.595 1.554z"/><rect width="31" height="8" x="16.5" y="45" fill="#9e6f4a" rx="4.5" ry="4.5"/><rect width="24" height="2" x="20" y="48" fill="#865e3c" rx="1" ry="1"/><path fill="#fff" d="M34.006 46.992h7.951l.936 1.13v.935l-1.122.935h-7.765l-1.653-1.654.827-.577z"/><path fill="#deddda" d="m35 49 6.11-.33.847-1.678.936 1.13v.935l-1.122.935h-7.765l-1.653-1.653 1.653-1.347-.992 1.347z"/><path fill="#fff" d="M23.248 46.992h5.145l.736 1.13v.935l-.922.935h-4.96l-1.185-1.654.455-.517z"/><path fill="#deddda" d="m24.71 49 2.836-.33.847-1.678.737 1.13v.935l-.923.935h-4.959l-1.185-1.653 1.185-1.347-.524 1.347z"/><path d="M3.999 45.998V47A12.975 12.975 0 0 0 17 60.002h30A12.975 12.975 0 0 0 60.002 47v-1.002A12.975 12.975 0 0 1 47 59H17A12.975 12.975 0 0 1 4 45.998z" opacity=".15"/><path fill="#fff" d="M3.999 18.002v-.994A12.975 12.975 0 0 1 17 4.006h30a12.975 12.975 0 0 1 13.002 13.002v1.002A12.975 12.975 0 0 0 47 5.008H17A12.975 12.975 0 0 0 4 18.01z" opacity=".15"/></svg>