<svg xmlns="http://www.w3.org/2000/svg" viewBox="0 0 64 64"><defs><linearGradient id="a" x1="7.937" x2="7.937" y1="15.081" y2="1.852" gradientTransform="scale(3.7796)" gradientUnits="userSpaceOnUse"><stop offset="0" stop-color="#f1efeb" style="stop-color:#c69546;stop-opacity:1"/><stop offset="1" stop-color="#fdfcfc" style="stop-color:#3fb17d;stop-opacity:1"/></linearGradient><linearGradient id="b" x1="-79.382" x2="-36.522" y1="305.059" y2="230.825" gradientTransform="rotate(-15 -250.009 -129.159)scale(.39866)" gradientUnits="userSpaceOnUse"><stop offset="0" stop-color="#c061cb" style="stop-color:#ff7800;stop-opacity:1"/><stop offset="1" stop-color="#3584e4" style="stop-color:#f6d32d;stop-opacity:1"/></linearGradient><linearGradient id="c" x1="28" x2="116" y1="-274" y2="-274" gradientTransform="translate(60.704 -61.268)scale(-.39866)" gradientUnits="userSpaceOnUse"><stop offset="0" stop-color="#c0bfbc"/><stop offset=".045" stop-color="#f6f5f4"/><stop offset=".091" stop-color="#deddda"/><stop offset=".909" stop-color="#deddda"/><stop offset=".955" stop-color="#f6f5f4"/><stop offset="1" stop-color="#c0bfbc"/></linearGradient><linearGradient id="d" x1="20" x2="25.738" y1="98.337" y2="98.337" gradientTransform="translate(6.487 7.301)scale(.39866)" gradientUnits="userSpaceOnUse"><stop offset="0" stop-color="#deddda"/><stop offset=".28" stop-color="#fbfbfa"/><stop offset=".568" stop-color="#faf9f8"/><stop offset="1" stop-color="#f8f6f4"/></linearGradient><linearGradient id="e" x1="96.838" x2="101.618" y1="24.838" y2="20.058" gradientTransform="translate(6.487 7.301)scale(.39866)" gradientUnits="userSpaceOnUse"><stop offset="0" stop-color="#deddda"/><stop offset="1" stop-color="#f3f2ef"/></linearGradient><linearGradient id="f" x1="84.644" x2="95.271" y1="35.269" y2="24.643" gradientTransform="translate(6.487 7.301)scale(.39866)" gradientUnits="userSpaceOnUse"><stop offset="0" stop-color="#fff"/><stop offset=".342" stop-color="#ececec"/><stop offset=".7" stop-color="#e8e8e8"/><stop offset="1" stop-color="#fff"/></linearGradient><linearGradient id="g" x1="21.751" x2="44.91" y1="117.006" y2="117.006" gradientTransform="translate(6.487 7.301)scale(.39866)" gradientUnits="userSpaceOnUse"><stop offset="0" stop-color="#b0b0b0"/><stop offset="1" stop-color="#deddda"/></linearGradient></defs><rect width="56.002" height="56.002" x="4" y="3.969" fill="url(#a)" rx="13.002" ry="13.002" style="fill:#88a25f;fill-opacity:1"/><path fill="url(#b)" d="m11.66 16.987 27.724-7.43a3.19 3.19 0 0 1 3.907 2.257l9.08 33.886a3.19 3.19 0 0 1-2.255 3.906l-27.726 7.43a3.19 3.19 0 0 1-3.906-2.255l-9.08-33.888a3.19 3.19 0 0 1 2.256-3.906m0 0" class="fills" style="fill:#faa617;stroke-width:.39866;fill-opacity:1"/><path d="m23.503 7.482 27.726 7.43a3.19 3.19 0 0 1 2.256 3.905l-9.08 33.888a3.19 3.19 0 0 1-3.906 2.255l-27.725-7.43a3.19 3.19 0 0 1-2.257-3.906l9.08-33.888a3.19 3.19 0 0 1 3.906-2.254m0 0" class="fills" style="fill:#2ec27e;stroke-width:.39866"/><path d="M17.65 31.62h28.703a3.19 3.19 0 0 1 3.19 3.189V51.95a3.19 3.19 0 0 1-3.19 3.19H17.649a3.19 3.19 0 0 1-3.189-3.19V34.809a3.19 3.19 0 0 1 3.19-3.19m0 0" class="fills" style="fill:#deddda;stroke-width:.39866"/><path fill="url(#c)" d="M46.353 55.14H17.649a3.19 3.19 0 0 1-3.189-3.19v-9.567a3.19 3.19 0 0 1 3.19-3.19h28.703a3.19 3.19 0 0 1 3.19 3.19v9.568a3.19 3.19 0 0 1-3.19 3.19m0 0" class="fills" style="fill:#deddda;stroke-width:.39866;fill-opacity:1"/><path fill="url(#d)" d="M17.65 10.49h28.703a3.18 3.18 0 0 1 3.19 3.19v35.082a3.18 3.18 0 0 1-3.19 3.189H16.055c-.935 0-1.595.779-1.595 1.496V13.68a3.18 3.18 0 0 1 3.19-3.19m0 0" class="fills" style="fill:#f8f6f4;stroke-width:.39866;fill-opacity:1"/><path fill="url(#e)" d="m38.38 10.49 10.365 10.365c.813 1.251.797 2.392.797 2.392V13.68a3.18 3.18 0 0 0-3.189-3.19zm0 0" class="fills" style="fill:#f3f2ef;stroke-width:.39866;fill-opacity:1"/><path fill="url(#f)" d="M48.346 20.457 38.38 10.49v7.973a3.18 3.18 0 0 0 3.19 3.19h6.297c.878 0 1.818 1.001 1.675 1.594a3.96 3.96 0 0 0-1.196-2.79m0 0" class="fills" style="fill:#fff;stroke-width:.39866"/><path d="M20.442 15.274h12.757a1.195 1.195 0 1 1 0 2.392H20.442a1.196 1.196 0 0 1 0-2.392m-.399 4.784h5.58a.797.797 0 1 1 0 1.595h-5.58a.798.798 0 0 1 0-1.595m0 0" class="fills" style="fill:#c0bfbc;fill-opacity:1;stroke-width:.39866"/><path d="M20.041 37.6h23.92a.797.797 0 1 1 0 1.594h-23.92a.797.797 0 1 1 0-1.595m0 3.987h23.92a.797.797 0 1 1 0 1.594h-23.92a.797.797 0 1 1 0-1.594m0 3.986h23.92a.797.797 0 1 1 0 1.595h-23.92a.797.797 0 1 1 0-1.595m0-11.96h23.92a.797.797 0 1 1 0 1.595h-23.92a.797.797 0 1 1 0-1.594m0 0" class="fills" style="fill:#c0bfbc;stroke-width:.39866"/><path fill="url(#g)" d="M15.957 51.95h19.332a1.496 1.496 0 0 1 1.496 1.497v.197a1.496 1.496 0 0 1-1.496 1.496H15.957a1.496 1.496 0 0 1-1.497-1.496v-.197a1.496 1.496 0 0 1 1.497-1.496m0 0" class="fills" style="fill:#deddda;stroke-width:.39866;fill-opacity:1"/><path d="M3.998 45.998v1c0 7.203 5.8 13.004 13.004 13.004h29.996c7.203 0 13.004-5.8 13.004-13.004v-1c0 7.203-5.8 13.002-13.004 13.002H17.002A12.975 12.975 0 0 1 3.998 45.998" opacity=".35" style="opacity:.15"/><path fill="#fff" d="M3.998 18.004v-1C3.998 9.801 9.798 4 17.002 4h29.996c7.203 0 13.004 5.8 13.004 13.004v1c0-7.203-5.8-13.002-13.004-13.002H17.002A12.975 12.975 0 0 0 3.998 18.004" opacity=".15"/><path d="M32.533 21.654a11.1 11.1 0 0 0-4.611 1.045h-.002a11.17 11.17 0 0 0-6.443 10.117h-3.829l5.424 6.778 5.422-6.778h-3.828a7.97 7.97 0 0 1 4.602-7.226 7.97 7.97 0 0 1 8.496 1.117 1.595 1.595 0 0 0 2.246-.197 1.595 1.595 0 0 0-.197-2.246 11.16 11.16 0 0 0-7.28-2.61m.6 22.508a11.1 11.1 0 0 0 4.611-1.045h.002A11.17 11.17 0 0 0 44.19 33h3.829l-5.424-6.777L37.172 33H41a7.97 7.97 0 0 1-4.602 7.227 7.97 7.97 0 0 1-8.496-1.118 1.595 1.595 0 0 0-2.246.198 1.595 1.595 0 0 0 .198 2.246 11.16 11.16 0 0 0 7.279 2.61" class="fills" style="fill:#4d4d4d;fill-opacity:1;stroke-width:.39866" transform="translate(-.833 -.908)"/></svg>