<svg xmlns="http://www.w3.org/2000/svg" width="64" height="64"><defs><linearGradient id="a" x1="7.937" x2="7.937" y1="15.081" y2="1.852" gradientTransform="scale(3.7796)" gradientUnits="userSpaceOnUse"><stop offset="0" stop-color="#f54800"/><stop offset="1" stop-color="#ffb200"/></linearGradient></defs><rect width="56.002" height="56.002" x="4" y="3.969" fill="url(#a)" rx="13.002" ry="13.002"/><path d="m14.837 22.54.518 18.376 16.304 10.61.26-9.446 9.575-5.305z" style="fill:#fff;fill-opacity:1;stroke:#000;stroke-width:.27257px;stroke-linecap:butt;stroke-linejoin:miter;stroke-opacity:1" transform="translate(.25 .365)"/><path d="M31.75 9.865c-.225 0-.45.063-.648.186L13.986 20.678c-.36.224-.58.62-.58 1.045v19.763c0 .426.22.82.58 1.045l17.116 10.627.025.014.027.017.06.028.061.03a1 1 0 0 0 .155.052c.036.011.074.016.111.023l.049.008q.08.013.16.014h.002q.169-.001.332-.047c.042-.011.084-.03.125-.045l.037-.012c.034-.015.065-.036.098-.054l.054-.028h.002l.034-.021 17.08-10.606c.363-.225.582-.621.582-1.049l-.03-9.902a1.23 1.23 0 0 0-1.878-1.04L40.9 35.077 35.285 31.6l14.23-8.864a1.23 1.23 0 0 0-.001-2.088L32.398 10.051a1.23 1.23 0 0 0-.648-.186m.002 2.676 14.783 9.156-14.785 9.205-14.783-9.18Zm-15.93 11.367 12.397 7.697-12.397 7.696Zm17.133 9.14 5.615 3.48-7.498 4.67a1.23 1.23 0 0 0-.58 1.048l.022 7.652-13.547-8.412 13.582-8.433.553.342a1.23 1.23 0 0 0 1.298 0z" style="fill:#231f20;fill-opacity:1;fill-rule:nonzero;stroke:none;stroke-width:.27257" transform="translate(.25 .365)"/><path d="m32.953 42.922.021 6.984 14.66-9.103-.02-7.01z" style="fill:#fff;fill-opacity:1;fill-rule:nonzero;stroke:none;stroke-width:.27257" transform="translate(.25 .365)"/></svg>