<svg xmlns="http://www.w3.org/2000/svg" viewBox="0 0 64 64"><path fill="#935ad1" d="M17.001 4A12.973 12.973 0 0 0 3.999 17v30a12.973 12.973 0 0 0 13.002 13.002h29.998A12.973 12.973 0 0 0 60.001 47V17.001A12.973 12.973 0 0 0 46.999 4z"/><path d="M3.998 45.998v1c0 7.203 5.8 13.004 13.004 13.004h29.996c7.203 0 13.004-5.8 13.004-13.004v-1c0 7.203-5.8 13.002-13.004 13.002H17.002A12.975 12.975 0 0 1 3.998 45.998" opacity=".15"/><path fill="#fff" d="M3.998 18.004v-1C3.998 9.801 9.798 4 17.002 4h29.996c7.203 0 13.004 5.8 13.004 13.004v1c0-7.203-5.8-13.002-13.004-13.002H17.002A12.975 12.975 0 0 0 3.998 18.004" opacity=".15"/><path d="M22.158 19c-2.455 0-5.028 1.359-6.467 5.004C12.654 31.696 11 37.644 11 41.254c0 2.775.981 4.533 3.062 5.562a1.77 1.77 0 0 0 1.961-.264l5.442-4.802c.974-.865 1.827-1.758 4.207-1.758H38.33c2.38 0 3.228.893 4.205 1.758l5.441 4.803c.54.478 1.316.583 1.963.263C52.02 45.788 53 44.03 53 41.252c0-3.608-1.653-9.557-4.689-17.248C46.872 20.359 44.296 19 41.841 19a7.1 7.1 0 0 0-3.238.799c-4.155 2.14-8.96 2.186-13.201 0A7.14 7.14 0 0 0 22.158 19M32 23a3 3 0 1 1 0 6 3 3 0 0 1 0-6m-9.801 3a4.2 4.2 0 1 1 .003 8.4 4.2 4.2 0 0 1-.003-8.4M41.5 26a1.5 1.5 0 0 1 1.5 1.5 1.5 1.5 0 0 1-1.5 1.5 1.5 1.5 0 0 1-1.5-1.5 1.5 1.5 0 0 1 1.5-1.5m-19.301 1.4a2.8 2.8 0 1 0 .002 5.6 2.8 2.8 0 0 0-.002-5.6M38.5 29a1.5 1.5 0 0 1 1.5 1.5 1.5 1.5 0 0 1-1.5 1.5 1.5 1.5 0 0 1-1.5-1.5 1.5 1.5 0 0 1 1.5-1.5m6 0a1.5 1.5 0 0 1 1.5 1.5 1.5 1.5 0 0 1-1.5 1.5 1.5 1.5 0 0 1-1.5-1.5 1.5 1.5 0 0 1 1.5-1.5m-3 3a1.5 1.5 0 0 1 1.5 1.5 1.5 1.5 0 0 1-1.5 1.5 1.5 1.5 0 0 1-1.5-1.5 1.5 1.5 0 0 1 1.5-1.5" opacity=".2"/><path fill="#fff" d="M22.158 18c-2.455 0-5.028 1.359-6.467 5.004C12.654 30.696 11 36.644 11 40.254c0 2.775.981 4.533 3.062 5.562a1.77 1.77 0 0 0 1.961-.264l5.442-4.802c.974-.865 1.827-1.758 4.207-1.758H38.33c2.38 0 3.228.893 4.205 1.758l5.441 4.803c.54.478 1.316.583 1.963.263C52.02 44.788 53 43.03 53 40.252c0-3.608-1.653-9.557-4.689-17.248C46.872 19.359 44.296 18 41.841 18a7.1 7.1 0 0 0-3.238.799c-4.155 2.14-8.96 2.186-13.201 0A7.14 7.14 0 0 0 22.158 18M32 22a3 3 0 1 1 0 6 3 3 0 0 1 0-6m-9.801 3a4.2 4.2 0 1 1 .003 8.4 4.2 4.2 0 0 1-.003-8.4M41.5 25a1.5 1.5 0 0 1 1.5 1.5 1.5 1.5 0 0 1-1.5 1.5 1.5 1.5 0 0 1-1.5-1.5 1.5 1.5 0 0 1 1.5-1.5m-19.301 1.4a2.8 2.8 0 1 0 .002 5.6 2.8 2.8 0 0 0-.002-5.6M38.5 28a1.5 1.5 0 0 1 1.5 1.5 1.5 1.5 0 0 1-1.5 1.5 1.5 1.5 0 0 1-1.5-1.5 1.5 1.5 0 0 1 1.5-1.5m6 0a1.5 1.5 0 0 1 1.5 1.5 1.5 1.5 0 0 1-1.5 1.5 1.5 1.5 0 0 1-1.5-1.5 1.5 1.5 0 0 1 1.5-1.5m-3 3a1.5 1.5 0 0 1 1.5 1.5 1.5 1.5 0 0 1-1.5 1.5 1.5 1.5 0 0 1-1.5-1.5 1.5 1.5 0 0 1 1.5-1.5"/></svg>