<svg xmlns="http://www.w3.org/2000/svg" viewBox="0 0 64 64"><defs><linearGradient id="a" x1="50.429" x2="50.429" y1="1120.5" y2="1092.5" gradientTransform="matrix(2 0 0 2 -65.859 -2181)" gradientUnits="userSpaceOnUse"><stop offset="0" stop-color="#9575cd"/><stop offset="1" stop-color="#cd75bc"/></linearGradient></defs><rect width="56.002" height="56.002" x="4" y="3.969" fill="url(#a)" rx="13.002" ry="13.002" style="fill:#b175c5;fill-opacity:1"/><path fill="#fff" d="M33.334 20.04A1.33 1.33 0 0 0 32 21.372v4c0 .74.594 1.334 1.334 1.334H40l-8 6.666v5.334c0 .74.594 1.334 1.334 1.334h13.332c.74 0 1.334-.596 1.334-1.334v-4a1.33 1.33 0 0 0-1.334-1.334H40l8-6.666v-5.334a1.33 1.33 0 0 0-1.334-1.332zm-16 12A1.33 1.33 0 0 0 16 33.372v1.334c0 .74.596 1.37 1.334 1.334H20l-4 4v2.666c0 .74.594 1.334 1.334 1.334H24c.74 0 1.334-.596 1.334-1.334v-1.334A1.33 1.33 0 0 0 24 40.04h-2.666l4-4v-2.668A1.33 1.33 0 0 0 24 32.04z"/><path d="M3.998 45.998v1c0 7.203 5.8 13.004 13.004 13.004h29.996c7.203 0 13.004-5.8 13.004-13.004v-1c0 7.203-5.8 13.002-13.004 13.002H17.002A12.975 12.975 0 0 1 3.998 45.998" opacity=".15"/><path fill="#fff" d="M3.998 18.004v-1C3.998 9.801 9.798 4 17.002 4h29.996c7.203 0 13.004 5.8 13.004 13.004v1c0-7.203-5.8-13.002-13.004-13.002H17.002A12.975 12.975 0 0 0 3.998 18.004" opacity=".15"/></svg>