<svg xmlns="http://www.w3.org/2000/svg" width="64" height="64"><defs><linearGradient id="b" x1="404.68" x2="404.68" y1="531.34" y2="545.36" gradientUnits="userSpaceOnUse"><stop offset="0" stop-color="#505459"/><stop offset="1" stop-color="#2d2f32"/></linearGradient><linearGradient id="a" x1="7.937" x2="7.937" y1="15.081" y2="1.852" gradientTransform="scale(3.7796)" gradientUnits="userSpaceOnUse"><stop offset="0" stop-color="#f1efeb"/><stop offset="1" stop-color="#fdfcfc"/></linearGradient></defs><rect width="56.002" height="56.002" x="4" y="3.969" fill="url(#a)" rx="13.002" ry="13.002"/><path fill="url(#b)" d="M409.03 539.85c-.819 0-1.54.392-2.012.991l-4.376-2.246c.058-.215.099-.436.099-.67 0-.254-.049-.493-.117-.725l4.356-2.237a2.56 2.56 0 0 0 2.05 1.037 2.58 2.58 0 0 0 2.578-2.587 2.58 2.58 0 0 0-2.577-2.585 2.58 2.58 0 0 0-2.576 2.585c0 .234.042.457.1.672l-4.375 2.246a2.56 2.56 0 0 0-2.015-.993 2.58 2.58 0 0 0-2.575 2.587 2.58 2.58 0 0 0 2.575 2.587 2.56 2.56 0 0 0 2.053-1.039l4.354 2.237a2.6 2.6 0 0 0-.117.727 2.58 2.58 0 0 0 2.575 2.586 2.58 2.58 0 0 0 2.577-2.586 2.58 2.58 0 0 0-2.577-2.587" transform="matrix(2.1463 0 0 2.1397 -836.41 -1118)"/></svg>