<svg xmlns="http://www.w3.org/2000/svg" viewBox="0 0 64 64"><defs><linearGradient id="a" x1="10.973" x2="36.937" y1="24" y2="24" gradientTransform="matrix(1.502 0 0 1.5037 -3.983 -3.342)" gradientUnits="userSpaceOnUse"><stop offset="0" stop-color="#2a2c2f"/><stop offset="1" stop-color="#424649"/></linearGradient><linearGradient id="b" x1="319.21" x2="657.65" y1="235.15" y2="269.49" gradientTransform="matrix(.13235 0 0 .13075 -32.379 1.087)" gradientUnits="userSpaceOnUse"><stop offset="0" stop-color="#e54c18"/><stop offset="1" stop-color="#fec350"/></linearGradient></defs><rect width="56.002" height="56.002" x="4" y="3.969" fill="#f2f2f2" rx="13.002" ry="13.002"/><path d="M3.998 45.998v1c0 7.203 5.8 13.004 13.004 13.004h29.996c7.203 0 13.004-5.8 13.004-13.004v-1c0 7.203-5.8 13.002-13.004 13.002H17.002A12.975 12.975 0 0 1 3.998 45.998" opacity=".1"/><path fill="#fff" d="M3.998 18.004v-1C3.998 9.801 9.798 4 17.002 4h29.996c7.203 0 13.004 5.8 13.004 13.004v1c0-7.203-5.8-13.002-13.004-13.002H17.002A12.975 12.975 0 0 0 3.998 18.004" opacity=".5"/><g stroke-width="1.256"><path fill="url(#a)" d="m12.934 52.982 14.724-19.274-15.159-21.192 9.743.008 12.08 16.663-18.06 23.794h-3.328zm28.819.014L29.758 36.304l18.211-23.805h3.245L36.43 31.863l15.068 21.132z" style="fill:#4d4d4d" transform="matrix(.79702 0 0 .79492 5.9 5.66)"/><path fill="url(#b)" d="M31.996 19.892c-1.171 0-2.423.09-3.55.196 2.008 2.587 3.673 4.777 5.59 7.264-1.076-2.287-3.287-4.48-2.523-5.609.757-1.116 2.151-.928 2.257-.928 2.235 0 4.387.25 6.398.71l.472-.64c-2.683-.683-5.597-.993-8.644-.993m12.106 2.087-.434.613c6.197 2.398 10.389 6.977 10.389 12.225 0 7.728-9.088 13.998-20.286 13.998-11.2 0-20.29-6.27-20.29-13.998 0-4.208 2.696-7.986 6.96-10.554l-1.31-1.973C12.44 25.092 8 30.01 8 35.61c0 8.712 10.75 15.78 23.995 15.78 13.247 0 24-7.068 24-15.78 0-5.81-4.78-10.89-11.895-13.631z" style="fill:#f18433" transform="matrix(.79702 0 0 .79492 5.9 5.66)"/></g></svg>