<svg xmlns="http://www.w3.org/2000/svg" width="64" height="64"><defs><linearGradient id="a" x1="7.937" x2="7.937" y1="15.081" y2="1.852" gradientTransform="scale(3.7796)" gradientUnits="userSpaceOnUse"><stop offset="0" stop-color="#0e71de"/><stop offset="1" stop-color="#25c9ff"/></linearGradient><filter id="b" width="1.211" height="1.266" x="-.105" y="-.133" color-interpolation-filters="sRGB"><feGaussianBlur stdDeviation=".757"/></filter></defs><rect width="56.002" height="56.002" x="4" y="3.969" fill="url(#a)" rx="13.002" ry="13.002"/><path d="M29.941 20.697c-1.632 0-3.046.94-3.746 2.304a2.9 2.9 0 0 0-1.57-.46 2.94 2.94 0 0 0-2.933 2.949c0 .259.04.51.103.749a4.43 4.43 0 0 0-1.936 3.675 4.4 4.4 0 0 0 4.4 4.424h8.432a4.4 4.4 0 0 0 4.399-4.424 4.41 4.41 0 0 0-3.002-4.194 4.3 4.3 0 0 0 .069-.783c0-2.342-1.888-4.24-4.216-4.24" color="#000" filter="url(#b)" opacity=".15" style="isolation:auto;mix-blend-mode:normal" transform="translate(-25.528 -20.135)scale(2.0204)"/><path fill="#fff" d="M35.064 17.752c-3.41 0-6.364 1.964-7.826 4.814a6.06 6.06 0 0 0-3.28-.964 6.14 6.14 0 0 0-6.128 6.164c0 .539.083 1.063.215 1.563A9.26 9.26 0 0 0 14 37.007a9.193 9.193 0 0 0 9.193 9.242h17.616a9.193 9.193 0 0 0 9.19-9.242 9.21 9.21 0 0 0-6.271-8.76 9 9 0 0 0 .144-1.639c0-4.89-3.945-8.858-8.808-8.858z" color="#000"/></svg>