<svg xmlns="http://www.w3.org/2000/svg" viewBox="0 0 64 64"><rect width="56.002" height="56.002" x="4" y="3.969" fill="#1eadf4" rx="13.002" ry="13.002"/><circle cx="32.02" cy="32.044" r="30.001" fill="none"/><path d="M3.998 45.998v1c0 7.203 5.8 13.004 13.004 13.004h29.996c7.203 0 13.004-5.8 13.004-13.004v-1c0 7.203-5.8 13.002-13.004 13.002H17.002A12.975 12.975 0 0 1 3.998 45.998" opacity=".15"/><path fill="#fff" d="M3.998 18.004v-1C3.998 9.801 9.798 4 17.002 4h29.996c7.203 0 13.004 5.8 13.004 13.004v1c0-7.203-5.8-13.002-13.004-13.002H17.002A12.975 12.975 0 0 0 3.998 18.004" opacity=".15"/><path fill="#fff" d="M35.064 17.5c-3.41 0-6.363 1.964-7.827 4.814a6.07 6.07 0 0 0-3.28-.963c-3.384 0-6.127 2.76-6.127 6.163 0 .54.085 1.064.215 1.564A9.25 9.25 0 0 0 14 36.757C14 41.877 18.1 46 23.19 46h17.617C45.9 46 50 41.877 50 36.757a9.22 9.22 0 0 0-6.271-8.762 9 9 0 0 0 .143-1.637c0-4.892-3.944-8.858-8.808-8.858" color="#000" style="stroke-width:2.0893"/></svg>