<svg xmlns="http://www.w3.org/2000/svg" viewBox="0 0 16.933 16.933"><g stroke-width=".265"><rect width="14.817" height="14.817" x="1.058" y="1.05" fill="#384b55" rx="3.44" ry="3.44"/><path d="M1.058 12.17v.265a3.433 3.433 0 0 0 3.44 3.44h7.937a3.433 3.433 0 0 0 3.44-3.44v-.265a3.433 3.433 0 0 1-3.44 3.44H4.498a3.433 3.433 0 0 1-3.44-3.44" opacity=".35"/><path fill="#fff" d="M1.058 4.763V4.5a3.433 3.433 0 0 1 3.44-3.44h7.937a3.433 3.433 0 0 1 3.44 3.44v.265a3.433 3.433 0 0 0-3.44-3.44H4.498a3.433 3.433 0 0 0-3.44 3.44z" opacity=".1"/><circle cx="8.472" cy="8.478" r="7.938" fill="none"/></g><path fill="#01d4ab" d="M49.082 15.244a1.5 1.5 0 0 0-1.025.45L39.242 24.6c-1.926-1.862-4.539-3.017-7.418-3.017-5.892 0-10.705 4.813-10.705 10.705 0 1.888.5 3.662 1.365 5.205l-7.705 7.705-5.847-5.107a1.5 1.5 0 0 0-2.118.138 1.5 1.5 0 0 0 .139 2.12l6.902 6.03a1.5 1.5 0 0 0 2.053-.066l8.414-8.414a10.67 10.67 0 0 0 7.502 3.084c5.892 0 10.695-4.803 10.695-10.695 0-1.93-.524-3.738-1.424-5.305a2 2 0 0 0 .117-.107l7.989-8.082 5.875 5.078a1.5 1.5 0 0 0 2.119-.154 1.5 1.5 0 0 0-.156-2.112L50.1 15.613a1.5 1.5 0 0 0-.916-.369zM31.824 24.59c4.27 0 7.7 3.428 7.7 7.699 0 4.27-3.43 7.7-7.7 7.7a7.68 7.68 0 0 1-7.701-7.7c0-4.27 3.43-7.7 7.701-7.7z" style="font-feature-settings:normal;font-variant-alternates:normal;font-variant-caps:normal;font-variant-east-asian:normal;font-variant-ligatures:normal;font-variant-numeric:normal;font-variant-position:normal;font-variation-settings:normal;inline-size:0;isolation:auto;mix-blend-mode:normal;paint-order:stroke markers fill;shape-margin:0;shape-padding:0;text-decoration-color:#000;text-decoration-line:none;text-decoration-style:solid;text-indent:0;text-orientation:mixed;text-transform:none;white-space:normal" transform="scale(.26458)"/></svg>