<svg xmlns="http://www.w3.org/2000/svg" viewBox="0 0 64 64"><rect width="56.002" height="56.002" x="4" y="3.969" fill="#f2f2f2" rx="13.002" ry="13.002"/><path d="M3.998 45.998v1c0 7.203 5.8 13.004 13.004 13.004h29.996c7.203 0 13.004-5.8 13.004-13.004v-1c0 7.203-5.8 13.002-13.004 13.002H17.002A12.975 12.975 0 0 1 3.998 45.998" opacity=".1"/><path fill="#fff" d="M3.998 18.004v-1C3.998 9.801 9.798 4 17.002 4h29.996c7.203 0 13.004 5.8 13.004 13.004v1c0-7.203-5.8-13.002-13.004-13.002H17.002A12.975 12.975 0 0 0 3.998 18.004" opacity=".5"/><path fill="#4d4d4d" d="M41.51 37.152c-1.757 0-3.307.837-4.32 2.12l-9.39-4.807a5.5 5.5 0 0 0 .21-1.432c0-.543-.104-1.055-.25-1.552l9.349-4.785c1.007 1.34 2.597 2.217 4.402 2.217a5.53 5.53 0 0 0 5.532-5.534 5.53 5.53 0 1 0-11.06 0c0 .5.089.976.213 1.437l-9.388 4.807c-1.014-1.285-2.566-2.125-4.326-2.125a5.53 5.53 0 0 0-5.528 5.535 5.53 5.53 0 0 0 5.528 5.534c1.808 0 3.397-.879 4.408-2.221l9.345 4.784c-.147.497-.253 1.012-.253 1.557a5.53 5.53 0 1 0 11.06 0 5.53 5.53 0 0 0-5.532-5.535"/></svg>