<svg xmlns="http://www.w3.org/2000/svg" viewBox="0 0 64 64"><defs><linearGradient id="a" x1="7.937" x2="7.937" y1="15.081" y2="1.852" gradientTransform="scale(3.7796)" gradientUnits="userSpaceOnUse"><stop offset="0" stop-color="#b81e31"/><stop offset="1" stop-color="#ff5c5c"/></linearGradient></defs><rect width="56.002" height="56.002" x="4" y="3.969" fill="url(#a)" rx="13.002" ry="13.002" style="fill:#dd3e47;fill-opacity:1"/><path fill="#fff" d="M23.754 17.496c-.408 0-.788.16-1.132.324l-.81.486c-3.968 2.618-6.764 6.662-7.6 11.4 0 .004-.08-.006-.08 0-.022.13.02.272 0 .404-.12.8-.242 1.59-.242 2.426C13.89 42.18 21.998 50 32 50s18.11-7.82 18.11-17.464c0-.742-.066-1.466-.16-2.184-.03-.222-.124-.426-.162-.646-.836-4.738-3.632-8.782-7.6-11.4l-.81-.486c-.344-.162-.724-.324-1.132-.324a2.67 2.67 0 0 0-2.668 2.67c0 .838.446 1.612 1.052 2.1.192.156.416.308.646.406a12.64 12.64 0 0 1 5.176 7.034c.014.054.066.106.08.16.27.99.404 2 .404 3.074 0 6.89-5.792 12.452-12.936 12.452S19.064 39.83 19.064 32.94c0-1.072.136-2.084.404-3.072.016-.06.064-.106.08-.162a12.64 12.64 0 0 1 5.176-7.034c.23-.1.454-.25.646-.404.606-.49 1.052-1.264 1.052-2.102a2.67 2.67 0 0 0-2.668-2.67M32 11.19a2.58 2.58 0 0 1 2.588 2.588v15.524A2.58 2.58 0 0 1 32 31.888a2.58 2.58 0 0 1-2.588-2.586V13.778A2.58 2.58 0 0 1 32 11.19" overflow="visible"/><path d="M3.998 45.998v1c0 7.203 5.8 13.004 13.004 13.004h29.996c7.203 0 13.004-5.8 13.004-13.004v-1c0 7.203-5.8 13.002-13.004 13.002H17.002A12.975 12.975 0 0 1 3.998 45.998" opacity=".15"/><path fill="#fff" d="M3.998 18.004v-1C3.998 9.801 9.798 4 17.002 4h29.996c7.203 0 13.004 5.8 13.004 13.004v1c0-7.203-5.8-13.002-13.004-13.002H17.002A12.975 12.975 0 0 0 3.998 18.004" opacity=".15"/></svg>