<svg xmlns="http://www.w3.org/2000/svg" viewBox="0 0 64 64"><defs><linearGradient id="a" x1="-58.023" x2="-58.023" y1="59.971" y2="4.202" gradientTransform="translate(90.024)" gradientUnits="userSpaceOnUse"><stop offset="0" stop-color="#37414a"/><stop offset="1" stop-color="#6c7582"/></linearGradient></defs><rect width="56.002" height="56.002" x="4" y="3.969" fill="url(#a)" rx="13.002" ry="13.002" style="fill:#535c67;fill-opacity:1"/><path fill="#fff" d="M32 13a19 19 0 1 0 0 38 19 19 0 0 0 0-38m0 4a15 15 0 0 1 14.876 13h-29.75A15 15 0 0 1 32 17M17.124 34h29.752A15 15 0 0 1 32 47a15 15 0 0 1-14.876-13" overflow="visible"/><path d="M3.998 45.998v1c0 7.203 5.8 13.004 13.004 13.004h29.996c7.203 0 13.004-5.8 13.004-13.004v-1c0 7.203-5.8 13.002-13.004 13.002H17.002A12.975 12.975 0 0 1 3.998 45.998" opacity=".15"/><path fill="#fff" d="M3.998 18.004v-1C3.998 9.801 9.798 4 17.002 4h29.996c7.203 0 13.004 5.8 13.004 13.004v1c0-7.203-5.8-13.002-13.004-13.002H17.002A12.975 12.975 0 0 0 3.998 18.004" opacity=".15"/></svg>