<svg xmlns="http://www.w3.org/2000/svg" width="64" height="64" image-rendering="optimizeSpeed"><defs><linearGradient id="a" x1="7.937" x2="7.937" y1="15.081" y2="1.852" gradientTransform="scale(3.7796)" gradientUnits="userSpaceOnUse"><stop offset="0" stop-color="#767574"/><stop offset="1" stop-color="#d1e7ee"/></linearGradient></defs><rect width="56.002" height="56.002" x="4" y="3.969" fill="url(#a)" rx="13.002" ry="13.002"/><rect width="51.996" height="51.939" x="6.002" y="6" fill="#030000" rx="11" ry="11"/><rect width="46.002" height="46.002" x="9" y="9" fill="#1a211f" rx="8" ry="8"/><path fill="#a1fbe6" d="M18.203 9v3.063h-6.521v-1.038q-.155.133-.301.274v.764h-.676q-.115.146-.223.298h.899v6.524H9v.3h2.38v6.522H9v.3h2.38v6.524H9v.3h2.38v6.523H9v.3h2.38v6.524H9v.299h2.38V52.7q.147.14.302.274v-6.498h6.521V53h-6.492q.175.155.36.3h6.132V55h.3v-1.7h6.524V55h.299v-1.7h6.523V55h.301v-1.7h6.524V55h.298v-1.7h6.524V55h.3v-1.7h6.133q.185-.145.36-.3h-6.492v-6.523h6.521v6.498c.101-.09.204-.179.3-.274v-6.224H55v-.3h-2.381v-6.523h2.38v-.3h-2.38V32.83h2.38v-.299h-2.38v-6.523h2.38v-.3h-2.38v-6.522h2.38v-.301h-2.38V12.36h.898a8 8 0 0 0-.222-.298h-.676v-.764c-.097-.095-.2-.183-.3-.273v1.037h-6.522V9h-.301v3.063h-6.524V9h-.298v3.063H32.15V9h-.3v3.063h-6.524V9h-.299v3.063h-6.523V9zm-6.521 3.361h6.521v6.524h-6.521zm6.822 0h6.523v6.524h-6.523zm6.822 0h6.523v6.524h-6.523zm6.824 0h6.524v6.524H32.15zm6.823 0h6.523v6.524h-6.523zm6.824 0h6.521v6.524h-6.521zm-34.115 6.825h6.521v6.521h-6.521zm6.822 0h6.523v6.521h-6.523zm6.822 0h6.524v6.521h-6.524zm6.825 0h6.523v6.521h-6.523zm6.822 0h6.523v6.521h-6.523zm6.824 0h6.522v6.521h-6.522zm-34.115 6.822h6.522v6.523h-6.522zm6.822 0h6.524v6.523h-6.524zm6.823 0h6.523v6.523h-6.523zm6.824 0h6.523v6.523h-6.523zm6.822 0h6.524v6.523h-6.524zm6.824 0h6.522v6.523h-6.522zM11.682 32.83h6.522v6.524h-6.522zm6.823 0h6.523v6.524h-6.523zm6.822 0h6.523v6.524h-6.523zm6.824 0h6.524v6.524H32.15zm6.822 0h6.524v6.524h-6.524zm6.825 0h6.521v6.524h-6.521zm-34.115 6.824h6.521v6.524h-6.521zm6.822 0h6.523v6.524h-6.523zm6.822 0h6.524v6.524h-6.524zm6.824 0h6.524v6.524H32.15zm6.823 0h6.523v6.524h-6.523zm6.824 0h6.521v6.524h-6.521zm-27.293 6.823h6.523V53h-6.523zm6.822 0h6.524V53h-6.524zm6.824 0h6.524V53H32.15zm6.823 0h6.523V53h-6.523z" opacity=".2"/><path d="M16.339 16.644h1.6v12.8h-1.6zm3.197-.001h1.6v12.8h-1.6zm3.2 0h1.6v12.8h-1.6zm25.6 0h-1.6v12.8h1.6zm-3.2 0h-1.6v12.8h1.6zm-3.2 0h-1.6v12.8h1.6zM16.339 35.844h1.6v12.8h-1.6zm3.197-.001h1.6v12.8h-1.6zm3.2 0h1.6v12.8h-1.6zm25.6 0h-1.6v12.8h1.6zm-3.2 0h-1.6v12.8h1.6zm-3.2 0h-1.6v12.8h1.6zm-16-6.4h1.6v6.4h-1.6zm6.4 0h1.6v6.4h-1.6zm6.4 0h1.6v6.4h-1.6z"/><path fill="#999" d="M16 16h1.6v12.8H16z"/><path fill="#84dd84" d="M19.197 15.999h1.6v12.8h-1.6zm3.2 0h1.6v12.8h-1.6z"/><g stroke-width=".063"><path fill="#999" d="M47.997 15.999h-1.6v12.8h1.6z"/><path fill="#84dd84" d="M44.797 15.999h-1.6v12.8h1.6zm-3.2 0h-1.6v12.8h1.6z"/></g><path fill="#999" d="M16 35.2h1.6V48H16z"/><g stroke-width=".063"><path fill="#84dd84" d="M19.197 35.199h1.6v12.8h-1.6zm3.2 0h1.6v12.8h-1.6z"/><path fill="#999" d="M47.997 35.199h-1.6v12.8h1.6z"/><path fill="#84dd84" d="M44.797 35.199h-1.6v12.8h1.6zm-3.2 0h-1.6v12.8h1.6zm-16-6.4h1.6v6.4h-1.6zm6.4 0h1.6v6.4h-1.6zm6.4 0h1.6v6.4h-1.6z"/></g></svg>