<svg xmlns="http://www.w3.org/2000/svg" viewBox="0 0 64 64"><rect width="56.002" height="56.002" x="4" y="3.969" fill="#4d4d4d" rx="13.002" ry="13.002" style="fill:#3f3d48;fill-opacity:1"/><path d="M3.998 45.998v1c0 7.203 5.8 13.004 13.004 13.004h29.996c7.203 0 13.004-5.8 13.004-13.004v-1c0 7.203-5.8 13.002-13.004 13.002H17.002A12.975 12.975 0 0 1 3.998 45.998" opacity=".35"/><path fill="#fff" d="M3.998 18.004v-1C3.998 9.801 9.798 4 17.002 4h29.996c7.203 0 13.004 5.8 13.004 13.004v1c0-7.203-5.8-13.002-13.004-13.002H17.002A12.975 12.975 0 0 0 3.998 18.004" opacity=".15"/><path fill="url(#f)" d="M104 64c0 22.09-17.91 40-40 40S24 86.09 24 64s17.91-40 40-40 40 17.91 40 40m0 0" style="fill:#25212d;fill-opacity:1" transform="translate(6.854 6.822)scale(.39293)"/><path d="M27.437 16.011c-7.593-2.034-15.398 2.472-17.432 10.065a14.2 14.2 0 0 0 1.741 11.322 14.17 14.17 0 0 1 4.153-9.454c5.558-5.558 14.57-5.558 20.128 0a14.3 14.3 0 0 1 1.945 2.425c.286-6.522-3.969-12.599-10.535-14.358Zm0 0" style="fill:none;stroke:#000;stroke-width:.589395;stroke-dasharray:none"/><path d="M33.77 10.053a14.16 14.16 0 0 0-7.662-.08 14.2 14.2 0 0 0-8.935 7.167 14.18 14.18 0 0 1 10.263-1.129c7.594 2.036 12.099 9.839 10.065 17.432a14.2 14.2 0 0 1-1.13 2.898c5.793-3.013 8.927-9.736 7.168-16.304a14.23 14.23 0 0 0-9.77-9.984zm0 0" style="fill:none;stroke:#000;stroke-width:.589395;stroke-dasharray:none"/><path d="M41.429 12.105a14.3 14.3 0 0 0-4-.393 14.2 14.2 0 0 1 6.11 8.325c2.034 7.593-2.471 15.397-10.064 17.432a14.2 14.2 0 0 1-3.073.47c5.506 3.51 12.895 2.864 17.702-1.944 5.558-5.557 5.558-14.57 0-20.128a14.17 14.17 0 0 0-6.675-3.762zm0 0" style="fill:none;stroke:#000;stroke-width:.589395;stroke-dasharray:none"/><path d="M52.257 26.54a14.17 14.17 0 0 1-4.153 9.455c-5.558 5.558-14.57 5.558-20.128 0a14.3 14.3 0 0 1-1.945-2.425c-.286 6.522 3.969 12.6 10.535 14.358 7.593 2.033 15.398-2.472 17.432-10.065a14.2 14.2 0 0 0-1.74-11.322zm0 0" style="fill:none;stroke:#000;stroke-width:.589395;stroke-dasharray:none"/><path d="M27.63 27.598c-5.79 3.013-8.925 9.736-7.166 16.304C22.499 51.495 30.302 56 37.895 53.966a14.2 14.2 0 0 0 8.933-7.167 14.18 14.18 0 0 1-10.262 1.129c-7.593-2.036-12.098-9.839-10.064-17.432a14.3 14.3 0 0 1 1.128-2.898zm0 0" style="fill:none;stroke:#000;stroke-width:.589395;stroke-dasharray:none"/><path d="M29.352 24.183c-4.67-1.14-9.806.114-13.453 3.76-5.558 5.558-5.558 14.571 0 20.129a14.2 14.2 0 0 0 10.675 4.155 14.18 14.18 0 0 1-6.11-8.325c-2.034-7.593 2.471-15.397 10.064-17.432a14.4 14.4 0 0 1 3.073-.47 14.2 14.2 0 0 0-4.249-1.816zm0 0" style="fill:none;stroke:#000;stroke-width:.589395;stroke-dasharray:none"/><path d="M33.54 25.962a14.3 14.3 0 0 0-2.968.464c-1.252.391-1.952.649-2.942 1.172a14.3 14.3 0 0 0-1.128 2.898 14.3 14.3 0 0 0-.472 3.074c.548.86 1.194 1.675 1.945 2.426a14.2 14.2 0 0 0 2.43 1.944 14.2 14.2 0 0 0 5.968-1.6 14.2 14.2 0 0 0 1.599-5.971 14.2 14.2 0 0 0-4.431-4.407"/><path fill="url(#h)" d="M64 6C31.969 6 6 31.969 6 64s25.969 58 58 58 58-25.969 58-58S96.031 6 64 6m-.121 17.879C86.039 23.879 104 41.844 104 64s-17.96 40.121-40.121 40.121c-22.156 0-40.121-17.96-40.121-40.121 0-22.16 17.965-40.121 40.12-40.121m0 0" style="fill:#504c57;fill-opacity:1" transform="translate(6.854 6.822)scale(.39293)"/><path d="M57.57 25.53c-16.397 2.703-29.34 15.64-32.042 32.036 4.11 6.57 11.403 10.94 19.724 10.94 12.844 0 23.257-10.408 23.257-23.252 0-8.32-4.372-15.614-10.94-19.724" style="fill:#ff0808;fill-opacity:1;opacity:.35" transform="translate(6.854 6.822)scale(.39293)"/><path fill="url(#s)" d="M63.879 21.5c-23.473 0-42.5 19.027-42.5 42.5s19.027 42.5 42.5 42.5 42.5-19.027 42.5-42.5-19.027-42.5-42.5-42.5m.121 5c20.71 0 37.5 16.79 37.5 37.5S84.71 101.5 64 101.5 26.5 84.71 26.5 64 43.29 26.5 64 26.5m0 0" style="fill:#66636b;fill-opacity:1" transform="translate(6.854 6.822)scale(.39293)"/><path fill="#9a9996" d="M32.001 8.394C19.016 8.394 8.49 18.949 8.49 31.97c0 13.02 10.526 23.575 23.51 23.575S55.512 44.99 55.512 31.97 44.986 8.394 32.001 8.394m0 1.572c12.153 0 22.004 9.85 22.004 22.004 0 12.153-9.85 22.004-22.004 22.004-12.153 0-22.004-9.851-22.004-22.004s9.85-22.004 22.004-22.004m0 0"/></svg>