<svg xmlns="http://www.w3.org/2000/svg" viewBox="0 0 64 64"><rect width="56.002" height="56.002" x="4" y="3.969" fill="#f2f2f2" rx="13.002" ry="13.002"/><path d="M3.998 45.998v1c0 7.203 5.8 13.004 13.004 13.004h29.996c7.203 0 13.004-5.8 13.004-13.004v-1c0 7.203-5.8 13.002-13.004 13.002H17.002A12.975 12.975 0 0 1 3.998 45.998" opacity=".1"/><path fill="#fff" d="M3.998 18.004v-1C3.998 9.801 9.798 4 17.002 4h29.996c7.203 0 13.004 5.8 13.004 13.004v1c0-7.203-5.8-13.002-13.004-13.002H17.002A12.975 12.975 0 0 0 3.998 18.004" opacity=".5"/><path fill="#613583" d="M49.945 15.582h-35.89A3.055 3.055 0 0 0 11 18.637v26.727a3.055 3.055 0 0 0 3.054 3.055h35.891A3.055 3.055 0 0 0 53 45.364V18.637a3.055 3.055 0 0 0-3.055-3.055"/><path fill="#c061cb" d="M49.945 15.582h-35.89c-1.688 0-3.055 1.406-3.055 3.14v21.976c0 1.733 1.367 3.139 3.054 3.139h35.891c1.687 0 3.055-1.406 3.055-3.14V18.723c0-1.734-1.368-3.14-3.055-3.14"/><path d="M39.636 20.546H24.364a1.527 1.527 0 0 0-1.528 1.527v15.273a1.527 1.527 0 0 0 1.528 1.527h15.272a1.527 1.527 0 0 0 1.528-1.527V22.073a1.527 1.527 0 0 0-1.528-1.527"/><path fill="#7f9b97" d="M38.49 23.6H25.51a.764.764 0 0 0-.764.764v10.691a.764.764 0 0 0 .764.764h12.982a.764.764 0 0 0 .763-.764v-10.69a.764.764 0 0 0-.763-.765"/><path d="M46.51 27.8v-.381a1.91 1.91 0 0 0-3.82 0v.381a1.91 1.91 0 0 0 3.82 0m4.58-2.29v-.382a1.91 1.91 0 0 0-3.817 0v.382a1.91 1.91 0 0 0 3.818 0"/><path fill="#3d3846" d="M44.6 28.946c1.054 0 1.91-.77 1.91-1.718s-.856-1.718-1.91-1.718-1.91.769-1.91 1.718.856 1.718 1.91 1.718m4.582-2.291c1.054 0 1.909-.77 1.909-1.718s-.855-1.718-1.91-1.718-1.908.769-1.908 1.718.855 1.718 1.909 1.718"/><path d="M18.635 26.082a1.336 1.336 0 1 0-2.672 0v4.964a1.336 1.336 0 1 0 2.672 0z"/><path d="M20.163 26.655h-5.727a1.145 1.145 0 0 0-1.145 1.145v.764a1.145 1.145 0 0 0 1.145 1.146h5.727a1.145 1.145 0 0 0 1.146-1.146V27.8a1.145 1.145 0 0 0-1.146-1.145"/><path fill="#3d3846" d="M18.635 25.319a1.336 1.336 0 1 0-2.672 0v4.963a1.336 1.336 0 1 0 2.672 0z"/><path fill="#3d3846" d="M20.163 26.655h-5.727a1.145 1.145 0 1 0 0 2.291h5.727a1.145 1.145 0 1 0 0-2.291"/><path d="M34.673 46.128a.764.764 0 1 1 1.527 0 .764.764 0 0 1-1.527 0"/><path fill="#9141ac" d="M34.697 45.937a.764.764 0 0 0 1.48 0 .763.763 0 0 1-1.076.876.76.76 0 0 1-.404-.876"/><path d="M32.764 45.364h-3.819a.764.764 0 1 0 0 1.528h3.819a.764.764 0 1 0 0-1.528"/><path fill="#9141ac" d="M28.206 45.937a.764.764 0 0 0 .74.954h3.818a.77.77 0 0 0 .604-.295.76.76 0 0 0 .136-.66.76.76 0 0 1-.74.574h-3.818a.76.76 0 0 1-.74-.573"/><path fill="#613583" d="M49.564 32.764h-5.346a.382.382 0 1 0 0 .764h5.346a.382.382 0 0 0 0-.764m0 1.91h-5.346a.382.382 0 1 0 0 .763h5.346a.382.382 0 0 0 0-.764m0 1.908h-5.346a.382.382 0 1 0 0 .764h5.346a.382.382 0 0 0 0-.764"/><path d="M15.772 34.673h-1.146a.955.955 0 0 0 0 1.91h1.146a.955.955 0 0 0 0-1.91m4.2 0h-1.146a.955.955 0 0 0 0 1.91h1.146a.955.955 0 0 0 0-1.91"/><path fill="#3d3846" d="M15.963 34.673h-1.528a.764.764 0 1 0 0 1.528h1.528a.764.764 0 1 0 0-1.528m4.2 0h-1.528a.764.764 0 1 0 0 1.528h1.528a.764.764 0 1 0 0-1.528"/></svg>