<svg xmlns="http://www.w3.org/2000/svg" width="64" height="64"><defs><linearGradient id="a" x1="7.937" x2="7.937" y1="15.081" y2="1.852" gradientTransform="scale(3.7796)" gradientUnits="userSpaceOnUse"><stop offset="0" stop-color="#f1efeb"/><stop offset="1" stop-color="#fdfcfc"/></linearGradient></defs><linearGradient id="b" x1="82.576" x2="114.92" y1="97.328" y2="97.328" gradientTransform="matrix(-.39484 0 0 .39484 57.366 7.915)" gradientUnits="userSpaceOnUse"><stop offset="0" stop-color="#ff6d00"/><stop offset=".249" stop-color="#ff9b00"/><stop offset=".513" stop-color="#ffc600"/><stop offset=".721" stop-color="#ffe000"/><stop offset=".844" stop-color="#ffea00"/></linearGradient><rect width="64" height="64" fill="none" rx="0" ry="0" style="paint-order:stroke fill markers"/><rect width="56.002" height="56.002" x="4" y="3.969" fill="url(#a)" rx="13.002" ry="13.002"/><linearGradient id="c" x1="93.545" x2="110.29" y1="91.956" y2="109.21" gradientTransform="matrix(-.39484 0 0 .39484 57.366 7.915)" gradientUnits="userSpaceOnUse"><stop offset=".004" stop-color="#c62828"/><stop offset=".271" stop-color="#d75327"/><stop offset=".598" stop-color="#e98126"/><stop offset=".85" stop-color="#f59d25"/><stop offset=".995" stop-color="#f9a825"/></linearGradient><radialGradient id="d" cx="46.5" cy="32.5" r="36.473" gradientTransform="matrix(-.39484 0 0 .39484 57.366 7.915)" gradientUnits="userSpaceOnUse"><stop offset=".011" stop-color="#f5f5f5"/><stop offset="1" stop-color="#bdbdbd"/></radialGradient><g transform="translate(.013 -.858)scale(.99935)"><g stroke-width=".395"><path fill="url(#b)" d="M15.399 43.613c-3.23 3.23-3.404 9.117-3.404 9.117s5.884-.174 9.117-3.404 4.573-7.127 2.993-8.702c-1.58-1.58-5.476-.24-8.706 2.99z"/><path fill="url(#c)" d="M16.378 44.75c-2.033 2.033-2.144 5.737-2.144 5.737s3.704-.11 5.737-2.144c2.033-2.033 2.878-4.49 1.883-5.48-.994-.991-3.439-.15-5.476 1.887"/><path fill="#546e7a" d="M20.547 44.786c1.935 2.065 4.474 1.848 4.683 1.508l1.769-2.874c.106-.174.008-.45-.067-.521l-4.774-4.774c-.075-.075-.34-.162-.513-.055l-2.875 1.769c-.335.209-.714 2.282 1.777 4.947"/><path fill="#0288d1" d="M33.546 50.037c-.395.32-.924.249-.991-.225-.186-1.311-.063-3.945-1.714-5.595-1.61-1.611-4.228-1.848-4.228-1.848l9.855-4.856s1.856 2.862.833 6.937c-.853 3.368-2.31 4.406-3.755 5.587m-18.74-18.174c-.387.332-.249.924.225.991 1.311.186 3.945.063 5.595 1.714 1.611 1.61 1.947 3.893 1.947 3.893l4.761-10.08s-2.519-1.18-6.183-.23c-2.527.66-5.034 2.583-6.345 3.712"/><path fill="url(#d)" d="M39.839 15.216c1.6.734 3.755 1.998 5.812 4.055a19.4 19.4 0 0 1 1.883 2.195 20.2 20.2 0 0 1 2.216 3.787c-1.039 2.728-2.997 5.903-4.912 7.818-7.822 7.822-16.461 12.288-20.931 9.125-.26-.186-.517-.356-.75-.565-3.834-3.447.556-13.314 8.532-21.29 2.002-2.002 5.338-4.047 8.15-5.125"/></g><circle cx="7.929" cy="45.468" r="3.514" fill="#455a64" transform="rotate(-45)"/><path fill="#424242" d="M37.758 23.82c.727 0 1.414.284 1.927.797s.798 1.2.798 1.927-.284 1.413-.798 1.927-1.2.797-1.927.797-1.413-.284-1.926-.797a2.73 2.73 0 0 1 0-3.854 2.7 2.7 0 0 1 1.926-.798m0-.79c-.9 0-1.8.344-2.487 1.031a3.513 3.513 0 0 0 0 4.971c.687.687 1.587 1.03 2.487 1.03s1.8-.343 2.488-1.03a3.513 3.513 0 0 0 0-4.97 3.5 3.5 0 0 0-2.488-1.031z" opacity=".2"/><circle cx="-2.637" cy="45.786" r="2.543" fill="#455a64" transform="rotate(-45)"/><path fill="#e53935" d="M39.839 15.216c-.73 3.605 5.634 10.665 9.91 10.037 1.331-3.44 1.876-5.773 2.24-9.788.185-2.034-.411-2.614-2.295-2.393-4.994.584-6.969.964-9.855 2.144"/><path fill="#424242" d="M30.51 32.486c.469 0 .907.182 1.239.513s.513.77.513 1.24-.181.908-.513 1.24-.77.513-1.24.513-.908-.181-1.24-.513-.513-.77-.513-1.24.182-.908.513-1.24a1.75 1.75 0 0 1 1.24-.513m0-.79a2.543 2.543 0 0 0 0 5.086 2.543 2.543 0 0 0 0-5.086" opacity=".2"/></g></svg>