<svg xmlns="http://www.w3.org/2000/svg" viewBox="0 0 64 64"><rect width="56.002" height="56.002" x="4" y="3.969" fill="#f2f2f2" rx="13.002" ry="13.002"/><path d="M3.998 45.998v1c0 7.203 5.8 13.004 13.004 13.004h29.996c7.203 0 13.004-5.8 13.004-13.004v-1c0 7.203-5.8 13.002-13.004 13.002H17.002A12.975 12.975 0 0 1 3.998 45.998" opacity=".1"/><path fill="#fff" d="M3.998 18.004v-1C3.998 9.801 9.798 4 17.002 4h29.996c7.203 0 13.004 5.8 13.004 13.004v1c0-7.203-5.8-13.002-13.004-13.002H17.002A12.975 12.975 0 0 0 3.998 18.004" opacity=".5"/><circle cx="-50.324" cy="49.399" r="2.9" style="display:inline;fill:#959496;fill-opacity:1;stroke:none;stroke-width:.48327;stroke-opacity:1" transform="rotate(-90)"/><rect width="2.416" height="2.9" x="11.704" y="-52.257" rx=".967" ry=".967" style="display:inline;fill:#959496;fill-opacity:1;stroke:none;stroke-width:.48327;stroke-opacity:1" transform="scale(1 -1)"/><rect width="2.416" height="2.9" x="16.537" y="-52.257" rx=".967" ry=".967" style="display:inline;fill:#959496;fill-opacity:1;stroke:none;stroke-width:.48327;stroke-opacity:1" transform="scale(1 -1)"/><circle cx="51.332" cy="50.324" r=".483" style="fill:#241f31;fill-opacity:1;stroke:none;stroke-width:.48327;stroke-opacity:1"/><path d="M-100-248h72v48h-72z" style="display:inline;opacity:1;vector-effect:none;fill:#2f77cc;fill-opacity:1;stroke:none;stroke-width:.011211px;stroke-linecap:butt;stroke-linejoin:miter;stroke-miterlimit:4;stroke-dasharray:none;stroke-dashoffset:0;stroke-opacity:1;marker:none;marker-start:none;marker-mid:none;marker-end:none;paint-order:normal" transform="matrix(-.59524 0 0 -.61772 -6.095 -112.813)"/><g style="display:inline;stroke-width:.707107"><g style="fill:#abdaff;fill-opacity:1;stroke-width:.707107"><path d="M60 200h2v48h-2z" style="opacity:.55;fill:#abdaff;fill-opacity:1;stroke:none;stroke-width:.707107;stroke-opacity:1" transform="matrix(1.19048 0 0 .61772 -44.19 -112.813)"/><path d="M66 200h4v48h-4z" style="opacity:.2;fill:#abdaff;fill-opacity:1;stroke:none;stroke-width:.707107;stroke-opacity:1" transform="matrix(1.19048 0 0 .61772 -44.19 -112.813)"/><path d="M46 200h2v48h-2z" style="opacity:.4;fill:#abdaff;fill-opacity:1;stroke:none;stroke-width:.707107;stroke-opacity:1" transform="matrix(1.19048 0 0 .61772 -44.19 -112.813)"/><path d="M80 200h2v48h-2z" style="opacity:.55;fill:#abdaff;fill-opacity:1;stroke:none;stroke-width:.707107;stroke-opacity:1" transform="matrix(1.19048 0 0 .61772 -44.19 -112.813)"/><path d="M54 200h1v48h-1z" style="opacity:.2;fill:#abdaff;fill-opacity:1;stroke:none;stroke-width:.707107;stroke-opacity:1" transform="matrix(1.19048 0 0 .61772 -44.19 -112.813)"/><path d="M75 200h1v48h-1z" style="opacity:.55;fill:#abdaff;fill-opacity:1;stroke:none;stroke-width:.707107;stroke-opacity:1" transform="matrix(1.19048 0 0 .61772 -44.19 -112.813)"/></g><g style="stroke-width:.707107"><path d="M62 200h4v48h-4z" style="opacity:.4;fill:#023b83;fill-opacity:1;stroke:none;stroke-width:.707107;stroke-opacity:1" transform="matrix(1.19048 0 0 .61772 -44.19 -112.813)"/><path d="M76 200h4v48h-4z" style="opacity:.2;fill:#023b83;fill-opacity:1;stroke:none;stroke-width:.707107;stroke-opacity:1" transform="matrix(1.19048 0 0 .61772 -44.19 -112.813)"/><path d="M52 200h2v48h-2z" style="opacity:.55;fill:#023b83;fill-opacity:1;stroke:none;stroke-width:.707107;stroke-opacity:1" transform="matrix(1.19048 0 0 .61772 -44.19 -112.813)"/></g></g><path d="M53.429 40.382H10.57V10.73h42.86z" style="display:inline;opacity:.15;vector-effect:none;fill:#0069eb;fill-opacity:1;stroke:none;stroke-width:.00679808px;stroke-linecap:butt;stroke-linejoin:miter;stroke-miterlimit:4;stroke-dasharray:none;stroke-dashoffset:0;stroke-opacity:1;marker:none;marker-start:none;marker-mid:none;marker-end:none;paint-order:normal"/><path d="M34.002-187.418a20.256 20.256 0 0 1-20.3-20.3v-32.563c0-11.247 9.054-20.3 20.3-20.3h59.996c11.246 0 20.3 9.053 20.3 20.3v32.562c0 11.246-9.054 20.3-20.3 20.3zm-.287-5.905h60.57c7.787 0 14.056-6.249 14.056-14.008v-33.338c0-7.76-6.27-14.008-14.056-14.008h-60.57c-7.787 0-14.057 6.248-14.057 14.008v33.338c0 7.76 6.27 14.008 14.057 14.008" style="display:inline;opacity:1;vector-effect:none;fill:#241f31;fill-opacity:1;stroke:none;stroke-width:.0128163px;stroke-linecap:butt;stroke-linejoin:miter;stroke-miterlimit:4;stroke-dasharray:none;stroke-dashoffset:0;stroke-opacity:1;marker:none;marker-start:none;marker-mid:none;marker-end:none;paint-order:normal" transform="matrix(.48327 0 0 -.48327 1.072 -82.696)"/></svg>