<svg xmlns="http://www.w3.org/2000/svg" viewBox="0 0 64 64"><rect width="56.002" height="56.002" x="4" y="3.969" fill="#8f5593" rx="13.002" ry="13.002"/><path fill="#fff" d="M31.998 14A20.002 16.498 0 0 0 12 30.502a20.002 16.498 0 0 0 7.918 13.123l.102.064a20.002 16.498 0 0 0 .2.125c.515.34 1.478 1.134 1.27 2.154-.28 1.376-1.75 2.805-2.018 3.145s-.48.718.167.737c.725.023 1.973-.382 2.985-.88s2.23-1.664 3.013-1.902c.74-.302 1.663-.404 3.167-.302a20.002 16.498 0 0 0 3.194.234A20.002 16.498 0 0 0 52 30.502 20.002 16.498 0 0 0 31.998 14"/><path d="M3.998 45.998v1c0 7.203 5.8 13.004 13.004 13.004h29.996c7.203 0 13.004-5.8 13.004-13.004v-1c0 7.203-5.8 13.002-13.004 13.002H17.002A12.975 12.975 0 0 1 3.998 45.998" opacity=".15"/><path fill="#fff" d="M3.998 18.004v-1C3.998 9.801 9.798 4 17.002 4h29.996c7.203 0 13.004 5.8 13.004 13.004v1c0-7.203-5.8-13.002-13.004-13.002H17.002A12.975 12.975 0 0 0 3.998 18.004" opacity=".15"/></svg>