<svg xmlns="http://www.w3.org/2000/svg" viewBox="0 0 16.933 16.933"><rect width="14.816" height="14.816" x="1.058" y="1.058" fill="#4de272" rx="3.44" ry="3.44"/><path fill="#fff" d="M8.149 3.704a.635.635 0 1 0 0 1.27s.118-.006.394.086c.277.093.66.28 1.062.68.401.402.588.785.68 1.062s.086.395.086.395a.635.635 0 1 0 1.27 0s-.006-.36-.151-.797a4 4 0 0 0-.987-1.557 4 4 0 0 0-1.558-.987c-.437-.146-.796-.152-.796-.152m-.635 1.588s-.359.006-.796.152-1.007.435-1.558.986a4 4 0 0 0-.986 1.558c-.146.437-.152.796-.152.796a.635.635 0 1 0 1.27 0s-.006-.117.086-.394a2.7 2.7 0 0 1 .68-1.062 2.7 2.7 0 0 1 1.062-.68c.277-.092.394-.086.394-.086a.635.635 0 1 0 0-1.27m4.753 2.214a.635.635 0 0 0-.626.643s.007.118-.086.395a2.7 2.7 0 0 1-.68 1.061c-.401.402-.785.588-1.062.68s-.394.087-.394.087a.635.635 0 1 0 0 1.27s.359-.007.796-.152 1.007-.436 1.558-.987.84-1.12.986-1.558.152-.796.152-.796a.635.635 0 0 0-.644-.643m-6.35 1.587a.635.635 0 0 0-.625.644s.006.358.152.796c.145.437.435 1.006.986 1.558.551.55 1.12.84 1.558.986s.796.152.796.152a.635.635 0 1 0 0-1.27s-.117.006-.394-.086a2.7 2.7 0 0 1-1.062-.68 2.7 2.7 0 0 1-.68-1.062c-.092-.277-.086-.394-.086-.394a.635.635 0 0 0-.645-.644"/><path d="M1.058 12.17v.265a3.433 3.433 0 0 0 3.44 3.44h7.937a3.433 3.433 0 0 0 3.44-3.44v-.265a3.433 3.433 0 0 1-3.44 3.44H4.498a3.433 3.433 0 0 1-3.44-3.44" opacity=".15"/><path fill="#fff" d="M1.058 4.763V4.5a3.433 3.433 0 0 1 3.44-3.44h7.937a3.433 3.433 0 0 1 3.44 3.44v.265a3.433 3.433 0 0 0-3.44-3.44H4.498a3.433 3.433 0 0 0-3.44 3.44z" opacity=".15"/></svg>