<svg xmlns="http://www.w3.org/2000/svg" xml:space="preserve" width="64" height="64"><defs><linearGradient id="a" x1="7.937" x2="7.937" y1="15.081" y2="1.852" gradientTransform="scale(3.7796)" gradientUnits="userSpaceOnUse"><stop offset="0" stop-color="#363636" style="stop-color:#000;stop-opacity:1"/><stop offset="1" stop-color="#6c6c6c"/></linearGradient></defs><rect width="56.002" height="56.002" x="4" y="3.969" fill="url(#a)" rx="13.002" ry="13.002" style="fill:#000;fill-opacity:1"/><path d="M28.195 17.831c-5.929.66-10.212 5.27-10.212 11.2v.988L6.514 37.556V45.4c0 .47.033.931.085 1.387a11.865 11.865 0 0 0 10.432 10.43c.455.052.915.084 1.385.084h7.857c.956-.969 1.612-1.943 2.58-3.235 2.965-4.283 4.282-8.894 4.282-13.835 0-3.953 1.319-7.577 3.625-10.542 2.305-3.294 5.598-4.61 9.551-4.61 2.306 0 4.284.329 6.26.988-1.976-1.318-4.283-2.306-6.589-2.965-1.317-.33-2.634-.329-3.952-.329-.988 0-1.976 0-2.964.33-1.977-3.295-5.601-5.272-9.554-5.272zm5.6 3.623a1.647 1.647 0 0 1 1.646 1.648 1.647 1.647 0 0 1-1.646 1.646 1.647 1.647 0 0 1-1.648-1.646 1.647 1.647 0 0 1 1.648-1.648" style="display:inline;fill:#fff;fill-opacity:1;stroke-width:3.29409"/></svg>