<svg xmlns="http://www.w3.org/2000/svg" xml:space="preserve" viewBox="0 0 64 64"><rect width="56.002" height="56.002" x="4" y="3.969" fill="#4d4d4d" rx="13.002" ry="13.002"/><path d="M3.998 45.998v1c0 7.203 5.8 13.004 13.004 13.004h29.996c7.203 0 13.004-5.8 13.004-13.004v-1c0 7.203-5.8 13.002-13.004 13.002H17.002A12.975 12.975 0 0 1 3.998 45.998" opacity=".35"/><path fill="#fff" d="M3.998 18.004v-1C3.998 9.801 9.798 4 17.002 4h29.996c7.203 0 13.004 5.8 13.004 13.004v1c0-7.203-5.8-13.002-13.004-13.002H17.002A12.975 12.975 0 0 0 3.998 18.004" opacity=".15"/><path d="M28.195 17.831c-5.929.66-10.212 5.27-10.212 11.2v.988L6.514 37.556V45.4c0 .47.033.931.085 1.387a11.865 11.865 0 0 0 10.432 10.43c.455.052.915.084 1.385.084h7.857c.956-.969 1.612-1.943 2.58-3.235 2.965-4.283 4.282-8.894 4.282-13.835 0-3.953 1.319-7.577 3.625-10.542 2.305-3.294 5.598-4.61 9.551-4.61 2.306 0 4.284.329 6.26.988-1.976-1.318-4.283-2.306-6.589-2.965-1.317-.33-2.634-.329-3.952-.329-.988 0-1.976 0-2.964.33-1.977-3.295-5.601-5.272-9.554-5.272zm5.6 3.623a1.647 1.647 0 0 1 1.646 1.648 1.647 1.647 0 0 1-1.646 1.646 1.647 1.647 0 0 1-1.648-1.646 1.647 1.647 0 0 1 1.648-1.648" style="display:inline;fill:#fff;fill-opacity:1;stroke-width:3.29409"/></svg>