<svg xmlns="http://www.w3.org/2000/svg" viewBox="0 0 64 64"><path fill="#44d993" d="M17.001 3.999A12.973 12.973 0 0 0 3.999 17.001v29.998a12.973 12.973 0 0 0 13.002 13.002h29.998a12.973 12.973 0 0 0 13.002-13.002V17.001A12.973 12.973 0 0 0 46.999 3.999z"/><path d="M3.998 45.998v1c0 7.203 5.8 13.004 13.004 13.004h29.996c7.203 0 13.004-5.8 13.004-13.004v-1c0 7.203-5.8 13.002-13.004 13.002H17.002A12.975 12.975 0 0 1 3.998 45.998" opacity=".15"/><path fill="#fff" d="M3.998 18.004v-1C3.998 9.801 9.798 4 17.002 4h29.996c7.203 0 13.004 5.8 13.004 13.004v1c0-7.203-5.8-13.002-13.004-13.002H17.002A12.975 12.975 0 0 0 3.998 18.004" opacity=".15"/><g stroke-width="1.304"><path fill="#e6a042" d="m21.565 32 5.217-2.609V22.87l-5.217-2.61-5.217 2.61v6.521zM41.13 43.739l5.217-2.609v-6.52L41.13 32l-5.217 2.61v6.521z"/><rect width="18.261" height="33.913" x="22.87" y="15.043" fill="#3d3d3d" ry="1.304"/><path fill="#933bb9" d="M24.174 17.652h15.652v27.391H24.174z"/><rect width="5.217" height="1.304" x="29.391" y="46.348" fill="#666" ry=".652"/><path fill="#5be19b" d="M26.125 34.609a.65.65 0 0 0-.532 1.019l1.976 2.965a7.81 7.81 0 0 0-3.395 6.45h15.652a7.81 7.81 0 0 0-3.396-6.45l1.977-2.965a.65.65 0 0 0-.553-1.019.65.65 0 0 0-.53.298l-2.03 3.044A7.8 7.8 0 0 0 32 37.218a7.8 7.8 0 0 0-3.294.733l-2.03-3.044a.65.65 0 0 0-.551-.298m2.614 6.522a.65.65 0 0 1 .652.652.65.65 0 0 1-.652.652.65.65 0 0 1-.652-.652.65.65 0 0 1 .652-.652m6.522 0a.65.65 0 0 1 .652.652.65.65 0 0 1-.652.652.65.65 0 0 1-.653-.652.65.65 0 0 1 .653-.652"/><path fill="#666" d="M30.696 15.043v.652c0 .361.29.652.652.652h1.304a.65.65 0 0 0 .653-.652v-.652z"/><path fill="#495dae" d="m46.348 29.391 3.913-1.956v-5.218l-3.913-1.956-3.913 1.956v5.218zm-28.696 15 3.913-1.956v-5.218l-3.913-1.956-3.913 1.956v5.218z"/></g></svg>