<svg xmlns="http://www.w3.org/2000/svg" viewBox="0 0 64 64"><rect width="56.002" height="56.002" x="4" y="3.969" fill="#ccc" rx="13.002" ry="13.002"/><path d="M3.998 45.998v1c0 7.203 5.8 13.004 13.004 13.004h29.996c7.203 0 13.004-5.8 13.004-13.004v-1c0 7.203-5.8 13.002-13.004 13.002H17.002A12.975 12.975 0 0 1 3.998 45.998" opacity=".12"/><path fill="#fff" d="M3.998 18.004v-1C3.998 9.801 9.798 4 17.002 4h29.996c7.203 0 13.004 5.8 13.004 13.004v1c0-7.203-5.8-13.002-13.004-13.002H17.002A12.975 12.975 0 0 0 3.998 18.004" opacity=".2"/><path fill="#c2352a" d="M50.75 50.3V15.2H22.83c-3.702 1.002-3.358 2.203-3.58 3.375V50.3c.658 2.41 2.51 2.491 4.296 2.7H47.17c1.47-.066 3.123-.648 3.58-2.7"/><path fill="#e4e4e4" d="M44.75 13.786V50H16.83c-3.702-1.034-3.358-2.272-3.58-3.482V13.786c.658-2.487 2.51-2.57 4.296-2.786H41.17c1.47.069 3.123.669 3.58 2.786"/><path fill="#90caf9" d="m41.75 23-6.75.75v6.75h6.75z"/><path fill="#bdbdbd" d="M41.75 14.75H30.5V23l11.25-2.25z"/><path fill="#ffcc80" d="M28.25 14.75h-12v10.5l12-2.25z"/><path fill="#ff8a80" d="m41.75 41.75-25.5-4.5v10.5h25.5z"/><path fill="#bdbdbd" d="m33.5 23.75-17.25 3v9l17.25 3zM41.75 32H35v6.75l6.75 1.5z"/><path fill="#df574d" d="M44.75 13.8v36.4c0-1.367.532-3.2 3-3.2s3 1.766 3 3.2V13.8c0-2.8-3-2.8-3-2.8s-3 0-3 2.8"/><path fill="#fafafa" d="m19.25 11-6 6h1.705c1.786-.216 3.637-.299 4.295-2.786z"/></svg>