<svg xmlns="http://www.w3.org/2000/svg" xmlns:xlink="http://www.w3.org/1999/xlink" xml:space="preserve" width="64" height="64"><defs><linearGradient id="a" x1="7.937" x2="7.937" y1="15.081" y2="1.852" gradientTransform="scale(3.7796)" gradientUnits="userSpaceOnUse"><stop offset="0" stop-color="#363636" style="stop-color:#0089bc;stop-opacity:1"/><stop offset="1" stop-color="#6c6c6c" style="stop-color:#00adee;stop-opacity:1"/></linearGradient><linearGradient id="b" x1="7.937" x2="7.937" y1="15.081" y2="1.852" gradientTransform="scale(3.7796)" gradientUnits="userSpaceOnUse"><stop offset="0" stop-color="#363636"/><stop offset="1" stop-color="#6c6c6c"/></linearGradient><linearGradient xlink:href="#a" id="c" x1="7.937" x2="7.937" y1="15.081" y2="1.852" gradientTransform="translate(4.343 4.338)scale(3.2667)" gradientUnits="userSpaceOnUse"/><filter id="d" width="1.322" height="1.271" x="-.161" y="-.135" style="color-interpolation-filters:sRGB"><feGaussianBlur stdDeviation="2.189"/></filter></defs><rect width="56.002" height="56.002" x="4" y="3.969" fill="url(#b)" rx="13.002" ry="13.002"/><rect width="48.402" height="48.402" x="7.8" y="7.768" fill="url(#b)" rx="9.282" ry="9.282" style="fill:url(#c)"/><path d="m40.996 36.934 7.345 2.33q-1.689 6.141-5.63 9.135-3.916 2.969-9.955 2.969-7.473 0-12.284-5.093-4.811-5.118-4.811-13.973 0-9.366 4.837-14.536 4.836-5.195 12.719-5.195 6.884 0 11.183 4.07 2.56 2.405 3.839 6.909l-7.499 1.791q-.665-2.917-2.789-4.606-2.099-1.69-5.118-1.69-4.172 0-6.782 2.995-2.585 2.994-2.585 9.7 0 7.114 2.56 10.133 2.559 3.02 6.653 3.02 3.02 0 5.195-1.92t3.122-6.039" aria-label="C" style="font-weight:700;font-size:52.4111px;font-family:Arial;-inkscape-font-specification:&quot;Arial Bold&quot;;text-align:end;text-anchor:end;opacity:.25;stroke-width:13.0135;stroke-linecap:round;stroke-linejoin:round;paint-order:markers stroke fill;filter:url(#d)"/><path d="m40.996 36.934 7.345 2.33q-1.689 6.141-5.63 9.135-3.916 2.969-9.955 2.969-7.473 0-12.284-5.093-4.811-5.118-4.811-13.973 0-9.366 4.837-14.536 4.836-5.195 12.719-5.195 6.884 0 11.183 4.07 2.56 2.405 3.839 6.909l-7.499 1.791q-.665-2.917-2.789-4.606-2.099-1.69-5.118-1.69-4.172 0-6.782 2.995-2.585 2.994-2.585 9.7 0 7.114 2.56 10.133 2.559 3.02 6.653 3.02 3.02 0 5.195-1.92t3.122-6.039" aria-label="C" style="font-weight:700;font-size:52.4111px;font-family:Arial;-inkscape-font-specification:&quot;Arial Bold&quot;;text-align:end;text-anchor:end;fill:#fff;stroke-width:13.0135;stroke-linecap:round;stroke-linejoin:round;paint-order:markers stroke fill"/></svg>