<svg xmlns="http://www.w3.org/2000/svg" viewBox="0 0 64 64"><defs><filter id="a" width="1.019" height="1.021" x="0" y="0" style="color-interpolation-filters:sRGB"><feFlood flood-color="#414141" flood-opacity=".498" result="flood"/><feGaussianBlur in="SourceGraphic" result="blur"/><feOffset dx=".6" dy=".8" in="blur" result="offset"/><feComposite in="flood" in2="offset" operator="in" result="comp1"/><feComposite in="SourceGraphic" in2="comp1" result="comp2"/></filter></defs><rect width="56.002" height="56.002" x="4" y="3.969" fill="#1eadf4" rx="13.002" ry="13.002" style="fill:#00aced;fill-opacity:1"/><circle cx="32.02" cy="32.044" r="30.001" fill="none"/><path d="M3.998 45.998v1c0 7.203 5.8 13.004 13.004 13.004h29.996c7.203 0 13.004-5.8 13.004-13.004v-1c0 7.203-5.8 13.002-13.004 13.002H17.002A12.975 12.975 0 0 1 3.998 45.998" opacity=".15"/><path fill="#fff" d="M3.998 18.004v-1C3.998 9.801 9.798 4 17.002 4h29.996c7.203 0 13.004 5.8 13.004 13.004v1c0-7.203-5.8-13.002-13.004-13.002H17.002A12.975 12.975 0 0 0 3.998 18.004" opacity=".15"/><text xml:space="preserve" x="50.232" y="50.356" style="font-size:51.1626px;font-family:Bahnschrift;-inkscape-font-specification:&quot;Bahnschrift, Normal&quot;;text-align:end;text-anchor:end;fill:#00aced;fill-opacity:1;stroke-width:7.04255;stroke-linejoin:round;filter:url(#a)"><tspan x="50.232" y="50.356" style="font-style:normal;font-variant:normal;font-weight:400;font-stretch:normal;font-size:51.1626px;font-family:Arial;-inkscape-font-specification:&quot;Arial, Normal&quot;;font-variant-ligatures:normal;font-variant-caps:normal;font-variant-numeric:normal;font-variant-east-asian:normal;fill:#fff;fill-opacity:1;stroke-width:7.04255">C</tspan></text></svg>