<svg xmlns="http://www.w3.org/2000/svg" width="64" height="64" fill="none"><defs><linearGradient id="a" x1="32.001" x2="32.001" y1="3.969" y2="64" gradientUnits="userSpaceOnUse"><stop offset="0" stop-color="#fad83b"/><stop offset="1" stop-color="#c8ae35"/></linearGradient></defs><rect width="56.002" height="56.002" x="4" y="3.969" fill="url(#a)" rx="13.002" ry="13.002"/><path fill="#000" fill-opacity=".8" fill-rule="evenodd" d="M24.79 24.044c-.614.511-1.227 1.074-1.739 1.688V17.6l1.739-1.023zm2.761-1.585c.503-.229 1.046-.376 1.558-.514l.181-.049v-7.363c-.614.153-1.176.306-1.739.562z" clip-rule="evenodd"/><path fill="#000" fill-opacity=".8" d="M17.002 3.969a13 13 0 0 0-3.002.36v32.55c0 4.142 2.2 8.029 5.83 10.125l6.34 3.682c1.79 1.023 3.836 1.584 5.83 1.584s4.038-.51 5.828-1.584l6.342-3.682A11.64 11.64 0 0 0 50 36.88v-7.312c.051-4.193-2.2-8.029-5.78-10.125l-6.34-3.682c-1.789-1.023-3.835-1.586-5.83-1.586v7.313c1.995 0 4.041.512 5.83 1.586 3.631 2.096 5.829 5.931 5.829 10.125 0 4.142-2.198 8.028-5.828 10.125-1.79 1.022-3.836 1.584-5.83 1.584s-4.04-.51-5.83-1.584c-3.63-2.097-5.828-5.932-5.828-10.125V3.968z"/></svg>