<svg xmlns="http://www.w3.org/2000/svg" fill="none" viewBox="0 0 64 64"><rect width="56.002" height="56.002" x="4" y="3.969" fill="#ffd923" rx="13.002" ry="13.002"/><path fill="#000" d="M3.998 45.998v1c0 7.203 5.8 13.004 13.004 13.004h29.996c7.203 0 13.004-5.8 13.004-13.004v-1c0 7.203-5.8 13.002-13.004 13.002H17.002A12.975 12.975 0 0 1 3.998 45.998" opacity=".15"/><path fill="#fff" d="M3.998 18.004v-1C3.998 9.801 9.798 4 17.002 4h29.996c7.203 0 13.004 5.8 13.004 13.004v1c0-7.203-5.8-13.002-13.004-13.002H17.002A12.975 12.975 0 0 0 3.998 18.004" opacity=".15"/><path fill="#000" d="M25.076 23.236c-.588.49-1.176 1.029-1.666 1.617v-7.79l1.666-.98zm2.646-1.52c.482-.218 1.002-.359 1.492-.491l.174-.047v-7.056c-.588.147-1.127.294-1.666.54z"/><path fill="#000" d="M16.375 4q-.833.038-1.637.178v31.355a11.21 11.21 0 0 0 5.586 9.7l6.074 3.528c1.715.98 3.676 1.52 5.586 1.52s3.871-.49 5.586-1.52l6.076-3.527a11.15 11.15 0 0 0 5.586-9.701v-7.006c.05-4.018-2.107-7.692-5.537-9.701l-6.076-3.53c-1.715-.98-3.675-1.517-5.586-1.517v7.006c1.911 0 3.871.49 5.586 1.52a11.15 11.15 0 0 1 5.586 9.7 11.21 11.21 0 0 1-5.586 9.702c-1.715.98-3.675 1.519-5.586 1.519-1.91 0-3.871-.49-5.586-1.52-3.479-2.008-5.584-5.683-5.584-9.7V3.998h-4.488z"/></svg>