<svg xmlns="http://www.w3.org/2000/svg" viewBox="0 0 64 64"><rect width="56.002" height="56.002" x="4" y="3.969" fill="#1eadf4" rx="13.002" ry="13.002" style="fill:#295877"/><circle cx="32.02" cy="32.044" r="30.001" fill="none"/><path d="M3.998 45.998v1c0 7.203 5.8 13.004 13.004 13.004h29.996c7.203 0 13.004-5.8 13.004-13.004v-1c0 7.203-5.8 13.002-13.004 13.002H17.002A12.975 12.975 0 0 1 3.998 45.998" opacity=".15"/><path fill="#fff" d="M3.998 18.004v-1C3.998 9.801 9.798 4 17.002 4h29.996c7.203 0 13.004 5.8 13.004 13.004v1c0-7.203-5.8-13.002-13.004-13.002H17.002A12.975 12.975 0 0 0 3.998 18.004" opacity=".15"/><path fill="#a5de37" d="M32.897 36.137v13.018l15.635-7.067-.265-18.128-12.599 7.246c-2.282 1.63-2.771 3.138-2.771 4.931m-.937-3.871c.611-.978 1.508-1.834 2.812-2.649l13.143-7.6L31.7 13.39l-15.695 8.626 13.143 7.56c1.304.855 2.2 1.71 2.812 2.689m-3.75-1.06-12.439-7.184-.01 17.88 15.262 7.226v-12.99c-.04-1.794-.53-3.301-2.812-4.932" style="isolation:isolate"/><path fill="#c8f178" d="m50.828 22.485-4.035 2.323c.123.448.204.896.204 1.386V37.89a4.91 4.91 0 0 1-2.404 4.197l-10.23 5.828a4.9 4.9 0 0 1-1.466.53v4.645c.733-.122 1.426-.326 2.037-.693l13.245-7.62a5.96 5.96 0 0 0 2.975-5.176v-15.2c0-.612-.122-1.305-.326-1.916m-31.42-.49 10.147-5.868c1.508-.855 3.342-.855 4.809 0l10.188 5.869c.53.285.978.692 1.345 1.181l4.034-2.322a5.9 5.9 0 0 0-1.752-1.59l-13.245-7.62a5.97 5.97 0 0 0-5.95 0l-13.204 7.62a6.1 6.1 0 0 0-1.793 1.59l4.034 2.322a6.5 6.5 0 0 1 1.386-1.181m10.147 25.919-10.147-5.869a4.76 4.76 0 0 1-2.404-4.156V26.194c0-.449.081-.897.203-1.345l-4.034-2.323a6.1 6.1 0 0 0-.326 1.915v15.201a6 6 0 0 0 2.975 5.176l13.163 7.58c.611.367 1.304.57 2.037.693v-4.646c-.53-.082-1.018-.285-1.467-.53" style="isolation:isolate"/></svg>