<svg xmlns="http://www.w3.org/2000/svg" xml:space="preserve" viewBox="0 0 64 64"><rect width="56.002" height="56.002" x="4" y="3.969" fill="#1ba8ff" rx="13.002" ry="13.002"/><path d="M3.998 45.998v1c0 7.203 5.8 13.004 13.004 13.004h29.996c7.203 0 13.004-5.8 13.004-13.004v-1c0 7.203-5.8 13.002-13.004 13.002H17.002A12.975 12.975 0 0 1 3.998 45.998" opacity=".15"/><path fill="#fff" d="M3.998 18.004v-1C3.998 9.801 9.798 4 17.002 4h29.996c7.203 0 13.004 5.8 13.004 13.004v1c0-7.203-5.8-13.002-13.004-13.002H17.002A12.975 12.975 0 0 0 3.998 18.004" opacity=".15"/><path fill="#fff" d="M32 12a19.94 19.94 0 0 0-14.142 5.857c-7.81 7.81-7.81 20.476 0 28.286 7.81 7.809 20.474 7.809 28.284 0s7.81-20.476 0-28.286A19.94 19.94 0 0 0 32 12m-5.076 10.125a3 3 0 0 1 1.543.387l12.5 7c2.043 1.146 2.043 4.087 0 5.234l-12.5 7c-2 1.119-4.467-.327-4.467-2.618v-14c0-1.718 1.389-2.96 2.924-3.003"/></svg>