<svg xmlns="http://www.w3.org/2000/svg" viewBox="0 0 16.933 16.933"><rect width="14.817" height="14.817" x="1.058" y="1.05" fill="#f2f2f2" rx="3.44" ry="3.44"/><path d="M1.058 12.17v.265a3.433 3.433 0 0 0 3.44 3.44h7.937a3.433 3.433 0 0 0 3.44-3.44v-.265a3.433 3.433 0 0 1-3.44 3.44H4.498a3.433 3.433 0 0 1-3.44-3.44" opacity=".1"/><path fill="#fff" d="M1.058 4.763V4.5a3.433 3.433 0 0 1 3.44-3.44h7.937a3.433 3.433 0 0 1 3.44 3.44v.265a3.433 3.433 0 0 0-3.44-3.44H4.498a3.433 3.433 0 0 0-3.44 3.44z" opacity=".5"/><path fill="#eada20" d="M7.493 2.203a6.35 6.347 0 0 0-5.286 5.25c.06-.064.29-.295.433-.44.166-.17.261-.269.51-.52A372 372 0 0 1 7.23 2.46c.069-.066.222-.218.264-.257zm2.843.203.019.006a6.35 6.347 0 0 0-.02-.006zm-2.415.126q-.005-.005-.033.01l-.01.007-.053.035c-.073.053-.435.368-.83.719-.397.351-.827.738-1.038.935-.218.205-.513.473-.655.597-.142.122-.46.402-.705.62l-.565.497c-.134.11-.59.514-.781.692-.07.063-.172.152-.228.196a9 9 0 0 0-.3.26 10 10 0 0 1-.293.255l-.238.195a6.35 6.347 0 0 0-.075.92 6.35 6.347 0 0 0 .467 2.379c.046-.075.124-.194.19-.297.05-.078.085-.135.145-.227l.7-1.083.467-.724 1.162-1.8A1628.2 1627.3 0 0 1 7.564 3.13c.217-.335.318-.496.348-.562q.014-.03.01-.035zm3.336.245-.068.11v.001a2 2 0 0 0-.088.16q-.164.343-.32.688c-1.458 3.225-2.41 6.62-2.668 9.526q-.028.311-.045.615a79 79 0 0 1-.05.808l-.003.107a6.35 6.347 0 0 0 .452.023 6.35 6.347 0 0 0 6.35-6.347 6.35 6.347 0 0 0-3.56-5.692m-8.181 9.038.054.087a6.353 6.35 0 0 1-.006-.01 6.35 6.347 0 0 1-.047-.077zm1.255 1.466a6.35 6.347 0 0 0 .055.05zm.486.378a6.364 6.36 0 0 0 .047.031 6.35 6.347 0 0 1-.046-.03zm.542.342a6.35 6.347 0 0 0 .083.048z" style="paint-order:markers stroke fill"/><path fill="#f82655" d="M8.467 2.117a6.387 6.384 0 0 0-.967.079c-.625.581-4.797 4.725-5.303 5.268a6.212 6.209 0 0 0-.014.094c.13-.106.332-.269.54-.458.11-.099.245-.216.3-.26s.159-.133.228-.196c.192-.179.647-.582.78-.692.065-.056.32-.279.566-.497s.563-.498.705-.62c.142-.124.436-.392.655-.597.421-.394 1.722-1.548 1.866-1.655.047-.034.092-.058.098-.051.014.014-.067.151-.357.598a1628.2 1627.3 0 0 0-2.316 3.587L4.085 8.518 2.92 10.326c-.139.213-.256.394-.337.527a6.353 6.35 0 0 0 5.432 3.948l.004-.115c.01-.148.033-.512.05-.808.182-3.238 1.285-7.174 3.033-10.83.065-.135.12-.208.159-.277a6.359 6.355 0 0 0-2.793-.655z"/><path fill="#d8d342" d="M8.073 2.147a6.35 6.346 0 0 0-.406.034 6.35 6.346 0 0 1 .406-.034M2.207 7.461l-.002.003a6.35 6.346 0 0 0-.015.092 6.35 6.346 0 0 1 .017-.095"/></svg>