<svg xmlns="http://www.w3.org/2000/svg" viewBox="0 0 64 64"><rect width="56.002" height="56.002" x="4" y="3.969" fill="#4d4d4d" rx="13.002" ry="13.002"/><circle cx="32.02" cy="32.044" r="30.001" fill="none"/><path d="M3.998 45.998v1c0 7.203 5.8 13.004 13.004 13.004h29.996c7.203 0 13.004-5.8 13.004-13.004v-1c0 7.203-5.8 13.002-13.004 13.002H17.002A12.975 12.975 0 0 1 3.998 45.998" opacity=".35"/><path fill="#fff" d="M3.998 18.004v-1C3.998 9.801 9.798 4 17.002 4h29.996c7.203 0 13.004 5.8 13.004 13.004v1c0-7.203-5.8-13.002-13.004-13.002H17.002A12.975 12.975 0 0 0 3.998 18.004" opacity=".15"/><rect width="64" height="64" fill="none" rx="0" ry="0" style="paint-order:stroke fill markers"/><circle cx="32.02" cy="32.044" r="30.001" fill="none"/><path fill="#49b4fb" d="M28.587 11.002c-1.248-.017-1.513.033-1.872.34-.267.228-.485.682-.566 1.18-.036.225-.055 1.8-.055 4.281 0 3.135-.015 3.923-.07 3.923-.039 0-2.039-1.97-4.445-4.38s-4.48-4.452-4.608-4.541c-.349-.243-.97-.524-1.462-.66-.405-.11-.585-.12-2.42-.14-1.09-.012-1.984-.002-1.984.023s4.166 4.21 9.258 9.302c4.73 4.73 8.081 8.063 8.637 8.6V11.007zm6.826 0-.413.006v17.92c.556-.535 3.908-3.869 8.637-8.598 5.092-5.092 9.258-9.277 9.258-9.302s-.893-.035-1.983-.023c-1.836.02-2.015.029-2.42.14-.492.136-1.114.417-1.462.66-.128.089-2.202 2.131-4.609 4.54s-4.406 4.38-4.444 4.38c-.056 0-.07-.787-.07-3.922 0-2.482-.02-4.056-.056-4.28-.08-.5-.299-.953-.566-1.181-.358-.307-.624-.357-1.872-.34m-24.355 7.647c-.06 0-.067.337-.05 1.872.021 1.81.025 1.891.162 2.393a5.6 5.6 0 0 0 .738 1.664c.187.286 1.176 1.312 3.759 3.903l3.504 3.516-3.504 3.512c-2.583 2.59-3.572 3.617-3.76 3.903a5.6 5.6 0 0 0-.737 1.664c-.137.502-.14.584-.161 2.393-.018 1.535-.01 1.872.05 1.872.1 0 13.338-13.243 13.338-13.344 0-.102-13.238-13.348-13.339-13.348m41.884 0c-.1 0-13.339 13.247-13.339 13.348 0 .1 13.238 13.345 13.34 13.345.059 0 .067-.338.05-1.872-.022-1.81-.025-1.892-.162-2.394a5.6 5.6 0 0 0-.738-1.664c-.187-.286-1.176-1.312-3.76-3.903l-3.503-3.512 3.504-3.516c2.583-2.59 3.572-3.617 3.759-3.902a5.6 5.6 0 0 0 .738-1.665c.137-.502.14-.584.161-2.393.018-1.535.01-1.872-.05-1.872M29 35.064c-1.278 1.228-17.895 17.843-17.895 17.898 0 .024.893.038 1.984.026 1.835-.02 2.015-.032 2.42-.144.492-.135 1.113-.413 1.462-.656.128-.089 2.202-2.134 4.608-4.544s4.406-4.38 4.445-4.38c.055 0 .07.788.07 3.923 0 2.481.019 4.056.055 4.28.125.771.5 1.285 1.058 1.45.2.06.559.083 1.348.083.237 0 .263-.01.445-.015zm6 0v17.92c.183.005.209.015.446.015.789 0 1.148-.023 1.347-.082.558-.165.933-.68 1.058-1.45.036-.225.055-1.799.056-4.28 0-3.136.014-3.923.07-3.923.038 0 2.038 1.97 4.444 4.38s4.48 4.454 4.609 4.544c.348.242.97.52 1.462.656.405.111.584.124 2.42.143 1.09.012 1.983-.001 1.983-.026 0-.054-16.617-16.67-17.895-17.898z"/></svg>