<svg xmlns="http://www.w3.org/2000/svg" viewBox="0 0 64 64"><rect width="55.999" height="55.999" x="4" y="4" fill="#124aa0" rx="13" ry="13"/><path d="M3.998 45.998v1c0 7.203 5.8 13.004 13.004 13.004h29.996c7.203 0 13.004-5.8 13.004-13.004v-1c0 7.203-5.8 13.002-13.004 13.002H17.002A12.975 12.975 0 0 1 3.998 45.998" opacity=".15"/><path fill="#fff" d="M3.998 18.004v-1C3.998 9.801 9.798 4 17.002 4h29.996c7.203 0 13.004 5.8 13.004 13.004v1c0-7.203-5.8-13.002-13.004-13.002H17.002A12.975 12.975 0 0 0 3.998 18.004" opacity=".15"/><path fill="#fff" d="M20.537 18c-3.036 0-5.992 2.477-5.478 5.455l3.287 19.09C18.859 45.524 20.79 48 23.826 48h15.348c3.036 0 4.967-2.476 5.48-5.455l3.288-19.09C48.455 20.477 45.499 18 42.463 18zM31.5 25a5.5 5.5 0 0 1 5.5 5.5 5.5 5.5 0 0 1-3 4.898V40.5c0 .831-.669 1.5-1.5 1.5h-2c-.831 0-1.5-.669-1.5-1.5v-5.107a5.5 5.5 0 0 1-3-4.893 5.5 5.5 0 0 1 5.5-5.5"/></svg>