<svg xmlns="http://www.w3.org/2000/svg" xmlns:xlink="http://www.w3.org/1999/xlink" xml:space="preserve" viewBox="0 0 64 64"><defs><linearGradient xlink:href="#a" id="b" x1="7.937" x2="7.937" y1="15.081" y2="1.852" gradientTransform="scale(3.7796)" gradientUnits="userSpaceOnUse"><stop offset="0" stop-color="#f1efeb"/><stop offset="1" stop-color="#fdfcfc"/></linearGradient><linearGradient id="a"><stop offset="0" style="stop-color:#c061cb;stop-opacity:1"/><stop offset="1" style="stop-color:#813d9c;stop-opacity:1"/></linearGradient></defs><rect width="56.002" height="56.002" x="4" y="3.969" fill="url(#b)" rx="13.002" ry="13.002" style="fill:#9749ac;fill-opacity:1"/><path d="M26.562 11.003a1.68 1.68 0 0 1 1.165.572q.11.125.195.273l2.27 3.931a16 16 0 0 1 1.745-.1l.063.001v.04h.062a16 16 0 0 1 1.744.1l2.27-3.932a1.7 1.7 0 0 1 1.032-.79 1.68 1.68 0 0 1 1.283.174l8.337 4.896a1.7 1.7 0 0 1 .836 1.362 1.74 1.74 0 0 1-.226.97l-2.269 3.928a16 16 0 0 1 .955 1.478 16 16 0 0 1 .783 1.581l4.507.017a1.69 1.69 0 0 1 1.556 1.049 1.7 1.7 0 0 1 .13.663l-.036 9.725a1.72 1.72 0 0 1-.5 1.206 1.7 1.7 0 0 1-1.192.495h-.007l-4.512-.017a16 16 0 0 1-1.76 3.041l2.242 3.95a1.71 1.71 0 0 1-.627 2.329l-8.372 4.83a1.7 1.7 0 0 1-1.273.168 1.7 1.7 0 0 1-1.036-.802l-2.242-3.951a17 17 0 0 1-1.685.09v-.041a16 16 0 0 1-1.685-.09L28.072 52.1a1.7 1.7 0 0 1-.632.637 1.7 1.7 0 0 1-1.265.167 1.7 1.7 0 0 1-.412-.17l-8.371-4.83a1.7 1.7 0 0 1-.674-.72 1.71 1.71 0 0 1 .046-1.607l2.242-3.952a16.3 16.3 0 0 1-1.76-3.041l-4.512.017h-.007a1.68 1.68 0 0 1-1.192-.495 1.7 1.7 0 0 1-.465-.87 1.7 1.7 0 0 1-.035-.334L11 27.176a1.74 1.74 0 0 1 .285-.955 1.7 1.7 0 0 1 .742-.62 1.65 1.65 0 0 1 .658-.137l4.508-.018a16 16 0 0 1 .783-1.58 16 16 0 0 1 .954-1.479l-2.268-3.928a1.72 1.72 0 0 1 .108-1.882 1.65 1.65 0 0 1 .502-.45l8.336-4.895a1.7 1.7 0 0 1 .954-.229M32 18.77v3.36A9.87 9.87 0 0 1 41.87 32a9.87 9.87 0 0 1-9.871 9.87v3.36A13.23 13.23 0 0 0 45.229 32 13.23 13.23 0 0 0 32 18.77m0 6.72v3.36A3.15 3.15 0 0 1 35.15 32 3.15 3.15 0 0 1 32 35.15v3.36A6.51 6.51 0 0 0 38.51 32 6.51 6.51 0 0 0 32 25.49" style="mix-blend-mode:normal;fill:#fefefe;fill-opacity:1;fill-rule:nonzero;stroke-width:.0823651"/><path d="M3.998 45.998v1c0 7.203 5.8 13.004 13.004 13.004h29.996c7.203 0 13.004-5.8 13.004-13.004v-1c0 7.203-5.8 13.002-13.004 13.002H17.002A12.975 12.975 0 0 1 3.998 45.998" opacity=".15"/><path fill="#fff" d="M3.998 18.004v-1C3.998 9.801 9.798 4 17.002 4h29.996c7.203 0 13.004 5.8 13.004 13.004v1c0-7.203-5.8-13.002-13.004-13.002H17.002A12.975 12.975 0 0 0 3.998 18.004" opacity=".15"/></svg>