<svg xmlns="http://www.w3.org/2000/svg" viewBox="0 0 64 64"><defs><linearGradient id="b" x1="30" x2="30" y1="13" y2="50" gradientUnits="userSpaceOnUse"><stop offset="0" stop-color="#ff6033"/><stop offset="1" stop-color="#f51414"/></linearGradient><linearGradient id="a" x1="33" x2="33" y1="43" y2="26" gradientUnits="userSpaceOnUse"><stop offset="0" stop-color="#1371c3"/><stop offset="1" stop-color="#33c4ff"/></linearGradient></defs><rect width="56.002" height="56.002" x="4" y="3.969" fill="#f2f2f2" rx="13.002" ry="13.002"/><path d="M3.998 45.998v1c0 7.203 5.8 13.004 13.004 13.004h29.996c7.203 0 13.004-5.8 13.004-13.004v-1c0 7.203-5.8 13.002-13.004 13.002H17.002A12.975 12.975 0 0 1 3.998 45.998" opacity=".1"/><path fill="#fff" d="M3.998 18.004v-1C3.998 9.801 9.798 4 17.002 4h29.996c7.203 0 13.004 5.8 13.004 13.004v1c0-7.203-5.8-13.002-13.004-13.002H17.002A12.975 12.975 0 0 0 3.998 18.004" opacity=".5"/><path fill="url(#a)" d="M27.321 26A1.291 1.141 0 0 0 26 27.143V41.86a1.291 1.141 0 0 0 1.936.987l14.419-7.36a1.291 1.141 0 0 0 0-1.975l-14.42-7.36a1.291 1.141 0 0 0-.614-.153z" style="fill:#249de2"/><path fill="url(#b)" d="M14.75 12C13.226 12 12 13.275 12 14.857v30C12 49.143 17.5 52 20.25 52H23V14.857C23 13.274 21.774 12 20.25 12zm14.092 0C27.267 12 26 13.226 26 14.75v5.5c0 1.524 1.267 2.75 2.842 2.75h17.053C50.158 23 53 17.5 53 14.75V12z" style="fill:#fa3d25"/></svg>