<svg xmlns="http://www.w3.org/2000/svg" width="64" height="64" image-rendering="optimizeSpeed"><defs><linearGradient id="a" x1="7.937" x2="7.937" y1="15.081" y2="1.852" gradientTransform="scale(3.7796)" gradientUnits="userSpaceOnUse"><stop offset="0" stop-color="#cdcdcd"/><stop offset="1" stop-color="#fefefe"/></linearGradient></defs><rect width="56.002" height="56.002" x="4" y="3.969" fill="url(#a)" rx="13.002" ry="13.002"/><path fill="#48754d" d="m13.008 51 2.569-9.44A18.9 18.9 0 0 1 13 32c0-10.494 8.507-19 19-19s19 8.506 19 19-8.506 19-19 19a18.9 18.9 0 0 1-9.557-2.574zm12.135-27.915a1.8 1.8 0 0 0-.705.19 2.5 2.5 0 0 0-.558.433c-.228.215-.358.401-.496.582a5.2 5.2 0 0 0-1.074 3.188c.004.93.247 1.837.627 2.685.777 1.713 2.056 3.528 3.745 5.21.407.404.804.81 1.231 1.189a17.95 17.95 0 0 0 7.296 3.887l1.081.165c.352.02.703-.007 1.057-.024a3.8 3.8 0 0 0 1.582-.44c.316-.166.464-.25.728-.417 0 0 .082-.053.238-.171a4.4 4.4 0 0 0 .627-.547 2.2 2.2 0 0 0 .399-.574c.148-.31.296-.9.357-1.393.045-.376.032-.581.026-.709-.007-.203-.176-.414-.36-.503l-1.106-.496s-1.653-.72-2.662-1.18a1 1 0 0 0-.337-.078.92.92 0 0 0-.718.242v-.004c-.01 0-.137.108-1.51 1.772a.665.665 0 0 1-.7.247 3 3 0 0 1-.362-.125c-.236-.099-.318-.137-.48-.207l-.009-.004a11.4 11.4 0 0 1-2.983-1.9c-.24-.209-.461-.437-.69-.657a12 12 0 0 1-1.937-2.41l-.112-.18a1.8 1.8 0 0 1-.194-.39c-.072-.279.116-.503.116-.503s.461-.505.676-.779a8 8 0 0 0 .5-.709c.224-.36.294-.731.176-1.018a158 158 0 0 0-1.649-3.878c-.112-.255-.444-.437-.746-.473q-.155-.018-.308-.03a6 6 0 0 0-.766.007z"/><path fill="#228f50" fill-opacity=".996" stroke="#fff" d="M32 15c-9.413 0-17 7.587-17 17v.004a16.9 16.9 0 0 0 2.305 8.549l.422.724-1.872 6.873 6.872-1.875.724.422A16.9 16.9 0 0 0 31.996 49H32c9.413 0 17-7.587 17-17s-7.587-17-17-17z" image-rendering="auto"/><path fill="#fff" d="M25.143 23.085c-.245.015-.485.08-.705.19a2.5 2.5 0 0 0-.558.433c-.228.215-.358.401-.496.582a5.2 5.2 0 0 0-1.074 3.188c.004.93.247 1.837.627 2.685.777 1.713 2.056 3.528 3.745 5.21.407.404.804.81 1.231 1.189a17.95 17.95 0 0 0 7.296 3.887l1.081.165c.352.02.703-.007 1.057-.024a3.8 3.8 0 0 0 1.582-.44c.316-.166.464-.25.728-.417 0 0 .082-.053.238-.171a4.4 4.4 0 0 0 .627-.547 2.2 2.2 0 0 0 .399-.574c.148-.31.296-.9.357-1.393.045-.376.032-.581.026-.709-.007-.203-.176-.414-.36-.503l-1.106-.496s-1.653-.72-2.662-1.18a1 1 0 0 0-.337-.078.92.92 0 0 0-.718.242v-.004c-.01 0-.137.108-1.51 1.772a.665.665 0 0 1-.7.247 3 3 0 0 1-.362-.125c-.236-.099-.318-.137-.48-.207l-.009-.004a11.4 11.4 0 0 1-2.983-1.9c-.24-.209-.461-.437-.69-.657a12 12 0 0 1-1.937-2.41l-.112-.18a1.8 1.8 0 0 1-.194-.39c-.072-.279.116-.503.116-.503s.461-.505.676-.779q.269-.341.5-.709c.224-.36.294-.731.176-1.018a158 158 0 0 0-1.649-3.878c-.112-.255-.444-.437-.746-.473q-.155-.018-.308-.03a6 6 0 0 0-.766.007z"/></svg>