<svg xmlns="http://www.w3.org/2000/svg" width="64" height="64"><defs><linearGradient id="a" x1="7.937" x2="7.937" y1="15.081" y2="1.852" gradientTransform="scale(3.7796)" gradientUnits="userSpaceOnUse"><stop offset="0" stop-color="#57c7ba"/><stop offset="1" stop-color="#65b48b"/></linearGradient><linearGradient id="d" x1="17.652" x2="46.348" y1="29.392" y2="29.392" gradientUnits="userSpaceOnUse"><stop offset="0" stop-color="#327486"/><stop offset="1" stop-color="#325386"/></linearGradient><linearGradient id="c" x1="15.043" x2="48.956" y1="29.391" y2="29.391" gradientUnits="userSpaceOnUse"><stop offset="0" stop-color="#333"/><stop offset="1" stop-color="#474747"/></linearGradient><linearGradient id="b" x1="32" x2="31.999" y1="47.652" y2="41.13" gradientUnits="userSpaceOnUse"><stop offset="0" stop-color="#d8dede"/><stop offset="1" stop-color="#afc0c0"/></linearGradient></defs><rect width="56.002" height="56.002" x="4" y="3.969" fill="url(#a)" rx="13.002" ry="13.002"/><g stroke-width="1.304"><path fill="url(#b)" d="m32 37.217-5.217 3.913c0 4.565 0 4.565-3.261 6.522l8.478.652 8.478-.652c-3.26-1.957-3.26-1.957-3.26-6.522z"/><path fill="#e5ecec" d="M22.87 47.652v1.304h18.261v-1.304z"/><rect width="33.913" height="23.478" x="15.043" y="17.652" fill="url(#c)" ry="1.304"/><path fill="url(#d)" d="M17.652 20.261h28.696v18.261H17.652z"/><path fill="#30dd81" d="M23.014 22.877a1.3 1.3 0 0 0-.96.278 1.304 1.304 0 0 0-.204 1.834l1.819 2.272a11.739 10.435 0 0 0-3.409 7.347v.653c0 .36.29.652.652.652h22.174a.65.65 0 0 0 .652-.652v-.653a11.739 10.435 0 0 0-4.193-7.994l1.3-1.625a1.304 1.304 0 0 0-.204-1.834 1.3 1.3 0 0 0-.96-.278 1.3 1.3 0 0 0-.875.481l-1.54 1.926a11.739 10.435 0 0 0-5.267-1.11 11.739 10.435 0 0 0-6.188 1.587l-1.923-2.402a1.3 1.3 0 0 0-.874-.482"/><path fill="#fafafa" d="M26.783 29.391a1.304 1.304 0 0 0-1.304 1.304A1.304 1.304 0 0 0 26.783 32a1.304 1.304 0 0 0 1.304-1.305 1.304 1.304 0 0 0-1.304-1.304m10.435 0a1.304 1.304 0 0 0-1.304 1.304A1.304 1.304 0 0 0 37.218 32a1.304 1.304 0 0 0 1.304-1.305 1.304 1.304 0 0 0-1.304-1.304"/></g></svg>