<svg xmlns="http://www.w3.org/2000/svg" viewBox="0 0 64 64"><rect width="56.002" height="56.002" x="4" y="3.969" fill="#c281de" rx="13.002" ry="13.002" style="fill:#e5cb5c;fill-opacity:1"/><path d="M3.998 45.998v1c0 7.203 5.8 13.004 13.004 13.004h29.996c7.203 0 13.004-5.8 13.004-13.004v-1c0 7.203-5.8 13.002-13.004 13.002H17.002A12.975 12.975 0 0 1 3.998 45.998" opacity=".15"/><path fill="#fff" d="M3.998 18.004v-1C3.998 9.801 9.798 4 17.002 4h29.996c7.203 0 13.004 5.8 13.004 13.004v1c0-7.203-5.8-13.002-13.004-13.002H17.002A12.975 12.975 0 0 0 3.998 18.004" opacity=".15"/><circle cx="32.02" cy="32.044" r="30.001" fill="none"/><circle cx="32.02" cy="32.044" r="30.001" fill="none"/><path fill="#825b3a" d="M26.659 16.699c-5.945.006-11.652 2.266-15.763 6.413a1.493 1.493 0 0 0 .009 2.111 1.493 1.493 0 0 0 2.113-.009c3.519-3.55 8.454-5.524 13.643-5.53h.007c5.193.002 10.135 1.978 13.658 5.53a1.5 1.5 0 0 0 1.06.442h10.658a1.493 1.493 0 0 0 1.493-1.493 1.493 1.493 0 0 0-1.493-1.493H41.907c-4.072-3.837-9.527-5.97-15.238-5.971zm.006 6.717c-5.262.005-10.195 2.11-13.111 5.79a1.49 1.49 0 0 0 0 1.855c2.639 3.331 6.93 5.365 11.62 5.726v9.021a1.493 1.493 0 0 0 1.492 1.493 1.493 1.493 0 0 0 1.493-1.493v-8.087l11.704 7.405.023.01.027.02a4.86 4.86 0 0 0 5.546-.482l.002-.002a4.86 4.86 0 0 0 1.44-5.374l-.002-.003a4.86 4.86 0 0 0-4.558-3.19 1.493 1.493 0 0 0-1.493 1.492 1.493 1.493 0 0 0 1.493 1.493c.789 0 1.482.485 1.753 1.229a1.86 1.86 0 0 1-.554 2.067 1.85 1.85 0 0 1-2.107.198L31.43 36.255c3.118-.8 5.888-2.389 7.879-4.629h12.736a1.493 1.493 0 0 0 1.493-1.493 1.493 1.493 0 0 0-1.493-1.492H39.308c-2.962-3.332-7.653-5.223-12.642-5.225zm3.217 3.33c2.616.558 4.922 1.77 6.599 3.388-1.676 1.618-3.983 2.83-6.599 3.39a5.2 5.2 0 0 0 1.263-3.39 5.2 5.2 0 0 0-1.263-3.389m-8.332.541a5.18 5.18 0 0 0 0 5.694c-1.826-.654-3.435-1.637-4.689-2.847 1.254-1.21 2.863-2.193 4.689-2.847m4.37.608a2.22 2.22 0 0 1 2.24 2.24 2.22 2.22 0 0 1-2.24 2.238 2.22 2.22 0 0 1-2.24-2.239 2.22 2.22 0 0 1 2.24-2.24"/></svg>