<svg xmlns="http://www.w3.org/2000/svg" viewBox="0 0 64 64"><defs><linearGradient id="a" x1="7.937" x2="7.937" y1="15.081" y2="1.852" gradientTransform="scale(3.7796)" gradientUnits="userSpaceOnUse"><stop offset="0" stop-color="#363636" style="stop-color:#790b11;stop-opacity:1"/><stop offset="1" stop-color="#6c6c6c" style="stop-color:#11325a;stop-opacity:1"/></linearGradient><linearGradient id="b" x1="62" x2="74" y1="62" y2="62" gradientUnits="userSpaceOnUse"><stop offset="0" stop-color="#df3e7e"/><stop offset=".333" stop-color="#e878a5"/><stop offset="1" stop-color="#df3e7e"/></linearGradient><linearGradient id="c" x1="62" x2="70" y1="26.001" y2="26.001" gradientUnits="userSpaceOnUse"><stop offset="0" stop-color="#b0265e"/><stop offset="1" stop-color="#ea81aa"/></linearGradient></defs><rect width="56.002" height="56.002" x="4" y="3.969" fill="url(#a)" rx="13.002" ry="13.002" style="fill:#451e35;fill-opacity:1"/><path fill="url(#b)" d="M53.451 31.175H19.936c-.806 0-1.548.438-1.936 1.145a2.21 2.21 0 0 0 .074 2.248l13.55 21.293a1.658 1.658 0 0 0 3.059-.89v-9.606l.002-.002 18.766-.012a3.58 3.58 0 0 0 3.575-3.579V34.75a3.575 3.575 0 0 0-3.575-3.575m0 0" style="fill:#f2472a;stroke:none;stroke-width:0;stroke-dasharray:none;stroke-opacity:1;fill-opacity:1"/><path fill="url(#c)" d="M9.658 31.233h33.657a2.498 2.498 0 0 0 2.032-3.95L31.4 7.788a1.148 1.148 0 0 0-2.08.667v8.936l-.002.001-19.66.015c-1.48 0-2.682 1.2-2.682 2.682v8.463a2.68 2.68 0 0 0 2.681 2.681zm0 0" style="fill:#2d79d5;stroke:none;stroke-width:0;stroke-dasharray:none;stroke-opacity:1;fill-opacity:1"/><path d="M3.998 45.998v1c0 7.203 5.8 13.004 13.004 13.004h29.996c7.203 0 13.004-5.8 13.004-13.004v-1c0 7.203-5.8 13.002-13.004 13.002H17.002A12.975 12.975 0 0 1 3.998 45.998" opacity=".15"/><path fill="#fff" d="M3.998 18.004v-1C3.998 9.801 9.798 4 17.002 4h29.996c7.203 0 13.004 5.8 13.004 13.004v1c0-7.203-5.8-13.002-13.004-13.002H17.002A12.975 12.975 0 0 0 3.998 18.004" opacity=".15"/></svg>