<svg xmlns="http://www.w3.org/2000/svg" xml:space="preserve" viewBox="0 0 64 64"><rect width="56.002" height="56.002" x="4" y="3.969" fill="#f2f2f2" rx="13.002" ry="13.002"/><path d="M3.998 45.998v1c0 7.203 5.8 13.004 13.004 13.004h29.996c7.203 0 13.004-5.8 13.004-13.004v-1c0 7.203-5.8 13.002-13.004 13.002H17.002A12.975 12.975 0 0 1 3.998 45.998" opacity=".1"/><path fill="#fff" d="M3.998 18.004v-1C3.998 9.801 9.798 4 17.002 4h29.996c7.203 0 13.004 5.8 13.004 13.004v1c0-7.203-5.8-13.002-13.004-13.002H17.002A12.975 12.975 0 0 0 3.998 18.004" opacity=".5"/><path fill="#c0bfbc" d="M22.494 41.105H52.83v2.29H22.494Zm0 9.158H52.83v2.29H22.494Zm0 0"/><g fill="none" stroke-linecap="round"><path stroke="#949390" stroke-width="4.006" d="M64 64 46 44" style="display:inline" transform="translate(-4.98 -5.83)scale(.57238)"/><path stroke="#c061cb" stroke-width="1.146" d="M31.652 30.802 23.64 51.408"/></g><path fill="#d5d3cf" d="M34.79 29.402a3.44 3.44 0 0 1-1.738 4.537 3.44 3.44 0 0 1-4.537-1.737 3.44 3.44 0 0 1 1.738-4.537 3.44 3.44 0 0 1 4.536 1.737m0 0"/><path fill="#131c1a" d="M32.815 30.802a1.146 1.146 0 1 1-2.293.001 1.146 1.146 0 0 1 2.293-.001m0 0"/><path fill="#613583" d="M32.813 30.802a1.144 1.144 0 1 1-2.288.001 1.144 1.144 0 0 1 2.288-.001m0 0"/><path fill="#c0bfbc" d="M17.915 42.25a2.29 2.29 0 0 1-2.29 2.29 2.29 2.29 0 0 1-2.289-2.29 2.29 2.29 0 0 1 2.29-2.29 2.29 2.29 0 0 1 2.29 2.29m-.001 9.158a2.29 2.29 0 0 1-2.29 2.29 2.29 2.29 0 0 1-2.289-2.29 2.29 2.29 0 0 1 2.29-2.29 2.29 2.29 0 0 1 2.29 2.29m0 0"/></svg>