<svg xmlns="http://www.w3.org/2000/svg" width="64" height="64"><defs><linearGradient id="a" x1="365" x2="365" y1="270" y2="460" gradientUnits="userSpaceOnUse"><stop offset="0" stop-color="#3db4e1"/><stop offset="1" stop-color="#28abdc"/></linearGradient><linearGradient id="b" x1="135" x2="135" y1="270" y2="460" gradientUnits="userSpaceOnUse"><stop offset="0" stop-color="#e13d3d"/><stop offset="1" stop-color="#dc2828"/></linearGradient><linearGradient id="c" x1="135" x2="135" y1="40" y2="230" gradientUnits="userSpaceOnUse"><stop offset="0" stop-color="#31c977"/><stop offset="1" stop-color="#2cb56d"/></linearGradient></defs><rect width="56.002" height="55.972" x="3.999" y="3.999" fill="#fff63f" rx="13.002" ry="12.995"/><path fill="url(#a)" d="M270 270v189.02h102.1c48.624 0 87.782-39.188 87.782-87.872v-101.15h-189.88z" transform="matrix(.14814 0 0 .14788 -8.125 -7.906)"/><path fill-opacity=".267" d="m42.664 54.286 1.77-10.768h1.62l-1.771 10.768zm-4.828-2.703.275-1.619h8.369l-.275 1.62zm1.048 2.703 1.764-10.768h1.618l-1.763 10.768zm-.426-6.44.275-1.625h8.361l-.267 1.626z" style="white-space:pre" transform="scale(1.0009 .99911)"/><path fill="#fff" d="m42.516 53.398 1.77-10.768h1.62l-1.771 10.768zm-4.828-2.703.275-1.619h8.369l-.275 1.62zm1.048 2.703L40.5 42.63h1.618l-1.763 10.768zm-.426-6.44.275-1.625h8.361l-.267 1.626z" aria-label="#" style="white-space:pre" transform="scale(1.0009 .99911)"/><path fill="url(#b)" d="M41.833 270v101.15c0 48.684 39.158 87.872 87.782 87.872h100.39v-189.02H41.835z" transform="matrix(.14814 0 0 .14788 -2.2 -7.906)"/><path fill-opacity=".267" d="m11.822 54.198-1.107-1.508 7.217-4.392-7.217-4.391 1.107-1.508 7.809 4.868v2.062z" aria-label="&gt;" style="white-space:pre" transform="scale(1.0009 .99911)"/><path fill="#fff" d="m11.674 53.31-1.107-1.508 7.217-4.392-7.217-4.391 1.107-1.508 7.809 4.868v2.062z" aria-label="&gt;" style="white-space:pre" transform="scale(1.0009 .99911)"/><path fill="url(#c)" d="M129.61 40.502c-48.624 0-87.782 39.201-87.782 87.885v101.61h188.17V40.507h-100.39z" transform="matrix(.14814 0 0 .14788 -2.2 -1.991)"/><path fill-opacity=".267" d="M13.914 27.566V13.618h1.366v13.948zm.687-1.416q-1.38 0-2.356-.434-.976-.441-1.496-1.272t-.52-2.002h2.146q.014.593.281 1.012.275.42.774.643t1.185.224q.621 0 1.077-.166.462-.174.715-.484.26-.311.26-.73 0-.347-.202-.6-.195-.26-.621-.455-.42-.195-1.106-.34l-1.135-.246q-1.603-.347-2.385-1.09t-.78-1.9q0-.984.513-1.714.513-.737 1.43-1.149.926-.412 2.147-.412 1.236 0 2.14.42.903.419 1.401 1.2.506.773.542 1.857h-2.08q-.059-.766-.593-1.207-.535-.441-1.402-.441-.542 0-.969.173-.419.167-.665.47-.238.304-.238.694 0 .332.188.578.188.238.6.42t1.07.324l1.032.224q.86.188 1.49.463.628.267 1.033.643.404.369.6.853t.195 1.091q0 1.034-.52 1.792-.514.752-1.475 1.157-.954.404-2.277.404z" aria-label="$" style="white-space:pre" transform="scale(1.0009 .99911)"/><path fill="#fff" d="M13.766 26.678V12.73h1.366v13.948zm.687-1.416q-1.38 0-2.356-.434-.976-.441-1.496-1.272t-.52-2.002h2.146q.014.593.281 1.012.275.419.774.643.498.224 1.185.224.621 0 1.077-.166.462-.174.715-.484.26-.311.26-.73 0-.347-.202-.6-.195-.26-.621-.455-.42-.195-1.106-.34l-1.135-.246q-1.604-.347-2.385-1.091t-.78-1.9q0-.984.513-1.714.513-.737 1.43-1.149.926-.412 2.147-.412 1.236 0 2.14.42.903.419 1.401 1.2.506.773.542 1.857h-2.08q-.059-.766-.593-1.207-.535-.441-1.402-.441-.542 0-.969.173-.419.167-.665.47-.238.304-.238.694 0 .332.188.578.188.238.6.42t1.07.324l1.032.224q.86.188 1.49.463.628.267 1.033.643.404.369.6.853t.195 1.091q0 1.034-.52 1.792-.514.752-1.475 1.157-.954.404-2.277.404z" aria-label="$" style="white-space:pre" transform="scale(1.0009 .99911)"/></svg>