<svg xmlns="http://www.w3.org/2000/svg" width="64" height="64"><defs><linearGradient id="a" x1="7.937" x2="7.937" y1="15.081" y2="1.852" gradientTransform="scale(3.7796)" gradientUnits="userSpaceOnUse"><stop offset="0" stop-color="#1e3d4c"/><stop offset="1" stop-color="#377280"/></linearGradient><linearGradient id="b" x1="28.953" x2="28.953" y1="17.147" y2="47.613" gradientUnits="userSpaceOnUse"><stop offset="0" stop-color="#fff"/><stop offset="1" stop-color="#ebebeb"/></linearGradient></defs><rect width="56.002" height="56.002" x="4" y="3.969" fill="url(#a)" rx="13.002" ry="13.002"/><path fill="url(#b)" d="M47.652 45.043s-2.609-3.913-6.522-3.913c-3.648.703-5.095.107-5.217 0V25.334c-.174-3.322-2.9-6.655-6.96-8.187-5.151-1.946-10.598-.255-12.172 3.79-1.58 4.04 1.304 8.932 6.46 10.878 3.99 1.508 7.653 1.13 10.063-1.126v15.652c5.218 3.47 10.068-1.253 14.348-1.304"/></svg>