<svg xmlns="http://www.w3.org/2000/svg" viewBox="0 0 64 64"><path fill="#1e70d7" d="M17.001 4A12.973 12.973 0 0 0 3.999 17v30a12.973 12.973 0 0 0 13.002 13.002h29.998A12.973 12.973 0 0 0 60.001 47V17.001A12.973 12.973 0 0 0 46.999 4z"/><path d="M3.998 45.998v1c0 7.203 5.8 13.004 13.004 13.004h29.996c7.203 0 13.004-5.8 13.004-13.004v-1c0 7.203-5.8 13.002-13.004 13.002H17.002A12.975 12.975 0 0 1 3.998 45.998" opacity=".15"/><path fill="#fff" d="M3.998 18.004v-1C3.998 9.801 9.798 4 17.002 4h29.996c7.203 0 13.004 5.8 13.004 13.004v1c0-7.203-5.8-13.002-13.004-13.002H17.002A12.975 12.975 0 0 0 3.998 18.004" opacity=".15"/><path fill="#ccc" d="M30.695 30.695h2.608v18.26L32 51.563l-1.304-2.608z"/><path fill="#f4d12f" d="M25.477 15.043v1.304l2.609 2.609v13.043h-3.913v2.608h15.652V32h-3.913V18.956l2.608-2.609v-1.304z"/><path d="M30.695 34.607h2.608v1.305h-2.608z" opacity=".1"/></svg>