<svg xmlns="http://www.w3.org/2000/svg" viewBox="0 0 64 64"><defs><linearGradient id="a" x1="7.937" x2="7.937" y1="15.081" y2="1.852" gradientTransform="translate(0 .032)scale(3.7795)" gradientUnits="userSpaceOnUse"><stop offset="0" stop-color="#1fe0aa"/><stop offset="1" stop-color="#b2ff85"/></linearGradient></defs><rect width="56" height="56" x="4" y="4" fill="url(#a)" rx="13.002" ry="13.002" style="fill:#30e4a6;fill-opacity:1"/><g fill="#fff"><path d="M16.572 14A2.566 2.566 0 0 0 14 16.572v7.714a2.566 2.566 0 0 0 2.572 2.571h2.571a2.566 2.566 0 0 0 2.572 2.572h2.571a2.566 2.566 0 0 0 2.571-2.572h2.572A2.566 2.566 0 0 0 32 24.286v-7.714A2.566 2.566 0 0 0 29.43 14zm0 2.572h12.857v7.714H16.572zM41 32a9 9 0 0 0-9 9 9 9 0 0 0 9 9 9 9 0 0 0 9-9 9 9 0 0 0-9-9m4.932 4.6c.329 0 .657.126.91.377a1.283 1.283 0 0 1 0 1.818l-6.229 6.228a1.283 1.283 0 0 1-1.818 0l-3.636-3.636c-.504-.504-.504-1.315 0-1.818s1.315-.504 1.818 0l2.727 2.727 5.319-5.319a1.28 1.28 0 0 1 .909-.377"/><path d="M34.572 16.572v7.714h2.571v-4.811a10.286 10.286 0 0 1 7.714 9.954h2.572a12.857 12.857 0 0 0-12.857-12.857M16.572 32a12.857 12.857 0 0 0 12.857 12.857v-7.714h-2.572v4.811A10.286 10.286 0 0 1 19.143 32z" opacity=".65"/></g><path d="M3.998 45.998v1c0 7.203 5.8 13.004 13.004 13.004h29.996c7.203 0 13.004-5.8 13.004-13.004v-1c0 7.203-5.8 13.002-13.004 13.002H17.002A12.975 12.975 0 0 1 3.998 45.998" opacity=".15"/><path fill="#fff" d="M3.998 18.004v-1C3.998 9.801 9.798 4 17.002 4h29.996c7.203 0 13.004 5.8 13.004 13.004v1c0-7.203-5.8-13.002-13.004-13.002H17.002A12.975 12.975 0 0 0 3.998 18.004" opacity=".15"/></svg>