<svg xmlns="http://www.w3.org/2000/svg" width="64" height="64"><defs><linearGradient id="a" x1="7.937" x2="7.937" y1="15.081" y2="1.852" gradientTransform="scale(3.7796)" gradientUnits="userSpaceOnUse"><stop offset="0" stop-color="#1e3d4c"/><stop offset="1" stop-color="#377280"/></linearGradient><linearGradient id="b" x1="27.511" x2="27.511" y1="14.542" y2="37" gradientUnits="userSpaceOnUse"><stop offset="0" stop-color="#fff"/><stop offset="1" stop-color="#e5e5e5"/></linearGradient></defs><rect width="56.002" height="56.002" x="4" y="3.969" fill="url(#a)" rx="13.002" ry="13.002"/><path fill="url(#b)" fill-rule="evenodd" d="M11 11c3.191 3.359 1.805 5.512 3.543 9.473 1.625 3.68 5.164.926 7.59 3.523-2.426 2.602-5.977-.164-7.602 3.512-1.75 3.961-.355 6.125-3.543 9.488 3.363-3.191 5.527-1.797 9.488-3.543 3.68-1.629.926-5.168 3.523-7.59 2.578 2.422-.16 5.977 3.512 7.602 3.961 1.754 6.109.34 9.473 3.535-3.191-3.363-1.781-5.516-3.535-9.477-1.625-3.668-5.168-.941-7.59-3.52 2.422-2.582 5.965.148 7.59-3.523 1.754-3.961.34-6.113 3.535-9.477-3.363 3.195-5.512 1.785-9.473 3.539-3.672 1.621-.934 5.176-3.512 7.598-2.602-2.422.152-5.961-3.523-7.59-3.961-1.75-6.125-.352-9.488-3.543" transform="translate(.696 .696)scale(1.3043)"/></svg>