<svg xmlns="http://www.w3.org/2000/svg" viewBox="0 0 64 64"><defs><linearGradient id="a" x1="7.937" x2="7.937" y1="15.081" y2="1.852" gradientTransform="scale(3.7796)" gradientUnits="userSpaceOnUse"><stop offset="0" stop-color="#363636" style="stop-color:#fcf4a7;stop-opacity:1"/><stop offset="1" stop-color="#6c6c6c" style="stop-color:#11325a;stop-opacity:1"/></linearGradient></defs><rect width="56.002" height="56.002" x="4" y="3.969" fill="url(#a)" rx="13.002" ry="13.002" style="fill:#11325a;fill-opacity:1"/><g transform="translate(6.64 6.334)scale(1.50245)"><rect width="4.535" height="2.737" x="14.7" y="29.76" ry="1.203" style="fill:#3d3846;fill-opacity:1;fill-rule:evenodd;stroke:none;stroke-width:2.09149;stroke-linecap:round;stroke-linejoin:round"/><path d="M25.293 16.343c-3.377 6.642-3.534 7.869-4.352 7.867l-7.951-.025c-.68-.002-.95-1.111-4.474-7.854S8.95 1.637 16.944 1.627s11.727 8.074 8.35 14.716" style="display:inline;mix-blend-mode:normal;fill:#f8e45c;fill-rule:evenodd;stroke:none;stroke-width:1.04042;stroke-miterlimit:4;stroke-dasharray:none;stroke-opacity:1;fill-opacity:1"/><path d="M21.925 23.378c-.002 1.415 0 5.471 0 5.471 0 3.169-9.558 4.053-9.967 0 0 0 .02-4.02 0-5.47-.019-1.452 9.97-1.466 9.967 0" style="display:inline;fill:#3584e4;fill-rule:evenodd;stroke:none;stroke-width:1.3365;stroke-linecap:round;stroke-linejoin:round;stroke-dasharray:none;stroke-opacity:1"/><rect width="10.018" height="1.262" x="11.913" y="24.197" ry="0" style="fill:#62a0ea;fill-opacity:1;fill-rule:evenodd;stroke:none;stroke-width:8.24926;stroke-linecap:round;stroke-linejoin:round"/><rect width="10.018" height="1.262" x="11.913" y="27.488" ry="0" style="fill:#62a0ea;fill-opacity:1;fill-rule:evenodd;stroke:none;stroke-width:8.24926;stroke-linecap:round;stroke-linejoin:round"/><path d="M20.338 22.549c.15-.016 1.562.334 1.576.8.056 1.896-.036 5.774-.036 5.774-.507 2.838-9.213 3.613-9.896-.01 0 0 1.61 1.926 5.094-.741s.472-5.538 2.652-5.76z" style="display:inline;fill:#1c71d8;fill-opacity:.524579;fill-rule:evenodd;stroke:none;stroke-width:1.2818;stroke-linecap:round;stroke-linejoin:round;stroke-dasharray:none;stroke-opacity:1"/></g><path d="M3.998 45.998v1c0 7.203 5.8 13.004 13.004 13.004h29.996c7.203 0 13.004-5.8 13.004-13.004v-1c0 7.203-5.8 13.002-13.004 13.002H17.002A12.975 12.975 0 0 1 3.998 45.998" opacity=".15"/><path fill="#fff" d="M3.998 18.004v-1C3.998 9.801 9.798 4 17.002 4h29.996c7.203 0 13.004 5.8 13.004 13.004v1c0-7.203-5.8-13.002-13.004-13.002H17.002A12.975 12.975 0 0 0 3.998 18.004" opacity=".15"/><ellipse cx="10.464" cy="28.601" rx="4.636" ry="2.296" style="opacity:.5;fill:#fff;fill-opacity:1;stroke-width:0;stroke-linecap:square;stroke-linejoin:round;paint-order:fill markers stroke" transform="rotate(-38.185)"/></svg>