<svg xmlns="http://www.w3.org/2000/svg" viewBox="0 0 64 64"><defs><linearGradient id="a" x1="7.937" x2="7.937" y1="15.081" y2="1.852" gradientTransform="translate(16.404 8.739)scale(2.7465)" gradientUnits="userSpaceOnUse"><stop offset="0" stop-color="#ffa348"/><stop offset="1" stop-color="#ffbc7a"/></linearGradient></defs><rect width="56.002" height="56.002" x="4" y="3.969" fill="#f2f2f2" rx="13.002" ry="13.002"/><path d="M3.998 45.998v1c0 7.203 5.8 13.004 13.004 13.004h29.996c7.203 0 13.004-5.8 13.004-13.004v-1c0 7.203-5.8 13.002-13.004 13.002H17.002A12.975 12.975 0 0 1 3.998 45.998" opacity=".1"/><path fill="#fff" d="M3.998 18.004v-1C3.998 9.801 9.798 4 17.002 4h29.996c7.203 0 13.004 5.8 13.004 13.004v1c0-7.203-5.8-13.002-13.004-13.002H17.002A12.975 12.975 0 0 0 3.998 18.004" opacity=".5"/><path fill="#deddda" d="M13.072 14.469v8h36v-8zm0 10v6h36v-6zm0 8v8h10v-2h26v-6zm0 10v12h30v-2h6v-10z"/><path fill="#c0bfbc" fill-rule="evenodd" d="M13.073 10.47v2h20v-2z"/><rect width="40.694" height="40.694" x="19.31" y="11.622" fill="url(#a)" rx="9.448" ry="9.448" style="fill:#ffaf60;fill-opacity:1"/><path fill="#ff7800" d="M23.658 17.469v2h11v-2zm0 4v4h22.5v-4zm0 6v8h28v-4h4v-4zm0 10v9h16.5v-5.162h13.5v-3.838z" style="fill:#ff7800;fill-opacity:1"/><path fill="#241f31" d="M40.824.382c-3.393 0-6.167 2.774-6.167 6.167V19.91c0 3.393 2.774 6.167 6.167 6.167 3.394 0 6.167-2.774 6.167-6.167v-9.25c0-2.258-1.853-4.111-4.111-4.111s-4.112 1.853-4.112 4.111v9.25c0 1.135.92 2.055 2.056 2.055V10.66c0-1.147.908-2.055 2.055-2.055s2.056.908 2.056 2.055v9.25a4.096 4.096 0 0 1-4.111 4.111 4.096 4.096 0 0 1-4.111-4.11V6.548a4.096 4.096 0 0 1 4.11-4.11c1.305 0 2.457.603 3.208 1.541h2.384A6.16 6.16 0 0 0 40.824.383z" style="fill:#666"/></svg>