<svg xmlns="http://www.w3.org/2000/svg" viewBox="0 0 64 64"><rect width="56" height="56" x="4" y="4" fill="#475159" rx="13.002" ry="13.002"/><path fill="#fff" d="M57.777 32c0 1.804-11.325 21.421-12.888 22.324-1.564.902-24.216.902-25.777 0S6.223 33.805 6.223 32 17.551 10.579 19.112 9.676c1.563-.902 24.216-.902 25.777 0S57.777 30.195 57.777 32" display="block" opacity=".15" overflow="visible" style="isolation:auto;mix-blend-mode:normal;paint-order:fill markers stroke"/><path fill="#ffcd34" d="M32 13.474c-2.253 0-4.501.04-6.296.12a42 42 0 0 0-2.32.162c-.322.034-.607.073-.889.126-.28.053-.492.04-1.055.357-.564.315-.66.501-.85.712a10 10 0 0 0-.555.684 38 38 0 0 0-1.303 1.869 135 135 0 0 0-3.258 5.232 134 134 0 0 0-3.036 5.356 38 38 0 0 0-1.018 2.032c-.13.287-.24.545-.333.808-.093.264-.213.437-.213 1.069s.12.805.213 1.068c.092.263.203.52.333.808a38 38 0 0 0 1.017 2.032c.824 1.55 1.912 3.462 3.038 5.355a154 154 0 0 0 2.124 3.459l-2.935 9.38 7.362-4.08c.18.053.316.066.472.096.279.054.565.092.886.126.644.068 1.423.119 2.32.16 1.795.083 4.043.123 6.296.123s4.5-.04 6.294-.122a40 40 0 0 0 2.322-.16c.32-.035.607-.074.888-.127s.494-.04 1.058-.357c.563-.315.659-.501.847-.711a11 11 0 0 0 .556-.685 38 38 0 0 0 1.303-1.869 135 135 0 0 0 3.258-5.232 134 134 0 0 0 3.036-5.356 37 37 0 0 0 1.016-2.032 10 10 0 0 0 .335-.808c.093-.263.213-.437.213-1.068s-.12-.805-.213-1.069a10 10 0 0 0-.334-.808 38 38 0 0 0-1.016-2.032 134 134 0 0 0-3.037-5.355 135 135 0 0 0-3.258-5.232 38 38 0 0 0-1.303-1.87 10 10 0 0 0-.556-.684c-.188-.21-.284-.397-.849-.713-.563-.317-.775-.303-1.055-.357a11 11 0 0 0-.89-.124 40 40 0 0 0-2.32-.161A144 144 0 0 0 32 13.473zm0 4.214c2.199 0 4.402.041 6.09.118.243.012.374.03.594.043l-6.722 10.006-6.805-9.997c.27-.018.444-.037.754-.052A142 142 0 0 1 32 17.689zm10.628 3.68a147 147 0 0 1 2.137 3.477 131 131 0 0 1 2.94 5.177c.387.73.702 1.36.9 1.8.038.08.047.11.075.178-.027.068-.037.097-.074.18-.2.44-.514 1.07-.9 1.798a131 131 0 0 1-2.941 5.178 142 142 0 0 1-2.43 3.935l-7.197-10.574zm-21.334.12 7.521 11.05-7.12 10.6a141 141 0 0 1-2.46-3.982 131 131 0 0 1-2.941-5.177 35 35 0 0 1-.9-1.799c-.037-.082-.047-.111-.075-.18.027-.067.038-.096.074-.179.2-.44.514-1.07.9-1.798.776-1.457 1.84-3.33 2.941-5.178a149 149 0 0 1 2.06-3.356zM31.991 37.2l6.122 8.993-.024.003c-1.688.077-3.891.117-6.09.117-2.184 0-4.369-.04-6.052-.115z" display="block" font-weight="400" overflow="visible" style="font-feature-settings:normal;font-variant-alternates:normal;font-variant-caps:normal;font-variant-ligatures:normal;font-variant-numeric:normal;font-variant-position:normal;isolation:auto;mix-blend-mode:normal;paint-order:fill markers stroke;shape-padding:0;text-decoration-color:#000;text-decoration-line:none;text-decoration-style:solid;text-indent:0;text-orientation:mixed;text-transform:none;white-space:normal"/><path d="M3.999 45.998V47A12.975 12.975 0 0 0 17 60.002h30A12.975 12.975 0 0 0 60.002 47v-1.002A12.975 12.975 0 0 1 47 59H17A12.975 12.975 0 0 1 4 45.998z" opacity=".15"/><path fill="#fff" d="M3.999 18.002v-.994A12.975 12.975 0 0 1 17 4.006h30a12.975 12.975 0 0 1 13.002 13.002v1.002A12.975 12.975 0 0 0 47 5.008H17A12.975 12.975 0 0 0 4 18.01z" opacity=".15"/></svg>