<svg xmlns="http://www.w3.org/2000/svg" viewBox="0 0 64 64"><defs><radialGradient id="a" cx="-97.261" cy="196.541" r="29.886" gradientTransform="rotate(239.992 -218.697 131.659)scale(2.88952 2.20023)" gradientUnits="userSpaceOnUse"><stop offset="0" stop-color="#62a0ea"/><stop offset=".552" stop-color="#f66151"/><stop offset=".744" stop-color="#ffa348"/><stop offset="1" stop-color="#f6d32d"/></radialGradient><linearGradient id="b" x1="54" x2="87.392" y1="82" y2="45.261" gradientUnits="userSpaceOnUse"><stop offset="0" stop-color="#e5a50a"/><stop offset=".327" stop-color="#c01c28"/><stop offset=".708" stop-color="#9141ac"/><stop offset="1" stop-color="#3584e4"/></linearGradient></defs><rect width="56.002" height="56.002" x="4" y="3.969" fill="#f2f2f2" rx="13.002" ry="13.002"/><path d="M3.998 45.998v1c0 7.203 5.8 13.004 13.004 13.004h29.996c7.203 0 13.004-5.8 13.004-13.004v-1c0 7.203-5.8 13.002-13.004 13.002H17.002A12.975 12.975 0 0 1 3.998 45.998" opacity=".1"/><path fill="#fff" d="M3.998 18.004v-1C3.998 9.801 9.798 4 17.002 4h29.996c7.203 0 13.004 5.8 13.004 13.004v1c0-7.203-5.8-13.002-13.004-13.002H17.002A12.975 12.975 0 0 0 3.998 18.004" opacity=".5"/><path fill="#62a0ea" d="M19.744 51.769a.942.942 0 1 1-1.884 0 .942.942 0 0 1 1.884 0m-3.771 0a.942.942 0 1 1-1.884 0 .942.942 0 0 1 1.884 0m11.314 0a.942.942 0 1 1-1.885 0 .942.942 0 0 1 1.885 0m-3.771 0a.942.942 0 1 1-1.885 0 .942.942 0 0 1 1.885 0m11.314 0a.942.942 0 1 1-1.885 0 .942.942 0 0 1 1.884 0m-3.771 0a.942.942 0 1 1-1.884 0 .942.942 0 0 1 1.884 0m11.314 0a.942.942 0 1 1-1.885 0 .942.942 0 0 1 1.885 0m-3.772 0a.942.942 0 1 1-1.884 0 .942.942 0 0 1 1.885 0m11.313 0a.942.942 0 1 1-1.884 0 .942.942 0 0 1 1.884 0m-3.771 0a.942.942 0 1 1-1.884 0 .942.942 0 0 1 1.884 0m-35.827-30.17a.942.942 0 1 1 0-1.885.942.942 0 0 1 0 1.885m0-3.772a.942.942 0 1 1 0-1.884.942.942 0 0 1 0 1.884m0 11.314a.942.942 0 1 1 0-1.884.942.942 0 0 1 0 1.884m0-3.771a.942.942 0 1 1 0-1.885.942.942 0 0 1 0 1.885m0 11.314a.942.942 0 1 1 0-1.885.942.942 0 0 1 0 1.885m0-3.772a.942.942 0 1 1 0-1.884.942.942 0 0 1 0 1.884m0 11.314a.942.942 0 1 1 0-1.884.942.942 0 0 1 0 1.884m0-3.771a.942.942 0 1 1 0-1.885.942.942 0 0 1 0 1.885m0 11.314a.942.942 0 1 1 0-1.885.942.942 0 0 1 0 1.885m0-3.772a.942.942 0 1 1 0-1.884.942.942 0 0 1 0 1.884m43.37-26.398a.942.942 0 1 1-.001-1.885.942.942 0 0 1 0 1.885m.001-3.772a.942.942 0 1 1-.001-1.884.942.942 0 0 1 0 1.884m.001 11.314a.942.942 0 1 1-.001-1.884.942.942 0 0 1 0 1.884m.001-3.771a.942.942 0 1 1-.001-1.885.942.942 0 0 1 0 1.885m.001 11.314a.942.942 0 1 1-.001-1.885.942.942 0 0 1 0 1.885m.001-3.772a.942.942 0 1 1-.001-1.884.942.942 0 0 1 0 1.884m.001 11.314a.942.942 0 1 1-.001-1.884.942.942 0 0 1 0 1.884m.001-3.771a.942.942 0 1 1-.001-1.885.942.942 0 0 1 0 1.885m.001 11.314a.942.942 0 1 1-.001-1.885.942.942 0 0 1 0 1.885m.001-3.772a.942.942 0 1 1-.001-1.884.942.942 0 0 1 0 1.884M19.744 12.17a.942.942 0 1 1-1.884.002.942.942 0 0 1 1.884-.001m-3.771-.001a.942.942 0 1 1-1.884.002.942.942 0 0 1 1.884-.001m11.314-.001a.942.942 0 1 1-1.885.002.942.942 0 0 1 1.885-.001m-3.771-.001a.942.942 0 1 1-1.885.002.942.942 0 0 1 1.885-.001m11.314-.001a.942.942 0 1 1-1.885.002.942.942 0 0 1 1.884-.001m-3.771-.001a.942.942 0 1 1-1.884.002.942.942 0 0 1 1.884-.001m11.314-.001a.942.942 0 1 1-1.885.002.942.942 0 0 1 1.885-.001M38.6 12.17a.942.942 0 1 1-1.884.002.942.942 0 0 1 1.885-.001m11.313-.001a.942.942 0 1 1-1.884.002.942.942 0 0 1 1.884-.001m-3.771-.001a.942.942 0 1 1-1.884.002.942.942 0 0 1 1.884-.001m0 0"/><path fill="#3584e4" d="M53.686 48.94a2.83 2.83 0 1 1-.002 5.659 2.83 2.83 0 0 1 .002-5.659m0-39.598A2.83 2.83 0 1 1 53.684 15a2.83 2.83 0 0 1 .002-5.658M10.316 48.94a2.83 2.83 0 1 1-.001 5.659 2.83 2.83 0 0 1 .001-5.659m0-39.598A2.83 2.83 0 1 1 10.315 15a2.83 2.83 0 0 1 .001-5.658m0 0"/><path fill="#99c1f1" d="M10.316 10.756a1.415 1.415 0 1 1 0 2.83 1.415 1.415 0 0 1 0-2.83m43.37 0a1.415 1.415 0 1 1-.001 2.83 1.415 1.415 0 0 1 0-2.83M10.316 50.354a1.415 1.415 0 1 1 0 2.83 1.415 1.415 0 0 1 0-2.83m43.37 0a1.415 1.415 0 1 1-.001 2.83 1.415 1.415 0 0 1 0-2.83m0 0"/><path fill="url(#a)" d="M69.977 19.465c7.21 7.215 3.597 22.523-8.075 34.195s-26.98 15.285-34.191 8.07c-7.215-7.21-3.602-22.52 8.07-34.19 11.672-11.673 26.98-15.286 34.196-8.075m0 0" style="fill:url(#a)" transform="translate(1.831 3.685)scale(.4714)"/><path fill="url(#b)" d="M28.867 62.887 58.07 92.09l2.446 2.48c8.054 4.2 21.636-.465 31.746-10.55 10.086-10.11 14.629-23.672 10.43-31.727-10.399-10.672-21.024-21.133-31.56-31.672l-.124.125c5.762 7.695 1.812 21.969-9.106 32.914-10.941 10.918-25.214 14.867-32.914 9.106Zm0 0" style="fill:url(#b)" transform="translate(1.831 3.685)scale(.4714)"/></svg>