<svg xmlns="http://www.w3.org/2000/svg" xml:space="preserve" viewBox="0 0 16.933 16.933"><defs><clipPath id="a" clipPathUnits="userSpaceOnUse"><rect width="80" height="80" x="24" y="16" fill="#8e74dc" rx="16" ry="16" style="fill:#3368aa;fill-opacity:1;stroke-width:1.6"/></clipPath></defs><rect width="14.817" height="14.817" x="1.058" y="1.058" fill="#f2f2f2" rx="3.44" ry="3.44" style="fill:#62a0ea;fill-opacity:1"/><g transform="matrix(.9 0 0 .9 .847 .847)"><rect width="13.229" height="13.229" x="1.852" y="1.852" fill="#8e74dc" rx="2.646" ry="2.646" style="fill:#3368aa;fill-opacity:1;stroke-width:.264578"/><g clip-path="url(#a)" style="fill:none" transform="translate(-2.117 -.794)scale(.16536)"><path fill="#62a0ea" d="M24 52h80v7H24z" style="stroke-width:1.05409"/><path fill="#b5835a" d="M71.778 30.222H104v22.222H71.778z"/><path fill="#fff" d="M76.222 33.556h20v5.555h-20zm0 7.777h13.334v3.334H76.222z" opacity=".5"/><path fill="#d4a782" d="M24 21.333h47.778v31.111H24z"/><path fill="#fff" d="M27.333 24.667h22.223v5.555H27.333zm0 7.777H44v3.334H27.333z" opacity=".5"/><path fill="#b5835a" d="M24 76.889h32.222V99.11H24z"/><path fill="#fff" d="M28.444 80.222h20v5.556h-20zm0 7.778h13.334v3.333H28.444z" opacity=".5"/><path fill="#d4a782" d="M104 68H56.222v31.111H104z"/><path fill="#fff" d="M59.556 71.333h22.222v5.556H59.556zm0 7.778h16.666v3.333H59.556z" opacity=".5"/></g></g><path d="M1.058 12.17v.265a3.433 3.433 0 0 0 3.44 3.44h7.937a3.433 3.433 0 0 0 3.44-3.44v-.265a3.433 3.433 0 0 1-3.44 3.44H4.498a3.433 3.433 0 0 1-3.44-3.44" opacity=".1"/><path fill="#fff" d="M1.058 4.763V4.5a3.433 3.433 0 0 1 3.44-3.44h7.937a3.433 3.433 0 0 1 3.44 3.44v.265a3.433 3.433 0 0 0-3.44-3.44H4.498a3.433 3.433 0 0 0-3.44 3.44z" opacity=".5"/></svg>