<svg xmlns="http://www.w3.org/2000/svg" xml:space="preserve" width="64" height="64"><defs><linearGradient id="a" x1="7.937" x2="7.937" y1="15.081" y2="1.852" gradientTransform="scale(3.7796)" gradientUnits="userSpaceOnUse"><stop offset="0" stop-color="#363636" style="stop-color:#000;stop-opacity:1"/><stop offset="1" stop-color="#6c6c6c"/></linearGradient></defs><rect width="56" height="56" x="4" y="4" fill="url(#a)" rx="13" ry="13" style="fill:url(#a)"/><path d="M100.653 161.9c-.269-.212-.297-.296-.486-1.468-.095-.594-.196-1.098-.223-1.12-.094-.08-1.404-.338-1.448-.287-.024.029-.326.455-.67.947-.691.99-.816 1.085-1.367 1.032-.423-.04-2.247-.925-2.455-1.19-.253-.322-.245-.461.102-1.67l.329-1.149-.151-.106a17 17 0 0 1-.565-.438l-.415-.333-.213.11c-.118.06-.55.3-.963.534-.412.233-.844.445-.96.47-.427.093-.74-.137-1.524-1.119-.718-.898-.82-1.073-.82-1.39 0-.348.058-.434.929-1.374l.7-.754-.312-.643a22 22 0 0 0-.33-.663c-.01-.011-.54.016-1.178.058-1.306.088-1.428.064-1.692-.328-.198-.294-.514-1.609-.554-2.304-.031-.535-.027-.557.173-.783.16-.183.423-.32 1.234-.642l1.03-.408v-1.432l-1.03-.408c-1.273-.506-1.423-.64-1.423-1.272 0-.432.279-1.808.457-2.254.056-.14.198-.336.315-.434.229-.193.3-.195 2.157-.052l.511.039.32-.667.32-.666-.699-.754c-.87-.938-.929-1.025-.929-1.37 0-.308.22-.667.957-1.564.69-.84.979-1.037 1.389-.948.115.025.547.237.959.47s.845.474.963.534l.213.11.415-.333c.227-.183.482-.38.565-.438l.15-.106-.328-1.149c-.347-1.208-.355-1.348-.102-1.67.208-.265 2.032-1.15 2.455-1.19.55-.053.676.041 1.367 1.032.344.492.646.918.67.947.044.05 1.354-.207 1.446-.285.026-.021.127-.515.223-1.096.214-1.29.202-1.249.454-1.461l.206-.174h1.417c1.902 0 1.81-.07 2.082 1.609.096.594.196 1.098.223 1.12.094.08 1.404.338 1.447.287.024-.029.328-.456.676-.95.697-.989.819-1.081 1.362-1.029.423.04 2.247.925 2.455 1.19.254.322.245.462-.101 1.67l-.33 1.15.151.105c.083.058.338.255.566.438l.414.333.214-.11c.117-.06.55-.3.962-.534.413-.233.844-.445.96-.47.41-.089.699.109 1.389.948.736.897.956 1.256.956 1.564 0 .345-.06.432-.929 1.37l-.699.754.32.666.32.667.51-.04c1.858-.142 1.93-.14 2.159.053.116.098.258.293.314.434.178.446.458 1.822.458 2.254 0 .631-.151.766-1.423 1.272l-1.029.409v.717l-.001.717 1.03.407c.81.32 1.072.456 1.233.64.2.226.205.248.174.783-.04.695-.357 2.01-.554 2.304-.265.392-.387.416-1.692.328-.639-.043-1.168-.069-1.177-.058s-.157.31-.329.664l-.313.643.699.754c.87.939.929 1.025.929 1.372 0 .318-.103.493-.82 1.391-.785.982-1.097 1.212-1.526 1.119-.115-.025-.546-.237-.959-.47a46 46 0 0 0-.962-.534l-.214-.11-.414.333c-.228.183-.483.38-.566.438l-.15.106.329 1.149c.346 1.209.355 1.348.101 1.67-.208.265-2.032 1.15-2.455 1.19-.543.052-.665-.04-1.362-1.03-.348-.493-.652-.92-.676-.949-.043-.051-1.353.208-1.447.286-.027.022-.127.527-.223 1.121-.19 1.172-.217 1.256-.486 1.467-.169.133-.266.142-1.592.142s-1.424-.01-1.593-.142" style="fill:#77767b;fill-opacity:1;stroke:none;stroke-width:1.0025;stroke-opacity:1" transform="translate(-97.963 -153.666)scale(1.2714)"/><g style="stroke-width:.986031" transform="translate(-99.804 -156.289)scale(1.28942)"><path d="M100.676 161.15c-.266-.208-.293-.291-.48-1.446-.094-.586-.193-1.083-.22-1.106-.092-.077-1.384-.332-1.428-.281-.023.028-.32.448-.66.933-.682.977-.805 1.07-1.348 1.017-.417-.04-2.215-.911-2.421-1.173-.25-.317-.241-.455.1-1.647l.325-1.132-.149-.105a16 16 0 0 1-.557-.432l-.41-.328-.21.108c-.115.06-.542.297-.949.527s-.832.438-.945.463c-.423.092-.731-.134-1.504-1.103-.707-.885-.81-1.058-.81-1.371 0-.343.058-.428.918-1.354l.69-.744-.308-.634c-.17-.348-.316-.642-.326-.653s-.532.015-1.161.057c-1.287.086-1.408.063-1.669-.324-.194-.29-.506-1.586-.546-2.271-.03-.528-.026-.55.17-.773.16-.18.419-.315 1.218-.633l1.015-.402v-1.412l-1.015-.403c-1.255-.498-1.404-.63-1.404-1.253 0-.427.276-1.784.451-2.223.056-.139.196-.332.31-.429.227-.19.297-.191 2.128-.05l.504.038.316-.657.315-.658-.69-.743c-.857-.924-.915-1.01-.915-1.351 0-.303.216-.657.943-1.541.68-.828.965-1.023 1.37-.935.113.024.539.233.945.463.407.23.834.467.95.526l.21.109.409-.328c.224-.18.475-.375.557-.433l.149-.104-.325-1.132c-.341-1.192-.35-1.33-.1-1.647.206-.262 2.004-1.134 2.42-1.174.544-.052.667.041 1.35 1.018.338.485.635.905.66.933.042.05 1.334-.204 1.426-.28.025-.021.124-.508.22-1.08.21-1.272.198-1.233.447-1.442l.203-.171h1.397c1.875 0 1.786-.07 2.053 1.586.094.586.193 1.083.22 1.105.092.078 1.384.333 1.427.282.023-.028.323-.449.666-.936.687-.975.808-1.066 1.344-1.015.416.04 2.215.912 2.42 1.174.25.317.241.455-.1 1.647l-.325 1.132.15.104c.08.058.332.252.557.433l.408.328.21-.109c.116-.059.544-.296.95-.526.407-.23.832-.439.946-.463.404-.088.69.107 1.37.935.726.884.942 1.238.942 1.54 0 .342-.058.428-.916 1.352l-.689.743.316.658.315.657.504-.039c1.831-.14 1.902-.139 2.128.051.115.097.254.29.31.43.175.438.45 1.795.45 2.222 0 .622-.148.755-1.402 1.253l-1.014.403v.708l-.002.707 1.015.401c.8.316 1.058.45 1.217.631.197.223.202.245.171.773-.04.685-.351 1.981-.546 2.27-.261.388-.381.411-1.669.325-.629-.043-1.15-.068-1.16-.057a31 31 0 0 0-.324.654l-.31.634.69.743c.859.926.916 1.01.916 1.354 0 .313-.101.486-.808 1.371-.774.969-1.082 1.195-1.504 1.103-.114-.024-.54-.233-.946-.463s-.834-.467-.95-.527l-.21-.108-.408.328c-.225.18-.476.375-.558.432l-.149.105.325 1.132c.341 1.192.35 1.33.1 1.647-.205.262-2.004 1.133-2.42 1.173-.536.052-.657-.039-1.344-1.014a65 65 0 0 0-.666-.936c-.043-.051-1.335.204-1.427.281-.027.022-.126.52-.22 1.106-.187 1.155-.214 1.238-.48 1.446-.166.131-.261.14-1.57.14-1.308 0-1.403-.01-1.57-.14" style="fill:#33d17a;fill-opacity:1;stroke:none;stroke-width:.988496;stroke-opacity:1"/><circle cx="102.246" cy="145.637" r="10.223" style="opacity:1;fill:#000;fill-opacity:1;stroke:none;stroke-width:1.61407;stroke-dasharray:none;stroke-opacity:1"/><g style="stroke-width:3.77953" transform="translate(62.833 95.363)scale(.26089)"><circle cx="134.195" cy="192.704" r="13.029" style="fill:#33d17a;fill-opacity:1;stroke-width:1.48402;stroke-dasharray:none"/><path d="m157.817 192.704 23.16-13.029v26.057z" style="fill:#33d17a;stroke-width:1"/></g></g></svg>