<svg xmlns="http://www.w3.org/2000/svg" viewBox="0 0 64 64"><rect width="56.002" height="56.002" x="4" y="3.969" fill="#63b389" rx="13.002" ry="13.002"/><path d="M3.998 45.998v1c0 7.203 5.8 13.004 13.004 13.004h29.996c7.203 0 13.004-5.8 13.004-13.004v-1c0 7.203-5.8 13.002-13.004 13.002H17.002A12.975 12.975 0 0 1 3.998 45.998" opacity=".15"/><path fill="#fff" d="M3.998 18.004v-1C3.998 9.801 9.798 4 17.002 4h29.996c7.203 0 13.004 5.8 13.004 13.004v1c0-7.203-5.8-13.002-13.004-13.002H17.002A12.975 12.975 0 0 0 3.998 18.004" opacity=".15"/><path fill="#fff" d="M25.529 19.243c-1.01 0-2.016.867-1.823 1.9l2.825 15.2-5.063 10.554c-.36.724-.428 1.166-.164 1.796.252.601.903.95 1.58.95h18.233c.677 0 1.328-.349 1.58-.95.265-.63.197-1.072-.163-1.796L37.47 36.343l2.826-15.2c.192-1.033-.813-1.9-1.823-1.9H32z" opacity=".65"/><path fill="#fff" d="M13 40.143v2.172c0 1.052.848 1.9 1.9 1.9h34.2c1.053 0 1.9-.848 1.9-1.9v-2.172z"/><path fill="#077063" d="M14.9 14.357c-1.052 0-1.9.848-1.9 1.9v23.886h38V16.257c0-1.052-.847-1.9-1.9-1.9z"/><path fill="#30dd81" d="M32.002 25.215c-7.796 0-14.202 5.921-14.928 13.492-.069 1.437 1.448 1.436 1.448 1.436h26.92s1.56 0 1.484-1.509c-.76-7.536-7.152-13.42-14.924-13.42z"/><path fill="#fff" d="M24.536 32a2.036 2.036 0 0 1 2.036 2.036 2.036 2.036 0 0 1-2.036 2.036 2.036 2.036 0 0 1-2.036-2.036A2.036 2.036 0 0 1 24.536 32m14.929 0a2.036 2.036 0 0 1 2.035 2.036 2.036 2.036 0 0 1-2.035 2.036 2.036 2.036 0 0 1-2.036-2.036A2.036 2.036 0 0 1 39.465 32"/></svg>