<svg xmlns="http://www.w3.org/2000/svg" viewBox="0 0 16.933 16.933"><rect width="14.816" height="14.816" x="1.058" y="1.058" fill="#3a5162" rx="3.44" ry="3.44"/><g stroke-width=".265" transform="translate(0 .132)"><path fill="#10dc8c" d="M6.482 10.451a1.984 1.984 0 0 0-1.984 1.984 1.984 1.984 0 0 0 1.984 1.985 1.984 1.984 0 0 0 1.985-1.985v-1.984z"/><circle cx="10.451" cy="8.466" r="1.984" fill="#3ab6e8"/><path fill="#9b61e4" d="M6.482 6.482h1.985v3.969H6.482a1.98 1.98 0 0 1-1.984-1.984c0-1.1.885-1.985 1.984-1.985"/><path fill="#f66f49" d="M6.482 2.514a1.98 1.98 0 0 0-1.984 1.984c0 1.1.885 1.984 1.984 1.984h1.985V2.513z"/><path fill="#ff8172" d="M8.467 2.514h1.984c1.1 0 1.984.885 1.984 1.984a1.98 1.98 0 0 1-1.984 1.984H8.467z"/></g><path d="M1.058 12.17v.265a3.433 3.433 0 0 0 3.44 3.44h7.937a3.433 3.433 0 0 0 3.44-3.44v-.265a3.433 3.433 0 0 1-3.44 3.44H4.498a3.433 3.433 0 0 1-3.44-3.44" opacity=".25"/><path fill="#fff" d="M1.058 4.763V4.5a3.433 3.433 0 0 1 3.44-3.44h7.937a3.433 3.433 0 0 1 3.44 3.44v.264a3.433 3.433 0 0 0-3.44-3.44H4.498a3.433 3.433 0 0 0-3.44 3.44z" opacity=".15"/></svg>