<svg xmlns="http://www.w3.org/2000/svg" viewBox="0 0 64 64"><rect width="56.002" height="56.002" x="4" y="3.969" fill="#224051" rx="13.002" ry="13.002"/><path d="M3.998 45.998v1c0 7.203 5.8 13.004 13.004 13.004h29.996c7.203 0 13.004-5.8 13.004-13.004v-1c0 7.203-5.8 13.002-13.004 13.002H17.002A12.975 12.975 0 0 1 3.998 45.998" opacity=".35"/><path fill="#fff" d="M3.998 18.004v-1C3.998 9.801 9.798 4 17.002 4h29.996c7.203 0 13.004 5.8 13.004 13.004v1c0-7.203-5.8-13.002-13.004-13.002H17.002A12.975 12.975 0 0 0 3.998 18.004" opacity=".15"/><path fill="#f9f9f9" d="M47.652 45.043s-2.609-3.913-6.522-3.913c-3.648.703-5.095.107-5.217 0V25.334c-.174-3.322-2.9-6.655-6.96-8.187-5.151-1.946-10.598-.255-12.172 3.79-1.58 4.04 1.304 8.932 6.46 10.878 3.99 1.508 7.653 1.13 10.063-1.126v15.652c5.218 3.47 10.068-1.253 14.348-1.304"/></svg>