<svg xmlns="http://www.w3.org/2000/svg" xmlns:xlink="http://www.w3.org/1999/xlink" viewBox="0 0 64 64"><defs><linearGradient id="a"><stop offset="0" stop-color="#dcdcdc"/><stop offset="1" stop-color="#f8f8f8"/></linearGradient><linearGradient id="e" x1="540" x2="540" y1="452.36" y2="632.36" gradientTransform="translate(-1.906 -2.295)scale(.06401)" gradientUnits="userSpaceOnUse"><stop offset="0" stop-color="#d7d7d7"/><stop offset="1" stop-color="#fff"/></linearGradient><linearGradient id="b" x1="7.937" x2="7.937" y1="15.081" y2="1.852" gradientTransform="scale(3.7796)" gradientUnits="userSpaceOnUse"><stop offset="0" stop-color="#112b40"/><stop offset="1" stop-color="#0074a4"/></linearGradient><linearGradient xlink:href="#a" id="c" x1="18.085" x2="15.425" y1="21.879" y2="11.119" gradientUnits="userSpaceOnUse"/><linearGradient xlink:href="#a" id="d" x1="18.085" x2="15.425" y1="21.879" y2="11.119" gradientTransform="rotate(61.393 30.112 11.344)scale(3.33562)" gradientUnits="userSpaceOnUse"/></defs><rect width="56.002" height="56.002" x="4" y="3.969" fill="url(#b)" rx="13.002" ry="13.002" style="fill:#065c83;fill-opacity:1"/><path fill="url(#c)" d="m20.433 11.778-.251.673a.12.12 0 0 0 .037.13l.296.228a.13.13 0 0 0 .137.002l.584-.417a.104.104 0 0 1 .13.01l.245.245a.1.1 0 0 1 .01.13l-.416.584a.12.12 0 0 0 .002.137l.227.296a.12.12 0 0 0 .131.037l.672-.251a.104.104 0 0 1 .123.044l.173.3a.1.1 0 0 1-.023.127l-.555.457a.12.12 0 0 0-.033.132l.142.345c.018.042.07.074.118.07l.714-.07a.104.104 0 0 1 .107.075l.09.334a.1.1 0 0 1-.056.118l-.654.297a.12.12 0 0 0-.066.12l.049.37c.006.045.049.09.095.097l.708.118a.104.104 0 0 1 .084.1v.345a.1.1 0 0 1-.084.1l-.707.118a.12.12 0 0 0-.095.098l-.048.37c-.006.045.023.1.066.12l.653.296c.042.02.067.073.055.118l-.09.334a.1.1 0 0 1-.106.074l-.714-.069a.12.12 0 0 0-.117.07l-.144.345a.12.12 0 0 0 .034.133l.554.456c.036.03.047.087.023.128l-.173.3a.104.104 0 0 1-.123.044l-.672-.252a.12.12 0 0 0-.132.037l-.226.297a.12.12 0 0 0-.002.136l.417.585a.104.104 0 0 1-.011.13l-.245.244a.1.1 0 0 1-.13.01l-.583-.416a.12.12 0 0 0-.137.002l-.297.227a.12.12 0 0 0-.037.132l.252.672a.104.104 0 0 1-.044.122l-.3.173a.1.1 0 0 1-.128-.023l-.456-.555a.12.12 0 0 0-.133-.033l-.344.143a.12.12 0 0 0-.07.117l.069.715a.104.104 0 0 1-.074.107l-.335.09a.1.1 0 0 1-.117-.056l-.298-.654a.12.12 0 0 0-.12-.067l-.37.05a.12.12 0 0 0-.097.094l-.118.709a.104.104 0 0 1-.1.084h-.345a.1.1 0 0 1-.1-.084l-.117-.708a.12.12 0 0 0-.098-.095l-.37-.048a.12.12 0 0 0-.12.066l-.297.653a.104.104 0 0 1-.118.056l-.334-.09a.1.1 0 0 1-.074-.107l.07-.714a.12.12 0 0 0-.071-.117l-.345-.143a.12.12 0 0 0-.132.033l-.457.554a.104.104 0 0 1-.128.023l-.3-.173a.104.104 0 0 1-.043-.122l.251-.673a.12.12 0 0 0-.037-.131l-.296-.227a.12.12 0 0 0-.137-.002l-.584.417a.104.104 0 0 1-.13-.011l-.245-.245a.1.1 0 0 1-.01-.13l.416-.583a.12.12 0 0 0-.002-.137l-.227-.296a.12.12 0 0 0-.131-.038l-.672.252a.104.104 0 0 1-.123-.044l-.173-.3a.1.1 0 0 1 .023-.128l.555-.456a.12.12 0 0 0 .033-.132l-.142-.345a.12.12 0 0 0-.118-.07l-.715.069a.104.104 0 0 1-.106-.074l-.09-.334a.1.1 0 0 1 .056-.118l.654-.297a.12.12 0 0 0 .066-.12l-.049-.37a.12.12 0 0 0-.095-.098l-.708-.118a.104.104 0 0 1-.084-.099v-.346c0-.048.037-.092.084-.099l.707-.118a.12.12 0 0 0 .095-.098l.048-.37a.12.12 0 0 0-.066-.12l-.653-.297a.104.104 0 0 1-.055-.117l.09-.334a.1.1 0 0 1 .106-.075l.714.07c.047.004.1-.027.117-.07l.144-.346a.12.12 0 0 0-.033-.132l-.555-.456a.104.104 0 0 1-.023-.128l.173-.3a.104.104 0 0 1 .123-.044l.672.252c.045.016.103 0 .132-.038l.226-.296a.12.12 0 0 0 .002-.137l-.417-.584a.104.104 0 0 1 .011-.13l.245-.244a.1.1 0 0 1 .13-.011l.584.417a.12.12 0 0 0 .136-.003l.297-.227a.12.12 0 0 0 .037-.131l-.252-.672a.104.104 0 0 1 .044-.122l.3-.173a.1.1 0 0 1 .128.023l.456.554c.03.037.09.051.133.033l.345-.142a.12.12 0 0 0 .07-.117l-.07-.715a.104.104 0 0 1 .075-.107l.334-.09a.1.1 0 0 1 .117.056l.298.654c.02.043.073.072.12.066l.37-.049a.12.12 0 0 0 .097-.095l.118-.708a.104.104 0 0 1 .1-.084h.345c.048 0 .092.037.1.084l.117.707a.12.12 0 0 0 .098.095l.37.049c.046.005.1-.024.12-.067l.297-.653a.104.104 0 0 1 .118-.055l.334.09c.046.012.079.06.074.106l-.069.715a.12.12 0 0 0 .07.117l.345.143a.12.12 0 0 0 .132-.033l.457-.555a.104.104 0 0 1 .128-.023l.3.173c.041.024.06.079.044.123zm-1.146 1.433a4.12 4.12 0 0 0-3.082-.427c-.194.05-.08.022-.08.022a.42.42 0 0 0-.241.62s-.079-.144.006.01l1.212 2.211c.183.334.639.598 1.02.59l2.686-.056c.166-.003 0 0 0 0a.398.398 0 0 0 .395-.497 4.12 4.12 0 0 0-1.916-2.473m-.068 7.191a4.12 4.12 0 0 0 1.954-2.421c.057-.192.022-.08.022-.08a.42.42 0 0 0-.406-.526s.163.006-.013 0l-2.52-.1c-.379-.016-.84.24-1.03.57l-1.336 2.331c-.083.145 0 0 0 0a.4.4 0 0 0 .224.595s-.16-.044 0 0a4.12 4.12 0 0 0 3.105-.368zm-4.888-.657a.398.398 0 0 0 .627-.105s-.084.144 0 0l1.35-2.322c.192-.33.183-.856-.02-1.178l-1.347-2.132c-.094-.149-.006-.01-.006-.01a.42.42 0 0 0-.658-.09s.079-.086-.059.06a4.12 4.12 0 0 0-1.12 2.902 4.12 4.12 0 0 0 1.234 2.874z" class="shp86" style="fill:#fff" transform="rotate(15 134.82 -50.073)scale(3.3356)"/><path fill="url(#d)" d="M4 36.625v6.385a13.7 13.7 0 0 1 3.457.412c.646.168.268.074.268.074.9.314 1.25 1.246.79 2.07l-.019.038-3.527 6.33a13 13 0 0 0 1.892 3.21c.08-.212.168-.417.284-.597l4.539-7.08c.317-.494.023-.035.023-.035.51-.796 1.496-.926 2.197-.282 0 0-.26-.29.196.2a13.74 13.74 0 0 1 3.67 9.707 13.7 13.7 0 0 1-.43 2.945h3.572l.19-1.22a.41.41 0 0 1 .324-.321l2.371-.338h.002a.345.345 0 0 0 .289-.324l.027-1.153a.346.346 0 0 0-.271-.34l-2.354-.45a.41.41 0 0 1-.308-.335l-.131-1.238a.405.405 0 0 1 .23-.392l2.202-.94a.344.344 0 0 0 .195-.387l-.272-1.123a.35.35 0 0 0-.35-.255l-2.386.173a.41.41 0 0 1-.385-.244l-.449-1.162a.4.4 0 0 1 .121-.437l1.883-1.477a.34.34 0 0 0 .088-.424l-.553-1.013a.346.346 0 0 0-.404-.157l-2.264.787a.41.41 0 0 1-.433-.134l-.735-1.006a.405.405 0 0 1 .004-.455l1.44-1.916a.345.345 0 0 0-.026-.434l-.795-.836a.346.346 0 0 0-.431-.047l-1.985 1.346a.41.41 0 0 1-.453-.018l-.969-.783a.41.41 0 0 1-.113-.44l.893-2.222a.344.344 0 0 0-.137-.414l-.984-.6a.346.346 0 0 0-.428.069l-1.567 1.808a.41.41 0 0 1-.443.102l-1.139-.506a.41.41 0 0 1-.226-.396l.29-2.375a.345.345 0 0 0-.24-.364l-1.107-.326a.346.346 0 0 0-.398.176l-1.043 2.154a.41.41 0 0 1-.405.211l-1.228-.19a.41.41 0 0 1-.32-.324L5.39 36.94a.345.345 0 0 0-.324-.289z" class="shp86" style="fill:#fff"/><circle cx="32.643" cy="32.365" r="4.775" fill="url(#e)" style="paint-order:stroke markers fill;fill:#fff"/><path d="M3.998 45.998v1c0 7.203 5.8 13.004 13.004 13.004h29.996c7.203 0 13.004-5.8 13.004-13.004v-1c0 7.203-5.8 13.002-13.004 13.002H17.002A12.975 12.975 0 0 1 3.998 45.998" opacity=".15"/><path fill="#fff" d="M3.998 18.004v-1C3.998 9.801 9.798 4 17.002 4h29.996c7.203 0 13.004 5.8 13.004 13.004v1c0-7.203-5.8-13.002-13.004-13.002H17.002A12.975 12.975 0 0 0 3.998 18.004" opacity=".15"/></svg>