<svg xmlns="http://www.w3.org/2000/svg" viewBox="0 0 64 64"><rect width="56.002" height="56.002" x="4" y="3.969" fill="#b6c5c9" rx="13.002" ry="13.002"/><rect width="51.996" height="51.939" x="6.002" y="6" fill="#030000" rx="11" ry="11"/><rect width="46.002" height="46.002" x="9" y="9" fill="#f64678" rx="8" ry="8"/><path fill="#fff" d="M42.592 24.001h.003l-7.545.006c-4.951 0-7.575-.003-7.575-.003-.697 0-1.253.674-1.27 1.332 0 0-.024-.543-.024 6.618l.006 6.676c.092.984.676 1.318 1.303 1.371l7.569-.018h7.486c1.072 0 1.4-.72 1.456-1.391v-6.635l-.003-6.467c0-.934-.603-1.489-1.406-1.489m-23.554 1.773v12.443h.366l.627-.01 2.83-3.083c1.699-1.702 3.09-3.138 3.09-3.194 0-.053-1.362-1.46-3.028-3.126l-2.765-3.025-.692-.006zm16.059.455a5.78 5.78 0 0 1 5.734 6.443l-.012.103a5.78 5.78 0 0 1-6.47 4.957 5.777 5.777 0 0 1-4.983-6.1 5.776 5.776 0 0 1 5.731-5.403"/><path fill="#fff" d="M38.116 32.411a3.05 3.05 0 0 1-3.415 2.615 3.048 3.048 0 1 1 3.42-2.67M17.002 12.002c-2.77 0-5 2.23-5 5V19H13v-1.998A3.993 3.993 0 0 1 17.002 13H20v-.998zm26.998 0V13h3a3.993 3.993 0 0 1 4.002 4.002V19H52v-1.998c0-2.77-2.23-5-5-5zM12.002 43v4c0 2.77 2.23 5 5 5H20v-.998h-2.998A3.993 3.993 0 0 1 13 47v-4zm39 0v4A3.993 3.993 0 0 1 47 51.002h-3V52h3c2.77 0 5-2.23 5-5v-4z"/></svg>