<svg xmlns="http://www.w3.org/2000/svg" viewBox="0 0 64 64"><defs><linearGradient id="a" x1="7.937" x2="7.937" y1="15.081" y2="1.852" gradientTransform="scale(3.7796)" gradientUnits="userSpaceOnUse"><stop offset="0" stop-color="#363636" style="stop-color:#ffeac2;stop-opacity:1"/><stop offset="1" stop-color="#6c6c6c" style="stop-color:#fff9eb;stop-opacity:1"/></linearGradient></defs><rect width="56.002" height="56.002" x="4" y="3.969" fill="url(#a)" rx="13.002" ry="13.002" style="fill:#fff1d6;fill-opacity:1"/><path stroke="#3d3846" stroke-linecap="round" stroke-linejoin="round" stroke-width="1.802" d="M28.696 52.725h2.403m-2.403 0V48.52m-7.81-37.245h4.206m3.003 0H32.3m1.803 41.45h4.205m-24.63-41.45h4.205m-4.205 41.45h4.205m29.436-4.205h3.003m-3.003 4.205h3.003m-1.501-4.205v4.205M47.319 40.11h3.003m-3.003 4.205h3.003m-1.501-4.205v4.205M20.886 48.52v4.205l2.103-2.102 2.103 2.102V48.52m16.52 3.004s0 1.201.9 1.201c1.202 0 1.202-1.201 1.202-1.201V48.52M20.886 14.88v4.806m4.206 0V14.88m-4.206 2.403h4.206m-4.206 6.007v4.806m4.206 0V23.29m-4.206 2.403h4.206M20.886 31.7v4.806m4.206 0V31.7m-4.206 2.403h4.206m-4.206 6.007v4.806m4.206 0V40.11m-4.206 2.403h4.206" style="display:inline;fill:none;fill-opacity:0;stroke:#3d3846;stroke-opacity:1"/><path d="M3.998 45.998v1c0 7.203 5.8 13.004 13.004 13.004h29.996c7.203 0 13.004-5.8 13.004-13.004v-1c0 7.203-5.8 13.002-13.004 13.002H17.002A12.975 12.975 0 0 1 3.998 45.998" opacity=".15" style="opacity:.1"/><path fill="#fff" d="M3.998 18.004v-1C3.998 9.801 9.798 4 17.002 4h29.996c7.203 0 13.004 5.8 13.004 13.004v1c0-7.203-5.8-13.002-13.004-13.002H17.002A12.975 12.975 0 0 0 3.998 18.004" opacity=".15" style="opacity:.5"/></svg>