<svg xmlns="http://www.w3.org/2000/svg" viewBox="0 0 64 64"><defs><linearGradient id="b" x1="46" x2="26" y1="276" y2="276" gradientTransform="matrix(1 0 0 -1 24 308)" gradientUnits="userSpaceOnUse"><stop offset="0" stop-color="#c92165"/><stop offset="1" stop-color="#df3e7e"/></linearGradient><linearGradient id="c" x1="62" x2="74" y1="62" y2="62" gradientUnits="userSpaceOnUse"><stop offset="0" stop-color="#df3e7e"/><stop offset=".333" stop-color="#e878a5"/><stop offset="1" stop-color="#df3e7e"/></linearGradient><linearGradient id="d" x1="62" x2="70" y1="26.001" y2="26.001" gradientUnits="userSpaceOnUse"><stop offset="0" stop-color="#b0265e"/><stop offset="1" stop-color="#ea81aa"/></linearGradient><linearGradient id="e" x1="46" x2="26" y1="276" y2="276" gradientTransform="matrix(1 0 0 -1 0 328)" gradientUnits="userSpaceOnUse"><stop offset="0" stop-color="#038ddd"/><stop offset="1" stop-color="#44c5e6"/></linearGradient><linearGradient id="f" x1="38" x2="50" y1="82" y2="82" gradientUnits="userSpaceOnUse"><stop offset="0" stop-color="#26adcf"/><stop offset=".333" stop-color="#85dbee"/><stop offset="1" stop-color="#44c5e6"/></linearGradient><linearGradient id="g" x1="38" x2="46" y1="46.001" y2="46.001" gradientUnits="userSpaceOnUse"><stop offset="0" stop-color="#0e82c0"/><stop offset="1" stop-color="#1da8d7"/></linearGradient><linearGradient id="j" x1="37.889" x2="37.889" y1="39.965" y2="18.077" gradientUnits="userSpaceOnUse"><stop offset="0" stop-color="#44c5e6"/><stop offset="1" stop-color="#df3e7e"/></linearGradient><clipPath id="h"/><clipPath id="k"/><clipPath id="n"/><mask id="i" maskUnits="userSpaceOnUse"><g filter="url(#a)" transform="translate(8 16)"><path fill-opacity=".154" d="M-12.8-12.8h153.6v153.6H-12.8z"/></g></mask><mask id="l" maskUnits="userSpaceOnUse"><g filter="url(#a)" transform="translate(8 16)"><path fill-opacity=".154" d="M-12.8-12.8h153.6v153.6H-12.8z"/></g></mask><mask id="p" maskUnits="userSpaceOnUse"><g filter="url(#a)" transform="translate(8 16)"><path fill-opacity=".35" d="M-12.8-12.8h153.6v153.6H-12.8z"/></g></mask><radialGradient id="m" cx="85.118" cy="54" r="29.938" gradientUnits="userSpaceOnUse"><stop offset="0" stop-color="#fff"/><stop offset=".271" stop-color="#fff" stop-opacity=".867"/><stop offset="1" stop-color="#fff" stop-opacity="0"/></radialGradient><filter id="a" width="1" height="1" x="0" y="0"><feColorMatrix color-interpolation-filters="sRGB" values="0 0 0 0 1 0 0 0 0 1 0 0 0 0 1 0 0 0 1 0"/></filter></defs><rect width="56.002" height="56.002" x="4" y="3.969" fill="#4d4d4d" rx="13.002" ry="13.002"/><path d="M3.998 45.998v1c0 7.203 5.8 13.004 13.004 13.004h29.996c7.203 0 13.004-5.8 13.004-13.004v-1c0 7.203-5.8 13.002-13.004 13.002H17.002A12.975 12.975 0 0 1 3.998 45.998" opacity=".35"/><path fill="#fff" d="M3.998 18.004v-1C3.998 9.801 9.798 4 17.002 4h29.996c7.203 0 13.004 5.8 13.004 13.004v1c0-7.203-5.8-13.002-13.004-13.002H17.002A12.975 12.975 0 0 0 3.998 18.004" opacity=".15"/><path fill="url(#b)" fill-rule="evenodd" d="M28 80h38c2.21 0 4-1.79 4-4V20c0-2.21-1.79-4-4-4H28l15 34z" style="fill:#d02b6d;fill-opacity:1" transform="translate(3.955 3.734)scale(.4278)"/><path fill="url(#c)" d="M104 96V32H70c-2.64 0-6-2-8-4v60c0 4.434 3.566 8 8 8z" transform="translate(3.955 3.734)scale(.4278)"/><path fill="#df3e7e" fill-rule="evenodd" d="M57.003 44.804H40.746V22.558c0-3.423 3.422-5.134 3.422-5.134h12.835L50.586 31.97z" style="fill:#df3e7e;fill-opacity:1"/><path fill="url(#d)" d="M70 20c0 2.21-1.79 4-4 4s-4 1.79-4 4 1.79 4 4 4v.004h4z" style="fill:#e0729d;fill-opacity:1" transform="translate(3.955 3.734)scale(.4278)"/><path fill="url(#e)" d="M4 100h38c2.21 0 4-1.79 4-4V40c0-2.21-1.79-4-4-4H4l15 34z" style="fill:#33b6e4;fill-opacity:1" transform="translate(3.955 3.734)scale(.4278)"/><path fill="url(#f)" d="M80 116V52H46c-2.64 0-6-2-8-4v60c0 4.434 3.566 8 8 8z" style="fill:#6ad2eb;fill-opacity:1" transform="translate(3.955 3.734)scale(.4278)"/><path fill="#44c5e6" fill-rule="evenodd" d="M46.735 53.36H30.48V29.403c0-3.423 3.422-3.423 3.422-3.423h12.834l-6.417 14.546z" style="fill:#6ad2eb;fill-opacity:1"/><path fill="url(#g)" d="M46 40c0 2.21-1.79 4-4 4s-4 1.79-4 4 1.79 4 4 4v.004h4z" style="fill:#1492ca;fill-opacity:1" transform="translate(3.955 3.734)scale(.4278)"/><path fill="none" stroke="#fff" stroke-linecap="round" stroke-width="1.638" d="m131.23 118.55-15.457-15.456" clip-path="url(#h)" mask="url(#i)" transform="translate(.533 -3.11)scale(.4278)"/><path fill="url(#j)" d="M24.061 29.403c0 7.115 5.77 12.884 12.885 12.884S49.83 36.518 49.83 29.403s-5.769-12.885-12.884-12.885-12.885 5.77-12.885 12.885"/><path fill="none" stroke="#fff" stroke-linecap="round" stroke-width="2" d="m132.12 119-16-16" clip-path="url(#k)" mask="url(#l)" transform="translate(.533 -3.11)scale(.4278)"/><path fill="url(#m)" d="M115.06 76.063c0 16.535-13.403 29.937-29.938 29.937S55.185 92.598 55.185 76.063s13.402-29.938 29.937-29.938 29.938 13.402 29.938 29.938" clip-path="url(#n)" mask="url(#p)" transform="translate(.533 -3.11)scale(.4278)"/><path fill="none" stroke="#5e5c64" stroke-linejoin="round" stroke-width="1.711" d="M24.061 29.403c0 7.115 5.77 12.884 12.885 12.884S49.83 36.518 49.83 29.403s-5.769-12.885-12.884-12.885-12.885 5.77-12.885 12.885z"/></svg>