<svg xmlns="http://www.w3.org/2000/svg" viewBox="0 0 64 64"><defs><linearGradient id="a" x1="32.001" x2="32.001" y1="3.969" y2="59.971" gradientUnits="userSpaceOnUse"><stop offset="0" stop-color="#e62d35"/><stop offset="1" stop-color="#c81820"/></linearGradient></defs><rect width="56.002" height="56.002" x="4" y="3.969" fill="url(#a)" rx="13.002" ry="13.002" style="fill:#d7232b;fill-opacity:1"/><path fill="#fff" d="M15.499 15a5.484 5.485 0 0 0-5.5 5.5v22a5.484 5.485 0 0 0 5.5 5.5h33.002a5.484 5.485 0 0 0 5.5-5.5v-22a5.484 5.485 0 0 0-5.5-5.5zm8.249 5.5a10.998 11 0 0 1 10.99 11 10.998 11 0 0 1-10.997 11 10.998 11 0 0 1-10.998-11 10.998 11 0 0 1 10.998-11m17.879 0a1.37 1.37 0 0 1 1.367 1.375v13.9a1.35 1.35 0 0 1-.406 1.075l-2.389 2.389a3 3 0 0 1 .045.51 2.75 2.75 0 0 1-2.75 2.75 2.75 2.75 0 0 1-2.749-2.75 2.75 2.75 0 0 1 2.75-2.75 3 3 0 0 1 .901.151l1.848-1.848V21.875a1.37 1.37 0 0 1 1.375-1.375m5.424 0h2.825a1.375 1.375 0 1 1 0 2.75h-2.75a1.375 1.376 0 0 1-.075-2.75m0 5.5h2.825a1.375 1.375 0 1 1 0 2.75h-2.75a1.375 1.376 0 0 1-.075-2.75m-23.303 2.75a2.75 2.75 0 0 0-2.75 2.75 2.75 2.75 0 0 0 2.75 2.75 2.75 2.75 0 0 0 2.75-2.75 2.75 2.75 0 0 0-2.75-2.75m23.378 2.75h2.75c.758 0 1.374.616 1.374 1.375v8.25a1.375 1.375 0 0 1-1.374 1.375h-2.75a1.375 1.375 0 0 1-1.382-1.375v-8.25c0-.76.616-1.375 1.382-1.375"/><path d="M3.998 45.998v1c0 7.203 5.8 13.004 13.004 13.004h29.996c7.203 0 13.004-5.8 13.004-13.004v-1c0 7.203-5.8 13.002-13.004 13.002H17.002A12.975 12.975 0 0 1 3.998 45.998" opacity=".15"/><path fill="#fff" d="M3.998 18.004v-1C3.998 9.801 9.798 4 17.002 4h29.996c7.203 0 13.004 5.8 13.004 13.004v1c0-7.203-5.8-13.002-13.004-13.002H17.002A12.975 12.975 0 0 0 3.998 18.004" opacity=".15"/></svg>