<svg xmlns="http://www.w3.org/2000/svg" xmlns:xlink="http://www.w3.org/1999/xlink" image-rendering="optimizeSpeed" viewBox="0 0 64 64"><defs><pattern xlink:href="#a" id="c" width="4.2" x="0" y="4" patternTransform="rotate(-45)scale(3.195)" preserveAspectRatio="xMidYMid"/><pattern id="a" width="3" height="10" x="0" y="0" patternTransform="scale(2)" patternUnits="userSpaceOnUse" preserveAspectRatio="xMidYMid" style="fill:#000"><path d="M0 0h2v10H0z" style="stroke:none"/></pattern><linearGradient id="b" x1="29.611" x2="29.611" y1="58.045" y2="7.188" gradientTransform="matrix(1.001 .00649 -.00262 .4055 .242 69.708)" gradientUnits="userSpaceOnUse"><stop offset="0" stop-color="#90193a" style="stop-color:#fafafa;stop-opacity:1"/><stop offset="1" stop-color="#dd3f80" style="stop-color:#d8d8d8;stop-opacity:1"/></linearGradient></defs><rect width="56.002" height="56.002" x="4" y="3.969" fill="url(#b)" rx="13.002" ry="13.002" style="display:inline;fill:#ececec;fill-opacity:1"/><rect width="37.721" height="24.17" x="13.14" y="9.884" rx="5.099" ry="5.099" style="fill:#a1a1a1"/><path d="M3.998 32.975v14.023a12.974 12.974 0 0 0 13.004 13.004h29.996a12.974 12.974 0 0 0 13.004-13.004V32.975c0 7.203-5.8 13.002-13.004 13.002H17.002A12.975 12.975 0 0 1 3.998 32.975" style="display:inline;fill:#ff0;fill-opacity:1"/><path d="M3.998 32.975v14.023a12.974 12.974 0 0 0 13.004 13.004h29.996a12.974 12.974 0 0 0 13.004-13.004V32.975c0 7.203-5.8 13.002-13.004 13.002H17.002A12.975 12.975 0 0 1 3.998 32.975" style="display:inline;fill:url(#c);fill-opacity:1"/><g fill-rule="evenodd"><path fill-opacity=".118" d="m28.806 30.369.708-.81h4.972l.708.81-.708.813h-4.972zm0 0"/><path fill="#141414" stroke="#000" stroke-linecap="round" stroke-linejoin="round" stroke-width=".26" d="m43.688 16.169 1.036-1.04h7.273l1.035 1.04-1.035 1.039h-7.273zm-.519.519 1.039 1.04v7.269l-1.04 1.04-1.038-1.04v-7.27zm10.383 0 1.039 1.04v7.269l-1.04 1.04-1.034-1.04v-7.27zm-9.864 9.868 1.036-1.04h7.273l1.035 1.04-1.035 1.039h-7.273zm9.864.519 1.039 1.035v7.274l-1.04 1.035-1.034-1.035V28.11zm-10.383 0 1.039 1.035v7.274l-1.04 1.035-1.038-1.035V28.11zm0 0" transform="matrix(.68364 0 0 .78262 -1.061 1.46)"/></g><g transform="translate(14.504 .006)"><rect width="6.569" height="6.525" x="28.716" y="36.869" rx="2.165" ry="2.165" style="fill:#ff7800;fill-opacity:1;stroke:#000;stroke-width:0;stroke-dasharray:none"/><rect width="6.569" height="4.52" x="28.716" y="36.851" rx="2.165" ry="1.964" style="fill:#ffbe6f;fill-opacity:1;stroke:#000;stroke-width:0;stroke-dasharray:none"/></g><g transform="translate(0 .006)"><rect width="6.569" height="6.525" x="28.716" y="36.869" rx="2.165" ry="2.165" style="fill:#ff7800;fill-opacity:1;stroke:#000;stroke-width:0;stroke-dasharray:none"/><rect width="6.569" height="4.52" x="28.716" y="36.851" rx="2.165" ry="1.964" style="fill:#ffbe6f;fill-opacity:1;stroke:#000;stroke-width:0;stroke-dasharray:none"/></g><g transform="translate(-14.504 .006)"><rect width="6.569" height="6.525" x="28.716" y="36.869" rx="2.165" ry="2.165" style="fill:#ff7800;fill-opacity:1;stroke:#000;stroke-width:0;stroke-dasharray:none"/><rect width="6.569" height="4.52" x="28.716" y="36.851" rx="2.165" ry="1.964" style="fill:#ffbe6f;fill-opacity:1;stroke:#000;stroke-width:0;stroke-dasharray:none"/></g><path d="M3.998 45.998v1c0 7.203 5.8 13.004 13.004 13.004h29.996c7.203 0 13.004-5.8 13.004-13.004v-1c0 7.203-5.8 13.002-13.004 13.002H17.002A12.975 12.975 0 0 1 3.998 45.998" opacity=".15"/><path fill="#fff" d="M3.998 18.004v-1C3.998 9.801 9.798 4 17.002 4h29.996c7.203 0 13.004 5.8 13.004 13.004v1c0-7.203-5.8-13.002-13.004-13.002H17.002A12.975 12.975 0 0 0 3.998 18.004" opacity=".15" style="opacity:.5"/></svg>