<svg xmlns="http://www.w3.org/2000/svg" width="64" height="64"><defs><linearGradient id="a" x1="7.937" x2="7.937" y1="15.081" y2="1.852" gradientTransform="scale(3.7796)" gradientUnits="userSpaceOnUse"><stop offset="0" stop-color="#9082ff"/><stop offset="1" stop-color="#fd80b6"/></linearGradient><filter id="b" width="1.302" height="1.321" x="-.151" y="-.16" color-interpolation-filters="sRGB"><feGaussianBlur stdDeviation="2.09"/></filter></defs><rect width="56.002" height="56.002" x="4" y="3.969" fill="url(#a)" rx="13.002" ry="13.002"/><path fill="purple" d="M18.572 17.836c.912-.314 1.882.49 2.554.997 1.86 1.405 3.225 3.418 5.157 4.722 1.427.964 3.117.12 4.69.011 1.79-.123 3.938.829 5.626.444 1.567-.356 2.9-2.205 3.986-3.277.943-.932 3.55-3.913 5.06-2.672 2.152 1.77 1.27 7.94 1.27 10.408 0 1.281-.25 2.84.056 4.085.433 1.76 1.683 3.397 1.533 5.293-.372 4.682-6.54 8.71-10.498 10.153-6.46 2.353-13.436.714-18.522-3.863-1.71-1.538-3.588-3.486-4.095-5.82-.492-2.264 1.385-4.186 1.56-6.331.284-3.503-.218-7.037.178-10.55.122-1.085.19-3.168 1.444-3.6m4.209 17.606c-1.312.542-.992 2.17-.33 3.105.938 1.324 2.948 2.113 4.526 1.47 3.386-1.38-1.74-5.59-4.196-4.575m16.398-.063c-3.384.596-5.384 5.47-.704 4.763 2.985-.452 4.741-5.475.704-4.763m-4.924 7.157c-.626-.264-1.19-.427-1.875-.46-5.792-.276.29 5.025 1.875.46" filter="url(#b)" opacity=".15"/><path fill="#fff" d="M18.572 16.432c.912-.314 1.882.49 2.554.997 1.86 1.405 3.225 3.418 5.157 4.722 1.427.964 3.117.12 4.69.011 1.79-.123 3.938.829 5.626.444 1.567-.356 2.9-2.205 3.986-3.277.943-.932 3.55-3.913 5.06-2.672 2.152 1.77 1.27 7.94 1.27 10.408 0 1.281-.25 2.84.056 4.085.433 1.76 1.683 3.397 1.533 5.293-.372 4.682-6.54 8.71-10.498 10.153-6.46 2.353-13.436.714-18.522-3.863-1.71-1.538-3.588-3.486-4.095-5.82-.492-2.264 1.385-4.186 1.56-6.331.284-3.503-.218-7.037.178-10.55.122-1.085.19-3.168 1.444-3.6m4.209 17.606c-1.312.542-.992 2.17-.33 3.105.938 1.324 2.948 2.113 4.526 1.47 3.386-1.38-1.74-5.59-4.196-4.575m16.398-.063c-3.384.596-5.384 5.47-.704 4.763 2.985-.452 4.741-5.475.704-4.763m-4.924 7.157c-.626-.264-1.19-.427-1.875-.46-5.792-.276.29 5.025 1.875.46"/></svg>