<svg xmlns="http://www.w3.org/2000/svg" xmlns:xlink="http://www.w3.org/1999/xlink" width="64" height="64"><defs><linearGradient xlink:href="#a" id="e" x2="0" y1="24" y2="8" gradientUnits="userSpaceOnUse"/><linearGradient xlink:href="#b" id="k" x2="0" y1="532.8" y2="526.8" gradientTransform="translate(-384.57 -515.8)" gradientUnits="userSpaceOnUse"/><linearGradient xlink:href="#a" id="f" x2="0" y1="533.8" y2="523.8" gradientTransform="translate(-384.57 -515.8)" gradientUnits="userSpaceOnUse"/><linearGradient xlink:href="#a" id="l" x2="0" y1="536.8" y2="532.8" gradientTransform="translate(-383.57 -515.8)" gradientUnits="userSpaceOnUse"/><linearGradient xlink:href="#b" id="m" x2="0" y1="20" y2="18" gradientUnits="userSpaceOnUse"/><linearGradient id="b"><stop offset="0" stop-color="#999a9c"/><stop offset="1" stop-color="#f4f5f5"/></linearGradient><linearGradient id="a"><stop offset="0" stop-color="#2a2c2f"/><stop offset="1" stop-color="#424649"/></linearGradient><linearGradient id="j" x2="0" y1="532.8" y2="530.8" gradientTransform="translate(-384.57 -515.8)" gradientUnits="userSpaceOnUse"><stop offset="0" stop-color="#2980b9"/><stop offset="1" stop-color="#3498db"/></linearGradient><linearGradient id="g" x2="0" y1="528.8" y2="526.8" gradientTransform="translate(-384.57 -515.8)" gradientUnits="userSpaceOnUse"><stop offset="0" stop-color="#27ae60"/><stop offset="1" stop-color="#2ecc71"/></linearGradient><linearGradient id="i" x2="0" y1="530.8" y2="528.8" gradientTransform="translate(-384.57 -515.8)" gradientUnits="userSpaceOnUse"><stop offset="0" stop-color="#c0392b"/><stop offset="1" stop-color="#e74c3c"/></linearGradient><linearGradient id="h" x2="0" y1="530.8" y2="528.8" gradientTransform="translate(-384.57 -515.8)" gradientUnits="userSpaceOnUse"><stop offset="0" stop-color="#f33777"/><stop offset="1" stop-color="#fd2d65"/></linearGradient><linearGradient id="c" x1="7.937" x2="7.937" y1="15.081" y2="1.852" gradientTransform="scale(3.7796)" gradientUnits="userSpaceOnUse"><stop offset="0" stop-color="#f1efeb"/><stop offset="1" stop-color="#fdfcfc"/></linearGradient><filter id="d" width="1.058" height="1.095" x="-.029" y="-.047" color-interpolation-filters="sRGB"><feGaussianBlur stdDeviation=".315"/></filter></defs><rect width="56.002" height="56.002" x="4" y="3.969" fill="url(#c)" rx="13.002" ry="13.002"/><g stroke-linecap="square"><g stroke-width=".1"><path d="M10 8a6 6 0 0 0-6 6l-.941 7.525a2 2 0 0 0 3.479 1.752l.001.004 2.879-3.31A6 6 0 0 0 13.31 19h5.378a6 6 0 0 0 3.893.97l2.879 3.31.002-.004A2 2 0 0 0 29 22a2 2 0 0 0-.059-.475L28 14a6 6 0 0 0-6-6z" filter="url(#d)" opacity=".25" transform="translate(2.132 2.133)scale(1.8667)"/><path fill="url(#e)" d="m4 14-.941 7.525a2 2 0 0 0 3.479 1.752l.001.004 5.46-6.28zm24 0-8 3 5.46 6.281.003-.004A2 2 0 0 0 29 22a2 2 0 0 0-.059-.475z" transform="translate(2.132 2.133)scale(1.8667)"/><path fill="url(#f)" d="M10 8a6 6 0 0 0 0 12 6 6 0 0 0 3.31-1h5.38A6 6 0 0 0 22 20a6 6 0 0 0 0-12h-7z" transform="translate(2.132 2.133)scale(1.8667)"/><path fill="url(#g)" d="M23 11a1 1 0 0 0-1 1 1 1 0 0 0 1 1 1 1 0 0 0 1-1 1 1 0 0 0-1-1" transform="translate(2.132 2.133)scale(1.8667)"/><path fill="url(#h)" d="M21 13a1 1 0 0 0-1 1 1 1 0 0 0 1 1 1 1 0 0 0 1-1 1 1 0 0 0-1-1" transform="translate(2.132 2.133)scale(1.8667)"/><path fill="url(#i)" d="M25 13a1 1 0 0 0-1 1 1 1 0 0 0 1 1 1 1 0 0 0 1-1 1 1 0 0 0-1-1" transform="translate(2.132 2.133)scale(1.8667)"/><path fill="url(#j)" d="M23 15a1 1 0 0 0-1 1 1 1 0 0 0 1 1 1 1 0 0 0 1-1 1 1 0 0 0-1-1" transform="translate(2.132 2.133)scale(1.8667)"/><path fill="url(#k)" d="M8 11v2H6v2h2v2h2v-2h2v-2h-2v-2z" transform="translate(2.132 2.133)scale(1.8667)"/></g><path fill="url(#l)" d="M13 17a2 2 0 0 0-2 2 2 2 0 0 0 2 2 2 2 0 0 0 2-2 2 2 0 0 0-2-2m6 0a2 2 0 0 0-2 2 2 2 0 0 0 2 2 2 2 0 0 0 2-2 2 2 0 0 0-2-2" transform="translate(2.132 2.133)scale(1.8667)"/><path fill="url(#m)" d="M13 18a1 1 0 0 0-1 1 1 1 0 0 0 1 1 1 1 0 0 0 1-1 1 1 0 0 0-1-1m6 0a1 1 0 0 0-1 1 1 1 0 0 0 1 1 1 1 0 0 0 1-1 1 1 0 0 0-1-1" transform="translate(2.132 2.133)scale(1.8667)"/></g><rect width="4" height="1.5" x="27" y="21" opacity=".35" rx=".75" ry=".75" style="paint-order:stroke fill markers"/><rect width="4" height="1.5" x="33" y="21" opacity=".35" rx=".75" ry=".75" style="paint-order:stroke fill markers"/></svg>