<svg xmlns="http://www.w3.org/2000/svg" xmlns:xlink="http://www.w3.org/1999/xlink" viewBox="0 0 64 64"><defs><linearGradient id="c" x1="-130.87" x2="-31.402" y1="236.52" y2="236.52" gradientTransform="matrix(.58334 0 0 .58335 79.047 -105.9)" gradientUnits="userSpaceOnUse"><stop offset=".05" stop-color="#9fa6c2"/><stop offset=".5" stop-color="#d0d3dc"/><stop offset=".95" stop-color="#9fa6c2"/></linearGradient><linearGradient xlink:href="#a" id="d" x1="19" x2="59" y1="37" y2="37" gradientTransform="matrix(.5 0 0 .5091 0 -.104)"/><linearGradient id="a" gradientUnits="userSpaceOnUse"><stop offset="0" stop-color="#99a0c9"/><stop offset=".5" stop-color="#667dff" stop-opacity=".698"/><stop offset="1" stop-color="#99a0c9"/></linearGradient><linearGradient xlink:href="#a" id="e" x1="69" x2="109" y1="37" y2="37" gradientTransform="matrix(.5 0 0 .5091 0 -.104)"/><linearGradient xlink:href="#a" id="f" x1="19" x2="59" y1="89" y2="89" gradientTransform="matrix(.5 0 0 .5091 0 -.104)"/><linearGradient xlink:href="#b" id="g" x1="39" x2="39" y1="69" y2="105" gradientTransform="matrix(.5 0 0 .5091 0 -.104)"/><linearGradient id="b" gradientUnits="userSpaceOnUse"><stop offset="0" stop-color="#fff"/><stop offset="1" stop-color="#e2e7ff"/></linearGradient><linearGradient xlink:href="#b" id="h" x1="39" x2="39" y1="17" y2="53" gradientTransform="matrix(.5 0 0 .5091 0 -.104)"/><linearGradient xlink:href="#b" id="i" x1="89" x2="89" y1="17" y2="53" gradientTransform="matrix(.5 0 0 .5091 0 -.104)"/><linearGradient xlink:href="#a" id="j" x1="69" x2="109" y1="89" y2="89" gradientTransform="matrix(.5 0 0 .5091 0 -.104)"/><linearGradient xlink:href="#b" id="k" x1="89" x2="89" y1="69" y2="105" gradientTransform="matrix(.5 0 0 .5091 0 -.104)"/></defs><rect width="56.002" height="56.002" x="4" y="3.968" fill="url(#c)" rx="13.002" ry="13.002" style="fill:#babfd0;fill-opacity:1"/><path fill="#fff" d="M17.112 4 4 17.353v.716L17.82 4.001Zm2.123 0L4 19.51v.721L19.94 3.999Zm2.119 0L4 21.67v.721L22.063 4Zm2.123 0L4 23.83v.718L24.182 4Zm2.119 0L4 25.99v.72L26.305 4Zm2.123 0L3.999 28.15v.72L28.425 4Zm2.121 0L4 30.31v.72L30.547 4zm2.121 0L4.001 32.47v.72L32.671 4zm2.123 0L4 34.63v.72L34.79 4zm2.12 0L4 36.789v.721L36.912 4zm2.122 0L4 38.948v.72l35.031-35.67zm2.12 0L4 41.11v.72L41.155 4zm2.123 0L4 43.27v.72L43.274 4zm2.119 0L4 45.43v.72L45.397 4zm2.123 0L4.028 47.56c.01.23.014.46.035.687L47.494 4.026C47.329 4.02 47.167 4 47 4Zm-31.186.071c-.28.03-.554.078-.828.125L4.164 15.023c-.041.274-.083.548-.107.828zm33.172.064L4.245 49.502c.038.197.09.388.137.582L49.415 4.23c-.204-.038-.41-.065-.618-.094m1.764.365L4.7 51.198q.09.263.192.522L51.106 4.667q-.27-.09-.545-.164M12.94 4.65q-.575.186-1.125.424l-6.83 6.956c-.153.372-.293.75-.412 1.139zm39.203.402L5.33 52.719c.079.16.148.325.233.482L52.62 5.282c-.16-.077-.315-.16-.478-.23m1.412.723L6.102 54.093q.14.214.29.424L53.998 6.043q-.22-.138-.444-.267m1.281.854L7.006 55.328c.108.128.228.247.34.372L55.243 6.932c-.131-.107-.271-.203-.407-.305zm1.158.98L8.05 56.426q.184.173.373.34L56.354 7.962q-.176-.18-.36-.354zm1.04 1.104L9.21 57.403c.136.103.27.209.41.306L57.338 9.12c-.103-.137-.196-.279-.304-.41zm.896 1.246L10.497 58.255q.224.133.453.256L58.2 10.4a13 13 0 0 0-.27-.442zm.768 1.377L11.913 58.97c.169.072.346.127.52.192L58.93 11.82c-.071-.166-.154-.324-.232-.486zm.625 1.525-45.82 46.652q.278.08.564.147l45.426-46.254q-.08-.275-.17-.545m.445 1.707L15.272 59.873q.315.043.635.072L59.864 15.19c-.03-.21-.057-.418-.096-.623m.209 1.943L17.266 60h.709L60 17.21v-.249c0-.152-.017-.3-.023-.45zM60 18.648 19.39 60.002h.705L60 19.368Zm0 2.162L21.508 60.002h.71L60 21.529Zm0 2.16L23.631 60h.705L60 23.69Zm0 2.157L25.752 60h.707L60 25.849Zm0 2.16L27.873 60h.707L60 28.008Zm0 2.162L29.994 60h.707l29.3-29.83zm0 2.16L32.115 60.002h.707L60 32.33Zm0 2.161L34.237 60h.709L60 34.488Zm0 2.158L36.36 60.003h.705L60 36.65Zm0 2.16L38.48 60h.709L60 38.81Zm0 2.16L40.602 60h.705L60 40.967Zm0 2.16L42.72 60h.71L60 43.128Zm0 2.16L44.844 60h.707l14.45-14.713zm0 2.16L46.965 60h.036c.238 0 .471-.024.707-.037L59.979 47.47c.005-.145.021-.286.022-.432zm-.177 2.341L49.295 59.79q.457-.084.9-.199l9.458-9.629q.1-.44.17-.892m-.856 3.031-6.635 6.756a13 13 0 0 0 1.479-.785l4.384-4.465c.286-.485.55-.983.772-1.506" opacity=".15"/><path fill="url(#d)" fill-rule="evenodd" d="M29.5 18.733c0 5.624-4.476 10.182-10 10.182s-10-4.558-10-10.182 4.477-10.182 10-10.182 10 4.558 10 10.182" style="fill:#8e99d9;fill-opacity:1"/><path fill="url(#e)" fill-rule="evenodd" d="M54.5 18.733c0 5.624-4.476 10.182-10 10.182s-10-4.558-10-10.182 4.477-10.182 10-10.182 10 4.558 10 10.182" style="fill:#8e99d9;fill-opacity:1"/><path fill="url(#f)" fill-rule="evenodd" d="M29.5 45.206c0 5.624-4.476 10.182-10 10.182s-10-4.558-10-10.182 4.477-10.182 10-10.182 10 4.558 10 10.182" style="fill:#8e99d9;fill-opacity:1"/><path fill="url(#g)" fill-rule="evenodd" d="M28.5 44.188c0 5.061-4.03 9.164-9 9.164s-9-4.103-9-9.164 4.03-9.164 9-9.164 9 4.103 9 9.164" style="fill:#f0f3ff;fill-opacity:1"/><path fill="url(#h)" fill-rule="evenodd" d="M28.5 17.715c0 5.061-4.03 9.164-9 9.164s-9-4.103-9-9.164 4.03-9.164 9-9.164 9 4.103 9 9.164" style="fill:#f0f3ff;fill-opacity:1"/><path fill="url(#i)" fill-rule="evenodd" d="M53.5 17.715c0 5.061-4.03 9.164-9 9.164s-9-4.103-9-9.164 4.03-9.164 9-9.164 9 4.103 9 9.164" style="fill:#f0f3ff;fill-opacity:1"/><path fill="url(#j)" fill-rule="evenodd" d="M54.5 45.206c0 5.624-4.476 10.182-10 10.182s-10-4.558-10-10.182 4.477-10.182 10-10.182 10 4.558 10 10.182" style="fill:#8e99d9;fill-opacity:1"/><path fill="url(#k)" fill-rule="evenodd" d="M53.5 44.188c0 5.061-4.03 9.164-9 9.164s-9-4.103-9-9.164 4.03-9.164 9-9.164 9 4.103 9 9.164" style="fill:#f0f3ff;fill-opacity:1"/><path fill="#9199d1" fill-rule="evenodd" d="m39.729 47.927 8.443-8.598a.776.79 0 0 1 1.1 0 .776.79 0 0 1 0 1.12l-8.443 8.597a.776.79 0 0 1-1.1 0 .776.79 0 0 1 0-1.12m0-26.473 8.443-8.597a.776.79 0 0 1 1.1 0 .776.79 0 0 1 0 1.12l-8.443 8.597a.776.79 0 0 1-1.1 0 .78.794 0 0 1 0-1.12m-25 0 8.443-8.597a.776.79 0 0 1 1.1 0 .776.79 0 0 1 0 1.12l-8.444 8.597a.776.79 0 0 1-1.1 0 .78.794 0 0 1 0-1.12m.001 26.474 8.443-8.598a.78.794 0 0 1 1.1 0 .776.79 0 0 1 0 1.12l-8.444 8.597a.776.79 0 0 1-1.1 0 .776.79 0 0 1 0-1.12"/><path d="M3.998 45.998v1c0 7.203 5.8 13.004 13.004 13.004h29.996c7.203 0 13.004-5.8 13.004-13.004v-1c0 7.203-5.8 13.002-13.004 13.002H17.002A12.975 12.975 0 0 1 3.998 45.998" opacity=".15"/><path fill="#fff" d="M3.998 18.004v-1C3.998 9.801 9.798 4 17.002 4h29.996c7.203 0 13.004 5.8 13.004 13.004v1c0-7.203-5.8-13.002-13.004-13.002H17.002A12.975 12.975 0 0 0 3.998 18.004" opacity=".15"/></svg>