<svg xmlns="http://www.w3.org/2000/svg" width="64" height="64" fill="none"><path fill="#fff" d="M17.002 3.9A12.974 12.974 0 0 0 4 16.902v.48A12.974 12.974 0 0 1 17.002 4.378h29.996A12.974 12.974 0 0 1 60 17.38v-.479a12.97 12.97 0 0 0-13.002-13z" opacity=".1"/><path fill="#434248" d="M56.284 6.746c-.746.66-1.5 1.59-2.267 2.244-.385.327-.767.58-1.12.708-.356.127-.669.143-1.019.008a.469.469 0 1 0-.334.875 2.38 2.38 0 0 0 1.67-.002c.516-.185.977-.508 1.41-.876.866-.736 1.635-1.682 2.28-2.255a.47.47 0 1 0-.62-.702"/><path fill="#434248" d="M56.87 7.39c-.616.546-1.696 1.086-2.64 1.76-.946.675-1.822 1.572-1.777 2.846a.47.47 0 1 0 .938-.031c-.03-.837.528-1.442 1.383-2.051.854-.61 1.94-1.133 2.716-1.82a.47.47 0 0 0-.62-.703z"/><path fill="url(#a)" d="M46.999 3.999c7.18 0 13.002 5.821 13.002 13.002v29.998c0 7.18-5.821 13.001-13.002 13.002H17.001c-7.18 0-13.002-5.822-13.002-13.002V17.001c0-7.182 5.822-13.002 13.002-13.002zm3 5.11a5 5 0 1 0 0 10 5 5 0 0 0 0-10"/><path fill="#616161" d="M55.45 5.48a2.43 2.43 0 0 0-1.963 1.077l-2.205 3.308a.47.47 0 0 0 .78.52l2.205-3.307a1.49 1.49 0 0 1 2.451-.068l.408.543a1.655 1.655 0 0 1-.714 2.546l-3.663 1.465a.47.47 0 0 0 .347.872l3.664-1.466c1.58-.633 2.137-2.619 1.116-3.98l-.407-.543a2.42 2.42 0 0 0-2.02-.967z" filter="url(#b)"/><path fill="#7d7d7d" d="M57.72 4.617a1.92 1.92 0 0 1 1.502-.848 1.92 1.92 0 0 1 1.586.685l.618.743a4.25 4.25 0 0 1 .843 3.815l-.825 3.09a17.15 17.15 0 0 0-.066 8.571l.498 1.995c.87 3.481 2.268 7.054.718 8.265-.467.364-1.094.567-2.594.067v-1c.656.304 1.5.5 2 0 1-1-.298-4.162-1.034-7.105l-.499-1.995a18.1 18.1 0 0 1 .07-9.04l.825-3.09a3.31 3.31 0 0 0-.654-2.974l-.622-.743a.99.99 0 0 0-.814-.364.99.99 0 0 0-.771.45l-1.375 2.059 1.621-.81a1.85 1.85 0 0 1 2.322.557 1.85 1.85 0 0 1-.15 2.382L59 11.866 58.609 11l1.63-2.32c.387-.406.325-.84.074-1.178-.25-.34-.647-.526-1.147-.276l-1.637.819a.47.47 0 0 1-.629-.211.47.47 0 0 1 .028-.429.47.47 0 0 1-.494-.014.47.47 0 0 1-.13-.651z"/><path fill="url(#c)" d="M24.43 32.6q-1.514 0-2.703-.656a4.9 4.9 0 0 1-1.877-1.889q-.687-1.232-.686-2.91v-.42q0-1.694.686-2.91a4.83 4.83 0 0 1 1.877-1.903q1.189-.67 2.702-.671 1.527 0 2.716.67a4.83 4.83 0 0 1 1.878 1.905q.7 1.217.7 2.91v.42q0 1.675-.7 2.91a4.87 4.87 0 0 1-1.876 1.886q-1.191.659-2.717.658m0-3.189q.714-.001 1.149-.532.447-.545.447-1.735v-.42q0-1.2-.449-1.762a1.38 1.38 0 0 0-1.147-.559q-.701 0-1.135.56-.434.557-.434 1.762v.42q0 1.188.433 1.734a1.4 1.4 0 0 0 1.136.532m15.152 13.346q-1.513 0-2.703-.657a4.86 4.86 0 0 1-1.876-1.89q-.686-1.23-.687-2.91l.001-.418q-.001-1.694.686-2.91a4.84 4.84 0 0 1 1.876-1.904q1.19-.67 2.704-.67 1.524-.001 2.717.67a4.86 4.86 0 0 1 1.876 1.903q.7 1.218.7 2.91v.42q0 1.68-.7 2.91A4.9 4.9 0 0 1 42.3 42.1q-1.192.656-2.718.656zm0-3.19q.714 0 1.148-.531.449-.545.448-1.735l.001-.419q0-1.203-.45-1.763a1.38 1.38 0 0 0-1.147-.56q-.7.001-1.135.56-.433.56-.433 1.762v.42q0 1.188.434 1.735a1.39 1.39 0 0 0 1.134.532zm-16.525 2.855 14.34-20.846h3.585L26.642 42.42z" filter="url(#d)"/><defs><linearGradient id="a" x1="32.001" x2="32.001" y1="3.89" y2="59.892" gradientTransform="translate(-.001 .109)" gradientUnits="userSpaceOnUse"><stop offset="0" stop-color="#ff7606"/><stop offset="1" stop-color="#f66151"/></linearGradient><linearGradient id="c" x1="29.5" x2="29.525" y1="19" y2="43.5" gradientUnits="userSpaceOnUse"><stop offset="0" stop-color="#ffd29c"/><stop offset="1" stop-color="#ff9c66"/></linearGradient><filter id="b" width="9.588" height="9.39" x="50.003" y="4.279" color-interpolation-filters="sRGB" filterUnits="userSpaceOnUse"><feFlood flood-opacity="0" result="BackgroundImageFix"/><feColorMatrix in="SourceAlpha" result="hardAlpha" values="0 0 0 0 0 0 0 0 0 0 0 0 0 0 0 0 0 0 127 0"/><feOffset/><feGaussianBlur stdDeviation=".6"/><feComposite in2="hardAlpha" operator="out"/><feColorMatrix values="0 0 0 0 0 0 0 0 0 0 0 0 0 0 0 0 0 0 0.25 0"/><feBlend in2="BackgroundImageFix" result="effect1_dropShadow_3013_87"/><feBlend in="SourceGraphic" in2="effect1_dropShadow_3013_87" result="shape"/></filter><filter id="d" width="33.712" height="29.516" x="15.164" y="18.241" color-interpolation-filters="sRGB" filterUnits="userSpaceOnUse"><feFlood flood-opacity="0" result="BackgroundImageFix"/><feColorMatrix in="SourceAlpha" result="hardAlpha" values="0 0 0 0 0 0 0 0 0 0 0 0 0 0 0 0 0 0 127 0"/><feOffset dy="1"/><feGaussianBlur stdDeviation="2"/><feComposite in2="hardAlpha" operator="out"/><feColorMatrix values="0 0 0 0 0.817308 0 0 0 0 0 0 0 0 0 0 0 0 0 0.55 0"/><feBlend in2="BackgroundImageFix" result="effect1_dropShadow_3013_87"/><feBlend in="SourceGraphic" in2="effect1_dropShadow_3013_87" result="shape"/></filter></defs></svg>