<svg xmlns="http://www.w3.org/2000/svg" viewBox="0 0 64 64"><path fill="#f2f2f2" d="M17.001 4A12.973 12.973 0 0 0 3.999 17v30a12.973 12.973 0 0 0 13.002 13.002h29.998A12.973 12.973 0 0 0 60.001 47V17.001A12.973 12.973 0 0 0 46.999 4z"/><path fill="#629cf6" d="M43.527 12.188c-.336-.007-.758.054-1.287.174l-8.865 1.799-.193.039-8.047 1.588c-1.479.316-1.766 1.14-1.73 2.445l.023 20.363c-.068 1.431-.223 2.217-1.87 2.48-5.826.868-6.957 2.671-6.921 5.237.035 2.555 2.106 4.604 4.96 4.316 2.504-.278 4.368-1.008 5.514-3.324.444-.872.594-2.685.485-4.521l-.024-16.197c.005-1.134-.186-1.765 1.317-2.077l9.045-1.824v-.002l5.369-1.082c.873-.176 1.283.122 1.297 1.108l.023 12.102c-.067 1.43-.207 2.086-1.853 2.35-5.827.867-6.973 2.803-6.938 5.368.035 2.556 2.14 4.472 4.994 4.184 2.504-.278 4.303-.925 5.45-3.24.443-.872.48-2.606.517-4.475l-.016-24.777c0-1.394-.239-2.013-1.25-2.033z"/><rect width="56.002" height="56.002" x="170.25" y="5.119" fill="#fff" rx="13.002" ry="13.002"/><path d="M3.998 45.998v1c0 7.203 5.8 13.004 13.004 13.004h29.996c7.203 0 13.004-5.8 13.004-13.004v-1c0 7.203-5.8 13.002-13.004 13.002H17.002A12.975 12.975 0 0 1 3.998 45.998" opacity=".1"/><path fill="#fff" d="M3.998 18.004v-1C3.998 9.801 9.798 4 17.002 4h29.996c7.203 0 13.004 5.8 13.004 13.004v1c0-7.203-5.8-13.002-13.004-13.002H17.002A12.975 12.975 0 0 0 3.998 18.004" opacity=".5"/></svg>