<svg xmlns="http://www.w3.org/2000/svg" width="64" height="64" fill="none" viewBox="0 0 64 64"><defs><linearGradient id="a" x1="7.937" x2="7.937" y1="15.081" y2="1.852" gradientTransform="scale(3.7796)" gradientUnits="userSpaceOnUse"><stop offset="0" stop-color="#f1efeb"/><stop offset="1" stop-color="#fdfcfc"/></linearGradient></defs><rect width="56" height="56" x="4" y="4" fill="url(#a)" rx="13" ry="13"/><g fill-rule="evenodd"><path fill="url(#render-8-f)" d="M17.301 19.257h.741l1.482 1.478v23.652l-1.482 1.479h-.741z"/><path fill="url(#render-9-g)" d="M31.01 18.518h-4.446a1.11 1.11 0 0 0-1.112 1.109 1.11 1.11 0 0 0 1.112 1.108h4.446a1.11 1.11 0 0 0 1.112-1.108 1.11 1.11 0 0 0-1.112-1.109"/><path fill="#9a9996" d="M14.707 14.822a1.11 1.11 0 0 1 1.112 1.109v.739a1.11 1.11 0 0 1-1.112 1.109 1.11 1.11 0 0 1-1.112-1.11v-.738a1.11 1.11 0 0 1 1.112-1.109m34.83 0a1.11 1.11 0 0 1 1.112 1.109v.739a1.11 1.11 0 0 1-1.112 1.109 1.11 1.11 0 0 1-1.112-1.11v-.738a1.11 1.11 0 0 1 1.112-1.109"/><path fill="url(#render-12-h)" d="M19.524 20.735h3.705c.475 0 .93.188 1.265.523l.435.433c.335.335.79.522 1.265.522h5.187c.475 0 .93-.187 1.265-.522l.434-.433a1.8 1.8 0 0 1 1.265-.523h2.224c.483 0 .955-.143 1.357-.41l.99-.658c.403-.267.875-.41 1.358-.41h.741c.483 0 .955.143 1.358.41l.99.658c.402.267.874.41 1.357.41v23.652h-2.657a2.53 2.53 0 0 1-1.789-.74 2.53 2.53 0 0 0-1.789-.738h-2.35c-.672 0-1.315.265-1.79.739a2.53 2.53 0 0 1-1.788.739h-2.371c-.67 0-1.326.198-1.883.569l-.752.5c-.402.266-.874.41-1.357.41h-.741c-.484 0-.956-.144-1.358-.41l-.751-.5a3.4 3.4 0 0 0-1.883-.569h-1.937z"/><path fill="url(#render-13-i)" d="M14.707 16.3a3.324 3.324 0 0 1 3.335 3.326v25.87a3.324 3.324 0 0 1-3.335 3.326 3.324 3.324 0 0 1-3.335-3.326v-25.87a3.324 3.324 0 0 1 3.335-3.326"/><path fill="url(#render-14-j)" d="M25.823 23.691h-6.67a1.11 1.11 0 0 0-1.111 1.109 1.11 1.11 0 0 0 1.111 1.108h6.67a1.11 1.11 0 0 0 1.112-1.108 1.11 1.11 0 0 0-1.112-1.109"/><path fill="url(#render-15-k)" d="M31.751 40.691H19.153a1.11 1.11 0 0 0-1.112 1.109 1.11 1.11 0 0 0 1.112 1.108h12.598a1.11 1.11 0 0 0 1.112-1.108 1.11 1.11 0 0 0-1.112-1.109"/><path fill="url(#render-16-l)" d="M45.091 34.778h-5.929a1.11 1.11 0 0 0-1.111 1.109 1.11 1.11 0 0 0 1.111 1.108h5.929a1.11 1.11 0 0 0 1.112-1.108 1.11 1.11 0 0 0-1.112-1.109"/><path fill="url(#render-17-m)" d="M23.6 31.822h6.67a1.11 1.11 0 0 1 1.111 1.109v.161a1.11 1.11 0 0 1-1.111 1.11H23.6a1.11 1.11 0 0 1-1.112-1.11v-.161a1.11 1.11 0 0 1 1.112-1.109"/><path fill="url(#render-18-n)" d="M45.091 26.648h-8.893c-.614 0-1.112.497-1.112 1.109s.498 1.108 1.112 1.108h8.893c.614 0 1.112-.496 1.112-1.108s-.498-1.109-1.112-1.109"/><path fill="url(#render-19-o)" d="M46.943 19.257h-.741l-1.482 1.478v23.652l1.482 1.479h.741z"/><path fill="url(#render-20-p)" d="M36.198 44.387h2.223a1.11 1.11 0 0 1 1.112 1.109 1.11 1.11 0 0 1-1.112 1.108h-2.223a1.11 1.11 0 0 1-1.112-1.108 1.11 1.11 0 0 1 1.112-1.109"/><path fill="#2ec27e" d="M24.341 27.387a.37.37 0 0 0-.37.37v.37H23.6a.369.369 0 1 0 0 .738h.37v1.848c0 .205.165.37.371.37s.37-.165.37-.37v-2.956a.37.37 0 0 0-.37-.37m11.116 5.728a.37.37 0 0 0-.37.37v.37h-.371a.369.369 0 1 0 0 .738h.37v1.848c0 .205.165.37.371.37a.37.37 0 0 0 .37-.37v-2.956a.37.37 0 0 0-.37-.37m-7.411 2.403c-.615 0-1.112.495-1.112 1.109v1.478c0 .614.497 1.109 1.112 1.109.617 0 1.112-.495 1.112-1.109v-1.478c0-.614-.495-1.109-1.112-1.109m0 .74c.206 0 .37.164.37.369v1.478c0 .205-.164.37-.37.37a.37.37 0 0 1-.37-.37v-1.478c0-.205.164-.37.37-.37m12.598-14.783a.37.37 0 0 0-.37.37v.37h-.371a.369.369 0 1 0 0 .738h.37V24.8c0 .205.165.37.371.37a.37.37 0 0 0 .37-.37v-2.956a.37.37 0 0 0-.37-.37"/><path fill="url(#render-26-q)" d="M49.537 16.3a3.324 3.324 0 0 1 3.335 3.326v25.87a3.324 3.324 0 0 1-3.335 3.326 3.324 3.324 0 0 1-3.335-3.326v-25.87a3.324 3.324 0 0 1 3.335-3.326"/><path fill="#2ec27e" d="M40.644 38.474a.37.37 0 0 0-.37.37v.37h-.371a.369.369 0 1 0 0 .738h.37V41.8c0 .205.165.37.371.37a.37.37 0 0 0 .37-.37v-2.956a.37.37 0 0 0-.37-.37M31.01 25.17c-.615 0-1.112.495-1.112 1.109v1.478c0 .614.497 1.109 1.112 1.109.617 0 1.112-.495 1.112-1.109v-1.478c0-.614-.495-1.109-1.112-1.109m0 .74c.205 0 .37.164.37.369v1.478a.37.37 0 0 1-.37.37.37.37 0 0 1-.37-.37v-1.478c0-.205.164-.37.37-.37"/><path fill="#f6f5f4" d="M16.56 32.561a1.85 1.85 0 0 1-1.853 1.848 1.85 1.85 0 0 1-1.852-1.848 1.85 1.85 0 0 1 1.852-1.848 1.85 1.85 0 0 1 1.853 1.848"/><path fill="#33d17a" d="M15.818 32.561a1.11 1.11 0 0 1-1.112 1.109 1.11 1.11 0 0 1-1.111-1.109 1.11 1.11 0 0 1 1.111-1.109 1.11 1.11 0 0 1 1.112 1.109"/><path fill="#f6f5f4" d="M51.39 32.561a1.85 1.85 0 0 1-1.853 1.848 1.85 1.85 0 0 1-1.852-1.848 1.85 1.85 0 0 1 1.852-1.848 1.85 1.85 0 0 1 1.853 1.848"/><path fill="#989898" d="M50.649 32.561a1.11 1.11 0 0 1-1.112 1.109 1.11 1.11 0 0 1-1.111-1.109 1.11 1.11 0 0 1 1.111-1.109 1.11 1.11 0 0 1 1.112 1.109"/></g></svg>