<svg xmlns="http://www.w3.org/2000/svg" xmlns:xlink="http://www.w3.org/1999/xlink" width="64" height="64"><defs><linearGradient id="h"><stop offset="0"/><stop offset="1" stop-opacity="0"/></linearGradient><linearGradient id="a" x1="7.937" x2="7.937" y1="15.081" y2="1.852" gradientTransform="scale(3.7796)" gradientUnits="userSpaceOnUse"><stop offset="0" stop-color="#3665a1"/><stop offset=".204" stop-color="#5d99e6"/><stop offset=".804" stop-color="#5d99e6"/><stop offset="1" stop-color="#35639f"/></linearGradient><linearGradient id="b" x1="7.937" x2="7.937" y1="15.081" y2="1.852" gradientTransform="scale(3.7796)" gradientUnits="userSpaceOnUse"><stop offset="0" stop-color="#666"/><stop offset=".204" stop-color="#8c8c8c"/><stop offset=".804" stop-color="#8c8c8c"/><stop offset="1" stop-color="#666"/></linearGradient><linearGradient xlink:href="#a" id="i" x1="1.058" x2="15.875" y1="12.427" y2="12.427" gradientTransform="translate(64.002 63.94)scale(-3.7796)" gradientUnits="userSpaceOnUse"/><linearGradient xlink:href="#a" id="j" x1="156.44" x2="212.44" y1="18.47" y2="18.47" gradientTransform="translate(-216.44 -56.94)" gradientUnits="userSpaceOnUse"/><linearGradient id="z" x1="-184.44" x2="-184.44" y1="-39.97" y2="3.03" gradientTransform="translate(216.44 56.94)" gradientUnits="userSpaceOnUse"><stop offset="0" stop-color="#a2c6f4"/><stop offset="1" stop-color="#79a7e2"/></linearGradient><linearGradient id="g" x1="30" x2="30" y1="6" y2="58" gradientTransform="matrix(1 0 0 .76784 0 .898)" gradientUnits="userSpaceOnUse"><stop offset="0" stop-color="#f8deac" stop-opacity=".5"/><stop offset="1" stop-color="#edcaa2" stop-opacity=".5"/></linearGradient><linearGradient id="d" x1="7.937" x2="7.937" y1="15.081" y2="1.852" gradientTransform="scale(3.7796)" gradientUnits="userSpaceOnUse"><stop offset="0" stop-color="#805919"/><stop offset=".204" stop-color="#b07c1c"/><stop offset=".804" stop-color="#af7b1d"/><stop offset="1" stop-color="#7d581c"/></linearGradient><linearGradient id="c"><stop offset="0" stop-color="#a6a6a6"/><stop offset="1" stop-color="#cacaca"/></linearGradient><linearGradient id="e" x1="7.937" x2="7.937" y1="15.081" y2="1.852" gradientTransform="translate(0 .002)scale(3.7795)" gradientUnits="userSpaceOnUse"><stop offset="0" stop-color="#c18434"/><stop offset="1" stop-color="#e4b154"/></linearGradient><linearGradient id="f" x1="30" x2="30" y1="6" y2="58" gradientTransform="matrix(1 0 0 .76784 0 .898)" gradientUnits="userSpaceOnUse"><stop offset="0" stop-color="#f8deac"/><stop offset="1" stop-color="#edcaa2"/></linearGradient><linearGradient xlink:href="#b" id="k" x1="156.44" x2="212.44" y1="18.47" y2="18.47" gradientUnits="userSpaceOnUse"/><linearGradient xlink:href="#c" id="l" x1="47" x2="47" y1="46.969" y2="3.969" gradientUnits="userSpaceOnUse"/><linearGradient xlink:href="#d" id="m" x1="1.058" x2="15.875" y1="12.427" y2="12.427" gradientTransform="translate(-.001)scale(3.7796)" gradientUnits="userSpaceOnUse"/><linearGradient xlink:href="#e" id="n" x1="7.937" x2="7.937" y1="15.081" y2="1.852" gradientTransform="translate(0 .002)scale(3.7795)" gradientUnits="userSpaceOnUse"/><linearGradient xlink:href="#f" id="p" x1="30" x2="30" y1="6" y2="58" gradientTransform="matrix(1 0 0 .76784 0 .898)" gradientUnits="userSpaceOnUse"/><linearGradient xlink:href="#g" id="q" x1="30" x2="30" y1="6" y2="58" gradientTransform="matrix(1 0 0 .15174 0 46.362)" gradientUnits="userSpaceOnUse"/><linearGradient xlink:href="#b" id="v" x1="156.44" x2="212.44" y1="18.47" y2="18.47" gradientTransform="translate(-152.44 6.999)" gradientUnits="userSpaceOnUse"/><linearGradient xlink:href="#d" id="w" x1="1.058" x2="15.875" y1="12.427" y2="12.427" gradientTransform="scale(3.7796)" gradientUnits="userSpaceOnUse"/><linearGradient xlink:href="#d" id="s" x1="1.053" x2="15.914" y1="10.328" y2="10.328" gradientTransform="scale(3.7796)" gradientUnits="userSpaceOnUse"/><linearGradient xlink:href="#d" id="t" x1="1.053" x2="15.914" y1="10.328" y2="10.328" gradientTransform="translate(-.002)scale(3.7796)" gradientUnits="userSpaceOnUse"/><linearGradient xlink:href="#h" id="x" x1="-168.95" x2="-168.93" y1="-36.88" y2="-24.439" gradientTransform="translate(217.25 56.94)" gradientUnits="userSpaceOnUse"/><linearGradient xlink:href="#h" id="y" x1="-168.95" x2="-168.93" y1="-36.88" y2="-24.439" gradientTransform="translate(216.43 76.165)" gradientUnits="userSpaceOnUse"/></defs><path fill="url(#i)" d="M60.002 29.972V16.97A12.973 12.973 0 0 0 47 3.969H17.002A12.973 12.973 0 0 0 4 16.971v13.001A12.973 12.973 0 0 1 17.002 16.97H47a12.973 12.973 0 0 1 13.002 13.002"/><rect width="56.002" height="43" x="-60.001" y="-59.97" fill="url(#j)" rx="13.002" ry="13.002" transform="scale(-1)"/><rect width="49.377" height="11.89" x="7.312" y="26.024" fill="#5791db" ry="0" style="paint-order:markers stroke fill"/><g transform="matrix(.34654 0 0 .24994 31.333 20.956)"><rect width="56.002" height="43" x="156.44" y="-3.03" fill="url(#k)" rx="13.002" ry="13.002" transform="translate(-152.44 6.999)"/><path fill="url(#l)" d="M17.002 3.969A12.973 12.973 0 0 0 4 16.97v16.996a12.973 12.973 0 0 0 13.002 13.002H47a12.973 12.973 0 0 0 13.002-13.002V16.97A12.973 12.973 0 0 0 47 3.969zm.48 3.312H46.52c5.633 0 10.17 4.351 10.17 9.756V33.9c0 5.405-4.537 9.756-10.17 9.756H17.482c-5.633 0-10.17-4.35-10.17-9.756V17.037c0-5.405 4.537-9.756 10.17-9.756"/><path fill="url(#m)" d="M3.999 33.967v13.002A12.973 12.973 0 0 0 17.001 59.97h29.998a12.973 12.973 0 0 0 13.002-13.002V33.967a12.973 12.973 0 0 1-13.002 13.002H17.001A12.973 12.973 0 0 1 3.999 33.967"/><rect width="56" height="42.999" x="4" y="3.97" fill="url(#n)" rx="13.002" ry="13.002"/><path fill="url(#p)" d="M25 3.97v42.999h14v-43z"/><rect width="1" height="42.999" x="31.5" y="3.97" opacity=".2" rx="0" ry="0"/><path fill="url(#q)" d="M25 46.969v8.497h14V46.97z"/></g><g transform="matrix(.34654 0 0 .24994 31.333 38.402)"><rect width="56.002" height="43" x="156.44" y="-3.03" fill="url(#k)" rx="13.002" ry="13.002" transform="translate(-152.44 6.999)"/><path fill="url(#l)" d="M17.002 3.969A12.973 12.973 0 0 0 4 16.97v16.996a12.973 12.973 0 0 0 13.002 13.002H47a12.973 12.973 0 0 0 13.002-13.002V16.97A12.973 12.973 0 0 0 47 3.969zm.48 3.312H46.52c5.633 0 10.17 4.351 10.17 9.756V33.9c0 5.405-4.537 9.756-10.17 9.756H17.482c-5.633 0-10.17-4.35-10.17-9.756V17.037c0-5.405 4.537-9.756 10.17-9.756"/><path fill="url(#s)" d="M4 33.967v23.52a12.973 12.973 0 0 0 13.002 13.001H47a12.973 12.973 0 0 0 13.002-13.002v-23.52A12.973 12.973 0 0 1 47 46.97H17.002A12.973 12.973 0 0 1 4 33.967"/><rect width="56" height="42.999" x="4" y="3.97" fill="url(#n)" rx="13.002" ry="13.002"/><path fill="url(#p)" d="M25 3.97v42.999h14v-43z"/><rect width="1" height="42.999" x="31.5" y="3.97" opacity=".2" rx="0" ry="0"/><path fill="url(#q)" d="M25 46.969v8.497h14V46.97z"/></g><g transform="matrix(.34654 0 0 .24994 10.418 18.325)"><rect width="56.002" height="43" x="156.44" y="-3.03" fill="url(#k)" rx="13.002" ry="13.002" transform="translate(-152.44 6.999)"/><path fill="url(#l)" d="M17.002 3.969A12.973 12.973 0 0 0 4 16.97v16.996a12.973 12.973 0 0 0 13.002 13.002H47a12.973 12.973 0 0 0 13.002-13.002V16.97A12.973 12.973 0 0 0 47 3.969zm.48 3.312H46.52c5.633 0 10.17 4.351 10.17 9.756V33.9c0 5.405-4.537 9.756-10.17 9.756H17.482c-5.633 0-10.17-4.35-10.17-9.756V17.037c0-5.405 4.537-9.756 10.17-9.756"/><path fill="url(#t)" d="M3.998 33.967v23.52A12.973 12.973 0 0 0 17 70.488h29.998A12.973 12.973 0 0 0 60 57.486v-23.52A12.973 12.973 0 0 1 46.998 46.97H17A12.973 12.973 0 0 1 3.998 33.967"/><rect width="56" height="42.999" x="4" y="3.97" fill="url(#n)" rx="13.002" ry="13.002"/><path fill="url(#p)" d="M25 3.97v42.999h14v-43z"/><rect width="1" height="42.999" x="31.5" y="3.97" opacity=".2" rx="0" ry="0"/><path fill="url(#q)" d="M25 46.969v8.497h14V46.97z"/></g><g transform="matrix(.34654 0 0 .24994 10.418 41.015)"><rect width="56.002" height="43" x="4.001" y="3.969" fill="url(#v)" rx="13.002" ry="13.002"/><path fill="url(#l)" d="M17.002 3.969A12.973 12.973 0 0 0 4 16.97v16.996a12.973 12.973 0 0 0 13.002 13.002H47a12.973 12.973 0 0 0 13.002-13.002V16.97A12.973 12.973 0 0 0 47 3.969zm.48 3.312H46.52c5.633 0 10.17 4.351 10.17 9.756V33.9c0 5.405-4.537 9.756-10.17 9.756H17.482c-5.633 0-10.17-4.35-10.17-9.756V17.037c0-5.405 4.537-9.756 10.17-9.756"/><path fill="url(#w)" d="M4 33.967v13.002A12.973 12.973 0 0 0 17.002 59.97H47a12.973 12.973 0 0 0 13.002-13.002V33.967A12.973 12.973 0 0 1 47 46.969H17.002A12.973 12.973 0 0 1 4 33.967"/><rect width="56" height="42.999" x="4" y="3.97" fill="url(#n)" rx="13.002" ry="13.002"/><path fill="url(#p)" d="M25 3.97v42.999h14v-43z"/><rect width="1" height="42.999" x="31.5" y="3.97" opacity=".2" rx="0" ry="0"/><path fill="url(#q)" d="M25 46.969v8.497h14V46.97z"/></g><rect width="50.777" height="13.247" x="7.441" y="20.172" fill="url(#x)" opacity=".338" ry="4.937" style="paint-order:markers stroke fill"/><rect width="50.777" height="13.247" x="6.612" y="39.397" fill="url(#y)" opacity=".338" ry="0" style="paint-order:markers stroke fill"/><path fill="url(#z)" d="M17.002 16.97A12.973 12.973 0 0 0 3.999 29.972V46.97a12.973 12.973 0 0 0 13.003 13H47a12.973 12.973 0 0 0 13.002-13.001V29.972A12.973 12.973 0 0 0 47 16.971zm.48 3.313h29.037c5.633 0 10.17 4.351 10.17 9.756v6.54H7.312v-6.54c0-5.405 4.536-9.756 10.17-9.756M7.312 40.361h49.377v6.541c0 5.405-4.537 9.756-10.17 9.756H17.482c-5.634 0-10.17-4.351-10.17-9.756z" style="paint-order:markers stroke fill"/></svg>