<svg xmlns="http://www.w3.org/2000/svg" viewBox="0 0 16.933 16.933"><defs><clipPath id="m"/><clipPath id="c"/><clipPath id="e"/><clipPath id="g"/><clipPath id="i"/><clipPath id="k"/><mask id="n" maskUnits="userSpaceOnUse"><g filter="url(#a)"><path fill-opacity=".528" d="M0 0h128v128H0z"/></g></mask><mask id="d" maskUnits="userSpaceOnUse"><g filter="url(#a)"><path fill-opacity=".528" d="M0 0h128v128H0z"/></g></mask><mask id="f" maskUnits="userSpaceOnUse"><g filter="url(#a)"><path fill-opacity=".528" d="M0 0h128v128H0z"/></g></mask><mask id="h" maskUnits="userSpaceOnUse"><g filter="url(#a)"><path fill-opacity=".528" d="M0 0h128v128H0z"/></g></mask><mask id="j" maskUnits="userSpaceOnUse"><g filter="url(#a)"><path fill-opacity=".528" d="M0 0h128v128H0z"/></g></mask><mask id="l" maskUnits="userSpaceOnUse"><g filter="url(#a)"><path fill-opacity=".528" d="M0 0h128v128H0z"/></g></mask><linearGradient id="b" x1="1.058" x2="15.875" y1="8.459" y2="8.459" gradientTransform="translate(-16.925 .008)" gradientUnits="userSpaceOnUse"><stop offset="0" stop-color="#203e5e"/><stop offset="1" stop-color="#9ebbdf"/></linearGradient><filter id="a" width="1" height="1" x="0" y="0"><feColorMatrix in="SourceGraphic" values="0 0 0 0 1 0 0 0 0 1 0 0 0 0 1 0 0 0 1 0"/></filter></defs><rect width="14.817" height="14.817" x="-15.867" y="1.058" fill="url(#b)" rx="3.44" ry="3.44" style="fill:#6884a5;fill-opacity:1" transform="rotate(-90)"/><path d="M1.058 12.17v.265a3.433 3.433 0 0 0 3.44 3.44h7.937a3.433 3.433 0 0 0 3.44-3.44v-.265a3.433 3.433 0 0 1-3.44 3.44H4.498a3.433 3.433 0 0 1-3.44-3.44" opacity=".35" style="opacity:.15;stroke-width:.264578"/><path fill="#fff" d="M1.058 4.763V4.5a3.433 3.433 0 0 1 3.44-3.44h7.937a3.433 3.433 0 0 1 3.44 3.44v.264a3.433 3.433 0 0 0-3.44-3.44H4.498a3.433 3.433 0 0 0-3.44 3.44" opacity=".15" style="stroke-width:.264578"/><path d="M8.184 1.05v3.363H4.935V1.079H4.37v3.334H1.058v.555H4.37V8.16H1.122v.588H4.37v3.59H1.122v.587H4.37v2.942h.565v-2.942h3.25v2.942h.564v-2.942h3.252v2.942h.565v-2.942h3.245v-.587h-3.245v-3.59h3.245V8.16h-3.245V4.968h3.309v-.555h-3.31V1.05h-.564v3.363H8.749V1.05zM4.935 4.968h3.25V8.16h-3.25zm3.814 0h3.252V8.16H8.749zm-3.814 3.78h3.25v3.59h-3.25zm3.814 0h3.252v3.59H8.749z" opacity=".15"/><path fill="#77767b" d="M.897 11.404a8 8 0 0 0-.034.507v1.014h3.042v-1.014h9.122v1.014h3.043v-1.014a8 8 0 0 0-.035-.507zm7.57-4.561c-1.93.004-3.65 1.313-4.292 3.132h.544c.619-1.527 2.1-2.62 3.747-2.626 1.652.002 3.135 1.095 3.756 2.625h.543c-.644-1.823-2.366-3.132-4.299-3.132Z" style="fill:#999"/><path fill="#c0bfbc" d="M8.467 3.892a7.603 7.603 0 0 0-7.603 7.603v1.014h3.041v-1.014h9.123v1.014h3.042v-1.014a7.603 7.603 0 0 0-7.603-7.603m0 3.041a4.56 4.56 0 0 1 4.3 3.042H4.175a4.56 4.56 0 0 1 4.292-3.042" style="fill:#e6e6e6"/><path fill="#3d3846" d="m54.54 46.563 3.862-1.036 2.59 9.66-3.863 1.036z" clip-path="url(#c)" mask="url(#d)" transform="translate(-.656 -1.684)scale(.12671)"/><path fill="#3d3846" d="m85.598 45.527 3.863 1.035-2.59 9.66-3.863-1.035z" clip-path="url(#e)" mask="url(#f)" transform="translate(-.656 -1.684)scale(.12671)"/><path fill="#3d3846" d="m113.01 60.16 2.828 2.828-7.07 7.07-2.829-2.828z" clip-path="url(#g)" mask="url(#h)" transform="translate(-.656 -1.684)scale(.12671)"/><path fill="#3d3846" d="m28.16 62.988 2.828-2.828 7.07 7.07-2.828 2.829z" clip-path="url(#i)" mask="url(#j)" transform="translate(-.656 -1.684)scale(.12671)"/><path fill="#3d3846" d="m13.527 90.402 1.036-3.863 9.66 2.59-1.035 3.863z" clip-path="url(#k)" mask="url(#l)" transform="translate(-.656 -1.684)scale(.12671)"/><path fill="#3d3846" d="m129.44 86.54 1.035 3.862-9.66 2.59-1.036-3.863z" clip-path="url(#m)" mask="url(#n)" transform="translate(-.656 -1.684)scale(.12671)"/></svg>