<svg xmlns="http://www.w3.org/2000/svg" xmlns:xlink="http://www.w3.org/1999/xlink" viewBox="0 0 64 64"><defs><linearGradient xlink:href="#b" id="a" x1="7.937" x2="7.937" y1="15.081" y2="1.852" gradientTransform="scale(3.7796)" gradientUnits="userSpaceOnUse"><stop offset="0" stop-color="#ffc30d"/><stop offset="1" stop-color="#fff63f"/></linearGradient><linearGradient id="f" x1="1.058" x2="15.875" y1="12.427" y2="12.427" gradientTransform="scale(3.7796)" gradientUnits="userSpaceOnUse"><stop offset="0" stop-color="#805919"/><stop offset=".204" stop-color="#b07c1c"/><stop offset=".804" stop-color="#af7b1d"/><stop offset="1" stop-color="#7d581c"/></linearGradient><linearGradient id="c" x1="156.44" x2="212.44" y1="18.47" y2="18.47" gradientTransform="translate(-152.44 6.999)" gradientUnits="userSpaceOnUse"><stop offset="0" stop-color="#666"/><stop offset=".204" stop-color="#8c8c8c"/><stop offset=".804" stop-color="#8c8c8c"/><stop offset="1" stop-color="#666"/></linearGradient><linearGradient id="e" x1="47" x2="47" y1="46.969" y2="3.969" gradientUnits="userSpaceOnUse"><stop offset="0" stop-color="#a6a6a6"/><stop offset="1" stop-color="#cacaca"/></linearGradient><linearGradient id="d" x1="184.44" x2="184.44" y1="12.173" y2="48.547" gradientTransform="translate(-152.44 6.999)" gradientUnits="userSpaceOnUse"><stop offset="0" stop-color="#4d4d4d"/><stop offset="1" stop-color="#272727"/></linearGradient><linearGradient id="g" x1="7.937" x2="7.937" y1="15.081" y2="1.852" gradientTransform="translate(0 .002)scale(3.7795)" gradientUnits="userSpaceOnUse"><stop offset="0" stop-color="#c18434"/><stop offset="1" stop-color="#e4b154"/></linearGradient><linearGradient id="h" x1="30" x2="30" y1="6" y2="58" gradientTransform="matrix(1 0 0 .85935 0 .532)" gradientUnits="userSpaceOnUse"><stop offset="0" stop-color="#f8deac"/><stop offset="1" stop-color="#edcaa2"/></linearGradient><linearGradient id="i" x1="30" x2="30" y1="6" y2="58" gradientTransform="matrix(1 0 0 .06024 0 51.852)" gradientUnits="userSpaceOnUse"><stop offset="0" stop-color="#f8deac" stop-opacity=".5"/><stop offset="1" stop-color="#edcaa2" stop-opacity=".5"/></linearGradient></defs><rect width="56.002" height="56.002" x="4.001" y="3.969" fill="url(#a)" rx="13.002" ry="13.002"/><rect width="56.002" height="43" x="4.001" y="3.969" fill="url(#c)" rx="13.002" ry="13.002"/><rect width="49.375" height="36.375" x="7.313" y="19.172" fill="url(#d)" rx="10.168" ry="9.756"/><path fill="url(#e)" d="M17.002 3.969A12.973 12.973 0 0 0 4 16.97v16.996a12.973 12.973 0 0 0 13.002 13.002H47a12.973 12.973 0 0 0 13.002-13.002V16.97A12.973 12.973 0 0 0 47 3.969zm.48 3.312H46.52c5.633 0 10.17 4.351 10.17 9.756V33.9c0 5.405-4.537 9.756-10.17 9.756H17.482c-5.633 0-10.17-4.35-10.17-9.756V17.037c0-5.405 4.537-9.756 10.17-9.756"/><path fill="url(#f)" d="M4 33.967v13.002A12.973 12.973 0 0 0 17.002 59.97H47a12.973 12.973 0 0 0 13.002-13.002V33.967A12.973 12.973 0 0 1 47 46.969H17.002A12.973 12.973 0 0 1 4 33.967" style="fill:#b07c1c;fill-opacity:1"/><rect width="56" height="48.123" x="4" y="3.97" fill="url(#g)" rx="13.002" ry="13.002" style="fill:#d49c45;fill-opacity:1"/><path fill="url(#h)" d="M25 3.97v48.123h14V3.97Z" style="fill:#f2d2a6;fill-opacity:1"/><rect width="1" height="48.123" x="31.5" y="3.97" opacity=".2" rx="0" ry="0"/><path fill="url(#i)" d="M25 52.093v3.373h14v-3.373z" style="fill:#f8deac;fill-opacity:.32000002"/><path fill="#fff" d="M30.717 5.2c-7.565.411-14.819 4.83-18.457 11.507-3.92 6.858-3.919 15.789.142 22.586 3.476 5.92 9.707 10.15 16.535 11.026 7.121 1.005 14.643-1.622 19.541-6.896 4.493-4.72 6.77-11.446 6.074-17.934-.735-7.58-5.599-14.587-12.446-17.921-3.504-1.788-7.472-2.536-11.39-2.369zm.877 3.773c5.028-.083 10.043 1.884 13.62 5.429 1.95 1.983 3.631 4.368 4.46 7.026-.657.29-.345 1.323-.892 1.443-3.084.34-6.16.832-9.248 1.085-1.79.13-3.521-.43-5.053-1.326-1.924-.989-4.274-.6-6.033.56-2.034 1.015-4.356.87-6.53.503-2.332-.298-4.673-.539-6.999-.872.246-.705-.654-1.108-.546-1.69 2.396-6.42 8.53-11.248 15.35-11.996.62-.084 1.248-.105 1.87-.162zm16.35 14.973c1.122-.032 1.359 1.728.277 1.988-1.121.38-1.804-1.41-.716-1.87.118-.102.298-.07.44-.118m-31.686.012c1.102.202 1.015 1.95-.11 1.997-1.156.196-1.51-1.675-.388-1.947.146-.098.334-.026.498-.05m27.632.5c1.217-.023 1.718 1.764.62 2.324-1.095.71-2.459-.825-1.61-1.827.203-.316.628-.469.99-.497m-24.257.067c.782-.179 1.701.208 1.716 1.11.152 1.271-1.842 1.83-2.337.62-.338-.63-.014-1.426.62-1.73m12.556.234c1.837.11 3.28 2 2.803 3.796-.398 1.985-2.94 3.037-4.623 1.904-1.77-1.017-1.929-3.796-.285-5.02.603-.473 1.343-.67 2.105-.68m-7.135.28c1.262.287 1.591 2.153.438 2.79-1.131.828-2.788-.51-2.264-1.796.267-.765 1.054-1.127 1.826-.993m13.783.027c.925-.229 1.995.375 1.992 1.386.213 1.419-1.834 2.208-2.695 1.088-.666-.833-.305-2.101.703-2.474m10.854 1.49c.205.558.84.9 1.173 1.27.056 6.597-3.65 13.056-9.387 16.319-1.968 1.161-4.168 1.965-6.424 2.298-.235-.713-1.516-.403-1.13-1.327.233-3.147.288-6.314.62-9.45.546-3.61 3.617-6.597 7.215-7.159zm-35.435.023c3.218.754 6.455 1.488 9.637 2.386 3.433 1.2 5.785 4.73 5.724 8.347.157 2.809.334 5.616.492 8.424-.792.026-1.149 1.064-1.973.576-6.533-1.31-12.131-6.362-14.103-12.727-.62-1.895-.901-3.896-.897-5.887.521-.23.907-.581 1.12-1.118zm17.6 7.041c1.313-.143 2.22 1.581 1.302 2.544-.846 1.143-2.926.297-2.659-1.13-.016-.73.666-1.32 1.356-1.414m-.193 4.986c1.139-.317 2.133 1.206 1.24 2.046-.833 1.037-2.623-.1-2.058-1.3.14-.388.463-.58.818-.746m.503 4.324c1.139.149 1.054 1.981-.085 1.998-1.148.19-1.494-1.695-.37-1.95.133-.094.305-.024.455-.048"/><path d="M3.998 45.998v1c0 7.203 5.8 13.004 13.004 13.004h29.996c7.203 0 13.004-5.8 13.004-13.004v-1c0 7.203-5.8 13.002-13.004 13.002H17.002A12.975 12.975 0 0 1 3.998 45.998" opacity=".15"/><path fill="#fff" d="M3.998 18.004v-1C3.998 9.801 9.798 4 17.002 4h29.996c7.203 0 13.004 5.8 13.004 13.004v1c0-7.203-5.8-13.002-13.004-13.002H17.002A12.975 12.975 0 0 0 3.998 18.004" opacity=".15"/></svg>