<svg xmlns="http://www.w3.org/2000/svg" viewBox="0 0 64 64"><rect width="56.002" height="56.002" x="4" y="3.969" fill="#ffeca3" rx="13.002" ry="13.002"/><path d="M3.998 45.998v1c0 7.203 5.8 13.004 13.004 13.004h29.996c7.203 0 13.004-5.8 13.004-13.004v-1c0 7.203-5.8 13.002-13.004 13.002H17.002A12.975 12.975 0 0 1 3.998 45.998" opacity=".1"/><path fill="#fff" d="M3.998 18.004v-1C3.998 9.801 9.798 4 17.002 4h29.996c7.203 0 13.004 5.8 13.004 13.004v1c0-7.203-5.8-13.002-13.004-13.002H17.002A12.975 12.975 0 0 0 3.998 18.004" opacity=".35"/><path fill="#ffb74d" d="M36.92 33.603c4.52.643 7.117 2.272 7.67 2.866.554.594 2.411 2.832 3.326 5.822.49 1.605.607 3.64.89 6.104-1.21-.254-2.184-.355-3.462-.304-4.127.168-7.774-.293-10.265-3.18-1.66-1.925-3.148-5.663-4.542-11.132 2.448-.405 4.549-.437 6.383-.176"/><path fill="#ffb74d" d="M34.192 28.26c2.266-3.953 4.743-5.758 5.5-6.052s3.528-1.19 6.653-.935c1.675.137 3.714.897 6.116 1.544-.684 1.028-1.237 1.776-1.66 2.98-1.367 3.888-3.142 7.098-6.752 8.342-2.406.83-6.44.365-12.05-.36.526-2.42 1.273-3.914 2.193-5.518z"/><path fill="#ffb74d" d="M27.91 29.077c-2.297-3.937-2.624-6.979-2.5-7.78s.735-3.642 2.52-6.211c.958-1.378 2.305-2.942 4.07-4.692a15 15 0 0 0 2.088 3.11c2.69 3.127 4.587 6.267 3.86 10.006-.486 2.493-2.51 5.788-5.948 10.268-1.837-1.664-3.158-3.104-4.09-4.701"/><path fill="#ffb74d" d="M25.697 35.401c-4.566.012-7.37-1.229-8.003-1.737-.633-.509-2.793-2.458-4.129-5.286a30.6 30.6 0 0 1-2.027-5.56c1.234.079 2.48-.313 3.738-.548 4.06-.756 7.735-.822 10.616 1.678 1.92 1.667 3.94 5.35 6.107 10.562-2.364.751-4.45.886-6.302.891"/><path fill="#ffb74d" d="M31.372 40.495c-1.969 4.11-4.305 6.092-5.039 6.44s-3.43 1.446-6.566 1.42c-1.681-.013-3.594-.223-6.037-.692.606-1.075.927-2.26 1.26-3.492 1.076-3.978 2.61-7.31 6.118-8.815 2.339-1.004 5.974-1.159 11.622-.847-.346 2.45-.559 4.319-1.358 5.986"/><path fill="none" stroke="#ffe57f" stroke-linecap="round" stroke-miterlimit="1" stroke-width="12.823" d="M379.8 328.67c-48.197-38.866-62.217-62.496-106.83-111.45" transform="matrix(.11377 -.00894 .00896 .11348 -1.004 11.57)"/><path fill="none" stroke="#ffe57f" stroke-linecap="round" stroke-miterlimit="1" stroke-width="12.823" d="M260.27 212.28c51.135-20.009 87.478-32.821 148.27-45.073" transform="matrix(.11125 -.02541 .02548 .11095 -2.364 16.84)"/><path fill="none" stroke="#ffe57f" stroke-linecap="round" stroke-miterlimit="1" stroke-width="12.823" d="M259.32 215.41c5.836-53.577 11.504-105.83 29.592-157.88" transform="matrix(.11125 -.02541 .02548 .11095 -2.337 16.468)"/><path fill="none" stroke="#ffe57f" stroke-linecap="round" stroke-miterlimit="1" stroke-width="12.823" d="M140.48 106.61c38.372 39.706 73.692 75.196 120.11 106.54" transform="matrix(.11125 -.02541 .02548 .11095 -2.421 16.751)"/><path fill="none" stroke="#ffe57f" stroke-linecap="round" stroke-miterlimit="1" stroke-width="12.823" d="M107.72 265.66c58.955-13.16 91.924-28.917 144.75-55.859" transform="matrix(.10899 -.03378 .03387 .1087 -2.623 19.501)"/><path fill="#ffe57f" d="M37.845 33.125c.046 1.105-1.548 1.181-1.56 2.531-.009 1.173-.232 2.206-1.137 2.799s-2.067-.032-3.09.013c-1.023.044-1.782.754-2.732.242s-.964-1.331-1.513-2.223c-.55-.892-1.612-1.542-1.658-2.647s1.021-1.633 1.495-2.57.343-2.372 1.248-2.965 1.893.125 2.916.08c1.023-.044 2.137-.784 3.088-.272.95.512.785 1.823 1.334 2.714.55.892 1.564 1.193 1.61 2.298"/><path fill="#fff8e1" d="M36.028 35.77c-.458.897-2.032.003-2.544.751-.523.765-.593 1.694-1.546 1.64-.87-.048-.605-1.603-1.326-2.018s-2.326.626-2.73-.324c-.422-.988 1.288-1.016 1.264-2.095-.023-1.08-1.898-1.685-1.466-2.444.433-.76 2.005.057 2.723-.363.719-.42.82-2.25 1.69-2.253.872-.003.67 1.862 1.391 2.277.722.415 2.407-.507 2.845.25.438.755-1.868 1.376-1.865 2.211s1.962 1.59 1.564 2.368"/></svg>