<svg xmlns="http://www.w3.org/2000/svg" width="64" height="64"><defs><linearGradient id="b" x1="13.481" x2="89.94" y1="102.42" y2="124.94" gradientTransform="translate(-6.745 -24.103)scale(.65446)" gradientUnits="userSpaceOnUse"><stop offset="0" stop-color="#0e88c8"/><stop offset="1" stop-color="#1fa4f1"/></linearGradient><linearGradient id="c" x1="97.368" x2="99.202" y1="101.32" y2="97.035" gradientTransform="rotate(170.987 36.333 -9.262)scale(.65446 -.65446)" gradientUnits="userSpaceOnUse"><stop offset="0"/><stop offset="1" stop-opacity="0"/></linearGradient><linearGradient id="e" x1="45" x2="45" y1="27" y2="63" gradientUnits="userSpaceOnUse"><stop offset="0" stop-color="#004095"/><stop offset="1" stop-color="#0766d3"/></linearGradient><linearGradient id="a" x1="32" x2="32" y1="2" y2="62" gradientTransform="translate(-86.064)" gradientUnits="userSpaceOnUse"><stop offset="0" stop-color="#37ccfe"/><stop offset=".225" stop-color="#30c9fd"/><stop offset=".225" stop-color="#21a5ff"/><stop offset=".461" stop-color="#1aa7f4"/><stop offset=".461" stop-color="#1150b3"/><stop offset=".754" stop-color="#3366b7"/><stop offset=".754" stop-color="#005fb6"/><stop offset="1" stop-color="#27468e"/></linearGradient><filter id="d" width="1.072" height="1.072" x="-.036" y="-.036" color-interpolation-filters="sRGB"><feGaussianBlur stdDeviation=".72"/></filter><filter id="f" width="1.125" height="1.116" x="-.062" y="-.058" color-interpolation-filters="sRGB"><feGaussianBlur stdDeviation=".52"/></filter></defs><rect width="56" height="56" x="4" y="4" fill="url(#a)" rx="13.002" ry="13.002"/><path fill="#2498e7" d="M60.023 25.586v21.412A12.974 12.974 0 0 1 47.021 60h-25.51a28.6 28.6 0 0 1-8.986-5.193z" style="paint-order:fill markers stroke" transform="matrix(-1 0 0 1 64.023 0)"/><path fill="url(#b)" d="m4.023 25.35 51.248 31.711a12.96 12.96 0 0 1-8.25 2.94H17.025A12.974 12.974 0 0 1 4.023 46.998z" transform="matrix(-1 0 0 1 64.023 0)"/><path fill="url(#c)" d="M23.279 37.447 4.402 50.232a12.95 12.95 0 0 0 3.395 5.963l.003.004.188.18q.375.346.764.681l22.936-14.299-.168-.244-3.383-2.082z" opacity=".15"/><circle cx="32" cy="32" r="24" fill-rule="evenodd" filter="url(#d)" opacity=".15" style="paint-order:stroke fill markers" transform="matrix(.75 0 0 .75 21 21)"/><circle cx="45" cy="45" r="18" fill="url(#e)" fill-rule="evenodd" style="paint-order:stroke fill markers"/><path d="M45.224 34.201c-3.033 0-5.614 1.1-7.414 3.042S35 41.944 35 45.206c0 3.154.934 5.807 2.637 7.674 1.704 1.867 4.168 2.92 7.097 2.92 3.034 0 5.624-1.113 7.434-3.064 1.81-1.95 2.832-4.72 2.832-7.983 0-3.155-.947-5.802-2.662-7.658s-4.187-2.894-7.114-2.894m-.45 3.892c1.766 0 3.213.705 4.254 1.94s1.667 3.018 1.667 5.173c0 2.078-.567 3.758-1.525 4.906-.957 1.15-2.296 1.794-3.986 1.794-1.768 0-3.204-.696-4.234-1.924s-1.647-3.009-1.647-5.187c0-2.101.56-3.783 1.506-4.925.947-1.142 2.273-1.777 3.965-1.777" filter="url(#f)" opacity=".25"/><path fill="#fff" d="M45.224 34.201c-3.033 0-5.614 1.1-7.414 3.042S35 41.944 35 45.206c0 3.154.934 5.807 2.637 7.674 1.704 1.867 4.168 2.92 7.097 2.92 3.034 0 5.624-1.113 7.434-3.064 1.81-1.95 2.832-4.72 2.832-7.983 0-3.155-.947-5.802-2.662-7.658s-4.187-2.894-7.114-2.894m-.45 3.892c1.766 0 3.213.705 4.254 1.94s1.667 3.018 1.667 5.173c0 2.078-.567 3.758-1.525 4.906-.957 1.15-2.296 1.794-3.986 1.794-1.768 0-3.204-.696-4.234-1.924s-1.647-3.009-1.647-5.187c0-2.101.56-3.783 1.506-4.925.947-1.142 2.273-1.777 3.965-1.777"/></svg>