<svg xmlns="http://www.w3.org/2000/svg" width="64" height="64"><defs><linearGradient id="a" x1="7.937" x2="7.937" y1="15.081" y2="1.852" gradientTransform="scale(3.7796)" gradientUnits="userSpaceOnUse"><stop offset="0" stop-color="#f1efeb"/><stop offset="1" stop-color="#fdfcfc"/></linearGradient><linearGradient id="b" x1="3.775" x2="12.1" y1="13.607" y2="3.326" gradientTransform="translate(3.117 3.117)scale(3.4115)" gradientUnits="userSpaceOnUse"><stop offset="0" stop-color="#f6d32d"/><stop offset="1" stop-color="#f7da52"/></linearGradient></defs><rect width="56" height="56" x="4" y="4" fill="url(#a)" rx="13" ry="13"/><rect width="50.545" height="50.545" x="6.727" y="6.727" fill="url(#b)" rx="11.734" ry="11.734"/><path fill="#e6610d" d="M26.305 6.727a.7.7 0 0 0 .426.4.69.69 0 0 0 .814-.4zm6.543.64a.684.684 0 0 0-.643.512.69.69 0 1 0 .643-.512m-19.49.89a.97.97 0 0 0-.904.719.967.967 0 0 0 .685 1.184.966.966 0 0 0 1.186-.681.97.97 0 0 0-.967-1.221m25.445.708a.69.69 0 1 0 .627.344.7.7 0 0 0-.42-.323.7.7 0 0 0-.207-.021m-19.49.89a.969.969 0 1 0 .08 1.937.969.969 0 0 0-.08-1.936m25.453.708a.69.69 0 1 0 .055 1.378.69.69 0 0 0-.055-1.378m-19.492.89a.97.97 0 0 0-.896.719.967.967 0 0 0 1.87.5.97.97 0 0 0-.974-1.219m25.457.705a.69.69 0 0 0-.643.514.69.69 0 1 0 .846-.488.7.7 0 0 0-.203-.026m-19.496.893a.966.966 0 0 0-.213 1.9.97.97 0 0 0 1.188-.681.97.97 0 0 0-.975-1.22m25.109.812a.688.688 0 0 0 .191 1.248q.13.035.262.02a12 12 0 0 0-.453-1.268m-44.602.078a1.24 1.24 0 0 0-1.152.924 1.245 1.245 0 1 0 1.152-.924m25.453.707a.967.967 0 1 0 .973 1.219.968.968 0 0 0-.973-1.219m-19.492.891a1.245 1.245 0 0 0-.273 2.447 1.25 1.25 0 0 0 1.529-.879 1.246 1.246 0 0 0-1.256-1.568m25.453.705a.97.97 0 0 0-.895.719.964.964 0 0 0 .682 1.184.97.97 0 0 0 1.188-.684.973.973 0 0 0-.975-1.219m-19.492.89a1.245 1.245 0 0 0-1.152.925 1.24 1.24 0 0 0 .88 1.525 1.246 1.246 0 1 0 .271-2.45m25.453.708a.969.969 0 1 0 .08 1.936.969.969 0 0 0-.08-1.936m-19.49.892a1.245 1.245 0 0 0-.273 2.448 1.247 1.247 0 0 0 1.527-.881 1.248 1.248 0 0 0-1.254-1.567m25.451.705a.968.968 0 1 0 .081 1.935.968.968 0 0 0-.081-1.935m-44.883.184q-.2 0-.395.053a1.524 1.524 0 1 0 .395-.053m25.393.709a1.245 1.245 0 1 0 1.254 1.566 1.244 1.244 0 0 0-1.254-1.566m-19.432.889q-.2 0-.395.052a1.526 1.526 0 0 0 0 2.947 1.53 1.53 0 0 0 1.868-1.081 1.524 1.524 0 0 0-1.473-1.918m25.391.709a1.243 1.243 0 0 0-.271 2.445 1.244 1.244 0 1 0 .271-2.445m-19.43.888q-.2 0-.395.051a1.527 1.527 0 1 0 1.87 1.87 1.528 1.528 0 0 0-1.475-1.92zm25.393.707a1.25 1.25 0 0 0-1.156.922 1.247 1.247 0 1 0 1.156-.922m-19.432.891q-.2 0-.395.05a1.525 1.525 0 1 0 .395-.05m25.393.707a1.245 1.245 0 1 0 .097 2.492 1.245 1.245 0 0 0-.097-2.492m-44.873.184q-.236 0-.467.06a1.805 1.805 0 1 0 .934 0q-.23-.06-.467-.06m25.441.705q-.2 0-.393.052a1.527 1.527 0 0 0 0 2.947 1.526 1.526 0 1 0 .393-3zm-19.48.89q-.236.001-.467.065a1.802 1.802 0 1 0 2.209 2.207 1.8 1.8 0 0 0-1.275-2.207 1.8 1.8 0 0 0-.467-.065M40 27.61q-.2 0-.395.053A1.524 1.524 0 1 0 40 27.61m-19.48.891q-.235.001-.465.064a1.79 1.79 0 0 0-1.275 1.272 1.806 1.806 0 0 0 1.275 2.21c.96.256 1.95-.314 2.207-1.276a1.8 1.8 0 0 0-1.273-2.206 1.8 1.8 0 0 0-.469-.064m25.441.707q-.2 0-.393.05a1.525 1.525 0 1 0 .393-.05m-19.48.89q-.236 0-.467.063a1.803 1.803 0 1 0 .467-.062m25.443.708q-.201 0-.396.05a1.528 1.528 0 0 0 0 2.947 1.527 1.527 0 0 0 .79-2.947 1.6 1.6 0 0 0-.394-.05M6.93 31a2 2 0 0 0-.203.02v4.101a2.084 2.084 0 0 0 2.285-1.512 2.083 2.083 0 0 0-1.47-2.548 2.1 2.1 0 0 0-.612-.06m25.512.697q-.235 0-.465.063a1.803 1.803 0 1 0 .465-.062m24.832.848a1.53 1.53 0 0 0-.861.988c-.19.73.186 1.48.861 1.778zm-44.312.045a2 2 0 0 0-.54.068 2.081 2.081 0 1 0 .539-.068m25.443.705q-.236 0-.467.062a1.803 1.803 0 1 0 .467-.062m-19.48.89q-.273 0-.54.07a2.081 2.081 0 1 0 .54-.07m25.441.708q-.237 0-.467.062a1.8 1.8 0 0 0-1.275 1.272 1.81 1.81 0 0 0 1.275 2.21 1.804 1.804 0 1 0 .467-3.544m-19.48.89a2.076 2.076 0 0 0-2.012 1.543 2.08 2.08 0 1 0 4.022 1.074 2.082 2.082 0 0 0-2.01-2.617m25.441.707q-.236 0-.467.06a1.803 1.803 0 1 0 .467-.06m-43.6.582v3.844c.457-.298.8-.745.967-1.268a2.37 2.37 0 0 0-.967-2.576m24.119.309a2 2 0 0 0-.54.068 2.08 2.08 0 0 0 0 4.022 2.083 2.083 0 0 0 1.078-4.022 2 2 0 0 0-.538-.068m25.441.707q-.237 0-.467.06a1.803 1.803 0 0 0 0 3.482 1.8 1.8 0 0 0 1.453-.267v-2.978a1.8 1.8 0 0 0-.986-.297m-44.922.172q-.312 0-.615.08a2.371 2.371 0 0 0 0 4.582 2.373 2.373 0 0 0 2.906-1.678 2.375 2.375 0 0 0-2.291-2.984m25.441.719q-.273 0-.54.068a2.09 2.09 0 0 0-1.47 1.473 2.08 2.08 0 1 0 2.01-1.541m-19.48.878a2.37 2.37 0 0 0-2.291 1.758 2.37 2.37 0 1 0 4.58 1.227 2.37 2.37 0 0 0-2.289-2.985m25.441.717q-.27 0-.537.072a2.08 2.08 0 0 0-1.475 1.471 2.081 2.081 0 1 0 2.012-1.543m-19.48.881q-.31 0-.613.08a2.372 2.372 0 1 0 .613-.08m25.441.717q-.273 0-.54.072a2.08 2.08 0 1 0 .539-.072zm-19.48.879a2.364 2.364 0 0 0-2.291 1.758 2.372 2.372 0 1 0 2.291-1.758m25.441.719q-.27 0-.537.07a2.078 2.078 0 0 0 0 4.02 2.08 2.08 0 1 0 1.074-4.02 2 2 0 0 0-.537-.07m-44.922.171a2.65 2.65 0 0 0-2.559 1.963 2.65 2.65 0 1 0 2.559-1.963m25.441.707q-.31 0-.613.08a2.371 2.371 0 1 0 .613-.08m-19.482.891q-.346 0-.686.09a2.65 2.65 0 0 0-1.873 1.873 2.654 2.654 0 0 0 1.873 3.248 2.654 2.654 0 0 0 3.248-1.873 2.652 2.652 0 0 0-2.562-3.338m25.445.707a2.4 2.4 0 0 0-.615.082A2.36 2.36 0 0 0 38.878 48a2.372 2.372 0 1 0 2.293-1.756zm-19.482.89q-.346 0-.686.09a2.65 2.65 0 1 0 .686-.09m25.441.708q-.31 0-.613.082a2.37 2.37 0 0 0 0 4.578 2.37 2.37 0 1 0 .613-4.66m-19.48.888a2.65 2.65 0 0 0-2.559 1.965 2.65 2.65 0 1 0 5.12 1.373 2.652 2.652 0 0 0-2.561-3.337zm25.441.707q-.31 0-.613.082a2.37 2.37 0 0 0-1.676 1.676 2.37 2.37 0 0 0 1.676 2.905c.356.096.716.105 1.056.04a11.7 11.7 0 0 0 1.93-2.324 2.37 2.37 0 0 0-2.373-2.379m-44.885.186a3 3 0 0 0-.725.082 11.7 11.7 0 0 0 3.084 4.53 2.928 2.928 0 0 0-2.36-4.611m25.404.705q-.346 0-.686.09a2.66 2.66 0 0 0-1.875 1.873 2.65 2.65 0 1 0 2.56-1.963m-19.48.893q-.384 0-.758.1a2.926 2.926 0 0 0-2.09 3.513 11.7 11.7 0 0 0 4 2.006 2.926 2.926 0 0 0-1.152-5.62m25.441.705a2.652 2.652 0 0 0-.686 5.21 2.653 2.653 0 0 0 3.247-1.872 2.65 2.65 0 0 0-2.561-3.338m-19.48.892q-.384 0-.758.1a2.93 2.93 0 0 0-2.07 2.07 2.93 2.93 0 0 0 .422 2.26q.384.025.775.025h4.026a3 3 0 0 0 .433-.77 2.927 2.927 0 0 0-2.828-3.685m25.441.705q-.346 0-.684.09c-.915.244-1.63.96-1.877 1.875a2.66 2.66 0 0 0 .24 1.785h2.327c.851 0 1.681-.09 2.48-.261q.04-.074.075-.153a2.65 2.65 0 0 0-2.561-3.336m-19.48.893q-.384 0-.758.1a2.92 2.92 0 0 0-2.07 2.068q-.045.344-.006.69h5.75a2.925 2.925 0 0 0-2.156-2.758 3 3 0 0 0-.76-.1m25.441.703q-.346 0-.686.09a2.65 2.65 0 0 0-1.755 1.533 11.7 11.7 0 0 0 3.144-1.527q-.007-.004-.016-.006a2.7 2.7 0 0 0-.687-.09m-19.48.893q-.383 0-.756.1a2.94 2.94 0 0 0-1.543 1.161h4.701a2.93 2.93 0 0 0-2.402-1.261"/></svg>