<svg xmlns="http://www.w3.org/2000/svg" xmlns:xlink="http://www.w3.org/1999/xlink" width="64" height="64" image-rendering="optimizeSpeed"><defs><pattern xlink:href="#a" id="i" patternTransform="translate(-2.548 33.907)" preserveAspectRatio="xMidYMid"/><pattern xlink:href="#b" id="c" preserveAspectRatio="xMidYMid"/><pattern id="b" width="71.298" height="29.497" patternTransform="translate(-2.548 33.907)" patternUnits="userSpaceOnUse" preserveAspectRatio="xMidYMid"><rect width="71.298" height="29.497" rx="0" ry="0" style="fill:#ff0;fill-opacity:1;stroke:#000;stroke-width:0"/></pattern><pattern id="a" width="71.298" height="29.497" patternTransform="translate(-2.548 33.907)" patternUnits="userSpaceOnUse" preserveAspectRatio="xMidYMid"><path d="M0 0h71.298v29.497H0z" style="fill:url(#c);stroke:none"/></pattern><pattern xlink:href="#d" id="k" width="4.2" x="0" y="4" patternTransform="rotate(-45)scale(3.195)" preserveAspectRatio="xMidYMid"/><pattern id="d" width="3" height="10" x="0" y="0" patternTransform="scale(2)" patternUnits="userSpaceOnUse" preserveAspectRatio="xMidYMid" style="fill:#000"><path d="M0 0h2v10H0z" style="stroke:none"/></pattern><linearGradient id="e"><stop offset="0" style="stop-color:#747474;stop-opacity:1"/><stop offset="1" style="stop-color:#c4c4c4;stop-opacity:1"/></linearGradient><linearGradient id="f" x1="29.611" x2="29.611" y1="58.045" y2="7.188" gradientTransform="matrix(1.001 .00649 -.00262 .4055 .242 69.708)" gradientUnits="userSpaceOnUse"><stop offset="0" stop-color="#90193a" style="stop-color:#fafafa;stop-opacity:1"/><stop offset="1" stop-color="#dd3f80" style="stop-color:#d8d8d8;stop-opacity:1"/></linearGradient><linearGradient xlink:href="#e" id="l" x1="34.481" x2="34.481" y1="38.841" y2="8.53" gradientUnits="userSpaceOnUse"/><clipPath id="h" clipPathUnits="userSpaceOnUse"><path d="M-1.001-1.001h66.002v66.002H-1.001ZM13.763 3.42a9.784 9.784 0 0 0-9.814 9.797V36.18a9.784 9.784 0 0 0 9.814 9.796h36.474a9.784 9.784 0 0 0 9.814-9.796V13.217a9.784 9.784 0 0 0-9.814-9.797z" class="powerclip" style="display:block;fill:#000;fill-opacity:.287744;stroke:#000;stroke-width:0;stroke-dasharray:none"/></clipPath><clipPath id="j" clipPathUnits="userSpaceOnUse"><path d="M-1.001-1.001h66.002v66.002H-1.001ZM13.763 3.42a9.784 9.784 0 0 0-9.814 9.797V36.18a9.784 9.784 0 0 0 9.814 9.796h36.474a9.784 9.784 0 0 0 9.814-9.796V13.217a9.784 9.784 0 0 0-9.814-9.797z" class="powerclip" style="display:block;fill:#000;fill-opacity:.287744;stroke:#000;stroke-width:0;stroke-dasharray:none"/></clipPath><filter id="n" width="1.135" height="1.887" x="-.067" y="-.367" style="color-interpolation-filters:sRGB"><feFlood flood-color="#000" flood-opacity=".251" result="flood"/><feGaussianBlur in="SourceGraphic" result="blur" stdDeviation="1"/><feOffset dy="1" in="blur" result="offset"/><feComposite in="flood" in2="offset" operator="in" result="comp1"/><feComposite in="SourceGraphic" in2="comp1" result="comp2"/></filter><filter id="m" width="1.255" height="1.439" x="-.127" y="-.199" style="color-interpolation-filters:sRGB"><feFlood flood-color="#000" flood-opacity=".286" result="flood"/><feGaussianBlur in="SourceGraphic" result="blur" stdDeviation="2"/><feOffset dy="1" in="blur" result="offset"/><feComposite in="flood" in2="offset" operator="in" result="comp1"/><feComposite in="SourceGraphic" in2="comp1" result="comp2"/></filter><radialGradient xlink:href="#f" id="g" cx="2.795" cy="18.815" r="28.001" fx="2.795" fy="18.815" gradientTransform="rotate(52.475 32.97 37.49)scale(1.85444 1.63859)" gradientUnits="userSpaceOnUse"/></defs><rect width="56.002" height="56.002" x="4" y="3.969" fill="url(#f)" rx="13.002" ry="13.002" style="display:inline;fill:url(#g)"/><g fill="url(#f)"><path d="M17.001 3.999h29.998a12.974 12.974 0 0 1 13.002 13.002v29.998a12.974 12.974 0 0 1-13.002 13.002H17.001A12.974 12.974 0 0 1 3.999 46.999V17.001A12.974 12.974 0 0 1 17.001 3.999" clip-path="url(#h)" style="display:inline;fill:url(#i);fill-opacity:1"/><path d="M17.001 3.999h29.998a12.974 12.974 0 0 1 13.002 13.002v29.998a12.974 12.974 0 0 1-13.002 13.002H17.001A12.974 12.974 0 0 1 3.999 46.999V17.001A12.974 12.974 0 0 1 17.001 3.999" clip-path="url(#j)" style="display:inline;fill:url(#k);fill-opacity:1"/></g><rect width="37.721" height="24.17" x="13.14" y="9.884" rx="5.099" ry="5.099" style="fill:url(#l);stroke:#000;stroke-width:0;stroke-dasharray:none;filter:url(#m)"/><g fill-rule="evenodd"><path fill-opacity=".118" d="m28.806 30.369.708-.81h4.972l.708.81-.708.813h-4.972zm0 0"/><path fill="#141414" stroke="#000" stroke-linecap="round" stroke-linejoin="round" stroke-width=".26" d="m43.688 16.169 1.036-1.04h7.273l1.035 1.04-1.035 1.039h-7.273zm-.519.519 1.039 1.04v7.269l-1.04 1.04-1.038-1.04v-7.27zm10.383 0 1.039 1.04v7.269l-1.04 1.04-1.034-1.04v-7.27zm-9.864 9.868 1.036-1.04h7.273l1.035 1.04-1.035 1.039h-7.273zm9.864.519 1.039 1.035v7.274l-1.04 1.035-1.034-1.035V28.11zm-10.383 0 1.039 1.035v7.274l-1.04 1.035-1.038-1.035V28.11zm0 0" transform="matrix(.68364 0 0 .78262 -1.061 1.46)"/></g><g style="filter:url(#n)"><g transform="translate(14.504 .006)"><rect width="6.569" height="6.525" x="28.716" y="36.869" rx="2.165" ry="2.165" style="fill:#ff7800;fill-opacity:1;stroke:#000;stroke-width:0;stroke-dasharray:none"/><rect width="6.569" height="4.52" x="28.716" y="36.851" rx="2.165" ry="1.964" style="fill:#ffbe6f;fill-opacity:1;stroke:#000;stroke-width:0;stroke-dasharray:none"/></g><g transform="translate(0 .006)"><rect width="6.569" height="6.525" x="28.716" y="36.869" rx="2.165" ry="2.165" style="fill:#ff7800;fill-opacity:1;stroke:#000;stroke-width:0;stroke-dasharray:none"/><rect width="6.569" height="4.52" x="28.716" y="36.851" rx="2.165" ry="1.964" style="fill:#ffbe6f;fill-opacity:1;stroke:#000;stroke-width:0;stroke-dasharray:none"/></g><g transform="translate(-14.504 .006)"><rect width="6.569" height="6.525" x="28.716" y="36.869" rx="2.165" ry="2.165" style="fill:#ff7800;fill-opacity:1;stroke:#000;stroke-width:0;stroke-dasharray:none"/><rect width="6.569" height="4.52" x="28.716" y="36.851" rx="2.165" ry="1.964" style="fill:#ffbe6f;fill-opacity:1;stroke:#000;stroke-width:0;stroke-dasharray:none"/></g></g></svg>