<svg xmlns="http://www.w3.org/2000/svg" viewBox="0 0 64 64"><defs><linearGradient id="a" x1="22.42" x2="37.298" y1="32" y2="32" gradientTransform="translate(-35.267 -23.047)scale(1.7514)" gradientUnits="userSpaceOnUse"><stop offset="0" stop-color="#595959"/><stop offset="1" stop-color="#dadada"/></linearGradient></defs><rect width="56.002" height="56.002" x="4" y="3.969" fill="#4d4d4d" rx="13.002" ry="13.002"/><path fill="url(#a)" d="m40.187 4.998-9.59.02-4.795.007-9.195-.007A12.964 12.964 0 0 0 4 18v29.998C4 55.2 9.8 61 17.004 61h12.188l-.336-.176a488 488 0 0 0-1.78-.93c-.795-.413-1.555-.826-1.687-.916a2.3 2.3 0 0 0-.388-.215c-.08-.029-.823-.51-1.655-1.068s-1.875-1.317-2.316-1.686c-.44-.37-.998-.882-1.238-1.142s-.548-.624-.686-.809a8 8 0 0 1-.484-.771 6 6 0 0 1-.36-.834l-.13-.403.046-.513.045-.516.217-.473.22-.474.495-.496c.273-.273.811-.7 1.195-.95.383-.249 1.119-.667 1.637-.927s1.247-.61 1.619-.778c.37-.169.996-.461 1.39-.65a28 28 0 0 0 1.401-.732 15 15 0 0 0 1.162-.743c.265-.195.69-.576.945-.851.256-.274.549-.69.65-.922a3.7 3.7 0 0 0 .245-.84l.057-.418-.157-.545-.158-.547-.465-.66c-.256-.363-.791-.968-1.187-1.344a35 35 0 0 0-1.916-1.63 82 82 0 0 1-2.145-1.762c-.52-.448-1.175-1.092-1.453-1.43-.279-.337-.624-.85-.765-1.139l-.258-.525v-1.356l.244-.527.24-.525.457-.469a8 8 0 0 1 1.037-.86 15 15 0 0 1 1.254-.74c.37-.192.978-.486 1.35-.652a35 35 0 0 1 1.148-.49c.26-.104.673-.276.916-.385.243-.11.722-.332 1.067-.496s.975-.52 1.4-.791l.77-.496.5-.547.498-.547.2-.535.2-.533v-.416c0-.23-.047-.562-.104-.742a6 6 0 0 0-.216-.57 9 9 0 0 0-.485-.81l-.377-.568-1.7-1.748-1.698-1.75-.45-.672c-.245-.37-.52-.902-.613-1.183l-.166-.51.055-.459c.03-.253.168-.717.312-1.031l.264-.57 1.258-1.305.861-.59a21 21 0 0 1 1.791-1.07 33 33 0 0 1 2.186-.994c.69-.281 1.775-.687 2.41-.897a99 99 0 0 1 2.008-.639c.47-.14 1.251-.358 1.736-.484z" style="fill:#9b9b9b;fill-opacity:1" transform="translate(-.001 -1)"/><rect width="7.379" height="4.56" x="48.933" y="29.72" rx="1.281" ry="1.281" style="paint-order:fill markers stroke"/><rect width="7.379" height="4.56" x="48.933" y="11.479" rx="1.281" ry="1.281" style="paint-order:fill markers stroke"/><rect width="7.379" height="4.56" x="48.933" y="38.84" rx="1.281" ry="1.281" style="paint-order:fill markers stroke"/><rect width="7.379" height="4.56" x="48.933" y="47.961" rx="1.281" ry="1.281" style="paint-order:fill markers stroke"/><rect width="7.379" height="4.56" x="48.933" y="20.599" rx="1.281" ry="1.281" style="paint-order:fill markers stroke"/><rect width="7.379" height="4.56" x="7.623" y="29.72" rx="1.281" ry="1.281" style="paint-order:fill markers stroke"/><rect width="7.379" height="4.56" x="7.623" y="11.479" rx="1.281" ry="1.281" style="paint-order:fill markers stroke"/><rect width="7.379" height="4.56" x="7.623" y="38.84" rx="1.281" ry="1.281" style="paint-order:fill markers stroke"/><rect width="7.379" height="4.56" x="7.623" y="47.961" rx="1.281" ry="1.281" style="paint-order:fill markers stroke"/><rect width="7.379" height="4.56" x="7.623" y="20.599" rx="1.281" ry="1.281" style="paint-order:fill markers stroke"/><path d="M3.998 45.998v1c0 7.203 5.8 13.004 13.004 13.004h29.996c7.203 0 13.004-5.8 13.004-13.004v-1c0 7.203-5.8 13.002-13.004 13.002H17.002A12.975 12.975 0 0 1 3.998 45.998" opacity=".35"/><path fill="#fff" d="M3.998 18.004v-1C3.998 9.801 9.798 4 17.002 4h29.996c7.203 0 13.004 5.8 13.004 13.004v1c0-7.203-5.8-13.002-13.004-13.002H17.002A12.975 12.975 0 0 0 3.998 18.004" opacity=".15"/></svg>