<svg xmlns="http://www.w3.org/2000/svg" viewBox="0 0 64 64"><defs><linearGradient id="a" x1="7.937" x2="7.937" y1="15.081" y2="1.852" gradientTransform="scale(3.7796)" gradientUnits="userSpaceOnUse"><stop offset="0" stop-color="#f54800" style="stop-color:#fb2e2e;stop-opacity:1"/><stop offset="1" stop-color="#ffb200" style="stop-color:#fb7878;stop-opacity:1"/></linearGradient></defs><rect width="56.002" height="56.002" x="4" y="3.969" fill="url(#a)" rx="13.002" ry="13.002" style="fill:#fb5757;fill-opacity:1"/><path d="M64 24v40l34.64-20Zm0 40L29.36 44v40L64 104Z" style="display:inline;fill:#fff;stroke:none;stroke-width:.1;stroke-linecap:square;stroke-linejoin:round" transform="translate(-5.22 -4.479)scale(.56998)"/><path d="M83.721 65.11c-.89.514-1.78 1.944-1.78 2.861v2.75l-6.226 3.596c-.493.284-.89.922-.89 1.43v1.834c0 .508.397.687.89.403l2.669-1.54v17.418c0 .917.89 1.32 1.779.806l16.012-9.244c.89-.514 1.78-1.944 1.78-2.861V65.144l2.668-1.54c.493-.285.89-.923.89-1.431v-1.834c0-.508-.397-.687-.89-.403l-6.227 3.595v-2.75c0-.917-.89-1.32-1.78-.807zm1.78 1.724 5.337-3.082c.446-.258.89-.052.89.403v.917l-7.117 4.109v-.917c0-.46.445-1.174.89-1.43m-3.56 7.555 12.455-7.19v15.585l-12.454 7.19Zm4.004.439c-.74.427-1.334 1.384-1.334 2.145v7.335c0 .762.595 1.031 1.334.605.74-.427 1.334-1.384 1.334-2.146v-7.334c0-.762-.595-1.032-1.334-.605m4.448-2.568c-.74.427-1.335 1.384-1.335 2.146v7.334c0 .762.596 1.031 1.335.605.739-.427 1.334-1.384 1.334-2.146v-7.334c0-.762-.595-1.032-1.334-.605" style="display:inline;fill:#fff;stroke-width:.143847;stroke-linecap:square;stroke-linejoin:round" transform="translate(-5.22 -4.479)scale(.56998)"/><path d="M3.998 45.998v1c0 7.203 5.8 13.004 13.004 13.004h29.996c7.203 0 13.004-5.8 13.004-13.004v-1c0 7.203-5.8 13.002-13.004 13.002H17.002A12.975 12.975 0 0 1 3.998 45.998" opacity=".35" style="opacity:.15"/><path fill="#fff" d="M3.998 18.004v-1C3.998 9.801 9.798 4 17.002 4h29.996c7.203 0 13.004 5.8 13.004 13.004v1c0-7.203-5.8-13.002-13.004-13.002H17.002A12.975 12.975 0 0 0 3.998 18.004" opacity=".15"/></svg>