<svg xmlns="http://www.w3.org/2000/svg" viewBox="0 0 64 64"><rect width="56.002" height="56.002" x="4" y="3.969" fill="#f2f2f2" rx="13.002" ry="13.002"/><path d="M3.998 45.998v1c0 7.203 5.8 13.004 13.004 13.004h29.996c7.203 0 13.004-5.8 13.004-13.004v-1c0 7.203-5.8 13.002-13.004 13.002H17.002A12.975 12.975 0 0 1 3.998 45.998" opacity=".1"/><path fill="#fff" d="M3.998 18.004v-1C3.998 9.801 9.798 4 17.002 4h29.996c7.203 0 13.004 5.8 13.004 13.004v1c0-7.203-5.8-13.002-13.004-13.002H17.002A12.975 12.975 0 0 0 3.998 18.004" opacity=".5"/><path fill="#00d9ff" d="M20.35 11.002a.74.74 0 0 0-.75.545L15.31 27.52v.002a.74.74 0 0 0 .525.902l12.29 3.233a.736.736 0 0 0 .899-.507l.019-.061.77-2.877 3.012.807.03.004 15.977 4.071.003.002a.74.74 0 0 0 .902-.528l3.238-12.066.001-.004a.74.74 0 0 0-.527-.903l-31.953-8.573A1 1 0 0 0 20.35 11z"/><path fill="#00a0fd" d="M15.016 30.883a.74.74 0 0 0-.756.551l-3.234 12.075-.002.002a.74.74 0 0 0 .528.902l31.954 8.562h.001a.74.74 0 0 0 .902-.525l4.278-15.968.001-.004a.74.74 0 0 0-.527-.901l-12.283-3.236a.74.74 0 0 0-.9.513v.001l-.029.088-.761 2.844-2.875-.77q-.085-.017-.171-.04l-15.976-4.07h-.002a1 1 0 0 0-.148-.023z"/></svg>