<svg xmlns="http://www.w3.org/2000/svg" viewBox="0 0 64 64"><rect width="56.002" height="56.002" x="4" y="3.969" fill="#f2f2f2" rx="13.002" ry="13.002"/><path d="M3.998 45.998v1c0 7.203 5.8 13.004 13.004 13.004h29.996c7.203 0 13.004-5.8 13.004-13.004v-1c0 7.203-5.8 13.002-13.004 13.002H17.002A12.975 12.975 0 0 1 3.998 45.998" opacity=".1"/><path fill="#fff" d="M3.998 18.004v-1C3.998 9.801 9.798 4 17.002 4h29.996c7.203 0 13.004 5.8 13.004 13.004v1c0-7.203-5.8-13.002-13.004-13.002H17.002A12.975 12.975 0 0 0 3.998 18.004" opacity=".5"/><g stroke-linejoin="round" stroke-miterlimit="1.414" stroke-width=".55" clip-rule="evenodd"><path fill="#70caf2" d="M49.201 33.165a11.67 11.67 0 0 0-5.005-4.672 12.8 12.8 0 0 1-1.494 4.039l-1.174 2.037a5.1 5.1 0 0 1 1.942 1.904 5.107 5.107 0 0 1-8.845 5.107l-2.368-4.096h-3.82l-1.912 3.31 2.37 4.094c3.238 5.607 10.409 7.528 16.015 4.29 5.606-3.236 7.528-10.405 4.29-16.013"/><path fill="#b4e3f9" d="M37.459 15.968c-5.608-3.237-12.777-1.317-16.014 4.29a11.66 11.66 0 0 0-1.544 6.671 12.8 12.8 0 0 1 4.245-.725l2.35-.003a5.1 5.1 0 0 1 .678-2.633 5.106 5.106 0 0 1 8.845 5.106l-2.363 4.098 1.91 3.31h3.821l2.362-4.1c3.238-5.606 1.317-12.776-4.29-16.014"/><path fill="#3f79ad" d="m27.944 45.438-1.177-2.035a5.1 5.1 0 0 1-2.62.73 5.106 5.106 0 1 1 0-10.213l4.73-.004 1.911-3.308-1.912-3.31-4.73.005c-6.474 0-11.723 5.249-11.723 11.723s5.248 11.723 11.723 11.723a11.67 11.67 0 0 0 6.546-1.997 12.8 12.8 0 0 1-2.748-3.316"/></g></svg>