<svg xmlns="http://www.w3.org/2000/svg" viewBox="0 0 64 64"><defs><linearGradient id="a" x1="10.144" x2="10.144" y1=".9" y2="15.196" gradientTransform="translate(0 .032)scale(3.7795)" gradientUnits="userSpaceOnUse"><stop offset="0" stop-color="#1fe0aa"/><stop offset="1" stop-color="#029499"/></linearGradient></defs><rect width="56" height="56" x="4" y="4" fill="url(#a)" rx="13.002" ry="13.002" style="fill:#10b8a1;fill-opacity:1"/><path fill="#fff" d="m24.598 13.18-5.195 3 4.715 8.164A11 11 0 0 0 21.427 29H12v6h9.42a11 11 0 0 0 2.692 4.666l-4.71 8.155 5.196 3 4.717-8.168A11 11 0 0 0 32 43a11 11 0 0 0 2.69-.343l4.713 8.164 5.195-3-4.715-8.164A11 11 0 0 0 42.573 35H52v-6h-9.42a11 11 0 0 0-2.691-4.666l4.709-8.154-5.195-3-4.717 8.168A11 11 0 0 0 32 21a11 11 0 0 0-2.69.344zM32 25a7 7 0 0 1 7 7 7 7 0 0 1-7 7 7 7 0 0 1-7-7 7 7 0 0 1 7-7"/><path d="M3.998 45.998v1c0 7.203 5.8 13.004 13.004 13.004h29.996c7.203 0 13.004-5.8 13.004-13.004v-1c0 7.203-5.8 13.002-13.004 13.002H17.002A12.975 12.975 0 0 1 3.998 45.998" opacity=".15"/><path fill="#fff" d="M3.998 18.004v-1C3.998 9.801 9.798 4 17.002 4h29.996c7.203 0 13.004 5.8 13.004 13.004v1c0-7.203-5.8-13.002-13.004-13.002H17.002A12.975 12.975 0 0 0 3.998 18.004" opacity=".15"/></svg>