<svg xmlns="http://www.w3.org/2000/svg" viewBox="0 0 64 64"><rect width="56.002" height="56.002" x="4" y="3.969" fill="#1e3d4c" rx="13.002" ry="13.002"/><path d="M3.998 45.998v1c0 7.203 5.8 13.004 13.004 13.004h29.996c7.203 0 13.004-5.8 13.004-13.004v-1c0 7.203-5.8 13.002-13.004 13.002H17.002A12.975 12.975 0 0 1 3.998 45.998" opacity=".35"/><path fill="#fff" d="M3.998 18.004v-1C3.998 9.801 9.798 4 17.002 4h29.996c7.203 0 13.004 5.8 13.004 13.004v1c0-7.203-5.8-13.002-13.004-13.002H17.002A12.975 12.975 0 0 0 3.998 18.004" opacity=".15"/><path fill="#f9f9f9" fill-rule="evenodd" d="M15.043 15.043c4.162 4.381 2.354 7.19 4.621 12.356 2.12 4.8 6.735 1.207 9.9 4.595-3.165 3.393-7.796-.214-9.916 4.58-2.282 5.167-.463 7.99-4.62 12.376 4.386-4.162 7.208-2.344 12.374-4.622 4.8-2.124 1.208-6.74 4.596-9.9 3.362 3.16-.21 7.797 4.58 9.916 5.167 2.288 7.968.444 12.356 4.61-4.162-4.386-2.323-7.194-4.61-12.36-2.12-4.784-6.741-1.227-9.9-4.591 3.159-3.368 7.78.193 9.9-4.595 2.287-5.167.443-7.973 4.61-12.361-4.386 4.167-7.19 2.328-12.356 4.616-4.79 2.114-1.218 6.75-4.58 9.91-3.394-3.16.198-7.775-4.596-9.9-5.166-2.282-7.988-.459-12.375-4.62"/></svg>