<svg xmlns="http://www.w3.org/2000/svg" xmlns:xlink="http://www.w3.org/1999/xlink" xml:space="preserve" width="64" height="64"><defs><linearGradient id="a" x1="7.937" x2="7.937" y1="15.081" y2="1.852" gradientTransform="scale(3.7796)" gradientUnits="userSpaceOnUse" spreadMethod="pad"><stop offset="0" stop-color="#ffc30d" style="stop-color:#fff;stop-opacity:1"/><stop offset="1" stop-color="#fff63f"/></linearGradient><linearGradient xlink:href="#a" id="b" x1="7.937" x2="7.937" y1="15.081" y2="1.852" gradientTransform="scale(3.7796)" gradientUnits="userSpaceOnUse"><stop offset="0" stop-color="#ffc30d" style="stop-color:#ff0;stop-opacity:1"/><stop offset="1" stop-color="#fff63f"/></linearGradient><linearGradient xlink:href="#b" id="c" x1="7.937" x2="7.937" y1="15.081" y2="1.852" gradientTransform="scale(3.7796)" gradientUnits="userSpaceOnUse"/><linearGradient xlink:href="#b" id="d" x1="7.937" x2="7.937" y1="15.081" y2="1.852" gradientTransform="scale(3.7796)" gradientUnits="userSpaceOnUse"/><clipPath id="e" clipPathUnits="userSpaceOnUse"><rect width="56.002" height="56.002" x="4" y="3.969" fill="url(#b)" stroke-width="3.78" rx="13.002" ry="13.002" style="fill:url(#c)"/></clipPath></defs><rect width="56.002" height="56.002" x="4" y="3.969" fill="url(#b)" rx="13.002" ry="13.002" style="fill:url(#d)"/><g clip-path="url(#e)" style="display:inline"><g style="display:inline" transform="matrix(.61333 0 0 .52505 -50.109 206.477)"><rect width="3.024" height="29.542" x="88.222" y="-385.719" rx="0" ry="0" style="fill:#000;stroke:none;stroke-width:3.8627"/><rect width="3.024" height="29.542" x="114.709" y="-385.719" rx="0" ry="0" style="display:inline;fill:#000;stroke:none;stroke-width:3.8627"/><rect width="3.024" height="29.542" x="141.196" y="-385.719" rx="0" ry="0" style="display:inline;fill:#000;stroke:none;stroke-width:3.8627"/><rect width="3.024" height="29.542" x="176.512" y="-385.719" rx="0" ry="0" style="display:inline;fill:#000;stroke:none;stroke-width:3.8627"/><rect width="3.024" height="18.431" x="97.051" y="-385.719" rx="0" ry="0" style="display:inline;fill:#000;stroke:none;stroke-width:3.05103"/><rect width="3.024" height="18.431" x="123.538" y="-385.719" rx="0" ry="0" style="display:inline;fill:#000;stroke:none;stroke-width:3.05103"/><rect width="3.024" height="18.431" x="132.367" y="-385.719" rx="0" ry="0" style="display:inline;fill:#000;stroke:none;stroke-width:3.05103"/><rect width="3.024" height="18.431" x="150.025" y="-385.719" rx="0" ry="0" style="display:inline;fill:#000;stroke:none;stroke-width:3.05103"/><rect width="3.024" height="18.431" x="167.683" y="-385.719" rx="0" ry="0" style="display:inline;fill:#000;stroke:none;stroke-width:3.05103"/><rect width="3.024" height="18.431" x="158.854" y="-385.719" rx="0" ry="0" style="display:inline;fill:#000;stroke:none;stroke-width:3.05103"/><rect width="3.024" height="18.431" x="105.88" y="-385.719" rx="0" ry="0" style="display:inline;fill:#000;stroke:none;stroke-width:3.05103"/></g><g style="display:inline" transform="matrix(.61333 0 0 -.50203 -50.112 -133.67)"><rect width="3.024" height="29.542" x="88.222" y="-385.719" rx="0" ry="0" style="fill:#000;stroke:none;stroke-width:3.8627"/><rect width="3.024" height="29.542" x="114.709" y="-385.719" rx="0" ry="0" style="display:inline;fill:#000;stroke:none;stroke-width:3.8627"/><rect width="3.024" height="29.542" x="141.196" y="-385.719" rx="0" ry="0" style="display:inline;fill:#000;stroke:none;stroke-width:3.8627"/><rect width="3.024" height="29.542" x="176.512" y="-385.719" rx="0" ry="0" style="display:inline;fill:#000;stroke:none;stroke-width:3.8627"/><rect width="3.024" height="18.431" x="97.051" y="-385.719" rx="0" ry="0" style="display:inline;fill:#000;stroke:none;stroke-width:3.05103"/><rect width="3.024" height="18.431" x="123.538" y="-385.719" rx="0" ry="0" style="display:inline;fill:#000;stroke:none;stroke-width:3.05103"/><rect width="3.024" height="18.431" x="132.367" y="-385.719" rx="0" ry="0" style="display:inline;fill:#000;stroke:none;stroke-width:3.05103"/><rect width="3.024" height="18.431" x="150.025" y="-385.719" rx="0" ry="0" style="display:inline;fill:#000;stroke:none;stroke-width:3.05103"/><rect width="3.024" height="18.431" x="167.683" y="-385.719" rx="0" ry="0" style="display:inline;fill:#000;stroke:none;stroke-width:3.05103"/><rect width="3.024" height="18.431" x="158.854" y="-385.719" rx="0" ry="0" style="display:inline;fill:#000;stroke:none;stroke-width:3.05103"/><rect width="3.024" height="18.431" x="105.88" y="-385.719" rx="0" ry="0" style="display:inline;fill:#000;stroke:none;stroke-width:3.05103"/></g></g></svg>