<svg xmlns="http://www.w3.org/2000/svg" viewBox="0 0 64 64"><rect width="56.002" height="56.002" x="4" y="3.969" fill="#c665ea" rx="13.002" ry="13.002"/><path fill="#fff" d="M47.881 17.006c-.913-.043-3.487.261-7.508 3.059-2.25-.679-4.817-.929-7.494-.922-2.449.006-4.987.205-7.455.922-4.022-2.798-6.078-3.1-6.992-3.057-.305.014-.451.06-.451.06-1.53 3.967-.563 6.9-.274 7.63-1.796 2.013-2.85 4.584-2.85 7.73 0 11.044 7.156 13.519 13.392 14.246-.802.72-1.306 2.209-1.56 4.07-1.6.738-5.893 2.543-8.397-1.861 0 0-1.483-2.767-4.301-2.97 0 0-2.74-.036-.19 1.751 0 0 1.84.887 3.118 4.217 0 0 1.898 5.067 9.709 3.326.005 1.02.01 2.95.015 4.764h13.928c.007-2.78.014-5.9.014-7.982 0-2.688-1.11-4.446-2.117-5.336 6.254-.713 12.82-3.153 12.82-14.225 0-3.146-.875-5.72-2.674-7.733.288-.729 1.253-3.66-.28-7.627 0 0-.146-.048-.45-.062z"/><path d="M3.998 45.998v1c0 7.203 5.8 13.004 13.004 13.004h29.996c7.203 0 13.004-5.8 13.004-13.004v-1c0 7.203-5.8 13.002-13.004 13.002H17.002A12.975 12.975 0 0 1 3.998 45.998" opacity=".15"/><path fill="#fff" d="M3.998 18.004v-1C3.998 9.801 9.798 4 17.002 4h29.996c7.203 0 13.004 5.8 13.004 13.004v1c0-7.203-5.8-13.002-13.004-13.002H17.002A12.975 12.975 0 0 0 3.998 18.004" opacity=".15"/></svg>