<svg xmlns="http://www.w3.org/2000/svg" viewBox="0 0 16.933 16.933"><rect width="14.817" height="14.817" x="1.058" y="1.05" fill="#8ae234" rx="3.44" ry="3.44"/><rect width="13.229" height="13.229" x="1.852" y="1.852" rx="2.646" ry="2.646"/><path d="M1.058 12.17v.265a3.433 3.433 0 0 0 3.44 3.44h7.937a3.433 3.433 0 0 0 3.44-3.44v-.265a3.433 3.433 0 0 1-3.44 3.44H4.498a3.433 3.433 0 0 1-3.44-3.44" opacity=".1"/><path fill="#fff" d="M1.058 4.763V4.5a3.433 3.433 0 0 1 3.44-3.44h7.937a3.433 3.433 0 0 1 3.44 3.44v.265a3.433 3.433 0 0 0-3.44-3.44H4.498a3.433 3.433 0 0 0-3.44 3.44z" opacity=".5"/><path fill="none" stroke="#8ae234" stroke-linecap="round" stroke-width=".688" d="M1.931 12.594h1.72l2.752-8.255h4.127l2.752 8.255h1.72"/><path fill="none" stroke="#8ae234" stroke-width=".488" d="M4.559 1.588v13.757M8.467 1.588v13.758m3.907-13.758v13.758M1.587 4.557h13.758M1.587 8.466h13.758M1.587 12.374h13.758" opacity=".5"/></svg>