<svg xmlns="http://www.w3.org/2000/svg" viewBox="0 0 64 64"><defs><linearGradient id="a" x1="7.937" x2="7.937" y1="15.081" y2="1.852" gradientTransform="scale(3.7796)" gradientUnits="userSpaceOnUse"><stop offset="0" stop-color="#f54800"/><stop offset="1" stop-color="#ffb200"/></linearGradient></defs><rect width="56.002" height="56.002" x="4" y="3.969" fill="url(#a)" rx="13.002" ry="13.002" style="fill:#fa7f00;fill-opacity:1"/><path fill="#fff" d="M16.241 13.613a5.243 5.243 0 0 0-5.254 5.254v18.387a5.24 5.24 0 0 0 5.254 5.252h5.252a5.24 5.24 0 0 0 5.254-5.252V18.867a5.243 5.243 0 0 0-5.254-5.254zm18.385 0c-.892 0-1.766.07-2.625.195v10.758a8 8 0 0 1 2.625-.445c4.412 0 7.88 3.467 7.88 7.879s-3.468 7.879-7.88 7.879a8 8 0 0 1-2.625-.446v10.758c.86.126 1.733.196 2.625.196 10.096 0 18.387-8.291 18.387-18.387s-8.291-18.387-18.387-18.387m0 13.133a5.2 5.2 0 0 0-2.625.715V32a2.605 2.605 0 0 1 2.625-2.627c1.467 0 2.627 1.16 2.627 2.627s-1.16 2.627-2.627 2.627A2.605 2.605 0 0 1 32.001 32v4.539a5.2 5.2 0 0 0 2.625.715c2.883 0 5.254-2.371 5.254-5.254s-2.371-5.254-5.254-5.254M13.614 45.133v5.254H24.12v-5.254z"/><path d="M3.998 45.998v1c0 7.203 5.8 13.004 13.004 13.004h29.996c7.203 0 13.004-5.8 13.004-13.004v-1c0 7.203-5.8 13.002-13.004 13.002H17.002A12.975 12.975 0 0 1 3.998 45.998" opacity=".15"/><path fill="#fff" d="M3.998 18.004v-1C3.998 9.801 9.798 4 17.002 4h29.996c7.203 0 13.004 5.8 13.004 13.004v1c0-7.203-5.8-13.002-13.004-13.002H17.002A12.975 12.975 0 0 0 3.998 18.004" opacity=".15"/></svg>