<svg xmlns="http://www.w3.org/2000/svg" width="64" height="64" viewBox="0 0 16.933 16.933"><defs><linearGradient id="b" x1="7.951" x2="8.021" y1="283.43" y2="293.65" gradientTransform="translate(-.109 -283.9)scale(1.0128)" gradientUnits="userSpaceOnUse"><stop offset="0" stop-color="#fff"/><stop offset="1" stop-color="#e4f0e9"/></linearGradient><linearGradient id="a" x1="7.194" x2="7.194" y1="15.375" y2="1.745" gradientUnits="userSpaceOnUse"><stop offset="0" stop-color="#39d38a"/><stop offset="1" stop-color="#0cded4" stop-opacity=".953"/></linearGradient></defs><rect width="14.817" height="14.817" x="1.058" y="1.05" fill="url(#a)" rx="3.44" ry="3.44"/><path fill="url(#b)" d="M11.454 3.643c-1.852 0-2.199 2.813-1.157 2.813s3.01-2.813 1.157-2.813m-2.94.319c-1.059.15-.687 2.144-.122 2.182.563.037 1.182-2.33.122-2.182m-1.916.62a.7.7 0 0 0-.174.044c-.991.377-.15 1.93.405 1.826.52-.099.58-1.949-.23-1.869zm-1.303 1.25a.53.53 0 0 0-.287.082c-.815.48.275 1.641.754 1.462.42-.159.152-1.527-.467-1.546zm3.802.938c-1.459-.027-3.384.74-3.712 2.277-.356 1.665 1.463 3.975 3.362 3.975.934 0 2.01-.883 2.212-2 .154-.853-1.936-.51-1.865.052.057.461-.184.7-.517.71-.454-.056-.675-.319-.736-.715-.081-1.04 3.194-1.781 2.935-3.393-.095-.59-.803-.89-1.68-.906z"/></svg>