<svg xmlns="http://www.w3.org/2000/svg" width="64" height="64"><defs><linearGradient id="a" x1="7.937" x2="7.937" y1="15.081" y2="1.852" gradientTransform="translate(0 .032)scale(3.7795)" gradientUnits="userSpaceOnUse"><stop offset="0" stop-color="#249a56"/><stop offset="1" stop-color="#34d07b"/></linearGradient><filter id="b" width="1.287" height="1.301" x="-.143" y="-.151" color-interpolation-filters="sRGB"><feGaussianBlur stdDeviation="2.511"/></filter></defs><rect width="56" height="56" x="4" y="4" fill="url(#a)" rx="13.002" ry="13.002"/><path d="m32 13.578-21 12v24l7 4 7-4v-8l-7-4v-8l14-8 14 8v8l-7 4v8l7 4 7-4v-24z" filter="url(#b)" opacity=".15"/><path fill="#fff" d="M32 12 11 24v24l7 4 7-4v-8l-7-4v-8l14-8 14 8v8l-7 4v8l7 4 7-4V24Z"/></svg>