<svg xmlns="http://www.w3.org/2000/svg" viewBox="0 0 64 64"><rect width="56" height="56" x="4" y="4" fill="#30c473" rx="13.002" ry="13.002"/><path fill="#fff" d="M32 13.905 13 24.762v21.714l6.333 3.619 6.334-3.619v-7.238l-6.334-3.62v-7.237L32 21.143l12.667 7.238v7.238l-6.333 3.619v7.238l6.333 3.619 6.334-3.619V24.762z"/><path d="M3.999 45.998V47A12.975 12.975 0 0 0 17 60.002h30A12.975 12.975 0 0 0 60.002 47v-1.002A12.975 12.975 0 0 1 47 59H17A12.975 12.975 0 0 1 4 45.998z" opacity=".15"/><path fill="#fff" d="M3.999 18.002v-.994A12.975 12.975 0 0 1 17 4.006h30a12.975 12.975 0 0 1 13.002 13.002v1.002A12.975 12.975 0 0 0 47 5.008H17A12.975 12.975 0 0 0 4 18.01z" opacity=".15"/></svg>