<svg xmlns="http://www.w3.org/2000/svg" xmlns:xlink="http://www.w3.org/1999/xlink" viewBox="0 0 64 64"><defs><linearGradient xlink:href="#a" id="t" x1="36.418" x2="21.723" y1="218.4" y2="218.4" gradientTransform="matrix(1.0208 0 0 .9305 -2.175 -109.41)"/><linearGradient id="a" gradientUnits="userSpaceOnUse"><stop offset="0" stop-color="#4fd2fd"/><stop offset="1" stop-color="#4fd2fd" stop-opacity="0"/></linearGradient><linearGradient xlink:href="#a" id="g" x1="93.539" x2="58.923" y1="240.42" y2="240.42" gradientTransform="matrix(.975 0 0 .98939 3.05 -170.32)"/><linearGradient xlink:href="#a" id="j" x1="36.418" x2="21.723" y1="218.4" y2="218.4" gradientTransform="matrix(1.0208 0 0 .9305 -2.175 -157.41)"/><linearGradient xlink:href="#a" id="m" x1="36.418" x2="21.723" y1="218.4" y2="218.4" gradientTransform="matrix(1.0208 0 0 .9305 -2.175 -141.41)"/><linearGradient xlink:href="#a" id="p" x1="36.418" x2="21.723" y1="218.4" y2="218.4" gradientTransform="matrix(1.0208 0 0 .9305 -2.175 -125.41)"/><clipPath id="q"><path d="M0 0h192v152H0z"/></clipPath><clipPath id="n"><path d="M0 0h192v152H0z"/></clipPath><clipPath id="k"><path d="M0 0h192v152H0z"/></clipPath><clipPath id="h"><path d="M0 0h192v152H0z"/></clipPath><clipPath id="e"><path d="M0 0h192v152H0z"/></clipPath><clipPath id="c"><path d="M0 0h192v152H0z"/></clipPath><mask id="s"><g filter="url(#b)"><path fill-opacity=".236" d="M0 0h128v128H0z"/></g></mask><mask id="o"><g filter="url(#b)"><path fill-opacity=".236" d="M0 0h128v128H0z"/></g></mask><mask id="l"><g filter="url(#b)"><path fill-opacity=".236" d="M0 0h128v128H0z"/></g></mask><mask id="i"><g filter="url(#b)"><path fill-opacity=".236" d="M0 0h128v128H0z"/></g></mask><mask id="f"><g filter="url(#b)"><path fill-opacity=".236" d="M0 0h128v128H0z"/></g></mask><mask id="d"><g filter="url(#b)"><path fill-opacity=".02" d="M0 0h128v128H0z"/></g></mask><filter id="b" width="1" height="1" x="0" y="0"><feColorMatrix in="SourceGraphic" values="0 0 0 0 1 0 0 0 0 1 0 0 0 0 1 0 0 0 1 0"/></filter></defs><rect width="56.002" height="56.002" x="4" y="3.969" fill="#f2f2f2" rx="13.002" ry="13.002"/><path d="M3.998 45.998v1c0 7.203 5.8 13.004 13.004 13.004h29.996c7.203 0 13.004-5.8 13.004-13.004v-1c0 7.203-5.8 13.002-13.004 13.002H17.002A12.975 12.975 0 0 1 3.998 45.998" opacity=".1"/><path fill="#fff" d="M3.998 18.004v-1C3.998 9.801 9.798 4 17.002 4h29.996c7.203 0 13.004 5.8 13.004 13.004v1c0-7.203-5.8-13.002-13.004-13.002H17.002A12.975 12.975 0 0 0 3.998 18.004" opacity=".5"/><path fill="none" stroke="#241f31" stroke-linejoin="round" stroke-width="4" d="M28 21h27v18H28z"/><path fill="#241f31" d="M28 21h27v18H28z"/><g clip-path="url(#c)" mask="url(#d)" transform="matrix(.5 0 0 .5 -4 -12)"><path fill="#2e3436" d="M184 16h-16v16h16z"/></g><path fill="none" stroke="#241f31" stroke-linejoin="round" stroke-width="4" d="M28 15h27zM9 15h12v32H9z"/><path fill="#241f31" d="M9 15h12v32H9z"/><path fill="none" stroke="#241f31" stroke-linejoin="round" stroke-width="2" d="M27 44h29zm0 4h29z"/><g clip-path="url(#e)" mask="url(#f)" transform="matrix(.5 0 0 .5 -4 -12)"><path fill="none" stroke="#4fd2fd" stroke-miterlimit="10" stroke-width="2.308" d="M54.308 243.08h20.769l5.77-13.27 3.46 22.5 4.616-9.23h20.77" transform="matrix(.975 0 0 .98939 11.05 -154.32)"/></g><path fill="none" stroke="url(#g)" stroke-linecap="round" stroke-miterlimit="10" stroke-width="2.267" d="M57.527 70.176H76.25l5.625-13.129 3.375 22.262 4.5-9.133h3.375" transform="matrix(.5 0 0 .5 0 -4)"/><g clip-path="url(#h)" mask="url(#i)" transform="matrix(.5 0 0 .5 -4 -12)"><path fill="none" stroke="#4fd2fd" stroke-miterlimit="10" stroke-width=".98" d="M19.764 219.53h8.817l2.449-5.634 1.47 9.55 1.959-3.916h8.816" transform="matrix(1.0208 0 0 .9305 5.825 -141.41)"/></g><path fill="none" stroke="url(#j)" stroke-linecap="round" stroke-miterlimit="10" stroke-width=".955" d="M20.043 46.871H27l2.5-5.242 1.5 8.887 2-3.645h1.5" transform="matrix(.5 0 0 .5 0 -4)"/><g clip-path="url(#k)" mask="url(#l)" transform="matrix(.5 0 0 .5 -4 -12)"><path fill="none" stroke="#4fd2fd" stroke-miterlimit="10" stroke-width=".98" d="M19.764 219.53h8.817l2.449-5.634 1.47 9.55 1.959-3.916h8.816" transform="matrix(1.0208 0 0 .9305 5.825 -125.41)"/></g><path fill="none" stroke="url(#m)" stroke-linecap="round" stroke-miterlimit="10" stroke-width=".955" d="M20.043 62.871H27l2.5-5.242 1.5 8.887 2-3.645h1.5" transform="matrix(.5 0 0 .5 0 -4)"/><g clip-path="url(#n)" mask="url(#o)" transform="matrix(.5 0 0 .5 -4 -12)"><path fill="none" stroke="#4fd2fd" stroke-miterlimit="10" stroke-width=".98" d="M19.764 219.53h8.817l2.449-5.634 1.47 9.55 1.959-3.916h8.816" transform="matrix(1.0208 0 0 .9305 5.825 -109.41)"/></g><path fill="none" stroke="url(#p)" stroke-linecap="round" stroke-miterlimit="10" stroke-width=".955" d="M20.043 78.871H27l2.5-5.242 1.5 8.886 2-3.644h1.5" transform="matrix(.5 0 0 .5 0 -4)"/><g clip-path="url(#q)" mask="url(#s)" transform="matrix(.5 0 0 .5 -4 -12)"><path fill="none" stroke="#4fd2fd" stroke-miterlimit="10" stroke-width=".98" d="M19.764 219.53h8.817l2.449-5.634 1.47 9.55 1.959-3.916h8.816" transform="matrix(1.0208 0 0 .9305 5.825 -93.406)"/></g><path fill="none" stroke="url(#t)" stroke-linecap="round" stroke-miterlimit="10" stroke-width=".955" d="M20.043 94.871H27l2.5-5.242 1.5 8.886 2-3.644h1.5" transform="matrix(.5 0 0 .5 0 -4)"/></svg>