<svg xmlns="http://www.w3.org/2000/svg" xmlns:xlink="http://www.w3.org/1999/xlink" xml:space="preserve" viewBox="0 0 64 64"><defs><linearGradient id="a"><stop offset="0" stop-color="#2a2c2f" stop-opacity=".25"/><stop offset="1" stop-color="#424649" stop-opacity=".25"/></linearGradient><linearGradient xlink:href="#a" id="c" x2="0" y1="536.8" y2="532.8" gradientTransform="translate(-714.88 -948.02)scale(1.8667)" gradientUnits="userSpaceOnUse"/><linearGradient xlink:href="#a" id="b" x2="0" y1="536.8" y2="532.8" gradientTransform="translate(-1833.2 -2466.2)scale(4.6669)" gradientUnits="userSpaceOnUse"/></defs><rect width="56.002" height="56.002" x="4" y="3.969" fill="#1eaef5" rx="13.002" ry="13.002"/><rect width="50" height="50" x="7" y="7" fill="#fff" opacity=".2" rx="10" ry="10"/><g stroke-linecap="square"><path fill="url(#b)" d="M17.495 20.333a9.334 9.334 0 1 0 0 18.667 9.334 9.334 0 0 0 0-18.667" transform="translate(1.007 -1.38)"/><path fill="#36393c" d="M50.168 25.623a2.334 2.334 0 0 0-2.334 2.334 2.334 2.334 0 0 0 2.333 2.333 2.334 2.334 0 0 0 2.333-2.333 2.334 2.334 0 0 0-2.333-2.334zm-6.225 4.526a2.334 2.334 0 0 0-2.334 2.334 2.334 2.334 0 0 0 2.334 2.334 2.334 2.334 0 0 0 2.334-2.334 2.334 2.334 0 0 0-2.334-2.334m-27.775-8.861v4.666h-4.666v4.666h4.667v4.668h4.667v-4.666h4.667v-4.668h-4.668v-4.666z"/><path fill="url(#c)" d="M25.394 46.554a3.733 3.733 0 0 0-3.734 3.734 3.733 3.733 0 0 0 3.734 3.733 3.733 3.733 0 0 0 3.733-3.733 3.733 3.733 0 0 0-3.733-3.734m11.2 0a3.733 3.733 0 0 0-3.734 3.734 3.733 3.733 0 0 0 3.734 3.733 3.733 3.733 0 0 0 3.733-3.733 3.733 3.733 0 0 0-3.733-3.734" transform="translate(1.007 -1.38)"/><path fill="#36393c" d="M26.401 47.041a1.867 1.867 0 0 0-1.867 1.867 1.867 1.867 0 0 0 1.867 1.866 1.867 1.867 0 0 0 1.866-1.866 1.867 1.867 0 0 0-1.866-1.867m11.2 0a1.867 1.867 0 0 0-1.867 1.867 1.867 1.867 0 0 0 1.867 1.866 1.867 1.867 0 0 0 1.866-1.866 1.867 1.867 0 0 0-1.866-1.867"/></g><path d="M3.999 45.998V47A12.975 12.975 0 0 0 17 60.002h30A12.975 12.975 0 0 0 60.002 47v-1.002A12.975 12.975 0 0 1 47 59H17A12.975 12.975 0 0 1 4 45.998z" opacity=".15"/><path fill="#fff" d="M3.999 18.002v-.994A12.975 12.975 0 0 1 17 4.006h30a12.975 12.975 0 0 1 13.002 13.002v1.002A12.975 12.975 0 0 0 47 5.008H17A12.975 12.975 0 0 0 4 18.01z" opacity=".15"/></svg>