<svg xmlns="http://www.w3.org/2000/svg" viewBox="0 0 64 64"><rect width="56.002" height="56.002" x="4" y="3.969" fill="#4d4d4d" rx="13.002" ry="13.002"/><path fill="#fff" d="m43.5 11.5-1.414 2.586L39.5 15.5l2.586 1.414L43.5 19.5l1.414-2.586L47.5 15.5l-2.586-1.414zm-6.504 1-.523.969L35.5 14l.973.531.523.969.531-.969L38.5 14l-.973-.531zM32 14c-9.925 0-18 8.075-18 18s8.075 18 18 18 18-8.075 18-18h-1.543c0 9.075-7.381 16.457-16.457 16.457S15.543 41.076 15.543 32 22.924 15.543 32 15.543zm16.504 4.5-1.066 1.941L45.5 21.5l1.938 1.059 1.066 1.941 1.059-1.941L51.5 21.5l-1.937-1.059zm.996 8-.707 1.293-1.293.707 1.293.707.707 1.293.707-1.293L51.5 28.5l-1.293-.707z"/><path fill="#149bf0" d="M31.91 31.905s-1.993-.367-3.75-.63c-1.757-.262-3.678.19-4.17.761-.492.57.649 1.652.905 2.085.255.433.118.492-.335.905-.377.345-1.911.534-2.407.587v.016l-.078-.008-.078.008v-.016c-.496-.053-2.03-.242-2.408-.587-.452-.413-.59-.472-.334-.905s1.396-1.514.905-2.085c-.3-.348-1.136-.652-2.14-.776q-.02.368-.02.74c0 7.732 6.268 14 14 14 .101 0 .201-.005.302-.007.415-1.55.956-4.21.005-4.868-1.364-.944-2.911.079-2.911.079s-1.101.603-1.652-.026c-.551-.63-.656-1.626-.604-2.308s.63-2.544 1.679-2.072 3.142.836 3.593.262c1.154-1.468-.502-5.155-.502-5.155"/><path fill="#d7f675" d="M31.91 31.905s7.347-2.188 7.766-.09c.42 2.098-2.203 2.203-.63 3.252 1.249.832 2.296.806 2.677.76v-.026s.029.007.078.015l.078-.015v.026c.381.046 1.428.072 2.676-.76 1.574-1.049-1.049-1.154-.63-3.252.136-.674.965-.907 2.028-.912C45.393 23.685 39.363 18 32 18q-.336.001-.669.017c-.31 1.21-.568 2.925.133 3.818.45.573 2.544.21 3.593-.263 1.05-.472 1.626 1.39 1.679 2.072.052.682-.053 1.679-.604 2.308-.55.63-1.652.026-1.652.026s-1.547-1.023-2.91-.079c-1.365.945.34 6.006.34 6.006"/><path fill="#fb5978" d="M19.255 34.121c-.256.433-.118.492.334.905.378.345 1.912.534 2.408.587v.016l.078-.008.078.008v-.016c.496-.053 2.03-.242 2.407-.587.453-.413.59-.472.335-.905-.256-.433-1.397-1.515-.905-2.085s2.413-1.023 4.17-.76 3.75.629 3.75.629-1.705-5.062-.341-6.006 2.911.079 2.911.079 1.102.603 1.652-.026c.551-.63.656-1.626.604-2.308s-.63-2.544-1.679-2.072-3.142.836-3.593.262c-.701-.892-.443-2.608-.133-3.817-7.175.338-12.938 6.076-13.31 13.243 1.004.124 1.839.428 2.14.776.491.57-.65 1.653-.906 2.085"/><path fill="#24e6c7" d="M46 32c0-.37-.019-.735-.047-1.097-1.063.005-1.892.237-2.027.912-.42 2.098 2.203 2.203.63 3.252-1.249.832-2.296.806-2.677.76v-.025l-.078.014-.078-.014v.025c-.381.046-1.429.072-2.676-.76-1.574-1.05 1.049-1.154.63-3.252-.42-2.098-7.767.09-7.767.09s1.656 3.687.502 5.155c-.45.574-2.544.21-3.593-.262s-1.626 1.39-1.679 2.072c-.052.682.053 1.678.604 2.307.55.63 1.652.027 1.652.027s1.547-1.023 2.91-.079c.952.659.411 3.317-.004 4.867C39.894 45.831 46 39.631 46 32"/><path d="M3.999 45.998V47A12.975 12.975 0 0 0 17 60.002h30A12.975 12.975 0 0 0 60.002 47v-1.002A12.975 12.975 0 0 1 47 59H17A12.975 12.975 0 0 1 4 45.998z" opacity=".25"/><path fill="#fff" d="M3.999 18.002v-.994A12.975 12.975 0 0 1 17 4.006h30a12.975 12.975 0 0 1 13.002 13.002v1.002A12.975 12.975 0 0 0 47 5.008H17A12.975 12.975 0 0 0 4 18.01z" opacity=".15"/></svg>