<svg xmlns="http://www.w3.org/2000/svg" xmlns:xlink="http://www.w3.org/1999/xlink" width="64" height="64" enable-background="new 0 0 1024 1024" image-rendering="optimizeSpeed"><defs><linearGradient id="g" x1="26.752" x2="27.555" y1="43.539" y2="14.105" gradientTransform="translate(26.198 25.909)scale(.68082)" gradientUnits="userSpaceOnUse"><stop offset="0" stop-color="#696969"/><stop offset="1" stop-color="#979797"/></linearGradient><linearGradient id="b" x1="7.937" x2="7.937" y1="15.081" y2="1.852" gradientTransform="scale(3.7796)" gradientUnits="userSpaceOnUse"><stop offset="0" stop-color="#f3f1ee"/><stop offset="1" stop-color="#fff"/></linearGradient><linearGradient xlink:href="#a" id="d" x1="10.054" x2="10.054" y1="4.762" y2="5.027" gradientTransform="translate(-1)scale(3.7796)" gradientUnits="userSpaceOnUse"/><linearGradient id="a"><stop offset="0" stop-color="#88888b"/><stop offset="1" stop-color="#d4d4d8"/></linearGradient><linearGradient xlink:href="#a" id="e" x1="10.054" x2="10.054" y1="4.762" y2="5.027" gradientTransform="translate(-1 14)scale(3.7796)" gradientUnits="userSpaceOnUse"/><linearGradient xlink:href="#a" id="f" x1="10.054" x2="10.054" y1="4.762" y2="5.027" gradientTransform="translate(-1 28)scale(3.7796)" gradientUnits="userSpaceOnUse"/><filter id="c" width="1.216" height="1.216" x="-.108" y="-.108" color-interpolation-filters="sRGB"><feGaussianBlur stdDeviation="1.08"/></filter></defs><rect width="56.002" height="56.002" x="4" y="3.969" fill="url(#b)" rx="13.002" ry="13.002"/><circle cx="15.5" cy="18.5" r="4.5" fill="#0079fd"/><path fill="#fff" d="M15.5 15a3.5 3.5 0 0 0-3.5 3.5 3.5 3.5 0 0 0 3.5 3.5 3.5 3.5 0 0 0 3.5-3.5 3.5 3.5 0 0 0-3.5-3.5m0 1a2.5 2.5 0 0 1 2.5 2.5 2.5 2.5 0 0 1-2.5 2.5 2.5 2.5 0 0 1-2.5-2.5 2.5 2.5 0 0 1 2.5-2.5"/><path d="M45.633 36.096c-5.405 0-9.805 4.398-9.805 9.803 0 5.404 4.4 9.804 9.805 9.804a9.75 9.75 0 0 0 6.322-2.324l1.334 1.332-.289.29 5.096 5.095 1.732-1.734-5.095-5.096-.29.289-1.331-1.332a9.76 9.76 0 0 0 2.324-6.324c0-5.405-4.398-9.803-9.803-9.803m0 1.635c4.522 0 8.17 3.646 8.17 8.168s-3.648 8.17-8.17 8.17-8.17-3.649-8.17-8.17 3.648-8.168 8.17-8.168" color="#000" enable-background="accumulate" filter="url(#c)" image-rendering="auto" opacity=".15" style="font-feature-settings:normal;font-variant-alternates:normal;font-variant-caps:normal;font-variant-east-asian:normal;font-variant-ligatures:normal;font-variant-numeric:normal;font-variant-position:normal;font-variation-settings:normal;inline-size:0;isolation:auto;mix-blend-mode:normal;shape-margin:0;shape-padding:0;text-decoration-color:#000;text-decoration-line:none;text-decoration-style:solid;text-indent:0;text-orientation:mixed;text-transform:none;white-space:normal"/><g stroke-width="3.78"><circle cx="15.5" cy="32.5" r="4.5" fill="#fb3027"/><path fill="#fff" d="M15.5 29a3.5 3.5 0 0 0-3.5 3.5 3.5 3.5 0 0 0 3.5 3.5 3.5 3.5 0 0 0 3.5-3.5 3.5 3.5 0 0 0-3.5-3.5m0 1a2.5 2.5 0 0 1 2.5 2.5 2.5 2.5 0 0 1-2.5 2.5 2.5 2.5 0 0 1-2.5-2.5 2.5 2.5 0 0 1 2.5-2.5"/><circle cx="15.5" cy="46.5" r="4.5" fill="#f79500"/><path fill="#fff" d="M15.5 43.001a3.5 3.5 0 0 0-3.5 3.5 3.5 3.5 0 0 0 3.5 3.5 3.5 3.5 0 0 0 3.5-3.5 3.5 3.5 0 0 0-3.5-3.5m0 1a2.5 2.5 0 0 1 2.5 2.5 2.5 2.5 0 0 1-2.5 2.5 2.5 2.5 0 0 1-2.5-2.5 2.5 2.5 0 0 1 2.5-2.5"/><rect width="28" height="1" x="24" y="18" fill="url(#d)" ry=".5"/><rect width="28" height="1" x="24" y="32" fill="url(#e)" ry=".5"/><rect width="28" height="1" x="24" y="46.002" fill="url(#f)" ry=".5"/></g><circle cx="45.533" cy="45.499" r="8.987" fill="#fff" fill-opacity=".543" stroke="url(#g)" stroke-width="1.634" color="#000" enable-background="accumulate"/></svg>