<svg xmlns="http://www.w3.org/2000/svg" width="64" height="64"><defs><linearGradient id="a" x1="7.937" x2="7.937" y1="15.081" y2="1.852" gradientTransform="scale(3.7796)" gradientUnits="userSpaceOnUse"><stop offset="0" stop-color="#d85151"/><stop offset="1" stop-color="#f17a76"/></linearGradient><linearGradient id="b" x1="21.924" x2="21.924" y1="36.838" y2="10.989" gradientUnits="userSpaceOnUse"><stop offset="0" stop-color="#f48145"/><stop offset="1" stop-color="#f6a346"/></linearGradient></defs><rect width="56" height="56" x="4" y="4" fill="url(#a)" rx="13" ry="13"/><g transform="translate(.696 .696)scale(1.3043)"><circle cx="24" cy="24" r="15" fill="url(#b)"/><path fill="#f4d747" d="M18 15c-3 0-6 4-6 8 0 2.5 1 4 3 4 4 0 6-5.41 6-9 0-1.5-1-3-3-3m15 9c-3 0-5 4-5 6.5s1.15 3.5 2.5 3.5c2.5 0 4.5-3.41 4.5-7 0-1.5-.5-3-2-3"/></g></svg>