<svg xmlns="http://www.w3.org/2000/svg" viewBox="0 0 64 64"><rect width="56.002" height="56.002" x="4" y="3.969" fill="#f2f2f2" rx="13.002" ry="13.002"/><path fill="#b4b4b4" d="M28.908 30.658c-.724 0-1.054 0-3.762 7.242l-.101.264-2.55 1.039-.241-.102c-4.203-1.771-6.657-2.67-7.297-2.67-.26 0-.562.118-.735.288l-4.209 4.113c-.533.526-.754.747 2.563 7.746l.121.258-1.043 2.482-.254.098c-2.74 1.059-4.458 1.762-5.545 2.267 2.268 3.786 6.395 6.319 11.146 6.319h5.576a9.3 9.3 0 0 1-.199-1.912c0-5.201 4.317-9.43 9.623-9.43 5.304 0 9.62 4.23 9.62 9.43 0 .655-.07 1.294-.2 1.912H47c4.82 0 9.003-2.604 11.248-6.48-1.08-.484-2.82-1.153-5.66-2.167l-.268-.095-1.039-2.483.114-.256c3.151-7.148 2.933-7.36 2.41-7.878L49.6 36.54a1.12 1.12 0 0 0-.735-.291c-.236 0-.953 0-7.162 2.812l-.25.112-2.56-1.031-.104-.254c-2.92-7.23-3.219-7.23-3.945-7.23z"/><path d="M3.998 45.998v1c0 7.203 5.8 13.004 13.004 13.004h29.996c7.203 0 13.004-5.8 13.004-13.004v-1c0 7.203-5.8 13.002-13.004 13.002H17.002A12.975 12.975 0 0 1 3.998 45.998" opacity=".1"/><path fill="#7d8990" d="M22.189 4v32.381H19.53a1.367.983 0 0 0-1.184 1.475l12.472 15.529a1.367.983 0 0 0 2.367 0l12.472-15.53a1.367.983 0 0 0-1.185-1.474h-2.659V4z"/><path fill="#fff" d="M3.998 18.004v-1C3.998 9.801 9.798 4 17.002 4h29.996c7.203 0 13.004 5.8 13.004 13.004v1c0-7.203-5.8-13.002-13.004-13.002H17.002A12.975 12.975 0 0 0 3.998 18.004" opacity=".5"/></svg>