<svg xmlns="http://www.w3.org/2000/svg" viewBox="0 0 64 64"><rect width="56.002" height="56.002" x="4" y="3.969" fill="#4d4d4d" rx="13.002" ry="13.002"/><path d="M3.998 45.998v1c0 7.203 5.8 13.004 13.004 13.004h29.996c7.203 0 13.004-5.8 13.004-13.004v-1c0 7.203-5.8 13.002-13.004 13.002H17.002A12.975 12.975 0 0 1 3.998 45.998" opacity=".35"/><path fill="#fff" d="M3.998 18.004v-1C3.998 9.801 9.798 4 17.002 4h29.996c7.203 0 13.004 5.8 13.004 13.004v1c0-7.203-5.8-13.002-13.004-13.002H17.002A12.975 12.975 0 0 0 3.998 18.004" opacity=".15"/><path fill="#fff" d="M17.002 8.97c-4.432 0-8 3.569-8 8v30c0 4.432 3.568 8 8 8H47c4.432 0 8-3.568 8-8v-30c0-4.432-3.568-8-8-8zm0 1.03H45v3H12.969v1H45v3H13.568v1H45v35.26h1V18h3v32.193h1V18h3.97v28.969a6.956 6.956 0 0 1-6.97 6.97H17.002a6.956 6.956 0 0 1-6.97-6.97V16.971a6.956 6.956 0 0 1 6.97-6.97zM46 10h1a7 7 0 0 1 2 .293V13h-3zm4 .682A6.96 6.96 0 0 1 52.732 13H50zM46 14h3v3h-3zm4 0h3.303a7 7 0 0 1 .668 2.97V17H50z" opacity=".25"/><path fill="#f2f2f2" d="M17 7C11.46 7 7 11.46 7 17v30a9.976 9.976 0 0 0 8.969 9.947c.58-.02 1.133-.037 1.449-.006h.002q.586.06 1.19.059H47c5.54 0 10-4.46 10-10V29.348C57 23.991 40.035 7 34.678 7H18.61z"/><path fill="#fff" d="M34.678 7.028c3.571.893 4.464 6.25 5.357 9.82.866 3.466 2.838 5.844 8.036 7.144 3.57.892 7.142.571 8.928 5.357 0-.022-.004-.044-.004-.065C56.898 23.038 42.17 8.09 35.381 7.059a10 10 0 0 0-.702-.031z"/><path fill="#a3a3a3" d="M18 23.599v7.657s5.661-4.074 5.661 3.292c0 7.377-5.661 4.456-5.661 4.456V46h7.661s-2.9-5.88 3.683-5.79c7.074.101 3.968 5.79 3.968 5.79h7.09v-7.372s5.555 2.435 5.597-3.535c.043-4.445-2.095-5.101-5.598-3.836v-7.658h-7S36.233 18 29.45 18s-3.788 5.6-3.788 5.6z"/></svg>