<svg xmlns="http://www.w3.org/2000/svg" viewBox="0 0 16.933 16.933"><rect width="14.817" height="14.817" x="1.058" y="1.05" fill="#13c4e9" rx="3.44" ry="3.44"/><path fill="#f2f2f2" d="M8.467 3.635a4.83 4.83 0 0 0-4.832 4.832 5 5 0 0 0 .026.498.86.86 0 0 0-.37.71.863.863 0 0 0 .81.86 4.83 4.83 0 0 0 4.366 2.763 4.8 4.8 0 0 0 2.325-.597.86.86 0 0 0 .608.251.863.863 0 0 0 .863-.862.86.86 0 0 0-.138-.468 4.83 4.83 0 0 0 1.173-3.156 4.8 4.8 0 0 0-.194-1.354.86.86 0 0 0 .194-.544.863.863 0 0 0-.863-.863h-.004a4.83 4.83 0 0 0-3.964-2.07m0 .69a4.14 4.14 0 0 1 3.323 1.67.86.86 0 0 0-.218.573 1 1 0 0 0 .03.219l-1.84 1.45a.86.86 0 0 0-.432-.116.86.86 0 0 0-.84.662l-3.578.48a.86.86 0 0 0-.57-.43 4 4 0 0 1-.017-.366 4.14 4.14 0 0 1 4.142-4.142m3.562 3.004a.86.86 0 0 0 .406.102l.041-.001a4 4 0 0 1 .132 1.037 4.14 4.14 0 0 1-1.066 2.772 1 1 0 0 0-.142-.012 1 1 0 0 0-.167.017l-1.18-1.79a.86.86 0 0 0 .14-.47 1 1 0 0 0-.022-.19L12.03 7.33zM8.612 9.463a.86.86 0 0 0 .718.384 1 1 0 0 0 .147-.013l1.189 1.803a.86.86 0 0 0-.128.415 4.14 4.14 0 0 1-2.071.556 4.14 4.14 0 0 1-3.716-2.313.86.86 0 0 0 .219-.343z"/><path d="M1.058 12.17v.265a3.433 3.433 0 0 0 3.44 3.44h7.937a3.433 3.433 0 0 0 3.44-3.44v-.265a3.433 3.433 0 0 1-3.44 3.44H4.498a3.433 3.433 0 0 1-3.44-3.44" opacity=".15"/><path fill="#fff" d="M1.058 4.763V4.5a3.433 3.433 0 0 1 3.44-3.44h7.937a3.433 3.433 0 0 1 3.44 3.44v.265a3.433 3.433 0 0 0-3.44-3.44H4.498a3.433 3.433 0 0 0-3.44 3.44z" opacity=".15"/></svg>