<svg xmlns="http://www.w3.org/2000/svg" viewBox="0 0 16.933 16.933"><rect width="14.817" height="14.817" x="1.058" y="1.05" fill="#98a0a2" rx="3.44" ry="3.44"/><rect width="12.7" height="12.7" x="2.117" y="2.117" fill="#a84ead" rx="2.209" ry="2.209"/><path d="M4.498 1.323A3.16 3.16 0 0 0 1.331 4.49v7.937a3.16 3.16 0 0 0 3.167 3.167h7.937a3.16 3.16 0 0 0 3.168-3.167V4.49a3.16 3.16 0 0 0-3.168-3.167zm0 .794h7.937A2.37 2.37 0 0 1 14.81 4.49v7.937a2.37 2.37 0 0 1-2.374 2.373H4.498a2.37 2.37 0 0 1-2.373-2.373V4.49a2.37 2.37 0 0 1 2.373-2.373"/><path fill="#f9a631" d="M8.466 2.117v12.7h-4.14a2.204 2.204 0 0 1-2.21-2.209V4.325c0-1.223.986-2.208 2.21-2.208z"/><path fill="#fff" d="m13.067 9.364-.027-.013c-.188.027-.375 0-.563-.04a1.5 1.5 0 0 1-1.044-1.836 1.5 1.5 0 0 1 .254-.509V6.94l-.027-.014a1.55 1.55 0 0 0-1.326 1.126c-.107.401-.053.816.148 1.178s.535.616.937.724c.134.04.282.053.416.053a1.55 1.55 0 0 0 1.232-.616zm-8.387.161a.186.186 0 0 0-.227.053l-.201.362a.185.185 0 0 0 .053.228c.028.013.054.027.081.027a.19.19 0 0 0 .148-.08l.2-.362c.054-.08.027-.188-.053-.228M3.65 7.717l.36.2a.2.2 0 0 0 .081.027.18.18 0 0 0 .147-.08.186.186 0 0 0-.053-.228l-.362-.2a.185.185 0 0 0-.227.053c-.04.08-.014.187.053.228m2.25-.309a.2.2 0 0 0 .08.027.19.19 0 0 0 .147-.08l.201-.362a.185.185 0 0 0-.053-.228.186.186 0 0 0-.228.054l-.201.361c-.053.095-.027.188.054.228m1.018 1.809-.362-.201a.186.186 0 0 0-.228.053.185.185 0 0 0 .054.228l.362.2c.027.014.053.028.08.028a.19.19 0 0 0 .147-.08c.054-.081.027-.175-.053-.228m-2.68-.134c-.04-.08-.147-.107-.227-.054l-.348.188c-.08.04-.107.147-.054.228.027.053.08.08.148.08a.2.2 0 0 0 .08-.027l.362-.201c.053-.04.08-.147.04-.214m.215-1.728c.027.053.08.08.148.08a.2.2 0 0 0 .08-.027c.08-.04.107-.147.054-.228l-.201-.361c-.04-.08-.148-.108-.229-.054-.08.04-.106.147-.053.228zm1.889.509c.027.054.08.08.147.08a.2.2 0 0 0 .08-.026l.362-.201c.08-.04.108-.148.054-.229-.04-.08-.147-.106-.228-.053l-.362.201c-.067.04-.093.148-.053.228m-.214 1.714c-.04-.08-.148-.107-.228-.053-.08.04-.107.147-.054.228l.2.361c.028.054.082.08.148.08.027 0 .054-.013.081-.026.08-.04.107-.147.053-.228zm-2.05-1.111a.155.155 0 0 0-.16-.161H3.34a.155.155 0 0 0-.16.16c0 .094.066.161.16.161h.576c.08 0 .16-.067.16-.16m1.206-1.22c.093 0 .16-.067.16-.16V6.51a.155.155 0 0 0-.16-.161.155.155 0 0 0-.161.16v.577c0 .093.08.16.16.16M7.24 8.307h-.577a.155.155 0 0 0-.16.16c0 .094.067.161.16.161h.576a.155.155 0 0 0 .161-.16c.014-.094-.067-.161-.16-.161m-1.943 1.38a.155.155 0 0 0-.16.16v.577c0 .093.066.16.16.16s.16-.067.16-.16v-.576a.163.163 0 0 0-.16-.161m0-2.103a.89.89 0 0 0-.884.884c0 .482.402.884.884.884a.89.89 0 0 0 .884-.884.89.89 0 0 0-.884-.884"/></svg>