<svg xmlns="http://www.w3.org/2000/svg" viewBox="0 0 64 64"><rect width="56.002" height="56.002" x="4" y="3.969" fill="#f2f2f2" rx="13.002" ry="13.002"/><path d="M3.998 45.998v1c0 7.203 5.8 13.004 13.004 13.004h29.996c7.203 0 13.004-5.8 13.004-13.004v-1c0 7.203-5.8 13.002-13.004 13.002H17.002A12.975 12.975 0 0 1 3.998 45.998" opacity=".1"/><path fill="#fff" d="M3.998 18.004v-1C3.998 9.801 9.798 4 17.002 4h29.996c7.203 0 13.004 5.8 13.004 13.004v1c0-7.203-5.8-13.002-13.004-13.002H17.002A12.975 12.975 0 0 0 3.998 18.004" opacity=".5"/><g transform="translate(7.111 7.111)scale(.77778)"><rect width="50" height="50" x="9" y="5" fill="#7ab8e8" rx="2.778" ry="2.778"/><rect width="42" height="42" x="7" y="15" fill="#5093c8" rx="2.8" ry="2.8"/><rect width="30" height="30" x="5" y="29" fill="#0077d3" rx="2.727" ry="2.727"/><path fill="#fff" d="M13 35v18h4v-7h10v-3H17v-5h10v-3H17z"/></g></svg>