<svg xmlns="http://www.w3.org/2000/svg" viewBox="0 0 64 64"><defs><linearGradient id="a" x1="8.467" x2="8.467" y1="1.05" y2="15.867" gradientTransform="scale(3.7796)" gradientUnits="userSpaceOnUse"><stop offset="0" stop-color="#c25a28"/><stop offset="1" stop-color="#700"/></linearGradient></defs><rect width="56.002" height="56.002" x="4" y="3.969" fill="url(#a)" rx="13.002" ry="13.002" style="fill:#9e2f15;fill-opacity:1"/><path fill="#fff" d="m30.553 15.139-3.337-.12c0 .522-.04 1.245-.12 1.969-.362 3.456-1.166 9.968-1.166 15.474 0 5.105 1.085 10.812 2.251 14.39l2.935-.884c-1.246-3.779-2.372-8.602-2.372-13.827 0-5.507.683-11.857 1.367-15.234.12-.562.281-1.286.442-1.768m-6.472 4.943c-1.729 0-5.226-.24-6.633-.482l.08 3.015c1.648.08 4.784.24 6.512.24 5.99 0 13.91-.602 19.7-1.607l-.04-2.974c-5.548 1.246-12.543 1.808-19.619 1.808m16.763 4.743-3.216-.804c-.04.643-.24 1.729-.402 2.331-1.849 6.512-5.145 10.853-8.723 13.988-2.573 2.251-5.186 3.376-7.196 3.376-1.488 0-2.292-.803-2.292-2.451 0-3.698 3.618-8.12 8.161-10.13 2.05-.924 5.025-1.889 8.402-1.889 5.99 0 9.287 3.417 9.287 7.316 0 5.185-4.503 8.923-11.74 9.726l1.729 2.693c9.327-1.487 13.145-6.51 13.145-12.258 0-5.628-4.784-10.049-12.382-10.049-2.613 0-5.87.603-8.563 1.648C21.104 30.613 16 36.281 16 41.787c0 3.417 2.09 5.024 4.744 5.024 2.854 0 6.07-1.487 8.643-3.456 4.221-3.256 8.241-8.843 10.613-16.279.241-.643.603-1.728.844-2.25z" aria-label="あ"/><path d="M3.998 45.998v1c0 7.203 5.8 13.004 13.004 13.004h29.996c7.203 0 13.004-5.8 13.004-13.004v-1c0 7.203-5.8 13.002-13.004 13.002H17.002A12.975 12.975 0 0 1 3.998 45.998" opacity=".15"/><path fill="#fff" d="M3.998 18.004v-1C3.998 9.801 9.798 4 17.002 4h29.996c7.203 0 13.004 5.8 13.004 13.004v1c0-7.203-5.8-13.002-13.004-13.002H17.002A12.975 12.975 0 0 0 3.998 18.004" opacity=".15"/></svg>