<svg xmlns="http://www.w3.org/2000/svg" viewBox="0 0 16.933 16.933"><rect width="14.817" height="14.817" x="1.058" y="1.05" fill="#9fa8ab" rx="3.44" ry="3.44"/><rect width="13.757" height="13.742" x="1.588" y="1.587" fill="#030000" rx="2.91" ry="2.91"/><rect width="12.171" height="12.171" x="2.381" y="2.381" fill="#262626" rx="2.117" ry="2.117"/><path fill="#6be54f" d="M5.047 8.466h.486v-.57c.565-.107.864-.505.864-1.04 0-1.1-1.492-1.006-1.492-1.615 0-.27.162-.408.451-.408.25 0 .427.103.629.29l.363-.412c-.211-.226-.461-.398-.815-.447v-.56h-.486v.57c-.516.098-.835.466-.835 1.001 0 1.026 1.493.967 1.493 1.63 0 .28-.157.432-.501.432-.28 0-.54-.123-.81-.334l-.32.486c.261.236.639.388.973.428z" aria-label="$"/><path fill="#6be54f" d="M7.408 3.704h2.381v4.762H7.408z" opacity=".35"/></svg>