<svg xmlns="http://www.w3.org/2000/svg" viewBox="0 0 64 64"><defs><linearGradient id="a" x2="1" gradientTransform="rotate(90 -4.955 41.085)scale(9.6466)" gradientUnits="userSpaceOnUse"><stop offset="0" stop-color="#0081a1"/><stop offset=".59" stop-color="#007f9e"/><stop offset=".81" stop-color="#007a97"/><stop offset="1" stop-color="#00758f"/></linearGradient></defs><rect width="56.002" height="56.002" x="4" y="3.969" fill="#f2f2f2" rx="13.002" ry="13.002" style="fill:#a8ca5f;fill-opacity:1"/><g fill-rule="evenodd" stroke-linecap="round" stroke-linejoin="round" stroke-miterlimit="1.5" clip-rule="evenodd" color="#000"><path fill="#f5a000" d="m58.967 12.084-10.77 11.93-5.615-7.85-14.398 22.518-4.565-4.425-10.043 13.525-8.767-12.01L6.16 49.748A12.3 12.3 0 0 0 7 52a11.67 11.67 0 0 0 5.101 5.095 12.3 12.3 0 0 0 3.47 1.143c1.205.216 2.432.287 3.65.32q.838.021 1.677.026.996.005 1.99.004l18.254-.002q.993.001 1.986-.004a78 78 0 0 0 1.674-.026c1.216-.033 2.44-.104 3.643-.32a12.3 12.3 0 0 0 3.463-1.143A11.65 11.65 0 0 0 57 52a12.3 12.3 0 0 0 1.14-3.467c.091-.506.152-1.018.2-1.53l.957-33.795q-.138-.57-.33-1.125z" style="-inkscape-stroke:none"/><path fill="#fff" d="M58.318 10.58a2 2 0 0 0-.193.115l-9.787 10.84-4.49-6.277a1.557 1.557 0 0 0-2.577.066L27.898 36.238l-3.197-3.101a1.557 1.557 0 0 0-2.332.191l-8.783 11.828-7.52-10.303a1.56 1.56 0 0 0-1.945-.412v.438l.035 7.609q-.001.994.004 1.988.003.839.025 1.676c.033 1.216.104 2.442.32 3.645a12.3 12.3 0 0 0 1.143 3.464 12 12 0 0 0 .717 1.102V40.54l5.953 8.158a1.557 1.557 0 0 0 2.508.01l8.984-12.102 3.291 3.191a1.557 1.557 0 0 0 2.395-.279l13.158-20.58 4.277 5.98a1.557 1.557 0 0 0 2.422.137l8.418-9.324.469 37.766.152-.234a12.3 12.3 0 0 0 1.14-3.467c.217-1.203.288-2.431.321-3.647q.022-.837.025-1.673.005-.995.004-1.989l-.002-7.61V29.06l.002-7.605q.001-.992-.004-1.984a79 79 0 0 0-.025-1.674c-.033-1.215-.104-2.44-.32-3.64a12.3 12.3 0 0 0-1.14-3.462zm-46.74 48.121a12.3 12.3 0 0 0 2.643.799c1.203.216 2.43.287 3.648.32q.839.021 1.678.026.994.004 1.99.003h20.998q.993 0 1.986-.003.837-.004 1.674-.026c1.215-.033 2.44-.104 3.643-.32a12.3 12.3 0 0 0 2.425-.713z" style="-inkscape-stroke:none;fill:#f2f2f2;fill-opacity:1"/></g><g fill-rule="evenodd" stroke-linecap="round" stroke-linejoin="round" stroke-miterlimit="1.5" clip-rule="evenodd" color="#000"><path fill="url(#a)" d="M59.398 32.838 45.869 52.537l-10.383-5.162-19.402 11.844 33.508-.338A12.3 12.3 0 0 0 52 58a11.65 11.65 0 0 0 5.092-5.094 12.3 12.3 0 0 0 .926-2.602z" style="-inkscape-stroke:none"/><path fill="#fff" d="M59.504 31.285a1.6 1.6 0 0 0-.293.008 1.56 1.56 0 0 0-1.096.664L45.351 50.543l-9.172-4.56a1.56 1.56 0 0 0-1.503.064L15.274 57.89a1.56 1.56 0 0 0-.655 1.67c1.076.165 2.167.23 3.25.26q.84.02 1.678.025.996.005 1.99.004h20.998q.993.001 1.986-.004c.558-.004 1.116-.01 1.674-.026 1.216-.032 2.44-.104 3.643-.32a12.3 12.3 0 0 0 3.463-1.142 12 12 0 0 0 1.037-.674l-32.723-.018 13.947-8.514 9.615 4.78a1.56 1.56 0 0 0 1.975-.514l10.666-15.53-.073 16.372a12 12 0 0 0 .647-.996 12.3 12.3 0 0 0 1.14-3.467c.216-1.202.288-2.43.32-3.646q.023-.838.026-1.674.005-.994.004-1.988l-.002-7.61v-3.513a1.6 1.6 0 0 0-.377-.08z" style="-inkscape-stroke:none;fill:#f2f2f2;fill-opacity:1"/></g><path d="M17.002 3.969A12.973 12.973 0 0 0 4 16.97v29.998A12.973 12.973 0 0 0 17.002 59.97H47a12.973 12.973 0 0 0 13.002-13.002V16.97A12.973 12.973 0 0 0 47 3.969zM17 8h30c4.986 0 9 4.014 9 9v30c0 4.986-4.014 9-9 9H17a8.98 8.98 0 0 1-9-9V17c0-4.986 4.014-9 9-9" style="fill:#f2f2f2;fill-opacity:1"/><path d="M3.998 45.998v1c0 7.203 5.8 13.004 13.004 13.004h29.996c7.203 0 13.004-5.8 13.004-13.004v-1c0 7.203-5.8 13.002-13.004 13.002H17.002A12.975 12.975 0 0 1 3.998 45.998" opacity=".1"/><path fill="#fff" d="M3.998 18.004v-1C3.998 9.801 9.798 4 17.002 4h29.996c7.203 0 13.004 5.8 13.004 13.004v1c0-7.203-5.8-13.002-13.004-13.002H17.002A12.975 12.975 0 0 0 3.998 18.004" opacity=".5"/></svg>