<svg xmlns="http://www.w3.org/2000/svg" width="64" height="64"><defs><linearGradient id="a" x2="1" gradientTransform="rotate(90 12.333 19.67)scale(4.1686)" gradientUnits="userSpaceOnUse"><stop offset="0" stop-color="#a3c547"/><stop offset="1" stop-color="#a8ca5f"/></linearGradient><linearGradient id="b" x2="1" gradientTransform="rotate(90 -4.955 41.085)scale(9.6466)" gradientUnits="userSpaceOnUse"><stop offset="0" stop-color="#0081a1"/><stop offset=".59" stop-color="#007f9e"/><stop offset=".81" stop-color="#007a97"/><stop offset="1" stop-color="#00758f"/></linearGradient><linearGradient id="c" x1="17.002" x2="17.002" y1="3.969" y2="59.971" gradientTransform="scale(3.7796)" gradientUnits="userSpaceOnUse"><stop offset="0" stop-color="#fff"/><stop offset="1" stop-color="#fff"/></linearGradient></defs><path fill="url(#a)" fill-rule="evenodd" d="M59.882 21.456q.001-.993-.004-1.986a78 78 0 0 0-.025-1.673c-.032-1.215-.104-2.44-.32-3.641a12.3 12.3 0 0 0-1.141-3.46 11.65 11.65 0 0 0-5.091-5.09 12.3 12.3 0 0 0-3.464-1.14c-1.202-.215-2.427-.287-3.642-.32a80 80 0 0 0-1.674-.025q-.993-.004-1.987-.003l-7.69-.028h-5.752l-7.555.028q-.995 0-1.99.003-.84.004-1.677.025c-1.218.033-2.446.105-3.65.32a12.3 12.3 0 0 0-3.47 1.14 11.66 11.66 0 0 0-5.1 5.09 12.3 12.3 0 0 0-1.144 3.462c-.217 1.2-.288 2.426-.321 3.64a80 80 0 0 0-.025 1.672c-.004.662-.038 1.485-.038 2.147V34.88l.034 7.608q-.001.994.004 1.988.003.838.025 1.675c.033 1.217.105 2.444.321 3.647a12.3 12.3 0 0 0 1.143 3.464 11.67 11.67 0 0 0 5.101 5.096 12.3 12.3 0 0 0 3.47 1.142c1.205.216 2.433.288 3.65.32a78 78 0 0 0 1.677.026q.995.005 1.99.004h20.998q.993.001 1.987-.004.837-.004 1.673-.025c1.216-.033 2.442-.105 3.644-.32a12.3 12.3 0 0 0 3.462-1.143 11.65 11.65 0 0 0 5.091-5.095 12.3 12.3 0 0 0 1.141-3.467c.216-1.202.288-2.43.32-3.645q.022-.837.025-1.675.005-.995.004-1.989V29.06z" clip-rule="evenodd"/><g fill-rule="evenodd" stroke-linecap="round" stroke-linejoin="round" stroke-miterlimit="1.5" clip-rule="evenodd" color="#000"><path fill="#f5a000" d="m58.967 12.084-10.77 11.93-5.615-7.85-14.398 22.518-4.565-4.425-10.043 13.525-8.767-12.01V51.01a12.3 12.3 0 0 0 .84 2.252 11.67 11.67 0 0 0 5.101 5.095 12.3 12.3 0 0 0 3.47 1.143c1.205.216 2.432.287 3.65.32q.838.021 1.677.026.996.005 1.99.004h20.998q.993.001 1.986-.004.837-.004 1.674-.026c1.216-.033 2.44-.104 3.643-.32a12.3 12.3 0 0 0 3.463-1.143 11.65 11.65 0 0 0 5.092-5.093 12.3 12.3 0 0 0 1.14-3.467c.091-.506.152-1.018.2-1.53l-.436-35.059a12 12 0 0 0-.33-1.125z" style="-inkscape-stroke:none"/><path fill="#fff" d="M58.318 10.58a2 2 0 0 0-.193.115l-9.787 10.84-4.49-6.277a1.557 1.557 0 0 0-2.577.066L27.898 36.238l-3.197-3.101a1.557 1.557 0 0 0-2.332.191l-8.783 11.828-7.52-10.303a1.56 1.56 0 0 0-1.945-.412v.438l.035 7.609q-.001.994.004 1.988.003.839.025 1.676c.033 1.216.104 2.442.32 3.645a12.3 12.3 0 0 0 1.143 3.464 12 12 0 0 0 .717 1.102V40.54l5.953 8.158a1.557 1.557 0 0 0 2.508.01l8.984-12.102 3.291 3.191a1.557 1.557 0 0 0 2.395-.279l13.158-20.58 4.277 5.98a1.557 1.557 0 0 0 2.422.137l8.418-9.324.469 37.766.152-.234a12.3 12.3 0 0 0 1.14-3.467c.217-1.203.288-2.431.321-3.647q.022-.837.025-1.673.005-.995.004-1.989l-.002-7.61V29.06l.002-7.605q.001-.992-.004-1.984a79 79 0 0 0-.025-1.674c-.033-1.215-.104-2.44-.32-3.64a12.3 12.3 0 0 0-1.14-3.462zm-46.74 48.121a12.3 12.3 0 0 0 2.643.799c1.203.216 2.43.287 3.648.32q.839.021 1.678.026.994.004 1.99.003h20.998q.993 0 1.986-.003.837-.004 1.674-.026c1.215-.033 2.44-.104 3.643-.32a12.3 12.3 0 0 0 2.425-.713z" style="-inkscape-stroke:none"/><path fill="#fff" d="M58.318 10.58a2 2 0 0 0-.193.115l-9.787 10.84-4.49-6.277a1.557 1.557 0 0 0-2.577.066L27.898 36.238l-3.197-3.101a1.557 1.557 0 0 0-2.332.191l-8.783 11.828-7.52-10.303a1.56 1.56 0 0 0-1.945-.412v.438l.035 7.609q-.001.994.004 1.988.003.839.025 1.676c.033 1.216.104 2.442.32 3.645a12.3 12.3 0 0 0 1.143 3.464 12 12 0 0 0 .717 1.102V40.54l5.953 8.158a1.557 1.557 0 0 0 2.508.01l8.984-12.102 3.291 3.191a1.557 1.557 0 0 0 2.395-.279l13.158-20.58 4.277 5.98a1.557 1.557 0 0 0 2.422.137l8.418-9.324.469 37.766.152-.234a12.3 12.3 0 0 0 1.14-3.467c.217-1.203.288-2.431.321-3.647q.022-.837.025-1.673.005-.995.004-1.989l-.002-7.61V29.06l.002-7.605q.001-.992-.004-1.984a79 79 0 0 0-.025-1.674c-.033-1.215-.104-2.44-.32-3.64a12.3 12.3 0 0 0-1.14-3.462zm-46.74 48.121a12.3 12.3 0 0 0 2.643.799c1.203.216 2.43.287 3.648.32q.839.021 1.678.026.994.004 1.99.003h20.998q.993 0 1.986-.003.837-.004 1.674-.026c1.215-.033 2.44-.104 3.643-.32a12.3 12.3 0 0 0 2.425-.713z" style="-inkscape-stroke:none"/></g><g fill-rule="evenodd" stroke-linecap="round" stroke-linejoin="round" stroke-miterlimit="1.5" clip-rule="evenodd" color="#000"><path fill="url(#b)" d="M59.398 32.838 45.869 52.537l-10.383-5.162-19.402 11.844 34.809.02a12.3 12.3 0 0 0 2.408-.881 11.65 11.65 0 0 0 5.092-5.094 12.3 12.3 0 0 0 .926-2.602z" style="-inkscape-stroke:none"/><path fill="#fff" d="M59.504 31.285a1.6 1.6 0 0 0-.293.008 1.56 1.56 0 0 0-1.096.664L45.351 50.543l-9.172-4.56a1.56 1.56 0 0 0-1.503.064L15.274 57.89a1.56 1.56 0 0 0-.655 1.67c1.076.165 2.167.23 3.25.26q.84.02 1.678.025.996.005 1.99.004h20.998q.993.001 1.986-.004c.558-.004 1.116-.01 1.674-.026 1.216-.032 2.44-.104 3.643-.32a12.3 12.3 0 0 0 3.463-1.142 12 12 0 0 0 1.037-.674l-32.723-.018 13.947-8.514 9.615 4.78a1.56 1.56 0 0 0 1.975-.514l10.666-15.53-.073 16.372a12 12 0 0 0 .647-.996 12.3 12.3 0 0 0 1.14-3.467c.216-1.202.288-2.43.32-3.646q.023-.838.026-1.674.005-.994.004-1.988l-.002-7.61v-3.513a1.6 1.6 0 0 0-.377-.08z" style="-inkscape-stroke:none"/></g><path fill="#fff" fill-rule="evenodd" d="M59.882 21.456q.001-.993-.004-1.986a78 78 0 0 0-.025-1.673c-.032-1.215-.104-2.44-.32-3.641a12.3 12.3 0 0 0-1.141-3.46 11.65 11.65 0 0 0-5.091-5.09 12.3 12.3 0 0 0-3.464-1.14c-1.202-.215-2.427-.287-3.642-.32a80 80 0 0 0-1.674-.025q-.993-.004-1.987-.003l-7.69-.028h-5.752l-7.555.028q-.995 0-1.99.003-.84.004-1.677.025c-1.218.033-2.446.105-3.65.32a12.3 12.3 0 0 0-3.47 1.14 11.66 11.66 0 0 0-5.1 5.09 12.3 12.3 0 0 0-1.144 3.462c-.217 1.2-.288 2.426-.321 3.64a80 80 0 0 0-.025 1.672c-.004.662-.038 1.485-.038 2.147V34.88l.034 7.608q-.001.994.004 1.988.003.838.025 1.675c.033 1.217.105 2.444.321 3.647a12.3 12.3 0 0 0 1.143 3.464 11.67 11.67 0 0 0 5.101 5.096 12.3 12.3 0 0 0 3.47 1.142c1.205.216 2.433.288 3.65.32a78 78 0 0 0 1.677.026q.995.005 1.99.004h20.998q.993.001 1.987-.004.837-.004 1.673-.025c1.216-.033 2.442-.105 3.644-.32a12.3 12.3 0 0 0 3.462-1.143 11.65 11.65 0 0 0 5.091-5.095 12.3 12.3 0 0 0 1.141-3.467c.216-1.202.288-2.43.32-3.645q.022-.837.025-1.675.005-.995.004-1.989V29.06zm-3.113 0-.004-1.967a76 76 0 0 0-.023-1.608c-.029-1.058-.085-2.127-.277-3.2a9.2 9.2 0 0 0-.846-2.571 8.53 8.53 0 0 0-3.72-3.723 9.2 9.2 0 0 0-2.612-.857c-1.048-.188-2.117-.243-3.176-.272a77 77 0 0 0-1.61-.024q-.98-.005-1.972-.003l-7.685-.028h-5.74l-7.566.028q-.988 0-1.972.003-.807.004-1.612.024c-1.062.029-2.135.084-3.211.277a9.2 9.2 0 0 0-2.583.847 8.53 8.53 0 0 0-3.733 3.719 9.2 9.2 0 0 0-.858 2.61c-.188 1.046-.244 2.113-.272 3.17q-.021.803-.024 1.61c-.004.655-.038 1.47-.038 2.126v13.249l.034 7.622q-.001.986.004 1.97.004.804.024 1.61c.028 1.06.084 2.13.277 3.204.155.9.442 1.772.848 2.576a8.54 8.54 0 0 0 3.729 3.73q1.227.62 2.62.859c1.05.188 2.121.244 3.183.272.537.015 1.074.02 1.612.024q.986.005 1.971.004h20.997q.984.001 1.969-.004a76 76 0 0 0 1.608-.024c1.06-.028 2.129-.084 3.202-.277a9.2 9.2 0 0 0 2.573-.847 8.53 8.53 0 0 0 3.726-3.723q.619-1.225.857-2.616c.189-1.049.244-2.119.273-3.18q.02-.804.024-1.61.004-.984.003-1.968V29.06z" clip-rule="evenodd"/><path fill="url(#c)" d="M17.002 3.969A12.973 12.973 0 0 0 4 16.97v29.998A12.973 12.973 0 0 0 17.002 59.97H47a12.973 12.973 0 0 0 13.002-13.002V16.97A12.973 12.973 0 0 0 47 3.969Zm0 3.908H47a9.074 9.074 0 0 1 9.094 9.094v29.998A9.074 9.074 0 0 1 47 56.062H17.002a9.074 9.074 0 0 1-9.094-9.093V16.97a9.074 9.074 0 0 1 9.094-9.094"/></svg>