<svg xmlns="http://www.w3.org/2000/svg" viewBox="0 0 16.933 16.933"><rect width="14.817" height="14.817" x="1.058" y="1.05" fill="#4d4d4d" rx="3.44" ry="3.44" style="stroke-width:.264578;fill:#2a1f13;fill-opacity:1"/><path d="M1.058 12.17v.265a3.433 3.433 0 0 0 3.44 3.44h7.937a3.433 3.433 0 0 0 3.44-3.44v-.265a3.433 3.433 0 0 1-3.44 3.44H4.498a3.433 3.433 0 0 1-3.44-3.44" opacity=".35" style="stroke-width:.264578;opacity:1"/><path fill="#fff" d="M1.058 4.763V4.5a3.433 3.433 0 0 1 3.44-3.44h7.937a3.433 3.433 0 0 1 3.44 3.44v.264a3.433 3.433 0 0 0-3.44-3.44H4.498a3.433 3.433 0 0 0-3.44 3.44" opacity=".15" style="stroke-width:.264578"/><circle cx="3.07" cy="5.979" r="1.323" style="fill:#563015;fill-opacity:1;stroke:none;stroke-width:.542143;stroke-linecap:square;stroke-linejoin:round;paint-order:fill markers stroke"/><circle cx="8.467" cy="8.467" r="6.085" style="fill:#99734a;stroke:none;stroke-width:.607783;stroke-linecap:square;stroke-linejoin:round;paint-order:fill markers stroke;fill-opacity:1"/><circle cx="11.509" cy="9.903" r=".926" style="fill:#563015;fill-opacity:1;stroke:none;stroke-width:.531564;stroke-linecap:square;stroke-linejoin:round;paint-order:fill markers stroke"/></svg>