<svg xmlns="http://www.w3.org/2000/svg" xml:space="preserve" viewBox="0 0 64 64"><path fill="#44d993" d="M17.001 3.999A12.973 12.973 0 0 0 3.999 17.001v29.998a12.973 12.973 0 0 0 13.002 13.002h29.998a12.973 12.973 0 0 0 13.002-13.002V17.001A12.973 12.973 0 0 0 46.999 3.999z" style="fill:#5c913b;fill-opacity:1"/><path d="M3.998 45.998v1c0 7.203 5.8 13.004 13.004 13.004h29.996c7.203 0 13.004-5.8 13.004-13.004v-1c0 7.203-5.8 13.002-13.004 13.002H17.002A12.975 12.975 0 0 1 3.998 45.998" opacity=".15"/><path fill="#fff" d="M3.998 18.004v-1C3.998 9.801 9.798 4 17.002 4h29.996c7.203 0 13.004 5.8 13.004 13.004v1c0-7.203-5.8-13.002-13.004-13.002H17.002A12.975 12.975 0 0 0 3.998 18.004" opacity=".15"/><g fill-rule="evenodd"><path fill="#ffe8b6" d="M96.434 53.55c-4.568 0-6.852 0-8.565-.96a7.5 7.5 0 0 1-2.887-2.887c-.959-1.712-.959-3.996-.959-8.564V24.341c0-4.568 0-6.852.96-8.564a7.5 7.5 0 0 1 2.886-2.887c1.713-.96 3.997-.96 8.565-.96h16.798c4.567 0 6.851 0 8.564.96a7.5 7.5 0 0 1 2.887 2.887c.96 1.712.96 3.996.96 8.564V41.14c0 4.568 0 6.852-.96 8.564a7.5 7.5 0 0 1-2.887 2.888c-1.713.959-3.996.959-8.564.959z" filter="url(#a)" style="stroke-width:.0682129" transform="rotate(179.936 74.625 34.31)scale(1.11845)"/><path fill="#dd2e44" d="M96.841 51.059c-3.806 0-5.71 0-7.136-.8a6.27 6.27 0 0 1-2.406-2.405c-.8-1.427-.8-3.33-.8-7.137V24.77c0-3.806 0-5.71.8-7.137a6.27 6.27 0 0 1 2.406-2.406c1.427-.799 3.33-.799 7.136-.799h15.946c3.807 0 5.71 0 7.137.8a6.27 6.27 0 0 1 2.406 2.405c.8 1.427.8 3.33.8 7.137v15.946c0 3.806 0 5.71-.8 7.137a6.27 6.27 0 0 1-2.406 2.406c-1.427.799-3.33.799-7.137.799z" filter="url(#b)" style="stroke-width:.0682129" transform="rotate(179.936 74.625 34.31)scale(1.11845)"/><path fill="#ff554d" d="M114.519 33.31s1.262.135 2.256.752c.569.353 1.254 1.102 1.254 1.755v10.028c0 .653-.685 1.403-1.254 1.755-.994.617-2.256.753-2.256.753H95.464s-1.262-.136-2.256-.753c-.569-.352-1.254-1.102-1.254-1.755V35.817c0-.653.685-1.402 1.254-1.755.994-.617 2.256-.752 2.256-.752z" filter="url(#c)" style="stroke-width:.0682129" transform="rotate(179.936 74.625 34.31)scale(1.11845)"/><path fill="#ff554d" d="M114.696 16.828s1.262.136 2.257.752c.568.353 1.253 1.103 1.253 1.755v10.03c0 .652-.685 1.401-1.253 1.754-.995.617-2.257.752-2.257.752H95.642s-1.263-.135-2.257-.752c-.569-.353-1.253-1.102-1.253-1.755V19.335c0-.652.684-1.402 1.253-1.755.994-.616 2.257-.752 2.257-.752z" filter="url(#d)" style="stroke-width:.0682129" transform="rotate(179.936 74.625 34.31)scale(1.11845)"/><path fill="#31352e" d="M110.552 36.46s.724.079 1.295.433c.327.202.72.632.72 1.007v5.756c0 .374-.393.805-.72 1.007-.57.354-1.295.432-1.295.432H99.616s-.725-.078-1.295-.432c-.327-.202-.72-.633-.72-1.007V37.9c0-.375.393-.805.72-1.007.57-.354 1.295-.432 1.295-.432z" filter="url(#e)" style="stroke-width:.0682129" transform="rotate(179.936 74.625 34.31)scale(1.11845)"/><path fill="#31352e" d="M98.432 23.192c0-.692-.561-1.253-1.254-1.253h-1.924c-.693 0-1.254.561-1.254 1.253v1.925c0 .693.561 1.254 1.254 1.254h1.924c.693 0 1.254-.561 1.254-1.254z" filter="url(#f)" style="stroke-width:.0682129" transform="rotate(179.936 74.625 34.31)scale(1.11845)"/><path fill="#31352e" d="M116.338 23.37c0-.693-.561-1.254-1.254-1.254h-1.925c-.692 0-1.253.561-1.253 1.254v1.925c0 .692.56 1.253 1.253 1.253h1.925c.692 0 1.254-.561 1.254-1.253z" filter="url(#g)" style="stroke-width:.0682129" transform="rotate(179.936 74.625 34.31)scale(1.11845)"/></g></svg>