<svg xmlns="http://www.w3.org/2000/svg" xmlns:xlink="http://www.w3.org/1999/xlink" width="64" height="64"><defs><linearGradient id="a"><stop offset="0"/><stop offset="1" stop-opacity="0"/></linearGradient><linearGradient id="g" x1="17.197" x2="27.308" y1="11.627" y2="31.453" gradientTransform="matrix(1.5 0 0 1.5 -4 -4)" gradientUnits="userSpaceOnUse"><stop offset="0" stop-color="#fcfcfc"/><stop offset="1" stop-color="#fbc2bb"/></linearGradient><linearGradient xlink:href="#a" id="e" x1="22.137" x2="29.967" y1="1.975" y2="1.975" gradientTransform="rotate(45 -19.314 8)" gradientUnits="userSpaceOnUse"/><linearGradient xlink:href="#a" id="c" x1="19.732" x2="33.161" y1="23.413" y2="36.842" gradientTransform="translate(0 16)" gradientUnits="userSpaceOnUse"/><linearGradient id="b" x1="7.937" x2="7.937" y1="15.081" y2="1.852" gradientTransform="scale(3.7796)" gradientUnits="userSpaceOnUse"><stop offset="0" stop-color="#b81e31"/><stop offset="1" stop-color="#ff5c5c"/></linearGradient><filter id="d" width="1.113" height="1.128" x="-.056" y="-.064" color-interpolation-filters="sRGB"><feGaussianBlur stdDeviation=".766"/></filter><filter id="f" width="1.118" height="1.122" x="-.059" y="-.061" color-interpolation-filters="sRGB"><feGaussianBlur stdDeviation=".675"/></filter></defs><rect width="64" height="64" fill="none" rx="0" ry="0" style="paint-order:stroke fill markers"/><rect width="56.002" height="56.002" x="4" y="3.969" fill="url(#b)" rx="13.002" ry="13.002"/><circle cx="32.02" cy="32.044" r="30.001" fill="none"/><path fill="url(#c)" d="m34.318 31.289-5.03 4.719-14.284 8.556-3.614 4.428 10.934 10.934a19.954 19.954 0 0 0 21.653-18.979z" filter="url(#d)" opacity=".2" transform="matrix(1.5 0 0 1.5 -4 -28)"/><path fill="url(#e)" d="m15.519 33.395 2.719-2.306 20.557 20.557-5.942 5.942-21.562-21.562 1.402-1.413z" filter="url(#f)" opacity=".2" transform="matrix(1.5 0 0 1.5 -4 -28)"/><path fill="url(#g)" d="M22.895 18.502q-.147.005-.339.018c-.486.03-9.656 1.748-10.24 1.917-.617.18-1.144.557-1.272.916-.22.61.416 2.59 1.254 3.92 3.346 3.974 7.061 4.984 10.701 7.125.418.49.583.726-2.622 2.145-5.01 2.218-6.63 4.105-7.59 6.896-.283.825-.415 3.006-.215 3.555.259.711.415.854 5.255-.064 4.862-.922 4.46-.976 4.866-1.36.33-.313.35-.389.493-1.87.083-.847.255-2.504.381-2.943.292-1.019 1.026-2.083 1.826-2.646 3.032-2.135 8.74-1.07 11.83 2.205 1.164 1.234 1.895 2.996 2.478 4.91.336 1.104.678 1.584 1.209 1.69.488.096.5-.057 6.687-1.231 3.44-.654 4.873-.971 5.076-1.13.435-.338.436-1.167.003-2.537-.744-2.354-2.034-3.918-4.424-5.729-1.182-.896-2.675-1.742-5.203-2.953-2.404-1.151-3.549-1.462-3.549-1.82 0-.296.944-.427 2.851-.998 4.18-1.25 6.193-3.005 6.193-6.253 0-1.425-.27-2.576-.688-2.949-.556-.496-1.533-.512-3.87-.09-7.488 1.355-6.972 1.302-7.32 1.866-.185.298-.177.368.162 1.723.194.776.35 1.748.35 1.974-.004.479-.627 1.28-.931 1.566-.746.698-2.436 1.173-4.167 1.173-2.093 0-3.67-.72-5.238-2.388-1.132-1.206-1.71-2.373-2.481-4.52-.678-1.885-.77-2.13-1.467-2.119z" enable-background="new"/></svg>