<svg xmlns="http://www.w3.org/2000/svg" viewBox="0 0 64 64"><defs><filter id="a" width="2.656" height="2.242" x="-.828" y="-.621" color-interpolation-filters="sRGB"><feGaussianBlur stdDeviation="1.035"/></filter></defs><rect width="64" height="64" fill="none" rx="0" ry="0" style="paint-order:stroke fill markers"/><rect width="56.002" height="56.002" x="4" y="3.969" fill="#106b92" rx="13.002" ry="13.002"/><circle cx="32.02" cy="32.044" r="30.001" fill="none"/><g stroke-width="1.327"><path fill="#dfa534" d="m16.394 22.963-.664 2.655c5.221 6.218 5.974 10.62 13.94 10.62 2.654 0 4.477-1.107 6.637-2.655l1.327 1.327-1.327-.663c-.764 1.327-2.492 3.319-6.638 3.319-2.655 0-4.256-.666-5.31-1.328 0 2.655 1.328 1.328 1.328 3.319 0 1.876-1.976 3.65-3.765 5.062a19.9 19.9 0 0 0 13.057 4.894 19.9 19.9 0 0 0 11.94-4c-1.325-3.968-2.647-5.307-2.647-13.257l-9.293-9.292z"/><circle cx="15.731" cy="23.627" r="1.991" fill="#ffc68c"/><path fill="#f9d920" d="M37.634 14.998c-4.045 0-6.655 2.217-7.58 5.31h-7.022l6.637 2.655c6.638 7.965 15.93 10.62 15.93 10.62 0-6.638 1.328-5.31 1.328-10.62 0-4.4-4.16-7.965-9.293-7.965"/></g><path d="M34.071 21.717c0 1.5-1 2.5-2 2.5-.529 0-1-.563-1-1.5 0-1.5 1.172-2.5 2-2.5.673 0 1 .6 1 1.5" filter="url(#a)" opacity=".1" transform="translate(-10.25 -9.185)scale(1.3275)"/><path fill="#fff" d="M33.652 18.317c0 1.991-1.327 3.319-2.655 3.319-.702 0-1.327-.748-1.327-1.991 0-1.992 1.555-3.32 2.654-3.32.894 0 1.328.797 1.328 1.992"/><path d="M3.999 45.998V47A12.975 12.975 0 0 0 17 60.002h30A12.975 12.975 0 0 0 60.002 47v-1.002A12.975 12.975 0 0 1 47 59H17A12.975 12.975 0 0 1 4 45.998z" opacity=".15"/><path fill="#fff" d="M3.999 18.002v-.994A12.975 12.975 0 0 1 17 4.006h30a12.975 12.975 0 0 1 13.002 13.002v1.002A12.975 12.975 0 0 0 47 5.008H17A12.975 12.975 0 0 0 4 18.01z" opacity=".15"/></svg>