<svg xmlns="http://www.w3.org/2000/svg" viewBox="0 0 16.933 16.933"><rect width="14.817" height="14.817" x="1.058" y="1.05" fill="#1eadf4" rx="3.44" ry="3.44" style="fill:#00a69c;fill-opacity:1"/><circle cx="8.472" cy="8.478" r="7.938" fill="none"/><path d="M1.058 12.17v.265a3.433 3.433 0 0 0 3.44 3.44h7.937a3.433 3.433 0 0 0 3.44-3.44v-.265a3.433 3.433 0 0 1-3.44 3.44H4.498a3.433 3.433 0 0 1-3.44-3.44" opacity=".15" style="stroke-width:.264578"/><path fill="#fff" d="M1.058 4.763V4.5a3.433 3.433 0 0 1 3.44-3.44h7.937a3.433 3.433 0 0 1 3.44 3.44v.264a3.433 3.433 0 0 0-3.44-3.44H4.498a3.433 3.433 0 0 0-3.44 3.44" opacity=".15" style="stroke-width:.264578"/><rect width="13.229" height="13.213" x="1.852" y="1.86" fill="#fff" opacity=".15" rx="2.646" ry="2.646"/><path d="M5.912 3.869 3.869 5.912l1.91 1.91 2.879-1.208Zm4.51 2.642L4.927 8.813l2.516.675.674 2.516Zm-.104 1.764-1.207 2.88 1.91 1.91 2.043-2.044Z" style="fill:#fff;fill-opacity:1;fill-rule:nonzero;stroke:none;stroke-width:.12017"/></svg>