<svg xmlns="http://www.w3.org/2000/svg" viewBox="0 0 64 64"><rect width="56.002" height="56.002" x="4" y="3.969" fill="#f9484b" rx="13.002" ry="13.002"/><path d="M3.998 45.998v1c0 7.203 5.8 13.004 13.004 13.004h29.996c7.203 0 13.004-5.8 13.004-13.004v-1c0 7.203-5.8 13.002-13.004 13.002H17.002A12.975 12.975 0 0 1 3.998 45.998" opacity=".15"/><path fill="#fff" d="M3.998 18.004v-1C3.998 9.801 9.798 4 17.002 4h29.996c7.203 0 13.004 5.8 13.004 13.004v1c0-7.203-5.8-13.002-13.004-13.002H17.002A12.975 12.975 0 0 0 3.998 18.004" opacity=".15"/><path fill="#fff" d="M22.895 18.502q-.147.005-.339.018c-.486.03-9.656 1.748-10.24 1.917-.617.18-1.144.557-1.272.916-.22.61.416 2.59 1.254 3.92 3.346 3.974 7.061 4.984 10.701 7.125.418.49.583.726-2.622 2.145-5.01 2.218-6.63 4.105-7.59 6.896-.283.825-.415 3.006-.215 3.555.259.711.415.854 5.255-.064 4.862-.922 4.46-.976 4.866-1.36.33-.313.35-.389.493-1.87.083-.847.255-2.504.381-2.943.292-1.019 1.026-2.083 1.826-2.646 3.032-2.135 8.74-1.07 11.83 2.205 1.164 1.234 1.895 2.996 2.478 4.91.336 1.104.678 1.584 1.209 1.69.488.096.5-.057 6.687-1.231 3.44-.654 4.873-.971 5.076-1.13.435-.338.436-1.167.003-2.537-.744-2.354-2.034-3.918-4.424-5.729-1.182-.896-2.675-1.742-5.203-2.953-2.404-1.151-3.549-1.462-3.549-1.82 0-.296.944-.427 2.851-.998 4.18-1.25 6.193-3.005 6.193-6.253 0-1.425-.27-2.576-.688-2.949-.556-.496-1.533-.512-3.87-.09-7.488 1.355-6.972 1.302-7.32 1.866-.185.298-.177.368.162 1.723.194.776.35 1.748.35 1.974-.004.479-.627 1.28-.931 1.566-.746.698-2.436 1.173-4.167 1.173-2.093 0-3.67-.72-5.238-2.388-1.132-1.206-1.71-2.373-2.481-4.52-.678-1.885-.77-2.13-1.467-2.119z" opacity=".8"/></svg>