<svg xmlns="http://www.w3.org/2000/svg" xmlns:xlink="http://www.w3.org/1999/xlink" xml:space="preserve" width="64" height="64"><defs><linearGradient id="a" x1="7.937" x2="7.937" y1="15.081" y2="1.852" gradientTransform="scale(3.7796)" gradientUnits="userSpaceOnUse"><stop offset="0" stop-color="#f1efeb"/><stop offset="1" stop-color="#fdfcfc"/></linearGradient><linearGradient id="d" x1="10" x2="18" y1="-4.293" y2="-.293" gradientUnits="userSpaceOnUse"><stop offset="0%" stop-color="#3d3846"/><stop offset="100%" stop-color="#241e30"/></linearGradient><linearGradient id="e" x1="2" x2="10" y1="73.707" y2="77.707" gradientUnits="userSpaceOnUse"><stop offset="0%" stop-color="#3d3846"/><stop offset="100%" stop-color="#241e30"/></linearGradient><linearGradient id="f" x1="10" x2="18" y1="77.707" y2="81.707" gradientUnits="userSpaceOnUse"><stop offset="0%" stop-color="#3d3846"/><stop offset="100%" stop-color="#241e30"/></linearGradient><linearGradient id="g" x1="15.832" x2="4" y1="12" y2="0" gradientTransform="translate(-35.985 68.407)scale(.38546)" gradientUnits="userSpaceOnUse"><stop offset="0%" stop-color="#afafaf"/><stop offset="8.667%" stop-color="#a7a6a3"/><stop offset="19.083%" stop-color="#c9c9c7"/><stop offset="62.596%" stop-color="#fffffe"/><stop offset="100%" stop-color="#f4f4f4"/></linearGradient><linearGradient xlink:href="#a" id="b" x1="7.937" x2="7.937" y1="15.081" y2="1.852" gradientTransform="matrix(3.79221 0 0 3.63822 -.018 .062)" gradientUnits="userSpaceOnUse"/><clipPath id="c"><path d="M0 0h20v90H0Z"/></clipPath></defs><rect width="56" height="56" x="4" y="4" fill="url(#a)" rx="13" ry="13" style="fill:#9a9996;fill-opacity:1"/><path d="M17.038 3.913h30.1c7.226 0 13.044 5.581 13.044 12.514v28.877S47.25 57.818 47.138 57.818h-30.1c-7.226 0-13.043-5.58-13.043-12.514V16.427c0-6.933 5.817-12.514 13.043-12.514" style="fill:url(#b);stroke-width:.982754"/><path d="M-53.39 48.609h17.1v17.268h-17.1a3.09 3.09 0 0 1-3.09-3.09V51.699a3.09 3.09 0 0 1 3.09-3.089" style="fill:#3484e4;fill-rule:nonzero;stroke:none;stroke-width:.308357" transform="translate(93.846 -45.684)scale(1.33333)"/><g clip-path="url(#c)" clip-rule="evenodd" style="fill:none;stroke:none" transform="translate(42.07 11.749)scale(.41114)"><path d="M2 8C.892 8 0 7.108 0 6s.892-2 2-2h3.172L8.586.586a2 2 0 0 1 2.828 0L14.828 4H18c1.108 0 2 .892 2 2s-.892 2-2 2h-4a2.1 2.1 0 0 1-.746-.145l-.02-.008-.011-.006a2 2 0 0 1-.63-.422l-.072-.07L10 4.828l-2.52 2.52-.074.072a2 2 0 0 1-.662.435 2 2 0 0 1-.453.121A2 2 0 0 1 6 8Z" style="fill:url(#d);fill-rule:nonzero;stroke:none" transform="translate(0 82)"/><path d="M0 2a2 2 0 0 1 4 0v78a2 2 0 1 1-4 0Z" style="fill:url(#e);fill-rule:evenodd;stroke:none" transform="translate(8 4)"/><path d="M2 0C.892 0 0 .892 0 2s.892 2 2 2h3.172l3.414 3.414a2 2 0 0 0 2.828 0L14.828 4H18c1.108 0 2-.892 2-2s-.892-2-2-2h-4a2.1 2.1 0 0 0-.746.145l-.02.008-.011.006a2 2 0 0 0-.63.422q-.036.034-.071.07L10 3.171 7.48.653Q7.444.615 7.406.58a2 2 0 0 0-.662-.435 2 2 0 0 0-.453-.122A2 2 0 0 0 6 0Z" style="fill:url(#f);fill-rule:nonzero;stroke:none"/></g><path d="M-54.556 62.67V51.241h7.685v1.496h-5.982v3.366h5.537v1.48h-5.537v3.59h5.982v1.495zm12.232.161q-1.05 0-1.848-.529-.789-.537-1.227-1.48-.437-.951-.437-2.201t.437-2.194q.445-.95 1.235-1.48.789-.537 1.833-.537.53 0 .997.154.468.146.843.437.383.291.645.744h.015v-4.502h1.618V62.67H-39.8v-1.235h-.016a2.9 2.9 0 0 1-.66.783q-.383.306-.85.46a3.2 3.2 0 0 1-.998.153m.33-1.396q.69 0 1.197-.345.514-.353.79-.989.283-.636.283-1.48 0-.86-.283-1.488a2.2 2.2 0 0 0-.79-.982q-.507-.352-1.197-.352-.651 0-1.15.322-.491.321-.775.95-.276.63-.276 1.55 0 .912.276 1.541.285.621.775.951.498.322 1.15.322" style="fill:#fffdf8;fill-rule:nonzero;stroke:none;stroke-width:.308357" transform="translate(93.846 -45.684)scale(1.33333)"/><path d="m-25.322 68.407-8.35 8.48s-.772.77-1.542.77h-.771c.817 0 1.541-.706 1.541-1.541V71.49a3.084 3.084 0 0 1 3.084-3.083z" style="fill:url(#g);fill-rule:nonzero;stroke:none;stroke-width:.385457" transform="translate(93.846 -45.684)scale(1.33333)"/></svg>