<svg xmlns="http://www.w3.org/2000/svg" width="64" height="64"><defs><linearGradient id="a" x1="7.937" x2="7.937" y1="15.081" y2="1.852" gradientTransform="scale(3.7796)" gradientUnits="userSpaceOnUse"><stop offset="0" stop-color="#0e71de" style="stop-color:#315982;stop-opacity:1"/><stop offset="1" stop-color="#25c9ff" style="stop-color:#518fcd;stop-opacity:1"/></linearGradient><filter id="b" width="1.303" height="1.285" x="-.152" y="-.143" style="color-interpolation-filters:sRGB"><feGaussianBlur stdDeviation="2.021"/></filter></defs><rect width="56" height="56" x="4" y="4" fill="url(#a)" rx="13" ry="13" style="fill:url(#a)"/><path d="M15.998 16.518v34h7.273v-17l4.364 8.727h8.726l4.364-8.729v17h7.273V16.52h-7.273l-8.727 17.727-8.727-17.727Z" style="fill:#000;filter:url(#b);opacity:.15"/><path fill="#d19947" d="M15.999 14.999v4.912l16 17.89 15.999-17.89V15h-7.273l-8.727 17.727L23.271 15z"/><path fill="#f5d63d" d="M15.999 18.998v30h7.272v-17l4.364 8.726h8.727l4.363-8.727v17h7.273V18.999h-7.273l-8.727 17.073-8.727-17.073z"/></svg>