<svg xmlns="http://www.w3.org/2000/svg" viewBox="0 0 64 64"><rect width="56.002" height="56.002" x="4" y="3.969" fill="#4f495a" rx="13.002" ry="13.002"/><path d="M3.998 45.998v1c0 7.203 5.8 13.004 13.004 13.004h29.996c7.203 0 13.004-5.8 13.004-13.004v-1c0 7.203-5.8 13.002-13.004 13.002H17.002A12.975 12.975 0 0 1 3.998 45.998" opacity=".35"/><path fill="#fff" d="M3.998 18.004v-1C3.998 9.801 9.798 4 17.002 4h29.996c7.203 0 13.004 5.8 13.004 13.004v1c0-7.203-5.8-13.002-13.004-13.002H17.002A12.975 12.975 0 0 0 3.998 18.004" opacity=".15"/><linearGradient id="a" x1="4" x2="124" y1="96.01" y2="96.01" gradientTransform="translate(-36 -30)" gradientUnits="userSpaceOnUse"><stop offset="0" stop-color="#b0b0b0"/><stop offset=".078" stop-color="#c0bfbc"/><stop offset=".193" stop-color="#b0b0b0"/><stop offset=".802" stop-color="#b0b0b0"/><stop offset=".927" stop-color="#c0bfbc"/><stop offset="1" stop-color="#b0b0b0"/></linearGradient><path fill="url(#a)" fill-rule="evenodd" d="M75.777 82.363a1.96 1.96 0 0 0 1.617-.84C84.082 71.847 88 60.11 88 47.453c0-33.137-26.863-60-60-60s-60 26.863-60 60c0 12.656 3.918 24.395 10.605 34.07.363.531.973.84 1.617.84z" transform="matrix(.4 0 0 .4 20.8 16.055)"/><path fill="#eaeaea" fill-rule="evenodd" d="M51.11 46.819c.259 0 .5-.123.648-.336A23.9 23.9 0 0 0 56 32.855c0-13.255-10.746-24-24-24S8 19.6 8 32.855c0 5.06 1.567 9.756 4.242 13.628a.78.78 0 0 0 .647.336z"/><path fill="#303030" fill-rule="evenodd" d="M51.812 40.71c.33 0 .629-.203.74-.514a21.8 21.8 0 0 0 1.265-7.341c0-12.05-9.767-21.819-21.817-21.819s-21.82 9.769-21.82 21.819a21.8 21.8 0 0 0 1.266 7.34c.11.312.41.515.739.515z"/><path fill="#241f31" fill-rule="evenodd" d="M51.812 40.71c.33 0 .629-.203.74-.514a21.8 21.8 0 0 0 1.265-7.341c0-12.05-9.767-21.819-21.817-21.819s-21.82 9.769-21.82 21.819a21.8 21.8 0 0 0 1.266 7.34c.11.312.41.515.739.515z"/><path fill="#3584e4" d="M48.4 35.747a.773.773 0 0 0 .91-.652 17.45 17.45 0 0 0-10.088-18.13 17.46 17.46 0 0 0-20.808 4.93 17.4 17.4 0 0 0-3.372 6.824 17.4 17.4 0 0 0-.29 6.822.77.77 0 0 0 .926.628l5.273-1.072c.433-.087.71-.509.655-.948a10.48 10.48 0 0 1 2.242-7.869 10.47 10.47 0 0 1 16.13-.207 10.46 10.46 0 0 1 2.444 7.81c-.044.438.243.854.678.93z"/><path fill="#ed333b" d="M48.4 35.747a.773.773 0 0 0 .91-.652 17.47 17.47 0 0 0-4.607-14.21.77.77 0 0 0-1.119.005l-3.743 3.866c-.308.317-.297.822-.004 1.153a10.5 10.5 0 0 1 2.584 7.972c-.043.44.245.855.679.932z"/><path fill="#fff" d="M19.966 20.82a.437.437 0 0 1 .617 0l1.234 1.235a.437.437 0 0 1-.617.617l-1.234-1.234a.437.437 0 0 1 0-.617m22.217 1.851a.437.437 0 0 1 0-.617l1.234-1.234a.437.437 0 0 1 .617.617L42.8 22.672a.437.437 0 0 1-.617 0M25.49 17.131a.435.435 0 0 1 .568.238l.669 1.612a.436.436 0 1 1-.807.333l-.668-1.612a.437.437 0 0 1 .237-.57m19.816 10.212a.437.437 0 0 1 .236-.57l1.612-.667a.436.436 0 1 1 .335.806l-1.613.667a.436.436 0 0 1-.57-.236m-6.791-10.213a.437.437 0 0 1 .236.57l-.669 1.613a.436.436 0 1 1-.806-.333l.669-1.612a.436.436 0 0 1 .57-.238m-22.236 9.212a.436.436 0 0 1 .57-.236l1.613.667a.436.436 0 0 1-.333.806l-1.613-.667a.437.437 0 0 1-.237-.57M32 15.836c.242 0 .438.196.438.438v1.745a.436.436 0 0 1-.874 0v-1.745c0-.242.195-.438.436-.438"/><path fill="#d8d8d8" fill-rule="evenodd" d="M33.83 34.046a2.181 2.181 0 1 1-3.147-2.93q.102-.117.225-.225l13.81-11.878a.653.653 0 0 1 .926.913L33.96 33.902a2 2 0 0 1-.132.144z"/><path fill="#fff" d="M46.398 32.855c0-.24.197-.436.438-.436h1.745a.436.436 0 0 1 0 .872h-1.745a.437.437 0 0 1-.438-.436m-31.417 0c0-.24.196-.436.436-.436h1.745a.436.436 0 1 1 0 .872h-1.745a.436.436 0 0 1-.436-.436"/><path fill="#949390" d="M14.545 43.329h3.49v.871a1.745 1.745 0 1 1-3.49 0zm4.365 0h3.49v.871a1.745 1.745 0 1 1-3.49 0z"/><path fill="#d5d3cf" d="M18.036 43.329a1.745 1.745 0 1 1-3.49 0 1.745 1.745 0 0 1 3.49 0m4.364 0a1.745 1.745 0 1 1-3.49 0 1.745 1.745 0 0 1 3.49 0"/><path fill="#68676b" d="M32 31.981a.874.874 0 1 0 0 1.748.874.874 0 0 0 0-1.748"/></svg>