<svg xmlns="http://www.w3.org/2000/svg" xml:space="preserve" viewBox="0 0 16.933 16.933"><rect width="14.817" height="14.817" x="1.058" y="1.05" fill="#f2f2f2" rx="3.44" ry="3.44"/><path d="M1.058 12.17v.265a3.433 3.433 0 0 0 3.44 3.44h7.937a3.433 3.433 0 0 0 3.44-3.44v-.265a3.433 3.433 0 0 1-3.44 3.44H4.498a3.433 3.433 0 0 1-3.44-3.44" opacity=".1" style="stroke-width:.264578"/><path fill="#fff" d="M1.058 4.763V4.5a3.433 3.433 0 0 1 3.44-3.44h7.937a3.433 3.433 0 0 1 3.44 3.44v.264a3.433 3.433 0 0 0-3.44-3.44H4.498a3.433 3.433 0 0 0-3.44 3.44" opacity=".5" style="stroke-width:.264578"/><path d="m8.423 2.584-.013.001h-.004l-.043.003-.038.005a1 1 0 0 0-.093.019l-.006.001a.8.8 0 0 0-.35.205L3.08 7.616A.765.765 0 0 0 3.062 8.7l.035.035a.765.765 0 0 0 1.084-.018l3.474-3.473v8.267c0 .431.347.778.778.778a.777.777 0 0 0 .78-.778V5.244l3.473 3.473a.765.765 0 0 0 1.084.018l.035-.035a.765.765 0 0 0-.017-1.084L8.99 2.818h0a.8.8 0 0 0-.347-.204l-.003-.001-.008-.002a1 1 0 0 0-.09-.018l-.038-.005-.028-.002H8.47l-.032-.002z" style="opacity:1;fill:#82f6a1;fill-opacity:1;stroke:#000;stroke-width:0;stroke-linecap:round"/><text xml:space="preserve" x="3.236" y="9.439" style="font-style:normal;font-variant:normal;font-weight:700;font-stretch:normal;font-size:3.17494px;font-family:Calibri;-inkscape-font-specification:&quot;Calibri Bold&quot;;opacity:1;fill:#4d4d4d;stroke:#000;stroke-width:0;stroke-linecap:round"><tspan x="3.236" y="9.439" style="font-style:normal;font-variant:normal;font-weight:700;font-stretch:normal;font-family:Calibri;-inkscape-font-specification:&quot;Calibri Bold&quot;;stroke-width:0;fill:#4d4d4d">PUPGUI</tspan></text><path d="m7.511 10.02-.105.106-.637.636.105.106.637-.637.532.531.105.106.106-.106.531-.53.637.636.106-.106.637-.636-.105-.106-.638.637-.637-.637-.637.637-.532-.531Z" style="opacity:1;fill:#fe9208;fill-opacity:1;stroke:#000;stroke-width:0;stroke-linecap:round"/></svg>