<svg xmlns="http://www.w3.org/2000/svg" width="64" height="64"><defs><linearGradient id="a" x1="7.937" x2="7.937" y1="15.081" y2="1.852" gradientTransform="scale(3.7796)" gradientUnits="userSpaceOnUse"><stop offset="0" stop-color="#f1efeb"/><stop offset="1" stop-color="#fdfcfc"/></linearGradient></defs><rect width="56" height="56" x="4" y="4" fill="url(#a)" rx="13" ry="13" style="fill:url(#a)"/><path fill="#8b7441" d="m30.603 11.006-.99 2.968c-1.554.214-3.08.63-4.536 1.236l-2.366-2.1-2.422 1.4.635 3.108a18.3 18.3 0 0 0-3.304 3.304l-3.108-.634-1.4 2.422 2.1 2.366a18.3 18.3 0 0 0-1.237 4.536l-2.968.99v2.8l2.968.99c.215 1.554.63 3.08 1.237 4.536l-2.1 2.366 1.4 2.422 3.108-.635a17.6 17.6 0 0 0 3.178 3.22v-8.694h2.8c2.8 0 4.2-.42 4.2-1.4 0-.7-.509-1.247-1.61-2.87s-2.59-3.892-2.59-6.93c0-3.85 2.282-6.874 4.928-8.624 2.632-1.764 5.656-2.576 8.372-2.576h2.1a18.4 18.4 0 0 0-4.606-1.239L33.405 11zm8.4 4.2a18 18 0 0 1 4.2 2.464l.511-3.15-2.422-1.4zm4.2 2.464v8.736h-2.8c-4.2 0-2.898 1.932-1.19 4.27 1.103 1.652 2.59 3.892 2.59 6.93 0 3.85-2.282 6.874-4.928 8.624-2.632 1.764-5.656 2.576-8.372 2.576h-3.5c1.456.606 3.052 1.014 4.606 1.228l.99 2.968h2.8l.99-2.968c1.554-.214 3.08-.63 4.536-1.236l2.366 2.1 2.422-1.4-.634-3.108a18.3 18.3 0 0 0 3.304-3.304l3.108.634 1.4-2.422-2.1-2.366a18.3 18.3 0 0 0 1.236-4.536l2.968-.99v-2.8l-2.968-.987a18 18 0 0 0-1.222-4.564l2.072-2.338-1.4-2.422-3.066.626c-.964-1.255-1.974-2.296-3.22-3.248zm-18.2 31.08c-1.54-.636-2.884-1.484-4.2-2.506l-.51 3.192 2.421 1.4z"/><path fill="#5779c1" d="M36.903 18.006c-4.2 0-10.5 2.8-10.5 8.4 0 4.2 4.2 6.86 4.2 9.66 0 2.94-2.8 4.34-7 4.34v5.6h4.9c4.2 0 10.5-2.8 10.5-8.4 0-4.2-4.2-7-4.2-9.8 0-2.1 2.1-4.2 5.6-4.2v-5.6z"/></svg>