<svg xmlns="http://www.w3.org/2000/svg" xml:space="preserve" viewBox="0 0 64 64"><rect width="56.002" height="56.002" x="4" y="3.969" fill="#666" rx="13.002" ry="13.002"/><path d="M3.998 45.998v1c0 7.203 5.8 13.004 13.004 13.004h29.996c7.203 0 13.004-5.8 13.004-13.004v-1c0 7.203-5.8 13.002-13.004 13.002H17.002A12.975 12.975 0 0 1 3.998 45.998" opacity=".15"/><path fill="#fff" d="M3.998 18.004v-1C3.998 9.801 9.798 4 17.002 4h29.996c7.203 0 13.004 5.8 13.004 13.004v1c0-7.203-5.8-13.002-13.004-13.002H17.002A12.975 12.975 0 0 0 3.998 18.004" opacity=".15"/><circle cx="32.02" cy="32.044" r="30.001" fill="none"/><path fill="#ed902c" d="M34.37 17.784A16.586 16.586 0 0 0 17.783 34.37 16.586 16.586 0 0 0 34.37 50.957 16.586 16.586 0 0 0 50.956 34.37 16.586 16.586 0 0 0 34.37 17.784"/><path fill="#aa7662" d="M34.038 23.346c2.054.486 2.277 3.105 3.93 3.742 2.205.896 2.393-1.908 1.255-3.391"/><path fill="#aa7662" d="M31.299 9.886c-11.57-.01-21.102 9.517-21.407 21.536-.31 12.21 9.02 22.366 20.838 22.685 5.757.155 10.252-2.053 14.195-5.77.42-.352.65-.571.65-.571s4.275-4.487 4.505-8.191c-1.091 1.802-2.092 3.607-4.807 4.943-1.246.577-2.387 1.068-3.538 1.456l-.222.054q-.818.197-1.715.321l-.22.029a23 23 0 0 1-1.925.164q-.103.003-.207.004-.98.033-2-.007l-.132-.002c-.69-.03-.6-.093-1.301-.175l-.3-.032a29 29 0 0 1-2.043-.337l-.328-.067a27 27 0 0 1-2.586-.682c-.154-.05-.31-.097-.462-.15-.218-.074-.431-.155-.646-.235q-.263-.097-.522-.198c-.2-.08-.393-.168-.588-.253-.165-.073-.332-.142-.494-.218q-.53-.249-1.032-.523A10 10 0 0 1 22.782 42c-2.257-2.302-2.152-5.008-2.034-6.762.15-2.203 1.997-7.037 8.076-9.597 3.755-1.326 8.172-2.254 11.864-1.065 2.778.627 4.775 1.538 7.417 2.47 0 0-.022.047.708.228 5.137.813 4.56-3.419 4.56-3.419l-.402-.99c-.09-.522.301-.933.301-.933s-.316-1.167-.263-1.939c.054-.77.01-1.758-.157-3.168-.169-1.41-1.094-2.602-1.393-2.82-.301-.22-1.702-1.275-3.043-1.802-1.343-.526-2.7-.916-4.371-.68-.186.026-.362.054-.545.082-.032-.01-.057-.022-.093-.032-.637-.19-1.088-1.696-1.608-1.684a1.5 1.5 0 0 0-.245.026h-.002a2 2 0 0 0-.127.03 1 1 0 0 0-.136.05c-.305.142-.492 1.781-.607 2.13a20.76 20.76 0 0 0-9.383-2.239m11.78 35.681"/><path fill="#f0e7e4" d="M40.63 16.227c-2.314-.003-4.823.675-6.656 1.312-3.474 1.23-5.641 2.225-8.456 4.237-.747.542-3.68 2.696-5.463 5.7-4.927 8.71-1.44 17.957 4.93 20.06 7.004 2.618 13.708 3.375 22.14-4.078-.725.581 0 0-4.046 2.11-4.77 1.777-12.409 1.206-18.066-1.9-4.552-2.518-4.095-6.226-3.947-8.43.15-2.203 1.68-7.037 7.76-9.597 3.755-1.326 8.171-2.254 11.863-1.065 2.778.627 4.775 1.76 7.416 2.693 0 0-.022.046.708.226 5.137.814 5.303-3.707 5.303-3.707l-.147-.823-.447-1.118-.213-.479-.128-.26s-.037-.326-.09-.658c-.098 1.24-.592 1.915-.592 1.915-3.992-.757-4.706-4.2-8.916-5.645-.89-.35-1.9-.491-2.953-.493m6.496 27.231c.465-.372.69-.626.69-.626q-.346.323-.69.626"/><path fill="#aa7662" d="m19.391 27.432-.024.197c1.607-.081 3.576.267 5.036 1.291 1.133.765 2.153 1.905 3.605 1.39.992-.349 1.047-.938.667-1.907-.321-.789-.853-2.15-1.51-2.671-.945-.749-3.391-.488-3.514-2.053-.092-.74.374-1.297.787-1.836 0 0-4.736 1.19-5.047 5.589"/><path fill="#3f3f3f" d="M52.575 22.522s-.182.574-1.036.624-.707 1.24.034 1.904c.74.666 1.32.848 1.814.338s1.705-1.356-.812-2.866m-5.112-2.182a1.583 1.583 0 0 1-2.49-1.955 1.58 1.58 0 0 1 2.216-.263c.688.54.81 1.533.274 2.219zm6.214.09c-.047.608-.434 1.066-.866 1.02-.43-.045-.742-.575-.694-1.186.046-.608.433-1.065.864-1.02.431.047.743.576.696 1.185z"/><path fill="#fff" d="M31.299 9.887c-11.57-.01-21.102 9.516-21.406 21.535-.004.15 0 .297 0 .446.304-12.02 9.836-21.548 21.406-21.538q.274.001.55.01c3.17.086 6.159.88 8.832 2.23.116-.349.303-1.988.608-2.13a1 1 0 0 1 .136-.051q.065-.017.127-.03h.002a2 2 0 0 1 .245-.025c.52-.012.972 1.495 1.609 1.684.035.01.06.02.092.031.183-.027.359-.056.545-.082 1.671-.235 3.028.153 4.37.68 1.343.526 2.743 1.584 3.044 1.803.3.219 1.224 1.41 1.392 2.82.111.93.164 1.664.174 2.285.016-.703-.035-1.57-.174-2.73-.168-1.41-1.093-2.602-1.392-2.82-.3-.22-1.701-1.275-3.043-1.802-1.343-.526-2.7-.917-4.371-.681-.186.026-.362.054-.545.082-.033-.01-.057-.021-.092-.031-.637-.19-1.089-1.696-1.61-1.684a1.5 1.5 0 0 0-.244.025h-.002q-.062.013-.127.032a1 1 0 0 0-.136.048c-.305.142-.492 1.782-.608 2.131A20.75 20.75 0 0 0 31.3 9.887zm21.718 10.351c-.003.065-.003.138-.007.2-.04.581.103 1.242.19 1.603.024-.031.073-.11.073-.11s-.244-.94-.256-1.693m-.027 2.676a.95.95 0 0 0-.02.395l.403.99.012.125a4 4 0 0 0-.012-.569zM20.703 36.795c-.022 1.673.255 3.789 2.078 5.649a10 10 0 0 0 2.23 1.668q.503.274 1.033.523c.162.076.33.144.495.217.194.085.388.173.587.254.172.07.347.132.522.197.214.08.428.162.646.236.153.053.307.1.461.149a27 27 0 0 0 2.586.684l.328.066c.679.135 1.361.25 2.043.336.1.013.201.021.301.033.701.082.611.145 1.301.176.044.002.089 0 .133.002q1.018.04 1.998.006c.068-.003.14-.001.209-.004a23 23 0 0 0 2.144-.194 18 18 0 0 0 1.936-.375c1.15-.388 2.294-.878 3.54-1.455 2.657-1.308 3.67-3.066 4.735-4.83a6 6 0 0 0 .07-.558c-1.09 1.802-2.09 3.606-4.806 4.943-1.245.577-2.389 1.067-3.539 1.455l-.22.055a18 18 0 0 1-1.716.322l-.22.027q-.931.12-1.924.164-.103.003-.21.004-.979.035-1.997-.006l-.133-.002c-.69-.03-.6-.094-1.3-.175-.1-.012-.201-.019-.302-.032a29 29 0 0 1-2.042-.337l-.329-.067a27 27 0 0 1-2.586-.682 23 23 0 0 1-.46-.15 23 23 0 0 1-.647-.234c-.175-.066-.35-.13-.522-.2q-.297-.122-.587-.251c-.166-.073-.333-.143-.495-.22-.352-.165-.699-.34-1.033-.523A10 10 0 0 1 22.781 42c-1.663-1.697-2.041-3.612-2.078-5.205" opacity=".15"/></svg>