<svg xmlns="http://www.w3.org/2000/svg" viewBox="0 0 64 64"><rect width="56.002" height="56.002" x="4" y="3.969" fill="#0c77ba" rx="13.002" ry="13.002"/><circle cx="32.02" cy="32.044" r="30.001" fill="none"/><path d="M3.998 45.998v1c0 7.203 5.8 13.004 13.004 13.004h29.996c7.203 0 13.004-5.8 13.004-13.004v-1c0 7.203-5.8 13.002-13.004 13.002H17.002A12.975 12.975 0 0 1 3.998 45.998" opacity=".15"/><path fill="#fff" d="M3.998 18.004v-1C3.998 9.801 9.798 4 17.002 4h29.996c7.203 0 13.004 5.8 13.004 13.004v1c0-7.203-5.8-13.002-13.004-13.002H17.002A12.975 12.975 0 0 0 3.998 18.004" opacity=".15"/><path fill="#f9f9f9" d="M50.036 18.846 25.19 20.308l-2.923 9.782 24.846 3.006zm-28.5 12.423-9.5 1.462 23.385 6.576 10.231-4.384zm-2.797 4.864L16.42 40.77l5.846-1.462.785-1.96zm21.965 2.498-5.184 2.22-.614-.17-1.679 4.473 6.577-2.923z" style="paint-order:normal"/></svg>