<svg xmlns="http://www.w3.org/2000/svg" width="64" height="64" viewBox="0 0 16.933 16.933"><defs><filter id="l" width="1.399" height="1.646" x="-.199" y="-.323" color-interpolation-filters="sRGB"><feGaussianBlur stdDeviation="1.061"/></filter><filter id="k" width="1.02" height="1.032" x="-.01" y="-.016" color-interpolation-filters="sRGB"><feGaussianBlur stdDeviation=".03"/></filter><filter id="i" width="1.108" height="1.174" x="-.054" y="-.087" color-interpolation-filters="sRGB"><feGaussianBlur stdDeviation=".086"/></filter><filter id="j" width="1.099" height="1.161" x="-.05" y="-.08" color-interpolation-filters="sRGB"><feGaussianBlur stdDeviation=".762"/></filter><filter id="n" width="1.399" height="1.646" x="-.199" y="-.323" color-interpolation-filters="sRGB"><feGaussianBlur stdDeviation=".512"/></filter><filter id="h" width="1.1" height="1.161" x="-.05" y="-.081" color-interpolation-filters="sRGB"><feGaussianBlur stdDeviation=".128"/></filter><filter id="m" width="1.389" height="1.631" x="-.195" y="-.315" color-interpolation-filters="sRGB"><feGaussianBlur stdDeviation="2.988"/></filter><filter id="f" width="1.219" height="1.26" x="-.11" y="-.13" color-interpolation-filters="sRGB"><feGaussianBlur stdDeviation=".152"/></filter><filter id="g" width="1.379" height="1.485" x="-.19" y="-.243" color-interpolation-filters="sRGB"><feGaussianBlur stdDeviation=".152"/></filter><linearGradient id="b" x1="8.467" x2="8.467" y1="280.6" y2="296.47" gradientTransform="translate(8.983 -96.719)scale(.37645)" gradientUnits="userSpaceOnUse"><stop offset="0" stop-color="#666"/><stop offset="1" stop-color="#9f9f9f"/></linearGradient><linearGradient id="c" x1="8.467" x2="8.467" y1="282.18" y2="294.88" gradientTransform="translate(9.021 -95.424)scale(.37199)" gradientUnits="userSpaceOnUse"><stop offset="0" stop-color="#333"/><stop offset="1" stop-color="#666"/></linearGradient><linearGradient id="d" x1="8.467" x2="8.467" y1="283.24" y2="293.82" gradientTransform="translate(9.021 -95.424)scale(.37199)" gradientUnits="userSpaceOnUse"><stop offset="0"/><stop offset="1" stop-color="#121212"/></linearGradient><linearGradient id="a" x1="8.467" x2="8.467" y1="-2.92" y2="19.84" gradientTransform="translate(9.021 8.759)scale(.37199)" gradientUnits="userSpaceOnUse"><stop offset="0" stop-color="#ccc"/><stop offset="1" stop-color="#ebebeb"/></linearGradient><radialGradient id="e" cx="-136.99" cy="198.65" r="38.5" gradientTransform="matrix(.03653 0 0 .03068 17.174 5.813)" gradientUnits="userSpaceOnUse"><stop offset="0" stop-color="#2561db" stop-opacity=".941"/><stop offset="1" stop-color="#0d0d0d"/></radialGradient></defs><path fill="#f6f6f6" d="M4.63 1.555a3.2 3.2 0 0 0-3.073 3.193v7.422a3.2 3.2 0 0 0 3.208 3.2h7.404a3.2 3.2 0 0 0 3.208-3.21V4.758a3.2 3.2 0 0 0-3.073-3.202z"/><path fill="#d1d1d1" d="M3.935 15.157c-1.015-.312-1.89-1.125-2.169-2.165-.115-2.01-.168-4.027-.18-6.04.04-.212-.106-.272.333-.327.574-.044 1.154-.088 1.707-.198.856-.306 1.774-.185 2.668-.316.566-.126 1.143-.257 1.676.038.522.277 1.066.08 1.615.345.564.113 1.147.422 1.725.272.568-.356.582-1.102.93-1.624.255-.455.626-1.298 1.269-.943.677.341 1.34.755 1.868 1.303-.012 2.368.031 4.737-.038 7.104-.048 1.258-1.074 2.366-2.266 2.678-1.318.149-2.65.065-3.974.089-1.637-.02-3.28.042-4.91-.12-.102.015-.173-.054-.254-.096"/><path fill="#6e6e6e" d="M2.244 14.092c-.41-.442-.625-1.06-.653-1.66a4.6 4.6 0 0 0-.035-.763c.148-.13.85-.172.927.235.395.376.853.73 1.247 1.165.42.278.943-.41 1.46-.048.613.043 1.25.091 1.877.235.398.042 1.12.264 1.058-.225.377-.597.62.398 1.107.074.292.059.45.501.829.348.379.362 1.284.792 1.584.25.24-.082 1.016.195.705-.334-.541-.407-.367-.92.1-1.292.405-.48.902-.162 1.387-.394.288 0 .657-.19.863.095.32.17.586.624.02.565-.313.098-1.26.383-.562.554-.07.352.565.424.585.032.092-.268.243-.262.437-.29-.031-.61.318.036.048.276-.205 1.143-1.121 2.023-2.209 2.336-.421.19-.894.073-1.342.108zm8.984.81c.406-.241.16-.628-.23-.373-.71.091-.11.5.23.373m1.976-.29c.323.03.658-.373.143-.241-.35.017-1.2.387-.143.241m-.276-.935c-.094-.16-.063.148 0 0m1.722-.344c-.16-.04.08.228 0 0m.43-.485c-.167-.235-.273.28 0 0m-.744.178c.009-.189.137.191 0 0m.981-.73c.001-.156.148.142 0 0m-.079-1.413c-1.316-.574-1.995-1.864-2.901-2.886-.258-.628-.901-1.16-.432-1.868.219-.662.557-1.3 1.003-1.834.483.02.69.505.975.75.26.493.805.816 1.242 1.193.506.372.125 1.199.25 1.75.002.987.003 1.974-.01 2.96zM9.006 8.968c-.384-.49-1.159-1.102-.883-1.753.247-.5.566-1.11 1.201-.685.632.199 1.325.257 1.9.6.17.31 1.221.694.542.902-.881.339-1.756.693-2.64 1.025zM7.911 6.533c-.526-.368-1.165.059-1.759-.101-.145-.14-.785.208-.875.057.603-.174 1.23-.267 1.837-.432.4-.013.93.105 1.193.386-.056.158-.272.123-.396.09m7.388-.566c.063-.194.084.268 0 0m-.343-.264c-.237-.486-.743-.828-1.21-1.122-.559-.497.453.064.628.225.244.268 1.08.556.915.886-.119.04-.234.268-.333.011m-.903-.795c-.06-.206.21.178 0 0"/><path fill="#333" d="M4.373 15.287c-.542.08-.108-1.147-.736-.868-.377.597-1.236.187-1.36-.399-.457-.366-.677-1.05-.65-1.596.378.247.45-.384.127-.243-.147.276-.04-.398.289-.11.936-.193 1.191.934 1.915 1.173.434-.38 1.036-.281 1.523-.097.756-.206 1.47.31 2.241.21.276.01.814-.009.433-.282.301-.588.393.255.747.13.46-.36.781.632 1.073.328.216-.036.821.61 1.302.496.349.08.535-.534.808-.162.725-.145.209-.719-.019-1.093.072-.592.734-1.088 1.325-.853.541-.239 1.25-.482 1.609.188-.086.359-1.137.259-1.16.711.293.365 1.154.717.863 1.275-.638.8-1.667 1.304-2.698 1.254l-6.199-.058zm8.587-1.577c.12-.33-.385.14 0 0m-9.556 1.31c-.526-.4.735.086.091.042zm11.514-1.589c.203-.713.102.608-.001 0zm-13.354-1.55c.073-.34.063.33 0 0m.76-.016c-.168.005-.998-.088-.405-.18.12-.183.76.259.405.18m12.77-1.261c-1.361-.822-2.377-2.102-3.194-3.442-.357-.497.11-1.108.255-1.61.249-.322.465-1.148.838-1.117.122.326.261.106.487.177-.277.194.277.234.064.54.571-.168-.243.577.317.289.236.068.234.386.247.433.283-.271.94.261.884.615.395-.309.42.002.383.308-.002 1.32.006 2.64-.01 3.959q-.138-.072-.271-.152m-1.141-4.738c-.09-.211-.134.129 0 0m-5.286 2.66c-.485-.474-.838-1.19-.26-1.73.227-.628.808-.15 1.296-.13.624.177 1.345.226 1.788.764.159.194.82.44.288.555-.886.305-1.746.703-2.65.955-.2-.062-.319-.272-.462-.414m-.741-2.063c-.68-.3.764-.141.215.019l-.096-.006zM6.789 6.32c-.097-.472.63.097 0 0m.584-.163c-.655-.254.622.086 0 0m7.865-.522c-.361-.245-.744-.531-1.005-.881.267.242 1.205.671 1.043.89l-.035-.008z"/><path d="M4.498 1.058a3.433 3.433 0 0 0-3.44 3.44v7.937a3.433 3.433 0 0 0 3.44 3.44h7.937a3.433 3.433 0 0 0 3.44-3.44V4.498a3.433 3.433 0 0 0-3.44-3.44zm0 .802h7.937a2.63 2.63 0 0 1 2.638 2.638v7.937a2.63 2.63 0 0 1-2.638 2.638H4.498a2.63 2.63 0 0 1-2.638-2.638V4.498A2.63 2.63 0 0 1 4.498 1.86"/><circle cx="12.171" cy="11.906" r="4.233" fill="url(#a)"/><circle cx="12.171" cy="11.906" r="2.963" fill="url(#b)"/><circle cx="12.171" cy="11.906" r="2.362" fill="url(#c)"/><circle cx="12.171" cy="11.906" r="1.968" fill="url(#d)"/><circle cx="12.171" cy="11.906" r="1.531" fill="url(#e)" stroke="#0d224d" stroke-linecap="round" stroke-linejoin="round" stroke-width=".125"/><path fill="#4678cc" d="m4.945 6.47 1.464.81s.458-.477.772-.686c.348-.23 1.105-.416 1.093-.36l-.241-1.762S6.412 4.31 4.945 6.47" filter="url(#f)" opacity=".8" transform="translate(9.021 8.759)scale(.37199)"/><path fill="#4678cc" d="m4.788 6.73 1.565.695s-.089.202-.123.421c-.032.2.004.387.004.387l-1.806-.019s.072-1.036.36-1.484" filter="url(#g)" opacity=".8" transform="translate(9.021 8.759)scale(.37199)"/><ellipse cx="-228.33" cy="44.944" fill="#fff" fill-opacity=".3" filter="url(#h)" rx="3.083" ry="1.903" transform="rotate(-40.912 7.348 -31.641)scale(.0772)"/><ellipse cx="-228.1" cy="51.166" fill="#fff" fill-opacity=".3" filter="url(#i)" rx="1.918" ry="1.184" transform="rotate(-40.907 12.112 -24.09)scale(.05065)"/><ellipse cx="-222.03" cy="111.72" fill="#fff" filter="url(#j)" opacity=".2" rx="18.419" ry="11.368" transform="rotate(-33.778 11.587 -31.05)scale(.05314)"/><ellipse cx="-235.29" cy="75.046" fill="#fff" fill-opacity=".3" filter="url(#k)" rx="3.667" ry="2.263" transform="rotate(-40.907 11.95 -24.521)scale(.05065)"/><ellipse cx="-234.21" cy="88.759" fill="#fff" filter="url(#l)" rx="6.386" ry="3.941" transform="rotate(-40.915 9.167 -27.347)scale(.06164)"/><ellipse cx="-222.03" cy="111.72" fill="#4397ee" filter="url(#m)" opacity=".45" rx="18.419" ry="11.368" transform="rotate(-30.515 10.052 -38.207)scale(.06065)"/><ellipse cx="-228.33" cy="44.944" fill="#fff" fill-opacity=".854" filter="url(#n)" rx="3.083" ry="1.903" transform="rotate(-40.915 13.897 -21.12)scale(.04003)"/><ellipse cx="-228.1" cy="51.166" fill="#fff" fill-opacity=".3" filter="url(#i)" rx="1.918" ry="1.184" transform="rotate(-40.911 15.842 -19.681)scale(.03404)"/></svg>