<svg xmlns="http://www.w3.org/2000/svg" width="64" height="64" viewBox="0 0 16.933 16.933"><defs><linearGradient id="a" x1="-15.867" x2="-1.05" y1="8.466" y2="8.466" gradientUnits="userSpaceOnUse"><stop offset="0" stop-color="#575757"/><stop offset="1" stop-color="#868686"/></linearGradient><linearGradient id="c" x1="86.038" x2="85.917" y1="607.11" y2="527.29" gradientTransform="translate(-4.176 -76.609)scale(.14998)" gradientUnits="userSpaceOnUse"><stop offset="0" stop-color="#e11f1f"/><stop offset="1" stop-color="#ff7070"/></linearGradient><radialGradient id="d" cx="84.734" cy="567.23" r="21.637" gradientTransform="matrix(.14998 0 0 .14994 -4.176 -76.587)" gradientUnits="userSpaceOnUse"><stop offset="0" stop-color="#dd8d00" stop-opacity="0"/><stop offset=".534" stop-color="#f19900" stop-opacity=".498"/><stop offset="1" stop-color="#8d5900"/></radialGradient><filter id="b" width="1.175" height="1.132" x="-.087" y="-.066" color-interpolation-filters="sRGB"><feGaussianBlur stdDeviation="2.199"/></filter></defs><rect width="14.817" height="14.817" x="-15.867" y="1.058" fill="url(#a)" rx="3.44" ry="3.44" transform="rotate(-90)"/><g filter="url(#b)" opacity=".15" transform="translate(-4.176 -76.609)scale(.14998)"><path d="M84.618 546.13c-4.648 0-8.95 1.501-12.442 4.04 3.382 3.344 4.07 6.42 4.723 9.308-3.513-.93-6.57-2.618-9.052-4.801a21.06 21.06 0 0 0-4.218 12.675c0 4.648 1.501 8.95 4.04 12.442 3.344-3.383 6.42-4.32 9.308-4.975-.938 3.537-2.622 6.814-4.801 9.292a21.06 21.06 0 0 0 12.675 4.218c4.648 0 8.95-1.501 12.442-4.04-3.383-3.343-4.384-6.722-5.038-9.61 3.47.9 6.889 2.936 9.366 5.115a21.06 21.06 0 0 0 4.218-12.675c0-4.648-1.501-8.95-4.04-12.442-3.343 3.382-6.733 4.195-9.622 4.849.938-3.545 2.933-6.696 5.116-9.178a21.06 21.06 0 0 0-12.675-4.218"/><g stroke-width="0"><path d="M85.539 537.07c-16.644 0-30.145 13.49-30.145 30.133 0 16.645 13.5 30.134 30.145 30.134a30 30 0 0 0 15.516-4.295l-2.83-4.784a24.45 24.45 0 0 1-12.686 3.519c-13.573 0-24.584-11-24.584-24.574 0-13.572 11.01-24.573 24.584-24.573a24.45 24.45 0 0 1 12.664 3.508l2.963-4.706a30 30 0 0 0-15.627-4.362"/><path d="M84.618 546.13c-4.648 0-8.95 1.501-12.442 4.04 3.382 3.344 4.07 6.42 4.723 9.308-3.513-.93-6.57-2.618-9.052-4.801a21.06 21.06 0 0 0-4.218 12.675c0 4.648 1.501 8.95 4.04 12.442 3.344-3.383 6.42-4.32 9.308-4.975-.938 3.537-2.622 6.814-4.801 9.292a21.06 21.06 0 0 0 12.675 4.218c4.648 0 8.95-1.501 12.442-4.04-3.383-3.343-4.384-6.722-5.038-9.61 3.47.9 6.889 2.936 9.366 5.115a21.06 21.06 0 0 0 4.218-12.675c0-4.648-1.501-8.95-4.04-12.442-3.343 3.382-6.733 4.195-9.622 4.849.938-3.545 2.933-6.696 5.116-9.178a21.06 21.06 0 0 0-12.675-4.218"/><path d="m76.746 559.32.08 15.647 15.583-.143-.08-15.455z"/><path d="M86.038 527.29c-22.046 0-39.934 17.866-39.934 39.912 0 22.047 17.888 39.912 39.934 39.912 7.46 0 14.44-2.044 20.411-5.605l-3.207-5.416a33.54 33.54 0 0 1-17.403 4.828c-18.622 0-33.73-15.097-33.73-33.719 0-18.621 15.108-33.718 33.73-33.718a33.53 33.53 0 0 1 17.37 4.817l3.362-5.339c-6-3.607-13.02-5.672-20.533-5.672"/></g></g><path fill="url(#c)" d="M8.728 2.474a5.99 5.99 0 0 0-5.99 5.986 5.99 5.99 0 0 0 5.99 5.986 5.96 5.96 0 0 0 3.061-.84l-.48-.813a5.03 5.03 0 0 1-2.611.724 5.058 5.058 0 1 1 0-10.114 5.03 5.03 0 0 1 2.606.723l.503-.801a5.95 5.95 0 0 0-3.08-.85m-.075 1.467a4.52 4.52 0 1 0 0 9.039 4.5 4.5 0 0 0 2.327-.645l-.424-.717a3.67 3.67 0 0 1-1.903.527 3.686 3.686 0 1 1 0-7.37 3.67 3.67 0 0 1 1.9.526l.444-.706a4.5 4.5 0 0 0-2.344-.655"/><path fill="#ffaf27" d="M8.515 5.299c-.697 0-1.342.225-1.866.606.507.501.61.963.708 1.396A3.34 3.34 0 0 1 6 6.58a3.16 3.16 0 0 0-.633 1.9c0 .698.225 1.343.606 1.867.501-.507.963-.648 1.396-.746a3.5 3.5 0 0 1-.72 1.393 3.16 3.16 0 0 0 1.9.633c.698 0 1.343-.225 1.867-.606-.507-.501-.658-1.008-.756-1.441.52.135 1.034.44 1.405.767a3.16 3.16 0 0 0 .633-1.901c0-.697-.225-1.342-.606-1.866-.502.507-1.01.629-1.443.727.14-.532.44-1.004.767-1.376a3.16 3.16 0 0 0-1.901-.633"/><path fill="url(#d)" d="M8.515 5.299c-.697 0-1.342.225-1.866.606.507.501.61.963.708 1.396A3.34 3.34 0 0 1 6 6.58a3.16 3.16 0 0 0-.633 1.9c0 .698.225 1.343.606 1.867.501-.507.963-.648 1.396-.746a3.5 3.5 0 0 1-.72 1.393 3.16 3.16 0 0 0 1.9.633c.698 0 1.343-.225 1.867-.606-.507-.501-.658-1.008-.756-1.441.52.135 1.034.44 1.405.767a3.16 3.16 0 0 0 .633-1.901c0-.697-.225-1.342-.606-1.866-.502.507-1.01.629-1.443.727.14-.532.44-1.004.767-1.376a3.16 3.16 0 0 0-1.901-.633"/><path fill="none" d="m7.334 7.278.012 2.347 2.337-.022-.011-2.318z"/></svg>