<svg xmlns="http://www.w3.org/2000/svg" width="64" height="64"><defs><linearGradient id="a" x1="7.937" x2="7.937" y1="15.081" y2="1.852" gradientTransform="scale(3.7796)" gradientUnits="userSpaceOnUse"><stop offset="0" stop-color="#f1efeb"/><stop offset="1" stop-color="#fdfcfc"/></linearGradient><linearGradient id="c" x1="30" x2="30" y1="49" y2="15" gradientUnits="userSpaceOnUse"><stop offset="0" stop-color="#e5e9f0"/><stop offset="1" stop-color="#fefefe"/></linearGradient><linearGradient id="b" x1="50" x2="15" y1="55" y2="15" gradientUnits="userSpaceOnUse"><stop offset="0" stop-color="#746fe2"/><stop offset="1" stop-color="#bc7cd6"/></linearGradient></defs><rect width="56.002" height="56.002" x="4" y="3.969" fill="url(#a)" rx="13.002" ry="13.002"/><rect width="50" height="50" x="7" y="7" fill="url(#b)" rx="10" ry="10"/><rect width="34" height="34" x="15" y="15" fill="url(#c)" rx="3" ry="3"/><path fill="#9aa0aa" d="M34 42c-.554 0-1 .335-1 .75V45h1v-2h1v2h1v-2h1v2h1v-2.25c0-.415-.446-.75-1-.75zm8 0c-.554 0-1 .335-1 .75v1.5c0 .415.446.75 1 .75h3c.554 0 1-.335 1-.75v-1.5c0-.415-.446-.75-1-.75zm-2.5 1a.499.499 0 1 0 0 1 .499.499 0 1 0 0-1m2.5 0h3v1h-3z"/><path fill="#333" d="M22 15v5c0 1.662 1.338 3 3 3h14c1.662 0 3-1.338 3-3v-5z"/><path fill="#fbe604" d="M26 19v1h4v-1zm8 0v1h4v-1z"/><path d="M17 7C11.46 7 7 11.46 7 17v30c0 5.54 4.46 10 10 10h30c5.54 0 10-4.46 10-10V17c0-5.54-4.46-10-10-10zm.045.51h29.91a9.515 9.515 0 0 1 9.535 9.535v29.91a9.515 9.515 0 0 1-9.535 9.535h-29.91a9.515 9.515 0 0 1-9.535-9.535v-29.91a9.515 9.515 0 0 1 9.535-9.535" opacity=".15"/></svg>