<svg xmlns="http://www.w3.org/2000/svg" xml:space="preserve" width="64" height="64"><defs><linearGradient id="a" x1="7.937" x2="7.937" y1="15.081" y2="1.852" gradientTransform="scale(3.7796)" gradientUnits="userSpaceOnUse"><stop offset="0" stop-color="#363636"/><stop offset="1" stop-color="#6c6c6c"/></linearGradient><linearGradient id="c" x1="22.795" x2="22.795" y1="4.556" y2="58.931" gradientUnits="userSpaceOnUse"><stop offset="0" stop-color="#b37e6b"/><stop offset="1" stop-color="#84533e"/></linearGradient><linearGradient id="d" x1="13.929" x2="60" y1="33.017" y2="33.017" gradientUnits="userSpaceOnUse"><stop offset="0" stop-color="#fff"/><stop offset="1" stop-color="#fff" stop-opacity=".6"/></linearGradient><radialGradient id="b" cx="35" cy="35" r="21" gradientUnits="userSpaceOnUse"><stop offset="0" stop-color="#f8952b"/><stop offset="1" stop-color="#f8952b" stop-opacity=".5"/></radialGradient></defs><rect width="56.002" height="56.002" x="4" y="3.969" fill="url(#a)" rx="13.002" ry="13.002"/><path fill="url(#b)" d="M35 14.001a21 21 0 0 0-21 21 21 21 0 0 0 21 21 21 21 0 0 0 21-21 21 21 0 0 0-21-21" transform="translate(6.726 6.726)scale(.78983)"/><path fill="#a4705c" d="M34.038 23.346c2.055.487 2.278 3.104 3.93 3.743 2.206.895 2.394-1.909 1.256-3.392"/><path fill="url(#c)" d="M31.112 4.001C16.464 3.988 4.395 16.051 4.009 31.268 3.617 46.726 15.43 59.585 30.392 59.99c7.29.197 12.98-2.599 17.972-7.306.533-.445.823-.722.823-.722s5.413-5.681 5.704-10.37c-1.381 2.281-2.648 4.566-6.087 6.258-1.577.73-3.022 1.352-4.479 1.843a23 23 0 0 1-2.453.476l-.278.035c-.786.1-1.598.173-2.436.208-.087.004-.176.003-.263.005q-1.242.043-2.532-.008c-.056-.002-.11 0-.167-.003-.873-.038-.76-.117-1.647-.221-.127-.015-.254-.025-.38-.041a37 37 0 0 1-2.587-.427 34 34 0 0 1-3.689-.949q-.294-.091-.585-.188-.412-.143-.818-.298c-.22-.083-.444-.164-.661-.252-.252-.101-.497-.211-.744-.32-.209-.091-.421-.18-.626-.276a25 25 0 0 1-1.307-.661 12.6 12.6 0 0 1-2.825-2.11c-2.855-2.915-2.723-6.342-2.573-8.562.19-2.79 2.528-8.91 10.224-12.151C32.733 22.269 38.325 21.095 43 22.6c3.517.793 6.046 1.947 9.39 3.128 0 0-.027.058.897.287 6.504 1.03 5.773-4.328 5.773-4.328l-.51-1.254c-.112-.66.383-1.182.383-1.182s-.401-1.477-.333-2.453.013-2.227-.2-4.012-1.384-3.294-1.764-3.571-2.153-1.614-3.852-2.28c-1.7-.668-3.418-1.16-5.534-.862-.235.033-.458.07-.69.104-.04-.013-.073-.028-.117-.041-.807-.24-1.378-2.147-2.037-2.131a2 2 0 0 0-.31.033h-.002a2 2 0 0 0-.161.038q-.09.025-.173.063c-.385.18-.622 2.255-.768 2.697a26.3 26.3 0 0 0-11.88-2.835m14.915 45.176" transform="translate(6.726 6.726)scale(.78983)"/><path fill="url(#d)" d="M42.926 12.03c-2.93-.004-6.106.854-8.426 1.66-4.4 1.558-7.143 2.817-10.707 5.365-.946.686-4.66 3.414-6.917 7.217-6.237 11.027-1.824 22.736 6.242 25.397 8.868 3.316 17.356 4.274 28.033-5.162-.92.736 0 0-5.124 2.67-6.04 2.251-15.71 1.528-22.873-2.405-5.764-3.188-5.185-7.882-4.997-10.672.189-2.79 2.128-8.91 9.824-12.152C32.736 22.27 38.327 21.095 43 22.6c3.517.794 6.045 2.23 9.39 3.41 0 0-.028.058.896.287C59.79 27.327 60 21.603 60 21.603l-.186-1.043-.566-1.415-.27-.606-.162-.328s-.047-.414-.113-.834c-.125 1.57-.75 2.424-.75 2.424-5.055-.959-5.959-5.317-11.288-7.146-1.127-.443-2.407-.623-3.74-.625zm8.224 34.477c.59-.471.874-.793.874-.793q-.438.409-.874.793" transform="translate(6.726 6.726)scale(.78983)"/><path fill="#a4705c" d="m19.392 27.432-.024.198c1.607-.082 3.576.267 5.036 1.291 1.133.764 2.152 1.905 3.604 1.389.993-.348 1.048-.938.667-1.907-.321-.788-.853-2.148-1.508-2.67-.947-.75-3.393-.488-3.515-2.054-.092-.74.374-1.296.787-1.836 0 0-4.737 1.19-5.047 5.59"/><path fill="#3f3f3f" d="M52.576 22.523s-.182.574-1.037.624c-.854.05-.707 1.239.034 1.904s1.32.848 1.815.337c.493-.51 1.705-1.355-.812-2.865m-5.113-2.182a1.58 1.58 0 0 1-2.218.265 1.583 1.583 0 0 1-.272-2.219 1.58 1.58 0 0 1 2.216-.265 1.583 1.583 0 0 1 .274 2.22m6.214.088c-.046.609-.434 1.066-.865 1.02-.43-.045-.743-.574-.695-1.185.047-.608.434-1.066.865-1.02.43.047.742.576.695 1.185"/><path fill="#fff" d="M31.3 9.887c-11.57-.01-21.103 9.517-21.407 21.535-.004.15.001.297 0 .446C10.197 19.849 19.73 10.32 31.3 10.33q.276 0 .55.01a20.8 20.8 0 0 1 8.833 2.23c.115-.35.303-1.99.608-2.131q.064-.032.136-.052.065-.017.127-.029h.002a2 2 0 0 1 .244-.025c.521-.013.972 1.494 1.61 1.684.035.01.06.02.091.031.183-.027.36-.056.545-.082 1.672-.236 3.029.153 4.371.68s2.743 1.584 3.043 1.802c.3.22 1.224 1.411 1.393 2.82.11.93.164 1.664.174 2.285.016-.703-.036-1.569-.174-2.73-.168-1.41-1.093-2.6-1.393-2.82s-1.7-1.275-3.043-1.8c-1.342-.527-2.7-.918-4.37-.682-.186.026-.363.054-.546.081-.032-.01-.056-.02-.092-.031-.637-.19-1.088-1.696-1.609-1.683a2 2 0 0 0-.245.025h-.001q-.062.012-.127.031a1 1 0 0 0-.137.05c-.304.141-.492 1.78-.607 2.13A20.8 20.8 0 0 0 31.3 9.886m21.719 10.351c-.003.065-.003.138-.008.2-.04.582.104 1.242.19 1.604.024-.032.074-.11.074-.11s-.245-.94-.256-1.694m-.028 2.676a.95.95 0 0 0-.019.395l.403.99.011.126a4 4 0 0 0-.012-.57zM20.703 36.796c-.021 1.672.256 3.788 2.078 5.648a10 10 0 0 0 2.231 1.668q.503.276 1.033.523c.161.077.329.145.494.218.195.085.388.173.588.253.172.07.347.132.522.198.214.08.428.162.646.237q.229.075.46.147a27 27 0 0 0 2.587.684l.328.067q1.019.203 2.043.335l.3.034c.702.082.611.145 1.302.176l.132.001q1.018.04 1.999.006c.068-.002.14 0 .208-.003a23 23 0 0 0 2.145-.194 18 18 0 0 0 1.935-.375c1.151-.388 2.294-.878 3.539-1.455 2.66-1.309 3.673-3.066 4.737-4.83a6 6 0 0 0 .07-.559c-1.091 1.802-2.09 3.607-4.806 4.944-1.246.576-2.389 1.067-3.539 1.454l-.22.056q-.819.197-1.716.321l-.22.028q-.932.12-1.925.164l-.208.004q-.98.034-1.999-.006l-.132-.002c-.69-.03-.6-.095-1.301-.176-.1-.012-.2-.018-.3-.032a29 29 0 0 1-2.044-.337q-.165-.032-.328-.066a27 27 0 0 1-2.586-.682q-.232-.073-.461-.15a24 24 0 0 1-.646-.234q-.263-.098-.522-.2c-.2-.08-.393-.166-.588-.252-.165-.072-.332-.142-.494-.219q-.53-.249-1.033-.523a10 10 0 0 1-2.23-1.666c-1.664-1.697-2.041-3.612-2.08-5.205" opacity=".15"/></svg>