<svg xmlns="http://www.w3.org/2000/svg" viewBox="0 0 64 64"><rect width="56.002" height="56.002" x="4" y="3.969" fill="#f2f2f2" rx="13.002" ry="13.002"/><path d="M3.998 45.998v1c0 7.203 5.8 13.004 13.004 13.004h29.996c7.203 0 13.004-5.8 13.004-13.004v-1c0 7.203-5.8 13.002-13.004 13.002H17.002A12.975 12.975 0 0 1 3.998 45.998" opacity=".1"/><path fill="#fff" d="M3.998 18.004v-1C3.998 9.801 9.798 4 17.002 4h29.996c7.203 0 13.004 5.8 13.004 13.004v1c0-7.203-5.8-13.002-13.004-13.002H17.002A12.975 12.975 0 0 0 3.998 18.004" opacity=".5"/><rect width="50" height="50" x="7" y="7" fill="#8e74dc" rx="10" ry="10"/><rect width="34" height="34" x="15" y="15" fill="#f2f2f2" rx="3" ry="3"/><path fill="#9aa0aa" d="M34 42c-.554 0-1 .335-1 .75V45h1v-2h1v2h1v-2h1v2h1v-2.25c0-.415-.446-.75-1-.75zm8 0c-.554 0-1 .335-1 .75v1.5c0 .415.446.75 1 .75h3c.554 0 1-.335 1-.75v-1.5c0-.415-.446-.75-1-.75zm-2.5 1a.499.499 0 1 0 0 1 .499.499 0 1 0 0-1m2.5 0h3v1h-3z"/><path fill="#333" d="M22 15v5c0 1.662 1.338 3 3 3h14c1.662 0 3-1.338 3-3v-5z"/><path fill="#fbe604" d="M26 19v1h4v-1zm8 0v1h4v-1z"/></svg>