<svg xmlns="http://www.w3.org/2000/svg" viewBox="0 0 64 64"><rect width="56.002" height="56.002" x="4" y="3.969" fill="#4d4d4d" rx="13.002" ry="13.002"/><path d="M3.998 45.998v1c0 7.203 5.8 13.004 13.004 13.004h29.996c7.203 0 13.004-5.8 13.004-13.004v-1c0 7.203-5.8 13.002-13.004 13.002H17.002A12.975 12.975 0 0 1 3.998 45.998" opacity=".35"/><path fill="#fff" d="M3.998 18.004v-1C3.998 9.801 9.798 4 17.002 4h29.996c7.203 0 13.004 5.8 13.004 13.004v1c0-7.203-5.8-13.002-13.004-13.002H17.002A12.975 12.975 0 0 0 3.998 18.004" opacity=".15"/><path fill="#f9f9f9" d="M29.938 21c-2.42.001-4.813 2.107-4.813 5.5H23.75c-1.519 0-2.75 1.539-2.75 3.438V32h-2.062c-2.658 0-4.813 2.155-4.813 4.813s1.817 4.812 4.125 4.812c1.375 0 2.397-.707 2.75-1.375 1.018 1.375 3.62 2.75 5.5 2.75 2.026 0 4.194-1.202 5.5-2.75 1.04 1.536 2.41 2.75 4.126 2.75 2.267 0 4.125-.806 5.5-2.75 1.006.903 1.397 1.374 2.75 1.375a5.5 5.5 0 1 0 0-11c-.982 0-2.08.63-2.75 1.375 0-3.519-1.912-5.5-5.5-5.5H34.75c0-4.125-2.474-5.501-4.813-5.5zm.688 6.875h5.5v1.375L32 30.625c-.002 2.013-.005 4.313 0 5.184.005 1.29-1.13 2.51-2.719 2.923-1.856.483-3.68-.294-4.078-1.734-.397-1.44.782-3 2.64-3.48.972-.253 1.987-.164 2.782.24z" style="fill:#fff"/></svg>