<svg xmlns="http://www.w3.org/2000/svg" width="64" height="64"><defs><linearGradient id="a" x1="7.937" x2="7.937" y1="15.081" y2="1.852" gradientTransform="scale(3.7796)" gradientUnits="userSpaceOnUse"><stop offset="0" stop-color="#f1efeb"/><stop offset="1" stop-color="#fdfcfc"/></linearGradient></defs><rect width="56.002" height="56.002" x="4" y="3.969" fill="url(#a)" rx="13.002" ry="13.002"/><g transform="translate(-11.089 -20.578)scale(1.4599)"><path fill="#454a4a" d="m39.849 38.619-1.86-.49c-1.56-.415-3.18.506-3.6 2.05l-1.27 4.7a2.915 2.915 0 0 0 2.09 3.56l1.86.49c1.56.415 3.17-.502 3.59-2.05l1.27-4.7c.419-1.55-.507-3.14-2.07-3.56"/><path fill="#454a4a" d="m38.649 34.419-1.24-.359c-1.04-.302-2.11.37-2.39 1.49l-.851 3.41c-.28 1.13.343 2.29 1.39 2.59l1.23.359c1.04.302 2.12-.366 2.4-1.49l.847-3.41c.28-1.13-.339-2.29-1.38-2.59m-16.106-1 1.3-.359c1.09-.302 2.22.37 2.51 1.49l.887 3.41c.293 1.13-.355 2.29-1.45 2.59l-1.3.359c-1.09.302-2.22-.366-2.51-1.49l-.887-3.41c-.293-1.13.352-2.29 1.45-2.59"/><path fill="#454a4a" d="M33.449 23.019c-2.87-.246-5.8 1.88-6.94 5.23-.16.473-.281.957-.359 1.43v.016a8.8 8.8 0 0 0-1.77 3.04c-1.41 4.19.426 8.59 4.1 9.83s7.78-1.15 9.2-5.34c.527-1.56.617-3.15.32-4.59.059-.148.117-.293.168-.449 1.29-3.84-.266-7.84-3.48-8.93a5.2 5.2 0 0 0-1.23-.246"/><path fill="#ececec" d="M31.549 25.019c-.961.023-1.91.559-2.3 1.68-.336.977-.168 1.97.363 2.62-1.18.398-2.28 1.21-3.12 2.33.07.361.154.737.262 1.11.383 1.33.641 3.44-.449 2.36a5.2 5.2 0 0 1-.963-1.29c-1.2 3.49.184 7.12 3.09 8.12 2.91 1.01 6.25-1 7.46-4.49.086-.249.147-.5.207-.75-.674.458-1.33.971-2.28 1.13-1.98.332-.157-1.55 1.3-2.84.447-.392.914-1.01.914-1.01-.21-1.19-.539-2.59-1.29-3.4 1.08.211 1.91-.254 2.17-1.11.289-.938-.242-1.98-1.42-2.34-.699-.215-1.4-.143-1.91.15.051-1.07-.469-1.84-1.38-2.15a1.8 1.8 0 0 0-.656-.098zm.656 1.96q.073 0 .145.012c.526.083.808.577.639 1.11v.002a1.23 1.23 0 0 1-.736.799c-.355.138-.731.078-.973-.152-.237-.231-.309-.591-.176-.947.155-.482.629-.827 1.1-.826zm2.53 1q.045 0 .09.012c.312.083.482.582.379 1.11-.06.36-.23.664-.443.803-.213.134-.44.078-.58-.152-.147-.231-.185-.591-.105-.947.09-.481.373-.827.66-.828z"/><path fill="#ffb30a" d="M30.049 30.019s-.172 2.22 1.17 2.88c1.34.656 2.83-1.88 2.83-1.88-1-1-2-1-4-1"/><path fill="#454a4a" d="m19.149 38.619 1.83-.49a2.906 2.906 0 0 1 3.55 2.05l1.25 4.7a2.91 2.91 0 0 1-2.05 3.56l-1.83.49a2.9 2.9 0 0 1-3.55-2.05l-1.25-4.7a2.91 2.91 0 0 1 2.05-3.56"/><path fill="#ffb30a" d="M27.049 41.519c0 1.93-1.57 3.5-3.5 3.5s-3.5-1.57-3.5-3.5 1.57-3.5 3.5-3.5c1.94 0 3.5 1.57 3.5 3.5"/><path fill="#454a4a" d="M30.049 33.019a4 4 0 0 0-4 4 4 4 0 0 0 4 4 4 4 0 0 0 4-4 4 4 0 0 0-4-4m0 1a3 3.07 0 0 1 3 3.07 3 3.07 0 0 1-3 3.06 3 3.07 0 0 1-3-3.06 3 3.07 0 0 1 3-3.07m0 1a2 2 0 0 0-2 2 2 2 0 0 0 2 2 2 2 0 0 0 2-2 2 2 0 0 0-2-2"/><path fill="#ffb30a" d="M38.049 41.519c0 1.93-1.57 3.5-3.5 3.5s-3.5-1.57-3.5-3.5 1.57-3.5 3.5-3.5 3.5 1.57 3.5 3.5"/><path fill="#e25136" d="m36.549 36.019-2.5.02-.785 1.38-.967-.965s-.6-.41-2.47-.41c-1.63 0-3.01.268-3.01.268l-1.15 1.08-.617-1.35H23c-.747 0-.953.207-.953 1h2.25c.472 0 .914.481 1.02.626-1.34 1.08-3.27 3.32-3.27 4.74 0 2.04.395 4.99.395 4.99s2.7.642 6.61.642 7.56-.891 7.56-.891.438-2.11.438-3.3c0-2.8-1.5-4.61-3.42-6.15.09-.145.34-.656 1.03-.656h2.39s-.001-1-.502-1.02z"/><rect width="11" height="6" x="24.049" y="41.019" fill="#73433a" ry="2.5"/></g></svg>