<svg xmlns="http://www.w3.org/2000/svg" viewBox="0 0 64 64"><defs><linearGradient id="b" x1="16" x2="56" y1="32" y2="32" gradientTransform="translate(7.727 9.167)scale(.36769)" gradientUnits="userSpaceOnUse"><stop offset="0" stop-color="#c061cb"/><stop offset="1" stop-color="#c0bfbc"/></linearGradient><linearGradient id="c" x1="96" x2="82.148" y1="64" y2="28" gradientTransform="translate(7.727 9.167)scale(.36769)" gradientUnits="userSpaceOnUse"><stop offset="0" stop-color="#f8e45c"/><stop offset="1" stop-color="#99c1f1"/></linearGradient><linearGradient id="d" x1="74.144" x2="95.935" y1="230.13" y2="205.36" gradientTransform="rotate(124.615 36.157 61.803)scale(.36769)" gradientUnits="userSpaceOnUse"><stop offset="0" stop-color="#62a0ea"/><stop offset="1" stop-color="#9141ac"/></linearGradient><filter id="a" width="1.793" height="1.81" x="-.397" y="-.405" color-interpolation-filters="sRGB"><feGaussianBlur stdDeviation="10.006"/></filter></defs><rect width="56.002" height="56.002" x="4" y="3.969" fill="#4d4d4d" rx="13.002" ry="13.002"/><path d="M3.998 45.998v1c0 7.203 5.8 13.004 13.004 13.004h29.996c7.203 0 13.004-5.8 13.004-13.004v-1c0 7.203-5.8 13.002-13.004 13.002H17.002A12.975 12.975 0 0 1 3.998 45.998" opacity=".35"/><path fill="#fff" d="M3.998 18.004v-1C3.998 9.801 9.798 4 17.002 4h29.996c7.203 0 13.004 5.8 13.004 13.004v1c0-7.203-5.8-13.002-13.004-13.002H17.002A12.975 12.975 0 0 0 3.998 18.004" opacity=".15"/><path d="M45.695 18.379 75.79 51.086s-8.273-9.852-12.613-14.645c-5.621-6.214-17.48-18.062-17.48-18.062m-12.72 22.324L15.25 77.645s6.555-11.29 9.2-17.188c3.429-7.648 8.527-19.754 8.527-19.754" filter="url(#a)" opacity=".25" transform="translate(7.727 9.167)scale(.36769)"/><path fill="url(#b)" d="M17.737 11.23a5.574 5.574 0 0 0-5.524 5.574V46.96a5.75 5.75 0 0 0 8.428 5.089l28.38-14.937a5.179 5.179 0 0 0 .124-9.097L20.518 11.943a5.6 5.6 0 0 0-2.781-.713m4.328 10.733a1.7 1.7 0 0 1 .551.194l15.814 8.88a1.58 1.58 0 0 1 .805 1.393 1.58 1.58 0 0 1-.842 1.371l-15.74 8.285a1.748 1.748 0 0 1-2.56-1.547V23.634a1.695 1.695 0 0 1 1.971-1.67" style="fill:#c071c8;fill-opacity:1"/><path fill="url(#c)" d="m21.232 12.342 17.197 18.693a1.58 1.58 0 0 1 .805 1.395 1.58 1.58 0 0 1-.842 1.37l-15.74 8.286L45.81 38.8l3.209-1.69a5.179 5.179 0 0 0 .125-9.098z" style="fill:#f3e264;fill-opacity:1"/><path fill="url(#d)" d="m20.092 23.633-7.879 16.42v6.908a5.75 5.75 0 0 0 8.428 5.088l25.236-13.283-22.652 3.125-.112-.047-.46.242a1.748 1.748 0 0 1-2.561-1.546z" style="fill:#62a0ea;fill-opacity:1"/></svg>