<svg xmlns="http://www.w3.org/2000/svg" image-rendering="optimizeSpeed" viewBox="0 0 64 64"><defs><linearGradient id="a" x1="7.937" x2="7.937" y1="15.081" y2="1.852" gradientTransform="scale(3.7796)" gradientUnits="userSpaceOnUse"><stop offset="0" stop-color="#b81e31"/><stop offset="1" stop-color="#ff5c5c"/></linearGradient></defs><rect width="56.002" height="56.002" x="4" y="3.969" fill="url(#a)" rx="13.002" ry="13.002" style="fill:#df4049;fill-opacity:1"/><path fill="#fff" d="M28.878 20c-.919-.008-2.13-.007-3.416.007l-4.679.053.478.58c.6.728 1.238 2.127 3.607 7.91 3.494 8.535 3.968 9.508 4.626 9.508.101 0 .302-.186.446-.415.588-.934 4.501-10.05 4.498-10.477-.003-.254-.553-1.727-1.223-3.275-1.225-2.831-1.77-3.607-2.685-3.836-.108-.027-.733-.047-1.652-.055m-8.696 1.146q-.355.011-.69.535l-8.269 20.314h10.195s3.535-8.838 3.85-9.697c.106-.288-2.741-7.587-3.802-9.746-.468-.953-.889-1.418-1.285-1.406zm21.65 3.824c-.768-.034-1.861.258-3.795.93-1.496.521-2.607 1.082-2.766 1.247-.3.31-4.617 10.583-4.617 10.981 0 .462.442.697 1.112.59.365-.059 3.882-1.352 8.112-2.875 5.528-1.99 7.917-2.769 8.5-2.769.546 0 .812-.078.812-.24 0-.312-5.447-6.92-6.211-7.465a2 2 0 0 0-1.146-.399zm6.575 8.909c-.399-.047-.819.053-1.833.377-3.221 1.026-6.052 2.175-6.052 2.454 0 .306 2.03 5.285 2.03 5.285h10.225s-2.828-7.25-3.089-7.582c-.099-.126-.49-.325-.869-.441a2.3 2.3 0 0 0-.412-.093"/><path d="M3.998 45.998v1c0 7.203 5.8 13.004 13.004 13.004h29.996c7.203 0 13.004-5.8 13.004-13.004v-1c0 7.203-5.8 13.002-13.004 13.002H17.002A12.975 12.975 0 0 1 3.998 45.998" opacity=".15"/><path fill="#fff" d="M3.998 18.004v-1C3.998 9.801 9.798 4 17.002 4h29.996c7.203 0 13.004 5.8 13.004 13.004v1c0-7.203-5.8-13.002-13.004-13.002H17.002A12.975 12.975 0 0 0 3.998 18.004" opacity=".15"/></svg>