<svg xmlns="http://www.w3.org/2000/svg" viewBox="0 0 64 64"><rect width="64" height="64" fill="none" rx="0" ry="0" style="paint-order:stroke fill markers"/><rect width="56.002" height="56.002" x="4" y="3.969" fill="#4d9fdf" rx="13.002" ry="13.002"/><g fill-rule="evenodd"><ellipse cx="44.652" cy="-23.072" fill="#060000" stroke="#000" stroke-width=".069" rx="7.066" ry="4.134" transform="matrix(.7652 .6438 -.73696 .67594 0 0)"/><path fill="#fff" d="M28.493 49.843s-6.349-10.048-1.421-20.201c3.916-8.161 4.455-20.299 1.27-25.615-10.937.03-14.77-1.128-20.106 3.393-1.394 1.336-4.16 4.451-4.153 9.188.005 2.613.13 4.83 1.708 8.952 5.367 12.658 22.792 24.557 22.703 24.284z" opacity=".35"/><path fill="#b99a58" stroke="#323232" stroke-width=".415" d="M30.117 50.34c-.169-.158 8.298-12.712 18.649-14.416.032-13.533 6.254-18.511 6.648-19.358-.832-4.496-3.273-6.194-5.477-6.551-3.735-.476-3.034 1.2-3.493 1.646-2.528 5.708-7.821 13.765-8.568 15.206-2.102 2.913-6.554 17.29-8.335 23.445z"/><ellipse cx="48.009" cy="2.959" fill="#665123" rx=".64" ry="1.836" transform="matrix(.83114 .55607 -.51487 .85727 0 0)"/><path fill="#665123" stroke="#665123" stroke-width=".128" d="m37.614 30.711-.166-.125c-.19-.143-6.585 16.643-7.572 19.65.98-3.17 6.75-18.203 7.738-19.525z"/><path fill="#fff" d="M41.201 36.368c2.245-1.765 3.235-3.202 5.458-3.64-.384-5.519 3.858-12.183 7.306-18.415l-.621-1.121c-1.426 2.16-9.903 17.684-12.143 23.176" opacity=".15"/></g><path d="M3.999 45.998V47A12.975 12.975 0 0 0 17 60.002h30A12.975 12.975 0 0 0 60.002 47v-1.002A12.975 12.975 0 0 1 47 59H17A12.975 12.975 0 0 1 4 45.998z" opacity=".15"/><path fill="#fff" d="M3.999 18.002v-.994A12.975 12.975 0 0 1 17 4.006h30a12.975 12.975 0 0 1 13.002 13.002v1.002A12.975 12.975 0 0 0 47 5.008H17A12.975 12.975 0 0 0 4 18.01z" opacity=".15"/></svg>