<svg xmlns="http://www.w3.org/2000/svg" viewBox="0 0 16.933 16.933"><defs><linearGradient id="a" x1="118.39" x2="173.78" y1="128.5" y2="236.98" gradientTransform="matrix(.0496 0 0 .05254 2.086 1.762)" gradientUnits="userSpaceOnUse"><stop offset="0" stop-color="red"/><stop offset="1" stop-color="#400"/></linearGradient><linearGradient id="b" x1="56.88" x2="110.98" y1="58.229" y2="120.55" gradientTransform="matrix(.10023 0 0 .10517 2.026 1.716)" gradientUnits="userSpaceOnUse"><stop offset="0" stop-color="#ffd600"/><stop offset="1" stop-color="#7a6500"/></linearGradient></defs><g transform="scale(.26458)"><rect width="56.002" height="56.002" x="4" y="3.969" fill="#f2f2f2" rx="13.002" ry="13.002"/><path d="M3.998 45.998v1c0 7.203 5.8 13.004 13.004 13.004h29.996c7.203 0 13.004-5.8 13.004-13.004v-1c0 7.203-5.8 13.002-13.004 13.002H17.002A12.975 12.975 0 0 1 3.998 45.998" opacity=".1"/><path fill="#fff" d="M3.998 18.004v-1C3.998 9.801 9.798 4 17.002 4h29.996c7.203 0 13.004 5.8 13.004 13.004v1c0-7.203-5.8-13.002-13.004-13.002H17.002A12.975 12.975 0 0 0 3.998 18.004" opacity=".5"/></g><path fill="url(#a)" d="M6.186 9.853 2.83 7.14l4.233-.105 1.496-4.256 1.364 4.256 4.216.122-3.332 2.733 1.182 4.36-3.48-2.592-3.563 2.592z" style="fill:#ed6e6e;fill-opacity:1"/><path fill="url(#b)" d="M5.798 8.12c-.016.087.858 1.039.936 1.016.043-.012.702-.648.702-.648l1.72 1.945s-.468.28-.969.228-.797-.267-1.37-.929c-.167-.193-.417.123-.417.123l-.301-.018s-.368.14-.25.386c.07.149-1.729.775-1.036 1.613.651.788 1.47-.842 1.587-.93.117-.087 1.069 1.999 3.725.737 0 0 .365.4.4.402.053.005.953-.836.953-.91 0-.064-.501-.561-.501-.561s1.203-1.49-.158-3.644c-.1-.158-.614-.873-1.306-1.343a7 7 0 0 0-1.693-.868c-.251-.087.3.39.905 1.03.354.376.677.832.899 1.144.785 1.104.684 2.126.384 2.629 0 0-.894-1.007-1.704-1.928 0 0 .743-.771.702-.824-.131-.165-.118-.176-.268-.28 0 0-.18.058-.452.069-.385.015-.905-.012-.934.018-.1.104-1.529 1.411-1.554 1.543" style="fill:#fd5"/></svg>