<svg xmlns="http://www.w3.org/2000/svg" viewBox="0 0 16.933 16.933"><rect width="14.817" height="14.817" x="1.058" y="1.05" fill="#f2f2f2" rx="3.44" ry="3.44"/><path d="M1.058 12.17v.265a3.433 3.433 0 0 0 3.44 3.44h7.937a3.433 3.433 0 0 0 3.44-3.44v-.265a3.433 3.433 0 0 1-3.44 3.44H4.498a3.433 3.433 0 0 1-3.44-3.44" opacity=".1"/><path fill="#fff" d="M1.058 4.763V4.5a3.433 3.433 0 0 1 3.44-3.44h7.937a3.433 3.433 0 0 1 3.44 3.44v.265a3.433 3.433 0 0 0-3.44-3.44H4.498a3.433 3.433 0 0 0-3.44 3.44z" opacity=".5"/><path fill="#788fe1" d="M9.507 13.081c-.237-.085-.523-.313-1.045-.836-.414-.415-.532-.563-.6-.76-.052-.149-.028-.256.096-.43.026-.035.4-.42.832-.854a51 51 0 0 0 .827-.844c.065-.084.058-.107-.08-.275a2.2 2.2 0 0 0-.396-.39c-.107-.076-.148-.085-.212-.046-.027.016-.438.417-.913.891-.574.572-.889.877-.937.907-.134.083-.256.054-.405-.094-.105-.106-.198-.287-.196-.386q.002-.126.15-.322c.075-.1 1.844-1.886 2.026-2.045.146-.127.26-.199.319-.199.13 0 .288.134 1.04.88.363.358.686.687.719.73.163.218.163.3-.002.524-.033.046-.395.42-.803.83s-.768.782-.8.826c-.1.137-.102.187-.012.32.156.227.411.454.512.454.073 0 .056.017 1.102-1.054.7-.716.786-.788.94-.788.115 0 .276.108.427.285.138.162.136.219-.013.417-.083.11-1.933 1.991-2.104 2.14-.13.112-.2.144-.315.144a.5.5 0 0 1-.157-.025"/><path fill="#263e8c" d="M8.43 14.258a1 1 0 0 1-.167-.11c-.121-.096-1.762-1.745-1.84-1.85-.119-.157-.146-.262-.094-.366.069-.136.393-.502.494-.556.043-.024.046-.024.088-.001.023.012.164.14.312.282.149.143.339.32.423.393.231.201.923.905 1.24 1.261.154.174.292.326.307.34.045.04.034.077-.048.171-.224.257-.498.467-.611.466a.3.3 0 0 1-.104-.03m4.342-4.132a6 6 0 0 1-.372-.37c-.184-.19-.475-.482-.648-.648-.484-.465-1.076-1.062-1.172-1.183-.107-.134-.122-.174-.092-.24s1.054-1.09 1.199-1.197c.058-.044.157-.105.218-.135.1-.048.121-.054.208-.054.115 0 .176.027.323.145.11.087 1.677 1.67 1.752 1.768a.55.55 0 0 1 .121.286c.006.087-.006.12-.085.23a48 48 0 0 1-1.385 1.404c-.023.013-.035.012-.067-.006"/><path fill="#4ab5fe" d="M5.716 11.59c-.107-.061-.29-.236-.913-.87-.795-.81-.842-.88-.733-1.09.078-.15.158-.237.908-.991.719-.723.86-.878.86-.938 0-.038-.048-.103-.185-.25-.242-.258-.43-.413-.5-.413-.033 0-.133.095-.74.706-.897.902-1.033 1.023-1.227 1.089a.4.4 0 0 1-.26-.014c-.132-.063-.304-.306-.304-.43q0-.104.113-.253a104 104 0 0 1 2.02-2.041c.367-.341.456-.332.9.093A45 45 0 0 1 6.84 7.404c.12.14.171.29.143.41-.035.146-.13.257-.77.896-.329.33-.698.694-.82.81-.181.173-.222.218-.222.246 0 .03.089.126.492.539.27.277.51.53.533.56a.35.35 0 0 1 .058.272.9.9 0 0 1-.175.345c-.132.149-.237.18-.362.108"/><path fill="#548cfe" d="M10.069 7.355a.59.59 0 0 1-.389-.313c-.06-.114-.063-.18-.014-.278.064-.127.113-.184.457-.531.41-.416.395-.382.256-.564a2.6 2.6 0 0 0-.342-.353c-.103-.082-.154-.107-.198-.098-.075.017-.275.203-1.004.933-.427.427-.795.786-.852.829-.163.122-.223.115-.43-.046a36 36 0 0 1-1.461-1.466c-.217-.27-.213-.352.032-.647.121-.145 1.93-1.969 2.029-2.045a.64.64 0 0 1 .26-.13c.114-.016.315.079.442.207.095.096.134.172.134.258 0 .132-.02.155-.933 1.073-.46.463-.861.873-.89.91-.032.04-.054.083-.054.103 0 .025.048.081.215.25.304.307.405.395.455.395.035 0 .133-.093.896-.86.889-.891.98-.974 1.1-.996.095-.018.216.044.415.212.17.144 1.093 1.098 1.33 1.374.167.195.171.227.059.445a2 2 0 0 1-.343.481c-.182.2-.578.596-.712.71-.166.142-.297.184-.458.147"/></svg>