<svg xmlns="http://www.w3.org/2000/svg" viewBox="0 0 16.933 16.933"><rect width="14.817" height="14.817" x="1.058" y="1.05" fill="#4d4d4d" rx="3.44" ry="3.44" style="stroke-width:.264578"/><path d="M1.058 12.17v.265a3.433 3.433 0 0 0 3.44 3.44h7.937a3.433 3.433 0 0 0 3.44-3.44v-.265a3.433 3.433 0 0 1-3.44 3.44H4.498a3.433 3.433 0 0 1-3.44-3.44" opacity=".35" style="stroke-width:.264578"/><path fill="#fff" d="M1.058 4.763V4.5a3.433 3.433 0 0 1 3.44-3.44h7.937a3.433 3.433 0 0 1 3.44 3.44v.264a3.433 3.433 0 0 0-3.44-3.44H4.498a3.433 3.433 0 0 0-3.44 3.44" opacity=".15" style="stroke-width:.264578"/><path d="M8.728 2.474a5.99 5.99 0 0 0-5.99 5.986 5.99 5.99 0 0 0 5.99 5.986 5.96 5.96 0 0 0 3.061-.84l-.48-.813a5.03 5.03 0 0 1-2.611.724 5.058 5.058 0 1 1 0-10.114 5.03 5.03 0 0 1 2.606.723l.503-.801a5.95 5.95 0 0 0-3.08-.85m-.075 1.467a4.52 4.52 0 1 0 0 9.039 4.5 4.5 0 0 0 2.327-.645l-.424-.717a3.67 3.67 0 0 1-1.903.527 3.686 3.686 0 1 1 0-7.37 3.67 3.67 0 0 1 1.9.526l.444-.706a4.5 4.5 0 0 0-2.344-.655" style="fill:#f65858;fill-opacity:1"/><path fill="#ffaf27" d="M8.515 5.299c-.697 0-1.342.225-1.866.606.507.501.61.963.708 1.396A3.34 3.34 0 0 1 6 6.58a3.16 3.16 0 0 0-.633 1.9c0 .698.225 1.343.606 1.867.501-.507.963-.648 1.396-.746a3.5 3.5 0 0 1-.72 1.393 3.16 3.16 0 0 0 1.9.633c.698 0 1.343-.225 1.867-.606-.507-.501-.658-1.008-.756-1.441.52.135 1.034.44 1.405.767a3.16 3.16 0 0 0 .633-1.901c0-.697-.225-1.342-.606-1.866-.502.507-1.01.629-1.443.727.14-.532.44-1.004.767-1.376a3.16 3.16 0 0 0-1.901-.633"/><path fill="none" d="m7.334 7.278.012 2.347 2.337-.022-.011-2.318z"/></svg>