<svg xmlns="http://www.w3.org/2000/svg" viewBox="0 0 64 64"><g transform="translate(-.001 1.342)"><rect width="56.002" height="56.002" x="4" y="2.657" fill="#483c0e" rx="13.002" ry="13.002"/><path fill="#e8c53a" d="M31.969 4.81c-12.892 0-21.508 6.462-21.508 19.386v22.617h43.08V24.195c0-12.923-8.616-19.385-21.539-19.385z"/><path fill="#e1b817" d="M5.879 29.85q-.248 0-.492.027c-.11.012-.22.032-.328.051-.05.009-.098.013-.147.024a5 5 0 0 0-.338.087l-.138.04q-.197.064-.387.146l-.049.02a4.66 4.66 0 0 0-2.797 4.273h-.002l.002.06a5 5 0 0 0 .022.381l.002.03.005.052q.009.082.02.162l.021.125.004.018.028.143.004.023a4.7 4.7 0 0 0 .347 1.016q.034.069.07.136l.014.032q.043.079.088.156A4.7 4.7 0 0 0 4 38.793l.002.002v6.883a12.97 12.97 0 0 0 13 12.98H47a12.97 12.97 0 0 0 13-12.98v-6.885l.002-.002a4.67 4.67 0 0 0 2.799-4.273 4.66 4.66 0 0 0-2.8-4.264c-.09-.04-.176-.088-.27-.123a4.7 4.7 0 0 0-1.409-.277 4.6 4.6 0 0 0-.836.049q-.22.03-.437.084-.098.02-.194.047c-.2.057-.4.124-.591.208q-.29.129-.56.295-.08.05-.16.106-.198.132-.384.287-.074.06-.144.123a4.5 4.5 0 0 0-.457.465 4.66 4.66 0 0 0-1.092 3l.002.047q0 .06.002.119l.006.123q.004.09.013.182v.005a5 5 0 0 0 .047.334l.004.02.004.021-.002 5.079-.002 8.52h-43.08l-.002-8.52-.002-5.08q.077-.415.078-.85A4.67 4.67 0 0 0 5.88 29.85z"/><path fill="#5b4c13" d="M7.736 34.517a1.867 1.867 0 1 1-3.734 0 1.867 1.867 0 1 1 3.734 0m52.264 0a1.867 1.867 0 1 1-3.733 0 1.867 1.867 0 1 1 3.733 0"/><path fill="#b89711" d="M21.006 51.714c-5.86-.013-10.547-.515-10.545-1.132v-1.615h43.078v1.615c0 .625-4.821 1.132-10.77 1.132s-10.77-.507-10.77-1.132c0 .625-4.821 1.132-10.77 1.132h-.225z"/><path fill="#eed368" d="M21.006 40.35c-5.86.019-10.547.736-10.545 1.615v7.001h43.078v-7c0-.892-4.821-1.616-10.77-1.616s-10.77.724-10.77 1.615c0-.891-4.821-1.615-10.77-1.615z"/><path fill="#ab8c11" d="m31.209 17.449-.57.57.79.791-.79.791.57.573.791-.791.793.79.57-.572-.79-.79.79-.792-.57-.57-.793.791zm-10.77 6.46-.57.571.79.793-.79.791.57.57.791-.79.793.79.57-.57-.793-.79.793-.794-.57-.57-.793.793zm21.539 0-.57.571.79.793-.79.791.57.57.791-.79.793.79.57-.57-.793-.79.793-.794-.57-.57-.793.793zm-10.77 6.462-.57.572.79.791-.79.791.57.572.791-.793.793.793.57-.572-.79-.79.79-.792-.57-.572-.793.793z"/></g><path d="M3.998 45.998v1c0 7.203 5.8 13.004 13.004 13.004h29.996c7.203 0 13.004-5.8 13.004-13.004v-1c0 7.203-5.8 13.002-13.004 13.002H17.002A12.975 12.975 0 0 1 3.998 45.998" opacity=".15"/><path fill="#fff" d="M3.998 18.004v-1C3.998 9.801 9.798 4 17.002 4h29.996c7.203 0 13.004 5.8 13.004 13.004v1c0-7.203-5.8-13.002-13.004-13.002H17.002A12.975 12.975 0 0 0 3.998 18.004" opacity=".15"/></svg>