<svg xmlns="http://www.w3.org/2000/svg" viewBox="0 0 64 64"><defs><linearGradient id="a" x1="7.937" x2="7.937" y1="15.081" y2="1.852" gradientTransform="scale(3.7796)" gradientUnits="userSpaceOnUse"><stop offset="0" stop-color="#17c8d9"/><stop offset="1" stop-color="#25c9ff"/></linearGradient></defs><rect width="56.002" height="56.002" x="4" y="3.969" fill="url(#a)" rx="13.002" ry="13.002" style="fill:#1ec8eb;fill-opacity:1"/><path fill="#0f303f" d="M49 44.774C49 45.998 47.922 47 46.699 47H17.282C16.059 47 15 45.998 15 44.774V28.582c0-1.224 1.059-2.226 2.282-2.226h29.417c1.223 0 2.301 1.002 2.301 2.226z"/><path fill="#fff" d="M15.014 26H49v6H15.014z"/><path fill="#0f303f" d="m20.582 26.818-4.03 4.379h4.084l4.03-4.379zm16.976 0-4.03 4.379h4.084l4.03-4.379zm-11.317 0-4.03 4.379h4.084l4.03-4.38H26.24zm5.659 0-4.03 4.379h4.083l4.03-4.379zm11.317 0-4.03 4.379h4.083l4.03-4.379zm5.758 0-4.13 4.379H49v-4.379zm-33.975 0v4.379h.027l4.088-4.379z"/><path fill="#fff" d="m14.066 20.559 32.973-5.884.947 5.44L15.013 26z"/><path fill="#0f303f" d="m37.816 17.095 4.625 3.325 3.976-.71-4.625-3.325zm-16.529 2.95 4.625 3.324 3.976-.71-4.625-3.324zm11.019-1.967 4.625 3.325 3.976-.71-4.625-3.324zm-5.51.984 4.626 3.324 3.976-.709-4.625-3.325zm-11.018 1.966 4.625 3.325 3.976-.71-4.625-3.325zm-1.58.282.7 4.025 3.971-.71-4.625-3.324zm29.022-5.18 4.625 3.325.026-.005-.701-4.024z"/><path fill="#fdc00f" d="M47 38.496h-.008V34H17v11h29.992v-6H47zm-.463-4.04v4.04H35.502v-4.04zm-11.539 0v4.04H22.473v-4.04zm-17.542 10.09v-10.09h4.512v10.09zm5.017 0V39h12.525v5.545zm24.065 0H35.503V39h11.034z"/><path d="M3.998 45.998v1c0 7.203 5.8 13.004 13.004 13.004h29.996c7.203 0 13.004-5.8 13.004-13.004v-1c0 7.203-5.8 13.002-13.004 13.002H17.002A12.975 12.975 0 0 1 3.998 45.998" opacity=".15"/><path fill="#fff" d="M3.998 18.004v-1C3.998 9.801 9.798 4 17.002 4h29.996c7.203 0 13.004 5.8 13.004 13.004v1c0-7.203-5.8-13.002-13.004-13.002H17.002A12.975 12.975 0 0 0 3.998 18.004" opacity=".15"/></svg>