<svg xmlns="http://www.w3.org/2000/svg" xml:space="preserve" viewBox="0 0 64 64"><rect width="56.002" height="56.002" x="4" y="3.969" fill="#f2f2f2" rx="13.002" ry="13.002"/><path d="M3.998 45.998v1c0 7.203 5.8 13.004 13.004 13.004h29.996c7.203 0 13.004-5.8 13.004-13.004v-1c0 7.203-5.8 13.002-13.004 13.002H17.002A12.975 12.975 0 0 1 3.998 45.998" opacity=".1"/><path fill="#fff" d="M3.998 18.004v-1C3.998 9.801 9.798 4 17.002 4h29.996c7.203 0 13.004 5.8 13.004 13.004v1c0-7.203-5.8-13.002-13.004-13.002H17.002A12.975 12.975 0 0 0 3.998 18.004" opacity=".5"/><path d="M20.806 50.722a2.3 2.3 0 0 1-.725-.397c-.743-.673-.717-.12-.717-15.138v-14.06l.46-.524c.281-.32.645-.554.935-.603.537-.09 26.638-1.728 27.506-1.725.432 0 .694.12 1.122.512l.558.513.038 14.255c.038 14.022.034 14.264-.26 14.743-.164.269-.518.585-.786.702-.358.158-3.905.415-13.423.97-7.114.417-13.238.784-13.608.818s-.865.004-1.1-.066m14.036-3.51c6.333-.37 11.69-.743 11.906-.832s.468-.326.56-.53c.121-.263.17-3.241.17-10.309 0-9.737-.006-9.943-.299-10.236-.164-.164-.417-.297-.561-.294-.143.003-5.642.331-12.217.73l-11.955.724-.346.4-.343.4.002 9.75c.002 7.52.045 9.834.19 10.12.192.381.755.745 1.154.749.123 0 5.406-.301 11.738-.671m-7.363-2.466c-1.993-.424-3.1-1.834-2.557-3.258.244-.643 1.028-1.23 1.643-1.23.333 0 .425.068.425.316 0 .591.626 1.465 1.272 1.778 1.605.777 3.362-.106 3.364-1.69.001-1.267-.695-1.787-2.653-1.98l-1.06-.105-.171-.977c-.19-1.096-.165-1.14.735-1.305 1.437-.262 2.387-1.33 2.177-2.448-.219-1.166-.756-1.664-1.793-1.664-.786 0-1.28.523-1.497 1.581-.172.849-.198.885-.613.855-.696-.051-1.106-.654-1.106-1.627 0-1.028.256-1.63.992-2.334 1.088-1.042 3.034-1.561 4.896-1.308 2.287.312 3.674 2.474 2.853 4.445-.303.73-1.193 1.647-1.917 1.979l-.579.265.653.109c1.332.222 2.45 1.112 2.825 2.25.254.77.114 2.376-.287 3.284-.603 1.366-1.91 2.383-3.679 2.861-.974.264-3.118.375-3.923.203m8.784-1.176c0-.639.379-.972 1.551-1.362l.991-.328V31.348l-.956.06c-.821.053-1 .017-1.271-.254a1.2 1.2 0 0 1-.315-.759c0-.396.067-.46.635-.609 1.251-.328 3.642-1.036 4.51-1.335.485-.168.906-.305.934-.305s.05 3.055.05 6.789v6.787l.345.086c.188.047.726.132 1.196.186.908.107 1.052.306.7.964-.272.51-.76.629-3.052.75-1.238.066-2.943.168-3.786.226l-1.533.106zm-20.363 1.781c-.718-.14-1.267-.51-1.628-1.1-.286-.467-.292-.805-.255-14.11l.038-13.632.457-.565c.95-1.172.204-1.07 14.255-1.949 6.96-.436 12.964-.795 13.343-.798.805-.007 1.516.404 2.037 1.179.257.38.34.717.34 1.37 0 .5-.073.913-.174.975-.096.059-5.362.43-11.702.825s-11.812.757-12.159.806c-.932.133-1.973.9-2.427 1.788l-.38.744-.043 12.186c-.032 9.397-.083 12.212-.224 12.302-.214.135-.712.128-1.478-.02" style="display:inline;fill:#4d4d4d;stroke-width:.84264"/></svg>