<svg xmlns="http://www.w3.org/2000/svg" viewBox="0 0 64 64"><defs><filter id="a" width="1.08" height="1.12" x="-.04" y="-.06" color-interpolation-filters="sRGB"><feGaussianBlur stdDeviation=".4"/></filter></defs><rect width="56.002" height="56.002" x="4" y="3.969" fill="#f32b3b" rx="13.002" ry="13.002"/><g filter="url(#a)" transform="translate(.696 .696)scale(1.3043)"/><g fill="#f2f2f2"><path d="M16.347 42.433V21.564h5.217v20.87m20.869-.001V21.564h5.217v20.87"/><path d="M20.26 21.564h1.304L32 32l10.434-10.435h1.305v5.218l-10.435 9.13h-2.608l-10.435-9.13"/></g><path d="M3.999 45.998V47A12.975 12.975 0 0 0 17 60.002h30A12.975 12.975 0 0 0 60.002 47v-1.002A12.975 12.975 0 0 1 47 59H17A12.975 12.975 0 0 1 4 45.998z" opacity=".15"/><path fill="#fff" d="M3.999 18.002v-.994A12.975 12.975 0 0 1 17 4.006h30a12.975 12.975 0 0 1 13.002 13.002v1.002A12.975 12.975 0 0 0 47 5.008H17A12.975 12.975 0 0 0 4 18.01z" opacity=".15"/></svg>