<svg xmlns="http://www.w3.org/2000/svg" xmlns:xlink="http://www.w3.org/1999/xlink" xml:space="preserve" width="64" height="64"><defs><linearGradient id="a"><stop offset="0" style="stop-color:#1f9bc6;stop-opacity:1"/><stop offset="1" style="stop-color:#8cd8e6;stop-opacity:1"/></linearGradient><linearGradient id="b" x1="7.937" x2="7.937" y1="15.081" y2="1.852" gradientTransform="translate(0 1.03)scale(3.7796)" gradientUnits="userSpaceOnUse"><stop offset="0" stop-color="#f1efeb"/><stop offset="1" stop-color="#fdfcfc"/></linearGradient><linearGradient xlink:href="#a" id="c" x1="-47.215" x2="9.162" y1="-21.595" y2="-19.52" gradientUnits="userSpaceOnUse"/></defs><rect width="56.002" height="56.002" x="3.999" y="4.999" fill="url(#b)" rx="13.002" ry="13.002" style="fill:url(#b)"/><g transform="translate(55.967 38.297)scale(.73065)"><ellipse cx="-22.157" cy="-21.595" rx="25.059" ry="32.234" style="fill:url(#c);fill-opacity:1;stroke-width:1.07781" transform="matrix(.8672 -.49797 .53214 .84666 0 0)"/><ellipse cx="-18.438" cy="-20.842" rx="19.311" ry="24.835" style="fill:#fff;fill-opacity:1;stroke-width:.830513" transform="matrix(.8673 -.4978 .53232 .84655 0 0)"/><g fill="url(#b)"><rect width="19.343" height="19.343" x="-62.584" y="-17.632" rx="3.503" ry="3.503" style="fill:#d9540a;fill-opacity:1"/><rect width="16.388" height="16.388" x="-61.106" y="-16.154" rx="2.968" ry="2.968" style="fill:#fe7f2b;fill-opacity:1"/><rect width="8.866" height="8.866" x="-19.017" y="-27.894" rx="1.606" ry="1.606" style="fill:#d9540a;fill-opacity:1"/><rect width="7.283" height="7.283" x="-18.226" y="-27.103" rx="1.319" ry="1.319" style="fill:#fe7f2b;fill-opacity:1"/><rect width="11.87" height="11.87" x="-15.236" y="6.451" rx="2.15" ry="2.15" style="fill:#d9540a;fill-opacity:1"/><rect width="9.751" height="9.751" x="-14.177" y="7.511" rx="1.766" ry="1.766" style="fill:#fe7f2b;fill-opacity:1"/></g></g></svg>