<svg xmlns="http://www.w3.org/2000/svg" viewBox="0 0 64 64"><rect width="56.002" height="56.002" x="4" y="3.969" fill="#4b3db8" rx="13.002" ry="13.002"/><circle cx="32.02" cy="32.044" r="30.001" fill="none"/><path d="M3.998 45.998v1c0 7.203 5.8 13.004 13.004 13.004h29.996c7.203 0 13.004-5.8 13.004-13.004v-1c0 7.203-5.8 13.002-13.004 13.002H17.002A12.975 12.975 0 0 1 3.998 45.998" opacity=".15"/><path fill="#fff" d="M3.998 18.004v-1C3.998 9.801 9.798 4 17.002 4h29.996c7.203 0 13.004 5.8 13.004 13.004v1c0-7.203-5.8-13.002-13.004-13.002H17.002A12.975 12.975 0 0 0 3.998 18.004" opacity=".15"/><path fill="#8934ea" d="M23.116 11a3.22 3.22 0 0 0-2.778 1.586L9.84 30.352a3.24 3.24 0 0 0 0 3.295l10.498 17.766a3.24 3.24 0 0 0 2.778 1.586h17.766a3.22 3.22 0 0 0 2.778-1.586l10.498-17.766a3.24 3.24 0 0 0 0-3.295L43.66 12.586A3.24 3.24 0 0 0 40.882 11z"/><path fill="#250c7f" d="M23.924 17.46v29.072h15.343c.583 0 1.12-.315 1.407-.824l7.268-12.92a1.62 1.62 0 0 0 0-1.583l-7.268-12.921z"/><path fill="#fff" d="M23.924 15.845c-.588 0-1.13.318-1.414.833l-8.075 14.536a1.61 1.61 0 0 0 0 1.568l8.075 14.536c.81 1.46 3.037.884 3.037-.785v-8.075a1.615 1.615 0 0 1 1.615-1.615h19.381c.612 0 1.171-.346 1.446-.893l1.615-3.23c.536-1.075-.244-2.342-1.446-2.342H27.162a1.615 1.615 0 0 1-1.615-1.616v-4.845a1.615 1.615 0 0 1 1.615-1.615h14.536c1.268-.001 2.035-1.395 1.37-2.471l-2.02-3.23a1.62 1.62 0 0 0-1.37-.76z"/></svg>