<svg xmlns="http://www.w3.org/2000/svg" xmlns:xlink="http://www.w3.org/1999/xlink" xml:space="preserve" width="64" height="64"><defs><linearGradient id="b"><stop offset="0" style="stop-color:#2d118b;stop-opacity:1"/><stop offset="1" style="stop-color:#1b046b;stop-opacity:1"/></linearGradient><linearGradient id="a" x1="7.937" x2="7.937" y1="15.081" y2="1.852" gradientTransform="translate(0 .032)scale(3.7795)" gradientUnits="userSpaceOnUse"><stop offset="0" stop-color="#262626" style="stop-color:#040fd9;stop-opacity:1"/><stop offset="1" stop-color="#505050" style="stop-color:#7104e8;stop-opacity:1"/></linearGradient><linearGradient xlink:href="#a" id="c" x1="8.711" x2="8.711" y1="17.849" y2=".668" gradientTransform="translate(-.249 -.218)scale(3.80894)" gradientUnits="userSpaceOnUse"/><linearGradient xlink:href="#b" id="d" x1="-20.826" x2="-20.826" y1="-144.507" y2="-101.351" gradientTransform="translate(52.522 157.246)scale(1.00001)" gradientUnits="userSpaceOnUse"/></defs><path d="M17.002 4C9.799 4 4 9.8 4 17.002v29.996c0 1.775.356 3.463.994 5.002a12.97 12.97 0 0 0 12.008 8h29.996a12.97 12.97 0 0 0 12.008-8A13 13 0 0 0 60 46.998V17.002C60.016 9.815 54.185 3.985 46.998 4z" style="fill:url(#c);stroke-width:1.00779"/><path d="M16.726 12.728a2.57 2.57 0 0 0-2.569 2.568v33.408a2.57 2.57 0 0 0 2.569 2.568h25.623c4.75 0 7.494-2.544 7.494-7.494V15.296a2.57 2.57 0 0 0-2.569-2.568H22.081Z" style="fill:url(#d);fill-opacity:1;stroke-width:.891743"/><path d="M-34.238-135.941v23.893a5.055 5.055 45 0 0 5.054 5.054h.031a1.905 1.905 135 0 0 1.905-1.905v-8.542a1.905 1.905 135 0 1 1.905-1.905h20.68a1.905 1.905 135 0 0 1.905-1.904v-3.18a1.905 1.905 45 0 0-1.905-1.904h-20.68a1.905 1.905 45 0 1-1.905-1.905v-3.864a1.905 1.905 135 0 1 1.905-1.905h20.68a1.905 1.905 135 0 0 1.905-1.905v-.028a5.055 5.055 45 0 0-5.055-5.055h-21.371a5.055 5.055 135 0 0-5.054 5.055" style="fill:#fff;fill-opacity:1;stroke-width:.968738" transform="translate(54.78 184.695)scale(1.23146)"/></svg>