<svg xmlns="http://www.w3.org/2000/svg" image-rendering="optimizeSpeed" viewBox="0 0 64 64"><rect width="55.999" height="55.999" x="4" y="4" fill="#ff644f" rx="13.001" ry="13.001"/><g fill-rule="evenodd"><path fill="#fff" d="m37.162 26.612 8.858-5.553c.725-.454 1.388-.134 1.48.715l1.833 16.946c.092.85-.487 1.308-1.291 1.024l-9.865-3.474.214 2.036a3.1 3.1 0 0 1-2.757 3.41L15.606 43.82a3.097 3.097 0 0 1-3.406-2.762l-1.456-13.857a3.1 3.1 0 0 1 2.757-3.409l20.028-2.105a3.097 3.097 0 0 1 3.406 2.762zm0 0-8.185 5.131c-.725.455-.661 1.053.144 1.337l9.056 3.19z"/><path fill="#fff" d="m59.281 12.758-14.805 9.336 1.78 16.947 13.741 5.373V17.002c0-1.49-.26-2.914-.717-4.244z" opacity=".2"/><path fill="#fff3f3" d="M46.02 21.641c.725-.455 1.388-.134 1.48.714l1.834 16.365c.092.85-.487 1.308-1.292 1.025l-9.86-3.47.21 1.45a3.1 3.1 0 0 1-2.758 3.41L15.606 43.24a3.097 3.097 0 0 1-3.406-2.762l-1.456-12.695a3.1 3.1 0 0 1 2.757-3.41L33.53 22.27c1.702-.18 3.31 1.052 3.49 2.761 0 0 .182 2.13.201 2.118zM28.977 31.744c-.725.454-.66 1.634.145 1.918l9.147 3.19-1.106-10.24z"/></g><path d="M3.999 45.998V47A12.975 12.975 0 0 0 17 60.002h30A12.975 12.975 0 0 0 60.002 47v-1.002A12.975 12.975 0 0 1 47 59H17A12.975 12.975 0 0 1 4 45.998z" opacity=".15"/><path fill="#fff" d="M3.999 18.002v-.994A12.975 12.975 0 0 1 17 4.006h30a12.975 12.975 0 0 1 13.002 13.002v1.002A12.975 12.975 0 0 0 47 5.008H17A12.975 12.975 0 0 0 4 18.01z" opacity=".15"/></svg>