<svg xmlns="http://www.w3.org/2000/svg" width="64" height="64" fill="none"><defs><linearGradient id="a" x1="7.937" x2="7.937" y1="15.081" y2="1.852" gradientTransform="scale(3.7796)" gradientUnits="userSpaceOnUse"><stop offset="0" stop-color="#f1efeb"/><stop offset="1" stop-color="#fdfcfc"/></linearGradient><linearGradient id="b" x1="28.846" x2="28.846" y1="22.08" y2="39.842" gradientUnits="userSpaceOnUse"><stop offset="0" stop-color="#ffd752"/><stop offset="1" stop-color="#ff8648"/></linearGradient></defs><rect width="56.002" height="56.002" x="4" y="3.969" fill="url(#a)" rx="13.002" ry="13.002"/><rect width="40" height="22" x="12" y="20" fill="url(#b)" rx="11" ry="11"/><circle cx="41" cy="31" r="7" fill="#feeed1" fill-rule="evenodd" style="paint-order:stroke fill markers"/><path fill="#000" d="M12.012 30.5A10.976 10.976 0 0 0 23 42h18a10.976 10.976 0 0 0 10.99-11.5A10.974 10.974 0 0 1 41 41H23a10.973 10.973 0 0 1-10.988-10.5" opacity=".1"/><path fill="#fff" d="M23 20a10.976 10.976 0 0 0-10.988 11.5C12.272 25.64 17.074 21 23 21h18c5.926 0 10.729 4.64 10.988 10.5A10.976 10.976 0 0 0 41 20z" opacity=".35"/></svg>