<svg xmlns="http://www.w3.org/2000/svg" viewBox="0 0 64 64"><rect width="56.002" height="56.002" x="4" y="4" fill="#ed437c" rx="13.002" ry="13.002"/><path fill="#fce4ec" d="M24 18v4h4v-4zm12 0v4h4v-4zm-18 2v4h4v-4zm24 0v4h4v-4zm-30 2v4h4v-4zm18 0v4h4v-4zm18 0v4h4v-4zm-24 2v4h4v-4zm12 0v4h4v-4zm-18 2v4h4v-4zm24 0v4h4v-4zm-30 2v4h4v-4zm18 0v4h4v-4zm18 0v4h4v-4zm-24 2v4h4v-4zm12 0v4h4v-4zm-18 2v4h4v-4zm24 0v4h4v-4zm-30 2v4h4v-4zm18 0v4h4v-4zm18 0v4h4v-4zm-24 2v4h4v-4zm12 0v4h4v-4zm-18 2v4h4v-4zm24 0v4h4v-4zm-12 2v4h4v-4zm-6 2v4h4v-4zm12 0v4h4v-4zm-6 4v4h4v-4z"/><path d="M3.998 45.998v1c0 7.203 5.8 13.004 13.004 13.004h29.996c7.203 0 13.004-5.8 13.004-13.004v-1c0 7.203-5.8 13.002-13.004 13.002H17.002A12.975 12.975 0 0 1 3.998 45.998" opacity=".15"/><path fill="#fff" d="M3.998 18.004v-1C3.998 9.801 9.798 4 17.002 4h29.996c7.203 0 13.004 5.8 13.004 13.004v1c0-7.203-5.8-13.002-13.004-13.002H17.002A12.975 12.975 0 0 0 3.998 18.004" opacity=".15"/></svg>