<svg xmlns="http://www.w3.org/2000/svg" viewBox="0 0 64 64"><rect width="56.002" height="56.002" x="4" y="3.969" fill="#f2f2f2" rx="13.002" ry="13.002"/><path d="M3.998 45.998v1c0 7.203 5.8 13.004 13.004 13.004h29.996c7.203 0 13.004-5.8 13.004-13.004v-1c0 7.203-5.8 13.002-13.004 13.002H17.002A12.975 12.975 0 0 1 3.998 45.998" opacity=".1"/><path fill="#fff" d="M3.998 18.004v-1C3.998 9.801 9.798 4 17.002 4h29.996c7.203 0 13.004 5.8 13.004 13.004v1c0-7.203-5.8-13.002-13.004-13.002H17.002A12.975 12.975 0 0 0 3.998 18.004" opacity=".5"/><path fill="#a1adbb" d="M20.197 10.502a.954.954 0 0 0-.98.708l-8.684 32.4a.955.955 0 0 0 .678 1.173l32.4 8.683a.955.955 0 0 0 1.173-.678l8.683-32.4a.955.955 0 0 0-.678-1.173l-32.4-8.683a1 1 0 0 0-.192-.03m9.145 16.89 7.265 1.95-1.95 7.264-7.264-1.95z"/></svg>