<svg xmlns="http://www.w3.org/2000/svg" viewBox="0 0 64 64"><defs><linearGradient id="b" x1="399.57" x2="399.57" y1="545.8" y2="517.8" gradientTransform="translate(-826.36 -1107.5)scale(2.1429)" gradientUnits="userSpaceOnUse"><stop offset="0" stop-color="#3889e9"/><stop offset="1" stop-color="#5ea5fb"/></linearGradient><style id="current-color-scheme" type="text/css">.ColorScheme-Text{color:#363636}</style></defs><rect width="56.002" height="56.002" x="4" y="3.969" fill="#4d4d4d" stroke-width="3.78" rx="13.002" ry="13.002"/><circle cx="32.02" cy="32.044" r="30.001" fill-opacity="0" stroke-width="1.571"/><rect width="44" height="34" x="12" y="19" fill="#64dafc" stroke-linecap="round" stroke-linejoin="round" stroke-width="2" opacity=".5" rx="4" ry="4"/><rect width="44" height="34" x="9" y="12" fill="#64dafc" stroke-linecap="round" stroke-linejoin="round" stroke-width="2" rx="4" ry="4"/><path fill="#fff" stroke-linecap="round" stroke-linejoin="round" stroke-width="2" d="M13 12c-2.216 0-4 1.784-4 4v3h44v-3c0-2.216-1.784-4-4-4z" opacity=".25"/><path fill="#273a3f" stroke-width=".188" d="M14.225 15.594a.65.65 0 0 1 .324-.563.68.68 0 0 0-.549-.3c-.233-.037-.456.132-.574.132s-.301-.132-.495-.132c-.255 0-.49.15-.62.375-.265.47-.068 1.144.19 1.52.126.168.276.374.473.374.19 0 .262-.131.492-.131s.294.131.495.131c.204 0 .334-.187.459-.375.145-.206.204-.412.208-.431a.65.65 0 0 1-.403-.6m-.378-1.106a.7.7 0 0 0 .156-.488.63.63 0 0 0-.442.225c-.097.113-.181.3-.159.469.169.019.34-.094.445-.206" class="ColorScheme-Text"/><path fill="#273a3f" stroke-width=".214" d="M47.334 14A1.174 1.174 0 1 0 48 16.142l.786.787c.205.215.52-.108.3-.307l-.501-.502-.284-.284A1.174 1.174 0 0 0 47.334 14m0 .214a.96.96 0 1 1 0 1.921.96.96 0 0 1 0-1.921" class="ColorScheme-Text"/><path d="M3.998 45.998v1c0 7.203 5.8 13.004 13.004 13.004h29.996c7.203 0 13.004-5.8 13.004-13.004v-1c0 7.203-5.8 13.002-13.004 13.002H17.002A12.975 12.975 0 0 1 3.998 45.998" opacity=".35"/><path fill="#fff" d="M3.998 18.004v-1C3.998 9.801 9.798 4 17.002 4h29.996c7.203 0 13.004 5.8 13.004 13.004v1c0-7.203-5.8-13.002-13.004-13.002H17.002A12.975 12.975 0 0 0 3.998 18.004" opacity=".15"/></svg>