<svg xmlns="http://www.w3.org/2000/svg" xml:space="preserve" viewBox="0 0 64 64"><rect width="56.002" height="56.002" x="4" y="3.969" fill="#4d4d4d" rx="13.002" ry="13.002"/><path d="M3.998 45.998v1c0 7.203 5.8 13.004 13.004 13.004h29.996c7.203 0 13.004-5.8 13.004-13.004v-1c0 7.203-5.8 13.002-13.004 13.002H17.002A12.975 12.975 0 0 1 3.998 45.998" opacity=".35"/><path fill="#fff" d="M3.998 18.004v-1C3.998 9.801 9.798 4 17.002 4h29.996c7.203 0 13.004 5.8 13.004 13.004v1c0-7.203-5.8-13.002-13.004-13.002H17.002A12.975 12.975 0 0 0 3.998 18.004" opacity=".15"/><path fill="#fff" d="M20.296 14.61h21.033l-5.324 9.206H24.599l-4.753 8.217 4.819 8.332h22.25l-5.46 9.44h-21.61L9.419 31.777 19.4 14.521z" style="stroke-width:2.5202"/><path fill="#0a8" d="m19.399 14.522 16.605 9.294 5.324-9.205zm5.265 25.844-4.82 9.44h21.61l5.46-9.44z" style="stroke-width:2.5202"/><path fill="#0cf" d="m19.399 14.522 16.605 9.294H24.598l-4.753 8.217 4.819 8.332-4.82 9.44L9.418 31.779z" style="stroke-width:2.5202"/><path fill="#0a8" d="m24.598 23.816 16.731-9.206-5.324 9.206zm-15.18 7.963 15.18-7.963-4.754 8.217z" style="stroke-width:2.5202"/><path fill="#0a8" d="M24.598 23.816 19.4 14.522l.445 17.51z" style="stroke-width:2.5202"/><path fill="#0cf" d="m24.664 40.366 16.79 9.44 5.46-9.44z" style="stroke-width:2.5202"/><path fill="#0a8" d="m19.845 32.033-7.96 3.985 7.96 13.787z" style="stroke-width:2.5202"/><path fill="#0a8" d="m11.885 36.018 12.779 4.347-4.819-8.332z" style="stroke-width:2.5202"/><ellipse cx="50.943" cy="36.582" fill="#0cf" rx="3.589" ry="3.583" style="stroke-width:.3701;fill:#00e6c7;fill-opacity:1"/><ellipse cx="43.383" cy="28.224" fill="#0cf" rx="2.725" ry="2.72" style="stroke-width:.3701;fill:#00e6c7;fill-opacity:1"/><ellipse cx="47.135" cy="18.795" fill="#0cf" rx="1.403" ry="1.401" style="stroke-width:.3701;fill:#00e6c7;fill-opacity:1"/></svg>