<svg xmlns="http://www.w3.org/2000/svg" viewBox="0 0 64 64"><rect width="56.002" height="56.002" x="4" y="3.969" fill="#f2f2f2" rx="13.002" ry="13.002"/><path fill="#1eabf8" fill-rule="evenodd" d="M32 7A25 25 0 0 0 7 32a25 25 0 0 0 25 25 25 25 0 0 0 25-25A25 25 0 0 0 32 7m1.5 8.5h3v9.12a10.5 9 0 0 1 6-1.62A10.5 9 0 0 1 53 32a10.5 9 0 0 1-10.5 9 10.5 9 0 0 1-6-1.629V42.5h-3zm-6 6h3v27h-3v-9.12a10.5 9 0 0 1-6 1.62A10.5 9 0 0 1 11 32a10.5 9 0 0 1 10.5-9 10.5 9 0 0 1 6 1.629zm-6 4.5a7.5 6 0 0 0-7.5 6 7.5 6 0 0 0 7.5 6 7.5 6 0 0 0 6-2.414v-7.174a7.5 6 0 0 0-6-2.412m21 0a7.5 6 0 0 0-6 2.414v7.176a7.5 6 0 0 0 6 2.41 7.5 6 0 0 0 7.5-6 7.5 6 0 0 0-7.5-6" color="#000"/><path d="M3.998 45.998v1c0 7.203 5.8 13.004 13.004 13.004h29.996c7.203 0 13.004-5.8 13.004-13.004v-1c0 7.203-5.8 13.002-13.004 13.002H17.002A12.975 12.975 0 0 1 3.998 45.998" opacity=".1"/><path fill="#fff" d="M3.998 18.004v-1C3.998 9.801 9.798 4 17.002 4h29.996c7.203 0 13.004 5.8 13.004 13.004v1c0-7.203-5.8-13.002-13.004-13.002H17.002A12.975 12.975 0 0 0 3.998 18.004" opacity=".5"/></svg>