<svg xmlns="http://www.w3.org/2000/svg" viewBox="0 0 64 64"><defs><linearGradient id="a" x1="2568.6" x2="2568.6" y1="1956.4" y2="1079.1" gradientTransform="translate(-131.95 -64.909)scale(.06383)" gradientUnits="userSpaceOnUse"><stop offset="0" stop-color="#8a26af"/><stop offset="1" stop-color="#3bcbd9"/></linearGradient></defs><rect width="56.002" height="56.002" x="4" y="3.969" fill="url(#a)" rx="13.002" ry="13.002" style="fill:#8780cb;fill-opacity:1"/><path fill="#ecedf1" d="M31.997 18.001A13.97 13.97 0 0 0 18 31.474c2 5.258 7.085 8.971 13.063 8.971 4.228 0 7.988-1.855 10.544-4.802A13.91 13.91 0 0 1 32.194 46 13.95 13.95 0 0 0 46 32.003a13.957 13.957 0 0 0-13.997-13.997" style="fill:#fff"/><path d="M3.998 45.998v1c0 7.203 5.8 13.004 13.004 13.004h29.996c7.203 0 13.004-5.8 13.004-13.004v-1c0 7.203-5.8 13.002-13.004 13.002H17.002A12.975 12.975 0 0 1 3.998 45.998" opacity=".15"/><path fill="#fff" d="M3.998 18.004v-1C3.998 9.801 9.798 4 17.002 4h29.996c7.203 0 13.004 5.8 13.004 13.004v1c0-7.203-5.8-13.002-13.004-13.002H17.002A12.975 12.975 0 0 0 3.998 18.004" opacity=".15"/></svg>