<svg xmlns="http://www.w3.org/2000/svg" viewBox="0 0 16.933 16.933"><defs><filter id="a" width="1.12" height="1.12" x="-.06" y="-.06" color-interpolation-filters="sRGB"><feGaussianBlur stdDeviation=".146"/></filter></defs><g stroke-width=".265"><rect width="14.817" height="14.817" x="1.058" y="1.05" fill="#4d4d4d" rx="3.44" ry="3.44"/><path d="M1.058 12.17v.265a3.433 3.433 0 0 0 3.44 3.44h7.937a3.433 3.433 0 0 0 3.44-3.44v-.265a3.433 3.433 0 0 1-3.44 3.44H4.498a3.433 3.433 0 0 1-3.44-3.44" opacity=".35"/><path fill="#fff" d="M1.058 4.764v-.265a3.433 3.433 0 0 1 3.44-3.44h7.937a3.433 3.433 0 0 1 3.44 3.44v.265a3.433 3.433 0 0 0-3.44-3.44H4.498a3.433 3.433 0 0 0-3.44 3.44" opacity=".15"/></g><g stroke-width=".265" filter="url(#a)" opacity=".15" transform="translate(-.316 -.303)scale(1.0555)"><path d="M8.32 5.398a2.91 2.91 0 0 0-2.91 2.91 2.91 2.91 0 0 0 2.91 2.91 2.91 2.91 0 0 0 2.91-2.91 2.91 2.91 0 0 0-2.91-2.91m.039.251a2.646 2.646 0 0 1 2.646 2.646 2.646 2.646 0 0 1-2.646 2.646 2.646 2.646 0 0 1-2.646-2.646A2.646 2.646 0 0 1 8.359 5.65"/><path d="M9.908 8.166 7.262 10.16V6.456z"/></g><g stroke-width="1.2"><path fill="#4484c2" d="M8.466 3.44a5.026 5.026 0 0 0-5.027 5.027 5.026 5.026 0 0 0 3.707 4.844c1.52-.989 2.538-1.773 3.183-2.406a3.07 3.07 0 0 1-1.863.633 3.07 3.07 0 0 1-3.072-3.071 3.07 3.07 0 0 1 1.972-2.865c.348-.533 1.016-1.2 2.13-2.053a5 5 0 0 0-1.03-.11m-1.32 2.578a2.79 2.79 0 0 0-1.431 2.435 2.793 2.793 0 0 0 2.792 2.793 2.79 2.79 0 0 0 2.708-2.13c-.144-.395-.622-.658-1.2-.881l.126.082-2.792 2.105V7.08c-.27-.27-.378-.607-.202-1.064z"/><path fill="#dedede" d="M9.497 3.55c-1.115.852-1.784 1.52-2.132 2.052a3.1 3.1 0 0 1 1.1-.208 3.07 3.07 0 0 1 3.072 3.072 3.07 3.07 0 0 1-1.208 2.438c-.645.633-1.664 1.418-3.183 2.406a5 5 0 0 0 1.32.183 5.026 5.026 0 0 0 5.027-5.026 5.026 5.026 0 0 0-3.996-4.919zm-.991 2.11a2.8 2.8 0 0 0-1.359.358c-.177.457-.07.795.2 1.063v-.57l2.667 1.724c.58.223 1.056.485 1.201.882a2.8 2.8 0 0 0 .085-.664A2.793 2.793 0 0 0 8.506 5.66"/></g></svg>