<svg xmlns="http://www.w3.org/2000/svg" viewBox="0 0 64 64"><rect width="64" height="64" fill="none" rx="0" ry="0" style="paint-order:stroke fill markers"/><rect width="56.002" height="56.002" x="4" y="3.969" fill="#f2f2f2" rx="13.002" ry="13.002"/><path d="M3.998 45.998v1c0 7.203 5.8 13.004 13.004 13.004h29.996c7.203 0 13.004-5.8 13.004-13.004v-1c0 7.203-5.8 13.002-13.004 13.002H17.002A12.975 12.975 0 0 1 3.998 45.998" opacity=".1"/><path fill="#fff" d="M3.998 18.004v-1C3.998 9.801 9.798 4 17.002 4h29.996c7.203 0 13.004 5.8 13.004 13.004v1c0-7.203-5.8-13.002-13.004-13.002H17.002A12.975 12.975 0 0 0 3.998 18.004" opacity=".5"/><path fill="#ffa348" d="M31.997 17.949c-6.76 0-13.517 2.572-18.66 7.715a2.47 2.47 0 0 0 0 3.498 2.473 2.473 0 0 0 3.5 0 21.4 21.4 0 0 1 30.32 0 2.475 2.475 0 0 0 3.5-3.498c-5.142-5.143-11.9-7.715-18.66-7.715m0 9.897c-4.227 0-8.453 1.605-11.663 4.815a2.47 2.47 0 0 0 0 3.498 2.473 2.473 0 0 0 3.5 0 11.507 11.507 0 0 1 16.327 0 2.473 2.473 0 0 0 3.498 0 2.47 2.47 0 0 0 0-3.498c-3.21-3.21-7.436-4.815-11.662-4.815m.079 9.965a4.33 4.33 0 0 0 0 8.66 4.33 4.33 0 0 0 0-8.66"/></svg>