<svg xmlns="http://www.w3.org/2000/svg" viewBox="0 0 16.933 16.933"><rect width="14.817" height="14.817" x="1.058" y="1.05" fill="#f2f2f2" rx="3.44" ry="3.44"/><path d="M1.058 12.17v.265a3.433 3.433 0 0 0 3.44 3.44h7.937a3.433 3.433 0 0 0 3.44-3.44v-.265a3.433 3.433 0 0 1-3.44 3.44H4.498a3.433 3.433 0 0 1-3.44-3.44" opacity=".1"/><path fill="#fff" d="M1.058 4.763V4.5a3.433 3.433 0 0 1 3.44-3.44h7.937a3.433 3.433 0 0 1 3.44 3.44v.265a3.433 3.433 0 0 0-3.44-3.44H4.498a3.433 3.433 0 0 0-3.44 3.44z" opacity=".5"/><g stroke-width=".39" transform="translate(-.84 .472)scale(.99052)"><path fill="#8c8c8c" d="M12.129 3.12a.39.39 0 0 0-.372.274l-2.696.608H9.06l-.021-.095-3.026.683.13.572 3.025-.683-.021-.096 2.696-.609a.4.4 0 0 0 .286.126.39.39 0 0 0 .39-.39.39.39 0 0 0-.39-.39"/><circle cx="6.077" cy="4.876" r=".586" fill="#616161"/><rect width=".39" height="1.562" x="5.882" y="4.681" fill="#8c8c8c" ry=".195"/><path fill="#7c5637" d="M5.687 5.461a.195.195 0 0 0-.195.196v.78h1.171v-.78a.195.195 0 0 0-.195-.196zm4.49.39-.39 3.514.39 3.514h3.513a.78.78 0 0 0 .78-.781V6.633a.78.78 0 0 0-.78-.781z"/><path fill="#e3a812" d="M5.101 5.852a.78.78 0 0 0-.78.78v5.466c0 .433.348.78.78.78h5.076V5.853zm7.223 1.171a.976.976 0 0 0-.976.976.976.976 0 0 0 .976.976.976.976 0 0 0 .976-.976.976.976 0 0 0-.976-.976m-.39.39a.195.195 0 0 1 .195.196.195.195 0 0 1-.195.195.195.195 0 0 1-.196-.195.195.195 0 0 1 .196-.196m-.39 2.343a.195.195 0 0 0-.196.195v.39c0 .108.087.195.195.195h.39a.195.195 0 0 0 .196-.195v-.39a.195.195 0 0 0-.195-.195zm1.17 0a.195.195 0 0 0-.195.195v.39c0 .108.087.195.195.195h.39a.195.195 0 0 0 .196-.195v-.39a.195.195 0 0 0-.195-.195zm-1.17 1.17a.195.195 0 0 0-.196.196v.39c0 .109.087.196.195.196h.39a.195.195 0 0 0 .196-.196v-.39a.195.195 0 0 0-.195-.195zm1.17 0a.195.195 0 0 0-.195.196v.39c0 .109.087.196.195.196h.39a.195.195 0 0 0 .196-.196v-.39a.195.195 0 0 0-.195-.195z"/><path fill="#7c5637" d="M7.249 7.023a1.76 1.76 0 0 0-1.1.39h2.204a1.76 1.76 0 0 0-1.105-.39zm-1.459.78a1.8 1.8 0 0 0-.194.391h3.309a1.8 1.8 0 0 0-.195-.39zm-.284.782a2 2 0 0 0-.014.195 2 2 0 0 0 .014.195h3.486a2 2 0 0 0 .013-.195 2 2 0 0 0-.011-.195zm.09.78a1.8 1.8 0 0 0 .194.39h2.917a1.8 1.8 0 0 0 .194-.39zm.554.781a1.76 1.76 0 0 0 1.099.39 1.76 1.76 0 0 0 1.098-.39zm-.463 1.171a.195.195 0 0 0-.195.196v.39c0 .108.087.195.195.195h.586v-.195a.195.195 0 1 1 .39 0v.195H8.81a.195.195 0 0 0 .195-.195v-.39a.195.195 0 0 0-.195-.196z"/><path fill="#fff" d="M5.882 11.317v.78h.39v-.78zm.781 0v.78h.39v-.78zm.78 0v.78h.391v-.78zm.782 0v.78h.39v-.78z" opacity=".12"/></g></svg>