<svg xmlns="http://www.w3.org/2000/svg" viewBox="0 0 64 64"><path fill="#814a9f" d="M17.002 3.969A12.973 12.973 0 0 0 4 16.97v29.998A12.973 12.973 0 0 0 17.002 59.97H47a12.973 12.973 0 0 0 13.002-13.002V16.97A12.973 12.973 0 0 0 47 3.969z"/><rect width="49.998" height="49.998" x="7.002" y="6.971" fill="#fff" rx="10" ry="10"/><circle cx="32.02" cy="32.044" r="30.001" fill="none"/><path fill="#333" d="M18.901 11v15.994l-.014.014v25.519h1.887V38.392l3.277 3.277c.527.527 1.471.82 2.492-.176l-5.755-5.756v-7.962l5.742-5.74c-1.022-.997-1.965-.705-2.492-.178l-3.25 3.25V11H18.9z" color="#000" style="font-feature-settings:normal;font-variant-alternates:normal;font-variant-caps:normal;font-variant-ligatures:normal;font-variant-numeric:normal;font-variant-position:normal;isolation:auto;mix-blend-mode:normal;shape-padding:0;text-decoration-color:#000;text-decoration-line:none;text-decoration-style:solid;text-indent:0;text-orientation:mixed;text-transform:none;white-space:normal"/><rect width="15.101" height="6.607" x="34.123" y="-24.08" fill="#fff" fill-opacity=".441" rx="1.071" ry="1.071" style="paint-order:normal" transform="rotate(90)"/><rect width="15.101" height="6.607" x="14.303" y="-24.08" fill="#fff" fill-opacity=".441" rx="1.071" ry="1.071" style="paint-order:normal" transform="rotate(90)"/><path fill="#864ba1" d="M17.002 11a.935.935 0 0 0-.943.943v3.883c-.013.097-.03.192-.03.291V27.59c0 .1.017.195.03.291v.108s0 .729.453 1.28c-.435.25-.808.614-1.06 1.073a2.95 2.95 0 0 0 0 2.844c.254.462.63.826 1.068 1.076-.262.28-.461.675-.461 1.277v.108c-.013.096-.03.191-.03.29v11.474c0 .1.017.194.03.29v3.884c0 .415.426.943.943.943h3.775s-.952 0-.943-.943v-1.86h2.432a2.32 2.32 0 0 0 2.314-2.314V35.938a2.32 2.32 0 0 0-2.314-2.315h-3.922c-.1 0-.195.017-.291.03h-.037a.5.5 0 0 0-.176-.03c-.619 0-1.195-.344-1.514-.922a1.96 1.96 0 0 1 0-1.875c.319-.578.895-.921 1.514-.921a.5.5 0 0 0 .17-.028h.062c.09.011.179.028.272.028h3.922a2.32 2.32 0 0 0 2.314-2.315V16.117a2.32 2.32 0 0 0-2.314-2.314h-2.432v-1.86c0-.944.943-.943.943-.943zm1.342 3.803h3.922a1.3 1.3 0 0 1 1.314 1.314V27.59a1.3 1.3 0 0 1-1.314 1.315h-3.922c-.07 0-.138-.01-.205-.02a.35.35 0 0 1-.186-.322V15.145c0-.15.072-.263.186-.322.067-.01.134-.02.205-.02m0 19.82h3.922a1.3 1.3 0 0 1 1.314 1.314V47.41a1.3 1.3 0 0 1-1.314 1.315h-3.922q-.11-.002-.215-.02a.35.35 0 0 1-.184-.322V34.965c0-.182.118-.281.276-.33.041-.004.08-.012.123-.012" color="#000" style="font-feature-settings:normal;font-variant-alternates:normal;font-variant-caps:normal;font-variant-ligatures:normal;font-variant-numeric:normal;font-variant-position:normal;isolation:auto;mix-blend-mode:normal;paint-order:normal;shape-padding:0;text-decoration-color:#000;text-decoration-line:none;text-decoration-style:solid;text-indent:0;text-orientation:mixed;text-transform:none;white-space:normal"/><path fill="#f2f2f2" d="M46.998 6.97c5.54 0 10 4.46 10 10v30c0 5.54-4.46 10-10 10H32v-50z"/><rect width="17" height=".5" x="36" y="14" opacity=".1" rx="0" ry="0"/><rect width="17" height=".5" x="36" y="18" opacity=".1" rx="0" ry="0"/><rect width="17" height=".5" x="36" y="22" opacity=".1" rx="0" ry="0"/><rect width="17" height=".5" x="36" y="26" opacity=".1" rx="0" ry="0"/><rect width="17" height=".5" x="36" y="30" opacity=".1" rx="0" ry="0"/><rect width="17" height=".5" x="36" y="34" opacity=".1" rx="0" ry="0"/><rect width="17" height=".5" x="36" y="38" opacity=".1" rx="0" ry="0"/><rect width="17" height=".5" x="36" y="42" opacity=".1" rx="0" ry="0"/><rect width="17" height=".5" x="36" y="46" opacity=".1" rx="0" ry="0"/><rect width="17" height=".5" x="36" y="50" opacity=".1" rx="0" ry="0"/><path d="M3.998 45.998v1c0 7.203 5.8 13.004 13.004 13.004h29.996c7.203 0 13.004-5.8 13.004-13.004v-1c0 7.203-5.8 13.002-13.004 13.002H17.002A12.975 12.975 0 0 1 3.998 45.998" opacity=".15"/><path fill="#fff" d="M3.998 18.004v-1C3.998 9.801 9.798 4 17.002 4h29.996c7.203 0 13.004 5.8 13.004 13.004v1c0-7.203-5.8-13.002-13.004-13.002H17.002A12.975 12.975 0 0 0 3.998 18.004" opacity=".15"/></svg>