<svg xmlns="http://www.w3.org/2000/svg" viewBox="0 0 64 64"><rect width="56.002" height="56.002" x="4" y="3.969" fill="#f2f2f2" rx="13.002" ry="13.002"/><path d="M3.998 45.998v1c0 7.203 5.8 13.004 13.004 13.004h29.996c7.203 0 13.004-5.8 13.004-13.004v-1c0 7.203-5.8 13.002-13.004 13.002H17.002A12.975 12.975 0 0 1 3.998 45.998" opacity=".1"/><path fill="#fff" d="M3.998 18.004v-1C3.998 9.801 9.798 4 17.002 4h29.996c7.203 0 13.004 5.8 13.004 13.004v1c0-7.203-5.8-13.002-13.004-13.002H17.002A12.975 12.975 0 0 0 3.998 18.004" opacity=".5"/><path fill="#535353" d="m22 18 4 6h-8l-1 4h-4.5l1.5-6h-3L8 34h7.2L14 38h7l-5 6h6l4-6h12l4 6h6l-5-6h7l-1.2-4H56l-3-12h-3l1.5 6H47l-1-4h-8l4-6h-3l-4 6h-6l-4-6z"/><path fill="#fff" d="M38 27v5h5v-5zm-17 0v5h5v-5z"/></svg>