<svg xmlns="http://www.w3.org/2000/svg" width="64" height="64"><defs><linearGradient id="a" x1="7.937" x2="7.937" y1="15.081" y2="1.852" gradientTransform="scale(3.7796)" gradientUnits="userSpaceOnUse"><stop offset="0" stop-color="#363636"/><stop offset="1" stop-color="#6c6c6c"/></linearGradient><filter id="b" width="1.294" height="1.294" x="-.147" y="-.147" color-interpolation-filters="sRGB"><feGaussianBlur stdDeviation="3.308"/></filter></defs><rect width="56.002" height="56.002" x="4" y="3.969" fill="url(#a)" rx="13.002" ry="13.002"/><circle cx="32.02" cy="32.044" r="30.001" fill="none"/><circle cx="32.02" cy="32.044" r="30.001" fill="none"/><path d="M7.006 6.286A2.004 2.004 0 0 0 5 8.298v24.987c0 2.255.684 4.343 1.856 6.07C12.346 47.52 22.458 59.687 32 60.285h24.43c.276 0 1.285 0 1.88-.5l.005-.003A2 2 0 0 0 59 58.273V33.285a10.77 10.77 0 0 0-1.856-6.07c-2.904-4.317-7.105-9.741-11.826-13.995-2.721-2.388-5.566-4.398-8.298-5.627-1.673-.727-3.354-1.203-5.02-1.308H15.8z" filter="url(#b)" opacity=".15" transform="translate(7.111 7.111)scale(.77778)"/><path fill="#007ec2" d="M12.56 11A1.56 1.56 0 0 0 11 12.565V32a8.37 8.37 0 0 0 1.444 4.72C16.714 43.07 24.579 52.536 32 53h6.797l.974-.211H51.86c.214 0 .417-.066.603-.179l.004-.002c.325-.286.533-.703.533-1.173V32a8.4 8.4 0 0 0-1.444-4.721c-2.258-3.358-5.526-7.577-9.198-10.886-2.116-1.857-4.329-3.42-6.454-4.376C34.603 11.45 33.295 11.08 32 11H19.4z"/><path fill="#fff" d="M18.786 17.222c-.867 0-1.564.7-1.564 1.568v21.478c.97 6.34 9.319 12.244 14.732 12.732h5.774l.33-.105h13.378c.867 0 1.55-.863 1.564-1.732V31.955a8.4 8.4 0 0 0-1.447-4.731c-3.194-5.034-7.53-9.748-13.285-10.001H25.641z"/><path fill="#2fcdeb" d="M25.013 23.444c-.87 0-1.569.702-1.569 1.574v7.76h10.89v-5.111l14 9-14 8.944v-5.056h-10.89v4A8.426 8.426 0 0 0 31.89 53h19.54c.87 0 1.57-.702 1.57-1.573V31.889a8.426 8.426 0 0 0-8.445-8.445H31.889z"/></svg>