<svg xmlns="http://www.w3.org/2000/svg" viewBox="0 0 64 64"><rect width="56.002" height="56.002" x="4" y="3.969" fill="#f2f2f2" rx="13.002" ry="13.002"/><path fill="none" stroke="#dcb500" stroke-width="3.999" d="M33.385 14.4 17.539 30.249l4.479 4.482L37.87 18.885z" font-weight="400" overflow="visible" style="font-feature-settings:normal;font-variant-alternates:normal;font-variant-caps:normal;font-variant-ligatures:normal;font-variant-numeric:normal;font-variant-position:normal;isolation:auto;mix-blend-mode:normal;shape-padding:0;text-decoration-color:#000;text-decoration-line:none;text-decoration-style:solid;text-indent:0;text-orientation:mixed;text-transform:none;white-space:normal"/><g stroke-width="3.78"><path fill="#424242" d="M12.248 46H31v3.002H12.248z"/><path fill="#6e6e6e" d="M16.937 28.125v12.501c0 1.726-1.4 3.124-3.124 3.124h-1.565v3H31v-3h-1.562a3.124 3.124 0 0 1-3.126-3.124V28.125z" font-weight="400" overflow="visible" style="font-feature-settings:normal;font-variant-alternates:normal;font-variant-caps:normal;font-variant-ligatures:normal;font-variant-numeric:normal;font-variant-position:normal;isolation:auto;mix-blend-mode:normal;shape-padding:0;text-decoration-color:#000;text-decoration-line:none;text-decoration-style:solid;text-indent:0;text-orientation:mixed;text-transform:none;white-space:normal"/><path fill="#7c7c7c" d="M12.248 43.749H31v3.002H12.248z"/></g><path fill="none" stroke="#424048" stroke-width="4" d="m39.983 35.514 6.339-6.339 6.341 6.339"/><g stroke-width="3.78"><path fill="#656e80" d="M51.87 32.348a2.38 2.38 0 0 1 2.378 2.378v4.754l-2.378 2.382h-2.376v-7.136a2.377 2.377 0 0 1 2.376-2.378"/><path fill="none" d="M33.781 14.253 17.935 30.105l4.479 4.479 15.852-15.846z" font-weight="400" overflow="visible" style="font-feature-settings:normal;font-variant-alternates:normal;font-variant-caps:normal;font-variant-ligatures:normal;font-variant-numeric:normal;font-variant-position:normal;isolation:auto;mix-blend-mode:normal;shape-padding:0;text-decoration-color:#000;text-decoration-line:none;text-decoration-style:solid;text-indent:0;text-orientation:mixed;text-transform:none;white-space:normal"/><circle cx="22" cy="30.25" r="9" fill="#f8de49"/></g><g stroke-width="3.78"><circle cx="22" cy="30.25" r="2.999" fill="#1a1723"/><circle cx="35.125" cy="17.125" r="1.874" fill="#1a1723"/><circle cx="46.002" cy="28.75" r="4.499" fill="#f8de49"/><circle cx="46.002" cy="28.75" r="2.999" fill="#403e46"/><circle cx="46.002" cy="28.75" r="1.5" fill="#1a1723"/><circle cx="51.87" cy="34.726" r=".794" fill="#2e3436"/><path fill="#656e80" d="M40.774 32.348a2.38 2.38 0 0 0-2.376 2.378v4.754l2.376 2.382h2.381v-7.136a2.38 2.38 0 0 0-2.381-2.378"/><circle cx="-40.774" cy="34.726" r=".794" fill="#2e3436" transform="scale(-1 1)"/><circle cx="35.125" cy="17.125" r="7.127" fill="#f8de49"/><circle cx="35.125" cy="17.125" r="4.125" fill="#403e46"/><circle cx="22" cy="30.25" r="5.25" fill="#403e46"/></g><circle cx="22" cy="30.25" r="2.541" fill="#1a1723"/><circle cx="35.125" cy="17.125" r="1.991" fill="#1a1723"/><path d="M3.998 45.998v1c0 7.203 5.8 13.004 13.004 13.004h29.996c7.203 0 13.004-5.8 13.004-13.004v-1c0 7.203-5.8 13.002-13.004 13.002H17.002A12.975 12.975 0 0 1 3.998 45.998" opacity=".1"/><path fill="#fff" d="M3.998 18.004v-1C3.998 9.801 9.798 4 17.002 4h29.996c7.203 0 13.004 5.8 13.004 13.004v1c0-7.203-5.8-13.002-13.004-13.002H17.002A12.975 12.975 0 0 0 3.998 18.004" opacity=".5"/></svg>