<svg xmlns="http://www.w3.org/2000/svg" image-rendering="optimizeSpeed" viewBox="0 0 64 64"><rect width="56.002" height="56.002" x="4" y="3.969" fill="#fc832c" rx="13.002" ry="13.002"/><path d="M3.998 45.998v1c0 7.203 5.8 13.004 13.004 13.004h29.996c7.203 0 13.004-5.8 13.004-13.004v-1c0 7.203-5.8 13.002-13.004 13.002H17.002A12.975 12.975 0 0 1 3.998 45.998" opacity=".15"/><path fill="#fff" d="M3.998 18.004v-1C3.998 9.801 9.798 4 17.002 4h29.996c7.203 0 13.004 5.8 13.004 13.004v1c0-7.203-5.8-13.002-13.004-13.002H17.002A12.975 12.975 0 0 0 3.998 18.004" opacity=".15"/><path fill="#fff" d="M31.942 35.865c4.615 0 8.478-1.568 8.712-3.615l-2.17-6.088c-.51 1.472-3.33 2.51-6.542 2.51-3.21 0-6.03-1.038-6.542-2.51l-2.168 6.088c.233 2.047 4.095 3.615 8.71 3.615m0-12.946c2.169 0 4.184-.672 4.774-1.714-.813-2.283-1.511-4.242-1.953-5.478-.293-.824-1.622-1.252-2.821-1.252s-2.528.428-2.822 1.252l-1.953 5.478c.59 1.043 2.607 1.714 4.775 1.714m16.954 14.853-7.25-2.92.834 2.33c-.042 2.468-4.835 4.436-10.538 4.436-5.702 0-10.496-1.968-10.537-4.437l.834-2.33-7.25 2.921c-2.033.819-2.118 2.336-.19 3.37l13.637 7.312c1.928 1.033 5.085 1.033 7.013 0l13.636-7.312c1.93-1.034 1.844-2.551-.189-3.37"/></svg>