<svg xmlns="http://www.w3.org/2000/svg" viewBox="0 0 16.933 16.933"><rect width="14.817" height="14.817" x="1.058" y="1.05" fill="#ffc029" rx="3.44" ry="3.44"/><path fill="#fff" d="M6.947 4.23a1.059 1.059 0 1 0 0 2.117 1.059 1.059 0 0 0 0-2.117M6.11 6.65c-.17 0-.264.102-.33.259L4.721 9.087c-.234.527.571.863.782.326.122-.32.25-.64.394-.95v3.81c0 .235.189.424.423.424h.002c.235 0 .488-.19.484-.424l-.002-1.995h.293l.002 1.995c0 .235.26.424.493.424a.42.42 0 0 0 .423-.424l-.001-3.778.457.918c.094.24.38.34.605.212l.768.45c-.005.027-.016.052-.016.082v2.328c0 .117.177.212.294.212s.321-.096.302-.212v-.998h.303v.998c0 .117.185.212.302.212s.313-.095.313-.212v-2.117l.544.452c.2.208.507-.1.3-.299l-.906-.786a.2.2 0 0 0-.15-.062h-1.032l-.81-.415a.4.4 0 0 0-.036-.172L8.193 6.91a.42.42 0 0 0-.39-.26L6.11 6.649zm4.465 1.209a.76.76 0 0 0-.756.756.757.757 0 0 0 1.512 0 .76.76 0 0 0-.756-.756"/><path d="M1.058 12.17v.265a3.433 3.433 0 0 0 3.44 3.44h7.937a3.433 3.433 0 0 0 3.44-3.44v-.265a3.433 3.433 0 0 1-3.44 3.44H4.498a3.433 3.433 0 0 1-3.44-3.44" opacity=".15"/><path fill="#fff" d="M1.058 4.763V4.5a3.433 3.433 0 0 1 3.44-3.44h7.937a3.433 3.433 0 0 1 3.44 3.44v.265a3.433 3.433 0 0 0-3.44-3.44H4.498a3.433 3.433 0 0 0-3.44 3.44z" opacity=".15"/></svg>