<svg xmlns="http://www.w3.org/2000/svg" viewBox="0 0 16.933 16.933"><path fill="#3084ff" d="M4.498 1.05a3.43 3.43 0 0 0-3.44 3.44v7.937a3.43 3.43 0 0 0 3.44 3.44h7.937a3.43 3.43 0 0 0 3.44-3.44V4.49a3.43 3.43 0 0 0-3.44-3.44zm11.377 3.977v6.879z"/><path d="M1.058 12.17v.265a3.433 3.433 0 0 0 3.44 3.44h7.937a3.433 3.433 0 0 0 3.44-3.44v-.265a3.433 3.433 0 0 1-3.44 3.44H4.498a3.433 3.433 0 0 1-3.44-3.44" opacity=".15"/><path fill="#fff" d="M1.058 4.763V4.5a3.433 3.433 0 0 1 3.44-3.44h7.937a3.433 3.433 0 0 1 3.44 3.44v.264a3.433 3.433 0 0 0-3.44-3.44H4.498a3.433 3.433 0 0 0-3.44 3.44z" opacity=".15"/><rect width="10.054" height="7.937" x="3.439" y="4.498" fill="#fff" opacity=".75" rx="1.323" ry="1.323"/><path fill="#fff" d="M4.762 12.435a1.32 1.32 0 0 1-1.31-1.154l4.226-3.84a1.19 1.19 0 0 1 1.576 0l4.228 3.84a1.32 1.32 0 0 1-1.311 1.154z" opacity=".5" style="paint-order:stroke fill markers"/><path fill="#fff" d="M4.762 4.498a1.32 1.32 0 0 0-1.31 1.154l4.226 3.84c.435.397 1.14.397 1.576 0l4.228-3.84a1.32 1.32 0 0 0-1.311-1.154z" style="paint-order:stroke fill markers"/></svg>