<svg xmlns="http://www.w3.org/2000/svg" viewBox="0 0 64 64"><defs><linearGradient id="a" x1="25.68" x2="26.448" y1="39.395" y2="17.376" gradientUnits="userSpaceOnUse"><stop offset="0" stop-color="#345f29"/><stop offset="1" stop-color="#59a446"/></linearGradient><linearGradient id="b" x1="15.707" x2="25.68" y1="32.561" y2="39.395" gradientUnits="userSpaceOnUse"><stop offset="0" stop-color="#ad7c59"/><stop offset="1" stop-color="#835b41"/></linearGradient></defs><rect width="56.002" height="56.002" x="4" y="3.969" fill="#f2f2f2" rx="13.002" ry="13.002"/><path d="M3.998 45.998v1c0 7.203 5.8 13.004 13.004 13.004h29.996c7.203 0 13.004-5.8 13.004-13.004v-1c0 7.203-5.8 13.002-13.004 13.002H17.002A12.975 12.975 0 0 1 3.998 45.998" opacity=".1"/><path fill="#fff" d="M3.998 18.004v-1C3.998 9.801 9.798 4 17.002 4h29.996c7.203 0 13.004 5.8 13.004 13.004v1c0-7.203-5.8-13.002-13.004-13.002H17.002A12.975 12.975 0 0 0 3.998 18.004" opacity=".5"/><g fill-rule="evenodd"><path fill="url(#a)" d="m14.173 23.2 12.275 21.257L38.721 23.2l-12.273-7.09" style="fill:#4d8e3d" transform="matrix(1.3035 0 0 1.317 -2.475 -7.884)"/><path fill="#59a849" d="M16 22.67v4.666l15.999 9.338.001-4.671z"/><path fill="#3e7231" d="m32 36.666 16-9.334v-4.666L32 32z"/><path fill="url(#b)" d="M14.173 26.74v10.63l12.274 7.087v-10.63z" style="fill:#9e7050" transform="matrix(1.3035 0 0 1.317 -2.475 -7.884)"/><path fill="#573d2b" d="m26.448 33.827 12.274-7.087v10.63l-12.274 7.087z" style="fill:#573d2b" transform="matrix(1.3035 0 0 1.317 -2.475 -7.884)"/></g></svg>