<svg xmlns="http://www.w3.org/2000/svg" xmlns:xlink="http://www.w3.org/1999/xlink" width="64" height="64" image-rendering="optimizeSpeed"><defs><linearGradient id="d" x1="34.712" x2="5" y1="34.585" y2="9" gradientTransform="translate(9.27 8.957)" gradientUnits="userSpaceOnUse"><stop offset="0" stop-color="#6c5548"/><stop offset="1" stop-color="#bb9d71"/></linearGradient><linearGradient id="e" x1="32.35" x2="21.213" y1="28.083" y2="30.293" gradientTransform="matrix(.97383 0 0 1.0391 6.208 8.077)" gradientUnits="userSpaceOnUse"><stop offset="0"/><stop offset="1" stop-opacity="0"/></linearGradient><linearGradient id="f" x1="37.018" x2="30.865" y1="19.24" y2="14.64" gradientTransform="rotate(253.585 41.112 12.477)scale(.40643)" gradientUnits="userSpaceOnUse"><stop offset="0" stop-color="#ffa92d"/><stop offset="1" stop-color="#cd7223"/></linearGradient><linearGradient id="g" x1="37.34" x2="38.347" y1="35.924" y2="33.509" gradientTransform="translate(9.27 7.832)" gradientUnits="userSpaceOnUse"><stop offset="0" stop-color="#6f8181"/><stop offset="1" stop-color="#b0b8b8"/></linearGradient><linearGradient id="a"><stop offset="0" stop-color="#334545"/><stop offset="1" stop-color="#172525"/></linearGradient><linearGradient id="b"><stop offset="0" stop-color="#cfd5d5"/><stop offset="1" stop-color="#fcfcfc"/></linearGradient><linearGradient id="c" x1="7.937" x2="7.937" y1="15.081" y2="1.852" gradientTransform="scale(3.7796)" gradientUnits="userSpaceOnUse"><stop offset="0" stop-color="#f1efeb"/><stop offset="1" stop-color="#fdfcfc"/></linearGradient><radialGradient xlink:href="#a" id="h" cx="15.415" cy="35.357" r="7.579" gradientTransform="matrix(-.18778 -.6101 .62117 -.17516 31.476 61.05)" gradientUnits="userSpaceOnUse"/><radialGradient xlink:href="#b" id="i" cx="13.5" cy="21.5" r="4.5" gradientTransform="translate(9.27 6.832)" gradientUnits="userSpaceOnUse"/><radialGradient xlink:href="#a" id="j" cx="3.496" cy="22.823" r="5.5" gradientTransform="matrix(1 0 0 1.0909 9.27 4.468)" gradientUnits="userSpaceOnUse"/><radialGradient xlink:href="#b" id="k" cx="22" cy="22" r="5" gradientTransform="translate(9.27 8.957)" gradientUnits="userSpaceOnUse"/><radialGradient xlink:href="#a" id="l" cx="23.5" cy="22.5" r="2.5" gradientTransform="translate(9.27 8.957)" gradientUnits="userSpaceOnUse"/><radialGradient xlink:href="#a" id="m" cx="14.5" cy="21.5" r="2.5" gradientTransform="matrix(.8 0 0 .8 12.67 13.757)" gradientUnits="userSpaceOnUse"/></defs><rect width="56.002" height="56.002" x="4" y="3.969" fill="url(#c)" rx="13.002" ry="13.002"/><g fill-rule="evenodd" color="#000"><path fill="url(#d)" d="M47.008 16.99c-.315-.048-.597.123-.767.318s-.288.437-.39.743c-.178.527-.83 2.486-3.181 4.421s-6.405 4.327-13.432 4.502c-5.34.061-8.608-3.374-9.968-8.017v2.746l-.022 7.71.044.102s.382.821-.022 1.928c-.405 1.106-2 2.546-5.564 3.58l-.436.125.083.443c.197 1.074.986 2.174 2.149 3.301s2.721 2.266 4.535 3.297c3.628 2.06 8.275 3.69 12.79 3.765 4.514.077 8.931-1.448 11.854-5.671s4.348-11.551 3.18-22.048l-.001-.004v-.004c-.037-.288-.103-.535-.22-.75s-.317-.438-.632-.487" image-rendering="auto" style="isolation:auto;mix-blend-mode:normal;text-decoration-color:#000;text-decoration-line:none;text-decoration-style:solid;text-indent:0;text-transform:none;white-space:normal" transform="translate(0 -2.125)"/><path fill="url(#e)" d="M25.27 38.959c6.563 1.4 9.905.102 11.86-1.51-.516-.711-.86-1.492-.86-1.492s1.753.68 2.56 1.79c.805 1.11.299 1.792.088 3.21-.469-1.245-1.344-1.712-1.462-2.207-1.76 2.594-6.142 2.486-12.186.209" transform="translate(0 -2.125)"/><path d="M48.262 24.801c-.082 6.538-1.42 11.361-3.58 14.482-2.923 4.223-7.34 5.748-11.855 5.672s-9.161-1.705-12.79-3.766c-1.813-1.03-3.37-2.17-4.534-3.297-.985-.954-1.698-1.89-2.014-2.806l-.219.062.082.444c.198 1.073.987 2.174 2.15 3.3 1.164 1.127 2.722 2.267 4.536 3.297 3.628 2.061 8.274 3.69 12.789 3.766s8.933-1.449 11.855-5.672c2.268-3.278 3.627-8.435 3.58-15.482m-29.012 3.62-.002.993.043.102s.065.169.113.418c.151-.838-.113-1.418-.113-1.418z" image-rendering="auto" opacity=".2" style="isolation:auto;mix-blend-mode:normal;text-decoration-color:#000;text-decoration-line:none;text-decoration-style:solid;text-indent:0;text-transform:none;white-space:normal" transform="translate(0 -2.125)"/></g><path fill="url(#f)" d="m46.238 43.232.926-1.845c-3.446-2.521-9.88-5.08-9.88-5.08l-1.014.558s5.842 5.18 9.968 6.367" color="#000"/><path fill="url(#g)" d="m46.27 39.832-.483.318c-.447.245-.81.66-1.105 1.142-.337.792-.47 1.287-.412 2.06l.7-.12s3.655 1.049 5.385 1.6l.202-.39.713-1.379-5-2.561z" color="#000" image-rendering="auto" style="isolation:auto;mix-blend-mode:normal;text-decoration-color:#000;text-decoration-line:none;text-decoration-style:solid;text-indent:0;text-transform:none;white-space:normal"/><path fill="url(#h)" d="M56.27 49.832c-1.247-4.052-1.69-7.269-4.948-6.982-2.626.23-2.81 3.832-.096 4.826a58 58 0 0 1 5.044 2.156" color="#000"/><path fill="url(#i)" fill-rule="evenodd" d="M22.77 23.832c-1.111 0-2.229.368-3.082 1.126s-1.418 1.915-1.418 3.374.566 2.616 1.418 3.374c.853.758 1.97 1.126 3.082 1.126s2.23-.368 3.083-1.126 1.417-1.915 1.417-3.374-.564-2.616-1.417-3.374c-.852-.758-1.972-1.126-3.083-1.126" color="#000" image-rendering="auto" style="isolation:auto;mix-blend-mode:normal;text-decoration-color:#000;text-decoration-line:none;text-decoration-style:solid;text-indent:0;text-transform:none;white-space:normal"/><path fill="url(#j)" fill-rule="evenodd" d="M14.371 26.832a4.3 4.3 0 0 0-.716.052 3.9 3.9 0 0 0-1.69.689c-1.98 1.425-2.502 4.654-.056 8.036 2.447 3.381 5.684 3.906 7.665 2.481s2.504-4.654.057-8.036c-1.605-2.219-3.552-3.207-5.26-3.222" color="#000"/><g fill-rule="evenodd" color="#000" image-rendering="auto"><path fill="url(#k)" d="M31.269 25.957c-1.237 0-2.48.409-3.427 1.25-.946.841-1.572 2.124-1.572 3.75s.626 2.909 1.572 3.75 2.19 1.25 3.427 1.25 2.48-.409 3.427-1.25c.946-.842 1.574-2.122 1.574-3.75s-.628-2.908-1.574-3.75c-.947-.841-2.19-1.25-3.427-1.25" style="isolation:auto;mix-blend-mode:normal;text-decoration-color:#000;text-decoration-line:none;text-decoration-style:solid;text-indent:0;text-transform:none;white-space:normal" transform="translate(0 -2.125)"/><path fill="url(#l)" d="M32.77 28.957c-.613 0-1.232.203-1.709.627s-.791 1.077-.791 1.873.314 1.45.791 1.873 1.096.627 1.709.627 1.232-.202 1.709-.627c.477-.424.791-1.077.791-1.873s-.314-1.45-.791-1.873a2.57 2.57 0 0 0-1.709-.627" style="isolation:auto;mix-blend-mode:normal;text-decoration-color:#000;text-decoration-line:none;text-decoration-style:solid;text-indent:0;text-transform:none;white-space:normal" transform="translate(0 -2.125)"/><path fill="url(#m)" d="M24.27 28.957c-.49 0-.986.162-1.367.501s-.633.862-.633 1.499.251 1.16.633 1.499.877.501 1.367.501.986-.162 1.367-.501.633-.862.633-1.499-.251-1.16-.633-1.499-.877-.501-1.367-.501" style="isolation:auto;mix-blend-mode:normal;text-decoration-color:#000;text-decoration-line:none;text-decoration-style:solid;text-indent:0;text-transform:none;white-space:normal" transform="translate(0 -2.125)"/></g></svg>