<svg xmlns="http://www.w3.org/2000/svg" viewBox="0 0 16.933 16.933"><rect width="14.817" height="14.817" x="1.058" y="1.05" fill="#279af6" rx="3.44" ry="3.44"/><path fill="#fff" d="M7.604 3.969c-.138 0-.17.006-.26.05a.66.66 0 0 0-.303.304.68.68 0 0 0-.026.465c.018.048.185.35.371.67s.338.595.339.61c0 .015-.458.82-1.018 1.79L5.69 9.624l-1.85.01-.104.049a.67.67 0 0 0-.317.315.5.5 0 0 0-.05.255c0 .125.008.163.05.252a.65.65 0 0 0 .426.356c.036.009 1.375.016 3.02.017l2.956.002.034-.037c.028-.03.033-.063.032-.205-.003-.43-.25-.84-.59-.975-.063-.025-.198-.03-1.118-.038l-1.049-.01.299-.514c1.859-3.198 2.46-4.24 2.488-4.313a.5.5 0 0 0 .026-.227.61.61 0 0 0-.354-.542c-.092-.044-.123-.05-.26-.05a.5.5 0 0 0-.267.05c-.151.07-.243.177-.43.505-.085.15-.16.272-.167.272s-.082-.122-.167-.272c-.188-.33-.266-.421-.422-.498-.105-.052-.13-.057-.273-.057zm1.792 2.449c-.037-.001-.133.093-.199.195-.23.356-.322 1.088-.194 1.547.025.087.326.623 1.312 2.327.704 1.217 1.306 2.243 1.34 2.28a.622.622 0 0 0 1.076-.474.7.7 0 0 0-.044-.194c-.02-.043-.184-.333-.364-.645l-.33-.566 1.1-.018.105-.049a.67.67 0 0 0 .317-.315.5.5 0 0 0 .05-.254.47.47 0 0 0-.05-.253.67.67 0 0 0-.315-.317l-.106-.05-1.831-.01-.923-1.601c-.508-.881-.933-1.603-.944-1.603m-4.361 4.748a.6.6 0 0 0-.218.027c-.037.02-.104.118-.258.383-.311.533-.335.586-.334.757 0 .27.148.484.405.588a.76.76 0 0 0 .482-.021c.16-.077.236-.177.576-.766l.316-.55-.028-.05c-.074-.132-.297-.264-.556-.328a1.8 1.8 0 0 0-.385-.04"/><path d="M1.058 12.17v.265a3.433 3.433 0 0 0 3.44 3.44h7.937a3.433 3.433 0 0 0 3.44-3.44v-.265a3.433 3.433 0 0 1-3.44 3.44H4.498a3.433 3.433 0 0 1-3.44-3.44" opacity=".15"/><path fill="#fff" d="M1.058 4.763V4.5a3.433 3.433 0 0 1 3.44-3.44h7.937a3.433 3.433 0 0 1 3.44 3.44v.264a3.433 3.433 0 0 0-3.44-3.44H4.498a3.433 3.433 0 0 0-3.44 3.44z" opacity=".15"/><path fill="#f2f2f2" d="M16.096 10.55q-.077-.187-.174-.366a4.4 4.4 0 0 0-.757-1.006q-1.24-1.24-2.994-1.24t-2.994 1.24-1.24 2.993c0 1.753.414 2.167 1.24 2.993q1.24 1.24 2.994 1.24t2.993-1.24a4.2 4.2 0 0 0 .99-1.522 4.3 4.3 0 0 0 .25-1.471 4.4 4.4 0 0 0-.182-1.27 4 4 0 0 0-.126-.351" image-rendering="optimizeSpeed"/><path fill="#1ebbff" d="M11.112 9.79v2.91H9.789l2.381 2.381 2.381-2.381H13.23V9.79z"/></svg>