<svg xmlns="http://www.w3.org/2000/svg" viewBox="0 0 64 64"><rect width="56.002" height="56.002" x="4" y="3.969" fill="#ff7707" rx="13.002" ry="13.002"/><g fill="#fff" transform="translate(-.36 .64)scale(1.28)"><circle cx="15" cy="34" r="3"/><path d="M12 22v5h2.5a7.5 7.5 0 0 1 7.5 7.5V37h5v-2.5C27 27.596 21.404 22 14.5 22"/><path d="M12 12v5h3a17 17 0 0 1 17 17v3h5v-3a22 22 0 0 0-22-22z"/></g><path d="M3.998 45.998v1c0 7.203 5.8 13.004 13.004 13.004h29.996c7.203 0 13.004-5.8 13.004-13.004v-1c0 7.203-5.8 13.002-13.004 13.002H17.002A12.975 12.975 0 0 1 3.998 45.998" opacity=".15"/><path fill="#fff" d="M3.998 18.004v-1C3.998 9.801 9.798 4 17.002 4h29.996c7.203 0 13.004 5.8 13.004 13.004v1c0-7.203-5.8-13.002-13.004-13.002H17.002A12.975 12.975 0 0 0 3.998 18.004" opacity=".15"/></svg>