<svg xmlns="http://www.w3.org/2000/svg" width="64" height="64"><defs><linearGradient id="a" x1="399.57" x2="399.57" y1="542.92" y2="521.16" gradientTransform="translate(-826.36 -1107.5)scale(2.1429)" gradientUnits="userSpaceOnUse"><stop offset="0" stop-color="#093"/><stop offset="1" stop-color="#0c9"/></linearGradient><linearGradient id="b" x1="32.966" x2="32.966" y1="46" y2="18" gradientTransform="scale(1 .99999)" gradientUnits="userSpaceOnUse"><stop offset="0" stop-color="#dfe"/><stop offset="1" stop-color="#fff"/></linearGradient></defs><rect width="56.002" height="56.002" x="4" y="4" fill="url(#a)" rx="13.002" ry="13.002"/><path fill="url(#b)" d="M43.174 43.676a17.3 17.3 0 0 1-3.889 1.46 17.7 17.7 0 0 1-4.223.493q-6.564 0-10.4-3.66-3.837-3.678-3.837-9.96 0-6.3 3.837-9.96 3.836-3.678 10.4-3.678 2.2 0 4.223.493a17.3 17.3 0 0 1 3.889 1.46v5.438q-1.883-1.284-3.713-1.883a12.3 12.3 0 0 0-3.854-.598q-3.625 0-5.701 2.323-2.077 2.323-2.077 6.405 0 4.066 2.077 6.388t5.701 2.323q2.025 0 3.854-.598 1.83-.6 3.713-1.883z"/></svg>