<svg xmlns="http://www.w3.org/2000/svg" viewBox="0 0 64 64"><rect width="56.002" height="56.002" x="4" y="3.969" fill="#f2f2f2" rx="13.002" ry="13.002"/><path d="M3.998 45.998v1c0 7.203 5.8 13.004 13.004 13.004h29.996c7.203 0 13.004-5.8 13.004-13.004v-1c0 7.203-5.8 13.002-13.004 13.002H17.002A12.975 12.975 0 0 1 3.998 45.998" opacity=".1"/><path fill="#fff" d="M3.998 18.004v-1C3.998 9.801 9.798 4 17.002 4h29.996c7.203 0 13.004 5.8 13.004 13.004v1c0-7.203-5.8-13.002-13.004-13.002H17.002A12.975 12.975 0 0 0 3.998 18.004" opacity=".5"/><path fill="#56b904" d="M32 26.003c-10.4 0-20 5.4-20 9 0 1.7 6.8 1.5 7 3l1.7 10.7c.1 1.2.6 1.7 1.3 2 6.8 1.75 13.4 1.7 19.9 0 .7-.2 1.1-.7 1.4-2l1.7-10.7c.3-1.2 7-1.3 7-3 0-3.6-9.6-9-20-9"/><path fill="#ffc549" d="M32 12.003c-5.5 0-10 4.6-10 10 0 3.4 1.8 6.5 4.6 7.9 1.8 3 1 1.3 1.3 3.8 0 .65.55 1.2 1.2 1.2 2.1 1.6 4 1.4 5.8 0 .7 0 1.2-.5 1.2-1.2.35-2.4-.16-2.1 1.1-3.7 2.9-1.7 4.8-4.5 4.8-8 0-5.36-4.5-10-10-10"/><path fill="#1c99f5" d="M26.6 29.903c.4.7.8 1.7 1 3.55 0 .7.8 1.4 1.5 1.4 2.3 1.8 3.95 1.6 5.8 0 .7 0 1.5-.7 1.5-1.4.24-1.74.6-2.9.84-3.47l-2 1h-6.55z"/><path fill="#fbfeff" d="M28 17.003c-1.108 0-2 .892-2 2s.892 2 2 2 2-.892 2-2-.892-2-2-2"/></svg>