<svg xmlns="http://www.w3.org/2000/svg" viewBox="0 0 64 64"><rect width="56" height="56" x="4" y="4" fill="#4d4d4d" rx="13.002" ry="13.002"/><path fill="#2fbaef" d="m18.956 16.348-1.304 1.304L32 32l14.343-14.348-1.305-1.304"/><path fill="#974ce1" d="m45.043 47.652 1.304-1.304-14.343-14.343-14.348 14.343 1.305 1.304"/><path fill="#f55" d="m16.348 45.038 1.304 1.304L32 32 17.652 17.651l-1.304 1.305"/><path fill="#7ada11" d="m47.653 18.957-1.304-1.304L32.006 32l14.343 14.343 1.304-1.305"/><path d="M3.998 45.998v1c0 7.203 5.8 13.004 13.004 13.004h29.996c7.203 0 13.004-5.8 13.004-13.004v-1c0 7.203-5.8 13.002-13.004 13.002H17.002A12.975 12.975 0 0 1 3.998 45.998" opacity=".5"/><path fill="#fff" d="M3.998 18.004v-1C3.998 9.801 9.798 4 17.002 4h29.996c7.203 0 13.004 5.8 13.004 13.004v1c0-7.203-5.8-13.002-13.004-13.002H17.002A12.975 12.975 0 0 0 3.998 18.004" opacity=".15"/></svg>