<svg xmlns="http://www.w3.org/2000/svg" viewBox="0 0 64 64"><rect width="56.002" height="56.002" x="4" y="3.969" fill="#f9484b" rx="13.002" ry="13.002"/><path fill="#fff" d="M32.003 19.142c-6.45 0-12.445.226-13.771.517-.889.196-1.593.566-2.234 1.176-.51.484-.79.924-1.097 1.72-.337.876-.516 1.701-.64 2.943-.234 2.369-.276 3.538-.255 7.107.017 3.034.03 3.387.202 5.335.152 1.725.318 2.54.724 3.568.445 1.124 1.061 1.822 2.052 2.322.6.302 1.132.443 2.215.588 1.477.198 3.891.3 9.841.416 4.789.093 13.1-.106 15.822-.38.879-.087 1.424-.225 1.995-.5.565-.272 1.24-.812 1.583-1.266.498-.66.94-1.824 1.166-3.066.088-.483.22-1.833.327-3.349.091-1.295.091-7.264 0-8.56-.193-2.73-.324-3.652-.663-4.695-.33-1.012-.607-1.51-1.144-2.058-.687-.7-1.392-1.09-2.35-1.3-1.327-.292-7.323-.518-13.772-.518zm-3.192 7.714c.044-.03 8.975 5.104 8.975 5.158 0 .059.11-.005-4.993 2.898a850 850 0 0 1-3.919 2.223c-.027.011-.058.01-.069-.001-.029-.033-.023-10.257.006-10.277z"/><path d="M3.998 45.998v1c0 7.203 5.8 13.004 13.004 13.004h29.996c7.203 0 13.004-5.8 13.004-13.004v-1c0 7.203-5.8 13.002-13.004 13.002H17.002A12.975 12.975 0 0 1 3.998 45.998" opacity=".15"/><path fill="#fff" d="M3.998 18.004v-1C3.998 9.801 9.798 4 17.002 4h29.996c7.203 0 13.004 5.8 13.004 13.004v1c0-7.203-5.8-13.002-13.004-13.002H17.002A12.975 12.975 0 0 0 3.998 18.004" opacity=".15"/></svg>