<svg xmlns="http://www.w3.org/2000/svg" width="64" height="64"><defs><linearGradient id="a" x1="7.937" x2="7.937" y1="15.081" y2="1.852" gradientTransform="scale(3.7796)" gradientUnits="userSpaceOnUse"><stop offset="0" stop-color="#f1efeb"/><stop offset="1" stop-color="#fdfcfc"/></linearGradient><linearGradient id="b" x1="4" x2="60" y1="32" y2="32" gradientUnits="userSpaceOnUse"><stop offset="0" stop-color="#5bb237"/><stop offset="1" stop-color="#37b26e"/></linearGradient><linearGradient id="c" x1="12" x2="24" y1="18" y2="18" gradientUnits="userSpaceOnUse"><stop offset="0" stop-color="#adadad"/><stop offset="1" stop-color="#d1d1d1"/></linearGradient></defs><rect width="56.002" height="56.002" x="4" y="3.969" fill="url(#a)" rx="13.002" ry="13.002"/><path fill="url(#b)" d="M20.404 4c-1.478.012-3.096.602-4.05 1.567l-3.106 3.148-4.62 4.68L5.52 16.54c-1.27 1.288-1.864 3.756-1.318 5.483l2.885 9.124c.546 1.727 2.044 4.184 3.327 5.458L33.03 59.051a3.29 3.29 0 0 0 4.646-.025l8.378-8.484 4.621-4.681 8.378-8.485a3.31 3.31 0 0 0-.025-4.66L36.413 10.272C35.13 8.997 32.664 7.52 30.937 6.99l-9.13-2.8a4.7 4.7 0 0 0-1.403-.188zM18 13.8a4.2 4.2 0 1 1 0 8.4 4.2 4.2 0 0 1 0-8.4" transform="translate(6.942 6.942)scale(.78305)"/><path fill="#fff" d="M37.378 16.893a301 301 0 0 0-12.787 3.62 10 10 0 0 0-1.29.5 2.36 2.36 0 0 1-2.355 2.344c-.063 0-.122-.013-.184-.018-.51 1.011-.692 2.25-.535 3.795.445 4.379 1.05 8.742 1.655 13.1.114.823.241 1.645.364 2.467l7.573 7.516c4.399-1.223 8.793-2.46 13.188-3.7l3.616-3.664.01-.01-.269-3.98-1.634.46c-4.1 1.155-8.21 2.28-12.296 3.483-1.173.346-1.63-.017-1.723-1.167-.09-1.106-.247-2.207-.399-3.517.625-.176 1.154-.318 1.679-.474 3.15-.934 6.327-1.79 9.442-2.832 2.858-.956 4.095-2.67 3.914-5.664a74 74 0 0 0-.45-4.796zm-1.679 6.843c.4-.004.637.226.705.792.187 1.565.459 3.122.565 4.691.028.409-.34 1.125-.675 1.233-2.194.713-4.43 1.296-6.815 1.968-.263-2.044-.562-3.877-.69-5.721-.028-.411.46-1.119.855-1.255 1.84-.626 3.734-1.089 5.601-1.631a1.7 1.7 0 0 1 .454-.077"/><path fill="url(#c)" d="M18 12c-3.308 0-6 2.692-6 6s2.692 6 6 6 6-2.692 6-6-2.692-6-6-6m0 3a3 3 0 1 1 0 6 3 3 0 0 1 0-6" transform="translate(6.942 6.942)scale(.78305)"/><path fill="#3f3f3f" d="M20.236 40.715c-.17 1.847-1.063 4.967-2.86 6.585-.846.76-1.868 1.144-3.046 1.144a6 6 0 0 1-.771-.052c-1.623-.213-2.737-1.416-3.222-3.48-1.45-6.167 3.278-19.326 10.188-23.996a.484.484 0 0 1 .54.802c-6.903 4.666-11.028 17.704-9.79 22.972.391 1.662 1.201 2.584 2.408 2.743 1.232.16 2.229-.118 3.047-.852 1.829-1.645 2.528-5.274 2.598-6.767"/></svg>