<svg xmlns="http://www.w3.org/2000/svg" viewBox="0 0 64 64"><defs><linearGradient id="a" x1="33.822" x2="33.822" y1="50.162" y2="13.059" gradientUnits="userSpaceOnUse"><stop offset="0" stop-color="#1f1f1f"/><stop offset="1" stop-color="#292929"/></linearGradient></defs><rect width="56.002" height="56.002" x="4" y="3.969" fill="#f2f2f2" rx="13.002" ry="13.002"/><path d="M3.998 45.998v1c0 7.203 5.8 13.004 13.004 13.004h29.996c7.203 0 13.004-5.8 13.004-13.004v-1c0 7.203-5.8 13.002-13.004 13.002H17.002A12.975 12.975 0 0 1 3.998 45.998" opacity=".1"/><path fill="#fff" d="M3.998 18.004v-1C3.998 9.801 9.798 4 17.002 4h29.996c7.203 0 13.004 5.8 13.004 13.004v1c0-7.203-5.8-13.002-13.004-13.002H17.002A12.975 12.975 0 0 0 3.998 18.004" opacity=".5"/><rect width="26" height="50" x="19" y="7" fill="#333" rx="4" ry="4" style="paint-order:stroke fill markers"/><path fill="#666" stroke="url(#a)" stroke-linecap="round" stroke-linejoin="round" stroke-width=".4" d="M23 8c-1.662 0-3 1.338-3 3v42c0 1.662 1.338 3 3 3h18c1.662 0 3-1.338 3-3V11c0-1.662-1.338-3-3-3h-2.592S38 7.983 38 8.527A1.47 1.47 0 0 1 36.527 10h-9.054A1.47 1.47 0 0 1 26 8.527c0-.544-.408-.527-.408-.527z" style="paint-order:normal"/><rect width="4" height=".5" x="30" y="8.25" fill="#666" rx=".25" ry=".25" style="paint-order:stroke fill markers"/><rect width="1" height="1" x="35" y="8" fill="#666" rx="13.002" ry="1" style="paint-order:stroke fill markers"/><g fill="#fff" transform="translate(.093)"><rect width="4" height="4" x="22.407" y="49" opacity=".15" rx=".667" ry=".667"/><rect width="4" height="4" x="27.407" y="49" opacity=".15" rx=".667" ry=".667"/><rect width="4" height="4" x="32.407" y="49" opacity=".15" rx=".667" ry=".667"/><rect width="4" height="4" x="37.407" y="49" opacity=".15" rx=".667" ry=".667"/></g><path fill="#fff" d="M28.593 24c-.554 0-1 .446-1 1s.446 1 1 1 1-.446 1-1-.446-1-1-1m6.286 0-2.286 2.286 3.428 3.428-3.428 3.429 2.286 2.285 5.714-5.714-2.286-2.286zm-8.786 6c-.831 0-1.5.669-1.5 1.5 0 .83.669 1.5 1.5 1.5.83 0 1.5-.67 1.5-1.5 0-.831-.67-1.5-1.5-1.5m4.5 6c-1.108 0-2 .892-2 2s.892 2 2 2 2-.892 2-2-.892-2-2-2" opacity=".5"/></svg>