<svg xmlns="http://www.w3.org/2000/svg" viewBox="0 0 64 64"><rect width="56" height="56" x="4" y="4" fill="#4d4d4d" rx="13.002" ry="13.002"/><path fill="#68abe3" d="M35.132 16.348h9.395c1.727 0 3.128 1.4 3.128 3.128v9.4a3.13 3.13 0 0 1-3.128 3.127h-9.395a3.13 3.13 0 0 1-3.128-3.127v-9.4a3.13 3.13 0 0 1 3.128-3.128m-15.657 0h9.4c1.727 0 3.128 1.4 3.128 3.128v9.4a3.13 3.13 0 0 1-3.128 3.127h-9.4a3.13 3.13 0 0 1-3.128-3.127v-9.4a3.13 3.13 0 0 1 3.128-3.128"/><path fill="#68abe3" d="M35.132 31.999h9.395c1.727 0 3.128 1.4 3.128 3.128v9.395a3.13 3.13 0 0 1-3.128 3.127h-9.395a3.13 3.13 0 0 1-3.128-3.127v-9.395a3.13 3.13 0 0 1 3.128-3.128"/><path fill="#edee53" d="M19.475 31.999h9.4c1.727 0 3.128 1.4 3.128 3.128v9.395a3.13 3.13 0 0 1-3.128 3.127h-9.4a3.13 3.13 0 0 1-3.128-3.127v-9.395a3.13 3.13 0 0 1 3.128-3.128"/><path d="M3.998 45.998v1c0 7.203 5.8 13.004 13.004 13.004h29.996c7.203 0 13.004-5.8 13.004-13.004v-1c0 7.203-5.8 13.002-13.004 13.002H17.002A12.975 12.975 0 0 1 3.998 45.998" opacity=".35"/><path fill="#fff" d="M3.998 18.004v-1C3.998 9.801 9.798 4 17.002 4h29.996c7.203 0 13.004 5.8 13.004 13.004v1c0-7.203-5.8-13.002-13.004-13.002H17.002A12.975 12.975 0 0 0 3.998 18.004" opacity=".15"/></svg>