<svg xmlns="http://www.w3.org/2000/svg" viewBox="0 0 64 64"><rect width="56.002" height="56.002" x="4" y="3.969" fill="#f2f2f2" rx="13.002" ry="13.002"/><path d="M3.998 45.998v1c0 7.203 5.8 13.004 13.004 13.004h29.996c7.203 0 13.004-5.8 13.004-13.004v-1c0 7.203-5.8 13.002-13.004 13.002H17.002A12.975 12.975 0 0 1 3.998 45.998" opacity=".1"/><path fill="#fff" d="M3.998 18.004v-1C3.998 9.801 9.798 4 17.002 4h29.996c7.203 0 13.004 5.8 13.004 13.004v1c0-7.203-5.8-13.002-13.004-13.002H17.002A12.975 12.975 0 0 0 3.998 18.004" opacity=".5"/><path fill="#424242" d="M32.002 56c13.254 0 24-10.746 24-24s-10.746-24-24-24-24 10.746-24 24 10.746 24 24 24" class="shp36"/><path fill="#ff8080" d="M18.619 17.441a20.16 20.16 0 0 1 13.168-5.096l.227 20.154z" opacity=".75"/><path fill="#fff" d="M18.682 17.623a.5.5 0 0 0-.053.705l12.492 14.455a.5.5 0 0 0 .705.053.5.5 0 0 0 .053-.705L19.387 17.676a.5.5 0 0 0-.705-.053"/><path fill="#e6e6e6" d="M32.334 30.964a1 1 0 0 0-1.006.994 1 1 0 0 0 .994 1.006l13.453.072a1 1 0 0 0 1.006-.994 1 1 0 0 0-.994-1.006z"/><path fill="#fff" d="M34.739 30.778a3 3 0 1 1-5.478 2.446 3 3 0 0 1 5.478-2.446"/><path fill="#666" d="M33.014 32a1 1 0 1 1-1.999.001A1 1 0 0 1 33.014 32"/></svg>