<svg xmlns="http://www.w3.org/2000/svg" viewBox="0 0 64 64"><defs><linearGradient id="e" x1="398.74" x2="617.05" y1="897.5" y2="897.5" gradientTransform="translate(6.49 6.264)scale(.04987)" gradientUnits="userSpaceOnUse"><stop offset="0" stop-color="#999795"/><stop offset=".149" stop-color="#9b9a98"/><stop offset=".257" stop-color="#a3a2a1"/><stop offset=".351" stop-color="#b1b1b1"/><stop offset=".424" stop-color="#c0c2c3"/><stop offset=".51" stop-color="#c0c2c3"/><stop offset=".594" stop-color="#c0c2c3"/><stop offset=".727" stop-color="#aeafae"/><stop offset=".887" stop-color="#9f9d9c"/><stop offset="1" stop-color="#999795"/></linearGradient><linearGradient id="f" x1="589.66" x2="550.74" y1="930.65" y2="940.95" gradientTransform="translate(6.49 6.264)scale(.04987)" gradientUnits="userSpaceOnUse"><stop offset=".283" stop-color="#a4a197"/><stop offset=".87" stop-color="#a9a7a3" stop-opacity=".426"/><stop offset=".984" stop-color="#aaa8a6" stop-opacity=".314"/><stop offset="1" stop-color="#aaa8a6" stop-opacity=".3"/></linearGradient><linearGradient id="g" x1="429.24" x2="481.42" y1="934.46" y2="937.38" gradientTransform="translate(6.49 6.264)scale(.04987)" gradientUnits="userSpaceOnUse"><stop offset=".056" stop-color="#a4a197"/><stop offset="1" stop-color="#aaa8a6" stop-opacity=".3"/></linearGradient><linearGradient id="h" x1="562.24" x2="599.68" y1="964.24" y2="927.03" gradientTransform="translate(6.49 6.264)scale(.04987)" gradientUnits="userSpaceOnUse"><stop offset=".056" stop-color="#fefefe" stop-opacity="0"/><stop offset=".432" stop-color="#ccd5e0" stop-opacity=".399"/><stop offset=".809" stop-color="#a1b1c5" stop-opacity=".798"/><stop offset="1" stop-color="#90a3bb"/></linearGradient><linearGradient id="i" x1="622.96" x2="544.4" y1="839.91" y2="869.03" gradientTransform="translate(6.49 6.264)scale(.04987)" gradientUnits="userSpaceOnUse"><stop offset="0" stop-color="#95aac3"/><stop offset=".369" stop-color="#bfdae6"/><stop offset=".454" stop-color="#d0dee4" stop-opacity=".912"/><stop offset=".55" stop-color="#dae0e3" stop-opacity=".811"/><stop offset=".657" stop-color="#dee1e3" stop-opacity=".7"/><stop offset="1" stop-color="#e0e2e3" stop-opacity="0"/></linearGradient><linearGradient id="j" x1="398.32" x2="592.72" y1="914.36" y2="914.36" gradientTransform="translate(6.49 6.264)scale(.04987)" gradientUnits="userSpaceOnUse"><stop offset="0" stop-color="#90a3bb"/><stop offset=".069" stop-color="#92a6bd"/><stop offset=".12" stop-color="#9aafc4"/><stop offset=".164" stop-color="#a7bfcf"/><stop offset=".204" stop-color="#b9d5df"/><stop offset=".242" stop-color="#d1f2f4"/><stop offset=".244" stop-color="#d2f3f5"/><stop offset=".305" stop-color="#d8f4f6"/><stop offset=".385" stop-color="#e8f9fa"/><stop offset=".46" stop-color="#fefefe"/><stop offset=".944" stop-color="#fefefe" stop-opacity="0"/></linearGradient><linearGradient id="k" x1="433.25" x2="592.42" y1="951.5" y2="951.5" gradientTransform="translate(6.49 6.264)scale(.04987)" gradientUnits="userSpaceOnUse"><stop offset=".036" stop-color="#fefefe" stop-opacity="0"/><stop offset=".46" stop-color="#fefefe"/><stop offset=".944" stop-color="#fefefe" stop-opacity="0"/></linearGradient><linearGradient id="l" x1="400.28" x2="456.82" y1="850.45" y2="863.8" gradientTransform="translate(6.49 6.264)scale(.04987)" gradientUnits="userSpaceOnUse"><stop offset="0" stop-color="#93a6bb"/><stop offset=".369" stop-color="#a2b7c8"/><stop offset=".69" stop-color="#abc0cf"/><stop offset=".705" stop-color="#aec2cf" stop-opacity=".977"/><stop offset=".815" stop-color="#c0cbce" stop-opacity=".815"/><stop offset=".894" stop-color="#c7cfce" stop-opacity=".7"/><stop offset=".902" stop-color="#c8cfce" stop-opacity=".661"/><stop offset=".999" stop-color="#cdd2ce" stop-opacity=".2"/></linearGradient><linearGradient id="m" x1="436.23" x2="547.22" y1="879.82" y2="879.82" gradientTransform="translate(6.49 6.264)scale(.04987)" gradientUnits="userSpaceOnUse"><stop offset="0" stop-color="#484a4c"/><stop offset="1" stop-color="#484a4c" stop-opacity="0"/></linearGradient><linearGradient id="n" x1="585.22" x2="434.68" y1="863.53" y2="876.3" gradientTransform="translate(6.49 6.264)scale(.04987)" gradientUnits="userSpaceOnUse"><stop offset="0" stop-color="#484a4c"/><stop offset="1" stop-color="#484a4c" stop-opacity="0"/></linearGradient><linearGradient id="o" x1="453.76" x2="583.72" y1="901.12" y2="901.12" gradientTransform="translate(6.49 6.264)scale(.04987)" gradientUnits="userSpaceOnUse"><stop offset="0" stop-color="#484a4c" stop-opacity="0"/><stop offset="1" stop-color="#484a4c"/></linearGradient><linearGradient id="p" x1="618.62" x2="540.56" y1="900.35" y2="921.85" gradientTransform="translate(6.49 6.264)scale(.04987)" gradientUnits="userSpaceOnUse"><stop offset="0" stop-color="#90a3bb"/><stop offset=".078" stop-color="#99aec3"/><stop offset=".215" stop-color="#b0cad7"/><stop offset=".374" stop-color="#d2f3f5"/><stop offset="1" stop-color="#d2f3f5" stop-opacity="0"/></linearGradient><linearGradient id="q" x1="398.06" x2="625.53" y1="879.07" y2="879.07" gradientTransform="translate(6.49 6.264)scale(.04987)" gradientUnits="userSpaceOnUse"><stop offset="0" stop-color="#9cb1c7"/><stop offset=".022" stop-color="#a0b6cb"/><stop offset=".049" stop-color="#adc5d7"/><stop offset=".078" stop-color="#c2ddea"/><stop offset=".087" stop-color="#c9e5f1"/><stop offset=".235" stop-color="#c9e5f1"/><stop offset=".286" stop-color="#d9ebf3"/><stop offset=".357" stop-color="#e9f1f5"/><stop offset=".439" stop-color="#f2f5f6"/><stop offset=".554" stop-color="#f5f6f6"/><stop offset=".604" stop-color="#e9f1f5"/><stop offset=".72" stop-color="#d2e8f2"/><stop offset=".792" stop-color="#c9e5f1"/><stop offset="1" stop-color="#9cb1c7"/></linearGradient><linearGradient id="r" x1="405.23" x2="621.77" y1="846.51" y2="846.51" gradientTransform="translate(6.49 6.264)scale(.04987)" gradientUnits="userSpaceOnUse"><stop offset="0" stop-color="#fff" stop-opacity="0"/><stop offset=".005" stop-color="#e3e4e4" stop-opacity=".032"/><stop offset=".013" stop-color="#bfc0c0" stop-opacity=".083"/><stop offset=".022" stop-color="#9fa0a1" stop-opacity=".14"/><stop offset=".032" stop-color="#838586" stop-opacity=".202"/><stop offset=".043" stop-color="#6d6f71" stop-opacity=".273"/><stop offset=".056" stop-color="#5c5e60" stop-opacity=".356"/><stop offset=".072" stop-color="#515354" stop-opacity=".458"/><stop offset=".094" stop-color="#4a4c4e" stop-opacity=".602"/><stop offset=".156" stop-color="#484a4c"/><stop offset=".205" stop-color="#484a4c"/><stop offset=".501" stop-color="#484a4c"/><stop offset=".805" stop-color="#484a4c"/><stop offset=".883" stop-color="#4a4c4e" stop-opacity=".602"/><stop offset=".911" stop-color="#515354" stop-opacity=".458"/><stop offset=".931" stop-color="#5c5e60" stop-opacity=".356"/><stop offset=".947" stop-color="#6d6f71" stop-opacity=".273"/><stop offset=".961" stop-color="#838586" stop-opacity=".202"/><stop offset=".973" stop-color="#9fa0a1" stop-opacity=".14"/><stop offset=".984" stop-color="#bfc0c0" stop-opacity=".083"/><stop offset=".994" stop-color="#e3e4e4" stop-opacity=".032"/><stop offset="1" stop-color="#fff" stop-opacity="0"/></linearGradient><linearGradient id="s" x1="511.5" x2="511.5" y1="513.84" y2="840.48" gradientTransform="translate(6.49 6.264)scale(.04987)" gradientUnits="userSpaceOnUse"><stop offset="0" stop-color="#dfe0e4"/><stop offset=".111" stop-color="#dfe0e4"/><stop offset=".227" stop-color="#e7e8ec"/><stop offset=".442" stop-color="#f0f0f4"/><stop offset=".815" stop-color="#f2f2f6"/></linearGradient><radialGradient id="a" cx="488.23" cy="963.87" r="81.495" gradientTransform="matrix(.04977 -.00327 .00162 .0247 4.979 32.117)" gradientUnits="userSpaceOnUse"><stop offset=".317" stop-color="#727375"/><stop offset=".521" stop-color="#727375"/><stop offset=".724" stop-color="#747576"/><stop offset=".797" stop-color="#7b7c7b"/><stop offset=".85" stop-color="#868784"/><stop offset=".892" stop-color="#979890"/><stop offset=".927" stop-color="#adaea0"/><stop offset=".934" stop-color="#b2b3a4"/><stop offset=".974" stop-color="#b0b1a3"/><stop offset="1" stop-color="#9da5b0"/></radialGradient><radialGradient id="b" cx="530.28" cy="942.51" r="82.471" gradientTransform="matrix(-.049 .00928 -.00663 -.035 65.165 81.348)" gradientUnits="userSpaceOnUse"><stop offset=".521" stop-color="#727375" stop-opacity="0"/><stop offset=".724" stop-color="#747576" stop-opacity=".197"/><stop offset=".797" stop-color="#7b7c7b" stop-opacity=".268"/><stop offset=".85" stop-color="#868784" stop-opacity=".318"/><stop offset=".892" stop-color="#979890" stop-opacity=".359"/><stop offset=".927" stop-color="#adaea0" stop-opacity=".394"/><stop offset=".934" stop-color="#b2b3a4" stop-opacity=".4"/><stop offset=".974" stop-color="#b0b1a3" stop-opacity=".6"/><stop offset="1" stop-color="#b2b3a4"/></radialGradient><radialGradient id="c" cx="552.17" cy="970.28" r="30.148" gradientTransform="matrix(-.04413 .02324 -.01015 -.01928 68.248 60.526)" gradientUnits="userSpaceOnUse"><stop offset="0" stop-color="#8b8986"/><stop offset=".717" stop-color="#8b8986" stop-opacity="0"/></radialGradient><radialGradient id="d" cx="512.87" cy="954.24" r="28.923" gradientTransform="matrix(.00098 .04986 -.11153 .0022 137.99 26.181)" gradientUnits="userSpaceOnUse"><stop offset="0" stop-opacity=".4"/><stop offset=".209" stop-color="#131313" stop-opacity=".316"/><stop offset=".631" stop-color="#434445" stop-opacity=".147"/><stop offset="1" stop-color="#727375" stop-opacity="0"/></radialGradient></defs><rect width="56" height="56" x="4" y="4" fill="#ff943b" rx="13.002" ry="13.002"/><g stroke-width=".129"><path fill="#fef669" d="M32 31.674c10.922.1 10.369-1.426 10.428-1.387a13.53 13.53 0 0 0 3.157-8.702C45.585 14.084 39.505 8 32 8s-13.585 6.084-13.585 13.585c0 3.311 1.187 6.348 3.157 8.702.06-.04-.494 1.487 10.428 1.387" class="st6"/><path fill="url(#a)" d="M28.933 53.962s.165 2.12 2.613 2.035c2.45-.085 3.003-.883 3.003-.883s.439-.524.329-1.157-5.945.005-5.945.005" class="st0"/><path fill="url(#b)" d="M28.933 53.962s.165 2.12 2.613 2.035c2.45-.085 3.003-.883 3.003-.883s.439-.524.329-1.157-5.945.005-5.945.005" class="st1"/><path fill="url(#c)" d="M28.933 53.962s.165 2.12 2.613 2.035c2.45-.085 3.003-.883 3.003-.883s.439-.524.329-1.157-5.945.005-5.945.005" class="st2"/><path fill="url(#d)" d="M28.933 53.962s.165 2.12 2.613 2.035c2.45-.085 3.003-.883 3.003-.883s.439-.524.329-1.157-5.945.005-5.945.005" class="st3"/><path fill="url(#e)" d="M26.719 47.928s-.968.668.115 1.511c-1.097.758 0 1.586 0 1.586s-1.287 1.023.354 1.776c1.097 1.261 1.775 1.147 1.775 1.147s2.494 1.012 6.135.005c1.915-.559 1.815-1.766 1.815-1.766s1.337-.643.439-1.915c.768-.942 0-1.636 0-1.636s.444-.443.34-.832c-.106-.394-10.973.124-10.973.124" class="st9"/><path fill="url(#f)" d="M36.424 52.336s-1.367.653-2.364.693c-1.002.035.419.13.419.13s1.945-.274 1.945-.544z" class="st10"/><path fill="url(#g)" d="M27.242 52.576s1.202.519 2.967.499-.748.364-2.728-.09c-.733-.524-.24-.409-.24-.409z" class="st11"/><path fill="url(#h)" d="M36.194 51.937s-.105 1.377-1.307 1.85.539.205 1.103-.22c.433-.278.892-.682.917-1.33.025-.65-.713-.3-.713-.3" class="st12"/><path fill="url(#i)" d="M33.666 49.439c1.396.065 2.384-.429 2.464-.479-.509.514-1.98.893-1.98.893s2.299-.18 3.162-1.122c.409-.474.468-.888.319-1.008-.599-.478-4.643 1.527-3.965 1.716" class="st13"/><path fill="url(#j)" d="M27.691 50.661s.439.025.414.27c-.025.244-.778.124-.778.124s.563.603.688.818 2.993.748 4.204.578c1.207-.164 3.108-.324 3.342-.573.23-.25 1.002.25-.03.304-1.032.06-4.518.943-6.553.529s-1.481.439-1.481.439-.145-.2-.31-.36c-1.142-.508-.947-1.256-.354-1.775.464-.703.858-.354.858-.354" class="st14"/><path fill="url(#k)" d="M28.19 53.419s1.127.883 3.77.758c2.644-.13 3.307-.479 3.82-.977s.22.384-.653.673c-.872.29-1.945.548-3.246.514-1.302-.035-3.68-.5-3.76-.769s.07-.199.07-.199z" class="st15"/><path fill="url(#l)" d="M27.202 48.077s-.554.404.23.618c.782.215 1.93.275 1.93.275s.219.25-.135.21c-.354-.046-1.806-.175-1.806-.175s-.513 0-.074.279.708.464.708.464.244.299-.125.15-.703-.24-1.302-.639c-.319-.399-.548-.728.085-1.337.464-.054.489.155.489.155" class="st16"/><path fill="url(#m)" d="M28.245 49.997s1.307.569 5.536.13c-2.633.164-5.536-.13-5.536-.13" class="st17" opacity=".5"/><path fill="url(#n)" d="M30.125 49.653s4.598.115 6.005-.698c-1.72 1.536-6.005.698-6.005.698" class="st18" opacity=".5"/><path fill="url(#o)" d="M35.601 50.83s-3.521.733-6.484.34c.005.004 2.748 1.116 6.484-.34" class="st19" opacity=".5"/><path fill="url(#p)" d="M36.229 50.711s.145.374-.454.519-.932.454-1.137.454c-.21 0-1.431.309-1.431.309s-.454.269.309.309c.768.04 2.728-.31 2.728-.31s.379.09.11.315c-.27.224.862-.12 1.097-.623.369-.394.19-1.008-.105-1.417-.29-.105-1.117.444-1.117.444" class="st20"/><path fill="url(#q)" d="M26.828 49.444s.798.439.903.564.204.284.164.399c-.04.114 2.235.458 3.282.423 1.047-.034 4.17-.643 4.22-.728s-.315-.174-.07-.294c.244-.12 1.81-.658 2.024-1.177.274.26.599.933 0 1.636-.07.045-1.142.743-2.264.893l1.366-.664s-4.254.489-6.518.404-2.833-.563-2.763.025c.584.31.953.654.953.654s-.933-.15-1.237-.49c-.39-.373-.973-1.017-.06-1.645" class="st21"/><path fill="url(#r)" d="M37.501 47.818s-.778 1.342-6.07 1.322-4.713-1.127-4.713-1.127z" class="st22"/><path fill="url(#s)" d="M42.324 30.228s.598 1.546-10.324 1.446c-10.922.1-10.324-1.446-10.324-1.446s-.748.35 0 .898 3.541 12.119 2.693 14.513c.748.399 1.496 1.596 1.496 1.596s.15.1-.15.2c-.299.099 1.796 1.096 6.285 1.096s6.583-.997 6.284-1.097-.15-.2-.15-.2.748-1.196 1.496-1.595c-.848-2.394 1.945-13.964 2.693-14.513s0-.898 0-.898z" class="st23"/><path fill="#e9e9ed" d="M42.324 30.228s.598 1.546-10.324 1.446c-10.922.1-10.324-1.446-10.324-1.446s-.748.35 0 .898 3.541 12.119 2.693 14.513c.748.399 1.496 1.596 1.496 1.596s.15.1-.15.2c-.299.099 1.796 1.096 6.285 1.096s6.583-.997 6.284-1.097-.15-.2-.15-.2.748-1.196 1.496-1.595c-.848-2.394 1.945-13.964 2.693-14.513s0-.898 0-.898z" class="st24"/></g><path d="M3.998 45.998v1c0 7.203 5.8 13.004 13.004 13.004h29.996c7.203 0 13.004-5.8 13.004-13.004v-1c0 7.203-5.8 13.002-13.004 13.002H17.002A12.975 12.975 0 0 1 3.998 45.998" opacity=".15"/><path fill="#fff" d="M3.998 18.004v-1C3.998 9.801 9.798 4 17.002 4h29.996c7.203 0 13.004 5.8 13.004 13.004v1c0-7.203-5.8-13.002-13.004-13.002H17.002A12.975 12.975 0 0 0 3.998 18.004" opacity=".15"/><path fill="#fff" d="M32 8c-7.506 0-13.586 6.083-13.586 13.584q0 .268.012.533C18.673 14.833 24.65 9 32 9c7.348 0 13.327 5.834 13.574 13.117q.01-.265.011-.533C45.585 14.084 39.505 8 32 8" class="st6" opacity=".25"/></svg>