<svg xmlns="http://www.w3.org/2000/svg" xmlns:xlink="http://www.w3.org/1999/xlink" width="64" height="64" viewBox="0 0 16.933 16.933"><defs><linearGradient id="a"><stop offset="0" stop-color="#f8fcf8"/><stop offset="1" stop-color="#f8faf8" stop-opacity="0"/></linearGradient><linearGradient xlink:href="#a" id="b" x1="7.937" x2="7.937" y1="3.704" y2="9.789" gradientUnits="userSpaceOnUse"/><linearGradient id="c" x1="8.754" x2="8.754" y1="15.472" y2="1.75" gradientTransform="translate(0 .008)scale(.99996)" gradientUnits="userSpaceOnUse"><stop offset="0" stop-color="#15c332"/><stop offset="1" stop-color="#5cf777"/></linearGradient><linearGradient id="f" x1="5.557" x2="6.086" y1="12.435" y2="12.7" gradientUnits="userSpaceOnUse"><stop offset="0" stop-color="#fff"/><stop offset="1" stop-color="#92c88f" stop-opacity=".198"/></linearGradient><linearGradient xlink:href="#a" id="e" x1="7.937" x2="7.937" y1="3.704" y2="10.231" gradientUnits="userSpaceOnUse"/><radialGradient id="d" cx="8.401" cy="7.076" r="5.292" gradientTransform="matrix(1 0 0 .89626 0 .876)" gradientUnits="userSpaceOnUse"><stop offset="0" stop-color="#fdfefd" stop-opacity="0"/><stop offset="1" stop-color="#a3eaa0"/></radialGradient><clipPath id="g"><path fill="url(#b)" d="M8.466 3.704A5.292 4.365 0 0 0 3.175 8.07a5.292 4.365 0 0 0 2.095 3.472l.027.017a5.292 4.365 0 0 0 .053.033c.136.09.392.3.336.57-.074.364-.462.742-.534.832s-.126.19.044.195c.193.006.523-.101.79-.233s.591-.44.797-.503c.197-.08.44-.107.838-.08a5.292 4.365 0 0 0 .845.062 5.292 4.365 0 0 0 5.292-4.365 5.292 4.365 0 0 0-5.292-4.366"/></clipPath><filter id="h" width="1.658" height="1.792" x="-.329" y="-.396" color-interpolation-filters="sRGB"><feGaussianBlur stdDeviation=".283"/></filter></defs><rect width="14.816" height="14.816" x="1.058" y="1.058" fill="url(#c)" rx="3.439" ry="3.439"/><path fill="#fdfefd" d="M8.466 3.704A5.292 4.365 0 0 0 3.175 8.07a5.292 4.365 0 0 0 2.095 3.472l.027.017a5.292 4.365 0 0 0 .053.033c.136.09.391.3.336.57-.074.364-.463.742-.534.832s-.127.19.044.195c.192.006.522-.101.79-.233s.59-.44.797-.503c.196-.08.44-.107.838-.08a5.292 4.365 0 0 0 .845.062 5.292 4.365 0 0 0 5.292-4.365 5.292 4.365 0 0 0-5.292-4.366"/><path fill="url(#d)" d="M8.466 3.704A5.292 4.365 0 0 0 3.175 8.07a5.292 4.365 0 0 0 2.095 3.472l.027.017a5.292 4.365 0 0 0 .053.033c.136.09.391.3.336.57-.074.364-.463.742-.534.832s-.127.19.044.195c.192.006.522-.101.79-.233s.59-.44.797-.503c.196-.08.44-.107.838-.08a5.292 4.365 0 0 0 .845.062 5.292 4.365 0 0 0 5.292-4.365 5.292 4.365 0 0 0-5.292-4.366"/><path fill="url(#e)" d="M8.466 3.704A5.292 4.365 0 0 0 3.175 8.07a5.292 4.365 0 0 0 2.095 3.472l.027.017a5.292 4.365 0 0 0 .053.033c.136.09.391.3.336.57-.074.364-.463.742-.534.832s-.127.19.044.195c.192.006.522-.101.79-.233s.59-.44.797-.503c.196-.08.44-.107.838-.08a5.292 4.365 0 0 0 .845.062 5.292 4.365 0 0 0 5.292-4.365 5.292 4.365 0 0 0-5.292-4.366"/><path fill="url(#f)" d="M5.686 12.162c-.074.364-.462.742-.534.831s-.126.19.044.196c.193.006.522-.101.79-.234s.591-.44.797-.502c1.162-.694-.806-1.648-1.096-.291z" clip-path="url(#g)" filter="url(#h)"/></svg>