<svg xmlns="http://www.w3.org/2000/svg" image-rendering="optimizeSpeed" viewBox="0 0 64 64"><rect width="56.002" height="56.002" x="4" y="3.969" fill="#f2f2f2" rx="13.002" ry="13.002"/><path fill="#3699d8" d="M28.977 3.969c-1.472 3.72-2.713 8.242-3.102 12.373-.755 8.028.566 14.08 3.996 18.17 3.43 4.088 8.45 5.583 15.041 4.506 5.992-.98 11.022-3.507 15.09-7.596V23.25c-.989 1.987-2.124 3.86-3.095 5.348-3.029 4.635-6.915 7.332-11.676 8.111-4.529.74-7.901-.797-10.113-4.619-2.189-3.849-2.932-9.485-2.23-16.928A40.3 40.3 0 0 1 35.55 3.969h-6.574z"/><path d="M3.998 45.998v1c0 7.203 5.8 13.004 13.004 13.004h29.996c7.203 0 13.004-5.8 13.004-13.004v-1c0 7.203-5.8 13.002-13.004 13.002H17.002A12.975 12.975 0 0 1 3.998 45.998" opacity=".1"/><path fill="#fff" d="M3.998 18.004v-1C3.998 9.801 9.798 4 17.002 4h29.996c7.203 0 13.004 5.8 13.004 13.004v1c0-7.203-5.8-13.002-13.004-13.002H17.002A12.975 12.975 0 0 0 3.998 18.004" opacity=".5"/><path fill="#231815" d="M14.59 50.973a.897.897 0 0 1-1.042-.987C14.842 38.78 35.379 35.468 36.25 35.333l18.479-3.158a.895.895 0 0 1 1.035.733.895.895 0 0 1-.733 1.035l-18.493 3.16c-.205.04-20.07 3.235-21.209 13.088a.9.9 0 0 1-.739.782"/><path fill="#231815" d="M54.612 44.018a.9.9 0 0 1-.952-.481c-4.441-8.807-24.07-5.247-24.254-5.215l-18.58 3.175a.896.896 0 1 1-.302-1.768l18.566-3.173c.853-.166 21.132-3.82 26.171 6.174a.896.896 0 0 1-.649 1.288"/><path fill="#232222" d="M35.706 35.896c-1.157-.81-2.278-1.126-3.329-.895-1.68.344-2.653 1.883-2.662 1.899l-.691-.419c.047-.076 1.171-1.854 3.192-2.268 1.274-.263 2.615.083 3.962 1.026z"/><path fill="#2ea7e0" d="M15.666 35.211a4.04 4.04 0 0 0-3.299 4.658l.151.884a6.735 6.735 0 0 0 7.764 5.498l3.536-.604a6.735 6.735 0 0 0 5.498-7.764l-.151-.884a4.04 4.04 0 0 0-4.658-3.299zm23.87-4.079a4.04 4.04 0 0 0-3.299 4.658l.151.884a6.735 6.735 0 0 0 7.764 5.498l3.536-.604a6.735 6.735 0 0 0 5.498-7.764l-.151-.884a4.04 4.04 0 0 0-4.658-3.299z" opacity=".3"/><path fill="#232222" d="m23.97 46.531-3.536.604c-4.144.708-8.091-2.087-8.799-6.231l-.152-.884a4.94 4.94 0 0 1 4.032-5.694l8.841-1.511a4.94 4.94 0 0 1 5.694 4.032l.151.884c.708 4.144-2.087 8.092-6.231 8.8m-8.304-11.32a4.04 4.04 0 0 0-3.299 4.658l.151.884a6.735 6.735 0 0 0 7.764 5.498l3.536-.604a6.735 6.735 0 0 0 5.498-7.764l-.151-.884a4.04 4.04 0 0 0-4.658-3.299zm32.174 7.241-3.536.604c-4.143.708-8.091-2.087-8.799-6.231l-.151-.884a4.94 4.94 0 0 1 4.032-5.694l8.841-1.511a4.94 4.94 0 0 1 5.694 4.032l.151.884c.707 4.144-2.089 8.092-6.232 8.8m-8.304-11.32a4.04 4.04 0 0 0-3.299 4.658l.151.884a6.735 6.735 0 0 0 7.764 5.498l3.536-.604a6.735 6.735 0 0 0 5.498-7.764l-.151-.884a4.04 4.04 0 0 0-4.658-3.299z"/></svg>