<svg xmlns="http://www.w3.org/2000/svg" xmlns:xlink="http://www.w3.org/1999/xlink" width="64" height="64"><defs><linearGradient xlink:href="#a" id="d" x1="129.94" x2="126.35" y1="252.72" y2="16.928" gradientTransform="translate(-67.36 -105.25)" gradientUnits="userSpaceOnUse"/><linearGradient id="a"><stop offset="0" stop-color="#589632"/><stop offset="1" stop-color="#93b023"/></linearGradient><linearGradient xlink:href="#a" id="c" x1="200.79" x2="197.17" y1="249.01" y2="11.232" gradientTransform="translate(-67.36 -105.25)" gradientUnits="userSpaceOnUse"/><linearGradient id="b" x1="27.061" x2="27.061" y1="7.65" y2="58.958" gradientUnits="userSpaceOnUse"><stop offset="0" stop-color="#fbfef0"/><stop offset="1" stop-color="#ecf9be"/></linearGradient></defs><rect width="56.002" height="56.002" x="4" y="3.969" fill="url(#b)" rx="13.002" ry="13.002"/><path fill="#ee7913" d="M33.631 33.388h5.85l-4.95-4.93h-6.066v5.87l5.166 5.185z"/><path fill="url(#c)" d="m180.7 106.8-61.443-60.742H84.649v35.761l58.881 58.682h37.17z" transform="matrix(.16985 0 0 .17106 21.7 27.974)"/><path fill="#f0e64a" d="M36.078 35.852h5.878l-2.475-2.464h-5.85v6.125l2.447 2.456z"/><path fill="url(#d)" d="M77.466 94.049a72.2 72.2 0 0 1-16.238 1.854c-40.027 0-74.072-32.914-74.072-75.59s33.666-74.869 74.072-74.869c40.401 0 72.57 32.187 72.57 74.869a81.4 81.4 0 0 1-2.461 19.945L168.384 77.3c9.552-16.736 14.896-36.197 14.896-57.274 0-65.778-52.493-115.03-122.8-115.03C-9.51-95.004-62-46.077-62 20.026c0 66.421 52.489 116.32 122.48 116.32 18.066 0 34.952-3.323 50.077-9.371z" transform="matrix(.16985 0 0 .17106 21.7 27.974)"/><path d="m28.465 28.458 23.927 23.55v-5.765L39.48 33.388l-4.95-4.929z" opacity=".1"/></svg>