<svg xmlns="http://www.w3.org/2000/svg" viewBox="0 0 64 64"><rect width="56.002" height="56.002" x="4" y="3.969" fill="#facb43" rx="13.002" ry="13.002"/><path d="M3.998 45.998v1c0 7.203 5.8 13.004 13.004 13.004h29.996c7.203 0 13.004-5.8 13.004-13.004v-1c0 7.203-5.8 13.002-13.004 13.002H17.002A12.975 12.975 0 0 1 3.998 45.998" opacity=".15"/><path fill="#fff" d="M3.998 18.004v-1C3.998 9.801 9.798 4 17.002 4h29.996c7.203 0 13.004 5.8 13.004 13.004v1c0-7.203-5.8-13.002-13.004-13.002H17.002A12.975 12.975 0 0 0 3.998 18.004" opacity=".15"/><circle cx="32.02" cy="32.044" r="30.001" fill="none"/><path fill="#ef221e" d="M25 43.692c.331-1.357 1.403-2.34 2.335-3.133.611-.393.642-.72.15-.947-2.485-1.145-4.53-1.854-6.586-2.978-3.48-1.931-5.473-4.732-6.001-8.43-.109-.885-.109-1.806.046-2.454.213-.46.658-.735 1.186-.735.337 0 .533.078 1.476.6 2.149 1.187 4.251 2.129 5.349 2.403.45.11.497.11.75-.03 1.212-.669 2.15-1.684 2.569-1.834h9.63c3.361 3.589 8.068 4.567 12.143 2.387 1.082-.637 1.73-1.29 2.081-2.387h2.693c0 .202-.56 1.688-.958 2.222-1.284 1.719-3.283 3.106-6.317 4.38-4.355 2.165-7.286 5.126-11.045 6.856-.73.367-.125.58.191.942 1.015.917 1.745 1.89 2.082 3.133m-14.048-9.631-.663-3.298a5 5 0 0 0-.627-.239c-.574-.186-2.081-.813-2.739-1.144-.486-.243-.75-.27-.75-.072 0 .258.605 1.46 1.05 2.091.493.694 1.036 1.248 1.782 1.823.689.523 1.595 1.062 1.802 1.062.155 0 .17-.032.14-.218zm4.039-9.362c.03-.057.357-.678.725-1.274 1.532-2.46 2.242-3.112 3.391-3.112 1.098 0 1.875.694 3.33 2.998.455.715.823 1.362.823 1.388z"/></svg>