<svg xmlns="http://www.w3.org/2000/svg" xmlns:xlink="http://www.w3.org/1999/xlink" width="64" height="64" viewBox="0 0 64 64"><defs><linearGradient id="b" x1="7.937" x2="7.937" y1="15.081" y2="1.852" gradientTransform="scale(3.7796)" gradientUnits="userSpaceOnUse"><stop offset="0" stop-color="#f1efeb"/><stop offset="1" stop-color="#fdfcfc"/></linearGradient></defs><linearGradient id="c" x1="24" x2="104.18" y1="72" y2="72" gradientUnits="userSpaceOnUse"><stop offset="0" stop-color="#e66100"/><stop offset=".065" stop-color="#e66100"/><stop offset=".115" stop-color="#e66100"/><stop offset=".186" stop-color="#e66100"/><stop offset=".243" stop-color="#e66100"/><stop offset=".317" stop-color="#e66100"/><stop offset=".448" stop-color="#e66100"/><stop offset=".502" stop-color="#ffb780"/><stop offset=".563" stop-color="#e66100"/><stop offset=".719" stop-color="#e66100"/><stop offset=".796" stop-color="#e66100"/><stop offset=".857" stop-color="#e66100"/><stop offset="1" stop-color="#e66100"/></linearGradient><linearGradient id="a" gradientUnits="userSpaceOnUse"><stop offset="0" stop-color="#bb5e00"/><stop offset=".053" stop-color="#ffa954"/><stop offset=".118" stop-color="#eb7400"/><stop offset=".257" stop-color="#9a4c00"/><stop offset=".593" stop-color="#ff9d40"/><stop offset=".875" stop-color="#d36900"/><stop offset=".935" stop-color="#ffc080"/><stop offset="1" stop-color="#ae5700"/></linearGradient><linearGradient xlink:href="#a" id="d" x1="38.374" x2="89.689" y1="56" y2="56"/><linearGradient xlink:href="#a" id="e" x1="25.383" x2="104" y1="54.15" y2="56"/><rect width="56.002" height="56.002" x="4" y="3.969" fill="url(#b)" rx="13.002" ry="13.002"/><path fill="url(#c)" d="M64.195 74.062c-4.95.004-8.965 4.016-8.965 8.969S59.246 92 64.195 92c4.957 0 8.973-4.016 8.969-8.97a8.97 8.97 0 0 0-8.969-8.968" transform="translate(.105 1.385)scale(.49812)"/><path fill="url(#d)" d="M64.031 53.422c-8.754 0-17.508 3.324-24.156 9.973a5.123 5.123 0 0 0 0 7.25c2 2 5.246 2 7.25 0a23.83 23.83 0 0 1 33.816-.004 5.123 5.123 0 1 0 7.246-7.246c-6.648-6.649-15.402-9.973-24.156-9.973" transform="translate(.105 1.385)scale(.49812)"/><path fill="url(#e)" d="M64.031 32.926c-14-.004-27.996 5.324-38.648 15.977a5.12 5.12 0 0 0 0 7.246c2 2.004 5.246 2 7.246 0 17.387-17.387 45.418-17.387 62.805 0 2 2 5.246 2 7.246 0a5.12 5.12 0 0 0 0-7.246c-10.648-10.652-24.648-15.98-38.648-15.977z" transform="translate(.105 1.385)scale(.49812)"/><path fill="#ffa348" d="M32 16.788c-6.973 0-13.945 2.654-19.251 7.96a2.55 2.55 0 0 0 0 3.61 2.55 2.55 0 0 0 3.61 0c8.66-8.661 22.623-8.661 31.284 0a2.553 2.553 0 0 0 3.61-3.61c-5.305-5.306-12.279-7.96-19.252-7.96zM32 27c-4.36 0-8.72 1.656-12.032 4.967a2.55 2.55 0 0 0 0 3.61 2.55 2.55 0 0 0 3.611 0 11.87 11.87 0 0 1 16.844 0 2.55 2.55 0 0 0 3.61 0 2.55 2.55 0 0 0 0-3.61C40.72 28.656 36.36 27 32 27m.082 10.281a4.468 4.468 0 0 0 0 8.935c2.47 0 4.47-2 4.467-4.467 0-2.467-2-4.468-4.467-4.468"/></svg>