<svg xmlns="http://www.w3.org/2000/svg" viewBox="0 0 64 64"><defs><radialGradient id="a" cx="199.22" cy="60.978" r="62.148" gradientTransform="matrix(.32782 0 0 .89047 -40.547 -21.16)" gradientUnits="userSpaceOnUse"><stop offset="0" stop-color="#ececef"/><stop offset="1" stop-color="#cbccce" stop-opacity="0"/></radialGradient></defs><rect width="31.099" height="25.605" x="23.688" y="13.562" fill="#d3d4d6" rx="1.417"/><rect width="56.002" height="56.002" x="4" y="3.969" fill="#f2f2f2" rx="13.002" ry="13.002"/><path d="M3.998 45.998v1c0 7.203 5.8 13.004 13.004 13.004h29.996c7.203 0 13.004-5.8 13.004-13.004v-1c0 7.203-5.8 13.002-13.004 13.002H17.002A12.975 12.975 0 0 1 3.998 45.998" opacity=".1"/><path fill="#fff" d="M3.998 18.004v-1C3.998 9.801 9.798 4 17.002 4h29.996c7.203 0 13.004 5.8 13.004 13.004v1c0-7.203-5.8-13.002-13.004-13.002H17.002A12.975 12.975 0 0 0 3.998 18.004" opacity=".5"/><rect width="64" height="64" fill="none" rx="0" ry="0" style="paint-order:stroke fill markers"/><g stroke-width=".511"><rect width="31.099" height="25.605" x="23.688" y="13.562" fill="#c3c8cb" rx="1.417"/><path fill="#080808" d="M25.105 13.562a1.414 1.392 0 0 0-1.417 1.395v18.638h31.1V14.957a1.414 1.392 0 0 0-1.417-1.395z"/><path fill="#1bc7f9" d="M24.979 14.443h28.394v18.062H24.979z"/><path fill="#afafaf" d="M23.688 37.512v.26a1.414 1.392 0 0 0 1.417 1.395h28.264a1.414 1.392 0 0 0 1.416-1.395v-.26a1.414 1.392 0 0 1-1.416 1.395H25.105a1.414 1.392 0 0 1-1.417-1.395"/></g><path fill="#b3b3b3" d="M43.129 38.987c-.022.911-.237 1.927 1.238 2.792 1.178.72-.653.77-1.108.77-2.625.114-5.294.188-8.042 0-.455 0-2.286-.05-1.109-.77 1.476-.866 1.261-1.88 1.24-2.792z"/><path fill="#1e1f28" d="M40.305 36.747a1.4 1.4 0 0 1-.142.252 1.3 1.3 0 0 1-.183.218.36.36 0 0 1-.236.102.6.6 0 0 1-.218-.051.6.6 0 0 0-.234-.051.7.7 0 0 0-.24.05.7.7 0 0 1-.21.055q-.12.005-.24-.105a1.4 1.4 0 0 1-.192-.226 1.6 1.6 0 0 1-.203-.397 1.4 1.4 0 0 1-.085-.472.86.86 0 0 1 .115-.452.67.67 0 0 1 .567-.33q.096 0 .253.057a.8.8 0 0 0 .2.058q.032 0 .221-.068a.7.7 0 0 1 .302-.053q.334.027.501.26-.3.178-.296.499a.55.55 0 0 0 .184.414q.081.076.183.119-.022.063-.047.12zm-.51-1.98q0 .196-.145.365c-.117.134-.257.212-.41.2l-.003-.05c0-.125.055-.26.154-.369a.6.6 0 0 1 .187-.138.6.6 0 0 1 .214-.06z"/><path fill-opacity=".212" d="M24.98 14.443v18.062h28.394V14.443zm.138.125H53.26v17.824H25.12z"/><path fill="#080808" d="M25.105 13.624c-.785 0-1.417.622-1.417 1.395v18.576h31.099V15.019c0-.773-.632-1.395-1.417-1.395zm-.125 1.312h28.394v17.57H24.98z"/><g stroke-width=".511"><rect width="31.099" height="25.605" x="9.212" y="20.645" fill="url(#a)" rx="1.417"/><rect width="31.099" height="25.605" x="9.212" y="20.645" fill="#d3d4d6" rx="1.417"/><path fill="#080808" d="M10.629 20.645a1.414 1.392 0 0 0-1.417 1.395v18.638h31.1V22.04a1.414 1.392 0 0 0-1.417-1.395z"/><path fill="#f5bf1c" d="M10.503 21.526h28.394v18.062H10.503z"/></g><path fill="#b3b3b3" d="M28.653 46.07c-.022.911-.237 1.927 1.238 2.792 1.178.72-.653.77-1.108.77-2.625.114-5.294.188-8.042 0-.455 0-2.286-.05-1.108-.77 1.475-.866 1.26-1.88 1.238-2.792z"/><path fill="#afafaf" d="M9.212 44.595v.26a1.414 1.392 0 0 0 1.417 1.395h28.264a1.414 1.392 0 0 0 1.416-1.395v-.26a1.414 1.392 0 0 1-1.416 1.395H10.629a1.414 1.392 0 0 1-1.417-1.395"/><path fill="#1e1f28" d="M25.83 43.83a1.4 1.4 0 0 1-.143.252 1.3 1.3 0 0 1-.184.218.36.36 0 0 1-.235.102.6.6 0 0 1-.218-.051.6.6 0 0 0-.234-.051.7.7 0 0 0-.241.05.7.7 0 0 1-.208.055q-.121.005-.241-.105a1.4 1.4 0 0 1-.192-.226 1.6 1.6 0 0 1-.203-.397 1.4 1.4 0 0 1-.085-.472.85.85 0 0 1 .115-.452.67.67 0 0 1 .567-.33q.096 0 .252.057a.8.8 0 0 0 .2.058q.033 0 .222-.068a.7.7 0 0 1 .301-.053q.334.027.502.26-.3.178-.296.499a.55.55 0 0 0 .183.414q.082.076.184.119-.022.063-.047.12zm-.512-1.98q0 .196-.145.365c-.116.134-.257.212-.41.2l-.002-.05c0-.125.055-.26.153-.369a.6.6 0 0 1 .187-.138.6.6 0 0 1 .214-.06z"/><path fill-opacity=".212" d="M10.503 21.526v18.062h28.394V21.526zm.139.125h28.141v17.824H10.642z"/><path fill="#080808" d="M10.629 20.707c-.785 0-1.417.622-1.417 1.395v18.576H40.31V22.102c0-.773-.632-1.395-1.417-1.395zm-.126 1.312h28.394v17.57H10.503z"/></svg>