<svg xmlns="http://www.w3.org/2000/svg" viewBox="0 0 64 64"><defs><linearGradient id="b" x1="72.839" x2="98.156" y1="52.81" y2="24.853" gradientTransform="matrix(.30931 -.30853 .28011 .31083 -5.289 49.803)" gradientUnits="userSpaceOnUse"><stop offset="0" stop-color="#3f3f3f"/><stop offset="1" stop-color="#232629"/></linearGradient><linearGradient id="a" x1="7.937" x2="7.937" y1="15.081" y2="1.852" gradientTransform="scale(3.7796)" gradientUnits="userSpaceOnUse"><stop offset="0" stop-color="#3292c8"/><stop offset="1" stop-color="#17c1f9"/></linearGradient><filter id="c" width="1.063" height="1.103" x="-.031" y="-.051" color-interpolation-filters="sRGB"><feGaussianBlur stdDeviation=".398"/></filter></defs><rect width="56" height="56" x="4" y="4" fill="url(#a)" rx="13" ry="13" style="fill:#24abe2;fill-opacity:1"/><path fill="#da4453" d="M17 14.991c-1.662 0-3 1.338-3 3v4h2v-4c0-.554.446-1 1-1h4v-2zm26 0v2h4c.554 0 1 .446 1 1v4h2v-4c0-1.662-1.338-3-3-3zm-29 27v4c0 1.662 1.338 3 3 3h4v-2h-4c-.554 0-1-.446-1-1v-4zm34 0v4c0 .554-.446 1-1 1h-4v2h4c1.662 0 3-1.338 3-3v-4z" style="fill:#ff8080"/><path fill="#eff0f1" d="M48.054 37.766c-.206-1.228-.219-2.59-1.019-4.456s-1.742-3.27-2.954-4.46a11.7 11.7 0 0 0-4.335-2.72c-1.74-.626-3.785-.943-4.998-1.282-1.213-.338-1.587-.697-1.806-1.133a2.4 2.4 0 0 1-.21-1.427c.073-.473.283-.91.447-1.212s.286-.473.184-.585-.424-.166-.934.128-1.205.938-1.619 1.464-.546.933-.773 1.349a4.5 4.5 0 0 1-.921 1.17c-.374.335-.799.584-1.739 1.068s-2.39 1.204-3.844 2.076a34 34 0 0 0-4.213 2.983c-1.306 1.09-2.465 2.246-3.272 3.252s-1.261 1.86-1.536 2.638-.371 1.475-.279 1.91c.093.437.373.61 2.165.234 1.791-.374 5.098-1.298 7.127-1.803 2.03-.506.794-2.597 1.375-2.793s2.986 1.5 3.65 1.24 1.593-.481 2.53-.702c.939-.22 1.893-.441 2.403-.637s.581-.367 1.756-.408c1.176-.042 3.455.046 5.026.264 1.572.217 2.434.563 3.03.96.596.399.926.848 1.243 1.186s.62.563 1.07.993 1.048 1.066 1.505 2.03c.456.965.772 2.258.967 2.502s-.36-1.506-.206-1.98c.154-.475.386-.621.18-1.849"/><path fill="url(#b)" d="M49.079 39.389c.291-.403.696-.991.633-1.2-.062-.21-.59-.04-1.088-.865-.497-.824-.963-2.64-1.672-4.257-.709-1.618-1.657-3.03-2.869-4.22s-2.596-2.093-4.335-2.72c-1.739-.626-3.785-.943-4.998-1.282-1.213-.338-1.587-.696-1.806-1.133a2.4 2.4 0 0 1-.21-1.426c.073-.474.283-.91.447-1.212s.286-.474.185-.586-.425-.166-.935.129c-.51.294-1.204.937-1.619 1.463-.414.527-.546.934-.773 1.35a4.5 4.5 0 0 1-.92 1.17c-.375.335-.8.583-1.74 1.068s-2.39 1.204-3.844 2.075-2.906 1.894-4.213 2.984-2.465 2.245-3.272 3.251-1.261 1.86-1.536 2.638-.371 1.475-.279 1.911c.093.436.373.608.913.346s1.338-.957 2.043-1.534 1.316-1.037 1.998-1.39a8.6 8.6 0 0 1 2.093-.744c.66-.142 1.226-.18 1.534-.06s.358.397.383.536c.025.138.002.613.081.736.08.122.237.366.824.36s8.871-2.516 9.381-2.712c.51-.195.582-.367.795-.905s.57-1.452 1.004-2.121c.432-.67.944-1.105 1.405-1.314.46-.208.875-.193 1.391-.105.516.087 1.138.248 1.615.487.478.24.814.557.994.855s.206.574.036.844-.53.53-.819.616c-.287.085-.495-.008-.839-.042a2.6 2.6 0 0 0-1.352.23c-.531.24-1.222.85-1.102 1.066 4.933-.062 9.327 2.793 10.502 5.415.377.841.772 2.257.968 2.502s.27-.56.398-1.07c.128-.512.307-.73.598-1.134"/><path fill="#eff0f1" d="m23.273 28.55 1.307 2.7 2.7-1.306-1.307-2.701zm4.05-1.96 1.308 2.7 2.7-1.307-1.307-2.7zm-3.048 2.308 1.35-.653.654 1.35-1.35.654zm4.05-1.96 1.35-.654.654 1.35-1.35.654zM25.234 32.6l1.307 2.7 2.701-1.307-1.307-2.7zm4.051-1.96.654 1.35 1.35-.654-.654-1.35zm-3.049 2.308 1.35-.653.654 1.35-1.35.653z" color="#232629"/><path fill="#fff" d="M33.051 20.401c-.157.01-.364.07-.62.217a5.3 5.3 0 0 0-.845.644c-.144.132-.286.272-.418.41s-.252.277-.355.409c-.415.526-.547.934-.774 1.35a4.6 4.6 0 0 1-.922 1.17c-.374.335-.798.583-1.738 1.067-.47.243-1.067.544-1.728.893-.662.35-1.39.748-2.116 1.184a34 34 0 0 0-4.212 2.982 28 28 0 0 0-1.823 1.658 23 23 0 0 0-.78.815q-.365.401-.669.779c-.403.503-.72.968-.969 1.404-.248.437-.43.846-.568 1.235a5.7 5.7 0 0 0-.277 1.082v.002c-.047.325-.048.608-.002.826q.044.206.15.326l.037.043a.4.4 0 0 0 .225.098.7.7 0 0 0 .31-.043q.09-.03.192-.078l.025-.016c.034-.37.125-.801.291-1.27.275-.777.728-1.633 1.535-2.638.807-1.006 1.965-2.16 3.272-3.25s2.762-2.113 4.215-2.985c1.453-.87 2.903-1.59 3.843-2.076.94-.485 1.365-.732 1.739-1.068s.693-.755.92-1.17c.227-.416.359-.821.773-1.348a7.3 7.3 0 0 1 1.031-1.037l.002-.006a3.4 3.4 0 0 1 .166-.47 6 6 0 0 1 .22-.465c.125-.228.224-.38.222-.49a.14.14 0 0 0-.037-.096c-.051-.056-.158-.097-.315-.088m-.307 1.84c-.128.339-.084 1.067.131 1.914.023.057.04.117.069.172.219.436.593.794 1.806 1.133s4.21 1.014 5.95 1.64a11.6 11.6 0 0 1 4.019 2.426 13 13 0 0 0-.637-.678 11.7 11.7 0 0 0-4.334-2.719 17 17 0 0 0-1.344-.418c-1.365-.369-2.744-.61-3.654-.865-1.213-.338-1.588-.696-1.807-1.133a2.4 2.4 0 0 1-.209-1.425z" filter="url(#c)" opacity=".109"/><path d="M3.998 45.998v1c0 7.203 5.8 13.004 13.004 13.004h29.996c7.203 0 13.004-5.8 13.004-13.004v-1c0 7.203-5.8 13.002-13.004 13.002H17.002A12.975 12.975 0 0 1 3.998 45.998" opacity=".15"/><path fill="#fff" d="M3.998 18.004v-1C3.998 9.801 9.798 4 17.002 4h29.996c7.203 0 13.004 5.8 13.004 13.004v1c0-7.203-5.8-13.002-13.004-13.002H17.002A12.975 12.975 0 0 0 3.998 18.004" opacity=".15"/></svg>