<svg xmlns="http://www.w3.org/2000/svg" viewBox="0 0 64 64"><rect width="64" height="64" fill="none" rx="0" ry="0" style="paint-order:stroke fill markers"/><rect width="56.002" height="56.002" x="4" y="3.969" fill="#63e85b" rx="13.002" ry="13.002"/><circle cx="32.02" cy="32.044" r="30.001" fill="none"/><path fill="#fff" d="m12.388 11.385 1.426 1.07c-4.524 2.086 7.094 11.609 7.094 11.609s2.261-2.036 5.574-2.25c3.286-3.367 16.961-.804 16.45 1.96-4.598.071-6.054-.516-6.054-.516s.227.261.32 1.16c-.335.276-5.089-.789-6.082-.713-2.828.216-4.737.288-6.765.512 1.395.46 12.517 2.44 16.073 5.878-.949.366-1.364.216-1.68.332-.28.103-.56.67-1.172.673-.438.002-.288-.387-1.193-.815-5.627.224-7.452-3.21-8.007-3.63-2.484-.594-6.67-1.934-6.67-1.934s3.544 2.827 5.487 4.397c.161.13 2.825.625 6.211 2.277 1.82-1.49 6.727 1.038 5.815 3.353-.812 2.063-6.26-.062-6.06-2.868-1.244-.387-3.542-1.498-5.012-2.028 1.41 1.1 6.947 5.713 8.06 7.018 4.874-.599 12.232.618 16.797 3.543-1.04.275-5.994 1.216-6.986.951-1.844-.697-4.592-2.956-4.884-3.209a121 121 0 0 0-4.35-.624c.927.94 3.985 4.473 4.945 5.96.398-.085 2.427.403 2.989.785 2.083-2.125 5.46 1.604 7.536 3.405-.546 1.107-9.111-.597-7.966-3.078-.613-.082-1.838-.755-2.29-.79.462.604 1.47 1.425 2.797 2.817 1.276-.363 6.088 4.845 6.218 5.985-3.601-.878-5.38-1.64-5.937-2.292-1.1-1.285-.684-3.131-.58-3.466-1.415-1.266-1.68-1.642-2.142-1.893-.013.013.001.39.023.573 2.326 1.714 1.202 6.46-.135 6.63-.582.072-1.924-6.697-.249-6.95.039-.134.061-.533.063-.55-.884-.962-5.787-6.175-6.106-6.394a22 22 0 0 1 .658 1.923c2.896 1.892 3.375 4.92 3.156 8.476-.694-1.216-7.496-6.753-4.52-9.208.02-.378-.093-1.237.158-1.72-.944-.943-3.881-3.843-4.145-3.84.328.672.532 1.056.695 1.783 2.239 1.118 1.589 4.004.569 4.066-1.075.064-3.456-3.249-1.216-3.951-.181-.834-.51-1.968-.643-2.46-.97-.742-4.179-3.307-4.92-3.905.912 1.516 1.801 3.874 2.246 5.227 2.683 3.04 1.94 7.74 1.67 12.59-3.148-2.336-5.103-10.311-3.1-12.297-.669-2.307-1.68-6.209-1.68-6.209-4.327-3.359-6.721-5.876-6.721-5.876s2.883 3.739 3.212 5.743c2.525.49 4.635 4.889 2.627 5.64-2.935 1.097-6.086-3.56-3.582-5.294 0 0-2.217-4.084-3.933-7.666-6.77-7.43-6.119-9.66-4.089-9.91"/><path d="M3.999 45.998V47A12.975 12.975 0 0 0 17 60.002h30A12.975 12.975 0 0 0 60.002 47v-1.002A12.975 12.975 0 0 1 47 59H17A12.975 12.975 0 0 1 4 45.998z" opacity=".15"/><path fill="#fff" d="M3.999 18.002v-.994A12.975 12.975 0 0 1 17 4.006h30a12.975 12.975 0 0 1 13.002 13.002v1.002A12.975 12.975 0 0 0 47 5.008H17A12.975 12.975 0 0 0 4 18.01z" opacity=".15"/></svg>