<svg xmlns="http://www.w3.org/2000/svg" viewBox="0 0 64 64"><defs><filter id="a" width="1.499" height="1.373" x="-.249" y="-.186" color-interpolation-filters="sRGB"><feGaussianBlur stdDeviation=".776"/></filter><filter id="b" width="1.479" height="1.373" x="-.24" y="-.186" color-interpolation-filters="sRGB"><feGaussianBlur stdDeviation=".776"/></filter><filter id="c" width="1.447" height="1.373" x="-.223" y="-.186" color-interpolation-filters="sRGB"><feGaussianBlur stdDeviation=".776"/></filter></defs><rect width="56.002" height="56.002" x="4" y="3.969" fill="#f2f2f2" rx="13.002" ry="13.002"/><path fill="#ff9b00" d="M18 8C12.46 8 8 12.46 8 18v13h23V8z"/><path fill="#489bed" d="M33 33v23h13c5.54 0 10-4.46 10-10V33z"/><path fill="#35e899" d="M8 33v13c0 5.54 4.46 10 10 10h13V33z"/><path d="M21.69 23.869c1.932-1.378 3.04-2.969 3.04-4.702 0-1.988-1.42-3.167-3.807-3.167a7.1 7.1 0 0 0-3.395.852l.554 1.86c.937-.425 1.648-.61 2.33-.61 1.122 0 1.761.497 1.761 1.392 0 1.136-.994 2.4-4.276 4.957V26H25v-2.131z" enable-background="new" filter="url(#a)" opacity=".15" style="font-feature-settings:normal;font-variant-caps:normal;font-variant-ligatures:normal;font-variant-numeric:normal"/><path fill="#fff" d="M21.69 23.869c1.932-1.378 3.04-2.969 3.04-4.702 0-1.988-1.42-3.167-3.807-3.167a7.1 7.1 0 0 0-3.395.852l.554 1.86c.937-.425 1.648-.61 2.33-.61 1.122 0 1.761.497 1.761 1.392 0 1.136-.994 2.4-4.276 4.957V26H25v-2.131z" enable-background="new" style="font-feature-settings:normal;font-variant-caps:normal;font-variant-ligatures:normal;font-variant-numeric:normal"/><path d="M44.938 42.608c.98-.504 1.513-1.26 1.513-2.157 0-1.47-1.415-2.45-3.502-2.45-2.213 0-3.683 1.19-3.683 2.968 0 1.079.546 1.723 1.288 2.171-.994.42-1.554 1.177-1.554 2.13 0 1.637 1.54 2.73 3.85 2.73 2.353 0 3.922-1.204 3.922-3.025 0-1.274-.84-1.933-1.835-2.367zm-2.073-2.535c.658 0 1.093.322 1.093.826 0 .505-.364.91-.925 1.05-.728-.265-1.274-.545-1.274-1.064 0-.49.434-.812 1.106-.812m.112 5.854c-.896 0-1.484-.434-1.484-1.078 0-.462.294-.826.798-.994 1.05.336 1.989.588 1.989 1.246 0 .49-.532.826-1.303.826" enable-background="new" filter="url(#b)" opacity=".15" style="font-feature-settings:normal;font-variant-caps:normal;font-variant-ligatures:normal;font-variant-numeric:normal"/><path fill="#fff" d="M44.938 42.608c.98-.504 1.513-1.26 1.513-2.157 0-1.47-1.415-2.45-3.502-2.45-2.213 0-3.683 1.19-3.683 2.968 0 1.079.546 1.723 1.288 2.171-.994.42-1.554 1.177-1.554 2.13 0 1.637 1.54 2.73 3.85 2.73 2.353 0 3.922-1.204 3.922-3.025 0-1.274-.84-1.933-1.835-2.367zm-2.073-2.535c.658 0 1.093.322 1.093.826 0 .505-.364.91-.925 1.05-.728-.265-1.274-.545-1.274-1.064 0-.49.434-.812 1.106-.812m.112 5.854c-.896 0-1.484-.434-1.484-1.078 0-.462.294-.826.798-.994 1.05.336 1.989.588 1.989 1.246 0 .49-.532.826-1.303.826" enable-background="new" style="font-feature-settings:normal;font-variant-caps:normal;font-variant-ligatures:normal;font-variant-numeric:normal"/><path d="M25 43.908h-1.345V38H21.28l-4.62 5.908v2.146h4.506v1.945h2.49v-1.945H25zm-6.08-.029 2.246-2.932v2.947z" enable-background="new" filter="url(#c)" opacity=".15" style="font-feature-settings:normal;font-variant-caps:normal;font-variant-ligatures:normal;font-variant-numeric:normal"/><path fill="#fff" d="M25 43.908h-1.345V38H21.28l-4.62 5.908v2.146h4.506v1.945h2.49v-1.945H25zm-6.08-.029 2.246-2.932v2.947z" enable-background="new" style="font-feature-settings:normal;font-variant-caps:normal;font-variant-ligatures:normal;font-variant-numeric:normal"/><path d="M3.998 45.998v1c0 7.203 5.8 13.004 13.004 13.004h29.996c7.203 0 13.004-5.8 13.004-13.004v-1c0 7.203-5.8 13.002-13.004 13.002H17.002A12.975 12.975 0 0 1 3.998 45.998" opacity=".1"/><path fill="#fff" d="M3.998 18.004v-1C3.998 9.801 9.798 4 17.002 4h29.996c7.203 0 13.004 5.8 13.004 13.004v1c0-7.203-5.8-13.002-13.004-13.002H17.002A12.975 12.975 0 0 0 3.998 18.004" opacity=".5"/></svg>