<svg xmlns="http://www.w3.org/2000/svg" width="64" height="64"><defs><linearGradient id="d" x1="499.95" x2="499.95" y1="2.008" y2="1026" gradientTransform="translate(30 30)scale(.03125)" gradientUnits="userSpaceOnUse"><stop offset="0" stop-color="#4d4d4d"/><stop offset="1" stop-color="#1a1a1a"/></linearGradient><linearGradient id="b" x1="4" x2="8" y1="31.97" y2="31.97" gradientUnits="userSpaceOnUse"><stop offset="0" stop-color="#1e170b" stop-opacity=".45"/><stop offset=".486" stop-opacity=".15"/><stop offset="1" stop-opacity=".35"/></linearGradient><linearGradient id="a" x1="8.111" x2="8.111" y1="14.648" y2="2.624" gradientTransform="scale(3.7796)" gradientUnits="userSpaceOnUse"><stop offset="0" stop-color="#ff364e"/><stop offset="1" stop-color="#ff5d1d"/></linearGradient><linearGradient id="c" x1="8" x2="60" y1="31.97" y2="31.97" gradientTransform="translate(-120.35)" gradientUnits="userSpaceOnUse"><stop offset="0" stop-color="#fff"/><stop offset="1" stop-color="#fbe5e5"/></linearGradient></defs><rect width="56.002" height="56.002" x="3.999" y="3.969" fill="url(#a)" rx="13.002" ry="13.002"/><path fill="url(#b)" d="M8 7.586a12.95 12.95 0 0 0-4 9.385V46.97c0 3.7 1.537 7.021 4 9.384z" opacity=".5"/><path fill="url(#c)" d="M44.789 3.969c-.484.228-.91.533-1.256.933C25.494 19.702 20.743 21.526 8 24.488v6.342c3.395-.547 10.024-2.06 17.103-6.316C35.171 18.459 47.208 6.963 47.208 6.963c-3.134 5.903-4.198 26.663-4.353 53.007h4.144q.656-.001 1.305-.065.014 0 .027-.002l.084-.01a14 14 0 0 0 1.67-.292q.135-.032.27-.067A12.97 12.97 0 0 0 60 46.968c-4.385-10.336-5.022-22.479-.969-34.935a12.97 12.97 0 0 0-4.785-5.869 13 13 0 0 0-2.254-1.207 13 13 0 0 0-2.425-.734l-.059-.012a13 13 0 0 0-2.51-.242zM8 34.919v6.688c8.213 1.008 18.437 7.947 24.744 18.363h5.928C31.976 48.078 14.752 36.165 8 34.92z"/><path fill="#fff" d="M17.001 3.969A12.97 12.97 0 0 0 3.999 16.97v1.031A12.97 12.97 0 0 1 17.001 5H47a12.97 12.97 0 0 1 13.002 13.002v-1.031A12.97 12.97 0 0 0 47 3.969z" opacity=".25"/><path d="M17.001 60.001A12.97 12.97 0 0 1 3.999 46.999v-1.032A12.97 12.97 0 0 0 17.001 58.97H47a12.97 12.97 0 0 0 13.002-13.002V47A12.97 12.97 0 0 1 47 60.001z" opacity=".25"/><path fill="url(#d)" d="M60.833 39.873q-.291-.707-.658-1.385a14 14 0 0 0-.437-.759 16.7 16.7 0 0 0-2.425-3.044Q52.627 30 45.999 30t-11.312 4.686q-4.686 4.686-4.686 11.312c0 6.626 1.562 8.191 4.686 11.314q4.685 4.685 11.312 4.685 6.628 0 11.314-4.685 2.58-2.583 3.74-5.754.944-2.584.944-5.56 0-2.282-.556-4.337a21 21 0 0 0-.132-.46 16 16 0 0 0-.476-1.328" image-rendering="optimizeSpeed"/><path fill="#fff" d="M49.037 36.727c-.427.607-.517 1.057-.517 2.451 0 .944-.09 1.979-.225 2.316-.225.562-.247.585-2.069.517l-1.866-.067-.113-1.35c-.18-2.27-1.349-3.237-2.45-2.046-.405.428-.495.742-.45 1.822.067 1.371-.27 1.911-1.17 1.911-.54 0-1.934.832-2.091 1.26-.157.427.225 1.439.585 1.461.157.023.787.023 1.371-.022.697-.023 1.282.09 1.642.337.517.315.562.495.495 1.641l-.068 1.282-2.473.112c-3.261.158-4.16.63-3.688 2.002.135.382.27.72.27.72.022.022 1.349.112 2.968.18l2.923.134.18 1.89c.18 1.978.54 2.72 1.282 2.72.562 0 .674-.45.674-2.541 0-2.968.023-2.99 2.271-3.238 1.822-.18 2.002 0 2.002 2.181 0 1.417.09 1.844.472 2.339.607.764 1.012.742 1.44-.113.314-.607.336-.9.09-2.248-.36-2.024-.203-2.227 1.753-2.227 1.687 0 3.216-.63 3.216-1.349 0-.517-.72-.967-1.215-.764-.202.09-.922.067-1.574 0-1.664-.225-2.383-.877-2.383-2.227 0-1.371.382-2.383.967-2.518.27-.068 1.349-.203 2.383-.337 2.001-.225 2.496-.473 2.496-1.147 0-.405-.202-.427-2.586-.427-2.45 0-2.586-.023-2.923-.54-.292-.427-.315-.787-.135-2.024.36-2.563-.427-3.665-1.484-2.091m-.652 7.713c.18.45.18 2.878 0 3.328-.113.27-.472.36-1.642.36-1.911 0-2.293-.27-2.428-1.732-.113-1.034-.068-1.147.607-1.709.585-.517.922-.607 2.024-.607.99 0 1.326.09 1.439.36"/></svg>