<svg xmlns="http://www.w3.org/2000/svg" viewBox="0 0 64 64"><defs><linearGradient id="a" x1="45" x2="60.076" y1="19" y2="3.924" gradientTransform="matrix(.89283 0 0 -.89283 3.429 60.491)" gradientUnits="userSpaceOnUse"><stop offset="0" stop-color="#fff"/><stop offset="1" stop-color="#ffefcc"/></linearGradient></defs><rect width="56.002" height="56.002" x="4" y="3.969" fill="#4d4d4d" rx="13.002" ry="13.002"/><circle cx="32.02" cy="32.044" r="30.001" fill="none"/><path fill="#f2f2f2" d="M17 56.947c-5.54 0-10-4.46-10-10v-30A9.976 9.976 0 0 1 15.969 7c.58.02 1.133.037 1.449.006h.002q.586-.06 1.19-.059H47c5.54 0 10 4.46 10 10v17.652c0 5.357-16.965 22.348-22.322 22.348H18.61z"/><path fill="#5e5c64" d="M24.886 42.11h-4.828l-.762 2.073h-3.103l4.435-11.378h3.68l4.436 11.378H25.64zM20.828 40h3.28l-1.636-4.528z" aria-label="A"/><path fill="#5e5c64" d="M42.675 28.568h2.538v-1.005h1.041v2.485h-5.57v-1.552q1.185-.257 1.793-1.48t.608-3.362q0-2.373-.76-3.611-.76-1.247-2.219-1.247t-2.219 1.247q-.752 1.238-.752 3.627 0 2.1.616 3.338.615 1.23 1.785 1.488v1.552H33.96v-2.485h1.033v1.005h2.546q-1.801-.74-2.728-2.027-.927-1.294-.927-3.064 0-2.542 1.702-4.094 1.71-1.56 4.521-1.56t4.522 1.56q1.71 1.552 1.71 4.094 0 1.77-.928 3.064-.927 1.287-2.735 2.027z" aria-label="𝛀"/><path fill="#33d17a" d="m27.408 22.672.633 1.934 4.412-4.86-6.413-2.036.375 1.79c-6.327 3.187-6.987 5.978-7.858 8.784l3.417.605c.806-3.408 2.933-5.148 5.434-6.217m7.675 16.11-.633-1.934-4.412 4.861 6.412 2.035-.374-1.79c6.326-3.187 6.986-5.978 7.857-8.784l-3.416-.605c-.806 3.408-2.934 5.148-5.434 6.218z"/><path fill="url(#a)" d="M34.678 56.92c3.571-.893 4.464-6.25 5.357-9.821.866-3.465 2.838-5.843 8.036-7.143 3.57-.893 7.142-.572 8.928-5.357 0 .021-.004.043-.004.065-.097 6.246-14.825 21.194-21.614 22.225a10 10 0 0 1-.702.031z"/><path d="M3.998 45.998v1c0 7.203 5.8 13.004 13.004 13.004h29.996c7.203 0 13.004-5.8 13.004-13.004v-1c0 7.203-5.8 13.002-13.004 13.002H17.002A12.975 12.975 0 0 1 3.998 45.998" opacity=".5"/><path fill="#fff" d="M3.998 18.004v-1C3.998 9.801 9.798 4 17.002 4h29.996c7.203 0 13.004 5.8 13.004 13.004v1c0-7.203-5.8-13.002-13.004-13.002H17.002A12.975 12.975 0 0 0 3.998 18.004" opacity=".15"/></svg>