<svg xmlns="http://www.w3.org/2000/svg" viewBox="0 0 64 64"><rect width="56.002" height="56.002" x="4" y="3.969" fill="#e4e4e4" rx="13.002" ry="13.002"/><path d="M3.998 45.998v1c0 7.203 5.8 13.004 13.004 13.004h29.996c7.203 0 13.004-5.8 13.004-13.004v-1c0 7.203-5.8 13.002-13.004 13.002H17.002A12.975 12.975 0 0 1 3.998 45.998" opacity=".12"/><path fill="#fff" d="M3.998 18.004v-1C3.998 9.801 9.798 4 17.002 4h29.996c7.203 0 13.004 5.8 13.004 13.004v1c0-7.203-5.8-13.002-13.004-13.002H17.002A12.975 12.975 0 0 0 3.998 18.004" opacity=".2"/><path fill="#8bc0ff" d="M10 6.016c-.718.459-1.388.983-2 1.57V37H4v2h4v17.352a13 13 0 0 0 2 1.572V39h50v-2H10z"/><path fill="#414141" d="M4 16.49v5.47c.34 1.42.7 3.03 1.04 4.78.8 4.16 1.61 8.96 2.43 12.92.81 3.97 1.62 6.24 2.48 8.29.43 1.02.85 1.8 1.46 2.36.31.28.7.51 1.16.56.47.05.94-.11 1.3-.36.65-.47 1.07-1.14 1.51-1.96.43-.81.85-1.77 1.26-2.8.82-2.05 1.63-3.58 2.41-5.34.79-1.78 1.58-3.64 2.29-4.5.35-.43.68-.71.91-.83s.32-.13.47-.08c.36.1 1.15.77 1.92 1.72.78.95 1.59 2.3 2.47 3.23.83.87 1.68 1.67 2.61 2.26.92.59 1.96.98 3.07.86 2.14-.23 3.76-1.83 5.17-2.51 1.55-.75 3.02-1.04 4.37-.98.522-.007.818.128 2.19.428a1 1 0 0 0 1.19-.75.997.997 0 0 0-.75-1.19c-1.264-.347-1.835-.454-2.54-.478-1.87-.07-3.63.37-5.31 1.18-1.82.88-3.43 2.21-4.52 2.33-.51.06-1.08-.12-1.78-.56-.69-.44-1.46-1.14-2.24-1.96-.73-.76-1.53-2.08-2.37-3.11s-1.67-2.02-2.92-2.38c-.66-.19-1.38-.06-1.96.25s-1.06.77-1.51 1.34c-.91 1.13-1.73 3.09-2.56 4.95-.83 1.88-1.64 3.42-2.44 5.41-.4.99-.79 1.9-1.16 2.6-.36.67-.71 1.09-.87 1.22-.24-.19-.62-.77-1-1.67-.75-1.79-1.57-4.02-2.37-7.92-.8-3.91-1.61-8.71-2.42-12.9-.81-4.2-1.52-7.67-2.53-9.48a.95.95 0 0 0-.46-.4"/><path fill="#ff881e" d="m44.492 34.626 3.921 2.208 12.321-19.5-3.921-2.208z"/><path fill="#e66100" d="m47.427 36.298 1.479.825 12.321-19.5-1.479-.826z"/><path fill="#ffb367" d="m45.477 35.204-1.478-.846 12.321-19.48 1.478.826z"/><path fill="#dc5051" d="M59.116 13.001c-.964 0-1.903.474-2.432 1.314l-1.17 1.849 4.912 2.757 1.169-1.849c.808-1.279.363-2.93-.994-3.692a3.04 3.04 0 0 0-1.485-.379"/><path fill="#e8ddc7" d="m44.406 39.001 4.521-1.899-4.907-2.765z"/><path fill="#3d3846" d="m44.406 39.001 1.971-.826-2.142-1.196z"/><path fill="#b7b7b7" d="m54.927 17.086 4.907 2.765 1.179-1.857-4.907-2.765z"/></svg>