<svg xmlns="http://www.w3.org/2000/svg" width="64" height="64" viewBox="0 0 64 64"><defs><linearGradient id="a" x1=".609" x2=".385" y1=".097" y2=".903"><stop offset="0%" style="stop-color:#98e357"/><stop offset="100%" style="stop-color:#26a269"/></linearGradient></defs><path d="M16 4h32c6.623 0 12 5.377 12 12v32c0 6.623-5.377 12-12 12H16C9.377 60 4 54.623 4 48V16C4 9.377 9.377 4 16 4" style="stroke:none;fill:url(#a);stroke-miterlimit:10"/><path fill="#fff" d="M44.352 50.111a2.575 2.575 0 0 1-3.168 1.795l-27.295-7.554a2.575 2.575 0 0 1-1.795-3.168l3.489-12.608 11.48 3.177-.633 2.287a1.287 1.287 0 0 0 .898 1.584l6.591 1.825a1.29 1.29 0 0 0 1.584-.898l.633-2.287 11.705 3.239zm5.759-30.463a2.575 2.575 0 0 1 1.795 3.168l-3.507 12.671-11.705-3.239.633-2.288a1.287 1.287 0 0 0-.897-1.584l-6.591-1.824a1.29 1.29 0 0 0-1.585.897l-.633 2.288-11.48-3.177 3.507-12.672a2.575 2.575 0 0 1 3.168-1.794z" opacity=".9"/></svg>