<svg xmlns="http://www.w3.org/2000/svg" width="64" height="64" enable-background="new 0 0 1024 1024" image-rendering="optimizeSpeed"><defs><linearGradient id="a" x1="357.8" x2="357.8" y1="546.73" y2="523.48" gradientTransform="translate(-736.33 -1114)scale(2.1429)" gradientUnits="userSpaceOnUse"><stop offset="0" stop-color="#197ff1"/><stop offset="1" stop-color="#21c6fb"/></linearGradient><filter id="b" width="1.17" height="1.295" x="-.085" y="-.148" color-interpolation-filters="sRGB"><feGaussianBlur stdDeviation="1.637"/></filter></defs><rect width="56.002" height="56.002" x="4" y="3.969" fill="url(#a)" rx="13.002" ry="13.002"/><path d="M39.369 19.485c-.345-.03-.632.098-.717.098-1.654.259-1.044 2.79-.344 5.172.054.608-.576.338-.949-.303-1.272-3.412-1.806-3.351-2.156-3.453-.34-.076-1.536.652-1.516 2.03.006.394.475 2.27.475 2.847-.78.684-.82 2.237-1.639 2.802-2.386.496-8.12-1.18-8.836-1.256-2.478-.463-3.562 1.397-3.96.95-3.217-3.686-8.134-6.422-10.262-6.897-.792-.17-3.351-1.298-4.446-1.937-.102.204-.206.407-.302.613 1.845.992 5.533 2.867 7.47 4.082 2.683 1.643 6.31 4.996 6.596 5.56-2.79 4.86-1.526 9.16-1.856 9.618-.237.382-2.428 2.792-1.722 3.148.7.35 1.814-.201 1.982-.309.35-.215.712-.527.56.092-.296 1.267-1.643 4.311.216 3.664.226-.13 3.216-3.428 3.578-3.54 5.95 1.551 12.604.84 13.836.263.641.043 2.457 1.186 3.492 1.73 1.034.54 3.852 1.89 3.017-.566-.259-.777-2.11-2.759-1.81-2.889.662-.263 2.301.686 2.932.864 1.885.528 2.14-.206.949-1.817-1.176-1.61-1.352-1.362-1.725-2.105-.29-.599 0-1.263.215-1.424.382-.291 6.014-3.415 7.334-4.611 1.956-1.778 0-3.998-.48-4.31-4.058-2.921-8.224-2.297-8.278-2.76-.027-.529-.015-2.054-.086-2.583-.252-2.236-.993-2.722-1.568-2.773m9.201 2.938c-.776.834-.642 3.953-.48 3.927.792-.161.717-4.179.48-3.928zm2.207.462c-.298.11-2.071 2.693-1.732 3.682.161.458 2.046-2.867 1.771-3.67q-.008-.023-.039-.012m-10.525 4.887q.023.017.047.043c.237.786.5 1.536 2.063 1.725.183.022-.867.636-1.588.26-.658-.4-.718-1.848-.567-2.026q.022-.019.045-.002m4.014 3.961c.141-.02.245-.016.346 0 .382.097-2.774 1.742-3.02 1.516-.15-.145 1.682-1.333 2.674-1.516m.82 1.041c.329.028-1.827 2.257-2.07 2.025-.178-.161 1.397-2.079 2.07-2.025" filter="url(#b)" opacity=".15"/><path fill="#f9f9f9" d="M39.369 18.65c-.345-.03-.632.098-.717.098-1.654.259-1.044 2.79-.344 5.172.054.608-.576.338-.949-.303-1.272-3.412-1.806-3.351-2.156-3.453-.34-.076-1.536.652-1.516 2.03.006.394.475 2.27.475 2.847-.78.684-.82 2.237-1.639 2.802-2.386.496-8.12-1.18-8.836-1.256-2.478-.463-3.562 1.397-3.96.95-3.217-3.686-8.134-6.422-10.262-6.897-.792-.17-3.351-1.298-4.446-1.937-.102.204-.206.407-.302.613 1.845.992 5.533 2.867 7.47 4.082 2.683 1.643 6.31 4.996 6.596 5.56-2.79 4.86-1.526 9.16-1.856 9.618-.237.382-2.428 2.792-1.722 3.148.7.35 1.814-.201 1.982-.309.35-.215.712-.527.56.092-.296 1.267-1.643 4.311.216 3.664.226-.13 3.216-3.428 3.578-3.54 5.95 1.551 12.604.84 13.836.263.641.043 2.457 1.186 3.492 1.73 1.034.54 3.852 1.89 3.017-.566-.259-.777-2.11-2.759-1.81-2.889.662-.263 2.301.686 2.932.864 1.885.528 2.14-.206.949-1.817-1.176-1.61-1.352-1.362-1.725-2.105-.29-.599 0-1.263.215-1.424.382-.291 6.014-3.415 7.334-4.611 1.956-1.778 0-3.998-.48-4.31-4.058-2.921-8.224-2.297-8.278-2.76-.027-.529-.015-2.054-.086-2.583-.252-2.236-.993-2.722-1.568-2.773m9.201 2.938c-.776.834-.642 3.953-.48 3.927.792-.161.717-4.179.48-3.928zm2.207.462c-.298.11-2.071 2.693-1.732 3.682.161.458 2.046-2.867 1.771-3.67q-.008-.023-.039-.012m-10.525 4.887c.016.01.031.027.047.043.237.786.5 1.536 2.063 1.725.183.022-.867.636-1.588.26-.658-.4-.718-1.848-.567-2.026.014-.014.03-.012.045-.002m4.014 3.961c.141-.02.245-.016.346 0 .382.097-2.774 1.742-3.02 1.516-.15-.145 1.682-1.333 2.674-1.516m.82 1.041c.329.028-1.827 2.257-2.07 2.025-.178-.161 1.397-2.079 2.07-2.025"/></svg>