<svg xmlns="http://www.w3.org/2000/svg" viewBox="0 0 64 64"><rect width="56.002" height="56.002" x="4" y="3.969" fill="#f2f2f2" rx="13.002" ry="13.002"/><path d="M3.998 45.998v1c0 7.203 5.8 13.004 13.004 13.004h29.996c7.203 0 13.004-5.8 13.004-13.004v-1c0 7.203-5.8 13.002-13.004 13.002H17.002A12.975 12.975 0 0 1 3.998 45.998" opacity=".1"/><path fill="#fff" d="M3.998 18.004v-1C3.998 9.801 9.798 4 17.002 4h29.996c7.203 0 13.004 5.8 13.004 13.004v1c0-7.203-5.8-13.002-13.004-13.002H17.002A12.975 12.975 0 0 0 3.998 18.004" opacity=".5"/><path fill="#99cafa" d="M24.511 11.987v26h16v-26z"/><path fill="#1c98f5" fill-rule="evenodd" d="M34 22a1.5 1.5 0 1 0 .001 3.001A1.5 1.5 0 0 0 34 22m17.5 9a1 1 0 1 0 0 2 1 1 0 0 0 0-2M16 25a1.5 1.5 0 1 0 .001 3.001A1.5 1.5 0 0 0 16 25m11.775 1.1a.7.7 0 0 0-.195.055c-.506.222-.677.944-.012 2.461.666 1.517 1.615 2.568 2.121 2.346s.376-1.631-.289-3.148c-.582-1.328-1.153-1.771-1.625-1.713m-5.988.635c-.395-.034-.937.359-.445.918.655.746 1 2.074.416 2.34-.587.266-.544-.99-.596-1.658s-1.677-1.07-2.277-.242.004 1.72.598 1.9c.594.181.686.861 1.039 1.568.354.707 2.076.53 2.496 0s.681-1.515-.137-2.424-.57-1.753-.791-2.217c-.055-.116-.171-.174-.303-.186m19.494.078c-.531-.125-.75.875-.875 1.813s-.594 1.906-.188 2.094c.563.25.85-1.288 1.486-1.863.636-.576.107-1.918-.424-2.043m-16.781.188a1 1 0 1 0 0 2 1 1 0 0 0 0-2m12.152.236c-.65.048-1.297 1.157-1.615 1.926-.364.878.076 2.59-.781 3.232s-1.484.661-1.912.404.367-.224-.111-1.203c-.479-.979-1.624-.673-1.924.09s.322.728.107 1.178c-.214.45-2.036.936-2.443-.414s-1.853-2.819-2.303-2.455.054 1.706 1.232 2.777-.302 1.648-1.326.842c-1.024-.807-2.228.613-3.16 1.563-.933.949-1.766 1.014-2.43.445-.663-.568-.08-2.114-.846-3.668-.765-1.554-2.286-.78-2.5.27s1.92 1.757 1.506 2.34-2.069.451-2.557-.648c-.487-1.099-1.549-.743-1.57.156-.021.9.822.272 1.48.93l17 17 17-17c2-2-.29-1.143-.762-.693-.471.45-1.928.815-2.1.322-.171-.493 1.632-1.32 2.146-1.877s1.017-2.139.186-2.719-2.01.467-2.521 1.238c-.514.771-.068 2.736-.754 3.336s-1.063.235-1.191-.279 1.48-1.237.805-2.516c-.676-1.279-1.924-.699-2.502-.1-.578.6.348 1.524.563 2.467s-1.979.919-2.836.576-1.136-2.498-1.5-2.627-1.292.714-2.471.35c-1.178-.364-.2-1.09.164-1.947s.939-2.922.203-3.246a.6.6 0 0 0-.277-.049m10.348-1.236A1.5 1.5 0 1 0 47 29.004a1.5 1.5 0 0 0-.001-3.001m-34.5 4a1 1 0 1 0 0 2 1 1 0 0 0 0-2"/></svg>