<svg xmlns="http://www.w3.org/2000/svg" viewBox="0 0 64 64"><rect width="56" height="56" x="4" y="4" fill="#4d4d4d" rx="13.002" ry="13.002"/><path fill="#fce900" d="M32 17.422c-3.808 0-6.928 2.349-7.227 5.334-2.77-1.249-5.178-1.83-6.904-1.951l.008-.004c-2.256-.16-3.726.385-4.383 1.502-.663 1.121-.441 2.617.822 4.453 1.26 1.83 3.835 4.244 7.705 6.432.058.032.112.056.168.086-1.719.788-3.148 1.603-4.17 2.38-2.006 1.525-2.778 3.022-2.058 4.217s2.773 1.852 5.781 1.983c1.218.053 2.693-.042 4.26-.21A7.253 10.879 0 0 0 32 46.433a7.253 10.879 0 0 0 6.006-4.787c1.563.166 3.036.262 4.252.209 3.008-.13 5.062-.788 5.781-1.983.72-1.195-.052-2.69-2.059-4.215-1.02-.777-2.45-1.594-4.17-2.382.057-.03.11-.054.169-.086 3.87-2.188 6.446-4.601 7.705-6.432 1.263-1.836 1.485-3.332.822-4.453-.657-1.117-2.127-1.662-4.383-1.502l.008.004c-1.726.121-4.134.704-6.904 1.953-.298-2.986-3.418-5.336-7.227-5.336zm-4.352 2.9c.801 0 1.452.975 1.452 2.176s-.65 2.176-1.452 2.176-1.45-.974-1.45-2.176.65-2.176 1.45-2.176m8.703 0c.802 0 1.452.975 1.452 2.176s-.65 2.176-1.451 2.176c-.802 0-1.452-.974-1.452-2.176s.65-2.176 1.452-2.176zM19.468 23.08q.338 0 .699.03c1.414.113 3.055.566 4.74 1.312.314 1.182 1.084 2.267 2.22 3.092a7.253 10.879 0 0 0-1.974 4.549q-.88.314-1.687.642a54 54 0 0 0-.727-.418c-4.595-2.606-7.875-5.703-6.617-7.834.55-.936 1.764-1.379 3.345-1.373zm25.066 0c1.581-.006 2.794.437 3.345 1.373 1.258 2.131-2.022 5.228-6.617 7.834a54 54 0 0 0-.727.418q-.806-.33-1.685-.642a7.253 10.879 0 0 0-1.977-4.553c1.136-.824 1.907-1.908 2.221-3.088 1.685-.746 3.326-1.197 4.74-1.31q.36-.03.7-.032M32.16 27.576a5.965 8.703 0 0 1 5.399 5.02c-1.536-1.156-3.578-2.12-5.56-2.12-1.792 0-3.692.92-5.159 1.893a5.965 8.703 0 0 1 5.32-4.793m-7.171 5.268a7.253 10.879 0 0 0-.243 2.709 7.253 10.879 0 0 0 .95 5.328c-3.51.135-6.24-.448-7.053-1.793-1.086-1.807 1.687-4.35 6.346-6.244m14.02 0c4.659 1.894 7.43 4.44 6.344 6.246-.812 1.342-3.532 1.923-7.033 1.791a7.253 10.879 0 0 0 .93-5.328 7.253 10.879 0 0 0-.24-2.71zM32 33.377c2.417 0 4.564.871 6.086 1.938a5.965 8.703 0 0 1 .04.964 5.965 8.703 0 0 1-.05 1.051c-1.656-1.427-3.867-2.502-6.076-2.502-1.968 0-4.154 1.038-5.768 2.297a5.965 8.703 0 0 1-.035-.846 5.965 8.703 0 0 1 .066-1.199c1.486-.955 3.477-1.703 5.737-1.703m0 4.352c2.103 0 4.777 1.04 5.558 2.238a5.965 8.703 0 0 1-.453 1.182c-1.068-1-3.474-1.962-5.105-1.97-1.452-.005-3.719.75-4.89 1.712a5.965 8.703 0 0 1-.434-1.225c.995-1.066 3.4-1.937 5.324-1.937m0 4.351c1.598 0 2.568.511 3.754 1.137a5.965 8.703 0 0 1-3.592 1.766A5.965 8.703 0 0 1 28.47 43.1c1.088-.572 2.03-1.02 3.529-1.02z"/><path d="M3.999 45.998V47A12.975 12.975 0 0 0 17 60.002h30A12.975 12.975 0 0 0 60.002 47v-1.002A12.975 12.975 0 0 1 47 59H17A12.975 12.975 0 0 1 4 45.998z" opacity=".25"/><path fill="#fff" d="M3.999 18.002v-.994A12.975 12.975 0 0 1 17 4.006h30a12.975 12.975 0 0 1 13.002 13.002v1.002A12.975 12.975 0 0 0 47 5.008H17A12.975 12.975 0 0 0 4 18.01z" opacity=".15"/></svg>