<svg xmlns="http://www.w3.org/2000/svg" viewBox="0 0 64 64"><rect width="56" height="56" x="4" y="4" fill="#f2f2f2" rx="13.002" ry="13.002"/><path fill="#ff3e59" d="M49.114 13.4a2.08 2.08 0 0 0-1.637.913c-.385.568-9.45 13.938-10.616 15.95-.584 1.006-1.242 2.64-1.79 4.133l4.712 2.761c1.025-1.217 2.12-2.606 2.712-3.627 1.181-2.035 8.271-16.52 8.572-17.136a2.08 2.08 0 0 0-1.953-2.994m-34.02 15.924a.18.18 0 0 0-.128.033c-1.415 1.025-2.351 2.888-2.277 4.53.039.875.375 2.09 1.757 2.913.744.443 1.948.535 3.111.625 1.145.089 2.329.182 2.694.627a.55.55 0 0 1 .111.436c-.08.814-.475 1.615-.857 2.39-.722 1.464-1.467 2.977-.178 4.656 1.132 1.475 2.635 1.476 4.18 1.465l.38-.002c.674 0 1.45.02 2.156.266.503.194.755.597.873 1.396.09.49.31.876.598 1.166.042-.225.141-.44.295-.621.758-.895.61-1.733.23-3.39-.176-.771-.37-1.626-.42-2.557a4.6 4.6 0 0 0-1.195-.238 4 4 0 0 0-.213-.006c-.6 0-1.353.132-2.082.26-.65.113-1.263.218-1.69.218-.302 0-.407-.053-.44-.082-.364-.457.163-1.697.388-2.228a6 6 0 0 0 .13-.32c.364-1.075.632-2.218.126-3.303-.42-.902-1.402-1.62-2.494-1.828a5 5 0 0 0-1.148-.11c-.384 0-.795.024-1.191.047-.408.025-.828.051-1.23.051-1.387 0-2.186-.318-2.669-1.056-.896-1.423.18-3.97 1.285-5.031a.18.18 0 0 0-.101-.307zm19.418 6.101a5 5 0 0 0-.772.157c-1.23.353-3.007 1.364-4.497 4.183-1.184 2.238-.747 4.153-.362 5.844.368 1.615.659 2.893-.424 4.17a.446.446 0 0 0 .118.677q.077.045.17.057c2.737.343 6.833-1.272 9.36-5.63 1.148-1.978 1.641-3.88 1.426-5.5a5 5 0 0 0-.308-1.196z"/><path d="M3.998 45.998v1c0 7.203 5.8 13.004 13.004 13.004h29.996c7.203 0 13.004-5.8 13.004-13.004v-1c0 7.203-5.8 13.002-13.004 13.002H17.002A12.975 12.975 0 0 1 3.998 45.998" opacity=".1"/><path fill="#fff" d="M3.998 18.004v-1C3.998 9.801 9.798 4 17.002 4h29.996c7.203 0 13.004 5.8 13.004 13.004v1c0-7.203-5.8-13.002-13.004-13.002H17.002A12.975 12.975 0 0 0 3.998 18.004" opacity=".5"/></svg>