<svg xmlns="http://www.w3.org/2000/svg" viewBox="0 0 64 64"><rect width="64" height="64" fill="none" rx="0" ry="0" style="paint-order:stroke fill markers"/><rect width="56.002" height="56.002" x="4" y="3.969" fill="#f2f2f2" rx="13.002" ry="13.002"/><path fill="#fb4f5b" d="M17.546 16h10.911c.852 0 1.542.783 1.542 1.744v10.517c0 .964-.688 1.74-1.542 1.74H17.546C16.699 30 16 29.222 16 28.26V17.744c0-.963.694-1.744 1.546-1.744"/><path fill="#0ceb60" d="M35.546 16h10.911c.852 0 1.542.783 1.542 1.744v10.517c0 .964-.688 1.74-1.542 1.74H35.546C34.699 30 34 29.222 34 28.26V17.744c0-.963.694-1.744 1.546-1.744"/><path fill="#ffd517" d="M17.546 34h10.911c.852 0 1.542.783 1.542 1.744v10.517c0 .958-.688 1.74-1.542 1.74H17.546C16.699 48 16 47.217 16 46.26V35.744c0-.963.694-1.744 1.546-1.744"/><path fill="#239adf" d="M35.546 34h10.911c.852 0 1.542.783 1.542 1.744v10.517c0 .958-.688 1.74-1.542 1.74H35.546C34.699 48 34 47.217 34 46.26V35.744c0-.963.694-1.744 1.546-1.744"/><path d="M3.998 45.998v1c0 7.203 5.8 13.004 13.004 13.004h29.996c7.203 0 13.004-5.8 13.004-13.004v-1c0 7.203-5.8 13.002-13.004 13.002H17.002A12.975 12.975 0 0 1 3.998 45.998" opacity=".1"/><path fill="#fff" d="M3.998 18.004v-1C3.998 9.801 9.798 4 17.002 4h29.996c7.203 0 13.004 5.8 13.004 13.004v1c0-7.203-5.8-13.002-13.004-13.002H17.002A12.975 12.975 0 0 0 3.998 18.004" opacity=".5"/></svg>