<svg xmlns="http://www.w3.org/2000/svg" viewBox="0 0 16.933 16.933"><rect width="14.817" height="14.817" x="1.058" y="1.05" fill="#f2f2f2" rx="3.44" ry="3.44"/><path d="M1.058 12.17v.265a3.433 3.433 0 0 0 3.44 3.44h7.937a3.433 3.433 0 0 0 3.44-3.44v-.265a3.433 3.433 0 0 1-3.44 3.44H4.498a3.433 3.433 0 0 1-3.44-3.44" opacity=".1"/><path fill="#fff" d="M1.058 4.764v-.265a3.433 3.433 0 0 1 3.44-3.44h7.937a3.433 3.433 0 0 1 3.44 3.44v.265a3.433 3.433 0 0 0-3.44-3.44H4.498a3.433 3.433 0 0 0-3.44 3.44" opacity=".5"/><path fill="#3e90ea" d="M8.295 3.294a5.2 5.2 0 0 0-3.499 1.515 5.19 5.19 0 0 0-.423 6.848l1.09-1.09a3.664 3.664 0 0 1 .414-4.678 3.66 3.66 0 0 1 3.81-.859v1.311l1.959-1.958a5.2 5.2 0 0 0-3.35-1.09z" style="paint-order:stroke markers fill"/><path fill="#67e6f4" d="m12.561 5.301-1.09 1.09a3.664 3.664 0 0 1-.415 4.679 3.66 3.66 0 0 1-3.811.858v-1.312L5.95 11.912l-.663.662a5.19 5.19 0 0 0 6.85-.424 5.19 5.19 0 0 0 .423-6.85z" style="paint-order:stroke markers fill"/><circle cx="13.229" cy="13.229" r="3.439" fill="#7763c4" style="paint-order:stroke fill markers"/><path fill="#fff" d="M12.583 13.513c0 .609.011.821-.38.821-.39 0-.7.127-.7.483s.368.528.597.528.684-.16.684-.643v-2.183l1.953-.453v1.671s.023.201-.235.201c-.259 0-.828-.074-.828.471 0 .546.552.511.638.511a.694.694 0 0 0 .643-.74v-3.068l-2.383.46z"/></svg>