<svg xmlns="http://www.w3.org/2000/svg" viewBox="0 0 16.933 16.933"><rect width="14.817" height="14.817" x="1.058" y="1.05" fill="#65f797" rx="3.44" ry="3.44"/><path fill="#fff" d="M12.7 4.93s-.706 1.062-1.764 1.062c-.987-.19-1.378-.03-1.411 0v4.272c-.047.9-.785 1.802-1.883 2.217-1.393.527-2.866.07-3.292-1.026-.427-1.093.353-2.419 1.747-2.946 1.08-.406 2.07-.305 2.722.306V4.578c1.411-.94 2.723.338 3.881.353"/><path d="M1.058 12.17v.265a3.433 3.433 0 0 0 3.44 3.44h7.937a3.433 3.433 0 0 0 3.44-3.44v-.265a3.433 3.433 0 0 1-3.44 3.44H4.498a3.433 3.433 0 0 1-3.44-3.44" opacity=".15"/><path fill="#fff" d="M1.058 4.763V4.5a3.433 3.433 0 0 1 3.44-3.44h7.937a3.433 3.433 0 0 1 3.44 3.44v.265a3.433 3.433 0 0 0-3.44-3.44H4.498a3.433 3.433 0 0 0-3.44 3.44z" opacity=".15"/></svg>