<svg xmlns="http://www.w3.org/2000/svg" viewBox="0 0 64 64"><rect width="56.002" height="56.002" x="4" y="3.969" fill="#a9b5b9" rx="13.002" ry="13.002"/><rect width="51.996" height="51.939" x="6.002" y="6" fill="#030000" rx="11" ry="11"/><rect width="46.002" height="46.002" x="9" y="9" fill="#1a211f" rx="8" ry="8"/><path fill="#a1fbe6" d="M18.203 9v3.063h-6.522v-1.038c-.1.09-.204.179-.3.274v.764h-.676q-.115.146-.223.298h.899v6.524H9v.3h2.38v6.522H9v.301h2.38v6.524H9v.299h2.38v6.523H9v.301h2.38v6.524H9v.298h2.38v6.225c.097.095.2.183.301.273v-6.497h6.522V53h-6.492q.175.157.36.301h6.132v1.7h.3v-1.7h6.524v1.7h.3v-1.7h6.523v1.7h.3v-1.7h6.524v1.7h.299v-1.7h6.524v1.7h.3v-1.7h6.133a8 8 0 0 0 .36-.3h-6.493v-6.524h6.522v6.497c.101-.09.204-.178.3-.273v-6.225h2.382v-.298H52.62v-6.524H55v-.3h-2.38V32.83H55v-.3h-2.38v-6.523H55v-.3h-2.38v-6.522H55v-.301h-2.38V12.36h.898a8 8 0 0 0-.222-.298h-.676v-.764q-.148-.14-.301-.274v1.037h-6.522V9h-.3v3.062h-6.524V9h-.299v3.062h-6.523V9h-.301v3.062h-6.524V9h-.299v3.062h-6.523V9zm-6.522 3.361h6.522v6.524h-6.522zm6.823 0h6.523v6.524h-6.524zm6.822 0h6.523v6.524h-6.523zm6.824 0h6.523v6.524H32.15zm6.822 0h6.524v6.524h-6.524zm6.824 0h6.522v6.524h-6.522zm-34.115 6.824h6.522v6.522H11.68zm6.822 0h6.524v6.522h-6.524zm6.822 0h6.524v6.522h-6.524zm6.825 0h6.523v6.522H32.15zm6.822 0h6.523v6.522h-6.523zm6.824 0h6.522v6.522h-6.522zM11.68 26.008h6.522v6.523H11.68zm6.822 0h6.524v6.523h-6.524zm6.822 0h6.524v6.523h-6.524zm6.824 0h6.524v6.523h-6.524zm6.823 0h6.523v6.523h-6.523zm6.824 0h6.521v6.523h-6.521zM11.68 32.83h6.521v6.523H11.68zm6.822 0h6.524v6.523h-6.524zm6.822 0h6.524v6.523h-6.524zm6.824 0h6.524v6.523h-6.524zm6.822 0h6.524v6.523H38.97zm6.825 0h6.521v6.523h-6.521zM11.68 39.654h6.521v6.523H11.68zm6.822 0h6.523v6.523h-6.523zm6.822 0h6.524v6.523h-6.524zm6.824 0h6.524v6.523h-6.524zm6.822 0h6.524v6.523H38.97zm6.824 0h6.522v6.523h-6.522zm-27.293 6.822h6.524V53h-6.524zm6.823 0h6.523V53h-6.523zm6.824 0h6.523V53H32.15zm6.822 0h6.523V53H38.97z" opacity=".35"/><path fill="#c1fdee" d="M27.086 19.205c-.101.016-.182.164-.29.48-.207.612-.256 1.493-.528 9.71-.144 4.336-.457 8.222-.727 9.017-.35 1.03-.933.708-2.396-1.322-.754-1.045-1.606-2.109-1.895-2.363-.498-.439-.553-.441-1.059-.07-.293.215-.675.777-.85 1.25-.448 1.22-1.064 1.88-1.919 2.06-.408.086-2.51.02-4.672-.147L9 37.533l.002.705 1.965.19c1.178.115 3.275.21 4.66.21 2.936 0 3.438-.231 4.09-1.882.222-.563.497-1.088.61-1.166.432-.3 1.032.198 2.263 1.877.702.957 1.508 1.911 1.79 2.119.69.506 1.342.244 1.685-.678.349-.938.696-4.858.841-9.513.126-4.023.233-4.962.516-4.45.163.297.325 1.955.523 5.385.041.708.226 3.183.41 5.5.62 7.778.842 9.165 1.434 8.945.312-.115.724-2.042.75-3.511.011-.616.156-1.486.322-1.932.344-.922.512-.956 2.543-.537 1.845.38 2.236.141 3.028-1.853 1.063-2.68 1.104-2.745 1.718-2.825.48-.062.765.159 1.663 1.287 3.296 4.144 3.67 4.309 5.458 2.415.608-.644 1.196-1.17 1.307-1.17s.697.473 1.303 1.052c.823.75 1.488 1.057 2.406 1.164a.483.483 0 0 0 0-.966c-.876.341-1.704-.473-2.152-.899-1.483-1.417-1.974-1.4-3.221.115-1.41 1.714-1.477 1.69-4.11-1.6-2.704-3.378-3.33-3.335-4.595.315-.268.772-.707 1.66-.975 1.977-.471.555-.526.565-1.705.293-1.784-.413-2.472-.359-2.96.228-.234.28-.48.701-.546.936-.153.54-.447.55-.592.018-.167-.617-.52-4.13-.64-6.377-.152-2.851-.921-11.934-1.074-12.688-.072-.35-.259-.758-.416-.905q-.127-.12-.215-.107"/><g stroke-width="3"><path fill-rule="evenodd" d="M32 10.25c-3.324 0-6 2.676-6 6v15c0 .04.01.076.012.117A12 12 0 0 0 20 41.75a12 12 0 0 0 12 12 12 12 0 0 0 12-12 12 12 0 0 0-6.012-10.39c0-.038.012-.074.012-.11v-15c0-3.324-2.676-6-6-6m0 3c1.662 0 3 1.338 3 3v17.028a9 9 0 0 1 6 8.472 9 9 0 0 1-9 9 9 9 0 0 1-9-9 9 9 0 0 1 6-8.475V16.25c0-1.662 1.338-3 3-3"/><path fill="#c2fd9b" d="M29 25.25v8.024a9 9 0 0 0-6 8.475 9 9 0 0 0 18 0 9 9 0 0 0-6-8.472v-8.028z"/></g><path d="M3.999 45.998V47A12.975 12.975 0 0 0 17 60.002h30A12.975 12.975 0 0 0 60.002 47v-1.002A12.975 12.975 0 0 1 47 59H17A12.975 12.975 0 0 1 4 45.998z" opacity=".15"/><path fill="#fff" d="M3.999 18.002v-.994A12.975 12.975 0 0 1 17 4.006h30a12.975 12.975 0 0 1 13.002 13.002v1.002A12.975 12.975 0 0 0 47 5.008H17A12.975 12.975 0 0 0 4 18.01z" opacity=".15"/></svg>