<svg xmlns="http://www.w3.org/2000/svg" viewBox="0 0 64 64"><rect width="56.002" height="56.002" x="4" y="3.969" fill="#34d267" rx="13.002" ry="13.002"/><path d="M32 13.739 50.261 32 32 50.261 13.739 32z" opacity=".25"/><path fill="#fff" d="m14.391 17.652-.652.652v1.304l.652.653h1.956v25.435l.653.652h1.956l28.696-26.74v-1.303L47 17.652H35.261l-.652.653v1.304l.652.652h1.957v1.304L22.87 34.608V20.26h1.956l.652-.652v-1.304l-.652-.652zm20.08 15.652-.925.652-.438 1.304.49.653h1.41l.925-.653.436-1.304-.487-.652m-4.795 3.913-.392 1.304h1.174l-2.479 6.522h3.913l.482-1.304H32.65l2.479-6.522m1.563 0-.456 1.304h.978l-2.478 6.522h3.327l.457-1.304h-.719l1.371-3.913h2.772l-1.86 5.217h3.26l.522-1.304h-.716l1.369-3.913h2.608l-1.826 5.217h3.419l.599-1.304h-.912l1.852-5.217-1.045-1.305H47.65l-1.304 1.305h-1.109l-1.11-1.305H42.89l-1.239 1.305h-1.304l-1.174-1.305"/><path d="M3.998 45.998v1c0 7.203 5.8 13.004 13.004 13.004h29.996c7.203 0 13.004-5.8 13.004-13.004v-1c0 7.203-5.8 13.002-13.004 13.002H17.002A12.975 12.975 0 0 1 3.998 45.998" opacity=".15"/><path fill="#fff" d="M3.998 18.004v-1C3.998 9.801 9.798 4 17.002 4h29.996c7.203 0 13.004 5.8 13.004 13.004v1c0-7.203-5.8-13.002-13.004-13.002H17.002A12.975 12.975 0 0 0 3.998 18.004" opacity=".15"/></svg>