<svg xmlns="http://www.w3.org/2000/svg" viewBox="0 0 64 64"><rect width="56.002" height="56.002" x="4" y="3.969" fill="#8a5391" rx="13.002" ry="13.002"/><path fill="#fff" d="M50.794 30.805a24 24 0 0 0-1.29-1.617c-2.391-2.81-5.137-5.313-8.144-7.129-1.92-1.164-3.98-2.102-6.108-2.547a16.115 16.161 0 0 0-3.266-.352c-1.08 0-2.165.121-3.25.348-2.132.453-4.18 1.387-6.103 2.547-3.008 1.82-5.758 4.327-8.16 7.133a24 24 0 0 0-1.275 1.617 1.935 1.94 0 0 0 0 2.386c1.222 1.722 2.681 3.247 4.153 4.65 3.193 3 6.85 5.515 10.877 6.534a15.353 15.398 0 0 0 7.511 0c4.028-1.019 7.689-3.534 10.886-6.538a31.782 31.875 0 0 0 4.16-4.642 1.964 1.97 0 0 0 0-2.39"/><path fill="#5486f9" d="M41.599 31.998a9.604 9.631 0 1 1-19.203 0 9.604 9.631 0 0 1 19.203 0"/><path fill="#1a1a1a" d="M37.332 31.998a5.332 5.348 0 1 1-10.664 0 5.332 5.348 0 0 1 10.664 0"/><path fill="#f2f2f2" d="M36.266 29.859a2.133 2.139 0 1 1-4.266 0 2.133 2.139 0 0 1 4.266 0" opacity=".35"/><path fill="#f55" d="M39.455 21 22.119 41.617c.79.514 1.597.97 2.427 1.383L41.87 22.379c-.77-.542-1.67-.995-2.419-1.375"/><path d="M3.998 45.998v1c0 7.203 5.8 13.004 13.004 13.004h29.996c7.203 0 13.004-5.8 13.004-13.004v-1c0 7.203-5.8 13.002-13.004 13.002H17.002A12.975 12.975 0 0 1 3.998 45.998" opacity=".15"/><path fill="#fff" d="M3.998 18.004v-1C3.998 9.801 9.798 4 17.002 4h29.996c7.203 0 13.004 5.8 13.004 13.004v1c0-7.203-5.8-13.002-13.004-13.002H17.002A12.975 12.975 0 0 0 3.998 18.004" opacity=".15"/></svg>