<svg xmlns="http://www.w3.org/2000/svg" viewBox="0 0 16.933 16.933"><rect width="14.817" height="14.817" x="1.058" y="1.05" fill="#3db8ff" rx="3.44" ry="3.44"/><rect width="11.641" height="4.233" x="2.646" y="9.789" fill="#fff" opacity=".35" rx="1.323" ry="1.323"/><g fill="#fff"><rect width="2.646" height="2.646" x="3.439" y="10.583" opacity=".86" rx=".529" ry=".529"/><rect width="2.646" height="2.646" x="7.144" y="10.583" opacity=".86" rx=".529" ry=".529"/><rect width="2.646" height="2.646" x="10.848" y="10.583" opacity=".86" rx=".529" ry=".529"/></g><path d="M1.058 12.17v.265a3.433 3.433 0 0 0 3.44 3.44h7.937a3.433 3.433 0 0 0 3.44-3.44v-.265a3.433 3.433 0 0 1-3.44 3.44H4.498a3.433 3.433 0 0 1-3.44-3.44" opacity=".15"/><path fill="#fff" d="M1.058 4.763V4.5a3.433 3.433 0 0 1 3.44-3.44h7.937a3.433 3.433 0 0 1 3.44 3.44v.265a3.433 3.433 0 0 0-3.44-3.44H4.498a3.433 3.433 0 0 0-3.44 3.44z" opacity=".15"/></svg>