<svg xmlns="http://www.w3.org/2000/svg" viewBox="0 0 16.933 16.933"><rect width="14.817" height="14.817" x="1.058" y="1.05" fill="#f2f2f2" rx="3.44" ry="3.44"/><path d="M1.058 12.17v.265a3.433 3.433 0 0 0 3.44 3.44h7.937a3.433 3.433 0 0 0 3.44-3.44v-.265a3.433 3.433 0 0 1-3.44 3.44H4.498a3.433 3.433 0 0 1-3.44-3.44" opacity=".1"/><path fill="#fff" d="M1.058 4.763V4.5a3.433 3.433 0 0 1 3.44-3.44h7.937a3.433 3.433 0 0 1 3.44 3.44v.265a3.433 3.433 0 0 0-3.44-3.44H4.498a3.433 3.433 0 0 0-3.44 3.44z" opacity=".5"/><rect width="12.7" height="12.7" x="2.117" y="2.117" opacity=".15" rx="2.381" ry="2.485"/><g stroke-width="1.403"><path fill="#f1ae4c" d="M17 9a8.98 8.98 0 0 0-9 9v28c0 4.986 4.014 9 9 9h29.117L56 45.242V18c0-4.986-4.014-9-9-9z" style="paint-order:normal" transform="translate(0 .265)scale(.26458)"/><path fill="#f67400" d="m12.202 14.552 2.615-2.582-1.46-.025c-.622-.01-1.108.494-1.121 1.107z" style="paint-order:normal" transform="translate(0 .265)"/><path fill="#dc5663" d="M17 9a8.98 8.98 0 0 0-9 9v23.061c0 2.317 1.888 4.182 4.234 4.182h33.883L56 35.485V18c0-4.986-4.014-9-9-9z" style="paint-order:normal" transform="translate(0 .265)scale(.26458)"/><path fill="#48abf2" d="M17 7a8.98 8.98 0 0 0-9 9v15.303c0 2.317 1.888 4.182 4.234 4.182h33.883L56 25.727V16c0-4.986-4.014-9-9-9z" style="paint-order:normal" transform="translate(0 .265)scale(.26458)"/><path fill="#2980b9" d="m12.185 9.401 2.631-2.594-1.485-.013c-.62-.005-1.135.494-1.12 1.107-.006.619-.026 1.5-.026 1.5" style="paint-order:normal" transform="translate(0 .265)"/><path fill="#c0392b" d="m12.202 11.97 2.615-2.582-1.46-.025c-.622-.01-1.108.494-1.121 1.107z" style="paint-order:normal" transform="translate(0 .265)"/></g></svg>