<svg xmlns="http://www.w3.org/2000/svg" viewBox="0 0 64 64"><rect width="56.002" height="56.002" x="4" y="3.969" fill="#f2f2f2" rx="13.002" ry="13.002"/><path fill="#fff" d="M3.998 18.004v-1C3.998 9.801 9.798 4 17.002 4h29.996c7.203 0 13.004 5.8 13.004 13.004v1c0-7.203-5.8-13.002-13.004-13.002H17.002A12.975 12.975 0 0 0 3.998 18.004" opacity=".5"/><g fill-rule="evenodd"><path fill="#1f94e9" d="M49.184 16.885q-.192-.002-.402.03c-2.246.345-7.354 2.245-8.967 2.648-1.612.402-2.367.764-4.951.52-2.947-.28-4.272-.298-5.047-.276-1.161-.103-1.746-.358-1.746-.358l.101 1.143c-.771.589-2.325 1.446-5.515 2.313-2.073.23-3.8-.404-4.836.171s-4.318 2.016-5.989 2.418c-1.67.403-2.906 1.158-3.908 1.487-1.59.518 3.153 8.12 5.211 9.119 0 0-.712.74-1.303 1.36-1.431.978-2.56 1.042-2.56 1.042l.072.785c-1.662.884-3.309 1.295-3.857 1.373-.067.01-.743.216-1.487.467v5.871C4 54.201 9.8 60 17.002 60h18.125c.466-2.562.995-5.49 1.11-6.69.565-.83 1.326-.841 1.326-.841s-.977-2.77-.88-6.104c.12-.79.327-1.535.587-2.244h.984s-.124-1.36.432-2.742c1.83-2.783 4.33-4.643 5.397-5.46 1.005-.773 5.64-1.958 6.619-2.188.978-.23 1.9-1.787 1.957-2.248s-.287-1.324-.287-1.324l-2.59-.575-3.135-.353s4.303-6.375 5.078-7.113c.822-.783 1.223-1.747 1.223-2.668s-.678-2.16-.678-2.16-.779-.395-2.049-.346c-.212.007-.43-.022-.666-.041h-.004a4 4 0 0 0-.367-.018"/><path fill="#2c3e50" d="M52.54 17.861s-.408-.366-.855-.408c-.448-.04-1.385.123-1.669.082s-1.262-.61-1.262-.61 1.303-.734 1.751-.815c.448-.082 1.222-.203 1.222-.203s.326.408.57.977c.246.57.246.977.246.977"/><path fill="#fcfcfc" d="M50.895 29.886c-.88.117-1.049.02-1.049.02s.203-.922.424-1 .862.921.625.98"/><path fill="#2c3e50" d="M52.092 21.729s-2.89 1.385-4.274 3.542c-1.385 2.158-2.363 4.357-2.363 4.357s.978.203 1.874.529 2.525.408 3.216.285c.692-.122.897-.448.204-.733-.692-.286-1.71-.489-1.751-1.1-.04-.61 1.262-4.153 1.628-4.723s1.466-2.157 1.466-2.157"/><path fill="#34495e" d="M26.729 28.772s3.581-.54 4.945-1.355c4.448-2.658 4.297-4.142 4.297-4.142s-4.704-1.882-7.957 1.999c-1.362 1.625-1.285 3.498-1.285 3.498"/><path fill="#f9f9f9" d="M28.07 27.163s3.57-.72 4.895-1.699c1.323-.978 1.87-1.497 1.698-1.842s-1.468-.864-3.08-.461c-1.61.402-2.762 1.554-3.08 2.274-.316.72-.632 1.497-.43 1.728"/><path fill="#fcfcfc" d="M48.249 30.467c1.316.151 1.563.025 1.563.025s-.302-1.186-.63-1.286-1.286 1.185-.933 1.26"/><path fill="#33506a" d="M13.519 34.53c1.316 1.008 4.638 1.602 6.268 1.365 3.844-.561 4.042-.273 3.115-2.727-.67-1.77-4.56-3.582-7.166-.977l-1.302-1.302c.772-1.113-.652-3.706-1.303-3.909s-3.725.633-4.01.919 3.086 5.624 4.398 6.632"/></g><path d="m13.129 36.098-.32.336c.59.299 2.01.926 4.154 1.297 2.887.498 4.873-.387 4.873-.387s-1.627.531-4.514.033c-2.885-.499-4.187-1.277-4.187-1.277z" opacity=".1" style="mix-blend-mode:normal"/><path d="M3.998 45.998v1c0 7.203 5.8 13.004 13.004 13.004h29.996c7.203 0 13.004-5.8 13.004-13.004v-1c0 7.203-5.8 13.002-13.004 13.002H17.002A12.975 12.975 0 0 1 3.998 45.998" opacity=".1"/></svg>