<svg xmlns="http://www.w3.org/2000/svg" viewBox="0 0 64 64"><rect width="56" height="56" x="4" y="4" fill="#00c45b" rx="13.002" ry="13.002"/><path d="M3.998 45.998v1c0 7.203 5.8 13.004 13.004 13.004h29.996c7.203 0 13.004-5.8 13.004-13.004v-1c0 7.203-5.8 13.002-13.004 13.002H17.002A12.975 12.975 0 0 1 3.998 45.998" opacity=".15"/><path fill="#fff" d="M3.998 18.004v-1C3.998 9.801 9.798 4 17.002 4h29.996c7.203 0 13.004 5.8 13.004 13.004v1c0-7.203-5.8-13.002-13.004-13.002H17.002A12.975 12.975 0 0 0 3.998 18.004" opacity=".15"/><path fill="#fff" d="M32 16a16 16 0 0 0-16 16 16 16 0 0 0 16 16 16 16 0 0 0 15.168-11h-8.973A8 8 0 0 1 32 40a8 8 0 0 1-8-8 8 8 0 0 1 8-8 8 8 0 0 1 6.242 3h8.951A16 16 0 0 0 32 16"/></svg>