<svg xmlns="http://www.w3.org/2000/svg" viewBox="0 0 16.933 16.933"><rect width="14.816" height="14.816" x="1.058" y="1.058" fill="#3d3d3d" rx="3.44" ry="3.44"/><path d="M1.058 12.17v.265a3.433 3.433 0 0 0 3.44 3.44h7.937a3.433 3.433 0 0 0 3.44-3.44v-.265a3.433 3.433 0 0 1-3.44 3.44H4.498a3.433 3.433 0 0 1-3.44-3.44" opacity=".5"/><path fill="#fff" d="M1.058 4.763V4.5a3.433 3.433 0 0 1 3.44-3.44h7.937a3.433 3.433 0 0 1 3.44 3.44v.265a3.433 3.433 0 0 0-3.44-3.44H4.498a3.433 3.433 0 0 0-3.44 3.44z" opacity=".15"/><path fill="#1fbfff" d="M5.362 4.91h1.807c.248 0 .45.203.45.452v1.807a.45.45 0 0 1-.45.45H5.362a.45.45 0 0 1-.451-.45V5.362a.45.45 0 0 1 .45-.451m4.065 4.063h1.807a.45.45 0 0 1 .45.452v1.807a.45.45 0 0 1-.45.45H9.426a.45.45 0 0 1-.452-.45V9.426c0-.249.203-.452.452-.452"/><path fill="#f4d847" d="M4.91 8.297a.676.676 0 0 0-.677.677v2.71c0 .375.302.677.678.677h2.71a.675.675 0 0 0 .676-.677v-2.71a.675.675 0 0 0-.677-.677zm0 .339h2.71c.188 0 .339.15.339.338v2.71c0 .188-.15.338-.339.338H4.91a.34.34 0 0 1-.338-.338v-2.71c0-.188.15-.338.339-.338zm.34.338a.34.34 0 0 0-.34.339v2.032a.34.34 0 0 0 .34.339h2.03a.34.34 0 0 0 .34-.339V9.313a.34.34 0 0 0-.34-.339zm3.724-4.741a.676.676 0 0 0-.677.678V7.62c0 .376.302.677.677.677h2.71a.675.675 0 0 0 .677-.677V4.91a.676.676 0 0 0-.677-.677zm0 .339h2.71c.188 0 .338.15.338.339V7.62c0 .188-.15.338-.338.338h-2.71a.337.337 0 0 1-.338-.338V4.91c0-.187.15-.338.338-.338m.339.339a.34.34 0 0 0-.339.338v2.032a.34.34 0 0 0 .339.339h2.032a.34.34 0 0 0 .339-.339V5.25a.34.34 0 0 0-.339-.338H9.313z"/></svg>