<svg xmlns="http://www.w3.org/2000/svg" viewBox="0 0 64 64"><rect width="56.002" height="56.002" x="4" y="3.969" fill="#4d4d4d" rx="13.002" ry="13.002"/><circle cx="32.02" cy="32.044" r="30.001" fill="none"/><path fill="#f2f2f2" d="M17 56.947c-5.54 0-10-4.46-10-10v-30A9.976 9.976 0 0 1 15.969 7c.58.02 1.133.037 1.449.006h.002q.586-.06 1.19-.059H47c5.54 0 10 4.46 10 10v17.652c0 5.357-16.965 22.348-22.322 22.348H18.61z" style="fill:#e6e6e6"/><path fill="#fff" d="M34.678 56.92c3.571-.893 4.464-6.25 5.357-9.821.866-3.465 2.838-5.843 8.036-7.143 3.57-.893 7.142-.572 8.928-5.357 0 .021-.004.043-.004.065-.097 6.246-14.825 21.194-21.614 22.225a10 10 0 0 1-.702.031z"/><path fill="#fff" d="M3.998 18.004v-1C3.998 9.801 9.798 4 17.002 4h29.996c7.203 0 13.004 5.8 13.004 13.004v1c0-7.203-5.8-13.002-13.004-13.002H17.002A12.975 12.975 0 0 0 3.998 18.004" opacity=".15"/><g fill="#33a6e4" fill-rule="evenodd"><path d="M32 3a5 5 0 0 0-4.898 4h2.074A3 3 0 0 1 32 5a3 3 0 0 1 2.826 2h2.069A5 5 0 0 0 32 3" style="paint-order:stroke fill markers"/><path d="M23 12s1.283-6 3.849-6H37.15C39.717 6 41 12 41 12z"/></g><path d="M3.998 45.998v1c0 7.203 5.8 13.004 13.004 13.004h29.996c7.203 0 13.004-5.8 13.004-13.004v-1c0 7.203-5.8 13.002-13.004 13.002H17.002A12.975 12.975 0 0 1 3.998 45.998" opacity=".35"/></svg>