<svg xmlns="http://www.w3.org/2000/svg" xmlns:xlink="http://www.w3.org/1999/xlink" xml:space="preserve" width="64" height="64"><defs><linearGradient id="b"><stop offset="0" style="stop-color:#fdfcfa;stop-opacity:1"/><stop offset="1" style="stop-color:#e0d5b2;stop-opacity:1"/></linearGradient><linearGradient id="a"><stop offset="0" style="stop-color:#8c7d45;stop-opacity:1"/><stop offset="1" style="stop-color:#cfb967;stop-opacity:1"/></linearGradient><linearGradient xlink:href="#a" id="c" x1="29.749" x2="11.08" y1="51.005" y2="-4.293" gradientUnits="userSpaceOnUse"/><linearGradient xlink:href="#b" id="d" x1="-4.746" x2="19.743" y1="29.507" y2="32.086" gradientUnits="userSpaceOnUse"/></defs><rect width="56.002" height="56.002" x="4" y="3.969" rx="13.002" ry="13.002" style="fill:#fafafa;fill-opacity:1"/><path d="M20.821 57.574a13.837 9.43 0 0 0-9.785-2.763A13.837 9.43 0 0 0-2.8 64.241a13.837 9.43 0 0 0 13.836 9.43 13.837 9.43 0 0 0 13.837-9.43 13.837 9.43 0 0 0-4.052-6.667m-2.61 1.14a6.771 9.797 79.482 0 1 2.553 4.668 6.771 9.797 79.482 0 1-10.113 7.5 6.771 9.797 79.482 0 1-9.294-6.226 6.771 9.797 79.482 0 1 10.114-7.5 6.771 9.797 79.482 0 1 6.74 1.558" style="fill:#000;stroke-width:2.40336;stroke-linecap:round;stroke-linejoin:round;paint-order:stroke fill markers;opacity:1" transform="matrix(.77107 -.63675 .5587 .82937 0 0)"/><path d="M17.002 3.969A12.973 12.973 0 0 0 4 16.97v29.998A12.973 12.973 0 0 0 17.002 59.97h2.846c-1.266-4.646-2.354-9.77-1.803-12.364 1.093-5.149 3.826-3.078 5.818-3.984 1.993-.906 3.288-1.408 3.916-5.21.629-3.804 1.377-8.958 3.182-10.954s3.603-1.053 6.457-1.883 10.408-4.721 17.105-9.953a57 57 0 0 0 4.407-3.832A12.97 12.97 0 0 0 47 3.969z" style="opacity:1;fill:#bbd4f0;fill-opacity:1;stroke-width:2;stroke-linecap:round;stroke-linejoin:round;paint-order:stroke fill markers"/><path d="M17.002 3.969A12.973 12.973 0 0 0 4 16.97v29.998A12.964 12.964 0 0 0 16.604 59.95a27 27 0 0 0-.409-2.69c-.774-3.928-3.546-7.136-3.834-10.085-.287-2.95 3.664-4.162 4.8-4.496s5.853-1.929 7.523-4.787c1.669-2.859 2.129-4.505 1.423-5.37-.705-.864-2.405-2.387-2.544-3.746-.149-1.442-.567-2.288 2.173-3.67 2.74-1.381 7.985-2.898 10.348-5.293s2.024-1.829 1.754-3.562-1.467-2.95.201-3.283 5.846 1.2 6.877-.016c1.032-1.216.853-4.686 3.998-7.127s.318 3.84.318 5.87-1.308 6.677 6.192-2.03c.517-.6.755-.9 1.205-1.428A12.95 12.95 0 0 0 47 3.968z" style="opacity:1;fill:#b5b57b;fill-opacity:1;stroke-width:2;stroke-linecap:round;stroke-linejoin:round;paint-order:stroke fill markers"/><path d="M17.002 3.969A12.973 12.973 0 0 0 4 16.97v29.998c0 6.385 4.56 11.658 10.613 12.775-.022-.74-.123-1.837-.472-3.607-.775-3.929-3.545-7.135-3.832-10.084-.288-2.95 3.663-4.164 4.798-4.498s5.213-2.43 7.739-4.57c2.04-1.73 2.252-3.681 1.547-4.546-.706-.864-2.657-2.932-2.797-4.29-.149-1.443-.59-2.322 2.15-3.704 2.74-1.381 8.403-3.097 10.766-5.492S36.45 16.733 36.18 15s-.378-3.038 1.29-3.371c1.67-.333 5.665 1.101 6.696-.115.847-1 2.908-4.662 5.357-7.297A13 13 0 0 0 47 3.969zM52.516 5.2c-.294 2.347-1.059 5.402-1.059 6.463 0 1.669.536 1.15 4.809-3.826a13 13 0 0 0-3.75-2.637" style="opacity:1;fill:url(#c);fill-opacity:1;stroke-width:2;stroke-linecap:round;stroke-linejoin:round;paint-order:stroke fill markers"/><path d="M17.002 3.969A12.973 12.973 0 0 0 4 16.97v29.998a12.97 12.97 0 0 0 6.912 11.494 30.4 30.4 0 0 0-1.033-5.399c-2-7.085-3.47-10.472 2.795-13.656s3.01-7.734 2.97-14.633c-.028-5.018 4.336-14.797 7.223-20.806z" style="opacity:1;fill:url(#d);fill-opacity:1;stroke-width:2;stroke-linecap:round;stroke-linejoin:round;paint-order:stroke fill markers"/></svg>