<svg xmlns="http://www.w3.org/2000/svg" viewBox="0 0 64 64"><defs><filter id="b" width="1.358" height="1.04" x="-.179" y="-.02" color-interpolation-filters="sRGB"><feGaussianBlur stdDeviation=".15"/></filter><filter id="c" width="1.072" height="1.072" x="-.036" y="-.036" color-interpolation-filters="sRGB"><feGaussianBlur stdDeviation=".244"/></filter><linearGradient id="a" x1="7.937" x2="7.937" y1="15.081" y2="1.852" gradientTransform="scale(3.7796)" gradientUnits="userSpaceOnUse"><stop offset="0" stop-color="#daf6ed"/><stop offset="1" stop-color="#fbfffd"/></linearGradient></defs><g stroke-width="3.78"><rect width="56.002" height="56.002" x="4" y="3.969" fill="url(#a)" rx="13.002" ry="13.002"/><path fill="#f2f2f2" d="M17.002 3.969A12.973 12.973 0 0 0 4 16.97v29.998A12.973 12.973 0 0 0 17.002 59.97H47a12.973 12.973 0 0 0 13.002-13.002V16.97A12.973 12.973 0 0 0 47 3.969zM32 8a24 24 0 0 1 24 24 24 24 0 0 1-24 24A24 24 0 0 1 8 32 24 24 0 0 1 32 8"/><path d="M31.998 14.998A1 1 0 0 0 30.996 16l.004.07v15.916a1 1 0 0 0 1.002.99 1 1 0 0 0 1.002-1.001l-.004-.07V15.989a1 1 0 0 0-1.002-.99z" filter="url(#b)" opacity=".5" transform="matrix(.8 0 0 .8 6.4 6.4)"/><path d="m32.709 31.991 15.557 15.557-.71.707-15.558-15.557z" filter="url(#c)" opacity=".35" transform="matrix(.8 0 0 .8 6.4 6.4)"/></g><path fill="#4d4d4d" d="M32.002 56c13.254 0 24-10.746 24-24s-10.746-24-24-24-24 10.746-24 24 10.746 24 24 24" class="shp36"/><g fill="#fff"><path fill="#d35f5f" d="m32.567 31.992 12.446 12.446-.568.565-12.446-12.446z"/><path d="M31.998 18.398a.8.8 0 0 0-.802.802l.003.056v12.733a.8.8 0 0 0 .802.792.8.8 0 0 0 .802-.802l-.003-.056V19.19a.8.8 0 0 0-.802-.791z"/><g stroke-linecap="round" stroke-linejoin="round" stroke-width="4.125"><rect width="1" height="4" x="31.5" y="10" ry=".532"/><rect width="1" height="4" x="31.5" y="50" ry=".532"/><rect width="1" height="4" x="43.213" y="-10.287" ry=".532" transform="rotate(30)"/><rect width="1" height="4" x="43.213" y="29.713" ry=".532" transform="rotate(30)"/><rect width="1" height="4" x="43.213" y="-33.713" ry=".532" transform="rotate(60)"/><rect width="1" height="4" x="43.213" y="6.287" ry=".532" transform="rotate(60)"/><rect width="1" height="4" x="31.5" y="-54" ry=".532" transform="rotate(90)"/><rect width="1" height="4" x="31.5" y="-14" ry=".532" transform="rotate(90)"/><rect width="1" height="4" x="11.213" y="-65.713" ry=".532" transform="rotate(120)"/><rect width="1" height="4" x="11.213" y="-25.713" ry=".532" transform="rotate(120)"/><rect width="1" height="4" x="-12.213" y="-65.713" ry=".532" transform="rotate(150)"/><rect width="1" height="4" x="-12.213" y="-25.713" ry=".532" transform="rotate(150)"/></g></g><path d="M3.998 45.998v1c0 7.203 5.8 13.004 13.004 13.004h29.996c7.203 0 13.004-5.8 13.004-13.004v-1c0 7.203-5.8 13.002-13.004 13.002H17.002A12.975 12.975 0 0 1 3.998 45.998" opacity=".1"/><path fill="#fff" d="M3.998 18.004v-1C3.998 9.801 9.798 4 17.002 4h29.996c7.203 0 13.004 5.8 13.004 13.004v1c0-7.203-5.8-13.002-13.004-13.002H17.002A12.975 12.975 0 0 0 3.998 18.004" opacity=".5"/></svg>