<svg xmlns="http://www.w3.org/2000/svg" width="64" height="64"><defs><linearGradient id="a" x1="7.937" x2="7.937" y1="15.081" y2="1.852" gradientTransform="scale(3.7796)" gradientUnits="userSpaceOnUse"><stop offset="0" stop-color="#f1efeb"/><stop offset="1" stop-color="#fdfcfc"/></linearGradient><linearGradient id="b" x1="28.261" x2="28.261" y1="18.902" y2="44" gradientUnits="userSpaceOnUse"><stop offset="0" stop-color="#6b6b6b"/><stop offset="1" stop-color="#383838"/></linearGradient><filter id="d" width="1.259" height="1.259" x="-.13" y="-.13" color-interpolation-filters="sRGB"><feGaussianBlur stdDeviation=".27"/></filter><filter id="c" width="1.259" height="1.259" x="-.13" y="-.13" color-interpolation-filters="sRGB"><feGaussianBlur stdDeviation=".27"/></filter></defs><rect width="56.002" height="56.002" x="4" y="3.969" fill="url(#a)" rx="13.002" ry="13.002"/><path fill="url(#b)" d="m22 18 4 6h-8l-1 4h-4.5l1.5-6h-3L8 34h7.2L14 38h7l-5 6h6l4-6h12l4 6h6l-5-6h7l-1.2-4H56l-3-12h-3l1.5 6H47l-1-4h-8l4-6h-3l-4 6h-6l-4-6z"/><path d="M38 28v5h5v-5z" filter="url(#c)" opacity=".2"/><path fill="#fff" d="M38 27v5h5v-5z"/><path d="M21 28v5h5v-5z" filter="url(#d)" opacity=".2"/><path fill="#fff" d="M21 27v5h5v-5z"/></svg>