<svg xmlns="http://www.w3.org/2000/svg" viewBox="0 0 64 64"><defs><linearGradient id="a" x1="7.937" x2="7.937" y1="15.081" y2="1.852" gradientTransform="scale(3.7796)" gradientUnits="userSpaceOnUse"><stop offset="0" stop-color="#f1efeb" style="stop-color:#65a13a;stop-opacity:1"/><stop offset="1" stop-color="#fdfcfc"/></linearGradient></defs><rect width="56.002" height="56.002" x="4" y="3.969" fill="url(#a)" rx="13.002" ry="13.002" style="fill:#84b165;fill-opacity:1"/><g style="clip-rule:evenodd;fill-rule:evenodd;stroke-linejoin:round;stroke-miterlimit:1.41421;fill:#e3d62e;fill-opacity:1"><path d="M16.438 99.004v-196h6.125v196zm12.25 0v-196h6.125v196zm12.25 0v-196h6.125v196zm12.25 0v-196h6.126v196zm12.251 0v-196h6.125v196zm12.25 0v-196h6.125v196zm12.25 0v-196h6.125v196zm12.251 0v-196h6.124v196zm12.25 0v-196h6.125v196zm12.25 0v-196h6.125v196zm12.25 0v-196h6.125v196zm12.25 0v-196h6.125v196zm12.25 0v-196h6.125v196z" style="fill:#e3d62e;fill-opacity:1;fill-rule:evenodd;stroke-width:3.06252" transform="matrix(.22425 0 0 .22426 11.144 31.745)"/><path d="M-5.002-75.557h196.007v6.125H-5.002Zm0 12.25h196.007v6.124H-5.002Zm0 12.249h196.007v6.125H-5.002Zm0 12.25h196.007v6.125H-5.002Zm0 12.25h196.007v6.125H-5.002Zm0 12.25h196.007v6.124H-5.002Zm0 12.249h196.007v6.125H-5.002Zm0 12.25h196.007v6.125H-5.002Zm0 12.249h196.007v6.126H-5.002Zm0 12.25h196.007v6.126H-5.002Zm0 12.25h196.007v6.125H-5.002Zm0 12.25h196.007v6.125H-5.002Zm0 12.25h196.007v6.125H-5.002Z" style="fill:#e3d62e;fill-opacity:1;fill-rule:evenodd;stroke-width:3.06252" transform="matrix(.22425 0 0 .22426 11.144 31.745)"/></g><rect width="39.376" height="39.376" x="12.312" y="12.282" rx="2.109" ry="2.109" style="clip-rule:evenodd;fill:#343434;fill-opacity:1;fill-rule:evenodd;stroke-width:1.40628;stroke-linejoin:round;stroke-miterlimit:1.41421"/><g style="clip-rule:evenodd;fill-rule:evenodd;stroke-linejoin:round;stroke-miterlimit:1.41421"><path d="M6.876.195 6.87 9.579h1.342V.195Z" style="opacity:1;fill:#000;fill-opacity:1;stroke-width:.939371" transform="matrix(1.0276 0 0 1.02763 16.693 18.034)"/><path d="m6.876 10.442.005 15.595h1.331V10.442z" style="fill:#ff4500;fill-opacity:1;stroke-width:.760929" transform="matrix(1.0276 0 0 1.02763 16.693 18.034)"/><path d="M2.643 7.324h9.802v4.232H2.643Z" style="fill:#da3b00;fill-opacity:1;fill-rule:evenodd;stroke-width:2.03504" transform="matrix(1.0276 0 0 1.02763 16.693 18.034)"/></g><path d="M43.675 36.548v-3.434h-8.47V44.79h8.47v-4.35h-1.831v2.518h-3.205V40.44l-1.603-1.374v-4.12h3.892v1.602" style="clip-rule:evenodd;fill:#ff4500;fill-opacity:1;fill-rule:evenodd;stroke-width:1.42535;stroke-linejoin:round;stroke-miterlimit:1.41421"/><path d="M43.675 21.668v-3.434h-8.47v11.675h8.47v-4.35h-1.831v2.519h-3.205V25.56l-1.603-1.374v-4.12h3.892v1.602" style="clip-rule:evenodd;fill:#ff9a0a;fill-opacity:1;fill-rule:evenodd;stroke-width:1.42535;stroke-linejoin:round;stroke-miterlimit:1.41421"/><path d="M14.413 12.29a2.095 2.095 0 0 0-2.1 2.1l.001 1.376c0-1.161.935-2.1 2.1-2.1l35.17-.007c1.167 0 2.105.934 2.105 2.095l-.001-1.376a2.096 2.096 0 0 0-2.104-2.096z" style="clip-rule:evenodd;opacity:.1;fill:#fff;fill-rule:evenodd;stroke-width:1.40007;stroke-linejoin:round;stroke-miterlimit:1.41421"/><path d="M3.998 45.998v1c0 7.203 5.8 13.004 13.004 13.004h29.996c7.203 0 13.004-5.8 13.004-13.004v-1c0 7.203-5.8 13.002-13.004 13.002H17.002A12.975 12.975 0 0 1 3.998 45.998" opacity=".35" style="opacity:.15"/><path fill="#fff" d="M3.998 18.004v-1C3.998 9.801 9.798 4 17.002 4h29.996c7.203 0 13.004 5.8 13.004 13.004v1c0-7.203-5.8-13.002-13.004-13.002H17.002A12.975 12.975 0 0 0 3.998 18.004" opacity=".15"/></svg>