<svg xmlns="http://www.w3.org/2000/svg" viewBox="0 0 64 64"><rect width="64" height="64" fill="none" rx="0" ry="0" style="paint-order:stroke fill markers"/><rect width="56.002" height="56.002" x="4" y="3.969" fill="#f2f2f2" rx="13.002" ry="13.002"/><path d="M3.998 45.998v1c0 7.203 5.8 13.004 13.004 13.004h29.996c7.203 0 13.004-5.8 13.004-13.004v-1c0 7.203-5.8 13.002-13.004 13.002H17.002A12.975 12.975 0 0 1 3.998 45.998" opacity=".1"/><path fill="#fff" d="M3.998 18.004v-1C3.998 9.801 9.798 4 17.002 4h29.996c7.203 0 13.004 5.8 13.004 13.004v1c0-7.203-5.8-13.002-13.004-13.002H17.002A12.975 12.975 0 0 0 3.998 18.004" opacity=".5"/><path fill="#248afd" d="M28.428 18.429C29.528 14.35 35.221 12 40.571 12c3.864 0 7.621 1.543 10 3.572-1.421.071-3.129.714-4.286 1.428 2.143.243 3.779.722 5 2.143a8.3 8.3 0 0 0-2.857 0c2.3 3.486 3.579 8.629 3.572 12.858 0 11.535-8.572 20-20 20s-20-8.572-20-20c0-1.8.292-4.508.82-6.286.115-.365.28-.693.494-.822a.18.18 0 0 1 .114-.035c.221 0 .393.371.429.507.292 1.143.507 2.707 1 3.778 0-2.371.97-5.028 2.314-6.907.893-1.25 2.578-2.286 2.964-5.636 0 0 .036-.314.436-.314 2.914.993 2.857 7.143 2.857 11.429 1.607.243 1.686-2.65 1.686-2.65-.222-.586-.257-.922-.257-1.636 0-1.429 1.1-3.921 3.571-5"/><path fill="#0271ef" d="M50.95 24.858c.078.235.335 1.321.335 2.142 0 11-8.65 20.715-19.286 20.715-4.157 0-7.385-.986-10.714-3.572-5.128-3.992-8.571-8.714-8.571-15 0-1.428.321-3.328.507-4.05.05-.193.114-.235.207-.235a.2.2 0 0 0-.114.035c-.222.143-.358.436-.493.822-.229.578-.543 2.493-.572 2.714-.1.729-.25 2.364-.25 3.572 0 11.428 8.572 20 20 20s20-8.465 20-20c0-2.858-.478-5.343-1.05-7.143"/><path fill="#0259bb" d="M13.22 25.093c-.3 1.265-.506 2.629-.506 4.05 0 4.465 1.721 8.808 6.071 12.865-1.157-1.436-2.5-4.065-2.5-7.15 0-2.322.536-4.843 2.457-6.993.107-.115.215-.15.4-.15.222 0 .465.228.472.528.371 10.393 8.1 15.9 18.1 15.9-3.2 0-12.407-4.078-5.35-5.457 3.685-.714 9.636-2.4 9.636-6.685 0-8.786-5-11.43-10-11.43-3.065 0-6.286 2.272-6.886 4.494.278.957-.929 2.764-1.686 2.65 0-4.286.057-10.436-2.857-11.429-.386 0-.436.314-.436.314-.386 3.35-2.071 4.379-2.964 5.636-1.343 1.879-2.314 4.286-2.314 6.907-.493-1.071-.708-2.635-1-3.778-.036-.129-.215-.507-.43-.507-.12 0-.178.107-.206.235"/><path fill="#d6d6d6" d="M32 39.858c5 0 10-3.572 10-7.857 0-1.793-.458-3.558-1.429-5-1.736-2.58-4.907-4.286-8.572-4.286-3.728 0-6.857 1.628-8.571 4.285-.914 1.415-1.429 3.265-1.429 5 0 8.28 7.143 12.143 15.715 12.143-.536-.064-3.807-.185-6.065-2.857-.207-.243-.364-.45-.364-.714 0-.421.393-.714.714-.714"/><path fill="#e4e4e4" d="M33.428 34.143c-.457.458-.886.722-1.429.715-.528-.007-.992-.279-1.428-.715L23.428 27c2.143-3.321 5.714-4.285 8.571-4.285s6.43 1.128 8.572 4.285zm.407-15.1c1.114-.385 1.014-1.6 1.014-1.6s-.557-.721-1.664-.321c-1.036.378-1.193 1.186-1.193 1.186s.565 1.178 1.836.735z"/></svg>