<svg xmlns="http://www.w3.org/2000/svg" xmlns:xlink="http://www.w3.org/1999/xlink" width="64" height="64" fill="none"><rect width="56.002" height="56.002" x="4" y="3.969" fill="url(#a)" rx="13.002" ry="13.002"/><path fill="url(#b)" d="M53.5 15.706a2 2 0 0 0-2-2h-36a2 2 0 0 0-2 2v26a2 2 0 0 0 2 2h17.586a1 1 0 0 1 .707.293l8 8c.63.63 1.707.184 1.707-.707v-6.586a1 1 0 0 1 1-1h7a2 2 0 0 0 2-2z"/><path fill="url(#c)" d="M10.5 13.706a2 2 0 0 1 2-2h36a2 2 0 0 1 2 2v26a2 2 0 0 1-2 2H30.914a1 1 0 0 0-.707.293l-8 8c-.63.63-1.707.184-1.707-.707v-6.586a1 1 0 0 0-1-1h-7a2 2 0 0 1-2-2z"/><rect width="30" height="4" x="15.5" y="17.706" fill="url(#d)" rx="2"/><rect width="25" height="4" x="15.5" y="24.706" fill="url(#e)" rx="2"/><rect width="20" height="4" x="15.5" y="31.706" fill="url(#f)" rx="2"/><defs><linearGradient id="g"><stop offset="0" stop-color="#fff"/><stop offset="1" stop-color="#fff" stop-opacity=".75"/></linearGradient><linearGradient id="c" x1="8" x2="48" y1="8" y2="48" gradientTransform="translate(2.5 3.706)" gradientUnits="userSpaceOnUse"><stop offset="0" stop-color="#44f0d3"/><stop offset="1" stop-color="#3daee9"/></linearGradient><linearGradient id="b" x1="51" x2="11" y1="10" y2="50" gradientTransform="translate(2.5 3.706)" gradientUnits="userSpaceOnUse"><stop offset="0" stop-color="#6eb4d9"/><stop offset="1" stop-color="#004e6e"/></linearGradient><linearGradient id="a" x1="7.937" x2="7.937" y1="15.081" y2="1.852" gradientTransform="scale(3.7796)" gradientUnits="userSpaceOnUse"><stop offset="0" stop-color="#f1efeb"/><stop offset="1" stop-color="#fdfcfc"/></linearGradient><linearGradient xlink:href="#g" id="f" x1="15.5" x2="35.5" y1="33.706" y2="33.706" gradientUnits="userSpaceOnUse"/><linearGradient xlink:href="#g" id="e" x1="15.5" x2="40.5" y1="26.706" y2="26.706" gradientUnits="userSpaceOnUse"/><linearGradient xlink:href="#g" id="d" x1="15.5" x2="45.5" y1="19.706" y2="19.706" gradientUnits="userSpaceOnUse"/></defs></svg>