<svg xmlns="http://www.w3.org/2000/svg" viewBox="0 0 16.933 16.933"><rect width="14.817" height="14.817" x="1.058" y="1.05" fill="#45b1f3" rx="3.44" ry="3.44"/><path d="M8.467 3.44 7.419 7.42 3.44 8.466l3.98 1.047 1.048 3.98 1.047-3.98 3.98-1.047-3.98-1.048-1.047-3.98z" opacity=".1"/><path fill="#f55" d="M7.599 7.54 9.46 9.402l4.546-6.407zm-4.546 6.408 6.408-4.546L7.599 7.54z" class="shp40"/><path fill="#fff" d="m7.6 7.54-4.546 6.408L9.46 9.402z"/><path fill-opacity=".955" d="M14.006 2.996 3.054 13.948l6.407-4.546z" opacity=".15"/><g fill="#fff" stroke-linecap="round" stroke-linejoin="round"><g stroke-width="1.159"><rect width=".265" height="1.587" x="8.334" y="1.587" rx=".132" ry=".132"/><rect width=".265" height="1.587" x="8.334" y="13.758" rx=".132" ry=".132"/><rect width=".265" height="1.587" x="8.334" y="-15.346" rx=".132" ry=".132" transform="rotate(90)"/><rect width=".265" height="1.587" x="8.334" y="-3.175" rx=".132" ry=".132" transform="rotate(90)"/><rect width=".265" height="1.587" x="-.132" y="-18.852" rx=".132" ry=".132" transform="rotate(135)"/><rect width=".265" height="1.587" x="-.132" y="-6.682" rx=".132" ry=".132" transform="rotate(135)"/></g><g stroke-width=".947"><rect width=".265" height="1.058" x="11.433" y="-3.78" rx=".132" ry=".132" transform="rotate(30)"/><rect width=".265" height="1.058" x="11.433" y="8.92" rx=".132" ry=".132" transform="rotate(30)"/><rect width=".265" height="1.058" x="11.433" y="-9.978" rx=".132" ry=".132" transform="rotate(60)"/><rect width=".265" height="1.058" x="11.433" y="2.722" rx=".132" ry=".132" transform="rotate(60)"/><rect width=".265" height="1.058" x="5.854" y="-17.248" rx=".132" ry=".132" transform="rotate(105)"/><rect width=".265" height="1.058" x="5.854" y="-4.549" rx=".132" ry=".132" transform="rotate(105)"/><rect width=".265" height="1.058" x="2.967" y="-18.444" rx=".132" ry=".132" transform="rotate(120)"/><rect width=".265" height="1.058" x="2.967" y="-5.745" rx=".132" ry=".132" transform="rotate(120)"/><rect width=".265" height="1.058" x="-3.231" y="-18.444" rx=".132" ry=".132" transform="rotate(150)"/><rect width=".265" height="1.058" x="-3.231" y="-5.745" rx=".132" ry=".132" transform="rotate(150)"/><rect width=".265" height="1.058" x="-6.119" y="-17.248" rx=".132" ry=".132" transform="rotate(165)"/><rect width=".265" height="1.058" x="-6.119" y="-4.549" rx=".132" ry=".132" transform="rotate(165)"/><rect width=".265" height="1.058" x="-10.502" y="-12.866" rx=".132" ry=".132" transform="rotate(195)"/><rect width=".265" height="1.058" x="-10.502" y="-.166" rx=".132" ry=".132" transform="rotate(195)"/><rect width=".265" height="1.058" x="-10.502" y="-.892" rx=".132" ry=".132" transform="rotate(255)"/><rect width=".265" height="1.058" x="-10.502" y="11.807" rx=".132" ry=".132" transform="rotate(255)"/></g></g><path d="M1.058 12.17v.265a3.433 3.433 0 0 0 3.44 3.44h7.937a3.433 3.433 0 0 0 3.44-3.44v-.265a3.433 3.433 0 0 1-3.44 3.44H4.498a3.433 3.433 0 0 1-3.44-3.44" opacity=".15"/><path fill="#fff" d="M1.058 4.763V4.5a3.433 3.433 0 0 1 3.44-3.44h7.937a3.433 3.433 0 0 1 3.44 3.44v.265a3.433 3.433 0 0 0-3.44-3.44H4.498a3.433 3.433 0 0 0-3.44 3.44z" opacity=".15"/></svg>