<svg xmlns="http://www.w3.org/2000/svg" xmlns:xlink="http://www.w3.org/1999/xlink" viewBox="0 0 64 64"><defs><linearGradient id="a" x1="408.65" x2="416.65" y1="525.28" y2="533.28" gradientTransform="translate(-.081 -.48)" gradientUnits="userSpaceOnUse"><stop offset="0" stop-opacity=".065"/><stop offset="1" stop-opacity="0"/></linearGradient><linearGradient xlink:href="#a" id="c" x1="417.79" x2="426.22" y1="517.96" y2="525.91" gradientTransform="matrix(-1.5 0 0 1.5 644.96 -754.42)" gradientUnits="userSpaceOnUse"/><linearGradient xlink:href="#a" id="b" x1="408.65" x2="416.65" y1="525.28" y2="533.28" gradientTransform="matrix(1.5 0 0 1.5 -580.96 -754.42)" gradientUnits="userSpaceOnUse"/></defs><rect width="56.002" height="56.002" x="4" y="3.969" fill="#4d4d4d" rx="13.002" ry="13.002"/><path d="M3.998 45.998v1c0 7.203 5.8 13.004 13.004 13.004h29.996c7.203 0 13.004-5.8 13.004-13.004v-1c0 7.203-5.8 13.002-13.004 13.002H17.002A12.975 12.975 0 0 1 3.998 45.998" opacity=".35"/><path fill="#fff" d="M3.998 18.004v-1C3.998 9.801 9.798 4 17.002 4h29.996c7.203 0 13.004 5.8 13.004 13.004v1c0-7.203-5.8-13.002-13.004-13.002H17.002A12.975 12.975 0 0 0 3.998 18.004" opacity=".15"/><path fill="#1690ed" d="M32.015 9.5a.5.5 0 0 0-.372.151 84 84 0 0 0-4.098 4.649v.006c-3.16 3.942-5.564 7.992-7.303 12.327-1.622 4.04-2.57 7.53-3.432 12.624a82 82 0 0 0-.512 3.552c-.066.543-.117 1.02-.145 1.373a8 8 0 0 0-.026.438v.168c0 .03 0 .063.021.118.015.056 0 .167.224.303.12.073.135.059.165.066a1.2 1.2 0 0 0 .234.036c.117.012.26.024.414.033 1.212.066 2.998.375 4.183.722.8.234 1.326.427 2.108.774l.619.27.048.019.002.003c0 .003.015.006.02.01v-.004.003c.016.003.016.006.029.01l.018.008-.02-.001.131.072.512.285c1.912 1.074 3.342 2.182 5.625 4.37.301.289.58.55.793.743q.16.146.264.236a2 2 0 0 0 .153.12l.059.033c.03.013.058.042.195.049.163.008.196-.028.229-.043s.051-.026.065-.035a3 3 0 0 0 .163-.126 48 48 0 0 0 1.155-1.057c1.889-1.791 2.804-2.549 4.119-3.422 2.873-1.906 5.432-2.751 9.36-3.084l.318-.027a.493.493 0 0 0 .453-.492v-.187c0-.39-.093-1.197-.219-2.196s-.285-2.136-.43-3c-.863-5.136-1.842-8.754-3.485-12.843-1.479-3.686-3.598-7.407-6.13-10.776 0-.008-.015-.015-.018-.023-1.704-2.017-3.353-4.134-5.151-6.097a.5.5 0 0 0-.35-.161z"/><path fill="url(#b)" fill-rule="evenodd" d="m42.905 24.86-26.696 20.2c.03.045.063.095.153.15.12.073.138.057.167.065l.076.018q.072.01.157.018c.117.012.261.027.413.034 1.212.066 2.998.374 4.183.72.8.234 1.33.428 2.11.774l.619.27.046.021h.007l.003.003.02.009h.004l.027.009c.006.002.01.008.018.009l-.018-.003.129.074.513.283c1.912 1.074 3.342 2.183 5.625 4.371.301.288.582.55.793.744a13 13 0 0 0 .362.314l.058.04c.014.008.029.018.059.032s.057.043.193.049c.164.008.198-.028.231-.043s.05-.027.065-.035a1 1 0 0 0 .163-.123c.075-.063.171-.151.287-.255.23-.208.537-.49.867-.802 1.888-1.791 2.803-2.549 4.118-3.422 2.873-1.906 5.432-2.751 9.36-3.082l.317-.027a.5.5 0 0 0 .454-.495v-.185c0-.39-.094-1.198-.218-2.197a80 80 0 0 0-.431-3c-.863-5.136-1.84-8.754-3.483-12.844-.227-.564-.493-1.128-.75-1.694"/><path fill="url(#c)" fill-rule="evenodd" d="m21.095 24.86 26.696 20.2a.44.44 0 0 1-.153.15c-.12.073-.138.057-.167.065l-.076.018q-.072.01-.158.018c-.117.012-.26.027-.412.034-1.212.066-2.999.374-4.184.72a15 15 0 0 0-2.109.774l-.619.27-.047.021h-.006l-.003.003-.02.009h-.004l-.027.009c-.006.002-.01.008-.018.009l.018-.003-.129.074-.513.283c-1.912 1.074-3.342 2.183-5.625 4.371-.301.288-.582.55-.793.744a13 13 0 0 1-.362.314l-.058.04c-.014.008-.029.018-.059.032s-.057.043-.193.049c-.164.008-.198-.028-.231-.043s-.05-.027-.065-.035a1 1 0 0 1-.163-.123c-.075-.063-.171-.151-.287-.255a53 53 0 0 1-.867-.802c-1.888-1.791-2.803-2.549-4.119-3.422-2.872-1.906-5.431-2.751-9.36-3.082l-.316-.027a.5.5 0 0 1-.455-.495v-.185c0-.39.095-1.198.22-2.197s.284-2.136.43-3c.862-5.136 1.84-8.754 3.483-12.844.226-.564.493-1.128.75-1.694"/></svg>