<svg xmlns="http://www.w3.org/2000/svg" viewBox="0 0 64 64"><defs><linearGradient id="a" x1="30.852" x2="30.852" y1="12" y2="51.772" gradientUnits="userSpaceOnUse"><stop offset="0" stop-color="#09cdc2"/><stop offset="1" stop-color="#059b87"/></linearGradient></defs><rect width="56.002" height="56.002" x="4" y="3.969" fill="#f2f2f2" rx="13.002" ry="13.002"/><path d="M3.998 45.998v1c0 7.203 5.8 13.004 13.004 13.004h29.996c7.203 0 13.004-5.8 13.004-13.004v-1c0 7.203-5.8 13.002-13.004 13.002H17.002A12.975 12.975 0 0 1 3.998 45.998" opacity=".1"/><path fill="#fff" d="M3.998 18.004v-1C3.998 9.801 9.798 4 17.002 4h29.996c7.203 0 13.004 5.8 13.004 13.004v1c0-7.203-5.8-13.002-13.004-13.002H17.002A12.975 12.975 0 0 0 3.998 18.004" opacity=".5"/><rect width="34" height="40" x="15" y="12" fill="#fff" fill-rule="evenodd" rx="5" ry="5" style="paint-order:stroke fill markers"/><path fill="url(#a)" d="M19.692 12a4.605 4.605 0 0 0-4.615 4.615v30.77A4.605 4.605 0 0 0 19.692 52h.409a12 12 0 0 1-.409-3.077c-.005-6.798 5.51-12.308 12.308-12.308 6.797 0 12.309 5.51 12.308 12.308q-.001 1.02-.171 2.025a4.58 4.58 0 0 0 1.71-3.564V36.615h-6.154L25.847 24.307v12.308l-3.077-3.077-3.077 3.077zm6.154 12.308L38.154 12H25.846zm20 12.308v-20a4.59 4.59 0 0 0-2.164-3.9L32.768 24.309zm-3.077-24.615a4.605 4.605 0 0 1 4.615 4.615v30.77A4.605 4.605 0 0 1 42.77 52h1.538a4.605 4.605 0 0 0 4.616-4.616V16.616a4.605 4.605 0 0 0-4.616-4.615zM31.999 42.77a6.154 6.154 0 0 0-6.153 6.154c.002 1.08.29 2.142.832 3.077h10.643a6.16 6.16 0 0 0 .833-3.077A6.154 6.154 0 0 0 32 42.77z" style="paint-order:normal;fill:#07b7a8;fill-opacity:1"/></svg>