<svg xmlns="http://www.w3.org/2000/svg" xmlns:xlink="http://www.w3.org/1999/xlink" width="64" height="64"><defs><linearGradient id="b"><stop offset="0" stop-color="#a6e2a9"/><stop offset="1" stop-color="#74d179"/></linearGradient><linearGradient id="a"><stop offset="0" stop-color="#0e951b"/><stop offset="1" stop-color="#7aed85"/></linearGradient><linearGradient id="c" x1="48" x2="48" y1="90" y2="5.988" gradientTransform="matrix(.5 0 0 .5 77.015 -3.268)" gradientUnits="userSpaceOnUse"><stop offset="0" stop-color="#9fde93"/><stop offset="1" stop-color="#f0fef0"/></linearGradient><linearGradient xlink:href="#a" id="f" x1="-160.99" x2="-86.433" y1="-36.473" y2="-36.473" gradientUnits="userSpaceOnUse"/><linearGradient xlink:href="#b" id="g" x1="-160.99" x2="-86.433" y1="-36.473" y2="-36.473" gradientUnits="userSpaceOnUse"/><filter id="e" width="1.296" height="1.296" x="-.148" y="-.148" color-interpolation-filters="sRGB"><feGaussianBlur stdDeviation="1.43"/></filter><filter id="d" width="1.327" height="1.327" x="-.164" y="-.164" color-interpolation-filters="sRGB"><feGaussianBlur stdDeviation="1.43"/></filter></defs><rect width="56" height="56" x="4" y="4" fill="url(#c)" rx="13.002" ry="13.002"/><path stroke="#000" stroke-linecap="round" stroke-linejoin="round" stroke-width="3.541" d="m27.422 16.609-8.516 2.266-2.296 8.515 6.218 6.25-2.28 8.5 6.218 6.25 8.516-2.265 2.296-8.516 8.516-2.266 2.297-8.515-6.219-6.25-8.531 2.281z" filter="url(#d)" opacity=".1" transform="translate(-7.015 -7.015)scale(1.2158)"/><path stroke="#000" stroke-linecap="round" stroke-linejoin="round" stroke-width="2.541" d="m27.422 16.609-8.516 2.266-2.296 8.515 6.218 6.25-2.28 8.5 6.218 6.25 8.516-2.265 2.296-8.516 8.516-2.266 2.297-8.515-6.219-6.25-8.531 2.281z" filter="url(#e)" opacity=".1" transform="translate(-7.015 -7.015)scale(1.2158)"/><path fill="url(#f)" stroke="url(#g)" stroke-linecap="round" stroke-linejoin="round" stroke-width="6" d="m-105.15-7.607-34.277 1.637-18.557-28.866 15.72-30.503 34.277-1.637L-89.43-38.11z" transform="rotate(-12.18 152.925 -282.717)scale(.3123)"/><path fill="url(#f)" stroke="url(#g)" stroke-linecap="round" stroke-linejoin="round" stroke-width="6" d="m-105.15-7.607-34.277 1.637-18.557-28.866 15.72-30.503 34.277-1.637L-89.43-38.11z" transform="rotate(-12.18 239.362 -296.144)scale(.3123)"/><path fill="url(#f)" stroke="url(#g)" stroke-linecap="round" stroke-linejoin="round" stroke-width="6" d="m-105.15-7.607-34.277 1.637-18.557-28.866 15.72-30.503 34.277-1.637L-89.43-38.11z" transform="rotate(-12.18 184.521 -364.285)scale(.3123)"/></svg>