<svg xmlns="http://www.w3.org/2000/svg" viewBox="0 0 64 64"><rect width="56.002" height="56.002" x="4" y="3.969" fill="#4d4d4d" rx="13.002" ry="13.002"/><path d="M3.998 45.998v1c0 7.203 5.8 13.004 13.004 13.004h29.996c7.203 0 13.004-5.8 13.004-13.004v-1c0 7.203-5.8 13.002-13.004 13.002H17.002A12.975 12.975 0 0 1 3.998 45.998" opacity=".35"/><path fill="#fff" d="M3.998 18.004v-1C3.998 9.801 9.798 4 17.002 4h29.996c7.203 0 13.004 5.8 13.004 13.004v1c0-7.203-5.8-13.002-13.004-13.002H17.002A12.975 12.975 0 0 0 3.998 18.004" opacity=".15"/><rect width="5.429" height="37.095" x="13" y="13.905" fill="#d8d8d8" ry="1.766"/><rect width="5.429" height="37.095" x="18.429" y="13.905" fill="#fff" ry="1.766"/><rect width="5.429" height="37.095" x="23.857" y="13.905" fill="#d8d8d8" ry="1.766"/><rect width="5.429" height="37.095" x="29.286" y="13.905" fill="#fff" ry="1.766"/><rect width="5.429" height="37.095" x="34.714" y="13.905" fill="#d8d8d8" ry="1.766"/><rect width="5.429" height="37.095" x="40.143" y="13.905" fill="#fff" ry="1.766"/><rect width="5.429" height="37.095" x="45.571" y="13.905" fill="#d8d8d8" ry="1.766"/><path fill="gray" d="M17.517 12.096c-.496 0-.898.577-.898 1.293V33.42c0 .717.402 1.294.898 1.294h1.827c.496 0 .894-.577.894-1.294V13.39c0-.718-.398-1.294-.894-1.294zm5.425 0c-.496 0-.894.577-.894 1.293V33.42c0 .717.398 1.294.894 1.294h1.83c.496 0 .894-.577.894-1.294V13.39c0-.718-.398-1.294-.894-1.294zm10.857 0c-.496 0-.894.577-.894 1.293V33.42c0 .717.398 1.294.894 1.294h1.83c.496 0 .894-.577.894-1.294V13.39c0-.718-.398-1.294-.894-1.294zm5.428 0c-.496 0-.894.577-.894 1.293V33.42c0 .717.398 1.294.894 1.294h1.83c.497 0 .895-.577.895-1.294V13.39c0-.718-.398-1.294-.894-1.294h-1.83zm5.429 0c-.496 0-.894.577-.894 1.293V33.42c0 .717.398 1.294.894 1.294h1.83c.496 0 .894-.577.894-1.294V13.39c0-.718-.398-1.294-.894-1.294z"/></svg>