<svg xmlns="http://www.w3.org/2000/svg" viewBox="0 0 64 64"><defs><linearGradient id="a" x1="7.248" x2="39.627" y1="40.091" y2="21.015" gradientTransform="translate(11.726 10.541)" gradientUnits="userSpaceOnUse"><stop offset="0" stop-color="#e0d1a2"/><stop offset=".424" stop-color="#fefdfb" stop-opacity=".992"/><stop offset=".519" stop-color="#d4c391" stop-opacity=".992"/><stop offset="1" stop-color="#fff" stop-opacity=".989"/></linearGradient></defs><rect width="56.002" height="56.002" x="4" y="3.969" fill="#f2f2f2" rx="13.002" ry="13.002"/><path d="M3.998 45.998v1c0 7.203 5.8 13.004 13.004 13.004h29.996c7.203 0 13.004-5.8 13.004-13.004v-1c0 7.203-5.8 13.002-13.004 13.002H17.002A12.975 12.975 0 0 1 3.998 45.998" opacity=".1"/><path fill="#fff" d="M3.998 18.004v-1C3.998 9.801 9.798 4 17.002 4h29.996c7.203 0 13.004 5.8 13.004 13.004v1c0-7.203-5.8-13.002-13.004-13.002H17.002A12.975 12.975 0 0 0 3.998 18.004" opacity=".5"/><path fill="#ff80f6" fill-rule="evenodd" d="m12.393 27.812 6.682-3.755 6.75 3.788.006 7.877-6.716 3.755-6.75-3.855z"/><path fill="none" stroke="#7c00ae" stroke-linecap="round" stroke-linejoin="round" stroke-width=".465" d="m25.732 35.769-3.144 1.827-3.624 2.055-3.154-1.81-3.592-2.11-.01-3.637.032-4.166 3.144-1.827 3.624-2.055 3.154 1.81 3.592 2.11.01 3.637z"/><path fill="#80e5ff" fill-rule="evenodd" d="m32.47 16.282 6.682-3.755 6.75 3.788.005 7.877-6.715 3.755-6.75-3.855z"/><path fill="none" stroke="#6d82e9" stroke-linecap="round" stroke-linejoin="round" stroke-width=".465" d="m45.879 24.116-3.144 1.827-3.624 2.055-3.154-1.81-3.592-2.11-.01-3.637.032-4.166 3.144-1.827 3.624-2.055 3.154 1.81 3.592 2.11.01 3.637z"/><path fill="#8c80ff" fill-rule="evenodd" d="m19.005 16.222 6.682-3.755 6.75 3.788.006 7.877-6.716 3.755-6.75-3.855z"/><path fill="none" stroke="#5c00dc" stroke-linecap="round" stroke-linejoin="round" stroke-width=".465" d="m32.442 24.137-3.144 1.827-3.624 2.055-3.154-1.81-3.592-2.11-.01-3.637.032-4.166 3.144-1.827 3.624-2.055 3.154 1.81 3.592 2.11.01 3.637z"/><path fill="#a0ff80" fill-rule="evenodd" d="m39.367 27.892 6.682-3.755 6.75 3.788.006 7.877-6.716 3.755-6.75-3.855z"/><path fill="none" stroke="#2bb477" stroke-linecap="round" stroke-linejoin="round" stroke-width=".465" d="m52.776 35.728-3.144 1.827-3.624 2.055-3.154-1.81-3.592-2.11-.01-3.637.032-4.166 3.144-1.827 3.624-2.055 3.155 1.81 3.591 2.11.01 3.637z"/><path fill="#ff9e80" fill-rule="evenodd" d="m19.05 39.522 6.682-3.755 6.75 3.788.006 7.877-6.716 3.755-6.75-3.855z"/><path fill="none" stroke="#cf486c" stroke-linecap="round" stroke-linejoin="round" stroke-width=".465" d="m32.536 47.372-3.144 1.827-3.624 2.055-3.154-1.81-3.592-2.11-.01-3.637.032-4.166 3.144-1.827 3.624-2.055 3.154 1.81 3.592 2.11.01 3.637z"/><path fill-rule="evenodd" d="m25.859 27.912 6.584-3.779 6.848 3.812 2.462 9.342-8.375 4.405-7.565-6.047z"/><path fill="none" stroke="#4a2e3b" stroke-linecap="round" stroke-width=".465" d="M29.025 20.848s-.274-2.38-.177-4.702c3.354-3.647 6.842-4.332 6.842-4.332m-10.939 11.15s-1.557-1.066-3.62-2.138c-5.984-.222-8.218 1.537-8.218 1.537"/><path fill="#75624f" fill-rule="evenodd" d="M30.259 26.98s1.225-.284 3.285-1.408c1.222-.667 3.024-.914 1.447-3.229-1.38-2.026-5.04-2.625-8.173-.597-3.232 1.866-4.366 5.397-3.19 7.548 1.342 2.458 2.383.966 3.533.182 1.938-1.322 2.75-2.283 2.75-2.283"/><path fill="none" stroke="#4a2e3b" stroke-width=".465" d="M30.259 26.98s1.225-.284 3.285-1.408c1.222-.667 3.024-.914 1.447-3.229-1.38-2.026-5.04-2.625-8.173-.597-3.232 1.866-4.366 5.397-3.19 7.548 1.342 2.458 2.383.966 3.533.182 1.938-1.322 2.75-2.283 2.75-2.283"/><path fill="#75624f" fill-rule="evenodd" d="M30.013 27.122c-2.58 1.762-4.443 4.422-3.268 6.573 1.342 2.458 3.177 3.346 4.565 3.455 2.442.192 4.107-.802 4.28-.91.176-.105 1.819-1.135 2.76-3.396.535-1.285.58-3.323-.997-5.638-1.38-2.026-4.596-1.578-7.34-.084"/><path fill="none" stroke="#4a2e3b" stroke-width=".465" d="M29.911 27.193c-2.526 1.762-4.325 4.38-3.166 6.502 1.343 2.458 3.178 3.346 4.566 3.455 2.117.167 3.65-.558 4.133-.825.46-.305 1.812-1.328 2.645-3.282.546-1.28.608-3.318-.949-5.646-1.344-2.01-4.498-1.627-7.229-.204z"/><path fill="#75624f" fill-rule="evenodd" d="M34.481 34.992c-3.966 2.695-3.471 6.291-1.228 11.01 2.383 5.014 6.218 6.958 8.451 7.68 2.246.726 3.93.117 4.21.003.23-.198 1.54-1.42 1.916-3.75.374-2.317.39-6.616-2.988-11.02-3.179-4.147-6.155-6.225-10.36-3.922z"/><path fill="#ffda00" fill-rule="evenodd" d="M35.575 49.346c5.576.21 8.881-.6 11.623-6.45 0 0 .7 3.376.712 5.786-2.41 3.01-4.203 3.975-9.163 3.71-2.51-1.374-3.172-3.046-3.172-3.046m-3.967-7.961c5.15-.246 8.604-2.257 10.391-5.72 0 0 1.727 1.767 3.59 4.441-2.928 4.615-5.858 6.118-12.198 6.511-1.849-3.594-1.783-5.232-1.783-5.232"/><path fill="none" stroke="#4a2e3b" stroke-width=".465" d="M34.481 34.992c-3.966 2.695-3.471 6.291-1.228 11.01 2.383 5.014 6.218 6.958 8.451 7.68 2.246.726 3.93.117 4.21.003.23-.198 1.54-1.42 1.916-3.75.374-2.317.39-6.616-2.988-11.02-3.179-4.147-6.155-6.225-10.36-3.922z"/><path fill="url(#a)" fill-rule="evenodd" stroke="#7d7967" stroke-width=".465" d="M26.607 29.961c-1.804.847-4.064 30.319-1.724 31.371 1.16.521 5.71.007 8.33-2.013s3.31-5.546 3.482-7.058c.344-3.025-8.284-23.147-10.088-22.3zm7.358-4.348c1.612-1.173 28.52 11.061 28.313 13.618-.103 1.268-2.747 5.006-5.78 6.327s-6.455.225-7.863-.354c-2.816-1.157-16.283-18.419-14.67-19.59z" style="fill:#f7f2e4;fill-opacity:1"/></svg>