<svg xmlns="http://www.w3.org/2000/svg" viewBox="0 0 16.933 16.933"><rect width="14.817" height="14.817" x="1.058" y="1.05" fill="#279af6" rx="3.44" ry="3.44"/><path fill="#fff" d="M7.604 3.969c-.138 0-.17.006-.26.05a.66.66 0 0 0-.303.304.68.68 0 0 0-.026.465c.018.048.185.35.371.67s.338.595.339.61c0 .015-.458.82-1.018 1.79L5.69 9.624l-1.85.01-.104.049a.67.67 0 0 0-.317.315.5.5 0 0 0-.05.255c0 .125.008.163.05.252a.65.65 0 0 0 .426.356c.036.009 1.375.016 3.02.017l2.956.002.034-.037c.028-.03.033-.063.032-.205-.003-.43-.25-.84-.59-.975-.063-.025-.198-.03-1.118-.038l-1.049-.01.299-.514c1.859-3.198 2.46-4.24 2.488-4.313a.5.5 0 0 0 .026-.227.61.61 0 0 0-.354-.542c-.092-.044-.123-.05-.26-.05a.5.5 0 0 0-.267.05c-.151.07-.243.177-.43.505-.085.15-.16.272-.167.272s-.082-.122-.167-.272c-.188-.33-.266-.421-.422-.498-.105-.052-.13-.057-.273-.057zm1.792 2.449c-.037-.001-.133.093-.199.195-.23.356-.322 1.088-.194 1.547.025.087.326.623 1.312 2.327.704 1.217 1.306 2.243 1.34 2.28a.622.622 0 0 0 1.076-.474.7.7 0 0 0-.044-.194c-.02-.043-.184-.333-.364-.645l-.33-.566 1.1-.018.105-.049a.67.67 0 0 0 .317-.315.5.5 0 0 0 .05-.254.47.47 0 0 0-.05-.253.67.67 0 0 0-.315-.317l-.106-.05-1.831-.01-.923-1.601c-.508-.881-.933-1.603-.944-1.603m-4.361 4.748a.6.6 0 0 0-.218.027c-.037.02-.104.118-.258.383-.311.533-.335.586-.334.757 0 .27.148.484.405.588a.76.76 0 0 0 .482-.021c.16-.077.236-.177.576-.766l.316-.55-.028-.05c-.074-.132-.297-.264-.556-.328a1.8 1.8 0 0 0-.385-.04"/><path d="M1.058 12.17v.265a3.433 3.433 0 0 0 3.44 3.44h7.937a3.433 3.433 0 0 0 3.44-3.44v-.265a3.433 3.433 0 0 1-3.44 3.44H4.498a3.433 3.433 0 0 1-3.44-3.44" opacity=".15"/><path fill="#fff" d="M1.058 4.763V4.5a3.433 3.433 0 0 1 3.44-3.44h7.937a3.433 3.433 0 0 1 3.44 3.44v.264a3.433 3.433 0 0 0-3.44-3.44H4.498a3.433 3.433 0 0 0-3.44 3.44z" opacity=".15"/><path fill="#ff528b" d="M16.096 10.55q-.077-.187-.174-.366a4.4 4.4 0 0 0-.757-1.006q-1.24-1.24-2.994-1.24t-2.994 1.24-1.24 2.993c0 1.753.414 2.167 1.24 2.993q1.24 1.24 2.994 1.24t2.993-1.24a4.2 4.2 0 0 0 .99-1.522 4.3 4.3 0 0 0 .25-1.471 4.4 4.4 0 0 0-.182-1.27 4 4 0 0 0-.126-.351" image-rendering="optimizeSpeed"/><path fill="#fff" d="M12.121 9.362c-.367.013-.702.188-1.006.385-.182.095-.33.247-.494.411-.172.221-.26.498-.44.709-.112.289-.203.587-.171.902-.012.478-.004.968.178 1.417.3.803.946 1.501 1.762 1.74.133.04.52.071.5.04-.266-.01-.599-.17-.72-.336.049.08-.286-.061-.263-.18a1.7 1.7 0 0 1-.49-.488c-.154-.178-.184-.322-.24-.485-.111-.134-.1-.237-.018-.208-.116-.214-.383-.313-.371-.582-.016-.255-.115-.491-.063-.754.032-.225.016-.464.133-.664.083-.276.217-.52.442-.703.078-.126.346-.166.377-.253-.115 0 .173-.173.27-.168.084-.028.212-.055.077-.05.108-.077.473-.256.484-.171-.17.055.207-.067.294-.045.425-.013.855.163 1.125.507.344.392.442.961.344 1.468.11-.086-.064.318-.138.388-.047.146-.334.44-.388.358.043-.028-.2.171-.301.175-.456.163-.97-.135-1.133-.587-.058-.241-.126-.406-.039-.65.157-.508.843-.721 1.242-.377-.273-.372-.881-.374-1.151.002-.177.221-.316.495-.282.792.007.391.303.687.59.903-.088.154-.475-.395-.244-.076.13.199-.408-.434-.17-.11.267.293.68.51 1.075.414-.206-.02-.465.013-.628-.167.158-.013.515.129.748.036.3-.058.57-.232.77-.467.084-.034-.018.16.047-.021-.005-.138.108-.195.138-.157.036-.13.166-.499.175-.46 0 .119-.03.21.007.043-.027-.101.017-.245.036-.083a1.16 1.16 0 0 0-.04-.724c.148.138.007-.256-.075-.302.035-.22.185-.001.227.152-.024-.13-.003-.247-.029-.345a1.87 1.87 0 0 0-.792-.892c.152.21-.164-.174-.269-.067-.261-.047-.497-.241-.765-.18-.077.047-.347.015-.122-.021-.091-.019-.47.042-.2-.069zm2.177 1.574.005.024zm.005.024c.003.02.013.044.012.058.026.138.095.297.034.07a.5.5 0 0 1-.047-.128zm-2.046-1.565c.048.009.105.016.096.028.054-.012.065-.023-.096-.028m-2.145 1.138c-.076.17.056.13.036.015-.011.008-.038.005-.036-.015m-.098.43c-.097.211-.014.211 0 0m3.243.625c-.097.142.093.178 0 0m-.058.349q-.011.055-.034.106c.024-.031.04-.067.034-.106m-.034.106c-.061.08-.172.112-.054-.038-.12.03-.03.292.043.073zm-.337.254c-.115.007-.365.02-.113.079.051.005.074-.057.113-.08zm-1.15.013c.034.145.145.24.024.048zm-.071.129c-.067.122.26.396.092.168a2 2 0 0 1-.092-.168"/></svg>