<svg xmlns="http://www.w3.org/2000/svg" image-rendering="optimizeSpeed" viewBox="0 0 64 64"><rect width="55.999" height="55.999" x="4" y="4" fill="#ff504f" rx="13" ry="13"/><path d="M3.998 45.998v1c0 7.203 5.8 13.004 13.004 13.004h29.996c7.203 0 13.004-5.8 13.004-13.004v-1c0 7.203-5.8 13.002-13.004 13.002H17.002A12.975 12.975 0 0 1 3.998 45.998" opacity=".15"/><path fill="#fff" d="M3.998 18.004v-1C3.998 9.801 9.798 4 17.002 4h29.996c7.203 0 13.004 5.8 13.004 13.004v1c0-7.203-5.8-13.002-13.004-13.002H17.002A12.975 12.975 0 0 0 3.998 18.004" opacity=".15"/><path fill="#fdfefd" d="M31.999 14a20 16.5 0 0 0-20 16.5 20 16.5 0 0 0 7.918 13.123s.075.049.104.064a20 16.5 0 0 0 .199.125c.514.344 1.48 1.136 1.271 2.157-.281 1.375-1.748 2.803-2.02 3.142-.27.34-.477.717.167.739.728.023 1.976-.383 2.984-.883s2.236-1.661 3.016-1.899c.742-.306 1.663-.406 3.166-.3a20 16.5 0 0 0 3.195.232 20 16.5 0 0 0 20-16.5 20 16.5 0 0 0-20-16.5"/></svg>