<svg xmlns="http://www.w3.org/2000/svg" viewBox="0 0 64 64"><defs><linearGradient id="a" x1="32" x2="32" y1="2" y2="62" gradientTransform="translate(-106.59)" gradientUnits="userSpaceOnUse"><stop offset="0" stop-color="#58baff"/><stop offset=".225" stop-color="#50b7ff"/><stop offset=".225" stop-color="#4592e5"/><stop offset=".461" stop-color="#3b8de4"/><stop offset=".461" stop-color="#376dc4"/><stop offset=".754" stop-color="#3366b7"/><stop offset=".754" stop-color="#294a96"/><stop offset="1" stop-color="#27468e"/></linearGradient><linearGradient id="b" x1="45" x2="45" y1="27" y2="63" gradientUnits="userSpaceOnUse"><stop offset="0" stop-color="#5a89d2"/><stop offset="1" stop-color="#2c5ea8"/></linearGradient></defs><rect width="56" height="56" x="4" y="4" fill="url(#a)" rx="13.002" ry="13.002"/><path d="M3.998 45.998v1c0 7.203 5.8 13.004 13.004 13.004h29.996c7.203 0 13.004-5.8 13.004-13.004v-1c0 7.203-5.8 13.002-13.004 13.002H17.002A12.975 12.975 0 0 1 3.998 45.998" opacity=".15"/><circle cx="45" cy="45" r="18" fill="url(#b)" fill-rule="evenodd" style="paint-order:stroke fill markers;fill:#4576bf;fill-opacity:1"/><path fill="#fff" d="M35 37.177h4.177l1.8 9.854 2.308-9.854h3.434l2.243 9.946 1.938-9.946H55L51.454 54h-4.252l-2.183-9.139L42.961 54H38.6z"/><path fill="#fff" d="M3.998 18.004v-1C3.998 9.801 9.798 4 17.002 4h29.996c7.203 0 13.004 5.8 13.004 13.004v1c0-7.203-5.8-13.002-13.004-13.002H17.002A12.975 12.975 0 0 0 3.998 18.004" opacity=".15"/></svg>