<svg xmlns="http://www.w3.org/2000/svg" viewBox="0 0 64 64"><rect width="56.002" height="56.002" x="4" y="3.969" fill="#f87055" rx="13.002" ry="13.002"/><path fill="#fff" d="M31.8 16.099c-8.87 0-16.063 7.192-16.063 16.063S22.929 48.225 31.8 48.225s16.063-7.192 16.063-16.063S40.671 16.099 31.8 16.099m0 30.118c-7.749 0-14.055-6.306-14.055-14.055S24.051 18.107 31.8 18.107s14.055 6.306 14.055 14.055S39.549 46.217 31.8 46.217m4.969-19.733-7.098 7.098-2.84-2.84a2.007 2.007 0 1 0-2.839 2.84l4.26 4.259a2.007 2.007 0 0 0 2.839 0l8.517-8.518a2.007 2.007 0 1 0-2.84-2.84z"/><path d="M3.998 45.998v1c0 7.203 5.8 13.004 13.004 13.004h29.996c7.203 0 13.004-5.8 13.004-13.004v-1c0 7.203-5.8 13.002-13.004 13.002H17.002A12.975 12.975 0 0 1 3.998 45.998" opacity=".15"/><path fill="#fff" d="M3.998 18.004v-1C3.998 9.801 9.798 4 17.002 4h29.996c7.203 0 13.004 5.8 13.004 13.004v1c0-7.203-5.8-13.002-13.004-13.002H17.002A12.975 12.975 0 0 0 3.998 18.004" opacity=".15"/></svg>