<svg xmlns="http://www.w3.org/2000/svg" viewBox="0 0 16.933 16.933"><defs><linearGradient id="a" x1="47.902" x2="47.902" y1="1016.9" y2="991.52" gradientTransform="translate(-12.692 -12.307)scale(.0679)" gradientUnits="userSpaceOnUse"><stop offset="0" stop-color="#fff"/><stop offset="1" stop-color="#fff" stop-opacity="0"/></linearGradient><linearGradient id="b" x1="48.543" x2="48.543" y1="1016.1" y2="993.68" gradientTransform="translate(-12.692 -12.307)scale(.0679)" gradientUnits="userSpaceOnUse"><stop offset="0" stop-color="#d6d6d6"/><stop offset="1" stop-color="#d0d0d0"/></linearGradient><linearGradient id="c" x1="31.807" x2="31.807" y1="26.918" y2="36.986" gradientTransform="translate(0 .004)scale(.26459)" gradientUnits="userSpaceOnUse"><stop offset="0"/><stop offset="1" stop-opacity=".5"/></linearGradient></defs><rect width="14.817" height="14.817" x="1.058" y="1.05" fill="#4d4d4d" rx="3.44" ry="3.44"/><path d="M8.467 6.878c-1.026 0-1.852.826-1.852 1.852s.826 1.852 1.852 1.852 1.852-.826 1.852-1.852-.826-1.852-1.852-1.852m0 .057c.994 0 1.795.8 1.795 1.795s-.8 1.795-1.795 1.795A1.79 1.79 0 0 1 6.672 8.73c0-.995.8-1.795 1.795-1.795" opacity=".087"/><path d="M7.808 6.084a.134.134 0 0 0-.135.134v1.457l.526.512-.526.512v2.543c0 .074.06.134.135.134h1.318c.075 0 .135-.06.135-.134V9.774l-.53-.515.53-.515V6.218a.134.134 0 0 0-.135-.134z" opacity=".25"/><path d="M8.467 6.738c-1.026 0-1.852.826-1.852 1.852s.826 1.852 1.852 1.852 1.852-.826 1.852-1.852-.826-1.852-1.852-1.852m0 .056c.994 0 1.795.801 1.795 1.796 0 .994-.8 1.795-1.795 1.795A1.79 1.79 0 0 1 6.672 8.59c0-.995.8-1.796 1.795-1.796" opacity=".122"/><path d="M7.808 5.944a.134.134 0 0 0-.135.134v1.456l.526.513-.526.512v2.542c0 .075.06.135.135.135h1.318c.075 0 .135-.06.135-.135V9.634l-.53-.515.53-.515V6.078a.134.134 0 0 0-.135-.134z" opacity=".35"/><rect width="11.642" height="11.642" x="2.646" y="2.651" fill="#f2f2f2" rx="5.821" ry="5.821"/><rect width="8.89" height="8.89" x="4.022" y="4.025" fill="#aa5ccb" rx="4.445" ry="4.445"/><rect width="6.879" height="6.879" x="5.027" y="5.032" fill="#f2f2f2" rx="3.44" ry="3.44"/><rect width="3.647" height="3.647" x="6.643" y="6.646" fill="url(#a)" rx="1.823" ry="1.823"/><rect width="3.366" height="3.366" x="6.784" y="6.787" fill="url(#b)" rx="1.683" ry="1.683"/><rect width="3.704" height="3.704" x="6.615" y="6.62" fill="#dfdfdf" rx="1.852" ry="1.852"/><path fill="url(#c)" d="M8.467 6.619c-1.026 0-1.852.826-1.852 1.852s.826 1.852 1.852 1.852 1.852-.826 1.852-1.852-.826-1.852-1.852-1.852m0 .056c.994 0 1.795.801 1.795 1.796 0 .994-.8 1.795-1.795 1.795a1.79 1.79 0 0 1-1.795-1.795c0-.995.8-1.796 1.795-1.796" opacity=".35"/><path fill="#333" d="M7.808 5.825a.134.134 0 0 0-.135.134v1.456l.526.512-.526.513v2.542c0 .075.06.135.135.135h1.318c.075 0 .135-.06.135-.135V9.515L8.73 9l.53-.515V5.959a.134.134 0 0 0-.135-.134z"/><path d="M1.058 12.17v.265a3.433 3.433 0 0 0 3.44 3.44h7.937a3.433 3.433 0 0 0 3.44-3.44v-.265a3.433 3.433 0 0 1-3.44 3.44H4.498a3.433 3.433 0 0 1-3.44-3.44" opacity=".5"/><path fill="#fff" d="M1.058 4.763V4.5a3.433 3.433 0 0 1 3.44-3.44h7.937a3.433 3.433 0 0 1 3.44 3.44v.265a3.433 3.433 0 0 0-3.44-3.44H4.498a3.433 3.433 0 0 0-3.44 3.44z" opacity=".15"/></svg>