<svg xmlns="http://www.w3.org/2000/svg" width="64" height="64"><defs><linearGradient id="a" x1="7.937" x2="7.937" y1="15.081" y2="1.852" gradientTransform="scale(3.7796)" gradientUnits="userSpaceOnUse"><stop offset="0" stop-color="#f1efeb"/><stop offset="1" stop-color="#fdfcfc"/></linearGradient><linearGradient id="e" x1="20.336" x2="20.336" y1="43.964" y2="12" gradientUnits="userSpaceOnUse"><stop offset="0" stop-color="#0bb0da"/><stop offset="1" stop-color="#2bccf6"/></linearGradient><linearGradient id="c" x1="42.426" x2="42.426" y1="52" y2="20" gradientUnits="userSpaceOnUse"><stop offset="0" stop-color="#ff210a"/><stop offset="1" stop-color="#ff5f4c"/></linearGradient><filter id="b" width="1.202" height="1.126" x="-.101" y="-.063" color-interpolation-filters="sRGB"><feGaussianBlur stdDeviation=".84"/></filter><filter id="d" width="1.202" height="1.126" x="-.101" y="-.063" color-interpolation-filters="sRGB"><feGaussianBlur stdDeviation=".84"/></filter></defs><rect width="56.002" height="56.002" x="4" y="3.969" fill="url(#a)" rx="13.002" ry="13.002"/><path d="M38 21a16 16 0 0 1 16 16 16 16 0 0 1-16 16h-4V21zm0 4v24a12 12 0 0 0 12-12 12 12 0 0 0-12-12" filter="url(#b)" opacity=".1"/><path fill="url(#c)" d="M38 20a16 16 0 0 1 16 16 16 16 0 0 1-16 16h-4V20zm0 4v24a12 12 0 0 0 12-12 12 12 0 0 0-12-12"/><path d="M26 13a16 16 0 0 0-16 16 16 16 0 0 0 16 16h4V13zm0 4v24a12 12 0 0 1-12-12 12 12 0 0 1 12-12" filter="url(#d)" opacity=".1"/><path fill="url(#e)" d="M26 12a16 16 0 0 0-16 16 16 16 0 0 0 16 16h4V12zm0 4v24a12 12 0 0 1-12-12 12 12 0 0 1 12-12"/></svg>