<svg xmlns="http://www.w3.org/2000/svg" viewBox="0 0 64 64"><rect width="56" height="56" x="4" y="4" fill="#4d4d4d" rx="13.002" ry="13.002"/><circle cx="32.02" cy="32.044" r="30.001" fill="none"/><rect width="26" height="36" x="19" y="14" fill="#fff" rx="2" ry="2"/><path fill="#e64c4c" d="M29.02 20.525c-.209.154-.261.384-.261.652 0 .5.209 1.113.313 1.343 0 0 .157 2.687.209 2.994-.47.038-1.305.076-1.618.153h-.418c-.888.039-1.723.077-2.088.345l-.157.116.157.153c.26.23.365.883.47 1.573.26 1.42.574 3.185 2.14 3.876l.313.116v-.27s.053-.114.053-.268c0-.115-.053-.307-.105-.575.418.038 1.305.115 1.619.115.052.307 1.41 12.818 1.41 12.818h.521s.575-12.356.575-12.74c.365 0 1.984.038 2.454.077-.105.23-.522 1.19-.522 1.19l.73-.5c.21-.115 4.751-3.146 4.126-5.142-.21-.652-.94-1.113-2.142-1.343h-.105c-.678 0-2.767.038-4.333.115.052-.998.052-1.535.052-1.803v-.346c0-.192.261-.46.47-.652.21-.23.47-.422.47-.653 0-.076-.052-.153-.104-.23-.313-.345-2.61-1.228-3.602-1.305-.313.038-.522.077-.626.192zm.052 6.293h.261c0 .346.157 2.763.21 3.109-.418-.039-1.41-.116-1.724-.116-.156-.498-.208-1.036-.26-1.573-.053-.46-.105-.921-.21-1.343.47 0 1.723-.077 1.723-.077m3.185 1.19s.052-.921.052-1.228c.679.077 1.566.115 2.402.115h.94c0 .154-.053.345-.053.345-.104.845-.26 1.842-.73 2.84-.314 0-2.246-.077-2.663-.115 0-.269.052-1.957.052-1.957"/><path d="M3.998 45.998v1c0 7.203 5.8 13.004 13.004 13.004h29.996c7.203 0 13.004-5.8 13.004-13.004v-1c0 7.203-5.8 13.002-13.004 13.002H17.002A12.975 12.975 0 0 1 3.998 45.998" opacity=".35"/><path fill="#fff" d="M3.998 18.004v-1C3.998 9.801 9.798 4 17.002 4h29.996c7.203 0 13.004 5.8 13.004 13.004v1c0-7.203-5.8-13.002-13.004-13.002H17.002A12.975 12.975 0 0 0 3.998 18.004" opacity=".15"/></svg>