<svg xmlns="http://www.w3.org/2000/svg" width="64" height="64" viewBox="0 0 16.933 16.933"><defs><linearGradient id="c" x1="14.552" x2="14.552" y1="7.408" y2="6.085" gradientUnits="userSpaceOnUse"><stop offset="0" stop-color="#5ac8fa"/><stop offset="1" stop-color="#3e7790"/></linearGradient><linearGradient id="b" x1="14.816" x2="14.816" y1="10.054" y2="8.731" gradientUnits="userSpaceOnUse"><stop offset="0" stop-color="#ff9500"/><stop offset="1" stop-color="#915400"/></linearGradient><linearGradient id="a" x1="14.287" x2="14.287" y1="12.7" y2="11.377" gradientUnits="userSpaceOnUse"><stop offset="0" stop-color="#4cd964"/><stop offset="1" stop-color="#2c7e3a"/></linearGradient><linearGradient id="d" x1="2.646" x2="14.189" y1="3.257" y2="14.287" gradientUnits="userSpaceOnUse"><stop offset="0" stop-color="#ca9c6b"/><stop offset="1" stop-color="#b08046"/></linearGradient></defs><path fill="url(#a)" d="M7.408 14.552A1.85 1.85 0 0 1 5.556 12.7v-1.852c0-.293.236-.53.53-.53h9.789c.293 0 .529.237.529.53V12.7a1.85 1.85 0 0 1-1.852 1.852z"/><rect width="10.848" height="4.233" x="5.556" y="7.673" fill="url(#b)" rx=".529" ry=".529"/><rect width="10.848" height="4.233" x="5.556" y="5.027" fill="url(#c)" rx=".529" ry=".529"/><path fill="#c4c2ba" d="M7.408 2.381a1.85 1.85 0 0 0-1.852 1.852v1.852c0 .293.236.53.53.53h9.789a.53.53 0 0 0 .529-.53V4.233a1.85 1.85 0 0 0-1.852-1.852z"/><rect width="14.817" height="14.817" x="1.058" y="1.05" fill="url(#d)" rx="3.44" ry="3.44"/><path fill="#fff" d="M4.498 1.05a3.43 3.43 0 0 0-3.44 3.44v.273a3.43 3.43 0 0 1 3.44-3.44h7.937a3.43 3.43 0 0 1 3.44 3.44V4.49a3.43 3.43 0 0 0-3.44-3.44z" opacity=".15"/><path d="M4.498 15.875a3.43 3.43 0 0 1-3.44-3.44v-.273a3.43 3.43 0 0 0 3.44 3.44h7.937a3.43 3.43 0 0 0 3.44-3.44v.273a3.43 3.43 0 0 1-3.44 3.44z" opacity=".15"/><path fill="#fff" d="M8.466 4.106a.3.3 0 0 0-.204.086L4.01 8.444a.29.29 0 0 0 0 .41.29.29 0 0 0 .412 0l4.044-4.047 4.047 4.046a.29.29 0 0 0 .41 0 .29.29 0 0 0 0-.41l-1.15-1.15v-1.7a.602.602 0 1 0-1.203 0v.497l-1.898-1.9a.3.3 0 0 0-.206-.085zm.001 1.513L5.16 8.928v2.98a.9.9 0 0 0 .902.904h1.503v-2.105c0-.49.391-.89.878-.904h.025c.498 0 .902.404.902.903v2.106h1.503a.9.9 0 0 0 .902-.903V8.927z"/></svg>