<svg xmlns="http://www.w3.org/2000/svg" viewBox="0 0 64 64"><rect width="56.002" height="56.002" x="4" y="3.969" fill="#f2f2f2" rx="13.002" ry="13.002"/><path d="M3.998 45.998v1c0 7.203 5.8 13.004 13.004 13.004h29.996c7.203 0 13.004-5.8 13.004-13.004v-1c0 7.203-5.8 13.002-13.004 13.002H17.002A12.975 12.975 0 0 1 3.998 45.998" opacity=".1"/><path fill="#fff" d="M3.998 18.004v-1C3.998 9.801 9.798 4 17.002 4h29.996c7.203 0 13.004 5.8 13.004 13.004v1c0-7.203-5.8-13.002-13.004-13.002H17.002A12.975 12.975 0 0 0 3.998 18.004" opacity=".5"/><path fill="#e55757" d="M17.652 15.043a2.603 2.603 0 0 0-2.61 2.609l.001 1.304h-1.304a2.603 2.603 0 0 0-2.609 2.608v9.13a2.603 2.603 0 0 0 2.609 2.61h5.217v1.303a2.603 2.603 0 0 0 2.608 2.61h7.826A2.603 2.603 0 0 0 32 34.606V29.39a2.603 2.603 0 0 0-2.609-2.608h-7.826a2.603 2.603 0 0 0-2.608 2.608v1.305H13.74v-9.13h1.304v1.304a2.603 2.603 0 0 0 2.609 2.608h5.217a2.603 2.603 0 0 0 2.608-2.608v-5.217a2.603 2.603 0 0 0-2.608-2.61z"/><path fill="#2387f0" d="M37.216 26.782a2.603 2.603 0 0 0-2.609 2.608v5.217a2.603 2.603 0 0 0 2.61 2.61h5.216a2.603 2.603 0 0 0 2.609-2.61v-1.304h5.217v9.13h-1.304V41.13a2.603 2.603 0 0 0-2.609-2.609H41.13a2.603 2.603 0 0 0-2.609 2.609v5.217a2.603 2.603 0 0 0 2.609 2.609h5.217a2.603 2.603 0 0 0 2.609-2.609v-1.304h1.304a2.603 2.603 0 0 0 2.609-2.609v-9.13a2.603 2.603 0 0 0-2.609-2.608h-5.217V29.39a2.603 2.603 0 0 0-2.609-2.608z"/><path fill="#999" d="M17.652 16.347c-.723 0-1.305.582-1.305 1.305v5.217c0 .722.582 1.304 1.305 1.304h5.217c.722 0 1.304-.582 1.304-1.304v-5.217c0-.723-.582-1.305-1.304-1.305zm11.738 0c-.722 0-1.304.582-1.304 1.305v5.217c0 .722.582 1.304 1.304 1.304h5.217c.723 0 1.305-.582 1.305-1.304v-5.217c0-.723-.582-1.305-1.305-1.305zm11.739 0c-.723 0-1.304.582-1.304 1.305v5.217c0 .722.581 1.304 1.304 1.304h5.217c.723 0 1.304-.582 1.304-1.304v-5.217c0-.723-.581-1.305-1.304-1.305zM21.564 28.086c-.722 0-1.304.582-1.304 1.304v5.217c0 .723.582 1.305 1.304 1.305h7.826c.723 0 1.305-.582 1.305-1.305V29.39c0-.722-.582-1.304-1.305-1.304zm15.652 0c-.723 0-1.304.582-1.304 1.304v5.217c0 .723.581 1.305 1.304 1.305h5.217c.723 0 1.305-.582 1.305-1.305V29.39c0-.722-.582-1.304-1.305-1.304zM17.652 39.825c-.723 0-1.305.581-1.305 1.304v5.217c0 .723.582 1.304 1.305 1.304h5.217c.722 0 1.304-.581 1.304-1.304V41.13c0-.723-.582-1.304-1.304-1.304zm11.738 0c-.722 0-1.304.581-1.304 1.304v5.217c0 .723.582 1.304 1.304 1.304h5.217c.723 0 1.305-.581 1.305-1.304V41.13c0-.723-.582-1.304-1.305-1.304zm11.739 0a1.3 1.3 0 0 0-1.304 1.304v5.217a1.3 1.3 0 0 0 1.304 1.304h5.217a1.3 1.3 0 0 0 1.304-1.304V41.13a1.3 1.3 0 0 0-1.304-1.304z"/></svg>