<svg xmlns="http://www.w3.org/2000/svg" stroke-linecap="round" stroke-linejoin="round" stroke-miterlimit="10" clip-rule="evenodd" viewBox="0 0 62.441 64"><defs><linearGradient id="a" x1="7.937" x2="7.937" y1="15.081" y2="1.852" gradientTransform="scale(3.7796)" gradientUnits="userSpaceOnUse"><stop offset="0" stop-color="#f1efeb"/><stop offset="1" stop-color="#fdfcfc"/></linearGradient></defs><rect width="56.002" height="56.002" x="4" y="3.969" fill="url(#a)" rx="13.002" ry="13.002"/><g transform="matrix(1.4 0 0 1.4 -9.783 -16.507)"><circle cx="37.788" cy="23.754" r="1.5" fill="#767677"/><circle cx="22.288" cy="46.254" r="2" fill="#9e9e9e"/><circle cx="20.788" cy="24.754" r="1.5" fill="#616262"/><path fill="#f37726" d="M29.288 24.254c-5 0-9 4-10 7 3-3 7-4 10-4s7 1 10 4c-1-3-5-7-10-7m-10 14c1 3 5 7 10 7s9-4 10-7c-3 3-7 4-10 4s-7-1-10-4"/></g></svg>