<svg xmlns="http://www.w3.org/2000/svg" viewBox="0 0 64 64"><rect width="56.002" height="56.002" x="4" y="3.969" fill="#f2f2f2" rx="13.002" ry="13.002"/><path fill="#f60" d="M19.692 23.385V34.89c0 1.395.145 2.665.428 3.824.285 1.129.718 2.135 1.395 2.954 1.692 2.045 4.18 2.637 6.466 2.64 2.79.004 5.25-.302 7.712-1.231V23.39h-3.692v17.226c-1.23.319-2.461.45-3.63.46-1.832.018-3.134-.538-3.913-1.613-.774-1.076-1.072-2.863-1.072-5.356v-10.72"/><path fill="#2d2d2d" d="M41.846 16h2.462v32h-2.462"/><path d="M3.998 45.998v1c0 7.203 5.8 13.004 13.004 13.004h29.996c7.203 0 13.004-5.8 13.004-13.004v-1c0 7.203-5.8 13.002-13.004 13.002H17.002A12.975 12.975 0 0 1 3.998 45.998" opacity=".1"/><path fill="#fff" d="M3.998 18.004v-1C3.998 9.801 9.798 4 17.002 4h29.996c7.203 0 13.004 5.8 13.004 13.004v1c0-7.203-5.8-13.002-13.004-13.002H17.002A12.975 12.975 0 0 0 3.998 18.004" opacity=".5"/></svg>