<svg xmlns="http://www.w3.org/2000/svg" width="64" height="64"><defs><linearGradient id="a" x1="7.937" x2="7.937" y1="15.081" y2="1.852" gradientTransform="scale(3.7796)" gradientUnits="userSpaceOnUse"><stop offset="0" stop-color="#eae8e9"/><stop offset="1" stop-color="#f9f8f9"/></linearGradient></defs><rect width="56.002" height="56.002" x="4" y="3.969" fill="url(#a)" rx="13.002" ry="13.002"/><path fill="#f60" d="M19.692 23.385V34.89c0 1.395.145 2.665.428 3.824.285 1.129.718 2.135 1.395 2.954 1.692 2.045 4.18 2.637 6.466 2.64 2.79.004 5.25-.302 7.712-1.231V23.39h-3.692v17.226c-1.23.319-2.461.45-3.63.46-1.832.018-3.134-.538-3.913-1.613-.774-1.076-1.072-2.863-1.072-5.356v-10.72"/><path fill="#2d2d2d" d="M41.846 16h2.462v32h-2.462"/></svg>