<svg xmlns="http://www.w3.org/2000/svg" viewBox="0 0 64 64"><rect width="56.002" height="56.002" x="4" y="3.969" fill="#4d4d4d" rx="13.002" ry="13.002"/><circle cx="32.02" cy="32.044" r="30.001" fill="none"/><path d="M3.998 45.998v1c0 7.203 5.8 13.004 13.004 13.004h29.996c7.203 0 13.004-5.8 13.004-13.004v-1c0 7.203-5.8 13.002-13.004 13.002H17.002A12.975 12.975 0 0 1 3.998 45.998" opacity=".35"/><path fill="#fff" d="M3.998 18.004v-1C3.998 9.801 9.798 4 17.002 4h29.996c7.203 0 13.004 5.8 13.004 13.004v1c0-7.203-5.8-13.002-13.004-13.002H17.002A12.975 12.975 0 0 0 3.998 18.004" opacity=".15"/><circle cx="32.02" cy="32.044" r="30.001" fill="none"/><path d="M12.56 12A1.56 1.56 0 0 0 11 13.565V33a8.37 8.37 0 0 0 1.444 4.72C16.714 44.07 24.579 53.536 32 54h19.001c.214 0 1 0 1.462-.39l.004-.002c.325-.286.533-.703.533-1.173V33a8.4 8.4 0 0 0-1.443-4.721c-2.259-3.358-5.527-7.577-9.199-10.886-2.116-1.857-4.328-3.42-6.453-4.376C34.603 12.45 33.295 12.08 32 12H19.4z" opacity=".15"/><path fill="#007ec2" d="M12.56 11A1.56 1.56 0 0 0 11 12.565V32a8.37 8.37 0 0 0 1.444 4.72C16.714 43.07 24.579 52.536 32 53h6.797l.974-.211H51.86c.214 0 .417-.066.603-.179l.004-.002c.325-.286.533-.703.533-1.173V32a8.4 8.4 0 0 0-1.444-4.721c-2.258-3.358-5.526-7.577-9.198-10.886-2.116-1.857-4.329-3.42-6.454-4.376C34.603 11.45 33.295 11.08 32 11H19.4z"/><path fill="#fff" d="M18.786 17.222c-.867 0-1.564.7-1.564 1.568v21.478c.97 6.34 9.319 12.244 14.732 12.732h5.774l.33-.105h13.378c.867 0 1.55-.863 1.564-1.732V31.955a8.4 8.4 0 0 0-1.447-4.731c-3.194-5.034-7.53-9.748-13.285-10.001H25.641z"/><path fill="#2fcdeb" d="M25.013 23.444c-.87 0-1.569.702-1.569 1.574v7.76h10.89v-5.111l14 9-14 8.944v-5.056h-10.89v4A8.426 8.426 0 0 0 31.89 53h19.54c.87 0 1.57-.702 1.57-1.573V31.889a8.426 8.426 0 0 0-8.445-8.445H31.889z"/></svg>