<svg xmlns="http://www.w3.org/2000/svg" xmlns:xlink="http://www.w3.org/1999/xlink" width="64" height="64"><defs><linearGradient id="e" x1="409.57" x2="409.75" y1="542.8" y2="506.01" gradientTransform="matrix(.86339 0 0 .8182 -320.77 -397.49)" gradientUnits="userSpaceOnUse"><stop offset="0" stop-color="#606060"/><stop offset=".491" stop-color="#414141"/><stop offset="1" stop-color="#1e1e1e"/></linearGradient><linearGradient id="c" x1="7.937" x2="7.937" y1="15.081" y2="1.852" gradientTransform="scale(3.7796)" gradientUnits="userSpaceOnUse"><stop offset="0" stop-color="#f1efeb"/><stop offset="1" stop-color="#fdfcfc"/></linearGradient><linearGradient xlink:href="#a" id="f" x1="24.79" x2="94.681" y1="64.485" y2="44.224" gradientTransform="rotate(-11.461 97.844 71.596)" gradientUnits="userSpaceOnUse"/><linearGradient id="a"><stop offset="0"/><stop offset="1" stop-opacity="0"/></linearGradient><linearGradient xlink:href="#a" id="g" x1="23.205" x2="89.898" y1="51.636" y2="51.636" gradientTransform="translate(0 15)" gradientUnits="userSpaceOnUse"/><linearGradient xlink:href="#b" id="h" x1="-31" x2="-27" gradientUnits="userSpaceOnUse"/><linearGradient id="b"><stop offset="0" stop-color="#1a1a1a"/><stop offset=".304" stop-color="#666"/><stop offset="1"/></linearGradient><linearGradient xlink:href="#a" id="i" x1="-29" x2="-29" y2="-2.5" gradientUnits="userSpaceOnUse"/><linearGradient xlink:href="#b" id="j" x1="-32" x2="-26" y1="56.094" y2="56.094" gradientUnits="userSpaceOnUse"/><linearGradient xlink:href="#a" id="k" x1="-29" x2="-29.237" y1="35.764" y2="74.234" gradientUnits="userSpaceOnUse"/><linearGradient id="l" x1="-33" x2="-25" y1="17.75" y2="17.75" gradientUnits="userSpaceOnUse"><stop offset="0" stop-color="#999"/><stop offset=".353" stop-color="#e6e6e6"/><stop offset="1" stop-color="#1f1f1f"/></linearGradient><linearGradient id="m" x1="-29" x2="-29" y1="35.5" gradientUnits="userSpaceOnUse"><stop offset="0" stop-opacity=".768"/><stop offset=".062" stop-opacity="0"/><stop offset=".939" stop-color="#fff" stop-opacity="0"/><stop offset="1" stop-color="#fff"/></linearGradient><linearGradient id="o" x1="-36" x2="-32" y1="16" y2="16" gradientTransform="matrix(-1 0 0 1 -66 0)" gradientUnits="userSpaceOnUse"><stop offset="0" stop-color="#ececec" stop-opacity="0"/><stop offset=".234" stop-color="#ccc"/><stop offset=".502" stop-color="#e6e6e6"/><stop offset="1" stop-color="#aaa"/></linearGradient><filter id="d" width="1.063" height="1.084" x="-.032" y="-.042" color-interpolation-filters="sRGB"><feGaussianBlur stdDeviation=".611"/></filter><filter id="n" width="1.72" height="1.051" x="-.36" y="-.026" color-interpolation-filters="sRGB"><feGaussianBlur stdDeviation=".3"/></filter></defs><rect width="56.002" height="56.002" x="4" y="3.969" fill="url(#c)" rx="13.002" ry="13.002"/><circle cx="32.02" cy="32.044" r="30.001" fill="none"/><rect width="46.303" height="34.939" x="334.23" y="513.13" filter="url(#d)" opacity=".75" ry="1.644" transform="matrix(.82048 0 0 .79623 -261.23 -390.57)"/><rect width="37.991" height="27.819" x="13" y="18.001" fill="url(#e)" ry="1.309"/><path fill="#fff" d="M14.309 18.002c-.725 0-1.309.583-1.309 1.309v25.2c0 .726.584 1.31 1.309 1.31H19v-27.82h-4.69z" opacity=".15"/><g fill="#ccc" stroke-width=".462"><circle cx="16.5" cy="29.5" r="1.5"/><circle cx="16.5" cy="25.5" r="1.5"/><circle cx="16.5" cy="21.502" r="1.5"/></g><path fill="url(#f)" d="M98.313 41.452a1.996 1.996 0 0 0-2.682-.9l-1.846.92a2.51 2.51 0 0 0-2.123-.968c-.162.01-.314.054-.475.097l-.473-.952-25.067 12.477.445.896-3.133 1.56a2.47 2.47 0 0 0-1.345 1.786 988 988 0 0 0-7.693 3.899l-.112.056a775 775 0 0 0-6.827 3.537l-.028.014-.028.014c-.653.343-1.24.667-1.874 1.003l-.14.07c-.074.039-.15.071-.224.11-.438.227-.888.462-1.3.683-12.57 6.712-20.862 11.808-20.219 13.1.68 1.368 9.721-2.226 22.641-8.232a753 753 0 0 0 12.757-6.07c.997-.487 2.058-1.032 3.077-1.532.871-.428 1.758-.844 2.644-1.281a2.48 2.48 0 0 0 2.236.004L94.276 47.93a2.486 2.486 0 0 0 1.291-2.877l1.847-.919a1.996 1.996 0 0 0 .899-2.682" opacity=".3" transform="matrix(.43361 -.10985 .12303 .38719 9.478 9.697)"/><path fill="url(#g)" d="M104.29 57.146a1.996 1.996 0 0 0-2.45-1.414l-1.992.534a2.51 2.51 0 0 0-1.887-1.371c-.161-.022-.32-.01-.486 0L97.2 53.87l-27.046 7.247.26.966-3.382.906a2.47 2.47 0 0 0-1.673 1.484c-2.855.774-5.632 1.54-8.314 2.292l-.121.033c-2.56.718-5.034 1.423-7.393 2.11l-.03.008-.03.008c-.71.207-1.35.407-2.037.61-.05.016-.1.026-.151.041-.08.024-.161.04-.242.065-.474.135-.961.276-1.41.41-13.652 4.08-22.792 7.428-22.418 8.822.395 1.475 9.97-.25 23.826-3.57a750 750 0 0 0 13.708-3.414c1.073-.278 2.222-.601 3.32-.89.939-.246 1.89-.477 2.846-.73a2.47 2.47 0 0 0 2.19.448l29.944-8.023a2.486 2.486 0 0 0 1.837-2.563l1.992-.533a1.996 1.996 0 0 0 1.415-2.45z" opacity=".6" transform="matrix(.43361 -.10985 .12303 .38719 9.478 9.697)"/><g transform="matrix(.32335 .2804 -.314 .28873 63.696 22.735)"><rect width="4" height="8" x="-31" y="-4" fill="url(#h)" opacity=".733" rx="2" ry="2"/><rect width="4" height="8" x="-31" y="-4" fill="url(#i)" opacity=".733" rx="2" ry="2"/><path fill="url(#j)" d="M-32 32.25c.01 26.348.846 47.688 3 47.688 2.28 0 2.99-21.339 3-47.688z"/><path fill="url(#k)" d="M-32 32.25c.01 26.348.846 47.688 3 47.688 2.28 0 2.99-21.339 3-47.688z" opacity=".8"/><path fill="url(#l)" d="M-30.5 0A2.495 2.495 0 0 0-33 2.5v31c0 .824.389 1.545 1 2h6c.611-.455 1-1.176 1-2v-31c0-1.385-1.115-2.5-2.5-2.5z"/><path fill="url(#m)" d="M-30.5 0A2.495 2.495 0 0 0-33 2.5v31c0 .824.389 1.545 1 2h6c.611-.455 1-1.176 1-2v-31c0-1.385-1.115-2.5-2.5-2.5z"/><path fill="#fff" d="M-31.969 40.062c.005.67.026 1.279.031 1.938h5.875c.006-.66.027-1.267.031-1.938zm.031 4.063q.045 4.1.125 7.874h5.625q.08-3.773.125-7.875zm.188 10c.015.611.014 1.277.031 1.874h5.438c.015-.597.016-1.263.03-1.875z" opacity=".108"/><path d="M-33 3h2v28h-2z" filter="url(#n)" opacity=".4"/><path fill="url(#o)" d="M-34 2v28h2V8h2V4h-2V2z"/></g></svg>