<svg xmlns="http://www.w3.org/2000/svg" viewBox="0 0 64 64"><defs><filter id="a" width="1.12" height="1.12" x="-.06" y="-.06" color-interpolation-filters="sRGB"><feGaussianBlur stdDeviation="1.2"/></filter></defs><rect width="56.002" height="56.002" x="4" y="3.969" fill="#f2f2f2" rx="13.002" ry="13.002"/><path d="M3.998 45.998v1c0 7.203 5.8 13.004 13.004 13.004h29.996c7.203 0 13.004-5.8 13.004-13.004v-1c0 7.203-5.8 13.002-13.004 13.002H17.002A12.975 12.975 0 0 1 3.998 45.998" opacity=".1"/><path fill="#fff" d="M3.998 18.004v-1C3.998 9.801 9.798 4 17.002 4h29.996c7.203 0 13.004 5.8 13.004 13.004v1c0-7.203-5.8-13.002-13.004-13.002H17.002A12.975 12.975 0 0 0 3.998 18.004" opacity=".5"/><g stroke-width=".361"><path fill="#b8b8b8" d="M24.787 20.098h-2.885v5.77h2.885zm14.426 0h2.885v5.77h-2.885z" enable-background="new"/><circle cx="32" cy="36.689" r="16.59" fill="#d4d3d0" enable-background="new"/><circle cx="32" cy="36.689" r="15.148" fill="#f5f5f5" enable-background="new"/><circle cx="36.689" cy="-32" r="13.705" fill="#241f31" enable-background="new" transform="rotate(90)"/><circle cx="40.407" cy="-27.157" r="12.984" fill="#3a3543" transform="rotate(15)scale(1 -1)"/></g><g fill-rule="evenodd"><path fill="#1a1a1a" fill-opacity=".4" d="m527.04 1123.5-24 48h48z" filter="url(#a)" transform="translate(-15.509 -72.153)scale(.09014)"/><path fill="#ed333b" d="m32 28.754-2.164 4.328h4.328z"/><path fill="#fff" fill-opacity=".373" d="m31.999 28.754-2.163 4.327h2.163z"/></g><circle cx="32" cy="36.689" r="4.311" fill="#b3b3b3" enable-background="new"/><path fill="none" stroke="#f6f5f4" stroke-width=".721" d="M32 48.951v-2.164m0-20.197v-2.164m12.262 12.262h-2.164m-20.197 0h-2.164m3.592 8.67 1.53-1.53m14.28-14.281 1.531-1.53m0 17.342-1.53-1.53M24.859 29.546l-1.53-1.53"/><path fill="none" stroke="#fff" stroke-width=".361" d="m29.607 48.716.281-1.415m4.222-21.224.282-1.415m9.634 14.417-1.415-.281m-21.224-4.22-1.415-.281m1.832 9.204 1.2-.802m17.992-12.024 1.2-.8m-3.384 17.008-.801-1.2m-12.022-17.99-.801-1.2m2.12 21.523.551-1.333m8.282-19.993.552-1.332m6.636 16.022-1.332-.552m-19.992-8.28-1.333-.553m0 9.385 1.333-.552m19.992-8.28 1.332-.553m-6.636 16.021-.552-1.332M27.86 26.69l-.552-1.333m-2.12 21.526.801-1.2m12.022-17.99.802-1.2M42.196 43.5l-1.2-.802M23.005 30.675l-1.2-.8m-1.831 9.204 1.415-.281m21.224-4.22 1.415-.281m-9.635 14.419L34.11 47.3m-4.222-21.224-.282-1.415" opacity=".2"/><path fill="#b8b8b8" d="M32 10c-5.56 0-10.098 4.538-10.098 10.098h2.885c0-4 3.212-7.213 7.213-7.213s7.213 3.212 7.213 7.213h2.884C42.097 14.538 37.56 10 32 10" color="#000" style="-inkscape-stroke:none"/><circle cx="32" cy="36.689" r="3.689" fill="#ccc" enable-background="new"/></svg>