<svg xmlns="http://www.w3.org/2000/svg" image-rendering="optimizeSpeed" viewBox="0 0 64 64"><defs><linearGradient id="b" x1="32" x2="32" y1="45" y2="19" gradientUnits="userSpaceOnUse"><stop offset="0" stop-color="#fff"/><stop offset="1" stop-color="#f9dfdf"/></linearGradient><linearGradient id="c" x1="32" x2="32" y1="43" y2="21" gradientUnits="userSpaceOnUse"><stop offset="0" stop-color="#196ce8"/><stop offset="1" stop-color="#34c6ef"/></linearGradient><linearGradient id="a" x1="7.937" x2="7.937" y1="15.081" y2="1.852" gradientTransform="scale(3.7796)" gradientUnits="userSpaceOnUse"><stop offset="0" stop-color="#b81e31"/><stop offset="1" stop-color="#ff5c5c"/></linearGradient></defs><rect width="56.002" height="56.002" x="4" y="3.969" fill="url(#a)" rx="13.002" ry="13.002" style="fill:#e8484e;fill-opacity:1"/><path fill="url(#b)" d="M32 19c-12.375 0-22 10.111-22 13.237C10 36.333 19.625 45 32 45s22-10.111 22-12.763C54 29.111 44.375 19 32 19" style="fill:#fff"/><circle cx="32" cy="32" r="11" fill="url(#c)" style="fill:#2aa6ed;fill-opacity:1"/><circle cx="32" cy="32" r="6" fill="#3f3f3f"/><path d="M3.998 45.998v1c0 7.203 5.8 13.004 13.004 13.004h29.996c7.203 0 13.004-5.8 13.004-13.004v-1c0 7.203-5.8 13.002-13.004 13.002H17.002A12.975 12.975 0 0 1 3.998 45.998" opacity=".15"/><path fill="#fff" d="M3.998 18.004v-1C3.998 9.801 9.798 4 17.002 4h29.996c7.203 0 13.004 5.8 13.004 13.004v1c0-7.203-5.8-13.002-13.004-13.002H17.002A12.975 12.975 0 0 0 3.998 18.004" opacity=".15"/></svg>