<svg xmlns="http://www.w3.org/2000/svg" image-rendering="optimizeSpeed" viewBox="0 0 64 64"><defs><linearGradient id="a" x1="318.56" x2="338.95" y1="43.832" y2="38.408" gradientTransform="translate(-12.938 -.111)scale(.12734)" gradientUnits="userSpaceOnUse"><stop offset="0" stop-color="#f4587a"/><stop offset="1" stop-color="#f15c7c"/></linearGradient><linearGradient id="b" x1="338.66" x2="361.42" y1="39.82" y2="35.21" gradientTransform="translate(-12.938 -.111)scale(.12734)" gradientUnits="userSpaceOnUse"><stop offset="0" stop-color="#f05c7c"/><stop offset="1" stop-color="#e4618a"/></linearGradient><linearGradient id="c" x1="353.24" x2="349.17" y1="92.659" y2="47.788" gradientTransform="translate(-12.938 -.111)scale(.12734)" gradientUnits="userSpaceOnUse"><stop offset="0" stop-color="#49abf5"/><stop offset=".302" stop-color="#4daaf6"/><stop offset=".566" stop-color="#7f85e1"/><stop offset=".797" stop-color="#ba6ab8"/><stop offset="1" stop-color="#d4629f" stop-opacity="0"/></linearGradient><linearGradient id="d" x1="337.89" x2="346.87" y1="97.453" y2="90.166" gradientTransform="translate(-12.938 -.111)scale(.12734)" gradientUnits="userSpaceOnUse"><stop offset="0" stop-color="#5793fa"/><stop offset="1" stop-color="#5793fa" stop-opacity="0"/></linearGradient><linearGradient id="e" x1="311.51" x2="324.03" y1="107.02" y2="54.408" gradientTransform="translate(-12.938 -.111)scale(.12734)" gradientUnits="userSpaceOnUse"><stop offset="0" stop-color="#8763fe"/><stop offset=".187" stop-color="#7e68fe"/><stop offset=".306" stop-color="#7d69fd"/><stop offset=".553" stop-color="#8b61f4"/><stop offset=".71" stop-color="#a359df"/><stop offset=".871" stop-color="#c754c0"/><stop offset="1" stop-color="#de549e" stop-opacity="0"/></linearGradient></defs><path fill="url(#a)" d="m30.085 3.656-2.442.482c-.391.084-.467.302-.458.647l.006 5.387c-.017.379-.059.587-.494.657-1.542.23-1.84.707-1.832 1.385.01.676.558 1.218 1.313 1.142.662-.074 1.156-.266 1.459-.879.117-.23.157-.71.128-1.197l-.006-4.285c.001-.3-.05-.467.348-.55l2.393-.482z" transform="translate(-79.345 .148)scale(3.7796)"/><path fill="url(#b)" d="m32.264 5.97.006 3.201c-.018.379-.054.552-.49.622-1.542.23-1.845.741-1.836 1.42.01.676.566 1.183 1.321 1.107.663-.073 1.139-.245 1.442-.857.118-.231.127-.69.137-1.184l-.004-6.556c0-.491-.112-.618-.671-.492l-2.397.487.427 2.305 1.722-.347c.23-.047.34.032.343.293z" transform="translate(-79.345 .148)scale(3.7796)"/><path fill="url(#c)" d="m32.264 5.97.006 3.201c-.018.379-.054.552-.49.622-1.542.23-1.845.741-1.836 1.42.01.676.566 1.183 1.321 1.107.663-.073 1.139-.245 1.442-.857.118-.231.127-.69.137-1.184l-.004-6.556c0-.491-.112-.618-.671-.492l-2.397.487.427 2.305 1.722-.347c.23-.047.34.032.343.293z" transform="translate(-79.345 .148)scale(3.7796)"/><path fill="url(#d)" d="m32.264 5.97.006 3.201c-.018.379-.054.552-.49.622-1.542.23-1.845.741-1.836 1.42.01.676.566 1.183 1.321 1.107.663-.073 1.139-.245 1.442-.857.118-.231.127-.69.137-1.184l-.004-6.556c0-.491-.112-.618-.671-.492l-2.397.487.427 2.305 1.722-.347c.23-.047.34.032.343.293z" transform="translate(-79.345 .148)scale(3.7796)"/><path fill="url(#e)" d="m30.085 3.656-2.442.482c-.391.084-.467.302-.458.647l.006 5.387c-.017.379-.059.587-.494.657-1.542.23-1.84.707-1.832 1.385.01.676.558 1.218 1.313 1.142.662-.074 1.156-.266 1.459-.879.117-.23.157-.71.128-1.197l-.006-4.285c.001-.3-.05-.467.348-.55l2.393-.482z" transform="translate(-79.345 .148)scale(3.7796)"/><path fill="#f2f2f2" d="M17.001 4A12.973 12.973 0 0 0 3.999 17v30a12.973 12.973 0 0 0 13.002 13.002h29.998A12.973 12.973 0 0 0 60.001 47V17.001A12.973 12.973 0 0 0 46.999 4zm26.528 8.22c1.01.02 1.247.637 1.248 2.031l.015 24.777c-.037 1.869-.071 3.603-.515 4.475-1.146 2.315-2.946 2.961-5.45 3.24-2.854.288-4.958-1.629-4.993-4.184-.036-2.565 1.11-4.502 6.937-5.369 1.647-.263 1.787-.918 1.854-2.35L42.6 22.738c-.013-.985-.423-1.283-1.296-1.107l-5.372 1.084-1.175.238-7.87 1.586c-1.502.312-1.309.943-1.314 2.076l.022 16.197c.11 1.837-.041 3.65-.485 4.522-1.146 2.315-3.01 3.044-5.513 3.322-2.855.288-4.926-1.759-4.962-4.314-.035-2.566 1.096-4.37 6.922-5.236 1.647-.264 1.802-1.05 1.87-2.48l-.024-20.364c-.035-1.304.252-2.13 1.73-2.445l8.05-1.588.198-.041 8.858-1.797c.529-.12.952-.179 1.29-.172z"/><path d="M3.999 45.998V47A12.975 12.975 0 0 0 17 60.002h30A12.975 12.975 0 0 0 60.002 47v-1.002A12.975 12.975 0 0 1 47 59H17A12.975 12.975 0 0 1 4 45.998z" opacity=".15"/><path fill="#fff" d="M3.999 18.002v-.994A12.975 12.975 0 0 1 17 4.006h30a12.975 12.975 0 0 1 13.002 13.002v1.002A12.975 12.975 0 0 0 47 5.008H17A12.975 12.975 0 0 0 4 18.01z" opacity=".15"/><g transform="translate(-.002 -.002)"><circle cx="46" cy="45" r="16" fill="#4d4d4d"/><path fill="#ccc" d="m52.385 35.023-.501 1.34a.24.24 0 0 0 .074.26l.59.452a.25.25 0 0 0 .272.004l1.163-.83a.21.21 0 0 1 .259.022l.487.487a.206.206 0 0 1 .022.258l-.83 1.163a.24.24 0 0 0 .004.272l.453.59a.25.25 0 0 0 .26.074l1.339-.501a.206.206 0 0 1 .243.088l.345.596a.205.205 0 0 1-.046.255l-1.104.909a.24.24 0 0 0-.066.264l.283.686c.035.084.14.149.234.14l1.423-.138a.21.21 0 0 1 .213.147l.178.666a.205.205 0 0 1-.11.234l-1.302.592a.24.24 0 0 0-.132.238l.097.736c.011.09.097.18.19.196l1.41.234a.21.21 0 0 1 .167.198v.689a.205.205 0 0 1-.167.197l-1.409.235a.24.24 0 0 0-.189.195l-.096.737a.25.25 0 0 0 .132.238l1.3.592a.21.21 0 0 1 .11.234l-.178.665a.206.206 0 0 1-.213.148l-1.422-.138a.24.24 0 0 0-.233.14l-.285.687a.24.24 0 0 0 .066.263l1.104.909c.072.06.093.173.045.255l-.344.596a.206.206 0 0 1-.244.088l-1.34-.501a.24.24 0 0 0-.26.074l-.452.59a.25.25 0 0 0-.004.273l.83 1.163a.21.21 0 0 1-.022.258l-.487.487a.206.206 0 0 1-.258.022l-1.163-.83a.24.24 0 0 0-.272.004l-.59.453a.25.25 0 0 0-.075.261l.502 1.338a.206.206 0 0 1-.088.243l-.596.345a.205.205 0 0 1-.255-.046l-.91-1.104a.24.24 0 0 0-.263-.066l-.686.284a.25.25 0 0 0-.14.233l.138 1.423a.21.21 0 0 1-.147.214l-.666.178a.205.205 0 0 1-.234-.11l-.592-1.303a.24.24 0 0 0-.238-.132l-.736.097a.25.25 0 0 0-.196.19l-.234 1.41a.21.21 0 0 1-.198.167h-.689a.205.205 0 0 1-.197-.167l-.235-1.409a.24.24 0 0 0-.195-.189l-.737-.096a.25.25 0 0 0-.238.132l-.592 1.3a.21.21 0 0 1-.234.11l-.665-.178a.206.206 0 0 1-.148-.213l.138-1.422a.24.24 0 0 0-.14-.233l-.687-.285a.24.24 0 0 0-.263.066l-.91 1.104a.21.21 0 0 1-.254.046l-.596-.345a.206.206 0 0 1-.088-.244l.501-1.34a.24.24 0 0 0-.074-.26l-.59-.452a.25.25 0 0 0-.273-.004l-1.163.83a.21.21 0 0 1-.258-.021l-.487-.488a.206.206 0 0 1-.022-.258l.83-1.162a.24.24 0 0 0-.004-.272l-.453-.59a.25.25 0 0 0-.261-.075l-1.338.501a.206.206 0 0 1-.244-.088l-.344-.596a.205.205 0 0 1 .046-.255l1.104-.909a.24.24 0 0 0 .066-.263l-.284-.687a.25.25 0 0 0-.233-.14l-1.423.139a.21.21 0 0 1-.213-.148l-.179-.666a.205.205 0 0 1 .11-.234l1.303-.592a.24.24 0 0 0 .132-.238l-.097-.736a.25.25 0 0 0-.19-.195l-1.41-.235a.21.21 0 0 1-.167-.197v-.69c0-.095.075-.182.167-.197l1.409-.235a.24.24 0 0 0 .189-.195l.096-.737a.25.25 0 0 0-.132-.238l-1.3-.591a.21.21 0 0 1-.11-.234l.178-.666a.206.206 0 0 1 .213-.148l1.422.138a.24.24 0 0 0 .233-.14l.285-.686a.24.24 0 0 0-.066-.264l-1.104-.909a.21.21 0 0 1-.046-.255l.345-.596a.206.206 0 0 1 .244-.088l1.34.502a.24.24 0 0 0 .26-.075l.452-.59a.25.25 0 0 0 .004-.272l-.83-1.163a.21.21 0 0 1 .022-.258l.487-.488a.206.206 0 0 1 .258-.022l1.162.83a.24.24 0 0 0 .273-.004l.59-.453a.25.25 0 0 0 .074-.26l-.501-1.339a.206.206 0 0 1 .088-.243l.596-.345a.205.205 0 0 1 .255.046l.909 1.104a.24.24 0 0 0 .263.066l.687-.283a.25.25 0 0 0 .14-.234l-.139-1.423a.21.21 0 0 1 .148-.213l.666-.178a.205.205 0 0 1 .234.11l.592 1.302a.24.24 0 0 0 .238.133l.736-.098a.25.25 0 0 0 .195-.19l.235-1.41a.21.21 0 0 1 .198-.167h.688c.096 0 .183.075.198.167l.235 1.41a.24.24 0 0 0 .195.188l.737.096a.25.25 0 0 0 .238-.132l.591-1.3a.21.21 0 0 1 .234-.11l.666.178c.092.025.157.12.148.213l-.138 1.422a.24.24 0 0 0 .14.233l.686.286a.24.24 0 0 0 .264-.067l.909-1.104a.21.21 0 0 1 .255-.045l.596.344c.083.048.12.156.088.244m-2.283 2.854a8.2 8.2 0 0 0-6.135-.85c-.386.097-.16.044-.16.044-.537.183-.752.738-.48 1.232 0 0-.157-.285.012.022l2.413 4.403c.364.663 1.273 1.19 2.03 1.174l5.35-.112c.33-.007 0 0 0 0 .548-.011.905-.473.785-.99a8.2 8.2 0 0 0-3.814-4.923zm-.134 14.318a8.2 8.2 0 0 0 3.889-4.822c.115-.381.044-.16.044-.16.12-.555-.245-1.024-.809-1.046l-.025-.001-5.016-.2c-.756-.03-1.675.479-2.052 1.137l-2.66 4.642c-.164.288 0 0 0 0-.272.476-.06 1.02.445 1.184 0 0-.319-.089 0 0a8.2 8.2 0 0 0 6.184-.734m-9.733-1.31c.394.355.972.267 1.248-.208 0 0-.166.287 0 0l2.69-4.624c.38-.655.362-1.705-.042-2.345l-2.68-4.245c-.188-.296-.014-.021-.014-.021-.3-.477-.89-.558-1.31-.177 0 0 .156-.172-.117.119a8.2 8.2 0 0 0-2.23 5.778 8.2 8.2 0 0 0 2.456 5.722z" class="shp86"/></g></svg>