<svg xmlns="http://www.w3.org/2000/svg" viewBox="0 0 64 64"><path fill="#1da5f6" d="M17.001 3.999A12.973 12.973 0 0 0 3.999 17.001v29.998a12.973 12.973 0 0 0 13.002 13.002h29.998a12.973 12.973 0 0 0 13.002-13.002V17.001A12.973 12.973 0 0 0 46.999 3.999z"/><path d="M3.998 45.998v1c0 7.203 5.8 13.004 13.004 13.004h29.996c7.203 0 13.004-5.8 13.004-13.004v-1c0 7.203-5.8 13.002-13.004 13.002H17.002A12.975 12.975 0 0 1 3.998 45.998" opacity=".15"/><path fill="#fff" d="M3.998 18.004v-1C3.998 9.801 9.798 4 17.002 4h29.996c7.203 0 13.004 5.8 13.004 13.004v1c0-7.203-5.8-13.002-13.004-13.002H17.002A12.975 12.975 0 0 0 3.998 18.004" opacity=".15"/><circle cx="32.02" cy="32.044" r="30.001" fill="none"/><path fill="#f9f9f9" d="M18 39c0-9.8 14-25.2 14-25.2S46 29.2 46 39c0 5.6-2.8 11.2-12.6 11.2S18 46 18 39"/><path d="M30.6 25c-2.8 0-3.96.654-5.6 1.4-2.51 3.5-4.2 7-4.2 11.2 0 5.6 5.6 11.2 11.2 11.2 6.134 0 8.4-1.4 9.8-2.8-1.082-1.153-2.26-1.517-4.2-2.1-7-2.1-8.4-6.3-8.4-9.1 0-2.595 1.4-5.6 4.2-5.6s4.9 2.1 4.9 2.1c-1.155-3.5-2.1-6.3-7.7-6.3" opacity=".1"/></svg>