<svg xmlns="http://www.w3.org/2000/svg" viewBox="0 0 64 64"><defs><linearGradient id="a" x1="93.5" x2="93.5" y2="19" gradientTransform="matrix(.13496 0 0 .12697 19.777 15.384)" gradientUnits="userSpaceOnUse"><stop offset="0" stop-color="#cf5049"/><stop offset="1" stop-color="#eb524a"/></linearGradient><linearGradient id="b" x1="136" x2="136" y1="171" y2="189" gradientTransform="matrix(.13496 0 0 .12697 19.777 15.384)" gradientUnits="userSpaceOnUse"><stop offset="0" stop-color="#b9271a"/><stop offset=".352" stop-color="#b9271d"/><stop offset=".67" stop-color="#bf2c22"/><stop offset="1" stop-color="#ca3c35"/></linearGradient></defs><rect width="56.002" height="56.002" x="4" y="3.969" fill="#f2f2f2" rx="13.002" ry="13.002"/><path d="M3.998 45.998v1c0 7.203 5.8 13.004 13.004 13.004h29.996c7.203 0 13.004-5.8 13.004-13.004v-1c0 7.203-5.8 13.002-13.004 13.002H17.002A12.975 12.975 0 0 1 3.998 45.998" opacity=".1"/><path fill="#fff" d="M3.998 18.004v-1C3.998 9.801 9.798 4 17.002 4h29.996c7.203 0 13.004 5.8 13.004 13.004v1c0-7.203-5.8-13.002-13.004-13.002H17.002A12.975 12.975 0 0 0 3.998 18.004" opacity=".5"/><path fill="#b63027" fill-rule="evenodd" d="M42.181 15.384H22.004l-2.227 2.413v6.602h12.956L21.126 36.588l-1.35 2.698v6.952h25.238v-6.952l-2.834-2.19h-8.975l11.81-12.697v-6.603z"/><path fill="url(#a)" d="M32.664 15.384h9.531l2.82 2.413H19.777l2.148-2.413z"/><path fill="#9e251b" d="M32.739 24.399h1.209L19.777 39.382l1.41-2.959z"/><path fill="url(#b)" d="M33.206 37.096h8.975l2.834 2.222-13.766.064z"/><path fill="#982017" d="M33.206 37.096h8.975l2.834 2.222-13.766.064z"/><path fill="#c5463e" d="M33.881 24.399h.337l-14.44 15.364v-.38z"/></svg>