<svg xmlns="http://www.w3.org/2000/svg" width="64" height="64"><defs><linearGradient id="a" x1="1.612" x2="14.263" y1="10.4" y2="6.533" gradientTransform="scale(3.7796)" gradientUnits="userSpaceOnUse"><stop offset="0" stop-color="#336791"/><stop offset="1" stop-color="#4184ba"/></linearGradient></defs><rect width="56" height="56" x="4" y="4" fill="url(#a)" rx="13" ry="13"/><path fill="#fff" d="M34.461 52.191c-.708-.171-1.331-.535-1.883-1.099-.59-.603-.917-1.177-1.307-2.296-.486-1.395-.649-2.506-.76-5.198-.034-.834-.077-1.53-.095-1.549s-.228.034-.465.115c-1.658.572-3.886.431-5.352-.337a4 4 0 0 1-.746-.508l-.273-.258-.33.227c-.653.449-1.102.6-1.895.637-.614.029-.802.01-1.191-.123-2.603-.882-4.748-4.925-6.637-12.508-.448-1.797-.826-3.662-1.035-5.103-.137-.944-.153-1.297-.12-2.588.058-2.163.315-3.377 1.027-4.848q1.85-3.817 6.496-4.417c1.05-.136 3.287-.047 4.522.178 1.085.198 2.18.464 2.944.715l.465.152.48-.238a10.7 10.7 0 0 1 2.341-.82c.6-.134.915-.154 2.3-.149 1 .004 1.842.045 2.236.109.578.093.68.09 1.167-.03 5.142-1.273 9.83-.309 12.937 2.661 1.53 1.464 1.978 2.328 2.152 4.154.278 2.936-.916 7.865-3.004 12.394-.44.952-1.212 2.455-1.613 3.138a3 3 0 0 0-.206.382c0 .079.701.022 1.504-.121 1.176-.21 1.849-.209 2.344.007.457.199.999.764 1.108 1.156.095.343.095.921 0 1.264-.205.737-1.073 1.624-2.319 2.368-1.283.768-2.83 1.173-4.71 1.235-.56.019-1.027.044-1.04.057s-.056.562-.097 1.22c-.19 3.141-.544 4.93-1.272 6.444-.927 1.928-2.31 2.943-4.776 3.506-.873.199-2.231.232-2.897.071m2.714-1.057c2.036-.432 3.287-1.265 3.95-2.63.165-.34.368-.881.451-1.202.17-.655.561-3.327.848-5.796.234-2.02.227-1.987.385-1.939.703.213 2.345.18 3.578-.072 1.27-.26 2.437-.833 3.294-1.62.612-.561.807-.863.812-1.259q.009-.594-.602-.79c-.34-.11-.27-.116-2.145.182-.93.147-2.266.11-2.716-.076-.17-.07-.31-.14-.31-.155s.144-.248.32-.52c1.454-2.258 3.126-5.848 4.015-8.622.943-2.945 1.407-5.821 1.222-7.582-.148-1.423-.462-2.05-1.595-3.182-2.693-2.693-6.67-3.671-11.215-2.76-.481.097-1.062.238-1.29.313-.407.135-.43.135-1.094 0-1.005-.203-2.952-.253-3.883-.1-.943.155-1.901.478-2.62.884l-.574.324-.701-.225c-2.608-.835-5.218-1.175-7.19-.934-3.194.39-5.286 2.054-6.185 4.922-.304.973-.422 1.799-.464 3.25-.046 1.559.027 2.226.497 4.6 1.072 5.402 2.641 9.997 4.275 12.518.508.783 1.305 1.572 1.878 1.86.384.191.513.218 1.057.217 1.024-.002 1.43-.281 2.908-2.004.464-.541 1.185-1.362 1.602-1.823l.813-.899c.03-.034.192.01.36.096.368.187 1.316.439 1.655.439.134 0 .244.035.244.078 0 .164-.781 1.01-1.094 1.184-.18.1-.814.3-1.408.445-1.195.292-1.545.439-1.822.768-.24.285-.294.466-.235.78.157.838 1.64 1.49 3.429 1.508 1.284.012 2.188-.248 3.19-.92l.491-.33.002.375c.005 1.17.15 4.977.216 5.645.14 1.42.27 1.961.67 2.788.305.626.466.859.89 1.282.562.56 1.188.915 1.832 1.038.61.116 1.558.093 2.26-.056zM34.9 49.978a3.5 3.5 0 0 1-.68-.345c-.576-.4-1.195-1.468-1.373-2.368-.22-1.114-.313-3.117-.328-7.035-.01-2.756-.015-2.854-.169-3.187-.362-.785-1.189-1.38-1.932-1.392-.335-.005-.345-.012-.301-.192.08-.321.58-1.637.925-2.428.75-1.726.95-2.653.951-4.429.001-1.744-.322-3.801-.72-4.588-.524-1.032-1.529-1.609-2.805-1.609-.87 0-2.132.333-3.094.817l-.428.215.05-.498c.146-1.445.665-3.317 1.24-4.477 1.024-2.065 2.45-3.295 4.487-3.866.561-.157.757-.173 2.078-.17 1.62.004 2.345.115 3.586.551 2.811.987 5.272 3.282 6.651 6.202.546 1.155.598 1.043-.487 1.05-1.475.009-2.442.332-3.086 1.03-1.372 1.489-.887 4.19 1.548 8.624.341.621.757 1.409.923 1.75s.534.926.815 1.3c.281.375.511.694.511.71s-.041.03-.092.03c-.155 0-.66.295-.904.527-.432.411-.605.947-.684 2.112-.145 2.153-.9 7.854-1.166 8.807-.311 1.112-.852 1.822-1.746 2.292-1.106.58-2.955.86-3.77.567m-7.713-9.828c-.83-.114-1.64-.345-1.64-.468 0-.032.418-.157.93-.278 1.711-.404 2.035-.584 2.862-1.592.672-.82.839-.972 1.067-.972.444 0 .912.552.927 1.092.005.212-.06.36-.291.667-.516.684-1.349 1.222-2.214 1.434-.383.093-1.325.16-1.64.117m-6.572-.685c-1.726-.878-3.776-5.66-5.233-12.202-.551-2.477-.71-3.515-.752-4.902-.059-1.994.181-3.42.786-4.671.78-1.616 1.985-2.528 4.003-3.033.9-.225 3.216-.22 4.488.011.921.167 2.097.447 2.68.637l.348.114-.379.413c-1.037 1.131-1.923 2.972-2.39 4.969-.362 1.541-.396 1.986-.407 5.213-.006 1.87-.042 3.275-.093 3.608-.318 2.096.214 3.952 1.517 5.293l.376.387-1.12 1.261a142 142 0 0 0-1.685 1.927c-.31.366-.695.756-.855.867-.395.274-.878.314-1.284.107zm23.34-.93c-1.05-.051-1.21-.136-1.154-.618.085-.73.284-1.004.837-1.153.254-.068.333-.053.738.143.25.121.682.258.961.305.601.102 2.21.043 3.028-.11.301-.056.557-.092.57-.08.044.041-.993.692-1.443.905-.825.39-2.414.664-3.537.609m-16.21-3.339c-1.291-.44-2.257-1.429-2.735-2.8-.184-.53-.217-.737-.223-1.388a19 19 0 0 1 .091-1.713c.061-.594.089-1.6.075-2.694l-.022-1.747.425-.274c1.221-.788 3.106-1.183 4-.838.417.16.808.592.962 1.061.242.733.422 2.078.46 3.422.052 1.928-.091 2.652-.889 4.484a31 31 0 0 0-.697 1.78l-.311.893-.3-.002c-.165 0-.541-.084-.835-.184m1.638-9.723c.333-.15.538-.393.538-.635 0-.527-1.363-.872-1.95-.494-.365.235-.075.86.525 1.132.37.168.512.168.887-.003m14.572 9.098c-.023-.059.072-.352.21-.65.626-1.359.734-2.568.44-4.954a14 14 0 0 1 .05-3.696c.087-.578.156-1.41.161-1.955.01-.876-.006-.988-.197-1.494-1.185-3.13-3.514-5.836-6.266-7.282-.314-.165-.527-.314-.474-.332.46-.15 1.381-.223 2.795-.22 1.371.004 1.711.028 2.346.165 1.858.402 3.378 1.17 4.632 2.342.744.695 1.137 1.225 1.303 1.759.597 1.918-.182 6.205-1.912 10.524-.544 1.356-1.705 3.722-2.402 4.89-.6 1.007-.63 1.048-.686.903m-1.266-2.05c-1.223-2.34-1.982-3.886-2.193-4.466-.966-2.666-.756-4.032.689-4.478.377-.117.685-.151 1.35-.151.473 0 .913.02.976.044.153.059.147.336-.032 1.596-.24 1.69-.25 2.244-.071 3.864q.3 2.713-.066 3.846c-.087.27-.182.492-.21.491-.03 0-.228-.336-.443-.747m-.513-7.595c.316-.215.523-.597.423-.783-.111-.208-.613-.307-1.084-.213-.878.175-1.058.638-.404 1.038.311.19.748.173 1.065-.042"/></svg>