<svg xmlns="http://www.w3.org/2000/svg" xmlns:xlink="http://www.w3.org/1999/xlink" viewBox="0 0 64 64"><defs><linearGradient id="b"><stop offset="0" stop-color="#a6e2a9" style="stop-color:#a4e1a7;stop-opacity:1"/><stop offset="1" stop-color="#74d179"/></linearGradient><linearGradient id="a"><stop offset="0" stop-color="#0e951b" style="stop-color:#4bc757;stop-opacity:1"/><stop offset="1" stop-color="#7aed85" style="stop-color:#61d96d;stop-opacity:1"/></linearGradient><linearGradient id="c" x1="48" x2="48" y1="90" y2="5.988" gradientTransform="matrix(.5 0 0 .5 77.015 -3.268)" gradientUnits="userSpaceOnUse"><stop offset="0" stop-color="#9fde93"/><stop offset="1" stop-color="#f0fef0"/></linearGradient><linearGradient xlink:href="#a" id="d" x1="-160.99" x2="-86.433" y1="-36.473" y2="-36.473" gradientUnits="userSpaceOnUse"/><linearGradient xlink:href="#b" id="e" x1="-160.99" x2="-86.433" y1="-36.473" y2="-36.473" gradientUnits="userSpaceOnUse"/></defs><rect width="56" height="56" x="4" y="4" fill="url(#c)" rx="13.002" ry="13.002" style="fill:#b4e6ac;fill-opacity:1"/><path fill="url(#d)" stroke="url(#e)" stroke-linecap="round" stroke-linejoin="round" stroke-width="6" d="m-105.15-7.607-34.277 1.637-18.557-28.866 15.72-30.503 34.277-1.637L-89.43-38.11z" style="stroke:#ddf2d9;stroke-opacity:1;fill:#61d96d;fill-opacity:1" transform="rotate(-12.18 152.925 -282.717)scale(.3123)"/><path fill="url(#d)" stroke="url(#e)" stroke-linecap="round" stroke-linejoin="round" stroke-width="6" d="m-105.15-7.607-34.277 1.637-18.557-28.866 15.72-30.503 34.277-1.637L-89.43-38.11z" style="stroke:#ddf2d9;stroke-opacity:1;fill:#61d96d;fill-opacity:1" transform="rotate(-12.18 239.362 -296.144)scale(.3123)"/><path fill="url(#d)" stroke="url(#e)" stroke-linecap="round" stroke-linejoin="round" stroke-width="6" d="m-105.15-7.607-34.277 1.637-18.557-28.866 15.72-30.503 34.277-1.637L-89.43-38.11z" style="stroke:#ddf2d9;stroke-opacity:1;fill:#61d96d;fill-opacity:1" transform="rotate(-12.18 184.521 -364.285)scale(.3123)"/><path d="M3.998 45.998v1c0 7.203 5.8 13.004 13.004 13.004h29.996c7.203 0 13.004-5.8 13.004-13.004v-1c0 7.203-5.8 13.002-13.004 13.002H17.002A12.975 12.975 0 0 1 3.998 45.998" opacity=".15"/><path fill="#fff" d="M3.998 18.004v-1C3.998 9.801 9.798 4 17.002 4h29.996c7.203 0 13.004 5.8 13.004 13.004v1c0-7.203-5.8-13.002-13.004-13.002H17.002A12.975 12.975 0 0 0 3.998 18.004" opacity=".15" style="opacity:.35"/></svg>