<svg xmlns="http://www.w3.org/2000/svg" viewBox="0 0 64 64"><rect width="56.002" height="56.002" x="4" y="3.969" fill="#4d4d4d" rx="13.002" ry="13.002"/><circle cx="32.02" cy="32.044" r="30.001" fill="none"/><path d="M3.998 45.998v1c0 7.203 5.8 13.004 13.004 13.004h29.996c7.203 0 13.004-5.8 13.004-13.004v-1c0 7.203-5.8 13.002-13.004 13.002H17.002A12.975 12.975 0 0 1 3.998 45.998" opacity=".35"/><path fill="#fff" d="M3.998 18.004v-1C3.998 9.801 9.798 4 17.002 4h29.996c7.203 0 13.004 5.8 13.004 13.004v1c0-7.203-5.8-13.002-13.004-13.002H17.002A12.975 12.975 0 0 0 3.998 18.004" opacity=".15"/><circle cx="32.02" cy="32.044" r="30.001" fill="none"/><g fill="#48a9f7" stroke-width=".808"><rect width="24" height="18" x="10" y="17" ry=".847"/><rect width="24" height="12" x="20.078" y="38" ry=".565"/><rect width="18" height="18" x="37" y="17" ry=".847"/></g><path fill="#fff" d="M10.848 17a.846.846 0 0 0-.848.848V20h24v-2.152a.846.846 0 0 0-.847-.848zm27 0a.846.846 0 0 0-.848.848V20h18v-2.152a.846.846 0 0 0-.847-.848zM20.643 38a.563.563 0 0 0-.564.564V41h24v-2.436a.563.563 0 0 0-.565-.564h-22.87z" opacity=".25"/></svg>