<svg xmlns="http://www.w3.org/2000/svg" viewBox="0 0 64 64"><defs><linearGradient id="a" x1="8.415" x2="8.415" y1="14.91" y2="2.074" gradientTransform="scale(3.7796)" gradientUnits="userSpaceOnUse"><stop offset="0" stop-color="#ffa355"/><stop offset="1" stop-color="#f55"/></linearGradient></defs><path fill="url(#a)" d="M17.001 4A12.973 12.973 0 0 0 3.999 17v30a12.973 12.973 0 0 0 13.002 13.002h29.998A12.973 12.973 0 0 0 60.001 47V17.001A12.973 12.973 0 0 0 46.999 4z" style="fill:#ff7855;fill-opacity:1"/><path fill="#fff" d="M43.527 12.188c-.336-.007-.758.054-1.287.174l-8.865 1.799-.193.039-8.047 1.588c-1.479.316-1.766 1.14-1.73 2.445l.023 20.363c-.068 1.431-.223 2.217-1.87 2.48-5.826.868-6.957 2.671-6.921 5.237.035 2.555 2.106 4.604 4.96 4.316 2.504-.278 4.368-1.008 5.514-3.324.444-.872.594-2.685.485-4.521l-.024-16.197c.005-1.134-.186-1.765 1.317-2.077l9.045-1.824v-.002l5.369-1.082c.873-.176 1.283.122 1.297 1.108l.023 12.102c-.067 1.43-.207 2.086-1.853 2.35-5.827.867-6.973 2.803-6.938 5.368.035 2.555 2.14 4.472 4.994 4.184 2.504-.278 4.303-.925 5.45-3.24.443-.872.48-2.606.517-4.475l-.016-24.777c0-1.394-.239-2.013-1.25-2.033z"/><path fill="#fff" fill-opacity=".937" d="M60 24.719a10 10 0 0 0-1.578.203c-1.275.287-2.44.818-3.514 1.514a20.6 20.6 0 0 0-3.89.074c-2.087.245-4.209.83-6.23 1.834v.559a18.4 18.4 0 0 1 6.288-1.899q.883-.103 1.752-.127c.476-.013.946.002 1.412.022-2.49 1.844-4.44 4.593-5.984 7.316v.008a15.9 15.9 0 0 1-3.463 4.443v.362l-.008.283a16.3 16.3 0 0 0 3.906-4.852c1.633-2.878 3.706-5.739 6.344-7.508 1.79.147 3.475.526 4.965 1.063v-.541a19.8 19.8 0 0 0-4.266-.957 10 10 0 0 1 2.791-1.107v.007A9.5 9.5 0 0 1 60 25.22zM4 27.004v.957c.192-.048.38-.105.576-.144 2.026 1.124 3.937 3.233 5.717 7.174A35 35 0 0 0 4 36.974v.547c1.744-.761 4.015-1.526 6.521-2.055 1.52 3.434 3.371 5.902 5.497 7.53q.189-.156.41-.301c-2.076-1.549-3.891-3.938-5.406-7.334 1.655-.323 3.38-.54 5.11-.559 1.164 1.819 2.497 3.714 4.272 5.318.378.342.784.663 1.203.973.24-.04.44-.096.62-.16a15 15 0 0 1-1.49-1.182c-1.639-1.48-2.898-3.234-4.012-4.955 1.649.024 3.281.226 4.816.674.603.176 1.235.42 1.885.693l-.002-.545a18 18 0 0 0-1.742-.628c-1.694-.495-3.488-.696-5.287-.7-.551-.87-1.078-1.727-1.578-2.52-1.753-2.776-3.983-4.108-6.26-4.53-1.313-.244-2.636-.182-3.903.056-.216-.115-.436-.195-.654-.293zm2.846.574a9 9 0 0 1 1.62.149c2.151.399 4.239 1.634 5.928 4.31.448.708.918 1.477 1.41 2.262-1.705.039-3.391.263-5.01.586-1.678-3.749-3.524-5.939-5.482-7.197a11 11 0 0 1 1.534-.11m35.77 2.047c-1.823 1.25-3.515 2.897-4.96 5.026-1.22 1.801-2.672 3.671-4.316 5.318-3.015-1.037-5.505-2.31-7.752-3.375v.56c2.121 1.015 4.497 2.21 7.354 3.208-.529.507-1.074.995-1.64 1.443a17.4 17.4 0 0 1-2.384 1.586 15 15 0 0 1-3.322-.744v.166c.007.122.005.24.01.361a15.5 15.5 0 0 0 2.54.617c-.82.39-1.668.693-2.544.893-.008.174-.014.35-.027.516a13.1 13.1 0 0 0 3.453-1.301c1.013.103 2.083.143 3.248.068.59-.038 1.18-.105 1.767-.182a4 4 0 0 1-.123-.486 27 27 0 0 1-1.673.166 20 20 0 0 1-2.448-.004 19 19 0 0 0 1.81-1.265 24 24 0 0 0 1.864-1.649c.202.067.415.127.621.192q.086-.24.205-.467c-.141-.044-.29-.083-.43-.129 1.602-1.633 3.011-3.456 4.202-5.21 1.334-1.969 2.88-3.514 4.545-4.706zM60 31.955c-.85.846-1.656 1.927-2.664 3.301-2.858 3.895-5.832 5.907-9.346 6.291a36 36 0 0 1-3.318.21c-.018.175-.045.327-.069.487a36 36 0 0 0 3.447-.203c3.673-.4 6.784-2.519 9.692-6.482.861-1.174 1.567-2.122 2.258-2.879z" color="#000" opacity=".35" style="font-feature-settings:normal;font-variant-alternates:normal;font-variant-caps:normal;font-variant-ligatures:normal;font-variant-numeric:normal;font-variant-position:normal;isolation:auto;mix-blend-mode:normal;shape-padding:0;text-decoration-color:#000;text-decoration-line:none;text-decoration-style:solid;text-indent:0;text-orientation:mixed;text-transform:none;white-space:normal"/><path d="M3.998 45.998v1c0 7.203 5.8 13.004 13.004 13.004h29.996c7.203 0 13.004-5.8 13.004-13.004v-1c0 7.203-5.8 13.002-13.004 13.002H17.002A12.975 12.975 0 0 1 3.998 45.998" opacity=".15"/><path fill="#fff" d="M3.998 18.004v-1C3.998 9.801 9.798 4 17.002 4h29.996c7.203 0 13.004 5.8 13.004 13.004v1c0-7.203-5.8-13.002-13.004-13.002H17.002A12.975 12.975 0 0 0 3.998 18.004" opacity=".15"/></svg>