<svg xmlns="http://www.w3.org/2000/svg" viewBox="0 0 64 64"><path fill="#d0f1ff" d="M35 3.969c6 0 25.002 19.03 25.002 25.03V16.972A12.973 12.973 0 0 0 47 3.969z"/><path fill="#fff" d="M17.002 7a9.95 9.95 0 0 0-9.97 9.97v30a9.95 9.95 0 0 0 9.97 9.97H47a9.95 9.95 0 0 0 9.97-9.97v-30A9.95 9.95 0 0 0 47 7zm0 1H47c4.97 0 8.97 4 8.97 8.97v30c0 4.97-4 8.97-8.97 8.97H17.002c-4.97 0-8.97-4-8.97-8.97v-30c0-4.97 4-8.971 8.97-8.971z"/><g fill="#fff"><path d="M48.999 8.001H50v23h-1z"/><path d="M55.999 14v1h-23v-1z"/></g><path fill="#52a8ff" d="M17.002 3.969c-1.35 0-2.652.203-3.875.582a13 13 0 0 0-6.166 4.14 12.93 12.93 0 0 0-2.894 6.946v.002Q4 16.295 4 16.97v29.998a12.96 12.96 0 0 0 3.8 9.203 13 13 0 0 0 5.327 3.217c.815.252 1.665.427 2.541.515h.002q.657.067 1.332.067H47c1.35 0 2.652-.203 3.875-.582a13 13 0 0 0 8.545-8.545c.379-1.223.582-2.524.582-3.875v-17.97C60.002 23 41 3.97 35 3.97z"/><path fill="#fff" d="M35 4c4 1 5 7 6 11 .97 3.88 3.18 6.545 9 8 4 1 8 .64 10 6 0-.024-.004-.048-.004-.072-.11-6.996-16.605-23.738-24.209-24.893C35.522 4.015 35.26 4 35 4"/><path d="M3.998 45.998v1c0 7.203 5.8 13.004 13.004 13.004h29.996c7.203 0 13.004-5.8 13.004-13.004v-1c0 7.203-5.8 13.002-13.004 13.002H17.002A12.975 12.975 0 0 1 3.998 45.998" opacity=".15"/><path fill="#fff" d="M3.998 18.004v-1C3.998 9.801 9.798 4 17.002 4h29.996c7.203 0 13.004 5.8 13.004 13.004v1c0-7.203-5.8-13.002-13.004-13.002H17.002A12.975 12.975 0 0 0 3.998 18.004" opacity=".15"/><path fill="#fff" fill-opacity=".987" d="M14.002 11.998h35.993a6.003 6.003 0 0 1 6.003 6.003v27.995a5.993 5.993 0 0 1-6.003 6.002H14.002a5.995 5.995 0 0 1-6.003-6.002V18a6.007 6.007 0 0 1 6.003-6.003" opacity=".15"/><path d="M25.999 35.003a3.001 3.001 0 1 1-6.003 0 3.001 3.001 0 0 1 6.003 0m7.998 0a3.001 3.001 0 1 1-6.003 0 3.001 3.001 0 0 1 6.003 0m8.006 0a3.001 3.001 0 1 1-6.003 0 3.001 3.001 0 0 1 6.003 0" opacity=".1"/><g stroke-width="3.78"><path fill="#f2f2f2" d="M18 28.002h28.003c1.104 0 1.996.892 1.996 1.996V36a2.003 2.003 0 0 1-1.996 1.996H18A2.003 2.003 0 0 1 15.997 36v-6.002A2 2 0 0 1 18 28.002"/><path fill="#2d2d2d" d="M23.995 33a3.001 3.001 0 1 1-6.003 0 3.001 3.001 0 0 1 6.003 0M32 33a3.001 3.001 0 1 1-6.003 0A3.001 3.001 0 0 1 32 33m7.998 0a3.001 3.001 0 1 1-6.003 0A3.001 3.001 0 0 1 40 33"/><path fill="#f2f2f2" d="M16.48 22h15.044a.48.48 0 0 1 .484.476v1.035a.484.484 0 0 1-.484.484H16.48a.484.484 0 0 1-.484-.484v-1.035a.48.48 0 0 1 .484-.477"/></g></svg>