<svg xmlns="http://www.w3.org/2000/svg" viewBox="0 0 64 64"><defs><linearGradient id="b" x1="481" x2="481" y1="-759.64" y2="-764.64" gradientTransform="matrix(2.3333 0 0 2.8001 -1087.4 2175)" gradientUnits="userSpaceOnUse"><stop offset="0" stop-color="#fff"/><stop offset="1" stop-color="#fff"/></linearGradient><linearGradient id="a" x1="30" x2="30" y1="18" y2="44" gradientUnits="userSpaceOnUse"><stop offset="0" stop-color="#18a303"/><stop offset="1" stop-color="#106802"/></linearGradient></defs><rect width="56.002" height="56.002" x="4" y="3.969" fill="#18ae0a" rx="13.002" ry="13.002"/><path fill="#fff" d="M17.002 8.97c-4.432 0-8 3.569-8 8v30c0 4.432 3.568 8 8 8H47c4.432 0 8-3.568 8-8v-30c0-4.432-3.568-8-8-8zm0 1.03H45v3H12.969v1H45v3H13.568v1H45v35.26h1V18h3v32.193h1V18h3.97v28.969a6.956 6.956 0 0 1-6.97 6.97H17.002a6.956 6.956 0 0 1-6.97-6.97V16.971a6.956 6.956 0 0 1 6.97-6.97zM46 10h1a7 7 0 0 1 2 .293V13h-3zm4 .682A6.96 6.96 0 0 1 52.732 13H50zM46 14h3v3h-3zm4 0h3.303a7 7 0 0 1 .668 2.97V17H50z" opacity=".25"/><path fill="#f2f2f2" d="M17 7C11.46 7 7 11.46 7 17v30a9.976 9.976 0 0 0 8.969 9.947c.58-.02 1.133-.037 1.449-.006h.002q.586.06 1.19.059H47c5.54 0 10-4.46 10-10V29.348C57 23.991 40.035 7 34.678 7H18.61z" style="fill:#e6e6e6"/><g fill-rule="evenodd" transform="translate(0 1)"><rect width="28" height="26" x="16" y="18" fill="#ccf4c6" ry="0" style="paint-order:normal"/><rect width="28" height="6" x="16" y="18" fill="#92e285" ry="0" style="paint-order:normal"/><path fill="url(#a)" d="M16 18v26h28V18zm1 1h8v4h-8zm9 0h8v4h-8zm9 0h8v4h-8zm-18 5h8v4h-8zm9 0h8v4h-8zm9 0h8v4h-8zm-18 5h8v4h-8zm9 0h8v4h-8zm9 0h8v4h-8zm-18 5h8v4h-8zm9 0h8v4h-8zm9 0h8v4h-8zm-18 5h8v4h-8zm9 0h8v4h-8zm9 0h8v4h-8z" style="paint-order:normal"/></g><path fill="#fff" d="M34.678 7.028c3.571.893 4.464 6.25 5.357 9.82.866 3.466 2.838 5.844 8.036 7.144 3.57.892 7.142.571 8.928 5.357 0-.022-.004-.044-.004-.065C56.898 23.038 42.17 8.09 35.381 7.059a10 10 0 0 0-.702-.031z"/><rect width="14" height="14" x="35" y="34" fill="url(#b)" ry="1"/><g stroke-width="1.012"><path fill="#228fff" d="M35.999 42H39v6h-3z"/><path fill="#ff8037" d="M39.999 37H44v11h-4z"/><path fill="#ffca22" d="M44.999 44H48v4h-3z"/></g></svg>