<svg xmlns="http://www.w3.org/2000/svg" width="64" height="64"><defs><filter id="b" width="1.214" height="1.219" x="-.107" y="-.109" color-interpolation-filters="sRGB"><feGaussianBlur stdDeviation="1.69"/></filter><filter id="c" width="1.083" height="1.113" x="-.042" y="-.057" color-interpolation-filters="sRGB"><feGaussianBlur stdDeviation=".534"/></filter><linearGradient id="a" x1="7.937" x2="7.937" y1="15.081" y2="1.852" gradientTransform="scale(3.7796)" gradientUnits="userSpaceOnUse"><stop offset="0" stop-color="#363636"/><stop offset="1" stop-color="#6c6c6c"/></linearGradient></defs><rect width="56.002" height="56.002" x="4" y="3.969" fill="url(#a)" rx="13.002" ry="13.002"/><path d="M14.766 14.809c-.978 0-1.766.79-1.766 1.768v33.562c0 .978.788 1.765 1.766 1.765h1.896c.979 0 1.766-.787 1.766-1.765 0 .978.79 1.765 1.768 1.765h1.896c.979 0 1.766-.787 1.766-1.765a1.76 1.76 0 0 0 1.765 1.765h1.897a1.76 1.76 0 0 0 1.765-1.765c0 .978.79 1.765 1.768 1.765h1.895c.978 0 1.767-.787 1.767-1.765 0 .978.787 1.765 1.766 1.765h1.896c.979 0 1.766-.787 1.766-1.765a1.76 1.76 0 0 0 1.765 1.765h1.897c.978 0 1.768-.787 1.768-1.765a1.76 1.76 0 0 0 1.765 1.765h1.897A1.76 1.76 0 0 0 51 50.139V16.577c0-.979-.787-1.768-1.765-1.768h-1.897c-.978 0-1.765.79-1.765 1.768 0-.979-.79-1.768-1.768-1.768h-1.897c-.978 0-1.765.79-1.765 1.768 0-.979-.787-1.768-1.766-1.768h-1.896c-.979 0-1.766.79-1.766 1.768 0-.979-.789-1.768-1.767-1.768h-1.895c-.978 0-1.768.79-1.768 1.768 0-.979-.787-1.768-1.765-1.768h-1.897c-.978 0-1.765.79-1.765 1.768 0-.979-.787-1.768-1.766-1.768h-1.896c-.979 0-1.768.79-1.768 1.768 0-.979-.787-1.768-1.766-1.768z" filter="url(#b)" opacity=".2"/><rect width="5.429" height="37.095" x="13" y="13.905" fill="#d8d8d8" ry="1.766"/><rect width="5.429" height="37.095" x="18.429" y="13.905" fill="#fff" ry="1.766"/><rect width="5.429" height="37.095" x="23.857" y="13.905" fill="#d8d8d8" ry="1.766"/><rect width="5.429" height="37.095" x="29.286" y="13.905" fill="#fff" ry="1.766"/><rect width="5.429" height="37.095" x="34.714" y="13.905" fill="#d8d8d8" ry="1.766"/><rect width="5.429" height="37.095" x="40.143" y="13.905" fill="#fff" ry="1.766"/><rect width="5.429" height="37.095" x="45.571" y="13.905" fill="#d8d8d8" ry="1.766"/><path d="M17.517 12.83c-.496 0-.898.577-.898 1.293v20.031c0 .717.402 1.294.898 1.294h1.827c.496 0 .894-.577.894-1.294v-20.03c0-.718-.398-1.294-.894-1.294zm5.425 0c-.496 0-.894.577-.894 1.293v20.031c0 .717.398 1.294.894 1.294h1.83c.496 0 .894-.577.894-1.294v-20.03c0-.718-.398-1.294-.894-1.294zm10.857 0c-.496 0-.894.577-.894 1.293v20.031c0 .717.398 1.294.894 1.294h1.83c.496 0 .894-.577.894-1.294v-20.03c0-.718-.398-1.294-.894-1.294zm5.428 0c-.496 0-.894.577-.894 1.293v20.031c0 .717.398 1.294.894 1.294h1.83c.497 0 .895-.577.895-1.294v-20.03c0-.718-.398-1.294-.894-1.294h-1.83zm5.429 0c-.496 0-.894.577-.894 1.293v20.031c0 .717.398 1.294.894 1.294h1.83c.496 0 .894-.577.894-1.294v-20.03c0-.718-.398-1.294-.894-1.294z" filter="url(#c)" opacity=".15"/><path fill="#4f4f4f" d="M17.517 12.096c-.496 0-.898.577-.898 1.293V33.42c0 .717.402 1.294.898 1.294h1.827c.496 0 .894-.577.894-1.294V13.39c0-.718-.398-1.294-.894-1.294zm5.425 0c-.496 0-.894.577-.894 1.293V33.42c0 .717.398 1.294.894 1.294h1.83c.496 0 .894-.577.894-1.294V13.39c0-.718-.398-1.294-.894-1.294zm10.857 0c-.496 0-.894.577-.894 1.293V33.42c0 .717.398 1.294.894 1.294h1.83c.496 0 .894-.577.894-1.294V13.39c0-.718-.398-1.294-.894-1.294zm5.428 0c-.496 0-.894.577-.894 1.293V33.42c0 .717.398 1.294.894 1.294h1.83c.497 0 .895-.577.895-1.294V13.39c0-.718-.398-1.294-.894-1.294h-1.83zm5.429 0c-.496 0-.894.577-.894 1.293V33.42c0 .717.398 1.294.894 1.294h1.83c.496 0 .894-.577.894-1.294V13.39c0-.718-.398-1.294-.894-1.294z"/><path fill="#fff" d="M17.517 12.095c-.496 0-.898.577-.898 1.294v.904c0-.716.402-1.293.898-1.293h1.827c.496 0 .894.577.894 1.293v-.904c0-.717-.398-1.294-.894-1.294zm5.425 0c-.496 0-.894.577-.894 1.294v.904c0-.716.398-1.293.894-1.293h1.83c.497 0 .895.577.895 1.293v-.904c0-.717-.399-1.294-.894-1.294zm10.857 0c-.496 0-.894.577-.894 1.294v.904c0-.716.398-1.293.894-1.293h1.83c.497 0 .895.577.895 1.293v-.904c0-.717-.399-1.294-.894-1.294zm5.429 0c-.496 0-.895.577-.895 1.294v.904c0-.716.399-1.293.895-1.293h1.83c.496 0 .894.577.894 1.293v-.904c0-.717-.398-1.294-.894-1.294zm5.428 0c-.496 0-.894.577-.894 1.294v.904c0-.716.398-1.293.894-1.293h1.83c.497 0 .895.577.895 1.293v-.904c0-.717-.398-1.294-.894-1.294z" opacity=".1"/></svg>