<svg xmlns="http://www.w3.org/2000/svg" viewBox="0 0 64 64"><defs><linearGradient id="a" x1="7.937" x2="7.937" y1="15.081" y2="1.852" gradientTransform="scale(3.7796)" gradientUnits="userSpaceOnUse"><stop offset="0" stop-color="#f1efeb"/><stop offset="1" stop-color="#fdfcfc"/></linearGradient></defs><rect width="56.002" height="56.002" x="4" y="3.969" fill="url(#a)" rx="13.002" ry="13.002" style="fill:#4d4d4d;fill-opacity:1"/><g style="display:inline"><path fill="#fff" d="M-2.363 4.564c-4.23 0-9.637 5.692-9.637 10.125v83.875h8v4h8v-6h-8v-6h8v6h8v4h8v4h8v4h8v-4h8v-8h-8v-4h8v4h8v4h8v-6h8v4h8V14.689c0-4.433-5.406-10.125-9.636-10.125Zm62.363 96v4h-8v6h8v-4h8v-6zm-16-18h8v6h-8zm-24 8h8v6h-8zm8 8h8v4h-8zm-24 6v6h8v-6z" style="display:inline" transform="translate(18.423 7.576)scale(.42429)"/><path fill="#deddda" d="M-4 12.564v16h42v-4h30v-12zm0 20v8H8v-4h60v-4zm0 12v12h58v-4h14v-8zm0 16v4h32v-4zm0 8v12h18v-4h54v-8zm0 16v4h22v-4zm0 0" style="display:inline" transform="translate(18.423 7.576)scale(.42429)"/></g><path d="M3.998 45.998v1c0 7.203 5.8 13.004 13.004 13.004h29.996c7.203 0 13.004-5.8 13.004-13.004v-1c0 7.203-5.8 13.002-13.004 13.002H17.002A12.975 12.975 0 0 1 3.998 45.998" opacity=".15" style="opacity:.35"/><path fill="#fff" d="M3.998 18.004v-1C3.998 9.801 9.798 4 17.002 4h29.996c7.203 0 13.004 5.8 13.004 13.004v1c0-7.203-5.8-13.002-13.004-13.002H17.002A12.975 12.975 0 0 0 3.998 18.004" opacity=".15" style="opacity:.1"/></svg>