<svg xmlns="http://www.w3.org/2000/svg" viewBox="0 0 64 64"><path fill="#d2f2ff" d="M35 3.969c6 0 25.002 19.03 25.002 25.03V16.972A12.973 12.973 0 0 0 47 3.969z"/><path fill="#fff" d="M17.002 7a9.95 9.95 0 0 0-9.97 9.97v30a9.95 9.95 0 0 0 9.97 9.97H47a9.95 9.95 0 0 0 9.97-9.97v-30A9.95 9.95 0 0 0 47 7zm0 1H47c4.97 0 8.97 4 8.97 8.97v30c0 4.97-4 8.97-8.97 8.97H17.002c-4.97 0-8.97-4-8.97-8.97v-30c0-4.97 4-8.971 8.97-8.971z"/><g fill="#fff"><path d="M48.999 8.001H50v23h-1z"/><path d="M55.999 14v1h-23v-1z"/></g><path fill="#5db6f9" d="M17.002 3.969c-1.35 0-2.652.203-3.875.582a13 13 0 0 0-6.166 4.14 12.93 12.93 0 0 0-2.894 6.946v.002Q4 16.295 4 16.97v27.463l10.684-2.987 3.46 2.11 8.028-2.38 7.913 2.433 5.703 1.146 4.379-1.297 5.394-1.15 10.441-7.18V29C60.002 23 41 3.97 35 3.97z"/><path fill="#fff" d="M35 4c4 1 5 7 6 11 .97 3.88 3.18 6.545 9 8 4 1 8 .64 10 6 0-.024-.004-.048-.004-.072-.11-6.996-16.605-23.738-24.209-24.893C35.522 4.015 35.26 4 35 4"/><path fill="#205395" d="m60.002 35.129-10.441 7.18-5.394 1.15-4.38 1.297-5.703-1.147-7.912-2.431-8.029 2.379-3.459-2.11L4 44.434v2.535a12.96 12.96 0 0 0 3.8 9.203 13 13 0 0 0 5.327 3.217 13 13 0 0 0 2.54.515h.003q.656.067 1.332.067H47c1.35 0 2.652-.203 3.875-.582a13 13 0 0 0 8.545-8.545c.379-1.223.582-2.524.582-3.875z"/><circle cx="14.677" cy="19.939" r="4" fill="#fff" opacity=".8" transform="rotate(-7.007)"/><path d="m18.143 43.557-6.34 11.112 14.37-13.491zm39.955-1.733-14.465 9.54 5.928-9.056-18.11 13.098 8.337-10.65-15.656 10.611-2.357 1.684 4.714-.8-5.181 3.72H47c1.35 0 2.652-.203 3.875-.582a13 13 0 0 0 8.545-8.545c.155-.5.273-1.015.367-1.54l-4.482 1.971 3.637-6.737z" opacity=".1"/><path d="M3.998 45.998v1c0 7.203 5.8 13.004 13.004 13.004h29.996c7.203 0 13.004-5.8 13.004-13.004v-1c0 7.203-5.8 13.002-13.004 13.002H17.002A12.975 12.975 0 0 1 3.998 45.998" opacity=".15"/><path fill="#fff" d="M3.998 18.004v-1C3.998 9.801 9.798 4 17.002 4h29.996c7.203 0 13.004 5.8 13.004 13.004v1c0-7.203-5.8-13.002-13.004-13.002H17.002A12.975 12.975 0 0 0 3.998 18.004" opacity=".15"/></svg>