<svg xmlns="http://www.w3.org/2000/svg" width="64" height="64"><defs><linearGradient id="b" x1="7.937" x2="7.937" y1="15.081" y2="1.852" gradientTransform="translate(3.431 3.457)scale(3.3743)" gradientUnits="userSpaceOnUse"><stop offset="0" stop-color="#aba7ab"/><stop offset="1" stop-color="#c0bec0"/></linearGradient><linearGradient id="a" x1="32.002" x2="32.002" y1="57.171" y2="7.001" gradientTransform="translate(69.517 -3.391)" gradientUnits="userSpaceOnUse"><stop offset="0" stop-color="#dbdbdb"/><stop offset="1" stop-color="#f6f6f6"/></linearGradient><linearGradient id="f" x1="46" x2="60" y1="35" y2="35" gradientTransform="translate(0 -3)" gradientUnits="userSpaceOnUse"><stop offset="0"/><stop offset="1" stop-opacity=".2"/></linearGradient><linearGradient id="e" x1="32" x2="46" y1="35" y2="35" gradientTransform="matrix(-1 0 0 1 78 -3)" gradientUnits="userSpaceOnUse"><stop offset="0"/><stop offset="1" stop-opacity="0"/></linearGradient><linearGradient id="d" x1="18" x2="32" y1="35" y2="35" gradientTransform="translate(0 -3)" gradientUnits="userSpaceOnUse"><stop offset="0"/><stop offset="1" stop-opacity=".25"/></linearGradient><linearGradient id="c" x1="4" x2="18" y1="35" y2="35" gradientTransform="matrix(-1 0 0 1 22 -3)" gradientUnits="userSpaceOnUse"><stop offset="0"/><stop offset="1" stop-opacity="0"/></linearGradient><linearGradient id="g" x1="46" x2="46" y1="60" y2="32" gradientUnits="userSpaceOnUse"><stop offset="0" stop-color="#94928f"/><stop offset="1" stop-color="#d7e8ee"/></linearGradient><linearGradient id="k" x1="45.293" x2="47.414" y1="50.95" y2="51.657" gradientUnits="userSpaceOnUse"><stop offset="0" stop-color="#c7c7c7"/><stop offset="1" stop-color="#f2f2f2"/></linearGradient><linearGradient id="j" x1="44.586" x2="46" y1="51.657" y2="52" gradientUnits="userSpaceOnUse"><stop offset="0" stop-color="#fff"/><stop offset="1" stop-color="#f8f8f8"/></linearGradient><linearGradient id="i" x1="47" x2="46.707" y1="45" y2="35.393" gradientUnits="userSpaceOnUse"><stop offset="0" stop-color="#c5302c"/><stop offset="1" stop-color="#e73834"/></linearGradient><radialGradient id="h" cx="46" cy="47" r="14" gradientTransform="matrix(1.1037 0 0 1.0834 -4.77 -3.92)" gradientUnits="userSpaceOnUse"><stop offset="0" stop-opacity="0"/><stop offset=".86" stop-opacity="0"/><stop offset="1"/></radialGradient></defs><path fill="url(#a)" d="M16.987 4A12.973 12.973 0 0 0 3.985 17.002V47a12.973 12.973 0 0 0 13.002 13.002h29.998A12.973 12.973 0 0 0 59.987 47V17.002A12.973 12.973 0 0 0 46.985 4z"/><rect width="49.997" height="49.997" x="7.003" y="7" fill="url(#b)" rx="10" ry="10"/><circle cx="32.02" cy="32.044" r="30.001" fill="none"/><path fill="#fff" d="M17.002 7a9.97 9.97 0 0 0-8.729 5.113c.692-.538 2.136-1.343 2.575-.855.527.605-.078.683-.508.86-.43.175-1.035.273-1.035.78 0 .198.013.56.021.905-.145-.002-.29-.01-.435-.01-.412 0-.82.02-1.229.037l-.002-.385c-.048.128-.088.26-.13.389h-.012c-.021.063-.033.13-.053.193a10 10 0 0 0-.13.47c-.03.116-.069.228-.095.347h.008q-.165.75-.215 1.539c.165-.249.403-.483.631-.711.382-.323.477-.591.393-.854.278-.009.554-.025.834-.025.136 0 .271.008.408.01a2 2 0 0 1-.072.42c-.176.527 0 2.5-.43 2.676-.424.173-1.357.172-1.795-.483v7.35c.22.117.443.106.76-.13.2-.141.228-.032.236.141-.331.137-.668.265-.996.409v5.134c1.024-.957 1.99-2.107 1.424-2.578-.808-.594-.774-1.254-.719-1.76q.307-.13.615-.257c.143.132.336.247.65.299.904.102 1.662-.058 2.276-.04a47 47 0 0 0-4.246 6.344v2.125a46 46 0 0 1 4.13-6.705c-.06.977-.1 1.96-.1 2.951 0 7.268 1.65 14.15 4.59 20.3a46.3 46.3 0 0 1-8.62-7.264v1.443a47.3 47.3 0 0 0 9.498 7.555 47 47 0 0 0 2.56 4.263h1.231a46 46 0 0 1-2.117-3.3 47 47 0 0 0 7.55 3.3h3.48a46 46 0 0 1-11.95-4.976 45.93 45.93 0 0 1-5.014-25.65c.03.03.064.048.092.084.606.86 2.676 2.773 2.676 3.105s-.86 3.965.254 7.227c1.113 3.281 1.973-.156 2.324-1.543.274-1.387-.078-1.465 1.211-2.676 1.29-1.21 4.473-3.027 5.254-3.36.781-.331.351.274.781 1.387.43 1.211-.098 3.614 1.29 2.93.937-.43 1.288-.156.937.781-.332 2.324-.332 3.867.176 4.649.683 1.113 2.148 5.86 2.5 4.043s-.43-2.93-1.29-3.536c-.859-.605-1.543-2.07-.507-3.613 1.035-1.543 1.035.606 1.718 1.387.86.605 1.036 1.543 1.465.86.43-.684 2.754-1.212 1.29-4.22-1.465-3.027-1.036-1.992-.352-3.105.078-.156.254-.332.43-.508.156.078.253.078.507 0 .332-.098.762-.097.684.078-.078.176 0 .508.176.684.175.078.253-.176.175-.352-.097-.175.254-.43.684-.43s.508-.078.684-.253c.175-.176.253-.078.43 0 .145.065.303-.064.544-.248.207.28.407.567.608.853q.749 1.065 1.443 2.188a4.6 4.6 0 0 0-.213 1.386h.176v-.254c.057-.315.123-.604.185-.888.11.18.223.355.33.537l-.007.02c-.176.43 0 1.113.43 1.894l.779.258q.666 1.274 1.263 2.603c-.023.001-.039-.007-.064-.004a1.8 1.8 0 0 0-.494.15c-1.543.684-.938.86 0 .606.605-.176.683.078.176.684.507.508.859.605.937.254l.043-.3c.306.743.6 1.492.873 2.257q.046 1.128.047 2.27c0 1.582-.092 3.136-.223 4.675-.122-.024-.232-.035-.232-.035s-1.895 0-3.106.43c-1.191.43-4.375-.606-6.015-1.036-1.719-.351-1.797-.43-2.149-.43s-.527-.253-.351-1.113c.176-.859-.332-1.035-.684-1.64-.43-.606-1.035-1.797-1.972-2.578-.606-.508-1.563-1.29-2.676-2.324 0 .507.254 1.035 1.035 1.718.957.957 1.738 3.965 2.676 4.825.937.859 1.719 1.113 1.719 1.543 0 .527 1.796.683 3.261 1.035 1.465.254 4.473.43 5.508.43s2.578-.958 1.465-.176c-1.211.78.078 1.035 1.289.175.075-.053.115-.093.172-.14a55 55 0 0 1-.442 3.426c-.166.085-.369.226-.648.464-1.191 1.036-1.797 2.5-3.008 3.008-.962.42-.627-.002-1.416.485H47a9.97 9.97 0 0 0 6.371-2.282c-.576-.881-1.11-1.717-1.468-2.382-.389-.77-.692-1.082-.922-1.102-.384-.033-.565.748-.602 1.59v.176c.078 1.464.156 2.324-1.387 1.289-1.543-1.036-2.402-1.133-1.543-2.07.447-.548-.325-.88-1.224-.897a54 54 0 0 0-1.02-4.957c.556.3 1.713.393 2.987.892 1.562.606 0 1.72.78 1.72s2.071.937 2.5.253c.43-.762.86-.508 1.974.352 1.035.957 2.324.703 1.894.351-.43-.351-1.387-1.113-1.894-2.5-.606-1.289-4.043-1.894-4.903-2.148s-1.543 1.113-1.894.254c-.322-.571-.887-1.21-1.438-1.236a.73.73 0 0 0-.517.19 52 52 0 0 0-.864-2.698 54.8 54.8 0 0 0-2.351-13.705c.038-.01.068-.024.111-.032h.156a1 1 0 0 0 .254-.078l-.078-.175s-.097.097-.156.058h-.176c-.063.021-.106.045-.16.067l-.072-.233c.016-.074.01-.146-.041-.146l-.006.004a52 52 0 0 0-.674-1.98c.043-.147.017-.266-.129-.35q-.08-.226-.164-.45c.028-.012.041-.023.074-.037.073-.024.108-.043.158-.064A46.1 46.1 0 0 1 57 34.39v-1.345a47.1 47.1 0 0 0-16.359-9.41c-.227-.37-.317-1.237-.652-1.479-.332-.273-.254-.098-.078-.352.176-.332.781-.761 1.465-.937.683-.176 0-.352-.254-.43-.156-.078-.254-.254-.508 0s-.683.254-.605 0 .078-.351-.352-.508c-.43-.156-.254-.507 0-.507s.156 0 .938-.43c.683-.527.586-.86.937-.781.43.254-.098.507-.351 1.113-.333.605.253.43.605.176.332-.254.684-.332.937-.508l.079-.078c.351.332.43.683.175.937-.527.508-.254.332.254.508.508.156 0 1.113 0 1.543 0 .508 1.465.86 1.64-.351.157-1.211-1.464-1.895-.35-2.676 1.035-.781.605-.957 1.113-1.387 0 .098.097 0 .175-.078l.079-.078a1.36 1.36 0 0 1 1.289 0c.351.156 2.402-1.992 3.183-3.535.781-1.641 1.211-4.141 0-3.536-1.188.604-2.044-.346-.945-1.107a47 47 0 0 1 4.121.275 10 10 0 0 0-1.63-1.146 68 68 0 0 0-1.356-.088q.207-.192.416-.38A10 10 0 0 0 47 7H17.003zm19.979 23.594c0-.02-.02-.04-.059-.04-.175 0-.175.177 0 .08.04 0 .059-.02.059-.04M51.825 9.735c0 .352-.098.508-.176.43-.254 0-.097-.176-.176 1.113-.078 1.29-.43 3.535.176 3.535.684 0 .254-.527.254-1.035s.098-.684.352-.684.254-.332 0-1.113-.098-1.289-.176-1.64c-.078-.176-.176-.43-.254-.606m-.639 5.846c-.042.002-.064.062-.064.209 0 .586-.332.683-.684.937-.332.254-.332.254-.254 1.543.079 1.367-1.132 2.305-1.816 2.832-.684.528-1.797.781-2.148.781-.45 0-.957.606-1.387.782-.254.078-.176.683.176 1.718.254 0 .351-.097.43-.175.175-.254.175-.684.175-.938 0-.605.606.176.86 0 .253-.176.332-.351.683-.605s.606.254 1.211-.176 1.035-.098 1.543-.352c.527-.254.273-1.386.781-2.324.528-.957.43-1.738-.078-2.246s1.035-.078 1.817-.508c.761-.43.253-.683-.352-.86-.454-.13-.765-.626-.893-.618M40.053 26.899a53 53 0 0 1 2.54 11.734 49 49 0 0 0-2.649-5.266c.114-.205.188-.436.084-.742-.088-.259-.186-.377-.287-.397-.113-.022-.229.1-.342.264a46 46 0 0 0-2.033-3.049c.01-.141-.01-.294.28-.412.527-.176.35-.43.78-.683.254-.254.684-.254 1.036-.43.097-.098.097-.43.175-.606.076-.244.328-.257.416-.414zm1.772.648c-.156 0-.078.098 0 .078.078 0 .078-.078 0-.078m-1.719.43c-.176 0-.332.176-.508.527l-.254.508c-.097.176 0 .527.254 1.035.078-.273.254-.703.508-1.21.352-.782.352-.86 0-.86m.098 2.148c-.176.352-.528.781-.86 1.29l.176.077.176-.253c.254-.352.508-.684.683-1.036zm-6.211 1.035c-.508 0-.86.274-.86.274s-.253.098-.175.605c.175.508.605.254.78.078.177-.175.255-.43.43-.605s.333-.352-.175-.352m.527 1.817c-.176 0-.176.176 0 .078.078 0 .078-.078 0-.078m.332.078c-.156 0-.156.176 0 .078.078 0 .078-.078 0-.078m-.43.352c-.156 0-.156.175 0 .078.079 0 .079-.078 0-.078m-1.113.078s-.176 0-.176.02v1.62h.176zm2.832.097c-.156 0-.156.176 0 .078.078 0 .078-.078 0-.078m-1.191.078c-.176 0-.176.176 0 .079.078 0 .078-.079 0-.079m-.684.176c-.176 0-.176.176 0 .078.078 0 .078-.078 0-.078m1.445.176c-.156 0-.156.176 0 .078.079 0 .079-.078 0-.078m2.422 1.719v.273a5.6 5.6 0 0 1-.507 1.114l.175.078.078-.176c.254-.43.352-.781.43-1.035v-.254zm-4.902.86c-.098.253-.176.605-.332.8a1.4 1.4 0 0 0-.352.508l.176.078.078-.176c.079-.098.176-.273.254-.351.176-.254.274-.508.352-.86zm3.691.077c-.175 0-.078.078 0 .078s.079-.078 0-.078m-1.21.352c-.157 0-.157.176 0 .078.078 0 .078-.078 0-.078m1.464.078c-.156 0-.156.176 0 .078.078 0 .078-.078 0-.078m.352 0c-.176 0-.176.176 0 .078.078 0 .078-.078 0-.078m-2.324.273c-.176 0-.078.079 0 .079s.078-.079 0-.079m-17.734.079c0 .253-.176.605-.43 1.21-.352.762.43 1.973.86 1.114.351-.606.175-1.387-.43-2.324m18.242.175c-.157 0-.157.176 0 .078.078 0 .078-.078 0-.078m-1.114.606c-.175 0-.175.156 0 .078.079 0 .079-.078 0-.078m.782 0c-.176 0-.176.156 0 .078.078 0 .078-.078 0-.078m1.21 0c-.175 0-.175.156 0 .078.079 0 .079-.078 0-.078m-2.5.078c-.175 0-.175.176 0 .078.079 0 .079-.078 0-.078m2.657.078c-.078.098-.156.176-.156.254-.274.254-.43.43-.782 1.035h.254l.078-.176c.254-.43.43-.605.606-.859.097 0 .097-.098.176-.176zm-1.114.45c-.175 0-.078.077 0 .077.079 0 .079-.078 0-.078zm-1.64.331c-.176 0-.176.176 0 .078.078 0 .078-.078 0-.078m1.21 0c-.175 0-.175.176 0 .078.079 0 .079-.078 0-.078m-2.323.098c-.176 0-.176.156 0 .078.078 0 .078-.078 0-.078m-.86.156c0 .274.078.528.078.762.176.176.254.43.43.684l.176-.079-.078-.175-.254-.508c-.176-.176-.176-.43-.176-.684zm2.578.606c-.175 0-.175.175 0 .078.078 0 .078-.078 0-.078m2.506.06c-.266-.012-.562.203-.69.467-.253.508-2.323 1.543-3.183 2.148-.937.606-1.113 1.114-.43 2.149.684 1.133 1.973 1.64 2.832 1.64.86 0 1.797-1.64 1.72-2.675-.098-1.016.253-1.543.253-2.832 0-.645-.236-.885-.502-.897m-2.584.37c-.176 0-.176.175 0 .077.078 0 .078-.078 0-.078zm.508.527a.44.44 0 0 0-.254.41c-.254.273-.605.43-.86.351v.176h.079c.254.078.605-.078.86-.43.175-.175.273-.253.35-.43zm6.219 2.144c-.54-.03-2.03.087-2.41.336-.528.352-.782.879-1.036 1.817-.175.605 0 1.367.508 2.148.156 0 .332-.332.508-.938.254-.859.43.332 1.035 1.114.606.86.508-.606 0-1.465s-.683-.527 0-1.035c.762-.43 0-.684-1.21-.86-1.212-.175 2.324-.859 2.753-1.035.108-.044.032-.072-.148-.082m2.619 2.074a53 53 0 0 1 1.36 6.239c-.316.09-.6.222-.784.422-.86.937-.43 1.289-1.113 1.289-.068 0-.123-.011-.178-.022.414-2.576.67-5.219.715-7.928" opacity=".35"/><path fill="url(#c)" d="M16.986 4C9.886 4 4.162 9.637 4 16.697v30.607a12.964 12.964 0 0 0 12.986 12.697H18V3.999z" opacity=".1"/><path fill="url(#d)" d="M18 4v56.002h14V4z" opacity=".2"/><path fill="url(#e)" d="M32 4v56.002h14V4z" opacity=".1"/><path fill="url(#f)" d="M46 4v56.002h.984A12.973 12.973 0 0 0 59.986 47V17.002A12.973 12.973 0 0 0 46.984 4z" opacity=".2"/><circle cx="46" cy="46" r="16" fill="url(#g)"/><circle cx="46" cy="46" r="14" fill="#fff"/><circle cx="46" cy="46" r="14" fill="url(#h)" opacity=".3"/><g fill="#777"><path d="M44.486 35.07h.729l1.773 3.346V35.07h.525v4h-.728l-1.774-3.346v3.346h-.525z" aria-label="N"/><path d="M33.994 44h.547l.84 3.381.84-3.381h.608l.84 3.381.84-3.381h.549l-1.005 4h-.68l-.845-3.472L35.677 48h-.681z" aria-label="W"/><path d="M54.414 44h2.53v.455h-1.989v1.185h1.905v.455h-1.905v1.45h2.036V48h-2.577z" aria-label="E"/><path d="M47.167 53.775v.528q-.308-.148-.581-.22t-.528-.072q-.442 0-.683.171-.239.172-.239.488 0 .265.158.402.161.134.606.217l.327.067q.605.115.892.407.29.29.29.777 0 .581-.392.881-.389.3-1.141.3-.284 0-.606-.064-.319-.064-.662-.19v-.557q.33.184.646.278t.622.094q.463 0 .715-.182t.252-.52q0-.295-.182-.46-.18-.167-.592-.25l-.33-.064q-.605-.12-.876-.378t-.27-.715q0-.53.372-.836.375-.306 1.031-.306.282 0 .574.051t.597.153" aria-label="S"/></g><path fill="#fd6761" d="m54.485 37.515-9.9 7.07L46 46z"/><path fill="url(#i)" d="m46 34 2 12h-2z" transform="rotate(45 46 46)"/><path fill="url(#j)" d="m46 58-2-12h2z" transform="rotate(45 46 46)"/><path fill="url(#k)" d="m46 58 2-12h-2z" transform="rotate(45 46 46)"/></svg>