<svg xmlns="http://www.w3.org/2000/svg" xml:space="preserve" viewBox="0 0 64 64"><defs><linearGradient id="a" x1="7.937" x2="7.937" y1="12.574" y2="4.903" gradientTransform="scale(3.7796)" gradientUnits="userSpaceOnUse"><stop offset="0" stop-color="#fdfcfc" style="stop-color:#000;stop-opacity:1"/><stop offset="1" stop-color="#f1efeb" style="stop-color:#ebc6a1;stop-opacity:1"/></linearGradient></defs><rect width="56.002" height="56.002" x="4" y="3.969" fill="url(#a)" rx="13.002" ry="13.002" style="fill:#848484;fill-opacity:1"/><rect width="46.958" height="5.172" x="8.522" y="11.758" ry="0" style="fill:#dd8d17;fill-opacity:1;stroke:none;stroke-width:.732563;stroke-linecap:round;stroke-linejoin:round"/><rect width="46.958" height="5.172" x="8.522" y="16.97" ry="0" style="fill:#bc4b24;fill-opacity:1;stroke:none;stroke-width:.732563;stroke-linecap:round;stroke-linejoin:round"/><path d="M3.998 45.998v1c0 7.203 5.8 13.004 13.004 13.004h29.996c7.203 0 13.004-5.8 13.004-13.004v-1c0 7.203-5.8 13.002-13.004 13.002H17.002A12.975 12.975 0 0 1 3.998 45.998" opacity=".15"/><path fill="#f9f9f9" d="M11.414 16.97h41.17v44.962h-41.17Zm0 0" style="fill:#f9f9f9;stroke-width:.54171"/><path fill="#77767b" d="M17.374 56.786h8.667v2.166h-8.667zm23.836 0h4.875v2.166h-4.876zm-13.543 0h11.917v2.166H27.667Zm0 0"/><path fill="#c0bfbc" d="M41.21 47.847h7.583v7.043H41.21Zm0-30.877h7.583v13H41.21Zm-8.668 25.46h7.584v12.46h-7.584zm-8.667 2.71h7.584v9.75h-7.584zm-8.668-9.21h7.584v15.168h-7.584zm0 15.71h7.584v3.25h-7.584zm0-34.67h7.584v18.418h-7.584zm17.335 0h7.584v24.92h-7.584zm8.668 13.543h7.583v16.793H41.21ZM23.875 16.97h7.584v4.875h-7.584zm0 5.417h7.584v22.21h-7.584zm0 0"/><path fill="#fff" d="M3.998 18.004v-1C3.998 9.801 9.798 4 17.002 4h29.996c7.203 0 13.004 5.8 13.004 13.004v1c0-7.203-5.8-13.002-13.004-13.002H17.002A12.975 12.975 0 0 0 3.998 18.004" opacity=".15"/></svg>