<svg xmlns="http://www.w3.org/2000/svg" viewBox="0 0 64 64"><rect width="56.002" height="56.002" x="4" y="3.969" fill="#f2f2f2" rx="13.002" ry="13.002"/><path d="M3.998 45.998v1c0 7.203 5.8 13.004 13.004 13.004h29.996c7.203 0 13.004-5.8 13.004-13.004v-1c0 7.203-5.8 13.002-13.004 13.002H17.002A12.975 12.975 0 0 1 3.998 45.998" opacity=".1"/><path fill="#fff" d="M3.998 18.004v-1C3.998 9.801 9.798 4 17.002 4h29.996c7.203 0 13.004 5.8 13.004 13.004v1c0-7.203-5.8-13.002-13.004-13.002H17.002A12.975 12.975 0 0 0 3.998 18.004" opacity=".5"/><rect width="7.472" height="28.326" x="43.137" y="20.674" fill="#37b2f9" ry=".858"/><rect width="7.472" height="14.796" x="17.377" y="34.217" fill="#ee4b5b" ry=".913"/><path fill="#fe8f8a" d="M17.993 32.723h6.241c.34 0 .499.279.517.624l.096 1.753c.019.346-.273.624-.613.624h-6.241c-.34 0-.632-.278-.613-.624l.096-1.753c.018-.345.177-.624.517-.624"/><rect width="7.472" height="22.803" x="25.964" y="26.21" fill="#f89226" ry=".916"/><path fill="#ffc966" d="M26.58 24.716h6.241c.34 0 .499.23.517.514l.096 1.445c.019.285-.273.514-.613.514H26.58c-.34 0-.632-.23-.613-.514l.096-1.445c.018-.284.177-.514.517-.514"/><rect width="7.472" height="35.943" x="34.551" y="13.057" fill="#37d964" ry="1.089"/><path fill="#87ffa3" d="M35.167 12.337h6.241c.34 0 .499.197.517.44l.096 1.237c.019.244-.273.44-.613.44h-6.241c-.34 0-.632-.196-.613-.44l.096-1.237c.018-.243.177-.44.517-.44"/><path fill="#79d7ff" d="M43.752 19.423h6.241c.34 0 .499.229.517.512l.096 1.44c.019.284-.273.513-.613.513h-6.241c-.34 0-.632-.23-.613-.513l.096-1.44c.018-.283.177-.512.517-.512"/><path fill="gray" d="m14.307 37.364.006-.193.955.033-.047 1.35-.518-.019.04-1.156zm1.441 3.962-.007.194-2.05-.072.79-.406q.563-.283.66-.356.104-.074.106-.123.005-.013.006-.026.003-.09-.13-.163-.129-.073-.345-.08t-.344.065q-.123.074-.127.185l-.543-.019q.007-.2.278-.32.276-.121.738-.105.417.014.699.149t.275.32q-.006.176-.625.469l-.526.248zm-2.004 2.072q.047-.178.297-.274t.646-.082q.402.014.64.124.237.111.231.287-.006.195-.3.272.388.089.38.342-.007.196-.298.304-.285.106-.732.09-.417-.015-.71-.147-.292-.133-.285-.313l.517.018q-.003.098.14.17t.365.08q.226.007.359-.062.138-.068.142-.173.003-.087-.14-.165-.138-.08-.32-.087l-.04.002h-.11l.005-.153.065.002q.191.007.329-.046.143-.056.146-.142.007-.207-.415-.222-.417-.014-.424.193zm1.878 3.57-.006.176-.362-.013-.009.256-.477-.017.009-.255-1.387-.048.004-.1 1.397-.971.502.017-.033.943zm-.817-.651-.806.595.784.027zm-.451 2.829-.129.238.236.004q.438.015.704.162.272.145.265.341-.008.218-.319.34t-.808.106q-.553-.02-.899-.21l.158-.19q.285.19.707.205.261.01.445-.065.189-.075.194-.213.004-.14-.184-.225t-.48-.094q-.29-.01-.48.072l-.095-.003.34-.674 1.327.046-.007.194z" aria-label="1 2 3 4 5"/></svg>