<svg xmlns="http://www.w3.org/2000/svg" fill="none" viewBox="0 0 64 64"><rect width="56.002" height="56.002" x="4" y="3.969" fill="#4d6bbb" rx="13.002" ry="13.002"/><circle cx="32.02" cy="32.044" r="30.001"/><path fill="#000" d="M3.998 45.998v1c0 7.203 5.8 13.004 13.004 13.004h29.996c7.203 0 13.004-5.8 13.004-13.004v-1c0 7.203-5.8 13.002-13.004 13.002H17.002A12.975 12.975 0 0 1 3.998 45.998" opacity=".15"/><path fill="#fff" d="M3.998 18.004v-1C3.998 9.801 9.798 4 17.002 4h29.996c7.203 0 13.004 5.8 13.004 13.004v1c0-7.203-5.8-13.002-13.004-13.002H17.002A12.975 12.975 0 0 0 3.998 18.004" opacity=".15"/><path fill="#fff" d="M34.395 21.281a3.78 3.78 0 0 0-2.28.637c-3.906 2.63-8.896 8.045-9.779 17.955-.082.924-.793 1.627-1.632 1.627H10A1.5 1.5 0 0 0 8.5 43a1.5 1.5 0 0 0 1.5 1.5h10.703c2.468 0 4.41-1.991 4.62-4.362.805-9.03 5.127-13.483 8.468-15.732.47-.316.555-.22.773-.04s.459.616.352 1.244v.002c-1.021 5.985-.995 10.489.355 13.775s4.342 5.113 7.99 5.113H55a1.5 1.5 0 0 0 1.5-1.5 1.5 1.5 0 0 0-1.5-1.5H43.262c-2.804 0-4.246-.894-5.215-3.252s-1.147-6.421-.173-12.133c.272-1.595-.274-3.137-1.403-4.067-.564-.464-1.303-.733-2.076-.767" color="#000" style="-inkscape-stroke:none"/></svg>