<svg xmlns="http://www.w3.org/2000/svg" xmlns:xlink="http://www.w3.org/1999/xlink" width="64" height="64"><defs><linearGradient id="e" x1="7.937" x2="7.937" y1="15.081" y2="1.852" gradientTransform="scale(3.7796)" gradientUnits="userSpaceOnUse"><stop offset="0" stop-color="#f1efeb"/><stop offset="1" stop-color="#fdfcfc"/></linearGradient><linearGradient id="b" x1="174.79" x2="174.86" y1="109.47" y2="118.12" gradientUnits="userSpaceOnUse"><stop offset="0" stop-color="#909090"/><stop offset="1" stop-color="#727272" stop-opacity="0"/></linearGradient><linearGradient id="a"><stop offset="0" stop-color="#909090"/><stop offset="1" stop-color="#636363" stop-opacity="0"/></linearGradient><linearGradient xlink:href="#a" id="n" x1="183.06" x2="183.06" y1="129.42" y2="127.06" gradientUnits="userSpaceOnUse"/><linearGradient id="o" x1="23.844" x2="23.816" y1="17.574" y2="85.151" gradientUnits="userSpaceOnUse"><stop offset="0" stop-color="#fa9a1b"/><stop offset="1" stop-color="#f2d61c"/></linearGradient><linearGradient xlink:href="#b" id="k" x1="174.79" x2="174.86" y1="109.47" y2="118.12" gradientUnits="userSpaceOnUse"/><linearGradient id="i" x1="23.844" x2="23.816" y1="17.574" y2="85.151" gradientUnits="userSpaceOnUse"><stop offset="0" stop-color="#1bd2fa"/><stop offset="1" stop-color="#1c7ef2"/></linearGradient><radialGradient id="c" cx="199.22" cy="60.978" r="62.148" gradientTransform="matrix(1.0119 0 0 5.0958 -134.28 -251.23)" gradientUnits="userSpaceOnUse"><stop offset="0" stop-color="#e6e6e8"/><stop offset="1" stop-color="#cbccce"/></radialGradient><radialGradient id="d" cx="199.22" cy="60.978" r="62.148" gradientTransform="matrix(1.3103 0 0 3.6151 -193.73 -160.94)" gradientUnits="userSpaceOnUse"><stop offset="0" stop-color="#ececef"/><stop offset="1" stop-color="#cbccce" stop-opacity="0"/></radialGradient><radialGradient xlink:href="#a" id="l" cx="178.79" cy="120.7" r="22.055" gradientTransform="matrix(3.8591 0 0 .1388 -511.17 103.95)" gradientUnits="userSpaceOnUse"/><radialGradient xlink:href="#c" id="g" cx="199.22" cy="60.978" r="62.148" gradientTransform="matrix(1.0119 0 0 5.0958 -134.28 -251.23)" gradientUnits="userSpaceOnUse"/><radialGradient xlink:href="#d" id="h" cx="199.22" cy="60.978" r="62.148" gradientTransform="matrix(1.3103 0 0 3.6151 -193.73 -160.94)" gradientUnits="userSpaceOnUse"/><filter id="f" width="1.029" height="1.034" x="-.014" y="-.017" color-interpolation-filters="sRGB"><feGaussianBlur stdDeviation=".75"/></filter><filter id="j" width="1.161" height="1.491" x="-.08" y="-.245" color-interpolation-filters="sRGB"><feGaussianBlur stdDeviation="1.479"/></filter><filter id="m" width="1.082" height="2.008" x="-.041" y="-.504" color-interpolation-filters="sRGB"><feGaussianBlur stdDeviation=".328"/></filter></defs><rect width="64" height="64" fill="none" rx="0" ry="0" style="paint-order:stroke fill markers"/><rect width="56.002" height="56.002" x="4" y="3.969" fill="url(#e)" rx="13.002" ry="13.002"/><g stroke-width="2.058" transform="matrix(.25019 0 0 .24632 22.398 11.4)"><rect width="124.3" height="103.95" x="5.156" y="8.779" fill="#1a1a1a" filter="url(#f)" opacity=".887" rx="5.662"/><rect width="124.3" height="103.95" x="5.156" y="8.779" fill="url(#g)" rx="5.662"/><rect width="124.3" height="103.95" x="5.156" y="8.779" fill="url(#h)" rx="5.662"/><path fill="#080808" d="M10.818 8.778a5.65 5.65 0 0 0-5.662 5.662v75.664h124.3V14.44a5.65 5.65 0 0 0-5.662-5.662z"/><path fill="url(#i)" d="M10.318 12.353h113.49v73.329H10.318z"/><path fill="#afafaf" d="M5.156 106.01v1.057a5.65 5.65 0 0 0 5.662 5.662h112.97a5.65 5.65 0 0 0 5.662-5.662v-1.057a5.65 5.65 0 0 1-5.662 5.662H10.818a5.65 5.65 0 0 1-5.662-5.662"/><g transform="translate(-111.48 -1.474)"><path d="M194.34 114.95c-.088 3.7-.946 7.822 4.95 11.334 4.707 2.926-2.61 3.127-4.429 3.127h-32.145c-1.818 0-9.136-.201-4.43-3.127 5.898-3.513 5.04-7.635 4.951-11.334z" filter="url(#j)"/><path fill="#e0e1e6" d="M194.34 113.47c-.088 3.7-.946 7.822 4.95 11.334 4.707 2.926-2.61 3.127-4.429 3.127-10.492.462-21.162.762-32.145 0-1.818 0-9.136-.201-4.43-3.127 5.898-3.513 5.04-7.635 4.951-11.334z"/><path fill="url(#k)" d="M194.34 113.47c-.088 3.7-.946 7.822 4.95 11.334 4.707 2.926-2.61 3.127-4.429 3.127h-32.145c-1.818 0-9.136-.201-4.43-3.127 5.898-3.513 5.04-7.635 4.951-11.334z"/><path fill="url(#l)" d="M194.34 113.47c-.088 3.7-.946 7.822 4.95 11.334 4.707 2.926-2.61 3.127-4.429 3.127h-32.145c-1.818 0-9.136-.201-4.43-3.127 5.898-3.513 5.04-7.635 4.951-11.334z"/><ellipse cx="178.29" cy="127.15" fill="#fff" filter="url(#m)" opacity=".887" rx="15.764" ry=".782"/><path fill="url(#n)" d="M194.34 113.47c-.088 3.7-.946 7.822 4.95 11.334 4.707 2.926-2.61 3.127-4.429 3.127h-32.145c-1.818 0-9.136-.201-4.43-3.127 5.898-3.513 5.04-7.635 4.951-11.334z"/></g></g><path fill="#1e1f28" d="M40.305 36.747a1.4 1.4 0 0 1-.142.252 1.3 1.3 0 0 1-.183.218.36.36 0 0 1-.236.102.6.6 0 0 1-.218-.051.6.6 0 0 0-.234-.051.7.7 0 0 0-.24.05.7.7 0 0 1-.21.055q-.12.005-.24-.105a1.4 1.4 0 0 1-.192-.226 1.6 1.6 0 0 1-.203-.397 1.4 1.4 0 0 1-.085-.472.86.86 0 0 1 .115-.452.67.67 0 0 1 .567-.33q.096 0 .253.057a.8.8 0 0 0 .2.058q.032 0 .221-.068a.7.7 0 0 1 .302-.053q.334.027.501.26-.3.178-.296.499a.55.55 0 0 0 .184.414q.081.076.183.119-.022.063-.047.12zm-.51-1.98q0 .196-.145.365c-.117.134-.257.212-.41.2l-.003-.05c0-.125.055-.26.154-.369a.6.6 0 0 1 .187-.138.6.6 0 0 1 .214-.06z"/><path fill-opacity=".212" d="M24.98 14.443v18.062h28.394V14.443zm.138.125H53.26v17.824H25.12z"/><path fill="#080808" d="M25.105 13.624c-.785 0-1.417.622-1.417 1.395v18.576h31.099V15.019c0-.773-.632-1.395-1.417-1.395zm-.125 1.312h28.394v17.57H24.98z"/><g stroke-width="2.058" transform="matrix(.25019 0 0 .24632 7.922 18.483)"><rect width="124.3" height="103.95" x="5.156" y="8.779" fill="#1a1a1a" filter="url(#f)" opacity=".887" rx="5.662"/><rect width="124.3" height="103.95" x="5.156" y="8.779" fill="url(#g)" rx="5.662"/><rect width="124.3" height="103.95" x="5.156" y="8.779" fill="url(#h)" rx="5.662"/><path fill="#080808" d="M10.818 8.778a5.65 5.65 0 0 0-5.662 5.662v75.664h124.3V14.44a5.65 5.65 0 0 0-5.662-5.662z"/><path fill="url(#o)" d="M10.318 12.353h113.49v73.329H10.318z"/><path fill="#afafaf" d="M5.156 106.01v1.057a5.65 5.65 0 0 0 5.662 5.662h112.97a5.65 5.65 0 0 0 5.662-5.662v-1.057a5.65 5.65 0 0 1-5.662 5.662H10.818a5.65 5.65 0 0 1-5.662-5.662"/><g transform="translate(-111.48 -1.474)"><path d="M194.34 114.95c-.088 3.7-.946 7.822 4.95 11.334 4.707 2.926-2.61 3.127-4.429 3.127h-32.145c-1.818 0-9.136-.201-4.43-3.127 5.898-3.513 5.04-7.635 4.951-11.334z" filter="url(#j)"/><path fill="#e0e1e6" d="M194.34 113.47c-.088 3.7-.946 7.822 4.95 11.334 4.707 2.926-2.61 3.127-4.429 3.127-10.492.462-21.162.762-32.145 0-1.818 0-9.136-.201-4.43-3.127 5.898-3.513 5.04-7.635 4.951-11.334z"/><path fill="url(#k)" d="M194.34 113.47c-.088 3.7-.946 7.822 4.95 11.334 4.707 2.926-2.61 3.127-4.429 3.127h-32.145c-1.818 0-9.136-.201-4.43-3.127 5.898-3.513 5.04-7.635 4.951-11.334z"/><path fill="url(#l)" d="M194.34 113.47c-.088 3.7-.946 7.822 4.95 11.334 4.707 2.926-2.61 3.127-4.429 3.127h-32.145c-1.818 0-9.136-.201-4.43-3.127 5.898-3.513 5.04-7.635 4.951-11.334z"/><ellipse cx="178.29" cy="127.15" fill="#fff" filter="url(#m)" opacity=".887" rx="15.764" ry=".782"/><path fill="url(#n)" d="M194.34 113.47c-.088 3.7-.946 7.822 4.95 11.334 4.707 2.926-2.61 3.127-4.429 3.127h-32.145c-1.818 0-9.136-.201-4.43-3.127 5.898-3.513 5.04-7.635 4.951-11.334z"/></g></g><path fill="#1e1f28" d="M25.83 43.83a1.4 1.4 0 0 1-.143.252 1.3 1.3 0 0 1-.184.218.36.36 0 0 1-.235.102.6.6 0 0 1-.218-.051.6.6 0 0 0-.234-.051.7.7 0 0 0-.241.05.7.7 0 0 1-.208.055q-.121.005-.241-.105a1.4 1.4 0 0 1-.192-.226 1.6 1.6 0 0 1-.203-.397 1.4 1.4 0 0 1-.085-.472.85.85 0 0 1 .115-.452.67.67 0 0 1 .567-.33q.096 0 .252.057a.8.8 0 0 0 .2.058q.033 0 .222-.068a.7.7 0 0 1 .301-.053q.334.027.502.26-.3.178-.296.499a.55.55 0 0 0 .183.414q.082.076.184.119-.022.063-.047.12zm-.512-1.98q0 .196-.145.365c-.116.134-.257.212-.41.2l-.002-.05c0-.125.055-.26.153-.369a.6.6 0 0 1 .187-.138.6.6 0 0 1 .214-.06z"/><path fill-opacity=".212" d="M10.503 21.526v18.062h28.394V21.526zm.139.125h28.141v17.824H10.642z"/><path fill="#080808" d="M10.629 20.707c-.785 0-1.417.622-1.417 1.395v18.576H40.31V22.102c0-.773-.632-1.395-1.417-1.395zm-.126 1.312h28.394v17.57H10.503z"/></svg>