<svg xmlns="http://www.w3.org/2000/svg" viewBox="0 0 64 64"><rect width="64" height="64" fill="none" rx="0" ry="0" style="paint-order:stroke fill markers"/><rect width="56.002" height="56.002" x="4" y="3.969" fill="#4d4d4d" rx="13.002" ry="13.002"/><circle cx="32.02" cy="32.044" r="30.001" fill="none"/><path fill="#6ccd3d" d="M37.15 14.904c-6.198-3.58-6.235 4.661-6.235 4.661l1.087 12.432 11.307-5.279s7.123-4.153.925-7.733c-1.914-1.103-3.32-1.13-4.358-.632-.091-1.141-.811-2.347-2.726-3.456"/><path fill="#fbe720" d="m32.002 31.999 5.278 11.307s4.154 7.123 7.728.925c1.103-1.914 1.126-3.32.633-4.358 1.146-.091 2.352-.811 3.46-2.726 3.575-6.198-4.666-6.235-4.666-6.235l-12.428 1.087"/><path fill="#00d0db" d="m32.002 31.999-11.314 5.278s-7.117 4.154-.924 7.728c1.914 1.103 3.325 1.126 4.358.633.091 1.146.81 2.352 2.725 3.46 6.198 3.575 6.236-4.666 6.236-4.666l-1.081-12.428"/><path fill="#f85d1e" d="m32.002 31.999-5.28-11.314s-4.152-7.117-7.732-.924c-1.104 1.914-1.126 3.325-.633 4.358-1.14.091-2.347.81-3.456 2.725-3.58 6.198 4.662 6.236 4.662 6.236l12.432-1.081"/><path d="M3.999 45.998V47A12.975 12.975 0 0 0 17 60.002h30A12.975 12.975 0 0 0 60.002 47v-1.002A12.975 12.975 0 0 1 47 59H17A12.975 12.975 0 0 1 4 45.998z" opacity=".25"/><path fill="#fff" d="M3.999 18.002v-.994A12.975 12.975 0 0 1 17 4.006h30a12.975 12.975 0 0 1 13.002 13.002v1.002A12.975 12.975 0 0 0 47 5.008H17A12.975 12.975 0 0 0 4 18.01z" opacity=".15"/></svg>