<svg xmlns="http://www.w3.org/2000/svg" viewBox="0 0 16.933 16.933"><rect width="14.817" height="14.817" x="1.058" y="1.05" fill="#4e9cd4" rx="3.44" ry="3.44"/><path fill="#fff" d="M4.498 1.05a3.433 3.433 0 0 0-3.44 3.44v.273a3.433 3.433 0 0 1 3.44-3.44h7.937a3.433 3.433 0 0 1 3.44 3.44V4.49a3.433 3.433 0 0 0-3.44-3.44z" opacity=".15"/><path d="M4.498 15.875a3.43 3.43 0 0 1-3.44-3.44v-.273a3.43 3.43 0 0 0 3.44 3.44h7.937a3.43 3.43 0 0 0 3.44-3.44v.273a3.43 3.43 0 0 1-3.44 3.44z" opacity=".15"/><path fill="#fff" d="M5.292 1.05v9.364c0 .104.188.26.49.087l2.517-1.268c.046-.023.107-.035.168-.035s.121.012.168.035l2.517 1.268c.301.174.49.017.49-.087V1.05z"/><path d="M2.646 1.592A3.43 3.43 0 0 0 1.058 4.49v7.937c0 1.222.633 2.288 1.588 2.898z" opacity=".15"/></svg>