<svg xmlns="http://www.w3.org/2000/svg" width="64" height="64" viewBox="0 0 16.933 16.933"><defs><linearGradient id="b" x1="28" x2="28" y1="60" y2="4" gradientTransform="scale(.26458)" gradientUnits="userSpaceOnUse"><stop offset="0" stop-color="#818383"/><stop offset="1" stop-color="#c8dae1"/></linearGradient><linearGradient id="a" x1="7.937" x2="7.937" y1="15.081" y2="1.852" gradientTransform="translate(.605 .612)scale(.92856)" gradientUnits="userSpaceOnUse"><stop offset="0" stop-color="#eaeef3"/><stop offset="1" stop-color="#f8fafb"/></linearGradient><linearGradient id="d" x1="7.937" x2="7.937" y1="8.743" y2="4.754" gradientTransform="translate(2.286 2.315)scale(3.5096)" gradientUnits="userSpaceOnUse"><stop offset="0" stop-color="#a0f4ff"/><stop offset="1" stop-color="#7ffdff" stop-opacity="0"/></linearGradient><linearGradient id="c" x1="32" x2="32" y1="58" y2="6" gradientUnits="userSpaceOnUse"><stop offset="0"/><stop offset="1" stop-opacity=".35"/></linearGradient></defs><rect width="13.758" height="13.758" x="1.587" y="1.587" fill="url(#a)" rx="2.91" ry="2.91"/><path fill="url(#b)" d="M4.498 1.05a3.433 3.433 0 0 0-3.44 3.44v7.937a3.433 3.433 0 0 0 3.44 3.44h7.937a3.433 3.433 0 0 0 3.44-3.44V4.49a3.433 3.433 0 0 0-3.44-3.44zm0 .538h7.937a2.904 2.904 0 0 1 2.91 2.91v7.937a2.904 2.904 0 0 1-2.91 2.91H4.498a2.904 2.904 0 0 1-2.91-2.91V4.498a2.904 2.904 0 0 1 2.91-2.91"/><path fill="url(#c)" d="M18 6v4h-3.5V6.293q-.252.058-.5.129V10h-3.5V8.129c-.168.123-.34.243-.5.375V10H8.504c-.132.16-.252.332-.375.5H10V14H6.422q-.07.248-.129.5H10V18H6v.5h4V22H6v.5h4V26H6v.5h4V30H6v.5h4V34H6v.5h4V38H6v.5h4V42H6v.5h4V46H6v.5h4V50H6.422q.07.252.152.5H10V54H8.504c.143.174.3.336.453.5H10v.996c.16.132.332.252.5.375V54.5H14v3.078q.248.07.5.129V54.5H18V58h.5v-3.5H22V58h.5v-3.5H26V58h.5v-3.5H30V58h.5v-3.5H34V58h.5v-3.5H38V58h.5v-3.5H42V58h.5v-3.5H46V58h.5v-3.5H50v3.078q.253-.07.5-.152V54.5H54v.996c.174-.143.336-.3.5-.453V54.5h.543c.153-.164.31-.326.453-.5H54.5v-3.5h2.926q.082-.248.152-.5H54.5v-3.5H58V46h-3.5v-3.5H58V42h-3.5v-3.5H58V38h-3.5v-3.5H58V34h-3.5v-3.5H58V30h-3.5v-3.5H58V26h-3.5v-3.5H58V22h-3.5v-3.5H58V18h-3.5v-3.5h3.207a11 11 0 0 0-.129-.5H54.5v-3.5h1.371c-.123-.168-.242-.34-.375-.5H54.5V8.957c-.164-.153-.326-.31-.5-.453V10h-3.5V6.574a11 11 0 0 0-.5-.152V10h-3.5V6H46v4h-3.5V6H42v4h-3.5V6H38v4h-3.5V6H34v4h-3.5V6H30v4h-3.5V6H26v4h-3.5V6H22v4h-3.5V6zm-7.5 4.5H14V14h-3.5zm4 0H18V14h-3.5zm4 0H22V14h-3.5zm4 0H26V14h-3.5zm4 0H30V14h-3.5zm4 0H34V14h-3.5zm4 0H38V14h-3.5zm4 0H42V14h-3.5zm4 0H46V14h-3.5zm4 0H50V14h-3.5zm4 0H54V14h-3.5zm-40 4H14V18h-3.5zm4 0H18V18h-3.5zm4 0H22V18h-3.5zm4 0H26V18h-3.5zm4 0H30V18h-3.5zm4 0H34V18h-3.5zm4 0H38V18h-3.5zm4 0H42V18h-3.5zm4 0H46V18h-3.5zm4 0H50V18h-3.5zm4 0H54V18h-3.5zm-40 4H14V22h-3.5zm4 0H18V22h-3.5zm4 0H22V22h-3.5zm4 0H26V22h-3.5zm4 0H30V22h-3.5zm4 0H34V22h-3.5zm4 0H38V22h-3.5zm4 0H42V22h-3.5zm4 0H46V22h-3.5zm4 0H50V22h-3.5zm4 0H54V22h-3.5zm-40 4H14V26h-3.5zm4 0H18V26h-3.5zm4 0H22V26h-3.5zm4 0H26V26h-3.5zm4 0H30V26h-3.5zm4 0H34V26h-3.5zm4 0H38V26h-3.5zm4 0H42V26h-3.5zm4 0H46V26h-3.5zm4 0H50V26h-3.5zm4 0H54V26h-3.5zm-40 4H14V30h-3.5zm4 0H18V30h-3.5zm4 0H22V30h-3.5zm4 0H26V30h-3.5zm4 0H30V30h-3.5zm4 0H34V30h-3.5zm4 0H38V30h-3.5zm4 0H42V30h-3.5zm4 0H46V30h-3.5zm4 0H50V30h-3.5zm4 0H54V30h-3.5zm-40 4H14V34h-3.5zm4 0H18V34h-3.5zm4 0H22V34h-3.5zm4 0H26V34h-3.5zm4 0H30V34h-3.5zm4 0H34V34h-3.5zm4 0H38V34h-3.5zm4 0H42V34h-3.5zm4 0H46V34h-3.5zm4 0H50V34h-3.5zm4 0H54V34h-3.5zm-40 4H14V38h-3.5zm4 0H18V38h-3.5zm4 0H22V38h-3.5zm4 0H26V38h-3.5zm4 0H30V38h-3.5zm4 0H34V38h-3.5zm4 0H38V38h-3.5zm4 0H42V38h-3.5zm4 0H46V38h-3.5zm4 0H50V38h-3.5zm4 0H54V38h-3.5zm-40 4H14V42h-3.5zm4 0H18V42h-3.5zm4 0H22V42h-3.5zm4 0H26V42h-3.5zm4 0H30V42h-3.5zm4 0H34V42h-3.5zm4 0H38V42h-3.5zm4 0H42V42h-3.5zm4 0H46V42h-3.5zm4 0H50V42h-3.5zm4 0H54V42h-3.5zm-40 4H14V46h-3.5zm4 0H18V46h-3.5zm4 0H22V46h-3.5zm4 0H26V46h-3.5zm4 0H30V46h-3.5zm4 0H34V46h-3.5zm4 0H38V46h-3.5zm4 0H42V46h-3.5zm4 0H46V46h-3.5zm4 0H50V46h-3.5zm4 0H54V46h-3.5zm-40 4H14V50h-3.5zm4 0H18V50h-3.5zm4 0H22V50h-3.5zm4 0H26V50h-3.5zm4 0H30V50h-3.5zm4 0H34V50h-3.5zm4 0H38V50h-3.5zm4 0H42V50h-3.5zm4 0H46V50h-3.5zm4 0H50V50h-3.5zm4 0H54V50h-3.5zm-40 4H14V54h-3.5zm4 0H18V54h-3.5zm4 0H22V54h-3.5zm4 0H26V54h-3.5zm4 0H30V54h-3.5zm4 0H34V54h-3.5zm4 0H38V54h-3.5zm4 0H42V54h-3.5zm4 0H46V54h-3.5zm4 0H50V54h-3.5zm4 0H54V54h-3.5z" opacity=".05" transform="scale(.26458)"/><path fill="url(#d)" d="M18.074 6A12.05 12.05 0 0 0 6 18.074V33h52V18.074A12.05 12.05 0 0 0 45.926 6z" transform="scale(.26458)"/></svg>