<svg xmlns="http://www.w3.org/2000/svg" viewBox="0 0 64 64"><g stroke-width="1.217"><path fill="#f9f9f9" d="m13.739 14.957-9.74 25.565v6.087l15.827 2.435h24.348L60 46.609v-6.087l-9.74-25.565z"/><path fill="#555" d="M58.824 28v14.609H42.998v.396A12.974 12.974 0 0 0 56 55.97h29.996c7.19 0 12.982-5.779 13.002-12.965v-.396H83.172V28L70.998 40.174z" style="paint-order:normal" transform="translate(-38.998 4)"/><path fill="#fb8200" d="M55.373 0a12.96 12.96 0 0 0-12.375 12.971v23.551h9.738V13.391l18.262 18.262L89.26 13.391v23.131H99v-23.59A12.96 12.96 0 0 0 86.626 0z" style="paint-order:normal" transform="translate(-38.998 4)"/></g><path d="M3.998 45.998v1c0 7.203 5.8 13.004 13.004 13.004h29.996c7.203 0 13.004-5.8 13.004-13.004v-1c0 7.203-5.8 13.002-13.004 13.002H17.002A12.975 12.975 0 0 1 3.998 45.998" opacity=".35"/><path fill="#fff" d="M3.998 18.004v-1C3.998 9.801 9.798 4 17.002 4h29.996c7.203 0 13.004 5.8 13.004 13.004v1c0-7.203-5.8-13.002-13.004-13.002H17.002A12.975 12.975 0 0 0 3.998 18.004" opacity=".15"/></svg>