<svg xmlns="http://www.w3.org/2000/svg" viewBox="0 0 16.933 16.933"><rect width="14.817" height="14.817" x="1.058" y="1.05" fill="#f2f2f2" rx="3.44" ry="3.44"/><path d="M1.058 12.17v.265a3.433 3.433 0 0 0 3.44 3.44h7.937a3.433 3.433 0 0 0 3.44-3.44v-.265a3.433 3.433 0 0 1-3.44 3.44H4.498a3.433 3.433 0 0 1-3.44-3.44" opacity=".1"/><path fill="#fff" d="M1.058 4.763V4.5a3.433 3.433 0 0 1 3.44-3.44h7.937a3.433 3.433 0 0 1 3.44 3.44v.265a3.433 3.433 0 0 0-3.44-3.44H4.498a3.433 3.433 0 0 0-3.44 3.44z" opacity=".5"/><path fill="#0096f4" d="M10.41 5.824c-.616.04-1.17.4-1.274.45-.332-.094-.71-.292-1.154-.367-1.532-.26-2.83.155-3.48.607-.853.592-.83 1.257-.9 1.533-.044.17-.432.486-.427.708.008.29.189.383.189.383.162-.013.405-.129.613-.214.308-.127.332-.196 1.174-.322a8 8 0 0 1 1.098-.077c.118.25.412.762.92 1.008.302.14.757.201.958.241l.588.087v-.238h-.001s-.493-.204-.797-.507c-.128-.128-.129-.282-.164-.435.467.088.884.155 1.87.533a6.1 6.1 0 0 1 1.528.853l.003.002v-.237l-.003-.002a5.5 5.5 0 0 0-1.714-1.326c-.884-.437-1.61-.652-2.616-.701-1.045-.05-1.739.07-1.814.083.09-.178.27-.486.758-.715.721-.338 1.856-.395 3.16-.062 1.84.47 2.468 1.348 3.26 2.175.842.879 1.57 2.356 1.57 2.358l.002.001.001.004v-.24l-.007-.018a8.7 8.7 0 0 0-.623-1.512c-.487-.898-.907-1.541-1.604-2.194-.487-.363-.983-.857-.898-1.07.219-.289.813-.465.816-.466h.001V5.91s-.376-.127-1.033-.085zm.738 4.24s.006.005 0 0"/></svg>