<svg xmlns="http://www.w3.org/2000/svg" width="64" height="64" viewBox="0 0 16.933 16.933"><defs><linearGradient id="d" x1="2.646" x2="14.189" y1="3.257" y2="14.287" gradientUnits="userSpaceOnUse"><stop offset="0" stop-color="#6b99ca"/><stop offset="1" stop-color="#4676b0"/></linearGradient><linearGradient id="c" x1="14.552" x2="14.552" y1="7.408" y2="6.085" gradientUnits="userSpaceOnUse"><stop offset="0" stop-color="#5ac8fa"/><stop offset="1" stop-color="#3e7790"/></linearGradient><linearGradient id="b" x1="14.816" x2="14.816" y1="10.054" y2="8.731" gradientUnits="userSpaceOnUse"><stop offset="0" stop-color="#ff9500"/><stop offset="1" stop-color="#915400"/></linearGradient><linearGradient id="a" x1="14.287" x2="14.287" y1="12.7" y2="11.377" gradientUnits="userSpaceOnUse"><stop offset="0" stop-color="#4cd964"/><stop offset="1" stop-color="#2c7e3a"/></linearGradient></defs><path fill="url(#a)" d="M7.408 14.552A1.85 1.85 0 0 1 5.556 12.7v-1.852c0-.293.236-.53.53-.53h9.789c.293 0 .529.237.529.53V12.7a1.85 1.85 0 0 1-1.852 1.852z"/><rect width="10.848" height="4.233" x="5.556" y="7.673" fill="url(#b)" rx=".529" ry=".529"/><rect width="10.848" height="4.233" x="5.556" y="5.027" fill="url(#c)" rx=".529" ry=".529"/><path fill="#c4c2ba" d="M7.408 2.381a1.85 1.85 0 0 0-1.852 1.852v1.852c0 .293.236.53.53.53h9.789a.53.53 0 0 0 .529-.53V4.233a1.85 1.85 0 0 0-1.852-1.852z"/><rect width="14.817" height="14.817" x="1.058" y="1.05" fill="url(#d)" rx="3.44" ry="3.44"/><path fill="#fff" d="M8.467 3.704a4.76 4.76 0 0 0-4.763 4.763 4.76 4.76 0 0 0 2.284 4.061l.021.012a5 5 0 0 0 .388.212l.06.026a5 5 0 0 0 .374.157l.09.03a5 5 0 0 0 .351.109l.145.032a5 5 0 0 0 .314.063l.177.021a5 5 0 0 0 .304.03 5 5 0 0 0 .255.01 4.76 4.76 0 0 0 3.52-1.564l.045-.048-.001-.002a4.76 4.76 0 0 0 1.198-3.15 4.76 4.76 0 0 0-4.762-4.762m0 .53A4.233 4.233 0 0 1 12.7 8.466a4.23 4.23 0 0 1-.99 2.718c-.728-.856-1.834-1.396-3.244-1.396-1.407 0-2.513.538-3.242 1.393a4.23 4.23 0 0 1-.99-2.716 4.233 4.233 0 0 1 4.232-4.233zm0 1.322a1.587 1.72 0 0 0-1.588 1.72 1.587 1.72 0 0 0 1.588 1.72 1.587 1.72 0 0 0 1.587-1.72 1.587 1.72 0 0 0-1.587-1.72"/><path fill="#fff" d="M4.498 1.05a3.43 3.43 0 0 0-3.44 3.44v.273a3.43 3.43 0 0 1 3.44-3.44h7.937a3.43 3.43 0 0 1 3.44 3.44V4.49a3.43 3.43 0 0 0-3.44-3.44z" opacity=".15"/><path d="M4.498 15.875a3.43 3.43 0 0 1-3.44-3.44v-.273a3.43 3.43 0 0 0 3.44 3.44h7.937a3.43 3.43 0 0 0 3.44-3.44v.273a3.43 3.43 0 0 1-3.44 3.44z" opacity=".15"/></svg>