<svg xmlns="http://www.w3.org/2000/svg" viewBox="0 0 64 64"><rect width="56.002" height="56.002" x="4" y="3.969" fill="#f2f2f2" rx="13.002" ry="13.002"/><g stroke-linejoin="bevel" transform="translate(-2.91 -5.455)scale(1.0909)"><path fill="#a0aaac" d="M30.778 16a2.444 2.444 0 0 0-2.444 2.444 2.44 2.44 0 0 0 1.045 2C27.587 25.852 24.312 34.689 21 38c0 0 4.89 7.333 4.89 12.222h12.22C38.11 45.332 43 38 43 38c-3.313-3.312-6.585-12.137-8.373-17.552a2.44 2.44 0 0 0 1.039-2.003A2.444 2.444 0 0 0 33.222 16v22.33a2.444 2.444 0 1 1-2.444.001V20.89z"/><path fill="#f5a82e" d="M25.889 50.222h12.222a1.83 1.83 0 0 1 1.833 1.833 1.83 1.83 0 0 1-1.833 1.834H25.889a1.83 1.83 0 0 1-1.833-1.834 1.83 1.83 0 0 1 1.833-1.833"/><rect width="12.222" height="6.111" x="25.889" y="53.889" fill="#3a444c" rx="0"/></g><path fill="#fff" d="M3.998 18.004v-1C3.998 9.801 9.798 4 17.002 4h29.996c7.203 0 13.004 5.8 13.004 13.004v1c0-7.203-5.8-13.002-13.004-13.002H17.002A12.975 12.975 0 0 0 3.998 18.004" opacity=".5"/><path d="M3.998 45.998v1c0 7.203 5.8 13.004 13.004 13.004h29.996c7.203 0 13.004-5.8 13.004-13.004v-1c0 7.203-5.8 13.002-13.004 13.002H17.002A12.975 12.975 0 0 1 3.998 45.998" opacity=".1"/></svg>