<svg xmlns="http://www.w3.org/2000/svg" viewBox="0 0 64 64"><defs><linearGradient id="a" x1="6" x2="58" gradientTransform="translate(7.999 8)scale(.1875)" gradientUnits="userSpaceOnUse"><stop offset="0" stop-opacity="0"/><stop offset=".5" stop-opacity=".25"/><stop offset="1" stop-opacity="0"/></linearGradient><linearGradient id="e" x2="0" y1="192" y2="188" gradientTransform="translate(7.999 8)scale(.1875)" gradientUnits="userSpaceOnUse"><stop offset="0" stop-opacity=".75"/><stop offset="1" stop-opacity="0"/></linearGradient><linearGradient id="c" x1="192" x2="188" gradientTransform="translate(7.999 8)scale(.1875)" gradientUnits="userSpaceOnUse"><stop offset="0" stop-opacity=".75"/><stop offset="1" stop-opacity="0"/></linearGradient><linearGradient id="d" x2="0" y1="134" y2="186" gradientTransform="translate(7.999 8)scale(.1875)" gradientUnits="userSpaceOnUse"><stop offset="0" stop-opacity="0"/><stop offset=".5" stop-opacity=".25"/><stop offset="1" stop-opacity="0"/></linearGradient><linearGradient id="b" x2="0" y1="198" y2="250" gradientTransform="translate(7.999 8)scale(.1875)" gradientUnits="userSpaceOnUse"><stop offset="0" stop-opacity="0"/><stop offset=".5" stop-opacity=".25"/><stop offset="1" stop-opacity="0"/></linearGradient></defs><rect width="64" height="64" fill="none" rx="0" ry="0" style="paint-order:stroke fill markers"/><rect width="56.002" height="56.002" x="4" y="3.969" fill="#2c7fa7" rx="13.002" ry="13.002"/><path fill="#b3d9ff" d="M17 8a8.977 8.977 0 0 0-8.994 8.8l.007 15.194-.007 15.205a8.977 8.977 0 0 0 8.994 8.8h30c4.986 0 9-4.013 9-9V20H44v12H32V20H20V8z"/><path fill="#99cdff" d="M19.8 8c-.108 0-.145.084-.081.187.064.104.154.188.2.188.045 0 .067-.084.067-.188S19.91 8 19.801 8zm-3.163.01A8.977 8.977 0 0 0 8 17v30c0 4.986 4.014 9 9 9h30a8.977 8.977 0 0 0 8.99-8.614l-.004-3.468c-.018-9.132-.064-12.105-.232-12.174-.164-.067-.156-.139.031-.27.14-.098.182-.222.092-.277-.24-.149-.76.288-.846.713-.06.3-.205.36-.761.316-.538-.042-.732.033-.897.342-.159.297-.154.46.02.67s.176.33.012.494a.9.9 0 0 0-.217.555.326.326 0 0 1-.328.34c-.18.001-.514.052-.74.113-.377.1-.425.026-.544-.865-.114-.86-.2-1.007-.703-1.219-.315-.132-.687-.197-.828-.143s-.501-.139-.803-.427c-.501-.48-.576-.501-.879-.237-.388.34-1.553.58-1.85.381-.113-.075-.265-.515-.337-.978-.142-.907-.726-1.69-1.26-1.69-.435 0-.916.704-.916 1.34 0 .487.163.95-.014 1.104s-.707 0-1.281 0c-1.17 0-1.507.197-1.535.922l-.02.478-.13-.469-.13-.468-4.453-.094c-3.526-.074-4.485-.149-4.613-.356-.089-.143-.17-2.795-.182-5.892s-.042-5.65-.066-5.674c-.025-.024-2.619-.1-5.764-.172-3.418-.078-5.873-.16-6.013-.275-.13-.106-.174-.37-.174-.528 0-.251-.041-.249-.336.018-.278.251-.453.27-1 .101-.74-.227-1.246-.84-.944-1.142.104-.103.636-.197 1.186-.21.55-.011 1.063-.108 1.139-.212.195-.27.17-7.823-.028-8.135-.09-.142-.244-.209-.341-.148-.258.159-.989-.405-.989-.762 0-.166.14-.456.31-.644.222-.245.17-.314-1.986-.334z"/><g fill-rule="evenodd" stroke-linecap="square" stroke-linejoin="bevel" stroke-width=".188"><path d="M9.124 19.812h9.75V20h-9.75zm0 .188h9.75v.187h-9.75zm10.688 1.126v9.75H20v-9.75zm.188 0v9.75h.187v-9.75zm1.125 10.687h9.75V32h-9.75zm0 .188h9.75v.187h-9.75z" opacity=".1"/><path d="M19.999 8v12l-.75.75v-12zm12 12v24l-.75-.75v-22.5z" opacity=".15"/><path d="M31.999 44h-12l.75-.75h10.5zm-24-12h12l.75-.75h-12z" opacity=".15"/></g><g fill-rule="evenodd" stroke-linecap="square" stroke-linejoin="bevel" stroke-width=".188"><path fill="#fff" d="M19.999 32v12l.75-.75v-12z" opacity=".35"/><path fill="url(#a)" d="M9.124 43.812h9.75V44h-9.75zm0 .188h9.75v.187h-9.75v-.188"/><path fill="url(#b)" d="M19.812 45.125v9.75H20v-9.75zm.188 0v9.75h.187v-9.75zm11.813 0v9.75H32v-9.75zm.187 0v9.75h.188v-9.75z"/><path d="M19.999 32v12l-.75.75v-12z" opacity=".15"/><path fill="url(#c)" d="M43.999 44v12l-.75-.75v-10.5z"/><path fill="#fff" d="M7.999 32h12l-.75.75h-10.5zm12 12h24l-.75.75h-24z" opacity=".35"/><path d="M45.124 31.812h9.75V32h-9.75zm0 .188h9.75v.187h-9.75v-.188m0 11.812h9.75V44h-9.75zm0 .188h9.75v.187h-9.75z" opacity=".15"/><path fill="url(#d)" d="M43.812 33.125v9.75H44v-9.75zm.188 0v9.75h.187v-9.75h-.188"/><path fill="url(#e)" d="M31.999 44h12l.75-.75h-12z"/></g><g fill="#fff" fill-rule="evenodd" stroke-linecap="square" stroke-linejoin="bevel" stroke-width=".188"><path d="m31.999 32 .75.75v10.5l-.75.75z" opacity=".35"/><path d="M31.999 32h12l.75.75h-12zm12-12h12l-.75.75h-10.5zm0 0 .75.75v12l-.75-.75zm0 24 .75-.75v12l-.75.75z" opacity=".35"/></g><path d="M3.999 45.998V47A12.975 12.975 0 0 0 17 60.002h30A12.975 12.975 0 0 0 60.002 47v-1.002A12.975 12.975 0 0 1 47 59H17A12.975 12.975 0 0 1 4 45.998z" opacity=".15"/><path fill="#fff" d="M3.999 18.002v-.994A12.975 12.975 0 0 1 17 4.006h30a12.975 12.975 0 0 1 13.002 13.002v1.002A12.975 12.975 0 0 0 47 5.008H17A12.975 12.975 0 0 0 4 18.01z" opacity=".15"/></svg>