<svg xmlns="http://www.w3.org/2000/svg" xmlns:xlink="http://www.w3.org/1999/xlink" viewBox="0 0 64 64"><defs><clipPath id="b"><path d="M0 0h192v152H0z"/></clipPath><clipPath id="c"><path d="M0 0h192v152H0z"/></clipPath><clipPath id="d"><path d="M0 0h192v152H0z"/></clipPath><mask id="f"><g filter="url(#a)"><path fill-opacity=".15" d="M0 0h128v128H0z"/></g></mask><mask id="h"><g filter="url(#a)"><path fill-opacity=".15" d="M0 0h128v128H0z"/></g></mask><mask id="j"><g filter="url(#a)"><path fill-opacity=".15" d="M0 0h128v128H0z"/></g></mask><g id="e" clip-path="url(#b)"><path fill="#3d3846" d="M36 52.031h2V62h-2z"/></g><g id="g" clip-path="url(#c)"><path fill="#3d3846" d="M58 52.031h2V64h-2z"/></g><g id="i" clip-path="url(#d)"><path fill="#3d3846" d="M34 54.031h28v2H34z"/></g><filter id="a" width="1" height="1" x="0" y="0"><feColorMatrix in="SourceGraphic" values="0 0 0 0 1 0 0 0 0 1 0 0 0 0 1 0 0 0 1 0"/></filter></defs><rect width="56.002" height="56.002" x="4" y="3.969" fill="#f2f2f2" rx="13.002" ry="13.002"/><path d="M3.998 45.998v1c0 7.203 5.8 13.004 13.004 13.004h29.996c7.203 0 13.004-5.8 13.004-13.004v-1c0 7.203-5.8 13.002-13.004 13.002H17.002A12.975 12.975 0 0 1 3.998 45.998" opacity=".1"/><path fill="#fff" d="M3.998 18.004v-1C3.998 9.801 9.798 4 17.002 4h29.996c7.203 0 13.004 5.8 13.004 13.004v1c0-7.203-5.8-13.002-13.004-13.002H17.002A12.975 12.975 0 0 0 3.998 18.004" opacity=".5"/><use xlink:href="#e" mask="url(#f)" transform="translate(-5.76 -15.028)scale(.54723)"/><use xlink:href="#g" mask="url(#h)" transform="translate(-5.76 -15.028)scale(.54723)"/><use xlink:href="#i" mask="url(#j)" transform="translate(-5.76 -15.028)scale(.54723)"/><path fill="#5c5c63" d="M27.212 20.044a3.604 3.604 0 0 0-3.61-3.598 3.61 3.61 0 0 0-3.094 1.745 3.61 3.61 0 0 0-3.093-1.745 3.605 3.605 0 0 0-3.61 3.598c0 1.035.438 1.967 1.139 2.623h-.002l5.483 5.263 5.65-5.263h-.002a3.58 3.58 0 0 0 1.139-2.623m16.28-4.427c-3.602 0-6.567 2.965-6.567 6.567s2.965 6.567 6.567 6.567 6.567-2.965 6.567-6.567-2.965-6.567-6.567-6.567m0 4.378c1.236 0 2.189.953 2.189 2.189s-.953 2.189-2.189 2.189-2.189-.954-2.189-2.19.953-2.188 2.189-2.188m-4.925 17.512c-1.516 0-2.736 1.22-2.736 2.736s1.22 2.736 2.736 2.736 2.736-1.22 2.736-2.736-1.22-2.736-2.736-2.736m7.661 0c-1.515 0-2.736 1.22-2.736 2.736s1.22 2.736 2.736 2.736 2.736-1.22 2.736-2.736-1.22-2.736-2.736-2.736m-7.661 7.661a2.73 2.73 0 0 0-2.736 2.736 2.73 2.73 0 0 0 2.736 2.737 2.73 2.73 0 0 0 2.736-2.737 2.73 2.73 0 0 0-2.736-2.736m7.661 0a2.73 2.73 0 0 0-2.736 2.736c0 1.516 1.22 2.737 2.736 2.737s2.736-1.22 2.736-2.737a2.73 2.73 0 0 0-2.736-2.736m-24.643-8.226c-.67 0-1.27.406-1.522 1.024-.25.62-.1 1.33.378 1.795l2.123 2.123h-6.981a1.64 1.64 0 0 0-1.441 2.47c.297.51.848.822 1.44.814h6.982l-2.123 2.122a1.642 1.642 0 1 0 2.322 2.322l4.78-4.78q.176-.136.312-.31l.994-.996-.994-.996a1.8 1.8 0 0 0-.317-.314l-4.775-4.776a1.64 1.64 0 0 0-1.178-.498"/><path fill="#ccab8f" d="M43.458 61.038 9.613 2.416v58.622zM30.19 53.377H17.274V31.009z"/><path fill="#b38259" d="M31.233 53.376 18.32 31.008h-1.095l12.913 22.368zM10.658 4.311 9.564 2.415v58.622h1.094z"/><path fill="none" stroke="#855c3a" stroke-width=".547" d="M12.471 59.67H9.735m2.736-8.209H9.735m2.736-8.209H9.735m2.736-8.208H9.735m2.736-8.209H9.735m2.736-8.208H9.735m2.736-8.209H9.735m1.641 47.61H9.734m1.642-1.642H9.734m1.642-1.642H9.734m1.642-1.641H9.734m1.642-3.284H9.734m1.642-1.641H9.734m1.642-1.642H9.734m1.642-1.642H9.734m1.642-3.283H9.734m1.642-1.642H9.734m1.642-1.642H9.734m1.642-1.641H9.734m1.642-3.284H9.734m1.642-1.641H9.734m1.642-1.642H9.734m1.642-1.642H9.734m1.642-3.283H9.734m1.642-1.642H9.734m1.642-1.642H9.734m1.642-1.641H9.734m1.642-3.284H9.734m1.642-1.641H9.734m1.642-1.642H9.734m1.642-1.642H9.734m1.642-3.283H9.734m1.642-1.642H9.734"/></svg>