<svg xmlns="http://www.w3.org/2000/svg" viewBox="0 0 64 64"><rect width="56.002" height="56.002" x="4" y="3.969" fill="#e6e6e6" rx="13.002" ry="13.002"/><path d="M3.998 45.998v1c0 7.203 5.8 13.004 13.004 13.004h29.996c7.203 0 13.004-5.8 13.004-13.004v-1c0 7.203-5.8 13.002-13.004 13.002H17.002A12.975 12.975 0 0 1 3.998 45.998" opacity=".12"/><path fill="#fff" d="M3.998 18.004v-1C3.998 9.801 9.798 4 17.002 4h29.996c7.203 0 13.004 5.8 13.004 13.004v1c0-7.203-5.8-13.002-13.004-13.002H17.002A12.975 12.975 0 0 0 3.998 18.004" opacity=".2"/><path fill="#404040" d="M33.738 18c-3.7 0-5.948 4.138-7.363 7.816l-1.778 5.403-2.261 7.242C21.634 40.499 21.139 43.738 19 44c-.936.114-.896-2-2-2a2 2 0 0 0 0 4h1.262c4.277 0 6.717-5.382 8.55-11.305l1.028-3.344 1.64-5.277c.847-2.182 1.2-5.77 3.52-6.074.935-.123.895 2 2 2a2 2 0 1 0 0-4z"/><path fill="#404040" d="M19 28h16v2H19z"/><path fill="#404040" d="M45.738 18c-3.7 0-5.948 4.138-7.363 7.816l-1.778 5.403-2.261 7.242C33.634 40.499 33.139 43.738 31 44c-.936.114-.896-2-2-2a2 2 0 0 0 0 4h1.262c4.277 0 6.717-5.382 8.55-11.305l1.028-3.344 1.64-5.277c.847-2.182 1.2-5.77 3.52-6.074.935-.123.895 2 2 2a2 2 0 1 0 0-4z"/><path fill="#404040" d="M31 28h16v2H31z"/></svg>