<svg xmlns="http://www.w3.org/2000/svg" width="64" height="64"><defs><linearGradient id="a" x1="2568.6" x2="2568.6" y1="1956.4" y2="1079.1" gradientTransform="translate(-131.95 -64.909)scale(.06383)" gradientUnits="userSpaceOnUse"><stop offset="0" stop-color="#8a26af"/><stop offset="1" stop-color="#3bcbd9"/></linearGradient><filter id="b" width="1.294" height="1.294" x="-.147" y="-.147" color-interpolation-filters="sRGB"><feGaussianBlur stdDeviation="1.715"/></filter></defs><rect width="56.002" height="56.002" x="4" y="3.969" fill="url(#a)" rx="13.002" ry="13.002"/><path d="M31.997 19.038A13.97 13.97 0 0 0 18 32.511c2 5.258 7.085 8.971 13.063 8.971 4.228 0 7.988-1.855 10.544-4.802a13.91 13.91 0 0 1-9.413 10.357A13.95 13.95 0 0 0 46 33.04a13.957 13.957 0 0 0-13.997-13.997" filter="url(#b)" opacity=".15"/><path fill="#ecedf1" d="M31.997 18.001A13.97 13.97 0 0 0 18 31.474c2 5.258 7.085 8.971 13.063 8.971 4.228 0 7.988-1.855 10.544-4.802A13.91 13.91 0 0 1 32.194 46 13.95 13.95 0 0 0 46 32.003a13.957 13.957 0 0 0-13.997-13.997"/></svg>