<svg xmlns="http://www.w3.org/2000/svg" viewBox="0 0 64 64"><defs><linearGradient id="a" x1="409.57" x2="409.75" y1="542.8" y2="506.01" gradientTransform="matrix(.86339 0 0 .8182 -320.77 -397.49)" gradientUnits="userSpaceOnUse"><stop offset="0" stop-color="#606060"/><stop offset=".491" stop-color="#414141"/><stop offset="1" stop-color="#1e1e1e"/></linearGradient></defs><rect width="56.002" height="56.002" x="4" y="3.969" fill="#f2f2f2" rx="13.002" ry="13.002"/><path d="M3.998 45.998v1c0 7.203 5.8 13.004 13.004 13.004h29.996c7.203 0 13.004-5.8 13.004-13.004v-1c0 7.203-5.8 13.002-13.004 13.002H17.002A12.975 12.975 0 0 1 3.998 45.998" opacity=".1"/><path fill="#fff" d="M3.998 18.004v-1C3.998 9.801 9.798 4 17.002 4h29.996c7.203 0 13.004 5.8 13.004 13.004v1c0-7.203-5.8-13.002-13.004-13.002H17.002A12.975 12.975 0 0 0 3.998 18.004" opacity=".5"/><circle cx="32.02" cy="32.044" r="30.001" fill="none"/><rect width="37.991" height="27.819" x="13" y="18.001" fill="url(#a)" ry="1.309" style="fill:#666"/><path fill="#fff" d="M14.309 18.002c-.725 0-1.309.583-1.309 1.309v25.2c0 .726.584 1.31 1.309 1.31H19v-27.82h-4.69z" opacity=".15"/><g fill="#ccc" stroke-width=".462"><circle cx="16.5" cy="29.5" r="1.5"/><circle cx="16.5" cy="25.5" r="1.5"/><circle cx="16.5" cy="21.502" r="1.5"/></g></svg>