<svg xmlns="http://www.w3.org/2000/svg" xmlns:xlink="http://www.w3.org/1999/xlink" viewBox="0 0 64 64"><defs><linearGradient id="a" x1="7.937" x2="7.937" y1="15.081" y2="1.852" gradientTransform="translate(-.815 1.386)scale(3.7796)" gradientUnits="userSpaceOnUse"><stop offset="0" stop-color="#740e12"/><stop offset="1" stop-color="#941c1c"/></linearGradient><linearGradient xlink:href="#a" id="b" x1="108.51" x2="108.51" y1="216.82" y2="147.06" gradientTransform="translate(.58 .456)" gradientUnits="userSpaceOnUse"/><linearGradient xlink:href="#a" id="c" x1="108.51" x2="108.51" y1="216.82" y2="147.06" gradientTransform="translate(0 -.535)" gradientUnits="userSpaceOnUse"/><linearGradient xlink:href="#a" id="d" x1="108.51" x2="108.51" y1="216.82" y2="147.06" gradientTransform="translate(2.396 .305)" gradientUnits="userSpaceOnUse"/><linearGradient id="e" x1="17.367" x2="17.367" y1="10.635" y2="10.254" gradientTransform="matrix(1 0 0 .66667 -.434 3.49)" gradientUnits="userSpaceOnUse"><stop offset="0" stop-color="#212020"/><stop offset=".633" stop-color="#1c2328"/><stop offset="1" stop-color="#212020"/></linearGradient><linearGradient id="f" x1="17.367" x2="17.367" y1="10.635" y2="10.254" gradientUnits="userSpaceOnUse"><stop offset="0" stop-color="#212020"/><stop offset=".284" stop-color="#212020"/><stop offset=".635" stop-color="#374550"/><stop offset=".793" stop-color="#374550"/><stop offset="1" stop-color="#212020"/></linearGradient><linearGradient id="g" x1="30.946" x2="30.946" y1="11.199" y2="9.364" gradientTransform="matrix(1 0 0 .54079 3.25 4.869)" gradientUnits="userSpaceOnUse"><stop offset="0" stop-color="#212020"/><stop offset=".284" stop-color="#212020"/><stop offset=".635" stop-color="#374550"/><stop offset=".679" stop-color="#fefefe"/><stop offset=".767" stop-color="#fff"/><stop offset=".793" stop-color="#374550"/><stop offset="1" stop-color="#212020"/></linearGradient><linearGradient id="h" x1="25.135" x2="25.135" y1="11.222" y2="9.39" gradientTransform="translate(2.182 .144)" gradientUnits="userSpaceOnUse"><stop offset="0" stop-color="#212020"/><stop offset=".284" stop-color="#212020"/><stop offset=".635" stop-color="#5d7788"/><stop offset=".679" stop-color="#fff"/><stop offset=".767" stop-color="#fff"/><stop offset=".793" stop-color="#374550"/><stop offset="1" stop-color="#212020"/></linearGradient><linearGradient id="i" x1="81.162" x2="81.162" y1="42.393" y2="35.405" gradientTransform="translate(2.182 .144)scale(.26458)" gradientUnits="userSpaceOnUse"><stop offset="0" stop-color="#212020"/><stop offset=".51" stop-color="#688297"/><stop offset="1" stop-color="#212020"/></linearGradient><linearGradient id="j" x1="25.135" x2="25.135" y1="11.222" y2="9.39" gradientTransform="translate(-10.229 .144)" gradientUnits="userSpaceOnUse"><stop offset="0" stop-color="#212020"/><stop offset=".284" stop-color="#212020"/><stop offset=".635" stop-color="#374550"/><stop offset="1" stop-color="#212020"/></linearGradient></defs><rect width="56.002" height="56.002" x="4" y="3.969" fill="#f2f2f2" rx="13.002" ry="13.002"/><path d="M3.998 45.998v1c0 7.203 5.8 13.004 13.004 13.004h29.996c7.203 0 13.004-5.8 13.004-13.004v-1c0 7.203-5.8 13.002-13.004 13.002H17.002A12.975 12.975 0 0 1 3.998 45.998" opacity=".1"/><path fill="#fff" d="M3.998 18.004v-1C3.998 9.801 9.798 4 17.002 4h29.996c7.203 0 13.004 5.8 13.004 13.004v1c0-7.203-5.8-13.002-13.004-13.002H17.002A12.975 12.975 0 0 0 3.998 18.004" opacity=".5"/><rect width="64" height="64" fill="none" rx="0" ry="0" style="paint-order:stroke fill markers"/><g stroke-linecap="round" stroke-linejoin="round" stroke-opacity=".35" stroke-width=".075" opacity=".25" transform="translate(0 1)scale(3.7796)"><rect width="12.171" height=".132" x="2.381" y="3.969" opacity=".75" rx="0" ry=".066"/><rect width="12.171" height=".132" x="2.381" y="6.085" opacity=".75" rx="0" ry=".066"/><rect width="12.171" height=".132" x="2.381" y="8.202" opacity=".75" rx="0" ry=".066"/><rect width="12.171" height=".132" x="2.381" y="10.054" opacity=".75" rx="0" ry=".066"/><rect width="12.171" height=".132" x="2.381" y="12.171" opacity=".75" rx="0" ry=".066"/></g><path fill="#da4d45" d="M17.836 4h.5v55.999h-.5z" opacity=".15"/><g stroke-width="4.709"><path fill="url(#b)" d="m98.07 172.695-.667-12.349H70.795l-.666 12.35h1.91c.31-2.222.71-3.91 1.2-5.331 1.154-3.243 3.286-4.931 6.307-4.931 1.466 0 2.088.489 2.088 1.6v24.208c0 1.866-.4 2.088-3.998 2.088H76.48v2.088h15.236v-2.088h-1.155c-3.554 0-3.953-.222-3.953-2.088v-24.209c0-1.11.622-1.599 2.087-1.599 2.71 0 4.887 1.51 5.997 4.176.666 1.643 1.11 3.553 1.466 6.085z" transform="translate(-19.411 -61.02)scale(.4422)"/><path fill="url(#c)" d="M119.519 192.418h-1.955c-1.377 7.329-3.375 9.772-10.305 9.772h-2.932c-2.265 0-3.198-.266-3.198-2.132V188.73h.888c5.508 0 6.264 2.22 6.397 6.396h2.088v-14.57h-2.088c-.222 4.354-1.999 6.086-6.219 6.086h-1.066v-10.128c0-1.91.4-2.22 2.798-2.22h2.31c7.374 0 9.24 1.51 10.528 9.283h1.91v-11.372H91.357v2.088h.8c3.597 0 3.997.222 3.997 2.088v23.72c0 1.866-.4 2.088-3.998 2.088h-.8v2.088h27.275z" transform="translate(-19.411 -61.02)scale(.4422)"/><path fill="url(#d)" d="M149.591 192.418v-2.088h-.621c-2.843 0-3.065-.133-4.576-2.31l-9.328-13.37 5.908-8.04c2.443-3.332 3.731-4.176 6.085-4.176h.711v-2.088h-12.215v2.088h1.066c2.132 0 2.62.533 2.62 1.732 0 .489-.133.8-.621 1.51l-4.798 6.975-5.908-8.529c-.31-.444-.488-.888-.488-1.11 0-.445.444-.578 2.132-.578h1.688v-2.088H117.52v2.088h.755c2.177 0 2.71.222 3.731 1.688l8.751 12.66-7.196 9.994c-1.777 2.443-3.065 3.598-5.375 3.554h-.622v2.088h12.616v-2.088h-1.11c-1.778 0-2.888-.8-2.888-2.132 0-.578.266-1.288.71-1.955l5.153-7.462 6.619 9.372c.355.533.577 1.022.577 1.377 0 .667-.177.8-2.976.8h-1.243v2.088z" transform="translate(-19.411 -61.02)scale(.4422)"/></g><g stroke-linecap="round" stroke-linejoin="round" stroke-opacity=".35" stroke-width=".667" transform="rotate(-60 63.532 54.92)scale(2.8)"><rect width=".656" height=".265" x="16.643" y="10.319" fill="url(#e)" rx="0" ry=".048"/><rect width=".656" height=".397" x="17.077" y="10.243" fill="url(#f)" rx="0" ry=".072"/><path fill="url(#g)" d="M33.137 9.933c.147 0 .265.223.265.5 0 .278-.118.501-.265.501h1.587c.147 0 .265-.223.265-.5 0-.278-.118-.501-.264-.501z"/><path fill="#212020" d="M33.72 9.933c.147 0 .185.223.185.5 0 .278-.038.501-.185.501h.132c.146 0 .185-.223.185-.5 0-.278-.039-.501-.185-.501z"/><path fill="url(#h)" d="M21.231 9.508c.147 0 .265.413.265.926s-.118.926-.265.926h12.292c.221 0 .398-.413.398-.926s-.177-.926-.398-.926z"/><path fill="url(#i)" d="m21.572 9.508.057.212-.11.41-.155-.58-.046.013c.062.075.11.231.14.428.006.033.013.06.017.095q.027.139.031.297l.013-.049.11.409-.11.408-.065-.246q-.011.064-.024.12l.062.229-.029.106h.055l.001-.004.001.004h.055l-.028-.107.11-.408.109.408-.029.107h.055l.001-.004.001.004h.055l-.029-.107.11-.408.11.408-.029.107h.055v-.004l.002.004h.055l-.029-.107.11-.408.11.41-.029.105h.055l.001-.003.001.003h.055l-.028-.106.11-.409.108.408-.028.107h.055v-.005l.002.005h.054l-.028-.107.11-.408.11.41-.029.105h.055v-.003l.002.003h.055l-.029-.106.11-.409.11.409-.03.106h.056v-.004l.002.004h.055l-.029-.107.11-.408.11.409-.03.106h.056v-.004l.002.004h.054l-.028-.106.11-.41.109.41-.028.106h.054l.001-.004.001.004h.055l-.028-.106.11-.409.109.409-.029.106h.055l.001-.004.001.004h.055l-.028-.107.11-.408.109.409-.029.106h.055l.001-.004.001.004h.055l-.029-.106.11-.409.11.409-.029.106h.055v-.004l.002.004h.055l-.029-.107.11-.408.11.409-.03.106h.056v-.004l.002.004h.054l-.028-.106.11-.41.11.41-.03.106h.055l.001-.004.001.004h.055l-.028-.106.11-.41.109.41-.029.106h.056v-.003l.002.003h.054l-.028-.105.11-.41.109.408-.029.107h.055l.001-.005.001.005h.055l-.029-.107.11-.409.11.41-.029.106h.055v-.004l.002.004h.055l-.029-.106.11-.41.11.41-.03.106h.056v-.004l.002.004h.037l.016-.004-.027-.103.11-.408.102.385c.103-.14.175-.381.192-.667l-.02.077-.11-.41.075-.281-.029-.094-.073.274-.11-.408.036-.133q-.022-.021-.046-.036l-.017.066-.025-.093a.2.2 0 0 0-.059-.014l.056.21-.11.408-.109-.41.057-.211h-.055l-.03.11-.029-.11h-.054l.056.212-.11.409-.108-.408.057-.213h-.056l-.03.11-.029-.11h-.054l.057.212-.11.41-.11-.41.057-.212h-.055l-.029.11-.03-.11h-.054l.057.212-.11.408-.11-.408.057-.212h-.054l-.03.11-.03-.11h-.054l.057.212-.11.41-.11-.41.057-.212h-.054l-.03.11-.03-.11h-.054l.057.212-.11.409-.11-.409.058-.212h-.055l-.03.11-.03-.11h-.054l.057.212-.11.41-.11-.41.058-.212h-.055l-.03.11-.029-.11h-.055l.057.213-.11.408-.109-.409.057-.212h-.055l-.03.11-.029-.11h-.055l.057.212-.11.41-.109-.41.057-.212h-.055l-.03.11-.029-.11h-.055l.057.213-.11.408-.109-.409.057-.212h-.055l-.03.11-.029-.11h-.054l.056.212-.11.41-.109-.41.057-.212h-.055l-.03.11-.029-.11h-.054l.057.213-.11.409-.11-.41.057-.212h-.055l-.029.11-.03-.11h-.054l.057.212-.11.41-.11-.41.057-.212h-.054l-.03.11-.03-.11h-.054l.058.213-.11.409-.11-.409.058-.213h-.056l-.03.11-.029-.11h-.054l.056.213-.11.408-.109-.409.057-.212h-.055l-.029.11-.03-.11h-.054l.057.212-.11.409-.11-.408.057-.213h-.054l-.03.11-.03-.11h-.054l.057.213-.11.408-.11-.409.057-.212h-.054l-.03.11-.03-.11zm3.645.314.11.409-.11.409-.11-.409zm.274 0 .11.41-.11.408-.11-.41zm.548 0 .11.41-.11.408-.11-.41zm-4.383 0 .11.41-.11.409-.11-.41zm.548 0 .11.41-.11.408-.11-.409zm.548 0 .11.41-.11.409-.11-.409zm.274 0 .11.41-.11.409-.11-.41zm.548 0 .11.41-.11.409-.11-.41zm.274 0 .11.41-.11.409-.11-.41zm.274 0 .11.41-.11.409-.11-.41zm.274 0 .11.41-.11.409-.11-.41zm.273 0 .11.41-.11.409-.11-.41zm.274 0 .11.41-.11.409-.11-.41zm-3.013.001.11.408-.11.409-.11-.409zm1.37 0 .11.409-.11.409-.11-.409zm2.465 0 .11.408-.11.41-.11-.408zm.548 0 .11.408-.11.409-.11-.408zm-3.835 0 .11.41-.11.408-.11-.41zm2.876.51.11.41-.11.409-.11-.41zm.548 0 .11.41-.11.409-.11-.41zm.548 0 .11.41-.11.408-.11-.409zm-4.657 0 .11.41-.11.408-.11-.408zm.274 0 .11.41-.11.408-.11-.409zm.274 0 .11.41-.11.41-.11-.41zm.548 0 .11.41-.11.41-.11-.41zm.548 0 .11.41-.11.41-.11-.41zm.274 0 .11.41-.11.409-.11-.41zm.548 0 .11.41-.11.409-.11-.41zm.273 0 .11.41-.11.408-.11-.409zm.274 0 .11.41-.11.409-.11-.41zm.274 0 .11.41-.11.409-.11-.41zm-1.917.001.11.409-.11.409-.11-.41zm.822 0 .11.409-.11.409-.11-.41zm1.643 0 .11.408-.11.41-.11-.41zm.548 0 .11.408-.11.41-.11-.41zm-3.56 0 .108.409-.11.408-.108-.408zm-1.37 1.02q-.008.005-.015.006h.013z" opacity=".75"/><g fill="#212020"><path d="M31.562 9.508c.221 0 .399.413.399.926s-.178.926-.399.926h.118c.22 0 .399-.413.399-.926s-.178-.926-.4-.926zm3.288.487c.04.084.099.242.099.435s-.06.359-.099.443c.08-.082.133-.237.137-.42v-.039c-.004-.182-.057-.337-.137-.419"/><path d="m27.116 9.454 6.431.214c.033.002.273.187.26.217l-.112.244c-.014.03-.026.06-.06.06H27.14c-.033 0-.052-.028-.06-.06l-.088-.401c-.007-.032.091-.274.124-.274"/></g><path fill="#374550" d="M27.171 9.404h6.495c.033 0 .053.027.06.06l.088.4c.007.032-.026.06-.06.06H27.26c-.033 0-.052-.028-.06-.06l-.088-.4c-.007-.033.027-.06.06-.06Z"/><path fill="#565e64" d="M27.147 9.413c-.022.01-.041.027-.036.05l.088.4c.007.033.027.06.06.06h6.495c.033 0 .067-.027.06-.06l-.005-.02c-.008.004-.015.01-.023.01H27.29c-.033 0-.052-.027-.06-.06z"/><g stroke-width=".07"><path fill="url(#j)" d="M17.674 10.198s-.018.01-.011.047c.037.045.052.148.053.19a.5.5 0 0 1-.048.208c.003.034.016.04.016.04l3.54.677c.216.042.287-.413.287-.926s-.083-.968-.3-.926z"/><path fill="#374550" d="M17.792 10.301s-.03 0-.027.081c.001.082.027.087.027.087l3.37.029c.221.002.23-.356.23-.5 0-.213-.15-.389-.229-.373z"/><path fill="#565e64" d="M17.792 10.301s-.03 0-.027.081c.001.082.027.087.027.087l3.322-.123c.22-.008.201-.205.201-.35 0-.213-.093-.296-.173-.282z"/><path fill="#fff" d="M17.792 10.319s-.03-.018-.027.064c.001.082.027.068.027.068l3.356-.243c.084-.006.12-.068.12-.213 0-.213-.077-.205-.144-.195z"/></g><path fill="#fff" d="M17.41 10.353c0 .013-.122.024-.2.024s-.081-.01-.081-.024c0-.013.003-.024.081-.024s.2.01.2.024"/><path fill="#374550" d="M16.983 10.412c0 .013-.122.024-.2.024s-.081-.01-.081-.024c0-.013.003-.024.081-.024s.2.01.2.024"/><path fill="#212020" d="M26.174 9.508c.221 0 .399.413.399.926s-.178.926-.399.926h.118c.22 0 .399-.413.399-.926s-.178-.926-.4-.926zm-3.326 0c.221 0 .399.413.399.926s-.178.926-.399.926h.118c.22 0 .399-.413.399-.926s-.178-.926-.4-.926zm-.614 0c.221 0 .399.413.399.926s-.178.926-.399.926h.118c.22 0 .399-.413.399-.926s-.178-.926-.4-.926z" opacity=".75"/></g></svg>