<svg xmlns="http://www.w3.org/2000/svg" image-rendering="optimizeSpeed" viewBox="0 0 64 64"><rect width="56.002" height="56.002" x="4" y="3.969" fill="#23c1fc" rx="13.002" ry="13.002"/><path fill="#fff" d="M27.75 46.94c-3.128-.288-5.553-1.296-7.374-3.068-1.547-1.505-2.372-4.674-2.376-6.492q-.005-1.91 1.103-3.063c.84-.876 1.8-1.277 3.08-1.285 1.601-.01 2.898.55 3.49 1.79.25.524.265.613.317 1.942.06 1.508.134 3.7.499 4.415.523 1.027 1.455 1.818 3.483 1.82C32 43 33.31 41.96 33.847 39.864c.138-.536.15-1.586.15-8.539 0-7.437-.003-7.36-.171-7.651-.297-.512-.664-.641-2.075-.674H30v-4h16v4h-1.693c-1.34.053-1.577.114-1.873.433-.408.44-.298.054-.355 8.145-.057 8.026-.061 8.105-.443 9.167-.955 2.655-3.335 4.874-6.614 5.726-1.676.436-5.41.64-7.272.47z" class="ColorScheme-Text" color="#444"/><path d="M3.998 45.998v1c0 7.203 5.8 13.004 13.004 13.004h29.996c7.203 0 13.004-5.8 13.004-13.004v-1c0 7.203-5.8 13.002-13.004 13.002H17.002A12.975 12.975 0 0 1 3.998 45.998" opacity=".15"/><path fill="#fff" d="M3.998 18.004v-1C3.998 9.801 9.798 4 17.002 4h29.996c7.203 0 13.004 5.8 13.004 13.004v1c0-7.203-5.8-13.002-13.004-13.002H17.002A12.975 12.975 0 0 0 3.998 18.004" opacity=".15"/></svg>