<svg xmlns="http://www.w3.org/2000/svg" viewBox="0 0 64 64"><defs><linearGradient id="a" x1="47" x2="47" y1="17" y2="19" gradientTransform="translate(-21.899 -11.153)scale(1.5085)" gradientUnits="userSpaceOnUse"><stop offset="0" stop-color="#606060"/><stop offset=".02" stop-color="#414141"/><stop offset="1" stop-color="#1e1e1e"/></linearGradient></defs><rect width="56.002" height="56.002" x="4" y="3.969" fill="#d1d1d1" rx="13.002" ry="13.002"/><rect width="51.996" height="51.939" x="6.002" y="6" fill="#030000" rx="11" ry="11"/><rect width="46.002" height="46.002" x="9" y="9" fill="#262626" rx="8" ry="8"/><path fill="#fff" d="M15 34.167v-2.151L22 36v2.031l-7 3.985v-2.152l5.27-2.84z"/><rect width="8" height="2" x="25" y="43" fill="#fff" rx="0" ry="0"/><path fill="#d1d1d1" d="M17.002 3.969A12.973 12.973 0 0 0 4 16.97V19h56.002v-2.03A12.973 12.973 0 0 0 47 3.969z"/><circle cx="48.999" cy="16" r="1.508" fill="url(#a)" fill-rule="evenodd" style="paint-order:fill markers stroke"/><circle cx="49" cy="16" r="1" fill="#3889e9" fill-rule="evenodd" style="paint-order:fill markers stroke"/><path d="M3.998 45.998v1c0 7.203 5.8 13.004 13.004 13.004h29.996c7.203 0 13.004-5.8 13.004-13.004v-1c0 7.203-5.8 13.002-13.004 13.002H17.002A12.975 12.975 0 0 1 3.998 45.998" opacity=".1"/><path fill="#fff" d="M3.998 18.004v-1C3.998 9.801 9.798 4 17.002 4h29.996c7.203 0 13.004 5.8 13.004 13.004v1c0-7.203-5.8-13.002-13.004-13.002H17.002A12.975 12.975 0 0 0 3.998 18.004" opacity=".25"/></svg>