<svg xmlns="http://www.w3.org/2000/svg" viewBox="0 0 64 64"><defs><linearGradient id="a" x1="7.937" x2="7.937" y1="15.081" y2="1.852" gradientTransform="scale(3.7796)" gradientUnits="userSpaceOnUse"><stop offset="0" stop-color="#b81e31" style="stop-color:#700;stop-opacity:1"/><stop offset="1" stop-color="#ff5c5c" style="stop-color:#f20000;stop-opacity:1"/></linearGradient></defs><rect width="56.002" height="56.002" x="4" y="3.969" fill="url(#a)" rx="13.002" ry="13.002" style="fill:#b10000;fill-opacity:1"/><g style="fill:#fff;fill-opacity:1"><path d="m34.539 32.09-2 31.91-2-32 2-32Z" style="opacity:1;fill:#fff;fill-opacity:1;fill-rule:nonzero;stroke:none;stroke-width:.526163;stroke-linecap:butt;stroke-linejoin:miter;stroke-miterlimit:4;stroke-dasharray:none;stroke-opacity:1" transform="translate(7.23 7.58)scale(.76219)"/><path d="m28.06 59-2.448-24.963s-23.484-2.819-23.61-8.972c-.086-4.048 4.94-5.97 7.693-5.97 2.306 0-5.487.048-5.524 5.192-.03 4.393 25.189 6.06 25.189 6.06zm8.88 0 2.448-24.963s23.484-2.819 23.61-8.972c.086-4.048-4.94-5.97-7.693-5.97-2.306 0 5.487.048 5.524 5.192.03 4.393-25.189 6.06-25.189 6.06z" style="fill:#fff;fill-opacity:1;fill-rule:nonzero;stroke:none;stroke-width:.5;stroke-linecap:butt;stroke-linejoin:miter;stroke-miterlimit:4;stroke-dasharray:none;stroke-opacity:1" transform="translate(7.23 7.58)scale(.76219)"/></g><path d="M3.998 45.998v1c0 7.203 5.8 13.004 13.004 13.004h29.996c7.203 0 13.004-5.8 13.004-13.004v-1c0 7.203-5.8 13.002-13.004 13.002H17.002A12.975 12.975 0 0 1 3.998 45.998" opacity=".15"/><path fill="#fff" d="M3.998 18.004v-1C3.998 9.801 9.798 4 17.002 4h29.996c7.203 0 13.004 5.8 13.004 13.004v1c0-7.203-5.8-13.002-13.004-13.002H17.002A12.975 12.975 0 0 0 3.998 18.004" opacity=".15"/></svg>