<svg xmlns="http://www.w3.org/2000/svg" viewBox="0 0 64 64"><rect width="56.002" height="56.002" x="4" y="3.969" fill="#f2f2f2" rx="13.002" ry="13.002"/><path d="M3.998 45.998v1c0 7.203 5.8 13.004 13.004 13.004h29.996c7.203 0 13.004-5.8 13.004-13.004v-1c0 7.203-5.8 13.002-13.004 13.002H17.002A12.975 12.975 0 0 1 3.998 45.998" opacity=".1"/><path fill="#fff" d="M3.998 18.004v-1C3.998 9.801 9.798 4 17.002 4h29.996c7.203 0 13.004 5.8 13.004 13.004v1c0-7.203-5.8-13.002-13.004-13.002H17.002A12.975 12.975 0 0 0 3.998 18.004" opacity=".5"/><path fill="#6a6a6a" d="M27.078 17.048c-9.946 3.619-15.415 13.288-12.182 21.554 3.238 8.27 13.969 12.049 23.912 8.43 9.94-3.618 15.415-13.293 12.175-21.568-3.238-8.27-13.969-12.043-23.912-8.426m1.119 2.843c8.101-2.951 16.755.097 19.388 6.821 2.632 6.719-1.773 14.525-9.88 17.475s-16.766-.101-19.392-6.828c-2.633-6.718 1.778-14.52 9.886-17.468"/><path fill="#8f8cf5" d="M31.23 13.539a3.85 3.85 0 0 0-3.846 3.846 3.85 3.85 0 0 0 3.846 3.845 3.85 3.85 0 0 0 3.846-3.845 3.85 3.85 0 0 0-3.846-3.846m16.924 6.152c-2.122 0-3.846 1.726-3.846 3.848s1.724 3.846 3.846 3.846S52 25.66 52 23.539s-1.725-3.848-3.846-3.848m-32.309 7.694a3.85 3.85 0 0 0-3.846 3.845 3.85 3.85 0 0 0 3.846 3.846 3.85 3.85 0 0 0 3.846-3.846 3.85 3.85 0 0 0-3.846-3.845m29.23 9.23c-2.122 0-3.846 1.724-3.846 3.846s1.725 3.848 3.846 3.848 3.848-1.726 3.848-3.848-1.726-3.846-3.848-3.846m-20 6.154a3.85 3.85 0 0 0-3.846 3.846 3.85 3.85 0 0 0 3.846 3.846 3.85 3.85 0 0 0 3.848-3.846 3.85 3.85 0 0 0-3.848-3.846"/></svg>