<svg xmlns="http://www.w3.org/2000/svg" width="64" height="64"><defs><linearGradient id="a" x1="7.937" x2="7.937" y1="15.081" y2="1.852" gradientTransform="scale(3.7796)" gradientUnits="userSpaceOnUse"><stop offset="0" stop-color="#767574"/><stop offset="1" stop-color="#d1e7ee"/></linearGradient><linearGradient id="b" x1="32.986" x2="32.986" y1="11.552" y2="53.224" gradientUnits="userSpaceOnUse"><stop offset="0" stop-color="#ebebeb"/><stop offset="1" stop-color="#b3b3b3"/></linearGradient></defs><rect width="56.002" height="56.002" x="4" y="3.969" fill="url(#a)" rx="13.002" ry="13.002"/><rect width="51.996" height="51.939" x="6.002" y="6" fill="#030000" rx="11" ry="11"/><rect width="46.002" height="46.002" x="9" y="9" fill="url(#b)" rx="8" ry="8"/><path d="M30 15v16h22V15zm0 17v2h15v-2zm-18 4v8h10v-2h30v-6zm0 10v6h34v-2h6v-4z" opacity=".15"/><circle cx="32.02" cy="32.044" r="30.001" fill="none"/><path d="M28 11h19v2H28z" opacity=".35"/><path d="M28.477 7.94c-5.919.376-12.81-1.673-17.714 1.662-.653.426-.935.653-1.035.832-.136.243-.136.25-.006.533.174.383.581.762 1.142 1.064.525.283.626.476.523 1.006-.064.329-.003.8.127.955.044.054.247.213.451.354.294.201.372.293.374.44.008.652.64 1.314 1.366 1.43.277.044.347.25.179.521-.219.352-.06 1.259.282 1.62a1 1 0 0 1 .212.36c.026.104.152.281.28.393.2.176.231.245.227.5-.003.163.048.435.113.605s.145.45.177.62c.071.372.268.889.395 1.038a.4.4 0 0 1 .093.217c.002.193.263.699.482.933.131.14.301.242.445.264.129.02.234.063.234.098s.069.155.151.267c.103.138.21.201.335.2.174-.003.19.025.3.496.065.275.174.562.243.637a1 1 0 0 1 .177.377c.029.131.078.287.109.345.03.058.074.19.097.295.047.217.545.567.9.633.2.037.217.06.206.292-.01.23.01.256.226.328.251.083.258.107.172.595-.037.214-.025.26.065.258.064 0 .112.054.113.132 0 .073.097.288.214.476.202.325.208.352.107.504-.175.264-.131.558.12.795.122.115.283.242.358.283v.002a.6.6 0 0 0 .227.075c.003 0 .098-.04.114-.045l.78-.082.22.14-.019.207-.817.293-.05-.002-2.413-.051-4.951-.28c-2.23-.186-2.185-.287-2.442-.362-.19-.055-.51-.01-.725.13-.329.216-.335.343-.047.82.293.484.279.614-.096.895-.38.286-.392.405-.083.923.312.522.3.628-.099.86-.524.306-.609 1.204-.13 1.384.223.083.142.301-.26.698-.688.68-.714.961-.188 1.996.216.425.343.824.283.885s.05.428.245.814c.415.82 2.224 1.345 3.623 1.366-.144.497.216.13.619-.113.404-.101.363-.258.675.063-.328 1.372 1.693 1.443 2.726 1.1.127.17.262.306 1.433.607l1.885-1.28c.823-.867 1.038-1.063 1.852-1.857 1.197-1.167 1.255-1.556 2.674-2.41.392-.156 1.575-.237 1.815-.261l2.172 1.115.832 1.28 1.663.853 1.248.853 1.19.284-.001.026.591.16.077.467.711.082.046.456.632.045-.02.369.731.168.184.465.46-.067.357.579.585-.029.278.495.864.059.107.453.887-.213.712.558.484-.268.03.416.683.214.502-.205.49.373.623-.283.809.205.395-.18.382.398.831-.045.528-.36.41.038.823-.14.36-.365.831.127.876-.602.486.184 1.905-.429-.497-.585 2.82-1.116-.359-.344-.412.097 2.932-2.528 1.58-2.475 1.117-2.028.32-.924.05-.461-.34.29-1.093 2.018.093-.515-.404.285-1.383 1.847-1.834 1.308-2.07.065-2.33-.627-2.412-1.128-1.397-.782-.658-.138-.98-.668-3.155-2.613-2.086-1.21-.196-.157.044-.49-.457-.383.652-.555.744-.639.359-.215.721-.431.364-.215.61-.224c.596-.218.614-.224.907-.291l.3-.07.245.055c.28.063.646.104.835.095a.5.5 0 0 1 .131.003c.004.005.031.06.06.125l.052.117.052-.114c.048-.103.055-.132.098-.36l.047-.248-.04-.377-.043-.376-.109-.34-.109-.34-.203-.269c-.194-.257-.206-.27-.277-.313l-.31-.185-.235-.141-.762-.07-.21-.119c-.177-.098-.284-.146-.652-.29l-.44-.171-.529-.057-.526-.057-.42.117-.761.422-.59.138v.002l-1.286.288h-1.131l-.949-.427-1.735-1.28h-.002a3.6 3.6 0 0 0-.446-.425c-.237-.196-.557-.621-.728-.853-.648-.878-1.535-2.894-2.384-5.411a71 71 0 0 0-.727-2.065c-.552-1.434-1.062-3.007-1.295-3.995-.2-.846-.629-2.408-.829-3.017z"/></svg>