<svg xmlns="http://www.w3.org/2000/svg" viewBox="0 0 64 64"><rect width="64" height="64" fill="none" rx="0" ry="0" style="paint-order:stroke fill markers"/><rect width="56.002" height="56.002" x="4" y="3.969" fill="#f2f2f2" rx="13.002" ry="13.002"/><g transform="rotate(-90 57.905 60.909)"><circle cx="86.814" cy="35.004" r="23" fill="gray"/><circle cx="86.814" cy="35.004" r="10" fill="#fff" fill-opacity=".25"/></g><path d="M3.998 45.998v1c0 7.203 5.8 13.004 13.004 13.004h29.996c7.203 0 13.004-5.8 13.004-13.004v-1c0 7.203-5.8 13.002-13.004 13.002H17.002A12.975 12.975 0 0 1 3.998 45.998" opacity=".15"/><path fill="#fff" d="M3.998 18.004v-1C3.998 9.801 9.798 4 17.002 4h29.996c7.203 0 13.004 5.8 13.004 13.004v1c0-7.203-5.8-13.002-13.004-13.002H17.002A12.975 12.975 0 0 0 3.998 18.004" opacity=".15"/><path fill="#fff" d="m31.973 12-.076.006c-.945.096-.929.896-1.235 2.867a17.248 17.199 28.59 0 0-1.925.258c-.887-2.035-1.188-2.739-1.98-2.455-.9.322-.684 1.097-.507 3.11a17.248 17.199 28.59 0 0-1.754.72c-1.272-1.538-1.666-2.233-2.527-1.832-.762.355-.486 1.069.313 3.13a17.248 17.199 28.59 0 0-1.536 1.173c-1.611-1.146-2.173-1.71-2.898-1.102-.638.535-.191 1.152 1.086 2.899a17.248 17.199 28.59 0 0-1.158 1.513c-1.87-.645-2.568-1.028-3.092-.24-.455.684.134 1.153 1.8 2.43a17.248 17.199 28.59 0 0-.763 1.877c-1.935-.215-2.698-.427-3.033.45-.298.783.395 1.104 2.385 2.018a17.248 17.199 28.59 0 0-.262 1.993c-1.906.26-2.694.25-2.803 1.177-.098.834.654.971 2.826 1.375a17.248 17.199 28.59 0 0 .25 1.825c-1.835.884-2.617 1.092-2.433 2.033.16.82.92.724 3.09.449a17.248 17.199 28.59 0 0 .742 1.8c-1.576 1.334-2.289 1.728-1.873 2.598.363.763 1.075.471 3.156-.355l-.193-.344a17.248 17.199 28.59 0 0 1.322 1.762c-1.114 1.66-1.671 2.24-1.041 2.951.546.616 1.151.164 2.82-1.125a17.248 17.199 28.59 0 0 1.56 1.203c-.783 2.096-1.06 2.812-.29 3.16.864.391 1.254-.31 2.504-1.855a17.248 17.199 28.59 0 0 1.834.762c-.286 2.119-.38 2.871.431 3.037.932.19 1.152-.581 2.033-2.377a17.248 17.199 28.59 0 0 1.916.265c.316 2.151.429 2.906 1.26 2.84.944-.074.95-.873 1.297-2.824a17.248 17.199 28.59 0 0 1.988-.258c.812 1.931 1.117 2.62 1.893 2.354.884-.304.706-1.073.557-2.993a17.248 17.199 28.59 0 0 1.75-.703c1.404 1.642 1.901 2.216 2.568 1.72.745-.556.35-1.232-.37-2.99a17.248 17.199 28.59 0 0 1.618-1.226c1.756 1.243 2.38 1.68 2.904 1.035.588-.721.036-1.28-1.095-2.814a17.248 17.199 28.59 0 0 1.238-1.629c1.917.795 2.62 1.066 2.982.334.416-.838-.252-1.257-1.71-2.52a17.248 17.199 28.59 0 0 .73-1.79c2.115.228 2.868.298 3.012-.516.163-.924-.599-1.136-2.366-1.941a17.248 17.199 28.59 0 0 .256-1.942c2.142-.333 2.895-.455 2.823-1.285-.083-.942-.882-.939-2.832-1.268a17.248 17.199 28.59 0 0-.262-1.927c1.969-.906 2.66-1.228 2.363-2.006-.333-.875-1.097-.668-3.015-.453a17.248 17.199 28.59 0 0-.762-1.83c1.729-1.338 2.333-1.807 1.867-2.5-.537-.8-1.236-.391-3.176.283a17.248 17.199 28.59 0 0-1.177-1.526c1.267-1.823 1.708-2.449 1.05-2.974-.737-.59-1.287-.015-2.863 1.164a17.248 17.199 28.59 0 0-1.57-1.188c.797-2.04 1.076-2.753.32-3.11h-.002c-.859-.401-1.257.295-2.535 1.829a17.248 17.199 28.59 0 0-1.785-.727c.286-2.175.385-2.933-.436-3.097-.944-.19-1.151.595-2.055 2.443a17.248 17.199 28.59 0 0-1.898-.254c-.348-2.053-.478-2.846-1.184-2.867zm4.338 6.045c.604 0 1.479.356 2.389.861 1.67.927 3.461 2.357 3.94 3.002 2.287 2.449 3.956 5.487 4.052 10.367.018.91-.068 1.733-.281 2.406-.232.704-.701 1.407-1.44 1.748-.612.258-1.293.44-1.926.149-1.971-.905-4.45-2.468-6.44-3.645-.334-.198-.577-.52-.613-.681q0-.003-.002-.004A4 4 0 0 0 36 32a4 4 0 0 0-2.295-3.62 1.7 1.7 0 0 1-.158-.51c-.08-2.391-.097-4.81-.035-7.167.004-1.636 1.18-2.598 2.627-2.647v.002q.056-.009.115-.011zm-8.559.09h.094c.442 0 .894.09 1.297.306q.13.07.254.159c.525.407 1.018.909 1.074 1.603.18 2.161.036 5.088-.014 7.398-.007.352-.14.686-.257.829A4 4 0 0 0 28 32a4 4 0 0 0 .008.19c-.083.185-.216.365-.46.56a120 120 0 0 1-6.233 3.549c-1.427.8-2.842.248-3.594-.989-.98-1.291-.359-6.38.166-7.552 1.011-3.195 2.838-6.142 7.045-8.621.783-.462 1.545-.79 2.236-.934q.24-.047.49-.062v-.002zM32 30a2 2 0 0 1 2 2 2 2 0 0 1-2 2 2 2 0 0 1-2-2 2 2 0 0 1 2-2m-2.361 5.377h.037a.5.5 0 0 1 .158.02q.034.001.067.005A4 4 0 0 0 32 36a4 4 0 0 0 2.093-.594q.058-.008.12-.012a1.6 1.6 0 0 1 .636.127 128 128 0 0 1 3.133 1.772c1.035.604 2.058 1.22 3.056 1.847 1.407.836 1.634 2.339.94 3.608-.629 1.495-5.345 3.503-6.623 3.635-3.273.721-6.738.612-10.988-1.791-.792-.448-1.459-.943-1.93-1.47-.487-.557-.853-1.318-.771-2.128.09-.658.28-1.337.853-1.732 1.782-1.236 4.39-2.572 6.416-3.684.24-.132.51-.194.703-.201z"/></svg>