<svg xmlns="http://www.w3.org/2000/svg" viewBox="0 0 64 64"><rect width="56.002" height="56.002" x="4" y="3.969" fill="#f2f2f2" rx="13.002" ry="13.002"/><path d="M3.998 45.998v1c0 7.203 5.8 13.004 13.004 13.004h29.996c7.203 0 13.004-5.8 13.004-13.004v-1c0 7.203-5.8 13.002-13.004 13.002H17.002A12.975 12.975 0 0 1 3.998 45.998" opacity=".1"/><path fill="#fff" d="M3.998 18.004v-1C3.998 9.801 9.798 4 17.002 4h29.996c7.203 0 13.004 5.8 13.004 13.004v1c0-7.203-5.8-13.002-13.004-13.002H17.002A12.975 12.975 0 0 0 3.998 18.004" opacity=".5"/><g stroke-width="3.221" transform="translate(4 3.97)scale(.87499)"><path fill="#f68b1d" d="M30.027 8.073a3.3 3.3 0 0 0-2.342.97 3.3 3.3 0 0 0 0 4.68l9.193 9.192H12.913a3.3 3.3 0 0 0-3.308 3.309 3.3 3.3 0 0 0 3.308 3.308c3.447-.01 8.333-.01 13.013-.01L8.97 46.475a3.3 3.3 0 0 0 0 4.677 3.3 3.3 0 0 0 4.677 0c2.49-2.5 6.056-6.065 9.439-9.447A16.544 16.544 0 0 0 39.456 56C48.59 56 56 48.59 56 39.456a16.54 16.54 0 0 0-5.67-12.453A8262 8262 0 0 1 32.367 9.042a3.3 3.3 0 0 0-2.339-.973zm9.621 27.447a3.862 3.862 0 1 1 0 7.724 3.862 3.862 0 0 1 0-7.724"/><path fill="#fff" fill-opacity=".099" d="M39.636 26.684a12.71 12.71 0 0 0-12.711 12.711 12.71 12.71 0 0 0 12.711 12.711 12.71 12.71 0 0 0 12.707-12.711 12.71 12.71 0 0 0-12.707-12.711m0 7.74a4.97 4.97 0 0 1 4.97 4.97 4.97 4.97 0 0 1-4.97 4.97 4.97 4.97 0 0 1-4.973-4.97 4.97 4.97 0 0 1 4.973-4.97"/><path fill="#fff" d="M39.636 29.458a9.93 9.93 0 0 0-9.928 9.924 9.93 9.93 0 0 0 9.928 9.927 9.93 9.93 0 0 0 9.924-9.927 9.93 9.93 0 0 0-9.924-9.924m0 6.043a3.88 3.88 0 0 1 3.881 3.881 3.88 3.88 0 0 1-3.881 3.882 3.88 3.88 0 0 1-3.885-3.882 3.88 3.88 0 0 1 3.885-3.881"/><circle cx="39.636" cy="39.394" r="5.08" fill="#1eaff8" color="#000" display="block" overflow="visible" paint-order="fill markers stroke" style="isolation:auto;mix-blend-mode:normal"/></g></svg>