<svg xmlns="http://www.w3.org/2000/svg" xmlns:xlink="http://www.w3.org/1999/xlink" viewBox="0 0 64 64"><defs><linearGradient id="a"><stop offset="0" stop-color="#fff"/><stop offset="1" stop-color="#f0f0f0"/></linearGradient><linearGradient xlink:href="#a" id="b" x1="12" x2="18" y1="33" y2="33" gradientUnits="userSpaceOnUse"/><linearGradient xlink:href="#a" id="h" x1="30" x2="36" y1="15" y2="15" gradientUnits="userSpaceOnUse"/><linearGradient xlink:href="#a" id="g" x1="24" x2="30" y1="21" y2="21" gradientUnits="userSpaceOnUse"/><linearGradient xlink:href="#a" id="f" x1="18" x2="24" y1="27" y2="27" gradientUnits="userSpaceOnUse"/><linearGradient xlink:href="#a" id="e" x1="30" x2="36" y1="33" y2="33" gradientUnits="userSpaceOnUse"/><linearGradient xlink:href="#a" id="d" x1="24" x2="30" y1="33" y2="33" gradientUnits="userSpaceOnUse"/><linearGradient xlink:href="#a" id="c" x1="18" x2="24" y1="33" y2="33" gradientUnits="userSpaceOnUse"/></defs><rect width="56.002" height="56.002" x="4" y="3.969" fill="#ac2cb8" rx="13.002" ry="13.002"/><path fill="url(#b)" d="M18 33a3.001 3.001 0 0 1-6 0 3.001 3.001 0 0 1 6 0" transform="scale(1.3333)"/><path fill="url(#c)" d="M24 33a3.001 3.001 0 0 1-6 0 3.001 3.001 0 0 1 6 0" transform="scale(1.3333)"/><path fill="url(#d)" d="M30 33a3.001 3.001 0 0 1-6 0 3.001 3.001 0 0 1 6 0" transform="scale(1.3333)"/><path fill="url(#e)" d="M36 33a3.001 3.001 0 0 1-6 0 3.001 3.001 0 0 1 6 0" transform="scale(1.3333)"/><path fill="#a7c100" d="M24 36c0 2.207-1.793 3.999-4 3.999s-4-1.792-4-4 1.792-4 4-4 4 1.792 4 4"/><path fill="url(#f)" d="M24 27a3.001 3.001 0 0 1-6 0 3.001 3.001 0 0 1 6 0" transform="scale(1.3333)"/><path fill="#a7c100" d="M39.999 36a4.001 4.001 0 0 1-8-.001c0-2.208 1.792-4 4-4s4 1.792 4 4m8 .001a4.001 4.001 0 0 1-8-.001c0-2.208 1.792-4 4-4s4 1.792 4 4"/><path fill="url(#g)" d="M30 21a3.001 3.001 0 0 1-6 0 3.001 3.001 0 0 1 6 0" transform="scale(1.3333)"/><path fill="#a7c100" d="M47.999 28c0 2.207-1.792 4-4 4s-4-1.793-4-4 1.792-4 4-4 4 1.791 4 4"/><path fill="url(#h)" d="M36 15a3.001 3.001 0 0 1-6 0 3.001 3.001 0 0 1 6 0" transform="scale(1.3333)"/><path d="M3.998 45.998v1c0 7.203 5.8 13.004 13.004 13.004h29.996c7.203 0 13.004-5.8 13.004-13.004v-1c0 7.203-5.8 13.002-13.004 13.002H17.002A12.975 12.975 0 0 1 3.998 45.998" opacity=".15"/><path fill="#fff" d="M3.998 18.004v-1C3.998 9.801 9.798 4 17.002 4h29.996c7.203 0 13.004 5.8 13.004 13.004v1c0-7.203-5.8-13.002-13.004-13.002H17.002A12.975 12.975 0 0 0 3.998 18.004" opacity=".15"/></svg>