<svg xmlns="http://www.w3.org/2000/svg" width="64" height="64" viewBox="0 0 16.933 16.933"><defs><linearGradient id="a" x1="15.875" x2="1.058" y1="4.49" y2="4.49" gradientUnits="userSpaceOnUse"><stop offset="0" stop-color="#bbb"/><stop offset="1" stop-color="#4c4c4c"/></linearGradient><linearGradient id="c" x1="59.087" x2="67.926" y1="186" y2="186" gradientTransform="translate(94.042 -116.06)" gradientUnits="userSpaceOnUse"><stop offset="0" stop-color="#acabae"/><stop offset=".38" stop-color="#77767b"/><stop offset="1" stop-color="#5d5c60"/></linearGradient><linearGradient id="d" x1="88" x2="96" y1="200" y2="200" gradientTransform="rotate(90 183.05 174.99)" gradientUnits="userSpaceOnUse"><stop offset="0" stop-color="#9a9996"/><stop offset="1" stop-color="#9a9996" stop-opacity="0"/></linearGradient><linearGradient id="b" x1="1.058" x2="15.875" y1="12.249" y2="12.249" gradientUnits="userSpaceOnUse"><stop offset="0" stop-color="#6daae8"/><stop offset="1" stop-color="#225384"/></linearGradient></defs><path fill="url(#a)" d="M4.498 1.05a3.43 3.43 0 0 0-3.44 3.44v4.142h14.817V4.49a3.43 3.43 0 0 0-3.44-3.44z"/><path fill="url(#b)" d="M15.875 8.632H1.058v3.795a3.43 3.43 0 0 0 3.44 3.44h7.937a3.43 3.43 0 0 0 3.44-3.44z" style="paint-order:fill markers stroke"/><path fill="#f5f5f3" d="M8.52 9.788h4.378v.626H8.52z"/><path fill="#dedcd9" d="M4.142 9.788H8.52v.626H4.142z"/><path fill="#97948f" d="m12.585 9.788-.312.626h.312l.313-.626zm-.625 0-.313.626h.313l.313-.626z"/><path fill="#6e6e68" d="m10.084 9.788-.313.626h.313l.312-.626z"/><path fill="#bfbdba" d="m10.71 9.788-.314.626h.313l.313-.626z"/><path fill="#97948f" d="m11.335 9.788-.313.626h.313l.312-.626z"/><path fill="#bfbdba" d="m5.706 9.788-.313.626h.313l.312-.626zm-.626 0-.313.626h.313l.313-.626zm-.625 0-.313.626h.313l.312-.626z"/><path fill="url(#c)" d="m154.04 67.939 2 4v2h4v-2l2-4z" transform="translate(-16.191 -8.34)scale(.15636)"/><path fill="#dedcd9" d="M7.582 6.253 4.923 14.54"/><path fill="#b3b3b0" d="m7.17 5.47-.186.599-2.842 8.723v1.25l1.25-.625L8.18 6.438l.185-.598z"/><path fill="#75757a" d="M7.895.407h1.25v1.876h-1.25z"/><path fill="#5c5c63" d="M7.895.407h.312v1.876h-.312zm.625 0h.313v1.876H8.52z"/><path fill="#bfbdba" d="m9.871 5.47.185.599 2.842 8.723v1.25l-1.25-.625L8.86 6.438l-.184-.598z"/><path fill="#ccccca" d="m7.17 5.47-.186.599-2.842 8.723v1.25l.625-1.094 3-9.292z"/><path fill="#5c5c63" d="M10.396 4.785a1.876 1.876 0 1 1-3.752 0 1.876 1.876 0 0 1 3.752 0"/><path fill="#bfbdba" d="M9.771 4.785a1.25 1.25 0 1 1-2.502 0 1.25 1.25 0 0 1 2.502 0"/><path fill="url(#d)" d="M158.04 87.939c-2.21 0-4-1.79-4-4s1.79-4 4-4 4 1.79 4 4-1.79 4-4 4" transform="translate(-16.191 -8.34)scale(.15636)"/><path fill="#706e68" d="m9.458 9.788-.312.626h.312l.313-.626zm-.625 0-.313.626h.313l.313-.626zm-.626 0-.312.626h.312l.313-.626z"/><path fill="#827f7a" d="m7.582 9.788-.313.626h.313l.313-.626z"/><path fill="#999994" d="M8.207 8.85h.626a.313.313 0 0 1 .313.313v1.876a.313.313 0 0 1-.313.313h-.626a.313.313 0 0 1-.312-.313V9.163a.313.313 0 0 1 .312-.313"/><path fill="#5c5c63" d="M7.895 9.632v.313h1.25v-.313z"/><path fill="#75757a" d="M9.146 9.163v.156H7.895v-.156z"/><path fill="#5c5c63" d="M7.895 10.257v.313h1.25v-.313z"/><path fill="#75757a" d="M9.146 10.883v.156H7.895v-.156z"/></svg>