<svg xmlns="http://www.w3.org/2000/svg" viewBox="0 0 64 64"><rect width="56" height="56" x="4" y="4" fill="#f2f2f2" rx="13.002" ry="13.002"/><path fill="#535353" d="M18.667 16A2.66 2.66 0 0 0 16 18.667v10.667A2.663 2.663 0 0 0 18.667 32h10.667a2.666 2.666 0 0 0 2.667-2.666V18.667A2.663 2.663 0 0 0 29.334 16zm0 1.333h10.667c.74 0 1.333.594 1.333 1.334v10.667c0 .74-.593 1.333-1.333 1.333H18.667c-.74 0-1.333-.593-1.333-1.333V18.667c0-.74.593-1.334 1.333-1.334M20 18.667c-.74 0-1.333.593-1.333 1.333v8c0 .735.593 1.333 1.333 1.333h8c.735 0 1.334-.598 1.334-1.333v-8c0-.74-.6-1.333-1.334-1.333zM34.667 32a2.66 2.66 0 0 0-2.666 2.666v10.667A2.663 2.663 0 0 0 34.667 48h10.667a2.666 2.666 0 0 0 2.667-2.667V34.666A2.663 2.663 0 0 0 45.334 32zm0 1.333h10.667c.74 0 1.334.593 1.334 1.333v10.667a1.33 1.33 0 0 1-1.334 1.334H34.667c-.74 0-1.333-.594-1.333-1.334V34.666c0-.74.593-1.333 1.333-1.333m1.334 1.333A1.33 1.33 0 0 0 34.667 36v8c0 .734.594 1.333 1.334 1.333h8c.734 0 1.333-.599 1.333-1.333v-8c0-.74-.599-1.334-1.333-1.334z"/><path fill="#268ecf" d="M34.667 16A2.66 2.66 0 0 0 32 18.667v10.667A2.663 2.663 0 0 0 34.667 32h10.667a2.666 2.666 0 0 0 2.667-2.666V18.667A2.663 2.663 0 0 0 45.334 16zm0 1.333h10.667c.74 0 1.333.594 1.333 1.334v10.667c0 .74-.593 1.333-1.333 1.333H34.667c-.74 0-1.333-.593-1.333-1.333V18.667c0-.74.593-1.334 1.333-1.334M36 18.667c-.74 0-1.333.593-1.333 1.333v8c0 .735.593 1.333 1.333 1.333h8c.735 0 1.334-.598 1.334-1.333v-8c0-.74-.6-1.333-1.334-1.333zM18.667 32a2.66 2.66 0 0 0-2.666 2.666v10.667A2.663 2.663 0 0 0 18.667 48h10.667a2.666 2.666 0 0 0 2.667-2.667V34.666A2.663 2.663 0 0 0 29.334 32zm0 1.333h10.667c.74 0 1.334.593 1.334 1.333v10.667a1.33 1.33 0 0 1-1.334 1.334H18.667c-.74 0-1.333-.594-1.333-1.334V34.666c0-.74.593-1.333 1.333-1.333m1.334 1.333A1.33 1.33 0 0 0 18.667 36v8c0 .734.594 1.333 1.334 1.333h8c.734 0 1.333-.599 1.333-1.333v-8c0-.74-.599-1.334-1.333-1.334z"/><path d="M3.998 45.998v1c0 7.203 5.8 13.004 13.004 13.004h29.996c7.203 0 13.004-5.8 13.004-13.004v-1c0 7.203-5.8 13.002-13.004 13.002H17.002A12.975 12.975 0 0 1 3.998 45.998" opacity=".1"/><path fill="#fff" d="M3.998 18.004v-1C3.998 9.801 9.798 4 17.002 4h29.996c7.203 0 13.004 5.8 13.004 13.004v1c0-7.203-5.8-13.002-13.004-13.002H17.002A12.975 12.975 0 0 0 3.998 18.004" opacity=".5"/></svg>