<svg xmlns="http://www.w3.org/2000/svg" viewBox="0 0 64 64"><rect width="56.002" height="56.002" x="4" y="3.969" fill="#f2f2f2" rx="13.002" ry="13.002"/><path d="M3.998 45.998v1c0 7.203 5.8 13.004 13.004 13.004h29.996c7.203 0 13.004-5.8 13.004-13.004v-1c0 7.203-5.8 13.002-13.004 13.002H17.002A12.975 12.975 0 0 1 3.998 45.998" opacity=".1"/><path fill="#fff" d="M3.998 18.004v-1C3.998 9.801 9.798 4 17.002 4h29.996c7.203 0 13.004 5.8 13.004 13.004v1c0-7.203-5.8-13.002-13.004-13.002H17.002A12.975 12.975 0 0 0 3.998 18.004" opacity=".5"/><path fill="url(#f)" d="M23.122 42.183c-.338 1.714 2.465 7.306 6.255 8.846-.359 1.433-2.221.9-3.604.782-1.723-2.512-4.541-7.867-2.65-9.628z"/><path fill="url(#g)" d="M23.122 42.183c-2.362 2.432-.622 7.41.248 9.23.746.188 1.324.26 2.634.427-1.65-2.64-4.495-7.852-2.882-9.657"/><path fill="url(#h)" d="M35.657 46.829c-1.662 1.43-1.628 1.85-1.937 2.252-.526.684-1.688 1.686-5.35 1.993-.012 1.646 2 1.426 3.473 1.168 2.34-1.138 4.308-3.696 3.814-5.413"/><path fill="url(#i)" d="M28.549 52.095c.354-.873.073-3.058.44-4.172.302.945.847 3.36-.057 3.87.309.11-.915.275-.383.302"/><path fill="url(#j)" d="M35.657 46.829c-1.6 2.054.374 1.973-1.166 4.063-.97.583-1.655.892-3.244 1.146 3.491-3.664 2.743-4.093 4.41-5.21z"/><path fill="url(#k)" d="M30.78 52.131c2.031-.974 6.79-1.88 7.612-4.19.3 2.335-2.704 3.176-4.366 3.972-1.007.083-2.01.153-3.246.218"/><path fill="url(#l)" d="M28.549 52.095c-.219-.937-.159-2.57.44-4.172-.423 1.381.49 3.527.65 4.166-.618.022-.923.014-1.09.006"/><path fill="url(#m)" d="M28.549 52.095c.273-.706-.172-1.67.019-2.588l.061-.317c-.276 1.107-.748 2.425-1.786 2.744.324.054 1.174.134 1.706.161"/><path fill="url(#n)" d="M32.835 52.014c2.031-.974 4.87-1.531 5.559-4.073.698 1.293-1.07 3.035-2.732 3.83z"/><path fill="url(#o)" d="M23.122 42.183c-2.353 2.52-.622 7.41.248 9.23.746.188 1.386.264 2.634.427-1.65-2.64-4.499-7.69-2.882-9.657" opacity=".04"/><path fill="#4f0000" d="m14.028 33.818-3.13 4.049C13.405 50.41 20.497 53.407 29.52 53.7l.327-2.917c-16.654-2.157-11.943-14.603-15.82-16.966z"/><path fill="#750000" d="M14.642 13.731c-3.323 9.043-.76 13.722 2.813 17.215v-5.714c-.535-.621-1.024-1.277-1.431-2.029-.363-.669-.646-1.404-.897-2.153-.27-.81-.414-1.63-.51-2.552-.15-1.427-.277-3.032.025-4.767m11.131 31.468a8.8 8.8 0 0 1-1.494 1.98c1.081-.55 2.082-1.206 2.95-1.98z"/><path fill="#ad0000" d="M14.642 13.731c-.25 1.541-.377 4.002-.037 5.564.425 3.646 2.753 6.427 5.464 8.938v-3.647c-2.642-2.632-4.916-5.843-5.427-10.855"/><path fill="#e01717" d="M42.972 8.677c.397 2.002.68 5.532.545 7.19-.086 1.07-.248 2.029-.54 2.975-.27.874-.56 1.728-.961 2.513-.957 1.872-2.712 1.634-4.163 3.107l8.608 3.455c.06-2.886.876-9.763-3.489-19.24"/><path fill="#a30000" d="M43.024 8.739c-.153 7.011-2.144 10.759-5.393 13.238l.09 3.858c2.752-3.052 5.226-3.656 5.635-7.881.562-2.467.01-7.437-.332-9.216z"/><path fill="#ececec" d="M32 12.048c-11.019 0-19.952 8.933-19.952 19.952S20.981 51.952 32 51.952 51.952 43.019 51.952 32 43.019 12.048 32 12.048m0 26.603a6.651 6.651 0 1 1 0-13.302 6.651 6.651 0 0 1 0 13.302"/><path fill="#fff" d="M32 25.341a6.65 6.65 0 0 0-6.648 6.65 6.649 6.649 0 1 0 13.296 0A6.65 6.65 0 0 0 32 25.34zm0 9.31a2.66 2.66 0 1 1 0-5.32 2.66 2.66 0 0 1 0 5.32" opacity=".5"/><path fill="none" stroke="#d0d0d0" stroke-width=".2" d="M32 28c-2.2 0-3.989 1.79-3.989 3.99s1.79 3.99 3.989 3.99c2.2 0 3.989-1.79 3.989-3.99S34.199 28 32 28z"/><path fill="#fff" d="M32 28c-2.2 0-3.989 1.79-3.989 3.99s1.79 3.99 3.989 3.99c2.2 0 3.989-1.79 3.989-3.99S34.199 28 32 28m0 6.65a2.66 2.66 0 1 1 0-5.319 2.66 2.66 0 0 1 0 5.319" opacity=".2"/><path fill="#f2f2f2" d="M32 28c-2.2 0-3.989 1.79-3.989 3.99s1.79 3.99 3.989 3.99c2.2 0 3.989-1.79 3.989-3.99S34.199 28 32 28m0 6.65a2.66 2.66 0 1 1 0-5.319 2.66 2.66 0 0 1 0 5.319" opacity=".5"/><path fill="#323232" d="M32 24.011c-4.399 0-7.977 3.58-7.977 7.98S27.6 39.97 32 39.97s7.977-3.58 7.977-7.98S36.4 24.011 32 24.011m0 14.629a6.65 6.65 0 0 1-6.648-6.65 6.649 6.649 0 1 1 13.296 0A6.65 6.65 0 0 1 32 38.64" opacity=".1"/><path fill="#b3b3b3" d="M32 11.975c-11.059 0-20.025 8.966-20.025 20.025S20.941 52.025 32 52.025 52.025 43.059 52.025 32 43.059 11.975 32 11.975m0 .347c10.868 0 19.679 8.81 19.679 19.68 0 10.867-8.81 19.678-19.679 19.678s-19.679-8.81-19.679-19.679S21.131 12.322 32 12.322" opacity=".5"/><path fill="#750000" d="M30.654 4.179c.38 2.181.232 4.197.044 5.99-.12 1.16-.311 2.2-.652 3.22-.315.94-.663 1.857-1.119 2.698-1.173 2.169-2.872 3.754-4.625 5.454-3.733 3.621-8.85 6.506-11.492 10.03-1.42 1.895-2.373 4.225-2.199 6.684.397 5.581 4.732 13.01 13.314 14.785-3.374-2.693-8.898-7.165-8.467-12.327.5-6.003 3.967-9.707 8.68-13.482 6.438-5.154 10.554-14.47 6.516-23.052"/><path fill="#ae0000" d="M30.673 4.163c.284 17.215-19.869 17.58-20.062 30.986-.005.376-.012 1.867.03 2.256 1.12-9.947 18.713-14.559 20.076-26.239.427-1.963.272-5.065-.044-7.003"/><path fill="url(#p)" d="M23.122 41.639c-.338 2.088 2.465 8.896 6.255 10.771-.359 1.746-2.221 1.095-3.604.952-1.723-3.059-4.541-9.58-2.651-11.723"/><path fill="#d90000" d="M23.122 41.639c-.338 2.088 2.465 8.896 6.255 10.771-.359 1.746-2.221 1.095-3.604.952-1.723-3.059-4.541-9.58-2.651-11.723"/><path fill="#8d0000" d="M23.122 41.639c-2.362 2.962-.622 9.023.248 11.24.746.228 1.324.316 2.634.519-1.65-3.215-4.495-9.561-2.882-11.759"/><path fill="gray" d="M31.997 29.275c-1.5 0-2.713 1.208-2.713 2.707s1.213 2.726 2.713 2.726 2.72-1.226 2.72-2.726-1.22-2.707-2.72-2.707m0 .218c1.38 0 2.502 1.11 2.502 2.49s-1.123 2.507-2.502 2.507-2.496-1.129-2.496-2.508 1.117-2.49 2.496-2.49z"/><path fill="#9b0000" d="M35.657 47.297c-1.662 1.742-1.628 2.253-1.937 2.742-.526.833-1.688 2.054-5.35 2.427-.012 2.004 2.586 1.226 4.06.912 2.34-1.386 3.72-3.99 3.227-6.081"/><path fill="url(#q)" d="M43.081 39.059c2.287 6.353-5.334 12.627-10.031 13.368l-1.684 1.253c7.366.413 13.24-1.2 14.264-5.593.954-3.31.043-6.713-2.549-9.028"/><path fill="#ac0000" d="M28.549 53.709c.354-1.063.073-3.724.44-5.08.302 1.15.847 4.09-.057 4.712.309.135-.915.335-.383.368"/><path fill="#790000" d="M30.781 53.755c2.031-1.186 7.351-3.397 8.172-6.21.3 2.844-3.264 4.976-4.926 5.945-1.007.101-2.01.186-3.246.265"/><path fill="#eb0000" d="M28.549 53.709c-.219-1.141-.159-3.13.44-5.08-.423 1.682.49 4.294.65 5.072a11 11 0 0 1-1.09.008"/><path fill="#810000" d="M28.549 53.709c.273-.86-.172-2.034.019-3.152l.061-.385c-.276 1.348-.748 2.953-1.786 3.341.324.066 1.174.163 1.706.196"/><path fill="#a60000" d="M45.009 19.767c-2.815 3.044-2.072 13.175-.132 13.904l-3.305-5.368c.694-2.26 1.066-7.04 3.437-8.536"/><path fill="#830000" d="M44.577 46.643c-.287 2.276-1.756 3.938-3.557 5.992 3.206-1.16 6.34-3.244 7.464-7.277l-3.728-10.454c-1.924-1.38-4.094-3.066-4.313-7.136-.392 3.18.908 6.71 3.36 13.155.261.687 1.014 3.812.774 5.72"/><path fill="#d20000" d="M45.009 19.767c-2.535 1.165-4.374 5.468-4.537 7.184-.686 7.187 9.512 15.488 7.46 19.924 3.261-6.822-4.191-14.251-5.188-18.567-.972-4.213.988-7.39 2.265-8.541"/><path fill="#910000" d="M32.834 53.612c2.031-1.186 5.431-2.97 6.12-6.064.697 1.574-1.63 4.8-3.293 5.768z"/><path fill="url(#r)" d="M35.657 47.297c-1.6 2.501.356 3.36-1.184 5.906-1.04.674-1.637.128-3.226.437 3.492-4.461 2.743-4.984 4.41-6.343"/><path fill="url(#s)" d="M19.918 53.177c.674-.77 2.47-1.51 4.947.04-.94-.151-1.32-.311-2.503-.557-.78-.869-2.076-.318-2.444.517"/><path fill="#500000" d="M19.918 53.177c.434-.924 2.45-1.522 4.947.04-.94-.151-.71-.118-1.943-.227-.141-.362-2.145-.625-3.004.187"/><path fill="#a00" d="M19.918 53.177c.676-.768 1.875-.888 2.592-.847l.744.145c-1.532-.61-2.96-.56-3.336.702"/><path fill="url(#t)" d="M41.344 53.672c-.864-1.732-3.166-3.395-6.341.09 1.205-.34 1.692-.7 3.208-1.253 1.001-1.953 2.661-.715 3.133 1.163"/><path fill="#b10000" d="M41.344 53.672c-.928-1.722-2.176-2.105-3.322-1.904-.335.086-.661.181-.947.332 1.963-1.373 3.786-1.266 4.269 1.572"/><path fill="#5a0000" d="M41.344 53.672c-.556-2.078-3.14-3.473-6.341.04.807-.004.886.02 2.08-.063.18-.814 3.16-1.804 4.261.023"/><path fill="url(#u)" d="M31.754 53.748c-.168-.274-.832-2.35-.95-2.661-.17.354-.461 2.112-.928 2.658.461.046 1.472.067 1.878.003"/></svg>