<svg xmlns="http://www.w3.org/2000/svg" xmlns:xlink="http://www.w3.org/1999/xlink" fill="none" viewBox="0 0 64 64"><g clip-path="url(#a)"><path fill="url(#b)" d="M1.559 2h60.882v62.001H1.559z"/><path fill="#021417" d="M47 3.969H17.002C9.822 3.969 4 9.79 4 16.971v29.998c0 7.18 5.821 13.002 13.002 13.002H47c7.18 0 13.002-5.821 13.002-13.002V16.971c0-7.18-5.821-13.002-13.002-13.002"/><path fill="#4e49ee" d="M16.72 26.05c0-1.071 1.087-1.73 3.717-1.73l-.876 4.736c-1.63-1.07-2.84-2.06-2.84-3.007m7.016 11.696c0 1.113-1.127 1.854-3.716 1.977l.919-5.024c1.628 1.07 2.797 2.018 2.797 3.047m-4.593 10.297.793-4.654c6.306-.577 8.77-3.089 8.77-5.848 0-2.842-3.508-5.066-6.723-7.002l1.169-6.096c1.336.124 2.923.37 4.802.742l.543-4.243c-1.42-.206-2.756-.288-4.009-.37l.96-4.53L21.315 16l-.793 4.613c-6.306.494-8.77 3.089-8.77 5.848 0 2.801 3.508 4.943 6.724 6.796l-1.17 6.384c-1.503-.082-3.34-.33-5.47-.7L11 43.183c1.796.206 3.466.33 4.97.37l-.92 4.449zM46.36 44.79h4.677c.585-4.82 1.42-14.54 1.963-25.536h-4.468c-.125 2.595-.585 18.04-.752 19.316h-.125c-1.128-4.16-2.046-7.537-3.174-11.656h-2.547c-1.086 4.12-1.837 7.208-2.965 11.656h-.167c-.125-1.276-.835-16.721-.919-19.316h-4.635c.543 10.996 1.336 20.717 1.921 25.535h4.593l3.216-12.232z"/></g><defs><clipPath id="a"><path fill="#fff" d="M0 0h64v64H0z"/></clipPath><pattern id="b" width="1" height="1" patternContentUnits="objectBoundingBox"><use xlink:href="#c" transform="scale(.00398)"/></pattern></defs></svg>