<svg xmlns="http://www.w3.org/2000/svg" viewBox="0 0 64 64"><path fill="#e87267" d="M17.001 4A12.973 12.973 0 0 0 3.999 17v30a12.973 12.973 0 0 0 13.002 13.002h29.998A12.973 12.973 0 0 0 60.001 47V17.001A12.973 12.973 0 0 0 46.999 4z"/><path d="M3.998 45.998v1c0 7.203 5.8 13.004 13.004 13.004h29.996c7.203 0 13.004-5.8 13.004-13.004v-1c0 7.203-5.8 13.002-13.004 13.002H17.002A12.975 12.975 0 0 1 3.998 45.998" opacity=".15"/><path fill="#fff" d="M3.998 18.004v-1C3.998 9.801 9.798 4 17.002 4h29.996c7.203 0 13.004 5.8 13.004 13.004v1c0-7.203-5.8-13.002-13.004-13.002H17.002A12.975 12.975 0 0 0 3.998 18.004" opacity=".15"/><rect width="64" height="64" fill="none" rx="0" ry="0" style="paint-order:stroke fill markers"/><circle cx="32.02" cy="32.044" r="30.001" fill="none"/><path fill="#fff" d="M36.701 21.461c-1.824 0-3.292 1.401-3.293 3.142v.032l-14.004-.002c-1.884 0-3.401 1.447-3.402 3.246L16 39.287c0 1.798 1.516 3.246 3.4 3.247l25.197.004c1.884 0 3.4-1.447 3.401-3.245L48 27.885c0-1.799-1.516-3.247-3.4-3.248h-1.334v-.032c0-1.741-1.467-3.143-3.29-3.144zm-4.7 6.362a6.206 5.925 0 0 1 6.205 5.926A6.206 5.925 0 0 1 32 39.672a6.206 5.925 0 0 1-6.205-5.926 6.206 5.925 0 0 1 6.208-5.923z"/></svg>