<svg xmlns="http://www.w3.org/2000/svg" viewBox="0 0 64 64"><rect width="56.002" height="56.002" x="4" y="3.969" fill="#f2f2f2" rx="13.002" ry="13.002"/><path d="M3.998 45.998v1c0 7.203 5.8 13.004 13.004 13.004h29.996c7.203 0 13.004-5.8 13.004-13.004v-1c0 7.203-5.8 13.002-13.004 13.002H17.002A12.975 12.975 0 0 1 3.998 45.998" opacity=".1"/><path fill="#fff" d="M3.998 18.004v-1C3.998 9.801 9.798 4 17.002 4h29.996c7.203 0 13.004 5.8 13.004 13.004v1c0-7.203-5.8-13.002-13.004-13.002H17.002A12.975 12.975 0 0 0 3.998 18.004" opacity=".5"/><path fill="#333" d="M36.341 21.981c1.017-1.266 1.707-2.987 1.516-4.73-1.464.061-3.29 1.017-4.347 2.246-.934 1.091-1.764 2.874-1.549 4.555 1.644.122 3.328-.832 4.38-2.071m3.706 10.955c-.035-3.729 3.051-5.54 3.191-5.626-1.746-2.548-4.453-2.893-5.408-2.925-2.275-.232-4.477 1.367-5.638 1.367-1.181 0-2.965-1.34-4.887-1.301-2.476.037-4.795 1.47-6.064 3.691-2.614 4.539-.666 11.204 1.845 14.864 1.257 1.802 2.722 3.807 4.643 3.727 1.88-.071 2.58-1.193 4.85-1.193 2.248 0 2.906 1.193 4.867 1.155 2.018-.033 3.287-1.805 4.5-3.614 1.446-2.063 2.03-4.086 2.053-4.194-.045-.016-3.91-1.487-3.952-5.95z" color="#565656"/></svg>