<svg xmlns="http://www.w3.org/2000/svg" width="64" height="64"><defs><radialGradient id="c" cx="31.397" cy="37.736" r="10" gradientTransform="matrix(1 0 0 1.8994 0 -32.571)" gradientUnits="userSpaceOnUse"><stop offset="0" stop-color="#fff"/><stop offset=".5" stop-color="#fff"/><stop offset="1" stop-color="#e5e5e5"/></radialGradient><linearGradient id="a" x1="7.937" x2="7.937" y1="15.081" y2="1.852" gradientTransform="translate(0 .032)scale(3.7795)" gradientUnits="userSpaceOnUse"><stop offset="0" stop-color="#197ff1"/><stop offset="1" stop-color="#21c6fb"/></linearGradient><filter id="b" width="1.255" height="1.196" x="-.128" y="-.098" color-interpolation-filters="sRGB"><feGaussianBlur stdDeviation="1.063"/></filter></defs><rect width="56" height="56" x="4" y="4" fill="url(#a)" rx="13.002" ry="13.002"/><path d="M21.397 38.169c0-7 10-18 10-18s10 11 10 18c0 4-2 8-9 8s-11-3-11-8" filter="url(#b)" opacity=".15" style="paint-order:normal" transform="matrix(1.4 0 0 1.4 -11.956 -14.436)"/><path fill="url(#c)" d="M21.397 38.169c0-7 10-18 10-18s10 11 10 18c0 4-2 8-9 8s-11-3-11-8" opacity=".9" style="paint-order:normal" transform="matrix(1.4 0 0 1.4 -11.956 -14.436)"/><path d="M30.6 25c-2.8 0-4.561.77-5.624 1.825C22 30.072 20.8 33.4 20.8 37.6c0 5.6 5.6 11.2 11.2 11.2 6.134 0 8.4-1.4 9.8-2.8-1.082-1.153-2.26-1.517-4.2-2.1-7-2.1-8.4-6.3-8.4-9.1 0-2.595 1.4-5.6 4.2-5.6s4.9 2.1 4.9 2.1c-1.155-3.5-2.1-6.3-7.7-6.3" opacity=".1"/></svg>