<svg xmlns="http://www.w3.org/2000/svg" width="64" height="64"><defs><linearGradient id="a" x1="7.937" x2="7.937" y1="15.081" y2="1.852" gradientTransform="scale(3.7796)" gradientUnits="userSpaceOnUse"><stop offset="0" stop-color="#f1efeb"/><stop offset="1" stop-color="#fdfcfc"/></linearGradient></defs><rect width="56.002" height="56.002" x="4" y="3.969" fill="url(#a)" rx="13.002" ry="13.002"/><path fill="#333" d="M33.738 18c-3.7 0-5.948 4.138-7.363 7.816L25.656 28H19v2h5.998l-.4 1.219-2.262 7.242c-.702 2.038-1.197 5.277-3.336 5.54-.936.113-.896-2-2-2a2 2 0 0 0 0 4h1.261c4.277 0 6.718-5.383 8.551-11.306l1.028-3.344.42-1.351h8.738l-.4 1.218-2.262 7.243C33.634 40.499 33.139 43.738 31 44c-.936.114-.896-2-2-2a2 2 0 0 0 0 4h1.261c4.277 0 6.718-5.382 8.551-11.305l1.027-3.344.42-1.352H47v-2h-6.118l.6-1.925c.846-2.182 1.199-5.77 3.519-6.075.935-.123.895 2 2 2a2 2 0 0 0 0-4h-1.262c-3.7 0-5.948 4.139-7.363 7.817l-.72 2.183H28.88l.6-1.925c.847-2.182 1.2-5.77 3.52-6.075.935-.123.895 2 2 2a2 2 0 0 0 0-4h-1.262z"/></svg>