<svg xmlns="http://www.w3.org/2000/svg" viewBox="0 0 64 64"><defs><linearGradient id="b" x1="31.401" x2="31.401" y1="51.978" y2="12.392" gradientUnits="userSpaceOnUse"><stop offset="0" stop-color="#d18217"/><stop offset="1" stop-color="#eaa13e"/></linearGradient><linearGradient id="a" x1="28.309" x2="28.309" y1="3.969" y2="60.005" gradientUnits="userSpaceOnUse"><stop offset="0" stop-color="#ffd923"/><stop offset="1" stop-color="#ffa423"/></linearGradient></defs><rect width="56.002" height="56.002" x="4" y="3.969" fill="url(#a)" rx="13.002" ry="13.002" style="fill:#ffbf23;fill-opacity:1"/><rect width="28" height="42" x="18" y="11" fill="url(#b)" ry="3" style="paint-order:stroke fill markers;fill:#db8e26;fill-opacity:1"/><rect width="8" height="6" x="28" y="41" fill="#cc8e22" ry="0" style="paint-order:stroke fill markers"/><path fill="#ffb22b" d="M29 40c-1.108 0-2 .892-2 2v6c0 1.108.892 2 2 2h6c1.108 0 2-.892 2-2v-6c0-1.108-.892-2-2-2zm5 1a1 1 0 0 1 1 1 1 1 0 0 1-1 1 1 1 0 0 1-1-1 1 1 0 0 1 1-1m-3 2a2 2 0 0 1 2 2 2 2 0 0 1-2 2 2 2 0 0 1-2-2 2 2 0 0 1 2-2" style="paint-order:stroke fill markers"/><path fill="#fff" d="M21 14v20h22V14zm2 2h18v16H23z"/><path fill="#ccc" d="M31 14v18h-4v5h10v-5h-4V14z"/><path d="M3.998 45.998v1c0 7.203 5.8 13.004 13.004 13.004h29.996c7.203 0 13.004-5.8 13.004-13.004v-1c0 7.203-5.8 13.002-13.004 13.002H17.002A12.975 12.975 0 0 1 3.998 45.998" opacity=".15"/><path fill="#fff" d="M3.998 18.004v-1C3.998 9.801 9.798 4 17.002 4h29.996c7.203 0 13.004 5.8 13.004 13.004v1c0-7.203-5.8-13.002-13.004-13.002H17.002A12.975 12.975 0 0 0 3.998 18.004" opacity=".15"/></svg>