<svg xmlns="http://www.w3.org/2000/svg" viewBox="0 0 64 64"><rect width="56.002" height="56.002" x="4" y="3.969" fill="#f2f2f2" rx="13.002" ry="13.002"/><path d="M3.998 45.998v1c0 7.203 5.8 13.004 13.004 13.004h29.996c7.203 0 13.004-5.8 13.004-13.004v-1c0 7.203-5.8 13.002-13.004 13.002H17.002A12.975 12.975 0 0 1 3.998 45.998" opacity=".1"/><path fill="#fff" d="M3.998 18.004v-1C3.998 9.801 9.798 4 17.002 4h29.996c7.203 0 13.004 5.8 13.004 13.004v1c0-7.203-5.8-13.002-13.004-13.002H17.002A12.975 12.975 0 0 0 3.998 18.004" opacity=".5"/><rect width="64" height="64" fill="none" rx="0" ry="0" style="paint-order:stroke fill markers"/><path fill="#73d216" d="M45.43 14.75c-4.292 2.395-21.094-.079-28.236 17.862-1.004 4.738-.485 11.268 4.094 11.559.948.06 1.803.702 2.25 1.43 2.925 4.762 7.141 4.348 8.886 2.074.334-.436.971-.31 1.423.037 5.276 4.052 8.812-2.363 10.613-7.395.718-2.201 4.318-19.447 2.898-21.29-.424-.55-2.277 1.038-3.891 2.733C30.563 35.306 22 25.193 44.952 15.09l.35-.419.238.097"/><g fill="#73d216"><path d="M45.99 21.83c-5.474 6.386-16.197 11.346-17.109 5.874-.45-2.7 2.737-6.387 8.21-10.035-6.313 1.788-17.75 7.362-18.66 16.167-1.325 3.394-.448 10.634 3.654 9.51 1.094-.3 2.436.959 2.729 2.078.622 2.377 5.148 3.012 6.463 1.975.97-.765 2.587-.91 3.66-.318 4.7 2.593 6.955-4.046 7.685-6.707 4.24-9.348 2.455-14.895 3.367-18.544z"/><path fill-rule="evenodd" d="m36.696 46.956 1.797-6.362M27.745 47.37l3.082-10.906m-10.491 5.868 1.797-6.362"/></g><path fill="#73d216" fill-rule="evenodd" d="M22.713 43.769c-.258-2.245-.542-6.472 1.423-8.925m8.528 2.484c-2.265 5.916-.792 6.915.31 10.131l-.14-.488"/><path fill="none" stroke="#204c00" stroke-linejoin="round" stroke-width=".782" d="M46.653 14.486c-4.387.814-24.894 3.122-29.455 18.36-1.333 5.157-.583 12.172 5.353 11.913.42-.018.463.121.614.475 2.443 5.781 8.456 4.73 9.81 2.464.192-.324-.293-.2 0 0 6.123 4.193 9.461-1.61 11.39-6.783 2.357-4.486 3.797-23.17 2.536-21.96-21.483 20.585-21.442 2.454-.25-4.47"/><path fill="none" stroke="#204c00" stroke-linecap="round" stroke-linejoin="bevel" stroke-width=".782" d="M23.16 44.86c-1.541-7.028.27-8.264.973-10.152m8.775 12.833c-2.004-4.24-1.67-7.74-.247-10.349"/></svg>