<svg xmlns="http://www.w3.org/2000/svg" viewBox="0 0 64 64"><rect width="56.002" height="56.002" x="4" y="3.969" fill="#f2f2f2" rx="13.002" ry="13.002"/><path d="M3.998 45.998v1c0 7.203 5.8 13.004 13.004 13.004h29.996c7.203 0 13.004-5.8 13.004-13.004v-1c0 7.203-5.8 13.002-13.004 13.002H17.002A12.975 12.975 0 0 1 3.998 45.998" opacity=".1"/><path fill="#fff" d="M3.998 18.004v-1C3.998 9.801 9.798 4 17.002 4h29.996c7.203 0 13.004 5.8 13.004 13.004v1c0-7.203-5.8-13.002-13.004-13.002H17.002A12.975 12.975 0 0 0 3.998 18.004" opacity=".5"/><path d="M31.699 14.325a4.17 4.17 0 0 0-3.004 1.214L15.472 29.071c-4.468 5.534 3.041 4.891 6.26 6.485 1.155 1.18-4.425 2.047-3.27 3.229 1.155 1.18 6.978 2.273 8.134 3.453s-2.362 2.434-1.207 3.614 3.823.062 4.323 2.787c.357 1.947 4.818.837 6.998-.758 1.154-1.182-2.208-1.066-1.053-2.246 2.871-2.937 5.544-1.072 6.527-4.015.485-1.454-4.23-2.237-3.074-3.418 3.323-1.94 14.805-3.204 9.356-8.654L34.759 15.54a4.43 4.43 0 0 0-3.06-1.214zm.112 1.284a3.05 3.05 0 0 1 2.148.878l5.236 5.313a1.54 1.54 0 0 1 .21 1.768l-2.597-2.077-.512 3.08-2.169-1.143-3.48 2.19-1.152-4.625-1.867 3.228h-2.85c-1.163 0-1.302-1.476-.245-2.534 1.847-1.993 3.965-4.023 5.117-5.2a3 3 0 0 1 2.161-.878M25.53 36.285c.353.22 5.698 1.307 7.004 1.523.453.096.133.563-.491.878-1.408.374-8.236-2.4-6.514-2.4zm20.789 3.72a2.48 2.48 0 0 0-2.429 1.614c0 .672 4.941 1.116 4.941-.154a2.44 2.44 0 0 0-2.512-1.46m-22.684 2.906c-1.55-.015-3.366 1.122-2.028 2.28 1.171 1.014 2.98-.256 3.523-1.67a1.84 1.84 0 0 0-1.495-.61m19.63.091c-1.51 1.355.168 2.728 1.656 1.853.332-.337-.007-1.516-1.656-1.853" style="fill:#4f4f4f"/></svg>