<svg xmlns="http://www.w3.org/2000/svg" viewBox="0 0 16.933 16.933"><rect width="14.816" height="14.816" x="1.058" y="1.058" fill="#72dd66" rx="3.44" ry="3.44"/><path fill="#2a2a2a" d="M5.22 5.863 4.178 9.685h.695l1.042-3.822zm4.517 0L8.694 9.685h.695l1.043-3.822zm1.914 1.042a1.7 1.7 0 0 0-.659.126 1.4 1.4 0 0 0-.497.34 1.45 1.45 0 0 0-.305.514q-.105.295-.106.654 0 .408.112.703t.305.496q.193.195.448.29c.442.153.833.08 1.22-.114v.138c0 .302 0 .549-.107.66q-.225.207-.74.207-.274 0-.529-.056a2.5 2.5 0 0 1-.422-.12l-.106.51a3.3 3.3 0 0 0 1.044.169q.783 0 1.17-.34.385-.339.385-1.093V7.075c-.397-.087-.787-.173-1.213-.17m.518.585v1.909c-.346.252-.587.265-.94.157-.264-.08-.377-.315-.473-.528-.058-.129-.069-.295-.069-.483 0-.34.062-.63.249-.817.382-.383.775-.318 1.233-.239z"/><path fill="#f2f2f2" d="m5.915 5.863 1.042 3.822h.695L6.61 5.863zm1.737 3.822h.695V8.99h-.695z"/><path d="M1.058 12.17v.265a3.433 3.433 0 0 0 3.44 3.44h7.937a3.433 3.433 0 0 0 3.44-3.44v-.265a3.433 3.433 0 0 1-3.44 3.44H4.498a3.433 3.433 0 0 1-3.44-3.44" opacity=".15"/><path fill="#fff" d="M1.058 4.763V4.5a3.433 3.433 0 0 1 3.44-3.44h7.937a3.433 3.433 0 0 1 3.44 3.44v.265a3.433 3.433 0 0 0-3.44-3.44H4.498a3.433 3.433 0 0 0-3.44 3.44z" opacity=".15"/></svg>