<svg xmlns="http://www.w3.org/2000/svg" viewBox="0 0 16.933 16.933"><rect width="14.817" height="14.817" x="1.058" y="1.05" fill="#f2f2f2" rx="3.44" ry="3.44"/><path d="M1.058 12.17v.265a3.433 3.433 0 0 0 3.44 3.44h7.937a3.433 3.433 0 0 0 3.44-3.44v-.265a3.433 3.433 0 0 1-3.44 3.44H4.498a3.433 3.433 0 0 1-3.44-3.44" opacity=".1"/><path fill="#fff" d="M1.058 4.763V4.5a3.433 3.433 0 0 1 3.44-3.44h7.937a3.433 3.433 0 0 1 3.44 3.44v.265a3.433 3.433 0 0 0-3.44-3.44H4.498a3.433 3.433 0 0 0-3.44 3.44z" opacity=".5"/><g stroke-width=".185"><path fill="#ff3944" d="M13.62 6.398c-.24-.582-.731-1.21-1.115-1.408a5.8 5.8 0 0 1 .563 1.688l.001.01c-.629-1.568-1.695-2.2-2.567-3.578a7 7 0 0 1-.13-.213 2 2 0 0 1-.062-.114 1 1 0 0 1-.083-.22.014.014 0 0 0-.012-.015h-.011l-.003.001-.004.002.003-.004c-1.398.818-1.872 2.333-1.916 3.09a2.8 2.8 0 0 0-1.53.59 2 2 0 0 0-.144-.108 2.6 2.6 0 0 1-.016-1.36 4.1 4.1 0 0 0-1.339 1.035h-.003c-.22-.279-.205-1.2-.192-1.393a1 1 0 0 0-.186.099 4 4 0 0 0-.543.466 5 5 0 0 0-.52.624 4.7 4.7 0 0 0-.747 1.685l-.007.037a9 9 0 0 0-.055.347L3 7.672a5 5 0 0 0-.09.766v.03a5.564 5.564 0 0 0 11.045.94q.014-.107.025-.215a5.7 5.7 0 0 0-.36-2.795m-6.41 4.355q.038.02.077.037l.004.003zm5.861-4.064v-.006z"/><path fill="#ffcd34" d="m10.918 7.049.035.025a3 3 0 0 0-.517-.674c-1.73-1.73-.453-3.75-.238-3.852l.002-.004c-1.397.818-1.871 2.333-1.915 3.09.065-.004.13-.01.196-.01a2.81 2.81 0 0 1 2.437 1.424z"/><path fill="#9a46eb" d="M8.484 7.394c-.01.139-.498.616-.67.616-1.581 0-1.838.957-1.838.957.07.806.631 1.47 1.31 1.82q.047.025.094.045.082.037.163.067a2.5 2.5 0 0 0 .724.14c2.773.13 3.31-3.316 1.31-4.316a1.92 1.92 0 0 1 1.34.326A2.81 2.81 0 0 0 8.48 5.625c-.066 0-.13.006-.195.01a2.8 2.8 0 0 0-1.532.59c.085.072.181.168.383.367.377.372 1.345.757 1.348.802"/><path fill="#ff9633" d="M6.494 6.039q.066.042.115.076a2.6 2.6 0 0 1-.016-1.36A4.1 4.1 0 0 0 5.254 5.79c.027 0 .834-.015 1.24.249"/><path fill="#ff6333" d="M2.961 8.594c.43 2.537 2.729 4.474 5.34 4.548 2.415.068 3.958-1.334 4.596-2.702a5.04 5.04 0 0 0 .173-3.755v-.011l.001.01c.198 1.288-.458 2.536-1.482 3.38l-.004.008c-1.996 1.626-3.906.98-4.293.717l-.081-.04c-1.164-.556-1.645-1.617-1.542-2.526a1.43 1.43 0 0 1-1.318-.83 2.1 2.1 0 0 1 2.045-.081 2.77 2.77 0 0 0 2.09.082c-.003-.045-.971-.43-1.349-.803-.201-.198-.297-.294-.382-.366a2 2 0 0 0-.143-.109l-.115-.076c-.406-.264-1.213-.25-1.24-.249h-.002c-.22-.279-.205-1.2-.193-1.393a1 1 0 0 0-.185.099 4 4 0 0 0-.544.465 5 5 0 0 0-.522.623 4.7 4.7 0 0 0-.747 1.686c-.002.01-.2.875-.103 1.323"/><path fill="#ff8619" d="M10.436 6.405a3 3 0 0 1 .517.674q.046.035.083.069c1.261 1.162.6 2.806.551 2.923 1.025-.844 1.68-2.093 1.483-3.381-.63-1.57-1.696-2.201-2.567-3.578a7 7 0 0 1-.131-.213 2 2 0 0 1-.062-.115 1 1 0 0 1-.083-.22.014.014 0 0 0-.012-.015h-.01l-.003.001-.004.002c-.216.102-1.492 2.123.238 3.852z"/><path fill="#ffa316" d="M11.035 7.144a1 1 0 0 0-.084-.069l-.034-.025a1.92 1.92 0 0 0-1.342-.326c2.001 1 1.465 4.446-1.309 4.316a2.5 2.5 0 0 1-.723-.14q-.082-.03-.164-.067-.047-.02-.094-.045l.004.003c.387.264 2.297.909 4.294-.718l.003-.007c.05-.116.71-1.76-.551-2.922"/><path fill="#ffbb27" d="M5.976 8.967s.257-.957 1.839-.957c.17 0 .66-.477.669-.616a2.77 2.77 0 0 1-2.09-.082 2.1 2.1 0 0 0-2.044.082 1.43 1.43 0 0 0 1.317.83c-.103.909.378 1.97 1.542 2.526l.077.038c-.68-.351-1.24-1.015-1.31-1.821"/></g></svg>