<svg xmlns="http://www.w3.org/2000/svg" xmlns:xlink="http://www.w3.org/1999/xlink" width="64" height="64"><defs><linearGradient id="d" x1="3618.4" x2="3618.4" y1="-758.64" y2="-772.64" gradientTransform="matrix(1.875 0 0 2 -6759.2 1563.3)" gradientUnits="userSpaceOnUse"><stop offset="0" stop-color="#fff"/><stop offset="1" stop-color="#fff"/></linearGradient><linearGradient id="a"><stop offset="0" stop-color="#666"/><stop offset="1" stop-color="#333"/></linearGradient><linearGradient xlink:href="#a" id="g" x1="195.75" x2="195.75" y1="1016.2" y2="1032.2" gradientTransform="translate(-211.12 -1249.1)scale(1.25)" gradientUnits="userSpaceOnUse"/><linearGradient xlink:href="#a" id="f" x1="3716.2" x2="3716.2" y1="683.98" y2="705.13" gradientTransform="matrix(.99459 0 0 1 20.039 -.13)" gradientUnits="userSpaceOnUse"/><linearGradient id="b" x1="7.937" x2="7.937" y1="15.417" y2="1.058" gradientTransform="scale(3.7796)" gradientUnits="userSpaceOnUse"><stop offset="0" stop-color="#343434"/><stop offset="1" stop-color="#666"/></linearGradient><linearGradient id="c" x1="30" x2="30" y1="54" y2="9" gradientUnits="userSpaceOnUse"><stop offset="0" stop-color="#fff"/><stop offset="1" stop-color="#f5f5f5"/></linearGradient><linearGradient id="h" x1="45" x2="60.076" y1="19" y2="3.924" gradientTransform="translate(3.429 3.456)scale(.89283)" gradientUnits="userSpaceOnUse"><stop offset="0" stop-color="#fff"/><stop offset="1" stop-color="#ffefcc"/></linearGradient><filter id="e" width="1.106" height="1.139" x="-.053" y="-.069" color-interpolation-filters="sRGB"><feGaussianBlur stdDeviation=".405"/></filter></defs><rect width="56.002" height="56.002" x="4" y="3.969" fill="url(#b)" rx="13.002" ry="13.002"/><path fill="#fff" d="M17.002 8.97c-4.432 0-8 3.569-8 8v30c0 4.432 3.568 8 8 8H47c4.432 0 8-3.568 8-8v-30c0-4.432-3.568-8-8-8zm0 1.03H45v3H12.969v1H45v3H13.568v1H45v35.26h1V18h3v32.193h1V18h3.97v28.969a6.956 6.956 0 0 1-6.97 6.97H17.002a6.956 6.956 0 0 1-6.97-6.97V16.971a6.956 6.956 0 0 1 6.97-6.97zM46 10h1a7 7 0 0 1 2 .293V13h-3zm4 .682A6.96 6.96 0 0 1 52.732 13H50zM46 14h3v3h-3zm4 0h3.303a7 7 0 0 1 .668 2.97V17H50z" opacity=".25"/><path d="M17.002 6A10.947 10.947 0 0 0 6.031 16.971v29.998A10.947 10.947 0 0 0 17.002 57.94H47a10.947 10.947 0 0 0 10.971-10.971V28.922C57.971 22 41.443 6 34.785 6H18.074z" opacity=".15"/><path fill="url(#c)" d="M17 7C11.46 7 7 11.46 7 17v30a9.976 9.976 0 0 0 8.969 9.947c.58-.02 1.133-.037 1.449-.006h.002q.586.06 1.19.059H47c5.54 0 10-4.46 10-10V29.348C57 23.991 40.035 7 34.678 7H18.61z"/><path fill="url(#d)" d="M19 18c-1.108 0-2 .892-2 2v24c0 1.108.892 2 2 2h26c1.108 0 2-.892 2-2V25c0-3-5-7-8-7z"/><g stroke-width=".8"><g fill="#f09e6f"><path d="M17 43h30v1H17zm0-23h30v1H17z"/><path d="M20 18v28h-1V18zm25 0v28h-1V18z"/></g><g filter="url(#e)" opacity=".25" transform="translate(-4505.5 1115.3)scale(1.25)"><path d="M3638.722-873.874v3h-1.492v-1.4h-9.25l-2.088 12.4h-2.387l-1.99-6.3h-1.193v-1.7h2.487l1.74 5 1.74-11"/><path stroke="#000" stroke-linecap="round" stroke-linejoin="round" stroke-width="1.6" d="m3637-867.64-7 7m0-7 7 7"/></g><path fill="url(#f)" d="M3724.9 691.66v1.994h-.992v-.93h-6.15l-1.388 8.244h-1.587l-1.322-4.189h-.794v-1.13h1.653l1.157 3.324 1.157-7.313" transform="translate(-6960.4 -1277.4)scale(1.8801)"/></g><path fill="none" stroke="url(#g)" stroke-linecap="round" stroke-linejoin="round" stroke-width="2" d="M40.75 30.75 32 39.5"/><path fill="url(#h)" d="M34.678 7.028c3.571.893 4.464 6.25 5.357 9.82.866 3.466 2.838 5.844 8.036 7.144 3.57.892 7.142.571 8.928 5.357 0-.022-.004-.044-.004-.065C56.898 23.038 42.17 8.09 35.381 7.059a10 10 0 0 0-.702-.031z"/></svg>