<svg xmlns="http://www.w3.org/2000/svg" viewBox="0 0 16.933 16.933"><rect width="14.817" height="14.817" x="1.058" y="1.05" fill="#4da1f0" rx="3.44" ry="3.44"/><path fill="#fff" d="M6.935 12.7s.47.007 1.066-.08c.242-.038 1.158-.184 1.838-.38 0 0 .829-.234 1.266-.432.459-.205.705-.373.804-.594.036-.075.079-.31-.25-.412-.522-.153-1.166-.082-2.444.045-1.418.03-1.906-.187-2.17-.369-.255-.186-.174-.745.82-1.29.5-.289 2.5-.884 2.5-.884-.71-.31-2.031-.85-2.303-.968-.238-.103-.62-.257-.714-.464-.105-.198.186-.39.352-.45.536-.195 1.302-.34 2.004-.392.354-.026.41-.053.41-.053.481-.112.778-.475.605-1.012-.161-.55-.817-.841-1.412-.693-.559.14-1.897.627-1.897.627 1.689-.112 1.973-.099 2.113.076.082.103-.015.257-.46.359-.486.11-1.498.268-1.498.268-.974.116-1.662.16-1.837.623-.113.303.184.548.319.704.559.563 1.328.84 1.826 1.048.187.078.73.215.73.215-1.565 0-2.654.559-3.273 1.165-.694.755-.303 1.585 1.262 2.02.89.212 1.402.272 2.72.174.79-.09.917-.07.93-.004.018.094-.858.38-1.096.466-.606.22-2.203.685-2.211.687"/><path d="M1.058 12.17v.265a3.433 3.433 0 0 0 3.44 3.44h7.937a3.433 3.433 0 0 0 3.44-3.44v-.265a3.433 3.433 0 0 1-3.44 3.44H4.498a3.433 3.433 0 0 1-3.44-3.44" opacity=".15"/><path fill="#fff" d="M1.058 4.763V4.5a3.433 3.433 0 0 1 3.44-3.44h7.937a3.433 3.433 0 0 1 3.44 3.44v.265a3.433 3.433 0 0 0-3.44-3.44H4.498a3.433 3.433 0 0 0-3.44 3.44z" opacity=".15"/></svg>