<svg xmlns="http://www.w3.org/2000/svg" viewBox="0 0 16.933 16.933"><path fill="#4cd964" d="M7.408 14.552A1.85 1.85 0 0 1 5.556 12.7v-1.852c0-.293.236-.53.53-.53h9.789c.293 0 .529.237.529.53V12.7a1.85 1.85 0 0 1-1.852 1.852z"/><rect width="10.848" height="4.233" x="5.556" y="7.673" fill="#ff9500" rx=".529" ry=".529"/><rect width="10.848" height="4.233" x="5.556" y="5.027" fill="#5ac8fa" rx=".529" ry=".529"/><path fill="#c4c2ba" d="M7.408 2.381a1.85 1.85 0 0 0-1.852 1.852v1.852c0 .293.236.53.53.53h9.789a.53.53 0 0 0 .529-.53V4.233a1.85 1.85 0 0 0-1.852-1.852z"/><rect width="14.817" height="14.817" x="1.058" y="1.05" fill="#b7974f" rx="3.44" ry="3.44"/><path fill="#fff" d="M4.498 1.05a3.43 3.43 0 0 0-3.44 3.44v.273a3.43 3.43 0 0 1 3.44-3.44h7.937a3.43 3.43 0 0 1 3.44 3.44V4.49a3.43 3.43 0 0 0-3.44-3.44z" opacity=".15"/><path d="M4.498 15.875a3.43 3.43 0 0 1-3.44-3.44v-.273a3.43 3.43 0 0 0 3.44 3.44h7.937a3.43 3.43 0 0 0 3.44-3.44v.273a3.43 3.43 0 0 1-3.44 3.44z" opacity=".15"/><path fill="#fff" d="M11.858 6.464V4.515a.28.28 0 0 0-.282-.282h-.566a.28.28 0 0 0-.282.282v.988ZM8.466 4.32 5.075 7.207v4.364a1.13 1.13 0 0 0 1.13 1.129h1.131v-1.693a1.128 1.128 0 0 1 1.572-1.04 1.13 1.13 0 0 1 .689 1.04V12.7h1.13a1.13 1.13 0 0 0 1.042-.689c.057-.135.09-.283.09-.44V7.207Z"/></svg>