<svg xmlns="http://www.w3.org/2000/svg" image-rendering="optimizeSpeed" viewBox="0 0 64 64"><rect width="56" height="56" x="4" y="4" fill="#4d4d4d" rx="13.002" ry="13.002"/><path fill="#1a1a1a" stroke="#2e3436" d="M15 26.407h34v11.778H15z"/><path fill="#d35f5f" d="M35.478 32.022a3.429 3.429 0 1 1-6.857 0 3.429 3.429 0 0 1 6.857 0m-10 0a3.429 3.429 0 1 1-6.857 0 3.429 3.429 0 0 1 6.857 0m20 0a3.429 3.429 0 1 1-6.857 0 3.429 3.429 0 0 1 6.857 0"/><path fill="#ccc" d="M32.016 11.484c-10.117 0-18.544 7.329-20.219 16.969h40.406c-1.676-9.639-10.071-16.969-20.187-16.969M11.828 35.547c1.69 9.622 10.083 16.968 20.188 16.968s18.498-7.344 20.187-16.968z"/><path d="M3.998 45.998v1c0 7.203 5.8 13.004 13.004 13.004h29.996c7.203 0 13.004-5.8 13.004-13.004v-1c0 7.203-5.8 13.002-13.004 13.002H17.002A12.975 12.975 0 0 1 3.998 45.998" opacity=".5"/><path fill="#fff" d="M3.998 18.004v-1C3.998 9.801 9.798 4 17.002 4h29.996c7.203 0 13.004 5.8 13.004 13.004v1c0-7.203-5.8-13.002-13.004-13.002H17.002A12.975 12.975 0 0 0 3.998 18.004" opacity=".15"/></svg>