<svg xmlns="http://www.w3.org/2000/svg" width="64" height="64"><defs><linearGradient id="a" x1="7.937" x2="7.937" y1="15.081" y2="1.852" gradientTransform="scale(3.7796)" gradientUnits="userSpaceOnUse"><stop offset="0" stop-color="#363636"/><stop offset="1" stop-color="#6c6c6c"/></linearGradient></defs><rect width="56" height="56" x="4" y="4" fill="url(#a)" rx="13" ry="13" style="fill:url(#a)"/><path fill="#2ba787" d="M32 11.683c-6.627 0-12 5.373-12 12v3.703a15.5 15.5 0 0 0-3.5 9.797 15.5 15.5 0 0 0 15.5 15.5 15.5 15.5 0 0 0 15.5-15.5 15.5 15.5 0 0 0-3.5-9.795v-3.705c0-6.627-5.373-12-12-12m0 3a9 9 0 0 1 9 9v.895a15.5 15.5 0 0 0-9-2.895 15.5 15.5 0 0 0-9 2.904v-.904a9 9 0 0 1 9-9"/><path fill="#f16161" d="M32.283 21.683a16 16 0 0 0-1 .053v4.092h2v-4.092a16 16 0 0 0-1-.053"/><path fill="#c1e7e8" d="M44.783 37.183a12.5 12.5 0 0 1-12.5 12.5 12.5 12.5 0 0 1-12.5-12.5 12.5 12.5 0 0 1 12.5-12.5 12.5 12.5 0 0 1 12.5 12.5"/><path fill-opacity=".063" d="M32.283 24.683a12.5 12.5 0 0 0-12.5 12.5 12.5 12.5 0 0 0 12.5 12.5 12.5 12.5 0 0 0 12.5-12.5 12.5 12.5 0 0 0-12.5-12.5m0 1a11.5 11.5 0 0 1 11.5 11.5 11.5 11.5 0 0 1-11.5 11.5 11.5 11.5 0 0 1-11.5-11.5 11.5 11.5 0 0 1 11.5-11.5"/><path fill="#11d116" d="M31.283 26.183v3h2v-3zm0 19v3h2v-3zm9-9v2h3v-2zm-19 0v2h3v-2zm4.283-7.131-1.414 1.414 1.414 1.414 1.414-1.414zM39 42.485l-1.414 1.414L39 45.313l1.414-1.414zm0-13.433-1.414 1.414L39 31.88l1.414-1.414zM25.566 42.485l-1.414 1.414 1.414 1.414L26.98 43.9z" color="#000" style="-inkscape-stroke:none"/><path fill="#2ea3a0" d="M38.783 37.183a6.5 6.5 0 0 1-6.5 6.5 6.5 6.5 0 0 1-6.5-6.5 6.5 6.5 0 0 1 6.5-6.5 6.5 6.5 0 0 1 6.5 6.5"/><path fill="#22878d" d="M32.283 31.683a5.5 5.5 0 0 0-5.5 5.5 5.5 5.5 0 0 0 5.5 5.5 5.5 5.5 0 0 0 5.5-5.5 5.5 5.5 0 0 0-5.5-5.5m0 1a4.5 4.5 0 0 1 4.5 4.5 4.5 4.5 0 0 1-4.5 4.5 4.5 4.5 0 0 1-4.5-4.5 4.5 4.5 0 0 1 4.5-4.5"/></svg>