<svg xmlns="http://www.w3.org/2000/svg" image-rendering="optimizeSpeed" viewBox="0 0 64 64"><rect width="56.002" height="56.002" x="4" y="3.969" fill="#ececec" rx="13.002" ry="13.002"/><path d="M3.998 45.998v1c0 7.203 5.8 13.004 13.004 13.004h29.996c7.203 0 13.004-5.8 13.004-13.004v-1c0 7.203-5.8 13.002-13.004 13.002H17.002A12.975 12.975 0 0 1 3.998 45.998" opacity=".1"/><path fill="#fff" d="M3.998 18.004v-1C3.998 9.801 9.798 4 17.002 4h29.996c7.203 0 13.004 5.8 13.004 13.004v1c0-7.203-5.8-13.002-13.004-13.002H17.002A12.975 12.975 0 0 0 3.998 18.004" opacity=".5"/><path fill="#3d3846" d="M29.652 11.605 19.295 35.78c-2.098 4.928-3.785 6.708-6.477 6.982v2.462h13.184v-2.462c-3.238-.184-4.516-1.05-4.516-3.148 0-.776.18-1.506.683-2.6l.732-1.735h11.358l1.733 4.472c.502 1.278.548 1.505.548 1.87 0 .82-.639 1.094-2.646 1.094l-.776.047v2.462H49.13v-2.462c-2.6-.093-3.33-.549-4.29-2.874L33.119 11.605zm-.96 9.716 4.426 10.903h-9.033z"/><path fill="#2ec27e" stroke="#fff" stroke-width="2.649" d="M42.893 29.332h7.946v11.92h5.298l-9.27 9.27-9.271-9.27h5.297z"/><path fill="#2ec27e" d="M42.893 29.332h7.946v11.92h5.298l-9.27 9.27-9.271-9.27h5.297z"/></svg>