<svg xmlns="http://www.w3.org/2000/svg" viewBox="0 0 64 64"><defs><filter id="a" width="1.12" height="1.12" x="-.06" y="-.06" color-interpolation-filters="sRGB"><feGaussianBlur stdDeviation=".7"/></filter></defs><circle cx="32.02" cy="32.044" r="30.001" fill="none"/><rect width="56.002" height="56.002" x="4" y="3.969" fill="#4d4d4d" rx="13.002" ry="13.002"/><g stroke-linecap="round" stroke-linejoin="round" stroke-width="2"><rect width="44" height="34" x="12" y="19" fill="#84a5a6" rx="4" ry="4"/><rect width="44" height="34" x="9" y="12" fill="#65dafc" rx="4" ry="4"/><path fill="#fff" d="M13 12c-2.216 0-4 1.784-4 4v3h44v-3c0-2.216-1.784-4-4-4z" opacity=".25"/></g><path fill="#273a3f" d="M14.225 15.594a.65.65 0 0 1 .324-.563.68.68 0 0 0-.549-.3c-.233-.037-.456.132-.574.132s-.301-.132-.495-.132c-.255 0-.49.15-.62.375-.265.47-.068 1.144.19 1.52.126.168.276.374.473.374.19 0 .262-.131.492-.131s.294.131.495.131c.204 0 .334-.187.459-.375.145-.206.204-.412.208-.431a.65.65 0 0 1-.403-.6m-.378-1.106a.7.7 0 0 0 .156-.488.63.63 0 0 0-.442.225c-.097.113-.181.3-.159.469.169.019.34-.094.445-.206M47.334 14A1.174 1.174 0 1 0 48 16.142l.786.787c.205.215.52-.108.3-.307l-.501-.502-.284-.284A1.174 1.174 0 0 0 47.334 14m0 .214a.96.96 0 1 1 0 1.921.96.96 0 0 1 0-1.921" class="ColorScheme-Text"/><circle cx="400.57" cy="531.8" r="14" filter="url(#a)" opacity=".25" transform="matrix(.85401 .07257 -.07282 .85409 -255.34 -435.25)"/><path d="M3.999 45.998V47A12.975 12.975 0 0 0 17 60.002h30A12.975 12.975 0 0 0 60.002 47v-1.002A12.975 12.975 0 0 1 47 59H17A12.975 12.975 0 0 1 4 45.998z" opacity=".35"/><ellipse cx="51.93" cy="43.781" fill="#fff" rx="11.999" ry="12.001" transform="rotate(4.856)skewX(-.017)"/><path fill="#4fccf1" d="M50.965 53.398c-.285 0-.57-.122-.777-.363a2.74 2.74 0 0 0-2.073-.97c-.802 0-1.538.343-2.073.965a1.01 1.01 0 0 1-1.481.077 1.147 1.147 0 0 1-.073-1.56c.924-1.076 2.246-1.693 3.626-1.693s2.7.618 3.628 1.696c.389.452.356 1.15-.073 1.561a1 1 0 0 1-.704.287m2.326-2.766a1.02 1.02 0 0 1-.74-.322c-1.186-1.244-2.762-1.93-4.437-1.93-1.678 0-3.254.684-4.439 1.926a1.01 1.01 0 0 1-1.483-.004 1.147 1.147 0 0 1 .005-1.563c1.58-1.657 3.682-2.57 5.918-2.57 2.232 0 4.333.915 5.916 2.574.411.43.412 1.13.004 1.564a1.02 1.02 0 0 1-.743.326zm2.322-2.76a1.02 1.02 0 0 1-.726-.308c-1.83-1.85-4.235-2.868-6.773-2.868-2.542 0-4.948 1.017-6.774 2.865a1.01 1.01 0 0 1-1.482-.033 1.15 1.15 0 0 1 .03-1.562c2.218-2.245 5.14-3.48 8.226-3.48 3.08 0 6.001 1.236 8.224 3.482a1.15 1.15 0 0 1 .032 1.563c-.206.226-.482.34-.757.34zm-7.63 8.2a1.267 1.267 0 1 0 0-2.533 1.267 1.267 0 0 0 0 2.533"/><path fill="#fff" d="M3.999 18.002v-.994A12.975 12.975 0 0 1 17 4.006h30a12.975 12.975 0 0 1 13.002 13.002v1.002A12.975 12.975 0 0 0 47 5.008H17A12.975 12.975 0 0 0 4 18.01z" opacity=".15"/></svg>