<svg xmlns="http://www.w3.org/2000/svg" viewBox="0 0 64 64"><defs><linearGradient id="b" x2="0" y1="505.8" y2="541.8" gradientTransform="matrix(1.5 0 0 1.5 -580.86 -753.66)" gradientUnits="userSpaceOnUse"><stop offset="0" stop-color="#fffcde"/><stop offset="1" stop-color="#fafac5"/></linearGradient><linearGradient id="d" x1="40.722" x2="56.884" y1="48.485" y2="48.485" gradientTransform="rotate(-1.97 68.596 44.879)" gradientUnits="userSpaceOnUse"><stop offset="0" stop-color="#ffc23e"/><stop offset="1" stop-color="#ffe426"/></linearGradient><linearGradient id="a" x1="7.937" x2="7.937" y1="15.081" y2="1.852" gradientTransform="scale(3.7796)" gradientUnits="userSpaceOnUse"><stop offset="0" stop-color="#f54800"/><stop offset="1" stop-color="#ffb200"/></linearGradient><radialGradient id="c" cx="24" cy="1028.4" r="16" gradientTransform="matrix(1.8465 .00501 -.00501 1.847 -7.165 -1867.4)" gradientUnits="userSpaceOnUse"><stop offset="0" stop-color="#f47750"/><stop offset="1" stop-color="#fdbc4b"/></radialGradient></defs><rect width="56.002" height="56.002" x="4" y="3.969" fill="url(#a)" rx="13.002" ry="13.002" style="fill:#fa7c00;fill-opacity:1"/><path fill="url(#b)" d="M32 5.1a27 27 0 0 0-27 27 27 27 0 0 0 27 27 27 27 0 0 0 27-27 27 27 0 0 0-27-27M32 26a6 6 0 0 1 6 6 6 6 0 0 1-6 6 6 6 0 0 1-6-6 6 6 0 0 1 6-6" style="fill:#fcfbd1;stroke-width:2;stroke-linejoin:round;fill-opacity:1"/><path fill="url(#c)" d="M32 8.1c-4.5 0-7.5 3-7.5 3s1.79 6.078 3 9c.493 1.19 1.271 2.772 2.043 4.297A8 8 0 0 1 32 24a8 8 0 0 1 2.459.393c.771-1.523 1.548-3.104 2.041-4.293 1.21-2.922 3-9 3-9s-3-3-7.5-3m-9.545 3.845s-4.244 0-7.426 3.182-3.181 7.428-3.181 7.428 5.564 3.03 8.486 4.242c1.202.498 2.892 1.071 4.53 1.607a8 8 0 0 1 3.427-3.488c-.532-1.624-1.1-3.292-1.594-4.482-1.21-2.922-4.242-8.489-4.242-8.489m19.092 0s-3.03 5.567-4.242 8.489c-.494 1.19-1.062 2.86-1.594 4.484a8 8 0 0 1 3.432 3.486c1.636-.536 3.324-1.11 4.525-1.607 2.922-1.21 8.486-4.242 8.486-4.242s0-4.246-3.181-7.428-7.426-3.182-7.426-3.182M11.002 24.6s-3 3-3 7.5 3 7.5 3 7.5 6.078-1.79 9-3c1.22-.505 2.85-1.309 4.408-2.1A8 8 0 0 1 24 32a8 8 0 0 1 .35-2.33c-1.54-.78-3.144-1.57-4.348-2.07-2.922-1.21-9-3-9-3m42 0s-6.078 1.79-9 3c-1.206.5-2.814 1.291-4.355 2.073A8 8 0 0 1 40 32a8 8 0 0 1-.408 2.5c1.558.79 3.19 1.594 4.41 2.1 2.922 1.21 9 3 9 3s3-3 3-7.5-3-7.5-3-7.5M24.95 35.765c-1.664.544-3.39 1.13-4.613 1.637-2.922 1.21-8.486 4.242-8.486 4.242s0 4.244 3.181 7.426 7.426 3.182 7.426 3.182 3.03-5.565 4.242-8.487c.511-1.233 1.103-2.978 1.65-4.654a8 8 0 0 1-3.4-3.346m14.105 0a8 8 0 0 1-3.4 3.348c.547 1.676 1.14 3.42 1.65 4.652 1.21 2.922 4.242 8.487 4.242 8.487s4.245 0 7.426-3.182 3.182-7.426 3.182-7.426-5.565-3.03-8.487-4.242c-1.222-.507-2.95-1.093-4.613-1.637m-4.684 3.867A8 8 0 0 1 32 40a8 8 0 0 1-2.374-.362c-.798 1.573-1.613 3.227-2.125 4.461-1.21 2.922-3 9-3 9s3 3 7.5 3 7.5-3 7.5-3-1.79-6.078-3-9c-.512-1.235-1.33-2.892-2.13-4.467" style="fill:#f99e4d;stroke-width:2;stroke-linejoin:round;fill-opacity:1"/><path d="M3.998 45.998v1c0 7.203 5.8 13.004 13.004 13.004h29.996c7.203 0 13.004-5.8 13.004-13.004v-1c0 7.203-5.8 13.002-13.004 13.002H17.002A12.975 12.975 0 0 1 3.998 45.998" opacity=".15"/><path fill="url(#d)" d="M41.398 56.942c2.24 6.927 9.783 7.554 14.334 1.951s-2.433-19.37-9.06-23.145c1.82 9.456-7.514 14.267-5.274 21.194" style="fill:#ffd630;fill-opacity:1"/><path fill="#fff" d="M3.998 18.004v-1C3.998 9.801 9.798 4 17.002 4h29.996c7.203 0 13.004 5.8 13.004 13.004v1c0-7.203-5.8-13.002-13.004-13.002H17.002A12.975 12.975 0 0 0 3.998 18.004" opacity=".15"/></svg>