<svg xmlns="http://www.w3.org/2000/svg" viewBox="0 0 64 64"><rect width="56.002" height="56.002" x="4" y="3.969" fill="#4d4d4d" rx="13.002" ry="13.002"/><path d="M3.998 45.998v1c0 7.203 5.8 13.004 13.004 13.004h29.996c7.203 0 13.004-5.8 13.004-13.004v-1c0 7.203-5.8 13.002-13.004 13.002H17.002A12.975 12.975 0 0 1 3.998 45.998" opacity=".35"/><path fill="#fff" d="M3.998 18.004v-1C3.998 9.801 9.798 4 17.002 4h29.996c7.203 0 13.004 5.8 13.004 13.004v1c0-7.203-5.8-13.002-13.004-13.002H17.002A12.975 12.975 0 0 0 3.998 18.004" opacity=".15"/><circle cx="32.017" cy="31.998" r="30" fill="none"/><path fill="#2c2c2e" d="m13.152 44.351.334 5.278c0 .548.448.989 1.005.988l35.032-.004a.995.995 20.494 0 0 1.004-.988l.335-5.278z"/><path fill="#fafafa" d="m16.175 13.409 31.352-.004a.994.994 0 0 1 1.004.988l2.342 29.795a.995.995 20.494 0 1-1.005.989l-35.704.004a.995.995 20.494 0 1-1.004-.988l2.011-29.796a.995.995 0 0 1 1.004-.988"/><rect width="15.451" height="1.037" x="24.318" y="47.603" fill="#4a9dfa" ry=".518" transform="skewX(-.012)"/><ellipse cx="46.181" cy="48.156" opacity=".452" rx="1.43" ry="1.431" transform="skewX(-.012)"/><path fill="#fff" d="M46.187 48.203q.048 0 .084-.036a.12.12 0 0 0 .035-.083v-.596a.11.11 0 0 0-.035-.084.115.115 0 0 0-.168 0 .12.12 0 0 0-.035.084v.596q0 .048.035.083a.12.12 0 0 0 .084.036" opacity=".668"/><path fill="#fff" d="M46.827 47.883a.7.7 0 0 0-.21-.251q-.04-.03-.09-.023c-.05.007-.058.02-.077.046a.11.11 0 0 0-.023.088q.007.05.046.079a.475.475 0 0 1-.47.82.48.48 0 0 1-.293-.44.47.47 0 0 1 .191-.38.12.12 0 0 0 .046-.079.11.11 0 0 0-.023-.088q-.029-.04-.077-.046c-.048-.006-.063.003-.09.023a.7.7 0 0 0-.285.57.72.72 0 0 0 .438.658.7.7 0 0 0 .555.001.72.72 0 0 0 .38-.38.7.7 0 0 0-.018-.597z" opacity=".668"/><path fill="#51a2da" d="M32 18c-6.072 0-10.995 4.92-11 10.992v8.513a2.5 2.5 0 0 0 2.5 2.494h8.503C38.078 39.997 43 35.073 43 29c0-6.075-4.925-11-11-11m2.23 4.526c1.847 0 3.592 1.417 3.592 3.367a4 4 0 0 1-.031.567.917.917 0 1 1-1.813-.259c.008-.057.012-.15.012-.308 0-1.105-.904-1.533-1.76-1.533s-1.627.718-1.63 1.531v2.816l1.588-.011c1.24-.026 1.252 1.843.012 1.834l-1.6.009-.012 2.627c-.191 2.062-1.947 3.71-4.056 3.71-2.235 0-4.079-1.828-4.079-4.069.067-2.305 1.91-4.117 4.223-4.096l1.29-.008v1.83l-1.3.012c-1.273.038-2.36.9-2.38 2.262a2.235 2.235 0 0 0 2.247 2.236c1.243 0 2.235-.904 2.235-2.233v-6.927c.001-.128.007-.23.022-.373.209-1.694 1.724-2.986 3.44-2.986z"/></svg>