<svg xmlns="http://www.w3.org/2000/svg" image-rendering="optimizeSpeed" viewBox="0 0 64 64"><defs><linearGradient id="a" x1="18.601" x2="18.601" y1=".854" y2="49.956" gradientTransform="matrix(1.1117 0 0 .96015 24.948 10.068)" gradientUnits="userSpaceOnUse"><stop offset="0" stop-color="#fafafa"/><stop offset="1" stop-color="#d4d4d4"/></linearGradient></defs><rect width="56.002" height="56.002" x="4" y="3.969" fill="#4d4d4d" rx="13.002" ry="13.002"/><path d="M3.998 45.998v1c0 7.203 5.8 13.004 13.004 13.004h29.996c7.203 0 13.004-5.8 13.004-13.004v-1c0 7.203-5.8 13.002-13.004 13.002H17.002A12.975 12.975 0 0 1 3.998 45.998" opacity=".35"/><path fill="#fff" d="M3.998 18.004v-1C3.998 9.801 9.798 4 17.002 4h29.996c7.203 0 13.004 5.8 13.004 13.004v1c0-7.203-5.8-13.002-13.004-13.002H17.002A12.975 12.975 0 0 0 3.998 18.004" opacity=".15"/><path fill="url(#a)" d="M31.053 11.45c-2.926.032-6.07.3-8.214 2.308-3.283 3.078-2.869 5.207-3.191 9.42-.658 8.598-.404 20.382 1.345 28.848.513 2.483 2.855 4.231 5.34 4.71 1.907.367 3.88.645 5.854.712 1.975-.067 3.947-.345 5.854-.713 2.485-.478 4.827-2.226 5.34-4.709 1.749-8.466 2.003-20.25 1.345-28.849-.322-4.212.092-6.34-3.19-9.418-2.144-2.01-5.29-2.277-8.215-2.309-.382-.004-.762 0-1.134 0s-.751-.004-1.134 0" color="#000" style="fill:#e4e4e4;fill-opacity:1" transform="translate(0 -2.448)"/><path fill="#4d4d4d" fill-opacity=".588" d="M32.187 15c.554 0 1 .55 1 1.232v3.536c0 .683-.446 1.232-1 1.232s-1-.55-1-1.232v-3.536c0-.682.446-1.232 1-1.232"/><path fill="#4d4d4d" fill-opacity=".588" d="M32.187 16c.554 0 1 .55 1 1.232v3.536c0 .683-.446 1.232-1 1.232s-1-.55-1-1.232v-3.536c0-.682.446-1.232 1-1.232"/><path fill="#999" d="M31.35 48.268c-.021-.005-.032-.009-.024-.01a.8.8 0 0 1-.328-.199 3.3 3.3 0 0 1-.413-.537 3.2 3.2 0 0 1-.406-1.095 2.5 2.5 0 0 1-.007-.77c.116-.654.605-1.112 1.188-1.112.12 0 .206.017.373.076.382.133.381.133.446.133.05 0 .09-.01.193-.046.475-.167.508-.175.703-.174.263 0 .515.082.708.225.074.055.172.152.215.212l.02.03-.083.063a1.05 1.05 0 0 0-.437.972c.01.133.032.232.08.348.086.214.295.44.502.548.036.018.065.039.065.045 0 .031-.08.23-.151.371-.11.219-.255.437-.42.628a.8.8 0 0 1-.408.267c-.034.007-.055.015-.048.018.008.003-.018.005-.058.007-.042 0-.067-.003-.06-.008q.013-.008-.041-.014a1.7 1.7 0 0 1-.325-.102 1 1 0 0 0-.426-.076c-.13.006-.211.023-.349.074a3 3 0 0 1-.31.103c-.02.005-.036.01-.034.014q.003.009-.017.01l-.066.004a.3.3 0 0 1-.082-.005m.816-3.824c-.013-.012-.007-.188.008-.261.055-.265.243-.53.483-.68.102-.064.237-.123.332-.146.04-.009.069-.02.065-.023q-.003-.007.023-.007a.2.2 0 0 0 .043-.005c.03-.012 0 .266-.041.397-.1.314-.36.599-.629.688-.097.032-.267.055-.284.037"/></svg>