<svg xmlns="http://www.w3.org/2000/svg" viewBox="0 0 64 64"><rect width="56.002" height="56.002" x="4" y="3.969" fill="#e6e6e6" rx="13.002" ry="13.002"/><path d="M3.998 45.998v1c0 7.203 5.8 13.004 13.004 13.004h29.996c7.203 0 13.004-5.8 13.004-13.004v-1c0 7.203-5.8 13.002-13.004 13.002H17.002A12.975 12.975 0 0 1 3.998 45.998" opacity=".1"/><path fill="#fff" d="M3.998 18.004v-1C3.998 9.801 9.798 4 17.002 4h29.996c7.203 0 13.004 5.8 13.004 13.004v1c0-7.203-5.8-13.002-13.004-13.002H17.002A12.975 12.975 0 0 0 3.998 18.004" opacity=".5"/><path fill="#5bb237" d="M22.92 10.075c-1.158.009-2.425.47-3.171 1.227l-2.433 2.464-3.618 3.666-2.432 2.462c-.996 1.008-1.46 2.941-1.033 4.293l2.26 7.145c.427 1.353 1.6 3.276 2.605 4.274l17.71 17.576a2.575 2.575 0 0 0 3.637-.02l6.56-6.643c.997-1.008 2.624-2.657 3.62-3.666l6.56-6.644a2.593 2.593 0 0 0-.02-3.648l-17.71-17.576c-1.004-.998-2.935-2.155-4.288-2.57l-7.149-2.192a3.7 3.7 0 0 0-1.098-.148m-1.882 7.674a3.289 3.289 0 1 1 0 6.578 3.289 3.289 0 0 1 0-6.578"/><path fill="#fff" d="M37.378 16.893a301 301 0 0 0-12.787 3.62 10 10 0 0 0-1.29.5 2.36 2.36 0 0 1-2.355 2.344c-.063 0-.122-.013-.184-.018-.51 1.011-.692 2.25-.535 3.795.445 4.379 1.05 8.742 1.655 13.1.114.823.241 1.645.364 2.467l7.573 7.516c4.399-1.223 8.793-2.46 13.188-3.7l3.616-3.664.01-.01-.269-3.98-1.634.46c-4.1 1.155-8.21 2.28-12.296 3.483-1.173.346-1.63-.017-1.723-1.167-.09-1.106-.247-2.207-.399-3.517.625-.176 1.154-.318 1.679-.474 3.15-.934 6.327-1.79 9.442-2.832 2.858-.956 4.095-2.67 3.914-5.664a74 74 0 0 0-.45-4.796zm-1.679 6.843c.4-.004.637.226.705.792.187 1.565.459 3.122.565 4.691.028.409-.34 1.125-.675 1.233-2.194.713-4.43 1.296-6.815 1.968-.263-2.044-.562-3.877-.69-5.721-.028-.411.46-1.119.855-1.255 1.84-.626 3.734-1.089 5.601-1.631a1.7 1.7 0 0 1 .454-.077"/><path fill="#c7c7c7" d="M21.037 16.339a4.704 4.704 0 0 0-4.698 4.698 4.704 4.704 0 0 0 4.698 4.698 4.704 4.704 0 0 0 4.699-4.698 4.704 4.704 0 0 0-4.699-4.698m0 2.349a2.35 2.35 0 1 1 0 4.699 2.35 2.35 0 0 1 0-4.699"/><path fill="#3f3f3f" d="M20.236 40.715c-.17 1.847-1.063 4.967-2.86 6.585-.846.76-1.868 1.144-3.046 1.144a6 6 0 0 1-.771-.052c-1.623-.213-2.737-1.416-3.222-3.48-1.45-6.167 3.278-19.326 10.188-23.996a.484.484 0 0 1 .54.802c-6.903 4.666-11.028 17.704-9.79 22.972.391 1.662 1.201 2.584 2.408 2.743 1.232.16 2.229-.118 3.047-.852 1.829-1.645 2.528-5.274 2.598-6.767"/></svg>