<svg xmlns="http://www.w3.org/2000/svg" viewBox="0 0 64 64"><defs><linearGradient id="a" x1="32" x2="32" y1="2" y2="62" gradientTransform="translate(-93.303)" gradientUnits="userSpaceOnUse"><stop offset="0" stop-color="#b757e4"/><stop offset=".225" stop-color="#ce63fe"/><stop offset=".225" stop-color="#a43dde"/><stop offset=".461" stop-color="#a147e8"/><stop offset=".461" stop-color="#782dc4"/><stop offset=".754" stop-color="#69369f"/><stop offset=".754" stop-color="#5e338b"/><stop offset="1" stop-color="#5b4770"/></linearGradient><linearGradient id="c" x1="45" x2="45" y1="27" y2="63" gradientUnits="userSpaceOnUse"><stop offset="0" stop-color="#722bb3"/><stop offset="1" stop-color="#8535ce"/></linearGradient><linearGradient id="b" x1="-50.778" x2="-50.778" y1="4" y2="64" gradientTransform="matrix(-1 0 0 1 -29.303 0)" gradientUnits="userSpaceOnUse"><stop offset="0" stop-color="#b757e4"/><stop offset=".225" stop-color="#ce63fe"/><stop offset="1" stop-color="#bc67e5"/></linearGradient></defs><rect width="56" height="56" x="4" y="4" fill="url(#a)" rx="13.002" ry="13.002"/><path fill="url(#b)" d="M25 4v56h21.998A12.974 12.974 0 0 0 60 46.998V17.002A12.974 12.974 0 0 0 46.998 4Z" style="fill:#ca64f9;fill-opacity:1"/><path d="M3.998 45.998v1c0 7.203 5.8 13.004 13.004 13.004h29.996c7.203 0 13.004-5.8 13.004-13.004v-1c0 7.203-5.8 13.002-13.004 13.002H17.002A12.975 12.975 0 0 1 3.998 45.998" opacity=".15"/><circle cx="45" cy="45" r="18" fill="url(#c)" fill-rule="evenodd" style="paint-order:stroke fill markers;fill:#7b30bf;fill-opacity:1"/><path fill="#fff" d="M41.034 35h-5.076l-.055 20h5.13V42.919L48.967 55h5.077l.054-20h-5.13v12.081z"/><path fill="#fff" d="M3.998 18.004v-1C3.998 9.801 9.798 4 17.002 4h29.996c7.203 0 13.004 5.8 13.004 13.004v1c0-7.203-5.8-13.002-13.004-13.002H17.002A12.975 12.975 0 0 0 3.998 18.004" opacity=".15"/></svg>