<svg xmlns="http://www.w3.org/2000/svg" width="64" height="64" viewBox="0 0 16.933 16.933"><defs><linearGradient id="b" x1="8.467" x2="8.467" y1="284.3" y2="292.77" gradientTransform="translate(0 -1058.6)scale(3.7796)" gradientUnits="userSpaceOnUse"><stop offset="0" stop-color="#f5ff8e"/><stop offset="1" stop-color="#f9f9f9"/></linearGradient><linearGradient id="a" x1="7.937" x2="7.937" y1="15.081" y2="1.852" gradientUnits="userSpaceOnUse"><stop offset="0" stop-color="#fe9a16"/><stop offset="1" stop-color="#f1e123"/></linearGradient></defs><rect width="14.817" height="14.817" x="1.058" y="1.05" fill="url(#a)" rx="3.44" ry="3.44"/><path fill="url(#b)" d="M26.258 15.988a4 4 0 1 0 0 8 4 4 0 0 0 0-8m-3.164 9.143c-.643 0-.999.389-1.248.982l-4.002 8.232c-.885 1.992 2.157 3.263 2.955 1.233.461-1.21.946-2.416 1.49-3.592v14.4c0 .888.713 1.604 1.598 1.604h.008c.888 0 1.845-.72 1.83-1.604l-.008-7.54h1.107l.008 7.54c0 .888.98 1.604 1.864 1.604a1.595 1.595 0 0 0 1.597-1.604l-.004-14.279 1.729 3.47a1.6 1.6 0 0 0 2.285.802l2.904 1.697c-.019.106-.06.199-.06.312v8.8c0 .441.669.802 1.111.802s1.212-.364 1.14-.803v-3.771h1.145v3.771c0 .442.7.803 1.143.803.442 0 1.183-.36 1.183-.803v-8l2.055 1.707c.756.786 1.917-.377 1.135-1.129l-3.424-2.97a.8.8 0 0 0-.568-.235h-3.9l-3.061-1.568a1.6 1.6 0 0 0-.137-.65l-4.002-8.225a1.6 1.6 0 0 0-1.475-.983zm16.875 4.572a2.865 2.865 0 0 0-2.858 2.857 2.86 2.86 0 0 0 2.858 2.854 2.864 2.864 0 0 0 2.857-2.854 2.865 2.865 0 0 0-2.857-2.857" transform="scale(.26458)"/></svg>