<svg xmlns="http://www.w3.org/2000/svg" xml:space="preserve" viewBox="0 0 64 64"><rect width="56.002" height="56.002" x="4" y="3.969" fill="#4d4d4d" rx="13.002" ry="13.002"/><path d="M3.998 45.998v1c0 7.203 5.8 13.004 13.004 13.004h29.996c7.203 0 13.004-5.8 13.004-13.004v-1c0 7.203-5.8 13.002-13.004 13.002H17.002A12.975 12.975 0 0 1 3.998 45.998" opacity=".35"/><path fill="#fff" d="M3.998 18.004v-1C3.998 9.801 9.798 4 17.002 4h29.996c7.203 0 13.004 5.8 13.004 13.004v1c0-7.203-5.8-13.002-13.004-13.002H17.002A12.975 12.975 0 0 0 3.998 18.004" opacity=".15"/><path d="M15.075 13.848V49.75h9.965V35.618h13.922v14.473h9.965V13.848h-9.965v13.953H25.04V13.848zm3.284 5.326h3.233v3.273H18.36zm23.897 0h3.233v3.273h-3.233Zm-23.915 10.85h3.234v3.273H18.34zm23.897 0h3.234v3.273h-3.234Zm-23.86 10.87h3.232v3.272h-3.233zm23.896 0h3.234v3.272h-3.234z" style="fill:#e6e6e6;fill-opacity:1;stroke-width:.432316;stroke-linejoin:round"/></svg>