<svg xmlns="http://www.w3.org/2000/svg" viewBox="0 0 64 64"><defs><linearGradient id="b" x1="1.058" x2="15.875" y1="8.458" y2="8.458" gradientTransform="translate(0 -.079)scale(3.7796)" gradientUnits="userSpaceOnUse"><stop offset="0" stop-color="#f1efeb" style="stop-color:#e75b68;stop-opacity:1"/><stop offset="1" stop-color="#fdfcfc" style="stop-color:#7b79e7;stop-opacity:1"/></linearGradient><linearGradient id="e" x1="32" x2="96" y1="77" y2="77" gradientUnits="userSpaceOnUse"><stop offset="0" stop-color="#ed333b"/><stop offset="1" stop-color="#5d5ae3"/></linearGradient><clipPath id="d"><path d="M0 0h192v152H0z"/></clipPath><filter id="a" width="1" height="1" x="0" y="0"><feColorMatrix color-interpolation-filters="sRGB" values="0 0 0 0 1 0 0 0 0 1 0 0 0 0 1 0 0 0 1 0"/></filter><mask id="c"><g filter="url(#a)"><path fill-opacity=".8" d="M-12.8-12.8h153.6v153.6H-12.8z"/></g></mask></defs><rect width="56.002" height="56.002" x="4" y="3.89" fill="url(#b)" rx="13.002" ry="13.002" style="fill:#b06aa9;fill-opacity:1"/><path fill="#f6f5f4" fill-rule="evenodd" d="M22.026 14.278a5.045 5.045 0 0 0-5.165 5.043v13.213l.005.01c-.008 3.36-.002 6.721-.005 10.082-.047 2.54 2.081 4.866 4.62 5.025 1.01.112 1.987-.17 2.878-.622.023-.012.047-.02.07-.033l.084-.048q.28-.15.547-.315l.001-.001 19.551-11.306c2.223-1.229 3.172-4.236 2.042-6.513-.518-1.18-1.558-2.003-2.672-2.591l-.078-.027-19.475-11.243a5.04 5.04 0 0 0-2.403-.674m0 0" style="stroke-width:.315361" transform="translate(-10.269 -9.03)scale(1.32109)"/><g mask="url(#c)" style="fill:#bc679b;fill-opacity:1" transform="translate(5.34 6.495)scale(.41662)"><g clip-path="url(#d)" style="fill:#bc679b;fill-opacity:1" transform="translate(-8 -16)"><path fill="url(#e)" d="M96 73c2.215 0 4 1.785 4 4s-1.785 4-4 4-4-1.785-4-4 1.785-4 4-4m-60 0c2.215 0 4 1.785 4 4s-1.785 4-4 4-4-1.785-4-4 1.785-4 4-4m48 0c2.215 0 4 1.785 4 4s-1.785 4-4 4-4-1.785-4-4 1.785-4 4-4m-12-9c2.215 0 4 1.785 4 4v18c0 2.215-1.785 4-4 4s-4-1.785-4-4V68c0-2.215 1.785-4 4-4M60 52c2.215 0 4 1.785 4 4v42c0 2.215-1.785 4-4 4s-4-1.785-4-4V56c0-2.215 1.785-4 4-4M48 70c2.215 0 4 1.785 4 4v6c0 2.215-1.785 4-4 4s-4-1.785-4-4v-6c0-2.215 1.785-4 4-4m0 0" style="fill:#bc679b;fill-opacity:1"/></g></g><path d="M3.998 45.998v1c0 7.203 5.8 13.004 13.004 13.004h29.996c7.203 0 13.004-5.8 13.004-13.004v-1c0 7.203-5.8 13.002-13.004 13.002H17.002A12.975 12.975 0 0 1 3.998 45.998" opacity=".15"/><path fill="#fff" d="M3.998 18.004v-1C3.998 9.801 9.798 4 17.002 4h29.996c7.203 0 13.004 5.8 13.004 13.004v1c0-7.203-5.8-13.002-13.004-13.002H17.002A12.975 12.975 0 0 0 3.998 18.004" opacity=".15"/></svg>