<svg xmlns="http://www.w3.org/2000/svg" viewBox="0 0 64 64"><defs><filter id="a" width="1.206" height="1.228" x="-.103" y="-.114" color-interpolation-filters="sRGB"><feGaussianBlur stdDeviation="1.732"/></filter></defs><path fill="#8e2655" d="M17.001 4A12.973 12.973 0 0 0 3.999 17v30a12.973 12.973 0 0 0 13.002 13.002h29.998A12.973 12.973 0 0 0 60.001 47V17.001A12.973 12.973 0 0 0 46.999 4z"/><path d="M3.998 45.998v1c0 7.203 5.8 13.004 13.004 13.004h29.996c7.203 0 13.004-5.8 13.004-13.004v-1c0 7.203-5.8 13.002-13.004 13.002H17.002A12.975 12.975 0 0 1 3.998 45.998" opacity=".15"/><path fill="#fff" d="M3.998 18.004v-1C3.998 9.801 9.798 4 17.002 4h29.996c7.203 0 13.004 5.8 13.004 13.004v1c0-7.203-5.8-13.002-13.004-13.002H17.002A12.975 12.975 0 0 0 3.998 18.004" opacity=".15"/><path d="M32.719 15.043a18.3 18.3 0 0 0-3.628.352 18.26 18.26 0 0 0-14.7 17.909h-3.913L17 41.13l6.522-7.826h-3.913A13.043 13.043 0 0 1 32.652 20.26a13.043 13.043 0 0 1 13.043 13.043 13.043 13.043 0 0 1-13.043 13.043 13.04 13.04 0 0 1-9.217-3.827l-3.697 3.697a18.26 18.26 0 0 0 23.058 2.27 18.26 18.26 0 0 0 6.726-22.172 18.26 18.26 0 0 0-16.804-11.273zm-.066 7.826c-.723 0-1.305.582-1.305 1.304v10.878l5.61 5.697c.505.512 1.326.508 1.834 0s.509-1.326 0-1.834l-4.835-4.836v-9.905c0-.722-.582-1.304-1.304-1.304" filter="url(#a)" opacity=".1"/><path fill="#c771d0" d="M22.87 16.187A18.26 18.26 0 0 0 13.74 32H9.827l6.521 7.826L22.87 32h-3.913c0-4.66 2.486-8.966 6.522-11.296v-3.052z"/><path fill="#f4eb61" d="M45.043 32c0 7.204-5.84 13.043-13.043 13.043a13.04 13.04 0 0 1-9.217-3.826l-3.696 3.696A18.26 18.26 0 0 0 50.258 32l-2.606-1.304z"/><path fill="#f19c46" d="M32.067 13.739a18.3 18.3 0 0 0-3.628.352 18.3 18.3 0 0 0-5.569 2.096l2.61 4.517A13.04 13.04 0 0 1 32 18.956 13.043 13.043 0 0 1 45.045 32h5.215a18.3 18.3 0 0 0-1.389-6.988 18.26 18.26 0 0 0-16.804-11.273"/><path fill="#facefa" d="M32 21.565c-.723 0-1.304.582-1.304 1.304v10.878l5.61 5.696c.504.512 1.325.509 1.834 0s.508-1.326 0-1.834l-4.836-4.835v-9.905A1.3 1.3 0 0 0 32 21.565"/></svg>