<svg xmlns="http://www.w3.org/2000/svg" viewBox="0 0 16.933 16.933"><rect width="14.817" height="14.817" x="1.058" y="1.05" fill="#1eadf4" rx="3.44" ry="3.44"/><circle cx="8.472" cy="8.478" r="7.938" fill="none"/><path d="M1.058 12.17v.265a3.433 3.433 0 0 0 3.44 3.44h7.937a3.433 3.433 0 0 0 3.44-3.44v-.265a3.433 3.433 0 0 1-3.44 3.44H4.498a3.433 3.433 0 0 1-3.44-3.44" opacity=".15"/><path fill="#fff" d="M1.058 4.763V4.5a3.433 3.433 0 0 1 3.44-3.44h7.937a3.433 3.433 0 0 1 3.44 3.44v.265a3.433 3.433 0 0 0-3.44-3.44H4.498a3.433 3.433 0 0 0-3.44 3.44z" opacity=".15"/><path fill="#fff" d="M8.443 3.704a4.76 4.76 0 0 0-4.739 4.763 4.76 4.76 0 0 0 4.763 4.762 4.76 4.76 0 0 0 4.762-4.762 4.76 4.76 0 0 0-4.762-4.763zM7.339 5.995a.5.5 0 0 1 .259.091l2.967 2.045a.51.51 0 0 1 .194.584.5.5 0 0 1-.195.259l-2.966 2.044a.5.5 0 0 1-.353.087.5.5 0 0 1-.32-.17.5.5 0 0 1-.13-.339V6.508q0-.195.13-.34a.5.5 0 0 1 .415-.173z" opacity=".8"/></svg>