<svg xmlns="http://www.w3.org/2000/svg" viewBox="0 0 64 64"><rect width="56.002" height="56.002" x="4" y="3.969" fill="#dde0e2" rx="13.002" ry="13.002"/><path d="M3.998 45.998v1c0 7.203 5.8 13.004 13.004 13.004h29.996c7.203 0 13.004-5.8 13.004-13.004v-1c0 7.203-5.8 13.002-13.004 13.002H17.002A12.975 12.975 0 0 1 3.998 45.998" opacity=".1"/><path fill="#fff" d="M3.998 18.004v-1C3.998 9.801 9.798 4 17.002 4h29.996c7.203 0 13.004 5.8 13.004 13.004v1c0-7.203-5.8-13.002-13.004-13.002H17.002A12.975 12.975 0 0 0 3.998 18.004" opacity=".5"/><g stroke-width="1.5"><path fill="#f74d5e" d="M6 21h4.5l5.25 15L21 21h4.5L18 42h-4.5z"/><path fill="#3e4143" d="M22.5 42 30 21h4.5L27 42zm15 0L45 21h4.5L42 42z"/><path fill="#8c9697" d="m18 42 7.5-21H30l-7.5 21zm15 0 7.5-21H45l-7.5 21z"/><path fill="#b9bdc1" d="M37.5 42H33l-7.5-21H30zm15 0H48l-7.5-21H45z"/><path fill="#575757" d="m30 21 7.5 21H42l-7.5-21zm15 0 7.5 21H57l-7.5-21z"/></g></svg>