<svg xmlns="http://www.w3.org/2000/svg" viewBox="0 0 16.933 16.933"><rect width="14.817" height="14.817" x="1.058" y="1.05" fill="#f2f2f2" rx="3.44" ry="3.44"/><path fill="#fce4e3" d="m13.598 7.121-.04-.152-.036-.118a5 5 0 0 0-.457-1.03 5.5 5.5 0 0 0-.856-1.096q-1.221-1.221-2.844-1.48a5.4 5.4 0 0 0-.898-.07q-.157 0-.313.008-1.99.104-3.429 1.542-1.55 1.55-1.55 3.741 0 2.193 1.55 3.743.955.953 2.143 1.318c.412.126.838.2 1.286.223h.004q.143.008.275.008h.034a6 6 0 0 0 .415-.014 5.6 5.6 0 0 0 .92-.144q1.357-.34 2.407-1.391a5.2 5.2 0 0 0 1.204-1.814 5.2 5.2 0 0 0 .345-1.929v-.033a5.5 5.5 0 0 0-.16-1.312"/><path fill="#f9506a" d="M8.467 3.175a5.3 5.3 0 0 0-1.5.217c-.342.726-.329 1.978-.162 2.565.164.573.394 1.123.63 1.667a4.5 4.5 0 0 1-1.154-.436c-.627-.363-1.518-1.404-1.757-2.251A5.3 5.3 0 0 0 3.28 7.415c.426.58 1.409 1.14 2.132 1.322.584.146 1.174.208 1.761.259a4.3 4.3 0 0 1-.903.729c-.628.363-1.979.614-2.832.395a5.3 5.3 0 0 0 1.466 2.261c.808-.064 1.86-.69 2.27-1.13.414-.441.77-.934 1.117-1.43.105.39.172.78.176 1.175 0 .73-.435 2.038-1.017 2.663a5.3 5.3 0 0 0 2.593-.14c.286-.654.283-1.814.087-2.542-.159-.593-.392-1.149-.632-1.696.409.096.8.232 1.167.44.63.362 1.523 1.408 1.76 2.257a5.3 5.3 0 0 0 1.218-2.412c-.463-.663-1.523-1.256-2.109-1.394-.583-.135-1.183-.198-1.78-.251a4.4 4.4 0 0 1 .9-.727c.629-.363 1.981-.613 2.833-.395a5.3 5.3 0 0 0-1.54-2.316c-.716.085-1.682.652-2.198 1.184-.422.437-.774.92-1.115 1.409a4.6 4.6 0 0 1-.167-1.14c0-.73.435-2.038 1.017-2.662a5.3 5.3 0 0 0-1.018-.1z"/><path fill="#faf7f5" d="M11.2 8.53a2.734 2.734 0 0 1-5.466 0 2.734 2.734 0 1 1 5.466 0"/><path fill="#f9506a" d="m10.002 8.569-2.292 1.48c-.09.056-.164.007-.164-.137v-2.9c0-.163.072-.192.164-.135l2.292 1.48c.102.066.098.148 0 .211z"/><path d="M1.058 12.17v.265a3.433 3.433 0 0 0 3.44 3.44h7.937a3.433 3.433 0 0 0 3.44-3.44v-.265a3.433 3.433 0 0 1-3.44 3.44H4.498a3.433 3.433 0 0 1-3.44-3.44" opacity=".1"/><path fill="#fff" d="M1.058 4.763V4.5a3.433 3.433 0 0 1 3.44-3.44h7.937a3.433 3.433 0 0 1 3.44 3.44v.265a3.433 3.433 0 0 0-3.44-3.44H4.498a3.433 3.433 0 0 0-3.44 3.44z" opacity=".5"/></svg>