<svg xmlns="http://www.w3.org/2000/svg" viewBox="0 0 16.933 16.933"><rect width="14.817" height="14.817" x="1.058" y="1.05" fill="#6691f9" rx="3.44" ry="3.44"/><path d="M1.058 12.17v.265a3.433 3.433 0 0 0 3.44 3.44h7.937a3.433 3.433 0 0 0 3.44-3.44v-.265a3.433 3.433 0 0 1-3.44 3.44H4.498a3.433 3.433 0 0 1-3.44-3.44" opacity=".15"/><path fill="#fff" d="M1.058 4.763V4.5a3.433 3.433 0 0 1 3.44-3.44h7.937a3.433 3.433 0 0 1 3.44 3.44v.265a3.433 3.433 0 0 0-3.44-3.44H4.498a3.433 3.433 0 0 0-3.44 3.44z" opacity=".15"/><path fill="#fff" d="M4.993 3.64c-.012 0-.027.003-.036.012l-.338.338a.055.055 0 0 0 0 .072l.47.47-.132.133a.085.085 0 0 0-.012.109l.832 1.375q-.208.36-.326.76l-1.544.325c-.042.01-.072.042-.072.085v1.005c0 .04.031.073.072.085l1.496.362c.077.31.196.607.35.88l-.869 1.314c-.024.035-.018.088.012.121l.7.7c.03.03.084.033.12.012l1.351-.82c.255.147.53.268.82.35l.314 1.507a.09.09 0 0 0 .085.072h1a.09.09 0 0 0 .085-.072l.374-1.496a3.5 3.5 0 0 0 .868-.35l1.315.845a.085.085 0 0 0 .108-.012l.181-.18.459.458c.018.018.057.018.073 0l.338-.338a.043.043 0 0 0 0-.06l-.46-.459.109-.12c.03-.03.047-.074.025-.109l-.832-1.35c.09-.164.175-.342.242-.52a.1.1 0 0 0 0-.036c-.007-.012-.025-.02-.037-.024l-.423-.108c-.002-.002-.01 0-.01 0 .118-.328.192-.682.192-1.05a3.032 3.032 0 0 0-4.1-2.834c-.026-.15-.064-.307-.097-.458-.003-.013-.013-.018-.025-.024q-.016-.013-.036 0a3 3 0 0 0-.507.229c-.424-.302-.903-.6-1.35-.892a.1.1 0 0 0-.122.012l-.156.169-.483-.47c-.009-.01-.012-.013-.024-.013m4.016 1.47a2.84 2.84 0 0 1 1.423.495c-.1-.012-.205-.029-.266-.085h-.024a.5.5 0 0 1-.217.073l-.12.169-.146.12c-.025.056.01.139.025.193l.156-.072c.022.075.077.092.133.133.089-.17.015-.332.23-.423l-.097.133.024.097.012-.121c.04.136-.009.322-.157.374l-.144-.012v-.097c-.086.018-.083.071-.06.145-.058-.017-.09-.02-.133.024-.047-.046-.09-.076-.097-.144a.13.13 0 0 1-.048-.097l-.096-.01.036.241c-.01-.021-.024-.024-.036-.038l.024.17.133-.025c-.038.038-.068.038-.121.038l.024.048h-.084l.108.18c-.246.002-.25.123-.241.327.048.004.075.013.108.048.2-.104.246-.3.483-.362.038.12.156.12.12.265.117-.024.147-.128.073-.217.1.059.125.173.193.266.048-.064.033-.121.108-.17v.037c.129.113.213.137.374.193-.054.078-.113.163-.217.157-.126-.01-.298-.137-.386.01l-.241-.193c-.134-.056-.26.005-.398-.01l-.06.024.024.012c-.276.123-.43.452-.458.723l-.048.181c.03.177.176.364.301.483.089.086.157-.085.241 0 .112-.04.273-.118.374 0 .068.077.002.146.024.23.041.14.133.314.133.473l-.036.373c.033.23.167.424.169.664.185-.02.392-.12.494-.278l.037-.132.073-.097-.025-.145c.043-.105.216-.116.241-.23.036-.154-.054-.333 0-.493.086-.25.332-.42.338-.701l-.181.012c.163-.2.502-.301.325-.604l-.072.087h-.036c-.058-.122-.145-.126-.145-.28.141.122.288.122.422.266a.1.1 0 0 0 .048-.06c.033.173.049.36.049.543-.004 1.608-1.295 2.91-2.883 2.906a2.88 2.88 0 0 1-2.533-1.535c-.087-.17-.17-.36-.241-.519-.16-.46-.12-1.019-.12-1.061 0-.023.017-.053.035-.085.01-.114.037-.226.06-.337a.04.04 0 0 1-.011-.025c0-.004.022-.066.036-.108a2 2 0 0 0-.024.133q-.02.12-.025.24c-.007.119.095.165.145.254l.008.17.04-.158.326.133.23.217.192.026c-.07.157-.206.414-.18.59.014.102.12.242.18.326.083.117.235.19.278.338l.012.241.048.181c-.01.076-.085.207-.037.278.052.077.248.169.338.193.085.024.095-.055.06-.107l.105-.157.144-.108.097-.338.218-.145c.088-.13.015-.24.048-.374l.145-.397c-.163-.062-.392-.144-.508-.278l-.036.012-.024-.134-.181-.085-.037.026-.036-.205-.241-.026-.181-.096c-.078-.01-.188.12-.217.182l-.097-.025.025-.026-.085-.057.012.057c-.065-.066-.077-.15-.06-.24l-.109-.049-.012.048c-.018-.072-.007-.172.049-.229-.083-.056-.148-.003-.205.06l-.121-.241c-.033.074-.018.15-.012.23H6.29c-.007-.084-.03-.174.012-.254.08-.148.322-.211.47-.181l-.024.026.144.12c0-.23.09-.254.218-.422l.084-.157c.1-.106.253-.18.386-.229l.17-.108c-.054-.092-.2-.067-.29-.059.163-.093.383-.04.494-.205-.122-.089-.12-.324-.314-.229l.025-.086-.157-.085-.12.254-.17.203-.012-.107c-.063-.03-.238-.086-.241-.17-.005-.089.27-.222.338-.278l-.025.073.121-.009c.024-.017.26-.34.29-.136.162.062.173.127.337.026L7.93 5.66c-.017-.149-.154-.144-.278-.144l.398-.181c.044.105.173.13.217.229.032.07-.061.101-.06.17.003.082.083.193.121.266l.23-.254c.124-.066.322-.072.421-.18.117-.126.052-.326.266-.326-.044-.018-.107-.032-.145 0l-.048-.036h.06m.291 1.01c-.031-.034-.06-.05-.12-.037l.048.181.048-.024-.036-.012"/></svg>