<svg xmlns="http://www.w3.org/2000/svg" width="64" height="64" enable-background="new 0 0 1024 1024" image-rendering="optimizeSpeed"><defs><linearGradient id="a" x1="7.937" x2="7.937" y1="2.646" y2="14.263" gradientTransform="scale(3.7796)" gradientUnits="userSpaceOnUse"><stop offset="0" stop-color="#cf30ac"/><stop offset="1" stop-color="#ac31f5"/></linearGradient><filter id="b" width="1.026" height="1.022" x="-.013" y="-.011" color-interpolation-filters="sRGB"><feGaussianBlur stdDeviation=".029"/></filter></defs><rect width="55.999" height="55.999" x="4" y="4" fill="#fff" rx="14" ry="14"/><path fill="url(#a)" d="M32 10c-12.151 0-22 9.85-22 22s9.85 22 22 22 22-9.85 22-22-9.85-22-22-22"/><path fill="#fff" d="M26.591 20.194a2.73 2.73 0 0 1 1.58.405l14.544 9.082c1.714 1.067 1.714 3.561 0 4.628L28.17 43.392c-1.813 1.133-4.166-.169-4.17-2.307v-18.18a2.726 2.726 0 0 1 2.59-2.711z" style="paint-order:stroke fill markers"/><path fill="#f1e4fe" d="M34.848 24.768 24 32l10.84 7.227 7.875-4.918c1.714-1.067 1.714-3.56 0-4.627z"/><path fill="#e3d0fe" d="M24 32v9.084c.004 2.138 2.356 3.44 4.17 2.307l6.67-4.164z" style="paint-order:stroke fill markers"/><path fill="#fff" d="M7.09 5.342h-.054v.001a.723.723 0 0 0-.686.717v4.81a.721.721 0 0 0 1.103.61l3.848-2.403a.72.72 0 0 0 0-1.224L7.453 5.45a.7.7 0 0 0-.363-.108m-.002.08a.65.65 0 0 1 .324.095L11.26 7.92a.64.64 0 0 1 0 1.09l-3.848 2.404a.64.64 0 0 1-.983-.545V6.06a.64.64 0 0 1 .66-.639z" color="#000" filter="url(#b)" opacity=".35" style="paint-order:stroke fill markers" transform="scale(3.7796)"/></svg>