<svg xmlns="http://www.w3.org/2000/svg" xmlns:xlink="http://www.w3.org/1999/xlink" width="64" height="64" image-rendering="optimizeSpeed"><defs><linearGradient id="b" x1="7.937" x2="7.937" y1="15.081" y2="1.852" gradientTransform="scale(3.7796)" gradientUnits="userSpaceOnUse"><stop offset="0" stop-color="#e6e6e6"/><stop offset="1" stop-color="#fff"/></linearGradient><linearGradient xlink:href="#a" id="e" x2="0" y1="538.8" y2="534.8" gradientTransform="translate(-371.07 -499.41)" gradientUnits="userSpaceOnUse"/><linearGradient id="a"><stop offset="0" stop-color="#814b13"/><stop offset="1" stop-color="#9d5b17"/></linearGradient><linearGradient xlink:href="#a" id="d" x2="0" y1="528.8" y2="524.8" gradientTransform="translate(-371.07 -499.41)" gradientUnits="userSpaceOnUse"/><linearGradient id="c" x1="29.234" x2="29.234" y1="20.91" y2="43.477" gradientUnits="userSpaceOnUse"><stop offset="0" stop-color="#ffe999"/><stop offset="1" stop-color="#ffb633"/></linearGradient></defs><rect width="56.002" height="56.002" x="4" y="3.969" fill="url(#b)" rx="13.002" ry="13.002"/><g transform="translate(-10.139 -14.265)scale(1.4286)"><rect width="28" height="28" x="15.497" y="18.385" fill="url(#c)" rx="14" ry="14"/><circle cx="24.497" cy="27.385" r="2" fill="url(#d)"/><circle cx="34.497" cy="27.385" r="2" fill="url(#d)"/><path fill="url(#e)" d="M24.171 35.692a6.156 7.388 0 0 0 5.327 3.694 6.156 7.388 0 0 0 5.321-3.694h-.748a6.156 7.388 0 0 1-4.573 2.462 6.156 7.388 0 0 1-4.577-2.462z"/></g></svg>