<svg xmlns="http://www.w3.org/2000/svg" viewBox="0 0 64 64"><path fill="#f55" d="M17.002 3.97h29.996C54.174 3.97 60 9.796 60 16.972v29.996c0 7.176-5.826 13.002-13.002 13.002H17.002C9.826 59.97 4 54.144 4 46.968V16.972C4 9.796 9.826 3.97 17.002 3.97" style="isolation:isolate"/><path d="M3.998 45.998v1c0 7.203 5.8 13.004 13.004 13.004h29.996c7.203 0 13.004-5.8 13.004-13.004v-1c0 7.203-5.8 13.002-13.004 13.002H17.002A12.975 12.975 0 0 1 3.998 45.998" opacity=".15"/><path fill="#fff" d="M3.998 18.004v-1C3.998 9.801 9.798 4 17.002 4h29.996c7.203 0 13.004 5.8 13.004 13.004v1c0-7.203-5.8-13.002-13.004-13.002H17.002A12.975 12.975 0 0 0 3.998 18.004" opacity=".15"/><g fill="#fff"><g transform="translate(14.96 14.704)scale(.61598)"><rect width="16.695" height="12.328" x=".415" y="14.445" ry="2.636"/><rect width="16.695" height="12.328" x="19.542" y="14.445" ry="2.636"/><rect width="16.695" height="12.328" x=".415" y="29.384" ry="2.636"/><rect width="16.695" height="12.328" x="19.542" y="29.384" ry="2.636"/></g><path d="M31.986 16a16 16 0 0 0-10.695 4.156h5.178a13.1 13.1 0 0 1 5.52-1.251 13.095 13.095 0 0 1 13.106 13.08V32a13.095 13.095 0 0 1-13.091 13.095 13.1 13.1 0 0 1-5.55-1.251H21.27A16 16 0 0 0 32.004 48 16 16 0 0 0 48 32v-.018A16 16 0 0 0 31.986 16"/></g></svg>