<svg xmlns="http://www.w3.org/2000/svg" viewBox="0 0 64 64"><defs><linearGradient id="a" x1="7.937" x2="7.937" y1="15.081" y2="1.852" gradientTransform="scale(3.7796)" gradientUnits="userSpaceOnUse"><stop offset="0" stop-color="#db43a5"/><stop offset="1" stop-color="#ff57ec"/></linearGradient><linearGradient id="b" x1="13.647" x2="1.63" y1="2.841" y2="15.328" gradientTransform="scale(3.7796)" gradientUnits="userSpaceOnUse"><stop offset="0" stop-color="#fff" stop-opacity="0"/><stop offset=".139" stop-color="#e8fffc" stop-opacity=".139"/><stop offset=".43" stop-color="#adfff3" stop-opacity=".43"/><stop offset=".846" stop-color="#4fffe5" stop-opacity=".846"/><stop offset="1" stop-color="#2bffe0"/></linearGradient><linearGradient id="c" x1="1.907" x2="15.298" y1="1.691" y2="15.295" gradientTransform="scale(3.7796)" gradientUnits="userSpaceOnUse"><stop offset="0" stop-color="#fff" stop-opacity="0"/><stop offset=".088" stop-color="#fffff8" stop-opacity=".088"/><stop offset=".216" stop-color="#fffee5" stop-opacity=".216"/><stop offset=".369" stop-color="#fffcc5" stop-opacity=".369"/><stop offset=".54" stop-color="#fff999" stop-opacity=".54"/><stop offset=".727" stop-color="#fff660" stop-opacity=".727"/><stop offset=".924" stop-color="#fff31c" stop-opacity=".924"/><stop offset="1" stop-color="#fff100"/></linearGradient><linearGradient id="d" x1="15.578" x2="36.334" y1="12.378" y2="32.788" gradientUnits="userSpaceOnUse"><stop offset="0" stop-color="#413535"/><stop offset="1" stop-color="#62382d"/></linearGradient><linearGradient id="e" x1="41.297" x2="45.168" y1="37.712" y2="41.325" gradientUnits="userSpaceOnUse"><stop offset="0" stop-color="#544545"/><stop offset="1" stop-color="#322225"/></linearGradient></defs><rect width="56.002" height="56.002" x="4" y="3.969" fill="url(#a)" rx="13.002" ry="13.002"/><rect width="56.002" height="56.002" x="4" y="3.969" fill="url(#b)" rx="13.002" ry="13.002"/><rect width="56.002" height="56.002" x="4" y="3.969" fill="url(#c)" rx="13.002" ry="13.002"/><path fill="#a3d8f1" fill-opacity=".438" d="M49.942 43.297c0-3.548-2.908-6.424-6.495-6.424a6.5 6.5 0 0 0-5.264 2.686l-.008-.01s-1.82 2.92-4.737 2.982c-3.037.065-8.325-.927-10.457-7.178 0 0-2.032 8.39 6.468 13.426 9.41 5.575 16.613.398 16.639.386l-.006-.007c2.046-1.42 3.86-3.243 3.86-5.861"/><path fill="url(#d)" d="M28.697 24.066c7.755 7.57 11.448 11.654 11.152 11.957s-4.468-3.289-12.223-10.859-13.32-12.776-12.672-13.44c.686-.702 5.988 4.773 13.743 12.342" transform="translate(-11.518 -12.812)scale(1.3364)"/><path fill="url(#e)" d="M44.405 38.011c2.377 2.32 1.835 4.833 1.273 5.409-1.031-2.748-1.836-1.979-3.52-3.107-2.192-1.467-2.145-3.005-1.583-3.581s1.932-.574 3.83 1.279" transform="translate(-11.518 -12.812)scale(1.3364)"/><path fill="#9fa0a0" d="M34.835 29.835c5.752 5.367 8.147 7.73 8.656 7.209.53-.543-1.911-2.859-7.416-8.48z"/><path d="M3.998 45.998v1c0 7.203 5.8 13.004 13.004 13.004h29.996c7.203 0 13.004-5.8 13.004-13.004v-1c0 7.203-5.8 13.002-13.004 13.002H17.002A12.975 12.975 0 0 1 3.998 45.998" opacity=".15"/><path fill="#fff" d="M3.998 18.004v-1C3.998 9.801 9.798 4 17.002 4h29.996c7.203 0 13.004 5.8 13.004 13.004v1c0-7.203-5.8-13.002-13.004-13.002H17.002A12.975 12.975 0 0 0 3.998 18.004" opacity=".15"/></svg>