<svg xmlns="http://www.w3.org/2000/svg" viewBox="0 0 64 64"><defs><linearGradient id="a" x1="7.937" x2="7.937" y1="15.081" y2="1.852" gradientTransform="scale(3.7796)" gradientUnits="userSpaceOnUse"><stop offset="0" stop-color="#be7e28"/><stop offset="1" stop-color="#fab252"/></linearGradient></defs><rect width="56.002" height="56.002" x="4" y="3.969" fill="url(#a)" rx="13.002" ry="13.002" style="fill:#df9b3f;fill-opacity:1"/><path d="M3.998 45.998v1c0 7.203 5.8 13.004 13.004 13.004h29.996c7.203 0 13.004-5.8 13.004-13.004v-1c0 7.203-5.8 13.002-13.004 13.002H17.002A12.975 12.975 0 0 1 3.998 45.998" opacity=".15"/><path fill="#fff" d="M3.998 18.004v-1C3.998 9.801 9.798 4 17.002 4h29.996c7.203 0 13.004 5.8 13.004 13.004v1c0-7.203-5.8-13.002-13.004-13.002H17.002A12.975 12.975 0 0 0 3.998 18.004" opacity=".15"/><path fill="#fff" d="M11.509 15.168v33.664a1.464 1.464 0 0 0 1.464 1.464h4.39a1.464 1.464 0 0 0 1.464-1.464V21.023h1.464c.808 0 2.13-.03 2.917.146q2.283.508 2.792 2.792c.175.787.145 2.108.145 2.917v21.955a1.464 1.464 0 0 0 1.464 1.463h4.39a1.464 1.464 0 0 0 1.464-1.463v-4.391h5.855v4.39a1.464 1.464 0 0 0 1.463 1.464h4.391a1.464 1.464 0 0 0 1.464-1.463v-4.391h4.39a1.464 1.464 0 0 0 1.464-1.464v-2.927a1.464 1.464 0 0 0-1.463-1.464h-4.391v-5.854a1.464 1.464 0 0 0-1.464-1.464h-4.39a1.464 1.464 0 0 0-1.464 1.464v5.854h-5.855V26.878c0-.809.009-2.122-.09-2.923-.591-4.837-4.053-9.336-8.698-10.126-.796-.136-2.112-.123-2.92-.123h-8.783a1.464 1.464 0 0 0-1.463 1.463z"/></svg>