<svg xmlns="http://www.w3.org/2000/svg" image-rendering="optimizeSpeed" viewBox="0 0 64 64"><defs><linearGradient id="a" x1="7.937" x2="7.937" y1="15.081" y2="1.852" gradientTransform="scale(3.7796)" gradientUnits="userSpaceOnUse"><stop offset="0" stop-color="#b81e31"/><stop offset="1" stop-color="#ff5c5c"/></linearGradient></defs><rect width="56.002" height="56.002" x="4" y="3.969" fill="url(#a)" rx="13.002" ry="13.002" style="fill:#d83a45;fill-opacity:1"/><path fill="#e3e9e3" d="M25 20.997c-1.108 0-2 .892-2 2v26.004c0 1.108.892 2 2 2h22c1.108 0 2-.892 2-2V22.997c0-1.108-.892-2-2-2zm1.002 1.996a1 1 0 0 1 1 1.002 1 1 0 0 1-1 1.002A1 1 0 0 1 25 23.995a1 1 0 0 1 1.002-1.002m0 6.002a1 1 0 0 1 1 1.002 1 1 0 0 1-1 1.002A1 1 0 0 1 25 29.998a1 1 0 0 1 1.002-1.002Zm0 5.998a1 1 0 0 1 1 1.002 1 1 0 0 1-1 1.002A1 1 0 0 1 25 35.995a1 1 0 0 1 1.002-1.002m0 6.002a1 1 0 0 1 1 1.002 1 1 0 0 1-1 1.002A1 1 0 0 1 25 41.998a1 1 0 0 1 1.002-1.002Zm0 5.998a1 1 0 0 1 1 1.002 1 1 0 0 1-1 1.002A1 1 0 0 1 25 47.995a1 1 0 0 1 1.002-1.002" style="paint-order:markers stroke fill"/><path fill="#59bf4a" d="M23 25.998h26.004v.998H23Zm0 5.998h26.004v1.002H23Zm0 6.002h26.004v.998H23Zm0 5.998h26.004v1.002H23Z" opacity=".25" style="paint-order:markers stroke fill"/><path fill="#fff" d="M17 13.999c-1.108 0-2 .892-2 2v26.004c0 1.108.892 2 2 2h22c1.108 0 2-.892 2-2V15.999c0-1.108-.892-2-2-2zm1.002 1.996a1 1 0 0 1 1 1.002 1 1 0 0 1-1 1.002A1 1 0 0 1 17 16.997a1 1 0 0 1 1.002-1.002m0 6.002a1 1 0 0 1 1 1.002 1 1 0 0 1-1 1.002A1 1 0 0 1 17 23a1 1 0 0 1 1.002-1.002zm0 5.998a1 1 0 0 1 1 1.002 1 1 0 0 1-1 1.002A1 1 0 0 1 17 28.997a1 1 0 0 1 1.002-1.002m0 6.002a1 1 0 0 1 1 1.002 1 1 0 0 1-1 1.002A1 1 0 0 1 17 35a1 1 0 0 1 1.002-1.002zm0 5.998a1 1 0 0 1 1 1.002 1 1 0 0 1-1 1.002A1 1 0 0 1 17 40.997a1 1 0 0 1 1.002-1.002" style="paint-order:markers stroke fill"/><path fill="#d24c37" d="M15 19h26.004v.998H15zm0 5.998h26.004V26H15zM15 31h26.004v.998H15zm0 5.998h26.004V38H15z" opacity=".15" style="paint-order:markers stroke fill"/><path d="M3.998 45.998v1c0 7.203 5.8 13.004 13.004 13.004h29.996c7.203 0 13.004-5.8 13.004-13.004v-1c0 7.203-5.8 13.002-13.004 13.002H17.002A12.975 12.975 0 0 1 3.998 45.998" opacity=".15"/><path fill="#fff" d="M3.998 18.004v-1C3.998 9.801 9.798 4 17.002 4h29.996c7.203 0 13.004 5.8 13.004 13.004v1c0-7.203-5.8-13.002-13.004-13.002H17.002A12.975 12.975 0 0 0 3.998 18.004" opacity=".15"/></svg>