<svg xmlns="http://www.w3.org/2000/svg" viewBox="0 0 64 64"><rect width="64" height="64" fill="none" rx="0" ry="0" style="paint-order:stroke fill markers"/><rect width="56.002" height="56.002" x="4" y="3.969" fill="#f2f2f2" rx="13.002" ry="13.002"/><ellipse cx="31.034" cy="43.129" fill="gray" rx="17.377" ry="8.706"/><ellipse cx="31.034" cy="42.158" fill="#d1d1d1" rx="17.377" ry="8.706"/><ellipse cx="31.034" cy="43.248" fill="#c2c2c2" rx="13.242" ry="6.196"/><path fill="#ccc" d="M44.583 38.534c3.545-.316 11.356-1.191 10.795-10.256-.03-.482-.154-.976-.367-1.357a3.4 3.4 0 0 0-.955-1.057c-1.822-1.316-5.123-1.111-7.49-1.111-7.761 1.632-9.403 14.803-1.983 13.782zm1.244-10.636s6.243-.938 6.458.262c.702 7.325-6.439 6.31-6.439 6.31l-.019-6.147z"/><path fill="#d4d4d3" d="M30.581 15.849c-9.66 0-17.568 2.8-18.153 6.329h-.036v4.255c.13 11.277 8.23 20.386 18.189 20.386 9.96 0 18.059-9.109 18.189-20.386v-4.255h-.036c-.585-3.528-8.493-6.328-18.153-6.328z"/><path fill="#fff" d="M48.179 23.092c.002 3.934-7.844 7.123-17.522 7.123-9.679 0-17.524-3.19-17.522-7.123-.002-3.934 7.844-7.124 17.522-7.124 9.679 0 17.524 3.19 17.522 7.124" opacity=".5"/><path fill="#ababaa" d="M46.82 23.016c.002 3.269-7.27 5.92-16.239 5.92s-16.24-2.651-16.239-5.92c-.002-3.269 7.27-5.92 16.239-5.92s16.24 2.651 16.239 5.92"/><path fill="#36290f" d="M30.58 19.759c-7.522 0-14.08 2.103-15.922 4.45 1.294 2.334 8.033 4.696 15.545 4.696 7.511 0 15.546-2.446 16.418-4.949-1.844-2.347-8.52-4.197-16.041-4.197"/><path fill="#785010" d="M30.58 20.256c-7.522 0-13.817 1.83-15.659 4.346 1.851 2.51 8.146 4.383 15.659 4.383 7.511 0 13.803-1.88 15.655-4.39-1.843-2.515-8.134-4.339-15.655-4.339"/><path fill="none" d="M47.32 23.016c.002 3.373-7.493 6.107-16.739 6.107S13.84 26.39 13.842 23.016c-.002-3.373 7.493-6.107 16.739-6.107s16.741 2.734 16.739 6.107" opacity=".4"/><path d="M3.998 45.998v1c0 7.203 5.8 13.004 13.004 13.004h29.996c7.203 0 13.004-5.8 13.004-13.004v-1c0 7.203-5.8 13.002-13.004 13.002H17.002A12.975 12.975 0 0 1 3.998 45.998" opacity=".1"/><path fill="#fff" d="M3.998 18.004v-1C3.998 9.801 9.798 4 17.002 4h29.996c7.203 0 13.004 5.8 13.004 13.004v1c0-7.203-5.8-13.002-13.004-13.002H17.002A12.975 12.975 0 0 0 3.998 18.004" opacity=".5"/></svg>