<svg xmlns="http://www.w3.org/2000/svg" width="64" height="64" viewBox="0 0 16.933 16.933"><defs><linearGradient id="a" x1="7.937" x2="7.937" y1="15.081" y2="1.852" gradientUnits="userSpaceOnUse"><stop offset="0" stop-color="#3fbefb"/><stop offset="1" stop-color="#8073f8"/></linearGradient><filter id="b" width="1.216" height="1.216" x="-.108" y="-.108" color-interpolation-filters="sRGB"><feGaussianBlur stdDeviation="1.08"/></filter></defs><rect width="14.817" height="14.817" x="1.058" y="1.05" fill="url(#a)" rx="3.44" ry="3.44"/><path d="M15 12c-.031 0-.07.008-.094.031l-.875.875a.143.143 0 0 0 0 .188l1.219 1.219-.344.344a.22.22 0 0 0-.031.281l2.156 3.563a9 9 0 0 0-.844 1.969l-4 .844c-.109.023-.188.109-.188.219v2.605c0 .102.082.188.188.219l3.875.938c.199.805.508 1.574.906 2.281l-2.25 3.406c-.063.09-.047.227.031.313l1.813 1.813c.078.078.219.086.313.031l3.5-2.125c.66.383 1.371.695 2.125.906l.813 3.906c.023.109.109.188.219.188h2.594c.109 0 .195-.082.219-.188l.969-3.875a9 9 0 0 0 2.25-.906l3.406 2.188a.22.22 0 0 0 .281-.031l.469-.469 1.188 1.188c.047.047.148.047.191 0l.875-.875a.11.11 0 0 0 0-.156l-1.191-1.188.281-.313c.078-.078.121-.191.066-.281l-2.156-3.5c.234-.422.453-.883.625-1.344a.15.15 0 0 0 0-.094c-.016-.031-.063-.055-.094-.063l-1.098-.281c-.004-.004-.023 0-.027 0a8 8 0 0 0 .5-2.719c0-4.316-3.516-7.844-7.848-7.844-.969 0-1.918.172-2.777.5-.066-.389-.165-.795-.25-1.187-.008-.035-.035-.047-.066-.063-.027-.023-.059-.02-.094 0a8 8 0 0 0-1.313.594c-1.097-.782-2.34-1.556-3.5-2.312a.254.254 0 0 0-.313.031l-.406.438-1.25-1.219c-.023-.023-.031-.031-.063-.031m10.406 3.809a7.37 7.37 0 0 1 3.688 1.281c-.258-.031-.531-.074-.688-.219h-.063c-.137.113-.387.16-.563.188l-.313.438-.375.313c-.066.145.023.359.063.5l.406-.188c.055.195.199.238.344.344.23-.438.039-.859.594-1.094l-.25.344.063.25.031-.313c.102.352-.023.836-.406.969l-.375-.031v-.25c-.223.047-.215.184-.156.375-.148-.043-.234-.051-.344.063-.121-.121-.234-.199-.25-.375a.35.35 0 0 1-.125-.25l-.25-.027.094.625c-.027-.055-.063-.063-.094-.098l.063.441.344-.066c-.098.098-.176.098-.313.098l.063.125h-.219l.281.469c-.637.004-.648.316-.625.844.125.012.195.035.281.125.516-.27.637-.777 1.25-.938.098.309.406.313.313.688.301-.063.379-.332.188-.563.258.152.324.449.5.688.125-.164.086-.313.281-.438v.094c.332.293.551.355.969.5-.141.203-.293.422-.563.406-.328-.023-.773-.355-1 .027l-.625-.5c-.348-.145-.672.012-1.031-.027l-.156.063.063.031c-.715.32-1.113 1.172-1.188 1.875l-.125.469c.078.457.457.941.781 1.25.23.223.406-.219.625 0 .289-.102.707-.305.969 0 .176.199.004.379.063.598.105.363.344.813.344 1.223l-.094.969c.086.594.434 1.098.438 1.719.48-.051 1.016-.309 1.281-.719l.094-.344.191-.25-.066-.375c.113-.273.559-.301.625-.598.094-.398-.141-.863 0-1.277.223-.648.859-1.09.875-1.816l-.469.031c.422-.52 1.301-.781.844-1.566l-.188.227h-.094c-.148-.316-.375-.328-.375-.727.367.316.746.316 1.094.691a.26.26 0 0 0 .125-.156c.086.449.125.934.125 1.406-.008 4.168-3.355 7.539-7.469 7.531-2.828-.008-5.305-1.613-6.563-3.977-.226-.44-.44-.933-.626-1.345-.414-1.191-.313-2.641-.313-2.75 0-.059.047-.137.094-.219.027-.297.094-.586.156-.875-.016-.016-.031-.043-.031-.063 0-.012.059-.172.094-.281a4 4 0 0 0-.063.344 5 5 0 0 0-.063.625c-.02.305.246.426.375.656l.02.438.105-.406.844.344.594.563.5.066c-.184.406-.535 1.074-.469 1.527.039.266.313.629.469.848.215.301.609.492.719.875l.031.625.125.469c-.023.195-.219.535-.094.719.133.199.641.438.875.5.219.063.246-.141.156-.277l.27-.406.375-.281.25-.875.566-.375c.227-.34.039-.621.125-.969l.375-1.031c-.422-.16-1.016-.371-1.316-.719l-.094.031-.063-.348-.469-.219-.094.066-.094-.531-.625-.066-.469-.25c-.203-.027-.488.313-.563.473l-.25-.066.063-.066-.219-.148.031.148c-.168-.172-.199-.391-.156-.625l-.281-.125-.031.125c-.047-.188-.02-.445.125-.594-.215-.145-.383-.008-.531.156l-.313-.625c-.086.191-.047.391-.031.594h-.063c-.016-.215-.078-.449.031-.656.207-.383.836-.547 1.219-.469l-.063.066.375.313c0-.598.23-.66.563-1.094l.219-.406c.258-.277.656-.469 1-.594l.438-.281c-.137-.238-.516-.172-.75-.152.422-.242.992-.102 1.281-.531-.316-.23-.309-.84-.813-.594l.063-.223-.406-.219-.313.656-.438.527-.031-.277c-.164-.078-.617-.223-.625-.441-.012-.23.699-.574.875-.719l-.063.188.313-.023c.063-.043.672-.883.75-.352.422.16.449.328.875.066l-.25-.125c-.043-.387-.398-.375-.719-.375l1.031-.469c.113.273.449.336.563.594.082.18-.16.262-.156.441.008.211.215.5.313.688l.594-.656c.324-.172.836-.188 1.094-.469.301-.324.133-.844.688-.844-.113-.047-.277-.082-.375 0l-.125-.094h.156m.754 2.617c-.082-.086-.156-.129-.313-.094l.125.469.125-.063-.094-.031" filter="url(#b)" opacity=".1" transform="translate(-.41 -.605)scale(.38591)"/><path fill="#f9f9f9" d="M4.993 3.64c-.012 0-.027.003-.036.012l-.338.338a.055.055 0 0 0 0 .072l.47.47-.132.133a.085.085 0 0 0-.012.109l.832 1.375q-.208.36-.326.76l-1.544.325c-.042.01-.072.042-.072.085v1.005c0 .04.031.073.072.085l1.496.362c.077.31.196.607.35.88l-.869 1.314c-.024.035-.018.088.012.121l.7.7c.03.03.084.033.12.012l1.351-.82c.255.147.53.268.82.35l.314 1.507a.09.09 0 0 0 .085.072h1a.09.09 0 0 0 .085-.072l.374-1.496a3.5 3.5 0 0 0 .868-.35l1.315.845a.085.085 0 0 0 .108-.012l.181-.18.459.458c.018.018.057.018.073 0l.338-.338a.043.043 0 0 0 0-.06l-.46-.459.109-.12c.03-.03.047-.074.025-.109l-.832-1.35c.09-.164.175-.342.242-.52a.1.1 0 0 0 0-.036c-.007-.012-.025-.02-.037-.024l-.423-.108c-.002-.002-.01 0-.01 0 .118-.328.192-.682.192-1.05a3.032 3.032 0 0 0-4.1-2.834c-.026-.15-.064-.307-.097-.458-.003-.013-.013-.018-.025-.024q-.016-.013-.036 0a3 3 0 0 0-.507.229c-.424-.302-.903-.6-1.35-.892a.1.1 0 0 0-.122.012l-.156.169-.483-.47c-.009-.01-.012-.013-.024-.013m4.016 1.47a2.84 2.84 0 0 1 1.423.495c-.1-.012-.205-.029-.266-.085h-.024a.5.5 0 0 1-.217.073l-.12.169-.146.12c-.025.056.01.139.025.193l.156-.072c.022.075.077.092.133.133.089-.17.015-.332.23-.423l-.097.133.024.097.012-.121c.04.136-.009.322-.157.374l-.144-.012v-.097c-.086.018-.083.071-.06.145-.058-.017-.09-.02-.133.024-.047-.046-.09-.076-.097-.144a.13.13 0 0 1-.048-.097l-.096-.01.036.241c-.01-.021-.024-.024-.036-.038l.024.17.133-.025c-.038.038-.068.038-.121.038l.024.048h-.084l.108.18c-.246.002-.25.123-.241.327.048.004.075.013.108.048.2-.104.246-.3.483-.362.038.12.156.12.12.265.117-.024.147-.128.073-.217.1.059.125.173.193.266.048-.064.033-.121.108-.17v.037c.129.113.213.137.374.193-.054.078-.113.163-.217.157-.126-.01-.298-.137-.386.01l-.241-.193c-.134-.056-.26.005-.398-.01l-.06.024.024.012c-.276.123-.43.452-.458.723l-.048.181c.03.177.176.364.301.483.089.086.157-.085.241 0 .112-.04.273-.118.374 0 .068.077.002.146.024.23.041.14.133.314.133.473l-.036.373c.033.23.167.424.169.664.185-.02.392-.12.494-.278l.037-.132.073-.097-.025-.145c.043-.105.216-.116.241-.23.036-.154-.054-.333 0-.493.086-.25.332-.42.338-.701l-.181.012c.163-.2.502-.301.325-.604l-.072.087h-.036c-.058-.122-.145-.126-.145-.28.141.122.288.122.422.266a.1.1 0 0 0 .048-.06c.033.173.049.36.049.543-.004 1.608-1.295 2.91-2.883 2.906a2.88 2.88 0 0 1-2.533-1.535c-.087-.17-.17-.36-.241-.519-.16-.46-.12-1.019-.12-1.061 0-.023.017-.053.035-.085.01-.114.037-.226.06-.337a.04.04 0 0 1-.011-.025c0-.004.022-.066.036-.108a2 2 0 0 0-.024.133q-.02.12-.025.24c-.007.119.095.165.145.254l.008.17.04-.158.326.133.23.217.192.026c-.07.157-.206.414-.18.59.014.102.12.242.18.326.083.117.235.19.278.338l.012.241.048.181c-.01.076-.085.207-.037.278.052.077.248.169.338.193.085.024.095-.055.06-.107l.105-.157.144-.108.097-.338.218-.145c.088-.13.015-.24.048-.374l.145-.397c-.163-.062-.392-.144-.508-.278l-.036.012-.024-.134-.181-.085-.037.026-.036-.205-.241-.026-.181-.096c-.078-.01-.188.12-.217.182l-.097-.025.025-.026-.085-.057.012.057c-.065-.066-.077-.15-.06-.24l-.109-.049-.012.048c-.018-.072-.007-.172.049-.229-.083-.056-.148-.003-.205.06l-.121-.241c-.033.074-.018.15-.012.23H6.29c-.007-.084-.03-.174.012-.254.08-.148.322-.211.47-.181l-.024.026.144.12c0-.23.09-.254.218-.422l.084-.157c.1-.106.253-.18.386-.229l.17-.108c-.054-.092-.2-.067-.29-.059.163-.093.383-.04.494-.205-.122-.089-.12-.324-.314-.229l.025-.086-.157-.085-.12.254-.17.203-.012-.107c-.063-.03-.238-.086-.241-.17-.005-.089.27-.222.338-.278l-.025.073.121-.009c.024-.017.26-.34.29-.136.162.062.173.127.337.026L7.93 5.66c-.017-.149-.154-.144-.278-.144l.398-.181c.044.105.173.13.217.229.032.07-.061.101-.06.17.003.082.083.193.121.266l.23-.254c.124-.066.322-.072.421-.18.117-.126.052-.326.266-.326-.044-.018-.107-.032-.145 0l-.048-.036h.06m.291 1.01c-.031-.034-.06-.05-.12-.037l.048.181.048-.024-.036-.012"/></svg>