<svg xmlns="http://www.w3.org/2000/svg" xmlns:xlink="http://www.w3.org/1999/xlink" width="64" height="64"><defs><linearGradient id="b"><stop offset="0" stop-color="#859900"/><stop offset="1" stop-color="#c9e800"/></linearGradient><linearGradient id="a"><stop offset="0" stop-color="#fff"/><stop offset="1" stop-color="#f0f0f0"/></linearGradient><linearGradient xlink:href="#a" id="e" x1="12" x2="18" y1="33" y2="33" gradientUnits="userSpaceOnUse"/><linearGradient xlink:href="#a" id="o" x1="30" x2="36" y1="15" y2="15" gradientUnits="userSpaceOnUse"/><linearGradient xlink:href="#a" id="m" x1="24" x2="30" y1="21" y2="21" gradientUnits="userSpaceOnUse"/><linearGradient xlink:href="#a" id="j" x1="18" x2="24" y1="27" y2="27" gradientUnits="userSpaceOnUse"/><linearGradient xlink:href="#a" id="h" x1="30" x2="36" y1="33" y2="33" gradientUnits="userSpaceOnUse"/><linearGradient xlink:href="#a" id="g" x1="24" x2="30" y1="33" y2="33" gradientUnits="userSpaceOnUse"/><linearGradient xlink:href="#a" id="f" x1="18" x2="24" y1="33" y2="33" gradientUnits="userSpaceOnUse"/><linearGradient xlink:href="#b" id="l" x1="30" x2="36" y1="27" y2="27" gradientUnits="userSpaceOnUse"/><linearGradient xlink:href="#b" id="i" x1="12" x2="18" y1="27" y2="27" gradientUnits="userSpaceOnUse"/><linearGradient xlink:href="#b" id="k" x1="24" x2="30" y1="27" y2="27" gradientUnits="userSpaceOnUse"/><linearGradient xlink:href="#b" id="n" x1="30" x2="36" y1="21" y2="21" gradientUnits="userSpaceOnUse"/><linearGradient id="c" x1="7.937" x2="7.937" y1="15.081" y2="1.852" gradientTransform="scale(3.7796)" gradientUnits="userSpaceOnUse"><stop offset="0" stop-color="#8811a2"/><stop offset="1" stop-color="#da50d5"/></linearGradient><filter id="d" width="1.12" height="1.12" x="-.06" y="-.06" color-interpolation-filters="sRGB"><feGaussianBlur stdDeviation=".6"/></filter></defs><rect width="56.002" height="56.002" x="4" y="3.969" fill="url(#c)" rx="13.002" ry="13.002"/><g filter="url(#d)" opacity=".15" transform="scale(1.3333)"><path d="M18 33a3.001 3.001 0 0 1-6 0 3.001 3.001 0 0 1 6 0m6 0a3.001 3.001 0 0 1-6 0 3.001 3.001 0 0 1 6 0m6 0a3.001 3.001 0 0 1-6 0 3.001 3.001 0 0 1 6 0m6 0a3.001 3.001 0 0 1-6 0 3.001 3.001 0 0 1 6 0"/><path d="M18 27a3.001 3.001 0 0 1-6 0 3.001 3.001 0 0 1 6 0m6 0a3.001 3.001 0 0 1-6 0 3.001 3.001 0 0 1 6 0m6 0a3.001 3.001 0 0 1-6 0 3.001 3.001 0 0 1 6 0m6 0a3.001 3.001 0 0 1-6 0 3.001 3.001 0 0 1 6 0"/><path d="M30 21a3.001 3.001 0 0 1-6 0 3.001 3.001 0 0 1 6 0m6 0a3.001 3.001 0 0 1-6 0 3.001 3.001 0 0 1 6 0"/><path d="M36 15a3.001 3.001 0 0 1-6 0 3.001 3.001 0 0 1 6 0"/></g><path fill="url(#e)" d="M18 33a3.001 3.001 0 0 1-6 0 3.001 3.001 0 0 1 6 0" transform="scale(1.3333)"/><path fill="url(#f)" d="M24 33a3.001 3.001 0 0 1-6 0 3.001 3.001 0 0 1 6 0" transform="scale(1.3333)"/><path fill="url(#g)" d="M30 33a3.001 3.001 0 0 1-6 0 3.001 3.001 0 0 1 6 0" transform="scale(1.3333)"/><path fill="url(#h)" d="M36 33a3.001 3.001 0 0 1-6 0 3.001 3.001 0 0 1 6 0" transform="scale(1.3333)"/><path fill="url(#i)" d="M18 27a3.001 3.001 0 0 1-6 0 3.001 3.001 0 0 1 6 0" transform="scale(1.3333)"/><path fill="url(#j)" d="M24 27a3.001 3.001 0 0 1-6 0 3.001 3.001 0 0 1 6 0" transform="scale(1.3333)"/><path fill="url(#k)" d="M30 27a3.001 3.001 0 0 1-6 0 3.001 3.001 0 0 1 6 0" transform="scale(1.3333)"/><path fill="url(#l)" d="M36 27a3.001 3.001 0 0 1-6 0 3.001 3.001 0 0 1 6 0" transform="scale(1.3333)"/><path fill="url(#m)" d="M30 21a3.001 3.001 0 0 1-6 0 3.001 3.001 0 0 1 6 0" transform="scale(1.3333)"/><path fill="url(#n)" d="M36 21a3.001 3.001 0 0 1-6 0 3.001 3.001 0 0 1 6 0" transform="scale(1.3333)"/><path fill="url(#o)" d="M36 15a3.001 3.001 0 0 1-6 0 3.001 3.001 0 0 1 6 0" transform="scale(1.3333)"/></svg>