<svg xmlns="http://www.w3.org/2000/svg" width="64" height="64"><defs><linearGradient id="b" x1="520" x2="520" y1="286.88" y2="841.29" gradientTransform="translate(-.125 -1.9)scale(.06274)" gradientUnits="userSpaceOnUse"><stop offset="0" stop-color="#fff"/><stop offset="1" stop-color="#ffdccc"/></linearGradient><linearGradient id="a" x1="7.937" x2="7.937" y1="15.081" y2="1.852" gradientTransform="scale(3.7796)" gradientUnits="userSpaceOnUse"><stop offset="0" stop-color="#f44348"/><stop offset="1" stop-color="#fb915e"/></linearGradient></defs><rect width="56.002" height="56.002" x="4" y="3.969" fill="url(#a)" rx="13.002" ry="13.002"/><path fill="url(#b)" d="M31.8 16.099c-8.87 0-16.063 7.192-16.063 16.063S22.929 48.225 31.8 48.225s16.063-7.192 16.063-16.063S40.671 16.099 31.8 16.099m0 30.118c-7.749 0-14.055-6.306-14.055-14.055S24.051 18.107 31.8 18.107s14.055 6.306 14.055 14.055S39.549 46.217 31.8 46.217m4.969-19.733-7.098 7.098-2.84-2.84a2.007 2.007 0 1 0-2.839 2.84l4.26 4.259a2.007 2.007 0 0 0 2.839 0l8.517-8.518a2.007 2.007 0 1 0-2.84-2.84z"/></svg>