<svg xmlns="http://www.w3.org/2000/svg" image-rendering="optimizeSpeed" viewBox="0 0 64 64"><defs><linearGradient id="b" x1="59.092" x2="46.289" y1="216.78" y2="169" gradientTransform="translate(6.26 -46.199)scale(.33929)" gradientUnits="userSpaceOnUse"><stop offset="0" stop-color="#0cc"/><stop offset="1" stop-color="#31e5d2"/></linearGradient><clipPath id="a"><path d="M0 0h192v152H0z"/></clipPath></defs><rect width="56" height="56" x="4" y="4" fill="#0bc9b3" rx="13.002" ry="13.002"/><path fill="#1ca8a8" d="M51 43.147v2.254a2.71 2.71 0 0 1-2.714 2.715H40.82a8.14 8.14 0 0 0-7.402 4.75H30.58a8.14 8.14 0 0 0-7.402-4.75h-7.464A2.71 2.71 0 0 1 13 45.4v-2.254z"/><path fill="#c0bfbc" d="M32.79 29.462a10 10 0 0 0-.111 1.011H32v21.375h1.42a8.14 8.14 0 0 1 7.401-4.75h7.465A2.71 2.71 0 0 0 51 44.384V32.29a2.71 2.71 0 0 0-2.714-2.714zm-1.579 0q.08.503.11 1.011H32v21.375h-1.42a8.14 8.14 0 0 0-7.402-4.75h-7.464A2.71 2.71 0 0 1 13 44.384V32.29a2.71 2.71 0 0 1 2.714-2.714z"/><g clip-path="url(#a)" opacity=".25" transform="translate(7.571 5.705)scale(.33929)"><path d="M128 107.66a7.466 7.466 0 0 1-7.492 7.344h-.5v1h.5a8.49 8.49 0 0 0 7.492-4.48zm-32 7.344 24 1v-1z"/><path d="M128 111.52a7.465 7.465 0 0 1-7.492 7.344h-.5v1h.5a8.5 8.5 0 0 0 7.465-4.426c.011-.191.027-.383.027-.574zm-26 7.344 18 1v-1z" opacity="1"/></g><path fill="#fff" d="M48.286 18.259A2.71 2.71 0 0 1 51 20.973v20.018a2.71 2.71 0 0 1-2.714 2.715h-8.143A8.143 8.143 0 0 0 32 51.849V27.08c0-4.497 3.646-8.822 8.143-8.822z"/><path fill="#f9f9f9" d="M15.714 18.259A2.71 2.71 0 0 0 13 20.973v20.018a2.71 2.71 0 0 0 2.714 2.715h8.143A8.143 8.143 0 0 1 32 51.849V27.08c0-4.497-3.646-8.822-8.143-8.822z"/><path fill="#0cc" d="M44.893 21.991v2.036h-4.071c-1.485.062-2.872.44-4.072 1.113v-1.883c1.198-.793 2.587-1.266 4.072-1.266z"/><path fill="#dedcd9" d="M46.929 26.062v1.357h-6.107c-1.485.062-2.872.44-4.072 1.113v-1.204c1.199-.793 2.588-1.266 4.072-1.266zm0 2.715v1.357h-6.107c-1.485.062-2.872.44-4.072 1.113v-1.204c1.199-.793 2.588-1.266 4.072-1.266zm0 2.714v1.357h-6.107c-1.485.062-2.872.44-4.072 1.113v-1.204c1.199-.793 2.588-1.266 4.072-1.266zM22.5 36.92h-5.429v1.357H22.5zm-5.429-10.858v1.357h6.786a9.2 9.2 0 0 1 3.393.778V26.93a7.2 7.2 0 0 0-3.393-.868zm0 2.715v1.357h6.786a9.2 9.2 0 0 1 3.393.778v-1.267a7.2 7.2 0 0 0-3.393-.868zm0 2.714v1.357h6.786a9.2 9.2 0 0 1 3.393.778V32.36a7.2 7.2 0 0 0-3.393-.868zm0-8.143v1.357h6.786a9.2 9.2 0 0 1 3.393.778v-1.267a7.2 7.2 0 0 0-3.393-.868zm0 10.857v1.357h6.786a9.2 9.2 0 0 1 3.393.778v-1.267a7.2 7.2 0 0 0-3.393-.868zm27.143 0v1.357h-3.393c-1.484.062-2.872.44-4.071 1.113v-1.204c1.198-.793 2.587-1.266 4.071-1.266z"/><path fill="url(#b)" d="M21.969 11.134s-2.792 6.934-2.784 10.581c.005 2.714.373 5.777 2.107 7.866 1.332 1.604 5.642 2.702 5.642 2.702l1.31-.35s3.183-3.108 3.535-5.162c.458-2.676-.755-5.512-2.107-7.866-1.817-3.163-7.703-7.772-7.703-7.772z"/><g fill="#1ca8a8"><path d="M28.341 37.537c-3.655-13.64-3.558-15.163-5.346-22.67 2.216 7.364 3.002 8.678 6.657 22.319z"/><path d="M24.566 21.335c1.227-2.124 1.667-2.55 2.102-3.256-.394.73-.555 1.316-1.783 3.44zm.851 3.297c1.703-2.95 2.314-3.541 2.917-4.523-.545 1.015-.77 1.829-2.474 4.779zm.937 3.538c1.802-3.121 2.448-3.747 3.087-4.785-.578 1.074-.817 1.934-2.618 5.055z"/><path d="M24.819 21.267c-2.126-1.226-2.718-1.374-3.449-1.77.706.437 1.139.863 3.263 2.09zm.912 3.282c-2.95-1.704-3.775-1.911-4.788-2.458.98.605 1.58 1.198 4.532 2.9zm.957 3.531c-3.121-1.802-3.993-2.021-5.065-2.6 1.036.641 1.673 1.267 4.795 3.07z"/></g><path d="M3.998 45.998v1c0 7.203 5.8 13.004 13.004 13.004h29.996c7.203 0 13.004-5.8 13.004-13.004v-1c0 7.203-5.8 13.002-13.004 13.002H17.002A12.975 12.975 0 0 1 3.998 45.998" opacity=".15"/><path fill="#fff" d="M3.998 18.004v-1C3.998 9.801 9.798 4 17.002 4h29.996c7.203 0 13.004 5.8 13.004 13.004v1c0-7.203-5.8-13.002-13.004-13.002H17.002A12.975 12.975 0 0 0 3.998 18.004" opacity=".15"/></svg>