<svg xmlns="http://www.w3.org/2000/svg" viewBox="0 0 16.933 16.933"><rect width="14.817" height="14.817" x="1.058" y="1.05" fill="#7481f9" rx="3.44" ry="3.44"/><path fill="#fff" d="M12.677 5.577a.5.5 0 0 0-.18.043c-.106.048-1.37 1.117-1.695 1.434-.114.112-.214.188-.215.371l-.003 1.041.003 1.041c0 .184.101.26.215.372.326.317 1.589 1.386 1.695 1.434a.5.5 0 0 0 .18.043.56.56 0 0 0 .482-.259s.07-.1.07-.211V6.047c0-.11-.07-.211-.07-.211a.56.56 0 0 0-.482-.26zm-7.703-.021h3.81c.704 0 1.27.571 1.27 1.28v3.26c0 .71-.566 1.28-1.27 1.28h-3.81c-.704 0-1.27-.57-1.27-1.28v-3.26c0-.709.566-1.28 1.27-1.28"/><path d="M1.058 12.17v.265a3.433 3.433 0 0 0 3.44 3.44h7.937a3.433 3.433 0 0 0 3.44-3.44v-.265a3.433 3.433 0 0 1-3.44 3.44H4.498a3.433 3.433 0 0 1-3.44-3.44" opacity=".15"/><path fill="#fff" d="M1.058 4.763V4.5a3.433 3.433 0 0 1 3.44-3.44h7.937a3.433 3.433 0 0 1 3.44 3.44v.265a3.433 3.433 0 0 0-3.44-3.44H4.498a3.433 3.433 0 0 0-3.44 3.44z" opacity=".15"/></svg>