<svg xmlns="http://www.w3.org/2000/svg" xmlns:xlink="http://www.w3.org/1999/xlink" width="64" height="64" viewBox="0 0 16.933 16.933"><defs><linearGradient id="a"><stop offset="0" stop-color="#fff"/><stop offset="1" stop-color="#ccf0ff"/></linearGradient><linearGradient id="c" x1="7.937" x2="7.937" y1="15.081" y2="1.852" gradientTransform="scale(3.7796)" gradientUnits="userSpaceOnUse"><stop offset="0" stop-color="#2858e4"/><stop offset="1" stop-color="#5ab9f4"/></linearGradient><linearGradient xlink:href="#a" id="b" x1="7.937" x2="7.937" y1="6.879" y2="1.058" gradientTransform="scale(3.7796)" gradientUnits="userSpaceOnUse"/><linearGradient xlink:href="#a" id="d" x1="45" x2="57.008" y1="19" y2="6.992" gradientUnits="userSpaceOnUse"/></defs><path fill="url(#b)" d="M35 3.969c6 0 25.002 19.03 25.002 25.03V16.972A12.973 12.973 0 0 0 47 3.969z" transform="scale(.26458)"/><path fill="#fff" d="M4.498 1.852A2.63 2.63 0 0 0 1.86 4.49v7.937a2.63 2.63 0 0 0 2.638 2.638h7.937a2.63 2.63 0 0 0 2.638-2.638V4.49a2.63 2.63 0 0 0-2.638-2.638zm0 .265h7.937A2.37 2.37 0 0 1 14.81 4.49v7.937a2.37 2.37 0 0 1-2.374 2.373H4.498a2.37 2.37 0 0 1-2.373-2.373V4.49a2.37 2.37 0 0 1 2.373-2.373"/><g fill="#fff"><path d="M12.964 2.117h.265v6.085h-.265z"/><path d="M14.816 3.704v.265H8.731v-.265z"/></g><path fill="url(#c)" d="M17.002 3.969c-1.35 0-2.652.203-3.875.582a13 13 0 0 0-6.166 4.14 12.93 12.93 0 0 0-2.894 6.946v.002Q4 16.295 4 16.97v29.998a12.96 12.96 0 0 0 3.8 9.203 13 13 0 0 0 5.327 3.217 13 13 0 0 0 2.541.515h.002q.657.067 1.332.067H47c1.35 0 2.652-.204 3.875-.582a13 13 0 0 0 8.545-8.545c.379-1.223.582-2.525.582-3.875v-17.97C60.002 23 41 3.97 35 3.97z" transform="scale(.26458)"/><path fill="url(#d)" d="M35 4c4 1 5 7 6 11 .97 3.88 3.18 6.545 9 8 4 1 8 .64 10 6 0-.024-.004-.048-.004-.072-.11-6.996-16.605-23.738-24.209-24.893C35.522 4.015 35.26 4 35 4" transform="scale(.26458)"/><rect width="11.641" height="4.233" x="2.646" y="9.789" fill="#a6d3ff" rx="1.323" ry="1.323"/><g fill="#f9f9f9"><rect width="2.646" height="2.646" x="3.439" y="10.583" rx=".529" ry=".529"/><rect width="2.646" height="2.646" x="7.144" y="10.583" rx=".529" ry=".529"/><rect width="2.646" height="2.646" x="10.848" y="10.583" rx=".529" ry=".529"/></g></svg>