<svg xmlns="http://www.w3.org/2000/svg" viewBox="0 0 16.933 16.933"><rect width="14.817" height="14.817" x="1.058" y="1.05" fill="#f2f2f2" rx="3.44" ry="3.44"/><path d="M1.058 12.17v.265a3.433 3.433 0 0 0 3.44 3.44h7.937a3.433 3.433 0 0 0 3.44-3.44v-.265a3.433 3.433 0 0 1-3.44 3.44H4.498a3.433 3.433 0 0 1-3.44-3.44" opacity=".1"/><path fill="#fff" d="M1.058 4.763V4.5a3.433 3.433 0 0 1 3.44-3.44h7.937a3.433 3.433 0 0 1 3.44 3.44v.265a3.433 3.433 0 0 0-3.44-3.44H4.498a3.433 3.433 0 0 0-3.44 3.44z" opacity=".5"/><path fill="#fff" d="M8.467 13.977H6.51v-.355l-.178-.178-.888-.178H4.378v-.355l-.356-.356h-.355V12.2l-.178-.178-.355-.178-.356-.533v-.889c5.133-.963 5.64-.963 11.377 0v.889l-.356.533-.355.178-.178.178v.355h-.355l-.356.356v.355H11.49l-.89.178-.177.178v.355z"/><path fill="#8fc46a" d="M8.467 11.74H5.845v-.698h-1.4v-.698h-1.4l-.178-1.217.178-1.217h.7V6.516h.7V5.12h.7v-.697h.7v-.698h1.4V3.03l1.222-.178 1.222.178v.697h1.4v.698h.7v.697h.7v1.395h.7V7.91h.7l.177 1.217-.178 1.217h-1.4v.698h-1.4v.697z"/><path d="M8.467 14.155H6.333v-.711H4.2v-.711h-.71v-.711h-.712v-.711h.711v.71H4.2v.712h2.133v.71H10.6v-.71h2.133v-.711h.71v-.711h.712v.71h-.711v.712h-.711v.71H10.6v.712zm0-2.133H5.622v-.711H4.2V10.6H2.778V7.755h.711V6.333H4.2V4.911h.711v-.71h.711v-.712h1.422v-.71H9.89v.71h1.422V4.2h.71v.711h.712v1.422h.71v1.422h.712V10.6h-1.422v.71H11.31v.712zm0-.711H10.6V9.889h.71v.71h.712v-.71h1.422V8.467H11.31v-.712h1.422v-.71h-.711V5.621h-.711v-.71H9.889V4.2h-.711v-.71H7.755v.71h-.71v.711H5.621v.711h-.71v1.422H4.2v.711h1.422v.712H3.49v1.422h1.422v.71h.711v-.71h.711v1.422zM6.689 9.889h-.356v-.711h.711v-.711h-.71v-.712h-.712V6.333h.711v-.71h.711V4.91H9.89v.711h.71v.711h.712v1.422H10.6v.712h-.711v.71h.71v.712h-.71v-.711H7.044v.71zm1.778-1.422h1.422v-.712h.71V6.333h-.71v-.71H7.044v.71h-.71v1.422h.71v.712z"/></svg>