<svg xmlns="http://www.w3.org/2000/svg" xmlns:xlink="http://www.w3.org/1999/xlink" width="64" height="64"><defs><linearGradient id="a"><stop offset="0" stop-color="#4c4c4c"/><stop offset="1" stop-color="#2a2a2a"/></linearGradient><linearGradient xlink:href="#a" id="d" x1="520" x2="520" y1="24" y2="1004" gradientTransform="translate(13.192 20.191)scale(.03673)" gradientUnits="userSpaceOnUse"/><linearGradient id="e" x1="398.95" x2="398.95" y1="113.41" y2="913.41" gradientTransform="translate(11.334 19.442)scale(.03751)" gradientUnits="userSpaceOnUse"><stop offset="0" stop-color="#fedf2d"/><stop offset="1" stop-color="#f48d01"/></linearGradient><linearGradient xlink:href="#b" id="g" x1="558.95" x2="558.95" y1="213.41" y2="813.41" gradientTransform="translate(12.165 20.229)scale(.036)" gradientUnits="userSpaceOnUse"/><linearGradient id="b"><stop offset="0"/><stop offset="1" stop-opacity="0"/></linearGradient><linearGradient xlink:href="#a" id="i" x1="528.95" x2="528.95" y1="361.06" y2="688.51" gradientTransform="matrix(.04 0 0 .04 9.961 18.143)" gradientUnits="userSpaceOnUse"/><linearGradient xlink:href="#b" id="j" x1="558.95" x2="558.95" y1="213.41" y2="813.41" gradientTransform="translate(12.165 20.229)scale(.036)" gradientUnits="userSpaceOnUse"/><linearGradient id="c" x1="7.937" x2="7.937" y1="15.081" y2="1.852" gradientTransform="scale(3.7796)" gradientUnits="userSpaceOnUse"><stop offset="0" stop-color="#f1efeb"/><stop offset="1" stop-color="#fff"/></linearGradient><radialGradient id="f" cx="550.95" cy="521.41" r="425" gradientTransform="translate(11.334 19.442)scale(.03751)" gradientUnits="userSpaceOnUse"><stop offset="0" stop-color="#fe8c06"/><stop offset="1" stop-color="#fea933"/></radialGradient><filter id="h" width="1.72" height="1.72" x="-.36" y="-.36" color-interpolation-filters="sRGB"><feGaussianBlur stdDeviation="30"/></filter></defs><rect width="56.002" height="56.002" x="4" y="3.969" fill="url(#c)" rx="13.002" ry="13.002"/><circle cx="32" cy="39" r="18" fill="url(#d)" fill-rule="evenodd" style="paint-order:stroke markers fill"/><circle cx="32" cy="39" r="15.004" fill="url(#e)" fill-rule="evenodd" stroke="url(#f)" stroke-linejoin="round" stroke-width="1.993" style="paint-order:stroke fill markers"/><g fill="none" transform="translate(17.526 14.829)scale(.03673)"><circle cx="512" cy="540.36" r="175" style="paint-order:stroke markers fill"/><circle cx="226.03" cy="825.61" r="125" style="paint-order:stroke markers fill"/><path d="m360 452.36-235 300 180 170 315-245z"/></g><g fill-rule="evenodd"><circle cx="32" cy="39" r="9" fill="url(#g)" opacity=".2" style="paint-order:stroke fill markers"/><circle cx="550.95" cy="611.41" r="100" filter="url(#h)" opacity=".4" style="paint-order:stroke fill markers" transform="translate(8.466 14.426)scale(.04272)"/><circle cx="32" cy="39" r="6" fill="url(#i)" opacity=".9" style="paint-order:stroke fill markers"/><path fill="url(#j)" d="M31.932 30A9 9 0 0 0 23 39a9 9 0 0 0 8.61 8.991 8.615 8.7 0 0 1-8.226-8.691A8.615 8.7 0 0 1 32 30.6a8.615 8.7 0 0 1 8.615 8.7 8.615 8.7 0 0 1-8.241 8.691A9 9 0 0 0 41 39a9 9 0 0 0-9-9zm.442 17.991a8.615 8.7 0 0 1-.191.006l.19-.006zm-.191.006a8.615 8.7 0 0 1-.183.002z" opacity=".05" style="paint-order:stroke fill markers"/></g><circle cx="17" cy="-20" r="3" opacity=".75" transform="rotate(90)"/><circle cx="17" cy="-44" r="3" opacity=".75" transform="rotate(90)"/><circle cx="17" cy="-20" r="2" fill="#4d4d4d" transform="rotate(90)"/><circle cx="17" cy="-44" r="2" fill="#4d4d4d" transform="rotate(90)"/></svg>