<svg xmlns="http://www.w3.org/2000/svg" viewBox="0 0 16.933 16.933"><rect width="14.817" height="14.817" x="1.058" y="1.05" fill="#f2f2f2" rx="3.44" ry="3.44"/><path d="M1.058 12.17v.265a3.433 3.433 0 0 0 3.44 3.44h7.937a3.433 3.433 0 0 0 3.44-3.44v-.265a3.433 3.433 0 0 1-3.44 3.44H4.498a3.433 3.433 0 0 1-3.44-3.44" opacity=".1"/><path fill="#fff" d="M1.058 4.763V4.5a3.433 3.433 0 0 1 3.44-3.44h7.937a3.433 3.433 0 0 1 3.44 3.44v.265a3.433 3.433 0 0 0-3.44-3.44H4.498a3.433 3.433 0 0 0-3.44 3.44z" opacity=".5"/><path fill="#4c78d8" d="M8.295 3.294a5.2 5.2 0 0 0-3.499 1.515 5.19 5.19 0 0 0-.423 6.848l1.09-1.09a3.664 3.664 0 0 1 .413-4.678 3.66 3.66 0 0 1 3.812-.859v1.311l1.958-1.958a5.2 5.2 0 0 0-3.351-1.09z" style="paint-order:stroke markers fill"/><path fill="#20ded9" d="m12.561 5.301-1.09 1.09a3.664 3.664 0 0 1-.415 4.679 3.66 3.66 0 0 1-3.811.858v-1.312L5.95 11.912l-.663.662a5.19 5.19 0 0 0 6.85-.424 5.19 5.19 0 0 0 .423-6.85z" style="paint-order:stroke markers fill"/></svg>