<svg xmlns="http://www.w3.org/2000/svg" xmlns:xlink="http://www.w3.org/1999/xlink" viewBox="0 0 64 64"><defs><linearGradient id="b" x1="24.705" x2="25.061" y1="43.939" y2="4.405" gradientTransform="translate(8.503 9.223)" gradientUnits="userSpaceOnUse"><stop offset="0" stop-color="#279646"/><stop offset="1" stop-color="#76ff68"/></linearGradient><linearGradient xlink:href="#a" id="c" x1="31" x2="31" y1="34" y2="24" gradientTransform="translate(8.503 9.223)" gradientUnits="userSpaceOnUse"/><linearGradient id="a"><stop offset="0" stop-color="#272b2d"/><stop offset="1" stop-color="#33393e"/></linearGradient><linearGradient xlink:href="#a" id="d" x1="18" x2="18" y1="34" y2="24" gradientTransform="translate(8.503 9.223)" gradientUnits="userSpaceOnUse"/></defs><rect width="56.002" height="56.002" x="4" y="3.969" fill="#4d4d4d" rx="13.002" ry="13.002"/><path d="M3.998 45.998v1c0 7.203 5.8 13.004 13.004 13.004h29.996c7.203 0 13.004-5.8 13.004-13.004v-1c0 7.203-5.8 13.002-13.004 13.002H17.002A12.975 12.975 0 0 1 3.998 45.998" opacity=".35"/><path fill="#fff" d="M3.998 18.004v-1C3.998 9.801 9.798 4 17.002 4h29.996c7.203 0 13.004 5.8 13.004 13.004v1c0-7.203-5.8-13.002-13.004-13.002H17.002A12.975 12.975 0 0 0 3.998 18.004" opacity=".15"/><path fill="url(#b)" d="M16.503 28.701c0 10.29 8.496 24.521 16 24.521 7.064 0 16-14.232 16-24.521s-7.163-15.479-16-15.479-16 5.189-16 15.479" style="fill:#4bc656;fill-opacity:1" transform="translate(-.503 -1.223)"/><path fill="url(#c)" d="M36.885 35.605a8.13 8.13 0 0 1 7.441-2.205 8.13 8.13 0 0 1-2.205 7.44 8.13 8.13 0 0 1-7.441 2.206 8.13 8.13 0 0 1 2.205-7.441" style="fill:#2f3438;fill-opacity:1" transform="translate(-.503 -1.223)"/><path fill="url(#d)" d="M20.679 33.536c2.602-.542 5.42.182 7.441 2.175a7.94 7.94 0 0 1 2.206 7.338c-2.602.542-5.421-.182-7.442-2.175a7.94 7.94 0 0 1-2.205-7.338" style="fill:#2f3438;fill-opacity:1" transform="translate(-.503 -1.223)"/></svg>