<svg xmlns="http://www.w3.org/2000/svg" xmlns:xlink="http://www.w3.org/1999/xlink" width="64" height="64" viewBox="0 0 16.933 16.933"><defs><linearGradient id="b"><stop offset="0" stop-color="#868f93"/><stop offset=".056" stop-color="#939b9d"/><stop offset=".115" stop-color="#7c7a74"/><stop offset=".505" stop-color="#918b7f"/><stop offset=".915" stop-color="#656866"/><stop offset=".962" stop-color="#8f9ea5"/><stop offset="1" stop-color="#98aab4"/></linearGradient><linearGradient id="d" x1="7.937" x2="7.937" y1="15.081" y2="1.852" gradientTransform="translate(.553 .553)scale(.93463)" gradientUnits="userSpaceOnUse"><stop offset="0" stop-color="#eaeef3"/><stop offset="1" stop-color="#f8fafb"/></linearGradient><linearGradient xlink:href="#a" id="i" x1="120.59" x2="118.64" y1="137.54" y2="139.07" gradientTransform="translate(-46.262)" gradientUnits="userSpaceOnUse"/><linearGradient id="a"><stop offset="0"/><stop offset="1" stop-color="#313131"/></linearGradient><linearGradient xlink:href="#a" id="j" x1="120.59" x2="118.64" y1="137.54" y2="139.07" gradientTransform="translate(-39.989)" gradientUnits="userSpaceOnUse"/><linearGradient xlink:href="#a" id="k" x1="120.59" x2="118.64" y1="137.54" y2="139.07" gradientTransform="translate(-33.717)" gradientUnits="userSpaceOnUse"/><linearGradient xlink:href="#a" id="l" x1="120.59" x2="118.64" y1="137.54" y2="139.07" gradientTransform="translate(-27.445)" gradientUnits="userSpaceOnUse"/><linearGradient xlink:href="#a" id="m" x1="120.59" x2="118.64" y1="137.54" y2="139.07" gradientTransform="translate(-21.173)" gradientUnits="userSpaceOnUse"/><linearGradient xlink:href="#a" id="n" x1="120.59" x2="118.64" y1="137.54" y2="139.07" gradientTransform="translate(-14.901)" gradientUnits="userSpaceOnUse"/><linearGradient xlink:href="#a" id="o" x1="120.59" x2="118.64" y1="137.54" y2="139.07" gradientTransform="translate(-8.63)" gradientUnits="userSpaceOnUse"/><linearGradient id="t" x1="237.32" x2="239.69" y1="18.634" y2="111.87" gradientTransform="translate(-8.384 2.687)scale(.07282)" gradientUnits="userSpaceOnUse"><stop offset="0" stop-color="#9fa6aa"/><stop offset="1" stop-color="#c2d5dc"/></linearGradient><linearGradient id="s" x1="285.3" x2="177.35" y1="58.879" y2="58.879" gradientTransform="translate(-8.384 2.687)scale(.07282)" gradientUnits="userSpaceOnUse"><stop offset="0" stop-color="#3e3f41"/><stop offset=".148" stop-color="#f6f7f7"/><stop offset=".55" stop-color="#8396a5"/><stop offset="1" stop-color="#50484b"/></linearGradient><linearGradient id="h" x1="242.09" x2="173.32" y1="131.04" y2="131.04" gradientTransform="translate(-8.384 2.687)scale(.07282)" gradientUnits="userSpaceOnUse"><stop offset="0" stop-color="#8a8a8a"/><stop offset="1" stop-color="#3d3c3c"/></linearGradient><linearGradient id="r" x1="50.27" x2="50.27" y1="14.816" y2="8.731" gradientTransform="translate(-59.639 -8.561)scale(1.3548)" gradientUnits="userSpaceOnUse"><stop offset="0" stop-color="#c0d5dc"/><stop offset="1" stop-color="#9ea5a8"/></linearGradient><linearGradient xlink:href="#b" id="u" x1="144.66" x2="174.56" y1="55.562" y2="55.562" gradientTransform="translate(-48.745 -8.202)scale(.35845)" gradientUnits="userSpaceOnUse"/><linearGradient id="g" x1="50.27" x2="50.27" y1="15.081" y2="14.023" gradientTransform="translate(-59.639 -6.769)scale(1.3548)" gradientUnits="userSpaceOnUse"><stop offset="0" stop-color="#404041"/><stop offset="1" stop-color="#1e1e1e"/></linearGradient><linearGradient xlink:href="#b" id="v" x1="144.66" x2="174.56" y1="55.562" y2="55.562" gradientTransform="translate(-48.745 -6.41)scale(.35845)" gradientUnits="userSpaceOnUse"/><linearGradient id="p" x1="38.364" x2="39.951" y1="15.17" y2="15.17" gradientTransform="translate(-48.745 -8.202)scale(1.3548)" gradientUnits="userSpaceOnUse"><stop offset="0" stop-color="#2d2e30"/><stop offset=".334" stop-color="#5d5c5b" stop-opacity="0"/><stop offset=".502" stop-color="#7a7b7b" stop-opacity="0"/><stop offset=".686" stop-color="#555" stop-opacity="0"/><stop offset="1" stop-color="#333"/></linearGradient><linearGradient id="q" x1="38.364" x2="39.951" y1="15.17" y2="15.17" gradientTransform="translate(-40.501 -8.202)scale(1.3548)" gradientUnits="userSpaceOnUse"><stop offset="0" stop-color="#2d2e30"/><stop offset=".334" stop-color="#5d5c5b" stop-opacity="0"/><stop offset=".502" stop-color="#7a7b7b" stop-opacity="0"/><stop offset=".686" stop-color="#555" stop-opacity="0"/><stop offset="1" stop-color="#70787e"/></linearGradient><linearGradient id="e" x1="28" x2="28" y1="60" y2="4" gradientUnits="userSpaceOnUse"><stop offset="0" stop-color="#292929"/><stop offset="1" stop-color="#525252"/></linearGradient><linearGradient xlink:href="#c" id="w" x1="6" x2="6" y1="58" y2="6" gradientTransform="translate(-4.923 -4.923)scale(1.1538)" gradientUnits="userSpaceOnUse"/><linearGradient id="c" x1="6" x2="6" y1="58" y2="6" gradientUnits="userSpaceOnUse"><stop offset="0" stop-color="#98a7b0"/><stop offset="1" stop-color="#dde1e3"/></linearGradient><linearGradient id="x" x1="32" x2="32" y1="58" y2="32" gradientTransform="matrix(-1.154 0 0 1.2 68.924 -6.4)" gradientUnits="userSpaceOnUse"><stop offset="0" stop-color="#8e44ad"/><stop offset="1" stop-color="#af7ac4"/></linearGradient><linearGradient id="y" x1="32" x2="32" y1="58" y2="32" gradientTransform="matrix(1.154 0 0 1.2 -4.924 -6.4)" gradientUnits="userSpaceOnUse"><stop offset="0" stop-color="#fdad23"/><stop offset="1" stop-color="#fdc96f"/></linearGradient><linearGradient id="z" x1="32" x2="32" y1="32" y2="6" gradientTransform="translate(-4.923 -4.923)scale(1.1538)" gradientUnits="userSpaceOnUse"><stop offset="0" stop-color="#27ad60"/><stop offset="1" stop-color="#58d68d"/></linearGradient><linearGradient id="A" x1="32" x2="32" y1="32" y2="6" gradientTransform="translate(-4.923 -4.923)scale(1.1538)" gradientUnits="userSpaceOnUse"><stop offset="0" stop-color="#1190d9"/><stop offset="1" stop-color="#73c4ef"/></linearGradient><linearGradient id="B" x1="32" x2="32" y1="41" y2="23" gradientTransform="translate(-4.923 -4.923)scale(1.1538)" gradientUnits="userSpaceOnUse"><stop offset="0" stop-color="#cecece"/><stop offset="1" stop-color="#ececec"/></linearGradient><linearGradient id="C" x1="32" x2="32" y1="36" y2="28" gradientTransform="translate(-4.923 -4.923)scale(1.1538)" gradientUnits="userSpaceOnUse"><stop offset="0" stop-color="#5c7274"/><stop offset="1" stop-color="#a4a4a4"/></linearGradient><linearGradient xlink:href="#c" id="D" x1="32" x2="32" y1="35" y2="29" gradientTransform="translate(-4.923 -4.923)scale(1.1538)" gradientUnits="userSpaceOnUse"/><filter id="f" width="1.053" height="1.549" x="-.026" y="-.274" color-interpolation-filters="sRGB"><feGaussianBlur stdDeviation=".087"/></filter></defs><rect width="13.848" height="13.848" x="1.543" y="1.534" fill="url(#d)" rx="3.215" ry="3.215"/><path fill="url(#e)" d="M17.002 3.969A12.973 12.973 0 0 0 4 16.97v29.998A12.973 12.973 0 0 0 17.002 59.97H47a12.973 12.973 0 0 0 13.002-13.002V16.97A12.973 12.973 0 0 0 47 3.969z" transform="scale(.26458)"/><path d="m8.763 15.79-.002.025c-.042.406.328.736.735.736h6.434c.407 0 .777-.33.735-.736l-.002-.022c-.04.343-.37.605-.733.605H9.496c-.364 0-.695-.263-.733-.608" filter="url(#f)" opacity=".75" transform="translate(-8.757 -8.202)scale(1.3548)"/><path fill="url(#g)" d="M5.008 4.703c-.705 0-1.066.325-1.137 1.002l-.759 7.32c-.056.55.445.997.996.997h8.717c.551 0 1.053-.447.996-.997l-.759-7.32c-.072-.677-.433-1.003-1.138-1.003H8.327z"/><path fill-opacity=".084" d="M4.305 12.462h.873c1.19.81 2.422.808 3.665.808h2.153l1.637-.682s.155-.598.085-.58c-.07.017-8.535 0-8.535 0z"/><path fill="url(#h)" d="M4.306 12.4h.872c1.19.81 2.423.809 3.665.809h2.106l1.715-.62s.124-.66.054-.643c-.068.018-8.535 0-8.535 0z"/><path fill="#7a7b7b" d="M3.23 11.038v1.792a1.075.834 0 0 0 1.075.834 1.075.834 0 0 0 1.075-.834v-1.792z"/><g transform="translate(2.62 2.741)scale(.07282)"><rect width="3.559" height="16.61" x="72.383" y="127.63" fill="url(#i)" rx=".508" ry=".508" style="paint-order:fill markers stroke"/><rect width="3.559" height="16.61" x="78.655" y="127.63" fill="url(#j)" rx=".508" ry=".508" style="paint-order:fill markers stroke"/><rect width="3.559" height="16.61" x="84.927" y="127.63" fill="url(#k)" rx=".508" ry=".508" style="paint-order:fill markers stroke"/><rect width="3.559" height="16.61" x="91.199" y="127.63" fill="url(#l)" rx=".508" ry=".508" style="paint-order:fill markers stroke"/><rect width="3.559" height="16.61" x="97.471" y="127.63" fill="url(#m)" rx=".508" ry=".508" style="paint-order:fill markers stroke"/><rect width="3.559" height="16.61" x="103.74" y="127.63" fill="url(#n)" rx=".508" ry=".508" style="paint-order:fill markers stroke"/><rect width="3.559" height="16.61" x="110.01" y="127.63" fill="url(#o)" rx=".508" ry=".508" style="paint-order:fill markers stroke"/></g><path fill="#797a7a" d="M11.474 11.038v1.792a1.075.834 0 0 0 1.075.834 1.075.834 0 0 0 1.076-.834v-1.792z"/><g stroke-width="1.355"><path fill="url(#p)" d="M3.23 11.038v1.792a1.076.833 0 0 0 1.075.834 1.076.833 0 0 0 1.075-.834v-1.793z"/><path fill="url(#q)" d="M11.474 11.038v1.792a1.076.833 0 0 0 1.076.834 1.076.833 0 0 0 1.074-.834v-1.793z"/><path fill="url(#r)" d="M5.008 2.91c-.705 0-1.066.325-1.137 1.003l-.759 7.321c-.056.549.445.996.996.996h8.717c.551 0 1.053-.447.996-.996l-.759-7.321c-.072-.678-.433-1.003-1.138-1.003H8.327z"/><path fill="url(#s)" d="m11.963 3.849-.184-.17L9.76 5.966h-.9l-.476-.018c-2.287-.088-4.238 1.213-4.238 2.69s1.856 2.673 4.145 2.673c2.29 0 4.237-1.215 4.237-2.69q0-.225-.057-.44z" style="paint-order:fill markers stroke"/></g><path fill="#7a8285" d="m4.875 5.218 5.744.08-.12-1.476c-1.45.147-4.928.337-5.513 1.283z"/><path fill="url(#t)" d="m11.799 3.674-6.751.046-.06 1.388 5.058.039-.37.75h-.848a5 5 0 0 0-.447-.019c-2.154 0-3.987 1.178-3.987 2.61s1.746 2.591 3.9 2.591 3.987-1.178 3.987-2.609q0-.217-.054-.425z" style="paint-order:fill markers stroke"/><path fill="#1f2021" d="M5.415 3.844h4.186c.068 0 .119.055.123.123l.052.857c.005.068-.054.123-.123.123H5.37c-.069 0-.127-.055-.124-.123l.047-.857c.005-.068.055-.123.123-.123z"/><path fill="#8b8789" d="m11.799 3.693-6.751.027v.072l6.751-.047z" style="paint-order:fill markers stroke"/><path fill="#423d3f" d="m4.873 5.216.091-1.348.089-.154-.065 1.394z"/><path fill="#463d40" d="m9.966 5.282.091-.147-.115.598-.071.071z"/><path fill="url(#u)" d="m3.115 11.199-.003.034c-.057.55.445.997.996.997h8.717c.551 0 1.053-.447.996-.997l-.003-.03c-.054.465-.501.82-.993.82H4.108c-.493 0-.941-.357-.993-.824"/><path fill="url(#v)" d="m3.115 12.991-.003.034c-.057.55.445.997.996.997h8.717c.551 0 1.053-.447.996-.997l-.003-.03c-.054.465-.501.82-.993.82H4.108c-.493 0-.941-.357-.993-.824"/><ellipse cx="3.91" cy="11.359" fill="#233242" rx=".238" ry=".195" style="paint-order:fill markers stroke"/><ellipse cx="3.91" cy="11.346" fill="#c2dfea" rx=".229" ry=".172" style="paint-order:fill markers stroke"/><path fill="#1a1c20" d="M3.915 11.215a.026.112 2.576 0 0-.027.075.142.026 23.938 0 0-.107-.02.142.026 23.938 0 0 .07.058.026.142 66.062 0 0-.07.057.026.142 66.062 0 0 .104-.02.026.112 2.576 0 0 .02.074.026.112 2.576 0 0 .028-.074.142.026 23.938 0 0 .107.02.142.026 23.938 0 0-.07-.057.026.142 66.062 0 0 .07-.058.026.142 66.062 0 0-.104.02.026.112 2.576 0 0-.02-.075z"/><ellipse cx="12.907" cy="11.359" fill="#233242" rx=".238" ry=".195" style="paint-order:fill markers stroke"/><ellipse cx="12.908" cy="11.346" fill="#c2dfea" rx=".229" ry=".172" style="paint-order:fill markers stroke"/><path fill="#1a1c20" d="M12.913 11.215a.026.112 2.576 0 0-.028.075.142.026 23.938 0 0-.107-.02.142.026 23.938 0 0 .07.058.026.142 66.062 0 0-.07.057.026.142 66.062 0 0 .104-.02.026.112 2.576 0 0 .02.074.026.112 2.576 0 0 .028-.074.142.026 23.938 0 0 .107.02.142.026 23.938 0 0-.07-.057.026.142 66.062 0 0 .07-.058.026.142 66.062 0 0-.104.02.026.112 2.576 0 0-.02-.075"/><ellipse cx="4.116" cy="7.054" fill="#233242" rx=".238" ry=".195" style="paint-order:fill markers stroke"/><ellipse cx="4.117" cy="7.04" fill="#99acb5" rx=".229" ry=".172" style="paint-order:fill markers stroke"/><path fill="#1a1c20" d="M4.121 6.91a.026.112 2.576 0 0-.027.075.142.026 23.938 0 0-.107-.02.142.026 23.938 0 0 .07.058.026.142 66.062 0 0-.07.057.026.142 66.062 0 0 .104-.02.026.112 2.576 0 0 .02.074.026.112 2.576 0 0 .028-.074.142.026 23.938 0 0 .107.02.142.026 23.938 0 0-.07-.057.026.142 66.062 0 0 .07-.058.026.142 66.062 0 0-.104.02.026.112 2.576 0 0-.02-.075z"/><ellipse cx="12.744" cy="7.054" fill="#233242" rx=".238" ry=".195" style="paint-order:fill markers stroke"/><ellipse cx="12.746" cy="7.04" fill="#99acb5" rx=".229" ry=".172" style="paint-order:fill markers stroke"/><path fill="#1a1c20" d="M12.75 6.91a.026.112 2.576 0 0-.027.075.142.026 23.938 0 0-.107-.02.142.026 23.938 0 0 .07.058.026.142 66.062 0 0-.07.057.026.142 66.062 0 0 .103-.02.026.112 2.576 0 0 .02.074.026.112 2.576 0 0 .029-.074.142.026 23.938 0 0 .107.02.142.026 23.938 0 0-.071-.057.026.142 66.062 0 0 .07-.058.026.142 66.062 0 0-.104.02.026.112 2.576 0 0-.02-.075"/><ellipse cx="4.63" cy="3.499" fill="#233242" rx=".238" ry=".195" style="paint-order:fill markers stroke"/><ellipse cx="4.631" cy="3.486" fill="#848f95" rx=".229" ry=".172" style="paint-order:fill markers stroke"/><path fill="#1a1c20" d="M4.636 3.356a.026.112 2.576 0 0-.027.075.142.026 23.938 0 0-.107-.02.142.026 23.938 0 0 .07.057.026.142 66.062 0 0-.07.058.026.142 66.062 0 0 .103-.02.026.112 2.576 0 0 .02.074.026.112 2.576 0 0 .029-.075.142.026 23.938 0 0 .107.02.142.026 23.938 0 0-.07-.057.026.142 66.062 0 0 .07-.058.026.142 66.062 0 0-.105.02.026.112 2.576 0 0-.02-.074"/><ellipse cx="12.37" cy="3.499" fill="#233242" rx=".238" ry=".195" style="paint-order:fill markers stroke"/><ellipse cx="12.37" cy="3.486" fill="#848f95" rx=".229" ry=".172" style="paint-order:fill markers stroke"/><path fill="#1a1c20" d="M12.375 3.356a.026.112 2.576 0 0-.028.075.142.026 23.938 0 0-.107-.02.142.026 23.938 0 0 .071.057.026.142 66.062 0 0-.07.058.026.142 66.062 0 0 .103-.02.026.112 2.576 0 0 .02.074.026.112 2.576 0 0 .028-.075.142.026 23.938 0 0 .107.02.142.026 23.938 0 0-.07-.057.026.142 66.062 0 0 .07-.058.026.142 66.062 0 0-.104.02.026.112 2.576 0 0-.02-.074"/><path fill="#fff" d="M9.018 4.103c-.029 0-.036.028-.052.051l-.37.527c-.016.023.023.052.051.052H9.4c.028 0 .067-.028.05-.052l-.35-.527c-.016-.023-.024-.051-.052-.051zm.006.196c.024 0 .043.023.043.051v.115c0 .029-.019.052-.043.052s-.044-.023-.044-.052V4.35c0-.028.02-.051.044-.051m-.003.249a.04.036 0 0 1 .003 0 .04.036 0 0 1 .04.036.04.036 0 0 1-.04.037.04.036 0 0 1-.04-.037.04.036 0 0 1 .037-.036"/><g transform="matrix(.11756 0 0 .07426 4.705 6.091)"><g stroke-width=".867"><path fill="url(#w)" d="M31.999 21.615a10.384 10.384 0 0 0-10.384 10.384 10.384 10.384 0 0 0 10.384 10.384 10.384 10.384 0 0 0 10.384-10.384 10.384 10.384 0 0 0-10.384-10.384m0 6.923c1.918 0 3.461 1.544 3.461 3.461s-1.543 3.462-3.46 3.462-3.461-1.544-3.461-3.462 1.543-3.461 3.461-3.461z"/><path fill="url(#x)" d="M32 62V38a5.77 6 0 0 0 5.77-6H62c0 17.284-13.38 30-30 30"/><path fill="url(#y)" d="M32 62V38a5.77 6 0 0 1-5.77-6H2c0 17.284 13.38 30 30 30"/><path fill="url(#z)" d="M31.999 2v24.23a5.77 5.77 0 0 0-5.769 5.769H2.003C2.003 15.38 15.381 2 31.999 2"/><path fill="url(#A)" d="M31.999 2v24.23a5.77 5.77 0 0 1 5.769 5.769h24.227C61.995 15.38 48.617 2 31.999 2"/><path fill="url(#B)" d="M31.999 21.615a10.384 10.384 0 1 0 0 20.768 10.384 10.384 0 0 0 0-20.768m0 4.615a5.769 5.769 0 1 1 0 11.538 5.769 5.769 0 0 1 0-11.538"/><path fill="#292c2f" d="M37.768 27.384a1.154 1.154 0 1 1 0-2.308 1.154 1.154 0 0 1 0 2.308M26.23 38.922a1.154 1.154 0 1 1 0-2.308 1.154 1.154 0 0 1 0 2.308m1.154-12.692a1.154 1.154 0 1 1-2.308 0 1.154 1.154 0 0 1 2.308 0m11.538 11.538a1.154 1.154 0 1 1-2.308 0 1.154 1.154 0 0 1 2.308 0" opacity=".4"/><path fill="url(#C)" d="M31.999 27.384a4.615 4.615 0 1 0 0 9.23 4.615 4.615 0 0 0 0-9.23m0 1.154a3.462 3.462 0 1 1 0 6.923 3.462 3.462 0 0 1 0-6.923"/><path fill="#4d4d4d" d="M33.153 23.922a1.154 1.154 0 1 1-2.308 0 1.154 1.154 0 0 1 2.308 0m8.077 8.077a1.154 1.154 0 1 1-2.308 0 1.154 1.154 0 0 1 2.308 0m-8.077 8.076a1.154 1.154 0 1 1-2.308 0 1.154 1.154 0 0 1 2.308 0M25.076 32a1.154 1.154 0 1 1-2.307 0 1.154 1.154 0 0 1 2.307 0"/></g><circle cx="31.999" cy="31.999" r="3.461" fill="url(#D)"/></g><rect width="2.034" height=".149" x="5.485" y="4.033" fill="#fff" opacity=".45" rx="0" ry="0" style="paint-order:stroke fill markers"/><path fill="#fff" d="M5.468 4.347h2.404v.106H5.468zm-.021.146h2.404v.106H5.447zm-.019.157h2.95v.106h-2.95z" opacity=".45" style="paint-order:stroke fill markers"/></svg>