<svg xmlns="http://www.w3.org/2000/svg" xml:space="preserve" viewBox="0 0 64 64"><path fill="#02c5e5" d="M19.24 11.734h5.346l.006 36.892a.03.03 0 0 1-.03.03h-4.667q-.81 0-1.243-.055c-3.362-.428-5.841-3.153-6.015-6.548V18.346c.212-3.643 2.948-6.433 6.604-6.612" style="stroke-width:.0622634"/><path fill="#ff5f55" d="M51.365 21.918v23.644c-.157 3.673-2.949 6.422-6.604 6.643h-5.345l-.006-36.891a.03.03 0 0 1 .03-.03q2.549-.002 5.107 0a6.82 6.82 0 0 1 4.123 1.414q2.494 1.93 2.695 5.22" style="stroke-width:.0622634"/><path fill="#02c5e5" d="m32.568 28.013-.396 2.04q-.464.038-.928.008a.026.026 0 0 0-.027.02l-.522 2.62a.027.024 4.7 0 0 .028.028h.968l-.39 2.024-.989.011a.039.048 6.3 0 0-.038.039l-.7 3.456a.027.055 9.2 0 1-.032.046h-2.04a.024.035 7.6 0 1-.02-.041l.705-3.477a.03.026 4.8 0 0-.03-.031h-1.168a.03.03 0 0 1-.031-.031v-1.946a.047.047 0 0 1 .046-.047h1.557a.046.04 5.2 0 0 .044-.031l.532-2.615a.03.024 4.3 0 0-.031-.029l-2.117.01a.028.03 89.4 0 1-.031-.028v-1.992a.03.03 0 0 1 .03-.031h2.538a.042.041 5.8 0 0 .041-.032l.706-3.486a.031.039 6.9 0 1 .031-.031h2.008a.032.029 5.1 0 1 .032.034l-.701 3.468a.027.029 6.5 0 0 .026.034z" style="stroke-width:.0622634"/><path fill="#ff5f55" d="m31.3 34.753.39-2.023.97-.005a.039.03 4.4 0 0 .037-.025l.514-2.615a.027.022 4.4 0 0-.027-.026l-1.012-.006.396-2.04 1.029.003a.032.033 6.3 0 0 .03-.026l.69-3.496a.034.034 0 0 1 .034-.027h2.07a.03.026 4.8 0 1 .031.031l-.711 3.472a.043.039 5.1 0 0 .042.046h1.168a.031.047 0 0 1 .031.047v1.96a.03.03 0 0 1-.031.032h-1.603a.04.045 6.5 0 0-.04.036l-.533 2.61a.027.026 5.3 0 0 .028.031h2.148a.03.03 0 0 1 .031.031v1.962a.03.03 0 0 1-.031.03h-2.568a.032.039 6.8 0 0-.033.032l-.706 3.482a.04.045 6.6 0 1-.04.036h-1.977a.035.04 6.3 0 1-.033-.047l.684-3.456a.04.04 0 0 0-.039-.047z" style="stroke-width:.0622634"/><rect width="56.002" height="56.002" x="4.001" y="2.938" fill="#f2f2f2" rx="13.002" ry="13.002"/><path d="M3.999 44.967v1c0 7.203 5.8 13.004 13.004 13.004h29.996c7.203 0 13.004-5.8 13.004-13.004v-1a12.975 12.975 0 0 1-13.004 13.002H17.003A12.975 12.975 0 0 1 3.999 44.967" opacity=".1"/><path fill="#fff" d="M3.999 16.973v-1c0-7.203 5.8-13.004 13.004-13.004h29.996c7.203 0 13.004 5.8 13.004 13.004v1A12.975 12.975 0 0 0 46.999 3.971H17.003A12.975 12.975 0 0 0 3.999 16.973" opacity=".5"/><path fill="#02c5e5" d="M18.882 10.132h5.496l.005 37.932a.03.03 0 0 1-.031.032h-4.798q-.832 0-1.278-.057c-3.457-.44-6.006-3.241-6.184-6.733V16.931c.218-3.745 3.03-6.614 6.79-6.799"/><path fill="#ff5f55" d="M51.912 20.603v24.312c-.162 3.776-3.032 6.602-6.79 6.83h-5.496l-.006-37.932a.03.03 0 0 1 .03-.03q2.621-.002 5.252 0c1.51 0 3.035.522 4.239 1.453q2.564 1.985 2.77 5.367"/><path fill="#02c5e5" d="m32.584 26.87-.406 2.098q-.478.04-.954.009a.026.026 0 0 0-.028.02l-.537 2.694a.028.024 4.7 0 0 .028.029h.996l-.402 2.081-1.016.01a.04.05 6.3 0 0-.04.04l-.718 3.554a.028.057 9.2 0 1-.034.048h-2.097a.024.036 7.6 0 1-.02-.043l.724-3.574a.031.027 4.8 0 0-.031-.032h-1.2a.03.03 0 0 1-.033-.032V31.77a.05.05 0 0 1 .048-.048h1.6a.047.041 5.2 0 0 .046-.033l.547-2.688a.031.025 4.3 0 0-.032-.03l-2.177.01a.031.029-.6 0 1-.032-.028v-2.049a.03.03 0 0 1 .032-.032h2.609a.044.042 5.8 0 0 .042-.033l.726-3.584a.032.04 6.9 0 1 .032-.032h2.065a.033.03 5.1 0 1 .032.036l-.72 3.565a.028.03 6.5 0 0 .026.036z"/><path fill="#ff5f55" d="m31.281 33.801.402-2.08.997-.006a.04.031 4.4 0 0 .037-.025l.53-2.689a.028.023 4.4 0 0-.029-.027l-1.04-.006.406-2.097 1.059.002a.033.034 6.3 0 0 .032-.026l.709-3.594a.035.035 0 0 1 .034-.029h2.13a.031.027 4.8 0 1 .03.032l-.731 3.57a.044.04 5.1 0 0 .044.047h1.2a.032.048 0 0 1 .032.048v2.017a.03.03 0 0 1-.032.032h-1.648a.042.046 6.5 0 0-.042.037l-.547 2.685a.028.026 5.3 0 0 .029.03h2.208a.03.03 0 0 1 .032.033v2.017a.03.03 0 0 1-.032.032h-2.64a.033.04 6.8 0 0-.034.032l-.726 3.58a.041.046 6.6 0 1-.04.037h-2.033a.036.041 6.3 0 1-.034-.049l.703-3.553a.04.04 0 0 0-.04-.048z"/></svg>