<svg xmlns="http://www.w3.org/2000/svg" image-rendering="optimizeSpeed" viewBox="0 0 64 64"><defs><linearGradient id="a" x1="26.752" x2="27.555" y1="43.539" y2="14.105" gradientTransform="translate(26.198 25.909)scale(.68082)" gradientUnits="userSpaceOnUse"><stop offset="0" stop-color="#696969"/><stop offset="1" stop-color="#979797"/></linearGradient></defs><rect width="56.002" height="56.002" x="4" y="3.969" fill="#f2f2f2" rx="13.002" ry="13.002"/><circle cx="15.5" cy="18.5" r="4.5" fill="#0079fd"/><path fill="#fff" d="M15.5 15a3.5 3.5 0 0 0-3.5 3.5 3.5 3.5 0 0 0 3.5 3.5 3.5 3.5 0 0 0 3.5-3.5 3.5 3.5 0 0 0-3.5-3.5m0 1a2.5 2.5 0 0 1 2.5 2.5 2.5 2.5 0 0 1-2.5 2.5 2.5 2.5 0 0 1-2.5-2.5 2.5 2.5 0 0 1 2.5-2.5"/><g stroke-width="3.78"><circle cx="15.5" cy="32.5" r="4.5" fill="#fb3027"/><path fill="#fff" d="M15.5 29a3.5 3.5 0 0 0-3.5 3.5 3.5 3.5 0 0 0 3.5 3.5 3.5 3.5 0 0 0 3.5-3.5 3.5 3.5 0 0 0-3.5-3.5m0 1a2.5 2.5 0 0 1 2.5 2.5 2.5 2.5 0 0 1-2.5 2.5 2.5 2.5 0 0 1-2.5-2.5 2.5 2.5 0 0 1 2.5-2.5"/><circle cx="15.5" cy="46.5" r="4.5" fill="#f79500"/><path fill="#fff" d="M15.5 43.001a3.5 3.5 0 0 0-3.5 3.5 3.5 3.5 0 0 0 3.5 3.5 3.5 3.5 0 0 0 3.5-3.5 3.5 3.5 0 0 0-3.5-3.5m0 1a2.5 2.5 0 0 1 2.5 2.5 2.5 2.5 0 0 1-2.5 2.5 2.5 2.5 0 0 1-2.5-2.5 2.5 2.5 0 0 1 2.5-2.5"/><rect width="28" height="1" x="24" y="18" fill="#ccc" ry=".5"/><rect width="28" height="1" x="24" y="32" fill="#ccc" ry=".5"/><rect width="28" height="1" x="24" y="46.002" fill="#ccc" ry=".5"/></g><circle cx="45.533" cy="45.499" r="8.987" fill="#fff" fill-opacity=".543" stroke="url(#a)" stroke-width="1.634" color="#000"/><path d="M3.998 45.998v1c0 7.203 5.8 13.004 13.004 13.004h29.996c7.203 0 13.004-5.8 13.004-13.004v-1c0 7.203-5.8 13.002-13.004 13.002H17.002A12.975 12.975 0 0 1 3.998 45.998" opacity=".1"/><path fill="#fff" d="M3.998 18.004v-1C3.998 9.801 9.798 4 17.002 4h29.996c7.203 0 13.004 5.8 13.004 13.004v1c0-7.203-5.8-13.002-13.004-13.002H17.002A12.975 12.975 0 0 0 3.998 18.004" opacity=".5"/><path fill="#666" d="m54.633 52.865-1.732 1.734 5.095 5.096 1.733-1.734z" color="#000" style="-inkscape-stroke:none"/></svg>