<svg xmlns="http://www.w3.org/2000/svg" viewBox="0 0 64 64"><rect width="56.002" height="56.002" x="4" y="3.969" fill="#f2f2f2" rx="13.002" ry="13.002"/><g stroke-width=".667"><circle cx="32" cy="32" r="20" fill="#5d96f5" color="#000"/><path fill="#91b7f7" d="M44.834 16.665c-4.112.979-23.557 5.8-12.758 6.968 12.032 1.3 7.452 13.495 7.452 13.495l-8.81 14.808a20 20 0 0 0 1.282.065 20 20 0 0 0 20-20 20 20 0 0 0-7.166-15.335z"/><path fill="#4d78d8" d="M32 12a20 20 0 0 0-16.767 9.132l8.942 15.04s-.24-7.245.359-7.964c.599-.718 3.533-3.473 3.533-3.473l4.012-1.197-.217-.779 17.799-.117A20 20 0 0 0 32 12" color="#000"/></g><circle cx="32.021" cy="31.979" r="9.224" fill="#fff" color="#000"/><circle cx="32.021" cy="31.979" r="7.308" fill="#76aaff" color="#000"/><path d="M3.998 45.998v1c0 7.203 5.8 13.004 13.004 13.004h29.996c7.203 0 13.004-5.8 13.004-13.004v-1c0 7.203-5.8 13.002-13.004 13.002H17.002A12.975 12.975 0 0 1 3.998 45.998" opacity=".1"/><path fill="#fff" d="M3.998 18.004v-1C3.998 9.801 9.798 4 17.002 4h29.996c7.203 0 13.004 5.8 13.004 13.004v1c0-7.203-5.8-13.002-13.004-13.002H17.002A12.975 12.975 0 0 0 3.998 18.004" opacity=".5"/></svg>