<svg xmlns="http://www.w3.org/2000/svg" viewBox="0 0 16.933 16.933"><path fill="gray" d="M7.408 14.552A1.85 1.85 0 0 1 5.556 12.7v-1.852c0-.293.236-.53.53-.53h9.789c.293 0 .529.237.529.53V12.7a1.85 1.85 0 0 1-1.852 1.852z"/><rect width="10.848" height="4.233" x="5.556" y="7.673" fill="#b3b3b3" rx=".529" ry=".529"/><rect width="10.848" height="4.233" x="5.556" y="5.027" fill="#e6e6e6" rx=".529" ry=".529"/><path fill="#f2f2f2" d="M7.408 2.381a1.85 1.85 0 0 0-1.852 1.852v1.852c0 .293.236.53.53.53h9.789a.53.53 0 0 0 .529-.53V4.233a1.85 1.85 0 0 0-1.852-1.852z"/><rect width="14.817" height="14.817" x="1.058" y="1.05" fill="#a2adaf" rx="3.44" ry="3.44"/><path fill="#fff" d="M4.498 1.05a3.43 3.43 0 0 0-3.44 3.44v.273a3.43 3.43 0 0 1 3.44-3.44h7.937a3.43 3.43 0 0 1 3.44 3.44V4.49a3.43 3.43 0 0 0-3.44-3.44z" opacity=".35"/><path d="M4.498 15.875a3.43 3.43 0 0 1-3.44-3.44v-.273a3.43 3.43 0 0 0 3.44 3.44h7.937a3.43 3.43 0 0 0 3.44-3.44v.273a3.43 3.43 0 0 1-3.44 3.44z" opacity=".25"/><path fill="#343434" d="M10.09 12.685a.97.97 0 0 1-.565-.313c-.32-.346-.43-.877-.307-1.485.044-.216.103-.38.211-.589.113-.217.224-.363.412-.541.228-.216.49-.361.797-.444.17-.046.645-.047.808-.003.454.125.778.397.7.587q-.044.107-.16.105c-.053 0-.089-.019-.193-.102a1.1 1.1 0 0 0-.406-.228c-.515-.157-1.1.054-1.456.526-.38.502-.488 1.215-.258 1.7.063.133.21.295.323.356.388.212.902-.025 1.167-.536a1.6 1.6 0 0 0 .19-.565c.07-.35.184-.805.22-.876.037-.075.083-.104.165-.104a.16.16 0 0 1 .162.113c.022.067.017.092-.111.63-.248 1.036-.16 1.41.325 1.383a.54.54 0 0 0 .255-.063c.128-.064.207-.07.26-.02.07.065.072.162.006.246-.047.06-.213.145-.35.18-.154.04-.423.029-.56-.024a.65.65 0 0 1-.398-.43l-.03-.098-.056.076c-.213.29-.469.454-.796.51a.8.8 0 0 1-.355.008zm-5.84-.292v-.242l.108-.012a2 2 0 0 1 .182-.011c.074 0 .075-.001.109-.092l.473-1.224.52-1.347.081-.213.728.01.284.731.553 1.43c.165.428.278.698.293.7s.1.009.194.015l.17.012v.485H6.272v-.483l.134-.012a3 3 0 0 1 .2-.012c.037 0 .067-.003.067-.007 0-.007-.161-.466-.183-.52-.011-.028-.055-.03-.566-.03s-.555.003-.566.03l-.088.248-.088.249c-.01.027.002.03.1.03.06 0 .163.005.228.012l.117.012v.483H4.251zm2.075-1.249c0-.018-.388-1.08-.399-1.092-.006-.007-.096.228-.201.523l-.198.556c-.006.017.08.022.395.022.221 0 .403-.003.403-.01zM4.67 7.567l1.084-2.945.143-.388.413.01.452 1.228c.539 1.465.782 2.128.782 2.137 0 .003-.098.007-.216.007h-.216l-.09-.257c-.05-.141-.127-.36-.17-.488l-.08-.231-1.343.01-.167.483-.167.484h-.443l.018-.048zm1.96-1.318a58 58 0 0 0-.522-1.486q-.01-.012-.017-.003c-.003.003-.121.34-.263.748l-.267.762c-.006.017.108.022.536.022h.544zm2.5 1.265v-.102l.103-.029c.14-.038.22-.112.29-.264.03-.067.28-.744.557-1.503l.5-1.381h.632l.494 1.372c.272.755.525 1.436.562 1.514.079.167.139.223.279.262l.102.029v.203h-1.603V7.41l.088-.019c.19-.04.254-.107.238-.244a3 3 0 0 0-.104-.37l-.093-.285-1.115-.01-.092.292c-.051.16-.097.333-.102.383-.009.083-.005.095.042.142.047.048.105.071.236.098.046.01.048.015.048.114v.104H9.13zm1.947-1.28-.231-.688a19 19 0 0 0-.23-.661 75 75 0 0 0-.459 1.36c0 .007.21.011.464.011.364 0 .462-.005.456-.021z"/></svg>