<svg xmlns="http://www.w3.org/2000/svg" viewBox="0 0 64 64"><rect width="56.002" height="56.002" x="4" y="3.969" fill="#f2f2f2" rx="13.002" ry="13.002"/><path d="M3.998 45.998v1c0 7.203 5.8 13.004 13.004 13.004h29.996c7.203 0 13.004-5.8 13.004-13.004v-1c0 7.203-5.8 13.002-13.004 13.002H17.002A12.975 12.975 0 0 1 3.998 45.998" opacity=".1"/><path fill="#fff" d="M3.998 18.004v-1C3.998 9.801 9.798 4 17.002 4h29.996c7.203 0 13.004 5.8 13.004 13.004v1c0-7.203-5.8-13.002-13.004-13.002H17.002A12.975 12.975 0 0 0 3.998 18.004" opacity=".5"/><path fill="#44474b" d="M9.6 28.267 7.841 42.315q-.108.436-.11.886a3.733 3.733 0 0 0 3.734 3.733 3.73 3.73 0 0 0 2.87-1.349l.003.008 10.194-11.725zm44.8 0-14.934 5.6L49.66 45.592l.004-.007a3.73 3.73 0 0 0 2.87 1.349 3.733 3.733 0 0 0 3.733-3.734 3.7 3.7 0 0 0-.11-.886z"/><path fill="#4b5158" d="M20.799 17.067c-6.186 0-11.2 5.014-11.2 11.2s5.014 11.2 11.2 11.2a11.2 11.2 0 0 0 6.18-1.867h10.04a11.2 11.2 0 0 0 6.18 1.867c6.186 0 11.2-5.014 11.2-11.2s-5.014-11.2-11.2-11.2H30.132z"/><path fill="#52d689" d="M45.066 22.667a1.867 1.867 0 0 0-1.867 1.867 1.867 1.867 0 0 0 1.867 1.866 1.867 1.867 0 0 0 1.867-1.866 1.867 1.867 0 0 0-1.867-1.867"/><path fill="#ff5283" d="M41.333 26.4a1.867 1.867 0 0 0-1.867 1.867 1.867 1.867 0 0 0 1.867 1.866 1.867 1.867 0 0 0 1.867-1.866 1.867 1.867 0 0 0-1.867-1.867"/><path fill="#ee9b63" d="M48.8 26.4a1.867 1.867 0 0 0-1.867 1.867 1.867 1.867 0 0 0 1.867 1.866 1.867 1.867 0 0 0 1.867-1.866A1.867 1.867 0 0 0 48.8 26.4"/><path fill="#55ade8" d="M45.066 30.134a1.867 1.867 0 0 0-1.867 1.867 1.867 1.867 0 0 0 1.867 1.866 1.867 1.867 0 0 0 1.867-1.866 1.867 1.867 0 0 0-1.867-1.867"/><path fill="#fff" d="M17.066 22.667V26.4h-3.733v3.734h3.733v3.733h3.733v-3.733h3.734V26.4h-3.734v-3.733z" opacity=".8"/><path fill="#44474b" d="M26.399 33.867a3.733 3.733 0 0 0-3.733 3.733 3.733 3.733 0 0 0 3.733 3.734 3.733 3.733 0 0 0 3.733-3.734 3.733 3.733 0 0 0-3.733-3.733m11.2 0a3.733 3.733 0 0 0-3.733 3.733 3.733 3.733 0 0 0 3.733 3.734 3.733 3.733 0 0 0 3.733-3.734 3.733 3.733 0 0 0-3.733-3.733"/><path fill="#fff" d="M26.399 35.734a1.867 1.867 0 0 0-1.867 1.867 1.867 1.867 0 0 0 1.867 1.866 1.867 1.867 0 0 0 1.867-1.866 1.867 1.867 0 0 0-1.867-1.867m11.2 0a1.867 1.867 0 0 0-1.867 1.867 1.867 1.867 0 0 0 1.867 1.866 1.867 1.867 0 0 0 1.867-1.866 1.867 1.867 0 0 0-1.867-1.867" opacity=".8"/><rect width="4" height="1.5" x="27" y="21" opacity=".35" rx=".75" ry=".75" style="paint-order:stroke fill markers"/><rect width="4" height="1.5" x="33" y="21" opacity=".35" rx=".75" ry=".75" style="paint-order:stroke fill markers"/></svg>