<svg xmlns="http://www.w3.org/2000/svg" xmlns:xlink="http://www.w3.org/1999/xlink" width="64" height="64" viewBox="0 0 16.933 16.933"><defs><linearGradient id="c" x1="4" x2="8" y1="31.97" y2="31.97" gradientUnits="userSpaceOnUse"><stop offset="0" stop-color="#1e170b" stop-opacity=".45"/><stop offset=".486" stop-opacity=".15"/><stop offset="1" stop-opacity=".35"/></linearGradient><linearGradient id="b" x1="8.111" x2="8.111" y1="14.648" y2="2.624" gradientUnits="userSpaceOnUse"><stop offset="0" stop-color="#363636"/><stop offset="1" stop-color="#787878"/></linearGradient><linearGradient id="a"><stop offset="0"/><stop offset="1" stop-opacity="0"/></linearGradient><linearGradient xlink:href="#a" id="d" x1="30" x2="30" y1="32" y2="14" gradientTransform="translate(8.717 8.77)scale(.07384)" gradientUnits="userSpaceOnUse"/><linearGradient xlink:href="#a" id="f" x1="30" x2="30" y1="4" y2="22" gradientTransform="matrix(.07384 0 0 -.07384 8.717 13.496)" gradientUnits="userSpaceOnUse"/><linearGradient id="h" x1="57.544" x2="57.544" y1="26.41" y2=".845" gradientTransform="matrix(.14215 0 0 .14217 3.933 3.737)" gradientUnits="userSpaceOnUse"><stop offset="0" stop-color="#b8d7ff"/><stop offset="1" stop-color="#fff"/></linearGradient><linearGradient id="g" x1="132.21" x2="132.21" y1="42.152" y2="70.68" gradientTransform="matrix(.13869 0 0 .13871 -7.217 -2.012)" gradientUnits="userSpaceOnUse"><stop offset="0" stop-color="#15c7f8"/><stop offset="1" stop-color="#1b63dc"/></linearGradient><linearGradient id="i" x1="8.754" x2="8.754" y1="15.472" y2="1.75" gradientTransform="translate(3.49 3.347)scale(.27909)" gradientUnits="userSpaceOnUse"><stop offset="0" stop-color="#15c332"/><stop offset="1" stop-color="#5cf777"/></linearGradient><linearGradient id="l" x1="542.64" x2="543.25" y1="507.29" y2="463.62" gradientTransform="matrix(.05358 .00027 -.00029 .04971 -23.162 -11.845)" gradientUnits="userSpaceOnUse"><stop offset="0" stop-color="#132e51"/><stop offset="1" stop-color="#2767b9"/></linearGradient><linearGradient id="m" x1="516.86" x2="518.54" y1="446.71" y2="431.85" gradientTransform="translate(-18.446 -8.028)scale(.04234)" gradientUnits="userSpaceOnUse"><stop offset="0" stop-color="#eefefe"/><stop offset="1" stop-color="#d6fefe"/></linearGradient><linearGradient id="j" x1="7.937" x2="7.937" y1="6.879" y2="1.058" gradientTransform="translate(3.49 8.77)scale(.27909)" gradientUnits="userSpaceOnUse"><stop offset="0" stop-color="#fff"/><stop offset="1" stop-color="#ccf0ff"/></linearGradient><linearGradient id="k" x1="7.937" x2="7.937" y1="15.081" y2="1.852" gradientTransform="translate(3.49 8.77)scale(.27909)" gradientUnits="userSpaceOnUse"><stop offset="0" stop-color="#82cdfb"/><stop offset="1" stop-color="#319af6"/></linearGradient><linearGradient id="e" x1="8.202" x2="8.202" y1="10.848" y2="6.35" gradientTransform="translate(8.717 8.77)scale(.07384)" gradientUnits="userSpaceOnUse"><stop offset="0" stop-color="#f24236"/><stop offset="1" stop-color="#fe6b62"/></linearGradient></defs><rect width="14.817" height="14.817" x="1.058" y="1.05" fill="url(#b)" rx="3.44" ry="3.44"/><path fill="url(#c)" d="M8 7.586a12.95 12.95 0 0 0-4 9.385v29.998c0 3.699 1.537 7.021 4 9.384z" transform="scale(.26458)"/><rect width="4.135" height="4.135" x="9.012" y="9.063" fill="#fff" rx=".96" ry=".96"/><path fill="url(#d)" d="M9.972 9.063a.957.957 0 0 0-.96.96v1.11h4.136v-1.11a.957.957 0 0 0-.96-.96z" opacity=".12"/><path fill="url(#e)" d="M10.984 11.851h-.966v-.165l.37-.376q.11-.111.182-.192.072-.082.108-.156.037-.077.037-.166 0-.108-.065-.164t-.167-.057q-.099 0-.177.036-.078.037-.163.105l-.115-.143q.087-.072.197-.124.111-.055.264-.055.205 0 .322.105.119.104.119.28 0 .114-.046.213-.047.096-.131.193-.085.097-.2.207l-.267.26v.01h.698zm.191-.612q0-.124.016-.245.018-.123.06-.23.045-.108.121-.19.077-.083.193-.13.12-.048.286-.048.043 0 .095.004t.088.013v.178q-.076-.024-.173-.024-.138 0-.23.043-.09.042-.142.116t-.076.173-.03.212h.012q.044-.073.124-.121.081-.048.207-.048.187 0 .3.116.115.115.115.326 0 .228-.127.358-.125.13-.34.13-.139 0-.253-.07-.113-.068-.18-.206-.066-.141-.066-.357m.497.455q.115 0 .187-.074.073-.077.073-.236 0-.127-.065-.2-.062-.075-.189-.075-.086 0-.15.036-.065.036-.101.092-.036.057-.036.115 0 .083.032.161t.094.13q.063.051.155.051" aria-label="26"/><path fill="url(#f)" d="M9.972 13.203a.957.957 0 0 1-.96-.96v-1.11h4.136v1.11a.957.957 0 0 1-.96.96z" opacity=".12"/><path fill="gray" d="M9.419 10.764c.061 0 .11.05.11.11v.518a.11.11 0 1 1-.221 0v-.517a.11.11 0 0 1 .11-.111m3.324 0c.061 0 .11.05.11.11v.518a.11.11 0 1 1-.22 0v-.517a.11.11 0 0 1 .11-.111"/><path fill="url(#g)" d="M9.899 3.635a.884.884 0 0 0-.887.886v2.363c0 .491.396.886.887.886h1.545c-.13-.493-.171-1.03-.217-1.564-.014-.135-.036-.167-.127-.17l-.395-.016c-.1-.008-.111-.154-.105-.276.049-.619.258-1.359.48-2.109h1.15z"/><path fill="url(#h)" d="M12.24 3.635h-1.16c-.222.75-.431 1.49-.48 2.11-.006.12.004.267.105.275l.394.016c.092.003.113.035.128.17.045.535.087 1.07.217 1.564h.817a.884.884 0 0 0 .886-.886V4.521a.884.884 0 0 0-.886-.886z"/><path d="M10.024 6.345a.074.074 0 0 0-.056.122c.232.283.658.418 1.088.421s.87-.125 1.134-.413a.074.074 0 1 0-.109-.1c-.222.243-.625.369-1.024.366s-.786-.137-.975-.368a.08.08 0 0 0-.058-.028" opacity=".75" style="font-feature-settings:normal;font-variant-alternates:normal;font-variant-caps:normal;font-variant-ligatures:normal;font-variant-numeric:normal;font-variant-position:normal;isolation:auto;mix-blend-mode:normal;shape-padding:0;text-decoration-color:#000;text-decoration-line:none;text-decoration-style:solid;text-indent:0;text-orientation:mixed;text-transform:none;white-space:normal"/><rect width=".222" height=".443" x="10.046" y="4.821" opacity=".75" rx=".111" ry=".111"/><rect width=".222" height=".443" x="11.892" y="4.821" opacity=".75" rx=".111" ry=".111"/><rect width="4.135" height="4.135" x="3.785" y="3.64" fill="url(#i)" rx=".96" ry=".96"/><path fill="#fdfefd" d="M5.853 4.379a1.477 1.218 0 0 0-1.477 1.218 1.477 1.218 0 0 0 .585.97l.007.004a1.477 1.218 0 0 0 .015.01c.038.025.11.083.094.158-.02.102-.13.208-.149.233-.02.025-.035.053.012.054a.6.6 0 0 0 .22-.065c.076-.037.165-.123.223-.14a.5.5 0 0 1 .234-.023 1.477 1.218 0 0 0 .236.018A1.477 1.218 0 0 0 7.33 5.597 1.477 1.218 0 0 0 5.853 4.38"/><path fill="url(#j)" d="M6.074 9.063c.443 0 1.847 1.405 1.847 1.848v-.888a.96.96 0 0 0-.96-.96z"/><path fill="url(#k)" d="M4.745 9.063q-.15 0-.286.043a.96.96 0 0 0-.455.306.96.96 0 0 0-.214.513q-.005.048-.005.098v2.028l.79-.22.255.155.593-.175.584.18.42.084.324-.096.399-.085.77-.53v-.453c0-.443-1.403-1.848-1.846-1.848z"/><path fill="#fff" d="M6.074 9.065c.296.074.37.517.443.813.072.286.235.483.665.59.295.074.59.048.738.443v-.005c-.008-.517-1.226-1.753-1.787-1.838z"/><path fill="url(#l)" fill-rule="evenodd" d="m7.92 11.364-.77.53-.399.085-.323.096-.421-.085-.584-.18-.593.176-.256-.155-.789.22v.187a.96.96 0 0 0 .28.68.96.96 0 0 0 .394.237 1 1 0 0 0 .188.038q.048.005.098.005H6.96q.15 0 .287-.043a.96.96 0 0 0 .63-.63 1 1 0 0 0 .044-.287z"/><circle cx="3.478" cy="10.603" r=".295" fill="url(#m)" opacity=".811" transform="rotate(-7.007)"/></svg>