<svg xmlns="http://www.w3.org/2000/svg" viewBox="0 0 64 64"><rect width="56.002" height="56.002" x="4" y="3.969" fill="#ccc" rx="13.002" ry="13.002"/><path d="M3.998 45.998v1c0 7.203 5.8 13.004 13.004 13.004h29.996c7.203 0 13.004-5.8 13.004-13.004v-1c0 7.203-5.8 13.002-13.004 13.002H17.002A12.975 12.975 0 0 1 3.998 45.998" opacity=".12"/><path fill="#fff" d="M3.998 18.004v-1C3.998 9.801 9.798 4 17.002 4h29.996c7.203 0 13.004 5.8 13.004 13.004v1c0-7.203-5.8-13.002-13.004-13.002H17.002A12.975 12.975 0 0 0 3.998 18.004" opacity=".2"/><g transform="translate(-4.538 -3.077)scale(1.4615)"><rect width="22" height="24" x="13" y="13" fill="#fff" rx="1.745" ry="1.745"/><path fill="#4d4d4d" d="M21 20a6 6 0 0 0-6 6 6 6 0 0 0 3 5.18V35h11V24h-2.344A6 6 0 0 0 21 20m0 1a5 5 0 0 1 4.58 3H18v5.992A5 5 0 0 1 16 26a5 5 0 0 1 5-5m-2 4h6.897A5 5 0 0 1 26 26a5 5 0 0 1-5 5 5 5 0 0 1-2-.434zm7.914 0H28v9h-9v-2.36a6 6 0 0 0 2 .36 6 6 0 0 0 6-6 6 6 0 0 0-.086-1"/><path fill="#7fc422" d="m19 11 18 22V11m-9.7 4H33v7"/></g></svg>