<svg xmlns="http://www.w3.org/2000/svg" xmlns:xlink="http://www.w3.org/1999/xlink" width="64" height="64"><defs><linearGradient xlink:href="#a" id="b" x1="7.937" x2="7.937" y1="6.879" y2="1.058" gradientTransform="scale(3.7796)" gradientUnits="userSpaceOnUse"/><linearGradient id="a"><stop offset="0" stop-color="#fff"/><stop offset="1" stop-color="#ccf0ff"/></linearGradient><linearGradient id="c" x1="7.937" x2="7.937" y1="15.081" y2="1.852" gradientTransform="scale(3.7796)" gradientUnits="userSpaceOnUse"><stop offset="0" stop-color="#2858e4"/><stop offset="1" stop-color="#5ab9f4"/></linearGradient><linearGradient xlink:href="#a" id="e" x1="45" x2="57.008" y1="19" y2="6.992" gradientUnits="userSpaceOnUse"/><linearGradient id="f" x1="15" x2="9" y1="9" y2="9" gradientTransform="matrix(3.5556 0 0 8 -19.55 -41)" gradientUnits="userSpaceOnUse"><stop offset="0" stop-color="#a1daff"/><stop offset="1" stop-color="#abebf9" stop-opacity="0"/></linearGradient><filter id="d" width="1.222" height="1.21" x="-.111" y="-.105" color-interpolation-filters="sRGB"><feGaussianBlur stdDeviation="1.05"/></filter></defs><path fill="url(#b)" d="M35 3.969c6 0 25.002 19.03 25.002 25.03V16.972A12.973 12.973 0 0 0 47 3.969z"/><path fill="#fff" d="M17.002 7a9.95 9.95 0 0 0-9.97 9.97v30a9.95 9.95 0 0 0 9.97 9.97H47a9.95 9.95 0 0 0 9.97-9.97v-30A9.95 9.95 0 0 0 47 7zm0 1H47c4.97 0 8.97 4 8.97 8.97v30c0 4.97-4 8.97-8.97 8.97H17.002c-4.97 0-8.97-4-8.97-8.97v-30c0-4.97 4-8.971 8.97-8.971z"/><g fill="#fff"><path d="M48.999 8.001H50v23h-1z"/><path d="M55.999 14v1h-23v-1z"/></g><path fill="url(#c)" d="M17.002 3.969c-1.35 0-2.652.203-3.875.582a13 13 0 0 0-6.166 4.14 12.93 12.93 0 0 0-2.894 6.946v.002Q4 16.295 4 16.97v29.998a12.96 12.96 0 0 0 3.8 9.203 13 13 0 0 0 5.327 3.217 13 13 0 0 0 2.541.515h.002q.657.067 1.332.067H47c1.35 0 2.652-.203 3.875-.582a13 13 0 0 0 8.545-8.545c.379-1.223.582-2.524.582-3.875v-17.97C60.002 23 41 3.97 35 3.97z"/><path d="M35.018 48 46 47.93l1.243-12.431c.26-2.52-2.863-3.57-3.729-1.243.01-2.795-2.863-3.144-3.73-1.245.11-2.307-2.824-3.2-3.73-1.243v-4.971c0-3.73-3.728-3.73-3.728 0v11.188c-6.216-6.217-7.74-1.75-7.74-1.75C28.81 39.088 31.392 48.025 35.018 48" filter="url(#d)" opacity=".15"/><path fill="url(#e)" d="M35 4c4 1 5 7 6 11 .97 3.88 3.18 6.545 9 8 4 1 8 .64 10 6 0-.024-.004-.048-.004-.072-.11-6.996-16.605-23.738-24.209-24.893C35.522 4.015 35.26 4 35 4"/><path fill="url(#f)" fill-rule="evenodd" d="M12.45 23h21.333v8H12.45z"/><path fill="#fff" d="M35.018 47 46 46.93l1.243-12.431c.26-2.52-2.863-3.57-3.729-1.243.01-2.795-2.863-3.144-3.73-1.245.11-2.307-2.824-3.2-3.73-1.243v-4.971c0-3.73-3.728-3.73-3.728 0v11.188c-6.216-6.217-7.74-1.75-7.74-1.75C28.81 38.088 31.392 47.025 35.018 47"/></svg>