<svg xmlns="http://www.w3.org/2000/svg" width="64" height="64" enable-background="new 0 0 1024 1024" image-rendering="optimizeSpeed"><defs><linearGradient id="d" x1="64" x2="120" y1="246" y2="246" gradientTransform="translate(10.286 -45.187)scale(.33929)" gradientUnits="userSpaceOnUse"><stop offset="0" stop-color="#c0bfbc"/><stop offset=".857" stop-color="#c0bfbc"/><stop offset=".929" stop-color="#deddda"/><stop offset="1" stop-color="#c0bfbc"/></linearGradient><linearGradient id="e" x1="64" x2="120" y1="246" y2="246" gradientTransform="matrix(-.33929 0 0 .33929 53.714 -45.187)" gradientUnits="userSpaceOnUse"><stop offset="0" stop-color="#c0bfbc"/><stop offset=".857" stop-color="#c0bfbc"/><stop offset=".929" stop-color="#deddda"/><stop offset="1" stop-color="#c0bfbc"/></linearGradient><linearGradient id="f" x1="320" x2="416" y1="116" y2="116" gradientTransform="matrix(-.08482 0 0 .08482 67.286 21.652)" gradientUnits="userSpaceOnUse"><stop offset="0" stop-color="#f5f5f4"/><stop offset=".5" stop-color="#fff"/><stop offset="1" stop-color="#e0dedb"/></linearGradient><linearGradient id="g" x1="320" x2="416" y1="116" y2="116" gradientTransform="translate(-3.286 21.652)scale(.08482)" gradientUnits="userSpaceOnUse"><stop offset="0" stop-color="#f5f5f4"/><stop offset=".5" stop-color="#f5f5f4"/><stop offset="1" stop-color="#cccbc8"/></linearGradient><linearGradient id="h" x1="59.092" x2="46.289" y1="216.78" y2="169" gradientTransform="translate(6.26 -46.199)scale(.33929)" gradientUnits="userSpaceOnUse"><stop offset="0" stop-color="#0cc"/><stop offset="1" stop-color="#31e5d2"/></linearGradient><linearGradient id="a" x1="7.937" x2="7.937" y1="15.081" y2="1.852" gradientTransform="translate(0 .032)scale(3.7795)" gradientUnits="userSpaceOnUse"><stop offset="0" stop-color="#18adb1"/><stop offset="1" stop-color="#00e0b5"/></linearGradient><clipPath id="c"><path d="M0 0h192v152H0z"/></clipPath><filter id="b" width="1.101" height="1.092" x="-.05" y="-.046" color-interpolation-filters="sRGB"><feGaussianBlur stdDeviation=".797"/></filter></defs><rect width="56" height="56" x="4" y="4" fill="url(#a)" rx="13.002" ry="13.002"/><g filter="url(#b)" opacity=".15"><path d="M51 43.147v2.254a2.71 2.71 0 0 1-2.714 2.715H40.82a8.14 8.14 0 0 0-7.402 4.75H30.58a8.14 8.14 0 0 0-7.402-4.75h-7.464A2.71 2.71 0 0 1 13 45.4v-2.254z"/><path d="M32.79 29.462a10 10 0 0 0-.111 1.011H32v21.375h1.42a8.14 8.14 0 0 1 7.401-4.75h7.465A2.71 2.71 0 0 0 51 44.384V32.29a2.71 2.71 0 0 0-2.714-2.714zm-1.579 0q.08.503.11 1.011H32v21.375h-1.42a8.14 8.14 0 0 0-7.402-4.75h-7.464A2.71 2.71 0 0 1 13 44.384V32.29a2.71 2.71 0 0 1 2.714-2.714z"/><g clip-path="url(#c)" opacity=".25" transform="translate(7.571 5.705)scale(.33929)"><path d="M128 107.66a7.466 7.466 0 0 1-7.492 7.344h-.5v1h.5a8.49 8.49 0 0 0 7.492-4.48zm-32 7.344 24 1v-1z"/><path d="M128 111.52a7.465 7.465 0 0 1-7.492 7.344h-.5v1h.5a8.5 8.5 0 0 0 7.465-4.426c.011-.191.027-.383.027-.574zm-26 7.344 18 1v-1z" opacity="1"/></g><path d="M48.286 18.259A2.71 2.71 0 0 1 51 20.973v20.018a2.71 2.71 0 0 1-2.714 2.715h-8.143A8.143 8.143 0 0 0 32 51.849V27.08c0-4.497 3.646-8.822 8.143-8.822zm-32.572 0A2.71 2.71 0 0 0 13 20.973v20.018a2.71 2.71 0 0 0 2.714 2.715h8.143A8.143 8.143 0 0 1 32 51.849V27.08c0-4.497-3.646-8.822-8.143-8.822z"/><path d="M44.893 21.991v2.036h-4.071c-1.485.062-2.872.44-4.072 1.113v-1.883c1.198-.793 2.587-1.266 4.072-1.266zm2.036 4.071v1.357h-6.107c-1.485.062-2.872.44-4.072 1.113v-1.204c1.199-.793 2.588-1.266 4.072-1.266zm0 2.715v1.357h-6.107c-1.485.062-2.872.44-4.072 1.113v-1.204c1.199-.793 2.588-1.266 4.072-1.266zm0 2.714v1.357h-6.107c-1.485.062-2.872.44-4.072 1.113v-1.204c1.199-.793 2.588-1.266 4.072-1.266zM22.5 36.92h-5.429v1.357H22.5zm-5.429-10.858v1.357h6.786a9.2 9.2 0 0 1 3.393.778V26.93a7.2 7.2 0 0 0-3.393-.868zm0 2.715v1.357h6.786a9.2 9.2 0 0 1 3.393.778v-1.267a7.2 7.2 0 0 0-3.393-.868zm0 2.714v1.357h6.786a9.2 9.2 0 0 1 3.393.778V32.36a7.2 7.2 0 0 0-3.393-.868zm0-8.143v1.357h6.786a9.2 9.2 0 0 1 3.393.778v-1.267a7.2 7.2 0 0 0-3.393-.868zm0 10.857v1.357h6.786a9.2 9.2 0 0 1 3.393.778v-1.267a7.2 7.2 0 0 0-3.393-.868zm27.143 0v1.357h-3.393c-1.484.062-2.872.44-4.071 1.113v-1.204c1.198-.793 2.587-1.266 4.071-1.266z"/><path d="M21.969 11.134s-2.792 6.934-2.784 10.581c.005 2.714.373 5.777 2.107 7.866 1.332 1.604 5.642 2.702 5.642 2.702l1.31-.35s3.183-3.108 3.535-5.162c.458-2.676-.755-5.512-2.107-7.866-1.817-3.163-7.703-7.772-7.703-7.772z"/><path d="M28.341 37.537c-3.655-13.64-3.558-15.163-5.346-22.67 2.216 7.364 3.002 8.678 6.657 22.319z"/><path d="M24.566 21.335c1.227-2.124 1.667-2.55 2.102-3.256-.394.73-.555 1.316-1.783 3.44zm.851 3.297c1.703-2.95 2.314-3.541 2.917-4.523-.545 1.015-.77 1.829-2.474 4.779zm.937 3.538c1.802-3.121 2.448-3.747 3.087-4.785-.578 1.074-.817 1.934-2.618 5.055z"/><path d="M24.819 21.267c-2.126-1.226-2.718-1.374-3.449-1.77.706.437 1.139.863 3.263 2.09zm.912 3.282c-2.95-1.704-3.775-1.911-4.788-2.458.98.605 1.58 1.198 4.532 2.9zm.957 3.531c-3.121-1.802-3.993-2.021-5.065-2.6 1.036.641 1.673 1.267 4.795 3.07z"/></g><path fill="#1ca8a8" d="M51 43.147v2.254a2.71 2.71 0 0 1-2.714 2.715H40.82a8.14 8.14 0 0 0-7.402 4.75H30.58a8.14 8.14 0 0 0-7.402-4.75h-7.464A2.71 2.71 0 0 1 13 45.4v-2.254z"/><path fill="url(#d)" d="M32.79 29.462a10 10 0 0 0-.111 1.011H32v21.375h1.42a8.14 8.14 0 0 1 7.401-4.75h7.465A2.71 2.71 0 0 0 51 44.384V32.29a2.71 2.71 0 0 0-2.714-2.714z"/><path fill="url(#e)" d="M31.211 29.462q.08.503.11 1.011H32v21.375h-1.42a8.14 8.14 0 0 0-7.402-4.75h-7.464A2.71 2.71 0 0 1 13 44.384V32.29a2.71 2.71 0 0 1 2.714-2.714z"/><g clip-path="url(#c)" opacity=".25" transform="translate(7.571 5.705)scale(.33929)"><path d="M128 107.66a7.466 7.466 0 0 1-7.492 7.344h-.5v1h.5a8.49 8.49 0 0 0 7.492-4.48zm-32 7.344 24 1v-1z"/><path d="M128 111.52a7.465 7.465 0 0 1-7.492 7.344h-.5v1h.5a8.5 8.5 0 0 0 7.465-4.426c.011-.191.027-.383.027-.574zm-26 7.344 18 1v-1z" opacity="1"/></g><path fill="url(#f)" d="M48.286 18.259A2.71 2.71 0 0 1 51 20.973v20.018a2.71 2.71 0 0 1-2.714 2.715h-8.143A8.143 8.143 0 0 0 32 51.849V27.08c0-4.497 3.646-8.822 8.143-8.822z"/><path fill="url(#g)" d="M15.714 18.259A2.71 2.71 0 0 0 13 20.973v20.018a2.71 2.71 0 0 0 2.714 2.715h8.143A8.143 8.143 0 0 1 32 51.849V27.08c0-4.497-3.646-8.822-8.143-8.822z"/><path fill="#0cc" d="M44.893 21.991v2.036h-4.071c-1.485.062-2.872.44-4.072 1.113v-1.883c1.198-.793 2.587-1.266 4.072-1.266z"/><path fill="#dedcd9" d="M46.929 26.062v1.357h-6.107c-1.485.062-2.872.44-4.072 1.113v-1.204c1.199-.793 2.588-1.266 4.072-1.266zm0 2.715v1.357h-6.107c-1.485.062-2.872.44-4.072 1.113v-1.204c1.199-.793 2.588-1.266 4.072-1.266zm0 2.714v1.357h-6.107c-1.485.062-2.872.44-4.072 1.113v-1.204c1.199-.793 2.588-1.266 4.072-1.266zM22.5 36.92h-5.429v1.357H22.5zm-5.429-10.858v1.357h6.786a9.2 9.2 0 0 1 3.393.778V26.93a7.2 7.2 0 0 0-3.393-.868zm0 2.715v1.357h6.786a9.2 9.2 0 0 1 3.393.778v-1.267a7.2 7.2 0 0 0-3.393-.868zm0 2.714v1.357h6.786a9.2 9.2 0 0 1 3.393.778V32.36a7.2 7.2 0 0 0-3.393-.868zm0-8.143v1.357h6.786a9.2 9.2 0 0 1 3.393.778v-1.267a7.2 7.2 0 0 0-3.393-.868zm0 10.857v1.357h6.786a9.2 9.2 0 0 1 3.393.778v-1.267a7.2 7.2 0 0 0-3.393-.868zm27.143 0v1.357h-3.393c-1.484.062-2.872.44-4.071 1.113v-1.204c1.198-.793 2.587-1.266 4.071-1.266z"/><path fill="url(#h)" d="M21.969 11.134s-2.792 6.934-2.784 10.581c.005 2.714.373 5.777 2.107 7.866 1.332 1.604 5.642 2.702 5.642 2.702l1.31-.35s3.183-3.108 3.535-5.162c.458-2.676-.755-5.512-2.107-7.866-1.817-3.163-7.703-7.772-7.703-7.772z"/><g fill="#1ca8a8"><path d="M28.341 37.537c-3.655-13.64-3.558-15.163-5.346-22.67 2.216 7.364 3.002 8.678 6.657 22.319z"/><path d="M24.566 21.335c1.227-2.124 1.667-2.55 2.102-3.256-.394.73-.555 1.316-1.783 3.44zm.851 3.297c1.703-2.95 2.314-3.541 2.917-4.523-.545 1.015-.77 1.829-2.474 4.779zm.937 3.538c1.802-3.121 2.448-3.747 3.087-4.785-.578 1.074-.817 1.934-2.618 5.055z"/><path d="M24.819 21.267c-2.126-1.226-2.718-1.374-3.449-1.77.706.437 1.139.863 3.263 2.09zm.912 3.282c-2.95-1.704-3.775-1.911-4.788-2.458.98.605 1.58 1.198 4.532 2.9zm.957 3.531c-3.121-1.802-3.993-2.021-5.065-2.6 1.036.641 1.673 1.267 4.795 3.07z"/></g></svg>