<svg xmlns="http://www.w3.org/2000/svg" viewBox="0 0 64 64"><rect width="56.002" height="56.002" x="4" y="3.969" fill="#35383b" rx="13.002" ry="13.002"/><path d="M3.998 45.998v1c0 7.203 5.8 13.004 13.004 13.004h29.996c7.203 0 13.004-5.8 13.004-13.004v-1c0 7.203-5.8 13.002-13.004 13.002H17.002A12.975 12.975 0 0 1 3.998 45.998" opacity=".35"/><path fill="#fff" d="M3.998 18.004v-1C3.998 9.801 9.798 4 17.002 4h29.996c7.203 0 13.004 5.8 13.004 13.004v1c0-7.203-5.8-13.002-13.004-13.002H17.002A12.975 12.975 0 0 0 3.998 18.004" opacity=".15"/><path fill="#208dc3" d="M4 17v2h56.002v-2z"/><rect width="4" height="4" x="40" y="11" fill="#eff0f1" rx="2"/><path fill="#95a5a6" d="M33 23h4v2h-4zm6 0h6v2h-6zm-6 4h8v2h-8zm10 0h4v2h-4zM33 39h4v2h-4zm6 0h6v2h-6zm-6 4h6v2h-6zM13 23h6v2h-6zm10 0h7.271v2H23zm-10 4h16v2H13zm0 12h6v2h-6zm10 0h4.554v1.873H23zm-10 4h16v2H13z"/><path fill="#3daee9" d="M32 13c-5.54 0-10 4.46-10 10v5h-2c-2.216 0-4 1.784-4 4v15c0 2.216 1.784 4 4 4h24c2.216 0 4-1.784 4-4V32c0-2.216-1.784-4-4-4h-2v-5c0-5.54-4.46-10-10-10m0 6c2.216 0 4 1.784 4 4v5h-8v-5c0-2.216 1.784-4 4-4"/><path fill="#fff" d="M45.547 28.307c-5.025 3.111-11.606 3.983-17.453 4.496-5.955.446-9.755 3.158-12.094 6.42V47c0 2.216 1.784 4 4 4h.611c3.02-1.734 5.26-1.561 8.993-1.441 5.076.171 10.682-2.027 13.436-4.946s-.249-.685-3.368.14c-3.118.823-9.157.908-13.205-.19 12.707.171 17.667-4.069 20.471-7.897 2.804-3.811-1.21-.67-3.814.652s-7.15 2.248-12.16 1.561c7.496-.017 13.215-3.86 16.918-7.856a4 4 0 0 0-2.334-2.716zm2.434 3.293v15.8q.02-.196.02-.4V32q0-.202-.02-.4"/></svg>