<svg xmlns="http://www.w3.org/2000/svg" width="64" height="64"><defs><linearGradient id="a" x1="7.937" x2="7.937" y1="15.081" y2="1.852" gradientTransform="scale(3.7796)" gradientUnits="userSpaceOnUse"><stop offset="0" stop-color="#363636"/><stop offset="1" stop-color="#6c6c6c"/></linearGradient><linearGradient id="e" x1="17.377" x2="17.377" y1="14.973" y2="23.929" gradientUnits="userSpaceOnUse"><stop offset="0" stop-color="#f3952b"/><stop offset="1" stop-color="#ff0a0a"/></linearGradient><linearGradient id="b" x1="27.077" x2="27.077" y1="23.295" y2="12.503" gradientUnits="userSpaceOnUse"><stop offset="0" stop-color="#24b227"/><stop offset="1" stop-color="#98dd4b"/></linearGradient><linearGradient id="c" x1="30.941" x2="30.941" y1="32.431" y2="24.184" gradientUnits="userSpaceOnUse"><stop offset="0" stop-color="#eba300"/><stop offset="1" stop-color="#fff627"/></linearGradient><linearGradient id="d" x1="19.677" x2="19.677" y1="34.496" y2="26.424" gradientUnits="userSpaceOnUse"><stop offset="0" stop-color="#009dd6"/><stop offset="1" stop-color="#00ebde"/></linearGradient></defs><rect width="64" height="64" fill="none" rx="0" ry="0" style="paint-order:stroke fill markers"/><rect width="56.002" height="56.002" x="4" y="3.969" fill="url(#a)" rx="13.002" ry="13.002"/><circle cx="32.02" cy="32.044" r="30.001" fill="none"/><path fill="url(#b)" d="M27.719 11.652c-4.477-2.586-4.504 3.367-4.504 3.367l.785 8.98 8.168-3.813s5.145-3 .668-5.586c-1.383-.797-2.398-.816-3.148-.457-.066-.824-.586-1.695-1.969-2.496" transform="translate(-1.224 -1.227)scale(1.3844)"/><path fill="url(#c)" d="m24 24 3.813 8.168s3 5.145 5.582.668c.797-1.383.813-2.398.457-3.148.828-.066 1.699-.586 2.5-1.969 2.582-4.477-3.371-4.504-3.371-4.504L24.004 24" transform="translate(-1.224 -1.227)scale(1.3844)"/><path fill="url(#d)" d="m24 24-8.172 3.813s-5.141 3-.668 5.582c1.383.797 2.402.813 3.148.457.066.828.586 1.699 1.969 2.5 4.477 2.582 4.504-3.371 4.504-3.371L24 24.004" transform="translate(-1.224 -1.227)scale(1.3844)"/><path fill="url(#e)" d="m24 24-3.813-8.172s-3-5.141-5.586-.668c-.797 1.383-.813 2.402-.457 3.148-.824.066-1.695.586-2.496 1.969-2.586 4.477 3.367 4.504 3.367 4.504l8.98-.781" transform="translate(-1.224 -1.227)scale(1.3844)"/></svg>