<svg xmlns="http://www.w3.org/2000/svg" viewBox="0 0 64 64"><defs><linearGradient id="b" x1="24" x2="24" y1="37" y2="12" gradientTransform="translate(4.207 3.965)scale(1.158)" gradientUnits="userSpaceOnUse"><stop offset="0" stop-color="#2c3e50"/><stop offset="1" stop-color="#34495e"/></linearGradient><linearGradient id="a" x1="24" x2="24" y1="51" y2="4" gradientTransform="translate(4.207 3.965)scale(1.158)" gradientUnits="userSpaceOnUse"><stop offset="0" stop-color="#7f8c8d" stop-opacity="0"/><stop offset="1" stop-color="#7f8c8d"/></linearGradient></defs><rect width="56.002" height="56.002" x="4" y="3.969" fill="#dbdee0" rx="13.002" ry="13.002"/><path fill="url(#a)" d="M20.42 16.704v2.316h-4.632v1.158h4.632v6.948h-4.632v1.158h4.632v6.949h-4.632v1.158h4.632v6.948h-4.632v1.158h31.267v-1.158H43.58V36.39h3.474v-1.158H43.58v-6.949h3.474v-1.158H43.58v-6.948h3.474V19.02H43.58v-2.316h-3.474v2.316H25.602l-1.708-2.316zm6.034 3.474h13.652v6.948h-8.533zm-2.56 3.474 2.702 3.474h-2.702zm0 4.632h3.603l5.404 6.949h-9.007zm8.534 0h7.679v6.949h-2.56zm-8.534 8.107h9.908l5.404 6.948H23.894zm14.505 0h1.708v2.316z" style="font-feature-settings:normal;font-variant-alternates:normal;font-variant-caps:normal;font-variant-ligatures:normal;font-variant-numeric:normal;font-variant-position:normal;isolation:auto;mix-blend-mode:normal;paint-order:normal;shape-padding:0;text-decoration-color:#000;text-decoration-line:none;text-decoration-style:solid;text-indent:0;text-orientation:mixed;text-transform:none;white-space:normal" transform="translate(-.239 1.172)scale(1.0075)"/><path fill="url(#b)" d="M20.42 16.704v27.793h3.474V23.652l16.212 20.845h3.474V16.704h-3.474v22.003L23.894 16.704z" style="font-feature-settings:normal;font-variant-alternates:normal;font-variant-caps:normal;font-variant-ligatures:normal;font-variant-numeric:normal;font-variant-position:normal;isolation:auto;mix-blend-mode:normal;paint-order:normal;shape-padding:0;text-decoration-color:#000;text-decoration-line:none;text-decoration-style:solid;text-indent:0;text-orientation:mixed;text-transform:none;white-space:normal" transform="translate(-.239 1.172)scale(1.0075)"/><path fill="#2c3e50" d="M7 6c-.554 0-1 .446-1 1v2c0 .554.446 1 1 1h2c.554 0 1-.446 1-1V7c0-.554-.446-1-1-1zm0 1h2v2H7zm32-1c-.554 0-1 .446-1 1v2c0 .554.446 1 1 1h2c.554 0 1-.446 1-1V7c0-.554-.446-1-1-1zm0 1h2v2h-2zM7 36c-.554 0-1 .446-1 1v2c0 .554.446 1 1 1h2c.554 0 1-.446 1-1v-2c0-.554-.446-1-1-1zm0 1h2v2H7zm32-1c-.554 0-1 .446-1 1v2c0 .554.446 1 1 1h2c.554 0 1-.446 1-1v-2c0-.554-.446-1-1-1zm0 1h2v2h-2z" style="paint-order:normal" transform="translate(4 5.167)scale(1.1667)"/><g fill="#2c3e50" stroke-dashoffset="531.55"><path d="M7 13v4h2v-4zm0 8v4h2v-4zm0 8v4h2v-4z" opacity=".5" style="font-feature-settings:normal;font-variant-alternates:normal;font-variant-caps:normal;font-variant-ligatures:normal;font-variant-numeric:normal;font-variant-position:normal;isolation:auto;mix-blend-mode:normal;paint-order:normal;shape-padding:0;text-decoration-color:#000;text-decoration-line:none;text-decoration-style:solid;text-indent:0;text-orientation:mixed;text-transform:none;white-space:normal" transform="translate(4 5.167)scale(1.1667)"/><path d="M7 12v4h2v-4zm0 9v4h2v-4zm0 9v4h2v-4z" opacity=".5" style="font-feature-settings:normal;font-variant-alternates:normal;font-variant-caps:normal;font-variant-ligatures:normal;font-variant-numeric:normal;font-variant-position:normal;isolation:auto;mix-blend-mode:normal;paint-order:normal;shape-padding:0;text-decoration-color:#000;text-decoration-line:none;text-decoration-style:solid;text-indent:0;text-orientation:mixed;text-transform:none;white-space:normal" transform="rotate(90 9.334 49.501)scale(1.1667)"/><path d="M7 12v4h2v-4zm0 9v4h2v-4zm0 9v4h2v-4z" opacity=".5" style="font-feature-settings:normal;font-variant-alternates:normal;font-variant-caps:normal;font-variant-ligatures:normal;font-variant-numeric:normal;font-variant-position:normal;isolation:auto;mix-blend-mode:normal;paint-order:normal;shape-padding:0;text-decoration-color:#000;text-decoration-line:none;text-decoration-style:solid;text-indent:0;text-orientation:mixed;text-transform:none;white-space:normal" transform="rotate(90 26.834 32)scale(1.1667)"/><path d="M7 13v4h2v-4zm0 8v4h2v-4zm0 8v4h2v-4z" opacity=".5" style="font-feature-settings:normal;font-variant-alternates:normal;font-variant-caps:normal;font-variant-ligatures:normal;font-variant-numeric:normal;font-variant-position:normal;isolation:auto;mix-blend-mode:normal;paint-order:normal;shape-padding:0;text-decoration-color:#000;text-decoration-line:none;text-decoration-style:solid;text-indent:0;text-orientation:mixed;text-transform:none;white-space:normal" transform="translate(41.334 5.167)scale(1.1667)"/></g><path d="M3.999 45.998V47A12.975 12.975 0 0 0 17 60.002h30A12.975 12.975 0 0 0 60.002 47v-1.002A12.975 12.975 0 0 1 47 59H17A12.975 12.975 0 0 1 4 45.998z" opacity=".15"/><path fill="#fff" d="M3.999 18.002v-.994A12.975 12.975 0 0 1 17 4.006h30a12.975 12.975 0 0 1 13.002 13.002v1.002A12.975 12.975 0 0 0 47 5.008H17A12.975 12.975 0 0 0 4 18.01z" opacity=".15"/></svg>