<svg xmlns="http://www.w3.org/2000/svg" enable-background="new 0 0 1024 1024" image-rendering="optimizeSpeed" viewBox="0 0 64 64"><defs><filter id="a" width="1.1" height="1.3" x="-.05" y="-.15" color-interpolation-filters="sRGB"><feGaussianBlur stdDeviation=".375"/></filter></defs><rect width="56.002" height="56.002" x="4" y="3.969" fill="#4d4d4d" rx="13.002" ry="13.002"/><path d="M3.998 45.998v1c0 7.203 5.8 13.004 13.004 13.004h29.996c7.203 0 13.004-5.8 13.004-13.004v-1c0 7.203-5.8 13.002-13.004 13.002H17.002A12.975 12.975 0 0 1 3.998 45.998" opacity=".5"/><path fill="#fff" d="M3.998 18.004v-1C3.998 9.801 9.798 4 17.002 4h29.996c7.203 0 13.004 5.8 13.004 13.004v1c0-7.203-5.8-13.002-13.004-13.002H17.002A12.975 12.975 0 0 0 3.998 18.004" opacity=".15"/><path fill="#fff" d="M28 11c-1.108 0-2 .892-2 2h-2c-2.216 0-4 1.784-4 4v32c0 2.216 1.784 4 4 4h16c2.216 0 4-1.784 4-4V17c0-2.216-1.784-4-4-4h-2c0-1.108-.892-2-2-2z" style="paint-order:fill markers stroke"/><rect width="20" height="36" x="22" y="15" fill="#4d4d4d" rx="2" ry="2" style="paint-order:fill markers stroke"/><rect width="18" height="6" x="23" y="16.467" filter="url(#a)" opacity=".1" rx="1" ry="1" style="paint-order:fill markers stroke"/><rect width="18" height="6" x="23" y="16" fill="#bfd765" rx="1" ry="1" style="paint-order:fill markers stroke"/><rect width="18" height="6" x="23" y="23.467" filter="url(#a)" opacity=".1" rx="1" ry="1" style="paint-order:fill markers stroke"/><rect width="18" height="6" x="23" y="23" fill="#98c94e" rx="1" ry="1" style="paint-order:fill markers stroke"/><rect width="18" height="6" x="23" y="30.467" filter="url(#a)" opacity=".1" rx="1" ry="1" style="paint-order:fill markers stroke"/><rect width="18" height="6" x="23" y="30" fill="#98c94e" rx="1" ry="1" style="paint-order:fill markers stroke"/><rect width="18" height="6" x="23" y="37.467" filter="url(#a)" opacity=".1" rx="1" ry="1" style="paint-order:fill markers stroke"/><rect width="18" height="6" x="23" y="37" fill="#98c94e" rx="1" ry="1" style="paint-order:fill markers stroke"/><rect width="18" height="6" x="23" y="44.467" filter="url(#a)" opacity=".1" rx="1" ry="1" style="paint-order:fill markers stroke"/><rect width="18" height="6" x="23" y="44" fill="#98c94e" rx="1" ry="1" style="paint-order:fill markers stroke"/></svg>