<svg xmlns="http://www.w3.org/2000/svg" image-rendering="optimizeSpeed" viewBox="0 0 64 64"><rect width="56.002" height="56.002" x="4" y="3.969" fill="#4d4d4d" rx="13.002" ry="13.002"/><path fill="#fff" d="m40.384 34.728-2.788.02-.04-5.576 2.788-.02a5.576 5.576 0 1 0-5.616-5.535l.02 2.788-5.576.04-.02-2.788a5.576 5.576 0 1 0-5.536 5.616l2.788-.02.04 5.576-2.788.02a5.576 5.576 0 1 0 5.616 5.535l-.02-2.788 5.576-.04.02 2.781v.007a5.576 5.576 0 1 0 5.536-5.616m-.1-13.94a2.788 2.788 0 0 1 .04 5.576l-2.788.02-.02-2.788a2.79 2.79 0 0 1 2.767-2.808zm-19.496 2.929a2.788 2.788 0 0 1 5.576-.04l.02 2.787-2.788.02a2.79 2.79 0 0 1-2.808-2.767m2.93 19.495a2.788 2.788 0 0 1-.041-5.576l2.788-.02.02 2.788a2.79 2.79 0 0 1-2.768 2.808zm5.515-8.404-.04-5.576 5.575-.04.04 5.576zm11.212 8.283a2.79 2.79 0 0 1-2.808-2.768l-.02-2.788 2.787-.02a2.788 2.788 0 0 1 .04 5.576z"/><path d="M3.998 45.998v1c0 7.203 5.8 13.004 13.004 13.004h29.996c7.203 0 13.004-5.8 13.004-13.004v-1c0 7.203-5.8 13.002-13.004 13.002H17.002A12.975 12.975 0 0 1 3.998 45.998" opacity=".5"/><path fill="#fff" d="M3.998 18.004v-1C3.998 9.801 9.798 4 17.002 4h29.996c7.203 0 13.004 5.8 13.004 13.004v1c0-7.203-5.8-13.002-13.004-13.002H17.002A12.975 12.975 0 0 0 3.998 18.004" opacity=".15"/></svg>