<svg xmlns="http://www.w3.org/2000/svg" xml:space="preserve" viewBox="0 0 64 64"><rect width="56.002" height="56.002" x="4" y="3.969" fill="#f2f2f2" rx="13.002" ry="13.002"/><path d="M3.998 45.998v1c0 7.203 5.8 13.004 13.004 13.004h29.996c7.203 0 13.004-5.8 13.004-13.004v-1c0 7.203-5.8 13.002-13.004 13.002H17.002A12.975 12.975 0 0 1 3.998 45.998" opacity=".1"/><path fill="#fff" d="M3.998 18.004v-1C3.998 9.801 9.798 4 17.002 4h29.996c7.203 0 13.004 5.8 13.004 13.004v1c0-7.203-5.8-13.002-13.004-13.002H17.002A12.975 12.975 0 0 0 3.998 18.004" opacity=".5"/><path d="M16 24v7h2v-5h5v-2zm19 0v2h5v5h2v-7ZM16 43v7h7v-2h-5v-5zm24 0v5h-5v2h7v-7z" style="fill:#056494;fill-opacity:1" transform="translate(-3.692 -13.538)scale(1.23077)"/><path d="M43.134-3.535h2v8h-2z" style="fill:#056494;fill-opacity:1" transform="rotate(45 14.496 -11.226)scale(1.23077)"/><path d="m22 31 6 7v6h-4v2h10v-2h-4v-6l6-7z" style="fill:#056494;fill-opacity:1" transform="translate(-3.692 -13.538)scale(1.23077)"/></svg>