<svg xmlns="http://www.w3.org/2000/svg" image-rendering="optimizeSpeed" viewBox="0 0 64 64"><rect width="56.002" height="56.002" x="4" y="3.969" fill="#1ca5f1" rx="13.002" ry="13.002"/><circle cx="32.02" cy="32.044" r="30.001" fill="none"/><path fill="#fff" d="M30.675 12.148a1.862 1.862 0 0 0-2.072 1.85v13.37l-5.572-4.503a1.861 1.861 0 1 0-2.339 2.897l7.722 6.242-7.722 6.241a1.861 1.861 0 1 0 2.34 2.894l5.57-4.503v13.367a1.862 1.862 0 0 0 3.027 1.452l11.674-9.36a1.86 1.86 0 0 0 0-2.904l-8.969-7.19 8.969-7.19a1.86 1.86 0 0 0 0-2.908l-11.674-9.357a1.87 1.87 0 0 0-.954-.398m1.649 5.729 6.84 5.482-6.84 5.479zm0 17.285 6.84 5.482-6.84 5.479z"/><path d="M3.998 45.998v1c0 7.203 5.8 13.004 13.004 13.004h29.996c7.203 0 13.004-5.8 13.004-13.004v-1c0 7.203-5.8 13.002-13.004 13.002H17.002A12.975 12.975 0 0 1 3.998 45.998" opacity=".15"/><path fill="#fff" d="M3.998 18.004v-1C3.998 9.801 9.798 4 17.002 4h29.996c7.203 0 13.004 5.8 13.004 13.004v1c0-7.203-5.8-13.002-13.004-13.002H17.002A12.975 12.975 0 0 0 3.998 18.004" opacity=".15"/></svg>