<svg xmlns="http://www.w3.org/2000/svg" viewBox="0 0 16.933 16.933"><defs><linearGradient id="a" x1="8.202" x2="8.202" y1="10.848" y2="6.35" gradientTransform="scale(.26458)" gradientUnits="userSpaceOnUse"><stop offset="0" stop-color="#f24236"/><stop offset="1" stop-color="#fe6b62"/></linearGradient></defs><rect width="14.817" height="14.817" x="1.058" y="1.05" fill="#f2f2f2" rx="3.44" ry="3.44"/><path d="M4.498 1.05a3.43 3.43 0 0 0-3.44 3.44v3.976h14.817V4.49a3.43 3.43 0 0 0-3.44-3.44z" opacity=".1"/><path fill="url(#a)" d="M8.124 11.04h-3.46v-.591L5.99 9.1q.39-.397.649-.685.26-.296.39-.562.13-.274.13-.592 0-.389-.232-.59t-.598-.203q-.353 0-.634.13t-.584.375L4.7 6.462q.31-.26.706-.447.397-.194.945-.194.735 0 1.153.374.426.375.426 1.003 0 .41-.166.764-.166.346-.469.692t-.714.742l-.958.93v.036h2.501zm.685-2.191q0-.447.058-.88.064-.44.216-.822.158-.39.432-.685t.692-.461q.426-.173 1.024-.173.152 0 .339.014t.317.044v.641q-.274-.086-.62-.086-.497 0-.822.151t-.511.418-.274.62q-.087.353-.109.757h.044q.158-.26.447-.432t.742-.173q.67 0 1.074.418.411.41.411 1.168 0 .814-.454 1.283-.447.461-1.218.461-.498 0-.909-.245-.403-.245-.641-.742-.238-.505-.238-1.276m1.78 1.629q.412 0 .671-.267.26-.274.26-.843 0-.455-.231-.721-.224-.267-.678-.267-.31 0-.54.13t-.36.331q-.13.202-.13.411 0 .296.115.577t.338.469q.224.18.556.18z" aria-label="26"/><path fill="#333" d="M2.514 7.144c.22 0 .396.177.396.396v1.853a.396.396 0 1 1-.793 0V7.54c0-.22.177-.396.397-.396"/><path d="M2.514 7.144a.396.396 0 0 0-.397.397v1.852a.396.396 0 1 0 .793 0V7.54a.396.396 0 0 0-.396-.397zm0 .04c.202 0 .366.172.366.385v1.795a.375.375 0 0 1-.366.385.375.375 0 0 1-.367-.385V7.57c0-.213.164-.385.367-.385z" opacity=".25"/><path fill="#333" d="M14.42 7.144c.22 0 .396.177.396.396v1.853a.396.396 0 1 1-.793 0V7.54c0-.22.177-.396.397-.396"/><path d="M14.42 7.144a.396.396 0 0 0-.397.397v1.852a.396.396 0 1 0 .793 0V7.54a.396.396 0 0 0-.396-.397zm0 .04c.202 0 .366.172.366.385v1.795a.375.375 0 0 1-.366.385.375.375 0 0 1-.367-.385V7.57c0-.213.164-.385.367-.385z" opacity=".25"/><path d="M1.058 12.17v.265a3.433 3.433 0 0 0 3.44 3.44h7.937a3.433 3.433 0 0 0 3.44-3.44v-.265a3.433 3.433 0 0 1-3.44 3.44H4.498a3.433 3.433 0 0 1-3.44-3.44" opacity=".15"/><path fill="#fff" d="M1.058 4.763V4.5a3.433 3.433 0 0 1 3.44-3.44h7.937a3.433 3.433 0 0 1 3.44 3.44v.264a3.433 3.433 0 0 0-3.44-3.44H4.498a3.433 3.433 0 0 0-3.44 3.44z" opacity=".15"/></svg>