<svg xmlns="http://www.w3.org/2000/svg" viewBox="0 0 64 64"><rect width="56.002" height="56.002" x="4" y="3.969" fill="#b035b3" rx="13.002" ry="13.002"/><path fill="#fff" d="M17.002 8.97c-4.432 0-8 3.569-8 8v30c0 4.432 3.568 8 8 8H47c4.432 0 8-3.568 8-8v-30c0-4.432-3.568-8-8-8zm0 1.03H45v3H12.969v1H45v3H13.568v1H45v35.26h1V18h3v32.193h1V18h3.97v28.969a6.956 6.956 0 0 1-6.97 6.97H17.002a6.956 6.956 0 0 1-6.97-6.97V16.971a6.956 6.956 0 0 1 6.97-6.97zM46 10h1a7 7 0 0 1 2 .293V13h-3zm4 .682A6.96 6.96 0 0 1 52.732 13H50zM46 14h3v3h-3zm4 0h3.303a7 7 0 0 1 .668 2.97V17H50z" opacity=".25"/><path fill="#f2f2f2" d="M17 7C11.46 7 7 11.46 7 17v30a9.976 9.976 0 0 0 8.969 9.947c.58-.02 1.133-.037 1.449-.006h.002q.586.06 1.19.059H47c5.54 0 10-4.46 10-10V29.348C57 23.991 40.035 7 34.678 7H18.61z" style="fill:#e6e6e6"/><g fill="#eab2f3" stroke="#8e03a3" stroke-width=".834" color="#000"><path d="M332.74 90.105v4.003c0 1.934 5.04 3.502 11.258 3.502s11.258-1.568 11.258-3.502v-4.003z" transform="matrix(1.1992 0 0 1.2002 -380.53 -71.656)"/><path d="M1259.7-868.57v4.003c0 1.934 5.04 3.502 11.258 3.502s11.258-1.568 11.258-3.502v-4.003z" transform="matrix(1.1992 0 0 1.2002 -1492.188 1073.323)"/><g transform="matrix(1.17393 0 0 1.20104 -438.751 1073.776)"><path stroke-width=".842" d="M389.5-872.96v4c0 1.933 5.149 3.5 11.5 3.5s11.5-1.567 11.5-3.5v-4z"/><ellipse cx="519.69" cy="730.31" stroke-width="1.5" rx="22.438" ry="5.688" transform="matrix(.51254 0 0 .61538 134.64 -1323.2)"/></g></g><path fill="#fff" d="M34.678 7.028c3.571.893 4.464 6.25 5.357 9.82.866 3.466 2.838 5.844 8.036 7.144 3.57.892 7.142.571 8.928 5.357 0-.022-.004-.044-.004-.065C56.898 23.038 42.17 8.09 35.381 7.059a10 10 0 0 0-.702-.031z"/></svg>