<svg xmlns="http://www.w3.org/2000/svg" viewBox="0 0 64 64"><rect width="56" height="56" x="4" y="4" fill="#4d4d4d" rx="13.002" ry="13.002"/><path fill="#eee" d="M15.755 14a1.75 1.75 0 0 0-1.754 1.752V23H21.5v-8.997H23V23h7.498v-8.998h1.498V23h7.505v-8.998h1.498V23h8.999v-7.248c0-.97-.781-1.752-1.752-1.752zm-1.754 10.5v7.497H21.5V24.5zm8.999 0v7.497h7.498V24.5zm8.996 0v7.497h7.505V24.5zm9.003 0v7.497h8.999V24.5zm-26.998 8.997v7.506H21.5v-7.506zm8.999 0v7.506h7.498v-7.506zm8.996 0v7.506h7.505v-7.506zm9.003 0v7.506h8.999v-7.506zm-26.998 9.004v5.747c0 .97.783 1.752 1.754 1.752H21.5v-7.499zm8.999 0v7.5h7.498v-7.5zm8.996 0v7.5h7.505v-7.5zm9.003 0v7.5h7.247c.971 0 1.752-.782 1.752-1.753v-5.747z"/><path fill="#d7d7d7" d="M15.733 14.002A1.75 1.75 0 0 0 14 15.752v7.25h7.494v-9z"/><path fill="#d71e1e" d="M31.996 24.502h7.499v7.5h-7.499z"/><path fill="#fa884c" d="M31.996 14.001h7.499v9.001h-7.499z"/><path fill="#7fde59" d="M41 33.503h9v7.5h-9z"/><path fill="#b9b9b9" d="M22.996 33.503h7.499v7.5h-7.499z"/><path d="M3.998 45.998v1c0 7.203 5.8 13.004 13.004 13.004h29.996c7.203 0 13.004-5.8 13.004-13.004v-1c0 7.203-5.8 13.002-13.004 13.002H17.002A12.975 12.975 0 0 1 3.998 45.998" opacity=".5"/><path fill="#fff" d="M3.998 18.004v-1C3.998 9.801 9.798 4 17.002 4h29.996c7.203 0 13.004 5.8 13.004 13.004v1c0-7.203-5.8-13.002-13.004-13.002H17.002A12.975 12.975 0 0 0 3.998 18.004" opacity=".15"/></svg>