<svg xmlns="http://www.w3.org/2000/svg" xmlns:xlink="http://www.w3.org/1999/xlink" width="64" height="64"><defs><linearGradient id="a" x1="409.57" x2="409.94" y1="542.8" y2="504.19" gradientTransform="matrix(.54543 0 0 .5294 -200.12 -253.45)" gradientUnits="userSpaceOnUse"><stop offset="0" stop-color="#86d0fb"/><stop offset="1" stop-color="#2794f5"/></linearGradient><linearGradient xlink:href="#a" id="d" x1="409.57" x2="409.94" y1="542.8" y2="504.19" gradientTransform="matrix(.54543 0 0 .35293 -190.78 -141.22)" gradientUnits="userSpaceOnUse"/><linearGradient xlink:href="#a" id="e" x1="409.57" x2="409.94" y1="542.8" y2="504.19" gradientTransform="matrix(.40907 0 0 .5294 -121.14 -251.83)" gradientUnits="userSpaceOnUse"/><linearGradient xlink:href="#a" id="c" x1="409.57" x2="409.94" y1="542.8" y2="504.19" gradientTransform="matrix(.54543 0 0 .5294 -200.85 -251.83)" gradientUnits="userSpaceOnUse"/><linearGradient id="b" x1="7.937" x2="7.937" y1="15.274" y2="1.525" gradientTransform="scale(3.7796)" gradientUnits="userSpaceOnUse"><stop offset="0" stop-color="#2e2e2e"/><stop offset="1" stop-color="#4e4e4e"/></linearGradient></defs><rect width="56.002" height="56.002" x="4" y="3.969" fill="url(#b)" rx="13.002" ry="13.002"/><circle cx="32.02" cy="32.044" r="30.001" fill="none"/><g stroke-width=".808"><rect width="24" height="18" x="10" y="17" fill="url(#c)" ry=".847"/><rect width="24" height="12" x="20.078" y="38" fill="url(#d)" ry=".565"/><rect width="18" height="18" x="37" y="17" fill="url(#e)" ry=".847"/></g><path fill="#fff" d="M10.848 17a.846.846 0 0 0-.848.848V20h24v-2.152a.846.846 0 0 0-.847-.848zm27 0a.846.846 0 0 0-.848.848V20h18v-2.152a.846.846 0 0 0-.847-.848zM20.643 38a.563.563 0 0 0-.564.564V41h24v-2.436a.563.563 0 0 0-.565-.564h-22.87z" opacity=".25"/></svg>