<svg xmlns="http://www.w3.org/2000/svg" viewBox="0 0 64 64"><rect width="56.002" height="56.002" x="4" y="3.969" fill="#474747" rx="13.002" ry="13.002"/><path fill="#fff" d="M17.002 6a10.94 10.94 0 0 0-10.555 8h17.678V8.375h-2.812V6zM29.75 6v7.254a3.938 3.938 0 0 0 0 7.117v8.817l6.188 6.187h1.687V36.5h9v-1.125h11.346V32H46.625v-1.125h-9V32h-.562l-3.938-3.937V20.37a3.938 3.938 0 0 0 0-7.117V6zm7.875 0v8h9v-1.125h10.553A10.94 10.94 0 0 0 47 6zm-22.5 13.625v1.125H6.031v3.375h9.094v1.125h9v-5.625zm22.5 0v5.625h9v-1.125h11.346V20.75H46.625v-1.125zM9.846 30.313a3.375 3.375 0 1 0 2.924 5.065h3.264V36.5h9v-1.125h.779l3.937 3.937V57.94h3.375V38.19l-6.187-6.187h-1.905v-1.126h-9v1.125H12.77a3.37 3.37 0 0 0-2.924-1.687zm39.029 8.44-1.125 1.125h-8.437l-1.688 1.685V57.94H47a10.947 10.947 0 0 0 10.971-10.971v-8.217zM11.187 41l-1.125 1.125H6.031v4.843A10.947 10.947 0 0 0 17 57.94h8.247V43.813l-1.686-1.687h-7.875L14.562 41z" opacity=".35"/><path d="M3.998 45.998v1c0 7.203 5.8 13.004 13.004 13.004h29.996c7.203 0 13.004-5.8 13.004-13.004v-1c0 7.203-5.8 13.002-13.004 13.002H17.002A12.975 12.975 0 0 1 3.998 45.998" opacity=".12"/><path fill="#fff" d="M3.998 18.004v-1C3.998 9.801 9.798 4 17.002 4h29.996c7.203 0 13.004 5.8 13.004 13.004v1c0-7.203-5.8-13.002-13.004-13.002H17.002A12.975 12.975 0 0 0 3.998 18.004" opacity=".2"/></svg>