<svg xmlns="http://www.w3.org/2000/svg" viewBox="0 0 64 64"><rect width="56.002" height="56.002" x="4" y="3.969" fill="#f95" rx="13.002" ry="13.002"/><circle cx="32.02" cy="32.044" r="30.001" fill="none"/><path fill="#fff" d="M3.998 18.004v-1C3.998 9.801 9.798 4 17.002 4h29.996c7.203 0 13.004 5.8 13.004 13.004v1c0-7.203-5.8-13.002-13.004-13.002H17.002A12.975 12.975 0 0 0 3.998 18.004" opacity=".15"/><path fill="#fff" d="M33 33v26.971h14a12.974 12.974 0 0 0 13.002-13.002V33z" opacity=".35" style="paint-order:stroke fill markers"/><path fill="#fff" fill-rule="evenodd" d="M20 20v-3h3v3h3v3h-3v3h-3v-3h-3v-3zm27 3h-9v-3h9zm-9 18.5h9v-3h-9zm9 5h-9v-3h9zm-29.879-6.257 2.121 2.121-2.121 2.121 2.121 2.122 2.122-2.122 2.121 2.122 2.121-2.122-2.121-2.121 2.121-2.121-2.121-2.122-2.121 2.122-2.122-2.122z" clip-rule="evenodd"/><path d="M3.998 45.998v1c0 7.203 5.8 13.004 13.004 13.004h29.996c7.203 0 13.004-5.8 13.004-13.004v-1c0 7.203-5.8 13.002-13.004 13.002H17.002A12.975 12.975 0 0 1 3.998 45.998" opacity=".15"/><path fill="#ff7f2a" d="M31 3.969v27.03H4v2h27v26.972h2V33h27.002v-2H33V3.969z" opacity=".5" style="paint-order:stroke fill markers"/></svg>