<svg xmlns="http://www.w3.org/2000/svg" image-rendering="optimizeSpeed" viewBox="0 0 64 64"><rect width="56.002" height="56.002" x="4" y="3.969" fill="#4d4d4d" rx="13.002" ry="13.002"/><path fill="#ff8080" d="M19.5 12c-.277 0-.5.223-.5.5v39a.499.499 0 1 0 1 0v-39c0-.277-.223-.5-.5-.5m4 2c-.277 0-.5.223-.5.5v35a.499.499 0 1 0 1 0v-35c0-.277-.223-.5-.5-.5m-2 2c-.277 0-.5.223-.5.5v31a.499.499 0 1 0 1 0v-31c0-.277-.223-.5-.5-.5m4 3c-.277 0-.5.223-.5.5v25a.499.499 0 1 0 1 0v-25c0-.277-.223-.5-.5-.5m-10 1c-.277 0-.5.223-.5.5v23a.499.499 0 1 0 1 0v-23c0-.277-.223-.5-.5-.5m2 1c-.277 0-.5.223-.5.5v21a.499.499 0 1 0 1 0v-21c0-.277-.223-.5-.5-.5m-6 1c-.277 0-.5.32-.5.715v18.57c0 .396.223.715.5.715s.5-.32.5-.715v-18.57c0-.396-.223-.715-.5-.715m2 4c-.277 0-.5.223-.5.5v11a.499.499 0 1 0 1 0v-11c0-.277-.223-.5-.5-.5m16 1c-.277 0-.5.223-.5.5v9a.499.499 0 1 0 1 0v-9c0-.277-.223-.5-.5-.5m-20 1c-.277 0-.5.223-.5.5v7a.499.499 0 1 0 1 0v-7c0-.277-.223-.5-.5-.5m18 1c-.277 0-.5.223-.5.5v5a.499.499 0 1 0 1 0v-5c0-.277-.223-.5-.5-.5m-20 1c-.277 0-.5.223-.5.5v3a.499.499 0 1 0 1 0v-3c0-.277-.223-.5-.5-.5m-2.025 1a.5.5 0 0 0-.475.5v1a.499.499 0 1 0 1 0v-1c0-.277-.223-.5-.5-.5z"/><path fill="#69aeff" d="M31.5 7A1.5 1.5 0 0 0 30 8.5a1.5 1.5 0 0 0 1 1.412v44.176a1.5 1.5 0 0 0-1 1.412 1.5 1.5 0 0 0 1.5 1.5 1.5 1.5 0 0 0 1.5-1.5 1.5 1.5 0 0 0-1-1.412V9.912A1.5 1.5 0 0 0 33 8.5 1.5 1.5 0 0 0 31.5 7"/><path fill="#fff" d="M33.5 26c.277 0 .5.223.5.5v11a.499.499 0 1 1-1 0v-11c0-.277.223-.5.5-.5m2 3c.277 0 .5.223.5.5v5a.499.499 0 1 1-1 0v-5c0-.277.223-.5.5-.5m2-1c.277 0 .5.223.5.5v7a.499.499 0 1 1-1 0v-7c0-.277.223-.5.5-.5m2 0c.277 0 .5.223.5.5v7a.499.499 0 1 1-1 0v-7c0-.277.223-.5.5-.5m2 1c.277 0 .5.223.5.5v5a.499.499 0 1 1-1 0v-5c0-.277.223-.5.5-.5m2 1c.277 0 .5.223.5.5v3a.499.499 0 1 1-1 0v-3c0-.277.223-.5.5-.5m2 0c.277 0 .5.223.5.5v3a.499.499 0 1 1-1 0v-3c0-.277.223-.5.5-.5m2-2c.277 0 .5.223.5.5v7a.499.499 0 1 1-1 0v-7c0-.277.223-.5.5-.5m2 1c.277 0 .5.223.5.5v5a.499.499 0 1 1-1 0v-5c0-.277.223-.5.5-.5m2-2c.277 0 .5.223.5.5v9a.499.499 0 1 1-1 0v-9c0-.277.223-.5.5-.5m2 3c.277 0 .5.223.5.5v3a.499.499 0 1 1-1 0v-3c0-.277.223-.5.5-.5m2 1c.277 0 .5.223.5.5v1a.499.499 0 1 1-1 0v-1c0-.277.223-.5.5-.5m2 0c.277 0 .5.223.5.5v1a.499.499 0 1 1-1 0v-1c0-.277.223-.5.5-.5"/><path d="M3.998 45.998v1c0 7.203 5.8 13.004 13.004 13.004h29.996c7.203 0 13.004-5.8 13.004-13.004v-1c0 7.203-5.8 13.002-13.004 13.002H17.002A12.975 12.975 0 0 1 3.998 45.998" opacity=".5"/><circle cx="45.985" cy="46" r="16" fill="#fe5555" style="paint-order:stroke markers fill"/><g fill="#fff" stroke-width="2.184" transform="translate(-.014)"><rect width="8.001" height="13.335" x="42" y="39" rx="3.999" ry="3.999" style="paint-order:stroke markers fill"/><path d="M40.334 47.996a.333.333 0 0 0-.335.335l.005.04a6 6 0 0 0 5.997 5.96A6 6 0 0 0 52 48.364v-.035a.333.333 0 0 0-.333-.333.333.333 0 0 0-.333.333 5.33 5.33 0 0 1-5.332 5.334 5.33 5.33 0 0 1-5.332-5.334h-.005a.333.333 0 0 0-.33-.333z" style="paint-order:stroke markers fill"/></g><g fill="none"><path d="M29.985 43.168h32v10.907h-32z"/><g stroke="#fff" stroke-opacity=".937" stroke-width=".266"><path d="M30.075 43.957s2.244-.096 4.282 4.803c1.568 3.591 3.775 5.184 6.448 5.31 3.442.163 6.217-2.852 8.045-5.547 3.726-5.494 10.498-4.125 13.117-2.768" opacity=".35"/><path d="M30.024 45.15s4.102-1.74 6.42 1.852c1.679 2.659 3.665 6.669 9.417 6.301 3.438-.22 6.876-1.651 8.648-5 3.229-6.087 6.382-5.37 7.329-4.46" opacity=".35"/><path d="M30.55 50.143s3.886-3.059 9.63-1.383c3.018.882 6.832 4.296 14.087 3.498 1.916-.209 3.54-1.31 5.077-3.405 1.612-2.294 2.635-2.464 2.635-2.464" opacity=".35"/></g></g><path fill="#fff" d="M3.998 18.004v-1C3.998 9.801 9.798 4 17.002 4h29.996c7.203 0 13.004 5.8 13.004 13.004v1c0-7.203-5.8-13.002-13.004-13.002H17.002A12.975 12.975 0 0 0 3.998 18.004" opacity=".15"/></svg>