<svg xmlns="http://www.w3.org/2000/svg" viewBox="0 0 64 64"><rect width="56.002" height="56.002" x="4" y="3.969" fill="#53c9ff" rx="13.002" ry="13.002"/><g fill="#fff" stroke-width="15.938"><path d="M32.126 25.606a6.5 6.5 0 0 1 6.493 6.493.936.936 0 0 0 1.871 0c0-4.613-3.752-8.365-8.364-8.365S23.76 27.486 23.76 32.1s3.753 8.364 8.365 8.364a8.4 8.4 0 0 0 7.226-4.15.936.936 0 0 0-1.616-.944 6.52 6.52 0 0 1-5.61 3.223c-3.58 0-6.493-2.913-6.493-6.493s2.913-6.493 6.493-6.493z"/><path d="M48.142 30.86c-.586-7.807-6.913-14.158-14.715-14.773a16.08 16.08 0 0 0-12.66 4.653 16.08 16.08 0 0 0-4.653 12.66c.613 7.773 6.937 14.097 14.71 14.71q.643.05 1.281.05a16.07 16.07 0 0 0 11.379-4.703.936.936 0 0 0-1.323-1.323 14.21 14.21 0 0 1-11.19 4.11c-6.865-.54-12.45-6.126-12.992-12.992a14.22 14.22 0 0 1 4.111-11.189 14.21 14.21 0 0 1 11.19-4.11c6.89.543 12.478 6.152 12.996 13.047.07.944.05 1.893-.062 2.82a2.98 2.98 0 0 1-1.592 2.295c-.795.41-1.687.409-2.45-.004a.935.935 0 1 0-.891 1.645c1.315.713 2.846.72 4.2.021a4.85 4.85 0 0 0 2.59-3.732c.127-1.048.15-2.12.07-3.185z"/></g><path d="M3.998 45.998v1c0 7.203 5.8 13.004 13.004 13.004h29.996c7.203 0 13.004-5.8 13.004-13.004v-1c0 7.203-5.8 13.002-13.004 13.002H17.002A12.975 12.975 0 0 1 3.998 45.998" opacity=".15"/><path fill="#fff" d="M3.998 18.004v-1C3.998 9.801 9.798 4 17.002 4h29.996c7.203 0 13.004 5.8 13.004 13.004v1c0-7.203-5.8-13.002-13.004-13.002H17.002A12.975 12.975 0 0 0 3.998 18.004" opacity=".15"/></svg>