<svg xmlns="http://www.w3.org/2000/svg" viewBox="0 0 64 64"><rect width="56.002" height="56.002" x="4" y="3.969" fill="#f2f2f2" rx="13.002" ry="13.002"/><path d="M3.998 45.998v1c0 7.203 5.8 13.004 13.004 13.004h29.996c7.203 0 13.004-5.8 13.004-13.004v-1c0 7.203-5.8 13.002-13.004 13.002H17.002A12.975 12.975 0 0 1 3.998 45.998" opacity=".1"/><path fill="#fff" d="M3.998 18.004v-1C3.998 9.801 9.798 4 17.002 4h29.996c7.203 0 13.004 5.8 13.004 13.004v1c0-7.203-5.8-13.002-13.004-13.002H17.002A12.975 12.975 0 0 0 3.998 18.004" opacity=".5"/><g stroke-width=".32"><path fill="#29a46c" d="M27.06 13.76h9.88a3.04 3.04 0 0 1 3.04 3.04v9.88a3.04 3.04 0 0 1-3.04 3.04h-9.88a3.04 3.04 0 0 1-3.04-3.04V16.8a3.04 3.04 0 0 1 3.04-3.04"/><path fill="#57e389" d="M27.06 11.48h9.88a3.04 3.04 0 0 1 3.04 3.04v9.88a3.04 3.04 0 0 1-3.04 3.04h-9.88a3.04 3.04 0 0 1-3.04-3.04v-9.88a3.04 3.04 0 0 1 3.04-3.04"/><path fill="gray" d="M36.93 27.992a1.175 1.175 0 0 1 1.607.43l2.562 4.439a1.175 1.175 0 1 1-2.037 1.176L36.5 29.598a1.175 1.175 0 0 1 .43-1.606m-9.181 0a1.175 1.175 0 0 0-1.606.43l-2.562 4.439a1.175 1.175 0 1 0 2.036 1.176l2.562-4.439a1.175 1.175 0 0 0-.43-1.606"/><path fill="#8b49a5" d="M16.04 35.04h9.88a3.04 3.04 0 0 1 3.04 3.04v9.88A3.04 3.04 0 0 1 25.92 51h-9.88A3.04 3.04 0 0 1 13 47.96v-9.88a3.04 3.04 0 0 1 3.04-3.04"/><path fill="#dc8add" d="M16.04 32.76h9.88a3.04 3.04 0 0 1 3.04 3.04v9.88a3.04 3.04 0 0 1-3.04 3.04h-9.88A3.04 3.04 0 0 1 13 45.68V35.8a3.04 3.04 0 0 1 3.04-3.04"/><path fill="#ef7317" d="M38.08 35.04h9.88A3.04 3.04 0 0 1 51 38.08v9.88A3.04 3.04 0 0 1 47.96 51h-9.88a3.04 3.04 0 0 1-3.04-3.04v-9.88a3.04 3.04 0 0 1 3.04-3.04"/><path fill="#ffa348" d="M38.08 32.76h9.88A3.04 3.04 0 0 1 51 35.8v9.88a3.04 3.04 0 0 1-3.04 3.04h-9.88a3.04 3.04 0 0 1-3.04-3.04V35.8a3.04 3.04 0 0 1 3.04-3.04"/></g></svg>