<svg xmlns="http://www.w3.org/2000/svg" width="64" height="64"><defs><linearGradient id="a" x1="32" x2="32" y1="2" y2="62" gradientTransform="translate(83.833)" gradientUnits="userSpaceOnUse"><stop offset="0" stop-color="#e45757"/><stop offset=".225" stop-color="#df3a3a"/><stop offset=".225" stop-color="#e24a4a"/><stop offset=".461" stop-color="#ce2121"/><stop offset=".461" stop-color="#c52020"/><stop offset=".754" stop-color="#782323"/><stop offset=".754" stop-color="#9b3a3a"/><stop offset="1" stop-color="#5f2f2f"/></linearGradient><linearGradient id="b" x1="32" x2="32" y1="2" y2="62" gradientTransform="translate(83.833)" gradientUnits="userSpaceOnUse"><stop offset="0" stop-color="#e45757"/><stop offset=".225" stop-color="#dd4040"/><stop offset="1" stop-color="#b22727"/></linearGradient><linearGradient id="e" x1="45" x2="45" y1="27" y2="63" gradientUnits="userSpaceOnUse"><stop offset="0" stop-color="#f36565"/><stop offset="1" stop-color="#ee2929"/></linearGradient><filter id="c" width="1.072" height="1.072" x="-.036" y="-.036" color-interpolation-filters="sRGB"><feGaussianBlur stdDeviation=".72"/></filter><filter id="d" width="1.11" height="1.131" x="-.055" y="-.066" color-interpolation-filters="sRGB"><feGaussianBlur stdDeviation=".46"/></filter><filter id="f" width="1.132" height="1.11" x="-.066" y="-.055" color-interpolation-filters="sRGB"><feGaussianBlur stdDeviation=".46"/></filter></defs><rect width="56" height="56" x="4" y="4" fill="url(#a)" rx="13.002" ry="13.002"/><path fill="url(#b)" d="M25 4v56h21.998A12.974 12.974 0 0 0 60 46.998V17.002A12.974 12.974 0 0 0 46.998 4z"/><circle cx="32" cy="32" r="24" fill-rule="evenodd" filter="url(#c)" opacity=".15" style="paint-order:stroke fill markers" transform="matrix(.75 0 0 .75 21 21)"/><path d="M35 37.177h4.177l1.8 9.854 2.308-9.854h3.434l2.243 9.946 1.938-9.946H55L51.454 54h-4.252l-2.183-9.139L42.961 54H38.6z" filter="url(#d)" opacity=".25"/><circle cx="45" cy="45" r="18" fill="url(#e)" fill-rule="evenodd" style="paint-order:stroke fill markers"/><path d="M36.62 50.955s3.595-.989 3.64-1.169.135-9.887.135-9.887l7.056-1.663v14.427L37.16 51.225 47.586 55l5.794-1.818-.04-16.429L47.451 35l-10.697 4.045z" filter="url(#f)" opacity=".25"/><path fill="#fff" d="M36.62 50.955s3.595-.989 3.64-1.169.135-9.887.135-9.887l7.056-1.663v14.427L37.16 51.225 47.586 55l5.794-1.818-.04-16.429L47.451 35l-10.697 4.045z"/></svg>