<svg xmlns="http://www.w3.org/2000/svg" viewBox="0 0 16.933 16.933"><defs><linearGradient id="a" x1="8.466" x2="8.466" y1="6.805" y2="11.564" gradientTransform="matrix(.38956 0 0 .38184 -185.92 -63.431)" gradientUnits="userSpaceOnUse"><stop offset="0" stop-color="#fff" stop-opacity="0"/><stop offset="1" stop-color="#fff"/></linearGradient></defs><g transform="scale(.26458)"><rect width="64" height="64" fill="none" rx="0" ry="0" style="paint-order:stroke fill markers"/><rect width="56.002" height="56.002" x="4" y="3.969" fill="#f2f2f2" rx="13.002" ry="13.002"/></g><path d="M1.058 12.17v.265a3.433 3.433 0 0 0 3.44 3.44h7.937a3.433 3.433 0 0 0 3.44-3.44v-.265a3.433 3.433 0 0 1-3.44 3.44H4.498a3.433 3.433 0 0 1-3.44-3.44" opacity=".1"/><path fill="#fff" d="M1.058 4.763V4.5a3.433 3.433 0 0 1 3.44-3.44h7.937a3.433 3.433 0 0 1 3.44 3.44v.265a3.433 3.433 0 0 0-3.44-3.44H4.498a3.433 3.433 0 0 0-3.44 3.44z" opacity=".15"/><g transform="translate(-.106 -.263)scale(1.0126)"><path fill="#60c0f0" d="M4.053 4.328h1.901c.53 0 .552.02 1.088.444.491.371.668.303 1.315.303h4.523a.81.81 0 0 1 .813.813v4.863a.81.81 0 0 1-.813.813H4.053a.81.81 0 0 1-.812-.813v-5.61a.81.81 0 0 1 .812-.813"/><path d="M4.053 4.328h1.901c.53 0 .552.02 1.088.444.491.371.668.303 1.315.303h4.523a.81.81 0 0 1 .813.813v4.863a.81.81 0 0 1-.813.813H4.053a.81.81 0 0 1-.812-.813v-5.61a.81.81 0 0 1 .812-.813" opacity=".2"/><rect width="10.451" height="7.092" x="3.241" y="5.822" fill="#60c0f0" rx=".812" ry=".796"/><path fill="#fff" d="M4.053 5.822a.803.803 0 0 0-.812.796v.187c0-.441.362-.796.812-.796h8.827c.45 0 .812.355.812.796v-.187a.803.803 0 0 0-.812-.796z" opacity=".08"/><path d="M3.24 11.931v.187c0 .44.363.796.813.796h8.827c.45 0 .812-.355.812-.796v-.187a.803.803 0 0 1-.812.796H4.053a.803.803 0 0 1-.812-.796z" opacity=".15"/><path d="M4.053 5.635a.803.803 0 0 0-.812.796v.187c0-.441.362-.796.812-.796h8.827c.45 0 .812.355.812.796v-.187a.803.803 0 0 0-.812-.796z" opacity=".05"/><rect width="10.451" height="7.092" x="3.241" y="5.822" fill="url(#a)" opacity=".2" rx=".812" ry=".796"/></g></svg>