<svg xmlns="http://www.w3.org/2000/svg" width="64" height="64"><defs><linearGradient id="a" x1="17.793" x2="5.005" y1="17.852" y2="1.362" gradientTransform="scale(3.7796)" gradientUnits="userSpaceOnUse"><stop offset="0" stop-color="#0e71de" style="stop-color:#110241;stop-opacity:1"/><stop offset="1" stop-color="#25c9ff" style="stop-color:#5026da;stop-opacity:1"/></linearGradient></defs><rect width="56.002" height="56.002" x="4" y="3.969" fill="url(#a)" rx="13.002" ry="13.002" style="fill:url(#a)"/><path fill="#fff" d="M43 16c-3.931 0-7 2.926-7 6.766 0 1.645 3 1.645 3 0C39 20.57 40.038 19 43 19s4 1.571 4 3.766c0 1.645 3 1.645 3 0C50 18.926 46.931 16 43 16m0 5a1.996 1.996 0 1 0 0 3.99A1.996 1.996 0 1 0 43 21m-11 5c-2.078 0-4.527 1.255-5.658 2.82C25.21 27.255 23.078 26.2 21 26.2c-3.433 0-7 2.107-7 7.9v9.543S14 45 15.385 45C16.769 45 17 43.643 17 43.643V34.1c-.001-4.402 1.878-5.1 4-5.1s4 1.345 4 4.324v10.318S25.076 45 26.46 45 28 43.642 28 43.642V33.324C28 30.345 29.878 29 32 29c1.347 0 3.965.179 3.965 4.324l.08 3.522C36.045 43.356 40.222 45 43 45s6.915-1.92 7-7.68v-9.11c0-1.584-3-1.584-3 0v8.974C47 41.553 44.39 42 43 42s-3.996-.17-3.996-5.29l-.08-3.196C38.924 28.576 35.53 26 32 26"/></svg>