<svg xmlns="http://www.w3.org/2000/svg" width="64" height="64"><defs><linearGradient id="e" x1="511.51" x2="515.31" y1="983.01" y2="41.047" gradientTransform="translate(-16.058 3.667)scale(.11525)" gradientUnits="userSpaceOnUse"><stop offset="0" stop-color="#666"/><stop offset=".6" stop-color="#4d4d4d"/><stop offset="1" stop-color="#333"/></linearGradient><linearGradient id="a" x1="7.937" x2="7.937" y1="15.081" y2="1.852" gradientTransform="scale(3.7796)" gradientUnits="userSpaceOnUse"><stop offset="0" stop-color="#daf6ed"/><stop offset="1" stop-color="#fbfffd"/></linearGradient><linearGradient id="b" x1="7.937" x2="7.937" y1="15.081" y2="1.852" gradientTransform="scale(3.7796)" gradientUnits="userSpaceOnUse"><stop offset="0" stop-color="#ececec"/><stop offset="1" stop-color="#fff"/></linearGradient><filter id="c" width="1.359" height="1.04" x="-.179" y="-.02" color-interpolation-filters="sRGB"><feGaussianBlur stdDeviation=".15"/></filter><filter id="d" width="1.072" height="1.072" x="-.036" y="-.036" color-interpolation-filters="sRGB"><feGaussianBlur stdDeviation=".244"/></filter><radialGradient id="f" cx="118.51" cy="31.729" r="30" gradientTransform="matrix(.8 0 0 .8 -62.806 6.617)" gradientUnits="userSpaceOnUse"><stop offset="0" stop-opacity="0"/><stop offset=".84" stop-opacity=".15"/><stop offset="1" stop-opacity=".35"/></radialGradient></defs><linearGradient id="g" x1="-31.097" x2="-13.454" y1="213.99" y2="215.94" gradientTransform="rotate(-24.039 -190.044 -35.553)scale(.5)" gradientUnits="userSpaceOnUse"><stop offset="0" stop-color="#e01b24"/><stop offset="1" stop-color="#241f31" stop-opacity=".314"/></linearGradient><g stroke-width="3.78"><rect width="56.002" height="56.002" x="4" y="3.969" fill="url(#a)" rx="13.002" ry="13.002"/><path fill="url(#b)" d="M17.002 3.969A12.973 12.973 0 0 0 4 16.97v29.998A12.973 12.973 0 0 0 17.002 59.97H47a12.973 12.973 0 0 0 13.002-13.002V16.97A12.973 12.973 0 0 0 47 3.969ZM32 8a24 24 0 0 1 24 24 24 24 0 0 1-24 24A24 24 0 0 1 8 32 24 24 0 0 1 32 8"/><path d="M31.998 14.998A1 1 0 0 0 30.996 16l.004.07v15.916a1 1 0 0 0 1.002.99 1 1 0 0 0 1.002-1.001l-.004-.07V15.989a1 1 0 0 0-1.002-.99z" filter="url(#c)" opacity=".5" transform="matrix(.8 0 0 .8 6.4 6.4)"/><path d="m32.709 31.991 15.557 15.557-.71.707-15.558-15.557z" filter="url(#d)" opacity=".35" transform="matrix(.8 0 0 .8 6.4 6.4)"/></g><path fill="url(#e)" d="M32.002 56c13.254 0 24-10.746 24-24s-10.746-24-24-24-24 10.746-24 24 10.746 24 24 24" class="shp36"/><path fill="url(#f)" d="M32.002 56c13.254 0 24-10.746 24-24s-10.746-24-24-24-24 10.746-24 24 10.746 24 24 24" class="shp36"/><path fill="url(#g)" d="M20.619 18.441a20.16 20.16 0 0 1 13.168-5.096l.227 20.154z" transform="translate(-2 -1)"/><path fill="#f2f2f2" stroke="#fff" stroke-linecap="round" stroke-width="1.002" d="M31.5 32.457 19.008 18.002"/><path fill="#e6e6e6" fill-rule="evenodd" d="M34.334 31.964a1 1 0 0 0-1.006.994 1 1 0 0 0 .994 1.006l13.453.072a1 1 0 0 0 1.006-.994 1 1 0 0 0-.994-1.006z" color="#000" style="-inkscape-stroke:none" transform="translate(-2 -1)"/><path fill="#fff" d="M34.739 30.778a3 3 0 1 1-5.478 2.446 3 3 0 0 1 5.478-2.446"/><path fill="#666" d="M33.014 32a1 1 0 1 1-1.999.001A1 1 0 0 1 33.014 32"/></svg>