<svg xmlns="http://www.w3.org/2000/svg" viewBox="0 0 64 64"><rect width="56.002" height="56.002" x="4" y="3.969" fill="#1fb2f6" rx="13.002" ry="13.002"/><circle cx="32.02" cy="32.044" r="30.001" fill="none"/><path fill="#fff" d="M35.002 17.991c-6.055 0-11.056 4.956-11.056 11.011 0 2.3.777 4.413 2 6.192l-7.371 7.38a2.008 2.013 0 0 0 2.807 2.877l7.37-7.384a11.03 11.03 0 0 0 6.25 1.942A11.03 11.03 0 0 0 46 29.002a11.03 11.03 0 0 0-10.998-11.01zm0 4.003c3.893 0 7 3.111 7 7.008a6.97 6.97 0 0 1-7 7.005 6.97 6.97 0 0 1-6.995-7.004 6.967 6.967 0 0 1 6.995-7.009"/><path d="M3.998 45.998v1c0 7.203 5.8 13.004 13.004 13.004h29.996c7.203 0 13.004-5.8 13.004-13.004v-1c0 7.203-5.8 13.002-13.004 13.002H17.002A12.975 12.975 0 0 1 3.998 45.998" opacity=".15"/><path fill="#fff" d="M3.998 18.004v-1C3.998 9.801 9.798 4 17.002 4h29.996c7.203 0 13.004 5.8 13.004 13.004v1c0-7.203-5.8-13.002-13.004-13.002H17.002A12.975 12.975 0 0 0 3.998 18.004" opacity=".15"/></svg>