<svg xmlns="http://www.w3.org/2000/svg" viewBox="0 0 64 64"><defs><linearGradient id="a" x1="32" x2="32" y1="2" y2="62" gradientTransform="translate(83.833)" gradientUnits="userSpaceOnUse"><stop offset="0" stop-color="#e45757"/><stop offset=".225" stop-color="#df3a3a"/><stop offset=".225" stop-color="#e24a4a"/><stop offset=".461" stop-color="#ce2121"/><stop offset=".461" stop-color="#c52020"/><stop offset=".754" stop-color="#782323"/><stop offset=".754" stop-color="#9b3a3a"/><stop offset="1" stop-color="#5f2f2f"/></linearGradient><linearGradient id="b" x1="32" x2="32" y1="2" y2="62" gradientTransform="translate(83.833)" gradientUnits="userSpaceOnUse"><stop offset="0" stop-color="#e45757"/><stop offset=".225" stop-color="#dd4040"/><stop offset="1" stop-color="#b22727"/></linearGradient><linearGradient id="c" x1="45" x2="45" y1="27" y2="63" gradientUnits="userSpaceOnUse"><stop offset="0" stop-color="#f36565"/><stop offset="1" stop-color="#ee2929"/></linearGradient></defs><rect width="56" height="56" x="4" y="4" fill="url(#a)" rx="13.002" ry="13.002"/><path fill="url(#b)" d="M25 4v56h21.998A12.974 12.974 0 0 0 60 46.998V17.002A12.974 12.974 0 0 0 46.998 4z" style="fill:#d03838;fill-opacity:1"/><path d="M3.998 45.998v1c0 7.203 5.8 13.004 13.004 13.004h29.996c7.203 0 13.004-5.8 13.004-13.004v-1c0 7.203-5.8 13.002-13.004 13.002H17.002A12.975 12.975 0 0 1 3.998 45.998" opacity=".15"/><circle cx="45" cy="45" r="18" fill="url(#c)" fill-rule="evenodd" style="paint-order:stroke fill markers;fill:#f14747;fill-opacity:1"/><path fill="#fff" d="M36.62 50.955s3.595-.989 3.64-1.169.135-9.887.135-9.887l7.056-1.663v14.427L37.16 51.225 47.586 55l5.794-1.818-.04-16.429L47.451 35l-10.697 4.045z"/><path fill="#fff" d="M3.998 18.004v-1C3.998 9.801 9.798 4 17.002 4h29.996c7.203 0 13.004 5.8 13.004 13.004v1c0-7.203-5.8-13.002-13.004-13.002H17.002A12.975 12.975 0 0 0 3.998 18.004" opacity=".15"/></svg>