<svg xmlns="http://www.w3.org/2000/svg" viewBox="0 0 16.933 16.933"><rect width="14.817" height="14.817" x="1.058" y="1.058" fill="#276bda" rx="3.44" ry="3.44"/><path fill="#fff" d="M4.498 1.852a2.64 2.64 0 0 0-2.646 2.646v7.937a2.64 2.64 0 0 0 2.646 2.646h3.969v-5.027c0-.88.708-1.587 1.587-1.587h5.027v-3.97a2.64 2.64 0 0 0-2.646-2.645z"/><path fill="#333" d="M5.16 4.233a.13.13 0 0 0-.133.132v.927h-.926a.132.132 0 1 0 0 .264h.926v.926a.132.132 0 1 0 .265 0v-.926h.926a.132.132 0 1 0 0-.264h-.926v-.927a.13.13 0 0 0-.132-.132m7.804 1.191a.13.13 0 0 1-.132.132h-2.117a.132.132 0 1 1 0-.264h2.117c.073 0 .132.059.132.132M6.002 10.8a.13.13 0 0 0-.188 0l-.654.655-.655-.655a.132.132 0 1 0-.187.187l.655.655-.655.655a.132.132 0 1 0 .187.187l.655-.655.654.655a.132.132 0 1 0 .188-.187l-.655-.655.654-.655a.13.13 0 0 0 0-.187z"/><path fill="#fff" d="M13.229 11.245c0 .073-.066.132-.147.132H10.73c-.081 0-.147-.059-.147-.132s.066-.132.147-.132h2.352c.081 0 .147.059.147.132m0 1.322c0 .073-.066.132-.147.132H10.73c-.081 0-.147-.059-.147-.132s.066-.132.147-.132h2.352c.081 0 .147.059.147.132"/><path d="M1.058 12.17v.265a3.433 3.433 0 0 0 3.44 3.44h7.937a3.433 3.433 0 0 0 3.44-3.44v-.265a3.433 3.433 0 0 1-3.44 3.44H4.498a3.433 3.433 0 0 1-3.44-3.44" opacity=".15"/><path fill="#fff" d="M1.058 4.763V4.5a3.433 3.433 0 0 1 3.44-3.44h7.937a3.433 3.433 0 0 1 3.44 3.44v.264a3.433 3.433 0 0 0-3.44-3.44H4.498a3.433 3.433 0 0 0-3.44 3.44z" opacity=".15"/></svg>