<svg xmlns="http://www.w3.org/2000/svg" width="64" height="64" viewBox="0 0 16.933 16.933"><defs><linearGradient id="a" x1="7.937" x2="7.937" y1="15.081" y2="1.852" gradientUnits="userSpaceOnUse"><stop offset="0" stop-color="#f1efeb"/><stop offset="1" stop-color="#fdfcfc"/></linearGradient><linearGradient id="b" x1="8.249" x2="8.249" y1="5.405" y2="12.112" gradientUnits="userSpaceOnUse"><stop offset="0" stop-color="#0096f4"/><stop offset="1" stop-color="#00f4d5"/></linearGradient></defs><rect width="14.817" height="14.817" x="1.058" y="1.05" fill="url(#a)" rx="3.44" ry="3.44"/><path fill="url(#b)" d="M10.41 5.824c-.617.04-1.17.4-1.274.45-.332-.094-.71-.292-1.154-.367-1.533-.26-2.83.155-3.48.607-.854.592-.83 1.257-.9 1.533-.044.17-.432.486-.427.708.007.29.188.383.188.383.163-.013.406-.13.613-.214.308-.127.332-.196 1.174-.322a8 8 0 0 1 1.099-.077c.118.25.411.762.92 1.008.302.14.757.201.958.241l.587.087v-.238s-.494-.204-.797-.508c-.128-.128-.13-.28-.165-.434.468.088.884.155 1.87.533a6.1 6.1 0 0 1 1.529.853l.002.002v-.237l-.002-.002a5.5 5.5 0 0 0-1.714-1.327c-.884-.436-1.61-.651-2.616-.7-1.045-.05-1.74.07-1.815.083.09-.178.271-.486.758-.715.722-.338 1.857-.395 3.16-.062 1.841.47 2.469 1.348 3.26 2.175.843.879 1.57 2.356 1.572 2.358v.001l.002.004v-.24l-.007-.018a8.7 8.7 0 0 0-.624-1.512c-.487-.899-.906-1.541-1.604-2.194-.487-.363-.982-.857-.897-1.07.219-.29.813-.466.815-.466h.002v-.238s-.376-.128-1.033-.085m.737 4.24s.006.005 0 0"/></svg>