<svg xmlns="http://www.w3.org/2000/svg" viewBox="0 0 64 64"><rect width="56.002" height="56.002" x="4" y="3.969" fill="#4d4d4d" rx="13.002" ry="13.002"/><path d="M3.998 45.998v1c0 7.203 5.8 13.004 13.004 13.004h29.996c7.203 0 13.004-5.8 13.004-13.004v-1c0 7.203-5.8 13.002-13.004 13.002H17.002A12.975 12.975 0 0 1 3.998 45.998" opacity=".15"/><path fill="#fff" d="M3.998 18.004v-1C3.998 9.801 9.798 4 17.002 4h29.996c7.203 0 13.004 5.8 13.004 13.004v1c0-7.203-5.8-13.002-13.004-13.002H17.002A12.975 12.975 0 0 0 3.998 18.004" opacity=".1"/><g transform="translate(8.727 8.364)scale(.72727)"><path fill="#ffc107" d="M32 5a21.93 21.93 0 0 0-15.555 6.445l9.902 9.903A8 8 0 0 1 32 19z"/><path fill="#53dd22" d="M32 5v14a8 8 0 0 1 5.652 2.348l9.903-9.903A21.93 21.93 0 0 0 32 5"/><path fill="#ab47bc" d="m26.348 32.652-9.902 9.902A21.93 21.93 0 0 0 32 49v-4h-8l4.754-10.695a8 8 0 0 1-2.407-1.653z"/><path fill="#3f51b5" d="M37.652 32.652a8 8 0 0 1-2.406 1.648L40 45h-8v4a21.93 21.93 0 0 0 15.555-6.446z"/><path fill="#42fffd" d="m47.555 11.445-9.902 9.902A8 8 0 0 1 40 27h14a21.93 21.93 0 0 0-6.445-15.555"/><path fill="#039af4" d="M40 27a8 8 0 0 1-2.348 5.652l9.903 9.903A21.93 21.93 0 0 0 54 27z"/><path fill="#ff8e13" d="M16.445 11.445A21.93 21.93 0 0 0 10 27h14a8 8 0 0 1 2.347-5.652z"/><path fill="#fd3b2d" d="M10 27a21.93 21.93 0 0 0 6.445 15.555l9.903-9.902A8 8 0 0 1 24 27z"/><rect width="16" height="14" x="24" y="43" fill="#666" rx="2.667" ry="2.8"/><rect width="8" height="8" x="28" y="52" fill="#666" rx="1.333" ry="1.333"/></g></svg>