<svg xmlns="http://www.w3.org/2000/svg" image-rendering="optimizeSpeed" viewBox="0 0 64 64"><rect width="56.002" height="56.002" x="4" y="3.969" fill="#f2f2f2" rx="13.002" ry="13.002"/><path d="M3.998 45.998v1c0 7.203 5.8 13.004 13.004 13.004h29.996c7.203 0 13.004-5.8 13.004-13.004v-1c0 7.203-5.8 13.002-13.004 13.002H17.002A12.975 12.975 0 0 1 3.998 45.998" opacity=".1"/><path fill="#fff" d="M3.998 18.004v-1C3.998 9.801 9.798 4 17.002 4h29.996c7.203 0 13.004 5.8 13.004 13.004v1c0-7.203-5.8-13.002-13.004-13.002H17.002A12.975 12.975 0 0 0 3.998 18.004" opacity=".5"/><path fill="#fab962" d="m36.368 8.454-5.722 16.181 22.528-3.765A23.99 23.99 0 0 0 36.362 8.455"/><path fill="#f4d859" d="m54.656 24.396-16.967 3.168 14.55 17.501c3.883-6.054 4.886-13.684 2.417-20.67"/><path fill="#379b5a" d="M50.048 47.722 38.804 34.709l-7.985 21.268c7.22.312 14.374-2.639 19.23-8.256"/><path fill="#4c8ebe" d="m27.484 55.557 5.722-16.181-22.528 3.766A23.99 23.99 0 0 0 27.49 55.557"/><path fill="#a25fbe" d="m9.345 39.591 16.967-3.168-14.55-17.501c-3.883 6.054-4.889 13.684-2.418 20.67"/><circle cx="32" cy="32" r="3.6" fill="#ccc"/><path fill="#ef7a6b" d="M13.899 16.277 25.143 29.29l7.984-21.268c-7.22-.312-14.374 2.639-19.23 8.256"/></svg>