<svg xmlns="http://www.w3.org/2000/svg" viewBox="0 0 64 64"><rect width="56.002" height="56.002" x="4" y="3.969" fill="#f2f2f2" rx="13.002" ry="13.002"/><rect width="44" height="34" x="10" y="11" fill="#7a68d1" rx="7" ry="7"/><path d="M3.998 45.998v1c0 7.203 5.8 13.004 13.004 13.004h29.996c7.203 0 13.004-5.8 13.004-13.004v-1c0 7.203-5.8 13.002-13.004 13.002H17.002A12.975 12.975 0 0 1 3.998 45.998" opacity=".1"/><g fill="#fff"><path d="M3.998 18.004v-1C3.998 9.801 9.798 4 17.002 4h29.996c7.203 0 13.004 5.8 13.004 13.004v1c0-7.203-5.8-13.002-13.004-13.002H17.002A12.975 12.975 0 0 0 3.998 18.004" opacity=".5"/><path d="M33.5 30.656c-1.023 0-2.047.39-2.828 1.172L17.5 45H47c.754 0 1.478-.123 2.158-.342l-12.83-12.83a4 4 0 0 0-2.828-1.172" opacity=".35"/><path d="M42.5 26.5a5 5 0 1 1 0-10 5 5 0 0 1 0 10" opacity=".5"/></g><path fill="#d585ea" d="M11.031 37.059c0 8.268 6.701 14.969 14.969 14.969s14.969-6.701 14.969-14.969S34.268 22.09 26 22.09s-14.969 6.701-14.969 14.969"/><path fill="#fff" d="M17.799 29.826c-1.024 0-2.047.39-2.828 1.172l-3.764 3.764a15 15 0 0 0-.176 2.296c0 8.268 6.701 14.97 14.97 14.97 4.309 0 8.188-1.825 10.92-4.739L20.628 31a4 4 0 0 0-2.83-1.173z" opacity=".5"/><path fill="#fff" d="M35.201 35.258c-1.024 0-2.049.39-2.83 1.17L18.683 50.115A14.9 14.9 0 0 0 26 52.027c7.536 0 13.768-5.569 14.812-12.816l-2.783-2.783a4 4 0 0 0-2.828-1.17" opacity=".35"/><path fill="#3d3846" d="m13.939 46.998-4 4 2.121 2.121 4-4z" color="#000" style="-inkscape-stroke:none"/><path fill="#77767b" d="M11 49.059a3 3 0 0 0-2.121.879l-7 7a3 3 0 0 0 0 4.242 3 3 0 0 0 4.242 0l7-7a3 3 0 0 0 0-4.242A3 3 0 0 0 11 49.059" color="#000" style="-inkscape-stroke:none"/><path fill="#5e5c64" d="M26 21c-8.857 0-16.059 7.202-16.059 16.059S17.142 53.118 26 53.118c8.857 0 16.059-7.202 16.059-16.059S34.858 21 26 21m0 2a14.044 14.044 0 0 1 14.059 14.059A14.044 14.044 0 0 1 26 51.118a14.044 14.044 0 0 1-14.059-14.059A14.044 14.044 0 0 1 26 23" color="#000" style="-inkscape-stroke:none"/></svg>