<svg xmlns="http://www.w3.org/2000/svg" viewBox="0 0 64 64"><path fill="#f55" d="M17.002 3.97h29.996C54.174 3.97 60 9.796 60 16.972v29.996c0 7.176-5.826 13.002-13.002 13.002H17.002C9.826 59.97 4 54.144 4 46.968V16.972C4 9.796 9.826 3.97 17.002 3.97" style="isolation:isolate"/><path d="M3.998 45.998v1c0 7.203 5.8 13.004 13.004 13.004h29.996c7.203 0 13.004-5.8 13.004-13.004v-1c0 7.203-5.8 13.002-13.004 13.002H17.002A12.975 12.975 0 0 1 3.998 45.998" opacity=".15"/><path fill="#fff" d="M3.998 18.004v-1C3.998 9.801 9.798 4 17.002 4h29.996c7.203 0 13.004 5.8 13.004 13.004v1c0-7.203-5.8-13.002-13.004-13.002H17.002A12.975 12.975 0 0 0 3.998 18.004" opacity=".15"/><path fill="#fff" d="M23.815 18.696h2.817v26.549h-2.817zm4.202 2.499h2.817V42.32h-2.817zm4.203 3.322h2.817v15.28H32.22zm4.203 2.361h2.817v10.183h-2.817zm4.203 2.573h2.817v5.41h-2.817z"/><path fill="#fff" d="M32 11.457c-10.926 0-19.875 8.576-20.479 19.354H4v2.318h7.521C12.124 43.907 21.073 52.483 32 52.483s19.876-8.575 20.479-19.354h7.522v-2.318h-7.522C51.875 20.034 42.927 11.457 32 11.457m0 2.217c9.727 0 17.659 7.562 18.256 17.137h-2.865v2.318h2.865C49.661 42.705 41.728 50.266 32 50.266s-17.66-7.56-18.256-17.137h5.719v-2.318h-5.719c.597-9.575 8.529-17.137 18.256-17.137M44.258 30.81v2.32h2.318v-2.32zm-23.779.012v2.32h2.32v-2.32z" opacity=".35"/></svg>