<svg xmlns="http://www.w3.org/2000/svg" viewBox="0 0 64 64"><defs><linearGradient id="a" x1="9.393" x2="9.393" y1="1.677" y2="15.568" gradientTransform="translate(4.574 4.57)scale(3.2394)" gradientUnits="userSpaceOnUse"><stop offset="0" stop-color="#cbe2e7"/><stop offset="1" stop-color="#797979"/></linearGradient></defs><rect width="56.002" height="56.002" x="4" y="3.969" fill="#f2f2f2" rx="13.002" ry="13.002"/><path d="M3.998 45.998v1c0 7.203 5.8 13.004 13.004 13.004h29.996c7.203 0 13.004-5.8 13.004-13.004v-1c0 7.203-5.8 13.002-13.004 13.002H17.002A12.975 12.975 0 0 1 3.998 45.998" opacity=".1"/><path fill="#fff" d="M3.998 18.004v-1C3.998 9.801 9.798 4 17.002 4h29.996c7.203 0 13.004 5.8 13.004 13.004v1c0-7.203-5.8-13.002-13.004-13.002H17.002A12.975 12.975 0 0 0 3.998 18.004" opacity=".5"/><rect width="47.998" height="47.998" x="8.002" y="7.971" fill="url(#a)" rx="9" ry="9" style="fill:#a8b6b8;fill-opacity:1"/><path fill="#44494c" d="M48.086 15c-12.837 0-21.82 11.84-21.82 11.84-9.273 1.229-14.842 7.616-14.842 7.616 2.58-.061 5.147-.556 9.2-.556s.667 3.753.667 3.753c1.229 2.456 4.753 5.225 4.753 5.225 1.658-1.781 3.558-1.167 3.558-1.167v9.338c6.51-5.589 6.698-13.897 6.698-13.897C48.216 29.352 48.085 15 48.085 15zm-10.507 7.365a3.756 3.756 0 0 1 3.752 3.752 3.756 3.756 0 0 1-3.752 3.752 3.756 3.756 0 0 1-3.752-3.752 3.756 3.756 0 0 1 3.752-3.752M19.513 40.18s-3.975 3.804-3.975 7.366c3.624 0 5.21-.502 7.421-4.003 0 0-1.274 1.057-3.669 1.057 0 0-.637-1.41.223-4.42"/></svg>