<svg xmlns="http://www.w3.org/2000/svg" xml:space="preserve" id="svg2" width="64" height="64"><defs id="defs2"><linearGradient id="linearGradient1040" x1="7.937" x2="7.937" y1="15.081" y2="1.852" gradientTransform="scale(3.7796)" gradientUnits="userSpaceOnUse"><stop id="stop1" offset="0" stop-color="#363636" style="stop-color:#282e37;stop-opacity:1"/><stop id="stop2" offset="1" stop-color="#6c6c6c" style="stop-color:#505664;stop-opacity:1"/></linearGradient></defs><rect id="rect2" width="56" height="56" x="4" y="4" fill="url(#linearGradient1040)" rx="13" ry="13" style="display:inline;fill:url(#linearGradient1040)"/><style id="style833" type="text/css">.st0{fill:#83b9f5}.st1{fill:#f38577}</style><g id="layer1" transform="translate(5.757 28.724)scale(.32718)"><g id="g5995-0-6" transform="translate(1492.307 1727.845)scale(.88964)"><g id="g5997-6-2" transform="translate(-205.44 -215.274)scale(.87847)"><path id="path5999-1-9" d="M-1598.1-2004.7v7.5h10.3v-7.5z" class="st0"/><path id="path6001-5-1" d="M-1606.2-1992.6v7.5h18.5v-7.5z" class="st0"/><path id="path6003-54-2" d="M-1627.9-1980.5v7.5h40.1v-7.5z" class="st0"/><path id="path6005-7-7" d="M-1650-1968.5v7.5h62.2v-7.5z" class="st0"/><path id="path6007-6-09" d="M-1664.6-1956.4v7.5h76.8v-7.5z" class="st0"/><path id="path6009-5-3" d="M-1640.3-1944.4v7.5h52.5v-7.5z" class="st0"/><path id="path6011-6-6" d="M-1618.9-1932.3v7.5h31.2v-7.5z" class="st0"/><path id="path6013-9-0" d="M-1627.3-1920.3v7.5h39.6v-7.5z" class="st0"/><path id="path6015-3-6" d="M-1606.9-1908.8v7.5h19.1v-7.5z" class="st0"/></g><g id="g6017-7-2" transform="matrix(-3.51396 0 0 3.51396 1727.667 -3255.55)"><path id="path6019-4-61" d="M938.1 349.6h9.3l-4.6 7.1z" class="st1"/><path id="path6021-5-8" d="M942.2 350.9v53.43h1.2V350.9Z" class="st1" style="stroke-width:1.19845"/></g><path id="path6023-2-7" d="M-1567.929-1978.742c-1.377 0-2.571 1.102-2.571 2.48v90.64c0 2.02 2.296 3.214 3.949 2.02l62.447-45.274a2.492 2.492 0 0 0 0-4.04l-62.447-45.275q-.551-.55-1.378-.55" style="fill:#527eb2;stroke-width:.918337"/></g></g></svg>