<svg xmlns="http://www.w3.org/2000/svg" width="64" height="64"><defs><linearGradient id="d" x1="35.117" x2="35.117" y1="45.229" y2="19.409" gradientUnits="userSpaceOnUse"><stop offset="0" stop-color="#292929"/><stop offset="1" stop-color="#757575"/></linearGradient><linearGradient id="a" x1="7.937" x2="7.937" y1="15.081" y2="1.852" gradientTransform="scale(3.7796)" gradientUnits="userSpaceOnUse"><stop offset="0" stop-color="#f1efeb"/><stop offset="1" stop-color="#fdfcfc"/></linearGradient><radialGradient id="b" cx="32" cy="32" r="21" gradientUnits="userSpaceOnUse"><stop offset="0" stop-opacity=".05"/><stop offset=".827" stop-opacity=".05"/><stop offset="1" stop-opacity=".15"/></radialGradient><filter id="c" width="1.093" height="1.099" x="-.047" y="-.049" color-interpolation-filters="sRGB"><feGaussianBlur stdDeviation=".624"/></filter></defs><rect width="56.002" height="56.002" x="4" y="3.969" fill="url(#a)" rx="13.002" ry="13.002"/><circle cx="32" cy="32" r="21" fill="url(#b)"/><path d="M31.883 18.051c-7.843 0-14.302 6.088-14.961 13.818h-2.156l3.738 6.377 3.682-6.377h-2.389c.641-6.163 5.79-10.928 12.086-10.928 6.731 0 12.156 5.448 12.156 12.229s-5.425 12.264-12.156 12.264c-3.389 0-6.433-1.403-8.637-3.647 0 0-.39-.399-.627-.625-.433-.413-.781-.266-1.078-.027-.347.278-.65.515-.988.832-.278.228-.437.608-.178.916 2.761 3.317 6.893 5.442 11.508 5.442 8.279 0 15.012-6.816 15.012-15.154s-6.733-15.12-15.012-15.12m-.168 5.201c-.304 0-.523 7.18-.785 10.771 2.244 1.814 6.537 5.639 6.732 5.444.203-.204-3.441-3.78-5.162-5.668-.262-3.516-.452-10.547-.785-10.547" filter="url(#c)" opacity=".15"/><path fill="url(#d)" d="M31.883 17.006c-7.843 0-14.302 6.088-14.961 13.818h-2.156l3.738 6.377 3.682-6.377h-2.389c.641-6.163 5.79-10.928 12.086-10.928 6.731 0 12.156 5.448 12.156 12.229s-5.425 12.264-12.156 12.264c-3.389 0-6.433-1.403-8.637-3.647 0 0-.39-.399-.627-.625-.433-.413-.781-.266-1.078-.027-.347.278-.65.515-.988.832-.278.228-.437.608-.178.916 2.761 3.317 6.893 5.442 11.508 5.442 8.279 0 15.012-6.816 15.012-15.154s-6.733-15.12-15.012-15.12m-.168 5.201c-.304 0-.523 7.18-.785 10.771 2.244 1.814 6.537 5.639 6.732 5.444.203-.204-3.441-3.78-5.162-5.668-.262-3.516-.452-10.547-.785-10.547"/></svg>