<svg xmlns="http://www.w3.org/2000/svg" xmlns:xlink="http://www.w3.org/1999/xlink" viewBox="0 0 64 64"><defs><linearGradient id="a"><stop offset="0" stop-color="#ad9177" stop-opacity=".373"/><stop offset=".251" stop-color="#947b62"/><stop offset=".721" stop-color="#947b62"/><stop offset="1" stop-color="#947b62" stop-opacity=".009"/></linearGradient><linearGradient xlink:href="#a" id="f" x1="56.576" x2="56.576" y1="13.28" y2="18.039" gradientTransform="matrix(2.1563 0 0 2.4869 -97.612 -21.443)" gradientUnits="userSpaceOnUse"/><linearGradient xlink:href="#a" id="g" x1="56.576" x2="56.576" y1="13.718" y2="18.039" gradientTransform="matrix(2.1563 0 0 2.4869 -91.609 -21.553)" gradientUnits="userSpaceOnUse"/><linearGradient xlink:href="#a" id="h" x1="56.576" x2="56.576" y1="13.28" y2="18.039" gradientTransform="matrix(2.1563 0 0 2.4869 -85.7 -21.553)" gradientUnits="userSpaceOnUse"/><linearGradient id="d" x1="87.05" x2="87.05" y1="53.75" y2="41.73" gradientTransform="translate(-64.303 -.031)" gradientUnits="userSpaceOnUse"><stop offset="0" stop-color="#fff"/><stop offset="1" stop-color="#fff" stop-opacity="0"/></linearGradient><filter id="b" width="1.113" height="1.225" x="-.056" y="-.113" color-interpolation-filters="sRGB"><feGaussianBlur stdDeviation="1.374"/></filter><filter id="e" width="1.064" height="1.196" x="-.032" y="-.098" color-interpolation-filters="sRGB"><feGaussianBlur stdDeviation=".655"/></filter><radialGradient id="c" cx="8.438" cy="32.535" r="26.406" gradientTransform="matrix(.68425 0 0 .27936 24.807 18.405)" gradientUnits="userSpaceOnUse"><stop offset="0" stop-color="#8b6a35"/><stop offset=".371" stop-color="#885f22"/><stop offset=".686" stop-color="#754d0d"/><stop offset="1" stop-color="#483816"/></radialGradient></defs><rect width="64" height="64" fill="none" rx="0" ry="0" style="paint-order:stroke fill markers"/><rect width="56.002" height="56.002" x="4" y="3.969" fill="#f2f2f2" rx="13.002" ry="13.002"/><ellipse cx="31.034" cy="43.129" fill="#999" rx="17.377" ry="8.706"/><ellipse cx="31.034" cy="42.158" fill="#e6e6e6" rx="17.377" ry="8.706"/><ellipse cx="31.034" cy="43.248" fill="#d2d2d2" rx="13.242" ry="6.196"/><path fill="#ccc" d="M44.583 38.534c3.545-.316 11.356-1.191 10.795-10.256-.03-.482-.154-.976-.367-1.357a3.4 3.4 0 0 0-.955-1.057c-1.822-1.316-5.123-1.111-7.49-1.111-7.761 1.632-9.403 14.803-1.983 13.782zm1.244-10.636s6.243-.938 6.458.262c.702 7.325-6.439 6.31-6.439 6.31l-.019-6.147z"/><path fill="#dadad8" d="M30.581 15.849c-9.66 0-17.568 2.8-18.153 6.329h-.036v4.255c.13 11.277 8.23 20.386 18.189 20.386 9.96 0 18.059-9.109 18.189-20.386v-4.255h-.036c-.585-3.528-8.493-6.328-18.153-6.328z"/><path fill="#fff" d="M35.033 16.366c.003 8.087-13.108 14.643-29.281 14.643-16.174 0-29.284-6.556-29.281-14.643-.003-8.087 13.108-14.643 29.281-14.643 16.174 0 29.284 6.556 29.281 14.643" filter="url(#b)" opacity=".6" transform="matrix(.5984 0 0 .48648 27.215 15.13)"/><path fill="#aaa" d="M46.82 23.016c.002 3.269-7.27 5.92-16.239 5.92s-16.24-2.651-16.239-5.92c-.002-3.269 7.27-5.92 16.239-5.92s16.24 2.651 16.239 5.92"/><path fill="#36290f" d="M30.58 19.759c-7.522 0-14.08 2.103-15.922 4.45 1.294 2.334 8.033 4.696 15.545 4.696 7.511 0 15.546-2.446 16.418-4.949-1.844-2.347-8.52-4.197-16.041-4.197"/><path fill="url(#c)" d="M30.58 20.256c-7.522 0-13.817 1.83-15.659 4.346 1.851 2.51 8.146 4.383 15.659 4.383 7.511 0 13.803-1.88 15.655-4.39-1.843-2.515-8.134-4.339-15.655-4.339"/><path fill="url(#d)" d="M46.072 37.688c-5.218 7.124-14.348 11.844-24.75 11.844-10.381 0-19.496-4.712-24.719-11.812 4.018 9.384 13.572 16 24.719 16 11.161 0 20.741-6.627 24.75-16.031z" filter="url(#e)" opacity=".3" transform="matrix(.57744 0 0 .58194 18.455 15.104)"/><path fill="none" d="M47.32 23.016c.002 3.373-7.493 6.107-16.739 6.107S13.84 26.39 13.842 23.016c-.002-3.373 7.493-6.107 16.739-6.107s16.741 2.734 16.739 6.107" opacity=".4"/><path fill="none" stroke="url(#f)" stroke-linecap="round" stroke-width="2.316" d="M25.127 24.43s-2.097-2.33-1.319-5.677c.778-3.348.926-5.222 0-7.072"/><path fill="none" stroke="url(#g)" stroke-linecap="round" stroke-width="2.316" d="M31.131 24.32s-2.097-2.33-1.319-5.677c.778-3.348.926-5.222 0-7.072"/><path fill="none" stroke="url(#h)" stroke-linecap="round" stroke-width="2.316" d="M37.039 24.32s-2.097-2.33-1.319-5.677c.778-3.348.926-5.222 0-7.072"/><path d="M3.998 45.998v1c0 7.203 5.8 13.004 13.004 13.004h29.996c7.203 0 13.004-5.8 13.004-13.004v-1c0 7.203-5.8 13.002-13.004 13.002H17.002A12.975 12.975 0 0 1 3.998 45.998" opacity=".1"/><path fill="#fff" d="M3.998 18.004v-1C3.998 9.801 9.798 4 17.002 4h29.996c7.203 0 13.004 5.8 13.004 13.004v1c0-7.203-5.8-13.002-13.004-13.002H17.002A12.975 12.975 0 0 0 3.998 18.004" opacity=".5"/></svg>