<svg xmlns="http://www.w3.org/2000/svg" viewBox="0 0 64 64"><rect width="56.002" height="56.002" x="4" y="3.969" fill="#5adcbc" rx="13.002" ry="13.002"/><circle cx="32.099" cy="31.884" r="20.959" fill="#fff" opacity=".2" style="paint-order:stroke markers fill"/><path fill="#fff" d="M32.111 15.637a16.26 16.26 0 0 0-16.26 16.258 16.26 16.26 0 0 0 16.26 16.26 16.26 16.26 0 0 0 16.26-16.26 16.26 16.26 0 0 0-16.26-16.258m0 2.068a14.2 14.2 0 0 1 6.52 1.6l-2.145 3.666a9.95 9.95 0 0 0-4.375-1.023 9.95 9.95 0 0 0-4.314.998l-2.231-3.635a14.2 14.2 0 0 1 6.545-1.606m0 6.206a7.985 7.985 0 0 1 7.984 7.984 7.985 7.985 0 0 1-7.984 7.984 7.985 7.985 0 0 1-7.984-7.984 7.985 7.985 0 0 1 7.984-7.984m12.576 1.425a14.2 14.2 0 0 1 1.613 6.559 14.2 14.2 0 0 1-1.61 6.54l-3.66-2.151a9.95 9.95 0 0 0 1.028-4.39 9.95 9.95 0 0 0-1.057-4.433zm-25.199.108 3.697 2.072a9.95 9.95 0 0 0-1.021 4.379 9.95 9.95 0 0 0 1.05 4.426l-3.693 2.111a14.2 14.2 0 0 1-1.601-6.537 14.2 14.2 0 0 1 1.568-6.451m8.242 15.375a9.95 9.95 0 0 0 4.381 1.023 9.95 9.95 0 0 0 4.305-.994l2.265 3.617a14.2 14.2 0 0 1-6.57 1.621 14.2 14.2 0 0 1-6.615-1.644z"/><path d="M3.998 45.998v1c0 7.203 5.8 13.004 13.004 13.004h29.996c7.203 0 13.004-5.8 13.004-13.004v-1c0 7.203-5.8 13.002-13.004 13.002H17.002A12.975 12.975 0 0 1 3.998 45.998" opacity=".15"/><path fill="#fff" d="M3.998 18.004v-1C3.998 9.801 9.798 4 17.002 4h29.996c7.203 0 13.004 5.8 13.004 13.004v1c0-7.203-5.8-13.002-13.004-13.002H17.002A12.975 12.975 0 0 0 3.998 18.004" opacity=".15"/></svg>