<svg xmlns="http://www.w3.org/2000/svg" xmlns:xlink="http://www.w3.org/1999/xlink" width="64" height="64" enable-background="new 0 0 1024 1024" image-rendering="optimizeSpeed"><defs><linearGradient id="d" x1="-20.542" x2="-23.085" y1="40.856" y2="43.297" gradientTransform="translate(130.67 12.607)scale(1.9136)" gradientUnits="userSpaceOnUse"><stop offset="0" stop-color="#a9a9a9"/><stop offset="1" stop-color="#a9a9a9" stop-opacity="0"/></linearGradient><linearGradient xlink:href="#a" id="e" x1="-59.612" x2="-43.792" y1="51.186" y2="51.186" gradientTransform="translate(130.67 12.607)scale(1.9136)" gradientUnits="userSpaceOnUse"/><linearGradient id="a"><stop offset="0" stop-color="gold"/><stop offset="1" stop-color="#998100"/></linearGradient><linearGradient xlink:href="#a" id="f" x1="228.81" x2="228.81" y1="611.18" y2="614.41" gradientTransform="translate(-383.73 -1215.5)scale(2.0324)" gradientUnits="userSpaceOnUse"/><linearGradient id="g" x1="-46.135" x2="-43.234" y1="23.19" y2="22.645" gradientTransform="translate(130.67 12.607)scale(1.9136)" gradientUnits="userSpaceOnUse"><stop offset="0" stop-color="#232323"/><stop offset="1" stop-color="#232323" stop-opacity="0"/></linearGradient><linearGradient xlink:href="#a" id="h" x1="-23.465" x2="-12.07" y1="44.578" y2="44.578" gradientTransform="translate(130.67 12.607)scale(1.9136)" gradientUnits="userSpaceOnUse"/><linearGradient id="i" x1="-27.665" x2="-26.186" y1="26.67" y2="36.636" gradientTransform="translate(130.59 13.326)scale(1.9136)" gradientUnits="userSpaceOnUse"><stop offset="0" stop-color="#fdfdfd"/><stop offset="1" stop-color="#a6a6a6"/></linearGradient><linearGradient id="b" x1="7.937" x2="7.937" y1="15.081" y2="1.852" gradientTransform="scale(3.7796)" gradientUnits="userSpaceOnUse"><stop offset="0" stop-color="#f1efeb"/><stop offset="1" stop-color="#fdfcfc"/></linearGradient><filter id="c" width="1.14" height="1.105" x="-.07" y="-.052" color-interpolation-filters="sRGB"><feGaussianBlur stdDeviation="2.693"/></filter></defs><rect width="56.002" height="56.002" x="4" y="3.969" fill="url(#b)" rx="13.002" ry="13.002"/><g fill-rule="evenodd" stroke-width="3.136" filter="url(#c)" opacity=".15" transform="translate(11.361 11.83)scale(.31891)"><path d="m67.711 75.562 27.105 17.889-3.947 9.453S68.412 84.894 67.71 75.562zm3.211-31.04c10.119-6.909 25.038-18.756 26.661-24.131 1.557-5.157 7.979-4.184 6.52 1.654s-9.44 28.9-21.99 44.272M19.741 96.774c5.728-1.683 8.931-8.287 13.123-12.422 7.597 6.974 47.152 20.382 26.592 20.724-10.565-.608-16.712 5.129-22.468 9.809z"/><path d="M63.926 1.394c-14.999.275-19.953 11.697-19.953 17.338s1.853 17.369-2.688 25.075c-3 5.09-12.506 17.156-15.201 28.454-2.692 11.284-.59 35.09 30.686 35.64 32.2.566 29.987 7.446 29.987 7.446L98.183 93.52c-2.988-1.428-7.56-3.593-7.37-3.995 5.743-12.173-9.63-34.804-12.52-43.611s.508-10.985 2.847-16.352 3.289-28.17-17.215-28.17zM21.681 97.167c-2.834-2.266-5.267.872-3.57 3.89 1.695 3.019 16.162 17.54 20.317 22.117s11.39-2.105 4.86-5.872-18.773-17.87-21.608-20.135z"/><path d="M25.559 84.486c1.178 4.515-4.362 9.928-7.32 12.713-3.849 3.623.097 5.594 1.373 5.496s10.762-3.528 18.123.594m35.396-91.95c-4.305-.05-7.307 4.843-5.058 10.6 1.289 3.3 9.766 3.119 10.304-.32.918-5.864-.988-10.232-5.246-10.28"/><path d="M72.761 17.291a3.038 3.686 0 0 1 4.291-.008 3.038 3.686 0 0 1 .017 5.206 3.038 3.686 0 0 1-4.29.034 3.038 3.686 0 0 1-.04-5.205"/><path d="M81.463 33.036c2.722.09 18.873-3.085 19.054-5.353.181-2.269-11.342-3.357-13.61-4.355s-13.293-3.942-13.156 3.447 4.99 6.17 7.712 6.261"/><path stroke="#ae9300" stroke-width="3.187" d="M77.324 28.802c5.741 1.247 12.703 1.668 16.553 1.026"/><path d="M81.463 33.036c2.722.09 18.873-3.085 19.054-5.353.181-2.269-11.342-3.357-13.61-4.355s-13.293-3.942-13.156 3.447 4.99 6.17 7.712 6.261m-35.627 7.132c-13.512 11.442-34.729 38.79-30.485 41.45 3.66 2.293 25.475-16.621 34.7-18.55"/><path d="M40.553 45.162c-8.557 9.067-20.773 23.461-24.625 31.264-3.802 6.018.596 8.263 5.752 3.326 7.004-3.867 17.5-13.044 24.381-14.483M98.64 83.661c.382-5.453 8.019-6.359 7.97.313-.055 7.588-10.33 25.947-14.2 30.532-3.728 4.418-7.431.962-4.816-3.303 2.614-4.263 10.531-20.19 11.046-27.542M79.603 53.117c-2.593-1.15-3.508 5.564-5.663 8.7-2.597 3.78-5.099 7.417-3.187 13.393l19.755 13.712c2.547-10.027-4.284-24.627-10.905-35.805m-5.47-36.147a1.036.66 0 0 1 1.462-.001 1.036.66 0 0 1 .006.93 1.036.66 0 0 1-1.462.007 1.036.66 0 0 1-.014-.931"/></g><g stroke-width="3.136"><path fill="url(#d)" fill-rule="evenodd" d="m67.711 75.562 27.105 17.889-3.947 9.453S68.412 84.894 67.71 75.562z" transform="translate(11.361 11.83)scale(.31891)"/><path fill="#181818" fill-rule="evenodd" d="M33.979 26.029c3.227-2.204 7.985-5.982 8.502-7.696.497-1.645 2.545-1.334 2.08.527-.466 1.862-3.01 9.217-7.014 14.12m-19.89 9.712c1.826-.536 2.848-2.643 4.185-3.961 2.422 2.224 15.037 6.5 8.48 6.609-3.37-.194-5.33 1.635-7.165 3.128z"/><path fill="#232323" fill-rule="evenodd" d="M31.748 12.274c-4.784.088-6.364 3.73-6.364 5.53 0 1.799.591 5.539-.857 7.996-.957 1.624-3.988 5.472-4.848 9.075-.858 3.598-.188 11.19 9.786 11.366 10.27.18 9.564 2.374 9.564 2.374l3.643-6.96c-.952-.456-2.41-1.146-2.35-1.275 1.832-3.882-3.07-11.099-3.992-13.908s.161-3.503.907-5.214 1.05-8.984-5.49-8.984z"/><path fill="url(#e)" fill-rule="evenodd" d="M21.681 97.167c-2.834-2.266-5.267.872-3.57 3.89 1.695 3.019 16.162 17.54 20.317 22.117s11.39-2.105 4.86-5.872-18.773-17.87-21.608-20.135z" transform="translate(11.361 11.83)scale(.31891)"/><path fill="#232323" fill-rule="evenodd" d="M19.512 38.773c.376 1.44-1.391 3.166-2.335 4.055-1.227 1.155.032 1.784.439 1.753.406-.032 3.432-1.126 5.78.189"/><path fill="#fdfdfd" fill-rule="evenodd" d="M34.683 15.446c-1.373-.016-2.33 1.545-1.613 3.38.411 1.053 3.114.995 3.286-.101.293-1.87-.315-3.264-1.673-3.279"/><path fill-rule="evenodd" d="M34.565 17.344a.969 1.175 0 0 1 1.369-.002.969 1.175 0 0 1 .005 1.66.969 1.175 0 0 1-1.368.01.969 1.175 0 0 1-.013-1.66"/><path fill="url(#f)" fill-rule="evenodd" d="M81.463 33.036c2.722.09 18.873-3.085 19.054-5.353.181-2.269-11.342-3.357-13.61-4.355s-13.293-3.942-13.156 3.447 4.99 6.17 7.712 6.261" transform="translate(11.361 11.83)scale(.31891)"/><path fill="none" stroke="#ae9300" stroke-width=".2" d="M36.02 21.015c1.831.398 4.052.532 5.28.328"/><path fill="none" d="M37.34 22.366c.868.028 6.02-.984 6.077-1.708.058-.723-3.617-1.07-4.34-1.389-.724-.318-4.24-1.257-4.196 1.1s1.591 1.968 2.46 1.997z"/><path fill="url(#g)" fill-rule="evenodd" d="M45.836 40.168c-13.512 11.442-34.729 38.79-30.485 41.45 3.66 2.293 25.475-16.621 34.7-18.55" transform="translate(11.361 11.83)scale(.31891)"/><path fill="none" d="M24.294 26.233c-2.73 2.891-6.625 7.482-7.853 9.97-1.213 1.92.19 2.635 1.834 1.06 2.233-1.232 5.581-4.16 7.775-4.618"/><path fill="url(#h)" fill-rule="evenodd" d="M98.64 83.661c.382-5.453 8.019-6.359 7.97.313-.055 7.588-10.33 25.947-14.2 30.532-3.728 4.418-7.431.962-4.816-3.303 2.614-4.263 10.531-20.19 11.046-27.542" transform="translate(11.361 11.83)scale(.31891)"/><path fill="url(#i)" fill-rule="evenodd" d="M79.603 53.117c-2.593-1.15-3.508 5.564-5.663 8.7-2.597 3.78-5.099 7.417-3.187 13.393l19.755 13.712c2.547-10.027-4.284-24.627-10.905-35.805" transform="translate(11.361 11.83)scale(.31891)"/><path fill="#fff" fill-rule="evenodd" d="M35.003 17.242a.33.21 0 0 1 .466 0 .33.21 0 0 1 .002.296.33.21 0 0 1-.466.002.33.21 0 0 1-.005-.296"/></g></svg>