<svg xmlns="http://www.w3.org/2000/svg" viewBox="0 0 64 64"><rect width="56.002" height="56.002" x="4" y="3.969" fill="#f2f2f2" rx="13.002" ry="13.002"/><path d="M3.998 45.998v1c0 7.203 5.8 13.004 13.004 13.004h29.996c7.203 0 13.004-5.8 13.004-13.004v-1c0 7.203-5.8 13.002-13.004 13.002H17.002A12.975 12.975 0 0 1 3.998 45.998" opacity=".1"/><path fill="#fff" d="M3.998 18.004v-1C3.998 9.801 9.798 4 17.002 4h29.996c7.203 0 13.004 5.8 13.004 13.004v1c0-7.203-5.8-13.002-13.004-13.002H17.002A12.975 12.975 0 0 0 3.998 18.004" opacity=".5"/><g stroke-width=".836"><path fill="#a1a1a3" stroke="gray" d="M47.451 41.289c0 3.409-6.924 6.175-15.454 6.175s-15.454-2.767-15.454-6.175c0-9.877-1.89-6.046 15.454-6.175 17.741-.133 15.454-4.552 15.454 6.175z"/><path fill="#868688" stroke="#adadad" d="M47.464 35.343c0 3.462-6.924 6.27-15.464 6.27s-15.464-2.808-15.464-6.27 6.924-6.27 15.464-6.27 15.464 2.808 15.464 6.27z"/><path fill="#a1a1a3" stroke="gray" d="M47.451 33.766c0 3.409-6.924 6.175-15.454 6.175s-15.454-2.767-15.454-6.175c0-10.926-1.89-6.046 15.454-6.175 17.741-.133 15.454-4.756 15.454 6.175z"/><path fill="#868688" stroke="#adadad" d="M47.464 27.82c0 3.462-6.924 6.27-15.464 6.27s-15.464-2.808-15.464-6.27S23.46 21.55 32 21.55s15.464 2.808 15.464 6.27z"/><path fill="#a1a1a3" stroke="gray" d="M47.451 26.243c0 3.409-6.924 6.175-15.454 6.175s-15.454-2.767-15.454-6.175c0-11.662-1.89-6.046 15.454-6.175 17.741-.133 15.454-4.632 15.454 6.175z"/><path fill="#d0d0d1" stroke="gray" d="M47.464 20.297c0 3.462-6.924 6.27-15.464 6.27s-15.464-2.808-15.464-6.27 6.924-6.27 15.464-6.27 15.464 2.808 15.464 6.27z"/></g><path fill="#484848" fill-rule="evenodd" d="M55.931 40.779c-.035-.31-.395-.542-.707-.542a2.44 2.44 0 0 1-2.278-1.507 2.45 2.45 0 0 1 .615-2.72.61.61 0 0 0 .067-.83 11 11 0 0 0-1.743-1.76.61.61 0 0 0-.836.068c-.655.726-1.833.996-2.743.616a2.44 2.44 0 0 1-1.486-2.388.61.61 0 0 0-.54-.642 11 11 0 0 0-2.475-.007.61.61 0 0 0-.544.63 2.45 2.45 0 0 1-1.507 2.347c-.899.367-2.068.1-2.723-.62a.613.613 0 0 0-.83-.07c-.66.517-1.259 1.11-1.78 1.76a.61.61 0 0 0 .066.835 2.44 2.44 0 0 1 .615 2.745c-.38.904-1.318 1.487-2.393 1.487a.6.6 0 0 0-.636.54 11 11 0 0 0-.004 2.501c.034.31.406.541.72.541.959-.024 1.878.569 2.264 1.508.385.937.138 2.03-.615 2.72a.61.61 0 0 0-.067.829 11 11 0 0 0 1.74 1.76.61.61 0 0 0 .838-.066c.658-.728 1.836-.998 2.742-.617a2.44 2.44 0 0 1 1.488 2.387.61.61 0 0 0 .54.643 11 11 0 0 0 2.475.007.61.61 0 0 0 .545-.63 2.445 2.445 0 0 1 1.505-2.346c.905-.37 2.07-.1 2.724.62a.615.615 0 0 0 .83.07 11 11 0 0 0 1.78-1.76.61.61 0 0 0-.066-.836 2.44 2.44 0 0 1-.616-2.744 2.46 2.46 0 0 1 2.25-1.492l.136.004a.61.61 0 0 0 .644-.54 11 11 0 0 0 .005-2.5zm-10.914 4.914c-2.023 0-3.67-1.646-3.67-3.67s1.647-3.668 3.67-3.668 3.67 1.645 3.67 3.669-1.647 3.669-3.67 3.669" clip-rule="evenodd"/></svg>