<svg xmlns="http://www.w3.org/2000/svg" xmlns:xlink="http://www.w3.org/1999/xlink" width="64" height="64" fill="none"><g clip-path="url(#a)"><path fill="url(#b)" d="M1.559 1.999h60.882V64H1.559z"/><path fill="url(#c)" d="M47 3.89H17.002C9.822 3.89 4 9.711 4 16.892V46.89c0 7.18 5.821 13.002 13.002 13.002H47c7.18 0 13.002-5.821 13.002-13.002V16.892C60.002 9.712 54.181 3.89 47 3.89"/><g filter="url(#d)"><path fill="url(#e)" d="M18.83 9.832a6.665 6.665 0 0 0-6.824 6.662v17.457l.006.012c-.01 4.439-.002 8.88-.006 13.32-.062 3.356 2.75 6.429 6.103 6.639 1.335.148 2.626-.225 3.803-.822.03-.016.062-.026.092-.043l.111-.065q.37-.198.723-.416v-.002l25.83-14.935c2.937-1.624 4.19-5.596 2.697-8.604-.684-1.559-2.057-2.647-3.53-3.424l-.103-.035-25.728-14.853a6.66 6.66 0 0 0-3.174-.89Z"/><path fill="url(#f)" d="M19.723 53.861c.76-.135 1.494-.409 2.19-.761.03-.016.06-.026.09-.043l.112-.065q.37-.197.723-.416v-.002l25.83-14.935c2.937-1.624 4.19-5.596 2.697-8.604-.684-1.559-2.057-2.647-3.53-3.424l-.103-.035-22.785-13.154a37.2 37.2 0 0 0-5.224 41.44Z" opacity=".25"/><path fill="url(#g)" d="M37.496 19.668a23.6 23.6 0 0 0-5.669 7.87 23.36 23.36 0 0 0 .339 19.644l16.502-9.543c2.937-1.624 4.19-5.596 2.697-8.604-.684-1.559-2.057-2.647-3.53-3.424l-.103-.035-10.234-5.908z" opacity=".25"/><path fill="url(#h)" d="M48.51 25.996a13.62 13.62 0 0 0-5.08 14.672l5.238-3.03c2.937-1.623 4.19-5.595 2.697-8.603-.578-1.317-1.649-2.298-2.855-3.039" opacity=".25"/><path fill="url(#i)" d="M48.877 37.518h-36.87c-.001 3.255.002 6.51-.001 9.765-.062 3.356 2.75 6.429 6.103 6.639 1.335.148 2.626-.225 3.803-.822.03-.016.062-.026.092-.043l.111-.065q.37-.198.723-.416v-.002l25.83-14.935z"/></g><path fill="url(#j)" d="M21.443 53.322v-2.181a1.05 1.05 0 0 0-1.049-1.05h-7.763c1.005 2.1 3.106 3.682 5.478 3.831 1.16.129 2.287-.136 3.334-.6"/><path fill="url(#k)" d="M12.008 37.518c-.002 3.255 0 6.51-.002 9.765q-.007.36.03.713h8.359a1.05 1.05 0 0 0 1.048-1.047v-8.384a1.05 1.05 0 0 0-1.049-1.047z"/><path fill="url(#l)" d="M12.006 24.942v9.01l.006.011-.002 1.459h8.385a1.047 1.047 0 0 0 1.048-1.049v-9.431z"/><path fill="#3d3846" fill-rule="evenodd" d="M28.254 49.444v-22.93a1.57 1.57 0 0 0-1.572-1.572h-5.239v9.431a1.05 1.05 0 0 1-1.049 1.049H12.01l-.002 2.096h8.387a1.05 1.05 0 0 1 1.048 1.047v8.384a1.05 1.05 0 0 1-1.049 1.047h-8.359a6.4 6.4 0 0 0 .596 2.096h7.764a1.047 1.047 0 0 1 1.048 1.049v2.181q.237-.105.47-.222c.03-.016.06-.026.09-.043l.112-.065q.37-.197.723-.416v-.002l.24-.139a.5.5 0 0 1-.064-.248v-2.095a.524.524 0 0 1 .525-.524h2.62a.525.525 0 0 1 .523.524v.26zm-4.715-22.93h2.62a.524.524 0 0 1 .523.525v2.096a.524.524 0 0 1-.524.523H23.54a.524.524 0 0 1-.525-.523v-2.096a.52.52 0 0 1 .525-.525Zm0 5.764h2.62a.524.524 0 0 1 .523.523v2.098a.524.524 0 0 1-.524.523H23.54a.524.524 0 0 1-.525-.523V32.8a.524.524 0 0 1 .525-.523Zm0 5.763h2.62a.525.525 0 0 1 .523.524v2.097a.524.524 0 0 1-.524.524H23.54a.52.52 0 0 1-.525-.524v-2.097a.524.524 0 0 1 .525-.524Zm0 5.764h2.62a.524.524 0 0 1 .523.523v2.096a.524.524 0 0 1-.524.525H23.54a.52.52 0 0 1-.525-.525v-2.096a.523.523 0 0 1 .525-.523Z" clip-rule="evenodd"/><path fill="#fff" d="M17.002 3.9A12.974 12.974 0 0 0 4 16.902v.48A12.974 12.974 0 0 1 17.002 4.378h29.996A12.974 12.974 0 0 1 60 17.38v-.479a12.97 12.97 0 0 0-13.002-13z" opacity=".1"/></g><defs><linearGradient id="c" x1="32.001" x2="32.001" y1="3.89" y2="59.892" gradientUnits="userSpaceOnUse"><stop stop-color="#5a5567"/><stop offset="1" stop-color="#27252e"/></linearGradient><linearGradient id="e" x1="57.072" x2="8.517" y1="45.038" y2="54.243" gradientUnits="userSpaceOnUse"><stop stop-color="#ffa348"/><stop offset=".475" stop-color="#c061cb"/><stop offset="1" stop-color="#1c71d8"/></linearGradient><linearGradient id="i" x1="50.523" x2="8.212" y1="37.517" y2="29.03" gradientUnits="userSpaceOnUse"><stop stop-color="#f8e45c"/><stop offset=".513" stop-color="#2ec27e"/></linearGradient><linearGradient id="j" x1="8.606" x2="8.606" y1="50.093" y2="60.572" gradientUnits="userSpaceOnUse"><stop stop-opacity=".5"/><stop offset="1" stop-color="#fff" stop-opacity=".2"/></linearGradient><linearGradient id="k" x1="8.606" x2="8.606" y1="37.517" y2="47.997" gradientUnits="userSpaceOnUse"><stop stop-opacity=".5"/><stop offset="1" stop-color="#fff" stop-opacity=".2"/></linearGradient><linearGradient id="l" x1="8.606" x2="8.606" y1="24.942" y2="35.422" gradientUnits="userSpaceOnUse"><stop stop-opacity=".5"/><stop offset="1" stop-color="#fff" stop-opacity=".2"/></linearGradient><radialGradient id="f" cx="0" cy="0" r="1" gradientTransform="rotate(90 7.943 44.937)scale(37.2013)" gradientUnits="userSpaceOnUse"><stop stop-color="#f8e45c" stop-opacity="0"/><stop offset="1" stop-color="#f8e45c"/></radialGradient><radialGradient id="g" cx="0" cy="0" r="1" gradientTransform="matrix(0 23.5783 -23.8403 0 53.666 36.994)" gradientUnits="userSpaceOnUse"><stop stop-color="#f8e45c" stop-opacity="0"/><stop offset="1" stop-color="#f8e45c"/></radialGradient><radialGradient id="h" cx="0" cy="0" r="1" gradientTransform="rotate(90 9.777 46.77)scale(13.623)" gradientUnits="userSpaceOnUse"><stop stop-color="#f8e45c" stop-opacity="0"/><stop offset="1" stop-color="#f8e45c"/></radialGradient><clipPath id="a"><path fill="#fff" d="M0 0h64v64H0z"/></clipPath><pattern id="b" width="1" height="1" patternContentUnits="objectBoundingBox"><use xlink:href="#m" transform="scale(.00398)"/></pattern><filter id="d" width="47.992" height="52.124" x="8.005" y="9.83" color-interpolation-filters="sRGB" filterUnits="userSpaceOnUse"><feFlood flood-opacity="0" result="BackgroundImageFix"/><feColorMatrix in="SourceAlpha" result="hardAlpha" values="0 0 0 0 0 0 0 0 0 0 0 0 0 0 0 0 0 0 127 0"/><feOffset dy="4"/><feGaussianBlur stdDeviation="2"/><feComposite in2="hardAlpha" operator="out"/><feColorMatrix values="0 0 0 0 0 0 0 0 0 0 0 0 0 0 0 0 0 0 0.25 0"/><feBlend in2="BackgroundImageFix" result="effect1_dropShadow_3005_64"/><feBlend in="SourceGraphic" in2="effect1_dropShadow_3005_64" result="shape"/></filter></defs></svg>