<svg xmlns="http://www.w3.org/2000/svg" width="64" height="64" enable-background="new 0 0 1024 1024" image-rendering="optimizeSpeed"><defs><linearGradient id="a" x1="7.937" x2="7.937" y1="15.081" y2="1.852" gradientTransform="scale(3.7796)" gradientUnits="userSpaceOnUse"><stop offset="0" stop-color="#b81e31"/><stop offset="1" stop-color="#ff5c5c"/></linearGradient><filter id="b" width="1.1" height="1.151" x="-.05" y="-.076" color-interpolation-filters="sRGB"><feGaussianBlur stdDeviation=".664"/></filter></defs><rect width="56.002" height="56.002" x="4" y="3.969" fill="url(#a)" rx="13.002" ry="13.002"/><path d="M34.797 21.455c-4.105 0-6.752.071-8.448.316-.85.123-1.469.298-1.948.57-.502.284-.858.77-.858 1.344 0 .374.18.65.475.807.211.112.425.133.614.126.367-.013.757-.128 1.196-.3.05-.02.386-.101.828-.175s1.01-.151 1.656-.221a73 73 0 0 1 4.523-.332l3.971-.174-.782.743c-1.2 1.124-5.151 4.145-9.046 6.99a257 257 0 0 1-5.49 3.923c-1.608 1.11-2.921 1.957-3.449 2.23-.683.346-1.36.705-2.039 1.06.112.39.194.823.276 1.17.848.038 1.697.055 2.546.08.501.013 1.94.176 3.71.442 1.77.267 3.913.625 5.996 1.012 4.42.823 7.743 1.309 10.242 1.44 2.496.13 4.194-.054 5.397-.696.904-.482 1.773-1.443 2.499-2.467.722-1.023 1.336-2.073 1.334-3.067a1 1 0 0 0-.108-.443.73.73 0 0 0-.276-.285.7.7 0 0 0-.383-.127.9.9 0 0 0-.475.127c-.466.344-.743.913-1.013 1.28-.695 1.178-1.352 1.817-2.484 2.247-1.126.427-2.79.601-5.335.601-2.257 0-5.768-.317-8.786-.728-1.508-.204-2.899-.43-3.94-.648h-.015c-.49-.103-.957-.212-1.252-.3.348-.385 1.07-.976 2.05-1.788 6.908-5.428 12.704-9.73 19.67-14.758H34.798z" filter="url(#b)" opacity=".25"/><path fill="#f1f2f2" d="M34.797 21.455c-4.105 0-6.752.071-8.448.316-.85.123-1.469.298-1.948.57-.502.284-.858.77-.858 1.344 0 .374.18.65.475.807.211.112.425.133.614.126.367-.013.757-.128 1.196-.3.05-.02.386-.101.828-.175s1.01-.151 1.656-.221a73 73 0 0 1 4.523-.332l3.971-.174-.782.743c-1.2 1.124-5.151 4.145-9.046 6.99a257 257 0 0 1-5.49 3.923c-1.608 1.11-2.921 1.957-3.449 2.23-.683.346-1.36.705-2.039 1.06.112.39.194.823.276 1.17.848.038 1.697.055 2.546.08.501.013 1.94.176 3.71.442 1.77.267 3.913.625 5.996 1.012 4.42.823 7.743 1.309 10.242 1.44 2.496.13 4.194-.054 5.397-.696.904-.482 1.773-1.443 2.499-2.467.722-1.023 1.336-2.073 1.334-3.067a1 1 0 0 0-.108-.443.73.73 0 0 0-.276-.285.7.7 0 0 0-.383-.127.9.9 0 0 0-.475.127c-.466.344-.743.913-1.013 1.28-.695 1.178-1.352 1.817-2.484 2.247-1.126.427-2.79.601-5.335.601-2.257 0-5.768-.317-8.786-.728-1.508-.204-2.899-.43-3.94-.648h-.015c-.49-.103-.957-.212-1.252-.3.348-.385 1.07-.976 2.05-1.788 6.908-5.428 12.704-9.73 19.67-14.758H34.798z"/></svg>