<svg xmlns="http://www.w3.org/2000/svg" viewBox="0 0 64 64"><rect width="56.002" height="56.002" x="4" y="3.969" fill="#177ea4" rx="13.002" ry="13.002"/><path d="M17.002 3.969A12.974 12.974 0 0 0 4 16.97v29.998A12.974 12.974 0 0 0 17.002 59.97H24V3.969z" opacity=".25"/><rect width="2" height="56" x="23" y="4" fill="#fff" fill-rule="evenodd" rx="0" ry="0" style="paint-order:stroke fill markers"/><path d="M3.998 45.998v1c0 7.203 5.8 13.004 13.004 13.004h29.996c7.203 0 13.004-5.8 13.004-13.004v-1c0 7.203-5.8 13.002-13.004 13.002H17.002A12.975 12.975 0 0 1 3.998 45.998" opacity=".15"/><path fill="#fff" d="M3.998 18.004v-1C3.998 9.801 9.798 4 17.002 4h29.996c7.203 0 13.004 5.8 13.004 13.004v1c0-7.203-5.8-13.002-13.004-13.002H17.002A12.975 12.975 0 0 0 3.998 18.004" opacity=".15"/></svg>