<svg xmlns="http://www.w3.org/2000/svg" xmlns:xlink="http://www.w3.org/1999/xlink" width="64" height="64"><defs><linearGradient xlink:href="#a" id="i" x1="30" x2="34" y1="32" y2="32" gradientUnits="userSpaceOnUse"/><linearGradient id="a"><stop offset="0" stop-color="#20b2aa"/><stop offset="1" stop-color="#00ff7f"/></linearGradient><linearGradient xlink:href="#a" id="e" x1="-32" x2="-16" y1="38.928" y2="38.928" gradientTransform="rotate(-75 .002 -9.705)" gradientUnits="userSpaceOnUse"/><linearGradient id="b" x1="7.937" x2="7.937" y1="15.081" y2="1.852" gradientTransform="scale(3.7796)" gradientUnits="userSpaceOnUse"><stop offset="0" stop-color="#008b8b"/><stop offset="1" stop-color="#3cb371"/></linearGradient><linearGradient id="d" x1="32" x2="32" y1="8" y2="56" gradientUnits="userSpaceOnUse"><stop offset="0" stop-color="#fff"/><stop offset="1" stop-color="#ebebeb"/></linearGradient><filter id="f" width="1.359" height="1.04" x="-.179" y="-.02" color-interpolation-filters="sRGB"><feGaussianBlur stdDeviation=".15"/></filter><filter id="g" width="1.072" height="1.072" x="-.036" y="-.036" color-interpolation-filters="sRGB"><feGaussianBlur stdDeviation=".244"/></filter><filter id="c" width="1.085" height="1.085" x="-.043" y="-.043" color-interpolation-filters="sRGB"><feGaussianBlur stdDeviation=".54"/></filter><filter id="h" width="1.096" height="1.096" x="-.048" y="-.048" color-interpolation-filters="sRGB"><feGaussianBlur stdDeviation=".12"/></filter></defs><rect width="56.002" height="56.002" x="4" y="3.969" fill="url(#b)" rx="13.002" ry="13.002"/><path fill="none" stroke="#1e1e1e" stroke-width="1.5" d="M32 8a23.997 24 0 1 0 0 48 23.997 24 0 1 0 0-48z" filter="url(#c)" opacity=".03" style="mix-blend-mode:normal"/><path fill="url(#d)" d="M32 8a23.996 24 0 1 0 0 48 23.996 24 0 1 0 0-48"/><path fill="url(#e)" d="M36.144 16.546A16 16 0 0 1 47.457 27.86l-15.454 4.141z"/><path d="M31.998 14.998A1 1 0 0 0 30.996 16l.004.07v15.916a1 1 0 0 0 1.002.99 1 1 0 0 0 1.002-1.001l-.004-.07V15.989a1 1 0 0 0-1.002-.99z" filter="url(#f)" opacity=".5" transform="rotate(-60 34.343 23.227)scale(.8)"/><path d="m32.709 31.991 15.557 15.557-.71.707-15.558-15.557z" filter="url(#g)" opacity=".35" transform="rotate(-60 34.343 23.227)scale(.8)"/><path d="M35 32a3 3 0 0 1-3 3 3 3 0 0 1-3-3 3 3 0 0 1 3-3 3 3 0 0 1 3 3" filter="url(#h)" opacity=".5"/><g fill="#333"><path d="m32.276 31.505 17.002-4.556.205.775-17.002 4.556z"/><path d="M20.219 25.201a.8.8 0 0 0 .293 1.095l.05.025 11.028 6.367a.8.8 0 0 0 1.086-.298.8.8 0 0 0-.293-1.095l-.05-.026-11.018-6.361-.008-.005a.8.8 0 0 0-1.087.298z"/><g stroke-linecap="round" stroke-linejoin="round" stroke-width="4.125"><rect width="1" height="4" x="31.5" y="10" rx=".532" ry=".532"/><rect width="1" height="4" x="31.5" y="50" rx=".532" ry=".532"/><rect width="1" height="4" x="43.213" y="-10.287" rx=".532" ry=".532" transform="rotate(30)"/><rect width="1" height="4" x="43.213" y="29.713" rx=".532" ry=".532" transform="rotate(30)"/><rect width="1" height="4" x="43.213" y="-33.713" rx=".532" ry=".532" transform="rotate(60)"/><rect width="1" height="4" x="43.213" y="6.287" rx=".532" ry=".532" transform="rotate(60)"/><rect width="1" height="4" x="31.5" y="-54" rx=".532" ry=".532" transform="rotate(90)"/><rect width="1" height="4" x="31.5" y="-14" rx=".532" ry=".532" transform="rotate(90)"/><rect width="1" height="4" x="11.213" y="-65.713" rx=".532" ry=".532" transform="rotate(120)"/><rect width="1" height="4" x="11.213" y="-25.713" rx=".532" ry=".532" transform="rotate(120)"/><rect width="1" height="4" x="-12.213" y="-65.713" rx=".532" ry=".532" transform="rotate(150)"/><rect width="1" height="4" x="-12.213" y="-25.713" rx=".532" ry=".532" transform="rotate(150)"/></g></g><circle cx="32" cy="32" r="3" fill="#333"/><circle cx="32" cy="32" r="2" fill="url(#i)"/></svg>