<svg xmlns="http://www.w3.org/2000/svg" viewBox="0 0 64 64"><defs><filter id="a" width="1.202" height="1.44" x="-.101" y="-.22" color-interpolation-filters="sRGB"><feGaussianBlur stdDeviation=".678"/></filter></defs><rect width="56.002" height="56.002" x="4" y="3.969" fill="#f2f2f2" rx="13.002" ry="13.002"/><path d="M3.998 45.998v1c0 7.203 5.8 13.004 13.004 13.004h29.996c7.203 0 13.004-5.8 13.004-13.004v-1c0 7.203-5.8 13.002-13.004 13.002H17.002A12.975 12.975 0 0 1 3.998 45.998" opacity=".1"/><path fill="#fff" d="M3.998 18.004v-1C3.998 9.801 9.798 4 17.002 4h29.996c7.203 0 13.004 5.8 13.004 13.004v1c0-7.203-5.8-13.002-13.004-13.002H17.002A12.975 12.975 0 0 0 3.998 18.004" opacity=".5"/><g stroke-width=".596" transform="translate(-6.487 -4.711)scale(1.1469)"><circle cx="33.556" cy="31.969" r="16.681" fill="#f94c56"/><path fill="#2dba72" d="M30.949 15.08c-1.128.239-4.208.446-5.622 3.928 1.888-1.544 4.495-1.764 6.091-2.323-.735 3.719 1.727 4.736 2.657 5.488-.652-2.673-.63-4.308.97-5.277 2.706 2.754 4.972 1.717 6.398 1.316-1.285-.534-2.974-.373-4.855-2.62-.108-.129 3.187.875 3.954 1.229-.47-.716-2.653-1.403-3.851-1.797-1.198-.395-4.08-.295-5.742.056"/><path fill="#fff" d="m40.706 26.012-8.666 4.366-.28.14-.009.012a3.3 3.3 0 0 0-.802.573 3.298 3.298 0 1 0 5.404 3.533z"/><path fill="#4a4a4a" d="M34.312 32.405a1.49 1.49 0 1 1-2.106 2.106 1.49 1.49 0 0 1 2.106-2.106"/><path fill="#fff" d="M33.994 14.772c-1.078.02-2.214.133-3.045.308-1.129.24-4.209.447-5.623 3.929q.233-.188.477-.35c1.54-2.57 4.13-2.768 5.146-2.983 1.623-.342 4.396-.443 5.642-.081q0-.003-.003-.004c-.108-.128 3.187.876 3.954 1.23-.47-.716-2.653-1.403-3.85-1.798-.6-.197-1.62-.27-2.698-.251m2.594 1.415c1.427 1.705 2.743 2.024 3.857 2.312.358-.097.707-.205.998-.287-1.118-.465-2.543-.405-4.133-1.861-.43-.12-.755-.203-.722-.164m-5.17 1.094-.096.029c-.038.347-.04.663-.023.96a7 7 0 0 1 .119-.99zm2.275 2.585c-.034.626.05 1.352.225 2.195.045.033.116.08.156.112-.214-.881-.345-1.638-.381-2.307" filter="url(#a)" opacity=".2"/><path fill="#259a5e" d="m34.351 14.483-.704-.232s-.902.87-1.033.98c-.224.191 1.874.504 2.133.365l-.222-.901z"/></g></svg>