<svg xmlns="http://www.w3.org/2000/svg" viewBox="0 0 64 64"><rect width="56" height="56" x="4" y="4" fill="#f2f2f2" rx="13.002" ry="13.002"/><path fill="#1a5fb4" d="M58.83 11.617c-3.778 2.331-7.146 6.762-8.788 10.873h3.512c1.316-2.703 3.744-5.952 6.249-7.675a13 13 0 0 0-.973-3.198M22.515 30.03v3.567c3.262 1.712 6.375 4.45 7.99 7.736h3.548c-2.036-5.05-6.495-9.143-11.538-11.303m28.814.517c-3.532 0-6.869.785-9.828 2.17v3.686c2.845-1.662 6.212-2.625 9.828-2.625 3.137 0 6.087.726 8.672 2.002v-3.567a23.2 23.2 0 0 0-8.672-1.666M22.515 14.953v3.685c2.96 1.386 6.782 2.217 10.314 2.217a23.2 23.2 0 0 0 8.672-1.666V15.62a19.55 19.55 0 0 1-8.672 2.003c-3.616 0-7.468-1.01-10.314-2.671zm27.989 26.372A20.7 20.7 0 0 0 60.001 51v-3.685a17.3 17.3 0 0 1-5.836-5.99zM11.79 23a18.349 19.701 0 0 1 1.841 8.633 18.324 19.674 0 0 1-2.454 9.867h3.864a21.686 23.283 0 0 0 2.038-9.867A21.696 23.294 0 0 0 15.535 23zm20.416 18.5a21.696 23.294 0 0 0-1.542 8.633A21.686 23.283 0 0 0 32.7 60h3.864a18.323 19.673 0 0 1-2.455-9.867c0-3.099.662-6.027 1.841-8.633z"/><rect width="56" height=".5" x="4" y="24.5" opacity=".1" rx="0" ry="0" transform="translate(0 -2)"/><rect width="56" height=".5" x="4" y="24.5" opacity=".1" rx="0" ry="0" transform="translate(0 17)"/><rect width="56" height=".5" x="4" y="24.5" opacity=".1" rx="0" ry="0" transform="rotate(90 33 33)"/><rect width="56" height=".5" x="4" y="24.5" opacity=".1" rx="0" ry="0" transform="rotate(90 23.5 23.5)"/><path d="M4 42v4.998C4 54.201 9.8 60 17.002 60H22V42z" opacity=".06"/><path d="M3.998 45.998v1c0 7.203 5.8 13.004 13.004 13.004h29.996c7.203 0 13.004-5.8 13.004-13.004v-1c0 7.203-5.8 13.002-13.004 13.002H17.002A12.975 12.975 0 0 1 3.998 45.998" opacity=".1"/><path fill="#fff" d="M3.998 18.004v-1C3.998 9.801 9.798 4 17.002 4h29.996c7.203 0 13.004 5.8 13.004 13.004v1c0-7.203-5.8-13.002-13.004-13.002H17.002A12.975 12.975 0 0 0 3.998 18.004" opacity=".5"/></svg>