<svg xmlns="http://www.w3.org/2000/svg" xmlns:xlink="http://www.w3.org/1999/xlink" xml:space="preserve" width="64" height="64" viewBox="0 0 16.933 16.933"><defs><linearGradient id="a"><stop offset=".028" style="stop-color:#ae8dff;stop-opacity:1"/><stop offset=".63" style="stop-color:#8656ff;stop-opacity:1"/><stop offset="1" style="stop-color:#642bff;stop-opacity:1"/></linearGradient><linearGradient id="b" x1="8.062" x2="8.062" y1="15.142" y2="1.467" gradientUnits="userSpaceOnUse"><stop offset="0" stop-color="#2858e4"/><stop offset="1" stop-color="#5ab9f4"/></linearGradient><linearGradient id="c" x1="7.937" x2="7.937" y1="15.081" y2="1.852" gradientTransform="translate(5 .033)scale(3.7795)" gradientUnits="userSpaceOnUse"><stop offset="0" stop-color="#f1efeb"/><stop offset="1" stop-color="#fdfcfc"/></linearGradient><linearGradient xlink:href="#a" id="e" x1="8.467" x2="8.467" y1="2.275" y2="14.658" gradientUnits="userSpaceOnUse"/><filter id="d" width="1.057" height="1.057" x="-.028" y="-.028" style="color-interpolation-filters:sRGB"><feGaussianBlur stdDeviation=".146"/></filter></defs><rect width="55.999" height="55.999" x="9" y="4.001" fill="url(#b)" rx="13.001" ry="13.001" style="display:inline;fill:url(#c)" transform="translate(-1.323)scale(.26458)"/><circle cx="8.467" cy="8.652" r="6.191" style="fill:#000;fill-opacity:1;stroke:none;stroke-width:.873108;stroke-linecap:square;stroke-linejoin:round;paint-order:markers stroke fill;opacity:.7;filter:url(#d)"/><circle cx="8.467" cy="8.467" r="6.191" style="fill:url(#e);fill-opacity:1;stroke:none;stroke-width:.873108;stroke-linecap:square;stroke-linejoin:round;paint-order:markers stroke fill"/><path fill="#fff" d="M6.935 12.7s.47.007 1.066-.08c.242-.038 1.158-.184 1.838-.38 0 0 .829-.234 1.266-.432.459-.205.705-.373.804-.594.036-.075.079-.31-.25-.412-.522-.153-1.166-.082-2.444.045-1.418.03-1.906-.187-2.17-.369-.255-.186-.174-.745.82-1.29.5-.289 2.5-.884 2.5-.884-.71-.31-2.031-.85-2.303-.968-.238-.103-.62-.257-.714-.464-.105-.198.186-.39.352-.45.536-.195 1.302-.34 2.004-.392.354-.026.41-.053.41-.053.481-.112.778-.475.605-1.012-.161-.55-.817-.841-1.412-.693-.559.14-1.897.627-1.897.627 1.689-.112 1.973-.099 2.113.076.082.103-.015.257-.46.359-.486.11-1.498.268-1.498.268-.974.116-1.662.16-1.837.623-.113.303.184.548.319.704.559.563 1.328.84 1.826 1.048.187.078.73.215.73.215-1.565 0-2.654.559-3.273 1.165-.694.755-.303 1.585 1.262 2.02.89.212 1.402.272 2.72.174.79-.09.917-.07.93-.004.018.094-.858.38-1.096.466-.606.22-2.203.685-2.211.687"/></svg>