<svg xmlns="http://www.w3.org/2000/svg" viewBox="0 0 16.933 16.933"><defs><linearGradient id="a" x1="8.474" x2="8.474" y1=".149" y2="5.942" gradientUnits="userSpaceOnUse"><stop offset="0" stop-color="#d1d1d1"/><stop offset=".3" stop-color="#f2f2f2"/><stop offset="1" stop-color="#ccc"/></linearGradient></defs><rect width="14.817" height="14.817" x="1.058" y="1.05" fill="#8b99a0" rx="3.44" ry="3.44"/><rect width="13.404" height="13.389" x="1.765" y="1.772" fill="#f2f2f2" rx="2.836" ry="2.836"/><path fill="#4d4d4d" d="M8.467 3.406c-.08 0-.16.031-.226.094L5.944 5.7c-.253.243-.179.47 0 .475h.905v5.02h-.905c-.179.005-.253.231 0 .474l2.297 2.2a.33.33 0 0 0 .226.094c.08 0 .16-.031.225-.094l2.297-2.2c.253-.243.179-.47 0-.475h-.905v-5.02h.905c.179-.005.253-.231 0-.474L8.692 3.5a.33.33 0 0 0-.225-.094"/><path fill="#ececec" stroke="#a6a6a6" stroke-linecap="round" stroke-linejoin="round" stroke-width=".054" d="m2.381 1.542.865-.38c.053-.024.103.049.103.11v1.376c0 .061-.05.132-.103.11l-.864-.351c-.054-.022-.104-.05-.104-.11v-.645c0-.06.05-.086.104-.11z"/><path fill="#c72418" d="M6.572 3.446a12.6 12.6 0 0 1-3.203-.579c-.14-.046-.267-.11-.292-.285a8 8 0 0 1-.007-1.35c.017-.134.161-.186.284-.225C4.436.675 5.556.44 6.793.417z"/><path fill="#ececec" stroke="#a6a6a6" stroke-linecap="round" stroke-linejoin="round" stroke-width=".054" d="m14.502 1.542-.864-.38c-.053-.024-.104.049-.104.11v1.376c0 .061.05.132.104.11l.864-.351c.054-.022.104-.05.104-.11v-.645c0-.06-.051-.086-.104-.11"/><path fill="#c72418" d="M10.311 3.446a12.6 12.6 0 0 0 3.203-.579c.14-.046.266-.11.292-.285a8 8 0 0 0 .007-1.35c-.018-.134-.162-.186-.284-.225-1.082-.332-2.203-.567-3.44-.59z"/><path fill="#fff" d="M6.793.417c-1.237.023-2.357.258-3.439.59-.123.04-.267.09-.284.225a8 8 0 0 0-.024.704 8 8 0 0 1 .024-.507c.017-.134.161-.186.284-.225C4.432.874 5.548.639 6.78.614l.014-.197zm3.296 0 .014.19c1.231.024 2.348.258 3.426.589.122.039.266.091.284.225a8 8 0 0 1 .025.535 8 8 0 0 0-.025-.724c-.018-.134-.162-.186-.284-.225-1.082-.332-2.203-.567-3.44-.59" opacity=".25"/><path fill="url(#a)" d="M6.901.261c-.83.281-.219 4.527-.055 7.395v1.053c0 .115.093.207.207.207h2.821a.207.207 0 0 0 .208-.207v-.885C10.06 6.3 11.008.525 9.97.261z"/></svg>