<svg xmlns="http://www.w3.org/2000/svg" viewBox="0 0 64 64"><defs><linearGradient id="a" x1="7.937" x2="7.937" y1="15.081" y2="1.852" gradientTransform="scale(3.7796)" gradientUnits="userSpaceOnUse"><stop offset="0" stop-color="#b5bfc0"/><stop offset="1" stop-color="#dddfe1"/></linearGradient><linearGradient id="b" x1="25" x2="25" y1="40" y2="-22" gradientTransform="translate(-3.89 -3.144)scale(1.4955)" gradientUnits="userSpaceOnUse"><stop offset="0" stop-color="#fdbc4b"/><stop offset=".274" stop-color="#da4453"/><stop offset="1" stop-color="#9b59b6"/></linearGradient><linearGradient id="c" x1="6.35" x2="6.35" y1="5.027" y2="8.466" gradientTransform="translate(-3.891 -3.144)scale(5.6521)" gradientUnits="userSpaceOnUse"><stop offset="0" stop-color="#fdbc4b"/><stop offset="1" stop-color="#fdca70"/></linearGradient><linearGradient id="d" x1="24" x2="24" y1="41" y2="8.052" gradientTransform="translate(-3.891 -3.144)scale(1.4955)" gradientUnits="userSpaceOnUse"><stop offset="0" stop-color="#2c3e50"/><stop offset="1" stop-color="#34495e"/></linearGradient></defs><rect width="56.002" height="56.002" x="4" y="3.969" fill="url(#a)" rx="13.002" ry="13.002" style="fill:#cbd1d2;fill-opacity:1"/><path fill="url(#b)" d="M17 7C11.46 7 7 11.46 7 17v30c0 5.54 4.46 10 10 10h30c5.54 0 10-4.46 10-10V17c0-5.54-4.46-10-10-10z" style="paint-order:stroke fill markers;fill:#d64559;fill-opacity:1"/><circle cx="32.001" cy="37.234" r="11.964" fill="url(#c)" style="paint-order:normal;fill:#fdc157;fill-opacity:1"/><path fill="url(#d)" d="M49.945 25.27 36.486 38.729l-7.477-2.99-8.974 8.973-4.486-4.487-8.405 8.406A9.97 9.97 0 0 0 17 57.001h30c5.54 0 10-4.46 10-10V26.343l-1.073-1.073-2.992 2.992z" style="paint-order:normal;fill:#2e4154;fill-opacity:1"/><path d="M3.998 45.998v1c0 7.203 5.8 13.004 13.004 13.004h29.996c7.203 0 13.004-5.8 13.004-13.004v-1c0 7.203-5.8 13.002-13.004 13.002H17.002A12.975 12.975 0 0 1 3.998 45.998" opacity=".15"/><path fill="#fff" d="M3.998 18.004v-1C3.998 9.801 9.798 4 17.002 4h29.996c7.203 0 13.004 5.8 13.004 13.004v1c0-7.203-5.8-13.002-13.004-13.002H17.002A12.975 12.975 0 0 0 3.998 18.004" opacity=".15"/></svg>