<svg xmlns="http://www.w3.org/2000/svg" viewBox="0 0 16.933 16.933"><rect width="14.817" height="14.817" x="1.058" y="1.05" fill="#f2f2f2" rx="3.44" ry="3.44"/><path fill="#363636" d="M8.466 5.82a2.646 2.646 0 0 0-2.645 2.647 2.646 2.646 0 0 0 2.646 2.645 2.646 2.646 0 0 0 2.645-2.646 2.646 2.646 0 0 0-2.646-2.645zm-.02 1.765h.02a.88.88 0 0 1 .882.881.88.88 0 0 1-.881.882.88.88 0 0 1-.882-.882.88.88 0 0 1 .86-.881zM5.065 3.704c-.754 0-1.36.607-1.36 1.36v1.361h.68v-1.36c0-.377.303-.68.68-.68h1.36v-.68zm5.442 0v.68h1.361c.377 0 .68.304.68.68v1.361h.68v-1.36c0-.754-.606-1.36-1.36-1.36zm-6.803 6.803v1.361c0 .754.607 1.36 1.36 1.36h1.361v-.68h-1.36a.68.68 0 0 1-.68-.68v-1.36zm8.845 0v1.361c0 .377-.304.68-.68.68h-1.361v.68h1.36c.754 0 1.361-.606 1.361-1.36v-1.36z" opacity=".8"/><path d="M1.058 12.17v.265a3.433 3.433 0 0 0 3.44 3.44h7.937a3.433 3.433 0 0 0 3.44-3.44v-.265a3.433 3.433 0 0 1-3.44 3.44H4.498a3.433 3.433 0 0 1-3.44-3.44" opacity=".1"/><path fill="#fff" d="M1.058 4.763V4.5a3.433 3.433 0 0 1 3.44-3.44h7.937a3.433 3.433 0 0 1 3.44 3.44v.265a3.433 3.433 0 0 0-3.44-3.44H4.498a3.433 3.433 0 0 0-3.44 3.44z" opacity=".5"/></svg>