<svg xmlns="http://www.w3.org/2000/svg" stroke-linecap="round" stroke-linejoin="round" stroke-miterlimit="10" clip-rule="evenodd" viewBox="0 0 62.441 64"><rect width="56.002" height="56.002" x="3.999" y="3.969" fill="#f2f2f2" rx="13.002" ry="13.002"/><path d="M3.998 45.998v1c0 7.203 5.8 13.004 13.004 13.004h29.996c7.203 0 13.004-5.8 13.004-13.004v-1c0 7.203-5.8 13.002-13.004 13.002H17.002A12.975 12.975 0 0 1 3.998 45.998" opacity=".1"/><path fill="#fff" d="M3.998 18.004v-1C3.998 9.801 9.798 4 17.002 4h29.996c7.203 0 13.004 5.8 13.004 13.004v1c0-7.203-5.8-13.002-13.004-13.002H17.002A12.975 12.975 0 0 0 3.998 18.004" opacity=".5"/><g transform="matrix(1.4 0 0 1.4 -9.783 -16.507)"><circle cx="37.788" cy="23.754" r="1.5" fill="#767677"/><circle cx="22.288" cy="46.254" r="2" fill="#9e9e9e"/><circle cx="20.788" cy="24.754" r="1.5" fill="#616262"/><path fill="#f37726" d="M29.288 24.254c-5 0-9 4-10 7 3-3 7-4 10-4s7 1 10 4c-1-3-5-7-10-7m-10 14c1 3 5 7 10 7s9-4 10-7c-3 3-7 4-10 4s-7-1-10-4"/></g></svg>