<svg xmlns="http://www.w3.org/2000/svg" width="64" height="64"><defs><linearGradient id="a" x1="7.937" x2="7.937" y1="15.081" y2="1.852" gradientTransform="scale(3.7796)" gradientUnits="userSpaceOnUse"><stop offset="0" stop-color="#f1efeb"/><stop offset="1" stop-color="#fdfcfc"/></linearGradient></defs><rect width="56" height="56" x="4" y="4" fill="url(#a)" rx="13" ry="13" style="fill:url(#a)"/><path fill="#44d993" d="M47.714 29.143h-2.572v-6.857a3.44 3.44 0 0 0-3.428-3.429h-6.859v-2.57c0-2.401-1.885-4.287-4.285-4.287s-4.286 1.886-4.286 4.287v2.57h-6.857A3.44 3.44 0 0 0 16 22.287V28.8h2.57c2.573 0 4.63 2.058 4.63 4.63s-2.057 4.627-4.63 4.627H16v6.514a3.44 3.44 0 0 0 3.428 3.43h6.514v-2.573c0-2.57 2.059-4.628 4.63-4.628s4.627 2.058 4.627 4.628V48h6.514a3.44 3.44 0 0 0 3.43-3.429v-6.857h2.571c2.4 0 4.286-1.885 4.286-4.286s-1.885-4.285-4.286-4.285"/></svg>