<svg xmlns="http://www.w3.org/2000/svg" viewBox="0 0 64 64"><g stroke-width="3.78"><rect width="56.002" height="56.002" x="3.999" y="3.969" fill="#f2f2f2" rx="13.002" ry="13.002"/><path d="M3.999 45.998V47A12.975 12.975 0 0 0 17 60.002h30A12.975 12.975 0 0 0 60.002 47v-1.002A12.975 12.975 0 0 1 47 59H17A12.975 12.975 0 0 1 4 45.998z" opacity=".1"/><path fill="#fff" d="M3.999 18.002v-.994A12.975 12.975 0 0 1 17 4.006h30a12.975 12.975 0 0 1 13.002 13.002v1.002A12.975 12.975 0 0 0 47 5.008H17A12.975 12.975 0 0 0 4 18.01z" opacity=".5"/><circle cx="15.5" cy="18.501" r="4.502" fill="#0079fd"/><path fill="#fff" d="M15.5 15.001a3.5 3.5 0 0 0-3.5 3.5 3.5 3.5 0 0 0 3.5 3.5 3.5 3.5 0 0 0 3.5-3.5 3.5 3.5 0 0 0-3.5-3.5m0 .998a2.5 2.5 0 0 1 2.498 2.502 2.5 2.5 0 0 1-2.498 2.498 2.5 2.5 0 0 1-2.498-2.498 2.5 2.5 0 0 1 2.498-2.502"/><circle cx="15.5" cy="32.501" r="4.502" fill="#fb3027"/><path fill="#fff" d="M15.5 29.001a3.5 3.5 0 0 0-3.5 3.5 3.5 3.5 0 0 0 3.5 3.5 3.5 3.5 0 0 0 3.5-3.5 3.5 3.5 0 0 0-3.5-3.5m0 .998a2.5 2.5 0 0 1 2.498 2.502 2.5 2.5 0 0 1-2.498 2.498 2.5 2.5 0 0 1-2.498-2.498 2.5 2.5 0 0 1 2.498-2.502"/><circle cx="15.5" cy="46.5" r="4.502" fill="#f79500"/><path fill="#fff" d="M15.5 43.001a3.5 3.5 0 0 0-3.5 3.5 3.5 3.5 0 0 0 3.5 3.5 3.5 3.5 0 0 0 3.5-3.5 3.5 3.5 0 0 0-3.5-3.5m0 1.002a2.5 2.5 0 0 1 2.498 2.498 2.5 2.5 0 0 1-2.498 2.498 2.5 2.5 0 0 1-2.498-2.498 2.5 2.5 0 0 1 2.498-2.498"/></g><g fill="#b3b3b3" stroke-width="3.78"><rect width="27.999" height="1.002" x="24" y="17.998" ry=".499"/><rect width="27.999" height="1.002" x="24" y="31.998" ry=".499"/><rect width="27.999" height="1.002" x="24" y="46.002" ry=".499"/></g><path d="M60.836 40.875q-.292-.707-.658-1.385-.206-.385-.437-.76a16.7 16.7 0 0 0-2.425-3.043Q52.629 31 46.001 31q-6.63 0-11.313 4.687Q30.001 40.372 30 47t4.687 11.315Q39.372 62.999 46 62.999c6.628 0 8.191-1.56 11.315-4.684q2.58-2.583 3.74-5.755.944-2.584.944-5.56a16.5 16.5 0 0 0-.688-4.799 16 16 0 0 0-.476-1.327z" opacity=".15"/><path fill="#4d4d4d" d="M60.836 39.874q-.292-.707-.658-1.385-.206-.385-.437-.76a16.7 16.7 0 0 0-2.425-3.043q-4.687-4.687-11.315-4.687-6.63 0-11.313 4.687Q30.001 39.371 30 45.999t4.687 11.315Q39.372 61.998 46 61.998c6.628 0 8.191-1.56 11.315-4.684q2.58-2.583 3.74-5.755.944-2.584.944-5.56a16.5 16.5 0 0 0-.688-4.799 16 16 0 0 0-.476-1.327z"/><path fill="#fff" d="m52.874 35.316-.54 1.442c-.035.095 0 .22.08.282l.636.486c.078.06.21.063.293.004l1.252-.894a.22.22 0 0 1 .278.024l.525.524a.22.22 0 0 1 .023.278l-.894 1.252a.26.26 0 0 0 .005.293l.487.635c.06.078.188.116.282.08l1.44-.54a.22.22 0 0 1 .262.095l.371.642a.22.22 0 0 1-.05.275l-1.188.978a.26.26 0 0 0-.071.284l.305.74c.038.09.151.16.252.15l1.532-.149c.1-.01.204.061.23.159l.191.717a.22.22 0 0 1-.118.252l-1.403.637a.26.26 0 0 0-.142.257l.105.792a.26.26 0 0 0 .204.21l1.519.253c.1.017.18.112.18.213v.742a.22.22 0 0 1-.18.212l-1.517.253a.26.26 0 0 0-.204.21l-.104.794a.27.27 0 0 0 .143.256l1.4.637a.224.224 0 0 1 .118.252l-.191.716a.22.22 0 0 1-.23.16l-1.53-.149a.26.26 0 0 0-.252.15l-.307.74a.26.26 0 0 0 .071.284l1.189.978c.078.065.1.187.05.275l-.372.642a.22.22 0 0 1-.263.095l-1.442-.54a.26.26 0 0 0-.281.08l-.486.635a.27.27 0 0 0-.005.293l.894 1.253a.22.22 0 0 1-.023.278l-.525.524a.22.22 0 0 1-.278.024l-1.251-.894a.26.26 0 0 0-.293.005l-.636.487a.26.26 0 0 0-.08.281l.54 1.441a.22.22 0 0 1-.095.262l-.642.37a.22.22 0 0 1-.274-.049l-.979-1.188a.26.26 0 0 0-.284-.071l-.739.305a.27.27 0 0 0-.15.251l.148 1.533c.01.1-.06.203-.159.23l-.716.191a.22.22 0 0 1-.252-.119l-.638-1.402a.26.26 0 0 0-.256-.142l-.793.104a.26.26 0 0 0-.21.205l-.253 1.518a.22.22 0 0 1-.212.18h-.742a.22.22 0 0 1-.213-.18l-.252-1.517a.26.26 0 0 0-.21-.203l-.794-.104a.27.27 0 0 0-.256.143l-.637 1.4a.224.224 0 0 1-.252.118l-.717-.192a.22.22 0 0 1-.159-.23l.148-1.53a.26.26 0 0 0-.15-.251l-.74-.307a.26.26 0 0 0-.283.07l-.979 1.19a.22.22 0 0 1-.275.049l-.642-.371a.22.22 0 0 1-.094-.263l.54-1.442a.26.26 0 0 0-.08-.281l-.636-.487a.27.27 0 0 0-.293-.004l-1.252.894a.22.22 0 0 1-.278-.023l-.525-.525a.22.22 0 0 1-.023-.278l.894-1.252a.26.26 0 0 0-.005-.293l-.488-.635a.26.26 0 0 0-.28-.08l-1.442.54a.22.22 0 0 1-.262-.095l-.37-.642a.22.22 0 0 1 .049-.275l1.189-.978a.26.26 0 0 0 .07-.284l-.305-.74a.27.27 0 0 0-.25-.15l-1.534.15a.22.22 0 0 1-.229-.16l-.192-.716a.22.22 0 0 1 .12-.252l1.401-.638a.26.26 0 0 0 .143-.256l-.105-.793a.26.26 0 0 0-.204-.21l-1.519-.253a.22.22 0 0 1-.18-.213v-.741a.22.22 0 0 1 .18-.213l1.517-.253a.26.26 0 0 0 .203-.21l.104-.793a.27.27 0 0 0-.142-.257l-1.4-.637a.224.224 0 0 1-.119-.252l.192-.716c.027-.1.13-.17.23-.16l1.53.149a.26.26 0 0 0 .252-.15l.307-.74a.26.26 0 0 0-.071-.284l-1.189-.978a.22.22 0 0 1-.05-.275l.371-.642a.22.22 0 0 1 .263-.094l1.443.54a.26.26 0 0 0 .28-.08l.487-.636a.27.27 0 0 0 .004-.293l-.894-1.253a.22.22 0 0 1 .024-.277l.525-.525a.22.22 0 0 1 .278-.024l1.251.894a.26.26 0 0 0 .293-.005l.635-.487a.26.26 0 0 0 .08-.281l-.54-1.44a.22.22 0 0 1 .096-.263l.642-.37a.22.22 0 0 1 .274.049l.979 1.188a.26.26 0 0 0 .283.072l.74-.306c.09-.038.16-.15.15-.251l-.149-1.533a.22.22 0 0 1 .16-.23l.716-.19a.22.22 0 0 1 .252.118l.638 1.402a.26.26 0 0 0 .256.142l.793-.104a.26.26 0 0 0 .21-.204l.253-1.519c.016-.1.112-.18.212-.18h.742a.22.22 0 0 1 .212.18l.253 1.517c.017.1.11.19.21.203l.794.104a.27.27 0 0 0 .256-.142l.637-1.4a.224.224 0 0 1 .252-.119l.717.192c.1.027.169.129.159.23l-.148 1.53a.26.26 0 0 0 .15.251l.74.308c.09.037.22.006.283-.071l.979-1.19a.22.22 0 0 1 .274-.049l.642.371c.09.052.13.169.095.263m-2.458 3.073a8.83 8.83 0 0 0-6.606-.916c-.416.106-.172.048-.172.048-.579.198-.81.794-.518 1.327 0 0-.168-.307.014.023l2.598 4.74c.392.716 1.37 1.281 2.187 1.265l5.759-.12c.356-.008 0 0 0 0 .59-.013.975-.51.846-1.067a8.83 8.83 0 0 0-4.107-5.3zm-.145 15.417a8.83 8.83 0 0 0 4.187-5.192c.124-.41.048-.171.048-.171.13-.599-.263-1.103-.87-1.128 0 0 .35.014-.027 0l-5.401-.215c-.815-.033-1.804.515-2.21 1.223l-2.864 4.998c-.177.31 0 0 0 0-.293.514-.064 1.099.48 1.275 0 0-.344-.095 0 0a8.83 8.83 0 0 0 6.657-.79m-10.48-1.41c.425.382 1.047.287 1.344-.224 0 0-.18.308 0 0l2.896-4.979c.41-.706.39-1.836-.045-2.525l-2.886-4.57c-.202-.32-.014-.023-.014-.023-.324-.514-.958-.601-1.412-.19 0 0 .17-.186-.124.127a8.83 8.83 0 0 0-2.403 6.222 8.83 8.83 0 0 0 2.645 6.161z" class="shp86"/></svg>