<svg xmlns="http://www.w3.org/2000/svg" fill="none" viewBox="0 0 64 64"><rect width="56.002" height="56.002" x="4" y="3.969" fill="#f2f2f2" rx="13.002" ry="13.002"/><path d="M3.998 45.998v1c0 7.203 5.8 13.004 13.004 13.004h29.996c7.203 0 13.004-5.8 13.004-13.004v-1c0 7.203-5.8 13.002-13.004 13.002H17.002A12.975 12.975 0 0 1 3.998 45.998" opacity=".1"/><path fill="#fff" d="M3.998 18.004v-1C3.998 9.801 9.798 4 17.002 4h29.996c7.203 0 13.004 5.8 13.004 13.004v1c0-7.203-5.8-13.002-13.004-13.002H17.002A12.975 12.975 0 0 0 3.998 18.004" opacity=".5"/><path fill="#347ea0" d="M53.5 15.706a2 2 0 0 0-2-2h-36a2 2 0 0 0-2 2v26a2 2 0 0 0 2 2h17.586a1 1 0 0 1 .707.293l8 8c.63.63 1.707.184 1.707-.707v-6.586a1 1 0 0 1 1-1h7a2 2 0 0 0 2-2z"/><path fill="#41d5dc" d="M10.5 13.706a2 2 0 0 1 2-2h36a2 2 0 0 1 2 2v26a2 2 0 0 1-2 2H30.914a1 1 0 0 0-.707.293l-8 8c-.63.63-1.707.184-1.707-.707v-6.586a1 1 0 0 0-1-1h-7a2 2 0 0 1-2-2z"/><rect width="30" height="4" x="15.5" y="17.706" fill="#fff" opacity=".75" rx="2"/><rect width="25" height="4" x="15.5" y="24.706" fill="#fff" opacity=".75" rx="2"/><rect width="20" height="4" x="15.5" y="31.706" fill="#fff" opacity=".75" rx="2"/></svg>