<svg xmlns="http://www.w3.org/2000/svg" width="62.748" height="62.748" viewBox="0 0 16.602 16.602"><defs><linearGradient id="a" x1="7.937" x2="7.937" y1="15.081" y2="1.852" gradientUnits="userSpaceOnUse"><stop offset="0" stop-color="#f1efeb"/><stop offset="1" stop-color="#fdfcfc"/></linearGradient></defs><rect width="14.817" height="14.817" x="1.058" y="1.05" fill="url(#a)" rx="3.44" ry="3.44"/><path fill="#1e5cba" fill-opacity=".694" d="M7.937 10.583v7.4h.53v-7.4z" style="paint-order:normal" transform="translate(3.274 -2.117)"/><path fill="#319e2a" fill-opacity=".816" d="M5.82 10.615v7.369h.53v-7.369z" style="paint-order:normal" transform="translate(3.274 -2.117)"/><path fill="#373737" fill-opacity=".733" d="m6.085 6.085-.264.265v.265l.132.264-.132.265v1.852h.529V7.144l-.132-.265.132-.264V6.35zm2.117 0-.264.265v.265l.132.264-.132.265v1.852h.529V7.144l-.133-.265.133-.264V6.35zm2.117 0-.265.265v.265l.133.264-.133.265v1.852h.53V7.144l-.133-.265.132-.264V6.35z" style="paint-order:normal" transform="translate(3.274 -2.117)"/><path fill="#be32e1" d="M10.054 10.614v7.25q.275-.074.53-.189v-7.061z" style="paint-order:normal" transform="translate(3.274 -2.117)"/><path fill="#3a3a3a" fill-opacity=".984" d="M5.292 8.731v.53h.264v1.851h1.058V9.26h.265v-.529zm2.116 0v.53h.265v1.851H8.73V9.26h.265v-.529zm2.117 0v.53h.265v1.851h1.058V9.26h.264v-.529z" style="paint-order:normal" transform="translate(3.274 -2.117)"/><path fill="#fff" d="m5.82 6.615.133.264-.132.265h.529l-.132-.265.132-.264zm2.117 0 .133.264-.133.265h.53l-.133-.265.133-.264zm2.117 0 .132.264-.132.265h.53l-.133-.265.132-.264z" opacity=".15" style="paint-order:normal" transform="translate(3.274 -2.117)"/><path fill="#f1f157" d="M7.937 10.583v7.4h.53v-7.4z" style="paint-order:normal" transform="translate(-3.076 -2.117)"/><path fill="#e66" d="M5.82 10.615v6.887q.252.15.53.255v-7.142z" style="paint-order:normal" transform="translate(-3.076 -2.117)"/><path fill="#373737" fill-opacity=".733" d="m6.085 6.085-.264.265v.265l.132.264-.132.265v1.852h.529V7.144l-.132-.265.132-.264V6.35zm2.117 0-.264.265v.265l.132.264-.132.265v1.852h.529V7.144l-.133-.265.133-.264V6.35zm2.117 0-.265.265v.265l.133.264-.133.265v1.852h.53V7.144l-.133-.265.132-.264V6.35z" style="paint-order:normal" transform="translate(-3.076 -2.117)"/><path fill="#8484e4" d="M10.054 10.614v7.37h.53v-7.37z" style="paint-order:normal" transform="translate(-3.076 -2.117)"/><path fill="#3a3a3a" fill-opacity=".984" d="M5.292 8.731v.53h.264v1.851h1.058V9.26h.265v-.529zm2.116 0v.53h.265v1.851H8.73V9.26h.265v-.529zm2.117 0v.53h.265v1.851h1.058V9.26h.264v-.529z" style="paint-order:normal" transform="translate(-3.076 -2.117)"/><path fill="#fff" d="m5.82 6.615.133.264-.132.265h.529l-.132-.265.132-.264zm2.117 0 .133.264-.133.265h.53l-.133-.265.133-.264zm2.117 0 .132.264-.132.265h.53l-.133-.265.132-.264z" opacity=".15" style="paint-order:normal" transform="translate(-3.076 -2.117)"/></svg>