<svg xmlns="http://www.w3.org/2000/svg" viewBox="0 0 64 64"><defs><linearGradient id="b" x1="32" x2="32" y1="2" y2="62" gradientTransform="translate(99.254)" gradientUnits="userSpaceOnUse"><stop offset="0" stop-color="#f49e7a"/><stop offset=".515" stop-color="#fe9a69"/><stop offset=".515" stop-color="#c84b2b"/><stop offset="1" stop-color="#b83720"/></linearGradient><linearGradient id="c" x1="32" x2="32" y1="8" y2="56" gradientTransform="matrix(.75 0 0 .75 21 21)" gradientUnits="userSpaceOnUse"><stop offset="0" stop-color="#bc3b22"/><stop offset="1" stop-color="#e05d3e"/></linearGradient><linearGradient id="a" x1="32" x2="32" y1="2" y2="62" gradientTransform="translate(-92.491)" gradientUnits="userSpaceOnUse"><stop offset="0" stop-color="#e36f49"/><stop offset=".515" stop-color="#e6653c"/><stop offset=".515" stop-color="#c84b2b"/><stop offset="1" stop-color="#d33f24"/></linearGradient></defs><rect width="56" height="56" x="4" y="4" fill="url(#a)" rx="13.002" ry="13.002"/><path fill="url(#b)" d="M25 4v56h21.998A12.974 12.974 0 0 0 60 46.998V17.002A12.974 12.974 0 0 0 46.998 4Z"/><path d="M3.998 45.998v1c0 7.203 5.8 13.004 13.004 13.004h29.996c7.203 0 13.004-5.8 13.004-13.004v-1c0 7.203-5.8 13.002-13.004 13.002H17.002A12.975 12.975 0 0 1 3.998 45.998" opacity=".15"/><circle cx="45" cy="45" r="18" fill="url(#c)" style="fill:#cc4a2f;fill-rule:evenodd;paint-order:stroke fill markers;fill-opacity:1"/><path fill="#fff" d="M38.102 36.001 38 56h5.275v-6.17c7.224.014 10.896-.928 10.896-6.864 0-6.571-3.593-6.99-10.896-6.965zm7.092 4.223c1.752.042 4.09.527 4.09 2.818 0 3.666-5.984 2.707-5.984 2.707v-5.417s.843-.133 1.894-.108"/><path fill="#fff" d="M3.998 18.004v-1C3.998 9.801 9.798 4 17.002 4h29.996c7.203 0 13.004 5.8 13.004 13.004v1c0-7.203-5.8-13.002-13.004-13.002H17.002A12.975 12.975 0 0 0 3.998 18.004" opacity=".15"/></svg>