<svg xmlns="http://www.w3.org/2000/svg" viewBox="0 0 64 64"><defs><linearGradient id="a" x1="34.781" x2="34.781" y1="15.304" y2="48.696" gradientUnits="userSpaceOnUse"><stop offset="0" stop-color="#2c2054"/><stop offset="1" stop-color="#3f2e76"/></linearGradient><linearGradient id="b" x1="20.174" x2="20.174" y1="15.297" y2="48.696" gradientUnits="userSpaceOnUse"><stop offset="0" stop-color="#f4941e"/><stop offset="1" stop-color="#f4a138"/></linearGradient></defs><rect width="56.002" height="56.002" x="4" y="3.969" fill="#f2f2f2" rx="13.002" ry="13.002"/><path d="M3.998 45.998v1c0 7.203 5.8 13.004 13.004 13.004h29.996c7.203 0 13.004-5.8 13.004-13.004v-1c0 7.203-5.8 13.002-13.004 13.002H17.002A12.975 12.975 0 0 1 3.998 45.998" opacity=".1"/><path fill="#fff" d="M3.998 18.004v-1C3.998 9.801 9.798 4 17.002 4h29.996c7.203 0 13.004 5.8 13.004 13.004v1c0-7.203-5.8-13.002-13.004-13.002H17.002A12.975 12.975 0 0 0 3.998 18.004" opacity=".5"/><g fill-rule="evenodd" stroke-width="1.391"><path fill="url(#a)" d="M34.777 15.304c-6.756 0-12.538 3.987-15.168 9.74h30.348c-2.63-5.753-8.414-9.74-15.174-9.74zM18.635 27.826c-.231.902-.4 1.827-.478 2.783h33.247a16.7 16.7 0 0 0-.47-2.783h-32.3zm-.478 5.565c.078.956.247 1.881.478 2.783h32.296a16.7 16.7 0 0 0 .473-2.783zm1.448 5.565c2.629 5.753 8.413 9.74 15.171 9.74h.005c6.762 0 12.547-3.987 15.176-9.74H19.603z"/><path fill="url(#b)" d="M27.826 15.304c-9.25 0-16.696 7.446-16.696 16.696s7.446 16.696 16.696 16.696c.473 0 .924-.049 1.391-.088C20.63 47.896 13.913 40.771 13.913 32c0-8.777 6.718-15.903 15.304-16.609-.467-.043-.918-.091-1.391-.091"/></g></svg>