<svg xmlns="http://www.w3.org/2000/svg" viewBox="0 0 64 64"><path fill="#f05550" d="M17.002 3.97h29.996C54.174 3.97 60 9.796 60 16.972v29.996c0 7.176-5.826 13.002-13.002 13.002H17.002C9.826 59.97 4 54.144 4 46.968V16.972C4 9.796 9.826 3.97 17.002 3.97" style="isolation:isolate"/><path fill="#fff" d="M22 17c0 2.75-2.24 5-5 5s-5-2.25-5-5 2.24-5 5-5 5 2.25 5 5m30 0c0 2.75-2.24 5-5 5s-5-2.25-5-5 2.24-5 5-5 5 2.25 5 5M22 47c0 2.75-2.24 5-5 5s-5-2.25-5-5 2.24-5 5-5 5 2.25 5 5m30 0c0 2.75-2.24 5-5 5s-5-2.25-5-5 2.24-5 5-5 5 2.25 5 5"/><path fill="#fff" d="M52 17c0 2.75-2.24 5-5 5s-5-2.25-5-5 2.24-5 5-5 5 2.25 5 5M37 32c0 2.75-2.24 5-5 5s-5-2.25-5-5 2.24-5 5-5 5 2.25 5 5"/><path d="M3.998 45.998v1c0 7.203 5.8 13.004 13.004 13.004h29.996c7.203 0 13.004-5.8 13.004-13.004v-1c0 7.203-5.8 13.002-13.004 13.002H17.002A12.975 12.975 0 0 1 3.998 45.998" opacity=".15"/><path fill="#fff" d="M3.998 18.004v-1C3.998 9.801 9.798 4 17.002 4h29.996c7.203 0 13.004 5.8 13.004 13.004v1c0-7.203-5.8-13.002-13.004-13.002H17.002A12.975 12.975 0 0 0 3.998 18.004" opacity=".15"/></svg>