<svg xmlns="http://www.w3.org/2000/svg" viewBox="0 0 16.933 16.933"><path fill="#d24645" d="M4.495 1.058a3.43 3.43 0 0 0-3.44 3.44v7.937a3.43 3.43 0 0 0 3.44 3.44h7.936a3.43 3.43 0 0 0 3.44-3.44V4.498a3.43 3.43 0 0 0-3.44-3.44z"/><rect width="13.228" height="13.228" x="1.853" y="1.852" fill="#fff" rx="2.646" ry="2.646"/><path d="M4.499 1.852a2.64 2.64 0 0 0-2.646 2.646v7.937a2.64 2.64 0 0 0 2.646 2.645h3.968V1.852z" opacity=".05"/><circle cx="8.472" cy="8.478" r="7.938" fill="none"/><g stroke-width=".265"><rect width="4.498" height=".132" x="9.525" y="3.704" opacity=".1" rx="0" ry="0"/><rect width="4.498" height=".132" x="9.525" y="4.762" opacity=".1" rx="0" ry="0"/><rect width="4.498" height=".132" x="9.525" y="5.821" opacity=".1" rx="0" ry="0"/><rect width="4.498" height=".132" x="9.525" y="6.879" opacity=".1" rx="0" ry="0"/><rect width="4.498" height=".132" x="9.525" y="7.937" opacity=".1" rx="0" ry="0"/><rect width="4.498" height=".132" x="9.525" y="8.996" opacity=".1" rx="0" ry="0"/></g><g stroke-width=".265" transform="translate(0 .265)"><rect width="4.498" height=".132" x="9.525" y="10.054" opacity=".1" rx="0" ry="0"/><rect width="4.498" height=".132" x="9.525" y="11.112" opacity=".1" rx="0" ry="0"/><rect width="4.498" height=".132" x="9.525" y="12.171" opacity=".1" rx="0" ry="0"/><rect width="4.498" height=".132" x="9.525" y="13.229" opacity=".1" rx="0" ry="0"/></g><path d="M1.058 12.17v.265a3.433 3.433 0 0 0 3.44 3.44h7.937a3.433 3.433 0 0 0 3.44-3.44v-.265a3.433 3.433 0 0 1-3.44 3.44H4.498a3.433 3.433 0 0 1-3.44-3.44" opacity=".15"/><circle cx="12.171" cy="12.171" r="4.233" fill="#e6e6e6"/><path fill="#333" d="M13.859 13.781a.9.9 0 0 0 .43-.225l.086-.085.032.07c.078.164.241.252.469.252a.8.8 0 0 0 .34-.07l.075-.034v-.161l-.06.01c-.12.018-.22-.022-.268-.108l-.029-.052-.012-1.425-.032-.095a.64.64 0 0 0-.342-.391c-.404-.2-1.124-.125-1.419.148-.198.183-.198.439 0 .548.055.03.076.034.152.034a.25.25 0 0 0 .15-.034c.177-.097.201-.316.05-.453-.045-.04-.047-.044-.025-.056.104-.055.38-.075.539-.04a.47.47 0 0 1 .264.173c.067.1.09.198.09.398v.174l-.326.073c-.18.04-.369.084-.42.098a2 2 0 0 0-.376.154.9.9 0 0 0-.246.23.63.63 0 0 0-.026.544.64.64 0 0 0 .43.33c.102.024.349.02.474-.007m-.105-.285a.36.36 0 0 1-.263-.295.42.42 0 0 1 .117-.382c.055-.05.2-.125.304-.157.082-.025.395-.096.425-.096.017 0 .019.041.019.368v.368l-.063.063a.5.5 0 0 1-.393.147.7.7 0 0 1-.146-.016m-3.442.18v-.08l-.044-.008c-.334-.057-.357-.126-.2-.584l.112-.33.03-.085 1.157.006.098.28c.147.421.164.499.128.584-.026.061-.108.1-.279.129l-.043.007v.163h1.425v-.161l-.086-.02a.4.4 0 0 1-.254-.156c-.067-.095-.067-.096-.585-1.515l-.349-.953-.175-.479-.044-.122-.443-.007-.518 1.412c-.285.776-.535 1.452-.557 1.502q-.08.19-.176.253a.5.5 0 0 1-.191.07c-.05 0-.058.012-.058.096v.08h1.052zm-.023-1.306c0-.008.457-1.351.486-1.428.008-.02-.002-.049.273.742.116.334.22.627.229.651l.017.044h-.503c-.276 0-.502-.004-.502-.01z"/><path fill="#d24645" d="M4.233 1.253h3.175v9.595L5.821 9.525l-1.588 1.323z"/><path fill="#fff" d="M12.171 7.937a4.233 4.233 0 0 0-4.233 4.234l.005.132a4.233 4.233 0 0 1 4.228-4.101 4.233 4.233 0 0 1 4.23 4.067l.003-.098a4.233 4.233 0 0 0-4.233-4.234" opacity=".35"/><path d="M16.401 12.005a4.233 4.233 0 0 1-4.23 4.135 4.233 4.233 0 0 1-4.228-4.101l-.005.132a4.233 4.233 0 0 0 4.234 4.233 4.233 4.233 0 0 0 4.233-4.233z" opacity=".15"/><path fill="#fff" d="M1.058 4.763V4.5a3.433 3.433 0 0 1 3.44-3.44h7.937a3.433 3.433 0 0 1 3.44 3.44v.265a3.433 3.433 0 0 0-3.44-3.44H4.498a3.433 3.433 0 0 0-3.44 3.44z" opacity=".15"/></svg>