<svg xmlns="http://www.w3.org/2000/svg" viewBox="0 0 64 64"><defs><linearGradient id="a" x1="7.937" x2="7.937" y1="15.081" y2="1.852" gradientTransform="translate(0 .032)scale(3.7795)" gradientUnits="userSpaceOnUse"><stop offset="0" stop-color="#a9e8e4"/><stop offset="1" stop-color="#cfecf2"/></linearGradient></defs><rect width="56" height="56" x="4" y="4" fill="url(#a)" rx="13.002" ry="13.002" style="fill:#b9eaea;fill-opacity:1"/><path fill="#dd435f" d="M28.074 28.087a64.4 64.4 0 0 0-6.423 10.435c2.703.866 6.642.496 10.705 0 1.538-.955 2.994-2.203 4.423-3.91-4.783 0-7.783-.801-7.783-1.305h8.612a46 46 0 0 0 3.347-3.913c-4.178 0-7.655-.53-7.655-1.304-1.3-1.304-1.965-.896-5.23-.003"/><path fill="#e57a55" d="M32.55 22.87a55 55 0 0 0-4.476 5.217h13.834c.864-1.28 1.587-2.658 2.184-3.91-3.73 0-6.228-.843-6.228-1.304-.647-1.305-3.256-1.305-5.314-.003"/><path fill="#f5ad45" d="M46.348 15.043c-4.278 0-9.222 3.133-13.797 7.826h12.167c1.128-2.782 1.636-5.44 1.625-7.823z"/><path fill="#c056ba" d="M21.657 38.522c-.121.248-.254.496-.372.743-1.675 3.546-3.09 7.38-3.627 9.692l.652-.028c2.431-7.012 5.23-7.58 6.56-7.8 2.824-.47 5.244-1.213 7.493-2.606H21.658z"/><path d="M3.998 45.998v1c0 7.203 5.8 13.004 13.004 13.004h29.996c7.203 0 13.004-5.8 13.004-13.004v-1c0 7.203-5.8 13.002-13.004 13.002H17.002A12.975 12.975 0 0 1 3.998 45.998" opacity=".15"/><path fill="#fff" d="M3.998 18.004v-1C3.998 9.801 9.798 4 17.002 4h29.996c7.203 0 13.004 5.8 13.004 13.004v1c0-7.203-5.8-13.002-13.004-13.002H17.002A12.975 12.975 0 0 0 3.998 18.004" opacity=".15"/></svg>