<svg xmlns="http://www.w3.org/2000/svg" viewBox="0 0 64 64"><rect width="64" height="64" fill="none" rx="0" ry="0" style="paint-order:stroke fill markers"/><rect width="56.002" height="56.002" x="4" y="3.969" fill="#1fb4f7" rx="13.002" ry="13.002"/><path d="M3.998 45.998v1c0 7.203 5.8 13.004 13.004 13.004h29.996c7.203 0 13.004-5.8 13.004-13.004v-1c0 7.203-5.8 13.002-13.004 13.002H17.002A12.975 12.975 0 0 1 3.998 45.998" opacity=".15"/><path fill="#fff" d="M3.998 18.004v-1C3.998 9.801 9.798 4 17.002 4h29.996c7.203 0 13.004 5.8 13.004 13.004v1c0-7.203-5.8-13.002-13.004-13.002H17.002A12.975 12.975 0 0 0 3.998 18.004" opacity=".15"/><path fill="#fff" d="M15.213 30.096q13.136-5.722 17.518-7.546c8.342-3.47 10.076-4.073 11.206-4.093.248-.004.804.058 1.164.35.304.246.388.58.428.813.04.234.09.767.05 1.183-.452 4.75-2.408 16.277-3.404 21.597-.42 2.251-1.25 3.006-2.052 3.08-1.745.16-3.07-1.153-4.76-2.26-2.643-1.734-4.137-2.813-6.703-4.504-2.966-1.954-1.043-3.028.647-4.784.442-.46 8.129-7.45 8.277-8.085.019-.079.036-.375-.14-.53-.175-.157-.434-.103-.621-.061q-.4.09-12.671 8.375-1.8 1.234-3.258 1.203c-1.073-.023-3.136-.606-4.67-1.105-1.88-.611-3.376-.935-3.246-1.973q.102-.811 2.235-1.66"/></svg>