<svg xmlns="http://www.w3.org/2000/svg" viewBox="0 0 64 64"><defs><linearGradient id="c" x1="-32.546" x2="-32.642" y1="58.583" y2="21.133" gradientTransform="translate(49.921 -1.446)scale(1.1111)" gradientUnits="userSpaceOnUse"><stop offset="0" stop-color="#5c56f2"/><stop offset="1" stop-color="#5f8bea"/></linearGradient><linearGradient id="b" x1="-7.963" x2="-6.677" y1="58.066" y2="21.306" gradientTransform="translate(49.921 -1.446)scale(1.1111)" gradientUnits="userSpaceOnUse"><stop offset="0" stop-color="#8fde34"/><stop offset="1" stop-color="#4cf174"/></linearGradient><linearGradient id="a" x1="7.937" x2="7.937" y1="15.081" y2="1.852" gradientTransform="scale(3.7796)" gradientUnits="userSpaceOnUse"><stop offset="0" stop-color="#b81e31"/><stop offset="1" stop-color="#ff5c5c"/></linearGradient></defs><rect width="56.002" height="56.002" x="4" y="3.969" fill="url(#a)" rx="13.002" ry="13.002" style="fill:#f45255;fill-opacity:1"/><path fill="url(#b)" d="m53.063 25.932-22.728 6.09v22.682H42.51A10.53 10.53 0 0 0 53.063 44.15V25.933z" style="paint-order:stroke fill markers;fill:#69e958;fill-opacity:1" transform="translate(-5.373 -7.425)scale(1.232)"/><path fill="url(#c)" d="M7.608 25.93v18.22A10.53 10.53 0 0 0 18.16 54.703h12.173V32.021l-22.727-6.09z" style="paint-order:stroke fill markers;fill:#5e72ee;fill-opacity:1" transform="translate(-5.373 -7.425)scale(1.232)"/><path fill="#fff" d="M39.057 28.454 37.662 35.6h6.1v2.963H37.14l-1.918 9.411h-3.137l1.917-9.411h-6.448l-1.743 9.411h-3.137l1.742-9.411h-5.751V35.6h6.274l1.395-7.146h-5.926v-2.963h6.448l1.918-9.411h3.137l-1.743 9.411h6.274l1.918-9.411h3.137l-1.917 9.41h5.751v2.963zM28.077 35.6h6.448l1.394-7.146h-6.448z" aria-label="#"/><path d="M3.998 45.998v1c0 7.203 5.8 13.004 13.004 13.004h29.996c7.203 0 13.004-5.8 13.004-13.004v-1c0 7.203-5.8 13.002-13.004 13.002H17.002A12.975 12.975 0 0 1 3.998 45.998" opacity=".15"/><path fill="#fff" d="M3.998 18.004v-1C3.998 9.801 9.798 4 17.002 4h29.996c7.203 0 13.004 5.8 13.004 13.004v1c0-7.203-5.8-13.002-13.004-13.002H17.002A12.975 12.975 0 0 0 3.998 18.004" opacity=".15"/></svg>