<svg xmlns="http://www.w3.org/2000/svg" viewBox="0 0 64 64"><rect width="56.002" height="56.002" x="4" y="3.969" fill="#f2f2f2" rx="13.002" ry="13.002"/><path d="M3.998 45.998v1c0 7.203 5.8 13.004 13.004 13.004h29.996c7.203 0 13.004-5.8 13.004-13.004v-1c0 7.203-5.8 13.002-13.004 13.002H17.002A12.975 12.975 0 0 1 3.998 45.998" opacity=".1"/><path fill="#fff" d="M3.998 18.004v-1C3.998 9.801 9.798 4 17.002 4h29.996c7.203 0 13.004 5.8 13.004 13.004v1c0-7.203-5.8-13.002-13.004-13.002H17.002A12.975 12.975 0 0 0 3.998 18.004" opacity=".5"/><path fill="#e4e4e4" d="m33.42 16.452 5.674-7.094c1.42 7.094 11.35 9.931 11.35 21.282v7.094l-19.862 5.675z"/><path fill="#ababab" d="M30.582 23.546c0-7.094 4.256-12.77 8.512-14.188-1.878 2.837-2.837 4.935-2.837 7.094 0 2.837.468 4.256 2.837 6.81z"/><path fill="#c7c7c7" d="M43.35 32.058A11.35 11.35 0 0 1 32 43.408a11.35 11.35 0 0 1-11.35-11.35A11.35 11.35 0 0 1 32 20.708a11.35 11.35 0 0 1 11.35 11.35"/><path fill="#a8a8a8" d="M24.906 17.87s-3.571 1.42-4.965 4.257l2.128 1.419h2.837zm11.351 7.094a9.31 9.31 0 0 1 4.256 7.804c0 4.797-3.732 8.824-8.513 9.222l4.257 1.419 4.966-2.838c2.128-1.419 3.547-4.133 3.547-7.094a8.513 8.513 0 0 0-8.513-8.513"/><path fill="#5e5e5e" d="M19.231 16.452c-4.895 2.837-8.512 8.909-8.513 15.606 0 8.513 7.094 19.864 21.282 19.864 9.077 0 17.026-14.188 17.026-17.026 0 0-7.094 7.094-17.026 7.094-3.216 0-6.263-1.4-8.168-3.348-1.595-1.63-3.026-3.87-2.755-6.584l.992-4.256-4.257-2.838z"/><path fill="#999" d="M50.445 24.964c0 9.403-8.258 17.026-18.445 17.026 12.098 0 15.607-4.966 15.607-4.966 0 2.838-6.53 13.479-15.607 13.479v1.419c11.754 0 19.864-12.77 19.864-19.864zm-31.214-8.512c-4.256 2.837-5.533 7.094-2.837 11.35H32c-1.039-.63-4.262-1.45-7.094-4.256-1.424-1.413-2.837-1.42-4.965-1.42-.838-1.93-.71-5.674-.71-5.674"/><path fill="#3a3a3a" d="M51.154 32.058c0 9.932-8.513 18.445-19.154 18.445-12.06 0-21.282-11.35-21.282-18.445 0 11.754 9.529 21.282 21.282 21.282s21.282-9.528 21.282-21.282z"/><path fill="#b2b2b2" d="M20.65 26.383c-2.838 0-4.256 1.419-4.256 1.419s1.747 2.838 4.256 2.838v1.418c0 5.18 4.533 9.428 10.317 9.885-4.999-.444-8.898-4.064-8.898-8.466 1.707-2.199 3.547-2.837 6.384-2.837 1.42 0 2.89-1.42 3.547-2.838-9.931 0-8.512-1.419-11.35-1.419"/><path fill="#ccc" d="M44.77 15.033c4.256 4.256 5.675 11.35 5.675 17.025 0 9.932-8.513 18.445-19.154 18.445 11.754 0 21.991-6.69 21.991-18.445 0-6.913-2.865-13.038-8.512-17.025"/></svg>