<svg xmlns="http://www.w3.org/2000/svg" viewBox="0 0 64 64"><rect width="56.002" height="56.002" x="4" y="3.969" fill="#ffbc23" rx="13.002" ry="13.002"/><path fill="#fff" d="M51.23 7.88q1.482 0 1.658 2.235l-.83 7.021h.306l.654-.519h.174v.156q-1.35.987-2.616 5.408-.48 3.797-1.614 7.02-1.003 3.329-1.003 6.138l-1.265 3.691q0 .468 1.44.936-.262 1.092-.786 1.092v.209h.306v.156q0 .571-1.483.571l.175.209v.727h-.306q.305 1.093 1.308 1.092v.365H46.04v.208q.653 0 .654.936l-1.831.728.174.208v.156q0 .364-.654.363v.21q.829 0 .829.363-1.179.468-3.097 4.628-1.962 3.692-3.402 3.693h-.348q-1.091-.833-1.788-5.513-2.793-7.124-2.792-8.373 0-3.224-1.788-6.864-.48-1.613-.655-4.056l-.785-.21q-2.966 5.358-3.096 8.375-.83 1.767-1.31 4.264 1.79.57 1.79 1.092v.207q-1.395-.208-1.963-.78-.61 1.405-1.614 7.8-.786 2.966-1.962 2.966-3.315-1.3-5.54-4.265-.348 0-1.134-2.964-.48 0-.654-2.964-1.656-4.213-2.268-9.62v-5.41h-.174l-.784.209v-.209q-.001-.364.784-.364l-.174-3.12v-2.445l-1.266-7.8v-3.329q.83-3.12 2.88-3.12s.12-.007.522.521l-.522-.156q3.184 4.161 3.75 7.02h1.484v.364h-1.134v.416q.653 2.393.96 2.392h.348l.784-.208.176.21.174-.21.174.21v.154q-.872.626-1.178 1.716h-.13v.365h.304q.612 8.686 2.268 13.156l.656.521h.348q.653 0 2.748-6.084 1.35-2.757 1.962-4.836l-.174-.573q1.35-2.028 2.79-2.028h.306q.916 0 1.309 1.144 1.22 1.718 1.962 5.148l2.442 5.41q.48.571.48 1.298 1.353 3.07 2.442 4.058h.525q.914 0 2.442-7.593.261 0 1.439-4.056v-.209l-2.748-.364-.654.208h-.828v-.415l1.657-.156h3.227q1.876-6.71 3.445-10.401.525-7.594 1.44-7.593zm-16.617 4.471h.48v.156q0 .365-.48.365l-.174.208v.207l-.48-.207v-.364zm-2.442 2.03v.207q0 .416-2.094.885v-.365l.96-.52.174.156h.13zm-4.71 1.872v.156q-.915.832-2.967 1.507v-.364q.35 0 .35-.572zm8.286 1.82.174.208v.156l-.304.415h-.174l-.35-.415v-.156zm6.02.209h.174v.156l-.306.415h-.174v-.208zm-2.748 2.6.654.52q-.174.571-.96.571l-.348-.571q0-.26.654-.52m3.925 2.392.13.208v.156l-.13.207h-.35v-.207zm-6.195 1.872v.156l-.828.78h-.48v-.209q0-.468 1.31-.727m-5.715 15.913h.175v.365l-1.308.78-.174-.209v-.364l1.308-.572m-.48 4.836h.13l.526.573-.176.156h-.174l-.306-.52z"/><path d="M3.998 45.998v1c0 7.203 5.8 13.004 13.004 13.004h29.996c7.203 0 13.004-5.8 13.004-13.004v-1c0 7.203-5.8 13.002-13.004 13.002H17.002A12.975 12.975 0 0 1 3.998 45.998" opacity=".15"/><path fill="#fff" d="M3.998 18.004v-1C3.998 9.801 9.798 4 17.002 4h29.996c7.203 0 13.004 5.8 13.004 13.004v1c0-7.203-5.8-13.002-13.004-13.002H17.002A12.975 12.975 0 0 0 3.998 18.004" opacity=".15"/></svg>