<svg xmlns="http://www.w3.org/2000/svg" viewBox="0 0 64 64"><rect width="56.002" height="56.002" x="4" y="3.969" fill="#f2f2f2" rx="13.002" ry="13.002"/><path d="M3.998 45.998v1c0 7.203 5.8 13.004 13.004 13.004h29.996c7.203 0 13.004-5.8 13.004-13.004v-1c0 7.203-5.8 13.002-13.004 13.002H17.002A12.975 12.975 0 0 1 3.998 45.998" opacity=".1"/><path fill="#fff" d="M3.998 18.004v-1C3.998 9.801 9.798 4 17.002 4h29.996c7.203 0 13.004 5.8 13.004 13.004v1c0-7.203-5.8-13.002-13.004-13.002H17.002A12.975 12.975 0 0 0 3.998 18.004" opacity=".5"/><path fill="#69e683" d="M15.037 16a3.197 3.197 0 0 0-3.21 3.196v25.61A3.195 3.195 0 0 0 15.036 48h21.595c2.231 0 3.765-1.198 4.953-2.295l8.476-8.69a6.98 6.98 0 0 0 2.113-4.995 6.98 6.98 0 0 0-2.113-4.993l-8.56-8.682C40.14 16.995 38.259 16 35.89 16zm30.18 13.217A2.78 2.78 0 0 1 48 32a2.782 2.782 0 1 1-2.783-2.783"/><path fill="#176642" d="M22.26 20.87v7.652h2.783v2.087h-5.565v4.174h-2.782v7.652h7.652v-7.653h-2.783v-2.086h9.044v2.086h-2.783v7.653h7.652v-7.653h-2.782V30.61H27.13v-2.087h2.783V20.87z"/></svg>