<svg xmlns="http://www.w3.org/2000/svg" viewBox="0 0 16.933 16.933"><rect width="14.817" height="14.817" x="1.058" y="1.05" fill="#f2f2f2" rx="3.44" ry="3.44"/><path fill="#c1dc73" fill-rule="evenodd" d="M8.81 8.34c-.06-.077-.146-.129-.198-.212l.227-.032c-.002.081-.034.16-.019.243z"/><path fill="#aa81b8" fill-rule="evenodd" d="M8.091 8.843c.008-.08.032-.16.02-.24l.006-.002h.005c.06.075.145.127.195.21z"/><path fill="#57afc9" fill-rule="evenodd" d="M8.472 9.003H8.46c-.03-.072-.095-.119-.13-.187a1 1 0 0 1 .272 0c-.034.069-.1.115-.13.187m.141-.191a.7.7 0 0 1 .19-.185c.025.07.023.143.037.215-.076-.011-.153-.009-.227-.03"/><path fill="#a5d27d" fill-rule="evenodd" d="m8.81 8.34.01-.001c.062.038.116.084.17.13l-.176.135a1 1 0 0 1-.005-.264"/><path fill="#ed7985" fill-rule="evenodd" d="M8.106 8.35c.023-.086-.019-.214-.03-.298.076.01.164.066.241.076-.041.064-.098.114-.154.165-.019.018-.039.033-.04.062z"/><path fill="#ed5e88" fill-rule="evenodd" d="m8.106 8.35.016.005q.014.123 0 .246h-.005l-.005.001c-.062-.033-.106-.093-.172-.12.041-.061.104-.096.166-.131"/><path fill="#77acdc" fill-rule="evenodd" d="M13.165 10.41c.138.209.25.429.309.674a1.964 1.964 0 0 1-1.465 2.396 1.94 1.94 0 0 1-1.552-.287l-.039-.024c-.028.037-.025.081-.034.12a1.96 1.96 0 0 1-1.605 1.498 1.965 1.965 0 0 1-2.248-1.566q-.005-.028-.013-.056l.004-.015c.02-.003.033-.018.048-.03.203-.156.374-.346.554-.527.408-.413.83-.812 1.225-1.237.043-.047.069-.108.123-.147q.089.136.2.25.751.757 1.508 1.507a.9.9 0 0 0 .224.178c.025-.1.032-.199.032-.295q.005-1.04 0-2.08.001-.182-.04-.361c.097.01.194.026.29.027q1.12.002 2.237 0 .114-.001.226-.028z"/><path fill="#6cc2a0" fill-rule="evenodd" d="M13.165 10.41c.138.209.25.429.309.674a1.964 1.964 0 0 1-1.465 2.396 1.94 1.94 0 0 1-1.552-.287l-.039-.024c-.028.037-.025.081-.034.12l.02-.145c.025-.1.032-.199.032-.295q.005-1.04 0-2.08.001-.181-.04-.361c.097.01.194.026.29.027q1.12.002 2.237 0 .114-.001.226-.028z"/><path fill="#fcb92e" fill-rule="evenodd" d="M6.52 3.775c.077-.43.263-.805.585-1.1.562-.519 1.223-.684 1.952-.454s1.172.745 1.341 1.491l.014.063c.01.1.026.199.026.298q.004 1.06 0 2.12.001.17-.04.339l-.032.015c-.403.09-.748.28-1.03.583a1.9 1.9 0 0 0-.489.961l-.008.006c-.075.01-.143.036-.218.046a1.2 1.2 0 0 1-.292-.019c.065-.088.136-.172.192-.266q.34-.566.272-1.227a1.9 1.9 0 0 0-.546-1.16c-.494-.504-.996-1-1.495-1.497a1 1 0 0 0-.229-.182z"/><path fill="#b1d455" fill-rule="evenodd" d="m13.165 10.41-.016-.003-.01-.02a2 2 0 0 0-.237-.267c-.569-.545-1.09-1.14-1.693-1.65.078-.079.174-.134.252-.212q.74-.742 1.48-1.481.116-.113.208-.246l.019-.001c.376.057.705.218.988.47.36.32.577.722.642 1.199a1.966 1.966 0 0 1-1.542 2.194z"/><path fill="#efe129" fill-rule="evenodd" d="m13.167 6.531-.018.002a1 1 0 0 0-.24-.029q-1.104-.001-2.207.001c-.102 0-.204.017-.305.026q.04-.167.04-.338.003-1.06 0-2.12c0-.099-.017-.198-.026-.297.265-.178.55-.302.87-.346q.782-.11 1.423.344a1.9 1.9 0 0 1 .8 1.268c.088.518-.02 1-.311 1.44-.01.015-.027.028-.026.05"/><path fill="#a28dc3" fill-rule="evenodd" d="m3.765 10.41.017-.003a.7.7 0 0 0 .212.027c.846-.014 1.694.039 2.54-.028-.023.136-.04.272-.04.41v1.821c-.001.172.003.343.03.513l-.003.015a2 2 0 0 1-.8.334c-.619.103-1.172-.044-1.648-.454a1.9 1.9 0 0 1-.662-1.257c-.054-.48.058-.925.326-1.329q.015-.024.028-.049"/><path fill="#f3755c" fill-rule="evenodd" d="m3.782 6.534-.02-.002-.1-.173a1.9 1.9 0 0 1-.265-.984 1.96 1.96 0 0 1 1.64-1.939c.516-.088.996.02 1.434.31l.05.029.003.017c-.01.092-.029.184-.03.276q-.003 1.065.001 2.128c.001.113.01.228.042.338-.097-.01-.194-.028-.29-.028q-1.12-.003-2.24 0a1 1 0 0 0-.225.028"/><path fill="#62579c" fill-rule="evenodd" d="M6.523 13.149a3 3 0 0 1-.031-.513v-1.82a2.4 2.4 0 0 1 .044-.424.3.3 0 0 0 .07-.008q.844-.21 1.273-.964c.101-.178.177-.368.204-.574l.008-.005.226-.03q.007 0 .013.004c.035.068.1.115.13.186l-.01.026a1.94 1.94 0 0 0-.248 1.595c.054.206.136.401.269.571l.002.016c-.054.038-.08.1-.123.147-.395.425-.817.824-1.225 1.236-.18.181-.35.372-.554.528-.015.011-.028.027-.048.03"/><path fill="#3c73a8" fill-rule="evenodd" d="m8.473 11.21-.002-.016.018-.03q.527-.862.167-1.807c-.048-.125-.12-.237-.184-.354.03-.072.096-.118.13-.187l.011-.004c.074.021.152.019.227.03l.007.005q-.002.015 0 .029c.144.746.78 1.377 1.534 1.522l.017.01q.04.18.04.361.003 1.04 0 2.08c0 .097-.007.195-.032.296a.9.9 0 0 1-.225-.179q-.756-.75-1.507-1.505a2 2 0 0 1-.201-.251"/><path fill="#37965f" fill-rule="evenodd" d="m10.397 10.408-.016-.011c.018-.013.01-.028.007-.045a1.94 1.94 0 0 0-.484-.918 1.95 1.95 0 0 0-1.058-.587L8.84 8.84c-.014-.072-.013-.146-.038-.215l.011-.023.177-.135.017.002q.078.051.159.097.6.317 1.272.202c.272-.046.522-.143.749-.3h.023c.602.512 1.124 1.106 1.693 1.651.086.083.169.17.237.268l.01.02q-.112.026-.226.028-1.119.001-2.236-.001c-.097 0-.194-.018-.291-.027"/><path fill="#f25201" fill-rule="evenodd" d="M6.537 6.534a1.2 1.2 0 0 1-.042-.338q-.004-1.065 0-2.128c0-.092.018-.184.028-.276.086.049.16.113.229.182q.751.744 1.495 1.496.474.483.545 1.161c.047.44-.047.848-.272 1.227-.055.093-.127.178-.19.266l-.013.005-.23-.031q-.003-.039-.011-.078a1.9 1.9 0 0 0-.423-.833 1.94 1.94 0 0 0-.676-.507 3 3 0 0 0-.44-.146"/><path fill="#75b019" fill-rule="evenodd" d="m9.008 8.471-.017-.002a1.4 1.4 0 0 0-.17-.13c-.016-.083.016-.162.018-.244l.008-.005a2 2 0 0 0 .886-.427q.503-.426.65-1.07c.005-.023.016-.042-.018-.048l.033-.015c.102-.009.203-.026.305-.026q1.104-.002 2.208 0 .12 0 .24.028-.093.132-.207.246-.743.74-1.482 1.48c-.078.079-.174.134-.251.212h-.023c-.071-.062-.156-.101-.24-.141a1.95 1.95 0 0 0-1.22-.157c-.26.048-.504.142-.72.299"/><path fill="#528000" fill-rule="evenodd" d="M10.356 6.528c.034.006.05-.009.044.014-.066.438-.334.836-.668 1.121a1.94 1.94 0 0 1-.885.427c.067-.369.234-.688.488-.96.282-.303.645-.546 1.047-.636"/><path fill="#d782a5" fill-rule="evenodd" d="M3.765 10.41c-.786-.114-1.449-.75-1.609-1.545A1.965 1.965 0 0 1 3.763 6.53l.02.002q.067.105.157.194l1.55 1.55q.104.104.23.18c-.003.03-.028.042-.048.058-.062.048-.127.094-.182.15q-.782.778-1.561 1.559a1 1 0 0 0-.147.183z"/><path fill="#cf140b" fill-rule="evenodd" d="M6.537 6.533c.15.04.298.082.44.147.264.12.488.293.676.511q.315.367.423.84.008.04.012.079c.012.084.04.168.018.255-.062.036-.125.071-.166.133h-.025c-.011-.05-.06-.058-.094-.08a2 2 0 0 0-.842-.265.6.6 0 0 0-.299 0c-.103.017-.207.03-.31.053a2.1 2.1 0 0 0-.621.267h-.03a1.2 1.2 0 0 1-.23-.183q-.776-.78-1.55-1.562a1.2 1.2 0 0 1-.157-.195.923.93 0 0 1 .226-.03l2.238.002c.097 0 .194.018.29.028"/><path fill="#aa3e66" fill-rule="evenodd" d="M7.914 8.483h.025c.067.026.11.086.172.12.012.08-.012.16-.02.24l-.008.004a1.94 1.94 0 0 0-1.081.614c-.242.266-.4.577-.466.933l-.004.013c-.846.066-1.694.014-2.54.028a.7.7 0 0 1-.212-.028 1 1 0 0 1 .147-.184l1.56-1.559c.056-.055.121-.1.183-.15.02-.015.045-.027.048-.057h.03c-.004.022.011.03.025.039a1.98 1.98 0 0 0 2.141-.013"/><path fill="#4a1235" fill-rule="evenodd" d="M6.537 10.393a1.77 1.77 0 0 1 .456-.954c.292-.322.672-.512 1.1-.598a1.6 1.6 0 0 1-.214.58c-.3.55-.812.939-1.347.985"/><path fill="#232160" fill-rule="evenodd" d="M8.472 9.003c.064.117.136.23.183.354.24.63.218 1.24-.136 1.815-.006.01-.042.042-.048.052-.133-.17-.215-.395-.27-.6a1.94 1.94 0 0 1 .249-1.595l.01-.026h.006z"/><path fill="#0c4120" fill-rule="evenodd" d="M8.847 8.847q.621.126 1.057.588c.245.26.417.564.495.913.004.017.016.05-.002.063-.754-.145-1.406-.79-1.55-1.535q-.002-.015 0-.029"/><path fill="#0a4f09" fill-rule="evenodd" d="M9.01 8.451c.215-.157.457-.23.717-.278a1.97 1.97 0 0 1 1.227.156c.085.04.186.078.258.14a1.95 1.95 0 0 1-.774.301 1.95 1.95 0 0 1-1.272-.202 4 4 0 0 1-.177-.1"/><path fill="#7e0804" fill-rule="evenodd" d="M7.917 8.503a1.96 1.96 0 0 1-.896.309c-.507.05-1-.088-1.31-.353.666-.428 1.744-.455 2.227.024"/><path fill="#ab0100" fill-rule="evenodd" d="M8.059 8.066c.033-.006.023-.025.018-.048a1.93 1.93 0 0 0-1.542-1.487c.067.37.24.679.495.952.28.302.626.493 1.029.583"/><path fill="#a24e00" fill-rule="evenodd" d="M8.508 5.772c.063.113.136.221.183.341q.362.91-.167 1.738l-.017.03a1.5 1.5 0 0 1-.27-.549 1.81 1.81 0 0 1 .245-1.538l.014-.022h.006z"/><path fill="#ddab08" fill-rule="evenodd" d="M10.4 3.753c.028.173.031.346.031.52v1.85c0 .14.027.274-.03.407-.565.105-1.118.617-1.343 1.01-.1.182-.185.344-.211.553l-.002.002c-.074.014-.063.013-.09.019a.6.6 0 0 0-.134.033c-.057-.1-.077-.15-.12-.265.312-.504.385-.987.237-1.563a2.1 2.1 0 0 0-.246-.542c.021-.043.033-.057.107-.189.307-.48.801-.85 1.205-1.269.178-.184.347-.377.548-.536.015-.012.028-.027.048-.03"/><path d="M1.058 12.17v.265a3.433 3.433 0 0 0 3.44 3.44h7.937a3.433 3.433 0 0 0 3.44-3.44v-.265a3.433 3.433 0 0 1-3.44 3.44H4.498a3.433 3.433 0 0 1-3.44-3.44" opacity=".1"/><path fill="#fff" d="M1.058 4.763V4.5a3.433 3.433 0 0 1 3.44-3.44h7.937a3.433 3.433 0 0 1 3.44 3.44v.265a3.433 3.433 0 0 0-3.44-3.44H4.498a3.433 3.433 0 0 0-3.44 3.44z" opacity=".5"/></svg>