<svg xmlns="http://www.w3.org/2000/svg" xml:space="preserve" viewBox="0 0 64 64"><rect width="56.002" height="56.002" x="4" y="3.969" fill="#f2f2f2" rx="13.002" ry="13.002"/><path d="M3.998 45.998v1c0 7.203 5.8 13.004 13.004 13.004h29.996c7.203 0 13.004-5.8 13.004-13.004v-1c0 7.203-5.8 13.002-13.004 13.002H17.002A12.975 12.975 0 0 1 3.998 45.998" opacity=".1"/><path fill="#fff" d="M3.998 18.004v-1C3.998 9.801 9.798 4 17.002 4h29.996c7.203 0 13.004 5.8 13.004 13.004v1c0-7.203-5.8-13.002-13.004-13.002H17.002A12.975 12.975 0 0 0 3.998 18.004" opacity=".5"/><path d="M30.156 52.476c-1.168-.103-3.656-.578-3.805-.726-.16-.158.235-1.012.68-1.47.226-.233.616-.53.866-.66.443-.23.54-.236 4.104-.238l3.65-.003.57.311c.314.172.726.517.92.77.393.515.644 1.158.506 1.295-.154.153-2.669.62-3.953.733-1.38.122-2.039.12-3.538-.012m-9-3a21 21 0 0 1-6.657-6.646c-.28-.448-.48-.883-.448-.968s.331-.233.665-.33c1.267-.368 2.503.03 3.389 1.09.28.337.986 1.088 1.569 1.67.582.583 1.333 1.289 1.67 1.57.879.733 1.183 1.364 1.183 2.45 0 .62-.056.97-.21 1.304l-.209.457zm20.498.08c-.119-.267-.176-.676-.174-1.244.003-1.092.307-1.723 1.179-2.45.336-.281 1.087-.987 1.67-1.57.582-.582 1.288-1.333 1.568-1.67.717-.858 1.367-1.179 2.399-1.184.526-.002.964.063 1.3.192l.506.196-.284.492c-1.032 1.782-2.637 3.734-4.196 5.103-1.007.884-3.377 2.531-3.642 2.531-.082 0-.23-.178-.326-.396m-10.975-6.602c-3.794-.479-6.962-2.746-8.628-6.175-1.727-3.551-1.43-7.707.785-11.037 2.176-3.27 6.376-5.233 10.235-4.785 1.395.162 2.491.458 3.566.96 2.386 1.117 4.165 2.869 5.315 5.234 1.726 3.551 1.43 7.707-.786 11.037-1.736 2.609-4.747 4.409-8 4.782-1.03.118-1.45.115-2.487-.016M12.172 37.59c-.03-.049-.176-.686-.324-1.416-.403-1.992-.528-3.827-.382-5.624.122-1.506.574-4.058.75-4.234.158-.16 1.013.235 1.47.68.234.226.53.616.66.866.23.443.236.54.238 4.104l.003 3.65-.308.564a3.05 3.05 0 0 1-1.47 1.342c-.43.18-.559.194-.637.068m38.917-.112c-.54-.245-1.133-.829-1.437-1.415-.225-.434-.232-.55-.234-4.097l-.002-3.65.31-.57c.172-.314.517-.726.77-.92.516-.393 1.158-.644 1.295-.506.166.167.63 2.75.749 4.167.143 1.708.003 3.758-.39 5.701-.146.722-.29 1.353-.32 1.402-.082.133-.26.107-.741-.112m-36.391-15.07c-.869-.286-.862-.24-.203-1.293a20.96 20.96 0 0 1 6.641-6.651c.448-.28.883-.481.968-.449.085.033.233.332.33.666.369 1.267-.03 2.503-1.09 3.389-.337.28-1.088.986-1.67 1.569-.583.582-1.289 1.333-1.57 1.67-.655.785-1.355 1.152-2.291 1.202-.39.02-.873-.024-1.115-.104m32.91.042c-.628-.154-1.21-.543-1.711-1.142-.656-.786-2.452-2.582-3.238-3.238-.859-.717-1.18-1.367-1.184-2.398-.003-.526.062-.965.191-1.3l.196-.507.492.285c1.782 1.03 3.734 2.636 5.103 4.195.975 1.11 2.555 3.421 2.508 3.669-.068.368-1.53.638-2.357.436M28.24 14.446a3 3 0 0 1-1.417-1.02c-.37-.503-.6-1.12-.468-1.251.166-.166 2.748-.63 4.166-.749a16 16 0 0 1 2.895.004c1.507.122 4.058.574 4.235.75.159.158-.236 1.012-.68 1.47a4 4 0 0 1-.866.659c-.441.227-.558.234-3.99.244-2.32.006-3.653-.03-3.875-.107" style="fill:#009f9f;fill-opacity:1"/></svg>