<svg xmlns="http://www.w3.org/2000/svg" viewBox="0 0 64 64"><rect width="56.002" height="56.002" x="4" y="3.969" fill="#880313" rx="13.002" ry="13.002"/><path d="M3.998 45.998v1c0 7.203 5.8 13.004 13.004 13.004h29.996c7.203 0 13.004-5.8 13.004-13.004v-1c0 7.203-5.8 13.002-13.004 13.002H17.002A12.975 12.975 0 0 1 3.998 45.998" opacity=".25"/><path fill="#fff" d="M3.998 18.004v-1C3.998 9.801 9.798 4 17.002 4h29.996c7.203 0 13.004 5.8 13.004 13.004v1c0-7.203-5.8-13.002-13.004-13.002H17.002A12.975 12.975 0 0 0 3.998 18.004" opacity=".15"/><g fill="#fff"><path d="M20.121 10.557a1.68 1.68 0 0 0-1.186 1.186L10.557 43.01a1.677 1.677 0 0 0 1.186 2.055l31.267 8.378a1.677 1.677 0 0 0 2.054-1.186l8.378-31.267a1.677 1.677 0 0 0-1.186-2.055L20.99 10.558a1.7 1.7 0 0 0-.869 0zm10.062 16.14a2 2 0 0 1 .45.068L35.8 28.15a2.027 2.027 0 0 1 1.434 2.483L35.849 35.8a2.027 2.027 0 0 1-2.482 1.433l-5.169-1.384a2.027 2.027 0 0 1-1.433-2.483l1.385-5.169a2.03 2.03 0 0 1 2.034-1.5z" opacity=".35"/><path fill-opacity=".75" d="M40.164 18.259a13 13 0 0 0-.439 0c-.254.005-.569.02-.887.059a4.5 4.5 0 0 0-.708.138c-.19.056-.352.125-.47.209a.6.6 0 0 0-.13.12.4.4 0 0 0-.063.122 81 81 0 0 0-.578 2.21c-.195.781-.389 1.59-.564 2.333a259 259 0 0 0-.58 2.518c.835.828 1.617 1.42 2.349 1.83.754.423 1.455.655 2.112.752a5.4 5.4 0 0 0 1.873-.056 8.2 8.2 0 0 0 1.695-.56c.544-.237 1.064-.51 1.556-.76.505-.254.984-.487 1.451-.647a4 4 0 0 1 .705-.182 2.7 2.7 0 0 1 .701-.025 2.3 2.3 0 0 1 .694.179q.243.105.475.27l.033-.089.152-.412a30 30 0 0 0 .386-1.1c.27-.822.562-1.874.72-3.038a.3.3 0 0 0-.01-.12.6.6 0 0 0-.065-.15q-.098-.165-.324-.366c-.226-.2-.34-.272-.562-.415a10 10 0 0 0-.763-.438 20 20 0 0 0-1.987-.886 33 33 0 0 0-2.368-.814 15 15 0 0 0-1.089-.28l-1.385-.247a18 18 0 0 0-1.076-.115 15 15 0 0 0-.854-.04m7.647 9.332a2 2 0 0 0-.272.024 3.4 3.4 0 0 0-.596.154c-.423.146-.88.369-1.366.612-.511.256-1.026.522-1.587.764a9.4 9.4 0 0 1-1.818.594 6.4 6.4 0 0 1-2.062.1 6.8 6.8 0 0 1-2.3-.721c-.423-.195-1.175-.615-1.616-.815a2 2 0 0 1 .184.104l.013.01a2 2 0 0 1 .212.162l.065.06a2 2 0 0 1 .144.151l.055.065a2 2 0 0 1 .156.227l.03.057a2 2 0 0 1 .096.202l.032.083a2 2 0 0 1 .066.22l.013.055a2 2 0 0 1 .037.278l.002.078a2 2 0 0 1-.006.214l-.008.085a2 2 0 0 1-.051.278l-1.385 5.17a2 2 0 0 1-.14.357 2 2 0 0 1-.075.137q-.048.079-.104.152a2 2 0 0 1-.109.13 2 2 0 0 1-.136.153q-.054.054-.11.103a2 2 0 0 1-.207.147l-.014.007a2 2 0 0 1-.187.09 2 2 0 0 1-.463.158 2 2 0 0 1-.226.045l-.01.002c.022.302.097.646.134.94.103.81.276 1.592.542 2.3.086.23.185.447.291.66l-.026-.04c.227.635.431.991.618 1.519.183.512.357 1.962.32 2.567-.082 1.3-.098 1.271-.256 2.217-.13.78-.385 1.683-.799 2.815a13 13 0 0 1-.374.906l2.333.626c.038-.291.085-.593.156-.934.198-.937.426-1.68.61-2.417.212-.845.618-1.994.844-2.473.354-.755.626-1.168 1.175-1.7.645-.466.768-.531 1.511-1.096a16 16 0 0 0 1.693-1.435c.98-.931 1.362-1.623 2.587-4.027.945-1.855 1.743-3.91 2.385-5.828a63 63 0 0 0 .99-3.252q.09-.323.15-.547a1.7 1.7 0 0 0-.402-.316 1.4 1.4 0 0 0-.48-.162 2 2 0 0 0-.259-.015m-11.617.712-.062-.03.017.01zm-.23-.101c.017.005.053.024.075.033l.01.003z"/></g></svg>