<svg xmlns="http://www.w3.org/2000/svg" viewBox="0 0 16.933 16.933"><rect width="14.817" height="14.817" x="1.058" y="1.05" fill="#9c37d0" rx="3.44" ry="3.44"/><path fill="#fff" d="M8.467 2.117v1.058a5.283 5.283 0 0 1 5.29 5.292 5.283 5.283 0 0 1-5.29 5.29v1.059c3.5 0 6.349-2.849 6.349-6.35s-2.849-6.349-6.35-6.349zm0 2.115v1.059a3.167 3.167 0 0 1 3.173 3.176 3.165 3.165 0 0 1-3.173 3.173v1.06a4.24 4.24 0 0 0 4.232-4.232c0-2.332-1.9-4.235-4.232-4.235zm0 2.117v4.234a2.117 2.117 0 0 0 2.116-2.117A2.117 2.117 0 0 0 8.467 6.35z"/><path d="M1.058 12.17v.265a3.433 3.433 0 0 0 3.44 3.44h7.937a3.433 3.433 0 0 0 3.44-3.44v-.265a3.433 3.433 0 0 1-3.44 3.44H4.498a3.433 3.433 0 0 1-3.44-3.44" opacity=".15"/><path fill="#fff" d="M1.058 4.763V4.5a3.433 3.433 0 0 1 3.44-3.44h7.937a3.433 3.433 0 0 1 3.44 3.44v.265a3.433 3.433 0 0 0-3.44-3.44H4.498a3.433 3.433 0 0 0-3.44 3.44z" opacity=".15"/></svg>