<svg xmlns="http://www.w3.org/2000/svg" image-rendering="optimizeSpeed" viewBox="0 0 64 64"><rect width="56.002" height="56.002" x="4" y="3.969" fill="#1eadf4" rx="13.002" ry="13.002"/><circle cx="32.02" cy="32.044" r="30.001" fill="none"/><path d="M3.998 45.998v1c0 7.203 5.8 13.004 13.004 13.004h29.996c7.203 0 13.004-5.8 13.004-13.004v-1c0 7.203-5.8 13.002-13.004 13.002H17.002A12.975 12.975 0 0 1 3.998 45.998" opacity=".15"/><path fill="#fff" d="M3.998 18.004v-1C3.998 9.801 9.798 4 17.002 4h29.996c7.203 0 13.004 5.8 13.004 13.004v1c0-7.203-5.8-13.002-13.004-13.002H17.002A12.975 12.975 0 0 0 3.998 18.004" opacity=".15"/><path fill="#fff" d="M29 25q-.606-.421-1.332-.33a1.88 1.88 0 0 0-1.212.639 1.87 1.87 0 0 0-.49 1.284v15.451q0 .736.49 1.285a1.88 1.88 0 0 0 1.212.638q.726.089 1.332-.33l11.209-7.725q.535-.37.738-.979.206-.616 0-1.224a1.93 1.93 0 0 0-.734-.983z" opacity=".75"/><path fill="#f55" d="M17 6a10.95 10.95 0 0 0-7.549 3H54.55A10.95 10.95 0 0 0 47 6z"/><path fill="#b468f3" d="M9.451 9a11 11 0 0 0-2.248 3h49.594a11 11 0 0 0-2.248-3z"/><path fill="#3ae4b6" d="M7.203 12a11 11 0 0 0-1.014 3H57.81a11 11 0 0 0-1.013-3z"/></svg>