<svg xmlns="http://www.w3.org/2000/svg" xmlns:xlink="http://www.w3.org/1999/xlink" width="64" height="64" viewBox="0 0 16.933 16.933"><defs><linearGradient id="a" x2="0" y1="47" y2="1" gradientTransform="translate(0 284.3)scale(.26458)" gradientUnits="userSpaceOnUse"><stop offset="0" stop-color="#fb5164"/><stop offset="1" stop-color="#ee4e8a"/></linearGradient><linearGradient id="c" x1="519.68" x2="519.68" y1="2.826" y2="1026.1" gradientTransform="translate(-.144 -.144)scale(.01682)" gradientUnits="userSpaceOnUse"><stop offset="0" stop-color="#fcc"/><stop offset=".5" stop-color="#faf8f6"/><stop offset="1" stop-color="#ffe5ef"/></linearGradient><linearGradient id="f" x1="8.467" x2="8.467" y1="4.92" y2="12.028" gradientTransform="translate(-.03 -.819)scale(1.0007)" gradientUnits="userSpaceOnUse"><stop offset="0" stop-color="#ffcfcf"/><stop offset=".5" stop-color="#faf8f6"/><stop offset="1" stop-color="#ffecec"/></linearGradient><linearGradient xlink:href="#a" id="h" x1="8.915" x2="8.915" y1="6.373" y2="10.561" gradientUnits="userSpaceOnUse"/><linearGradient id="b" x1="7.937" x2="7.937" y1="15.081" y2="1.852" gradientUnits="userSpaceOnUse"><stop offset="0" stop-color="#f1efeb"/><stop offset="1" stop-color="#fdfcfc"/></linearGradient><linearGradient xlink:href="#a" id="d" x2="0" y1="47" y2="1" gradientTransform="translate(0 284.3)scale(.26458)" gradientUnits="userSpaceOnUse"/><filter id="g" width="1.136" height="1.107" x="-.068" y="-.054" color-interpolation-filters="sRGB"><feGaussianBlur stdDeviation=".093"/></filter><filter id="e" width="1.072" height="1.072" x="-.036" y="-.036" color-interpolation-filters="sRGB"><feGaussianBlur stdDeviation=".107"/></filter></defs><rect width="14.817" height="14.817" x="1.058" y="1.05" fill="url(#b)" rx="3.44" ry="3.44"/><path fill="url(#c)" d="m16.163 6.449-.061-.23-.053-.176a7.4 7.4 0 0 0-.685-1.545 8.2 8.2 0 0 0-1.285-1.644q-1.83-1.832-4.265-2.22A8 8 0 0 0 8.466.528q-.235 0-.469.013-2.985.153-5.143 2.312Q.529 5.179.529 8.466t2.325 5.614c.953.952 2.027 1.612 3.213 1.976.618.19 1.258.3 1.93.336h.007q.214.011.412.012h.05a10 10 0 0 0 .623-.021 8.3 8.3 0 0 0 1.38-.217c1.36-.34 2.56-1.035 3.61-2.086q1.227-1.226 1.806-2.721a7.9 7.9 0 0 0 .519-2.893v-.05a8.3 8.3 0 0 0-.24-1.968z" transform="translate(2.822 2.822)scale(.66667)"/><g stroke-width=".751"><path fill="url(#d)" d="M6.35 284.56c-.6 0-1.178.088-1.725.25-.393.835-.378 2.274-.186 2.949.188.659.453 1.292.725 1.917a5.1 5.1 0 0 1-1.328-.501c-.721-.417-1.745-1.615-2.02-2.589a6.07 6.07 0 0 0-1.432 2.85c.49.668 1.62 1.312 2.452 1.52.671.168 1.35.24 2.025.298-.312.322-.65.609-1.038.838-.723.418-2.276.706-3.257.455a6.1 6.1 0 0 0 1.686 2.6c.929-.074 2.138-.793 2.611-1.3.475-.507.884-1.074 1.284-1.643.12.447.198.895.202 1.35 0 .84-.5 2.344-1.17 3.062a6.1 6.1 0 0 0 2.982-.16c.329-.753.326-2.086.1-2.924-.182-.682-.45-1.321-.726-1.95.47.11.92.267 1.342.505.724.417 1.751 1.62 2.023 2.596a6.07 6.07 0 0 0 1.401-2.773c-.532-.763-1.751-1.445-2.425-1.603-.671-.156-1.36-.228-2.048-.289a5 5 0 0 1 1.036-.836c.723-.417 2.278-.705 3.258-.454a6.1 6.1 0 0 0-1.771-2.664c-.823.098-1.935.75-2.528 1.362-.485.502-.89 1.058-1.282 1.62a5.3 5.3 0 0 1-.192-1.31c0-.84.5-2.344 1.169-3.062a6 6 0 0 0-1.17-.114z" transform="translate(2.945 -244.274)scale(.86958)"/><path d="M12.02 8.558a3.554 3.554 0 0 1-7.106 0 3.554 3.554 0 1 1 7.106 0" filter="url(#e)" opacity=".25" transform="matrix(.76927 0 0 .7692 1.953 1.948)"/><path fill="url(#f)" d="M12.02 8.558a3.554 3.554 0 0 1-7.106 0 3.554 3.554 0 1 1 7.106 0" transform="matrix(.76927 0 0 .7692 1.953 1.948)"/><path d="m10.463 8.607-2.98 1.924c-.117.074-.213.01-.213-.177v-3.77c0-.213.094-.25.213-.176l2.98 1.924c.133.086.127.192 0 .275" filter="url(#g)" opacity=".25" transform="matrix(.76927 0 0 .7692 1.953 1.948)"/><path fill="url(#h)" d="m10.463 8.607-2.98 1.924c-.117.074-.213.01-.213-.177v-3.77c0-.213.094-.25.213-.176l2.98 1.924c.133.086.127.192 0 .275" transform="matrix(.76927 0 0 .7692 1.953 1.948)"/></g></svg>