<svg xmlns="http://www.w3.org/2000/svg" viewBox="0 0 16.933 16.933"><defs><linearGradient id="a" x1="8.463" x2="12.084" y1="2.164" y2="7.365" gradientUnits="userSpaceOnUse"><stop offset="0" stop-color="#2a2a2a"/><stop offset=".129" stop-color="#393939"/><stop offset=".169" stop-color="#604c59"/><stop offset=".578" stop-color="#4b3f46"/><stop offset=".632" stop-color="#242224"/><stop offset=".684" stop-color="#5e425a"/><stop offset="1" stop-color="#2e2a2e"/></linearGradient></defs><rect width="14.817" height="14.817" x="1.058" y="1.05" fill="#a3aeb1" rx="3.44" ry="3.44"/><rect width="12.7" height="12.7" x="2.117" y="2.117" fill="#fc73b1" rx="2.209" ry="2.209"/><path d="M4.498 1.323A3.16 3.16 0 0 0 1.331 4.49v7.937a3.16 3.16 0 0 0 3.167 3.167h7.937a3.16 3.16 0 0 0 3.168-3.167V4.49a3.16 3.16 0 0 0-3.168-3.167zm0 .794h7.937A2.37 2.37 0 0 1 14.81 4.49v7.937a2.37 2.37 0 0 1-2.374 2.373H4.498a2.37 2.37 0 0 1-2.373-2.373V4.49a2.37 2.37 0 0 1 2.373-2.373"/><path fill="#40343e" d="m13.16 12.478-2.344-9.231.513-.13 2.344 9.231z"/><path fill="#2c2c2c" d="m12.19 8.625-.588-2.313.497-.126.587 2.313z"/><path fill="url(#a)" d="M8.275 1.843a.335.335 0 0 1 .467.096l3.595 5.373c.105.158.033.27-.08.347-.114.078-.231.096-.34-.06l-3.72-5.286a.335.335 0 0 1 .078-.47"/><path d="M8.2 1.918a.34.34 0 0 0-.004.395l3.72 5.287c.11.155.227.137.342.059a.3.3 0 0 0 .121-.146.3.3 0 0 1-.096.101c-.114.078-.232.097-.342-.059L8.221 2.27a.34.34 0 0 1-.022-.35z" opacity=".35"/></svg>