<svg xmlns="http://www.w3.org/2000/svg" viewBox="0 0 16.933 16.933"><path fill="#f2f2f2" d="M1.058 5.027v7.4a3.43 3.43 0 0 0 3.44 3.44h7.937a3.43 3.43 0 0 0 3.44-3.44v-7.4z"/><path fill="#0079fd" d="M3.966 5.82a1.06 1.06 0 0 0-1.042 1.06 1.06 1.06 0 0 0 1.058 1.058A1.06 1.06 0 0 0 5.04 6.88a1.06 1.06 0 0 0-1.058-1.058h-.016zm.003.265h.013a.794.794 0 0 1 .794.794.794.794 0 0 1-.794.794.794.794 0 0 1-.794-.794.794.794 0 0 1 .78-.794zm0 .265a.53.53 0 0 0-.516.529.53.53 0 0 0 .53.53.53.53 0 0 0 .528-.53.53.53 0 0 0-.529-.53h-.013z"/><rect width="7.408" height=".265" x="6.35" y="6.879" fill="#ccc" ry=".132"/><rect width="7.408" height=".265" x="6.35" y="10.054" fill="#ccc" ry=".132"/><rect width="7.408" height=".265" x="6.35" y="13.229" fill="#ccc" ry=".132"/><path fill="#fb3027" d="M3.966 8.996a1.06 1.06 0 0 0-1.042 1.058 1.06 1.06 0 0 0 1.058 1.058 1.06 1.06 0 0 0 1.058-1.058 1.06 1.06 0 0 0-1.058-1.058zm.003.264h.013a.794.794 0 0 1 .794.794.794.794 0 0 1-.794.794.794.794 0 0 1-.794-.794.794.794 0 0 1 .78-.794zm0 .265a.53.53 0 0 0-.516.529.53.53 0 0 0 .53.53.53.53 0 0 0 .528-.53.53.53 0 0 0-.529-.53z"/><path fill="#f79500" d="M3.953 12.171a1.06 1.06 0 0 0-1.043 1.058 1.06 1.06 0 0 0 1.059 1.059 1.06 1.06 0 0 0 1.058-1.059 1.06 1.06 0 0 0-1.058-1.058zm.002.265h.014a.794.794 0 0 1 .793.793.794.794 0 0 1-.793.794.794.794 0 0 1-.794-.794.794.794 0 0 1 .78-.793m0 .264a.53.53 0 0 0-.515.53.53.53 0 0 0 .529.528.53.53 0 0 0 .529-.529.53.53 0 0 0-.53-.529z"/><path fill="#2d86fc" d="M4.498 1.05a3.43 3.43 0 0 0-3.44 3.44v.537h14.817V4.49a3.43 3.43 0 0 0-3.44-3.44z"/><path d="M1.058 12.17v.265a3.433 3.433 0 0 0 3.44 3.44h7.937a3.433 3.433 0 0 0 3.44-3.44v-.265a3.433 3.433 0 0 1-3.44 3.44H4.498a3.433 3.433 0 0 1-3.44-3.44" opacity=".15"/><path fill="#fff" d="M1.058 4.763V4.5a3.433 3.433 0 0 1 3.44-3.44h7.937a3.433 3.433 0 0 1 3.44 3.44v.265a3.433 3.433 0 0 0-3.44-3.44H4.498a3.433 3.433 0 0 0-3.44 3.44z" opacity=".15"/></svg>