<svg xmlns="http://www.w3.org/2000/svg" xml:space="preserve" viewBox="0 0 64 64"><rect width="56.002" height="56.002" x="4" y="3.969" fill="#f2f2f2" rx="13.002" ry="13.002"/><path d="M3.998 45.998v1c0 7.203 5.8 13.004 13.004 13.004h29.996c7.203 0 13.004-5.8 13.004-13.004v-1c0 7.203-5.8 13.002-13.004 13.002H17.002A12.975 12.975 0 0 1 3.998 45.998" opacity=".1"/><path fill="#fff" d="M3.998 18.004v-1C3.998 9.801 9.798 4 17.002 4h29.996c7.203 0 13.004 5.8 13.004 13.004v1c0-7.203-5.8-13.002-13.004-13.002H17.002A12.975 12.975 0 0 0 3.998 18.004" opacity=".5"/><g stroke-width=".265"><path fill="#df6277" d="M31.878 10 22.35 26.5l9.528 5.5 9.525-5.5.414-11.715c-4.35-2.512-8.84-4.785-9.94-4.785Z"/><path fill="#fb9168" d="M41.817 14.785 31.877 32l9.526 5.5L50.931 21c-.55-.952-4.763-3.703-9.114-6.214Z"/><path fill="#f3db6c" d="M50.93 21 31.878 32l9.525 5.5L51.755 32c0-5.023-.274-10.047-.824-11z"/><path fill="#7ab392" d="M31.878 32v11H50.93c.55-.952.824-5.976.824-11Z"/><path fill="#4b7cbc" d="M31.878 32v11l9.939 6.215c4.35-2.512 8.563-5.262 9.113-6.215z"/><path fill="#6f488c" d="m31.878 32-9.528 5.5L31.878 54c1.1 0 5.588-2.273 9.939-4.785z"/><path fill="#4d3f33" d="M22.35 26.5 12.825 43c1.1 1.906 16.853 11 19.052 11V32Z"/><path fill="#7a573b" d="M12.825 21c-1.1 1.906-1.1 20.095 0 22l19.053-11V21Z"/><path fill="#99cd61" d="M31.878 10c-2.2 0-17.953 9.095-19.053 11l19.053 11z"/></g><path fill="#fff" d="M31.88 21c-1.1 0-8.975 4.548-9.525 5.5L31.88 43l9.527-16.5c-.55-.952-8.427-5.5-9.527-5.5"/><path fill="#dfdfdf" d="M22.355 26.5 31.88 43c1.1 0 8.977-4.547 9.527-5.5.55-.952.55-10.047 0-11L31.88 32z"/><path fill="#d6d2d2" d="M22.353 26.5c-.55.953-.55 10.048 0 11 .55.953 8.425 5.5 9.525 5.5V32Z"/></svg>