<svg xmlns="http://www.w3.org/2000/svg" viewBox="0 0 64 64"><rect width="56.002" height="56.002" x="4" y="3.969" fill="#f2f2f2" rx="13.002" ry="13.002"/><path d="M3.998 45.998v1c0 7.203 5.8 13.004 13.004 13.004h29.996c7.203 0 13.004-5.8 13.004-13.004v-1c0 7.203-5.8 13.002-13.004 13.002H17.002A12.975 12.975 0 0 1 3.998 45.998" opacity=".1"/><path fill="#fff" d="M3.998 18.004v-1C3.998 9.801 9.798 4 17.002 4h29.996c7.203 0 13.004 5.8 13.004 13.004v1c0-7.203-5.8-13.002-13.004-13.002H17.002A12.975 12.975 0 0 0 3.998 18.004" opacity=".5"/><path fill="#f8bc05" d="M31.875 46.747c-.241-.044-1.733-.284-3.315-.534s-2.915-.492-2.961-.535c-.048-.045.163-1.82.477-4.013.309-2.164.558-4.153.553-4.421-.007-.407-.204-.917-1.19-3.072-.651-1.421-1.238-2.628-1.305-2.682a.7.7 0 0 1-.178-.243q-.708-1.577-1.432-3.147c-.756-1.651-1.376-3.066-1.376-3.146 0-.079.063-.143.14-.143.076 0 1.753.22 3.726.488 2.124.289 3.636.537 3.705.61.064.066.555 1.04 1.091 2.165s1.018 2.06 1.072 2.078.68-.804 1.392-1.825c1.111-1.597 1.329-1.858 1.544-1.858.138 0 1.435.153 2.88.34 1.447.188 2.708.342 2.804.342 1.409.004-.232.047.91.25.403.07.578.145.571.242-.005.078-1.465 2.218-3.242 4.754-1.777 2.537-3.233 4.651-3.233 4.697 0 .882-.073.162-.132.369a7 7 0 0 0-.102.464l-.796 4.485c-.408 2.307-.788 4.248-.843 4.315-.056.067-.15.117-.211.11a12 12 0 0 1-.549-.09" style="stroke:none;stroke-width:0;stroke-dasharray:none"/><path fill="#0178fb" d="M15.913 42.046c-.043-.067-.838-1.877-1.767-4.022-.93-2.146-2.568-5.937-3.639-8.426-1.071-2.49-1.913-4.56-1.87-4.602s1.394-.697 3.003-1.455a859 859 0 0 1 3.035-1.425c.064-.028.25.289.447.762.185.446 1.228 2.972 2.317 5.613 1.089 2.64 2.03 4.87 2.092 4.956.1.135.375.019 2.233-.936 1.165-.599 2.174-1.067 2.242-1.042.068.026.682 1.268 1.364 2.76.735 1.607 1.204 2.747 1.152 2.799-.049.048-2.38 1.224-5.181 2.613s-5.15 2.527-5.221 2.527a.28.28 0 0 1-.207-.122" style="stroke:none;stroke-width:0;stroke-dasharray:none"/><path fill="#cc3303" d="M52.304 40.337a442 442 0 0 1-3.7-.27c-1.767-.135-3.237-.269-3.267-.299s-.365-1.245-.744-2.702c-.473-1.813-.734-2.658-.83-2.675-.083-.015-.729.82-1.63 2.113-.821 1.176-1.555 2.19-1.63 2.252-.106.089-.738-.06-2.895-.68l-2.93-.844c-.094-.028-.17-.089-.17-.136s1.454-2.162 3.232-4.699 3.237-4.676 3.243-4.753c.006-.098-.169-.173-.575-.244-.462-.081-.592-.144-.62-.298-.021-.107-.558-1.903-1.195-3.991-.636-2.089-1.133-3.82-1.104-3.85.028-.029 1.477.185 3.218.474 1.741.29 3.206.575 3.257.636.05.06.391.96.76 2 .368 1.04.713 1.906.767 1.924s.689-.67 1.408-1.53 1.374-1.562 1.455-1.562 1.659.285 3.505.633c1.847.347 3.395.668 3.439.713s-1.307 1.694-3.001 3.667c-2.063 2.4-3.067 3.64-3.036 3.748.025.089.863 2.397 1.862 5.13.998 2.734 1.815 5.024 1.815 5.09s-.033.134-.073.15-.293.018-.56.003zm-25.97-3.975c-.117-.242-.211-.472-.208-.51.001-.039.114.142.25.401.135.261.229.49.208.51-.02.021-.132-.16-.25-.401m-.487-1.073c-.118-.242-.212-.472-.21-.51s.116.142.252.402c.134.26.228.49.208.51s-.133-.16-.25-.402m-.488-1.073c-.117-.241-.211-.471-.209-.51.003-.038.115.142.25.402s.23.49.21.51-.134-.16-.25-.402zm-.311-.678c0-.027.022-.049.049-.049s.049.022.049.05a.05.05 0 0 1-.05.048.05.05 0 0 1-.048-.049m-.274-.59c-.118-.241-.212-.47-.21-.51.003-.038.117.142.252.402s.229.49.208.51c-.02.02-.133-.16-.25-.402m-.486-1.07c-.117-.24-.192-.436-.167-.436.026 0 .137.18.25.399.111.22.186.416.166.437-.02.02-.133-.16-.25-.4z" style="stroke:none;stroke-width:0;stroke-dasharray:none"/></svg>