<svg xmlns="http://www.w3.org/2000/svg" viewBox="0 0 16.933 16.933"><defs><linearGradient id="a" x1="7.937" x2="7.937" y1="15.081" y2="1.852" gradientTransform="translate(.553 .553)scale(.93462)" gradientUnits="userSpaceOnUse"><stop offset="0" stop-color="#eaeef3"/><stop offset="1" stop-color="#f8fafb"/></linearGradient></defs><rect width="13.848" height="13.848" x="1.542" y="1.534" fill="url(#a)" rx="3.215" ry="3.215"/><path fill="#474747" d="M4.498 1.05a3.43 3.43 0 0 0-3.44 3.44v7.937a3.43 3.43 0 0 0 3.44 3.44h7.937a3.43 3.43 0 0 0 3.44-3.44V4.49a3.43 3.43 0 0 0-3.44-3.44z"/><path fill="#373738" d="M5.008 4.703c-.705 0-1.067.325-1.137 1.002l-.759 7.32c-.057.55.444.997.996.997h8.717c.551 0 1.052-.447.995-.997l-.758-7.32c-.072-.677-.434-1.003-1.138-1.003H8.327z"/><path fill="#575656" d="M4.306 12.401h.872c1.19.81 2.423.809 3.665.809h2.105l1.715-.62s.125-.66.055-.643c-.068.018-8.536 0-8.536 0z"/><path fill="#7a7b7b" d="M3.23 11.038v1.792a1.075.834 0 0 0 1.075.834 1.075.834 0 0 0 1.075-.834v-1.792z"/><path fill="#66666b" d="M3.23 11.038v1.792a1.076.833 0 0 0 1.074.834 1.076.833 0 0 0 1.076-.834v-1.793zm10.457 0v1.792a1.076.833 0 0 1-1.074.834 1.076.833 0 0 1-1.076-.834v-1.793z"/><path fill="#aebbc0" d="M5.008 2.91c-.705 0-1.067.325-1.137 1.003l-.759 7.321c-.057.549.444.996.996.996h8.717c.551 0 1.052-.447.995-.996l-.758-7.321c-.072-.678-.434-1.003-1.138-1.003H8.327z"/><path fill="#64676f" d="m11.963 3.849-.184-.17L9.76 5.966h-.9l-.476-.017c-2.287-.089-4.238 1.213-4.238 2.69s1.856 2.673 4.146 2.673 4.236-1.215 4.236-2.69q0-.225-.057-.44z" style="paint-order:fill markers stroke"/><path fill="#7a8285" d="m4.875 5.218 5.744.079-.119-1.475c-1.451.147-4.93.337-5.513 1.283z"/><path fill="#aebbc0" d="m11.799 3.674-6.751.046-.06 1.388 5.058.039-.37.75h-.848a6 6 0 0 0-.447-.019c-2.154 0-3.987 1.178-3.987 2.61s1.746 2.591 3.9 2.591 3.987-1.178 3.987-2.609a1.7 1.7 0 0 0-.054-.425z" style="paint-order:fill markers stroke"/><path fill="#1f2021" d="M5.415 3.844h4.186c.068 0 .119.055.123.123l.053.857c.004.068-.055.123-.124.123H5.37c-.068 0-.127-.055-.123-.123l.046-.857c.005-.068.055-.124.123-.124"/><path fill="#64676f" d="m11.799 3.693-6.751.027v.072l6.751-.047z" style="paint-order:fill markers stroke"/><path fill="#423d3f" d="m4.874 5.216.09-1.348.089-.154-.065 1.394z"/><path fill="#463d40" d="m9.966 5.282.091-.147-.115.598-.071.071z"/><ellipse cx="8.544" cy="8.386" opacity=".5" rx="2.297" ry="1.303"/><path fill="#929a9e" d="M6.287 7.968v.383A2.257 1.28 0 0 0 7.416 9.43a2.257 1.28 0 0 0 2.257 0 2.257 1.28 0 0 0 1.126-1.078h.003v-.383z"/><ellipse cx="8.544" cy="7.988" fill="#c4cbcf" rx="2.257" ry="1.281"/><path d="M8.544 7.077a1.64.91 0 0 0-1.64.911 1.64.91 0 0 0 1.64.911 1.64.91 0 0 0 1.64-.91 1.64.91 0 0 0-1.64-.912m-.028.08a1.546.831 0 0 1 .028 0 1.546.831 0 0 1 1.546.831 1.546.831 0 0 1-1.546.831 1.546.831 0 0 1-1.546-.83 1.546.831 0 0 1 1.518-.832" opacity=".15"/><path fill="#878d8f" d="m3.115 11.199-.003.034c-.057.55.444.997.996.997h8.717c.551 0 1.052-.447.995-.997l-.002-.03c-.054.465-.502.82-.993.82H4.108c-.493 0-.942-.357-.993-.824m0 1.792-.003.034c-.057.55.444.997.996.997h8.717c.551 0 1.052-.447.995-.997l-.002-.03c-.054.465-.502.82-.993.82H4.108c-.493 0-.942-.357-.993-.824"/><ellipse cx="3.91" cy="11.358" fill="#233242" rx=".238" ry=".195" style="paint-order:fill markers stroke"/><ellipse cx="3.911" cy="11.344" fill="#c2dfea" rx=".229" ry=".172" style="paint-order:fill markers stroke"/><path fill="#1a1c20" d="M3.916 11.215a.026.112 2.576 0 0-.028.075.142.026 23.938 0 0-.107-.02.142.026 23.938 0 0 .07.058.026.142 66.062 0 0-.07.057.026.142 66.062 0 0 .104-.02.026.112 2.576 0 0 .02.074.026.112 2.576 0 0 .028-.074.142.026 23.938 0 0 .107.02.142.026 23.938 0 0-.07-.057.026.142 66.062 0 0 .07-.058.026.142 66.062 0 0-.104.02.026.112 2.576 0 0-.02-.075"/><ellipse cx="4.116" cy="7.053" fill="#233242" rx=".238" ry=".195" style="paint-order:fill markers stroke"/><ellipse cx="4.116" cy="7.04" fill="#99acb5" rx=".229" ry=".172" style="paint-order:fill markers stroke"/><path fill="#1a1c20" d="M4.121 6.91a.026.112 2.576 0 0-.027.075.142.026 23.938 0 0-.107-.02.142.026 23.938 0 0 .07.058.026.142 66.062 0 0-.07.057.026.142 66.062 0 0 .104-.02.026.112 2.576 0 0 .02.074.026.112 2.576 0 0 .028-.074.142.026 23.938 0 0 .107.02.142.026 23.938 0 0-.07-.057.026.142 66.062 0 0 .07-.058.026.142 66.062 0 0-.104.02.026.112 2.576 0 0-.02-.075z"/><ellipse cx="12.745" cy="7.053" fill="#233242" rx=".238" ry=".195" style="paint-order:fill markers stroke"/><ellipse cx="12.745" cy="7.04" fill="#99acb5" rx=".229" ry=".172" style="paint-order:fill markers stroke"/><path fill="#1a1c20" d="M12.75 6.91a.026.112 2.576 0 0-.027.075.142.026 23.938 0 0-.107-.02.142.026 23.938 0 0 .07.058.026.142 66.062 0 0-.07.057.026.142 66.062 0 0 .103-.02.026.112 2.576 0 0 .02.074.026.112 2.576 0 0 .029-.074.142.026 23.938 0 0 .107.02.142.026 23.938 0 0-.071-.057.026.142 66.062 0 0 .07-.058.026.142 66.062 0 0-.104.02.026.112 2.576 0 0-.02-.075"/><ellipse cx="4.631" cy="3.498" fill="#233242" rx=".238" ry=".195" style="paint-order:fill markers stroke"/><ellipse cx="4.631" cy="3.485" fill="#848f95" rx=".229" ry=".172" style="paint-order:fill markers stroke"/><path fill="#1a1c20" d="M4.636 3.356a.026.112 2.576 0 0-.027.074.142.026 23.938 0 0-.107-.02.142.026 23.938 0 0 .07.058.026.142 66.062 0 0-.07.058.026.142 66.062 0 0 .104-.02.026.112 2.576 0 0 .02.074.026.112 2.576 0 0 .028-.074.142.026 23.938 0 0 .107.02.142.026 23.938 0 0-.07-.058.026.142 66.062 0 0 .07-.058.026.142 66.062 0 0-.104.02.026.112 2.576 0 0-.02-.074"/><ellipse cx="12.369" cy="3.498" fill="#233242" rx=".238" ry=".195" style="paint-order:fill markers stroke"/><ellipse cx="12.37" cy="3.485" fill="#848f95" rx=".229" ry=".172" style="paint-order:fill markers stroke"/><path fill="#1a1c20" d="M12.375 3.356a.026.112 2.576 0 0-.027.074.142.026 23.938 0 0-.107-.02.142.026 23.938 0 0 .07.058.026.142 66.062 0 0-.07.058.026.142 66.062 0 0 .103-.02.026.112 2.576 0 0 .02.074.026.112 2.576 0 0 .028-.074.142.026 23.938 0 0 .108.02.142.026 23.938 0 0-.071-.058.026.142 66.062 0 0 .07-.058.026.142 66.062 0 0-.104.02.026.112 2.576 0 0-.02-.074"/><path fill="#fff" d="M9.018 4.103c-.029 0-.036.028-.052.051l-.37.527c-.016.023.023.052.051.052H9.4c.028 0 .067-.028.051-.052l-.352-.527c-.016-.023-.023-.051-.052-.051zm.006.196c.024 0 .043.023.043.051v.115c0 .029-.019.052-.043.052s-.044-.023-.044-.052V4.35c0-.028.02-.051.044-.051m-.003.249a.04.037 0 0 1 .003 0 .04.037 0 0 1 .04.036.04.037 0 0 1-.04.037.04.037 0 0 1-.04-.037.04.037 0 0 1 .037-.036"/><path d="M1.058 12.17v.265a3.433 3.433 0 0 0 3.44 3.44h7.937a3.433 3.433 0 0 0 3.44-3.44v-.265a3.433 3.433 0 0 1-3.44 3.44H4.498a3.433 3.433 0 0 1-3.44-3.44" opacity=".2"/><rect width="2.353" height=".143" x="5.47" y="3.995" fill="#fff" fill-rule="evenodd" opacity=".5" rx="0" ry="0" style="paint-order:stroke fill markers"/><rect width="2.08" height=".143" x="5.47" y="4.288" fill="#fff" fill-rule="evenodd" opacity=".5" rx="0" ry="0" style="paint-order:stroke fill markers"/><rect width="2.545" height=".143" x="5.47" y="4.587" fill="#fff" fill-rule="evenodd" opacity=".5" rx="0" ry="0" style="paint-order:stroke fill markers"/><ellipse cx="13.108" cy="11.358" fill="#233242" rx=".238" ry=".195" style="paint-order:fill markers stroke"/><ellipse cx="13.109" cy="11.344" fill="#c2dfea" rx=".229" ry=".172" style="paint-order:fill markers stroke"/><path fill="#1a1c20" d="M13.114 11.215a.026.112 2.576 0 0-.028.075.142.026 23.938 0 0-.107-.02.142.026 23.938 0 0 .071.058.026.142 66.062 0 0-.07.057.026.142 66.062 0 0 .103-.02.026.112 2.576 0 0 .02.074.026.112 2.576 0 0 .028-.074.142.026 23.938 0 0 .107.02.142.026 23.938 0 0-.07-.057.026.142 66.062 0 0 .07-.058.026.142 66.062 0 0-.104.02.026.112 2.576 0 0-.02-.075"/><path fill="#fff" d="M1.058 4.755v-.264a3.433 3.433 0 0 1 3.44-3.44h7.937a3.433 3.433 0 0 1 3.44 3.44v.264a3.433 3.433 0 0 0-3.44-3.44H4.498a3.433 3.433 0 0 0-3.44 3.44" opacity=".15"/></svg>