<svg xmlns="http://www.w3.org/2000/svg" xmlns:xlink="http://www.w3.org/1999/xlink" viewBox="0 0 64 64"><defs><linearGradient id="b" x1="3618.4" x2="3618.4" y1="-758.64" y2="-772.64" gradientTransform="matrix(1.875 0 0 2 -6759.2 1563.3)" gradientUnits="userSpaceOnUse"><stop offset="0" stop-color="#fff"/><stop offset="1" stop-color="#fff"/></linearGradient><linearGradient id="a"><stop offset="0" stop-color="#666"/><stop offset="1" stop-color="#333"/></linearGradient><linearGradient xlink:href="#a" id="d" x1="195.75" x2="195.75" y1="1016.2" y2="1032.2" gradientTransform="translate(-211.12 -1249.1)scale(1.25)" gradientUnits="userSpaceOnUse"/><linearGradient xlink:href="#a" id="c" x1="3716.2" x2="3716.2" y1="683.98" y2="705.13" gradientTransform="matrix(1.8699 0 0 1.8801 -6922.7 -1277.6)" gradientUnits="userSpaceOnUse"/></defs><rect width="56.002" height="56.002" x="4" y="3.969" fill="#4d4d4d" rx="13.002" ry="13.002"/><path fill="#fff" d="M17.002 8.97c-4.432 0-8 3.569-8 8v30c0 4.432 3.568 8 8 8H47c4.432 0 8-3.568 8-8v-30c0-4.432-3.568-8-8-8zm0 1.03H45v3H12.969v1H45v3H13.568v1H45v35.26h1V18h3v32.193h1V18h3.97v28.969a6.956 6.956 0 0 1-6.97 6.97H17.002a6.956 6.956 0 0 1-6.97-6.97V16.971a6.956 6.956 0 0 1 6.97-6.97zM46 10h1a7 7 0 0 1 2 .293V13h-3zm4 .682A6.96 6.96 0 0 1 52.732 13H50zM46 14h3v3h-3zm4 0h3.303a7 7 0 0 1 .668 2.97V17H50z" opacity=".25"/><path fill="#f2f2f2" d="M17 7C11.46 7 7 11.46 7 17v30a9.976 9.976 0 0 0 8.969 9.947c.58-.02 1.133-.037 1.449-.006h.002q.586.06 1.19.059H47c5.54 0 10-4.46 10-10V29.348C57 23.991 40.035 7 34.678 7H18.61z" style="fill:#e6e6e6"/><path fill="url(#b)" d="M19 18c-1.108 0-2 .892-2 2v24c0 1.108.892 2 2 2h26c1.108 0 2-.892 2-2V25c0-3-5-7-8-7z"/><path fill="#f09e6f" d="M17 43h30v1H17zm0-23h30v1H17z"/><path fill="url(#c)" d="M42.784 22.99v3.75h-1.865v-1.75H29.357l-2.61 15.5h-2.984l-2.486-7.875h-1.492V30.49h3.108l2.175 6.25 2.176-13.75"/><path fill="#f09e6f" d="M20 18v28h-1V18zm25 0v28h-1V18z"/><path fill="none" stroke="url(#d)" stroke-linecap="round" stroke-linejoin="round" stroke-width="2" d="M40.75 30.75 32 39.5"/><path fill="#fff" d="M34.678 7.028c3.571.893 4.464 6.25 5.357 9.82.866 3.466 2.838 5.844 8.036 7.144 3.57.892 7.142.571 8.928 5.357 0-.022-.004-.044-.004-.065C56.898 23.038 42.17 8.09 35.381 7.059a10 10 0 0 0-.702-.031z"/></svg>