<svg xmlns="http://www.w3.org/2000/svg" image-rendering="optimizeSpeed" viewBox="0 0 64 64"><rect width="56" height="56" x="4" y="4" fill="#4d4d4d" rx="13.002" ry="13.002"/><path fill="#fff" d="M19.072 18.501a1.45 1.45 0 0 0-1.022 1.767l7.743 28.864a1.454 1.454 0 0 0 1.767 1.022L44.928 45.5a1.45 1.45 0 0 0 1.022-1.767L38.212 14.87a1.46 1.46 0 0 0-1.772-1.022m-6.404 10.828s5.59 1.986 7.301 4.214c1.214 1.575 2.539 4.037 1.547 5.753-.278.487-.771.792-1.328.979-.93.317-2.072.3-2.992.175l.46 1.712 1.437-.388.388 1.443-5.764 1.547-.382-1.443 1.438-.382-.46-1.712c-1.187.903-3.03 1.902-4.326 1.153-1.717-.99-1.804-3.784-1.542-5.752.366-2.784 4.214-7.296 4.214-7.296"/><path d="M3.998 45.998v1c0 7.203 5.8 13.004 13.004 13.004h29.996c7.203 0 13.004-5.8 13.004-13.004v-1c0 7.203-5.8 13.002-13.004 13.002H17.002A12.975 12.975 0 0 1 3.998 45.998" opacity=".5"/><path fill="#fff" d="M3.998 18.004v-1C3.998 9.801 9.798 4 17.002 4h29.996c7.203 0 13.004 5.8 13.004 13.004v1c0-7.203-5.8-13.002-13.004-13.002H17.002A12.975 12.975 0 0 0 3.998 18.004" opacity=".15"/></svg>