<svg xmlns="http://www.w3.org/2000/svg" viewBox="0 0 64 64"><defs><linearGradient id="b" x1="32" x2="32" y1="10" y2="56" gradientTransform="translate(0 -1)" gradientUnits="userSpaceOnUse"><stop offset="-99" stop-color="#fdfcfc"/><stop offset="1" stop-color="#e1e1e1"/></linearGradient><linearGradient id="a" x1="8.111" x2="8.111" y1="14.648" y2="2.624" gradientTransform="scale(3.7796)" gradientUnits="userSpaceOnUse"><stop offset="0" stop-color="#ce1921"/><stop offset="1" stop-color="#f44"/></linearGradient></defs><rect width="56.002" height="56.002" x="4" y="3.969" fill="url(#a)" rx="13.002" ry="13.002" style="fill:#e62e32;fill-opacity:1"/><rect width="46" height="46" x="9" y="9" fill="url(#b)" fill-rule="evenodd" rx="8" style="fill:#f9f9f9"/><g fill-rule="evenodd"><g fill="#3584e4"><path d="M15.488 19.469h10.32v2.064h-10.32z"/><path d="M21.68 20.501v12.384h-2.064V20.5z"/><path d="M15.488 31.853h14.448v2.064H15.488z"/><path d="M29.936 25.66v8.257h-2.064V25.66z"/></g><path fill="#3584e4" d="M34.066 19.47h2.065v2.066h-2.065zm4.128 0h2.064v2.066h-2.064zm4.127 0h2.065v2.066h-2.065zm4.13 0h2.063v2.066H46.45z"/><path fill="#c0bfbc" d="M34.066 25.663h14.448v2.063H34.066zm0 6.192h14.448v2.064H34.066zM15.49 38.047h33.024v2.064H15.49zm0 6.192h18.577v2.064H15.49z"/><path fill="#ed333b" d="M38.194 44.24h2.064v2.063h-2.064zm4.127 0h2.065v2.063h-2.065zm4.13 0h2.063v2.063H46.45z"/></g><path d="M3.998 45.998v1c0 7.203 5.8 13.004 13.004 13.004h29.996c7.203 0 13.004-5.8 13.004-13.004v-1c0 7.203-5.8 13.002-13.004 13.002H17.002A12.975 12.975 0 0 1 3.998 45.998" opacity=".15"/><path fill="#fff" d="M3.998 18.004v-1C3.998 9.801 9.798 4 17.002 4h29.996c7.203 0 13.004 5.8 13.004 13.004v1c0-7.203-5.8-13.002-13.004-13.002H17.002A12.975 12.975 0 0 0 3.998 18.004" opacity=".15"/></svg>