<svg xmlns="http://www.w3.org/2000/svg" xml:space="preserve" viewBox="0 0 64 64"><rect width="56.002" height="56.002" x="4" y="3.969" fill="#4d4d4d" rx="13.002" ry="13.002"/><path d="M3.998 45.998v1c0 7.203 5.8 13.004 13.004 13.004h29.996c7.203 0 13.004-5.8 13.004-13.004v-1c0 7.203-5.8 13.002-13.004 13.002H17.002A12.975 12.975 0 0 1 3.998 45.998" opacity=".35"/><path fill="#fff" d="M3.998 18.004v-1C3.998 9.801 9.798 4 17.002 4h29.996c7.203 0 13.004 5.8 13.004 13.004v1c0-7.203-5.8-13.002-13.004-13.002H17.002A12.975 12.975 0 0 0 3.998 18.004" opacity=".15"/><path d="m32.001 8.74-2.22 2.665-2.776-1-1.318 2.533c-5.114 1.052-8.727 3.524-11.721 7.43-5.238 6.834-5.278 18.624-5.278 25.285 0 6.66 12.212 8.88 23.313 8.88s23.313-2.22 23.313-8.88-.04-18.451-5.278-25.284c-2.994-3.907-6.607-6.379-11.721-7.43l-1.318-2.533-2.776.999z" style="fill:#7ba72c;stroke-width:1.66521;fill-opacity:1"/><path d="M26.497 44.69A6.37 6.37 0 0 0 32 47.873a6.36 6.36 0 0 0 5.504-3.183H32Z" style="fill:#86572f;stroke-width:1.66521"/><path d="M32.001 37.882a1 1 0 0 0-.682.27l-5.666 4.824c-.606.582-.287 2.306.57 2.307l5.778.925 5.777-.925c.858-.001 1.177-1.725.57-2.307l-5.665-4.825a1 1 0 0 0-.682-.27" style="fill:#ffc12e;stroke-width:1.66521"/><circle cx="43.657" cy="32.886" r="4.996" style="fill:#fff;stroke-width:1.66521"/><path d="M20.345 29.556a4.996 4.996 0 0 0-4.996 4.995 5 5 0 0 0 .293 1.669 5 5 0 0 1 4.703-3.334 5 5 0 0 1 4.702 3.327 5 5 0 0 0 .293-1.662 4.996 4.996 0 0 0-4.995-4.995" style="fill:#fff;stroke-width:1.66521"/><circle cx="43.657" cy="32.886" r="3.33" style="fill:#3f3f3f;stroke-width:1.66521"/></svg>