<svg xmlns="http://www.w3.org/2000/svg" width="64" height="64"><defs><linearGradient id="b" x1="9.393" x2="9.393" y1="1.677" y2="15.568" gradientTransform="translate(4.574 4.57)scale(3.2394)" gradientUnits="userSpaceOnUse"><stop offset="0" stop-color="#cbe2e7"/><stop offset="1" stop-color="#797979"/></linearGradient><linearGradient id="a" x1="7.937" x2="7.937" y1="15.081" y2="1.852" gradientTransform="translate(-.001 .03)scale(3.7796)" gradientUnits="userSpaceOnUse"><stop offset="0" stop-color="#f1efeb"/><stop offset="1" stop-color="#fdfcfc"/></linearGradient></defs><rect width="56.002" height="56.002" x="3.999" y="3.999" fill="url(#a)" rx="13.002" ry="13.002"/><rect width="47.998" height="47.998" x="8.002" y="7.971" fill="url(#b)" rx="9" ry="9"/><path fill="#44494c" d="M48.086 15c-12.837 0-21.82 11.84-21.82 11.84-9.273 1.229-14.842 7.616-14.842 7.616 2.58-.061 5.147-.556 9.2-.556s.667 3.753.667 3.753c1.229 2.456 4.753 5.225 4.753 5.225 1.658-1.781 3.558-1.167 3.558-1.167v9.338c6.51-5.589 6.698-13.897 6.698-13.897C48.216 29.352 48.085 15 48.085 15zm-10.507 7.365a3.756 3.756 0 0 1 3.752 3.752 3.756 3.756 0 0 1-3.752 3.752 3.756 3.756 0 0 1-3.752-3.752 3.756 3.756 0 0 1 3.752-3.752M19.513 40.18s-3.975 3.804-3.975 7.366c3.624 0 5.21-.502 7.421-4.003 0 0-1.274 1.057-3.669 1.057 0 0-.637-1.41.223-4.42"/><path fill="#292b2a" d="M48.058 15c-.101 1.92-1.167 14.64-12.174 21.846 0 0-.249 8.225-6.281 13.814v.389c6.51-5.59 6.698-13.897 6.698-13.897 11.915-7.8 11.785-22.153 11.785-22.153zM37.58 21.976a3.756 3.756 0 0 0-3.752 3.752c0 .068.024.128.028.195.104-1.976 1.722-3.558 3.724-3.558s3.62 1.582 3.725 3.558c0-.067.027-.127.027-.195a3.756 3.756 0 0 0-3.752-3.752M20.624 33.511c-3.85 0-6.357.43-8.81.528-.237.241-.39.417-.39.417 2.58-.061 5.147-.556 9.2-.556 1.373 0 1.887.431 1.974 1 .097-.747-.306-1.39-1.973-1.39zm.806 3.974-.139.167c1.229 2.457 4.753 5.226 4.753 5.226 1.658-1.782 3.558-1.168 3.558-1.168v-.389s-1.9-.614-3.558 1.168c0 0-3.292-2.606-4.614-5.004m-1.917 2.697s-.093.12-.112.139c-.267 1.103-.357 1.959-.333 2.584.014-.688.122-1.595.445-2.723m3.446 3.363s-.202.124-.472.278c-1.976 2.851-3.579 3.332-6.921 3.335-.01.13-.028.26-.028.39 3.624 0 5.21-.503 7.422-4.003z" opacity=".462"/></svg>