<svg xmlns="http://www.w3.org/2000/svg" image-rendering="optimizeSpeed" viewBox="0 0 64 64"><rect width="56.002" height="56.002" x="4" y="3.969" fill="#5a5a5a" rx="13.002" ry="13.002"/><path fill="#34dfea" d="M46.806 18.027c-3.96-3.223-9.218-4.998-14.806-4.998s-10.846 1.775-14.806 4.998C13.2 21.277 11 25.61 11 30.226c0 4.406 2.005 8.553 5.66 11.747a2.3 2.3 0 0 0-.151.468l-1.201 5.908c-.143.703.049 1.121.235 1.35.215.262.533.407.897.407q.414 0 .878-.24l6.986-3.63A25.1 25.1 0 0 0 32 47.422c5.587 0 10.846-1.774 14.806-4.997C50.8 39.175 53 34.842 53 30.225c0-4.615-2.2-8.948-6.194-12.2z"/><path fill="#fff" d="M34.806 33.504c1.98-1.755 4.61-2.72 7.403-2.72s5.423.965 7.403 2.72c1.997 1.77 3.097 4.128 3.097 6.642 0 2.398-1.003 4.656-2.83 6.395q.05.121.075.255l.601 3.217c.071.382-.024.61-.118.734a.55.55 0 0 1-.448.222.9.9 0 0 1-.439-.13l-3.493-1.977c-1.21.424-2.51.646-3.848.646-2.794 0-5.423-.966-7.403-2.72-1.997-1.77-3.097-4.13-3.097-6.642s1.1-4.872 3.097-6.642"/><path d="M3.998 45.998v1c0 7.203 5.8 13.004 13.004 13.004h29.996c7.203 0 13.004-5.8 13.004-13.004v-1c0 7.203-5.8 13.002-13.004 13.002H17.002A12.975 12.975 0 0 1 3.998 45.998" opacity=".15"/><path fill="#fff" d="M3.998 18.004v-1C3.998 9.801 9.798 4 17.002 4h29.996c7.203 0 13.004 5.8 13.004 13.004v1c0-7.203-5.8-13.002-13.004-13.002H17.002A12.975 12.975 0 0 0 3.998 18.004" opacity=".15"/></svg>