<svg xmlns="http://www.w3.org/2000/svg" viewBox="0 0 64 64"><defs><linearGradient id="a" x1="34" x2="34" y1="278" y2="272" gradientTransform="matrix(1.33333 0 0 1 -169.667 -224)" gradientUnits="userSpaceOnUse"><stop offset="0" stop-color="#c061cb"/><stop offset="1" stop-color="#9141ac"/></linearGradient><linearGradient id="b" x1="63.251" x2="112.484" y1="38.587" y2="82" gradientTransform="translate(-167 -62)" gradientUnits="userSpaceOnUse"><stop offset="0" stop-color="#c061cb"/><stop offset="1" stop-color="#3584e4"/></linearGradient></defs><path d="M17.002 3.969A12.974 12.974 0 0 0 4 16.97v29.998l.004.07a12.97 12.97 0 0 1 12.998-12.93H47a12.973 12.973 0 0 0 13.002-13.002V16.97A12.973 12.973 0 0 0 47 3.969zM4.582 24.982a13 13 0 0 0 .982 2.332 13 13 0 0 0 2.237 2.995q.44.441.922.84a12.97 12.97 0 0 0-4.141-6.167" style="fill:#826cd1;stroke-width:3.7796;fill-opacity:1"/><path d="M60.002 21.107A12.973 12.973 0 0 1 47 34.11H17.002A12.97 12.97 0 0 0 4.004 47.04a12.97 12.97 0 0 0 12.998 12.932H47a12.97 12.97 0 0 0 12.998-12.93l.004-.072zm-7.947 14.014a13 13 0 0 1 2.203 1.19 13 13 0 0 1-2.203-1.19" style="fill:#5e4c9f;stroke-width:3.7796;fill-opacity:1"/><path d="M60.002 24.901c0 6.173-5.599 11.143-12.553 11.143H16.444c-5.978 0-10.468 4.937-10.506 11.08.037 6.145 4.538 11.082 10.506 11.082H47.45c6.93 0 12.511-4.936 12.55-11.08l.003-.062z" style="fill:#fff;stroke-width:3.43794"/><path fill="url(#a)" d="M16.003 46.565h16v15l-8-5-8 5zm0 0" style="fill:#c061cb;fill-opacity:1"/><path fill="url(#b)" d="M24.768 13.887c-4.04 0-7.291 1.573-7.291 3.525 0 1.758 2.636 3.206 6.109 3.478L20.21 24.9h2.734l7.946-5.573c.739-.55 1.168-1.208 1.168-1.916 0-1.952-3.252-3.525-7.291-3.525m16.404 0c-4.039 0-7.29 1.573-7.29 3.525 0 1.758 2.636 3.206 6.108 3.478L36.616 24.9h2.734l7.946-5.573c.738-.55 1.167-1.208 1.167-1.916 0-1.952-3.252-3.525-7.29-3.525m0 0" style="fill:#fff;fill-opacity:1;stroke-width:.316824"/><path d="M60.002 34.877 60 34.92C59.961 41.064 54.38 46 47.45 46H5.995c-.032.328-.047.662-.053.998L6 47h41.45c6.93 0 12.51-4.936 12.55-11.08l.002-.047z" style="fill:#ececec;stroke-width:3.43794"/><path fill="#fff" d="M3.998 18.004v-1C3.998 9.801 9.798 4 17.002 4h29.996c7.203 0 13.004 5.8 13.004 13.004v1c0-7.203-5.8-13.002-13.004-13.002H17.002A12.975 12.975 0 0 0 3.998 18.004" opacity=".5" style="opacity:.15"/></svg>