<svg xmlns="http://www.w3.org/2000/svg" xmlns:xlink="http://www.w3.org/1999/xlink" viewBox="0 0 16.933 16.933"><defs><linearGradient id="a"><stop offset="0"/><stop offset="1" stop-opacity="0"/></linearGradient><linearGradient id="b" x1="7.937" x2="7.937" y1="3.704" y2="9.789" gradientUnits="userSpaceOnUse"><stop offset="0" stop-color="#f8fcf8"/><stop offset="1" stop-color="#f8faf8" stop-opacity="0"/></linearGradient><linearGradient id="f" x1="5.557" x2="6.086" y1="12.435" y2="12.7" gradientUnits="userSpaceOnUse"><stop offset="0" stop-color="#fff"/><stop offset="1" stop-color="#92c88f" stop-opacity=".198"/></linearGradient><linearGradient id="c" x1="8.202" x2="8.202" y1="10.848" y2="6.35" gradientTransform="translate(8.717 8.77)scale(.07384)" gradientUnits="userSpaceOnUse"><stop offset="0" stop-color="#f24236"/><stop offset="1" stop-color="#fe6b62"/></linearGradient><radialGradient xlink:href="#a" id="d" cx="2.516" cy="8.466" r="1.058" gradientTransform="translate(8.366 7.588)scale(.41865)" gradientUnits="userSpaceOnUse"/><radialGradient xlink:href="#a" id="e" cx="2.516" cy="8.466" r="1.058" gradientTransform="translate(11.651 7.588)scale(.41865)" gradientUnits="userSpaceOnUse"/><clipPath id="g"><path fill="url(#b)" d="M8.466 3.704A5.292 4.365 0 0 0 3.175 8.07a5.292 4.365 0 0 0 2.095 3.472l.027.017a5.292 4.365 0 0 0 .053.033c.136.09.392.3.336.57-.074.364-.462.742-.534.832s-.126.19.044.195c.193.006.523-.101.79-.233s.591-.44.797-.503c.197-.08.44-.107.838-.08a5.292 4.365 0 0 0 .845.062 5.292 4.365 0 0 0 5.292-4.365 5.292 4.365 0 0 0-5.292-4.366"/></clipPath><filter id="h" width="1.658" height="1.792" x="-.329" y="-.396" color-interpolation-filters="sRGB"><feGaussianBlur stdDeviation=".283"/></filter></defs><rect width="14.817" height="14.817" x="1.058" y="1.05" fill="#4d4d4d" rx="3.44" ry="3.44"/><path d="M2.117 2.007A3.43 3.43 0 0 0 1.058 4.49v7.937c0 .979.407 1.858 1.059 2.483z" opacity=".25"/><path fill="#fff" d="M4.498 1.05a3.43 3.43 0 0 0-3.44 3.44v.273a3.43 3.43 0 0 1 3.44-3.44h7.937a3.43 3.43 0 0 1 3.44 3.44V4.49a3.43 3.43 0 0 0-3.44-3.44z" opacity=".15"/><path d="M4.498 15.875a3.43 3.43 0 0 1-3.44-3.44v-.273a3.43 3.43 0 0 0 3.44 3.44h7.937a3.43 3.43 0 0 0 3.44-3.44v.273a3.43 3.43 0 0 1-3.44 3.44z" opacity=".35"/><path d="M9.936 8.917c-.59 0-1.072.498-1.072 1.108v2.363c0 .61.482 1.108 1.072 1.108h2.287c.59 0 1.072-.498 1.072-1.108v-2.363c0-.61-.482-1.108-1.072-1.108zm.072.146h2.144c.514 0 .929.428.929.96v2.215c0 .532-.414.96-.93.96h-2.143c-.515 0-.93-.428-.93-.96v-2.215c0-.532.415-.96.93-.96" opacity=".01" style="font-feature-settings:normal;font-variant-alternates:normal;font-variant-caps:normal;font-variant-east-asian:normal;font-variant-ligatures:normal;font-variant-numeric:normal;font-variant-position:normal;font-variation-settings:normal;inline-size:0;isolation:auto;mix-blend-mode:normal;shape-margin:0;shape-padding:0;text-decoration-color:#000;text-decoration-line:none;text-decoration-style:solid;text-indent:0;text-orientation:mixed;text-transform:none;white-space:normal"/><path d="M9.933 8.991c-.549 0-.994.461-.994 1.03v2.372c0 .568.445 1.029.994 1.029h2.293c.55 0 .995-.462.995-1.03V10.02c0-.568-.446-1.029-.995-1.029zm.076.072h2.141c.515 0 .929.428.929.96v2.215c0 .532-.414.96-.929.96h-2.14c-.515 0-.929-.428-.929-.96v-2.215c0-.532.414-.96.928-.96" opacity=".01" style="font-feature-settings:normal;font-variant-alternates:normal;font-variant-caps:normal;font-variant-east-asian:normal;font-variant-ligatures:normal;font-variant-numeric:normal;font-variant-position:normal;font-variation-settings:normal;inline-size:0;isolation:auto;mix-blend-mode:normal;shape-margin:0;shape-padding:0;text-decoration-color:#000;text-decoration-line:none;text-decoration-style:solid;text-indent:0;text-orientation:mixed;text-transform:none;white-space:normal"/><path d="M9.012 12.238v.15c0 .49.436.886.926.886h2.287c.49 0 .922-.395.922-.886v-.147a.96.96 0 0 1-.96.957H9.973a.96.96 0 0 1-.96-.96z" opacity=".03" style="font-feature-settings:normal;font-variant-alternates:normal;font-variant-caps:normal;font-variant-east-asian:normal;font-variant-ligatures:normal;font-variant-numeric:normal;font-variant-position:normal;font-variation-settings:normal;inline-size:0;isolation:auto;mix-blend-mode:normal;shape-margin:0;shape-padding:0;text-decoration-color:#000;text-decoration-line:none;text-decoration-style:solid;text-indent:0;text-orientation:mixed;text-transform:none;white-space:normal"/><path d="M9.012 12.093v.165c0 .541.44.977.93.977h2.278c.49 0 .927-.436.927-.977v-.162c-.001.585-.429 1.055-.96 1.055H9.972c-.532 0-.96-.472-.96-1.058" opacity=".05" style="font-feature-settings:normal;font-variant-alternates:normal;font-variant-caps:normal;font-variant-east-asian:normal;font-variant-ligatures:normal;font-variant-numeric:normal;font-variant-position:normal;font-variation-settings:normal;inline-size:0;isolation:auto;mix-blend-mode:normal;shape-margin:0;shape-padding:0;text-decoration-color:#000;text-decoration-line:none;text-decoration-style:solid;text-indent:0;text-orientation:mixed;text-transform:none;white-space:normal"/><rect width="4.135" height="4.135" x="9.012" y="9.063" fill="#fff" rx=".96" ry=".96"/><path d="M9.972 9.063a.96.96 0 0 0-.96.96v1.11h4.136v-1.11a.96.96 0 0 0-.96-.96z" opacity=".12"/><path fill="url(#c)" d="M10.984 11.851h-.966v-.165l.37-.376q.11-.11.182-.191.072-.083.108-.157.036-.077.036-.165 0-.109-.064-.165t-.167-.057q-.099 0-.177.037-.079.036-.163.104l-.115-.143q.087-.072.197-.124.111-.055.264-.055.205 0 .322.105.119.105.119.28 0 .114-.047.213-.046.096-.13.193-.085.097-.2.207l-.267.26v.01h.698zm.191-.612q0-.125.016-.245.018-.123.06-.23.045-.108.121-.191.077-.083.193-.129.12-.048.286-.048.042 0 .095.004.052.004.088.012v.18q-.076-.025-.173-.025-.139 0-.23.042-.09.042-.142.117-.052.074-.077.173-.024.099-.03.211h.012q.045-.072.125-.12.08-.049.207-.049.187 0 .3.117.115.115.115.326 0 .227-.127.358-.125.129-.34.129-.139 0-.254-.069-.112-.068-.179-.207-.066-.14-.066-.356m.497.455q.115 0 .187-.075.073-.076.073-.235 0-.127-.065-.201-.062-.075-.189-.075-.086 0-.15.036-.065.037-.101.093t-.037.115q0 .082.032.16.033.08.095.131.062.05.155.05z"/><circle cx="9.419" cy="11.133" r=".443" fill="url(#d)" opacity=".15"/><path fill="#666" d="M9.418 10.763a.11.11 0 0 1 .111.11v.518a.11.11 0 1 1-.221 0v-.517a.11.11 0 0 1 .11-.111"/><path fill="#666" d="M9.418 10.763a.11.11 0 0 0-.11.11v.518a.11.11 0 1 0 .221 0v-.517a.11.11 0 0 0-.11-.111zm0 .011c.057 0 .103.048.103.108v.5c0 .06-.046.108-.103.108a.105.105 0 0 1-.102-.107v-.501c0-.06.046-.108.102-.108" opacity=".25"/><circle cx="12.704" cy="11.133" r=".443" fill="url(#e)" opacity=".15"/><path fill="#666" d="M12.741 10.763c.061 0 .11.05.11.11v.518a.11.11 0 1 1-.22 0v-.517a.11.11 0 0 1 .11-.111"/><path d="M12.741 10.763a.11.11 0 0 0-.11.11v.518a.11.11 0 1 0 .22 0v-.517a.11.11 0 0 0-.11-.111m0 .011c.057 0 .102.048.102.108v.5c0 .06-.045.108-.102.108a.105.105 0 0 1-.102-.107v-.501c0-.06.045-.108.102-.108" opacity=".25"/><path fill="#15c4f7" d="M9.898 3.635a.884.884 0 0 0-.886.886v2.363c0 .491.395.886.886.886h1.546c-.13-.493-.172-1.03-.217-1.564-.014-.135-.036-.167-.128-.17l-.394-.016c-.1-.008-.111-.154-.105-.276.049-.619.258-1.359.48-2.109h1.15H9.9z"/><path fill="#fff" d="M12.24 3.635h-1.16c-.222.75-.432 1.49-.48 2.11-.007.12.004.267.105.275l.394.016c.092.004.113.035.128.17.045.535.087 1.07.216 1.564h.818a.884.884 0 0 0 .886-.886V4.521a.884.884 0 0 0-.886-.886z"/><path d="M10.023 6.345a.074.074 0 0 0-.056.122c.232.283.658.418 1.088.421s.87-.125 1.134-.413a.074.074 0 1 0-.109-.1c-.222.243-.625.369-1.024.366s-.786-.137-.975-.368a.07.07 0 0 0-.058-.028" opacity=".75" style="font-feature-settings:normal;font-variant-alternates:normal;font-variant-caps:normal;font-variant-ligatures:normal;font-variant-numeric:normal;font-variant-position:normal;isolation:auto;mix-blend-mode:normal;shape-padding:0;text-decoration-color:#000;text-decoration-line:none;text-decoration-style:solid;text-indent:0;text-orientation:mixed;text-transform:none;white-space:normal"/><rect width=".222" height=".443" x="10.046" y="4.822" opacity=".75" rx=".111" ry=".111"/><rect width=".222" height=".443" x="11.892" y="4.822" opacity=".75" rx=".111" ry=".111"/><rect width="4.135" height="4.135" x="3.786" y="3.64" fill="#28d144" rx=".96" ry=".96"/><path fill="#fff" d="M5.853 4.379a1.477 1.218 0 0 0-1.477 1.218 1.477 1.218 0 0 0 .585.97l.008.004a1.477 1.218 0 0 0 .014.01c.038.025.11.083.094.159-.02.101-.129.207-.149.232s-.035.053.012.054a.6.6 0 0 0 .22-.065c.075-.037.166-.123.223-.14a.5.5 0 0 1 .234-.022 1.477 1.218 0 0 0 .236.017A1.477 1.218 0 0 0 7.33 5.597 1.477 1.218 0 0 0 5.853 4.38z"/><path fill="url(#f)" d="M5.686 12.162c-.074.364-.462.742-.534.831s-.126.19.044.196c.193.006.522-.101.79-.234s.591-.44.797-.502c1.162-.694-.806-1.648-1.096-.291z" clip-path="url(#g)" filter="url(#h)" transform="translate(3.49 3.345)scale(.2791)"/><path fill="#cef1ff" d="M6.075 9.063c.443 0 1.846 1.405 1.846 1.848v-.888a.96.96 0 0 0-.96-.96z"/><path fill="#fff" d="M4.746 9.287a.735.735 0 0 0-.736.736v2.215c0 .408.328.736.736.736H6.96a.735.735 0 0 0 .736-.736v-2.215a.735.735 0 0 0-.736-.736zm0 .073H6.96c.367 0 .662.296.662.663v2.215a.66.66 0 0 1-.662.662H4.746a.66.66 0 0 1-.663-.662v-2.215c0-.367.296-.663.663-.663"/><path fill="#fff" d="M7.109 9.36h.074v1.698h-.074z"/><path fill="#fff" d="M7.625 9.803v.074H5.927v-.074z"/><path fill="#4dabf8" d="M4.746 9.063a.97.97 0 0 0-.742.348.96.96 0 0 0-.213.513 1 1 0 0 0-.005.099v2.028l.789-.22.255.155.593-.176.584.18.421.085.324-.096.398-.085.771-.53v-.453c0-.443-1.403-1.848-1.846-1.848h-1.33z"/><path fill="#fff" d="M6.075 9.065c.295.074.369.517.443.812.071.287.235.484.664.591.296.074.591.047.739.443v-.005c-.008-.517-1.227-1.753-1.788-1.838z"/><path fill="#1e4c88" fill-rule="evenodd" d="m7.921 11.364-.771.53-.398.085-.324.096-.42-.085-.585-.18-.593.176-.255-.155-.79.22v.187a.957.957 0 0 0 .862.956 1 1 0 0 0 .099.004H6.96a1 1 0 0 0 .458-.115.96.96 0 0 0 .502-.845v-.874z"/><circle cx="3.478" cy="10.602" r=".295" fill="#fff" opacity=".811" transform="rotate(-7.007)"/></svg>