<svg xmlns="http://www.w3.org/2000/svg" viewBox="0 0 16.933 16.933"><rect width="14.817" height="14.817" x="1.058" y="1.05" fill="#b3b3b3" rx="3.44" ry="3.44"/><rect width="13.229" height="13.214" x="1.852" y="1.851" fill="#333" rx="2.646" ry="2.646"/><g fill="#fff"><path d="M3.969 4.277v-.569L5.82 4.762V5.3L3.969 6.354v-.57l1.394-.75z" aria-label="&gt;"/><rect width="2.117" height=".529" x="6.614" y="6.614" rx="0" ry="0"/></g><path d="M1.058 12.17v.265a3.433 3.433 0 0 0 3.44 3.44h7.937a3.433 3.433 0 0 0 3.44-3.44v-.265a3.433 3.433 0 0 1-3.44 3.44H4.498a3.433 3.433 0 0 1-3.44-3.44" opacity=".15"/><path fill="#fff" d="M1.058 4.763V4.5a3.433 3.433 0 0 1 3.44-3.44h7.937a3.433 3.433 0 0 1 3.44 3.44v.265a3.433 3.433 0 0 0-3.44-3.44H4.498a3.433 3.433 0 0 0-3.44 3.44z" opacity=".15"/><circle cx="12.171" cy="12.171" r="4.233" fill="#666"/><path fill="#e6e6e6" d="m13.897 9.53-.133.355a.06.06 0 0 0 .02.07l.156.119a.07.07 0 0 0 .072 0l.308-.219a.055.055 0 0 1 .068.006l.13.129a.055.055 0 0 1 .005.068l-.22.308a.06.06 0 0 0 .001.072l.12.156a.07.07 0 0 0 .07.02l.353-.133a.055.055 0 0 1 .065.023l.091.158a.054.054 0 0 1-.012.067l-.292.241a.06.06 0 0 0-.018.07l.075.181c.01.023.037.04.062.037l.377-.036a.055.055 0 0 1 .056.039l.047.176a.054.054 0 0 1-.03.062l-.344.156a.06.06 0 0 0-.035.063l.026.195a.07.07 0 0 0 .05.052l.373.062a.055.055 0 0 1 .045.052v.183a.054.054 0 0 1-.045.052l-.372.062a.06.06 0 0 0-.05.052l-.026.195a.07.07 0 0 0 .035.062l.344.157a.055.055 0 0 1 .03.062l-.048.176a.055.055 0 0 1-.056.04l-.376-.037a.06.06 0 0 0-.062.037l-.075.181a.07.07 0 0 0 .017.07l.292.24c.02.016.025.046.012.068l-.091.158a.055.055 0 0 1-.065.023l-.354-.133a.06.06 0 0 0-.069.02l-.12.156a.07.07 0 0 0 0 .072l.219.308a.055.055 0 0 1-.006.068l-.129.13a.055.055 0 0 1-.068.005l-.308-.22a.06.06 0 0 0-.072.001l-.156.12a.07.07 0 0 0-.02.07l.133.353a.055.055 0 0 1-.023.065l-.158.09a.054.054 0 0 1-.067-.011l-.24-.292a.06.06 0 0 0-.07-.018l-.182.075a.07.07 0 0 0-.037.062l.036.376a.055.055 0 0 1-.038.057l-.177.047a.054.054 0 0 1-.062-.029l-.156-.345a.06.06 0 0 0-.063-.035l-.195.026a.07.07 0 0 0-.052.05l-.062.373a.055.055 0 0 1-.052.045h-.182a.054.054 0 0 1-.052-.045l-.063-.372a.06.06 0 0 0-.051-.05l-.195-.026a.07.07 0 0 0-.063.035l-.157.344a.055.055 0 0 1-.062.03l-.176-.048a.055.055 0 0 1-.039-.056l.037-.377a.06.06 0 0 0-.037-.061l-.182-.076a.07.07 0 0 0-.07.018l-.24.292a.055.055 0 0 1-.068.012l-.157-.091a.055.055 0 0 1-.024-.065l.133-.354a.06.06 0 0 0-.02-.069l-.156-.12a.07.07 0 0 0-.072 0l-.308.219a.055.055 0 0 1-.068-.006l-.129-.129a.055.055 0 0 1-.006-.068l.22-.307a.06.06 0 0 0-.001-.072l-.12-.157a.07.07 0 0 0-.069-.02l-.354.133a.055.055 0 0 1-.065-.023l-.09-.158a.054.054 0 0 1 .012-.067l.292-.24a.06.06 0 0 0 .017-.07l-.075-.182a.07.07 0 0 0-.062-.037l-.376.037a.055.055 0 0 1-.056-.04l-.048-.176a.054.054 0 0 1 .03-.062l.344-.156a.06.06 0 0 0 .035-.063l-.026-.195a.07.07 0 0 0-.05-.052l-.373-.062a.055.055 0 0 1-.044-.052v-.182c0-.026.02-.049.044-.053l.373-.062a.06.06 0 0 0 .05-.051l.025-.195a.07.07 0 0 0-.035-.063l-.344-.157a.055.055 0 0 1-.029-.062l.047-.176a.055.055 0 0 1 .057-.039l.376.037a.06.06 0 0 0 .061-.037l.076-.182a.07.07 0 0 0-.018-.07l-.292-.24a.055.055 0 0 1-.012-.068l.091-.157a.055.055 0 0 1 .065-.024l.355.133c.023.009.053 0 .068-.02l.12-.156a.07.07 0 0 0 .001-.072l-.22-.308a.055.055 0 0 1 .006-.068l.129-.129a.055.055 0 0 1 .068-.006l.308.22a.06.06 0 0 0 .072-.001l.156-.12a.07.07 0 0 0 .02-.069l-.133-.354a.055.055 0 0 1 .023-.064l.158-.092a.054.054 0 0 1 .068.012l.24.293a.06.06 0 0 0 .07.017l.181-.075a.07.07 0 0 0 .037-.062l-.036-.376a.055.055 0 0 1 .039-.057l.176-.047a.054.054 0 0 1 .062.03l.157.344a.06.06 0 0 0 .063.035l.194-.026a.07.07 0 0 0 .052-.05l.062-.373a.055.055 0 0 1 .052-.044h.182c.026 0 .049.02.053.044l.062.373a.06.06 0 0 0 .052.05l.195.025a.07.07 0 0 0 .063-.035l.156-.344a.055.055 0 0 1 .062-.029l.176.047a.055.055 0 0 1 .04.057l-.037.376a.06.06 0 0 0 .037.061l.181.076a.07.07 0 0 0 .07-.018l.24-.292a.055.055 0 0 1 .068-.012l.158.091a.055.055 0 0 1 .023.065zm-.604.756a2.17 2.17 0 0 0-1.623-.225c-.102.026-.043.012-.043.012a.22.22 0 0 0-.127.326s-.041-.076.004.006l.638 1.164a.66.66 0 0 0 .537.311l1.416-.03c.087-.001 0 0 0 0a.21.21 0 0 0 .207-.262 2.17 2.17 0 0 0-1.009-1.302m-.035 3.788a2.17 2.17 0 0 0 1.028-1.276c.03-.1.012-.042.012-.042a.22.22 0 0 0-.214-.277h-.007l-1.327-.053a.66.66 0 0 0-.543.301l-.703 1.228c-.044.076 0 0 0 0a.21.21 0 0 0 .117.313s-.084-.023 0 0a2.17 2.17 0 0 0 1.637-.194m-2.576-.346a.21.21 0 0 0 .33-.055s-.043.076 0 0l.712-1.224a.66.66 0 0 0-.01-.62l-.71-1.123c-.05-.079-.004-.006-.004-.006a.22.22 0 0 0-.346-.047s.041-.045-.031.032a2.17 2.17 0 0 0-.59 1.528 2.17 2.17 0 0 0 .65 1.514z" class="shp86"/></svg>