<svg xmlns="http://www.w3.org/2000/svg" viewBox="0 0 64 64"><defs><linearGradient id="c" x1="30.992" x2="47.651" y1="24.663" y2="24.663" gradientUnits="userSpaceOnUse"><stop offset="0" stop-color="#33c0ac"/><stop offset="1" stop-color="#3388c0"/></linearGradient><linearGradient id="b" x1="16.352" x2="47.643" y1="32.003" y2="32.003" gradientUnits="userSpaceOnUse"><stop offset="0" stop-color="#fff"/><stop offset="1" stop-color="#ddd"/></linearGradient><linearGradient id="a" x1="7.937" x2="7.937" y1="15.081" y2="1.852" gradientTransform="scale(3.7796)" gradientUnits="userSpaceOnUse"><stop offset="0" stop-color="#f54800"/><stop offset="1" stop-color="#ffb200"/></linearGradient></defs><rect width="56.002" height="56.002" x="4" y="3.969" fill="url(#a)" rx="13.002" ry="13.002" style="fill:#fa7f00;fill-opacity:1"/><path fill="url(#b)" d="m45.37 21.55-2.92-2.92a7.765 7.765 0 0 0-10.98 0L18.627 31.477a7.765 7.765 0 0 0 0 10.98l2.919 2.919a7.765 7.765 0 0 0 10.98 0L45.37 32.53a7.765 7.765 0 0 0 0-10.98" style="fill:#f9f9f9"/><path fill="url(#c)" d="M45.37 21.544a7.747 7.747 0 0 1 0 10.98l-.468.468-13.91-13.915.468-.463a7.747 7.747 0 0 1 10.98 0" style="fill:#33abb4;fill-opacity:1"/><path fill="#f9f9f9" d="M40.204 21.947c-.51.51-.51 1.334 0 1.844s1.334.51 1.844 0 .51-1.334 0-1.844a1.303 1.303 0 0 0-1.844 0"/><path fill="#4d4d4d" d="m41.596 22.242-.19.632-.424.478c.675.605 1.425 1.931 2.248 2.952.072.412.205.716.244 1.2.152 1.901.434 4.28 1.588 6.482-.38 1.216-.802 2.443-1.968 3.845l.082-.072c-3.947 3.43-5.8 5.63-6.41 7.122-.152.373-.23.716-.189 1.074s.281.737.605.903c.648.332 1.29.124 2.004-.19 1.427-.627 3.221-2.056 4.703-4.152 1.481-2.097 2.624-4.878 2.554-8.133a.65.65 0 0 0-.072-.28c.586-2.088.647-4.064.018-5.714-.461-1.212-1.244-1.674-1.959-2.59-.098-.499-.1-1.042-.315-1.49-.382-.793-1.19-1.353-2.14-1.76-.036-.033-.091-.131-.126-.163l-.036.036c-.102-.037-.11-.149-.217-.18m2.05 16.907c-.365.823-.341 1.937-.822 2.618-1.351 1.912-3.05 3.222-4.162 3.71-.476.21-.707.176-.758.19.009-.072.003-.12.072-.29.382-.935 2.275-3.195 5.669-6.228z"/><path d="M3.998 45.998v1c0 7.203 5.8 13.004 13.004 13.004h29.996c7.203 0 13.004-5.8 13.004-13.004v-1c0 7.203-5.8 13.002-13.004 13.002H17.002A12.975 12.975 0 0 1 3.998 45.998" opacity=".15"/><path fill="#fff" d="M3.998 18.004v-1C3.998 9.801 9.798 4 17.002 4h29.996c7.203 0 13.004 5.8 13.004 13.004v1c0-7.203-5.8-13.002-13.004-13.002H17.002A12.975 12.975 0 0 0 3.998 18.004" opacity=".15"/></svg>