<svg xmlns="http://www.w3.org/2000/svg" viewBox="0 0 64 64"><rect width="56.002" height="56.002" x="4" y="3.969" fill="#33c4fe" rx="13.002" ry="13.002"/><circle cx="22" cy="28" r="11" fill="#ffba26" style="paint-order:normal"/><path fill="#fff" d="M32.478 22.116a11.145 11.145 0 0 0-11.145 11.145 11 11 0 0 0 .018.512 6.63 6.63 0 0 0-5.997 6.595A6.63 6.63 0 0 0 21.986 47h21.642a9.02 9.02 0 0 0 9.018-9.018 9.02 9.02 0 0 0-9.018-9.018 9 9 0 0 0-.857.049 11.145 11.145 0 0 0-10.294-6.897z" opacity=".85" style="paint-order:normal"/><path d="M3.998 45.998v1c0 7.203 5.8 13.004 13.004 13.004h29.996c7.203 0 13.004-5.8 13.004-13.004v-1c0 7.203-5.8 13.002-13.004 13.002H17.002A12.975 12.975 0 0 1 3.998 45.998" opacity=".15"/><path fill="#fff" d="M3.998 18.004v-1C3.998 9.801 9.798 4 17.002 4h29.996c7.203 0 13.004 5.8 13.004 13.004v1c0-7.203-5.8-13.002-13.004-13.002H17.002A12.975 12.975 0 0 0 3.998 18.004" opacity=".15"/></svg>