<svg xmlns="http://www.w3.org/2000/svg" viewBox="0 0 16.933 16.933"><rect width="14.816" height="14.816" x="1.058" y="1.058" fill="#5e6afe" rx="3.439" ry="3.439"/><rect width="12.7" height="12.7" x="2.117" y="2.117" fill="#fff" opacity=".2" rx="2.646" ry="2.646"/><path fill="#fff" d="M4.762 2.117a2.64 2.64 0 0 0-2.645 2.645v3.056a4.8 4.8 0 0 0 1.058.12 4.76 4.76 0 0 0 4.762-4.763 4.8 4.8 0 0 0-.12-1.058H4.763z" opacity=".15" style="paint-order:stroke fill markers"/><path fill="#fdd66c" d="M4.762 2.117a2.64 2.64 0 0 0-2.645 2.645v1.404a3.2 3.2 0 0 0 1.058.184A3.175 3.175 0 0 0 6.35 3.175a3.2 3.2 0 0 0-.182-1.058z" style="paint-order:stroke fill markers"/><path fill="#fff" d="M5.44 9.653 2.645 13.76a2.64 2.64 0 0 0 2.117 1.056h.378l2.392-3.348-1.334-1.81c-.246-.334-.537-.33-.758-.005" opacity=".5"/><path fill="#fff" d="m10.681 7.053-5.54 7.763h7.03a2.64 2.64 0 0 0 2.646-2.645v-1.5l-2.81-3.606c-.429-.551-.947-.544-1.326-.012" opacity=".75"/><path d="M1.058 12.17v.265a3.433 3.433 0 0 0 3.44 3.44h7.937a3.433 3.433 0 0 0 3.44-3.44v-.265a3.433 3.433 0 0 1-3.44 3.44H4.498a3.433 3.433 0 0 1-3.44-3.44" opacity=".15"/><path fill="#fff" d="M1.058 4.763V4.5a3.433 3.433 0 0 1 3.44-3.44h7.937a3.433 3.433 0 0 1 3.44 3.44v.265a3.433 3.433 0 0 0-3.44-3.44H4.498a3.433 3.433 0 0 0-3.44 3.44z" opacity=".15"/></svg>