<svg xmlns="http://www.w3.org/2000/svg" xml:space="preserve" viewBox="0 0 64 64"><defs><linearGradient id="a" x1="7.937" x2="7.937" y1="15.081" y2="1.852" gradientTransform="scale(3.7796)" gradientUnits="userSpaceOnUse"><stop offset="0" stop-color="#f1efeb" style="stop-color:#bb2020;stop-opacity:1"/><stop offset="1" stop-color="#fdfcfc" style="stop-color:#dc3232;stop-opacity:1"/></linearGradient></defs><rect width="56.002" height="56.002" x="4" y="3.969" fill="url(#a)" rx="13.002" ry="13.002" style="fill:#cb2828;fill-opacity:1"/><g style="display:inline" transform="translate(4.653 -165.386)scale(.21357)"><ellipse cx="128.047" cy="924.231" rx="94.011" ry="98.285" style="fill:#fff;fill-opacity:1;fill-rule:evenodd;stroke:none;stroke-width:.85288"/><ellipse cx="209.783" cy="889.259" rx="20.764" ry="20.304" style="fill:#fff;fill-opacity:1;fill-rule:evenodd;stroke:none;stroke-width:.85288"/><ellipse cx="46.311" cy="887.726" rx="20.764" ry="20.304" style="fill:#fff;fill-opacity:1;fill-rule:evenodd;stroke:none;stroke-width:.85288"/><path d="M136.185 1022.14c43.477-2.291 77.423-9.098 90.446-13.128-21.635-6.988-18.447-35.15-10.666-50.308z" style="fill:#fff;fill-opacity:1;stroke:none;stroke-width:.85288"/><ellipse cx="252.606" cy="864.681" rx="22.69" ry="30.202" style="fill:#000;fill-opacity:1;fill-rule:evenodd;stroke:none;stroke-width:.85288" transform="rotate(10)"/><ellipse cx="-.402" cy="909.151" rx="22.589" ry="30.202" style="fill:#000;fill-opacity:1;fill-rule:evenodd;stroke:none;stroke-width:.85288" transform="rotate(-10)"/></g><path d="M3.998 45.998v1c0 7.203 5.8 13.004 13.004 13.004h29.996c7.203 0 13.004-5.8 13.004-13.004v-1c0 7.203-5.8 13.002-13.004 13.002H17.002A12.975 12.975 0 0 1 3.998 45.998" opacity=".35" style="opacity:.15"/><path fill="#fff" d="M3.998 18.004v-1C3.998 9.801 9.798 4 17.002 4h29.996c7.203 0 13.004 5.8 13.004 13.004v1c0-7.203-5.8-13.002-13.004-13.002H17.002A12.975 12.975 0 0 0 3.998 18.004" opacity=".15"/></svg>