<svg xmlns="http://www.w3.org/2000/svg" width="64" height="64"><defs><linearGradient id="b" x1="8" x2="8" y1="284" y2="300" gradientTransform="translate(17.257 -506.11)scale(1.8428)" gradientUnits="userSpaceOnUse"><stop offset="0" stop-color="#6a6a6a"/><stop offset="1" stop-color="#1e1e1e"/></linearGradient><linearGradient id="a" x1="7.937" x2="7.937" y1="15.081" y2="1.852" gradientTransform="scale(3.7796)" gradientUnits="userSpaceOnUse"><stop offset="0" stop-color="#f1efeb"/><stop offset="1" stop-color="#fdfcfc"/></linearGradient></defs><rect width="56.002" height="56.002" x="4" y="3.969" fill="url(#a)" rx="13.002" ry="13.002"/><path fill="url(#b)" d="M36.341 21.981c1.017-1.266 1.707-2.987 1.516-4.73-1.464.061-3.29 1.017-4.347 2.246-.934 1.091-1.764 2.874-1.549 4.555 1.644.122 3.328-.832 4.38-2.071m3.706 10.955c-.035-3.729 3.051-5.54 3.191-5.626-1.746-2.548-4.453-2.893-5.408-2.925-2.275-.232-4.477 1.367-5.638 1.367-1.181 0-2.965-1.34-4.887-1.301-2.476.037-4.795 1.47-6.064 3.691-2.614 4.539-.666 11.204 1.845 14.864 1.257 1.802 2.722 3.807 4.643 3.727 1.88-.071 2.58-1.193 4.85-1.193 2.248 0 2.906 1.193 4.867 1.155 2.018-.033 3.287-1.805 4.5-3.614 1.446-2.063 2.03-4.086 2.053-4.194-.045-.016-3.91-1.487-3.952-5.95z" color="#565656"/></svg>