<svg xmlns="http://www.w3.org/2000/svg" width="64" height="64"><defs><linearGradient id="e" x1="345" x2="345" y1="1173" y2="1178" gradientTransform="matrix(2.125 0 0 2.1374 -702.12 -2487.9)" gradientUnits="userSpaceOnUse"><stop offset="0" stop-color="#666"/><stop offset="1" stop-color="#333"/></linearGradient><linearGradient id="d" x1="229.53" x2="229.53" y1="-581.64" y2="-578.64" gradientTransform="matrix(2.125 0 0 2 -440.75 1181.3)" gradientUnits="userSpaceOnUse"><stop offset="0" stop-color="#63bbee"/><stop offset="1" stop-color="#aadcf7"/></linearGradient><linearGradient id="c" x1="217.29" x2="217.29" y1="-787.84" y2="-763.84" gradientTransform="matrix(2.1683 0 0 2.3233 -438.87 1830.6)" gradientUnits="userSpaceOnUse"><stop offset="0" stop-color="#0369a3"/><stop offset="1" stop-color="#047fc6"/></linearGradient><linearGradient id="a" x1="7.937" x2="7.937" y1="15.417" y2="1.058" gradientTransform="scale(3.7796)" gradientUnits="userSpaceOnUse"><stop offset="0" stop-color="#034ca3"/><stop offset="1" stop-color="#06d6fa"/></linearGradient><linearGradient id="b" x1="30" x2="30" y1="54" y2="9" gradientUnits="userSpaceOnUse"><stop offset="0" stop-color="#fff"/><stop offset="1" stop-color="#f5f5f5"/></linearGradient><linearGradient id="f" x1="45" x2="60.076" y1="19" y2="3.924" gradientTransform="translate(3.429 3.456)scale(.89283)" gradientUnits="userSpaceOnUse"><stop offset="0" stop-color="#fff"/><stop offset="1" stop-color="#ffefcc"/></linearGradient></defs><rect width="56.002" height="56.002" x="4" y="3.969" fill="url(#a)" rx="13.002" ry="13.002"/><path fill="#fff" d="M17.002 8.97c-4.432 0-8 3.569-8 8v30c0 4.432 3.568 8 8 8H47c4.432 0 8-3.568 8-8v-30c0-4.432-3.568-8-8-8zm0 1.03H45v3H12.969v1H45v3H13.568v1H45v35.26h1V18h3v32.193h1V18h3.97v28.969a6.956 6.956 0 0 1-6.97 6.97H17.002a6.956 6.956 0 0 1-6.97-6.97V16.971a6.956 6.956 0 0 1 6.97-6.97zM46 10h1a7 7 0 0 1 2 .293V13h-3zm4 .682A6.96 6.96 0 0 1 52.732 13H50zM46 14h3v3h-3zm4 0h3.303a7 7 0 0 1 .668 2.97V17H50z" opacity=".25"/><path d="M17.002 6A10.947 10.947 0 0 0 6.031 16.971v29.998A10.947 10.947 0 0 0 17.002 57.94H47a10.947 10.947 0 0 0 10.971-10.971V28.922C57.971 22 41.443 6 34.785 6H18.074z" opacity=".15"/><path fill="url(#b)" d="M17 7C11.46 7 7 11.46 7 17v30a9.976 9.976 0 0 0 8.969 9.947c.58-.02 1.133-.037 1.449-.006h.002q.586.06 1.19.059H47c5.54 0 10-4.46 10-10V29.348C57 23.991 40.035 7 34.678 7H18.61z"/><g color="#000"><path fill="url(#c)" d="M16 17v3h11v-3zm14 0v14h19v-8.462c-3-3-3.777-2.538-8.277-5.538zm-14 5v3.048L27 25v-3.048zm0 5v3.048L27 30v-3.048zm0 6v3l33-.048v-3zm0 5v3l33-.048v-3zm0 5v3h24v-3z" transform="translate(0 1)"/><path fill="url(#d)" d="M31 18h10.633c3.5 0 6.367 1.843 6.367 3.843V30H31z" transform="translate(0 1)"/><path fill="url(#e)" d="M40.917 27.212 36 21l-5 7.606V30h17v-1.394l-3.541-4.182z" transform="translate(0 1)"/></g><path fill="url(#f)" d="M34.678 7.028c3.571.893 4.464 6.25 5.357 9.82.866 3.466 2.838 5.844 8.036 7.144 3.57.892 7.142.571 8.928 5.357 0-.022-.004-.044-.004-.065C56.898 23.038 42.17 8.09 35.381 7.059a10 10 0 0 0-.702-.031z"/></svg>