<svg xmlns="http://www.w3.org/2000/svg" viewBox="0 0 64 64"><rect width="56.002" height="56.002" x="4" y="3.969" fill="#38b073" rx="13.002" ry="13.002"/><path fill="#fff" d="M32 8a23.996 24 0 1 0 0 48 23.996 24 0 1 0 0-48"/><path fill="#14ce9a" d="M36.144 16.546A16 16 0 0 1 47.457 27.86l-15.454 4.141z"/><g fill="#333"><path d="m32.276 31.505 17.002-4.556.205.775-17.002 4.556z"/><path d="M20.219 25.201a.8.8 0 0 0 .293 1.095l.05.025 11.028 6.367a.8.8 0 0 0 1.086-.298.8.8 0 0 0-.293-1.095l-.05-.026-11.018-6.361-.008-.005a.8.8 0 0 0-1.087.298z"/><g stroke-linecap="round" stroke-linejoin="round" stroke-width="4.125"><rect width="1" height="4" x="31.5" y="10" rx=".532" ry=".532"/><rect width="1" height="4" x="31.5" y="50" rx=".532" ry=".532"/><rect width="1" height="4" x="43.213" y="-10.287" rx=".532" ry=".532" transform="rotate(30)"/><rect width="1" height="4" x="43.213" y="29.713" rx=".532" ry=".532" transform="rotate(30)"/><rect width="1" height="4" x="43.213" y="-33.713" rx=".532" ry=".532" transform="rotate(60)"/><rect width="1" height="4" x="43.213" y="6.287" rx=".532" ry=".532" transform="rotate(60)"/><rect width="1" height="4" x="31.5" y="-54" rx=".532" ry=".532" transform="rotate(90)"/><rect width="1" height="4" x="31.5" y="-14" rx=".532" ry=".532" transform="rotate(90)"/><rect width="1" height="4" x="11.213" y="-65.713" rx=".532" ry=".532" transform="rotate(120)"/><rect width="1" height="4" x="11.213" y="-25.713" rx=".532" ry=".532" transform="rotate(120)"/><rect width="1" height="4" x="-12.213" y="-65.713" rx=".532" ry=".532" transform="rotate(150)"/><rect width="1" height="4" x="-12.213" y="-25.713" rx=".532" ry=".532" transform="rotate(150)"/></g></g><circle cx="32" cy="32" r="3" fill="#333"/><circle cx="32" cy="32" r="2" fill="#14ce9a"/><path d="M3.998 45.998v1c0 7.203 5.8 13.004 13.004 13.004h29.996c7.203 0 13.004-5.8 13.004-13.004v-1c0 7.203-5.8 13.002-13.004 13.002H17.002A12.975 12.975 0 0 1 3.998 45.998" opacity=".15"/><path fill="#fff" d="M3.998 18.004v-1C3.998 9.801 9.798 4 17.002 4h29.996c7.203 0 13.004 5.8 13.004 13.004v1c0-7.203-5.8-13.002-13.004-13.002H17.002A12.975 12.975 0 0 0 3.998 18.004" opacity=".15"/></svg>