<svg xmlns="http://www.w3.org/2000/svg" xmlns:xlink="http://www.w3.org/1999/xlink" width="64" height="64"><defs><linearGradient id="d"><stop offset="0" style="stop-color:#fff;stop-opacity:0"/><stop offset=".402" style="stop-color:#fff;stop-opacity:1"/><stop offset=".503" style="stop-color:#fff;stop-opacity:1"/><stop offset="1" style="stop-color:#fff;stop-opacity:0"/></linearGradient><linearGradient id="c"><stop offset="0" style="stop-color:#3584e4;stop-opacity:1"/><stop offset="1" style="stop-color:#1a69c5;stop-opacity:1"/></linearGradient><linearGradient id="b"><stop offset="0" style="stop-color:#ed333b;stop-opacity:1"/><stop offset="1" style="stop-color:#a51d2d;stop-opacity:1"/></linearGradient><linearGradient id="a"><stop offset="0" style="stop-color:#a7a7a7;stop-opacity:1"/><stop offset="1" style="stop-color:#fff;stop-opacity:1"/></linearGradient><linearGradient id="e" x1="33.311" x2="33.311" y1="5.543" y2="58.713" gradientTransform="translate(-.001 .03)" gradientUnits="userSpaceOnUse"><stop offset="0" stop-color="#fefefe" style="stop-color:#ff943c;stop-opacity:1"/><stop offset="1" stop-color="#efeddb" style="stop-color:#ff7605;stop-opacity:1"/></linearGradient><linearGradient id="f" x1="31.986" x2="32.001" y1="27.253" y2="59.971" gradientTransform="translate(-.001 .03)" gradientUnits="userSpaceOnUse"><stop offset="0" stop-color="#fefefe" style="stop-color:#c64600;stop-opacity:1"/><stop offset="1" stop-color="#efeddb" style="stop-color:#c64600;stop-opacity:1"/></linearGradient><linearGradient xlink:href="#a" id="g" x1="28.762" x2="29.751" y1="44.307" y2="54.663" gradientTransform="translate(.995 6.092)" gradientUnits="userSpaceOnUse"/><linearGradient xlink:href="#b" id="i" x1="43.69" x2="43.69" y1="38.376" y2="60.319" gradientTransform="matrix(.84688 0 0 1.00552 11.167 -.187)" gradientUnits="userSpaceOnUse"/><linearGradient xlink:href="#c" id="j" x1="19.828" x2="19.828" y1="55.709" y2="62.209" gradientTransform="matrix(1 0 0 .83216 0 8.682)" gradientUnits="userSpaceOnUse"/><linearGradient xlink:href="#d" id="h" x1="56.137" x2="48.909" y1="48.598" y2="48.646" gradientTransform="translate(.995 6.092)" gradientUnits="userSpaceOnUse"/></defs><rect width="56.002" height="56.002" x="3.999" y="3.999" fill="url(#e)" rx="13.002" ry="13.002" style="display:inline;fill:url(#e)"/><path fill="#c0bfbc" d="M5.694 43.184c-.59 0-1.16.09-1.695.258v.365a5.3 5.3 0 0 1 1.695-.277l54.307.057v-.343zm.737 11.387q.126.176.26.348l50.577.053q.133-.17.258-.345zm-.737-22.773c-.59 0-1.16.09-1.695.258v.365a5.3 5.3 0 0 1 1.695-.277l54.307.06v-.346zm0-11.387c-.59 0-1.16.09-1.695.258v.365a5.3 5.3 0 0 1 1.695-.277l54.307.06v-.345zM6.733 9.027q-.13.17-.255.342l51.088.057q-.126-.175-.258-.346z" color="#000" style="-inkscape-stroke:none;fill:#e26300;fill-opacity:.26940686"/><path d="M59.416 13.125A13 13 0 0 1 59.998 17v20.256a12.97 12.97 0 0 1-13 13.002H4.408a12.974 12.974 0 0 0 12.594 9.744h29.996c7.203 0 13.004-5.8 13.004-13.004V17.002c0-1.352-.207-2.653-.586-3.877" style="display:inline;fill:url(#f)"/><path d="M58.502 45.963c-2.649 3.48-6.793 5.764-11.504 5.764H6.688c1.814 3.943 5.65 6.744 10.314 6.744h29.996a11.45 11.45 0 0 0 11.504-11.504z" style="display:inline;fill:url(#g)"/><path d="M58.502 45.963c-2.649 3.48-6.793 5.764-11.504 5.764H6.688c1.814 3.943 5.65 6.744 10.314 6.744h29.996a11.45 11.45 0 0 0 11.504-11.504z" style="display:inline;fill:url(#h)"/><path d="M46 3.969V59.97h.998c1.034 0 2.04-.12 3.002-.346V4.315a13 13 0 0 0-3.002-.346z" style="opacity:1;fill:url(#i);fill-opacity:1;stroke:none;stroke-width:0;stroke-dasharray:none"/><path d="M16.578 51.729v12.033l3.25-3.328 3.25 3.328V51.73Z" style="opacity:1;fill:url(#j);stroke:none;stroke-width:0;stroke-dasharray:none"/></svg>