<svg xmlns="http://www.w3.org/2000/svg" viewBox="0 0 64 64"><rect width="64" height="64" fill="none" rx="0" ry="0" style="paint-order:stroke fill markers"/><rect width="56.002" height="56.002" x="4" y="3.969" fill="#9764c8" rx="13.002" ry="13.002"/><circle cx="32.02" cy="32.044" r="30.001" fill="none"/><path fill="#fff" d="m25.544 22.11-1.546 1.197 2.897 3.724 1.538-1.21zm12.162 14.21-1.386 1.386 3.406 3.406 1.386-1.386zm-9.469 1.728-1.093 2.463 1.789.792 1.082-2.438z" opacity=".35"/><path fill="#f1edfc" d="M42.431 15.043c-2.148.018-3.913 1.765-3.913 3.913 0 .754.225 1.456.6 2.056l-4.166 5.204a6.44 6.44 0 0 0-2.955-.738 6.52 6.52 0 0 0-6.389 5.217h-8.31a2.58 2.58 0 0 0-2.257-1.305c-1.416.021-2.609 1.193-2.609 2.609a2.609 2.609 0 0 0 4.865 1.304h8.311A6.521 6.521 0 0 0 38.518 32c0-1.586-.59-3.02-1.53-4.15l4.169-5.21c.402.14.826.23 1.274.23a3.913 3.913 0 0 0 3.913-3.913c0-2.161-1.764-3.931-3.913-3.913zm-19.564 2.609c-1.428.017-2.609 1.18-2.609 2.608s1.168 2.609 2.609 2.609 2.608-1.167 2.608-2.609-1.18-2.625-2.608-2.608m19.564 0a1.304 1.304 0 1 1 0 2.608 1.304 1.304 0 0 1 0-2.608M31.997 29.39a2.609 2.609 0 1 1 0 5.218 2.609 2.609 0 0 1 0-5.218M15.04 30.695a1.304 1.304 0 1 1 0 2.608 1.304 1.304 0 0 1 0-2.608m28.042 9.13a3.26 3.26 0 1 0 0 6.521 3.26 3.26 0 0 0 0-6.521M26.78 41.129c-1.428.017-2.609 1.18-2.609 2.609s1.167 2.608 2.609 2.608 2.608-1.167 2.608-2.608-1.18-2.626-2.608-2.609"/><path d="M3.998 45.998v1c0 7.203 5.8 13.004 13.004 13.004h29.996c7.203 0 13.004-5.8 13.004-13.004v-1c0 7.203-5.8 13.002-13.004 13.002H17.002A12.975 12.975 0 0 1 3.998 45.998" opacity=".15"/><path fill="#fff" d="M3.998 18.004v-1C3.998 9.801 9.798 4 17.002 4h29.996c7.203 0 13.004 5.8 13.004 13.004v1c0-7.203-5.8-13.002-13.004-13.002H17.002A12.975 12.975 0 0 0 3.998 18.004" opacity=".15"/></svg>