<svg xmlns="http://www.w3.org/2000/svg" viewBox="0 0 16.933 16.933"><path fill="#a5afb2" d="M4.498 1.05a3.433 3.433 0 0 0-3.44 3.44v7.937a3.433 3.433 0 0 0 3.44 3.44h7.937a3.433 3.433 0 0 0 3.44-3.44V4.49a3.433 3.433 0 0 0-3.44-3.44z"/><rect width="13.229" height="13.229" x="1.852" y="1.852" fill="#f0f3f6" rx="2.646" ry="2.646"/><path d="M4.762 1.852v.794h-.926v-.71l-.132.036v.674h-.926v-.16q-.068.057-.132.12v.04h-.04a3 3 0 0 0-.12.132h.16v.926h-.674l-.037.132h.71v.926h-.793v.133h.794v.926h-.794v.132h.794v.926h-.794v.132h.794v.926h-.794v.133h.794v.926h-.794v.132h.794v.926h-.794v.132h.794v.926h-.794v.133h.794v.926h-.794v.132h.794v.926h-.674q.022.068.046.132h.628v.926h-.04q.082.084.172.161v-.028h.926v.541q.066.02.132.037v-.578h.926v.661h.133v-.661h.926v.661h.132v-.661h.926v.661h.132v-.661h.926v.661h.133v-.661h.926v.661h.132v-.661h.926v.661h.132v-.661h.926v.661h.133v-.661h.926v.661h.132v-.661h.926v.541q.068-.021.132-.046v-.495h.827q.123-.11.232-.232v-.827h.495q.024-.064.046-.132h-.541v-.926h.661v-.132h-.661v-.926h.661v-.133h-.661v-.926h.661v-.132h-.661v-.926h.661v-.132h-.661V8.07h.661v-.133h-.661v-.926h.661V6.88h-.661v-.926h.661v-.132h-.661v-.926h.661v-.133h-.661v-.926h.578l-.037-.132h-.541v-.926h.028a3 3 0 0 0-.16-.172v.04h-.927v-.628l-.132-.046v.674h-.926v-.794h-.132v.794h-.926v-.794h-.133v.794h-.926v-.794h-.132v.794h-.926v-.794h-.132v.794H8.07v-.794h-.133v.794h-.926v-.794H6.88v.794h-.926v-.794h-.132v.794h-.926v-.794h-.133zm-1.984.926h.926v.926h-.926zm1.058 0h.926v.926h-.926zm1.059 0h.926v.926h-.926zm1.058 0h.926v.926h-.926zm1.058 0h.926v.926h-.926zm1.059 0h.926v.926H8.07zm1.058 0h.926v.926h-.926zm1.058 0h.926v.926h-.926zm1.059 0h.926v.926h-.926zm1.058 0h.926v.926h-.926zm1.058 0h.926v.926h-.926zM2.778 3.836h.926v.926h-.926zm1.058 0h.926v.926h-.926zm1.059 0h.926v.926h-.926zm1.058 0h.926v.926h-.926zm1.058 0h.926v.926h-.926zm1.059 0h.926v.926H8.07zm1.058 0h.926v.926h-.926zm1.058 0h.926v.926h-.926zm1.059 0h.926v.926h-.926zm1.058 0h.926v.926h-.926zm1.058 0h.926v.926h-.926zM2.778 4.895h.926v.926h-.926zm1.058 0h.926v.926h-.926zm1.059 0h.926v.926h-.926zm1.058 0h.926v.926h-.926zm1.058 0h.926v.926h-.926zm1.059 0h.926v.926H8.07zm1.058 0h.926v.926h-.926zm1.058 0h.926v.926h-.926zm1.059 0h.926v.926h-.926zm1.058 0h.926v.926h-.926zm1.058 0h.926v.926h-.926zM2.778 5.953h.926v.926h-.926zm1.058 0h.926v.926h-.926zm1.059 0h.926v.926h-.926zm1.058 0h.926v.926h-.926zm1.058 0h.926v.926h-.926zm1.059 0h.926v.926H8.07zm1.058 0h.926v.926h-.926zm1.058 0h.926v.926h-.926zm1.059 0h.926v.926h-.926zm1.058 0h.926v.926h-.926zm1.058 0h.926v.926h-.926zM2.778 7.011h.926v.926h-.926zm1.058 0h.926v.926h-.926zm1.059 0h.926v.926h-.926zm1.058 0h.926v.926h-.926zm1.058 0h.926v.926h-.926zm1.059 0h.926v.926H8.07zm1.058 0h.926v.926h-.926zm1.058 0h.926v.926h-.926zm1.059 0h.926v.926h-.926zm1.058 0h.926v.926h-.926zm1.058 0h.926v.926h-.926zM2.778 8.07h.926v.926h-.926zm1.058 0h.926v.926h-.926zm1.059 0h.926v.926h-.926zm1.058 0h.926v.926h-.926zm1.058 0h.926v.926h-.926zm1.059 0h.926v.926H8.07zm1.058 0h.926v.926h-.926zm1.058 0h.926v.926h-.926zm1.059 0h.926v.926h-.926zm1.058 0h.926v.926h-.926zm1.058 0h.926v.926h-.926zM2.778 9.128h.926v.926h-.926zm1.058 0h.926v.926h-.926zm1.059 0h.926v.926h-.926zm1.058 0h.926v.926h-.926zm1.058 0h.926v.926h-.926zm1.059 0h.926v.926H8.07zm1.058 0h.926v.926h-.926zm1.058 0h.926v.926h-.926zm1.059 0h.926v.926h-.926zm1.058 0h.926v.926h-.926zm1.058 0h.926v.926h-.926zM2.778 10.186h.926v.926h-.926zm1.058 0h.926v.926h-.926zm1.059 0h.926v.926h-.926zm1.058 0h.926v.926h-.926zm1.058 0h.926v.926h-.926zm1.059 0h.926v.926H8.07zm1.058 0h.926v.926h-.926zm1.058 0h.926v.926h-.926zm1.059 0h.926v.926h-.926zm1.058 0h.926v.926h-.926zm1.058 0h.926v.926h-.926zM2.778 11.245h.926v.926h-.926zm1.058 0h.926v.926h-.926zm1.059 0h.926v.926h-.926zm1.058 0h.926v.926h-.926zm1.058 0h.926v.926h-.926zm1.059 0h.926v.926H8.07zm1.058 0h.926v.926h-.926zm1.058 0h.926v.926h-.926zm1.059 0h.926v.926h-.926zm1.058 0h.926v.926h-.926zm1.058 0h.926v.926h-.926zM2.778 12.303h.926v.926h-.926zm1.058 0h.926v.926h-.926zm1.059 0h.926v.926h-.926zm1.058 0h.926v.926h-.926zm1.058 0h.926v.926h-.926zm1.059 0h.926v.926H8.07zm1.058 0h.926v.926h-.926zm1.058 0h.926v.926h-.926zm1.059 0h.926v.926h-.926zm1.058 0h.926v.926h-.926zm1.058 0h.926v.926h-.926zM2.778 13.361h.926v.926h-.926zm1.058 0h.926v.926h-.926zm1.059 0h.926v.926h-.926zm1.058 0h.926v.926h-.926zm1.058 0h.926v.926h-.926zm1.059 0h.926v.926H8.07zm1.058 0h.926v.926h-.926zm1.058 0h.926v.926h-.926zm1.059 0h.926v.926h-.926zm1.058 0h.926v.926h-.926zm1.058 0h.926v.926h-.926z" opacity=".05"/><path fill="#a0f4ff" d="M4.65 1.852A2.79 2.79 0 0 0 1.853 4.65v3.816h13.23V4.65a2.79 2.79 0 0 0-2.8-2.798z" opacity=".35"/><path d="M1.058 12.17v.265a3.433 3.433 0 0 0 3.44 3.44h7.937a3.433 3.433 0 0 0 3.44-3.44v-.265a3.433 3.433 0 0 1-3.44 3.44H4.498a3.433 3.433 0 0 1-3.44-3.44" opacity=".15"/><path fill="#fff" d="M1.058 4.763V4.5a3.433 3.433 0 0 1 3.44-3.44h7.937a3.433 3.433 0 0 1 3.44 3.44v.265a3.433 3.433 0 0 0-3.44-3.44H4.498a3.433 3.433 0 0 0-3.44 3.44z" opacity=".15"/></svg>