<svg xmlns="http://www.w3.org/2000/svg" viewBox="0 0 64 64"><rect width="56.002" height="56.002" x="4" y="3.969" fill="#f2f2f2" rx="13.002" ry="13.002"/><path d="M3.998 45.998v1c0 7.203 5.8 13.004 13.004 13.004h29.996c7.203 0 13.004-5.8 13.004-13.004v-1c0 7.203-5.8 13.002-13.004 13.002H17.002A12.975 12.975 0 0 1 3.998 45.998" opacity=".1"/><path fill="#fff" d="M3.998 18.004v-1C3.998 9.801 9.798 4 17.002 4h29.996c7.203 0 13.004 5.8 13.004 13.004v1c0-7.203-5.8-13.002-13.004-13.002H17.002A12.975 12.975 0 0 0 3.998 18.004" opacity=".5"/><rect width="64" height="64" fill="none" rx="0" ry="0" style="paint-order:stroke fill markers"/><path fill="#00b3ff" d="M32.707 12c-.25 0-.5.065-.723.195-.439.253-.699.7-.699 1.205v2.204c-7.187.305-13.275 5.17-15.135 12.119A4.293 4.293 0 0 0 12 32.002a4.286 4.286 0 0 0 4.15 4.277 16.42 16.42 0 0 0 6.399 9.16l.826-1.17a14.94 14.94 0 0 1-5.795-8.183 4.29 4.29 0 0 0 2.99-4.084 4.29 4.29 0 0 0-2.99-4.086c1.748-6.227 7.232-10.58 13.705-10.885v2.143c0 .505.26.954.699 1.207.223.126.47.193.723.193.245 0 .497-.067.72-.193l3.96-2.307a2.04 2.04 0 0 0 1.04-1.787c0-.744-.386-1.413-1.04-1.785l-3.96-2.307a1.43 1.43 0 0 0-.72-.195m0 1.43 3.965 2.306c.297.171.328.44.328.551s-.03.38-.328.55l-3.96 2.3zm8.742 5.135-.826 1.168a14.94 14.94 0 0 1 5.797 8.183c-1.734.55-2.992 2.172-2.992 4.084s1.259 3.536 3 4.086c-1.756 6.227-7.24 10.58-13.713 10.885v-2.143c0-.506-.262-.952-.701-1.205a1.43 1.43 0 0 0-1.444 0l-3.957 2.307a2.03 2.03 0 0 0-1.043 1.785c0 .744.388 1.413 1.043 1.785l3.957 2.307c.223.126.477.193.723.193.253 0 .497-.067.72-.193.44-.253.702-.7.702-1.205v-2.203c7.187-.305 13.273-5.17 15.133-12.12A4.294 4.294 0 0 0 52 32a4.29 4.29 0 0 0-4.152-4.277 16.4 16.4 0 0 0-6.399-9.158M32 24.145c-4.33 0-7.857 3.527-7.857 7.857S27.67 39.858 32 39.858s7.857-3.526 7.857-7.856S36.33 24.145 32 24.145m0 1.427c3.542 0 6.428 2.889 6.428 6.43S35.542 38.43 32 38.43s-6.428-2.886-6.428-6.428 2.886-6.43 6.428-6.43m-15.715 3.573a2.857 2.857 0 1 1 .001 5.712 2.857 2.857 0 0 1-.001-5.712m15.715 0a2.857 2.857 0 1 0-.001 5.712A2.857 2.857 0 0 0 32 29.145m15.715 0a2.857 2.857 0 1 1 .001 5.712 2.857 2.857 0 0 1-.001-5.712m-16.43 15.684v5.736l-3.957-2.299a.62.62 0 0 1-.328-.55c0-.11.03-.38.328-.551z"/></svg>