<svg xmlns="http://www.w3.org/2000/svg" viewBox="0 0 64 64"><defs><linearGradient id="a" x1="-284.29" x2="-284.29" y1="258.56" y2="639.42" gradientTransform="translate(72.265 -32.807)scale(.14232)" gradientUnits="userSpaceOnUse"><stop offset="0" stop-color="#3465a4"/><stop offset="1" stop-color="#204a87"/></linearGradient></defs><rect width="56.002" height="56.002" x="4.002" y="3.968" fill="#eeeeec" rx="13.002" ry="13.002"/><path fill="url(#a)" d="M14.383 8.506c-3.274.028-6.11.41-8.287 1.385a12.96 12.96 0 0 0-2.094 7.08v28.72l.01 1.467A12.967 12.967 0 0 0 17.004 59.97h29.998a12.974 12.974 0 0 0 13.002-13.002V17.16l-.002-.242a12.95 12.95 0 0 0-2.375-7.446c-11.671 3.977-30.635-1.075-43.244-.968z" style="fill:#2a5896;fill-opacity:1"/><path fill="#eeeeec" d="M23.017 56.61h-.806l-.322-.52-.321-.521.07-2.47.072-2.471-.347-1.549-.347-1.548 1.395-1.395 1.395-1.395 1.002-2.07 1.001-2.069 1.27.488-.251-.408-.252-.407.45-.279.45-.278v-1.06c0-.583-.33-2.217-.735-3.63s-.753-3.218-.776-4.01l-.04-1.44h-.284c-.156 0-.421.546-.589 1.214s-.51 1.34-.76 1.495l-.454.281-3.08-.945.204-.912c.112-.501.653-2.706 1.204-4.9l1-3.989 1.075-1 1.075-.999.121-1.606.91.104c.5.057 1.089.12 1.31.14l.4.038-1.524 1.684.582.337.583.337-.659-.728.891-.624.891-.624-.226-.366-.227-.366 1.324-.509v.859h1.382l-.27-.438-.271-.438.687.264.688.264.05-.38c.028-.21.116-.928.196-1.598l.144-1.219-1.192-.647-1.192-.647.47-.018c.257-.01.85.262 1.317.603l.85.62 2.722-.441.556.67c.305.368.653 1.205.771 1.86l.217 1.192-1.142 1.383.562.19c.309.103.859.486 1.223.85l.66.66-.265.43c-.146.236-.397 1.345-.558 2.464l-.293 2.035-.801.491-.802.491-.576-.775c-.318-.427-.705-.776-.86-.776-.157 0-.284.3-.284.665v.665h1.33v.457c0 .251-.304.573-.673.715l-.673.258.119.725.118.725-.554-.11-.554-.111.111.554.111.554-.665-.132-.664-.133 1.404 1.24c.772.682 2.191 2.297 3.154 3.588l1.75 2.347.284 2.418.285 2.417.708 1.772.71 1.771h.828c.456 0 1.63-.32 2.61-.712l1.781-.713.689.265.688.264-.237-.384-.237-.384 1.377-.276c.758-.152 2.067-.275 2.91-.275h1.533l-.367 1.107-4.039 1.19c-2.221.655-4.476 1.424-5.011 1.71s-1.533.682-2.217.878l-1.245.357-.405-.516c-.223-.284-.538-1.07-.7-1.747s-.787-2.31-1.39-3.628l-1.097-2.397v-2.227l-1.44-1.075c-.792-.591-1.91-1.318-2.485-1.615l-1.044-.54-.507.55-.506.549.535-.3.534-.302-.276 2.341-.277 2.341-1.854 1.803-1.854 1.803-1.213 2.07-1.214 2.07.218 2.775c.12 1.525.36 3.125.532 3.555l.315.781-.547.659-.547.66zm12.88-32.793h.443v-2.268l.512.316.511.316-.32-.519-.321-.518-.412.255-.413.255v-.47c0-.258-.187-.469-.417-.469h-.416l.144 1.219c.08.67.168 1.368.195 1.55.028.183.25.333.494.333" style="fill:#fff"/><path d="M3.998 45.998v1c0 7.203 5.8 13.004 13.004 13.004h29.996c7.203 0 13.004-5.8 13.004-13.004v-1c0 7.203-5.8 13.002-13.004 13.002H17.002A12.975 12.975 0 0 1 3.998 45.998" opacity=".15"/><path fill="#fff" d="M3.998 18.004v-1C3.998 9.801 9.798 4 17.002 4h29.996c7.203 0 13.004 5.8 13.004 13.004v1c0-7.203-5.8-13.002-13.004-13.002H17.002A12.975 12.975 0 0 0 3.998 18.004" opacity=".15" style="opacity:.5"/></svg>