<svg xmlns="http://www.w3.org/2000/svg" viewBox="0 0 64 64"><rect width="56.002" height="56.002" x="4" y="3.969" fill="#ccc" rx="13.002" ry="13.002"/><path d="M3.998 45.998v1c0 7.203 5.8 13.004 13.004 13.004h29.996c7.203 0 13.004-5.8 13.004-13.004v-1c0 7.203-5.8 13.002-13.004 13.002H17.002A12.975 12.975 0 0 1 3.998 45.998" opacity=".12"/><path d="M32 3.969v15.03h28.002v-2.028A12.974 12.974 0 0 0 47 3.969z" opacity=".5"/><path fill="#fff" d="M3.998 18.004v-1C3.998 9.801 9.798 4 17.002 4h29.996c7.203 0 13.004 5.8 13.004 13.004v1c0-7.203-5.8-13.002-13.004-13.002H17.002A12.975 12.975 0 0 0 3.998 18.004" opacity=".2"/><path fill-rule="evenodd" d="M4 18h56v1H4z" opacity=".15" style="paint-order:stroke fill markers"/><path fill="#fff" fill-rule="evenodd" d="M8 21c-1.108 0-2 .892-2 2v23c0 6.094 4.906 11 11 11h30c6.094 0 11-4.906 11-11V23c0-1.108-.892-2-2-2z" opacity=".5" style="paint-order:stroke fill markers"/><circle cx="13" cy="12" r="2" fill-rule="evenodd" opacity=".5" style="paint-order:stroke fill markers"/><circle cx="51" cy="12" r="2" fill="#fff" fill-rule="evenodd" opacity=".75" style="paint-order:stroke fill markers"/></svg>