<svg xmlns="http://www.w3.org/2000/svg" xmlns:xlink="http://www.w3.org/1999/xlink" image-rendering="optimizeSpeed" viewBox="0 0 64 64"><defs><linearGradient xlink:href="#a" id="c" x2="0" y1="538.8" y2="534.8" gradientTransform="translate(-371.07 -499.41)" gradientUnits="userSpaceOnUse"/><linearGradient id="a"><stop offset="0" stop-color="#814b13"/><stop offset="1" stop-color="#9d5b17"/></linearGradient><linearGradient xlink:href="#a" id="b" x2="0" y1="528.8" y2="524.8" gradientTransform="translate(-371.07 -499.41)" gradientUnits="userSpaceOnUse"/></defs><rect width="56.002" height="56.002" x="4" y="3.969" fill="#f2f2f2" rx="13.002" ry="13.002"/><path d="M3.998 45.998v1c0 7.203 5.8 13.004 13.004 13.004h29.996c7.203 0 13.004-5.8 13.004-13.004v-1c0 7.203-5.8 13.002-13.004 13.002H17.002A12.975 12.975 0 0 1 3.998 45.998" opacity=".1"/><path fill="#fff" d="M3.998 18.004v-1C3.998 9.801 9.798 4 17.002 4h29.996c7.203 0 13.004 5.8 13.004 13.004v1c0-7.203-5.8-13.002-13.004-13.002H17.002A12.975 12.975 0 0 0 3.998 18.004" opacity=".5"/><g transform="translate(-10.139 -14.265)scale(1.4286)"><rect width="28" height="28" x="15.497" y="18.385" fill="#ffe490" rx="14" ry="14"/><circle cx="24.497" cy="27.385" r="2" fill="url(#b)"/><circle cx="34.497" cy="27.385" r="2" fill="url(#b)"/><path fill="url(#c)" d="M24.171 35.692a6.156 7.388 0 0 0 5.327 3.694 6.156 7.388 0 0 0 5.321-3.694h-.748a6.156 7.388 0 0 1-4.573 2.462 6.156 7.388 0 0 1-4.577-2.462z"/></g></svg>