<svg xmlns="http://www.w3.org/2000/svg" viewBox="0 0 16.933 16.933"><defs><radialGradient id="a" cx="1.852" cy="0" r="7.409" gradientTransform="rotate(138.24 1.713 .945)scale(1.0885 1.34055)" gradientUnits="userSpaceOnUse"><stop offset="0" stop-color="#ff8100"/><stop offset="1" stop-color="#f69429" stop-opacity="0"/></radialGradient><radialGradient id="b" cx="1.852" cy="0" r="7.409" gradientTransform="rotate(-41.634 27.99 -9.973)scale(.80967 1.29012)" gradientUnits="userSpaceOnUse"><stop offset="0" stop-color="#18bdd3"/><stop offset="1" stop-color="#2da8b8" stop-opacity="0"/></radialGradient><radialGradient id="c" cx="1.852" cy="0" r="7.409" gradientTransform="matrix(.83599 .80811 -1.0357 1.0714 .304 13.32)" gradientUnits="userSpaceOnUse"><stop offset="0" stop-color="#dcff00"/><stop offset="1" stop-color="#c4dc2b" stop-opacity="0"/></radialGradient><radialGradient id="d" cx="8.466" cy="1.058" r="7.409" gradientTransform="matrix(-1.3928 0 0 -1.2499 20.259 2.381)" gradientUnits="userSpaceOnUse"><stop offset="0" stop-color="#ff3386"/><stop offset="1" stop-color="#f566a0" stop-opacity="0"/></radialGradient><radialGradient id="e" cx="1.852" cy="0" r="7.409" gradientTransform="rotate(228.575 8.98 -1.91)scale(1.03813 1.61931)" gradientUnits="userSpaceOnUse"><stop offset="0" stop-color="#ff29b0"/><stop offset="1" stop-color="#d462aa" stop-opacity="0"/></radialGradient><radialGradient id="f" cx="8.466" cy="1.058" r="7.409" gradientTransform="matrix(0 1 -.99996 0 2.117 0)" gradientUnits="userSpaceOnUse"><stop offset="0" stop-color="#ffdb29"/><stop offset="1" stop-color="#f9da3e" stop-opacity="0"/></radialGradient><radialGradient id="g" cx="8.466" cy="1.058" r="7.409" gradientTransform="matrix(1 0 0 .99996 0 14.816)" gradientUnits="userSpaceOnUse"><stop offset="0" stop-color="#53eb47"/><stop offset="1" stop-color="#72cb6b" stop-opacity="0"/></radialGradient><radialGradient id="h" cx="8.466" cy="1.058" r="7.409" gradientTransform="matrix(0 -1.3214 1.1071 0 14.703 19.654)" gradientUnits="userSpaceOnUse"><stop offset="0" stop-color="#34d7f4"/><stop offset="1" stop-color="#56c7d9" stop-opacity="0"/></radialGradient><linearGradient id="i" x1="11.641" x2="11.641" y1="16.404" y2="10.583" gradientTransform="translate(.945 1.701)scale(.88889)" gradientUnits="userSpaceOnUse"><stop offset="0" stop-color="#030707"/><stop offset="1" stop-color="#283e48"/></linearGradient></defs><path fill="#fff" d="M15.875 4.498a3.43 3.43 0 0 0-3.44-3.44H4.498a3.43 3.43 0 0 0-3.44 3.44v7.937a3.43 3.43 0 0 0 3.44 3.44h7.937a3.43 3.43 0 0 0 3.44-3.44z"/><path fill="url(#a)" d="M1.058 12.435a3.43 3.43 0 0 0 3.44 3.44h7.937a3.43 3.43 0 0 0 3.44-3.44V4.498a3.43 3.43 0 0 0-3.44-3.44H4.498a3.43 3.43 0 0 0-3.44 3.44z"/><path fill="url(#b)" d="M15.875 4.498a3.43 3.43 0 0 0-3.44-3.44H4.498a3.43 3.43 0 0 0-3.44 3.44v7.937a3.43 3.43 0 0 0 3.44 3.44h7.937a3.43 3.43 0 0 0 3.44-3.44z"/><path fill="url(#c)" d="M12.435 15.875a3.43 3.43 0 0 0 3.44-3.44V4.498a3.43 3.43 0 0 0-3.44-3.44H4.498a3.43 3.43 0 0 0-3.44 3.44v7.937a3.43 3.43 0 0 0 3.44 3.44z"/><path fill="url(#d)" d="M4.498 1.058a3.43 3.43 0 0 0-3.44 3.44v7.937a3.43 3.43 0 0 0 3.44 3.44h7.937a3.43 3.43 0 0 0 3.44-3.44V4.498a3.43 3.43 0 0 0-3.44-3.44z"/><path fill="url(#e)" d="M4.498 1.058a3.43 3.43 0 0 0-3.44 3.44v7.937a3.43 3.43 0 0 0 3.44 3.44h7.937a3.43 3.43 0 0 0 3.44-3.44V4.498a3.43 3.43 0 0 0-3.44-3.44z"/><path fill="url(#f)" d="M1.058 12.435a3.43 3.43 0 0 0 3.44 3.44h7.937a3.43 3.43 0 0 0 3.44-3.44V4.498a3.43 3.43 0 0 0-3.44-3.44H4.498a3.43 3.43 0 0 0-3.44 3.44z"/><path fill="url(#g)" d="M12.435 15.875a3.43 3.43 0 0 0 3.44-3.44V4.498a3.43 3.43 0 0 0-3.44-3.44H4.498a3.43 3.43 0 0 0-3.44 3.44v7.937a3.43 3.43 0 0 0 3.44 3.44z"/><path fill="url(#h)" d="M15.875 4.498a3.43 3.43 0 0 0-3.44-3.44H4.498a3.43 3.43 0 0 0-3.44 3.44v7.937a3.43 3.43 0 0 0 3.44 3.44h7.937a3.43 3.43 0 0 0 3.44-3.44z"/><path fill="#fff" d="m11.834 5.894-.114-.106-.014-.022-3.102-3.102a.19.19 0 0 0-.268 0L5.182 5.816l-.083.076a4.76 4.76 0 0 0 0 6.735 4.76 4.76 0 0 0 6.735 0 4.76 4.76 0 0 0 0-6.735z" color="#000" overflow="visible" style="isolation:auto;mix-blend-mode:normal;paint-order:fill markers stroke"/><circle cx="8.466" cy="9.26" r="2.117" fill="url(#i)"/><g transform="translate(-1.416 -.622)scale(.84894)"><path fill="#f69429" d="M10.32 10.32a1.87 1.87 0 0 0-.548 1.321h1.869z"/><g stroke-width="1.413"><path fill="#2da8b8" d="M12.962 12.962a1.87 1.87 0 0 0 .548-1.321h-1.87z"/><path fill="#f9da3e" d="M9.773 11.64a1.87 1.87 0 0 0 .546 1.322l1.322-1.322z"/><path fill="#56c7d9" d="M13.51 11.64a1.87 1.87 0 0 0-.546-1.322l-1.322 1.322z"/><path fill="#c4dc2b" d="M10.32 12.962a1.87 1.87 0 0 0 1.321.548v-1.87z"/><path fill="#d462aa" d="M12.962 10.319a1.87 1.87 0 0 0-1.321-.548v1.87z"/><path fill="#72cb6b" d="M11.641 13.509a1.87 1.87 0 0 0 1.322-.546l-1.322-1.322z"/><path fill="#f566a0" d="M11.641 9.772a1.87 1.87 0 0 0-1.322.547l1.322 1.322z"/></g><circle cx="11.641" cy="11.641" r=".535" fill="#1b2a31"/></g><path d="M1.058 12.17v.265a3.433 3.433 0 0 0 3.44 3.44h7.937a3.433 3.433 0 0 0 3.44-3.44v-.265a3.433 3.433 0 0 1-3.44 3.44H4.498a3.433 3.433 0 0 1-3.44-3.44" opacity=".15"/><path fill="#fff" d="M1.058 4.763V4.5a3.433 3.433 0 0 1 3.44-3.44h7.937a3.433 3.433 0 0 1 3.44 3.44v.265a3.433 3.433 0 0 0-3.44-3.44H4.498a3.433 3.433 0 0 0-3.44 3.44z" opacity=".15"/></svg>