<svg xmlns="http://www.w3.org/2000/svg" viewBox="0 0 64 64"><rect width="56.002" height="56.002" x="4" y="3.969" fill="#f2f2f2" rx="13.002" ry="13.002"/><path fill="#255fdb" d="M25.792 36.166c-6.818-9.02-13.818-2.165-11.991 4.14C16.94 47.202 23.944 52 31.992 52a20 20 0 0 0 16.811-9.137c-5.272 4.934-14.843 4.11-23.011-6.697"/><path fill="#4285f4" d="M31.887 29.954c-9.377-14.223-19.889-6.643-19.889 2.05 0 2.982.65 5.795 1.816 8.336-1.245-5.888 5.52-10.429 11.82-1.977 9.148 12.273 18.126 10.114 23.148 4.53 1.357-2.023 2.68-5.125 3.05-8.21l-.007.04c-2.15 6.686-11.668 7.774-19.938-4.769"/><path fill="#91bfff" d="M38.315 23.592C31.35 12.102 22.52 13.137 16.55 19.294A19.94 19.94 0 0 0 11.999 32c.625-8.419 10.795-14.262 20 0 8.193 12.693 18.375 9.386 19.825 2.754l.009-.064c.145-.911.16-1.781.16-2.718 0-.302.012-.602-.001-.9-3.55 2.518-8.21 1.539-13.678-7.482z"/><path fill="#c4e1ff" d="M38.362 25.636c6.377 10.253 11.875 7.63 13.63 5.437a19.8 19.8 0 0 0-.732-4.525c-2.973.061-3.666-.434-6.58-4.889-4.482-6.852-10.114-11.473-19.945-8.298a20.1 20.1 0 0 0-8.191 5.941c6.761-6.222 15.056-4.534 21.818 6.334"/><path fill="#ebf4ff" d="M44.235 22.539c2.913 4.454 4.688 4.691 7.027 4.009C48.882 18.141 41.169 12 31.994 12c-2.562 0-5.014.489-7.264 1.364 8.789-2.773 15.023 2.323 19.504 9.175z"/><path d="M3.998 45.998v1c0 7.203 5.8 13.004 13.004 13.004h29.996c7.203 0 13.004-5.8 13.004-13.004v-1c0 7.203-5.8 13.002-13.004 13.002H17.002A12.975 12.975 0 0 1 3.998 45.998" opacity=".1"/><path fill="#fff" d="M3.998 18.004v-1C3.998 9.801 9.798 4 17.002 4h29.996c7.203 0 13.004 5.8 13.004 13.004v1c0-7.203-5.8-13.002-13.004-13.002H17.002A12.975 12.975 0 0 0 3.998 18.004" opacity=".5"/></svg>