<svg xmlns="http://www.w3.org/2000/svg" viewBox="0 0 64 64"><rect width="64" height="64" fill="none" rx="0" ry="0" style="paint-order:stroke fill markers"/><rect width="56.002" height="56.002" x="4" y="3.969" fill="#f2f2f2" rx="13.002" ry="13.002"/><path d="M3.998 45.998v1c0 7.203 5.8 13.004 13.004 13.004h29.996c7.203 0 13.004-5.8 13.004-13.004v-1c0 7.203-5.8 13.002-13.004 13.002H17.002A12.975 12.975 0 0 1 3.998 45.998" opacity=".1"/><path fill="#fff" d="M3.998 18.004v-1C3.998 9.801 9.798 4 17.002 4h29.996c7.203 0 13.004 5.8 13.004 13.004v1c0-7.203-5.8-13.002-13.004-13.002H17.002A12.975 12.975 0 0 0 3.998 18.004" opacity=".5"/><path fill="#009bff" d="M32 39.858c4.33 0 7.857-3.527 7.857-7.857S36.33 24.144 32 24.144s-7.857 3.527-7.857 7.857S27.67 39.858 32 39.858m0-14.285c3.542 0 6.429 2.887 6.429 6.428S35.542 38.43 32 38.43s-6.429-2.887-6.429-6.43 2.887-6.428 6.429-6.428"/><path fill="#009bff" d="M17.58 36.086c1.734-.55 2.991-2.172 2.991-4.085s-1.257-3.534-2.991-4.084c1.749-6.228 7.232-10.58 13.705-10.885v2.143c0 .506.26.952.7 1.205.223.126.468.193.721.193.246 0 .499-.067.722-.193l3.958-2.306c.655-.373 1.042-1.042 1.042-1.786s-.387-1.414-1.042-1.786l-3.958-2.306a1.43 1.43 0 0 0-1.444 0c-.439.253-.7.7-.7 1.205v2.202c-7.187.306-13.273 5.171-15.133 12.12-2.3.075-4.152 1.965-4.152 4.279a4.29 4.29 0 0 0 4.152 4.278 16.42 16.42 0 0 0 6.399 9.159l.826-1.169a14.94 14.94 0 0 1-5.796-8.184m19.092-20.349a.62.62 0 0 1 .327.55.62.62 0 0 1-.327.551l-3.958 2.3-.008-5.707zM13.428 32.001a2.858 2.858 0 1 1 5.716.002A2.858 2.858 0 0 1 13.428 32M52 32.001a4.29 4.29 0 0 0-4.152-4.278 16.42 16.42 0 0 0-6.399-9.159l-.825 1.168a14.94 14.94 0 0 1 5.796 8.184c-1.734.55-2.991 2.173-2.991 4.085s1.257 3.534 2.998 4.084c-1.756 6.228-7.24 10.58-13.713 10.885v-2.142c0-.506-.26-.953-.7-1.206a1.43 1.43 0 0 0-1.443 0l-3.958 2.307c-.655.372-1.042 1.041-1.042 1.785s.387 1.414 1.042 1.786l3.958 2.306c.223.127.476.194.722.194.253 0 .498-.067.722-.194.439-.253.699-.699.699-1.205V48.4c7.187-.305 13.274-5.171 15.134-12.12C50.148 36.204 52 34.315 52 32zM31.286 50.564l-3.958-2.299a.62.62 0 0 1-.328-.55c0-.112.03-.38.328-.551l3.958-2.336zm16.429-15.706a2.858 2.858 0 1 1 .001-5.716 2.858 2.858 0 0 1-.001 5.716"/><path fill="#009bff" d="M32 29.144a2.858 2.858 0 1 0 .001 5.716A2.858 2.858 0 0 0 32 29.144"/></svg>