<svg xmlns="http://www.w3.org/2000/svg" viewBox="0 0 64 64"><rect width="56.002" height="56.002" x="4" y="3.969" fill="#316ca7" rx="13.002" ry="13.002"/><circle cx="32.02" cy="32.044" r="30.001" fill="none"/><path d="M3.998 45.998v1c0 7.203 5.8 13.004 13.004 13.004h29.996c7.203 0 13.004-5.8 13.004-13.004v-1c0 7.203-5.8 13.002-13.004 13.002H17.002A12.975 12.975 0 0 1 3.998 45.998" opacity=".15"/><path fill="#fff" d="M3.998 18.004v-1C3.998 9.801 9.798 4 17.002 4h29.996c7.203 0 13.004 5.8 13.004 13.004v1c0-7.203-5.8-13.002-13.004-13.002H17.002A12.975 12.975 0 0 0 3.998 18.004" opacity=".15"/><path fill="#fff" d="M17 11c-3.324 0-6 2.676-6 6v11h4V17c0-1.108.892-2 2-2h11v-4zm19 0v4h11c1.108 0 2 .892 2 2v11h4V17c0-3.324-2.676-6-6-6zM11 36v11c0 3.324 2.676 6 6 6h11v-4H17c-1.108 0-2-.892-2-2V36zm38 0v11c0 1.108-.892 2-2 2H36v4h11c3.324 0 6-2.676 6-6V36z"/></svg>