<svg xmlns="http://www.w3.org/2000/svg" viewBox="0 0 64 64"><rect width="56.003" height="56.003" x="3.999" y="3.969" fill="#3c1d66" rx="13.003" ry="13.003"/><circle cx="45.347" cy="20.339" r="9.134" fill="#3a3670"/><path fill="#e6e6e6" d="M52.35 14.478a9.1 9.1 0 0 1 .478 2.9 9.134 9.134 0 0 1-16.135 5.861 9.133 9.133 0 1 0 15.657-8.761"/><path fill="#ac776d" d="M58.159 31.419c-5.962-.054-19.305 2.02-30.66 19.468l19.332 5.407 10.287-1.153a12.96 12.96 0 0 0 2.883-8.173V31.516a21 21 0 0 0-1.842-.097" opacity=".5"/><path fill="#b8ad99" d="M60 35.827c-7.786.91-20.477 5.362-31.534 22.963l29.005-4.12a12.95 12.95 0 0 0 2.53-7.7z" opacity=".5"/><path fill="#574a5c" d="M52.83 44.93c-15.005.173-27.906 6.104-27.906 6.104l-.145 5.867H55.4a12.96 12.96 0 0 0 4.602-9.932v-1.646a53 53 0 0 0-7.172-.393" style="mix-blend-mode:normal"/><path d="M4 34.736v12.232A12.973 12.973 0 0 0 17.002 59.97H47a12.97 12.97 0 0 0 12.385-9.03c-15.126 6.552-27.744-3.173-27.744-3.173C13.916 35.542 8.665 35.269 4 34.736" style="fill:#4d4d4d"/><path fill="#fff" d="M13.359 7.783a.717.717 0 0 0-.717.719.717.717 0 0 0 .717.717.717.717 0 0 0 .717-.717.717.717 0 0 0-.717-.719m5.111 3.422a.986.986 0 0 0-.986.986.986.986 0 0 0 .986.987.986.986 0 0 0 .987-.987.986.986 0 0 0-.987-.986m-6.634 3.274a1.883 1.883 0 0 0-1.883 1.882 1.883 1.883 0 0 0 1.883 1.883 1.883 1.883 0 0 0 1.882-1.883 1.883 1.883 0 0 0-1.882-1.883m6.09 3.96a.717.717 0 0 0-.717.72.717.717 0 0 0 .716.716.717.717 0 0 0 .717-.717.717.717 0 0 0-.717-.719m-2.637 1.36a1.21 1.21 0 0 0-1.211 1.209 1.21 1.21 0 0 0 1.21 1.21 1.21 1.21 0 0 0 1.21-1.21 1.21 1.21 0 0 0-1.21-1.21m5.681.164a.717.717 0 0 0-.717.717.717.717 0 0 0 .717.716.717.717 0 0 0 .717-.716.717.717 0 0 0-.717-.717m8.02 5.926a1.21 1.21 0 0 0-1.211 1.209 1.21 1.21 0 0 0 1.21 1.21 1.21 1.21 0 0 0 1.21-1.21 1.21 1.21 0 0 0-1.21-1.21m-9.541 4.73a.717.717 0 0 0-.717.717.717.717 0 0 0 .717.717.717.717 0 0 0 .717-.717.717.717 0 0 0-.717-.717" opacity=".5"/><path d="M3.998 45.998v1c0 7.203 5.8 13.004 13.004 13.004h29.996c7.203 0 13.004-5.8 13.004-13.004v-1c0 7.203-5.8 13.002-13.004 13.002H17.002A12.975 12.975 0 0 1 3.998 45.998" opacity=".15"/><path fill="#fff" d="M3.998 18.004v-1C3.998 9.801 9.798 4 17.002 4h29.996c7.203 0 13.004 5.8 13.004 13.004v1c0-7.203-5.8-13.002-13.004-13.002H17.002A12.975 12.975 0 0 0 3.998 18.004" opacity=".15"/></svg>