<svg xmlns="http://www.w3.org/2000/svg" width="64" height="64"><defs><linearGradient id="a" x1="7.937" x2="7.937" y1="15.081" y2="1.852" gradientTransform="scale(3.7796)" gradientUnits="userSpaceOnUse"><stop offset="0" stop-color="#8811a2"/><stop offset="1" stop-color="#da50d5"/></linearGradient></defs><rect width="56.002" height="56.002" x="4" y="3.969" fill="url(#a)" rx="13.002" ry="13.002"/><g stroke-width=".938"><path fill="#f06" d="M34.158 28.028c17.394-3.357 18.063-10.944 18.063-10.944s-1.37 23.51-14.082 24.754c-16.109 1.576-18.516 9.176-18.516 9.176s4.308-21.012 14.535-22.986"/><path fill="#f60" d="M23.662 26.991c14.739-6.242 13.389-16.425 13.389-16.425s8.137 20.773-4.062 25.616c-13.628 5.41-13.02 14.651-13.02 14.651s-4.963-20.177 3.693-23.843z"/><path fill="#fc0" d="M14.98 32.513c8.28-10.919 6.418-18.578 6.418-18.578s10.61 13.303 3.39 21.543c-8.065 9.205-4.552 15.608-4.552 15.608S10.23 38.775 14.98 32.512z"/></g></svg>