<svg xmlns="http://www.w3.org/2000/svg" image-rendering="optimizeSpeed" viewBox="0 0 64 64"><defs><linearGradient id="a" x1="31.989" x2="31.967" y1="45.992" y2="18.279" gradientUnits="userSpaceOnUse"><stop offset="0" stop-color="#b14de5"/><stop offset="1" stop-color="#58b1fe"/></linearGradient></defs><rect width="56" height="56" x="4" y="4" fill="#f2f2f2" rx="13.002" ry="13.002"/><path fill="url(#a)" d="M22.865 17v15.355H16L32 49l16-16.645h-6.865V17z"/><path d="M3.998 45.998v1c0 7.203 5.8 13.004 13.004 13.004h29.996c7.203 0 13.004-5.8 13.004-13.004v-1c0 7.203-5.8 13.002-13.004 13.002H17.002A12.975 12.975 0 0 1 3.998 45.998" opacity=".1"/><path fill="#fff" d="M3.998 18.004v-1C3.998 9.801 9.798 4 17.002 4h29.996c7.203 0 13.004 5.8 13.004 13.004v1c0-7.203-5.8-13.002-13.004-13.002H17.002A12.975 12.975 0 0 0 3.998 18.004" opacity=".5"/></svg>