<svg xmlns="http://www.w3.org/2000/svg" viewBox="0 0 64 64"><rect width="56.002" height="56.002" x="4" y="3.969" fill="#bd57c7" rx="13.002" ry="13.002"/><g stroke-width=".938"><path fill="#f06" d="M34.158 28.028c17.394-3.357 18.063-10.944 18.063-10.944s-1.37 23.51-14.082 24.754c-16.109 1.576-18.516 9.176-18.516 9.176s4.308-21.012 14.535-22.986"/><path fill="#f60" d="M23.662 26.991c14.739-6.242 13.389-16.425 13.389-16.425s8.137 20.773-4.062 25.616c-13.628 5.41-13.02 14.651-13.02 14.651s-4.963-20.177 3.693-23.843z"/><path fill="#fc0" d="M14.98 32.513c8.28-10.919 6.418-18.578 6.418-18.578s10.61 13.303 3.39 21.543c-8.065 9.205-4.552 15.608-4.552 15.608S10.23 38.775 14.98 32.512z"/></g><path d="M3.998 45.998v1c0 7.203 5.8 13.004 13.004 13.004h29.996c7.203 0 13.004-5.8 13.004-13.004v-1c0 7.203-5.8 13.002-13.004 13.002H17.002A12.975 12.975 0 0 1 3.998 45.998" opacity=".15"/><path fill="#fff" d="M3.998 18.004v-1C3.998 9.801 9.798 4 17.002 4h29.996c7.203 0 13.004 5.8 13.004 13.004v1c0-7.203-5.8-13.002-13.004-13.002H17.002A12.975 12.975 0 0 0 3.998 18.004" opacity=".15"/></svg>