<svg xmlns="http://www.w3.org/2000/svg" image-rendering="optimizeSpeed" viewBox="0 0 64 64"><rect width="56.002" height="56.002" x="4" y="3.969" fill="#4d4d4d" rx="13.002" ry="13.002"/><g fill-rule="evenodd" stroke-width=".057"><path fill="#46c3f3" d="M31.998 51.606 50 41.432l-.122-19.139-17.88 9.797z"/><path fill="#00a4e2" d="M32.002 51.647 14 41.473l.122-19.14 17.88 9.798z"/><path fill="#66d2fd" d="m14.07 22.385 18.018-10.03L49.945 22.39 31.99 32.226Z"/></g><path d="M3.998 45.998v1c0 7.203 5.8 13.004 13.004 13.004h29.996c7.203 0 13.004-5.8 13.004-13.004v-1c0 7.203-5.8 13.002-13.004 13.002H17.002A12.975 12.975 0 0 1 3.998 45.998" opacity=".35"/><path fill="#fff" d="M3.998 18.004v-1C3.998 9.801 9.798 4 17.002 4h29.996c7.203 0 13.004 5.8 13.004 13.004v1c0-7.203-5.8-13.002-13.004-13.002H17.002A12.975 12.975 0 0 0 3.998 18.004" opacity=".15"/></svg>