<svg xmlns="http://www.w3.org/2000/svg" viewBox="0 0 16.602 16.602"><g transform="scale(.26458)"><rect width="56.002" height="56.002" x="4" y="3.969" fill="#f2f2f2" rx="13.002" ry="13.002"/><path d="M3.998 45.998v1c0 7.203 5.8 13.004 13.004 13.004h29.996c7.203 0 13.004-5.8 13.004-13.004v-1c0 7.203-5.8 13.002-13.004 13.002H17.002A12.975 12.975 0 0 1 3.998 45.998" opacity=".1"/><path fill="#fff" d="M3.998 18.004v-1C3.998 9.801 9.798 4 17.002 4h29.996c7.203 0 13.004 5.8 13.004 13.004v1c0-7.203-5.8-13.002-13.004-13.002H17.002A12.975 12.975 0 0 0 3.998 18.004" opacity=".5"/></g><rect width="13.229" height="13.213" x="1.687" y="1.521" fill="#fff" opacity=".15" rx="2.646" ry="2.646"/><path d="M5.427 12.02H2.924l2.058-7.785h2.503z" style="fill:#f32735;stroke-width:.06841"/><path d="M8.524 12.02H6.02l2.058-7.785h2.504z" style="fill:#3eae2b;stroke-width:.06841"/><path d="M11.62 12.02H9.117l2.058-7.785h2.503z" style="fill:#0068c7;stroke-width:.06841"/></svg>