<svg xmlns="http://www.w3.org/2000/svg" viewBox="0 0 64 64"><defs><linearGradient id="b" x1="74.341" x2="74.032" y1="15.186" y2="49.356" gradientUnits="userSpaceOnUse"><stop offset="0" stop-color="#336df5"/><stop offset="1" stop-color="#42afe6"/></linearGradient><linearGradient id="c" x1="76.747" x2="91.891" y1="32" y2="32" gradientUnits="userSpaceOnUse"><stop offset="0" stop-color="#63c644"/><stop offset="1" stop-color="#96ca6b" stop-opacity=".982"/></linearGradient><linearGradient id="a" x1="95.889" x2="95.172" y1="17.085" y2="48.949" gradientUnits="userSpaceOnUse"><stop offset="0" stop-color="#5da624"/><stop offset="1" stop-color="#6ba63f" stop-opacity=".952"/></linearGradient></defs><rect width="56.002" height="56.002" x="4" y="3.969" fill="#f2f2f2" rx="13.002" ry="13.002"/><path d="M3.998 45.998v1c0 7.203 5.8 13.004 13.004 13.004h29.996c7.203 0 13.004-5.8 13.004-13.004v-1c0 7.203-5.8 13.002-13.004 13.002H17.002A12.975 12.975 0 0 1 3.998 45.998" opacity=".1"/><path fill="#fff" d="M3.998 18.004v-1C3.998 9.801 9.798 4 17.002 4h29.996c7.203 0 13.004 5.8 13.004 13.004v1c0-7.203-5.8-13.002-13.004-13.002H17.002A12.975 12.975 0 0 0 3.998 18.004" opacity=".5"/><g stroke-width="1.304"><path fill="url(#a)" d="m98.698 21.565-7.826-6.522v33.913l7.826-6.521z" style="fill:#66a833" transform="translate(-52.35)"/><path fill="url(#b)" d="m70.002 21.565 7.826-6.522v33.913l-7.826-6.521z" style="fill:#3b8fed" transform="translate(-52.35)"/><path fill="url(#c)" d="M77.828 15.043c-1.589 4.544-1.287 9.196 0 13.912l13.043 20.001c.836-4.564 1.799-9.127 0-13.69z" style="fill:#77c854" transform="translate(-52.35)"/><path fill="#569e41" d="M38.522 35.266v13.69l5.87-4.891z"/><path fill="#5db54e" d="m25.478 15.043-5.88 4.9 5.88 9.012z"/></g></svg>