<svg xmlns="http://www.w3.org/2000/svg" xmlns:xlink="http://www.w3.org/1999/xlink" viewBox="0 0 64 64"><defs><linearGradient xlink:href="#a" id="b" x1="16" x2="16" y1="30" y2="2" gradientTransform="scale(2)" gradientUnits="userSpaceOnUse"/><linearGradient id="a"><stop offset="0" style="stop-color:#3cbc5f;stop-opacity:1"/><stop offset=".494" style="stop-color:#e97b38;stop-opacity:1"/><stop offset="1" style="stop-color:#bb69e5;stop-opacity:1"/></linearGradient></defs><rect width="56" height="56" x="4" y="5" ry="12" style="opacity:.2;fill:#000;stroke-width:3.5"/><rect width="56" height="56" x="4" y="4" ry="12" style="fill:url(#b);stroke-width:2"/><path d="M24.117 18.343c-1.854-1.01-4.114.33-4.117 2.442v22.287c.003 2.111 2.263 3.452 4.117 2.442l20.429-11.139c1.939-1.055 1.939-3.838 0-4.893z" style="color:#000;fill:#fff;fill-opacity:1;stroke-width:4.46608;stroke-linecap:round;stroke-linejoin:round;stroke-miterlimit:1;opacity:.6"/><path d="M28 35v3h-8v1h8v3h-8v1h8v.396l1-.544V42h1v.307l1-.545V35zm1 1h1v1h-1zm0 2h1v1h-1zm0 2h1v1h-1z" style="fill:#fff;fill-opacity:1;stroke-linecap:round;stroke-linejoin:round"/></svg>