<svg xmlns="http://www.w3.org/2000/svg" viewBox="0 0 16.933 16.933"><defs><filter id="a" width="1.12" height="1.12" x="-.06" y="-.06" color-interpolation-filters="sRGB"><feGaussianBlur stdDeviation=".146"/></filter></defs><rect width="14.816" height="14.816" x="1.058" y="1.058" fill="#4f5462" rx="3.44" ry="3.44"/><g stroke-width=".265" filter="url(#a)" opacity=".15" transform="translate(.146 .158)"><path d="M8.32 5.398a2.91 2.91 0 0 0-2.91 2.91 2.91 2.91 0 0 0 2.91 2.91 2.91 2.91 0 0 0 2.91-2.91 2.91 2.91 0 0 0-2.91-2.91m.039.251a2.646 2.646 0 0 1 2.646 2.646 2.646 2.646 0 0 1-2.646 2.646 2.646 2.646 0 0 1-2.646-2.646A2.646 2.646 0 0 1 8.359 5.65"/><path d="M9.908 8.166 7.262 10.16V6.456z"/></g><g stroke-width=".265"><path fill="#ececec" d="M8.466 5.556a2.91 2.91 0 0 0-2.91 2.91 2.91 2.91 0 0 0 2.91 2.91 2.91 2.91 0 0 0 2.91-2.91 2.91 2.91 0 0 0-2.91-2.91m.039.252a2.646 2.646 0 0 1 2.646 2.646 2.646 2.646 0 0 1-2.646 2.645 2.646 2.646 0 0 1-2.646-2.645 2.646 2.646 0 0 1 2.646-2.646"/><path fill="#edeef8" d="M10.054 8.324 7.408 10.32V6.614z"/></g><path fill="#edeef8" d="M2.646 1.6a3 3 0 0 0-.35.252h.194c.086 0 .156-.07.156-.156zm11.641 0v.096c0 .086.07.156.156.156h.194a3 3 0 0 0-.35-.252m-12.5.781a3 3 0 0 0-.2.285v.617c0 .087.07.157.157.157h.746c.086 0 .156-.07.156-.157v-.746a.156.156 0 0 0-.156-.156zm12.656 0a.156.156 0 0 0-.156.156v.746c0 .087.07.157.156.157h.747c.086 0 .156-.07.156-.157v-.617a3 3 0 0 0-.2-.285zM1.743 3.97a.156.156 0 0 0-.155.156v.746c0 .086.07.156.156.156h.746c.086 0 .156-.07.156-.156v-.746a.156.156 0 0 0-.156-.156h-.746zm12.7 0a.156.156 0 0 0-.156.156v.746c0 .086.07.156.156.156h.747c.086 0 .156-.07.156-.156v-.746a.156.156 0 0 0-.156-.156zm-12.7 1.587a.156.156 0 0 0-.155.156v.746c0 .087.07.156.156.156h.746c.086 0 .156-.07.156-.156v-.746a.156.156 0 0 0-.156-.156h-.746zm12.7 0a.156.156 0 0 0-.156.156v.746c0 .087.07.156.156.156h.747c.086 0 .156-.07.156-.156v-.746a.156.156 0 0 0-.156-.156zm-12.7 1.588a.156.156 0 0 0-.155.156v.746c0 .086.07.156.156.156h.746c.086 0 .156-.07.156-.156V7.3a.156.156 0 0 0-.156-.156h-.746zm12.7 0a.156.156 0 0 0-.156.156v.746c0 .086.07.156.156.156h.747c.086 0 .156-.07.156-.156V7.3a.156.156 0 0 0-.156-.156zM1.743 8.73a.156.156 0 0 0-.155.156v.746c0 .087.07.156.156.156h.746c.086 0 .156-.07.156-.156v-.746a.156.156 0 0 0-.156-.156h-.746zm12.7 0a.156.156 0 0 0-.156.156v.746c0 .087.07.156.156.156h.747c.086 0 .156-.07.156-.156v-.746a.156.156 0 0 0-.156-.156zm-12.7 1.588a.156.156 0 0 0-.155.156v.746c0 .086.07.156.156.156h.746c.086 0 .156-.07.156-.156v-.746a.156.156 0 0 0-.156-.156h-.746zm12.7 0a.156.156 0 0 0-.156.156v.746c0 .086.07.156.156.156h.747c.086 0 .156-.07.156-.156v-.746a.156.156 0 0 0-.156-.156zm-12.7 1.587a.156.156 0 0 0-.155.156v.746c0 .087.07.156.156.156h.746c.086 0 .156-.07.156-.156v-.746a.156.156 0 0 0-.156-.156h-.746zm12.7 0a.156.156 0 0 0-.156.156v.746c0 .087.07.156.156.156h.747c.086 0 .156-.07.156-.156v-.746a.156.156 0 0 0-.156-.156zm-12.7 1.588a.156.156 0 0 0-.155.156v.617q.092.149.199.285h.703c.086 0 .156-.07.156-.156v-.746a.156.156 0 0 0-.156-.156h-.746zm12.7 0a.156.156 0 0 0-.156.156v.746c0 .086.07.156.156.156h.703q.107-.136.2-.285v-.617a.156.156 0 0 0-.156-.156zM2.297 15.08q.165.137.349.252v-.096a.156.156 0 0 0-.156-.156zm12.146 0a.156.156 0 0 0-.156.156v.096a3 3 0 0 0 .35-.252z"/><path d="M1.058 12.17v.265a3.433 3.433 0 0 0 3.44 3.44h7.937a3.433 3.433 0 0 0 3.44-3.44v-.265a3.433 3.433 0 0 1-3.44 3.44H4.498a3.433 3.433 0 0 1-3.44-3.44" opacity=".15"/><path fill="#fff" d="M1.058 4.763V4.5a3.433 3.433 0 0 1 3.44-3.44h7.937a3.433 3.433 0 0 1 3.44 3.44v.265a3.433 3.433 0 0 0-3.44-3.44H4.498a3.433 3.433 0 0 0-3.44 3.44z" opacity=".15"/></svg>