<svg xmlns="http://www.w3.org/2000/svg" viewBox="0 0 64 64"><rect width="56" height="56" x="4" y="4" fill="#f2f2f2" rx="13.002" ry="13.002"/><circle cx="32" cy="32" r="21" opacity=".1"/><path fill="#4d4d4d" d="M31.883 17.006c-7.843 0-14.302 6.088-14.961 13.818h-2.156l3.738 6.377 3.682-6.377h-2.389c.641-6.163 5.79-10.928 12.086-10.928 6.731 0 12.156 5.448 12.156 12.229s-5.425 12.264-12.156 12.264c-3.389 0-6.433-1.403-8.637-3.647 0 0-.39-.399-.627-.625-.433-.413-.781-.266-1.078-.027-.347.278-.65.515-.988.832-.278.228-.437.608-.178.916 2.761 3.317 6.893 5.442 11.508 5.442 8.279 0 15.012-6.816 15.012-15.154s-6.733-15.12-15.012-15.12m-.168 5.201c-.304 0-.523 7.18-.785 10.771 2.244 1.814 6.537 5.639 6.732 5.444.203-.204-3.441-3.78-5.162-5.668-.262-3.516-.452-10.547-.785-10.547"/><path d="M3.998 45.998v1c0 7.203 5.8 13.004 13.004 13.004h29.996c7.203 0 13.004-5.8 13.004-13.004v-1c0 7.203-5.8 13.002-13.004 13.002H17.002A12.975 12.975 0 0 1 3.998 45.998" opacity=".1"/><path fill="#fff" d="M3.998 18.004v-1C3.998 9.801 9.798 4 17.002 4h29.996c7.203 0 13.004 5.8 13.004 13.004v1c0-7.203-5.8-13.002-13.004-13.002H17.002A12.975 12.975 0 0 0 3.998 18.004" opacity=".5"/></svg>