<svg xmlns="http://www.w3.org/2000/svg" width="64" height="64"><defs><linearGradient id="d" x1="26" x2="26" y1="35" y2="7" gradientTransform="translate(0 14)" gradientUnits="userSpaceOnUse"><stop offset="0" stop-color="#b6b9bf"/><stop offset="1" stop-color="#dddfe2"/></linearGradient><linearGradient id="e" x1="3" x2="45" y1="42" y2="42" gradientTransform="translate(0 14)" gradientUnits="userSpaceOnUse"><stop offset="0" stop-color="#1a1a1a"/><stop offset=".111" stop-color="#2c2c2e"/><stop offset=".29" stop-color="#2b2b2d"/><stop offset=".512" stop-color="#2a2b2d"/><stop offset=".752" stop-color="#2b2b2d"/><stop offset=".897" stop-color="#323232"/><stop offset="1" stop-color="#171717"/></linearGradient><linearGradient id="g" x1="467.17" x2="467.17" y1="546.85" y2="544.72" gradientTransform="translate(-841.23 -972.74)scale(1.8844)" gradientUnits="userSpaceOnUse"><stop offset="0" stop-color="#040404"/><stop offset="1" stop-color="#121212" stop-opacity=".908"/></linearGradient><linearGradient id="a" x1="7.937" x2="7.937" y1="15.081" y2="1.852" gradientTransform="scale(3.7796)" gradientUnits="userSpaceOnUse"><stop offset="0" stop-color="#4d4d4d"/><stop offset="1" stop-color="gray"/></linearGradient><linearGradient id="f" x1="22" x2="22" y1="55" y2="57" gradientTransform="matrix(.5054 0 0 1 229.15 2.167)" gradientUnits="userSpaceOnUse"><stop offset="0" stop-color="#5ebdff"/><stop offset="1" stop-color="#1c55ee"/></linearGradient><clipPath id="b"><rect width="48" height="48" y="16" stroke-width=".995" opacity="0" rx="0" ry=".987"/></clipPath><filter id="c" width="1.117" height="1.123" x="-.059" y="-.061" color-interpolation-filters="sRGB"><feGaussianBlur stdDeviation="1.075"/></filter></defs><rect width="56.002" height="56.002" x="4" y="3.969" fill="url(#a)" rx="13.002" ry="13.002"/><g clip-path="url(#b)" transform="translate(8 -9)"><path d="M12.507 20c-2.894 0-4.79 2.156-5.224 4.768L2.061 56.233a3.3 3.3 0 0 0 .017 1.129C2.27 59.96 4.517 62 7.283 62h33.432c2.66 0 4.84-1.887 5.175-4.344.122-.45.147-.929.049-1.423L39.67 24.768C39.153 22.169 37.34 20 34.447 20z" filter="url(#c)" opacity=".15"/><path fill="url(#d)" d="M13 19h21c2.77 0 4.505 2.169 5 4.767l6 31.465C45.496 57.831 42.77 60 40 60H8.002c-2.77 0-5.415-2.156-5-4.768L8 23.767C8.415 21.156 10.23 19 13 19"/><rect width="42" height="10" x="3" y="51" fill="url(#e)" ry="5"/><rect width="20" height="2" x="12" y="55" fill="url(#f)" ry="1"/><circle cx="39" cy="56" r="2" fill="url(#g)" opacity=".452"/><path fill="#fff" d="M39.003 55.075a.14.14 0 0 0-.105.045.14.14 0 0 0-.043.103v.745q-.001.06.043.103c.044.043.065.045.105.045a.14.14 0 0 0 .104-.045.14.14 0 0 0 .044-.103v-.745a.14.14 0 0 0-.044-.103.14.14 0 0 0-.104-.045m-.428.219c-.04 0-.076 0-.11.03a.87.87 0 0 0-.357.71q.001.18.073.346.07.165.19.285a.9.9 0 0 0 .63.26q.18 0 .346-.07a.87.87 0 0 0 .474-.475.88.88 0 0 0-.285-1.057.14.14 0 0 0-.111-.03c-.041 0-.074.025-.098.057a.14.14 0 0 0-.027.11q.008.06.057.1a.592.592 0 0 1-.586 1.02.6.6 0 0 1-.319-.316.59.59 0 0 1 .191-.705.15.15 0 0 0 .06-.1.14.14 0 0 0-.03-.109.13.13 0 0 0-.098-.056"/><path d="M8 51c-2.77 0-5 2.23-5 5 0 .059.006.116.008.174a4.724 4.724 0 0 1 4.732-4.652h32.52a4.724 4.724 0 0 1 4.733 4.652q.005-.086.007-.174c0-2.77-2.23-5-5-5z" opacity=".15"/></g><circle cx="32" cy="26" r="10" fill="#fff" style="paint-order:fill markers stroke"/><path fill="#51a2da" d="M32 15c-6.072 0-10.995 4.92-11 10.992v8.513a2.5 2.5 0 0 0 2.5 2.494h8.503C38.078 36.997 43 32.073 43 26c0-6.075-4.925-11-11-11m2.23 4.526c1.847 0 3.592 1.417 3.592 3.367a4 4 0 0 1-.031.567.917.917 0 1 1-1.813-.259c.008-.057.012-.15.012-.308 0-1.105-.904-1.533-1.76-1.533s-1.627.718-1.63 1.531v2.816l1.588-.011c1.24-.026 1.252 1.843.012 1.834l-1.6.009-.012 2.627c-.191 2.062-1.947 3.71-4.056 3.71-2.235 0-4.079-1.828-4.079-4.069.067-2.305 1.91-4.117 4.223-4.096l1.29-.008v1.83l-1.3.012c-1.273.038-2.36.9-2.38 2.262a2.235 2.235 0 0 0 2.247 2.236c1.243 0 2.235-.904 2.235-2.233v-6.927c.001-.128.007-.23.022-.373.209-1.694 1.724-2.986 3.44-2.986z"/></svg>