<svg xmlns="http://www.w3.org/2000/svg" width="64" height="64" image-rendering="optimizeSpeed"><defs><linearGradient id="a" x1="29.312" x2="29.312" y1="57.12" y2="7.454" gradientUnits="userSpaceOnUse"><stop offset="0" stop-color="#ff0d46"/><stop offset="1" stop-color="#ff6352"/></linearGradient><linearGradient id="c" x1="7.937" x2="7.937" y1="3.704" y2="9.789" gradientTransform="scale(3.7796)" gradientUnits="userSpaceOnUse"><stop offset="0" stop-color="#fcf9f8"/><stop offset="1" stop-color="#faf8f8" stop-opacity="0"/></linearGradient><radialGradient id="b" cx="8.422" cy="6.78" r="5.292" gradientTransform="matrix(3.7796 0 0 3.3875 -.001 3.312)" gradientUnits="userSpaceOnUse"><stop offset="0" stop-color="#fefdfd" stop-opacity="0"/><stop offset="1" stop-color="#eaa0a2"/></radialGradient></defs><rect width="55.999" height="55.999" x="4" y="4" fill="url(#a)" rx="13" ry="13"/><path fill="#fdfefd" d="M31.999 14a20 16.5 0 0 0-20 16.5 20 16.5 0 0 0 7.918 13.123s.075.049.104.064a20 16.5 0 0 0 .199.125c.514.344 1.48 1.136 1.271 2.157-.281 1.375-1.748 2.803-2.02 3.142-.27.34-.477.717.167.739.728.023 1.976-.383 2.984-.883s2.236-1.661 3.016-1.899c.742-.306 1.663-.406 3.166-.3a20 16.5 0 0 0 3.195.232 20 16.5 0 0 0 20-16.5 20 16.5 0 0 0-20-16.5"/><path fill="url(#b)" d="M31.999 14a20 16.5 0 0 0-20 16.5 20 16.5 0 0 0 7.918 13.123s.075.049.104.064a20 16.5 0 0 0 .199.125c.514.344 1.48 1.136 1.271 2.157-.281 1.375-1.748 2.803-2.02 3.142-.27.34-.477.717.167.739.728.023 1.976-.383 2.984-.883s2.236-1.661 3.016-1.899c.742-.306 1.663-.406 3.166-.3a20 16.5 0 0 0 3.195.232 20 16.5 0 0 0 20-16.5 20 16.5 0 0 0-20-16.5"/><path fill="url(#c)" d="M32 14a20 16.5 0 0 0-20 16.5 20 16.5 0 0 0 7.918 13.123s.075.049.104.064a20 16.5 0 0 0 .199.125c.514.344 1.48 1.136 1.271 2.157-.281 1.375-1.748 2.803-2.02 3.142-.27.34-.477.717.167.739.728.023 1.976-.383 2.984-.883s2.236-1.661 3.016-1.899c.742-.306 1.663-.406 3.166-.3A20 16.5 0 0 0 32 47a20 16.5 0 0 0 20-16.5A20 16.5 0 0 0 32 14"/></svg>