<svg xmlns="http://www.w3.org/2000/svg" viewBox="0 0 64 64"><rect width="56.002" height="56.002" x="4" y="3.969" fill="#f2f2f2" rx="13.002" ry="13.002"/><path d="M3.998 45.998v1c0 7.203 5.8 13.004 13.004 13.004h29.996c7.203 0 13.004-5.8 13.004-13.004v-1c0 7.203-5.8 13.002-13.004 13.002H17.002A12.975 12.975 0 0 1 3.998 45.998" opacity=".1"/><path fill="#fff" d="M3.998 18.004v-1C3.998 9.801 9.798 4 17.002 4h29.996c7.203 0 13.004 5.8 13.004 13.004v1c0-7.203-5.8-13.002-13.004-13.002H17.002A12.975 12.975 0 0 0 3.998 18.004" opacity=".5"/><path fill="#00d9ff" d="M20.233 10.792a.75.75 0 0 0-.758.55l-4.333 16.135v.002a.746.746 0 0 0 .53.911l12.413 3.266a.744.744 0 0 0 .909-.512l.02-.062.777-2.906 3.042.815.031.004 16.137 4.112q.002 0 .003.002a.747.747 0 0 0 .912-.533l3.27-12.188.001-.004a.747.747 0 0 0-.533-.911l-32.273-8.66a1 1 0 0 0-.148-.022z"/><path fill="#00a0fd" d="M14.846 30.873a.75.75 0 0 0-.764.556l-3.267 12.197-.001.002a.747.747 0 0 0 .532.911l32.275 8.648h.002a.746.746 0 0 0 .911-.53l4.32-16.129.002-.004a.745.745 0 0 0-.532-.91l-12.407-3.268a.745.745 0 0 0-.91.517v.002l-.028.089-.77 2.872-2.902-.777q-.086-.018-.174-.04l-16.136-4.112h-.002a1 1 0 0 0-.15-.024z"/></svg>