<svg xmlns="http://www.w3.org/2000/svg" width="64" height="64" style="isolation:isolate"><defs><clipPath id="f"><path stroke-width="1.333" d="M0 0h64v64H0z"/></clipPath><clipPath id="e"><path stroke-width="1.333" d="M0 0h64v64H0z"/></clipPath><clipPath id="d"><path stroke-width="1.333" d="M0 0h64v64H0z"/></clipPath><clipPath id="c"><path stroke-width="1.333" d="M0 0h64v64H0z"/></clipPath><clipPath id="b"><path stroke-width="1.333" d="M0 0h64v64H0z"/></clipPath><linearGradient id="a" x1="7.937" x2="7.937" y1="15.081" y2="1.852" gradientTransform="scale(3.7796)" gradientUnits="userSpaceOnUse"><stop offset="0" stop-color="#363636"/><stop offset="1" stop-color="#6c6c6c"/></linearGradient></defs><rect width="56.002" height="56.002" x="4" y="3.969" fill="url(#a)" rx="13.002" ry="13.002"/><g stroke-width="1.333"><path fill="none" d="M0 0h64v64H0z" clip-path="url(#b)"/><path fill="#fff" d="M25.333 36V20a2.67 2.67 0 0 0-2.667-2.667h-5.333V40A6.67 6.67 0 0 0 24 46.667h22.667v-5.333A2.67 2.67 0 0 0 44 38.667H28A2.67 2.67 0 0 1 25.333 36" clip-path="url(#c)"/><path fill="#93ddfa" d="M32 29.333v-8l6.667 4 4 6.667h-8A2.67 2.67 0 0 1 32 29.333" clip-path="url(#d)"/><path fill="#ffa94d" d="M46.667 17.333H28L46.667 36z" clip-path="url(#e)"/><path fill="#f7c95c" d="M42.667 21.333H32L42.667 32z" clip-path="url(#f)"/></g></svg>