<svg xmlns="http://www.w3.org/2000/svg" viewBox="0 0 16.933 16.933"><path fill="#d0f1ff" d="M9.26 1.05c1.588 0 6.615 5.035 6.615 6.623V4.49a3.43 3.43 0 0 0-3.44-3.44z"/><path fill="#fff" d="M4.498 1.852A2.63 2.63 0 0 0 1.86 4.49v7.937a2.63 2.63 0 0 0 2.638 2.638h7.937a2.63 2.63 0 0 0 2.638-2.638V4.49a2.63 2.63 0 0 0-2.638-2.638zm0 .265h7.937A2.37 2.37 0 0 1 14.81 4.49v7.937a2.37 2.37 0 0 1-2.374 2.373H4.498a2.37 2.37 0 0 1-2.373-2.373V4.49a2.37 2.37 0 0 1 2.373-2.373"/><g fill="#fff"><path d="M12.964 2.117h.265v6.085h-.265z"/><path d="M14.816 3.704v.265H8.731v-.265z"/></g><path fill="#52a8ff" d="M4.498 1.05a3.46 3.46 0 0 0-1.642.414 3.44 3.44 0 0 0-1.78 2.673 4 4 0 0 0-.018.353v7.937a3.43 3.43 0 0 0 3.087 3.422h.001q.174.018.352.018h7.937a3.46 3.46 0 0 0 1.643-.414 3.44 3.44 0 0 0 1.797-3.026V7.673c0-1.588-5.027-6.623-6.615-6.623z"/><path fill="#fff" d="M9.26 1.058c1.059.265 1.323 1.852 1.588 2.91.256 1.027.84 1.732 2.381 2.117 1.058.265 2.117.17 2.646 1.588l-.001-.02c-.03-1.85-4.394-6.28-6.405-6.585q-.105-.01-.209-.01"/><rect width="11.641" height="4.233" x="2.646" y="9.789" fill="#a6d3ff" rx="1.323" ry="1.323"/><g fill="#f2f2f2"><rect width="2.646" height="2.646" x="3.439" y="10.583" rx=".529" ry=".529"/><rect width="2.646" height="2.646" x="7.144" y="10.583" rx=".529" ry=".529"/><rect width="2.646" height="2.646" x="10.848" y="10.583" rx=".529" ry=".529"/></g><path d="M1.058 12.17v.265a3.433 3.433 0 0 0 3.44 3.44h7.937a3.433 3.433 0 0 0 3.44-3.44v-.265a3.433 3.433 0 0 1-3.44 3.44H4.498a3.433 3.433 0 0 1-3.44-3.44" opacity=".15"/><path fill="#fff" d="M1.058 4.763V4.5a3.433 3.433 0 0 1 3.44-3.44h7.937a3.433 3.433 0 0 1 3.44 3.44v.265a3.433 3.433 0 0 0-3.44-3.44H4.498a3.433 3.433 0 0 0-3.44 3.44z" opacity=".15"/></svg>