<svg xmlns="http://www.w3.org/2000/svg" viewBox="0 0 64 64"><rect width="56.002" height="56.002" x="4" y="3.969" fill="#cee5fd" rx="13.002" ry="13.002"/><path fill="#66adff" d="M17.002 3.969c-2.432 0-4.694.673-6.637 1.826l-.056.047c-.558.233.333.529 1.61.853-1.641.11-3.34.767-4.813 1.838A12.95 12.95 0 0 0 4 16.971v3.006c.566.099 2.665.492 2.693.49.306-.004.52.09.813.152.27.056.488.239.723.256.664.05.824-.467 1.367-.756.56.08.931-.095 1.437-.039.345.038.595.407.864.428.226.023.425-.211.644-.178.213.033.579.495.613.754.043.323-.238.614-.146.969.339.344.955.413 1.44.611.315-.259.041-.74 0-1.115 0-.165.022-.313 0-.465-.03-.258-.14-.495-.143-.717 0-1.021.825-1.499 1.512-1.902.297-.176.53-.485.789-.613.364-.182.636-.224.937-.393.545-.305 1.012-.55 1.438-.896.197-.463.018-1.085.035-1.543.197-.12.367.051.576.035.329-.068.357-.532.543-.717.108-.106.404-.182.539-.287.328-.257.434-.643.72-.754.103-.041.34-.03.503-.074.213-.056.514-.307.86-.426.227-.079.745-.095.831-.182.106-.108.001-.412.037-.574.175-.81 1.396-.98 2.12-1.254.506-.191 1.027-.543 1.583-.435-.108.385-.627.249-.539.717.122.649.991-.186 1.22-.282.44-.184 1.193-.297 1.768-.506.505-.184 1.41-.466.934-1.043-.397-.022-.588.466-.934.614-.238.038-.192-.2-.396-.219-.194-.023-.303.178-.502.145-.198-.033-.475-.344-.506-.575-.079-.599.507-.846.756-1.293-.164-.542-.917-.11-1.371-.322.043-.323.378-.546.756-.607.31-.053 1.005-.027 1.19.138.106.091 0 .318.18.469.184.165.41.148.647.11.087-.41-.534-.308-.466-.579.486-.317 1.276-.056 1.87-.144.343-.05.703-.29 1.007-.461.288-.164.664-.45.97-.182.084.293-.268.392-.431.537-.55.489-1.117 1.048-1.545 1.615.262.256.74.127 1.183.18.174.023.393.075.577.108.214.038.443.026.61.07.303.074.383.396.683.396.492 0 .497-.531.218-.863.088-.339.227-.514.108-.752-.222-.442-1.035-.023-1.077-.574-.026-.358.3-.342.43-.61-.06-.691.57-.74.502-1.36-.03-.26-.25-.264-.432-.507-.09-.12-.136-.348-.242-.45a1.4 1.4 0 0 1-.476-.153h-2.067L31.947 4c-.176 0-.361-.015-.546-.031zm-1.19 3.738c.805.267 1.28.53.897.777-.278-.3-.58-.554-.897-.777m.975.936c.102.242.088.484-.215.613-.045.02.184-.383.215-.613m.68 1.007h.004c.167.025.37.204.572.22.192.004.35-.107.469-.075.3.079.426.532.144.754-.235.03-.327-.101-.504-.07-.488.082-.676 1.037-1.04 1.005-.345-.029-.53-.865-.18-1.115.022-.217-.16-.253-.149-.468.104-.133.398-.273.684-.25m-1.615.112c.1.003.174.026.212.07-.047.383-.346.359-.642.537-.511.308-.808.778-.97 1.436-.048.191-.552.699-.796.648-.57-.12.159-1.17.29-1.33.143-.177.336-.331.505-.535.165-.198.271-.465.43-.574.174-.12.67-.264.97-.252m4.257 1.29c.183.004.347.032.422.106-.117.474-1.141.35-1.515.178.023-.179.303-.226.539-.25.165-.005.372-.039.554-.033m38.646.376-3.414 5.095c-.052.248-.22.571-.355.778-.314.476-.74.498-1.19.752-.375.212-.536.564-.756.933-.238.399-.385.64-.287 1.217-.321.636-.808 1.028-1.474 1.33-.197.089-.466.122-.647.252-.144.103-.225.38-.43.61-.252.28-.515.397-.648.61-.102.166-.14.496-.254.718-.153.301-.48.45-.681.756-.093.14-.153.426-.254.61-.228.414-.618.712-.576 1.075.041.351.44.415.468.72 0 .174-.115.279-.107.468 0 .275.193.47.215.681.053.533-.183.745-.284 1.11-.047.174-.026.37-.074.506-.087.266-.461.506-.468.822 0 .224.23.406.25.72 0 .217-.107.447-.069.647.077.39.776.845 1.08 1.148.407.407.94.72 1.115 1.149.148.363.147.837.43 1.111.21.202.558.329.826.54.251.195.525.365.793.573.438.342 1.1 1.024 1.797.971.364-.027.737-.323 1.15-.396a5.5 5.5 0 0 1 1.407-.073c.328.033.666.229 1.008.213.36-.023.774-.288 1.183-.467.33-.143.734-.301 1.178-.418.203-1.365.312-2.765.312-4.19l.002-.067V16.97c0-1.988-.455-3.862-1.246-5.543zm-40.977.5a1.3 1.3 0 0 1 .373.056c-.33.277-.689.434-1.257.614-.274.086-.745.192-.791-.114-.057-.373.399-.286.648-.32.314-.043.66-.224 1.027-.236m35.725 2.127a.7.7 0 0 0-.068.3c.022.174.214.34.256.575.022.124-.058.392 0 .506.173.335.873-.212 1.197-.194-.368-.506-.984-.708-1.385-1.187M8.94 25.932c-.593.032-.986.062-1.324.215-.778.353-.627 1.402-1.404 1.65-.269.086-.638.09-.934.145-.255.046-.568.187-.832.181-.074 0-.078-.018-.17-.047-.07.44-.147.986-.168 1.483.74.141 1.022 1.09 1.676 1.414.18.088.414.093.645.144.186.042.326.12.506.18.38.129.846.115 1.15.25.459.203.795 1.063 1.19 1.293.022.232-.046.544.035.717.186.252.449.195.755.36.368.197.48.708.829.864.12.054.421.046.61.104.478.144.633.695 1.042.574.268-.079.248-.353.291-.61.177-.19.37-.494.646-.5.447-.022.486.46.649.893.092.245.332.459.394.717.112.446.056 1.782-.039 2.049-.113.327-.556.465-.83.828-.129.17-.19.42-.287.54-.176.213-.438.268-.57.466-.074.111-.147.35-.219.5-.216.457-.504.782-.322 1.33.076.226.429.377.43.643 0 .312-.668.592-.72.935-.038.255.209.71.29 1.041.06.25.533.408.681.574.253.283.453.684.684 1.04.456.698.814 1.55 1.258 2.228.235.355.564.673.72 1.041.08.186.069.407.143.574.257.58 1.393 1.185 1.979 1.473.274.133.578.18.83.318.38.212 1.135.784 1.328 1.118.171.3.278 1.029.361 1.505.112.63.003 1.115.037 1.797.023.37.14.74.145 1.11.001.13-.078.123-.084.256l.115 2.646h12.74q.485-.02.967-.055c.033-.055.063-.124.101-.175.17-.222.319-.415.43-.61.106-.655-.26-1.113-.105-1.687.171-.645 1.063-1.04 1.69-1.33.214-.1.435-.262.61-.323.434-.15.974-.068 1.37-.213.674-.246.745-.967 1.078-1.58.156-.29.363-.58.394-.787.027-.186-.069-.36-.039-.58.033-.217.227-.404.287-.642.079-.311.114-.767.114-1.114 0-.284-.135-.532-.147-.789-.046-.93.338-1.036.684-1.543.173-.252.236-.538.357-.719.58-.862 1.587-1.279 1.514-2.584-.024-.431-.297-1.407-.615-1.544-.183-.08-.599-.006-.862-.108-.85-.316-1.35-1.368-2.23-1.435-.189-.023-.36.077-.573.074-.348-.023-.875-.244-1.261-.287-.246-.027-.572.073-.719 0-.225-.11-.249-.522-.432-.645-.144-.1-.426-.133-.646-.219-.354-.135-.634-.295-1.043-.324-.126-.004-.283.061-.43.04-.226-.039-.406-.306-.615-.432-.261-.16-.501-.237-.61-.463.237-.773-.417-.989-.576-1.436-.075-.21-.042-.461-.107-.648-.094-.268-.358-.421-.648-.645-.521-.4-.983-.775-1.727-.867-.327-.041-.652.098-1.047.074-.419-.026-.945-.392-1.258-.75-.304-.348-.451-.661-.717-.828-.25-.161-.584-.157-.755-.32-.076-.071-.065-.192-.147-.36-.126-.26-.337-.407-.18-.72-.286-.147-.295.273-.609.219-.28-.396-.516-.583-1.15-.467-.291.053-.453.42-.791.43-.278.022-.497-.31-.864-.362-.277-.038-.592.076-.789.04-.307-.062-.401-.319-.681-.503-.206-.135-.606-.363-.721-.36-.362.024-.619.767-1.117.503-.243-.307.393-.467.105-.754-.218-.218-.4.098-.574.219-.2.137-.389.274-.61.355-.494.185-.8.088-1.187.287-.357.185-.374.494-.576.862-.166.3-.542.74-.791.757-.302.023-.59-.42-.863-.539-.824-.356-1.223.315-1.907.325-.634.022-1.541-1.022-1.51-1.618 0-.363.21-.915.253-1.365.038-.357.282-.574.287-.9 0-.436-.58-.77-.864-.822-.672-.124-1.604.269-2.375-.04-.147-.243.174-.41.256-.646.046-.135.02-.315.069-.463.084-.229.324-.406.431-.648.08-.185.102-.45.182-.68.093-.261.267-.43.287-.613.027-.242-.064-.522-.254-.682m9.622 7.6c.243.022.274.525.025.566-.269.041-.406-.42-.147-.541a.2.2 0 0 1 .122-.024z"/><path fill="#fff" d="M3.998 18.004v-1C3.998 9.801 9.798 4 17.002 4h29.996c7.203 0 13.004 5.8 13.004 13.004v1c0-7.203-5.8-13.002-13.004-13.002H17.002A12.975 12.975 0 0 0 3.998 18.004" opacity=".5"/><path fill="#054694" d="m39 12.852-6 3.508v10.533l6-3.487zm-11.254 1.12c-6.311-.035-18.693.986-18.746 14.52-.035 8.98 4.141 11.259 8.389 11.509 3.519.206 7.086-.875 8.35-1.625 5.474-2.54 8.373-4.024 13.433-6.989 2.756-1.612 9.29-3.458 9.29 4.114 0 7.571-6.46 9.353-9.462 9.191V33.673l-6 3.464v12.66c.371.075 3.748.258 5.68.269 6.312.034 16.267-.456 16.32-13.991.064-16.42-13.524-11.872-16.312-10.215-5.362 3.166-8.463 5.152-13.523 8.117-2.756 1.612-9.625 2.661-9.625-4.91 0-7.572 6.46-8.92 9.461-8.758V31.53l6-3.262V14.24c-.37-.076-1.322-.259-3.254-.27zM31 38.234l-6 2.932v10.58l6-3.488z"/><path d="M3.998 45.998v1c0 7.203 5.8 13.004 13.004 13.004h29.996c7.203 0 13.004-5.8 13.004-13.004v-1c0 7.203-5.8 13.002-13.004 13.002H17.002A12.975 12.975 0 0 1 3.998 45.998" opacity=".1"/></svg>