<svg xmlns="http://www.w3.org/2000/svg" viewBox="0 0 64 64"><rect width="56.002" height="56.002" x="4" y="3.969" fill="#1ca6f2" rx="13.002" ry="13.002"/><path d="M3.998 45.998v1c0 7.203 5.8 13.004 13.004 13.004h29.996c7.203 0 13.004-5.8 13.004-13.004v-1c0 7.203-5.8 13.002-13.004 13.002H17.002A12.975 12.975 0 0 1 3.998 45.998" opacity=".15"/><path fill="#fff" d="M3.998 18.004v-1C3.998 9.801 9.798 4 17.002 4h29.996c7.203 0 13.004 5.8 13.004 13.004v1c0-7.203-5.8-13.002-13.004-13.002H17.002A12.975 12.975 0 0 0 3.998 18.004" opacity=".15"/><circle cx="32.02" cy="32.044" r="30.001" fill="none"/><circle cx="32.02" cy="32.044" r="30.001" fill="none"/><path fill="#fff" fill-rule="evenodd" d="M52.515 47.999c0-4.652-7.893-7.025-11.042-7.868 0 0 .13-2.609.435-3.565.304-.956.347-2.043.478-2.348.13-.304 1.667-1.695 1.754-2.999-.02-.778-.174-.963-.559-.963v-4.042c0-2.182-3.181-4.088-5.27-4.088s-5.27 1.906-5.27 4.088v4.042c-.384 0-.537.185-.558.963.087 1.304 1.624 2.695 1.754 3 .13.304.174 1.39.478 2.347.305.956.435 3.565.435 3.565-3.148.843-11.042 3.216-11.042 7.868z" opacity=".5"/><path fill="#fff" fill-rule="evenodd" d="M46.616 47.999c0-5.753-9.762-8.688-13.656-9.732 0 0 .161-3.225.538-4.408.376-1.183.43-2.527.591-2.904s2.062-2.096 2.17-3.71c-.026-.962-.216-1.19-.691-1.19v-4.999c0-2.7-3.935-5.056-6.518-5.056s-6.518 2.357-6.518 5.056v5c-.475 0-.665.227-.691 1.19.107 1.613 2.008 3.333 2.17 3.71.16.376.215 1.72.591 2.903s.538 4.408.538 4.408c-3.894 1.044-13.656 3.98-13.656 9.732z"/></svg>