<svg xmlns="http://www.w3.org/2000/svg" image-rendering="optimizeSpeed" viewBox="0 0 64 64"><rect width="56.002" height="56.002" x="4" y="3.969" fill="#ccc" rx="13.002" ry="13.002"/><rect width="49.999" height="49.944" x="7.001" y="6.997" fill="#333" rx="10" ry="10"/><rect width="46.002" height="46.002" x="9" y="9" fill="#fff" rx="8" ry="8"/><path d="M18.203 9v3.063h-6.521v-1.038q-.155.133-.301.274v.764h-.676q-.115.146-.223.298h.899v6.524H9v.3h2.38v6.522H9v.3h2.38v6.524H9v.3h2.38v6.523H9v.3h2.38v6.524H9v.299h2.38V52.7q.148.14.301.274v-6.498h6.522V53h-6.492q.175.155.36.3h6.132V55h.3v-1.7h6.524V55h.299v-1.7h6.523V55h.301v-1.7h6.524V55h.298v-1.7h6.524V55h.3v-1.7h6.133a8 8 0 0 0 .36-.3h-6.492v-6.523h6.521v6.498c.101-.09.204-.179.3-.274v-6.224H55v-.3h-2.381v-6.523h2.38v-.3h-2.38V32.83h2.38v-.299h-2.38v-6.523h2.38v-.301h-2.38v-6.521h2.38v-.301h-2.38V12.36h.898a8 8 0 0 0-.222-.298h-.676v-.764q-.147-.14-.301-.274v1.038h-6.522V9h-.3v3.063h-6.524V9h-.299v3.063H32.15V9h-.3v3.063h-6.524V9h-.3v3.063h-6.522V9zm-6.521 3.361h6.521v6.524h-6.521zm6.822 0h6.523v6.524h-6.523zm6.822 0h6.523v6.524h-6.523zm6.824 0h6.524v6.524H32.15zm6.823 0h6.523v6.524h-6.523zm6.824 0h6.521v6.524h-6.521zm-34.115 6.825h6.521v6.521h-6.521zm6.822 0h6.523v6.521h-6.523zm6.822 0h6.524v6.521h-6.524zm6.825 0h6.523v6.521h-6.523zm6.822 0h6.523v6.521h-6.523zm6.824 0h6.522v6.521h-6.522zm-34.115 6.822h6.522v6.523h-6.522zm6.822 0h6.524v6.523h-6.524zm6.823 0h6.523v6.523h-6.523zm6.824 0h6.523v6.523h-6.523zm6.822 0h6.524v6.523h-6.524zm6.824 0h6.522v6.523h-6.522zM11.682 32.83h6.522v6.524h-6.522zm6.823 0h6.523v6.524h-6.523zm6.822 0h6.524v6.524h-6.524zm6.824 0h6.524v6.524H32.15zm6.823 0h6.523v6.524h-6.523zm6.824 0h6.521v6.524h-6.521zm-34.115 6.824h6.521v6.524h-6.521zm6.822 0h6.524v6.524h-6.524zm6.823 0h6.523v6.524h-6.523zm6.824 0h6.523v6.524h-6.523zm6.822 0h6.523v6.524h-6.523zm6.824 0h6.522v6.524h-6.522zm-27.293 6.823h6.524V53h-6.524zm6.823 0h6.523V53h-6.523zm6.824 0h6.523V53h-6.523zm6.822 0h6.523V53h-6.523z" opacity=".15"/><path fill="#4d4d4d" d="M27.086 19.205c-.101.016-.182.164-.29.48-.207.612-.256 1.493-.528 9.71-.144 4.336-.457 8.222-.727 9.017-.35 1.03-.933.708-2.396-1.322-.754-1.045-1.606-2.109-1.895-2.363-.498-.439-.553-.441-1.059-.07-.293.215-.675.777-.85 1.25-.448 1.22-1.064 1.88-1.919 2.06-.408.086-2.51.02-4.672-.147L9 37.533l.002.705 1.965.19c1.178.115 3.275.21 4.66.21 2.936 0 3.438-.231 4.09-1.882.222-.563.496-1.088.61-1.166.432-.3 1.032.198 2.263 1.877.702.957 1.508 1.911 1.79 2.119.69.506 1.341.244 1.684-.678.35-.938.697-4.858.842-9.514.126-4.022.233-4.961.516-4.449.163.296.325 1.955.523 5.385.041.708.226 3.183.41 5.5.62 7.777.842 9.165 1.434 8.945.312-.115.724-2.042.75-3.511.011-.616.156-1.486.322-1.932.344-.922.512-.956 2.543-.537 1.845.38 2.236.141 3.028-1.853 1.063-2.68 1.104-2.745 1.718-2.825.48-.062.765.159 1.663 1.287 3.296 4.144 3.67 4.309 5.459 2.415.607-.644 1.195-1.17 1.306-1.17s.697.473 1.303 1.052c.823.75 1.488 1.057 2.406 1.164a.483.483 0 0 0 0-.966c-.876.341-1.703-.473-2.152-.899-1.483-1.417-1.974-1.4-3.22.115-1.41 1.714-1.478 1.69-4.11-1.6-2.705-3.377-3.33-3.334-4.596.315-.268.773-.707 1.66-.975 1.977-.47.555-.526.565-1.705.293-1.783-.413-2.472-.359-2.96.228-.234.28-.479.701-.546.936-.153.54-.447.55-.591.018-.167-.617-.521-4.13-.641-6.377-.152-2.852-.92-11.934-1.074-12.688-.071-.35-.258-.758-.416-.905q-.125-.12-.215-.107"/><path d="M3.998 45.998v1c0 7.203 5.8 13.004 13.004 13.004h29.996c7.203 0 13.004-5.8 13.004-13.004v-1c0 7.203-5.8 13.002-13.004 13.002H17.002A12.975 12.975 0 0 1 3.998 45.998" opacity=".15"/><path fill="#fff" d="M3.998 18.004v-1C3.998 9.801 9.798 4 17.002 4h29.996c7.203 0 13.004 5.8 13.004 13.004v1c0-7.203-5.8-13.002-13.004-13.002H17.002A12.975 12.975 0 0 0 3.998 18.004" opacity=".15"/></svg>