<svg xmlns="http://www.w3.org/2000/svg" xmlns:xlink="http://www.w3.org/1999/xlink" width="64" height="64"><defs><linearGradient id="c" x1="7.937" x2="7.937" y1="15.081" y2="1.852" gradientTransform="scale(3.7796)" gradientUnits="userSpaceOnUse"><stop offset="0" stop-color="#f1efeb"/><stop offset="1" stop-color="#fdfcfc"/></linearGradient><linearGradient id="a"><stop offset="0" style="stop-color:#fff;stop-opacity:.59836066"/><stop offset="1" style="stop-color:#4e9a06;stop-opacity:0"/></linearGradient><linearGradient id="b"><stop offset="0" style="stop-color:#41a100;stop-opacity:1"/><stop offset="1" style="stop-color:#fff;stop-opacity:0"/></linearGradient><linearGradient xlink:href="#a" id="e" x1="13" x2="40" y1="11" y2="19" gradientTransform="rotate(15.779 -1306.318 1378.537)scale(1.20822)" gradientUnits="userSpaceOnUse"/><linearGradient xlink:href="#b" id="d" x1="33" x2="4" y1="33" y2="5" gradientTransform="rotate(15.779 -1304.418 1386.074)scale(1.20822)" gradientUnits="userSpaceOnUse"/></defs><rect width="64" height="64" fill="none" rx="0" ry="0" style="paint-order:stroke fill markers"/><rect width="56.002" height="56.002" x="4" y="3.969" fill="url(#c)" rx="13.002" ry="13.002"/><g style="stroke:none"><path d="M32.627 6.67C28.943 10.347 11.112 12.664 9 33c.341 5.116 2.75 11.62 7.5 10.598.983-.212 2.039.196 2.704.81 4.351 4.01 8.528 2.374 9.651-.446.215-.54.9-.596 1.46-.372C36.858 46.2 38.614 38.646 39 33c.097-2.449-1.2-21.057-3.178-22.527-.59-.438-2.02 1.714-3.177 3.906-9.248 17.517-20.883 9.678-.407-7.224l.235-.527.271.03" style="fill:#c5f199;fill-opacity:1;fill-rule:nonzero;stroke:none;stroke-width:1px;stroke-linecap:butt;stroke-linejoin:round;stroke-opacity:1" transform="rotate(15.779 7.636 63.257)scale(.94448)"/><g style="fill:#c5f199;fill-opacity:1;stroke:none;stroke-linecap:round;stroke-linejoin:bevel;stroke-opacity:1"><path d="M24 45V33m-9 9v-7m18 7v-7" style="fill:#c5f199;fill-opacity:1;fill-rule:evenodd;stroke:none;stroke-width:1px;stroke-linecap:round;stroke-linejoin:bevel;stroke-opacity:1" transform="rotate(15.779 7.636 63.257)scale(.94448)"/></g></g><g style="fill:#73d216;fill-opacity:1;stroke:none"><path d="M35.235 13.724C31.497 21.806 22 29.947 19.495 24.634c-1.236-2.622.95-7.295 5.476-12.588-5.918 3.639-15.966 12.612-14.357 21.845-.374 3.84 2.604 10.964 6.46 8.637 1.029-.62 2.758.276 3.379 1.332 1.318 2.243 6.112 1.587 7.154.151.768-1.058 2.374-1.671 3.638-1.377 5.534 1.289 5.921-6.125 5.898-9.046 1.629-10.746-1.787-15.884-1.908-19.864" style="fill:#73d216;fill-opacity:1;fill-rule:nonzero;stroke:none;stroke-width:1px;stroke-linecap:butt;stroke-linejoin:round;stroke-opacity:1" transform="rotate(15.779 7.636 63.257)scale(.94448)"/><g style="fill:#73d216;fill-opacity:1;stroke:none;stroke-linecap:round;stroke-linejoin:bevel;stroke-opacity:1"><path d="M33 42v-7m-9 10V33m-9 9v-7" style="fill:#73d216;fill-opacity:1;fill-rule:evenodd;stroke:none;stroke-width:1px;stroke-linecap:round;stroke-linejoin:bevel;stroke-opacity:1" transform="rotate(15.779 7.636 63.257)scale(.94448)"/></g></g><path d="M329.51 447.614c2.71-5.298 7.726-5.359 16.512-2.481 5.835 0 13.676-5.522 18.11-10.471.995 19.205-7.56 38.548-15.176 31.016-1.019-1.007-1.786.096-3.29.937-1.44.805-2.132.93-3.685.528-5.122.324-6.116-7.93-8.39-6.264-4.31 3.157-5.86-5.784-4.08-13.265z" style="fill:url(#d);fill-opacity:1;fill-rule:evenodd;stroke:none;stroke-width:1px;stroke-linecap:butt;stroke-linejoin:miter;stroke-opacity:1" transform="translate(-238.803 -317.597)scale(.78171)"/><path d="M334.538 462.279c-.33-2.872-.694-8.279 1.82-11.417m10.91 3.178c-2.898 7.567-1.014 8.845.395 12.96v0l-.178-.625" style="fill:none;fill-rule:evenodd;stroke:#c5f199;stroke-width:3.62464;stroke-linecap:round;stroke-linejoin:miter;stroke-miterlimit:4;stroke-dasharray:none;stroke-opacity:1" transform="translate(-238.803 -317.597)scale(.78171)"/><path d="M58.837 11.192c-4.235 2.092-24.465 10.348-24.725 27.187.127 5.638 2.911 12.57 8.884 10.597.423-.14.507-.01.762.307 4.154 5.187 9.978 2.384 10.704-.314.103-.385-.355-.12 0 0 7.447 2.509 9.177-4.365 9.653-10.19 1.11-5.25-2.802-24.7-3.739-23.106-15.961 27.16-21.14 8.675-1.54-4.481" style="fill:none;fill-opacity:1;fill-rule:nonzero;stroke:#204c00;stroke-width:.827668;stroke-linecap:butt;stroke-linejoin:round;stroke-miterlimit:4;stroke-dasharray:none;stroke-opacity:1" transform="rotate(15.779 36.984 -19.648)scale(.94448)"/><g style="fill:none;fill-opacity:1;stroke:#306600;stroke-width:.827668;stroke-linecap:round;stroke-linejoin:bevel;stroke-miterlimit:4;stroke-dasharray:none;stroke-opacity:1"><g style="stroke:#204c00;stroke-width:.827668;stroke-miterlimit:4;stroke-dasharray:none;stroke-opacity:1"><path d="M18.646 43.904c-3.594-6.717-2.105-8.498-1.932-10.624M29.35 43.829c-3.263-3.744-3.931-7.406-3.232-10.473" style="fill:none;fill-opacity:1;fill-rule:evenodd;stroke:#204c00;stroke-width:.827668;stroke-linecap:round;stroke-linejoin:bevel;stroke-miterlimit:4;stroke-dasharray:none;stroke-opacity:1" transform="rotate(15.779 8.14 63.187)scale(.94448)"/></g></g><path d="M351.923 429.592c.185-2.304-22.608 7.325-22.318 18.168 3.968-5.156 7.823-5.581 14.15-2.999 4.613 4.309-9.182-3.547 8.168-15.17z" style="fill:url(#e);fill-opacity:1;fill-rule:evenodd;stroke:none;stroke-width:1px;stroke-linecap:butt;stroke-linejoin:round;stroke-opacity:1" transform="translate(-238.803 -317.597)scale(.78171)"/></svg>