<svg xmlns="http://www.w3.org/2000/svg" width="64" height="64"><defs><linearGradient id="a" x1="7.937" x2="7.937" y1="15.081" y2="1.852" gradientTransform="scale(3.7798)" gradientUnits="userSpaceOnUse"><stop offset="0" stop-color="#004670"/><stop offset="1" stop-color="#0086d6"/></linearGradient></defs><rect width="56.005" height="56.005" x="4.001" y="3.97" fill="url(#a)" rx="13.003" ry="13.003"/><g stroke-linecap="square" stroke-linejoin="bevel" stroke-width=".111"><path fill="#fff" d="M34.677 38.118q0 3.243-2.102 5.585-2.1 2.342-5.46 2.894v3.713a.67.67 0 0 1-.189.493.66.66 0 0 1-.485.197H23.59a.62.62 0 0 1-.474-.197.65.65 0 0 1-.2-.479v-3.713a13.3 13.3 0 0 1-2.693-.647c-.872-.31-1.59-.62-2.152-.944a12.4 12.4 0 0 1-1.562-1.013c-.478-.366-.816-.634-.985-.802a4 4 0 0 1-.366-.38c-.238-.296-.252-.592-.042-.873l2.168-2.856c.099-.14.253-.226.479-.254a.53.53 0 0 1 .507.197l.042.042c1.591 1.407 3.294 2.293 5.123 2.659a7.4 7.4 0 0 0 1.562.168c1.14 0 2.14-.296 3.012-.9.858-.605 1.295-1.463 1.295-2.575 0-.394-.112-.774-.323-1.125q-.317-.527-.718-.887c-.268-.24-.675-.506-1.238-.787q-.845-.443-1.394-.675a34 34 0 0 0-1.688-.69l-1.31-.534a24 24 0 0 1-1.307-.563 17 17 0 0 1-1.324-.647 16 16 0 0 1-1.196-.746c-.464-.31-.844-.605-1.126-.9a11 11 0 0 1-.914-1.041 4.8 4.8 0 0 1-.746-1.224 8.6 8.6 0 0 1-.45-1.407 11 11 0 0 1-.141-1.688c0-1.955.69-3.658 2.069-5.134s3.209-2.466 5.418-2.888v-3.822a.676.676 0 0 1 .678-.675h2.855q.296 0 .485.19a.66.66 0 0 1 .19.488v3.728q1.203.13 2.322.488c.746.24 1.365.478 1.83.71.464.234.914.499 1.336.796.423.295.69.502.817.614.126.113.225.212.31.296.238.257.266.525.098.808l-1.704 3.095c-.112.212-.281.324-.492.338-.197.057-.394 0-.577-.14a3 3 0 0 0-.31-.253c-.169-.126-.436-.31-.83-.563a15 15 0 0 0-1.239-.674 11 11 0 0 0-1.576-.549 7.4 7.4 0 0 0-1.802-.24c-1.336 0-2.434.31-3.279.915-.844.62-1.266 1.393-1.266 2.364 0 .366.056.704.183 1.013.112.31.324.605.62.887.295.281.576.506.83.702s.65.409 1.181.662c.524.253.95.436 1.274.576.324.127.816.324 1.477.577a49 49 0 0 1 1.717.675c.394.17.929.408 1.604.746.676.337 1.21.633 1.59.9.395.267.83.619 1.31 1.07a5.6 5.6 0 0 1 1.125 1.335c.267.465.485 1 .669 1.632.182.62.272 1.295.272 1.998l.066-.068"/><path fill="#a6c4da" d="M29.323 38.118q0 3.243 2.101 5.585t5.46 2.894v3.713c0 .197.062.366.189.493a.66.66 0 0 0 .486.197h2.85a.62.62 0 0 0 .474-.197.65.65 0 0 0 .202-.479v-3.713a13.3 13.3 0 0 0 2.692-.647c.872-.31 1.59-.62 2.152-.944q.844-.465 1.562-1.013c.478-.366.816-.634.985-.802.182-.17.294-.296.366-.38.238-.296.252-.592.042-.873l-2.167-2.855c-.098-.14-.254-.226-.478-.254a.53.53 0 0 0-.507.197l-.044.042c-1.59 1.407-3.293 2.293-5.123 2.659a7.4 7.4 0 0 1-1.562.168c-1.14 0-2.14-.296-3.011-.9-.86-.606-1.296-1.464-1.296-2.575 0-.394.113-.774.324-1.126q.316-.527.718-.886c.268-.238.676-.506 1.238-.788q.844-.443 1.393-.676c.366-.169.928-.394 1.688-.69l1.309-.534c.324-.126.76-.309 1.308-.562a17 17 0 0 0 1.323-.647c.338-.182.732-.436 1.196-.746s.844-.605 1.126-.9c.296-.287.59-.633.914-1.041.324-.393.577-.807.746-1.223a8.6 8.6 0 0 0 .45-1.407c.127-.52.183-1.075.183-1.654 0-1.944-.69-3.657-2.069-5.124s-3.194-2.448-5.404-2.87v-3.871a.68.68 0 0 0-.197-.478c-.196-.141-.351-.211-.534-.211h-2.854a.64.64 0 0 0-.482.19.66.66 0 0 0-.19.488v3.728q-1.202.13-2.331.488-1.13.361-1.838.71-.71.35-1.343.796-.633.444-.824.614-.189.17-.315.296-.36.384-.106.808l1.711 3.095q.17.318.486.338c.196.057.394 0 .576-.14.042-.043.14-.127.31-.253.169-.127.436-.31.83-.563q.57-.358 1.224-.674c.436-.197.957-.38 1.576-.549a7.3 7.3 0 0 1 1.802-.24c1.336 0 2.42.31 3.264.915.845.62 1.267 1.393 1.267 2.364 0 .366-.056.704-.183 1.014a2.6 2.6 0 0 1-.633.886c-.296.281-.578.506-.844.703s-.662.408-1.182.662c-.536.253-.958.436-1.282.576-.324.127-.816.324-1.478.577a48 48 0 0 0-1.717.675c-.395.17-.928.408-1.604.746-.676.337-1.21.633-1.604.9s-.816.619-1.31 1.069c-.478.436-.858.886-1.111 1.336a7.3 7.3 0 0 0-.676 1.632 7 7 0 0 0-.282 1.997l.057-.067"/></g></svg>