<svg xmlns="http://www.w3.org/2000/svg" viewBox="0 0 16.933 16.933"><rect width="14.817" height="14.817" x="1.058" y="1.05" fill="#4d4d4d" rx="3.44" ry="3.44"/><path d="M1.058 12.17v.265a3.433 3.433 0 0 0 3.44 3.44h7.937a3.433 3.433 0 0 0 3.44-3.44v-.265a3.433 3.433 0 0 1-3.44 3.44H4.498a3.433 3.433 0 0 1-3.44-3.44" opacity=".35"/><path fill="#fff" d="M1.058 4.763V4.5a3.433 3.433 0 0 1 3.44-3.44h7.937a3.433 3.433 0 0 1 3.44 3.44v.264a3.433 3.433 0 0 0-3.44-3.44H4.498a3.433 3.433 0 0 0-3.44 3.44" opacity=".15"/><rect width="12.7" height="12.7" x="2.117" y="2.117" fill="#262626" rx="2.381" ry="2.381"/><path fill="#62c9ea" d="M3.969 4.277v-.569L5.82 4.762V5.3L3.969 6.354v-.57l1.394-.75z" aria-label="&gt;"/><rect width="2.117" height=".529" x="6.614" y="6.614" fill="#62c9ea" rx="0" ry="0"/></svg>