<svg xmlns="http://www.w3.org/2000/svg" xmlns:xlink="http://www.w3.org/1999/xlink" width="64" height="64"><defs><clipPath id="b"><path d="M0 0h192v152H0z"/></clipPath><clipPath id="c"><path d="M0 0h192v152H0z"/></clipPath><clipPath id="d"><path d="M0 0h192v152H0z"/></clipPath><mask id="g"><g filter="url(#a)"><path fill-opacity=".15" d="M0 0h128v128H0z"/></g></mask><mask id="i"><g filter="url(#a)"><path fill-opacity=".15" d="M0 0h128v128H0z"/></g></mask><mask id="k"><g filter="url(#a)"><path fill-opacity=".15" d="M0 0h128v128H0z"/></g></mask><g id="f" clip-path="url(#b)"><path fill="#3d3846" d="M36 52.031h2V62h-2z"/></g><g id="h" clip-path="url(#c)"><path fill="#3d3846" d="M58 52.031h2V64h-2z"/></g><g id="j" clip-path="url(#d)"><path fill="#3d3846" d="M34 54.031h28v2H34z"/></g><linearGradient id="e" x1="7.937" x2="7.937" y1="15.081" y2="1.852" gradientTransform="scale(3.7796)" gradientUnits="userSpaceOnUse"><stop offset="0" stop-color="#f1efeb"/><stop offset="1" stop-color="#fdfcfc"/></linearGradient><filter id="a" width="1" height="1" x="0" y="0"><feColorMatrix in="SourceGraphic" values="0 0 0 0 1 0 0 0 0 1 0 0 0 0 1 0 0 0 1 0"/></filter></defs><rect width="56.002" height="56.002" x="4" y="3.969" fill="url(#e)" rx="13.002" ry="13.002"/><use xlink:href="#f" mask="url(#g)" transform="translate(-5.76 -15.028)scale(.54723)"/><use xlink:href="#h" mask="url(#i)" transform="translate(-5.76 -15.028)scale(.54723)"/><use xlink:href="#j" mask="url(#k)" transform="translate(-5.76 -15.028)scale(.54723)"/><path fill="#5c5c63" d="M27.212 20.044a3.604 3.604 0 0 0-3.61-3.598 3.61 3.61 0 0 0-3.094 1.745 3.61 3.61 0 0 0-3.093-1.745 3.605 3.605 0 0 0-3.61 3.598c0 1.035.438 1.967 1.139 2.623h-.002l5.483 5.263 5.65-5.263h-.002a3.58 3.58 0 0 0 1.139-2.623m16.28-4.427c-3.602 0-6.567 2.965-6.567 6.567s2.965 6.567 6.567 6.567 6.567-2.965 6.567-6.567-2.965-6.567-6.567-6.567m0 4.378c1.236 0 2.189.953 2.189 2.189s-.953 2.189-2.189 2.189-2.189-.954-2.189-2.19.953-2.188 2.189-2.188m-4.925 17.512c-1.516 0-2.736 1.22-2.736 2.736s1.22 2.736 2.736 2.736 2.736-1.22 2.736-2.736-1.22-2.736-2.736-2.736m7.661 0c-1.515 0-2.736 1.22-2.736 2.736s1.22 2.736 2.736 2.736 2.736-1.22 2.736-2.736-1.22-2.736-2.736-2.736m-7.661 7.661a2.73 2.73 0 0 0-2.736 2.736 2.73 2.73 0 0 0 2.736 2.737 2.73 2.73 0 0 0 2.736-2.737 2.73 2.73 0 0 0-2.736-2.736m7.661 0a2.73 2.73 0 0 0-2.736 2.736c0 1.516 1.22 2.737 2.736 2.737s2.736-1.22 2.736-2.737a2.73 2.73 0 0 0-2.736-2.736m-24.643-8.226c-.67 0-1.27.406-1.522 1.024-.25.62-.1 1.33.378 1.795l2.123 2.123h-6.981a1.64 1.64 0 0 0-1.441 2.47c.297.51.848.822 1.44.814h6.982l-2.123 2.122a1.642 1.642 0 1 0 2.322 2.322l4.78-4.78q.176-.136.312-.31l.994-.996-.994-.996a1.8 1.8 0 0 0-.317-.314l-4.775-4.776a1.64 1.64 0 0 0-1.178-.498"/><path fill="#855c3a" d="M43.409 61.585 10.432 4.465l-.32-1.503h-.548v58.622zm-13.27-7.661H17.226V31.556z"/><path fill="#ccab8f" d="M43.458 61.038 9.613 2.416v58.622zM30.19 53.377H17.274V31.009z"/><path fill="#b38259" d="M31.233 53.376 18.32 31.008h-1.095l12.913 22.368zM10.658 4.311 9.564 2.415v58.622h1.094z"/><path fill="none" stroke="#855c3a" stroke-width=".547" d="M12.471 59.67H9.735m2.736-8.209H9.735m2.736-8.209H9.735m2.736-8.208H9.735m2.736-8.209H9.735m2.736-8.208H9.735m2.736-8.209H9.735m1.641 47.61H9.734m1.642-1.642H9.734m1.642-1.642H9.734m1.642-1.641H9.734m1.642-3.284H9.734m1.642-1.641H9.734m1.642-1.642H9.734m1.642-1.642H9.734m1.642-3.283H9.734m1.642-1.642H9.734m1.642-1.642H9.734m1.642-1.641H9.734m1.642-3.284H9.734m1.642-1.641H9.734m1.642-1.642H9.734m1.642-1.642H9.734m1.642-3.283H9.734m1.642-1.642H9.734m1.642-1.642H9.734m1.642-1.641H9.734m1.642-3.284H9.734m1.642-1.641H9.734m1.642-1.642H9.734m1.642-1.642H9.734m1.642-3.283H9.734m1.642-1.642H9.734"/></svg>