<svg xmlns="http://www.w3.org/2000/svg" viewBox="0 0 64 64"><defs><linearGradient id="a" x1="736.82" x2="738.94" y1="307.47" y2="233.22" gradientTransform="matrix(.12113 0 0 .1296 -57.557 -20.151)" gradientUnits="userSpaceOnUse"><stop offset="0" stop-color="#cbcbcb"/><stop offset="1" stop-color="#f3f3f3"/></linearGradient></defs><rect width="56.002" height="56.002" x="4" y="3.969" fill="#f2f2f2" rx="13.002" ry="13.002"/><path d="M3.998 45.998v1c0 7.203 5.8 13.004 13.004 13.004h29.996c7.203 0 13.004-5.8 13.004-13.004v-1c0 7.203-5.8 13.002-13.004 13.002H17.002A12.975 12.975 0 0 1 3.998 45.998" opacity=".1"/><path fill="#fff" d="M3.998 18.004v-1C3.998 9.801 9.798 4 17.002 4h29.996c7.203 0 13.004 5.8 13.004 13.004v1c0-7.203-5.8-13.002-13.004-13.002H17.002A12.975 12.975 0 0 0 3.998 18.004" opacity=".5"/><path fill-rule="evenodd" d="M14.114 52.896h35.981l.233.419v.683H13.881v-.706z"/><path fill="#ccc" d="M13.783 20.068h36.173l3.858 3.954v9.792H10.165v-9.838z"/><path fill="#b8b8b8" d="M53.84 33.806v9.685c0 .99-.746 1.788-1.672 1.788H11.83c-.926 0-1.671-.797-1.671-1.788v-9.782z"/><g fill-rule="evenodd" stroke-width=".747"><path fill="#333" d="M18.658 19.974h26.699l1.211 2.77v5.02s.007 2.015-1.884 2.015H19.33s-1.824-.08-1.884-1.924v-5.143z"/><path fill="#232323" d="M17.736 37.278h28.522c1.186 0 2.141 1.022 2.141 2.291v5.728H15.594v-5.728c0-1.27.955-2.291 2.142-2.291"/><path d="M19.779 39.662h24.839c1.186 0 2.141 1.022 2.141 2.291v3.345H17.637v-3.345c0-1.27.955-2.291 2.142-2.291"/><path fill="#343434" d="M15.588 45.28h32.804l1.935 8.019H13.895z"/><path fill="#e5e5e5" d="M19.524 39.662h25.481L46.216 51.3H18.312z"/><path fill="#2e2e2e" d="M17.129 12.117h29.435v7.905H17.129z"/><path fill="url(#a)" d="M19.231 10.073h25.567v9.989H19.231z"/><path fill="#3b3b3b" d="M51.135 27.742h2.68v1.912h-2.68c-.495 0-.893-.427-.893-.956s.398-.956.893-.956"/><rect width="2.42" height="1.161" x="50.888" y="28.129" fill="#d5d5d5" ry=".58"/></g><path fill="#e5e5e5" d="M19.231 10.073h25.567v9.989H19.231z"/></svg>