<svg xmlns="http://www.w3.org/2000/svg" viewBox="0 0 64 64"><rect width="56.002" height="56.002" x="4" y="3.969" fill="#f2f2f2" rx="13.002" ry="13.002"/><path d="M3.998 45.998v1c0 7.203 5.8 13.004 13.004 13.004h29.996c7.203 0 13.004-5.8 13.004-13.004v-1c0 7.203-5.8 13.002-13.004 13.002H17.002A12.975 12.975 0 0 1 3.998 45.998" opacity=".1"/><path fill="#fff" d="M3.998 18.004v-1C3.998 9.801 9.798 4 17.002 4h29.996c7.203 0 13.004 5.8 13.004 13.004v1c0-7.203-5.8-13.002-13.004-13.002H17.002A12.975 12.975 0 0 0 3.998 18.004" opacity=".5"/><path fill="#add439" d="M32.113 10.809c-.07-.002-.138.007-.208.008l.045 10.142L32 32l9.55-5.479 8.817-5.056a4.8 4.8 0 0 0-1.777-1.828L34.41 11.45a4.8 4.8 0 0 0-2.297-.642z"/><path fill="#ac1248" d="M13.717 21.293a4.8 4.8 0 0 0-.717 2.52v16.374c0 .907.262 1.772.724 2.517l8.776-5.141L32 32l-9.5-5.564z"/><path fill="#3471b9" d="m50.276 21.296-8.776 5.14L32 32l18.287 10.709A4.8 4.8 0 0 0 51 40.188V23.813a5 5 0 0 0-.04-.574q-.01-.09-.026-.182a5 5 0 0 0-.072-.362 5 5 0 0 0-.064-.244 5 5 0 0 0-.09-.267c-.034-.093-.065-.187-.104-.277l-.016-.038-.002.002a5 5 0 0 0-.31-.575"/><path fill="#86b02f" d="M32.095 10.809a4.8 4.8 0 0 0-2.505.641l-14.18 8.188a4.8 4.8 0 0 0-1.791 1.82l8.832 5.064L32 32l.049-11.042z"/><path fill="#2e90e8" d="m32 32-.05 11.042-.045 10.15a4.8 4.8 0 0 0 2.505-.644l14.18-8.188a4.8 4.8 0 0 0 1.79-1.817l-8.83-5.064z"/><path fill="#eb2f6a" d="m32 32-9.55 5.478-8.817 5.057c.169.298.359.584.587.842l.091.105q.119.125.247.243a5 5 0 0 0 .165.145q.117.098.24.192a5 5 0 0 0 .447.298l14.18 8.188a4.8 4.8 0 0 0 2.505.637l-.046-10.143z"/><path fill="#fff" d="m32 18.492 11.692 6.752v13.45L32 45.445l-11.692-6.753V25.244z"/><path fill="#cedbe6" d="m32 18.492 11.692 6.752v13.45L32 45.445z"/><path fill="#dee5c0" d="m32 18.492-11.692 6.752L32 31.997l11.692-6.753z"/></svg>