<svg xmlns="http://www.w3.org/2000/svg" viewBox="0 0 64 64"><rect width="56.002" height="56.002" x="4" y="3.969" fill="#ececec" rx="13.002" ry="13.002"/><path d="M3.998 45.998v1c0 7.203 5.8 13.004 13.004 13.004h29.996c7.203 0 13.004-5.8 13.004-13.004v-1c0 7.203-5.8 13.002-13.004 13.002H17.002A12.975 12.975 0 0 1 3.998 45.998" opacity=".1"/><path fill="#fff" d="M3.998 18.004v-1C3.998 9.801 9.798 4 17.002 4h29.996c7.203 0 13.004 5.8 13.004 13.004v1c0-7.203-5.8-13.002-13.004-13.002H17.002A12.975 12.975 0 0 0 3.998 18.004" opacity=".5"/><g stroke-width="1.391" transform="translate(3.693 4.925)scale(.88455)"><path fill="#f5602b" d="m19.99 35.478-5.04 2.326c-1.383.638-1.383 1.667 0 2.304l14.556 6.718c1.382.638 3.607.638 4.99 0l14.556-6.718c1.382-.637 1.382-1.666 0-2.304l-5.04-2.326-9.517 4.39c-1.382.639-3.607.639-4.989 0z"/><path fill="#a4cf3b" d="m19.99 27.13-5.04 2.326c-1.382.638-1.382 1.667 0 2.304l14.556 6.717c1.382.64 3.608.64 4.99 0l14.556-6.717c1.382-.637 1.382-1.667 0-2.304l-5.04-2.326-9.517 4.391c-1.381.639-3.607.639-4.989 0z"/><rect width="21.526" height="21.526" x="-19.7" y="33.419" fill="#4aaad6" fill-opacity=".996" ry="2.747" transform="matrix(.90796 -.41906 .90796 .41906 0 0)"/></g></svg>