<svg xmlns="http://www.w3.org/2000/svg" viewBox="0 0 64 64"><rect width="56.002" height="56.002" x="4" y="3.969" fill="#f2f2f2" rx="13.002" ry="13.002"/><path d="M3.998 45.998v1c0 7.203 5.8 13.004 13.004 13.004h29.996c7.203 0 13.004-5.8 13.004-13.004v-1c0 7.203-5.8 13.002-13.004 13.002H17.002A12.975 12.975 0 0 1 3.998 45.998" opacity=".1"/><path fill="#fff" d="M3.998 18.004v-1C3.998 9.801 9.798 4 17.002 4h29.996c7.203 0 13.004 5.8 13.004 13.004v1c0-7.203-5.8-13.002-13.004-13.002H17.002A12.975 12.975 0 0 0 3.998 18.004" opacity=".5"/><g stroke-width=".836"><path fill="#a1a1a3" stroke="gray" d="M47.451 41.289c0 3.409-6.924 6.175-15.454 6.175s-15.454-2.767-15.454-6.175c0-9.877-1.89-6.046 15.454-6.175 17.741-.133 15.454-4.552 15.454 6.175z"/><path fill="#868688" stroke="#adadad" d="M47.464 35.343c0 3.462-6.924 6.27-15.464 6.27s-15.464-2.808-15.464-6.27 6.924-6.27 15.464-6.27 15.464 2.808 15.464 6.27z"/><path fill="#a1a1a3" stroke="gray" d="M47.451 33.766c0 3.409-6.924 6.175-15.454 6.175s-15.454-2.767-15.454-6.175c0-10.926-1.89-6.046 15.454-6.175 17.741-.133 15.454-4.756 15.454 6.175z"/><path fill="#868688" stroke="#adadad" d="M47.464 27.82c0 3.462-6.924 6.27-15.464 6.27s-15.464-2.808-15.464-6.27S23.46 21.55 32 21.55s15.464 2.808 15.464 6.27z"/><path fill="#a1a1a3" stroke="gray" d="M47.451 26.243c0 3.409-6.924 6.175-15.454 6.175s-15.454-2.767-15.454-6.175c0-11.662-1.89-6.046 15.454-6.175 17.741-.133 15.454-4.632 15.454 6.175z"/><path fill="#d0d0d1" stroke="gray" d="M47.464 20.297c0 3.462-6.924 6.27-15.464 6.27s-15.464-2.808-15.464-6.27 6.924-6.27 15.464-6.27 15.464 2.808 15.464 6.27z"/></g></svg>