<svg xmlns="http://www.w3.org/2000/svg" viewBox="0 0 64 64"><path fill="#e0e4e7" d="M17.002 4a12.96 12.96 0 0 0-12.547 9.625c7.21.156 28.768 1.48 30.613 10.707 1.534 7.668-9.202 9.201-6.135 16.869 2.922 7.247 22.56 8.511 28.287 8.991l2.32.198c.39-1.188.46-2.332.46-3.392V17.002C60 9.799 54.2 4 46.998 4z"/><path fill="#4d567d" fill-rule="evenodd" d="m8.412 13.596-3.95.002A13 13 0 0 0 4 17.002v29.996C4 54.201 9.8 60 17.002 60h29.996a12.96 12.96 0 0 0 12.543-9.61c-9.103-.772-28.753-3.302-31.062-9.077-3.067-7.668 8.122-9.313 6.588-16.98-1.92-9.6-20.428-10.661-26.654-10.736z"/><path fill="#343739" fill-rule="evenodd" d="m8.351 13.598-.032.043c7.198.217 23.452 1.706 25.248 10.69 1.534 7.668-9.268 9.135-6.2 16.803 2.836 7.09 25.257 10.325 28.635 10.365l.826-2.666c-3.376-.04-25.058-.541-27.894-7.632-3.067-7.668 7.668-9.201 6.135-16.869-1.92-9.6-20.49-10.66-26.716-10.734"/><g stroke-linecap="round" stroke-linejoin="bevel" stroke-width="2"><circle cx="-14" cy="9.5" r="3" fill="#343739" transform="rotate(-90)"/><circle cx="9.5" cy="14" r="1.5" fill="#fff"/><g fill="#343739" transform="rotate(-90)"><circle cx="-41" cy="29" r="4.5"/><circle cx="-25.25" cy="34.25" r="3.75"/><circle cx="-48.5" cy="53" r="6"/></g></g><g fill="#fff" stroke-linecap="round" stroke-linejoin="bevel" stroke-width="2"><circle cx="34.25" cy="25.25" r="2.25"/><circle cx="29" cy="41" r="3"/><circle cx="53" cy="48.5" r="4.5"/></g><path d="M3.998 45.998v1c0 7.203 5.8 13.004 13.004 13.004h29.996c7.203 0 13.004-5.8 13.004-13.004v-1c0 7.203-5.8 13.002-13.004 13.002H17.002A12.975 12.975 0 0 1 3.998 45.998" opacity=".15"/><path fill="#fff" d="M3.998 18.004v-1C3.998 9.801 9.798 4 17.002 4h29.996c7.203 0 13.004 5.8 13.004 13.004v1c0-7.203-5.8-13.002-13.004-13.002H17.002A12.975 12.975 0 0 0 3.998 18.004" opacity=".15"/></svg>