<svg xmlns="http://www.w3.org/2000/svg" viewBox="0 0 64 64"><rect width="56" height="56" x="4" y="4" fill="#f2f2f2" rx="13.002" ry="13.002"/><g fill="#ff701f" stroke-width="3.78"><path fill-rule="evenodd" d="M25.196 15.166a8 8 0 0 0-2.2.264c-1.934.502-3.785 1.674-5.105 3.266-1.315 1.583-2.101 3.597-1.842 5.741.273 3.661 1.99 9.683 4.13 14.835 1.072 2.58 2.249 4.934 3.422 6.66.586.866 1.168 1.574 1.755 2.077.574.494 1.163.8 1.77.796a3.6 3.6 0 0 0 2.79-.81c.808-.632 1.5-1.539 2.15-2.54 1.256-1.943 2.386-4.41 3.672-5.872.126.147.297.61.502.983.402.75.923 1.84 1.593 2.95.67 1.114 1.493 2.176 2.532 3.056 1.035.87 2.297 1.424 3.788 1.428.896.067 1.8.005 2.525-.36.733-.368 1.29-.958 1.323-1.867v-.008a1.78 1.78 0 0 0-.896-1.554c-.507-.319-1.126-.531-1.78-.87-1.302-.679-2.78-1.78-3.668-4.985-.703-2.542-1.634-4.445-2.614-5.726-.98-1.278-1.771-2.415-3.024-2.273-2.182.247-3.207 3.376-4.246 5.034-.636 1.022-1.236 2.038-1.755 2.846-.419.658-.733 1.024-.98 1.275-.805-.863-1.283-1.792-1.2-2.89.101-1.23.806-2.638 1.455-4.133 1.298-2.986 2.952-6.346 2.612-9.668-.247-2.429-1.518-5.15-3.302-6.549a5.9 5.9 0 0 0-2.682-1.047 6 6 0 0 0-.725-.059m-.176 4.116c1.261.494 2.246 1.576 2.673 2.409a9.8 9.8 0 0 0-2.681-1.132 6.4 6.4 0 0 0-2.223 1.286 4.2 4.2 0 0 1 2.231-2.563m-4.882 1.922c1.021.015 2.007.296 2.651.626-1.118.033-2.16.207-2.902.458a5.25 5.25 0 0 0-1.07 2.121c-.385-1.122-.293-2.187.297-3.125a5.3 5.3 0 0 1 1.024-.08m4.685.6c1.094-.105 2.04 1.294 2.11 3.12a4.3 4.3 0 0 1-.354 1.972 11 11 0 0 0-2.957.474c-.058-.092-.127-.176-.177-.277a3 3 0 0 1-.05.348c-.967.323-1.808.892-2.478 1.403-.47-.511-.835-1.333-.944-2.296-.192-1.667.428-3.371 1.383-3.468.624-.062 1.23.738 1.636 1.572.122-1.533.877-2.756 1.831-2.848m2.87 5.804c-.03 2.63-2.64 5.78-4.227 5.768-2.232-.021-2.994-1.537-3.48-2.584 2.522-.6 5.726-2.02 7.707-3.184"/><path d="M22.58 26.092a.702.966 0 0 1-1.404 0 .702.966 0 1 1 1.403 0zm3.01-.72a.702.966 0 0 1-1.402 0 .702.966 0 1 1 1.403 0z"/><path d="M27.45 29.024c-.46.607-1.436 1.068-3.057 1.78 1.847-.39 1.814-.013 1.872.552a7.8 7.8 0 0 0 1.186-2.332zm-3.894 2.102c-1.717.503-2.471.62-3.192.406a3.42 3.42 0 0 0 1.625 1.55c-.28-.565-.28-1.08 1.562-1.956z" opacity=".5"/></g><path d="M3.998 45.998v1c0 7.203 5.8 13.004 13.004 13.004h29.996c7.203 0 13.004-5.8 13.004-13.004v-1c0 7.203-5.8 13.002-13.004 13.002H17.002A12.975 12.975 0 0 1 3.998 45.998" opacity=".1"/><path fill="#fff" d="M3.998 18.004v-1C3.998 9.801 9.798 4 17.002 4h29.996c7.203 0 13.004 5.8 13.004 13.004v1c0-7.203-5.8-13.002-13.004-13.002H17.002A12.975 12.975 0 0 0 3.998 18.004" opacity=".5"/></svg>