<svg xmlns="http://www.w3.org/2000/svg" xmlns:xlink="http://www.w3.org/1999/xlink" width="64" height="64"><defs><linearGradient id="b"><stop offset="0" style="stop-color:#66adff;stop-opacity:1"/><stop offset="1" style="stop-color:#66adff;stop-opacity:.57741475"/></linearGradient><linearGradient id="a"><stop offset="0" style="stop-color:#bbdcfb;stop-opacity:1"/><stop offset="1" style="stop-color:#d8ebfd;stop-opacity:1"/></linearGradient><linearGradient xlink:href="#a" id="c" x1="32" x2="32" y1="59.971" y2="3.969" gradientUnits="userSpaceOnUse"/><linearGradient xlink:href="#b" id="d" x1="26.338" x2="26.338" y1="59.971" y2="6.351" gradientUnits="userSpaceOnUse"/></defs><rect width="56.002" height="56.002" x="4" y="3.969" fill="#cee5fd" rx="13.002" ry="13.002" style="fill:url(#c)"/><path fill="#66adff" d="M17.002 3.969c-2.382.036-4.974.62-6.856 2.059.847.635 2.703.643.536.85-4.81.792-6.89 6.327-6.682 10.727.028 1.292-.457 3.01 1.548 2.655 2.424 1.276 4.394-.78 6.674.155 1.306-.07.45 3.008 2.365 2.018-1.653-3.552 2.812-4.375 4.48-6.242-.13-1.938 3.013-2.943 4.566-3.843.23-1.436 4.402-2.868 3.366-1.036.794-.743 4.51-1.032 3.447-2.008-1.21 1.391-2.834-.395-1.404-1.555-2.817-.004.623-1.658 1.146-.03.334-.247-.35-1.117 1.273-.729.958-.23 3.627-1.37 1.607.258-2.6 1.724 1.008 1.485 2.202 1.902.625-1.317-.56-1.627-.994-2.31 1.716-1.292.374-3.38-1.523-2.871zm-1.19 3.738c1.298.247 1.217 1.288 0 0m.975.936c.21.67-.527.749 0 0m.68 1.007c1.807.181 1.307.78.119 1.374-.985 1.664-1.138-1.838-.119-1.373m-1.615.112c-.128.47-1.521 2.033-2.196 2.691-.569-.827 1.23-2.777 2.195-2.691m4.257 1.29c1.402.818-2.704.061 0 .001m38.646.376c-1.345 2.048-2.799 4.06-4.024 6.156-2.294.798-1.78 3.894-4.291 4.458-1.256 1.71-3.234 3.578-2.19 5.675-.478 2.236-1.297 4.764 1.474 6.115.9 2.571 4.012 4.144 6.594 3.029 3.476.97 4.034-2.583 3.683-5.246-.049-5.37.102-10.75-.083-16.115a13 13 0 0 0-1.163-4.072m-40.977.5c1.153.545-3.172.969-1.027.236l.494-.13zm35.725 2.127c-.81 1.695 2.265 1.78.705.583l-.371-.267ZM8.94 25.932c-2.139-.263-2.296 2.852-4.664 2.144-1.119 3.636 4.982 2.343 5.034 5.481 1.4.745 3.185 2.976 4.173.792 2.344 1.861.461 4.65-1.069 6.317-.587 1 .929 1.822-.445 2.584.915 2.232 2.939 4.11 3.776 6.498 1.777 1.773 5.413 2.333 4.53 5.731.122 1.49.079 2.981.181 4.492 4.569-.033 9.141.069 13.707-.055.747-1.59.207-3.735 2.726-4.125 3.291-.068 3.013-4.334 3.252-6.635 1.31-1.522 4.116-5.131.58-5.718-1.645-1.953-4.353-.919-6.059-2.564-3.192.195-2.165-5.026-5.753-4.542-2.376.09-3.074-2.974-4.657-3.142-1.656.658-3.303-.175-4.811-.67-1.262 1.186-.368-1.497-1.939.197-1.905-.16-2.04 3.138-3.966 1.266-2.714 1.618-3.267-2.036-2.423-3.762-.944-1.162-4.412.411-2.612-1.985.244-.666 1.043-1.636.439-2.304m9.622 7.6c.875.912-.998.48 0 0" style="fill:url(#d)"/><path fill="#054694" d="m39 12.852-6 3.508v10.533l6-3.487zm-11.254 1.12c-6.311-.035-18.693.986-18.746 14.52-.035 8.98 4.141 11.259 8.389 11.509 3.519.206 7.086-.875 8.35-1.625 5.474-2.54 8.373-4.024 13.433-6.989 2.756-1.612 9.29-3.458 9.29 4.114 0 7.571-6.46 9.353-9.462 9.191V33.673l-6 3.464v12.66c.371.075 3.748.258 5.68.269 6.312.034 16.267-.456 16.32-13.991.064-16.42-13.524-11.872-16.312-10.215-5.362 3.166-8.463 5.152-13.523 8.117-2.756 1.612-9.625 2.661-9.625-4.91 0-7.572 6.46-8.92 9.461-8.758V31.53l6-3.262V14.24c-.37-.076-1.322-.259-3.254-.27zM31 38.234l-6 2.932v10.58l6-3.488z"/></svg>