<svg xmlns="http://www.w3.org/2000/svg" viewBox="0 0 64 64"><rect width="56.002" height="56.002" x="4" y="3.969" fill="#e6e6e6" rx="13.002" ry="13.002"/><path d="M3.998 45.998v1c0 7.203 5.8 13.004 13.004 13.004h29.996c7.203 0 13.004-5.8 13.004-13.004v-1c0 7.203-5.8 13.002-13.004 13.002H17.002A12.975 12.975 0 0 1 3.998 45.998" opacity=".12"/><path fill="#fff" d="M3.998 18.004v-1C3.998 9.801 9.798 4 17.002 4h29.996c7.203 0 13.004 5.8 13.004 13.004v1c0-7.203-5.8-13.002-13.004-13.002H17.002A12.975 12.975 0 0 0 3.998 18.004" opacity=".2"/><path fill="#dc3a2d" d="M33.868 17.334c-.383-.005-.877.034-1.552.11-4.78.533-8.766 3.624-13.326 10.331l-3.933 5.78c-3.31 4.863-3.168 9.852.342 11.95 2.269 1.356 4.46 1.894 7.93 1.947 1.745.026 4.299.156 5.676.289 3.841.37 4.322.361 7.026-.131 3.027-.55 5.361-1.698 7.236-3.554 1.472-1.457 3.575-5.491 3.904-7.255 2.761-8.576-7.002-19.032-13.303-19.466z"/><path fill="#75ac4c" d="M35.51 16c-.177 0-.229.342-.12.793 0 0 .316 1.44 2.427 2.495 1.468.686 1.465 1.082-.01 1.493-.643.179-1.424.519-1.736.755-.515.389-.327.55 2.02 1.73 1.422.716 2.849 1.51 3.17 1.766.56.444.534.506-.556 1.366-1.217.96-2.657 3.206-2.657 4.143 0 .507.238.548 2.242.388a103 103 0 0 0 3.015-.275l.773-.096-.11 2.549c-.062 1.402-.24 2.897-.396 3.324-.157.426-.222.84-.145.92.324.335 1.646-.405 2.553-1.43.927-1.047.986-1.068 1.183-.426.663 1.152.957 2.161 1.987 3.17.23.022.406-.256.553-.828.455-1.763.211-3.47-.746-5.233-.515-.95-1.02-2.446-1.122-3.326s-.27-1.903-.373-2.274c-.157-.565.147-.894 1.847-2.005 1.936-1.265 2.436-1.985 1.703-2.454-.181-.116-1.14.236-2.13.782s-1.994.992-2.231.992c-.238 0-.984-.683-1.658-1.519-1.17-1.45-1.225-1.617-1.225-3.759 0-2.035-.06-2.25-.651-2.337-.479-.07-.756.163-1.042.88-.215.537-.5.976-.632.976-.133 0-1.451-.576-2.93-1.28S35.681 16 35.51 16"/><path fill="#b4291e" d="M31.795 27.38c-.77.77-1.954.831-2.647.139s-.63-1.877.14-2.647 2.346-1.223 3.038-.53c.692.692.238 2.268-.53 3.038m-2.668 6.666c-.769.77-1.954.832-2.646.14-.693-.693-.63-1.878.14-2.647.768-.77 2.345-1.223 3.037-.53.693.692.239 2.268-.53 3.037m9.333 4c-.77.77-1.954.832-2.647.14-.692-.693-.63-1.878.14-2.647.769-.77 2.345-1.223 3.038-.53.692.692.238 2.268-.531 3.037m-2.667 6.667c-.77.77-1.954.832-2.646.14-.693-.693-.63-1.878.139-2.647.77-.77 2.346-1.223 3.038-.531s.238 2.269-.53 3.038m-8.001-1.333c-.77.77-1.954.832-2.647.14-.692-.693-.63-1.878.14-2.647.77-.77 2.346-1.224 3.038-.531.692.692.238 2.269-.53 3.038m-8.001-2.667c-.77.77-1.954.832-2.647.14-.692-.693-.63-1.878.14-2.647.77-.77 2.346-1.224 3.038-.531.692.692.238 2.269-.53 3.038m2.666-8c-.77.77-1.954.832-2.647.14-.692-.693-.63-1.878.14-2.647.769-.77 2.345-1.224 3.038-.531.692.692.238 2.269-.531 3.038"/></svg>