<svg xmlns="http://www.w3.org/2000/svg" width="64" height="64"><defs><linearGradient id="d" x1="280.78" x2="200.59" y1="-22.2" y2="-381.36" gradientTransform="matrix(.086 0 0 .0864 11.27 49.471)" gradientUnits="userSpaceOnUse"><stop offset="0" stop-color="#2990d6"/><stop offset="1" stop-color="#4eb2d1"/></linearGradient><linearGradient id="c" x1="197.27" x2="278.65" y1="-382.35" y2="-9.261" gradientTransform="matrix(.086 0 0 .0864 11.27 49.471)" gradientUnits="userSpaceOnUse"><stop offset="0" stop-color="#327890"/><stop offset="1" stop-color="#2d5795"/></linearGradient><linearGradient id="a" x1="7.937" x2="7.937" y1="15.081" y2="1.852" gradientTransform="scale(3.7796)" gradientUnits="userSpaceOnUse"><stop offset="0" stop-color="#f1efeb"/><stop offset="1" stop-color="#fdfcfc"/></linearGradient><filter id="b" width="1.216" height="1.216" x="-.108" y="-.108" color-interpolation-filters="sRGB"><feGaussianBlur stdDeviation="1.71"/></filter></defs><rect width="64" height="64" fill="none" rx="0" ry="0" style="paint-order:stroke fill markers"/><rect width="56.002" height="56.002" x="4" y="3.969" fill="url(#a)" rx="13.002" ry="13.002"/><path d="m34.252 14-12.629 2.89 2.287 10.085 7.76 4.97 4.869-7.863zm13.869 8.662-10.035 2.299-4.947 7.795 7.824 4.892L51 35.351zm-25.086 5.652L13 30.614 15.879 43.3l10.035-2.299 4.947-7.795zm9.135 5.74-4.87 7.862L29.589 52l12.629-2.893-2.287-10.082z" filter="url(#b)" opacity=".15"/><path fill="url(#c)" d="m34.252 13-12.629 2.89 2.287 10.085 7.76 4.97 4.869-7.863zm13.869 8.662-10.035 2.299-4.947 7.795 7.824 4.892L51 34.351l-2.88-12.688zm-25.086 5.652L13 29.614 15.879 42.3l10.035-2.299 4.947-7.795zm9.135 5.74-4.87 7.862L29.589 51l12.629-2.893-2.287-10.082z"/><path fill="url(#d)" d="m33.26 14.684-10.016 2.295 1.752 7.72 6.123 3.81 3.893-6.102zm13.779 8.607-7.684 1.76-3.79 6.152 6.074 3.91 7.683-1.76-2.283-10.061zM22.361 28.85l-7.686 1.76 2.284 10.062 7.685-1.76 3.791-6.152zm10.359 6.643-3.893 6.101 1.752 7.72 10.016-2.292-1.752-7.72-6.123-3.81z"/></svg>