<svg xmlns="http://www.w3.org/2000/svg" viewBox="0 0 64 64"><rect width="56" height="56" x="4" y="4" fill="#4d4d4d" rx="13.002" ry="13.002"/><path fill="#fff" d="M31.999 24c0 4.417-3.584 8-8 8s-8-3.584-8-8 3.584-8 8-8 8 3.584 8 8m15.999 15.999c0 4.417-3.584 8-8 8s-8-3.584-8-8 3.584-8 8-8 8 3.584 8 8"/><path fill="#333" d="M47.998 24c0 4.417-3.584 8-8 8s-8-3.584-8-8 3.584-8 8-8 8 3.584 8 8M31.999 39.999c0 4.417-3.584 8-8 8s-8-3.584-8-8 3.584-8 8-8 8 3.584 8 8"/><path fill="#ffcf3a" d="m27.405 45.332-3.443-1.844-3.469 1.787.694-3.844-2.776-2.746 3.869-.53 1.754-3.49 1.703 3.516 3.86.594-2.823 2.702m16.631-12.144-3.443-1.844-3.469 1.787.694-3.844-2.776-2.746 3.869-.53 1.754-3.49 1.703 3.516 3.86.594-2.823 2.702"/><path d="M3.998 45.998v1c0 7.203 5.8 13.004 13.004 13.004h29.996c7.203 0 13.004-5.8 13.004-13.004v-1c0 7.203-5.8 13.002-13.004 13.002H17.002A12.975 12.975 0 0 1 3.998 45.998" opacity=".5"/><path fill="#fff" d="M3.998 18.004v-1C3.998 9.801 9.798 4 17.002 4h29.996c7.203 0 13.004 5.8 13.004 13.004v1c0-7.203-5.8-13.002-13.004-13.002H17.002A12.975 12.975 0 0 0 3.998 18.004" opacity=".15"/></svg>