<svg xmlns="http://www.w3.org/2000/svg" width="64" height="64"><defs><linearGradient id="a" x1="-424.46" x2="-340.46" y1="195.08" y2="263.83" gradientTransform="matrix(.23049 0 0 .38722 120.15 -56.879)" gradientUnits="userSpaceOnUse"><stop offset="0" stop-color="#dc8add"/><stop offset="1" stop-color="#62a0ea"/></linearGradient><linearGradient id="b" x1="-424.46" x2="-340.46" y1="195.08" y2="263.83" gradientTransform="matrix(.23049 0 0 .38722 95.952 -56.879)" gradientUnits="userSpaceOnUse"><stop offset="0" stop-color="#dc8add"/><stop offset="1" stop-color="#62a0ea"/></linearGradient><linearGradient id="c" x1="-424.46" x2="-340.46" y1="195.08" y2="263.83" gradientTransform="matrix(.23049 0 0 .38722 144.35 -56.879)" gradientUnits="userSpaceOnUse"><stop offset="0" stop-color="#dc8add"/><stop offset="1" stop-color="#62a0ea"/></linearGradient></defs><rect width="56.002" height="56.002" x="4" y="3.969" rx="13.002" ry="13.002"/><path fill="url(#a)" d="M22.321 18.659h19.361V45.28H22.321z"/><path fill="#195eb3" d="M7.8 10.189h48.403v1.21H7.8zm0 37.512h48.403v1.21H7.8zm.606 6.05h47.797v2.42H8.406zM7.8 16.239h48.402v2.42H7.8z"/><path fill="url(#b)" d="M7.8 18.659h9.681V45.28h-9.68z"/><path fill="url(#c)" d="M46.523 18.659h9.68V45.28h-9.68z"/><path fill="#3382e3" d="M7.802 7.77v2.419h4.839v3.63H7.8v2.42h9.68V45.28H7.8v2.42h4.84v3.63H8.405v2.42h47.797v-2.42h-4.84v-3.629h4.84v-2.42H46.52V16.238h9.68v-2.42h-4.84V10.19h4.84V7.77zm7.26 2.42h4.84v3.628h-4.84zm9.678 0h4.84v3.629h-4.84zm9.682 0h4.84v3.63h-4.84zm9.68 0h4.84v3.629h-4.84zm-21.781 6.05h19.361v29.04h-19.36V16.24m-7.26 31.46h4.84v3.63h-4.84v-3.629m9.68 0h4.84v3.63h-4.84zm9.681 0h4.84v3.63h-4.84zm9.68 0h4.84v3.63h-4.84z"/><path fill="#f5d12b" d="M17.002 3.969A12.973 12.973 0 0 0 4 16.97v29.998A12.973 12.973 0 0 0 17.002 59.97h.658v-3.834h-.662a9.145 9.145 0 0 1-9.164-9.166V16.967a9.144 9.144 0 0 1 9.164-9.164h.662V3.969zm29.338 0v3.834h.664a9.144 9.144 0 0 1 9.164 9.164V46.97a9.145 9.145 0 0 1-9.164 9.166h-.664v3.834H47a12.973 12.973 0 0 0 13.002-13.002V16.97A12.973 12.973 0 0 0 47 3.969z"/></svg>