<svg xmlns="http://www.w3.org/2000/svg" viewBox="0 0 16.933 16.933"><defs><filter id="a" width="1.378" height="1.297" x="-.189" y="-.148" color-interpolation-filters="sRGB"><feGaussianBlur stdDeviation=".409"/></filter></defs><rect width="14.817" height="14.817" x="1.058" y="1.05" fill="#33e3cc" rx="3.44" ry="3.44"/><path fill="#fff" fill-opacity=".937" d="M15.875 6.54a2.6 2.6 0 0 0-.418.054 2.9 2.9 0 0 0-.93.4 5.5 5.5 0 0 0-1.029.02 5 5 0 0 0-1.648.485v.148a4.9 4.9 0 0 1 1.664-.502 5 5 0 0 1 .837-.028c-.659.488-1.175 1.215-1.583 1.936v.002a4.2 4.2 0 0 1-.916 1.175v.096q0 .038-.003.075c.407-.345.76-.767 1.034-1.284.432-.761.98-1.518 1.678-1.986.474.039.92.139 1.314.28V7.27a5.2 5.2 0 0 0-1.129-.253 2.7 2.7 0 0 1 .739-.293v.002a2.5 2.5 0 0 1 .39-.053zm-14.816.605v.253q.075-.021.152-.038c.537.297 1.042.855 1.513 1.898-.635.137-1.21.33-1.665.525v.144a9 9 0 0 1 1.725-.543c.402.908.892 1.561 1.454 1.992q.05-.04.109-.08c-.55-.41-1.03-1.042-1.43-1.94a7.5 7.5 0 0 1 1.352-.148c.308.481.66.983 1.13 1.407q.15.135.318.258a1 1 0 0 0 .164-.043 4 4 0 0 1-.394-.312c-.434-.392-.767-.856-1.062-1.311.437.006.869.06 1.275.178.16.046.326.11.498.183v-.144a5 5 0 0 0-.461-.166 5 5 0 0 0-1.399-.185c-.146-.23-.285-.457-.417-.667-.464-.734-1.054-1.087-1.657-1.199a2.8 2.8 0 0 0-1.032.015c-.057-.03-.116-.052-.173-.077m.753.152a2.4 2.4 0 0 1 .429.039c.569.105 1.121.432 1.568 1.14l.373.599c-.451.01-.897.07-1.325.155-.444-.992-.933-1.571-1.45-1.904q.2-.03.405-.03zm9.464.541c-.482.33-.93.766-1.312 1.33a10 10 0 0 1-1.142 1.407c-.798-.274-1.457-.611-2.051-.893v.148c.561.269 1.19.585 1.946.849q-.21.202-.435.382a4.6 4.6 0 0 1-.63.42 4 4 0 0 1-.879-.198v.044l.003.096q.314.106.672.163a3.3 3.3 0 0 1-.673.236q-.003.07-.008.137c.32-.07.624-.188.914-.344a5.3 5.3 0 0 0 1.327-.03 1 1 0 0 1-.033-.129 5.2 5.2 0 0 1-1.09.043q.247-.152.48-.335a6 6 0 0 0 .492-.436q.081.027.164.05a1 1 0 0 1 .055-.123l-.114-.034a10 10 0 0 0 1.111-1.379c.354-.52.763-.93 1.203-1.245zm4.6.617c-.225.223-.439.51-.705.873-.756 1.03-1.543 1.563-2.473 1.665q-.458.049-.878.055-.008.067-.018.129a10 10 0 0 0 .912-.054c.972-.106 1.795-.666 2.564-1.715.228-.31.415-.561.598-.762z" color="#000" opacity=".35" style="font-feature-settings:normal;font-variant-alternates:normal;font-variant-caps:normal;font-variant-ligatures:normal;font-variant-numeric:normal;font-variant-position:normal;isolation:auto;mix-blend-mode:normal;shape-padding:0;text-decoration-color:#000;text-decoration-line:none;text-decoration-style:solid;text-indent:0;text-orientation:mixed;text-transform:none;white-space:normal"/><g filter="url(#a)" opacity=".5" transform="translate(-.123 .236)"><g stroke="#000" stroke-linecap="round" stroke-linejoin="round"><path stroke-width="1.058" d="M11.771 3.613a1.5 1.5 0 0 0-.34.046l-2.397.486-2.13.42c-.244.052-.365.157-.42.313a1 1 0 0 0-.025.099 1.2 1.2 0 0 0-.012.235l.006 5.388q-.005.141-.024.252 0 0 0 0a.45.45 0 0 1-.127.266c-.072.066-.18.112-.343.138-.482.072-.843.168-1.11.286a2 2 0 0 0-.15.074 1.4 1.4 0 0 0-.238.164.93.93 0 0 0-.32.617q-.016.117-.014.244c.004.254.083.489.22.679a1.1 1.1 0 0 0 .348.314q.208.121.472.15.13.014.273 0c.248-.028.473-.073.673-.15a1.4 1.4 0 0 0 .826-.828c.037-.108.063-.247.078-.404.021-.21.024-.451.01-.694L7.02 7.422c0-.112-.006-.206.006-.283q0 0 0 0l.005-.02q.005-.028.014-.053a.2.2 0 0 1 .038-.062c.05-.058.136-.1.285-.131l2.393-.483v0l1.42-.286q.173-.037.257.031c.057.047.085.131.087.262l.006 3.201c-.01.19-.023.328-.089.427a.3.3 0 0 1-.06.067.5.5 0 0 1-.196.097s0 0 0 0a1 1 0 0 1-.146.031 6 6 0 0 0-.521.1 3 3 0 0 0-.59.195q-.16.073-.279.159a1 1 0 0 0-.2.181c-.193.224-.25.489-.245.786.006.422.225.779.574.968q.21.116.474.14.131.012.273-.002c.249-.027.47-.069.667-.142a1.4 1.4 0 0 0 .36-.194 1.43 1.43 0 0 0 .454-.618s0 0 0 0c.08-.25.09-.654.098-1.087l-.004-6.555a2 2 0 0 0-.023-.28l-.007-.032a.4.4 0 0 0-.035-.093.2.2 0 0 0-.055-.065l-.022-.016a.3.3 0 0 0-.057-.028l-.026-.01a.5.5 0 0 0-.106-.014z" opacity=".01"/><path stroke-width=".794" d="M11.771 3.613a1.5 1.5 0 0 0-.34.046l-2.397.486-2.13.42c-.244.052-.365.157-.42.313a1 1 0 0 0-.025.099 1.2 1.2 0 0 0-.012.235l.006 5.388q-.005.141-.024.252 0 0 0 0a.45.45 0 0 1-.127.266c-.072.066-.18.112-.343.138-.482.072-.843.168-1.11.286a2 2 0 0 0-.15.074 1.4 1.4 0 0 0-.238.164.93.93 0 0 0-.32.617q-.016.117-.014.244c.004.254.083.489.22.679a1.1 1.1 0 0 0 .348.314q.208.121.472.15.13.014.273 0c.248-.028.473-.073.673-.15a1.4 1.4 0 0 0 .826-.828c.037-.108.063-.247.078-.404.021-.21.024-.451.01-.694L7.02 7.422c0-.112-.006-.206.006-.283q0 0 0 0l.005-.02q.005-.028.014-.053a.2.2 0 0 1 .038-.062c.05-.058.136-.1.285-.131l2.393-.483v0l1.42-.286q.173-.037.257.031c.057.047.085.131.087.262l.006 3.201c-.01.19-.023.328-.089.427a.3.3 0 0 1-.06.067.5.5 0 0 1-.196.097s0 0 0 0a1 1 0 0 1-.146.031 6 6 0 0 0-.521.1 3 3 0 0 0-.59.195q-.16.073-.279.159a1 1 0 0 0-.2.181c-.193.224-.25.489-.245.786.006.422.225.779.574.968q.21.116.474.14.131.012.273-.002c.249-.027.47-.069.667-.142a1.4 1.4 0 0 0 .36-.194 1.43 1.43 0 0 0 .454-.618s0 0 0 0c.08-.25.09-.654.098-1.087l-.004-6.555a2 2 0 0 0-.023-.28l-.007-.032a.4.4 0 0 0-.035-.093.2.2 0 0 0-.055-.065l-.022-.016a.3.3 0 0 0-.057-.028l-.026-.01a.5.5 0 0 0-.106-.014z" opacity=".02"/></g></g><path fill="#fff" d="M11.516 3.225a1.5 1.5 0 0 0-.34.046l-2.397.486-2.129.42c-.244.052-.366.157-.42.313a1 1 0 0 0-.025.099 1.2 1.2 0 0 0-.013.235l.006 5.388q-.005.141-.023.252a.45.45 0 0 1-.128.266c-.072.066-.18.112-.343.138-.482.072-.843.168-1.11.286a2 2 0 0 0-.15.074 1.4 1.4 0 0 0-.238.164.93.93 0 0 0-.32.616q-.015.118-.014.245c.004.254.083.489.22.679a1.1 1.1 0 0 0 .348.314q.21.121.472.15.131.013.273 0a2.7 2.7 0 0 0 .673-.15 1.4 1.4 0 0 0 .826-.828c.037-.108.063-.247.079-.404.02-.21.024-.451.009-.694l-.006-4.286c0-.112-.006-.206.006-.283V6.75l.005-.02q.005-.027.015-.052a.2.2 0 0 1 .037-.062c.05-.058.136-.1.285-.131l2.393-.483 1.42-.287q.173-.036.258.032c.056.047.084.131.086.261l.006 3.202c-.009.19-.022.328-.088.427a.3.3 0 0 1-.06.067.5.5 0 0 1-.197.097 1 1 0 0 1-.145.031 6 6 0 0 0-.522.1 3 3 0 0 0-.589.195q-.16.073-.28.159c-.12.086-.145.117-.2.181-.193.224-.249.489-.245.786.006.422.225.779.574.968q.212.116.474.14.132.013.274-.001c.248-.028.47-.07.667-.143a1.4 1.4 0 0 0 .36-.194 1.43 1.43 0 0 0 .454-.617c.08-.25.089-.655.097-1.088l-.004-6.555a2 2 0 0 0-.023-.28l-.007-.032a.4.4 0 0 0-.035-.093.2.2 0 0 0-.055-.065l-.021-.016a.3.3 0 0 0-.057-.028l-.027-.01a.5.5 0 0 0-.106-.014"/><path d="M1.058 12.17v.265a3.433 3.433 0 0 0 3.44 3.44h7.937a3.433 3.433 0 0 0 3.44-3.44v-.265a3.433 3.433 0 0 1-3.44 3.44H4.498a3.433 3.433 0 0 1-3.44-3.44" opacity=".15"/><path fill="#fff" d="M1.058 4.763V4.5a3.433 3.433 0 0 1 3.44-3.44h7.937a3.433 3.433 0 0 1 3.44 3.44v.265a3.433 3.433 0 0 0-3.44-3.44H4.498a3.433 3.433 0 0 0-3.44 3.44z" opacity=".15"/></svg>