<svg xmlns="http://www.w3.org/2000/svg" viewBox="0 0 64 64"><rect width="64" height="64" fill="none" rx="0" ry="0" style="paint-order:stroke fill markers"/><rect width="56.002" height="56.002" x="4" y="3.969" fill="#eb4b50" rx="13.002" ry="13.002"/><circle cx="32.02" cy="32.044" r="30.001" fill="none"/><path fill="#fff" d="M48.669 26.932H25.426l1.213-5.675h14.166l1.3-6.108H21.743L15.33 45.387h6.152l2.815-13.213h14.756L26.232 44.867l2.253 3.985c1.04-.693 2.729-.78 3.899-.78 2.08 0 4.115.694 6.238.694 1.946 0 3.938-.13 7.187-1.69l1.136-5.329c-2.21.91-5.48 1.777-8.323 1.777-1.17 0-2.253-.26-3.38-.434l12.43-12.086z"/><path d="M3.998 45.998v1c0 7.203 5.8 13.004 13.004 13.004h29.996c7.203 0 13.004-5.8 13.004-13.004v-1c0 7.203-5.8 13.002-13.004 13.002H17.002A12.975 12.975 0 0 1 3.998 45.998" opacity=".15"/><path fill="#fff" d="M3.998 18.004v-1C3.998 9.801 9.798 4 17.002 4h29.996c7.203 0 13.004 5.8 13.004 13.004v1c0-7.203-5.8-13.002-13.004-13.002H17.002A12.975 12.975 0 0 0 3.998 18.004" opacity=".15"/></svg>