<svg xmlns="http://www.w3.org/2000/svg" style="isolation:isolate" viewBox="0 0 64 64"><defs><clipPath id="e"><path stroke-width="1.333" d="M0 0h64v64H0z"/></clipPath><clipPath id="d"><path stroke-width="1.333" d="M0 0h64v64H0z"/></clipPath><clipPath id="c"><path stroke-width="1.333" d="M0 0h64v64H0z"/></clipPath><clipPath id="b"><path stroke-width="1.333" d="M0 0h64v64H0z"/></clipPath><clipPath id="a"><path stroke-width="1.333" d="M0 0h64v64H0z"/></clipPath></defs><rect width="56.002" height="56.002" x="4" y="3.969" fill="#4d4d4d" rx="13.002" ry="13.002"/><path d="M3.998 45.998v1c0 7.203 5.8 13.004 13.004 13.004h29.996c7.203 0 13.004-5.8 13.004-13.004v-1c0 7.203-5.8 13.002-13.004 13.002H17.002A12.975 12.975 0 0 1 3.998 45.998" opacity=".35"/><path fill="#fff" d="M3.998 18.004v-1C3.998 9.801 9.798 4 17.002 4h29.996c7.203 0 13.004 5.8 13.004 13.004v1c0-7.203-5.8-13.002-13.004-13.002H17.002A12.975 12.975 0 0 0 3.998 18.004" opacity=".15"/><g stroke-width="1.333"><path fill="none" d="M0 0h64v64H0z" clip-path="url(#a)"/><path fill="#fff" d="M25.333 36V20a2.67 2.67 0 0 0-2.667-2.667h-5.333V40A6.67 6.67 0 0 0 24 46.667h22.667v-5.333A2.67 2.67 0 0 0 44 38.667H28A2.67 2.67 0 0 1 25.333 36" clip-path="url(#b)"/><path fill="#93ddfa" d="M32 29.333v-8l6.667 4 4 6.667h-8A2.67 2.67 0 0 1 32 29.333" clip-path="url(#c)"/><path fill="#ffa94d" d="M46.667 17.333H28L46.667 36z" clip-path="url(#d)"/><path fill="#f7c95c" d="M42.667 21.333H32L42.667 32z" clip-path="url(#e)"/></g></svg>