<svg xmlns="http://www.w3.org/2000/svg" viewBox="0 0 16.933 16.933"><path fill="#98a0a2" d="M4.498 1.05a3.433 3.433 0 0 0-3.44 3.44v7.937a3.433 3.433 0 0 0 3.44 3.44h7.937a3.433 3.433 0 0 0 3.44-3.44V4.49a3.433 3.433 0 0 0-3.44-3.44z"/><rect width="13.229" height="13.229" x="1.852" y="1.852" fill="#fff" rx="2.646" ry="2.646"/><path d="M4.762 1.852v.794h-.926v-.71l-.132.036v.674h-.926v-.16q-.068.057-.132.12v.04h-.04a3 3 0 0 0-.12.132h.16v.926h-.674l-.037.132h.71v.926h-.793v.133h.794v.926h-.794v.132h.794v.926h-.794v.132h.794v.926h-.794v.133h.794v.926h-.794v.132h.794v.926h-.794v.132h.794v.926h-.794v.133h.794v.926h-.794v.132h.794v.926h-.674q.022.068.046.132h.628v.926h-.04q.082.084.172.161v-.028h.926v.541q.066.02.132.037v-.578h.926v.661h.133v-.661h.926v.661h.132v-.661h.926v.661h.132v-.661h.926v.661h.133v-.661h.926v.661h.132v-.661h.926v.661h.132v-.661h.926v.661h.133v-.661h.926v.661h.132v-.661h.926v.541q.068-.021.132-.046v-.495h.827q.123-.11.232-.232v-.827h.495q.024-.064.046-.132h-.541v-.926h.661v-.132h-.661v-.926h.661v-.133h-.661v-.926h.661v-.132h-.661v-.926h.661v-.132h-.661V8.07h.661v-.133h-.661v-.926h.661V6.88h-.661v-.926h.661v-.132h-.661v-.926h.661v-.133h-.661v-.926h.578l-.037-.132h-.541v-.926h.028a3 3 0 0 0-.16-.172v.04h-.927v-.628l-.132-.046v.674h-.926v-.794h-.132v.794h-.926v-.794h-.133v.794h-.926v-.794h-.132v.794h-.926v-.794h-.132v.794H8.07v-.794h-.133v.794h-.926v-.794H6.88v.794h-.926v-.794h-.132v.794h-.926v-.794h-.133zm-1.984.926h.926v.926h-.926zm1.058 0h.926v.926h-.926zm1.059 0h.926v.926h-.926zm1.058 0h.926v.926h-.926zm1.058 0h.926v.926h-.926zm1.059 0h.926v.926H8.07zm1.058 0h.926v.926h-.926zm1.058 0h.926v.926h-.926zm1.059 0h.926v.926h-.926zm1.058 0h.926v.926h-.926zm1.058 0h.926v.926h-.926zM2.778 3.836h.926v.926h-.926zm1.058 0h.926v.926h-.926zm1.059 0h.926v.926h-.926zm1.058 0h.926v.926h-.926zm1.058 0h.926v.926h-.926zm1.059 0h.926v.926H8.07zm1.058 0h.926v.926h-.926zm1.058 0h.926v.926h-.926zm1.059 0h.926v.926h-.926zm1.058 0h.926v.926h-.926zm1.058 0h.926v.926h-.926zM2.778 4.895h.926v.926h-.926zm1.058 0h.926v.926h-.926zm1.059 0h.926v.926h-.926zm1.058 0h.926v.926h-.926zm1.058 0h.926v.926h-.926zm1.059 0h.926v.926H8.07zm1.058 0h.926v.926h-.926zm1.058 0h.926v.926h-.926zm1.059 0h.926v.926h-.926zm1.058 0h.926v.926h-.926zm1.058 0h.926v.926h-.926zM2.778 5.953h.926v.926h-.926zm1.058 0h.926v.926h-.926zm1.059 0h.926v.926h-.926zm1.058 0h.926v.926h-.926zm1.058 0h.926v.926h-.926zm1.059 0h.926v.926H8.07zm1.058 0h.926v.926h-.926zm1.058 0h.926v.926h-.926zm1.059 0h.926v.926h-.926zm1.058 0h.926v.926h-.926zm1.058 0h.926v.926h-.926zM2.778 7.011h.926v.926h-.926zm1.058 0h.926v.926h-.926zm1.059 0h.926v.926h-.926zm1.058 0h.926v.926h-.926zm1.058 0h.926v.926h-.926zm1.059 0h.926v.926H8.07zm1.058 0h.926v.926h-.926zm1.058 0h.926v.926h-.926zm1.059 0h.926v.926h-.926zm1.058 0h.926v.926h-.926zm1.058 0h.926v.926h-.926zM2.778 8.07h.926v.926h-.926zm1.058 0h.926v.926h-.926zm1.059 0h.926v.926h-.926zm1.058 0h.926v.926h-.926zm1.058 0h.926v.926h-.926zm1.059 0h.926v.926H8.07zm1.058 0h.926v.926h-.926zm1.058 0h.926v.926h-.926zm1.059 0h.926v.926h-.926zm1.058 0h.926v.926h-.926zm1.058 0h.926v.926h-.926zM2.778 9.128h.926v.926h-.926zm1.058 0h.926v.926h-.926zm1.059 0h.926v.926h-.926zm1.058 0h.926v.926h-.926zm1.058 0h.926v.926h-.926zm1.059 0h.926v.926H8.07zm1.058 0h.926v.926h-.926zm1.058 0h.926v.926h-.926zm1.059 0h.926v.926h-.926zm1.058 0h.926v.926h-.926zm1.058 0h.926v.926h-.926zM2.778 10.186h.926v.926h-.926zm1.058 0h.926v.926h-.926zm1.059 0h.926v.926h-.926zm1.058 0h.926v.926h-.926zm1.058 0h.926v.926h-.926zm1.059 0h.926v.926H8.07zm1.058 0h.926v.926h-.926zm1.058 0h.926v.926h-.926zm1.059 0h.926v.926h-.926zm1.058 0h.926v.926h-.926zm1.058 0h.926v.926h-.926zM2.778 11.245h.926v.926h-.926zm1.058 0h.926v.926h-.926zm1.059 0h.926v.926h-.926zm1.058 0h.926v.926h-.926zm1.058 0h.926v.926h-.926zm1.059 0h.926v.926H8.07zm1.058 0h.926v.926h-.926zm1.058 0h.926v.926h-.926zm1.059 0h.926v.926h-.926zm1.058 0h.926v.926h-.926zm1.058 0h.926v.926h-.926zM2.778 12.303h.926v.926h-.926zm1.058 0h.926v.926h-.926zm1.059 0h.926v.926h-.926zm1.058 0h.926v.926h-.926zm1.058 0h.926v.926h-.926zm1.059 0h.926v.926H8.07zm1.058 0h.926v.926h-.926zm1.058 0h.926v.926h-.926zm1.059 0h.926v.926h-.926zm1.058 0h.926v.926h-.926zm1.058 0h.926v.926h-.926zM2.778 13.361h.926v.926h-.926zm1.058 0h.926v.926h-.926zm1.059 0h.926v.926h-.926zm1.058 0h.926v.926h-.926zm1.058 0h.926v.926h-.926zm1.059 0h.926v.926H8.07zm1.058 0h.926v.926h-.926zm1.058 0h.926v.926h-.926zm1.059 0h.926v.926h-.926zm1.058 0h.926v.926h-.926zm1.058 0h.926v.926h-.926z" opacity=".05"/><path fill="#757575" d="M7.726 5.081c-.027.004-.048.044-.076.127-.055.162-.068.395-.14 2.57-.039 1.147-.121 2.175-.193 2.385-.092.272-.247.187-.634-.35-.2-.276-.425-.558-.501-.625-.132-.116-.146-.117-.28-.019a.84.84 0 0 0-.225.331c-.119.323-.282.498-.508.545-.108.023-.664.005-1.236-.039l-.992-.076v.187l.52.05c.312.03.867.056 1.233.056.777 0 .91-.061 1.082-.498.06-.15.132-.288.162-.309.114-.079.273.053.598.497.186.253.4.506.474.56.183.134.355.065.446-.179.092-.248.184-1.285.222-2.517.034-1.064.062-1.313.137-1.177.043.078.086.517.138 1.425.011.187.06.842.109 1.455.164 2.058.223 2.425.38 2.367.082-.031.19-.541.198-.93.003-.162.04-.393.085-.51.09-.245.135-.254.673-.143.488.101.591.038.8-.49.282-.709.293-.726.455-.747.127-.017.203.042.44.34.872 1.096.971 1.14 1.445.639.16-.17.316-.31.345-.31s.185.126.345.279c.218.198.394.28.637.308a.128.128 0 0 0 0-.256c-.232.09-.451-.125-.57-.238-.392-.375-.522-.37-.852.03-.373.454-.39.448-1.087-.422-.716-.894-.882-.883-1.216.083-.071.204-.187.44-.258.523-.125.147-.14.15-.451.077-.472-.109-.654-.095-.784.06a.9.9 0 0 0-.144.248c-.04.143-.118.146-.156.005-.045-.163-.138-1.093-.17-1.687-.04-.755-.244-3.158-.284-3.357a.54.54 0 0 0-.11-.24q-.034-.03-.057-.028"/><path d="M1.058 12.17v.265a3.433 3.433 0 0 0 3.44 3.44h7.937a3.433 3.433 0 0 0 3.44-3.44v-.265a3.433 3.433 0 0 1-3.44 3.44H4.498a3.433 3.433 0 0 1-3.44-3.44" opacity=".15"/><path fill="#fff" d="M1.058 4.763V4.5a3.433 3.433 0 0 1 3.44-3.44h7.937a3.433 3.433 0 0 1 3.44 3.44v.265a3.433 3.433 0 0 0-3.44-3.44H4.498a3.433 3.433 0 0 0-3.44 3.44z" opacity=".15"/></svg>