<svg xmlns="http://www.w3.org/2000/svg" width="64" height="64" enable-background="new 0 0 1024 1024" image-rendering="optimizeSpeed"><defs><linearGradient id="c" x1="148.93" x2="155.51" y1="873.19" y2="886.31" gradientTransform="translate(238.52 -125.13)scale(.73261)" gradientUnits="userSpaceOnUse"><stop offset="0" stop-color="#e6b793"/><stop offset="1" stop-color="#ea9f68"/></linearGradient><linearGradient id="d" x1="58.184" x2="64.173" y1="992.95" y2="979.05" gradientTransform="translate(325.39 -203.62)scale(.73261)" gradientUnits="userSpaceOnUse"><stop offset="0" stop-color="#da9e61"/><stop offset="1" stop-color="#ffc08d"/></linearGradient><linearGradient id="e" x1="54.138" x2="57.452" y1="1022.3" y2="1020.6" gradientTransform="translate(325.39 -203.62)scale(.73261)" gradientUnits="userSpaceOnUse"><stop offset="0" stop-color="#894e24"/><stop offset="1" stop-color="#75411b"/></linearGradient><linearGradient id="f" x1="69.802" x2="65.326" y1="1014" y2="1001.7" gradientTransform="translate(325.39 -203.62)scale(.73261)" gradientUnits="userSpaceOnUse"><stop offset="0" stop-color="#cd7b3c"/><stop offset="1" stop-color="#d99663"/></linearGradient><linearGradient id="g" x1="38.672" x2="44.922" y1="1020.1" y2="1022.7" gradientTransform="translate(325.39 -203.62)scale(.73261)" gradientUnits="userSpaceOnUse"><stop offset="0" stop-color="#552c0f"/><stop offset="1" stop-color="#783e16"/></linearGradient><linearGradient id="h" x1="26.575" x2="35.322" y1="1014.5" y2="1002.5" gradientTransform="translate(325.39 -203.62)scale(.73261)" gradientUnits="userSpaceOnUse"><stop offset="0" stop-color="#d38755"/><stop offset="1" stop-color="#dda375"/></linearGradient><linearGradient id="a" x1="7.937" x2="7.937" y1="15.081" y2="1.852" gradientTransform="scale(3.7796)" gradientUnits="userSpaceOnUse"><stop offset="0" stop-color="#f1efeb"/><stop offset="1" stop-color="#fdfcfc"/></linearGradient><filter id="b" width="1.092" height="1.1" x="-.046" y="-.05" color-interpolation-filters="sRGB"><feGaussianBlur stdDeviation=".807"/></filter></defs><rect width="56.002" height="56.002" x="4" y="3.969" fill="url(#a)" rx="13.002" ry="13.002"/><path d="m23.48 13.445-12.469 7.719 8.465 6.986v.006l-.008.006-.031-.022v.028l-.04-.026v.04l-.025-.016v.02l-.06-.04v.028l-.041-.026v.043l-.03-.02v.178l-8.23 6.793 8.232 5.096v3.72l12.742 8.173V52l.002-.002v.12l12.623-8.16v-3.65l8.4-5.209-8.398-6.832v-.095l-.064.04v-.064l-.045.03v-.032l-.022.016-.002-.002-.033.02v-.036l8.51-6.922-12.53-7.77-6.067 4.98-2.444-1.51-2.402 1.49z" filter="url(#b)" opacity=".1"/><g stroke-width="1.143"><g opacity=".03"><path d="m44.613 27.384-.001 15.787-12.623 8.16-.061-15.84z"/><path d="M19.243 27.384V43.17l12.743 8.172-.058-15.852z"/></g><g opacity=".03"><path d="m44.55 27.36-.002 15.73-12.577 8.132-.061-15.784z"/><path d="M19.271 27.36v15.73l12.697 8.143-.058-15.795z"/></g><g opacity=".03"><path d="M44.504 27.359v15.676l-12.535 8.103-.06-15.729z"/><path d="M19.313 27.359v15.676l12.653 8.114-.057-15.74z"/></g><g opacity=".03"><path d="M44.475 27.378v15.62l-12.49 8.075-.061-15.673z"/><path d="m19.373 27.378.001 15.62 12.607 8.086-.057-15.684z"/></g><g opacity=".03"><path d="M44.415 27.355v15.568L31.966 50.97l-.06-15.62z"/><path d="M19.398 27.355v15.568l12.566 8.058-.057-15.632z"/></g><g opacity=".03"><path d="M44.374 27.353v15.519l-12.409 8.021-.06-15.57z"/><path d="M19.437 27.353v15.519l12.525 8.032-.057-15.582z"/></g><g opacity=".03"><path d="M44.352 27.375v15.472L31.98 50.844l-.06-15.524z"/><path d="M19.49 27.375v15.472l12.488 8.008-.057-15.535z"/></g><g opacity=".03"><path d="M44.315 27.373V42.8L31.98 50.774l-.06-15.478z"/><path d="M19.525 27.373V42.8l12.451 7.985-.056-15.49z"/></g><g opacity=".03"><path d="M44.263 27.35v15.383l-12.3 7.952-.06-15.435z"/><path d="M19.543 27.35v15.383l12.416 7.963-.056-15.447z"/></g><g opacity=".03"><path d="m44.23 27.349-.001 15.342-12.268 7.931-.06-15.394z"/><path d="M19.575 27.349V42.69l12.383 7.942-.056-15.406z"/></g><g opacity=".03"><path d="M44.21 27.37v15.3l-12.233 7.909-.06-15.352z"/><path d="M19.624 27.37v15.3l12.35 7.92-.057-15.364z"/></g><g opacity=".03"><path d="M44.177 27.368v15.26l-12.202 7.888-.059-15.311z"/><path d="m19.655 27.368.001 15.26 12.316 7.899-.056-15.323z"/></g><g opacity=".03"><path d="M44.129 27.346v15.22l-12.17 7.868-.06-15.272z"/><path d="M19.67 27.346v15.22l12.285 7.879-.056-15.283z"/></g><g opacity=".03"><path d="m44.096 27.344-.001 15.18-12.138 7.847-.059-15.231z"/><path d="M19.702 27.344v15.18l12.252 7.858-.055-15.243z"/></g><g opacity=".03"><path d="M44.062 27.343v15.14l-12.106 7.825-.058-15.19z"/><path d="m19.733 27.343.001 15.14 12.22 7.836-.056-15.202z"/></g><g opacity=".03"><path d="M44.032 27.342v15.103l-12.076 7.807-.06-15.154z"/><path d="M19.762 27.342v15.103l12.19 7.818-.055-15.166z"/></g><g opacity=".03"><path d="m44.003 27.34-.001 15.068-12.047 7.788-.059-15.118z"/><path d="M19.79 27.34v15.068l12.161 7.799-.055-15.13z"/></g><path fill="#925c36" d="m31.92 19.649 12.47 7.718-12.385 7.769-12.53-7.77z"/><path fill="url(#c)" d="m337.71 520.17 13.566-8.397 9.213 7.585-13.563 8.418z" transform="translate(-299.38 -457.71)scale(.9191)"/><path fill="url(#d)" d="m360.47 519.37 13.595 8.415 9.283-7.551-13.633-8.453z" transform="translate(-299.38 -457.71)scale(.9191)"/><path fill="#894e24" d="M31.92 19.649v13.244l-12.384 7.77-.06-13.297z"/><path fill="#783e16" d="m31.92 19.649.001 13.244 12.384 7.77.06-13.297z"/><path fill="url(#e)" d="M374 527.77v16.353l-13.475 8.453-.065-16.408z" transform="translate(-299.38 -457.71)scale(.9191)"/><path fill="url(#f)" d="m360.56 536.18 13.566-8.397 9.283 7.55-13.633 8.453z" transform="translate(-299.38 -457.71)scale(.9191)"/><path fill="url(#g)" d="M346.92 527.77v16.353l13.602 8.464-.062-16.42z" transform="translate(-299.38 -457.71)scale(.9191)"/><path fill="url(#h)" d="m337.71 535.38 13.566 8.397 9.283-7.55-13.633-8.453z" transform="translate(-299.38 -457.71)scale(.9191)"/><g fill="#fbdf45"><path d="m19.467 27.356 12.502 7.749 12.477-7.726-12.53-7.745z" opacity=".7"/><path d="m19.467 23.856 12.502 7.749 12.477-7.726-12.53-7.745z" opacity=".7"/><path d="m19.47 23.859.027 3.532L32.02 35.13l12.428-7.739.005-3.517-12.486 7.731z" opacity=".35"/></g></g></svg>