<svg xmlns="http://www.w3.org/2000/svg" viewBox="0 0 64 64"><defs><radialGradient id="b" cx="550.95" cy="521.41" r="425" gradientTransform="translate(11.334 19.442)scale(.03751)" gradientUnits="userSpaceOnUse"><stop offset="0" stop-color="#fe8c06"/><stop offset="1" stop-color="#fea933"/></radialGradient><linearGradient id="a" x1="520" x2="520" y1="24" y2="1004" gradientTransform="translate(13.192 20.191)scale(.03673)" gradientUnits="userSpaceOnUse"><stop offset="0" stop-color="#4c4c4c"/><stop offset="1" stop-color="#2a2a2a"/></linearGradient><filter id="c" width="1.72" height="1.72" x="-.36" y="-.36" color-interpolation-filters="sRGB"><feGaussianBlur stdDeviation="30"/></filter></defs><rect width="56.002" height="56.002" x="4" y="3.969" fill="#f2f2f2" rx="13.002" ry="13.002"/><circle cx="32" cy="39" r="18" fill="url(#a)" fill-rule="evenodd" style="paint-order:stroke markers fill"/><circle cx="32" cy="39" r="15.004" fill="#fbc41e" fill-rule="evenodd" stroke="url(#b)" stroke-linejoin="round" stroke-width="1.993" style="paint-order:stroke fill markers"/><g fill="none" transform="translate(17.526 14.829)scale(.03673)"><circle cx="512" cy="540.36" r="175" style="paint-order:stroke markers fill"/><circle cx="226.03" cy="825.61" r="125" style="paint-order:stroke markers fill"/><path d="m360 452.36-235 300 180 170 315-245z"/></g><g fill-rule="evenodd"><circle cx="32" cy="39" r="9" opacity=".2" style="paint-order:stroke fill markers"/><circle cx="550.95" cy="611.41" r="100" filter="url(#c)" opacity=".4" style="paint-order:stroke fill markers" transform="translate(8.466 14.426)scale(.04272)"/><circle cx="32" cy="39" r="6" fill="#333" style="paint-order:stroke fill markers"/></g><circle cx="17" cy="-20" r="3" opacity=".75" transform="rotate(90)"/><circle cx="17" cy="-44" r="3" opacity=".75" transform="rotate(90)"/><circle cx="17" cy="-20" r="2" fill="#4d4d4d" transform="rotate(90)"/><circle cx="17" cy="-44" r="2" fill="#4d4d4d" transform="rotate(90)"/><path d="M3.998 45.998v1c0 7.203 5.8 13.004 13.004 13.004h29.996c7.203 0 13.004-5.8 13.004-13.004v-1c0 7.203-5.8 13.002-13.004 13.002H17.002A12.975 12.975 0 0 1 3.998 45.998" opacity=".1"/><path fill="#fff" d="M3.998 18.004v-1C3.998 9.801 9.798 4 17.002 4h29.996c7.203 0 13.004 5.8 13.004 13.004v1c0-7.203-5.8-13.002-13.004-13.002H17.002A12.975 12.975 0 0 0 3.998 18.004" opacity=".5"/></svg>