<svg xmlns="http://www.w3.org/2000/svg" viewBox="0 0 64 64"><path fill="#4d4d4d" d="M17.002 3.969A12.973 12.973 0 0 0 4 16.97v29.998A12.973 12.973 0 0 0 17.002 59.97H47a12.973 12.973 0 0 0 13.002-13.002V16.97A12.973 12.973 0 0 0 47 3.969z"/><path fill="#f2f2f2" d="M20.261 13.739v3.913h1.304v1.304h-2.608v3.913h2.608V41.13h-2.608v3.913h2.608v1.144h-1.304l2.609 4.074 2.608-4.074h-1.304v-1.144h11.74c7.225 0 13.042-5.817 13.042-13.043S43.14 18.957 35.913 18.957H24.174v-1.304h1.304V13.74zm3.913 9.13h11.739c5.058 0 9.13 4.073 9.13 9.13s-4.072 9.131-9.13 9.131H24.174z"/><path fill="#ff9409" d="m33.303 25.477-6.521 11.74h13.043m-4.174-2.61h-4.696l2.348-4.434"/><path d="M3.998 45.998v1c0 7.203 5.8 13.004 13.004 13.004h29.996c7.203 0 13.004-5.8 13.004-13.004v-1c0 7.203-5.8 13.002-13.004 13.002H17.002A12.975 12.975 0 0 1 3.998 45.998" opacity=".15"/><path fill="#fff" d="M3.998 18.004v-1C3.998 9.801 9.798 4 17.002 4h29.996c7.203 0 13.004 5.8 13.004 13.004v1c0-7.203-5.8-13.002-13.004-13.002H17.002A12.975 12.975 0 0 0 3.998 18.004" opacity=".15"/></svg>