<svg xmlns="http://www.w3.org/2000/svg" viewBox="0 0 64 64"><rect width="56.002" height="56.002" x="4" y="3.969" fill="#f2f2f2" rx="13.002" ry="13.002"/><path d="M3.998 45.998v1c0 7.203 5.8 13.004 13.004 13.004h29.996c7.203 0 13.004-5.8 13.004-13.004v-1c0 7.203-5.8 13.002-13.004 13.002H17.002A12.975 12.975 0 0 1 3.998 45.998" opacity=".1"/><path fill="#fff" d="M3.998 18.004v-1C3.998 9.801 9.798 4 17.002 4h29.996c7.203 0 13.004 5.8 13.004 13.004v1c0-7.203-5.8-13.002-13.004-13.002H17.002A12.975 12.975 0 0 0 3.998 18.004" opacity=".5"/><path fill="#3c9" d="M23.66 14.305c-6.3.126-10.016 5.986-10.016 5.986a2.5 2.5 0 0 0 .572 3.49 2.5 2.5 0 0 0 3.489-.572s3.263-3.85 6.054-3.906c1.06-.021 3.86 1.248 6.91 2.816s6.52 3.385 10.436 3.018c7.094-.665 9.58-6.869 9.58-6.869a2.5 2.5 0 0 0-1.53-3.188 2.5 2.5 0 0 0-3.186 1.532s-.787 3.12-5.33 3.547c-1.903.178-4.74-.972-7.682-2.485-2.94-1.513-5.812-3.439-9.297-3.369"/><path fill="#33b2cc" d="M23.66 26.561c-6.3.126-10.016 5.986-10.016 5.986a2.5 2.5 0 0 0 .572 3.49 2.5 2.5 0 0 0 3.489-.572s3.263-3.85 6.054-3.906c1.06-.021 3.86 1.248 6.91 2.816s6.52 3.385 10.436 3.018c7.094-.665 9.58-6.869 9.58-6.869a2.5 2.5 0 0 0-1.53-3.188 2.5 2.5 0 0 0-3.186 1.532s-.787 3.12-5.33 3.547c-1.903.178-4.74-.972-7.682-2.485-2.94-1.513-5.812-3.439-9.297-3.369"/><path fill="#36c" d="M23.66 38.817c-6.3.126-10.016 5.986-10.016 5.986a2.5 2.5 0 0 0 .572 3.49 2.5 2.5 0 0 0 3.489-.572s3.263-3.85 6.054-3.906c1.06-.021 3.86 1.248 6.91 2.816s6.52 3.385 10.436 3.018c7.094-.665 9.58-6.869 9.58-6.869a2.5 2.5 0 0 0-1.53-3.188 2.5 2.5 0 0 0-3.186 1.532s-.787 3.12-5.33 3.547c-1.903.178-4.74-.972-7.682-2.485-2.94-1.513-5.812-3.439-9.297-3.369"/></svg>