<svg xmlns="http://www.w3.org/2000/svg" width="64" height="64" image-rendering="optimizeSpeed"><defs><linearGradient id="b" x1="368.3" x2="368.3" y1="509.86" y2="546.94" gradientTransform="translate(-329.47 -478.55)scale(.96836)" gradientUnits="userSpaceOnUse"><stop offset="0" stop-color="#52ffde"/><stop offset="1" stop-color="#00a9fe"/></linearGradient><linearGradient id="c" x1="373.45" x2="373.45" y1="546.8" y2="507.87" gradientTransform="matrix(-.48418 0 0 .5272 222.95 -236.85)" gradientUnits="userSpaceOnUse"><stop offset="0" stop-color="#c1e4e6"/><stop offset="1" stop-color="#fff"/></linearGradient><linearGradient id="a" x1="7.937" x2="7.937" y1="15.081" y2="1.852" gradientTransform="scale(3.7796)" gradientUnits="userSpaceOnUse"><stop offset="0" stop-color="#343434"/><stop offset="1" stop-color="#767676"/></linearGradient></defs><rect width="56.002" height="56.002" x="4" y="3.969" fill="url(#a)" rx="13.002" ry="13.002"/><path fill="url(#b)" d="M46.806 18.027c-3.96-3.223-9.218-4.998-14.806-4.998s-10.846 1.775-14.806 4.998C13.2 21.277 11 25.61 11 30.226c0 4.406 2.005 8.553 5.66 11.747a2.3 2.3 0 0 0-.151.468l-1.201 5.908c-.143.703.049 1.121.235 1.35.215.262.533.407.897.407q.414 0 .878-.24l6.986-3.63A25.1 25.1 0 0 0 32 47.422c5.587 0 10.846-1.774 14.806-4.997C50.8 39.175 53 34.842 53 30.225c0-4.615-2.2-8.948-6.194-12.2z"/><path fill="url(#c)" d="M34.806 33.504c1.98-1.755 4.61-2.72 7.403-2.72s5.423.965 7.403 2.72c1.997 1.77 3.097 4.128 3.097 6.642 0 2.398-1.003 4.656-2.83 6.395q.05.121.075.255l.601 3.217c.071.382-.024.61-.118.734a.55.55 0 0 1-.448.222.9.9 0 0 1-.439-.13l-3.493-1.977c-1.21.424-2.51.646-3.848.646-2.794 0-5.423-.966-7.403-2.72-1.997-1.77-3.097-4.13-3.097-6.642s1.1-4.872 3.097-6.642"/></svg>