<svg xmlns="http://www.w3.org/2000/svg" width="64" height="64"><defs><linearGradient id="a" x1="7.937" x2="7.937" y1="15.081" y2="1.852" gradientTransform="scale(3.7796)" gradientUnits="userSpaceOnUse"><stop offset="0" stop-color="#f1efeb"/><stop offset="1" stop-color="#fdfcfc"/></linearGradient><linearGradient id="b" x1="21.902" x2="21.902" y1="17.238" y2="29.031" gradientUnits="userSpaceOnUse"><stop offset="0" stop-color="#ff5c63"/><stop offset="1" stop-color="#eb1439"/></linearGradient><linearGradient id="c" x1="40.752" x2="40.752" y1="28.508" y2="17.206" gradientUnits="userSpaceOnUse"><stop offset="0" stop-color="#0ab816"/><stop offset="1" stop-color="#0cf36c"/></linearGradient><linearGradient id="d" x1="23.723" x2="23.723" y1="46.261" y2="34.988" gradientUnits="userSpaceOnUse"><stop offset="0" stop-color="#ffa70a"/><stop offset="1" stop-color="#fff520"/></linearGradient><linearGradient id="e" x1="40.333" x2="40.333" y1="46.834" y2="35.465" gradientUnits="userSpaceOnUse"><stop offset="0" stop-color="#3164d8"/><stop offset="1" stop-color="#19c3e5"/></linearGradient></defs><rect width="64" height="64" fill="none" rx="0" ry="0" style="paint-order:stroke fill markers"/><rect width="56.002" height="56.002" x="4" y="3.969" fill="url(#a)" rx="13.002" ry="13.002"/><path fill="url(#b)" d="M17.546 16h10.911c.852 0 1.542.783 1.542 1.744v10.517c0 .964-.688 1.74-1.542 1.74H17.546C16.699 30 16 29.222 16 28.26V17.744c0-.963.694-1.744 1.546-1.744"/><path fill="url(#c)" d="M35.546 16h10.911c.852 0 1.542.783 1.542 1.744v10.517c0 .964-.688 1.74-1.542 1.74H35.546C34.699 30 34 29.222 34 28.26V17.744c0-.963.694-1.744 1.546-1.744"/><path fill="url(#d)" d="M17.546 34h10.911c.852 0 1.542.783 1.542 1.744v10.517c0 .958-.688 1.74-1.542 1.74H17.546C16.699 48 16 47.217 16 46.26V35.744c0-.963.694-1.744 1.546-1.744"/><path fill="url(#e)" d="M35.546 34h10.911c.852 0 1.542.783 1.542 1.744v10.517c0 .958-.688 1.74-1.542 1.74H35.546C34.699 48 34 47.217 34 46.26V35.744c0-.963.694-1.744 1.546-1.744"/></svg>