<svg xmlns="http://www.w3.org/2000/svg" viewBox="0 0 64 64"><rect width="56.002" height="56.002" x="4" y="3.969" fill="#4fe373" rx="13.002" ry="13.002"/><path fill="#fff" d="M47.714 29.143h-2.572v-6.857a3.44 3.44 0 0 0-3.428-3.429h-6.859v-2.57c0-2.401-1.885-4.287-4.285-4.287s-4.286 1.886-4.286 4.287v2.57h-6.857A3.44 3.44 0 0 0 16 22.287V28.8h2.57c2.573 0 4.63 2.058 4.63 4.63s-2.057 4.627-4.63 4.627H16v6.514a3.44 3.44 0 0 0 3.428 3.43h6.514v-2.573c0-2.57 2.059-4.628 4.63-4.628s4.627 2.058 4.627 4.628V48h6.514a3.44 3.44 0 0 0 3.43-3.429v-6.857h2.571c2.4 0 4.286-1.885 4.286-4.286s-1.885-4.285-4.286-4.285"/><path d="M3.998 45.998v1c0 7.203 5.8 13.004 13.004 13.004h29.996c7.203 0 13.004-5.8 13.004-13.004v-1c0 7.203-5.8 13.002-13.004 13.002H17.002A12.975 12.975 0 0 1 3.998 45.998" opacity=".15"/><path fill="#fff" d="M3.998 18.004v-1C3.998 9.801 9.798 4 17.002 4h29.996c7.203 0 13.004 5.8 13.004 13.004v1c0-7.203-5.8-13.002-13.004-13.002H17.002A12.975 12.975 0 0 0 3.998 18.004" opacity=".15"/></svg>