<svg xmlns="http://www.w3.org/2000/svg" width="64" height="64" viewBox="0 0 16.933 16.933"><defs><linearGradient id="a" x1="8.649" x2="8.649" y1="1.483" y2="15.436" gradientUnits="userSpaceOnUse"><stop offset="0" stop-color="#17b7f1"/><stop offset="1" stop-color="#1763e1"/></linearGradient></defs><rect width="14.817" height="14.817" x="1.058" y="1.05" fill="url(#a)" rx="3.44" ry="3.44"/><path fill="#fff" d="M8.466 3.072a5.39 5.395 0 0 0-.796.061l.045.497a4.884 4.891 0 0 1 .756-.06 4.884 4.891 0 0 1 .741.058l.055-.494a5.39 5.395 0 0 0-.8-.062zm-1.288.168a5.39 5.395 0 0 0-1.497.618l.26.437a4.884 4.891 0 0 1 1.35-.565zm2.58.001-.12.486a4.884 4.891 0 0 1 1.358.565l.235-.446a5.39 5.395 0 0 0-1.472-.605zm-1.294.844A4.383 4.384 0 0 0 4.082 8.47a4.383 4.384 0 0 0 .683 2.347l-.428 1.774 1.803-.409a4.383 4.384 0 0 0 2.325.672 4.383 4.384 0 0 0 4.383-4.384 4.383 4.384 0 0 0-4.383-4.384zm3.183.043-.283.395a4.884 4.891 0 0 1 1.037 1.04l.4-.28a5.39 5.395 0 0 0-1.154-1.155m-6.38.013a5.39 5.395 0 0 0-1.13 1.135l.392.3a4.884 4.891 0 0 1 1.045-1.049zm-1.411 1.55a5.39 5.395 0 0 0-.613 1.495l.5.11a4.884 4.891 0 0 1 .557-1.35zm9.226.008-.45.232a4.884 4.891 0 0 1 .567 1.37l.488-.128a5.39 5.395 0 0 0-.605-1.474m.712 1.965-.497.061a4.884 4.891 0 0 1 .057.736 4.884 4.891 0 0 1-.058.752l.502.043a5.39 5.395 0 0 0 .058-.79 5.39 5.395 0 0 0-.062-.802m-10.658.013a5.39 5.395 0 0 0-.06.79 5.39 5.395 0 0 0 .073.809l.5-.086a4.884 4.891 0 0 1-.062-.729 4.884 4.891 0 0 1 .059-.743zm.601 1.936-.493.155a5.39 5.395 0 0 0 .496 1.263l-.128.557.488.115.18-.75a4.884 4.891 0 0 1-.543-1.34m9.459.024a4.884 4.891 0 0 1-.56 1.349l.437.278A5.39 5.395 0 0 0 13.7 9.75zm-.791 1.72a4.884 4.891 0 0 1-1.05 1.05l.328.386a5.39 5.395 0 0 0 1.108-1.11zm-8.896.682-.251 1.093a.45.45 0 0 0 .131.414c.1.102.236.155.36.142a.3.3 0 0 0 .073-.017h.001l1.06-.242-.082-.5-1.043.214.239-1.002zm7.476.598a4.884 4.891 0 0 1-1.354.56l.124.507a5.39 5.395 0 0 0 1.512-.63zm-4.968.041-.775.16.092.488.548-.125-.026-.03a5.39 5.395 0 0 0 1.319.523l.118-.497a4.884 4.891 0 0 1-1.276-.519m1.7.606-.05.507a5.39 5.395 0 0 0 .8.07 5.39 5.395 0 0 0 .795-.06l-.054-.507a4.884 4.891 0 0 1-.737.058 4.884 4.891 0 0 1-.754-.068"/></svg>