<svg xmlns="http://www.w3.org/2000/svg" viewBox="0 0 64 64"><rect width="56" height="56" x="4" y="4" fill="#4d4d4d" rx="13.002" ry="13.002"/><g stroke-width="1.113"><path d="M17 10c-3.878 0-7 3.122-7 7v30c0 3.878 3.122 7 7 7h30c3.878 0 7-3.122 7-7V17c0-3.878-3.122-7-7-7z"/><path fill="#f2f2f2" d="M21.244 10.012v5.559h5.41v5.466h-5.41v5.559h5.41v5.467h-5.41v5.508h-5.51v-5.457h5.41v-5.557h-5.41v-5.469h5.41v-5.556h-5.41v-5.413a6.98 6.98 0 0 0-5.588 5.452h5.264v5.466H10v5.56h5.41v5.466H10v5.559h5.51v5.466H10V47c0 .569.074 1.118.201 1.647h5.21v5.166A7 7 0 0 0 17 54h4.144v-5.353h-5.41v-5.518h5.51v5.518h5.41v-5.508h5.508v5.508h-5.508V54h5.41v-5.302h5.508V54h5.41v-5.273h5.51v5.111a6.98 6.98 0 0 0 5.307-5.191h-5.307v-5.559h-5.41v-5.44h5.508v5.481H54v-5.558h-5.508v-5.457h5.409v-5.557h-5.409v-5.469h5.409v-5.222c-.019-.112-.034-.225-.057-.334h-5.352v-5.37a7 7 0 0 0-1.254-.15zm5.41.053h5.508v5.466h-5.508zm10.918.027h5.51v5.44h-5.51zm-5.507 5.49h5.507v5.455h-5.507zm10.918.028h5.51v5.427h-5.51zm-16.328 5.48h5.507v5.467h-5.507zm10.918.027h5.51v5.44h-5.51zm-5.508 5.49h5.508v5.456h-5.508v-5.455zm10.918.028h5.51v5.428h-5.51zm-16.328 5.48h5.508v5.456h-5.41v5.517h-5.508v-5.467h5.41zm10.918.028h5.51v5.428h-5.51zm-5.41 5.478h5.51v5.467h-5.51zm5.41 5.547h5.51v5.479h-5.51z"/></g><path d="M3.998 45.998v1c0 7.203 5.8 13.004 13.004 13.004h29.996c7.203 0 13.004-5.8 13.004-13.004v-1c0 7.203-5.8 13.002-13.004 13.002H17.002A12.975 12.975 0 0 1 3.998 45.998" opacity=".35"/><circle cx="46.002" cy="46.002" r="16" fill="gray"/><path fill="#fff" d="m44.752 35-.003 2.153-6.247 4.422 1.091 2.212 2.671-.855c.426.543 1.074.86 1.758.86 1.176-.002 1.923-.984 2.007-2.17v2.165c-.002 1.078-.12 2.099-1.157 2.346-.926.22-1.222-.068-2.334.39-1.69.698-2.793 1.972-2.793 3.819l1.191 2.158h-.444c-.93 0-1.99 1.442-1.99 2.5h15c0-.92-.803-2.126-1.624-2.427l1.624-2.182v-6.975c0-3.696-2.962-6.517-6.614-6.517l-.117.005c.006-.183-.011-.053-.051-.232-.222-.976-.978-1.67-1.968-1.672"/><path fill="#fff" d="M3.998 18.004v-1C3.998 9.801 9.798 4 17.002 4h29.996c7.203 0 13.004 5.8 13.004 13.004v1c0-7.203-5.8-13.002-13.004-13.002H17.002A12.975 12.975 0 0 0 3.998 18.004" opacity=".15"/></svg>