<svg xmlns="http://www.w3.org/2000/svg" viewBox="0 0 64 64"><clipPath id="a"/><clipPath id="b"/><clipPath id="c"/><clipPath id="d"/><clipPath id="e"/><clipPath id="f"/><clipPath id="g"/><clipPath id="h"/><rect width="56.002" height="56.002" x="4" y="3.969" fill="#f2f2f2" rx="13.002" ry="13.002"/><path d="M3.998 45.998v1c0 7.203 5.8 13.004 13.004 13.004h29.996c7.203 0 13.004-5.8 13.004-13.004v-1c0 7.203-5.8 13.002-13.004 13.002H17.002A12.975 12.975 0 0 1 3.998 45.998" opacity=".1"/><path fill="#fff" d="M3.998 18.004v-1C3.998 9.801 9.798 4 17.002 4h29.996c7.203 0 13.004 5.8 13.004 13.004v1c0-7.203-5.8-13.002-13.004-13.002H17.002A12.975 12.975 0 0 0 3.998 18.004" opacity=".5"/><path fill="#a27653" d="M14.907 42.762a.905.905 0 0 0-.907.907v5.412c0 1.9 1.53 3.431 3.43 3.431h29.14c1.9 0 3.43-1.53 3.43-3.43v-5.413a.905.905 0 0 0-.906-.907z"/><path fill="#664930" d="M14.907 40.512a.905.905 0 0 0-.907.907v5.412c0 1.9 1.53 3.431 3.43 3.431h29.14c1.9 0 3.43-1.53 3.43-3.43v-5.413a.905.905 0 0 0-.906-.907z"/><path fill="#f1d07c" d="M17.843 28.511h28.313c.466 0 .844.406.844.907v20.687c0 .5-.378.907-.844.907H17.843c-.466 0-.844-.406-.844-.907V29.418c0-.501.378-.907.844-.907"/><path fill="#b5835a" d="m14 42.012 1.68 1.26a7.45 7.45 0 0 0 2.934 1.33l11.052 2.326a2.46 2.46 0 0 1 1.902 1.92L32 51.013H16.31a2.31 2.31 0 0 1-2.31-2.31zm36 0-1.68 1.26a7.45 7.45 0 0 1-2.934 1.33l-11.052 2.326a2.46 2.46 0 0 0-1.902 1.92L32 51.013h15.69a2.31 2.31 0 0 0 2.31-2.31z"/><path fill="#986a44" d="m14 30.012 8.115-17.582a1.62 1.62 0 0 1 2.508-.565l5.754 4.795c.94.784 2.306.784 3.246 0l5.754-4.795a1.618 1.618 0 0 1 2.508.565l8.116 17.582z"/><g clip-path="url(#a)" transform="translate(8 7.511)scale(.375)"><g clip-path="url(#b)"><path fill="#413b4a" d="M24.418 68h78.164A2.417 2.417 0 0 1 105 70.418v11.164A2.417 2.417 0 0 1 102.582 84H24.418A2.417 2.417 0 0 1 22 81.582V70.418A2.417 2.417 0 0 1 24.418 68"/></g></g><g clip-path="url(#c)" transform="translate(8 7.511)scale(.375)"><g clip-path="url(#d)"><path fill="#5e5c64" d="m54.188 65 3.54 3.535-15.454 15.45-3.535-3.536z"/></g></g><g clip-path="url(#e)" transform="translate(8 7.511)scale(.375)"><g clip-path="url(#f)"><path fill="#5e5c64" d="m62.727 67.043 1.492 1.492-15.449 15.45-1.496-1.493z"/></g></g><g clip-path="url(#g)" transform="translate(8 7.511)scale(.375)"><g clip-path="url(#h)"><path fill="#5e5c64" d="m85.98 67.043 1.492 1.492-15.453 15.45-1.492-1.493z"/></g></g><path fill="#b5835a" d="M12.5 28.511h39a1.5 1.5 0 1 1 0 3h-39a1.5 1.5 0 1 1 0-3"/></svg>