<svg xmlns="http://www.w3.org/2000/svg" image-rendering="optimizeSpeed" viewBox="0 0 64 64"><defs><linearGradient id="a" x1="30" x2="30" y1="54" y2="10.876" gradientTransform="translate(-64 .03)" gradientUnits="userSpaceOnUse"><stop offset="0" stop-color="#343434"/><stop offset="1" stop-color="#585858"/></linearGradient><linearGradient id="b" x1="7.937" x2="7.937" y1="7.408" y2="1.852" gradientTransform="matrix(-3.7796 0 0 3.7796 64 .03)" gradientUnits="userSpaceOnUse"><stop offset="0" stop-color="#4d93ff"/><stop offset="1" stop-color="#60c3ff"/></linearGradient></defs><rect width="56.002" height="56.002" x="4" y="3.969" fill="#1eadf4" rx="13.002" ry="13.002"/><circle cx="32.02" cy="32.044" r="30.001" fill="none"/><path d="M3.998 45.998v1c0 7.203 5.8 13.004 13.004 13.004h29.996c7.203 0 13.004-5.8 13.004-13.004v-1c0 7.203-5.8 13.002-13.004 13.002H17.002A12.975 12.975 0 0 1 3.998 45.998" opacity=".15"/><path fill="#fff" d="M3.998 18.004v-1C3.998 9.801 9.798 4 17.002 4h29.996c7.203 0 13.004 5.8 13.004 13.004v1c0-7.203-5.8-13.002-13.004-13.002H17.002A12.975 12.975 0 0 0 3.998 18.004" opacity=".15"/><rect width="49.998" height="49.939" x="-56.998" y="7.029" fill="url(#a)" rx="10" ry="10" style="fill:#4d4d4d" transform="scale(-1 1)"/><rect width="50" height="1" x="-57" y="31.529" opacity=".35" rx="0" ry="0" transform="scale(-1 1)"/><rect width="50" height="1" x="7.029" y="31.5" opacity=".35" rx="0" ry="0" transform="matrix(0 1 1 0 0 0)"/><path fill="url(#b)" d="M46.998 3.998A12.973 12.973 0 0 1 60 17v13.03H34V3.997z" style="fill:#fff;opacity:.15"/></svg>