<svg xmlns="http://www.w3.org/2000/svg" viewBox="0 0 64 64"><path fill="#f96f00" d="M17.001 4A12.973 12.973 0 0 0 3.999 17v30a12.973 12.973 0 0 0 13.002 13.002h29.998A12.973 12.973 0 0 0 60.001 47V17.001A12.973 12.973 0 0 0 46.999 4z"/><path d="M3.998 45.998v1c0 7.203 5.8 13.004 13.004 13.004h29.996c7.203 0 13.004-5.8 13.004-13.004v-1c0 7.203-5.8 13.002-13.004 13.002H17.002A12.975 12.975 0 0 1 3.998 45.998" opacity=".15"/><path fill="#fff" d="M3.998 18.004v-1C3.998 9.801 9.798 4 17.002 4h29.996c7.203 0 13.004 5.8 13.004 13.004v1c0-7.203-5.8-13.002-13.004-13.002H17.002A12.975 12.975 0 0 0 3.998 18.004" opacity=".15"/><rect width="64" height="64" fill="none" rx="0" ry="0" style="paint-order:stroke fill markers"/><circle cx="32.02" cy="32.044" r="30.001" fill="none"/><path fill="#fff" d="M29.431 13.25c-.63 0-1.14.484-1.14 1.083v4.336c0 2.462-2.148 5.899-4.223 9.153-2.194 3.437-6.577 6.992-7.005 10.296A8.5 8.5 0 0 0 17 39.302c13.684.455 25.805-7.211 25.936-7.295l1.042-.67c-.686-1.176-2.396-2.457-3.534-3.74-2.75-3.102-4.61-6.51-4.61-8.929v-4.335c0-.6-.512-1.084-1.141-1.084zm15.821 19.963-.83.528c-6.864 4.371-17.373 7.838-27.152 7.648 1.385 5.028 6.9 8.422 7.182 8.589.184.108 1.48.772 7.42.772 5.938 0 7.436-.664 7.618-.772.343-.2 8.338-5.07 7.44-11.932-.206-1.567-.84-3.19-1.678-4.833"/></svg>