<svg xmlns="http://www.w3.org/2000/svg" width="64" height="64"><defs><linearGradient id="a" x1="7.937" x2="7.937" y1="15.081" y2="1.852" gradientTransform="scale(3.7796)" gradientUnits="userSpaceOnUse"><stop offset="0" stop-color="#f1efeb"/><stop offset="1" stop-color="#fdfcfc"/></linearGradient><linearGradient id="b" x1="250.34" x2="250.51" y1="-326.78" y2="-340.82" gradientTransform="translate(-177.18 321.82)scale(.86327)" gradientUnits="userSpaceOnUse"><stop offset="0" stop-color="#1c9af5"/><stop offset="1" stop-color="#20c2fa"/></linearGradient><linearGradient id="c" x1="246.24" x2="245.63" y1="-313.54" y2="-359.05" gradientTransform="translate(-172.22 314.91)scale(.84326)" gradientUnits="userSpaceOnUse"><stop offset="0" stop-color="#f36f1a"/><stop offset="1" stop-color="#faae20"/></linearGradient></defs><rect width="64" height="64" fill="none" rx="0" ry="0" style="paint-order:stroke fill markers"/><rect width="56.002" height="56.002" x="4" y="3.969" fill="url(#a)" rx="13.002" ry="13.002"/><path fill="#fff" d="M26.238 34.168c.178-3.175 1.73-5.98 4.082-7.963 2.301-1.948 5.393-3.141 8.786-3.141 3.376 0 6.467 1.191 8.769 3.141 2.352 1.983 3.897 4.788 4.082 7.963.178 3.259-1.134 6.3-3.427 8.55-2.352 2.285-5.678 3.73-9.424 3.73s-7.09-1.435-9.424-3.73c-2.302-2.25-3.612-5.274-3.427-8.533z" clip-rule="evenodd"/><path fill="url(#b)" d="M32.594 33.487c.092-1.632.89-3.073 2.098-4.092 1.182-1.001 2.77-1.614 4.515-1.614 1.735 0 3.323.612 4.506 1.614 1.209 1.019 2.003 2.46 2.098 4.092.091 1.675-.583 3.237-1.761 4.394-1.21 1.174-2.918 1.917-4.843 1.917s-3.643-.738-4.843-1.917c-1.183-1.157-1.856-2.71-1.761-4.385z" clip-rule="evenodd"/><path fill="url(#c)" d="M22.569 36.638c.011.624.21 1.838.508 2.783.628 2.007 1.695 3.862 3.171 5.49 1.518 1.678 3.39 3.027 5.549 3.988a17.9 17.9 0 0 0 7.286 1.518 17.8 17.8 0 0 0 7.285-1.543c2.16-.97 4.031-2.32 5.55-4.006 1.483-1.644 2.546-3.5 3.17-5.506.316-1.012.516-2.041.596-3.07a14.14 14.14 0 0 0-2.122-8.584c-.962-1.56-2.21-2.918-3.694-4.065l.004-.002-14.926-11.468-.04-.03c-.977-.753-2.63-.75-3.701.004-1.088.762-1.214 2.023-.245 2.816l-.004.004 6.232 5.068-18.973.02h-.025c-1.569.002-3.078 1.03-3.373 2.336-.307 1.324.758 2.429 2.394 2.429l-.002.006 9.613-.019L9.619 37.962l-.066.05c-1.619 1.239-2.142 3.305-1.121 4.604 1.037 1.323 3.238 1.332 4.874.007l9.36-7.673s-.137 1.037-.126 1.652zm24.117 3.466c-1.931 1.965-4.638 3.086-7.556 3.086-2.926.005-5.633-1.096-7.564-3.06A9.1 9.1 0 0 1 29.5 36.9a8.4 8.4 0 0 1-.474-3.61 8.5 8.5 0 0 1 1.038-3.398 9.5 9.5 0 0 1 2.293-2.732c1.88-1.527 4.267-2.361 6.763-2.361 2.505-.004 4.891.817 6.772 2.344a9.4 9.4 0 0 1 2.293 2.724 8.4 8.4 0 0 1 1.038 3.398 8.4 8.4 0 0 1-.476 3.61 9 9 0 0 1-2.066 3.237z" clip-rule="evenodd"/></svg>