<svg xmlns="http://www.w3.org/2000/svg" viewBox="0 0 64 64"><defs><linearGradient id="a" x1="30" x2="30" y1="6" y2="58" gradientUnits="userSpaceOnUse"><stop offset="0" stop-color="#f8deac"/><stop offset="1" stop-color="#edcaa2"/></linearGradient></defs><rect width="56" height="56" x="4" y="4" fill="#d49c45" rx="13.002" ry="13.002"/><path fill="url(#a)" d="M25 4v56h14V4z"/><rect width="1" height="56" x="31.5" y="4" opacity=".2" rx="0" ry="0"/><rect width="38" height="38" x="13" y="13" fill="#fff" opacity=".9" rx="6" ry="6"/><g fill="#cbc5b9" stroke-linecap="round" stroke-linejoin="round"><rect width="12" height="1" x="18" y="20" rx="0" ry="0"/><rect width="8" height="1" x="18" y="22" rx="0" ry="0"/><rect width="10" height="1" x="18" y="24" rx="0" ry="0"/></g><path d="M18 27.105h5.33v1.127h-1.917v4.656H19.92v-4.656H18zm8.742.976q-.682 0-1.058.504t-.375 1.417q0 .91.375 1.414.376.504 1.058.504.686 0 1.061-.504.376-.504.376-1.414 0-.914-.376-1.417-.375-.504-1.061-.504m0-1.08q1.394 0 2.185.797t.79 2.204q0 1.402-.79 2.2T26.742 33q-1.39 0-2.185-.798-.79-.798-.79-2.2 0-1.406.79-2.204.794-.798 2.185-.798zm4.261 1.548h1.398v1.499h-1.398zm0 2.84h1.398v1.498h-1.398z" aria-label="TO:"/><rect width="23" height="1" x="18" y="35" fill="#cbc5b9" rx="0" ry="0"/><rect width="17" height="1" x="18" y="37" fill="#cbc5b9" rx="0" ry="0"/><path d="M18 40h1v5h-1zm2 0h1v5h-1zm2 0h3v5h-3zm4 0h1v5h-1zm4 0h1v5h-1zm2 0h4v5h-4zm5 0h2v5h-2zm3 0h1v5h-1zm3 0h1v5h-1zm2 0h1v5h-1z"/><path d="M3.998 45.998v1c0 7.203 5.8 13.004 13.004 13.004h29.996c7.203 0 13.004-5.8 13.004-13.004v-1c0 7.203-5.8 13.002-13.004 13.002H17.002A12.975 12.975 0 0 1 3.998 45.998" opacity=".15"/><path fill="#fff" d="M3.998 18.004v-1C3.998 9.801 9.798 4 17.002 4h29.996c7.203 0 13.004 5.8 13.004 13.004v1c0-7.203-5.8-13.002-13.004-13.002H17.002A12.975 12.975 0 0 0 3.998 18.004" opacity=".15"/></svg>