<svg xmlns="http://www.w3.org/2000/svg" viewBox="0 0 16.933 16.933"><rect width="14.816" height="14.816" x="1.058" y="1.058" fill="#61e178" rx="3.439" ry="3.439"/><path fill="#fdfefd" d="M8.466 3.704A5.292 4.365 0 0 0 3.175 8.07a5.292 4.365 0 0 0 2.095 3.472l.027.017a5.292 4.365 0 0 0 .053.033c.136.09.391.3.336.57-.074.364-.463.742-.534.832s-.127.19.044.195c.192.006.522-.101.79-.233s.59-.44.797-.503c.196-.08.44-.107.838-.08a5.292 4.365 0 0 0 .845.062 5.292 4.365 0 0 0 5.292-4.365 5.292 4.365 0 0 0-5.292-4.366"/><path d="M1.058 12.17v.265a3.433 3.433 0 0 0 3.44 3.44h7.937a3.433 3.433 0 0 0 3.44-3.44v-.265a3.433 3.433 0 0 1-3.44 3.44H4.498a3.433 3.433 0 0 1-3.44-3.44" opacity=".15"/><path fill="#fff" d="M1.058 4.763V4.5a3.433 3.433 0 0 1 3.44-3.44h7.937a3.433 3.433 0 0 1 3.44 3.44v.265a3.433 3.433 0 0 0-3.44-3.44H4.498a3.433 3.433 0 0 0-3.44 3.44z" opacity=".15"/></svg>