<svg xmlns="http://www.w3.org/2000/svg" viewBox="0 0 64 64"><defs><filter id="a" width="1.096" height="1.096" x="-.048" y="-.048" color-interpolation-filters="sRGB"><feGaussianBlur stdDeviation=".64"/></filter></defs><rect width="56.002" height="56.002" x="4" y="3.969" fill="#f2f2f2" rx="13.002" ry="13.002"/><path d="M3.998 45.998v1c0 7.203 5.8 13.004 13.004 13.004h29.996c7.203 0 13.004-5.8 13.004-13.004v-1c0 7.203-5.8 13.002-13.004 13.002H17.002A12.975 12.975 0 0 1 3.998 45.998" opacity=".1"/><path fill="#fff" d="M3.998 18.004v-1C3.998 9.801 9.798 4 17.002 4h29.996c7.203 0 13.004 5.8 13.004 13.004v1c0-7.203-5.8-13.002-13.004-13.002H17.002A12.975 12.975 0 0 0 3.998 18.004" opacity=".5"/><rect width="64" height="64" fill="none" rx="0" ry="0" style="paint-order:stroke fill markers"/><g stroke-linecap="round" stroke-linejoin="round" stroke-opacity=".35" stroke-width=".075" opacity=".25" transform="translate(0 1)scale(3.7796)"><rect width="12.171" height=".132" x="2.381" y="3.969" opacity=".75" rx="0" ry=".066"/><rect width="12.171" height=".132" x="2.381" y="6.085" opacity=".75" rx="0" ry=".066"/><rect width="12.171" height=".132" x="2.381" y="8.202" opacity=".75" rx="0" ry=".066"/><rect width="12.171" height=".132" x="2.381" y="10.054" opacity=".75" rx="0" ry=".066"/><rect width="12.171" height=".132" x="2.381" y="12.171" opacity=".75" rx="0" ry=".066"/></g><path fill="#da4d45" d="M17.836 4h.5v55.999h-.5z" opacity=".15"/><circle cx="18" cy="19" r="16" filter="url(#a)" opacity=".15"/><circle cx="18" cy="18" r="16" fill="#4565e3"/><path fill="#fff" d="M13.022 10.844a14.307 16.355 16.976 0 0-2.608.513 14.307 16.355 16.976 0 0-4.496 2.272l3.963 2.215a14.307 16.355 16.976 0 1 .473-.162 14.307 16.355 16.976 0 1 10.259 1.209l-3.684 2.223 5.534 2.442L28 24l.002-5.785.002-5.783-4.307 2.598a14.307 16.355 16.976 0 0-8.059-4.169 14.307 16.355 16.976 0 0-2.615-.017z"/><path fill="#fff" d="M18 2A16 16 0 0 0 2 18a16 16 0 0 0 .035.5A16 16 0 0 1 18 3a16 16 0 0 1 15.982 15.26L34 18A16 16 0 0 0 18 2" opacity=".1"/></svg>