<svg xmlns="http://www.w3.org/2000/svg" viewBox="0 0 64 64"><defs><linearGradient id="a" x1="1180.2" x2="1180.2" y1="688.53" y2="658.13" gradientTransform="matrix(.60605 0 0 .60668 -690.87 -382.8)" gradientUnits="userSpaceOnUse"><stop offset="0" stop-color="#ff7b3d"/><stop offset="1" stop-color="#f14e4e"/></linearGradient><linearGradient id="b" x1="1057" x2="1057" y1="-1073.6" y2="-1121.7" gradientTransform="matrix(.49999 0 0 -.5 -490.99 -513.82)" gradientUnits="userSpaceOnUse"><stop offset="0" stop-color="#ffbd04"/><stop offset="1" stop-color="#ec4a00"/></linearGradient><linearGradient id="c" x1="1162.6" x2="1162.6" y1="901.16" y2="887.43" gradientTransform="matrix(1.3349 0 0 1.2569 -1522.7 -1087.7)" gradientUnits="userSpaceOnUse"><stop offset="0" stop-color="#f1b818"/><stop offset="1" stop-color="#ffda64"/></linearGradient></defs><rect width="56.002" height="56.002" x="4" y="3.969" fill="#fc920c" fill-opacity=".941" rx="13.002" ry="13.002"/><path fill="#fff" d="M17.002 8.97c-4.432 0-8 3.569-8 8v30c0 4.432 3.568 8 8 8H47c4.432 0 8-3.568 8-8v-30c0-4.432-3.568-8-8-8zm0 1.03H45v3H12.969v1H45v3H13.568v1H45v35.26h1V18h3v32.193h1V18h3.97v28.969a6.956 6.956 0 0 1-6.97 6.97H17.002a6.956 6.956 0 0 1-6.97-6.97V16.971a6.956 6.956 0 0 1 6.97-6.97zM46 10h1a7 7 0 0 1 2 .293V13h-3zm4 .682A6.96 6.96 0 0 1 52.732 13H50zM46 14h3v3h-3zm4 0h3.303a7 7 0 0 1 .668 2.97V17H50z" opacity=".25"/><path fill="#f2f2f2" d="M17 7C11.46 7 7 11.46 7 17v30a9.976 9.976 0 0 0 8.969 9.947c.58-.02 1.133-.037 1.449-.006h.002q.586.06 1.19.059H47c5.54 0 10-4.46 10-10V29.348C57 23.991 40.035 7 34.678 7H18.61z" style="fill:#e6e6e6"/><path fill="url(#a)" d="M37 27.01a10 10.01 0 0 1-10 10.01 10 10.01 0 0 1-10-10.01A10 10.01 0 0 1 27 17a10 10.01 0 0 1 10 10.01"/><path fill="url(#b)" d="M33 39h16V23H33z"/><path fill="#fff" d="M34.678 7.028c3.571.893 4.464 6.25 5.357 9.82.866 3.466 2.838 5.844 8.036 7.144 3.57.892 7.142.571 8.928 5.357 0-.022-.004-.044-.004-.065C56.898 23.038 42.17 8.09 35.381 7.059a10 10 0 0 0-.702-.031z"/><path fill="url(#c)" d="M40 45H18l11-18z"/><path fill="#92e285" stroke="#18a303" d="M16.5 43.5h3v3h-3zm22-.003h3V46.5h-3zM27.5 25.5h3v3.003h-3z" opacity=".75"/></svg>