<svg xmlns="http://www.w3.org/2000/svg" viewBox="0 0 64 64"><path fill="#f55" d="M17.002 3.97h29.996C54.174 3.97 60 9.796 60 16.972v29.996c0 7.176-5.826 13.002-13.002 13.002H17.002C9.826 59.97 4 54.144 4 46.968V16.972C4 9.796 9.826 3.97 17.002 3.97" style="isolation:isolate"/><path d="M3.998 45.998v1c0 7.203 5.8 13.004 13.004 13.004h29.996c7.203 0 13.004-5.8 13.004-13.004v-1c0 7.203-5.8 13.002-13.004 13.002H17.002A12.975 12.975 0 0 1 3.998 45.998" opacity=".15"/><path fill="#fff" d="M3.998 18.004v-1C3.998 9.801 9.798 4 17.002 4h29.996c7.203 0 13.004 5.8 13.004 13.004v1c0-7.203-5.8-13.002-13.004-13.002H17.002A12.975 12.975 0 0 0 3.998 18.004" opacity=".15"/><path fill="#fbf7f7" d="M34.521 14.564c-3.6 0-6.521 2.92-6.521 6.521V25h-2.607a2.6 2.6 0 0 0-2.606 2.606 2.6 2.6 0 0 0 2.606 2.607H28v5.772a6.52 6.52 0 0 0-3.915 5.967c0 3.6 2.921 6.521 6.521 6.521s6.522-2.92 6.522-6.52a6.53 6.53 0 0 0-3.915-5.977v-5.763h2.611a2.6 2.6 0 0 0 2.607-2.607A2.6 2.6 0 0 0 35.824 25h-2.606v-3.263c0-1.082.878-1.955 1.955-1.955h4.566a2.6 2.6 0 0 0 2.607-2.607 2.6 2.6 0 0 0-2.607-2.606z" style="stroke-width:4.6217"/><circle cx="30.607" cy="41.957" r="2.607" fill="#5c1b0c"/></svg>