<svg xmlns="http://www.w3.org/2000/svg" viewBox="0 0 64 64"><path fill="#f2f0ec" d="M17.002 3.969H47A12.974 12.974 0 0 1 60.002 16.97v29.998L47 59.97H17.002A12.974 12.974 0 0 1 4 46.969V16.97z"/><path fill="#ff6509" d="M17.002 3.969A12.973 12.973 0 0 0 4 16.97v10.604c1.812 11.397 11.416 21.92 24.16 20.54 7.884-.853 14.189-8.35 10.164-14.747-1.279-2.033-4.385-2.209-5.846-1.235 7.018-.198 3.592 8.163-2.574 9.44-8.424 1.743-14.89-6.397-15.473-13.971-.947-12.287 9.245-21.457 20.514-23.633H17.002zm22.102 12.588a21 21 0 0 0-2.523.133c-7.885.853-14.188 8.35-10.163 14.75 1.28 2.032 4.386 2.206 5.846 1.232-7.018.198-3.593-8.161 2.572-9.437 8.425-1.744 14.893 6.396 15.476 13.97.85 11.052-7.313 19.58-17.162 22.767h13.852A12.973 12.973 0 0 0 60.004 46.97V34.015C57.282 24.682 49.42 16.69 39.106 16.56v-.002z"/><path d="M3.998 45.998v1c0 7.203 5.8 13.004 13.004 13.004h29.996c7.203 0 13.004-5.8 13.004-13.004v-1c0 7.203-5.8 13.002-13.004 13.002H17.002A12.975 12.975 0 0 1 3.998 45.998" opacity=".15"/><path fill="#fff" d="M3.998 18.004v-1C3.998 9.801 9.798 4 17.002 4h29.996c7.203 0 13.004 5.8 13.004 13.004v1c0-7.203-5.8-13.002-13.004-13.002H17.002A12.975 12.975 0 0 0 3.998 18.004" opacity=".35"/></svg>