<svg xmlns="http://www.w3.org/2000/svg" viewBox="0 0 64 64"><rect width="56.002" height="56.002" x="4" y="3.969" fill="#f2f2f2" rx="13.002" ry="13.002"/><g fill="#b3b3b3"><path d="M11 16h42v1H11zm0 4h42v1H11zm0 23h42v1H11zm0 4h42v1H11z" opacity=".5"/><path d="M15 14v36h-1V14zm35 0v36h-1V14z" opacity=".5"/></g><path fill="#69e110" d="M8 54h48V22zm41-7H31l18-12z"/><circle cx="21.5" cy="26.5" r="2" fill="none" stroke="#c9caca" stroke-miterlimit="10"/><circle cx="21.5" cy="36.5" r="2" fill="none" stroke="#c9caca" stroke-miterlimit="10"/><path d="M3.998 45.998v1c0 7.203 5.8 13.004 13.004 13.004h29.996c7.203 0 13.004-5.8 13.004-13.004v-1c0 7.203-5.8 13.002-13.004 13.002H17.002A12.975 12.975 0 0 1 3.998 45.998" opacity=".1"/><path fill="#fff" d="M3.998 18.004v-1C3.998 9.801 9.798 4 17.002 4h29.996c7.203 0 13.004 5.8 13.004 13.004v1c0-7.203-5.8-13.002-13.004-13.002H17.002A12.975 12.975 0 0 0 3.998 18.004" opacity=".5"/></svg>