<svg xmlns="http://www.w3.org/2000/svg" image-rendering="optimizeSpeed" viewBox="0 0 64 64"><defs><linearGradient id="a" x1="29.969" x2="29.969" y1="18.796" y2="45.449" gradientTransform="translate(-826.35 -1107.5)scale(2.1429)" gradientUnits="userSpaceOnUse"><stop offset="0" stop-color="#cf30ac"/><stop offset="1" stop-color="#ab31f8"/></linearGradient></defs><rect width="56.002" height="56.002" x="4" y="3.969" fill="#f2f2f2" rx="13.002" ry="13.002"/><path d="M3.998 45.998v1c0 7.203 5.8 13.004 13.004 13.004h29.996c7.203 0 13.004-5.8 13.004-13.004v-1c0 7.203-5.8 13.002-13.004 13.002H17.002A12.975 12.975 0 0 1 3.998 45.998" opacity=".1"/><path fill="#fff" d="M3.998 18.004v-1C3.998 9.801 9.798 4 17.002 4h29.996c7.203 0 13.004 5.8 13.004 13.004v1c0-7.203-5.8-13.002-13.004-13.002H17.002A12.975 12.975 0 0 0 3.998 18.004" opacity=".5"/><path fill="url(#a)" d="M32 16a16 16 0 0 0-16 16 16 16 0 0 0 16 16 16 16 0 0 0 16-16 16 16 0 0 0-16-16m-4.26 6.66q.522.027.977.344L39.93 30.73q.53.373.734.982.206.609 0 1.225a1.9 1.9 0 0 1-.738.978l-11.21 7.727a1.88 1.88 0 0 1-1.331.328 1.88 1.88 0 0 1-1.213-.639 1.87 1.87 0 0 1-.49-1.283v-15.45q.001-.736.49-1.285a1.88 1.88 0 0 1 1.213-.639q.181-.023.355-.014" style="fill:#ab31f8"/></svg>