<svg xmlns="http://www.w3.org/2000/svg" width="64" height="64"><defs><linearGradient id="a" x1="7.937" x2="7.937" y1="15.081" y2="1.852" gradientTransform="scale(3.7796)" gradientUnits="userSpaceOnUse"><stop offset="0" stop-color="#f1efeb"/><stop offset="1" stop-color="#fdfcfc"/></linearGradient><linearGradient id="d" x1="-16.029" x2="-.415" y1="51.761" y2="36.148" gradientUnits="userSpaceOnUse"><stop offset="0" stop-color="#4b79d5"/><stop offset="1" stop-color="#31c9ef"/></linearGradient><linearGradient id="c" x1="31.554" x2="31.554" y1="37.293" y2="27.519" gradientUnits="userSpaceOnUse"><stop offset="0" stop-color="#64cf3b"/><stop offset="1" stop-color="#b0ec1e"/></linearGradient><linearGradient id="b" x1="32.091" x2="32.091" y1="46.283" y2="33.81" gradientUnits="userSpaceOnUse"><stop offset="0" stop-color="#ef2f2f"/><stop offset="1" stop-color="#f5ac2b"/></linearGradient></defs><rect width="56.002" height="56.002" x="4" y="3.969" fill="url(#a)" rx="13.002" ry="13.002"/><g stroke-width="1.391" transform="translate(3.693 4.925)scale(.88455)"><path fill="url(#b)" d="m19.99 35.478-5.04 2.326c-1.383.638-1.383 1.667 0 2.304l14.556 6.718c1.382.638 3.607.638 4.99 0l14.556-6.718c1.382-.637 1.382-1.666 0-2.304l-5.04-2.326-9.517 4.39c-1.382.639-3.607.639-4.989 0z"/><path fill="url(#c)" d="m19.99 27.13-5.04 2.326c-1.382.638-1.382 1.667 0 2.304l14.556 6.717c1.382.64 3.608.64 4.99 0l14.556-6.717c1.382-.637 1.382-1.667 0-2.304l-5.04-2.326-9.517 4.391c-1.381.639-3.607.639-4.989 0z"/><rect width="21.526" height="21.526" x="-19.7" y="33.419" fill="url(#d)" ry="2.747" transform="matrix(.90793 -.41906 .90793 .41906 0 0)"/></g></svg>