<svg xmlns="http://www.w3.org/2000/svg" viewBox="0 0 64 64"><rect width="56.002" height="56.002" x="4" y="3.969" fill="#b3b3b3" rx="13.002" ry="13.002"/><path fill="#fff" d="M4 43v3.969A12.974 12.974 0 0 0 17.002 59.97H47a12.974 12.974 0 0 0 13.002-13.002V43z" opacity=".35" style="paint-order:stroke fill markers"/><path d="M3.998 45.998v1c0 7.203 5.8 13.004 13.004 13.004h29.996c7.203 0 13.004-5.8 13.004-13.004v-1c0 7.203-5.8 13.002-13.004 13.002H17.002A12.975 12.975 0 0 1 3.998 45.998" opacity=".12"/><path fill="#fff" d="M3.998 18.004v-1C3.998 9.801 9.798 4 17.002 4h29.996c7.203 0 13.004 5.8 13.004 13.004v1c0-7.203-5.8-13.002-13.004-13.002H17.002A12.975 12.975 0 0 0 3.998 18.004" opacity=".2"/><rect width="56" height="1" x="4" y="42" fill-rule="evenodd" opacity=".15" rx="0" ry="0" style="paint-order:stroke fill markers"/><rect width="8" height="8" x="10" y="45" fill="#fff" rx="2" ry="2"/><rect width="8" height="8" x="22" y="45" fill="#fff" rx="2" ry="2"/><rect width="8" height="8" x="34" y="45" fill="#fff" rx="2" ry="2"/><rect width="8" height="8" x="46" y="45" fill="#fff" rx="2" ry="2"/></svg>