<svg xmlns="http://www.w3.org/2000/svg" xml:space="preserve" viewBox="0 0 16.933 16.933"><rect width="14.816" height="14.816" x="1.058" y="1.058" fill="#304059" rx="3.439" ry="3.439"/><path fill="#6baaea" d="M4.498 1.852a2.64 2.64 0 0 0-2.646 2.646v7.937a2.64 2.64 0 0 0 2.646 2.646H8.07V1.85H4.498zm4.365 0v13.229h3.572a2.64 2.64 0 0 0 2.646-2.646V4.498a2.64 2.64 0 0 0-2.646-2.646z"/><path fill="#87bdff" d="M4.498 1.852a2.64 2.64 0 0 0-2.646 2.646v7.937a2.64 2.64 0 0 0 2.646 2.646h3.57V1.85h-3.57z"/><path fill="#4791ce" fill-rule="evenodd" d="M6.085 1.852v1.323h1.983V1.852zm0 1.323H3.97v2.117h2.116V3.175zm0 2.117v2.116h1.983V5.291zm0 2.116H3.97v2.117h2.116V7.408zm0 2.117v2.116h1.983V9.525zm0 2.116H3.97v2.117h2.116V11.64zm0 2.117v1.323h1.983v-1.323zm-2.116 0H2.207a2.64 2.64 0 0 0 1.762 1.27zm0-2.117V9.525H1.852v2.116zm0-4.233V5.291H1.852v2.117zm0-4.233v-1.27a2.64 2.64 0 0 0-1.762 1.27z" style="paint-order:stroke fill markers"/><circle cx="8.466" cy="8.466" r="1.587" fill="#304059" fill-rule="evenodd" style="paint-order:stroke fill markers"/><path fill="#87bdff" d="M8.07 7.937v1.059l-.794-.53zm.793 0v1.059l.794-.53z"/></svg>