<svg xmlns="http://www.w3.org/2000/svg" viewBox="0 0 16.933 16.933"><defs><linearGradient id="a" x1="16.139" x2="8.202" y1="11.178" y2="11.178" gradientTransform="translate(8.114 8.114)scale(.33333)" gradientUnits="userSpaceOnUse"><stop offset="0" stop-color="#342993"/><stop offset=".498" stop-color="#3b3942"/><stop offset="1" stop-color="#2c5940"/></linearGradient><linearGradient id="c" x1="12.171" x2="12.171" y1="5.367" y2="12.136" gradientTransform="translate(8.711 8.603)scale(.28424)" gradientUnits="userSpaceOnUse"><stop offset="0" stop-color="#fff" stop-opacity=".82"/><stop offset=".6" stop-color="#fff" stop-opacity=".19"/><stop offset="1" stop-color="#fff" stop-opacity="0"/></linearGradient><linearGradient id="b" x1="12.171" x2="12.171" y1="18.227" y2="15.113" gradientTransform="translate(8.672 8.748)scale(.28744)" gradientUnits="userSpaceOnUse"><stop offset="0" stop-color="#fff" stop-opacity=".82"/><stop offset=".302" stop-color="#fff" stop-opacity=".19"/><stop offset="1" stop-color="#fff" stop-opacity="0"/></linearGradient></defs><rect width="14.817" height="14.817" x="1.058" y="1.05" fill="#f53229" rx="3.44" ry="3.44"/><path d="M1.058 12.17v.265a3.433 3.433 0 0 0 3.44 3.44h7.937a3.433 3.433 0 0 0 3.44-3.44v-.265a3.433 3.433 0 0 1-3.44 3.44H4.498a3.433 3.433 0 0 1-3.44-3.44" opacity=".15"/><path fill="#fff" d="M5.82 4.233v7.938h7.674V4.233zm3.837 1.852a1.323 1.455 0 0 1 1.323 1.456 1.323 1.455 0 0 1-1.323 1.455A1.323 1.455 0 0 1 8.334 7.54a1.323 1.455 0 0 1 1.323-1.456zm0 3.572a2.646 1.984 0 0 1 2.646 1.985H7.011a2.646 1.984 0 0 1 2.646-1.985"/><path fill="#fff" d="m10.057 3.64-1.227.33h1.315zm-4.5 1.206-2.911.78L4.7 13.293l3.202-.858H5.858l-.783.21L3.294 6l2.262-.606v-.548z"/><circle cx="12.171" cy="12.171" r="3.969" fill="#1a1a1a"/><circle cx="12.171" cy="12.171" r="3.704" fill="#333"/><circle cx="12.171" cy="12.171" r="2.117" fill="#4d4d4d"/><circle cx="12.171" cy="12.171" r="1.323" fill="url(#a)"/><circle cx="12.171" cy="12.247" r="1.141" fill="url(#b)"/><circle cx="12.171" cy="12.063" r="1.128" fill="url(#c)"/><path fill="#fff" d="M1.058 4.763V4.5a3.433 3.433 0 0 1 3.44-3.44h7.937a3.433 3.433 0 0 1 3.44 3.44v.265a3.433 3.433 0 0 0-3.44-3.44H4.498a3.433 3.433 0 0 0-3.44 3.44z" opacity=".15"/></svg>