<svg xmlns="http://www.w3.org/2000/svg" fill="none" viewBox="0 0 64 64"><rect width="56.002" height="56.002" x="4" y="3.969" fill="#2a88f8" rx="13.002" ry="13.002"/><circle cx="32.02" cy="32.044" r="30.001"/><path fill="#fff" d="M3.998 18.004v-1C3.998 9.801 9.798 4 17.002 4h29.996c7.203 0 13.004 5.8 13.004 13.004v1c0-7.203-5.8-13.002-13.004-13.002H17.002A12.975 12.975 0 0 0 3.998 18.004" opacity=".15"/><path fill="#188038" d="M4.174 49A12.95 12.95 0 0 0 15 59.803V49z"/><path fill="#ea4335" d="M59.826 49A12.95 12.95 0 0 1 49 59.803V49z"/><path fill="#32b666" d="M15 49v10.832c.654.1 1.32.168 2.002.168h29.996c.683 0 1.348-.068 2.002-.168V49z"/><path fill="#fbaa04" d="M49 49h10.832c.1-.654.168-1.32.168-2.002V17.002c0-.683-.068-1.348-.168-2.002H49z"/><rect width="34" height="34" x="15" y="15" fill="#fff" rx="0" ry="0"/><path fill="#2f8af1" d="M22.523 40.759c-1.218-.83-2.062-2.042-2.523-3.644l2.829-1.175q.385 1.479 1.344 2.292c.636.543 1.41.81 2.315.81q1.388 0 2.384-.85.997-.853.999-2.166 0-1.344-1.052-2.194t-2.632-.85h-1.634v-2.823h1.466q1.357 0 2.287-.74.93-.737.929-2.025 0-1.145-.831-1.828-.83-.685-2.107-.686-1.248-.001-1.981.67a3.9 3.9 0 0 0-1.068 1.647l-2.8-1.175c.372-1.06 1.052-1.997 2.05-2.806q1.5-1.215 3.823-1.216 1.718-.001 3.09.67 1.37.672 2.147 1.857.775 1.188.774 2.666 0 1.508-.721 2.555c-.721 1.047-1.072 1.233-1.773 1.607v.168a5.4 5.4 0 0 1 2.274 1.787q.887 1.202.888 2.876c.001 1.674-.28 2.116-.843 2.991q-.846 1.315-2.327 2.067c-.99.501-2.103.756-3.338.756-1.43.004-2.75-.411-3.969-1.241M39.819 26.92l-3.207 2.132L35 26.816 40.783 23H43v18h-3.18z"/><path fill="#000" d="M3.998 45.998v1c0 7.203 5.8 13.004 13.004 13.004h29.996c7.203 0 13.004-5.8 13.004-13.004v-1c0 7.203-5.8 13.002-13.004 13.002H17.002A12.975 12.975 0 0 1 3.998 45.998" opacity=".15"/></svg>