<svg xmlns="http://www.w3.org/2000/svg" viewBox="0 0 16.933 16.933"><rect width="14.816" height="14.816" x="1.058" y="1.058" fill="#333" rx="3.44" ry="3.44"/><path d="M1.058 12.17v.265a3.433 3.433 0 0 0 3.44 3.44h7.937a3.433 3.433 0 0 0 3.44-3.44v-.265a3.433 3.433 0 0 1-3.44 3.44H4.498a3.433 3.433 0 0 1-3.44-3.44" opacity=".5"/><path fill="#fff" d="M1.058 4.763V4.5a3.433 3.433 0 0 1 3.44-3.44h7.937a3.433 3.433 0 0 1 3.44 3.44v.265a3.433 3.433 0 0 0-3.44-3.44H4.498a3.433 3.433 0 0 0-3.44 3.44z" opacity=".15"/><path fill="#5cb2ff" d="M5.292 10.583a1.059 1.059 0 1 0 0 2.117 1.059 1.059 0 0 0 0-2.117m4.232 0a1.059 1.059 0 1 0 .001 2.117 1.059 1.059 0 0 0 0-2.117z"/><path fill="#7de33e" d="M11.641 10.583a1.059 1.059 0 1 0 0 2.117 1.059 1.059 0 0 0 0-2.117"/><path fill="#5cb2ff" d="M7.408 8.466a1.059 1.059 0 1 0 .001 2.118 1.059 1.059 0 0 0 0-2.117z"/><path fill="#f2731a" d="M11.641 8.466a1.059 1.059 0 1 0 0 2.118 1.059 1.059 0 0 0 0-2.117z"/><path fill="#7de33e" d="M7.408 6.35a1.059 1.059 0 1 0 .001 2.117 1.059 1.059 0 0 0 0-2.117z"/><path fill="#5cb2ff" d="M9.524 6.35a1.059 1.059 0 1 0 .001 2.117 1.059 1.059 0 0 0 0-2.117z"/><path fill="#7de33e" d="M5.292 4.233a1.059 1.059 0 1 0 0 2.118 1.059 1.059 0 0 0 0-2.118"/><path fill="#f2731a" d="M7.408 4.233a1.059 1.059 0 1 0 .001 2.118 1.059 1.059 0 0 0 0-2.118z"/><path fill="#5cb2ff" d="M11.641 4.233a1.059 1.059 0 1 0 0 2.118 1.059 1.059 0 0 0 0-2.118"/></svg>