<svg xmlns="http://www.w3.org/2000/svg" viewBox="0 0 16.933 16.933"><rect width="14.817" height="14.817" x="1.058" y="1.05" fill="#ed5e5f" rx="3.44" ry="3.44"/><path d="M2.117 2.007A3.43 3.43 0 0 0 1.058 4.49v7.937c0 .979.407 1.858 1.059 2.483z" opacity=".15"/><path fill="#fff" d="M4.498 1.05a3.43 3.43 0 0 0-3.44 3.44v.273a3.43 3.43 0 0 1 3.44-3.44h7.937a3.43 3.43 0 0 1 3.44 3.44V4.49a3.43 3.43 0 0 0-3.44-3.44z" opacity=".25"/><path d="M4.498 15.875a3.43 3.43 0 0 1-3.44-3.44v-.273a3.43 3.43 0 0 0 3.44 3.44h7.937a3.43 3.43 0 0 0 3.44-3.44v.273a3.43 3.43 0 0 1-3.44 3.44z" opacity=".25"/><path fill="#fff" d="M8.178 3.442c-.1-.016-.2.05-.306.231-.17.288-.248 1.094-.108 1.868.047.265.148.65.285 1.07-.108.394-.23.811-.361 1.226-.522 1.636-1.64 3.351-2.231 4.274-.373.58-1.27 1.263-1.346 1.13-.075-.133.178-.43.492-.909.314-.475 1.117-.967 1.117-.967s-.343-.014-1.221.76c-.878.777-.612 1.162-.403 1.28.207.12.79.581 2.772-2.859A13.4 13.4 0 0 0 8.256 7.2c.25.648.573 1.304.932 1.716.209.242.484.472.789.686-.24.044-.516.097-.89.165-1.369.249-2.05.787-2.065.8a23 23 0 0 1 3.293-.742c.666.405 1.43.716 2.061.842.986.2 1.255-.162 1.287-.21-.039.032-.167.091-.574.057-.327-.027-1.221-.28-2.128-.766 1.877-.174 2.525.017 2.692.15.167.135.167.283.167.283s.215-.207.074-.418c-.12-.218-.303-.4-1.808-.354-.746.022-1.148.048-1.532.099-.456-.284-.895-.622-1.241-1.032-.464-.549-.748-1.181-.933-1.803.277-1.335.19-2.161.19-2.17 0 0-.14.64-.358 1.483-.124-.638-.167-1.225-.202-1.643-.076-.958.352-.692.413-.57.098.079.146.34.146.34s-.034-.39-.205-.559a.36.36 0 0 0-.185-.111zm-1.157 7.123-.004.002-.001.003z"/></svg>