<svg xmlns="http://www.w3.org/2000/svg" image-rendering="optimizeSpeed" viewBox="0 0 64 64"><defs><linearGradient id="a" x1="-20.542" x2="-23.085" y1="40.856" y2="43.297" gradientTransform="translate(53.033 15.85)scale(.61027)" gradientUnits="userSpaceOnUse"><stop offset="0" stop-color="#a9a9a9"/><stop offset="1" stop-color="#a9a9a9" stop-opacity="0"/></linearGradient></defs><rect width="56.002" height="56.002" x="4" y="3.969" fill="#f2f2f2" rx="13.002" ry="13.002"/><path d="M3.998 45.998v1c0 7.203 5.8 13.004 13.004 13.004h29.996c7.203 0 13.004-5.8 13.004-13.004v-1c0 7.203-5.8 13.002-13.004 13.002H17.002A12.975 12.975 0 0 1 3.998 45.998" opacity=".1"/><path fill="#fff" d="M3.998 18.004v-1C3.998 9.801 9.798 4 17.002 4h29.996c7.203 0 13.004 5.8 13.004 13.004v1c0-7.203-5.8-13.002-13.004-13.002H17.002A12.975 12.975 0 0 0 3.998 18.004" opacity=".5"/><path fill="url(#a)" fill-rule="evenodd" d="m32.955 35.927 8.644 5.705-1.259 3.015s-7.161-5.744-7.385-8.72"/><path fill="#1a1a1a" fill-rule="evenodd" d="M33.979 26.029c3.227-2.204 7.985-5.982 8.502-7.696.497-1.645 2.545-1.334 2.08.527-.466 1.862-3.01 9.217-7.014 14.12m-19.89 9.712c1.826-.536 2.848-2.643 4.185-3.961 2.422 2.224 15.037 6.5 8.48 6.609-3.37-.194-5.33 1.635-7.165 3.128z"/><g fill-rule="evenodd"><path fill="#333" d="M31.748 12.274c-4.784.088-6.364 3.73-6.364 5.53 0 1.799.591 5.539-.857 7.996-.957 1.624-3.988 5.472-4.848 9.075-.858 3.598-.188 11.19 9.786 11.366 10.27.18 9.564 2.374 9.564 2.374l3.643-6.96c-.952-.456-2.41-1.146-2.35-1.275 1.832-3.882-3.07-11.099-3.992-13.908s.161-3.503.907-5.214 1.05-8.984-5.49-8.984z"/><path fill="gold" d="M18.275 42.818c-.904-.723-1.68.278-1.138 1.24.54.963 5.154 5.594 6.479 7.054s3.632-.671 1.55-1.873-5.987-5.699-6.891-6.421"/><path fill="#333" d="M19.512 38.773c.376 1.44-1.391 3.166-2.335 4.055-1.227 1.155.032 1.784.439 1.753.406-.032 3.432-1.126 5.78.189"/></g><g fill-rule="evenodd"><path fill="#fff" d="M34.683 15.446c-1.373-.016-2.33 1.545-1.613 3.38.411 1.053 3.114.995 3.286-.101.293-1.87-.315-3.264-1.673-3.279"/><path fill="#333" d="M34.565 17.344a.969 1.175 0 0 1 1.369-.002.969 1.175 0 0 1 .005 1.66.969 1.175 0 0 1-1.368.01.969 1.175 0 0 1-.013-1.66"/><path fill="gold" d="M37.34 22.366c.868.029 6.019-.984 6.077-1.707s-3.618-1.07-4.34-1.389c-.724-.319-4.24-1.257-4.196 1.1.043 2.356 1.59 1.967 2.459 1.996"/></g><path fill="none" stroke="#ae9300" stroke-width=".2" d="M36.02 21.015c1.831.398 4.052.532 5.28.328"/><path fill="none" d="M37.34 22.366c.868.028 6.02-.984 6.077-1.708.058-.723-3.617-1.07-4.34-1.389-.724-.318-4.24-1.257-4.196 1.1s1.591 1.968 2.46 1.997z"/><path fill="#333" fill-rule="evenodd" d="M25.979 24.64c-4.31 3.649-11.075 12.371-9.722 13.219 1.167.731 8.124-5.3 11.066-5.916"/><path fill="none" d="M24.294 26.233c-2.73 2.891-6.625 7.482-7.853 9.97-1.213 1.92.19 2.635 1.834 1.06 2.233-1.232 5.581-4.16 7.775-4.618"/><g fill-rule="evenodd"><path fill="gold" d="M42.818 38.51c.122-1.739 2.557-2.028 2.542.1-.018 2.42-3.295 8.275-4.529 9.737-1.189 1.409-2.37.307-1.536-1.054s3.359-6.438 3.523-8.783"/><path fill="#fff" d="M36.747 28.77c-.827-.367-1.119 1.774-1.806 2.775-.828 1.205-1.626 2.365-1.016 4.27l6.3 4.374c.812-3.198-1.366-7.854-3.478-11.42zm-1.744-11.528a.33.21 0 0 1 .466 0 .33.21 0 0 1 .002.296.33.21 0 0 1-.466.002.33.21 0 0 1-.005-.296"/></g></svg>