<svg xmlns="http://www.w3.org/2000/svg" xmlns:xlink="http://www.w3.org/1999/xlink" fill="none" viewBox="0 0 64 64"><defs><linearGradient id="b" x1="47" x2="107" y1="84" y2="117" gradientTransform="translate(-34.501 -54)" gradientUnits="userSpaceOnUse"><stop offset="0" stop-color="#aa5cc3"/><stop offset="1" stop-color="#00a4dc"/></linearGradient><linearGradient xlink:href="#b" id="d" x1="47" x2="107" y1="84" y2="117" gradientTransform="translate(-34.592 -57.273)" gradientUnits="userSpaceOnUse"/><pattern xlink:href="#a" id="c"/></defs><rect width="56.002" height="56.002" x="4" y="3.969" fill="#4d4d4d" rx="13.002" ry="13.002"/><path fill="#000" d="M3.998 45.998v1c0 7.203 5.8 13.004 13.004 13.004h29.996c7.203 0 13.004-5.8 13.004-13.004v-1c0 7.203-5.8 13.002-13.004 13.002H17.002A12.975 12.975 0 0 1 3.998 45.998" opacity=".35"/><path fill="#fff" d="M3.998 18.004v-1C3.998 9.801 9.798 4 17.002 4h29.996c7.203 0 13.004 5.8 13.004 13.004v1c0-7.203-5.8-13.002-13.004-13.002H17.002A12.975 12.975 0 0 0 3.998 18.004" opacity=".15"/><rect width="60.882" height="62.001" x="1.559" y="1.999" fill="url(#c)" class="fills" rx="0" ry="0"/><g fill="url(#d)" transform="translate(12.785 13.699)scale(.52777)"><path d="M24.62 45.885c-1.552-3.116 8.626-21.57 11.788-21.57 3.167.002 13.323 18.488 11.788 21.57-1.535 3.081-22.025 3.115-23.577 0z" style="fill:#159bd9;fill-opacity:1"/><path fill-rule="evenodd" d="M.89 61.723c-4.676-9.39 25.996-64.995 35.52-64.995 9.532 0 40.152 55.713 35.526 64.995s-66.368 9.391-71.045 0m12.255-8.148c3.065 6.152 43.518 6.084 46.548 0 3.03-6.086-17.033-42.587-23.275-42.587S10.08 47.422 13.143 53.575z" clip-rule="evenodd" style="fill:#9565c6;fill-opacity:1"/></g></svg>