<svg xmlns="http://www.w3.org/2000/svg" width="64" height="64"><defs><linearGradient id="a" x1="7.937" x2="7.937" y1="15.081" y2="1.852" gradientTransform="translate(0 .032)scale(3.7795)" gradientUnits="userSpaceOnUse"><stop offset="0" stop-color="#6dc758"/><stop offset="1" stop-color="#b2ff85"/></linearGradient></defs><rect width="56" height="56" x="4" y="4" fill="url(#a)" rx="13.002" ry="13.002"/><path fill="#383838" d="M44.608 15.19c-2.802 0-8.406 5.596-8.406 5.596l2.802 2.802h5.604c2.802 0 7.004-5.604 7.004-5.604s-4.202-2.794-7.004-2.794m-25.216 0c-2.802 0-7.005 2.802-7.005 2.802s4.203 5.604 7.005 5.604h5.603l2.802-2.802s-5.604-5.604-8.405-5.604"/><path fill="#d7a2a2" d="M44.504 17.984c-2.802 0-2.783.957-5.5 2.81 1.378.966 3.612 2.31 5.172 2.126 1.783-.283 3.234-2.134 4.635-4.236 0 0-1.505-.7-4.307-.7m-25.112.008c-2.802 0-4.203.7-4.203.7 1.4 2.102 2.747 3.953 4.531 4.236 1.56.185 3.898-1.168 5.275-2.134-2.717-1.853-2.802-2.802-5.603-2.802"/><path fill="#e5e1d9" d="m32 17.992-12.835 13.62c-.864 2.006-1.174 3.191-1.174 5.993 0 4.203 3.502 7.004 3.502 7.004l16.11 2.802c2.114-1.241 5.604-1.4 7.426-4.928L43.114 25.43c-.854-1.483-1.813-3.107-2.709-4.635-2.802-1.401-4.203-2.802-8.405-2.802z"/><path fill="#383838" d="M23.594 20.794c-1.348 3.552-3.068 7.664-4.43 10.819 0 0 10.97 8.035 15.028 4.703 3.468-2.849-1.024-8.917-1.453-13.385-.169-1.758-.739-4.939-.739-4.939-4.202 0-5.603 1.401-8.405 2.802zm19.52 4.635s-2.546.119-3.324.971c-1.771 1.944-2.082 5.182-1.502 7.746.486 2.15 3.932 5.32 3.932 5.32l2.81 3.017c.921-1.227 2.38-4.178 2.38-6.279 0-5.604-2.802-8.405-4.295-10.775z"/><path fill="#f9f9f9" d="M29.198 20.794c-2.802 0-7.005 2.802-7.005 8.405 0 2.802 2.102 4.203 4.203 4.203s3.502-1.4 4.903-3.502c1.401 3.502 3.885 4.889 6.164 4.903 2.102.013 4.343-1.4 4.343-5.604 0-2.801-2.942-8.405-7.145-8.405-2.1 0-2.661 1.4-2.661 1.4s-.7-1.4-2.802-1.4"/><path fill="#e09d9d" d="M44.608 39.006c0 5.698-5.186 9.806-12.608 9.806s-12.608-4.108-12.608-9.806c0-2.85.739-5.349 3.408-6.683s5.997 1.08 9.2 1.08 6.82-2.415 9.488-1.08 3.12 3.834 3.12 6.683"/><path fill="#383838" d="M29.898 23.596a2.1 2.1 0 0 0-2.1 2.101 2.1 2.1 0 0 0 2.1 2.102A2.1 2.1 0 0 0 32 25.697a2.1 2.1 0 0 0-2.102-2.101m4.904 0A2.8 2.8 0 0 0 32 26.398a2.8 2.8 0 0 0 2.802 2.801 2.8 2.8 0 0 0 2.801-2.801 2.8 2.8 0 0 0-2.801-2.802m-8.406 11.207a2.8 2.8 0 0 0-2.802 2.802 2.8 2.8 0 0 0 2.802 2.802 2.8 2.8 0 0 0 2.802-2.802 2.8 2.8 0 0 0-2.802-2.802m11.207 0a2.8 2.8 0 0 0-2.801 2.802 2.8 2.8 0 0 0 2.801 2.802 2.8 2.8 0 0 0 2.802-2.802 2.8 2.8 0 0 0-2.802-2.802"/></svg>