<svg xmlns="http://www.w3.org/2000/svg" xmlns:xlink="http://www.w3.org/1999/xlink" width="64" height="64"><defs><linearGradient id="b" x1="7.937" x2="7.937" y1="15.081" y2="1.852" gradientTransform="scale(3.7796)" gradientUnits="userSpaceOnUse"><stop offset="0" stop-color="#2e2e2e"/><stop offset="1" stop-color="#5c5c5c"/></linearGradient><linearGradient id="d" x1="32" x2="32" y1="4.865" y2="64" gradientTransform="translate(0 -.713)" gradientUnits="userSpaceOnUse"><stop offset="0" stop-color="#fff"/><stop offset="1" stop-color="#f0f0f0"/></linearGradient><linearGradient id="e" x1="32" x2="32.049" y1="9" y2="62" gradientTransform="translate(0 -.713)" gradientUnits="userSpaceOnUse"><stop offset="0" stop-color="#f2f2f2"/><stop offset="1" stop-color="#dfdfdf"/></linearGradient><linearGradient id="f" x1="31.996" x2="32" y1="2" y2="64" gradientTransform="translate(0 -.713)" gradientUnits="userSpaceOnUse"><stop offset="0" stop-color="#afafaf"/><stop offset="1" stop-color="#d0d0d0"/></linearGradient><linearGradient xlink:href="#a" id="g" x1="29.864" x2="25.661" y1="7.585" y2="6.983" gradientUnits="userSpaceOnUse"/><linearGradient id="a"><stop offset="0"/><stop offset="1" stop-opacity="0"/></linearGradient><linearGradient xlink:href="#a" id="h" x1="29.864" x2="25.661" y1="7.585" y2="6.983" gradientTransform="rotate(-15.553 32.213 7.79)" gradientUnits="userSpaceOnUse"/><linearGradient xlink:href="#a" id="i" x1="29.864" x2="25.661" y1="7.585" y2="6.983" gradientTransform="rotate(-36.889 31.544 8.132)" gradientUnits="userSpaceOnUse"/><linearGradient xlink:href="#a" id="j" x1="29.864" x2="25.661" y1="7.585" y2="6.983" gradientTransform="matrix(-1 0 0 1 64.065 0)" gradientUnits="userSpaceOnUse"/><linearGradient xlink:href="#a" id="k" x1="29.864" x2="25.661" y1="7.585" y2="6.983" gradientTransform="rotate(15.553 -.18 242.351)scale(-1 1)" gradientUnits="userSpaceOnUse"/><linearGradient xlink:href="#a" id="l" x1="29.864" x2="25.661" y1="7.585" y2="6.983" gradientTransform="rotate(36.889 .489 104.177)scale(-1 1)" gradientUnits="userSpaceOnUse"/><filter id="c" width="1.087" height="1.194" x="-.043" y="-.097" color-interpolation-filters="sRGB"><feGaussianBlur stdDeviation=".597"/></filter></defs><rect width="56.002" height="56.002" x="4" y="3.969" fill="url(#b)" rx="13.002" ry="13.002"/><path fill="#fff" d="M17.002 3.969q-.68 0-1.342.068c-2.42 2.106-4.55 4.8-6.47 8.117 5.536 5.93 12.68 11.13 22.81 11.133 10.132-.007 17.559-4.345 23.09-10.277-2.107-3.635-4.508-6.657-7.279-9-.27-.016-.537-.04-.81-.04H17.003z" opacity=".5"/><path d="M46.045 4.795A29.86 29.86 0 0 1 32 8.287a29.86 29.86 0 0 1-14.045-3.49 30 30 0 0 0-2.39 1.399L25 18.288c1.55.247 5.006 1.297 6.626 1.297 1.66 0 8.898-1.038 10.485-1.297l6.422-12.031c-.8-.53-1.637-1.008-2.488-1.461z" filter="url(#c)" opacity=".15"/><path fill="url(#d)" d="M46.045 4.795A29.86 29.86 0 0 1 32 8.287a29.86 29.86 0 0 1-14.045-3.49c-.817.435-1.62.893-2.39 1.398L27.04 59.97h10.03L48.532 6.255c-.8-.53-1.636-1.008-2.488-1.46z"/><g fill-rule="evenodd" transform="translate(0 -.713)"><path fill="url(#e)" d="M28 8.287v51.684h8V8.287z" style="paint-order:fill markers stroke" transform="translate(0 .713)"/><path d="M28 8.287v51.684h1V8.287z" opacity=".1" style="paint-order:fill markers stroke" transform="translate(0 .713)"/><circle cx="32" cy="26.5" r="1.5" fill="#333" style="paint-order:fill markers stroke"/><circle cx="32" cy="44" r="1.5" fill="#333" style="paint-order:fill markers stroke"/></g><path fill="#4d4d4d" d="M22.814 4.45c-.205 1.551-.304 2.849 0 4.558.116 1.709.509 2.657.764 3.986 1.358.676 2.082.407 3.056 0 1.85-.972 2.408-1.71 4.584-2.28.576-.19.88-.324.764-.568l-.764-3.418c-.764-.19-1.413-.28-2.293-.57a34 34 0 0 1-3.054-1.139c-.471-.15-.862-.319-1.413-.449-.601-.12-1.123-.12-1.644-.12m18.385 0c-.521 0-1.043 0-1.645.12-.55.13-.941.3-1.412.45-.88.38-1.893.765-3.054 1.138-.88.29-1.53.38-2.293.57l-.764 3.419c-.116.243.188.378.764.568 2.175.57 2.734 1.307 4.584 2.28.974.406 1.698.675 3.056 0 .255-1.33.648-2.278.764-3.987.304-1.709.205-3.007 0-4.559z"/><rect width="4.022" height="4.022" x="29.987" y="6.729" fill="#333" fill-rule="evenodd" rx=".881" ry=".881" style="paint-order:fill markers stroke"/><path fill="url(#f)" fill-rule="evenodd" d="M17.002 3.969c-3.464 0-6.594 1.35-8.92 3.543C9.698 23.65 13.25 46.43 17.48 59.97h10.6c-4.846-18.316-7.725-34.372-8.803-56.002h-2.275zm27.721 0c-1.078 21.63-3.957 37.686-8.803 56.002h10.602c4.23-13.541 7.78-36.322 9.397-52.461A12.95 12.95 0 0 0 47 3.969z" style="paint-order:fill markers stroke"/><path fill="url(#g)" d="m25.186 6.203 4.508 1.356-4.576-.034z" opacity=".35"/><path fill="url(#h)" d="m25.018 8.146 4.707.097-4.418 1.194z" opacity=".35"/><path fill="url(#i)" d="m25.301 10.406 4.42-1.622-3.68 2.72z" opacity=".35"/><path fill="url(#j)" d="M38.879 6.203 34.371 7.56l4.576-.034z" opacity=".35"/><path fill="url(#k)" d="m39.047 8.146-4.707.097 4.418 1.194z" opacity=".35"/><path fill="url(#l)" d="m38.764 10.406-4.42-1.622 3.68 2.72z" opacity=".35"/></svg>