<svg xmlns="http://www.w3.org/2000/svg" viewBox="0 0 16.933 16.933"><path d="M4.498 1.05a3.5 3.5 0 0 0-1.025.154A3.42 3.42 0 0 0 1.058 4.49v7.937a3.5 3.5 0 0 0 .27 1.341 3.4 3.4 0 0 0 .98 1.316 3.43 3.43 0 0 0 2.19.783h5.818l5.547-3.203c.005-.079.012-.157.012-.237V4.49a3.5 3.5 0 0 0-.27-1.341 3.4 3.4 0 0 0-.98-1.316 3.43 3.43 0 0 0-2.19-.783z" style="fill:#b9b0a1;fill-opacity:1"/><g style="fill:#323232;fill-opacity:1"><rect width="3.976" height="1.941" x="4.299" y="14.265" ry=".97" style="opacity:.860436;fill:#9f9287;stroke:#000;stroke-width:0;stroke-linecap:round;stroke-opacity:0;fill-opacity:1" transform="rotate(-24.893)"/><path d="M3.734 2.562a.44.44 0 0 0-.4.264.4.4 0 0 0-.033.17v5.882a.44.44 0 0 0 .264.4.4.4 0 0 0 .17.033h2.45a1.4 1.4 0 0 1-.54-.108 1.37 1.37 0 0 1-.607-.5 1.37 1.37 0 0 1-.235-.773V2.995a.433.433 0 0 1 .432-.432h6.472-.01zm7.973.001a.4.4 0 0 1 .158.033.43.43 0 0 1 .265.4v1.817h.121a1.4 1.4 0 0 1 .66.166 1.37 1.37 0 0 1 .721 1.214V2.995a.43.43 0 0 0-.19-.358.43.43 0 0 0-.242-.074z" style="stroke:#000;stroke-width:0;stroke-linecap:round;stroke-opacity:0;fill:#323232;fill-opacity:1"/><path d="M12.13 7.062H5.235a.44.44 0 0 1-.305-.127.43.43 0 0 1-.127-.306V7.93a1.4 1.4 0 0 0 .167.66 1.37 1.37 0 0 0 1.073.714q.07.007.142.007h5.511a.44.44 0 0 0 .307-.127.43.43 0 0 0 .127-.306z" style="stroke:#000;stroke-width:0;stroke-linecap:round;stroke-opacity:0;fill:#323232;fill-opacity:1"/><path d="M12.13 7.062v1.816a.433.433 0 0 1-.434.433h.555a1.4 1.4 0 0 0 .412-.062 1.38 1.38 0 0 0 .941-1.04 1.4 1.4 0 0 0 .028-.279v-1.3a.433.433 0 0 1-.432.432zm0-2.249H6.185a1.4 1.4 0 0 0-.66.166 1.4 1.4 0 0 0-.555.555 1.4 1.4 0 0 0-.167.66v.435a.44.44 0 0 0 .19.36.43.43 0 0 0 .242.073h6.895z" style="stroke:#000;stroke-width:0;stroke-linecap:round;stroke-opacity:0;fill:#323232;fill-opacity:1"/><path d="M12.13 4.813v2.249h1.07a.44.44 0 0 0 .359-.19.43.43 0 0 0 .073-.243v-.436a1.4 1.4 0 0 0-.061-.411 1.37 1.37 0 0 0-.908-.907 1.4 1.4 0 0 0-.412-.062zm-.423-2.25H5.235a.44.44 0 0 0-.305.127.43.43 0 0 0-.127.305v3.198a1.4 1.4 0 0 1 .167-.659 1.38 1.38 0 0 1 .676-.613 1.4 1.4 0 0 1 .539-.108h5.945V2.995a.433.433 0 0 0-.423-.432z" style="stroke:#000;stroke-width:0;stroke-linecap:round;stroke-opacity:0;fill:#323232;fill-opacity:1"/></g><path fill="#3d3846" d="M11.38 12.17c.369 0 .669-.29.669-.646s-.3-.647-.67-.647-.67.29-.67.647.3.646.67.646zm1.607-.862c.37 0 .67-.29.67-.646 0-.358-.3-.647-.67-.647s-.67.29-.67.647.3.646.67.646" style="fill:#5d2143;fill-opacity:1;stroke-width:.13871"/><rect width="7.394" height="4.393" x="4.769" y="3.741" ry=".358" style="fill:#919b6f;stroke:#000;stroke-width:0;stroke-linecap:round;stroke-opacity:0;fill-opacity:1"/><circle cx="3.871" cy="4.995" r=".183" style="fill:red;stroke:#000;stroke-width:0;stroke-linecap:round;stroke-opacity:0"/><path d="m15.863 12.664-5.547 3.203h2.12a3.5 3.5 0 0 0 1.024-.154 3.42 3.42 0 0 0 2.397-2.933c.004-.038.003-.078.006-.116z" style="opacity:1;fill:#786c61;stroke:#000;stroke-width:0;stroke-linecap:round;stroke-opacity:0;fill-opacity:1"/><path fill="#613583" d="M14.225 12.74h-1.876a.134.134 0 1 0 0 .269h1.876a.134.134 0 0 0 0-.268zm0 .67h-1.876a.134.134 0 1 0 0 .268h1.876a.134.134 0 0 0 0-.268m0 .67h-1.876a.134.134 0 1 0 0 .268h1.876a.134.134 0 0 0 0-.268m0-3.348h-1.876a.134.134 0 1 0 0 .268h1.876a.134.134 0 0 0 0-.268m0 .67h-1.876a.134.134 0 1 0 0 .268h1.876a.134.134 0 0 0 0-.268m0 .67h-1.876a.134.134 0 1 0 0 .268h1.876a.134.134 0 0 0 0-.268" style="fill:#3a3a2f;fill-opacity:1;stroke-width:.13396" transform="rotate(60 12.282 12.81)"/><g style="fill:#1d1d1d;fill-opacity:1"><rect width="3.345" height="1.134" x="9.557" y="-5.541" ry=".204" style="fill:#1d1d1d;fill-opacity:1;stroke:#000;stroke-width:0;stroke-linecap:round;stroke-opacity:0" transform="matrix(-.82742 0 0 -.89805 14.145 6.812)"/></g><rect width="2.768" height="1.105" x="9.938" y="-5.406" ry=".199" style="fill:#1d1d1d;fill-opacity:1;stroke:#000;stroke-width:0;stroke-linecap:round;stroke-opacity:0" transform="rotate(90)"/><g style="fill:#323232;fill-opacity:1" transform="rotate(-24.893)"><rect width="1.501" height=".733" x="-.259" y="14.87" ry=".366" style="opacity:.860436;fill:#323232;fill-opacity:1;stroke:#000;stroke-width:0;stroke-linecap:round;stroke-opacity:0"/><rect width="1.501" height=".733" x="1.344" y="15.614" ry=".366" style="opacity:.860436;fill:#323232;fill-opacity:1;stroke:#000;stroke-width:0;stroke-linecap:round;stroke-opacity:0"/></g><path d="M1.058 12.17v.265a3.433 3.433 0 0 0 3.44 3.44h7.937a3.433 3.433 0 0 0 3.44-3.44v-.265a3.433 3.433 0 0 1-3.44 3.44H4.498a3.433 3.433 0 0 1-3.44-3.44" opacity=".15"/><path fill="#fff" d="M1.058 4.763V4.5a3.433 3.433 0 0 1 3.44-3.44h7.937a3.433 3.433 0 0 1 3.44 3.44v.264a3.433 3.433 0 0 0-3.44-3.44H4.498a3.433 3.433 0 0 0-3.44 3.44" opacity=".15"/></svg>