<svg xmlns="http://www.w3.org/2000/svg" width="64" height="64"><defs><linearGradient id="a" x1="33.719" x2="33.719" y1="4.783" y2="60.08" gradientUnits="userSpaceOnUse"><stop offset="0" stop-color="#84609a"/><stop offset="1" stop-color="#433354"/></linearGradient></defs><rect width="56.002" height="56.002" x="4" y="3.97" fill="url(#a)" rx="13.002" ry="13.002"/><path fill="#ececec" d="M17.002 3.969c-4.8 0-8.964 2.582-11.217 6.431h52.432A12.96 12.96 0 0 0 47 3.97z"/><path fill="#241f31" d="m18.055 4 2.336 5.127h6.586L24.64 4zm12.558 0 2.338 5.127h6.586L37.2 4zm12.56 0 2.337 5.127h6.586l-2.2-4.825A13 13 0 0 0 47.61 4zm-30.728.8a12.95 12.95 0 0 0-5.037 3.4l.422.928h6.586z"/><path fill="#fff" d="M6.662 9.092a12.9 12.9 0 0 0-2.365 5.125h55.408a12.9 12.9 0 0 0-2.365-5.125z"/><path d="m7.83 9.092-2.336 5.125h6.586l2.336-5.125zm12.56 0-2.335 5.125h6.586l2.336-5.125zm12.561 0-2.337 5.125H37.2l2.336-5.125zm12.559 0-2.336 5.125h6.586l2.336-5.125zm12.283.61-2.059 4.515h3.971a12.9 12.9 0 0 0-1.912-4.516"/><path fill="#fff" d="M20.545 22.817v7.637H7.82c-.648 0-1.274.568-1.274 1.273h50.91c0-.677-.595-1.273-1.271-1.273h-12.73v-7.637h-1.273v7.637H21.819v-7.637Zm-14 19.092c0 .617.647 1.273 1.274 1.273h48.365c.692 0 1.271-.603 1.271-1.273z"/></svg>