<svg xmlns="http://www.w3.org/2000/svg" width="64" height="64"><defs><linearGradient id="a" x1="7.937" x2="7.937" y1="15.081" y2="1.852" gradientTransform="scale(3.7796)" gradientUnits="userSpaceOnUse"><stop offset="0" stop-color="#0e71de"/><stop offset="1" stop-color="#25c9ff"/></linearGradient><filter id="b" width="1.192" height="1.087" x="-.096" y="-.044" color-interpolation-filters="sRGB"><feGaussianBlur stdDeviation=".5"/></filter></defs><rect width="64" height="64" fill="none" rx="0" ry="0" style="paint-order:stroke fill markers"/><rect width="56.002" height="56.002" x="4" y="3.969" fill="url(#a)" rx="13.002" ry="13.002"/><circle cx="32.02" cy="32.044" r="30.001" fill="none"/><path fill-rule="evenodd" d="M402.89 517.61h3.75l-6.504 10.736h5.445l-7.044 11.194 2.27.948-6.667 4.622 1.473-7.95 1.607 1.57 4.256-7.775h-5.528z" filter="url(#b)" opacity=".15" transform="matrix(1.6 0 0 1.6 -608.62 -818.18)"/><path fill="#fffff9" fill-rule="evenodd" d="M36.004 9.996h6L31.598 27.174h8.712l-11.271 17.91 3.631 1.517-10.666 7.395 2.356-12.719 2.571 2.512 6.811-12.442h-8.846z"/></svg>