<svg xmlns="http://www.w3.org/2000/svg" xmlns:xlink="http://www.w3.org/1999/xlink" width="64" height="64"><defs><linearGradient xlink:href="#a" id="b" x1="7.937" x2="7.937" y1="6.879" y2="1.058" gradientTransform="scale(3.7796)" gradientUnits="userSpaceOnUse"/><linearGradient id="a"><stop offset="0" stop-color="#fff"/><stop offset="1" stop-color="#ccf0ff"/></linearGradient><linearGradient id="c" x1="7.937" x2="7.937" y1="15.081" y2="1.852" gradientTransform="scale(3.7796)" gradientUnits="userSpaceOnUse"><stop offset="0" stop-color="#2858e4"/><stop offset="1" stop-color="#5ab9f4"/></linearGradient><linearGradient xlink:href="#a" id="d" x1="45" x2="57.008" y1="19" y2="6.992" gradientUnits="userSpaceOnUse"/></defs><path fill="url(#b)" d="M35 3.969c6 0 25.002 19.03 25.002 25.03V16.972A12.973 12.973 0 0 0 47 3.969z"/><path fill="#fff" d="M17.002 7a9.95 9.95 0 0 0-9.97 9.97v30a9.95 9.95 0 0 0 9.97 9.97H47a9.95 9.95 0 0 0 9.97-9.97v-30A9.95 9.95 0 0 0 47 7zm0 1H47c4.97 0 8.97 4 8.97 8.97v30c0 4.97-4 8.97-8.97 8.97H17.002c-4.97 0-8.97-4-8.97-8.97v-30c0-4.97 4-8.971 8.97-8.971z"/><g fill="#fff"><path d="M48.999 8.001H50v23h-1z"/><path d="M55.999 14v1h-23v-1z"/></g><path fill="url(#c)" d="M17.002 3.969c-1.35 0-2.652.203-3.875.582a13 13 0 0 0-6.166 4.14 12.93 12.93 0 0 0-2.894 6.946v.002Q4 16.295 4 16.97v29.998a12.96 12.96 0 0 0 3.8 9.203 13 13 0 0 0 5.327 3.217 13 13 0 0 0 2.541.515h.002q.657.067 1.332.067H47c1.35 0 2.652-.203 3.875-.582a13 13 0 0 0 8.545-8.545c.379-1.223.582-2.524.582-3.875v-17.97C60.002 23 41 3.97 35 3.97z"/><g stroke-width="3.78"><path fill="url(#d)" d="M35 4c4 1 5 7 6 11 .97 3.88 3.18 6.545 9 8 4 1 8 .64 10 6 0-.024-.004-.048-.004-.072-.11-6.996-16.605-23.738-24.209-24.893C35.522 4.015 35.26 4 35 4"/><g style="paint-order:markers stroke fill"><path d="M17.002 3.955c-1.35 0-2.652.203-3.875.582a13 13 0 0 0-6.166 4.14 12.93 12.93 0 0 0-2.894 6.946v.002c-.042.411-.06.83-.063 1.254v4.076A16 16 0 0 0 19.998 4.957a16 16 0 0 0-.037-1.002z" opacity=".15"/><path d="M14.955 4.115a12.9 12.9 0 0 0-4.16 1.404A13 13 0 0 0 6.96 8.677a12.93 12.93 0 0 0-2.895 6.946v.002c-.01.107-.007.22-.015.328A11 11 0 0 0 15 4.957a11 11 0 0 0-.046-.842z" opacity=".15"/><path d="M9.895 6.06A13 13 0 0 0 6.96 8.677a13 13 0 0 0-1.381 2.06A6 6 0 0 0 9.894 6.06z" opacity=".15"/></g><g style="paint-order:markers stroke fill"><path d="M47.001 60.045c1.351 0 2.653-.203 3.875-.582a13 13 0 0 0 6.166-4.14 12.93 12.93 0 0 0 2.895-6.946v-.002q.06-.618.062-1.254v-4.076a16 16 0 0 0-15.994 15.998 16 16 0 0 0 .037 1.002z" opacity=".15"/><path d="M49.048 59.885a12.9 12.9 0 0 0 4.16-1.404 13 13 0 0 0 3.835-3.158 12.93 12.93 0 0 0 2.894-6.946v-.002c.01-.107.007-.22.016-.328a11 11 0 0 0-10.951 10.996 11 11 0 0 0 .046.842" opacity=".15"/><path d="M54.109 57.94a13 13 0 0 0 2.934-2.617 13 13 0 0 0 1.38-2.06 6 6 0 0 0-4.314 4.677" opacity=".15"/></g></g></svg>