<svg xmlns="http://www.w3.org/2000/svg" width="64" height="64" image-rendering="optimizeSpeed"><defs><linearGradient id="d" x1="35" x2="35" y1="5" y2="14" gradientUnits="userSpaceOnUse"><stop offset="0" stop-color="gray"/><stop offset="1" stop-color="#666"/></linearGradient><linearGradient id="c" x1="45" x2="60.076" y1="19" y2="3.924" gradientTransform="rotate(90 32.001 31.97)" gradientUnits="userSpaceOnUse"><stop offset="0" stop-color="#fff"/><stop offset="1" stop-color="#b3b3b3"/></linearGradient><linearGradient id="b" x1="13.237" x2="2.654" y1="7.665" y2="7.665" gradientTransform="rotate(90 32.001 31.97)scale(3.7796)" gradientUnits="userSpaceOnUse"><stop offset="0" stop-color="#e6e6e6"/><stop offset="1" stop-color="#f9f9f9"/></linearGradient><linearGradient id="a" x1="14.825" x2="11.385" y1="2.109" y2="5.548" gradientTransform="rotate(90 32.001 31.97)scale(3.7796)" gradientUnits="userSpaceOnUse"><stop offset="0" stop-color="#ececec"/><stop offset="1" stop-color="#999"/></linearGradient><linearGradient id="e" x1="13" x2="17" y1="34.696" y2="34.696" gradientUnits="userSpaceOnUse"><stop offset="0" stop-color="#747474"/><stop offset="1" stop-color="#333"/></linearGradient></defs><path fill="url(#a)" d="M60.002 34.969c0 6-19.031 25.002-25.031 25.002H47a12.973 12.973 0 0 0 13.002-13.002z"/><path fill="#fff" d="M17.002 7a9.95 9.95 0 0 0-9.97 9.97v30a9.95 9.95 0 0 0 9.97 9.97H47a9.95 9.95 0 0 0 9.97-9.97v-30A9.95 9.95 0 0 0 47 7zm0 1H47c4.97 0 8.97 4 8.97 8.97v30c0 4.97-4 8.97-8.97 8.97H17.002c-4.97 0-8.97-4-8.97-8.97v-30c0-4.97 4-8.971 8.97-8.971z"/><g fill="#fff"><path d="M55.97 48.968v1.001h-23v-1.001z"/><path d="M49.971 55.967H48.97V32.968h1.001z"/></g><path fill="url(#b)" d="M4.164 15c-.032.212-.076.42-.098.637v.002A13 13 0 0 0 4 16.97v29.998c0 1.35.203 2.652.582 3.875a13 13 0 0 0 8.545 8.545 13.1 13.1 0 0 0 3.875.582h17.969c6 0 25.031-19.002 25.031-25.002V16.97q-.001-1.006-.146-1.971H4.165z"/><path fill="url(#c)" d="M59.971 34.969c-1 4-7 5-11 6-3.88.97-6.545 3.18-8 9-1 4-.64 8-6 10 .024 0 .048-.004.072-.004 6.996-.11 23.738-16.605 24.893-24.209.02-.265.035-.528.035-.787"/><path fill="url(#d)" d="M17.002 3.969a12.96 12.96 0 0 0-9.203 3.8 13 13 0 0 0-3.217 5.327c-.19.614-.32 1.254-.418 1.904h55.691a13 13 0 0 0-1.418-4.236A13 13 0 0 0 55.28 6.93a12.93 12.93 0 0 0-6.945-2.895h-.002A13 13 0 0 0 47 3.97H17.002z"/><path fill="url(#e)" d="M17 20h-4v26l2 3.392L17 46z"/><path fill="#fff" d="M13 34h4v10h-4z" opacity=".36"/></svg>