<svg xmlns="http://www.w3.org/2000/svg" width="64" height="64" viewBox="0 0 16.933 16.933"><defs><radialGradient id="c" cx="13.074" cy="10.074" r="2.552" gradientUnits="userSpaceOnUse"><stop offset="0" stop-color="#52ffe9"/><stop offset="1" stop-color="#2fedd4" stop-opacity="0"/></radialGradient><linearGradient id="a" x1="7.937" x2="7.937" y1="15.081" y2="1.852" gradientUnits="userSpaceOnUse"><stop offset="0" stop-color="#767574"/><stop offset="1" stop-color="#d1e7ee"/></linearGradient><filter id="b" width="1.174" height="1.284" x="-.087" y="-.142" color-interpolation-filters="sRGB"><feGaussianBlur stdDeviation=".401"/></filter></defs><rect width="14.817" height="14.817" x="1.058" y="1.05" fill="url(#a)" rx="3.44" ry="3.44"/><rect width="13.757" height="13.742" x="1.588" y="1.587" fill="#030000" rx="2.91" ry="2.91"/><rect width="12.171" height="12.171" x="2.381" y="2.381" fill="#1a211f" rx="2.117" ry="2.117"/><path fill="#a1fbe6" d="M4.816 2.381v.81H3.091v-.274l-.08.072v.202h-.179l-.059.08h.238v1.726h-.63v.08h.63v1.725h-.63v.08h.63v1.725h-.63v.08h.63v1.725h-.63v.08h.63v1.726h-.63v.079h.63v1.647l.08.072v-1.719h1.725v1.726H3.098l.095.08h1.623v.45h.08v-.45h1.726v.45H6.7v-.45h1.726v.45h.08v-.45h1.725v.45h.08v-.45h1.725v.45h.08v-.45h1.623l.095-.08h-1.718v-1.726h1.725v1.72l.08-.073v-1.647h.63v-.08h-.63v-1.725h.63v-.08h-.63V8.686h.63v-.079h-.63V6.881h.63v-.08h-.63V5.077h.63v-.08h-.63V3.272h.238l-.06-.08h-.178V2.99l-.08-.072v.274h-1.725v-.81h-.08v.81H10.31v-.81h-.079v.81H8.506v-.81h-.08v.81H6.702v-.81h-.08v.81H4.897v-.81h-.08zm-1.725.89h1.725v1.726H3.091zm1.805 0h1.726v1.726H4.896zm1.805 0h1.726v1.726H6.7zm1.805 0h1.726v1.726H8.506zm1.805 0h1.726v1.726h-1.726zm1.806 0h1.725v1.726h-1.725zM3.09 5.076h1.726v1.726H3.09zm1.805 0h1.726v1.726H4.895zm1.805 0h1.726v1.726H6.7zm1.806 0h1.726v1.726H8.506zm1.805 0h1.726v1.726h-1.726zm1.805 0h1.726v1.726h-1.726zM3.09 6.881h1.726v1.726H3.09zm1.805 0h1.726v1.726H4.895zm1.805 0h1.726v1.726H6.7zm1.806 0h1.726v1.726H8.506zm1.805 0h1.726v1.726H10.31zm1.805 0h1.726v1.726h-1.726zM3.09 8.686h1.726v1.726H3.09zm1.805 0h1.726v1.726H4.895zm1.805 0h1.726v1.726H6.7zm1.806 0h1.726v1.726H8.506zm1.805 0h1.726v1.726H10.31zm1.805 0h1.726v1.726h-1.726zM3.09 10.492h1.726v1.726H3.09zm1.805 0h1.726v1.726H4.895zm1.805 0h1.726v1.726H6.7zm1.806 0h1.726v1.726H8.506zm1.805 0h1.726v1.726H10.31zm1.805 0h1.726v1.726h-1.726zm-7.221 1.805h1.726v1.726H4.895zm1.805 0h1.726v1.726H6.7zm1.805 0h1.726v1.726H8.507zm1.805 0h1.726v1.726h-1.725z" opacity=".35"/><path fill="#c1fdee" d="M7.166 5.081c-.026.004-.048.044-.076.127-.055.162-.068.395-.14 2.57-.038 1.147-.12 2.175-.192 2.385-.093.272-.247.187-.634-.35-.2-.276-.425-.558-.502-.625-.131-.116-.146-.117-.28-.019a.84.84 0 0 0-.225.331c-.118.323-.281.498-.508.545-.107.023-.664.005-1.236-.038l-.992-.076v.186l.52.05c.312.03.867.056 1.234.056.776 0 .91-.061 1.082-.498.059-.15.131-.288.16-.309.115-.079.274.053.6.497.185.253.399.506.474.56.182.134.354.065.445-.179.093-.248.184-1.285.223-2.517.033-1.064.061-1.312.136-1.177.044.078.086.517.139 1.425.01.187.06.842.108 1.455.164 2.058.223 2.425.38 2.367.082-.031.191-.54.198-.93a2 2 0 0 1 .085-.51c.091-.244.136-.254.673-.143.488.101.592.038.801-.49.282-.709.292-.726.455-.747.127-.017.202.042.44.34.872 1.097.97 1.14 1.444.639.16-.17.316-.31.346-.31s.184.126.344.279c.218.198.394.28.637.308a.128.128 0 0 0 0-.256c-.232.09-.45-.125-.57-.238-.392-.374-.522-.37-.852.031-.373.453-.39.447-1.087-.423-.716-.894-.881-.883-1.216.083-.07.204-.187.44-.258.523-.124.147-.14.15-.45.077-.473-.109-.655-.094-.784.06a.9.9 0 0 0-.144.248c-.041.143-.119.146-.157.005-.044-.163-.138-1.092-.17-1.687-.04-.754-.243-3.158-.284-3.357a.54.54 0 0 0-.11-.24q-.032-.03-.057-.028"/><path fill="#2eeed7" fill-opacity=".475" d="M7.166 5.081c-.026.004-.048.044-.076.127-.055.162-.068.395-.14 2.57-.038 1.147-.12 2.175-.192 2.385-.093.272-.247.187-.634-.35-.2-.276-.425-.558-.502-.625-.131-.116-.146-.117-.28-.019a.84.84 0 0 0-.225.331c-.118.323-.281.498-.508.545-.107.023-.664.005-1.236-.038l-.992-.076v.186l.52.05c.312.03.867.056 1.234.056.776 0 .91-.061 1.082-.498.059-.15.131-.288.16-.309.115-.079.274.053.6.497.185.253.399.506.474.56.182.134.354.065.445-.179.093-.248.184-1.285.223-2.517.033-1.064.061-1.312.136-1.177.044.078.086.517.139 1.425.01.187.06.842.108 1.455.164 2.058.223 2.425.38 2.367.082-.031.191-.54.198-.93a2 2 0 0 1 .085-.51c.091-.244.136-.254.673-.143.488.101.592.038.801-.49.282-.709.292-.726.455-.747.127-.017.202.042.44.34.872 1.097.97 1.14 1.444.639.16-.17.316-.31.346-.31s.184.126.344.279c.218.198.394.28.637.308a.128.128 0 0 0 0-.256c-.232.09-.45-.125-.57-.238-.392-.374-.522-.37-.852.031-.373.453-.39.447-1.087-.423-.716-.894-.881-.883-1.216.083-.07.204-.187.44-.258.523-.124.147-.14.15-.45.077-.473-.109-.655-.094-.784.06a.9.9 0 0 0-.144.248c-.041.143-.119.146-.157.005-.044-.163-.138-1.092-.17-1.687-.04-.754-.243-3.158-.284-3.357a.54.54 0 0 0-.11-.24q-.032-.03-.057-.028" filter="url(#b)"/><circle cx="13.074" cy="10.074" r="2.552" fill="url(#c)" opacity=".15"/></svg>