<svg xmlns="http://www.w3.org/2000/svg" width="64" height="64"><defs><linearGradient id="a" x1="7.937" x2="7.937" y1="11.58" y2="1.649" gradientTransform="scale(3.7796)" gradientUnits="userSpaceOnUse"><stop offset="0" stop-color="#0e71de"/><stop offset="1" stop-color="#25c9ff"/></linearGradient><filter id="b" width="1.064" height="1.082" x="-.032" y="-.041" color-interpolation-filters="sRGB"><feGaussianBlur stdDeviation=".774"/></filter></defs><path fill="url(#a)" d="M17.002 3.969A12.973 12.973 0 0 0 4 16.97v22.312c1.172-.245 2.35-.45 3.541-.582.106-4.608 3.877-8.29 8.494-8.293l.02.002c.074-6.646 5.49-11.994 12.146-11.996 1.595.001 3.175.317 4.648.928a14.3 14.3 0 0 1 7.973-2.446c7.886 0 14.279 6.383 14.279 14.256a14.2 14.2 0 0 1-1.188 5.653 38 38 0 0 1 6.088 2.709V16.97A12.973 12.973 0 0 0 47 3.969z"/><g stroke-width="1.571"><circle cx="32.02" cy="32.044" r="30.001" fill="none"/><circle cx="32.02" cy="32.044" r="30.001" fill="none"/><path fill="#fff" d="M21.256 15.264A12.6 12.6 0 0 0 8.672 27.498 12.6 12.6 0 0 0 4 30.383v8.9c1.172-.244 2.35-.45 3.541-.582.106-4.608 3.878-8.29 8.494-8.293l.02.002c.074-6.645 5.49-11.994 12.146-11.996.498 0 .992.043 1.484.104a12.6 12.6 0 0 0-8.43-3.254zM54.91 28.93c.114.726.191 1.464.191 2.223a14.2 14.2 0 0 1-1.187 5.652 38 38 0 0 1 6.088 2.709v-9.021a9.2 9.2 0 0 0-5.092-1.563" opacity=".5"/><path d="M40.823 14.896a14.28 14.257 0 0 0-7.974 2.445 12.151 12.131 0 0 0-4.648-.927A12.151 12.131 0 0 0 16.054 28.41a8.501 8.488 0 0 0-.02-.002A8.501 8.488 0 0 0 7.542 36.7a37.852 37.79 0 0 0-4.615.804 30.05 30.001 0 0 0 29.083 22.54 30.05 30.001 0 0 0 28.932-22.009 37.852 37.79 0 0 0-7.027-3.232 14.28 14.257 0 0 0 1.187-5.652 14.28 14.257 0 0 0-14.279-14.256z" filter="url(#b)" opacity=".05"/><path fill="#fff" d="M40.822 16.896a14.3 14.3 0 0 0-7.973 2.445 12.2 12.2 0 0 0-4.648-.927c-6.657.001-12.072 5.35-12.146 11.996l-.02-.002c-4.616.003-8.388 3.685-8.494 8.293-1.19.132-2.369.337-3.54.582v7.685a12.973 12.973 0 0 0 13 13.002H47a12.973 12.973 0 0 0 13.002-13.002v-7.455a38 38 0 0 0-6.088-2.709 14.2 14.2 0 0 0 1.188-5.652c0-7.873-6.394-14.255-14.28-14.256"/></g></svg>