<svg xmlns="http://www.w3.org/2000/svg" width="64" height="64" viewBox="0 0 16.933 16.933"><defs><radialGradient id="a" cx="1.852" cy="0" r="7.409" gradientTransform="rotate(138.24 1.713 .945)scale(1.0885 1.34055)" gradientUnits="userSpaceOnUse"><stop offset="0" stop-color="#ff8100"/><stop offset="1" stop-color="#f69429" stop-opacity="0"/></radialGradient><radialGradient id="b" cx="1.852" cy="0" r="7.409" gradientTransform="rotate(-41.634 27.99 -9.973)scale(.80967 1.29012)" gradientUnits="userSpaceOnUse"><stop offset="0" stop-color="#18bdd3"/><stop offset="1" stop-color="#2da8b8" stop-opacity="0"/></radialGradient><radialGradient id="c" cx="1.852" cy="0" r="7.409" gradientTransform="matrix(.83599 .80811 -1.0357 1.0714 .304 13.32)" gradientUnits="userSpaceOnUse"><stop offset="0" stop-color="#dcff00"/><stop offset="1" stop-color="#c4dc2b" stop-opacity="0"/></radialGradient><radialGradient id="d" cx="8.466" cy="1.058" r="7.409" gradientTransform="matrix(-1.3928 0 0 -1.2499 20.259 2.381)" gradientUnits="userSpaceOnUse"><stop offset="0" stop-color="#ff3386"/><stop offset="1" stop-color="#f566a0" stop-opacity="0"/></radialGradient><radialGradient id="e" cx="1.852" cy="0" r="7.409" gradientTransform="rotate(228.575 8.98 -1.91)scale(1.03813 1.61931)" gradientUnits="userSpaceOnUse"><stop offset="0" stop-color="#ff29b0"/><stop offset="1" stop-color="#d462aa" stop-opacity="0"/></radialGradient><radialGradient id="f" cx="8.466" cy="1.058" r="7.409" gradientTransform="matrix(0 1 -.99996 0 2.117 0)" gradientUnits="userSpaceOnUse"><stop offset="0" stop-color="#ffdb29"/><stop offset="1" stop-color="#f9da3e" stop-opacity="0"/></radialGradient><radialGradient id="g" cx="8.466" cy="1.058" r="7.409" gradientTransform="matrix(1 0 0 .99996 0 14.816)" gradientUnits="userSpaceOnUse"><stop offset="0" stop-color="#53eb47"/><stop offset="1" stop-color="#72cb6b" stop-opacity="0"/></radialGradient><radialGradient id="h" cx="8.466" cy="1.058" r="7.409" gradientTransform="matrix(0 -1.3214 1.1071 0 14.703 19.654)" gradientUnits="userSpaceOnUse"><stop offset="0" stop-color="#34d7f4"/><stop offset="1" stop-color="#56c7d9" stop-opacity="0"/></radialGradient></defs><path fill="#fff" d="M15.875 4.498a3.43 3.43 0 0 0-3.44-3.44H4.498a3.43 3.43 0 0 0-3.44 3.44v7.937a3.43 3.43 0 0 0 3.44 3.44h7.937a3.43 3.43 0 0 0 3.44-3.44z"/><path fill="url(#a)" d="M1.058 12.435a3.43 3.43 0 0 0 3.44 3.44h7.937a3.43 3.43 0 0 0 3.44-3.44V4.498a3.43 3.43 0 0 0-3.44-3.44H4.498a3.43 3.43 0 0 0-3.44 3.44z"/><path fill="url(#b)" d="M15.875 4.498a3.43 3.43 0 0 0-3.44-3.44H4.498a3.43 3.43 0 0 0-3.44 3.44v7.937a3.43 3.43 0 0 0 3.44 3.44h7.937a3.43 3.43 0 0 0 3.44-3.44z"/><path fill="url(#c)" d="M12.435 15.875a3.43 3.43 0 0 0 3.44-3.44V4.498a3.43 3.43 0 0 0-3.44-3.44H4.498a3.43 3.43 0 0 0-3.44 3.44v7.937a3.43 3.43 0 0 0 3.44 3.44z"/><path fill="url(#d)" d="M4.498 1.058a3.43 3.43 0 0 0-3.44 3.44v7.937a3.43 3.43 0 0 0 3.44 3.44h7.937a3.43 3.43 0 0 0 3.44-3.44V4.498a3.43 3.43 0 0 0-3.44-3.44z"/><path fill="url(#e)" d="M4.498 1.058a3.43 3.43 0 0 0-3.44 3.44v7.937a3.43 3.43 0 0 0 3.44 3.44h7.937a3.43 3.43 0 0 0 3.44-3.44V4.498a3.43 3.43 0 0 0-3.44-3.44z"/><path fill="url(#f)" d="M1.058 12.435a3.43 3.43 0 0 0 3.44 3.44h7.937a3.43 3.43 0 0 0 3.44-3.44V4.498a3.43 3.43 0 0 0-3.44-3.44H4.498a3.43 3.43 0 0 0-3.44 3.44z"/><path fill="url(#g)" d="M12.435 15.875a3.43 3.43 0 0 0 3.44-3.44V4.498a3.43 3.43 0 0 0-3.44-3.44H4.498a3.43 3.43 0 0 0-3.44 3.44v7.937a3.43 3.43 0 0 0 3.44 3.44z"/><path fill="url(#h)" d="M15.875 4.498a3.43 3.43 0 0 0-3.44-3.44H4.498a3.43 3.43 0 0 0-3.44 3.44v7.937a3.43 3.43 0 0 0 3.44 3.44h7.937a3.43 3.43 0 0 0 3.44-3.44z"/><rect width="11.641" height="4.233" x="2.646" y="9.789" fill="#fff" opacity=".35" rx="1.323" ry="1.323"/><g fill="#f9f9f9"><rect width="2.646" height="2.646" x="3.439" y="10.583" rx=".529" ry=".529"/><rect width="2.646" height="2.646" x="7.144" y="10.583" rx=".529" ry=".529"/><rect width="2.646" height="2.646" x="10.848" y="10.583" rx=".529" ry=".529"/></g></svg>