<svg xmlns="http://www.w3.org/2000/svg" xmlns:xlink="http://www.w3.org/1999/xlink" width="64" height="64" viewBox="0 0 16.933 16.933"><defs><linearGradient id="b"><stop offset="0"/><stop offset="1" stop-opacity=".5"/></linearGradient><linearGradient id="a"><stop offset="0" stop-color="#e4e4e4"/><stop offset="1" stop-color="#fafafa"/></linearGradient><linearGradient id="c" x1="7.937" x2="7.937" y1="15.081" y2="1.852" gradientUnits="userSpaceOnUse"><stop offset="0" stop-color="#ececec"/><stop offset="1" stop-color="#f9f9f9"/></linearGradient><linearGradient id="d" x1="8.466" x2="8.466" y1="7.937" y2="3.175" gradientUnits="userSpaceOnUse"><stop offset="0" stop-color="#0851d4"/><stop offset="1" stop-color="#588df8"/></linearGradient><linearGradient xlink:href="#a" id="f" x1="11.377" x2="11.377" y1="6.879" y2="4.233" gradientUnits="userSpaceOnUse"/><linearGradient xlink:href="#b" id="e" x1="8.731" x2="8.731" y1="13.758" y2="8.996" gradientUnits="userSpaceOnUse"/><linearGradient xlink:href="#b" id="g" x1="8.731" x2="8.731" y1="13.758" y2="8.996" gradientTransform="scale(3.7796)" gradientUnits="userSpaceOnUse"/><linearGradient xlink:href="#a" id="h" x1="11.377" x2="11.377" y1="6.879" y2="4.233" gradientTransform="translate(-5.82 5.82)" gradientUnits="userSpaceOnUse"/></defs><rect width="14.817" height="14.817" x="1.058" y="1.05" fill="url(#c)" rx="3.44" ry="3.44"/><rect width="10.583" height="4.762" x="3.175" y="3.175" fill="url(#d)" ry="2.381"/><rect width="10.583" height="4.762" x="3.175" y="8.996" fill="url(#e)" opacity=".25" ry="2.381"/><path d="m3.178 5.491-.003.065a2.376 2.376 0 0 0 2.381 2.381h5.821a2.376 2.376 0 0 0 2.381-2.38q0-.034-.003-.066a2.243 2.243 0 0 1-2.246 2.182H5.424A2.243 2.243 0 0 1 3.178 5.49z" opacity=".15"/><circle cx="11.377" cy="5.556" r="1.587" fill="url(#f)"/><path fill="url(#g)" d="M12.012 42.754c-.002.083-.012.163-.012.246 0 4.986 4.014 9 9 9h22c4.986 0 9-4.014 9-9 0-.083-.01-.163-.011-.246A8.476 8.476 0 0 1 43.5 51h-23a8.476 8.476 0 0 1-8.488-8.246" opacity=".15" transform="scale(.26458)"/><path fill="#fff" d="M5.688 2.91a2.51 2.51 0 0 0-2.513 2.514l.003.067a2.374 2.374 0 0 1 2.378-2.316h5.82a2.374 2.374 0 0 1 2.38 2.316l.002-.067a2.51 2.51 0 0 0-2.513-2.514z" opacity=".75"/><path fill="#fff" d="M5.688 8.731a2.51 2.51 0 0 0-2.513 2.514l.003.066a2.374 2.374 0 0 1 2.378-2.315h5.82a2.374 2.374 0 0 1 2.379 2.315l.003-.066a2.51 2.51 0 0 0-2.514-2.514z" opacity=".5"/><circle cx="5.556" cy="11.377" r="1.587" fill="url(#h)"/></svg>