<svg xmlns="http://www.w3.org/2000/svg" viewBox="0 0 16.933 16.933"><defs><linearGradient id="a" x1="11.984" x2="21.047" y1="12.321" y2="21.383" gradientTransform="translate(-1.114 -1.463)scale(.59104)" gradientUnits="userSpaceOnUse"><stop offset="0" stop-color="#ffa935"/><stop offset="1" stop-color="#ffd986" stop-opacity=".914"/></linearGradient><linearGradient id="b" x1="16.262" x2="9.799" y1="18.568" y2="8.813" gradientTransform="translate(-1.114 -1.463)scale(.59104)" gradientUnits="userSpaceOnUse"><stop offset="0" stop-color="#237df5"/><stop offset="1" stop-color="#32bfe6" stop-opacity=".918"/></linearGradient></defs><rect width="14.817" height="14.817" x="1.058" y="1.05" fill="#f2f2f2" rx="3.44" ry="3.44"/><path d="M1.058 12.17v.265a3.433 3.433 0 0 0 3.44 3.44h7.937a3.433 3.433 0 0 0 3.44-3.44v-.265a3.433 3.433 0 0 1-3.44 3.44H4.498a3.433 3.433 0 0 1-3.44-3.44" opacity=".1" style="stroke-width:.264578"/><path fill="#fff" d="M1.058 4.763V4.5a3.433 3.433 0 0 1 3.44-3.44h7.937a3.433 3.433 0 0 1 3.44 3.44v.264a3.433 3.433 0 0 0-3.44-3.44H4.498a3.433 3.433 0 0 0-3.44 3.44" opacity=".5" style="stroke-width:.264578"/><path fill="url(#a)" d="M11.326 5.82v1.34c0 .74-.597 1.338-1.34 1.338H7.311s-1.34 0-1.34 1.34v2.342c0 .927 1.046 1.674 2.344 1.674h.668c1.299 0 2.344-.747 2.344-1.674v-1.004h1.004c.928 0 1.674-1.046 1.674-2.344v-.668c0-1.299-.746-2.344-1.674-2.344z" style="display:inline;fill:#fec86d;stroke-width:1.18555;fill-opacity:1"/><path fill="url(#b)" d="M8.314 3.142c-1.299 0-2.344.746-2.344 1.674V5.82H4.966c-.927 0-1.674 1.045-1.674 2.342v.67c0 1.298.747 2.344 1.674 2.344H5.97v-1.34c0-.74.597-1.34 1.34-1.34h2.676s1.34 0 1.34-1.338V4.816c0-.929-1.046-1.674-2.344-1.674z" style="fill:#33a3ed;stroke-width:1.18555;fill-opacity:1"/></svg>