<svg xmlns="http://www.w3.org/2000/svg" viewBox="0 0 64 64"><rect width="56.002" height="56.002" x="4" y="3.969" fill="#4d4d4d" rx="13.002" ry="13.002"/><path d="M3.998 45.998v1c0 7.203 5.8 13.004 13.004 13.004h29.996c7.203 0 13.004-5.8 13.004-13.004v-1c0 7.203-5.8 13.002-13.004 13.002H17.002A12.975 12.975 0 0 1 3.998 45.998" opacity=".35"/><path fill="#fff" d="M3.998 18.004v-1C3.998 9.801 9.798 4 17.002 4h29.996c7.203 0 13.004 5.8 13.004 13.004v1c0-7.203-5.8-13.002-13.004-13.002H17.002A12.975 12.975 0 0 0 3.998 18.004" opacity=".15"/><path fill="#33d17a" d="M16.767 14a2.76 2.76 0 0 0-1.96.809l21.69 33.689 12.689-33.69A2.76 2.76 0 0 0 47.227 14z"/><path fill="#5799e9" d="M14.809 14.809a2.76 2.76 0 0 0-.81 1.96v30.462c0 .766.308 1.46.81 1.958L48.498 47 32 32z"/><path fill="#837f8a" d="m49.187 14.809-8.19 8.19 3.001 6 5.998 2.999v-15.23a2.76 2.76 0 0 0-.81-1.96"/><path fill="#f8db51" d="m31.999 31.999 7.826-7.826L47.65 32l-6.522 11.739z" style="paint-order:normal" transform="translate(-4.801 -4.801)scale(1.15)"/><path fill="#b78860" d="m49.998 31.998-18 18h15.23a2.76 2.76 0 0 0 2.77-2.77z"/><path fill="#ff9536" d="M40.998 40.998h-18l9-9z"/><path fill="#f65960" d="m22.998 40.998-8.19 8.19a2.76 2.76 0 0 0 1.96.81h15.23l9-9z"/></svg>