<svg xmlns="http://www.w3.org/2000/svg" viewBox="0 0 64 64"><defs><linearGradient id="b" x1=".464" x2=".464" y1=".947" y2=".054" gradientUnits="userSpaceOnUse"><stop offset="0%" stop-color="#eee"/><stop offset="100%" stop-color="#fdfcfc"/></linearGradient><filter id="a" width="1.092" height="1.112" x="-.046" y="-.046" filterUnits="objectBoundingBox"><feOffset dy="1" in="SourceAlpha" result="shadowOffsetOuter1"/><feGaussianBlur in="shadowOffsetOuter1" result="shadowBlurOuter1" stdDeviation="1"/><feColorMatrix in="shadowBlurOuter1" values="0 0 0 0 0 0 0 0 0 0 0 0 0 0 0 0 0 0 0.24 0"/></filter></defs><rect width="56.002" height="56.002" x="4" y="3.969" fill="#f2f2f2" rx="13.002" ry="13.002"/><path d="M3.998 45.998v1c0 7.203 5.8 13.004 13.004 13.004h29.996c7.203 0 13.004-5.8 13.004-13.004v-1c0 7.203-5.8 13.002-13.004 13.002H17.002A12.975 12.975 0 0 1 3.998 45.998" opacity=".1"/><path fill="#fff" d="M3.998 18.004v-1C3.998 9.801 9.798 4 17.002 4h29.996c7.203 0 13.004 5.8 13.004 13.004v1c0-7.203-5.8-13.002-13.004-13.002H17.002A12.975 12.975 0 0 0 3.998 18.004" opacity=".5"/><g style="display:inline"><path fill="#9a9996" d="M4.95 3.667h.618v12.07H4.95zm0 0" style="stroke-width:.154749" transform="translate(-.973 -1.076)scale(3.87919)"/><path fill="none" stroke="#9a9996" stroke-linecap="round" stroke-width="2.401" d="M19.427 49.32h6.003a6.003 6.003 0 0 0 6.003-6.003v-21.61"/><path fill="#c061cb" d="M6.187 12.682a.929.929 0 1 1-1.857 0 .929.929 0 0 1 1.857 0m0 0" style="fill:#b759c2;stroke-width:.154749;fill-opacity:1" transform="translate(-.973 -1.076)scale(3.87919)"/><path fill="#ed333b" d="M6.497 4.016a1.238 1.238 0 1 1-2.476 0 1.238 1.238 0 0 1 2.476 0m0 0" style="fill:#dc2a32;stroke-width:.154749;fill-opacity:1" transform="translate(-.973 -1.076)scale(3.87919)"/><path fill="#57e389" d="M9.282 6.183a.929.929 0 1 1-1.857 0 .929.929 0 0 1 1.857 0m0 0" style="fill:#47d77a;stroke-width:.154749;fill-opacity:1" transform="translate(-.973 -1.076)scale(3.87919)"/><path fill="#62a0ea" d="M6.187 8.504a.929.929 0 1 1-1.857 0 .929.929 0 0 1 1.857 0m0 0" style="fill:#4f92e2;stroke-width:.154749;fill-opacity:1" transform="translate(-.973 -1.076)scale(3.87919)"/></g><path fill="url(#a)" d="m11.809 3.33.604-.603c.092-.092.353-.003.569.213l.586.586c.216.216.316.467.21.573l-.6.6a.553.553 0 0 1-.783 0l-.586-.586a.553.553 0 0 1 0-.782" style="fill:#f55d4e;stroke-width:.138187;fill-opacity:1" transform="matrix(3.88057 -3.2387 -.12145 5.05305 1.39 28.445)"/><path fill="url(#b)" d="m6.869 10.323-.684-.684.152-.836 1.368 1.368Zm0 0" style="fill:#eae1cd;stroke-width:.138187;fill-opacity:1" transform="matrix(3.88057 -3.2387 -.12145 5.05305 1.39 28.445)"/><path fill="#424048" d="m6.032 10.476.153-.837.684.684Zm0 0" style="stroke-width:.138187" transform="matrix(3.88057 -3.2387 -.12145 5.05305 1.39 28.445)"/><path fill="#5e5c64" d="m7.549 10.015-.86-.86 5.078-5.078.86.86Zm0 0" style="stroke-width:.138187" transform="matrix(3.88057 -3.2387 -.12145 5.05305 1.39 28.445)"/><path fill="#77767b" d="m6.728 9.194-.391-.391 5.081-5.081.388.394Zm0 0" style="stroke-width:.138187" transform="matrix(3.88057 -3.2387 -.12145 5.05305 1.39 28.445)"/><path fill="#3d3846" d="m7.314 9.78.39.391 5.082-5.081-.394-.388Zm0 0" style="stroke-width:.138187" transform="matrix(3.88057 -3.2387 -.12145 5.05305 1.39 28.445)"/><path fill="url(#d)" d="m11.418 3.722.39-.391 1.37 1.368-.392.391zm0 0" style="fill:#fff;stroke-width:.138187" transform="matrix(3.88057 -3.2387 -.12145 5.05305 1.39 28.445)"/></svg>