<svg xmlns="http://www.w3.org/2000/svg" viewBox="0 0 64 64"><rect width="56.002" height="56.002" x="4" y="3.969" fill="#bee1cc" rx="13.002" ry="13.002"/><path d="M3.998 45.998v1c0 7.203 5.8 13.004 13.004 13.004h29.996c7.203 0 13.004-5.8 13.004-13.004v-1c0 7.203-5.8 13.002-13.004 13.002H17.002A12.975 12.975 0 0 1 3.998 45.998" opacity=".1"/><path fill="#fff" d="M3.998 18.004v-1C3.998 9.801 9.798 4 17.002 4h29.996c7.203 0 13.004 5.8 13.004 13.004v1c0-7.203-5.8-13.002-13.004-13.002H17.002A12.975 12.975 0 0 0 3.998 18.004" opacity=".35"/><path fill="#4da3e5" d="m20.26 17.652-5.217 5.217 13.043 13.043v13.043h7.826V35.912l13.043-13.043-5.217-5.217-11.74 11.738z"/><path fill="#2086d5" d="M23.949 18.956c-.327 0-.654.124-.905.374l-6.322 6.323c-.5.5-.5 1.306 0 1.806l.904.905c.5.5 1.306.5 1.806 0l6.323-6.323c.5-.5.5-1.306 0-1.806l-.904-.905a1.27 1.27 0 0 0-.902-.374m16.1 0a1.27 1.27 0 0 0-.902.374l-.904.905c-.5.5-.5 1.305 0 1.806l6.323 6.323c.5.5 1.305.5 1.806 0l.904-.905c.5-.5.5-1.305 0-1.806l-6.323-6.323a1.27 1.27 0 0 0-.904-.374M26.782 42.433c-.723 0-1.305.582-1.305 1.305v1.304c0 .722.582 1.304 1.305 1.304h10.434c.723 0 1.304-.582 1.304-1.304v-1.304c0-.723-.581-1.305-1.304-1.305z"/><path fill="#f9f9f9" d="M24.173 26.782v3.688l.922-.922 1.854 1.853 1.844-1.844-1.853-1.853.922-.922zm11.963 0 .922.922-1.853 1.853 1.844 1.845 1.854-1.854.922.922v-3.688zm-4.137 7.825-2.609 2.61h1.305v2.608h2.608v-2.609h1.304z"/></svg>