<svg xmlns="http://www.w3.org/2000/svg" xml:space="preserve" width="64" height="64"><defs><linearGradient id="a" x1="7.937" x2="7.937" y1="15.081" y2="1.852" gradientTransform="scale(3.7796)" gradientUnits="userSpaceOnUse"><stop offset="0" stop-color="#f1efeb"/><stop offset="1" stop-color="#fdfcfc"/></linearGradient></defs><rect width="56" height="56" x="4" y="4" fill="url(#a)" rx="13" ry="13" style="fill:url(#a)"/><path fill="url(#d)" d="M104 10c-4.418 0-8 2.238-8 5v9h16v-9c0-2.762-3.582-5-8-5m0 0" transform="translate(7.09 11.092)scale(.37507)"/><path fill="url(#e)" d="M20 20h52a8 8 0 0 1 8 8v60a8 8 0 0 1-8 8H20a8 8 0 0 1-8-8V28a8 8 0 0 1 8-8m0 0" transform="translate(7.09 11.092)scale(.37507)"/><path fill="#5d5f74" d="m17.592 15.593-3 3v1.5h21.004l4.5 4.501h9.752l.75-.75v-3.75h-8.251l-5.251-4.501Zm22.505 25.505-4.501 4.5H14.592v1.5l3 3.001h19.504l4.5-4.5h8.252l.75-.75-.75-.75.75-3.001zm0 0"/><path fill-opacity=".2" d="M40.097 24.594v-1.5l-4.501-4.5v1.5zm0 0"/><path fill="#7a8599" d="m17.592 14.092-3 3v1.501h21.004l4.5 4.501h9.752l.75.75v-4.5l-.75-.75h-7.501l-5.251-4.502Zm22.505 25.505-4.501 4.501H14.592v1.5l3 3.001h19.504l4.5-4.5h8.252l.75.75v-4.502l-.763-.75zm0 0"/><path fill="#ffa348" d="M14.592 15.593h19.503a3 3 0 0 1 3 3v21.004a3 3 0 0 1-3 3H14.592a3 3 0 0 1-3.001-3V18.593a3 3 0 0 1 3-3m0 0"/><g fill="#fff"><path stroke="#c64600" stroke-width="8.431" d="M39.305 204a3.9 3.9 0 0 0-3.578 2.412 3.905 3.905 0 0 0 2.113 5.103l3.058 7.384-7.382-3.058a3.905 3.905 0 0 0-5.102-2.113 3.904 3.904 0 1 0 2.984 7.215l7.387 3.059-7.387 3.054a3.906 3.906 0 1 0-2.984 7.22 3.907 3.907 0 0 0 5.102-2.117l7.382-3.06-3.058 7.39a3.9 3.9 0 0 0-2.113 5.098 3.9 3.9 0 0 0 5.101 2.113 3.905 3.905 0 0 0 2.113-5.103l3.059-7.38 3.059 7.38a3.905 3.905 0 0 0 2.113 5.103 3.9 3.9 0 0 0 5.101-2.113 3.9 3.9 0 0 0-2.113-5.098l-3.058-7.39 7.386 3.06a3.903 3.903 0 0 0 5.102 2.117 3.908 3.908 0 0 0-2.992-7.22l-7.383-3.054 7.383-3.06a3.905 3.905 0 1 0-2.11-5.102l-7.386 3.06 3.058-7.385a3.91 3.91 0 0 0 2.113-5.103 3.905 3.905 0 0 0-7.215 2.99L46 216.786l-3.059-7.384a3.905 3.905 0 0 0-2.113-5.103 3.85 3.85 0 0 0-1.523-.299Zm0 0" transform="matrix(.37507 0 0 .33768 7.09 -46.544)"/><path d="M21.832 22.344c-.57.004-1.11.309-1.342.815-.31.672.045 1.443.793 1.723l1.147 2.493-2.769-1.033c-.31-.672-1.168-.993-1.914-.713-.748.278-1.103 1.049-.794 1.723.31.672 1.167.992 1.914.713l2.77 1.033-2.77 1.032c-.748-.279-1.603.041-1.914.715-.309.672.046 1.443.794 1.723.746.278 1.603-.042 1.914-.715l2.769-1.033-1.147 2.495c-.747.278-1.104 1.049-.793 1.721.31.674 1.166.994 1.914.714.747-.278 1.102-1.05.792-1.723l1.147-2.492 1.148 2.492c-.31.674.045 1.445.792 1.723.747.28 1.604-.04 1.914-.714.309-.672-.045-1.443-.793-1.721l-1.147-2.495 2.77 1.033c.31.673 1.165.993 1.914.715.747-.28 1.102-1.05.793-1.723-.31-.674-1.167-.994-1.915-.715l-2.77-1.032 2.77-1.033c.748.279 1.605-.04 1.915-.713.309-.674-.046-1.445-.793-1.723-.749-.28-1.605.041-1.914.713l-2.77 1.033 1.147-2.493c.747-.28 1.102-1.05.793-1.723-.31-.674-1.167-.992-1.914-.714-.747.279-1.102 1.049-.792 1.723l-1.148 2.494-1.147-2.494c.31-.674-.045-1.444-.792-1.723a1.6 1.6 0 0 0-.572-.101m0 0"/><path fill-opacity=".4" d="M17.592 50.1v-1.5l-3-3.001v1.5zm0 0"/></g><path fill-opacity=".2" d="M37.096 50.1v-1.5l4.5-4.502v1.5zm0 0"/><path fill="url(#f)" d="M104 14c-5.613 0-10.3 2.543-11.625 6H92v12h22l2 2V22c0-4.434-5.352-8-12-8m0 0" transform="translate(7.09 11.092)scale(.37507)"/><path fill="#5d5f74" d="M46.098 20.844c2.486 0 4.5 1.343 4.5 3s-2.014 3-4.5 3-4.501-1.343-4.501-3 2.014-3 4.5-3m0 0"/><path fill="url(#g)" d="M104 30c-4.418 0-8 2.238-8 5v45h16V35c0-2.762-3.582-5-8-5m0 0" transform="translate(7.09 11.092)scale(.37507)"/><g clip-path="url(#h)" transform="translate(7.09 11.092)scale(.37507)"><g clip-path="url(#i)"><g clip-path="url(#j)" mask="url(#k)" transform="translate(-8 -16)"><path d="M116.477 45.977c-5.102-.004-10.04 1.96-12.477 6.023v1c2.438-4.063 7.375-6.027 12.477-6.023 1.175 0 2.359.105 3.523.316v-1a20 20 0 0 0-3.523-.316m0 8c-5.102-.004-10.04 1.96-12.477 6.023v1c2.438-4.063 7.375-6.027 12.477-6.023 1.175 0 2.359.105 3.523.316v-1a20 20 0 0 0-3.523-.316m0 8c-5.102-.004-10.04 1.96-12.477 6.023v1c2.438-4.063 7.375-6.027 12.477-6.023 1.175 0 2.359.105 3.523.316v-1a20 20 0 0 0-3.523-.316m0 8c-5.102-.004-10.04 1.96-12.477 6.023v1c2.438-4.063 7.375-6.027 12.477-6.023 1.175 0 2.359.105 3.523.316v-1a20 20 0 0 0-3.523-.316m0 8c-5.102-.004-10.04 1.96-12.477 6.023v1c2.438-4.063 7.375-6.027 12.477-6.023 1.175 0 2.359.105 3.523.316v-1a20 20 0 0 0-3.523-.316m0 8c-5.102-.004-10.04 1.96-12.477 6.023v1c2.438-4.063 7.375-6.027 12.477-6.023 1.175 0 2.359.105 3.523.316v-1a20 20 0 0 0-3.523-.316m0 0"/></g><g clip-path="url(#l)" mask="url(#m)" transform="translate(-8 -16)"><path d="M116.477 45.977c-5.102-.004-10.04 1.96-12.477 6.023v4c3-5 8.898-7.492 16-6v-3.707a20 20 0 0 0-3.523-.316m0 8c-5.102-.004-10.04 1.96-12.477 6.023v4c3-5 8.898-7.492 16-6v-3.707a20 20 0 0 0-3.523-.316m0 8c-5.102-.004-10.04 1.96-12.477 6.023v4c3-5 8.898-7.492 16-6v-3.707a20 20 0 0 0-3.523-.316m0 8c-5.102-.004-10.04 1.96-12.477 6.023v4c3-5 8.898-7.492 16-6v-3.707a20 20 0 0 0-3.523-.316m0 8c-5.102-.004-10.04 1.96-12.477 6.023v4c3-5 8.898-7.492 16-6v-3.707a20 20 0 0 0-3.523-.316m0 8c-5.102-.004-10.04 1.96-12.477 6.023v4c3-5 8.898-7.492 16-6v-3.707a20 20 0 0 0-3.523-.316m0 0"/></g></g></g><path fill="url(#n)" d="M104 70c-5.613 0-10.3 2.543-11.625 6H92v12h22l2 2V78c0-4.434-5.352-8-12-8m0 0" transform="translate(7.09 11.092)scale(.37507)"/><path fill="#5d5f74" d="M46.098 41.848c2.486 0 4.5 1.343 4.5 3s-2.014 3.001-4.5 3.001-4.501-1.344-4.501-3c0-1.658 2.014-3.001 4.5-3.001m0 0"/><path fill="url(#o)" d="M112 102h7c1.105 0 2 1.79 2 4s-.895 4-2 4h-7c-1.105 0-2-1.79-2-4s.895-4 2-4m0 0" transform="translate(7.09 11.092)scale(.37507)"/><path fill="url(#p)" d="M104 86c-4.418 0-8 2.238-8 5v21h16V91c0-2.762-3.582-5-8-5m0 0" transform="translate(7.09 11.092)scale(.37507)"/><path fill="url(#q)" d="M56 106a8 8 0 1 1-16 0 8 8 0 0 1 16 0m0 0" transform="translate(7.09 11.092)scale(.37507)"/><path fill="url(#r)" d="M55 102h41c1.105 0 2 1.79 2 4s-.895 4-2 4H55c-1.105 0-2-1.79-2-4s.895-4 2-4m0 0" transform="translate(7.09 11.092)scale(.37507)"/><path fill="url(#s)" d="M96 111c0-2.762 3.582-5 8-5s8 2.238 8 5-3.582 5-8 5-8-2.238-8-5m0 0" transform="translate(7.09 11.092)scale(.37507)"/><g clip-path="url(#t)" transform="translate(7.09 11.092)scale(.37507)"><g clip-path="url(#u)"><g clip-path="url(#v)" mask="url(#w)" transform="translate(-8 -16)"><path d="M116.477 99.977c-5.102-.004-10.04 1.96-12.477 6.023v4c3-5 8.898-7.492 16-6v-3.707a20 20 0 0 0-3.523-.316m0 0"/></g></g></g></svg>