<svg xmlns="http://www.w3.org/2000/svg" viewBox="0 0 64 64"><defs><clipPath id="f"/><clipPath id="b"/><clipPath id="d"/><mask id="g" maskUnits="userSpaceOnUse"><g filter="url(#a)" transform="scale(1.00001)"><path fill-opacity=".4" d="M0 0h128v128H0z"/></g></mask><mask id="c" maskUnits="userSpaceOnUse"><g filter="url(#a)" transform="scale(1.00001)"><path fill-opacity=".4" d="M0 0h128v128H0z"/></g></mask><mask id="e" maskUnits="userSpaceOnUse"><g filter="url(#a)" transform="scale(1.00001)"><path fill-opacity=".4" d="M0 0h128v128H0z"/></g></mask><filter id="a" width="1" height="1" x="0" y="0"><feColorMatrix in="SourceGraphic" values="0 0 0 0 1 0 0 0 0 1 0 0 0 0 1 0 0 0 1 0"/></filter></defs><rect width="56.002" height="56.002" x="3.999" y="3.999" fill="#7d6248" rx="13.002" ry="13.002"/><path d="M3.998 45.998v1c0 7.203 5.8 13.004 13.004 13.004h29.996c7.203 0 13.004-5.8 13.004-13.004v-1c0 7.203-5.8 13.002-13.004 13.002H17.002A12.975 12.975 0 0 1 3.998 45.998" opacity=".15"/><path fill="#fff" d="M3.998 18.004v-1C3.998 9.801 9.798 4 17.002 4h29.996c7.203 0 13.004 5.8 13.004 13.004v1c0-7.203-5.8-13.002-13.004-13.002H17.002A12.975 12.975 0 0 0 3.998 18.004" opacity=".15"/><path fill="#5ad78f" d="M18.12 7.625a5.147 5.147 0 0 0-5.147 5.147v12.012a5.147 5.147 0 1 0 10.295 0V12.772a5.147 5.147 0 0 0-5.148-5.147"/><path fill="#4dbf7f" d="M23.268 24.784c0 2.843-2.304 5.147-5.148 5.147s-5.147-2.304-5.147-5.147a5.147 5.147 0 1 1 10.295 0"/><path fill="#4cda86" d="M21.981 28.215a3.862 3.862 0 1 1-7.723-.001 3.862 3.862 0 0 1 7.723.001"/><path fill="#26a269" d="M21.98 29.502a3.862 3.862 0 0 1-7.72 0 3.862 3.862 0 0 1 7.72 0"/><path fill="#eaeaea" d="M19.836 42.8V29.931a1.715 1.715 0 1 0-3.432 0v12.87a1.715 1.715 0 1 0 3.432 0"/><path fill="#c0bfbc" d="m20.582 41.927-1.121 4.106a.27.27 0 0 1-.26.199h-2.162a.27.27 0 0 1-.26-.2l-1.12-4.105a.33.33 0 0 1 .056-.285.32.32 0 0 1 .26-.129h4.29c.102 0 .198.047.26.13.062.08.083.185.057.284m0 0"/><path fill="#deddda" d="m20.57 41.495-1.104 3.681a.28.28 0 0 1-.265.198h-2.162a.28.28 0 0 1-.264-.198l-1.105-3.681a.317.317 0 0 1 .305-.41h4.29a.317.317 0 0 1 .305.41m0 0"/><g stroke-width=".429"><path fill="#2ec27e" d="M18.121 7.625a5.1 5.1 0 0 0-1.717.299v8.709a1.717 1.717 0 0 0 3.432 0v-8.71a5.1 5.1 0 0 0-1.715-.298"/><path fill="#26a269" d="M21.553 8.945v10.262c0 .948.767 1.715 1.715 1.715v-8.15a5.13 5.13 0 0 0-1.715-3.826zm-6.864-.002a5.13 5.13 0 0 0-1.717 3.829v8.15c.948 0 1.717-.767 1.717-1.715z"/></g><path fill="#9a9996" d="M62.518 18.349v-1.716l-.98-.332.038 1.753zm-25.952-6.434h7.721v6.863h-7.721z"/><path fill="#d7d6d3" d="M31.418 9.34h5.148c.71 0 1.287.599 1.287 1.336v9.342c0 .737-.577 1.334-1.287 1.334h-5.148c-.71 0-1.286-.596-1.286-1.334v-9.342c0-.737.576-1.335 1.286-1.335m0 0"/><path fill="#9a9996" d="M41.713 10.199H52.01c.71 0 1.286.576 1.286 1.287v7.721c0 .71-.576 1.287-1.286 1.287H41.713c-.71 0-1.287-.577-1.287-1.287v-7.721c0-.71.577-1.287 1.287-1.287m0 0"/><path fill="#9a9996" d="M51.365 16.204c4.504 0 7.936 0 9.866 2.788l1.287-.643c-1.072-4.29-4.504-6.434-9.223-6.434h-3.217z"/><path fill="#c0bfbc" d="M51.365 14.488c4.528 0 7.936 0 9.866 2.789l1.287-.644c-1.072-4.29-6.22-6.434-10.938-6.434h-1.502z"/><path fill="#c0bfbc" d="M41.713 10.199H52.01c.71 0 1.286.56 1.286 1.248v4.367c0 .69-.576 1.248-1.286 1.248H41.713c-.71 0-1.287-.558-1.287-1.248v-4.367c0-.689.577-1.248 1.287-1.248m0 0"/><path fill="#cecdca" d="M46.861 17.92a2.145 2.145 0 0 1 2.145 2.145v15.443a2.145 2.145 0 1 1-4.29 0V20.065a2.145 2.145 0 0 1 2.145-2.145"/><path fill="#ff922c" d="M45.574 25.641h2.574a2.574 2.574 0 0 1 2.574 2.574v17.16a2.574 2.574 0 0 1-2.574 2.573h-2.574a2.574 2.574 0 0 1-2.573-2.574V28.215a2.574 2.574 0 0 1 2.573-2.574"/><path fill="#c64600" d="M45.252 43.444h3.218a2.253 2.253 0 0 1 0 4.504h-3.218a2.253 2.253 0 0 1 0-4.504"/><g fill="#8f3200"><path d="M96 96h6c.55 0 1 .45 1 1s-.45 1-1 1h-6c-.55 0-1-.45-1-1s.45-1 1-1" clip-path="url(#b)" mask="url(#c)" transform="translate(4.393 -3.528)scale(.42897)"/><path d="M96 100h6c.55 0 1 .45 1 1s-.45 1-1 1h-6c-.55 0-1-.45-1-1s.45-1 1-1" clip-path="url(#d)" mask="url(#e)" transform="translate(4.393 -3.528)scale(.42897)"/><path d="M96 104h6c.55 0 1 .45 1 1s-.45 1-1 1h-6c-.55 0-1-.45-1-1s.45-1 1-1" clip-path="url(#f)" mask="url(#g)" transform="translate(4.393 -3.528)scale(.42897)"/></g><path fill="#a7a6a4" d="M29.296 25.095a6.805 6.805 0 0 0 2.55 13.114 6.806 6.806 0 0 0 6.807-6.805c0-2.855-1.76-5.3-4.255-6.309v6.309l-2.552 1.276-2.55-1.276z"/><path fill="#deddda" d="M29.274 23.568a6.864 6.864 0 0 0 2.573 13.226 6.865 6.865 0 0 0 6.865-6.863 6.87 6.87 0 0 0-4.291-6.363v6.363l-2.574 1.287-2.573-1.287z"/><path fill="#9a9996" d="M31.847 33.363a3.423 3.423 0 0 0-3.432 3.432v16.3a3.423 3.423 0 0 0 3.432 3.432 3.423 3.423 0 0 0 3.432-3.432v-16.3a3.423 3.423 0 0 0-3.432-3.432m0 18.017a1.287 1.287 0 1 1 0 2.574 1.287 1.287 0 0 1 0-2.574"/><path fill="#deddda" d="M31.847 32.505a3.423 3.423 0 0 0-3.432 3.432v16.3a3.423 3.423 0 0 0 3.432 3.432 3.423 3.423 0 0 0 3.432-3.432v-16.3a3.423 3.423 0 0 0-3.432-3.432m0 18.017a1.287 1.287 0 1 1 0 2.574 1.287 1.287 0 0 1 0-2.574"/><path fill="#a7a6a4" d="M31.847 35.937c.948 0 1.716.767 1.716 1.716v7.721a1.715 1.715 0 1 1-3.432 0v-7.721c0-.949.768-1.716 1.716-1.716m0 0"/></svg>