<svg xmlns="http://www.w3.org/2000/svg" width="64" height="64"><defs><linearGradient id="a" x1="7.937" x2="7.937" y1="15.081" y2="1.852" gradientTransform="scale(3.7796)" gradientUnits="userSpaceOnUse"><stop offset="0" stop-color="#b81e31"/><stop offset="1" stop-color="#ff5c5c"/></linearGradient><linearGradient id="b" x1="25.066" x2="25.066" y1="8.618" y2="54.933" gradientUnits="userSpaceOnUse"><stop offset="0" stop-color="#f9f9f9"/><stop offset="1" stop-color="#f8d3d7"/></linearGradient></defs><rect width="64" height="64" fill="none" rx="0" ry="0" style="paint-order:stroke fill markers"/><rect width="56.002" height="56.002" x="4" y="3.969" fill="url(#a)" rx="13.002" ry="13.002"/><circle cx="32.02" cy="32.044" r="30.001" fill="none"/><path fill="url(#b)" d="m22.914 3.969 3.734 13.943c.292 1.087.456 1.684-.816 3.201a5.7 5.7 0 0 0-.594.807 5.247 5.247 0 0 0 5.902 7.695 5.25 5.25 0 0 0 1.268-9.617c-.29-.168-.602-.284-.918-.399-1.86-.677-2.015-1.28-2.307-2.367L25.63 3.968zm37.088 19.273-13.943 3.736c-1.087.291-1.682.458-3.2-.814a6 6 0 0 0-.808-.598 5.247 5.247 0 0 0-7.693 5.904 5.247 5.247 0 0 0 9.613 1.268c.168-.291.287-.606.402-.922.678-1.86 1.276-2.011 2.364-2.303l13.266-3.556zm-36.096 5.705q-.524.03-1.049.172a5.23 5.23 0 0 0-3.187 2.445c-.168.29-.288.604-.403.92-.677 1.86-1.275 2.011-2.363 2.303L4 38.247v2.715l13.584-3.64c1.088-.292 1.683-.456 3.2.816.257.216.515.428.806.596a5.249 5.249 0 1 0 2.318-9.787zm9.643 5.566a5.247 5.247 0 0 0-2.314 9.79c.29.167.601.283.917.398 1.86.677 2.015 1.28 2.307 2.367l3.457 12.902h2.719l-3.641-13.582c-.291-1.087-.458-1.686.814-3.203.217-.258.428-.516.596-.807.672-1.163.9-2.582.526-3.982a5.25 5.25 0 0 0-5.381-3.883" style="paint-order:normal"/></svg>