<svg xmlns="http://www.w3.org/2000/svg" xml:space="preserve" width="64" height="64"><defs><linearGradient id="a" x1="7.937" x2="7.937" y1="15.081" y2="1.852" gradientTransform="scale(3.7796)" gradientUnits="userSpaceOnUse"><stop offset="0" stop-color="#f1efeb"/><stop offset="1" stop-color="#fdfcfc"/></linearGradient></defs><rect width="56" height="56" x="4" y="4" fill="url(#a)" rx="13" ry="13" style="fill:url(#a)"/><g fill="#a640ff" style="fill:none"><path d="M27.812 32.756V48.44h-15.54v-.923q-.001-.127.005-.25a7.73 7.73 0 0 1 2.318-5.298 7.57 7.57 0 0 1 4.68-2.155 7.72 7.72 0 0 1 2.259-4.833 7.56 7.56 0 0 1 5.363-2.224z"/><path d="M51.727 32.052a16.4 16.4 0 0 1-1.289 6.37 16.4 16.4 0 0 1-3.475 5.204 16.2 16.2 0 0 1-5.17 3.522 16 16 0 0 1-6.33 1.291H32.69v-8.654h2.773c2.056 0 3.99-.808 5.444-2.278a7.8 7.8 0 0 0 2.256-5.446 7.74 7.74 0 0 0-2.24-5.501 7.8 7.8 0 0 0-2.495-1.712 7.6 7.6 0 0 0-3.042-.631h-7.627v4.521h-.914c-4.215 0-7.648-3.468-7.648-7.73V15.56H35.36c2.207 0 4.353.442 6.381 1.317a16.4 16.4 0 0 1 5.228 3.579 16.5 16.5 0 0 1 3.487 5.22 16.2 16.2 0 0 1 1.27 6.375z"/></g></svg>