<svg xmlns="http://www.w3.org/2000/svg" xml:space="preserve" viewBox="0 0 64 64"><path d="M17.002 3.969A12.973 12.973 0 0 0 4 16.97v29.998A12.973 12.973 0 0 0 17.002 59.97H37.5c.412.02.805.183 1.107.467l3.405 3.199a1.148 1.148 0 0 0 1.934-.838v-1.86a.97.97 0 0 1 .872-.968H47a12.973 12.973 0 0 0 13.002-13.002V16.97A12.973 12.973 0 0 0 47 3.969z" style="fill:#4f5fe2;fill-opacity:1"/><path fill="#5263ef" d="M29.994 33.504c0 6.692-5.425 12.117-12.116 12.117S5.762 40.196 5.762 33.504c0-6.69 5.425-12.116 12.116-12.116s12.116 5.425 12.116 12.116m28.272 0c0 6.692-5.426 12.117-12.117 12.117-6.69 0-12.116-5.425-12.116-12.117 0-6.69 5.425-12.116 12.116-12.116s12.117 5.425 12.117 12.116m0 0" style="stroke-width:.504846;fill:#fff;opacity:.2"/><path fill="#bcc3f8" d="M25.955 13.31h3.534a1.515 1.515 0 0 1 0 3.03h-3.534a1.515 1.515 0 0 1 0-3.03m8.583 0h3.534a1.515 1.515 0 0 1 0 3.03h-3.534a1.515 1.515 0 0 1 0-3.03M11.82 30.98h12.116c.558 0 1.01.452 1.01 1.01v2.02a1.01 1.01 0 0 1-1.01 1.009H11.82a1.01 1.01 0 0 1-1.01-1.01v-2.02a1.01 1.01 0 0 1 1.01-1.009m0 0" style="stroke-width:.504846"/><path fill="#bcc3f8" d="M19.897 26.941v12.117a1.01 1.01 0 0 1-1.01 1.01h-2.019a1.01 1.01 0 0 1-1.01-1.01V26.94c0-.558.452-1.01 1.01-1.01h2.02c.558 0 1.01.452 1.01 1.01m0 0" style="stroke-width:.504846"/><path fill="#f5c211" d="M45.518 36.533a3.533 3.533 0 1 1-7.068 0 3.533 3.533 0 1 1 7.068 0M54.1 28.96a3.533 3.533 0 1 1-7.067 0 3.533 3.533 0 1 1 7.068 0m0 0" style="stroke-width:.504846"/><path d="M3.998 45.998v1c0 7.203 5.8 13.004 13.004 13.004h29.996c7.203 0 13.004-5.8 13.004-13.004v-1c0 7.203-5.8 13.002-13.004 13.002H17.002A12.975 12.975 0 0 1 3.998 45.998" opacity=".15"/><path fill="#fff" d="M3.998 18.004v-1C3.998 9.801 9.798 4 17.002 4h29.996c7.203 0 13.004 5.8 13.004 13.004v1c0-7.203-5.8-13.002-13.004-13.002H17.002A12.975 12.975 0 0 0 3.998 18.004" opacity=".15"/></svg>