<svg xmlns="http://www.w3.org/2000/svg" xmlns:xlink="http://www.w3.org/1999/xlink" xml:space="preserve" width="64" height="64"><defs><linearGradient id="a"><stop offset="0" style="stop-color:#3344d6;stop-opacity:1"/><stop offset="1" style="stop-color:#6473ec;stop-opacity:1"/></linearGradient><linearGradient xlink:href="#a" id="b" x1="32.001" x2="32.001" y1="59.971" y2="3.969" gradientUnits="userSpaceOnUse"/></defs><path d="M17.002 3.969A12.973 12.973 0 0 0 4 16.97v29.998A12.973 12.973 0 0 0 17.002 59.97H37.5c.412.02.805.183 1.107.467l3.405 3.199a1.148 1.148 0 0 0 1.934-.838v-1.86a.97.97 0 0 1 .872-.968H47a12.973 12.973 0 0 0 13.002-13.002V16.97A12.973 12.973 0 0 0 47 3.969z" style="fill:url(#b);fill-opacity:1"/><path fill="#3344d6" d="M29.994 32.495c0 6.69-5.425 12.116-12.116 12.116S5.762 39.186 5.762 32.495c0-6.692 5.425-12.117 12.116-12.117s12.116 5.425 12.116 12.117m0 0" style="stroke-width:.504846"/><path fill="#5263ef" d="M29.994 33.504c0 6.692-5.425 12.117-12.116 12.117S5.762 40.196 5.762 33.504c0-6.69 5.425-12.116 12.116-12.116s12.116 5.425 12.116 12.116m0 0" style="stroke-width:.504846"/><path fill="#3344d6" d="M58.266 32.495c0 6.69-5.426 12.116-12.117 12.116-6.69 0-12.116-5.425-12.116-12.116 0-6.692 5.425-12.117 12.116-12.117s12.117 5.425 12.117 12.117m0 0" style="stroke-width:.504846"/><path fill="#5263ef" d="M58.266 33.504c0 6.692-5.426 12.117-12.117 12.117-6.69 0-12.116-5.425-12.116-12.117 0-6.69 5.425-12.116 12.116-12.116s12.117 5.425 12.117 12.116m0 0" style="stroke-width:.504846"/><path fill="#4657e7" d="M25.955 14.32h3.534a1.515 1.515 0 0 1 0 3.03h-3.534a1.515 1.515 0 0 1 0-3.03m0 0" style="stroke-width:.504846"/><path fill="#bcc3f8" d="M25.955 13.31h3.534a1.515 1.515 0 0 1 0 3.03h-3.534a1.515 1.515 0 0 1 0-3.03m0 0" style="stroke-width:.504846"/><path fill="#4657e7" d="M34.538 14.32h3.534a1.515 1.515 0 0 1 0 3.03h-3.534a1.515 1.515 0 0 1 0-3.03m0 0" style="stroke-width:.504846"/><path fill="#bcc3f8" d="M34.538 13.31h3.534a1.515 1.515 0 0 1 0 3.03h-3.534a1.515 1.515 0 0 1 0-3.03m0 0" style="stroke-width:.504846"/><path fill="#3344d6" d="M11.82 31.99h12.116c.558 0 1.01.451 1.01 1.01v2.019a1.01 1.01 0 0 1-1.01 1.01H11.82a1.01 1.01 0 0 1-1.01-1.01v-2.02c0-.558.452-1.01 1.01-1.01m0 0" style="stroke-width:.504846"/><path fill="#3344d6" d="M19.897 27.951v12.116a1.01 1.01 0 0 1-1.01 1.01h-2.019a1.01 1.01 0 0 1-1.01-1.01V27.951c0-.558.452-1.01 1.01-1.01h2.02c.558 0 1.01.452 1.01 1.01m0 0" style="stroke-width:.504846"/><path fill="#bcc3f8" d="M11.82 30.98h12.116c.558 0 1.01.452 1.01 1.01v2.02a1.01 1.01 0 0 1-1.01 1.009H11.82a1.01 1.01 0 0 1-1.01-1.01v-2.02a1.01 1.01 0 0 1 1.01-1.009m0 0" style="stroke-width:.504846"/><path fill="#bcc3f8" d="M19.897 26.941v12.117a1.01 1.01 0 0 1-1.01 1.01h-2.019a1.01 1.01 0 0 1-1.01-1.01V26.94c0-.558.452-1.01 1.01-1.01h2.02c.558 0 1.01.452 1.01 1.01m0 0" style="stroke-width:.504846"/><path fill="#9e7308" d="M45.518 37.543a3.533 3.533 0 1 1-7.068 0 3.533 3.533 0 1 1 7.068 0m0 0" style="stroke-width:.504846"/><path fill="#f5c211" d="M45.518 36.533a3.533 3.533 0 1 1-7.068 0 3.533 3.533 0 1 1 7.068 0m0 0" style="stroke-width:.504846"/><path fill="#9e7308" d="M54.1 29.97a3.533 3.533 0 1 1-7.067 0 3.533 3.533 0 1 1 7.068 0m0 0" style="stroke-width:.504846"/><path fill="#f5c211" d="M54.1 28.96a3.533 3.533 0 1 1-7.067 0 3.533 3.533 0 1 1 7.068 0m0 0" style="stroke-width:.504846"/></svg>