<svg xmlns="http://www.w3.org/2000/svg" xmlns:xlink="http://www.w3.org/1999/xlink" width="64" height="64" viewBox="0 0 16.933 16.933"><defs><linearGradient id="b" x1="8.649" x2="8.649" y1="1.483" y2="15.436" gradientUnits="userSpaceOnUse"><stop offset="0" stop-color="#17b7f1"/><stop offset="1" stop-color="#1763e1"/></linearGradient><linearGradient id="a" x1="499.95" x2="499.95" y1="2.008" y2="1026" gradientTransform="translate(2 2)scale(.99609)" gradientUnits="userSpaceOnUse"><stop offset="0" stop-color="#fff"/><stop offset="1" stop-color="#d7d7d7"/></linearGradient><linearGradient xlink:href="#a" id="d" x1="512" x2="512" y1="53" y2="925.69" gradientUnits="userSpaceOnUse"/><filter id="c" width="1.15" height="1.15" x="-.075" y="-.075" color-interpolation-filters="sRGB"><feGaussianBlur stdDeviation="31.874"/></filter></defs><rect width="14.817" height="14.817" x="1.058" y="1.05" fill="url(#b)" rx="3.44" ry="3.44"/><path fill="#fff" d="M7.604 3.969c-.138 0-.17.006-.26.05a.66.66 0 0 0-.303.304.68.68 0 0 0-.026.465c.018.048.185.35.371.67s.338.595.339.61c0 .015-.458.82-1.018 1.79L5.69 9.624l-1.85.01-.104.049a.67.67 0 0 0-.317.315.5.5 0 0 0-.05.255c0 .125.008.163.05.252a.65.65 0 0 0 .426.356c.036.009 1.375.016 3.02.017l2.956.002.034-.037c.028-.03.033-.063.032-.205-.003-.43-.25-.84-.59-.975-.063-.025-.198-.03-1.118-.038l-1.049-.01.299-.514c1.859-3.198 2.46-4.24 2.488-4.313a.5.5 0 0 0 .026-.227.61.61 0 0 0-.354-.542c-.092-.044-.123-.05-.26-.05a.5.5 0 0 0-.267.05c-.151.07-.243.177-.43.505-.085.15-.16.272-.167.272s-.082-.122-.167-.272c-.188-.33-.266-.421-.422-.498-.105-.052-.13-.057-.273-.057zm1.792 2.449c-.037-.001-.133.093-.199.195-.23.356-.322 1.088-.194 1.547.025.087.326.623 1.312 2.327.704 1.217 1.306 2.243 1.34 2.28a.622.622 0 0 0 1.076-.474.7.7 0 0 0-.044-.194c-.02-.043-.184-.333-.364-.645l-.33-.566 1.1-.018.105-.049a.67.67 0 0 0 .317-.315.5.5 0 0 0 .05-.254.47.47 0 0 0-.05-.253.67.67 0 0 0-.315-.317l-.106-.05-1.831-.01-.923-1.601c-.508-.881-.933-1.603-.944-1.603m-4.361 4.748a.6.6 0 0 0-.218.027c-.037.02-.104.118-.258.383-.311.533-.335.586-.334.757 0 .27.148.484.405.588a.76.76 0 0 0 .482-.021c.16-.077.236-.177.576-.766l.316-.55-.028-.05c-.074-.132-.297-.264-.556-.328a1.8 1.8 0 0 0-.385-.04"/><g image-rendering="optimizeSpeed" transform="translate(7.92 7.92)scale(.0083)"><path d="M984.88 348.72q-9.292-22.529-20.962-44.139a452 452 0 0 0-13.938-24.203c-21.124-34.252-46.894-66.614-77.311-97.029-99.568-99.568-219.83-149.38-360.67-149.38-140.85 0-261.05 49.811-360.61 149.38-99.569 99.572-149.38 219.78-149.38 360.61s49.811 261.11 149.38 360.67c99.568 99.568 219.78 149.32 360.61 149.32 140.84 0 261.11-49.758 360.67-149.32 54.836-54.89 94.598-116.04 119.23-183.42 20.043-54.943 30.092-113.99 30.092-177.25 0-48.515-5.889-94.598-17.72-138.25a657 657 0 0 0-4.214-14.695 498 498 0 0 0-15.18-42.302z" filter="url(#c)" opacity=".15"/><path fill="url(#a)" d="M984.88 316.75q-9.292-22.529-20.962-44.139a452 452 0 0 0-13.938-24.203c-21.124-34.252-46.894-66.614-77.311-97.029-99.568-99.568-219.83-149.38-360.67-149.38-140.85 0-261.05 49.811-360.61 149.38-99.569 99.572-149.38 219.78-149.38 360.61s49.811 261.11 149.38 360.67c99.568 99.568 219.78 149.32 360.61 149.32 140.84 0 261.11-49.758 360.67-149.32 54.836-54.89 94.598-116.04 119.23-183.42 20.043-54.943 30.092-113.99 30.092-177.25 0-48.515-5.889-94.598-17.72-138.25a657 657 0 0 0-4.214-14.695 498 498 0 0 0-15.18-42.302z"/><circle cx="512" cy="511.99" r="458.99" fill="#333"/><path fill="url(#d)" d="M731.1 171.44c-5.247 17.051-14.755 33.29-17.3 50.856 10.213 11.324 27.841 29.648 41.722 12.95 13.171-6.136 24.275-24.735 39.294-20.981 12.309 9.766 25.955 23.871 9.352 36.962-5.879 13.095-26.171 24.632-18.793 39.704 8.31 15.044 21.742 27.382 38.347 15.241 13.406-1.902 31.878-20.441 41.33-4.437 13.075 13.352 10.392 28.97-6.473 37.028-9.127 10.435-33.223 17.758-23.097 34.849 2.75 19.409 18.444 25.34 35.943 19.875 13.656-.079 36.855-10.061 37.704 11.351 10.983 17.786-6.255 26.752-21.292 31.517-13.468 5.942-34.633 11.15-26.498 30.397-3.116 21.089 17.728 23.041 33.6 24.626 15.677.706 34.731 4.415 28.86 24.605 4.988 20.56-20.006 17.861-33.313 21.035-17.01-.414-31.994 7.159-29.37 26.329-7.03 19.993 18.398 22.392 30.907 29.836 18.401 3.178 24.921 17.594 16.02 33.794-4.445 18.063-27.735 5.293-41.069 6.764-18.044-7.084-28.754 6.114-32.39 22.584-6.476 17.348 18.202 24.12 27.503 35.454 19.257 8.04 10.15 25.38.831 37.906-13.311 7.802-29.136-7.075-43.455-9.763-16.508-12.167-26.873 6.837-35.53 18.67-2.012 16.065 15.814 27.66 22.879 41.574 15.293 13.063-5.217 28.014-16.312 35.215-17.981-6.947-31.13-24.065-49.129-31.044-13.574 6.933-35.915 19.17-23.364 36.913 2.519 14.303 17.62 29.833 10.107 43.363-12.614 9.374-29.756 18.87-38.101-.546-11.134-9.082-17.041-31.658-33.505-28.474-16.685 4.116-32.058 13.916-24.632 33.085-1.628 13.463 11.5 36.124-6.4 41.138-16.285 9.16-30.667 2.527-34.087-15.847-7.724-11.527-8.566-36.725-27.708-31.35-19.471-2.354-29.212 11.31-28.48 29.614-3.454 13.2.178 38.168-20.711 33.455-20.022 6.015-24.217-12.961-24.928-28.716-2.237-14.525-1.812-36.256-22.475-33.363-19.566-8.455-26.893 11.118-32.526 26.062-4.727 14.955-13.264 32.338-31.223 21.465-21.158-.498-12.096-23.955-11.715-37.635 4.802-16.333 1.352-32.765-17.833-35.238-17.475-12.006-26.368 11.972-36.795 22.117-7.855 16.962-23.461 19.594-36.833 6.758-16.29-8.98 2.062-28.161 4.094-41.422 11.502-15.608 1.603-29.402-13.435-37.137-15.105-10.69-28.021 11.356-41.383 17.413-12.746 16.513-27.122 3.184-36.806-9.03-4.146-14.865 14.367-26.312 20.664-39.445 16.012-12.785.262-27.717-8.862-39.15-14.977-6.127-30.794 8.119-46.05 11.338-16.557 11.387-25.69-12.277-29.77-24.846 11.388-15.578 31.33-23.871 42.75-39.46-3.179-14.9-9.216-39.617-29.593-32.087-14.494-1.257-33.412 9.294-44.572-1.448-5.778-14.616-10.513-33.626 10.401-36.66 11.664-8.409 35.023-8.278 36.2-25.017.333-17.196-5.198-34.536-25.627-32.334-12.57-5.055-37.835 1.758-38.05-16.816-4.644-18.103 5.488-30.274 24.12-28.822 13.101-4.468 37.62 1.239 37.354-18.62 7.286-18.193-3.322-31.193-21.216-35.218-11.845-6.745-36.857-9.71-26.909-28.652-.635-20.9 18.796-20.055 34.202-16.663 14.624 1.603 35.491 7.62 38.088-13.08 13.28-16.696-3.759-28.827-16.732-38.137-13.234-8.459-27.873-21.205-12.686-35.76 5.969-20.296 26.274-5.484 39.39-1.574 14.538 8.842 31.351 9.853 38.667-8.102 16.066-13.803-4.774-28.587-11.874-41.29-14.353-11.974-12.807-27.715 3.027-37.304 12.881-13.452 26.667 9.26 38.95 14.66 12.08 15.164 27.96 9.07 39.327-3.381 14.29-11.793-3.697-29.992-6.089-44.458-12.66-16.578 3.954-27.003 18.243-33.2 15.416-.103 21.683 20.698 32.733 30.184 8.203 18.777 26.685 7.522 40.106 1.639 9.808-12.885.132-31.85.97-47.424-6.747-18.978 18.459-21.71 31.699-22.383 12.088 15.053 14.96 36.449 27.049 51.536 15.232.785 40.655 1.307 38.65-20.328 4.966-13.664-.329-34.642 12.923-42.648 15.612-1.807 35.198-1.464 32.715 19.524 5.102 13.406-1.083 35.91 14.767 41.346 16.517 4.742 34.742 3.941 37.906-16.372 8.133-10.818 8.09-36.955 26.08-32.354 18.694.19 27.838 13.143 21.614 30.768.922 13.828-10.922 36.023 8.33 40.937 15.671 11.792 30.956 4.898 39.476-11.346 9.6-9.712 18.948-33.153 34.686-18.614 5.38 4.4 17.585 6.145 15.41 15.538zm-78.338 97.95c-66.223-38.247-149.7-49.824-222.43-24.741-36.187 30.905 14.938 71.477 25.188 103.76 20.88 33.949 35.191 72.507 60.436 103.43 33.188 34.934 83.547 21.805 126.03 22.879 38.02-1.322 97.609-1.003 121.47-3.236 45.215-20.914 1.92-76.687-11.978-106.67-24.338-39.328-58.612-72.408-98.713-95.424zm-4.616 491.4c66.888-37.081 119.79-102.68 135.76-177.94-7.857-46.929-68.954-24.021-101.9-31.852-39.849.412-80.265-7.18-119.77-1.479-47.044 10.447-61.728 60.38-84.524 96.24-18.446 33.273-49.423 84.197-59.799 105.79-4.615 47.808 46.286 37.823 84.151 44.55 50.716 1.787 101.77-10.61 146.08-35.315zm-334.03-44.959c45.894 24.287 49.811-29.754 74.046-60.786 21.746-39.924 48.048-77.675 67.009-118.94 12.68-36.495-7.67-71.273-28.377-99.901-25.482-39.364-49.257-79.931-75.733-118.6-41.061-29.058-68.497 35.269-87.484 62.841-59.759 107.5-38.288 250.32 50.537 335.38z" class="shp86"/></g></svg>