<svg xmlns="http://www.w3.org/2000/svg" width="64" height="64" viewBox="0 0 16.933 16.933"><defs><linearGradient id="c" x1="6.614" x2="6.614" y1="3.175" y2="13.758" gradientUnits="userSpaceOnUse"><stop offset="0" stop-color="#15c4fc"/><stop offset="1" stop-color="#1863ee"/></linearGradient><linearGradient id="a" x1="7.937" x2="7.937" y1="15.081" y2="1.852" gradientUnits="userSpaceOnUse"><stop offset="0" stop-color="#f1efeb"/><stop offset="1" stop-color="#fff"/></linearGradient><filter id="b" width="1.12" height="1.12" x="-.06" y="-.06" color-interpolation-filters="sRGB"><feGaussianBlur stdDeviation=".265"/></filter><filter id="d" width="1.148" height="1.101" x="-.074" y="-.05" color-interpolation-filters="sRGB"><feGaussianBlur stdDeviation=".09"/></filter></defs><rect width="14.817" height="14.817" x="1.058" y="1.05" fill="url(#a)" rx="3.44" ry="3.44"/><g transform="translate(1.852)"><circle cx="6.614" cy="8.466" r="5.292" filter="url(#b)" opacity=".25" style="paint-order:stroke markers fill"/><circle cx="6.614" cy="8.466" r="5.292" fill="url(#c)" style="paint-order:stroke markers fill"/><path d="M26 16a16 16 0 0 0-10.184 3.672v2.746A14 14 0 0 0 12 32a14 14 0 0 0 3.816 9.594v2.736A16 16 0 0 0 26 48a16 16 0 0 0 15.998-15.998A16 16 0 0 0 26 16" opacity=".25" style="paint-order:stroke markers fill" transform="translate(-.265)scale(.26458)"/></g><g stroke-width=".265" aria-label="S"><path d="M7.82 6.532v.546q-.318-.152-.6-.227t-.546-.075q-.457 0-.706.177-.247.177-.247.504 0 .274.164.416.166.138.626.224l.337.07q.626.118.923.42.299.3.299.803 0 .6-.405.911-.401.31-1.18.31-.293 0-.625-.066-.33-.067-.684-.197v-.576q.34.191.667.288t.643.097q.479 0 .739-.188t.26-.537q0-.305-.188-.477-.186-.171-.612-.257l-.34-.067q-.626-.124-.906-.39t-.28-.74q0-.548.385-.863.388-.316 1.066-.316.291 0 .593.052.302.053.617.158" filter="url(#d)" opacity=".25" transform="translate(1.852)"/><path fill="#fff" d="M9.672 6.532v.546q-.318-.152-.6-.227t-.546-.075q-.457 0-.706.177-.247.177-.247.504 0 .274.164.416.166.138.626.224l.337.07q.626.118.923.42.299.3.299.803 0 .6-.405.911-.401.31-1.18.31-.293 0-.625-.066-.33-.067-.684-.197v-.576q.34.191.667.288t.643.097q.479 0 .739-.188t.26-.537q0-.305-.188-.477-.186-.171-.612-.257l-.34-.067q-.626-.124-.906-.39t-.28-.74q0-.548.385-.863.388-.316 1.066-.316.291 0 .593.052.302.053.617.158"/></g></svg>