<svg xmlns="http://www.w3.org/2000/svg" xmlns:xlink="http://www.w3.org/1999/xlink" enable-background="new 0 0 1024 1024" image-rendering="optimizeSpeed" viewBox="0 0 64 64"><defs><linearGradient id="b"><stop offset="0" stop-color="#3af63a"/><stop offset="1" stop-color="#3af68b"/></linearGradient><linearGradient id="a"><stop offset="0" stop-color="#a2a2a2"/><stop offset="1" stop-color="#d0d0d0"/></linearGradient><linearGradient id="c" x1="32" x2="32" y1="16" y2="48" gradientUnits="userSpaceOnUse"><stop offset="0" stop-color="#333"/><stop offset="1" stop-color="#484848"/></linearGradient><linearGradient xlink:href="#a" id="k" x1="32" x2="32" y1="40" y2="45.333" gradientTransform="translate(-78 -25.592)scale(1.125)" gradientUnits="userSpaceOnUse"/><linearGradient xlink:href="#a" id="j" x1="32" x2="32" y1="40" y2="45.333" gradientTransform="translate(-78 -15.999)scale(1.125)" gradientUnits="userSpaceOnUse"/><linearGradient xlink:href="#a" id="l" x1="32" x2="32" y1="40" y2="45.333" gradientTransform="translate(-78 -7)scale(1.125)" gradientUnits="userSpaceOnUse"/><linearGradient xlink:href="#b" id="g" x1="23.5" x2="23.5" y1="20" y2="36" gradientUnits="userSpaceOnUse"/><linearGradient xlink:href="#b" id="h" x1="32" x2="32" y1="30" y2="36" gradientUnits="userSpaceOnUse"/><linearGradient id="i" x1="40.5" x2="40.5" y1="26" y2="36" gradientUnits="userSpaceOnUse"><stop offset="0" stop-color="#0ef1c9"/><stop offset="1" stop-color="#0e95f1"/></linearGradient><filter id="f" width="1.12" height="1.12" x="-.06" y="-.06" color-interpolation-filters="sRGB"><feGaussianBlur stdDeviation=".15"/></filter><filter id="e" width="1.12" height="1.12" x="-.06" y="-.06" color-interpolation-filters="sRGB"><feGaussianBlur stdDeviation=".15"/></filter><filter id="d" width="1.12" height="1.12" x="-.06" y="-.06" color-interpolation-filters="sRGB"><feGaussianBlur stdDeviation=".15"/></filter></defs><rect width="56.002" height="56.002" x="4" y="3.969" fill="#f2f2f2" rx="13.002" ry="13.002"/><path d="M3.998 45.998v1c0 7.203 5.8 13.004 13.004 13.004h29.996c7.203 0 13.004-5.8 13.004-13.004v-1c0 7.203-5.8 13.002-13.004 13.002H17.002A12.975 12.975 0 0 1 3.998 45.998" opacity=".1"/><path fill="#fff" d="M3.998 18.004v-1C3.998 9.801 9.798 4 17.002 4h29.996c7.203 0 13.004 5.8 13.004 13.004v1c0-7.203-5.8-13.002-13.004-13.002H17.002A12.975 12.975 0 0 0 3.998 18.004" opacity=".5"/><rect width="32" height="32" x="16" y="16" fill="url(#c)" rx="2.667" style="paint-order:normal"/><g stroke-width="1.5" transform="rotate(-90)"><circle cx="-42" cy="41" r="3" filter="url(#d)" opacity=".15" style="paint-order:normal"/><circle cx="-42" cy="32" r="3" filter="url(#e)" opacity=".15" style="paint-order:normal"/><circle cx="-42" cy="22.407" r="3" filter="url(#f)" opacity=".15" style="paint-order:normal"/></g><rect width="26" height="18" x="19" y="19" fill="#202020" ry="1" style="paint-order:normal"/><path fill="url(#g)" d="M21 20h5v16h-5z" style="paint-order:normal;fill:#3af665;fill-opacity:1"/><path fill="url(#h)" d="M29 30h6v6h-6z" style="paint-order:normal;fill:#3af665;fill-opacity:1"/><path fill="url(#i)" d="M38 26h5v10h-5z" style="paint-order:normal;fill:#0ec2de;fill-opacity:1"/><g stroke-width="1.5"><circle cx="-42" cy="32" r="3" fill="url(#j)" style="paint-order:normal;fill:#b6b6b6;fill-opacity:1" transform="rotate(-90)"/><path d="M35 42a3 3 0 0 0-.407-1.5H32a1.5 1.5 0 0 0-1.5 1.5 1.5 1.5 0 0 0 1.5 1.5h2.596A3 3 0 0 0 35 42" opacity=".25" style="paint-order:normal"/><circle cx="-42" cy="22.407" r="3" fill="url(#k)" style="paint-order:normal;fill:#b6b6b6;fill-opacity:1" transform="rotate(-90)"/><path d="M22.407 39a3 3 0 0 0-1.5.407V42a1.5 1.5 0 0 0 1.5 1.5 1.5 1.5 0 0 0 1.5-1.5v-2.596a3 3 0 0 0-1.5-.404" opacity=".25" style="paint-order:normal"/><circle cx="-42" cy="41" r="3" fill="url(#l)" style="paint-order:normal;fill:#b6b6b6;fill-opacity:1" transform="rotate(-90)"/><path d="M41 45a3 3 0 0 0 1.5-.407V42a1.5 1.5 0 0 0-1.5-1.5 1.5 1.5 0 0 0-1.5 1.5v2.596A3 3 0 0 0 41 45" opacity=".25" style="paint-order:normal"/></g></svg>