<svg xmlns="http://www.w3.org/2000/svg" width="64" height="64" viewBox="0 0 64 64"><defs><linearGradient id="a" x1="7.937" x2="7.937" y1="15.081" y2="1.852" gradientTransform="translate(0 .032)scale(3.7795)" gradientUnits="userSpaceOnUse"><stop offset="0" stop-color="teal"/><stop offset="1" stop-color="#00a3a3"/></linearGradient></defs><rect width="56" height="56" x="4" y="4" fill="url(#a)" rx="13.002" ry="13.002"/><path fill="#fff" d="M40 76.69q-2.04 0-3.72-.56c-1.68-.56-2.08-.893-2.88-1.56a7.5 7.5 0 0 1-1.88-2.48c2.538.037 2.688.023 4.56.16q1.52 1.24 4 1.24 2.56 0 4-1.16 1.44-1.2 1.44-3.24 0-1.76-1.04-3.08-1.04-1.36-2.84-2l-3.4-1.2q-6.56-2.36-6.56-8.12 0-3.52 2.28-5.56c2.28-2.04 3.6-2.04 6.24-2.04q1.92 0 3.48.56 1.6.52 2.72 1.52c.773.667 1.321 1.467 1.721 2.427-1.2-.011-2.467.075-4.441-.107-.98-.484-1.985-1.184-3.52-1.2q-2.24 0-3.56 1.12-1.32 1.08-1.32 2.96 0 1.76.96 2.92c.96 1.16 1.68 1.427 3.12 1.96l3.56 1.28q3.04 1.08 4.64 3.28 1.64 2.16 1.64 5.16 0 3.6-2.48 5.68-2.44 2.04-6.72 2.04" aria-label="S" style="shape-inside:url(#rect884);white-space:pre" transform="matrix(1.69652 0 0 1.41894 -34.982 -55.817)"/><path fill="#f78a00" d="M35.004 44.245 12.98 51.522l2.95-21.582z"/><path fill="#cf00cf" d="M36.859 17.243h14.162V28.89H36.859z"/></svg>