<svg xmlns="http://www.w3.org/2000/svg" fill="none" style="-webkit-print-color-adjust:exact" viewBox="0 0 64 64"><defs><linearGradient id="a" x1="25.75" x2="25.75" y1="52" y2="12" gradientUnits="userSpaceOnUse"><stop offset="0" stop-color="#cc9010"/><stop offset="1" stop-color="#ffc852"/></linearGradient></defs><rect width="56.002" height="56.002" x="4" y="3.969" fill="#4d4d4d" rx="13.002" ry="13.002"/><path fill="#000" d="M3.998 45.998v1c0 7.203 5.8 13.004 13.004 13.004h29.996c7.203 0 13.004-5.8 13.004-13.004v-1c0 7.203-5.8 13.002-13.004 13.002H17.002A12.975 12.975 0 0 1 3.998 45.998" opacity=".35"/><path fill="#fff" d="M3.998 18.004v-1C3.998 9.801 9.798 4 17.002 4h29.996c7.203 0 13.004 5.8 13.004 13.004v1c0-7.203-5.8-13.002-13.004-13.002H17.002A12.975 12.975 0 0 0 3.998 18.004" opacity=".15"/><path fill="url(#a)" d="M32.5 12H19l13.5 19.574L19 52h13.5L46 31.574z" class="fills" style="fill:#eab137;fill-opacity:1"/></svg>