<svg xmlns="http://www.w3.org/2000/svg" viewBox="0 0 16.933 16.933"><rect width="14.817" height="14.817" x="1.058" y="1.05" fill="#1aa0f0" rx="3.44" ry="3.44"/><path fill="#fff" d="M9.505 5.065a1.76 1.76 0 0 0-1.16 1.771l.02.301-.298-.036c-1.081-.142-2.027-.62-2.83-1.426l-.393-.4-.1.297c-.215.656-.078 1.352.367 1.819.238.257.184.294-.227.14-.142-.048-.267-.085-.28-.066-.04.043.103.602.215.824.154.308.47.61.814.787l.292.141-.344.007c-.333 0-.344.007-.311.135.119.4.589.825 1.112 1.01l.369.128-.321.197a3.3 3.3 0 0 1-1.592.455c-.268.006-.487.03-.487.048 0 .061.725.405 1.147.54 1.266.4 2.77.228 3.902-.454.802-.486 1.606-1.45 1.98-2.385.202-.499.404-1.407.404-1.847 0-.283.018-.32.352-.658.196-.197.38-.411.416-.474.06-.117.054-.117-.25-.01-.505.184-.578.16-.326-.117.184-.197.404-.553.404-.657 0-.018-.089.01-.19.067a3 3 0 0 1-.523.207l-.323.105-.29-.202a2.4 2.4 0 0 0-.506-.271 2 2 0 0 0-1.04.024"/><path d="M1.058 12.17v.265a3.433 3.433 0 0 0 3.44 3.44h7.937a3.433 3.433 0 0 0 3.44-3.44v-.265a3.433 3.433 0 0 1-3.44 3.44H4.498a3.433 3.433 0 0 1-3.44-3.44" opacity=".15"/><path fill="#fff" d="M1.058 4.764v-.265a3.433 3.433 0 0 1 3.44-3.44h7.937a3.433 3.433 0 0 1 3.44 3.44v.265a3.433 3.433 0 0 0-3.44-3.44H4.498a3.433 3.433 0 0 0-3.44 3.44" opacity=".15"/></svg>