<svg xmlns="http://www.w3.org/2000/svg" fill="none" viewBox="0 0 64 64"><rect width="56.002" height="56.002" x="4" y="3.969" fill="#1da2f0" rx="13.002" ry="13.002"/><circle cx="32.02" cy="32.044" r="30.001"/><path fill="#000" d="M3.998 45.998v1c0 7.203 5.8 13.004 13.004 13.004h29.996c7.203 0 13.004-5.8 13.004-13.004v-1c0 7.203-5.8 13.002-13.004 13.002H17.002A12.975 12.975 0 0 1 3.998 45.998" opacity=".15"/><path fill="#fff" d="M3.998 18.004v-1C3.998 9.801 9.798 4 17.002 4h29.996c7.203 0 13.004 5.8 13.004 13.004v1c0-7.203-5.8-13.002-13.004-13.002H17.002A12.975 12.975 0 0 0 3.998 18.004" opacity=".15"/><path fill="#fff" d="M44.724 25.473c.02.282.02.564.02.849 0 8.674-6.605 18.678-18.68 18.678v-.005A18.6 18.6 0 0 1 16 42.052a13.18 13.18 0 0 0 9.716-2.72 6.57 6.57 0 0 1-6.134-4.56c.985.19 1.999.15 2.964-.113a6.565 6.565 0 0 1-5.266-6.434v-.084c.913.509 1.935.79 2.98.822a6.573 6.573 0 0 1-2.032-8.765 18.64 18.64 0 0 0 13.53 6.858 6.573 6.573 0 0 1 11.188-5.987c1.471-.29 2.88-.83 4.17-1.594a6.6 6.6 0 0 1-2.886 3.63A13 13 0 0 0 48 22.072a13.3 13.3 0 0 1-3.276 3.4z" clip-path="url(#a)"/><defs><clipPath id="a"><path fill="#fff" d="M0 0h64v64H0z"/></clipPath></defs></svg>