<svg xmlns="http://www.w3.org/2000/svg" image-rendering="optimizeSpeed" viewBox="0 0 64 64"><rect width="56.002" height="56.002" x="4" y="3.969" fill="#c665d6" rx="13.002" ry="13.002"/><path d="M3.998 45.998v1c0 7.203 5.8 13.004 13.004 13.004h29.996c7.203 0 13.004-5.8 13.004-13.004v-1c0 7.203-5.8 13.002-13.004 13.002H17.002A12.975 12.975 0 0 1 3.998 45.998" opacity=".15"/><path fill="#fff" d="M3.998 18.004v-1C3.998 9.801 9.798 4 17.002 4h29.996c7.203 0 13.004 5.8 13.004 13.004v1c0-7.203-5.8-13.002-13.004-13.002H17.002A12.975 12.975 0 0 0 3.998 18.004" opacity=".15"/><circle cx="32.02" cy="32.044" r="30.001" fill="none"/><circle cx="32.02" cy="32.044" r="30.001" fill="none"/><ellipse cx="32" cy="32" fill="#7e508d" rx="19.5" ry="18" style="paint-order:normal"/><path fill="#faf2f2" d="M26.15 23c-3.949-.002-7.15 3.166-7.15 7.071s3.201 7.072 7.15 7.072h11.7c3.949 0 7.15-3.166 7.15-7.072S41.799 23 37.85 23a7.17 7.17 0 0 0-5.853 3.016A7.17 7.17 0 0 0 26.15 23" style="paint-order:normal"/><path fill="#d76b82" d="M32.001 33.286c-2.599 0-5.201 1.929-5.201 3.857s4.194 9 5.201 9 5.199-7.071 5.199-9c0-1.928-2.6-3.857-5.199-3.857"/><path fill="#4675b0" d="M26.8 28.143c-1.436 0-2.6 1.151-2.6 2.571s1.164 2.572 2.6 2.572 2.6-1.151 2.6-2.572c0-1.42-1.164-2.571-2.6-2.571m10.4 0c-1.436 0-2.6 1.151-2.6 2.571s1.164 2.572 2.6 2.572 2.6-1.151 2.6-2.572c0-1.42-1.164-2.571-2.6-2.571m-11.05 1.286c.359 0 .65.288.65.643s-.291.642-.65.642-.65-.287-.65-.642.291-.643.65-.643m10.4 0c.359 0 .65.288.65.643s-.291.642-.65.642-.65-.287-.65-.642.291-.643.65-.643" style="paint-order:normal"/></svg>