<svg xmlns="http://www.w3.org/2000/svg" width="64" height="64" image-rendering="optimizeSpeed"><defs><linearGradient id="a" x1="7.937" x2="7.937" y1="15.081" y2="1.852" gradientTransform="scale(3.7796)" gradientUnits="userSpaceOnUse"><stop offset="0" stop-color="#a545d9"/><stop offset="1" stop-color="#de7cd3"/></linearGradient><linearGradient id="b" x1="31.547" x2="31.547" y1="45.7" y2="21.624" gradientTransform="matrix(1.3 0 0 1.2857 -9.407 -10.798)" gradientUnits="userSpaceOnUse"><stop offset="0" stop-color="#52345c"/><stop offset="1" stop-color="#865596"/></linearGradient><linearGradient id="d" x1="31.856" x2="31.856" y1="42.334" y2="35.687" gradientTransform="matrix(1.3 0 0 1.2857 -9.407 -10.798)" gradientUnits="userSpaceOnUse"><stop offset="0" stop-color="#c04170"/><stop offset="1" stop-color="#dc7486"/></linearGradient><linearGradient id="e" x1="31.447" x2="31.447" y1="33.727" y2="30.57" gradientTransform="matrix(1.3 0 0 1.2857 -9.407 -10.798)" gradientUnits="userSpaceOnUse"><stop offset="0" stop-color="#2f5b93"/><stop offset="1" stop-color="#5c8dcb"/></linearGradient><linearGradient id="c" x1="31.62" x2="31.62" y1="35.969" y2="30.132" gradientTransform="matrix(1.3 0 0 1.2857 -9.407 -10.798)" gradientUnits="userSpaceOnUse"><stop offset="0" stop-color="#ffd6d6"/><stop offset="1" stop-color="#faf2f2"/></linearGradient></defs><rect width="56.002" height="56.002" x="4" y="3.969" fill="url(#a)" rx="13.002" ry="13.002"/><circle cx="32.02" cy="32.044" r="30.001" fill="none"/><ellipse cx="32" cy="32" fill="url(#b)" rx="19.5" ry="18" style="paint-order:normal"/><path fill="url(#c)" d="M26.15 23c-3.949-.002-7.15 3.166-7.15 7.071s3.201 7.072 7.15 7.072h11.7c3.949 0 7.15-3.166 7.15-7.072S41.799 23 37.85 23a7.17 7.17 0 0 0-5.853 3.016A7.17 7.17 0 0 0 26.15 23" style="paint-order:normal"/><path fill="url(#d)" d="M32.001 33.286c-2.599 0-5.201 1.929-5.201 3.857s4.194 9 5.201 9 5.199-7.071 5.199-9c0-1.928-2.6-3.857-5.199-3.857"/><path fill="url(#e)" d="M26.8 28.143c-1.436 0-2.6 1.151-2.6 2.571s1.164 2.572 2.6 2.572 2.6-1.151 2.6-2.572c0-1.42-1.164-2.571-2.6-2.571m10.4 0c-1.436 0-2.6 1.151-2.6 2.571s1.164 2.572 2.6 2.572 2.6-1.151 2.6-2.572c0-1.42-1.164-2.571-2.6-2.571m-11.05 1.286c.359 0 .65.288.65.643s-.291.642-.65.642-.65-.287-.65-.642.291-.643.65-.643m10.4 0c.359 0 .65.288.65.643s-.291.642-.65.642-.65-.287-.65-.642.291-.643.65-.643" style="paint-order:normal"/></svg>