<svg xmlns="http://www.w3.org/2000/svg" width="64" height="64"><defs><linearGradient id="c" x1="30.997" x2="42.269" y1="49.263" y2="20.889" gradientUnits="userSpaceOnUse"><stop offset="0" stop-color="#28ffe1"/><stop offset="1" stop-color="#2165b0"/></linearGradient><linearGradient id="b" x1="25.647" x2="17.608" y1="47.855" y2="24.517" gradientUnits="userSpaceOnUse"><stop offset="0" stop-color="#2db9eb"/><stop offset="1" stop-color="#094f9d"/></linearGradient><linearGradient id="a" x1="7.937" x2="7.937" y1="15.081" y2="1.852" gradientTransform="scale(3.7796)" gradientUnits="userSpaceOnUse"><stop offset="0" stop-color="#f1efeb"/><stop offset="1" stop-color="#fdfcfc"/></linearGradient></defs><rect width="64" height="64" fill="none" rx="0" ry="0" style="paint-order:stroke fill markers"/><rect width="56.002" height="56.002" x="4" y="3.969" fill="url(#a)" rx="13.002" ry="13.002"/><g stroke-width=".599"><path fill="#2165b0" d="m46.112 15.107-8.388 3.583v14.081c.01 3.034 8.388 2.778 8.388.579z"/><path fill="url(#b)" d="m24.539 24.91-8.39 3.73v5.111c0 2.196.292 4.208.875 6.027q.868 2.729 2.692 4.7 1.547 1.67 3.804 2.722l2.127.655c6.837-.713 9.27-6.283 10.047-7.792h.003l.2-.49c-1.208 1.246-2.893 1.9-4.766 1.9-3.689 0-6.592-2.873-6.592-6.591v-2.07z"/><path fill="url(#c)" d="M37.721 20.165v.782l.002.032v13.903c0 1.906-.72 3.616-1.979 4.834.05-.049.105-.093.153-.143l-.2.49h-.003c-.776 1.51-4.35 6.398-11.187 7.112l-.886.023c.218.13.452.251.719.357q2.804 1.108 6.658 1.11l-.005-.01c2.61 0 4.864-.355 6.767-1.079 1.904-.718 3.468-1.735 4.704-3.05q1.848-1.968 2.747-4.723c.899-2.755.897-3.854.897-6.054v-2.622c-.55-5.005-5.003-9.611-8.387-10.962m-2.03 19.601"/><path fill="#fff" d="m46.112 15.107-8.388 3.584v.599l8.388-3.584zM24.54 24.91l-8.39 3.73v.6l8.39-3.73zm0 9.972v.599c0 3.718 2.903 6.592 6.592 6.592 1.634 0 3.125-.499 4.28-1.454l.283-.556h.002l.2-.49c-1.207 1.247-2.893 1.9-4.766 1.9-3.688 0-6.591-2.873-6.591-6.591" opacity=".1"/><path fill="#fff" d="M37.721 20.165v.6c3.385 1.35 7.836 5.956 8.387 10.961v-.599c-.551-5.005-5.002-9.612-8.387-10.962m.001 14.716c0 1.906-.72 3.615-1.978 4.834.05-.049.104-.092.152-.142l-.2.49h-.002a8 8 0 0 1-.366.615c-1.237 1.92-4.725 5.86-10.821 6.496l-.886.023c.218.13.452.252.718.357.156.062.32.117.48.173 6.63-.83 10.112-5.58 10.875-7.065h.002l.2-.49c-.048.05-.101.093-.152.142 1.26-1.218 1.978-2.928 1.978-4.834zm-2.032 4.885" opacity=".1"/></g></svg>