<svg xmlns="http://www.w3.org/2000/svg" viewBox="0 0 16.933 16.933"><g transform="scale(.26458)"><rect width="64" height="64" fill="none" rx="0" ry="0" style="paint-order:stroke fill markers"/><rect width="56.002" height="56.002" x="4" y="3.969" fill="#f2f2f2" rx="13.002" ry="13.002"/></g><path d="M1.058 12.17v.265a3.433 3.433 0 0 0 3.44 3.44h7.937a3.433 3.433 0 0 0 3.44-3.44v-.265a3.433 3.433 0 0 1-3.44 3.44H4.498a3.433 3.433 0 0 1-3.44-3.44" opacity=".1"/><path fill="#fff" d="M1.058 4.763V4.5a3.433 3.433 0 0 1 3.44-3.44h7.937a3.433 3.433 0 0 1 3.44 3.44v.265a3.433 3.433 0 0 0-3.44-3.44H4.498a3.433 3.433 0 0 0-3.44 3.44z" opacity=".5"/><g transform="translate(-.21 -.21)scale(1.0248)"><circle cx="-8.466" cy="8.466" r="5.938" fill="#666" transform="rotate(-90)"/><path fill="#fff" d="M8.073 2.543a6 6 0 0 0-.515.057 4 4 0 0 1 .065.474 3.58 3.58 0 0 1-3.36 3.79 3.6 3.6 0 0 1-1.446-.22 6 6 0 0 0-.144.523q.083.029.167.053c-.003.48-.038.67.182.729.191.051.253-.12.417-.599q.235.03.471.035c.12.524.16.704.36.672.226-.036.211-.228.257-.703q.237-.031.468-.09c.223.462.304.626.489.551.212-.085.154-.269.093-.746a4 4 0 0 0 .42-.2c.347.39.47.526.627.403.18-.14.075-.3-.113-.738a4 4 0 0 0 .364-.315c.418.28.57.377.691.221.137-.178 0-.308-.285-.673q.14-.18.258-.373c.498.144.675.193.743.005.075-.21-.093-.293-.47-.55q.094-.226.162-.46c.516.017.7.022.719-.177.022-.222-.162-.261-.592-.419q.03-.245.032-.491c.49-.094.666-.133.642-.328-.027-.223-.217-.218-.676-.278zm.175 3.479-.28.036a.05.05 0 0 0-.031.018.05.05 0 0 0-.01.035l.007.348a2 2 0 0 0-.577.242l-.239-.25a.046.046 0 0 0-.066-.009l-.223.171a.05.05 0 0 0-.018.031.06.06 0 0 0 .01.035l.172.302a2 2 0 0 0-.376.496l-.328-.096a.05.05 0 0 0-.036 0 .05.05 0 0 0-.025.025l-.108.26a.05.05 0 0 0 0 .036.06.06 0 0 0 .025.025l.3.176a2 2 0 0 0-.08.563l.002.053-.335.081a.05.05 0 0 0-.03.018.05.05 0 0 0-.01.035l.037.279a.05.05 0 0 0 .017.032.06.06 0 0 0 .035.009h.35a2 2 0 0 0 .241.574l-.25.237a.05.05 0 0 0-.018.031.05.05 0 0 0 .01.035l.171.224q.013.015.031.018a.06.06 0 0 0 .035-.01l.301-.172a2 2 0 0 0 .497.376l-.096.328a.05.05 0 0 0 0 .036q.006.016.025.025l.26.108a.05.05 0 0 0 .036 0 .06.06 0 0 0 .025-.025l.175-.3a2 2 0 0 0 .563.08l.054-.002.081.334a.05.05 0 0 0 .018.031q.015.012.035.01l.279-.037a.05.05 0 0 0 .031-.018.06.06 0 0 0 .01-.035v-.349a2 2 0 0 0 .56-.234l.253.24c.066.01.02.017.031.019a.05.05 0 0 0 .035-.01l.224-.17a.05.05 0 0 0 .018-.032.05.05 0 0 0-.01-.035l-.178-.296a2 2 0 0 0 .371-.486l.34.082c.061-.026.025.004.036 0s.02-.014.026-.026l.108-.26a.05.05 0 0 0 0-.036.05.05 0 0 0-.026-.026l-.306-.17a2 2 0 0 0 .08-.566v-.039l.334-.099c.04-.052.024-.008.031-.018a.05.05 0 0 0 .01-.034l-.038-.28a.05.05 0 0 0-.017-.03.06.06 0 0 0-.035-.01l-.349.006a2 2 0 0 0-.234-.563l.242-.254c.009-.066.016-.02.018-.031a.05.05 0 0 0-.01-.036l-.17-.223a.05.05 0 0 0-.032-.018.05.05 0 0 0-.035.01l-.298.178a2 2 0 0 0-.485-.37l.082-.341c-.025-.062.005-.025 0-.037s-.013-.02-.025-.025l-.26-.108a.05.05 0 0 0-.037 0 .05.05 0 0 0-.025.025l-.17.307a2 2 0 0 0-.567-.081l-.038.001-.099-.334c-.052-.04-.008-.024-.018-.032a.05.05 0 0 0-.034-.008m.189.81a1.635 1.635 0 0 1 1.634 1.634A1.635 1.635 0 0 1 8.437 10.1a1.635 1.635 0 0 1-1.635-1.634 1.635 1.635 0 0 1 1.635-1.634m5.304 1.916c-.227-.001-.245.19-.366.646a4 4 0 0 0-.473.01c-.154-.503-.207-.679-.403-.633-.222.052-.194.242-.206.722a4 4 0 0 0-.444.13c-.27-.453-.365-.61-.544-.52-.206.106-.128.284-.023.767q-.204.107-.395.235c-.396-.357-.533-.481-.678-.34-.164.158-.041.307.195.724a4 4 0 0 0-.325.336c-.47-.252-.631-.34-.738-.168-.122.195.034.309.367.661a4 4 0 0 0-.222.397c-.47-.1-.647-.172-.75.032-.09.18.068.273.526.542a4 4 0 0 0-.114.45c-.475.025-.665.002-.71.225-.041.196.135.245.636.384q-.01.229.007.458c-.448.157-.637.189-.618.415.008.106.066.155.195.176a6 6 0 0 0 1.092-.134c-.133-.608-.112-1.285.21-2.117.073-.187.159-.349.256-.475a3.58 3.58 0 0 1 1.813-1.48c.1-.05.236-.09.388-.12a4 4 0 0 1 .33-.067 4 4 0 0 1 .356-.034 3.6 3.6 0 0 1 1.073.115 6 6 0 0 0 .127-.546 4 4 0 0 0-.316-.073c-.033-.533-.044-.717-.246-.718" opacity=".25"/></g><path fill="#fff" d="m8.46 3.175-.02.002c-.25.025-.246.237-.327.758a4.563 4.55 28.59 0 0-.51.068c-.234-.538-.314-.724-.524-.65-.238.086-.18.291-.134.823a4.563 4.55 28.59 0 0-.464.191c-.336-.407-.44-.59-.668-.485-.202.094-.129.283.082.829a4.563 4.55 28.59 0 0-.406.31c-.426-.303-.575-.453-.767-.292-.169.142-.05.305.288.767a4.563 4.55 28.59 0 0-.307.4c-.494-.17-.68-.271-.818-.063-.12.181.036.305.477.643a4.563 4.55 28.59 0 0-.203.497c-.512-.057-.713-.113-.802.119-.079.207.104.292.63.534a4.563 4.55 28.59 0 0-.068.527c-.505.069-.713.066-.742.312-.026.22.173.256.748.363a4.563 4.55 28.59 0 0 .066.483c-.485.234-.692.289-.644.538.043.217.244.191.818.119a4.563 4.55 28.59 0 0 .196.476c-.417.353-.605.457-.496.688.097.201.285.124.836-.095l-.052-.09a4.563 4.55 28.59 0 0 .35.466c-.295.439-.442.592-.275.78.144.164.304.044.746-.297a4.563 4.55 28.59 0 0 .413.318c-.208.555-.28.744-.077.836.228.104.332-.082.662-.49a4.563 4.55 28.59 0 0 .486.2c-.076.562-.1.76.114.804.246.05.304-.153.538-.628a4.563 4.55 28.59 0 0 .507.07c.083.569.113.768.333.751.25-.02.251-.23.343-.747a4.563 4.55 28.59 0 0 .526-.068c.215.51.296.693.5.622.235-.08.188-.283.148-.791a4.563 4.55 28.59 0 0 .463-.186c.372.434.503.586.68.454.197-.146.092-.325-.098-.79a4.563 4.55 28.59 0 0 .428-.325c.465.33.63.445.768.274.156-.19.01-.339-.29-.745a4.563 4.55 28.59 0 0 .328-.43c.507.21.693.282.79.088.11-.222-.068-.333-.453-.667a4.563 4.55 28.59 0 0 .193-.474c.56.06.759.08.797-.136.043-.244-.159-.3-.626-.514a4.563 4.55 28.59 0 0 .068-.513c.566-.088.766-.12.746-.34-.022-.25-.233-.249-.749-.336a4.563 4.55 28.59 0 0-.07-.51c.522-.24.705-.325.626-.53-.088-.232-.29-.177-.798-.12a4.563 4.55 28.59 0 0-.201-.485c.457-.353.617-.477.494-.661-.142-.211-.327-.103-.84.075a4.563 4.55 28.59 0 0-.312-.404c.335-.482.452-.648.278-.787-.195-.156-.34-.004-.758.308a4.563 4.55 28.59 0 0-.415-.314c.21-.54.284-.728.085-.823h-.001c-.227-.106-.333.078-.67.484a4.563 4.55 28.59 0 0-.473-.192c.076-.576.102-.776-.115-.82-.25-.05-.305.158-.544.647a4.563 4.55 28.59 0 0-.502-.067c-.092-.544-.127-.753-.313-.759h-.02zm1.147 1.6c.16 0 .391.094.632.227.442.245.916.624 1.042.794.606.648 1.047 1.452 1.073 2.743.005.24-.018.459-.075.637-.061.186-.185.372-.38.462-.163.069-.343.117-.51.04-.522-.24-1.178-.653-1.704-.964-.088-.053-.153-.138-.162-.18v-.002l.002-.065a1.06 1.06 0 0 0-.607-.958.4.4 0 0 1-.042-.135 32 32 0 0 1-.01-1.896c.002-.433.313-.688.696-.7l.03-.003zm-2.264.023h.025a.73.73 0 0 1 .41.123c.139.108.27.24.284.424.047.572.01 1.347-.004 1.958a.4.4 0 0 1-.068.219 1.06 1.06 0 0 0-.582.945l.002.05a.4.4 0 0 1-.122.148c-.54.33-1.097.647-1.649.939-.377.211-.751.065-.95-.262-.26-.341-.095-1.688.044-1.998.267-.845.75-1.625 1.864-2.28.207-.123.408-.21.591-.248a1 1 0 0 1 .13-.016zm1.124 3.14a.53.53 0 0 1 .529.528.53.53 0 0 1-.53.53.53.53 0 0 1-.529-.53.53.53 0 0 1 .53-.529zM7.842 9.36h.01a.1.1 0 0 1 .042.005l.017.002a1.06 1.06 0 0 0 .556.158 1.06 1.06 0 0 0 .554-.157.4.4 0 0 1 .2.03 34 34 0 0 1 1.637.958c.372.22.433.618.249.954-.167.396-1.414.927-1.753.962-.865.19-1.782.162-2.907-.474a2 2 0 0 1-.51-.389.75.75 0 0 1-.204-.563c.023-.174.074-.353.225-.458.472-.327 1.162-.68 1.698-.975a.44.44 0 0 1 .186-.053"/></svg>