<svg xmlns="http://www.w3.org/2000/svg" width="64" height="64" image-rendering="optimizeSpeed"><defs><linearGradient id="a" x1="7.937" x2="7.937" y1="15.081" y2="1.852" gradientTransform="scale(3.7796)" gradientUnits="userSpaceOnUse"><stop offset="0" stop-color="#31343b"/><stop offset="1" stop-color="#5f6979"/></linearGradient></defs><rect width="56.002" height="56.002" x="4" y="3.969" fill="url(#a)" rx="13.002" ry="13.002"/><circle cx="32.02" cy="32.044" r="30.001" fill="none"/><path fill="#2bac8f" d="M50 43h-6.333v-3.606l3.167-1.599z"/><path fill="#2e997c" d="M46.833 37.795H40.5l.633 2.8L43.666 43z"/><path fill="#278768" d="M43.668 43h-6.334l1.267-3.606 1.9-1.599z"/><path fill="#21674f" d="m37.333 32.589-2.533-1.61-3.8 1.61 3.166 5.203z"/><path fill="#2a8d70" d="m40.502 37.795-3.167-.805-3.166.805L37.335 43z"/><path fill="#2f9f81" d="M40.502 37.791h-6.333l1.556-2.558 1.61-2.645z"/><path fill="#96cfba" d="M50 22.171h-6.333v2.79l3.167 2.413z"/><path fill="#85c8b1" d="M46.833 27.374H40.5l.633-3.616 2.533-1.587z"/><path fill="#6bbfa4" d="M43.668 22.171h-6.333v2.79l3.166 2.413z"/><path fill="#52b99b" d="m40.502 27.375-3.167 1.19-3.166-1.19 3.166-5.203z"/><path fill="#44b799" d="M40.502 27.38h-6.333l.633 2.391 2.533 2.812z"/><path fill="#33b394" d="M37.333 32.584H31l3.167-5.203z"/><path fill="#2da4ad" d="M34.166 37.791 31 39.39l-3.167-1.599L31 32.588z"/><path fill="#2f98af" d="M34.167 37.795h-6.333l.1 3.386L31 42.999z"/><path fill="#0d657a" d="M30.998 43h-6.333v-3.606l3.167-1.599 1.56 2.565z"/><path fill="#2a69b1" d="m27.833 37.795-3.166-.805-3.167.805L24.666 43"/><path fill="#2077bc" d="M27.833 37.791H21.5l.634-3.208 2.533-1.995z"/><path fill="#2886c7" d="m24.666 32.589-3.8-1.61-2.533 1.61 3.167 5.203"/><path fill="#238dcd" d="M24.667 32.584h-6.334l.001-4.014 3.166-1.19z"/><path fill="#1a9cd1" d="m21.518 27.364-3.185-1.213-3.167 1.213 3.176 5.219"/><path fill="#0ea6d3" d="M21.5 27.374h-6.333l.634-2.414 2.532-2.789z"/><path fill="#08abd8" d="M18.333 22.171h-6.332l3.166 5.203z"/></svg>