<svg xmlns="http://www.w3.org/2000/svg" xmlns:xlink="http://www.w3.org/1999/xlink" xml:space="preserve" width="64" height="64"><defs><linearGradient id="c" x1="7.937" x2="7.937" y1="15.081" y2="1.852" gradientTransform="scale(3.7796)" gradientUnits="userSpaceOnUse"><stop offset="0" stop-color="#f1efeb"/><stop offset="1" stop-color="#fdfcfc"/></linearGradient><linearGradient id="b"><stop offset="0" style="stop-color:#0e16be;stop-opacity:1"/><stop offset="1" style="stop-color:#63a4e1;stop-opacity:1"/></linearGradient><linearGradient id="a"><stop offset="0" style="stop-color:#008726;stop-opacity:1"/><stop offset="1" style="stop-color:#7ecc6f;stop-opacity:1"/></linearGradient><linearGradient xlink:href="#a" id="d" x1="115.094" x2="26.988" y1="42.862" y2="42.862" gradientUnits="userSpaceOnUse"/><linearGradient xlink:href="#b" id="f" x1="60.854" x2="60.854" y1="97.102" y2="62.706" gradientUnits="userSpaceOnUse"/><filter id="e" width="1.044" height="1.15" x="-.012" y="-.047" style="color-interpolation-filters:sRGB"><feFlood flood-color="#000" flood-opacity=".604" result="flood"/><feComposite in="flood" in2="SourceGraphic" operator="in" result="composite1"/><feGaussianBlur in="composite1" result="blur" stdDeviation=".5"/><feOffset dx="1.9" dy="1.4" result="offset"/><feComposite in="SourceGraphic" in2="offset" result="fbSourceGraphic"/></filter><filter id="g" width="1.041" height="1.07" x="-.012" y="-.022" style="color-interpolation-filters:sRGB"><feFlood flood-color="#000" flood-opacity=".601" result="flood"/><feComposite in="flood" in2="SourceGraphic" operator="in" result="composite1"/><feGaussianBlur in="composite1" result="blur" stdDeviation=".5"/><feOffset dx="1.9" dy="1.4" result="offset"/><feComposite in="SourceGraphic" in2="offset" result="fbSourceGraphic"/></filter></defs><rect width="56" height="56" x="4" y="4" fill="url(#c)" rx="13" ry="13" style="fill:url(#c)"/><g style="display:inline"><path d="m121.708 29.369-68.262 1.587c-6.712.156-13.465 2.72-18.786 7.005-5.124 4.228-8.19 10.464-9.79 16.808l24.343-1.059c.214-2.678 1.733-5.11 3.689-6.885 1.763-1.528 4.013-2.554 6.365-2.64l58.473-2.116z" style="fill:url(#d);fill-opacity:1;stroke:none;stroke-width:.264583px;stroke-linecap:butt;stroke-linejoin:miter;stroke-opacity:1;filter:url(#e)" transform="translate(6.324 6.495)scale(.38046)"/><path d="M22.49 61.648 12.17 88.9c-1.362 3.598-1.127 8.118 1.702 10.913 3.337 3.297 8.404 3.78 12.85 3.374l72.497-6.614 16.14-47.625-20.638.794-12.436 35.19-11.112.793 12.435-35.454-22.225 1.058-13.229 36.513-7.408.264c-2.145.077-3.307-2.908-2.646-4.762l8.202-23.019z" style="fill:url(#f);fill-opacity:1;stroke:none;stroke-width:.264583px;stroke-linecap:butt;stroke-linejoin:miter;stroke-opacity:1;filter:url(#g)" transform="translate(6.324 6.495)scale(.38046)"/></g></svg>