<svg xmlns="http://www.w3.org/2000/svg" xmlns:xlink="http://www.w3.org/1999/xlink" viewBox="0 0 64 64"><defs><linearGradient id="a" x1="55.867" x2="68.871" y1="20.605" y2="45.125" gradientUnits="userSpaceOnUse"><stop offset="0" stop-color="#67554b"/><stop offset=".179" stop-color="#77767b"/><stop offset=".801" stop-color="#241f31"/><stop offset="1" stop-color="#5e5c64"/></linearGradient><linearGradient xlink:href="#a" id="c" x1="55.867" x2="68.871" y1="20.605" y2="45.125" gradientTransform="translate(-4.205 -3.39)scale(.56571)" gradientUnits="userSpaceOnUse"/><linearGradient id="b" x1="7.937" x2="7.937" y1="15.081" y2="1.852" gradientTransform="scale(3.7796)" gradientUnits="userSpaceOnUse"><stop offset="0" stop-color="#363636"/><stop offset="1" stop-color="#6c6c6c"/></linearGradient><radialGradient id="e" cx="64" cy="220" r="48" gradientTransform="translate(-4.205 -100.69)scale(.56571)" gradientUnits="userSpaceOnUse"><stop offset="0" stop-color="#ababab"/><stop offset=".758" stop-color="#a5a59f"/><stop offset="1" stop-color="#5f5e59"/></radialGradient><clipPath id="d"><rect width="56.002" height="56.002" x="4" y="3.969" fill="url(#b)" stroke-width="3.78" opacity=".412" rx="13.002" ry="13.002"/></clipPath></defs><rect width="56.002" height="56.002" x="4" y="3.969" fill="#b5835a" rx="13.002" ry="13.002"/><path fill="#63452c" fill-opacity=".188" d="M41.678 3.969c4.932 1.02 9.479 2.239 13.453 3.654.487.174.953.353 1.424.531A12.95 12.95 0 0 0 47 3.97zM10.354 5.8c-1.396.83-2.62 1.91-3.613 3.185 8.834.355 16.748 1.974 22.549 4.348 3.295 1.348 5.9 2.942 7.6 4.586s2.466 3.242 2.466 4.826-.768 3.183-2.467 4.826c-1.699 1.644-4.304 3.238-7.6 4.586-6.393 2.616-15.36 4.305-25.288 4.405v3.396c10.306-.098 19.632-1.817 26.576-4.658 3.575-1.463 6.528-3.216 8.672-5.29 2.143-2.072 3.502-4.56 3.502-7.265s-1.36-5.192-3.502-7.265c-2.144-2.074-5.097-3.827-8.672-5.29-5.485-2.244-12.46-3.789-20.223-4.39m-6.23 9.46C4.05 15.822 4 16.39 4 16.972v1.777c1.101.279 2.112.62 2.928 1.033 1.958.99 2.74 2.124 2.74 2.965s-.782 1.975-2.74 2.965c-.816.412-1.827.754-2.928 1.033v3.514c1.647-.347 3.154-.858 4.46-1.518 2.578-1.303 4.603-3.337 4.603-5.994s-2.025-4.69-4.604-5.994c-1.272-.643-2.737-1.144-4.335-1.49m55.878 20.655a67 67 0 0 1-4.87 1.953c-11.76 4.188-28.215 6.828-46.39 6.828-1.6 0-3.17-.046-4.742-.086v2.357c0 .35.024.694.051 1.037 1.556.039 3.107.084 4.691.084 18.501 0 35.253-2.652 47.527-7.023 1.3-.463 2.536-.949 3.733-1.45z" color="#000" style="-inkscape-stroke:none"/><path fill="#63452c" fill-opacity=".086" d="M59.166 51.539c-14.704 3.207-31.933 5.102-50.424 5.102-.146 0-.286-.008-.432-.008a12.93 12.93 0 0 0 7.438 3.275c14.79-.373 28.698-1.891 41.023-4.363a12.9 12.9 0 0 0 2.394-4.006z" color="#000" style="-inkscape-stroke:none"/><path fill="#241f31" d="M28.607 42.999h6.789a3.395 3.395 0 0 1 3.394 3.394v7.92a3.395 3.395 0 0 1-3.394 3.395h-6.789a3.395 3.395 0 0 1-3.394-3.395v-7.92A3.395 3.395 0 0 1 28.607 43" style="stroke-width:.566"/><path fill="url(#c)" d="M28.607 41.868h6.789a3.395 3.395 0 0 1 3.394 3.394v7.92a3.395 3.395 0 0 1-3.394 3.395h-6.789a3.395 3.395 0 0 1-3.394-3.395v-7.92a3.395 3.395 0 0 1 3.394-3.394" style="fill:url(#c);stroke-width:.566"/><path fill="#9b9b98" d="M37.095 49.222a5.094 5.094 0 1 1-10.187 0 5.094 5.094 0 0 1 10.187 0" clip-path="url(#d)" style="stroke-width:.566"/><path fill="url(#c)" d="M39.921 14.714a7.921 7.921 0 0 1-15.84 0 7.921 7.921 0 0 1 15.84 0" style="fill:#413e4b;fill-opacity:1;stroke-width:.566"/><path fill="url(#e)" stroke="#5e5c64" stroke-width="1.131" d="M32.001 11.461c-11.215 0-20.366 9.15-20.366 20.366s9.15 20.366 20.366 20.366 20.366-9.15 20.366-20.366-9.15-20.366-20.366-20.366zm0 5.657c8.156 0 14.709 6.552 14.709 14.71s-6.552 14.708-14.709 14.708-14.709-6.552-14.709-14.709 6.552-14.709 14.709-14.709z" style="fill:#a6a6a1;fill-opacity:1"/><path fill="#5e5c64" d="M32.001 9.627a1.78 1.78 0 0 0-1.794 1.794v6.789A1.78 1.78 0 0 0 32 20.002a1.78 1.78 0 0 0 1.794-1.792v-6.79A1.78 1.78 0 0 0 32 9.626"/><path fill="#8f8f8e" d="M32.001 9.66c-.685 0-1.213.528-1.213 1.213v5.787c0 .685.528 1.216 1.213 1.216s1.213-.53 1.213-1.216v-5.787c0-.685-.528-1.213-1.213-1.213"/><path d="M3.998 45.998v1c0 7.203 5.8 13.004 13.004 13.004h29.996c7.203 0 13.004-5.8 13.004-13.004v-1c0 7.203-5.8 13.002-13.004 13.002H17.002A12.975 12.975 0 0 1 3.998 45.998" opacity=".15"/><path fill="#fff" d="M3.998 18.004v-1C3.998 9.801 9.798 4 17.002 4h29.996c7.203 0 13.004 5.8 13.004 13.004v1c0-7.203-5.8-13.002-13.004-13.002H17.002A12.975 12.975 0 0 0 3.998 18.004" opacity=".15"/></svg>