<svg xmlns="http://www.w3.org/2000/svg" xmlns:xlink="http://www.w3.org/1999/xlink" width="64" height="64" viewBox="0 0 16.933 16.933"><defs><linearGradient xlink:href="#a" id="e" x1="41.991" x2="110.82" y1="228.41" y2="228.41" gradientTransform="matrix(.9248 0 0 .92515 5.61 17.096)"/><linearGradient id="a" gradientUnits="userSpaceOnUse"><stop offset="0" stop-color="#c061cb" stop-opacity="0"/><stop offset="1" stop-color="#c061cb"/></linearGradient><linearGradient xlink:href="#a" id="h" x1="64.347" x2="94.388" y1="230.74" y2="230.74" gradientTransform="matrix(.93912 0 0 .93834 5.085 14.753)"/><linearGradient id="d" x1="1663.9" x2="1660.4" y1="815.57" y2="804.56" gradientTransform="matrix(.22916 -.4825 -.53134 -.20817 59.322 980.14)" gradientUnits="userSpaceOnUse"><stop offset="0" stop-color="#3584e4"/><stop offset="1" stop-color="#c061cb"/></linearGradient><linearGradient id="c" x1="66.335" x2="66.335" y1="14.146" y2="114.59" gradientTransform="translate(.267 .22)scale(.12896)" gradientUnits="userSpaceOnUse"><stop offset="0" stop-color="#424048"/><stop offset="1" stop-color="#424048" stop-opacity=".6"/></linearGradient><clipPath id="f"/><clipPath id="i"/><mask id="g" maskUnits="userSpaceOnUse"><g filter="url(#b)" transform="translate(0 171.996)"><path fill-opacity=".35" d="M-12.8-12.8h153.6v153.6H-12.8z"/></g></mask><mask id="j" maskUnits="userSpaceOnUse"><g filter="url(#b)" transform="translate(0 171.996)"><path fill-opacity=".35" d="M-12.8-12.8h153.6v153.6H-12.8z"/></g></mask><filter id="b" width="1" height="1" x="0" y="0"><feColorMatrix color-interpolation-filters="sRGB" values="0 0 0 0 1 0 0 0 0 1 0 0 0 0 1 0 0 0 1 0"/></filter></defs><rect width="14.817" height="14.817" x="1.058" y="1.05" fill="#1b1623" rx="3.44" ry="3.44"/><path fill="url(#c)" d="M15.128 8.504a6.607 6.607 0 1 1-13.215 0 6.607 6.607 0 0 1 13.215 0"/><path fill="url(#d)" d="m7.178 7.464.168.892.899.751 3.84 2.615.95.338-.554-.843-3.453-3.108-.943-.694zm0 0"/><path fill="#d5d3cf" d="M9.227 8.157a.775.775 0 1 1-1.415.63.775.775 0 0 1 1.415-.63m0 0"/><path fill="#131c1a" d="M8.783 8.473a.258.258 0 1 1-.517 0 .258.258 0 0 1 .517 0m0 0"/><path fill="#131c1a" d="M8.782 8.473a.258.258 0 1 1-.515 0 .258.258 0 0 1 .515 0m0 0"/><path fill="#363636" stroke="#656565" stroke-linecap="round" stroke-linejoin="round" stroke-width=".387" d="m13.372 11.2-1.017-.586M3.677 5.613l1.016.586m1.032-2.632.587 1.015m5.011-1.016-.587 1.015m2.636 1.031-1.017.586m-8.679 5.004 1.016-.586"/><path fill="none" stroke="#656565" stroke-linecap="round" stroke-linejoin="round" stroke-width=".387" d="M2.926 8.408H4.1m4.424-5.591V3.99m5.598 4.416h-1.174"/><path fill="none" stroke="url(#e)" stroke-linecap="round" stroke-linejoin="round" stroke-width="7" d="M44.336 202.2c16.344-9.735 37.273-6.618 50.082 7.452s13.969 35.22 2.773 50.61" clip-path="url(#f)" mask="url(#g)" transform="translate(.267 -21.961)scale(.12896)"/><path fill="none" stroke="url(#h)" stroke-linecap="round" stroke-linejoin="round" stroke-width="4" d="M44.813 218.18c9.835-10.465 26.12-11.48 37.183-2.325 11.067 9.16 13.098 25.333 4.64 36.938" clip-path="url(#i)" mask="url(#j)" transform="translate(.267 -21.961)scale(.12896)"/></svg>