<svg xmlns="http://www.w3.org/2000/svg" width="64" height="64" style="isolation:isolate" viewBox="0 0 64 64">
    <defs>
        <clipPath id="a">
            <path d="M0 0h64v64H0z"/>
        </clipPath>
    </defs>
    <g clip-path="url(#a)">
        <path fill="#9cf" d="m9 55 46 .002c2.208 0 4-1.793 4-4V15c0-2.208-1.792-4-4-4H31.885c-1.104 0-2.642-.449-3.433-1.001-.791-.553-2.329-1.001-3.433-1.002L9 8.996c-2.208 0-4 1.792-4 4V51c0 2.208 1.792 4 4 4"/>
        <path fill="#311b92" fill-opacity=".5" d="m9 55 46 .002c2.208 0 4-1.793 4-4V15c0-2.208-1.792-4-4-4H31.885c-1.104 0-2.642-.449-3.433-1.001-.791-.553-2.329-1.001-3.433-1.002L9 8.996c-2.208 0-4 1.792-4 4V51c0 2.208 1.792 4 4 4"/>
        <path fill="#fff" d="M7.757 20.5v30.501a1 1 0 0 0 1 1h46c.551 0 1-.448 1-1V16.5c0-.552-.442-.927-.987-.836L31.767 19.5H8.757a1 1 0 0 0-1 1" opacity=".5"/>
        <g opacity=".9" style="mix-blend-mode:normal">
            <path d="M54.76 50.054V17.946a.947.947 0 0 0-.946-.946H9.726a.947.947 0 0 0-.946.946v32.108c0 .522.424.946.946.946h44.088a.947.947 0 0 0 .946-.946" style="stroke:none;fill:#fff;stroke-miterlimit:10"/>
        </g>
        <g opacity=".9">
            <path fill="#9cf" d="M58.141 14H33.799c-1.11 0-2.593.688-3.309 1.537l-1.624 1.925c-.716.848-2.198 1.523-3.308 1.507l-19.694-.294c-2.207-.033-3.846 1.726-3.656 3.926l2.449 28.418c.189 2.2 2.135 3.985 4.343 3.985h46c2.208 0 4.137-1.787 4.306-3.988l2.53-33.028C62.004 15.787 60.349 14 58.141 14"/>
            <linearGradient id="b" x1=".084" x2=".084" y1="1.023" y2="-.1" gradientTransform="matrix(-60.277 0 0 41.005 62.141 14)" gradientUnits="userSpaceOnUse">
                <stop offset="2.083%" stop-opacity=".3" style="stop-color:#fff9c4"/>
                <stop offset="97.083%" stop-opacity=".3" style="stop-color:#283593"/>
            </linearGradient>
            <path fill="url(#b)" d="M58.141 14H33.799c-1.11 0-2.593.688-3.309 1.537l-1.624 1.925c-.716.848-2.198 1.523-3.308 1.507l-19.694-.294c-2.207-.033-3.846 1.726-3.656 3.926l2.449 28.418c.189 2.2 2.135 3.985 4.343 3.985h46c2.208 0 4.137-1.787 4.306-3.988l2.53-33.028C62.004 15.787 60.349 14 58.141 14"/>
        </g>
    </g>
</svg>
