<svg xmlns="http://www.w3.org/2000/svg" fill-rule="evenodd" stroke-linejoin="round" stroke-miterlimit="2" clip-rule="evenodd" viewBox="0 0 16 16"><path fill="gray" fill-rule="nonzero" d="M6.568 1 1 10.742V13c0 1.108.892 2 2 2h10c1.108 0 2-.892 2-2V3c0-1.108-.892-2-2-2H6.569m.856 1H13q.095 0 .186.018l-2.875 4.98zm6.527.693Q14 2.84 14 3v6.5h-3.979zm-7.242.073L8.289 5.5H5.146zM4.576 6.5h1.402l-3.93 6.807Q2.003 13.16 2 13v-1.992zm2.559 0h1.73L9.732 8l-.867 1.5h-1.73L6.268 8zM5.689 9.002 8.576 14H3q-.095 0-.186-.018zM7.711 10.5h6.29V13c0 .554-.447 1-1 1h-3.27z" clip-rule="nonzero"/></svg>