<svg xmlns="http://www.w3.org/2000/svg" fill-rule="evenodd" stroke-linejoin="round" stroke-miterlimit="2" clip-rule="evenodd" viewBox="0 0 16 16"><path fill="gray" d="m6.514 1-.578 1L2 8.818l-1 1.733V13c0 1.108.892 2 2 2h10c1.108 0 2-.892 2-2V3c0-1.108-.892-2-2-2zm.578 1h1.781L6.957 5.447l-.432.778-1.957 3.521-.002.004-.003.008A.5.5 0 0 0 4.5 10v.004a.5.5 0 0 0 .018.125v.002a.5.5 0 0 0 .048.119L6.738 14H3c-.554 0-1-.446-1-1v-2.182zm2.924 0H13c.554 0 1 .446 1 1v6.5H9.586l-1.91-3.287zM7.11 7.23 8.43 9.5H6.887a.613.613 0 0 1-.614-.613.6.6 0 0 1 .045-.229l.002-.006zM5.867 10.5H14V13c0 .554-.446 1-1 1H7.893z"/></svg>