<svg xmlns="http://www.w3.org/2000/svg" width="16" height="16" viewBox="0 0 16 16"><path fill="gray" d="M2.5 1A2.5 2.5 0 0 0 .063 2.973l-.012.054a3 3 0 0 0-.03.172A2 2 0 0 0 0 3.5q0 .153.021.3a3 3 0 0 0 .03.173l.012.054A2.5 2.5 0 0 0 2.5 6l.115-.008q.085.006.17.008H7.5v2.5c0 1.108-.892 2-2 2H3.935A2 2 0 0 0 2 9a2 2 0 0 0-2 2 2 2 0 0 0 2 2 2 2 0 0 0 1.934-1.5H5.5c.77 0 1.47-.287 2-.76v1.327A2 2 0 0 0 6 14a2 2 0 0 0 2 2 2 2 0 0 0 2-2 2 2 0 0 0-1.5-1.935V10.74c.53.474 1.23.76 2 .76h1.566A2 2 0 0 0 14 13a2 2 0 0 0 2-2 2 2 0 0 0-2-2 2 2 0 0 0-1.934 1.5H10.5c-1.108 0-2-.892-2-2V6h4.715C14.757 6 16 4.885 16 3.5S14.757 1 13.215 1H2.785q-.064.002-.127.006A3 3 0 0 0 2.5 1m0 1A1.5 1.5 0 0 1 4 3.5 1.5 1.5 0 0 1 2.5 5a1.5 1.5 0 0 1-.244-.021l-.026-.004a1.5 1.5 0 0 1-.232-.063l-.023-.008A1.5 1.5 0 0 1 1.75 4.8a1.5 1.5 0 0 1-.215-.15 1.5 1.5 0 0 1-.183-.184 1.5 1.5 0 0 1-.15-.215 1.5 1.5 0 0 1-.106-.225l-.008-.023a1.5 1.5 0 0 1-.063-.232l-.004-.026A1.5 1.5 0 0 1 1 3.5a1.5 1.5 0 0 1 .021-.244l.004-.026a1.5 1.5 0 0 1 .063-.232l.008-.023A1.5 1.5 0 0 1 1.2 2.75a1.5 1.5 0 0 1 .15-.215 1.5 1.5 0 0 1 .184-.183 1.5 1.5 0 0 1 .215-.15 1.5 1.5 0 0 1 .225-.106l.023-.008a1.5 1.5 0 0 1 .232-.063l.026-.003A1.5 1.5 0 0 1 2.5 2m1.998 0H13.5c.831 0 1.5.669 1.5 1.5S14.331 5 13.5 5H4.492A2.5 2.5 0 0 0 5 3.5 2.5 2.5 0 0 0 4.498 2M2 10a1 1 0 0 1 1 1 1 1 0 0 1-1 1 1 1 0 0 1-1-1 1 1 0 0 1 1-1m12 0a1 1 0 0 1 1 1 1 1 0 0 1-1 1 1 1 0 0 1-1-1 1 1 0 0 1 1-1m-6 3a1 1 0 0 1 1 1 1 1 0 0 1-1 1 1 1 0 0 1-1-1 1 1 0 0 1 1-1" style="paint-order:stroke fill markers"/></svg>