<svg xmlns="http://www.w3.org/2000/svg" width="16" height="16"><path fill="gray" d="M3.49 0a.5.5 0 0 0-.5.5v.002l-.002.912-2.75 2.217a.5.5 0 0 0-.133.611l.592 1.186a.5.5 0 0 0 .608.25l1.32-.448c.286.201.56.442.918.442.266 0 .464-.166.687-.278v.46c0 .098-.067.24-.22.365s-.372.205-.518.205c-.625 0-1.26.163-1.77.539S.85 7.96.85 8.713a.5.5 0 0 0 .101.3l.596.79c-.578.275-1.053.722-1.053 1.404a.5.5 0 0 0 .5.5h6.623a.5.5 0 0 0 .5-.5c0-.628-.361-1.054-.816-1.346l.783-.763a.5.5 0 0 0 .152-.36V5.172c0-1.074-.27-2.059-.857-2.797-.514-.645-1.311-1.014-2.24-1.111C4.952.497 4.249 0 3.49 0m.498 1.37c.05.063.171.064.188.136q.018.08.015.164a.5.5 0 0 0 .518.516l.047-.002h.002c.86 0 1.43.303 1.838.814.407.511.64 1.269.64 2.174v3.355L6.084 9.65a.5.5 0 0 0 .35.858c.204 0 .375.07.5.199H2.09c.11-.048.107-.2.236-.2a.5.5 0 0 0 .4-.8L1.9 8.61c.033-.374.155-.65.416-.844.294-.216.73-.343 1.176-.343.431 0 .83-.167 1.153-.432.322-.265.586-.658.586-1.139v-1.81c-.012-.632-.942-.665-.999-.035-.027.39-.311.664-.689.664a.72.72 0 0 1-.562-.272.5.5 0 0 0-.551-.16l-1.033.35-.217-.434 2.623-2.113a.5.5 0 0 0 .185-.389zm7.563 4.109C9.845 5.482 8.69 6.603 8.47 7.957c-.192 1.172.425 2.375 1.605 3.06l-1.805 3.22c-.206.08-.44.118-.591.269-.25.25-.448.577-.448.984a.5.5 0 0 0 .5.5l7.717.01a.5.5 0 0 0 .5-.5c0-.41-.2-.736-.453-.988-.152-.153-.389-.192-.598-.274l-1.892-3.2c.941-.548 1.627-1.46 1.629-2.579 0-1.571-1.234-2.76-2.752-2.959a2 2 0 0 0-.33-.021m-.024.874h.002a2.1 2.1 0 0 1 2.104 2.106 2.1 2.1 0 0 1-1.436 1.99.5.5 0 0 0-.271.729l2.148 3.634a.5.5 0 0 0 .326.186l-5.627-.006a.5.5 0 0 0 .326-.191l2.036-3.633a.5.5 0 0 0-.276-.717c-1.174-.397-1.556-1.39-1.402-2.334.154-.943.833-1.76 2.07-1.764"/></svg>