<svg xmlns="http://www.w3.org/2000/svg" width="16" height="16"><title>Gnome Symbolic Icon Theme</title><g fill="gray"><path d="M2.03 1C1.459 1 .999 1.46.999 2.031V5.97c0 .571.46 1.03 1.031 1.03h3.937A1.03 1.03 0 0 0 7 5.97V2.03A1.03 1.03 0 0 0 5.967 1zm-.031 1h4v4h-4zM9.03 8c-.571 0-1.031.46-1.031 1.031v3.938c0 .571.46 1.03 1.031 1.03h3.937A1.03 1.03 0 0 0 14 12.97V9.03a1.03 1.03 0 0 0-1.032-1.031zm-.031 1h4v4h-4z" opacity=".5"/><path d="M9.03 1c-.571 0-1.031.46-1.031 1.031V5.97c0 .571.46 1.03 1.031 1.03h3.937A1.03 1.03 0 0 0 14 5.97V2.03A1.03 1.03 0 0 0 12.968.999zm-.031 1h4v4h-4zM2.03 8C1.459 8 .999 8.46.999 9.031v3.938c0 .571.46 1.03 1.031 1.03h3.937A1.03 1.03 0 0 0 7 12.97V9.03A1.03 1.03 0 0 0 5.967 8zm-.031 1h4v4h-4z"/><path fill-rule="evenodd" d="M365-143h4v4h-4z" opacity=".25" style="paint-order:stroke fill markers" transform="translate(-363 145)"/><path fill-rule="evenodd" d="M372-143h4v4h-4zm-7 7h4v4h-4z" opacity=".5" style="paint-order:stroke fill markers" transform="translate(-363 145)"/><path fill-rule="evenodd" d="M372-136h4v4h-4z" opacity=".25" style="paint-order:stroke fill markers" transform="translate(-363 145)"/></g></svg>