<svg xmlns="http://www.w3.org/2000/svg" width="16" height="16"><path fill="gray" d="M8 0a8 8 0 0 0-8 8 8 8 0 0 0 6.662 7.885 8 8 0 0 0 .793.096A8 8 0 0 0 8 16a8 8 0 0 0 1.59-.16 8 8 0 0 0 .773-.197A8 8 0 0 0 12 14.906v-3.344A6 6 0 0 0 8 10a6 6 0 0 0-5.076 2.814A7 7 0 0 1 1 8a7 7 0 0 1 7-7 7 7 0 0 1 4 1.258V1.074A8 8 0 0 0 8 0m6 2a1 1 0 0 0-1 1 1 1 0 0 0 1 1 1 1 0 0 0 1-1 1 1 0 0 0-1-1M8 4a2 2 0 0 0-2 2 2 2 0 0 0 2 2 2 2 0 0 0 2-2 2 2 0 0 0-2-2m6 3a1 1 0 0 0-1 1 1 1 0 0 0 1 1 1 1 0 0 0 1-1 1 1 0 0 0-1-1m0 5a1 1 0 0 0-1 1 1 1 0 0 0 1 1 1 1 0 0 0 1-1 1 1 0 0 0-1-1"/></svg>