<svg xmlns="http://www.w3.org/2000/svg" width="16" height="16" viewBox="0 0 16 16"><g fill="gray"><path d="m6.152 6.845-1.86 1.24v1.912L9.02 6.845l-4.727-3.15v1.91z" class="st1"/><path d="M11.532 6.03 6.805 9.181l4.727 3.152V10.42l-1.86-1.24 1.86-1.24z" class="st2" opacity=".65"/><path d="M4 1.08A8 8 0 0 0 .852 11.558l.87-.502A7 7 0 0 1 4.5 1.946a7 7 0 0 1 9.278 2.15l.885-.512A8 8 0 0 0 4 1.08" opacity=".65"/><path d="M1.35 12.42a8 8 0 0 0 10.648 2.513 8 8 0 0 0 3.148-10.478l-.87.502a7 7 0 0 1-2.778 9.11 7 7 0 0 1-9.278-2.15z"/></g></svg>