<svg xmlns="http://www.w3.org/2000/svg" width="64" height="64" viewBox="0 0 64 64"><defs><linearGradient id="a" x1=".5" x2=".521" y1="1" y2=".004"><stop offset="0%" style="stop-color:rgba(1,1,1,.1)"/><stop offset="100%" style="stop-color:rgba(255,255,255,.1)"/></linearGradient></defs><path d="M16 4h32c6.623 0 12 5.377 12 12v32c0 6.623-5.377 12-12 12H16C9.377 60 4 54.623 4 48V16C4 9.377 9.377 4 16 4" style="stroke:none;fill:#fff;stroke-miterlimit:10"/><path d="M16 4h32c6.623 0 12 5.377 12 12v32c0 6.623-5.377 12-12 12H16C9.377 60 4 54.623 4 48V16C4 9.377 9.377 4 16 4" style="stroke:none;fill:url(#a);stroke-miterlimit:10"/><linearGradient id="b" x1="0" x2="1" y1=".5" y2=".5" gradientTransform="matrix(30.646 0 0 26.446 20.091 27.198)" gradientUnits="userSpaceOnUse"><stop offset="0%" style="stop-color:#0b4e90"/><stop offset="100%" style="stop-color:#0d559d"/></linearGradient><path fill="url(#b)" d="M49.713 42.743c-2.108 2.074-5.38 2.567-7.981 2.579-8.134 0-15.219-6.254-15.219-13.431a5.41 5.41 0 0 1 2.824-4.693c-7.355.308-9.246 7.973-9.246 12.464 0 12.696 11.703 13.982 14.224 13.982 1.359 0 3.41-.395 4.64-.783l.225-.075a22.06 22.06 0 0 0 11.446-9.074c.382-.601-.291-1.316-.914-.968z"/><linearGradient id="c" x1="0" x2=".703" y1=".5" y2=".5" gradientTransform="matrix(28.957 0 0 35.728 10.018 18.271)" gradientUnits="userSpaceOnUse"><stop offset="0%" style="stop-color:#0078d4"/><stop offset="100%" style="stop-color:#108ddc"/></linearGradient><path fill="url(#c)" d="M27.512 51.486a13.6 13.6 0 0 1-3.909-3.667c-5.079-6.959-1.994-16.815 5.735-20.621.537-.253 1.453-.71 2.671-.688a5.56 5.56 0 0 1 4.415 2.235 5.47 5.47 0 0 1 1.094 3.206c0-.036 4.203-13.68-13.75-13.68-7.544 0-13.749 7.16-13.749 13.441a22.3 22.3 0 0 0 2.08 9.623c4.737 10.104 16.29 15.061 26.876 11.532-3.624 1.143-8.227.64-11.45-1.374z"/><linearGradient id="d" x1="0" x2="1" y1=".5" y2=".5" gradientTransform="matrix(44 0 0 28.323 10 10)" gradientUnits="userSpaceOnUse"><stop offset="0%" style="stop-color:#40bfff"/><stop offset="100%" style="stop-color:#5fde56"/></linearGradient><path fill="url(#d)" d="M36.18 34.607c-.139.18-.568.43-.568.973 0 .448.293.879.811 1.242 2.472 1.719 7.131 1.491 7.144 1.491a10.2 10.2 0 0 0 5.201-1.434c3.233-1.888 5.223-4.371 5.231-8.113.045-3.852-1.375-6.412-1.949-7.546C48.408 14.097 40.547 10 31.999 10 19.969 10 10.17 19.66 10 31.686c.082-6.278 6.325-12.105 13.75-12.105.601 0 4.032.059 7.218 1.731 2.808 1.474 4.279 4.01 5.302 5.774 1.486 2.804 1.55 5.38-.089 7.521z"/></svg>