<svg xmlns="http://www.w3.org/2000/svg" width="64" height="64" viewBox="0 0 64 64"><defs><linearGradient id="a" x1=".5" x2=".49" y1="0" y2="1"><stop offset="0%" style="stop-color:rgba(255,255,255,.1)"/><stop offset="100%" style="stop-color:rgba(0,0,0,.1)"/></linearGradient></defs><path d="M15.999 3.97h32.002C54.623 3.97 60 9.347 60 15.97v32c0 6.623-5.377 12-11.999 12H15.999C9.377 59.97 4 54.593 4 47.97v-32c0-6.623 5.377-12 11.999-12" style="stroke:none;fill:#3d8bff;stroke-miterlimit:10"/><path d="M15.999 3.97h32.002C54.623 3.97 60 9.347 60 15.97v32c0 6.623-5.377 12-11.999 12H15.999C9.377 59.97 4 54.593 4 47.97v-32c0-6.623 5.377-12 11.999-12" style="stroke:none;fill:url(#a);stroke-miterlimit:10"/><path fill="#fff" d="M31.57 13a4.245 4.245 0 0 0-4.287 4.287v2.57h-6.856A3.44 3.44 0 0 0 17 23.285v6.516h2.57a4.61 4.61 0 0 1 4.629 4.574l.002.055a4.61 4.61 0 0 1-4.631 4.627H17v6.513A3.44 3.44 0 0 0 20.427 49h6.516v-2.57a4.61 4.61 0 0 1 4.627-4.631l.055.004V41.8a4.61 4.61 0 0 1 4.574 4.629V49h6.513a3.44 3.44 0 0 0 3.43-3.43v-6.855h2.57A4.243 4.243 0 0 0 53 34.428l-.002-.053c-.028-2.375-1.903-4.232-4.286-4.232h-2.57v-6.858a3.44 3.44 0 0 0-3.428-3.428h-6.859v-2.57a4.246 4.246 0 0 0-4.23-4.285z"/><path fill="#3d8bff" d="M31.625 13.002v21.373h21.373a4.24 4.24 0 0 0-4.285-4.232h-2.57v-6.858a3.44 3.44 0 0 0-3.428-3.427h-6.86v-2.571a4.24 4.24 0 0 0-4.23-4.285m-7.427 21.373.002.055a4.61 4.61 0 0 1-4.63 4.627H17v6.513A3.44 3.44 0 0 0 20.428 49h6.514v-2.57a4.61 4.61 0 0 1 4.628-4.63l.055.002v-7.427z" opacity=".35"/></svg>