<svg xmlns="http://www.w3.org/2000/svg" width="64" height="64" viewBox="0 0 64 64"><defs><linearGradient id="a" x1=".086" x2=".086" y1=".234" y2="1"><stop offset="0%" style="stop-color:#35c130"/><stop offset="33%" style="stop-color:#34bd30"/><stop offset="66%" style="stop-color:#31b231"/><stop offset="100%" style="stop-color:#2c9f32"/></linearGradient></defs><path d="M16 4h32c6.623 0 12 5.377 12 12v32c0 6.623-5.377 12-12 12H16C9.377 60 4 54.623 4 48V16C4 9.377 9.377 4 16 4" style="stroke:none;fill:url(#a);stroke-miterlimit:10"/><clipPath id="b"><path d="M16 4h32c6.623 0 12 5.377 12 12v32c0 6.623-5.377 12-12 12H16C9.377 60 4 54.623 4 48V16C4 9.377 9.377 4 16 4" style="stroke:none;fill:url(#a);stroke-miterlimit:10"/></clipPath><g clip-path="url(#b)"><linearGradient id="c" x1=".275" x2=".275" y1=".168" y2=".979" gradientTransform="matrix(30.359 0 0 42.316 29.641 17.684)" gradientUnits="userSpaceOnUse"><stop offset="0%" style="stop-color:#ffce00"/><stop offset="100%" style="stop-color:#e6bc00"/></linearGradient><path fill="url(#c)" d="M60 18q-36.784-.697-29 .145c18.047 1.951 12.29 21.551 12.29 21.551L31 60h29z"/><linearGradient id="d" x1=".472" x2=".472" y1="-.075" y2="1.736" gradientTransform="matrix(57 0 0 34.264 3 4)" gradientUnits="userSpaceOnUse"><stop offset="0%" style="stop-color:#f6503b"/><stop offset="33%" style="stop-color:#f24735"/><stop offset="66%" style="stop-color:#e62f25"/><stop offset="100%" style="stop-color:#d4090d"/></linearGradient><path fill="url(#d)" d="m3 9.003 17.261 29.261 11.531-20.119H60V4H3z"/></g><circle cx="32.031" cy="31.973" r="13.835" fill="#fff" vector-effect="non-scaling-stroke"/><linearGradient id="e" x1=".48" x2=".48" y1=".011" y2=".992" gradientTransform="translate(21.07 21.012)scale(21.922)" gradientUnits="userSpaceOnUse"><stop offset="0%" style="stop-color:#47b9ff"/><stop offset="100%" style="stop-color:#3d8aff"/></linearGradient><circle cx="32.031" cy="31.973" r="10.961" fill="url(#e)" vector-effect="non-scaling-stroke"/><defs><linearGradient id="f" x1=".493" x2=".5" y1="-.001" y2="1"><stop offset="0%" style="stop-color:rgba(255,255,255,.1)"/><stop offset="100%" style="stop-color:rgba(0,0,0,.1)"/></linearGradient></defs><path d="M16 4h32c6.623 0 12 5.377 12 12v32c0 6.623-5.377 12-12 12H16C9.377 60 4 54.623 4 48V16C4 9.377 9.377 4 16 4" style="stroke:none;fill:url(#f);stroke-miterlimit:10"/></svg>