<svg xmlns="http://www.w3.org/2000/svg" width="64" height="64" viewBox="0 0 64 64"><defs><linearGradient id="a" x1=".495" x2=".5" y1="-.004" y2="1"><stop offset="0%" style="stop-color:rgba(255,255,255,.5)"/><stop offset="100%" style="stop-color:rgba(0,0,0,.25)"/></linearGradient></defs><path d="M16 4h32c6.623 0 12 5.377 12 12v32c0 6.623-5.377 12-12 12H16C9.377 60 4 54.623 4 48V16C4 9.377 9.377 4 16 4" style="stroke:none;fill:#1db954;stroke-miterlimit:10"/><path d="M16 4h32c6.623 0 12 5.377 12 12v32c0 6.623-5.377 12-12 12H16C9.377 60 4 54.623 4 48V16C4 9.377 9.377 4 16 4" style="stroke:none;fill:url(#a);stroke-miterlimit:10;opacity:.5"/><path fill="#fff" d="M27.754 24.688c7.62 0 15.512 1.678 20.59 4.73.531.288.879.42 1.449.415 1.42.004 2.649-1.081 2.646-2.622a3 3 0 0 0-.02-.395c-.185-.863-.6-1.51-1.533-2.024q-.645-.375-1.31-.714c-6.022-3.101-13.937-4.64-21.817-4.637-5.076.002-9.374.575-13.386 1.734-1.026.3-1.783 1.155-1.92 2.308-.01.057-.01.11-.014.175 0 1.5 1.147 2.673 2.648 2.672.117.005.254-.011.41-.029.105-.018.224-.045.356-.07.164-.042.386-.108.676-.202 3.542-.96 7.41-1.339 11.225-1.341m-13.409 8.086c.004 1.217.982 2.206 2.191 2.206q.186.004.37-.026c.093-.022.197-.04.304-.071.143-.04.374-.111.694-.224a35.6 35.6 0 0 1 9.172-1.177c6.933 0 13.25 1.805 17.818 4.516.416.25.802.486 1.41.49a2.18 2.18 0 0 0 2.185-2.19c.004-.085.003-.158.003-.23-.18-.98-.509-1.333-1.252-1.79-5.22-3.137-12.353-5.18-20.144-5.186-.72-.001-1.42.016-2.137.055-3.217.17-6.207.696-8.819 1.464-1.062.29-1.646 1.013-1.781 1.862-.002.106-.013.195-.014.3zm2.744 6.703c-.76.127-1.378.63-1.563 1.445-.011.09-.016.207-.018.313.003.655.35 1.257.86 1.526.264.15.565.237.9.24.008-.004.008-.004.02 0 .345 0 .92-.177 1.384-.278 2.84-.587 5.859-.974 8.865-.968 5.38 0 10.44 1.29 14.52 3.751.42.258.745.425 1.194.426a1.75 1.75 0 0 0 1.735-1.762q.004-.157-.01-.287a2 2 0 0 0-.217-.594 2 2 0 0 0-.696-.682c-2.313-1.406-4.824-2.469-7.53-3.2-2.755-.745-5.673-1.124-8.74-1.146-.078-.008-.159-.003-.232-.003-4.105.004-7.604.606-10.472 1.22z"/></svg>