<svg xmlns="http://www.w3.org/2000/svg" width="64" height="64" viewBox="0 0 64 64"><defs><linearGradient id="a" x1="-.036" x2="1.015" y1=".497" y2=".491"><stop offset="0%" style="stop-color:#ac92ec"/><stop offset="13.7%" style="stop-color:#64a9ff"/><stop offset="26.8%" style="stop-color:#4cdbb7"/><stop offset="49.4%" style="stop-color:#aee672"/><stop offset="74.1%" style="stop-color:#ffce53"/><stop offset="93%" style="stop-color:#fb6e51"/><stop offset="100%" style="stop-color:#ed5565"/></linearGradient></defs><path d="M16 4h32c6.623 0 12 5.377 12 12v32c0 6.623-5.377 12-12 12H16C9.377 60 4 54.623 4 48V16C4 9.377 9.377 4 16 4" style="stroke:none;fill:url(#a);stroke-miterlimit:10"/><path d="M18 10h28c4.415 0 8 3.585 8 8v28c0 4.415-3.585 8-8 8H18c-4.415 0-8-3.585-8-8V18c0-4.415 3.585-8 8-8" style="stroke:none;fill:#fff;stroke-miterlimit:10"/><linearGradient id="b" x1=".493" x2=".499" y1="1.028" y2="0" gradientTransform="matrix(24.001 0 0 28.762 19.998 15.236)" gradientUnits="userSpaceOnUse"><stop offset="0%" style="stop-color:#1c262c"/><stop offset="100%" style="stop-color:#617077"/></linearGradient><path fill="url(#b)" d="M32.002 15.236a.5.5 0 0 0-.333.143l-7.944 7.945-.212.189c-4.686 4.686-4.686 12.284 0 16.97s12.284 4.686 16.97 0c4.687-4.685 4.689-12.283.004-16.97l-.287-.265-.038-.056-7.812-7.813a.5.5 0 0 0-.348-.143M32.089 26a6.05 6.05 0 0 1 4.157 1.757 6.01 6.01 0 0 1 0 8.486 6.01 6.01 0 0 1-8.489 0 6.01 6.01 0 0 1 0-8.486A6.05 6.05 0 0 1 32.089 26"/><path fill="#3b474d" d="m34.1 29.171-2.121 2.12-2.12-2.12-.711.707 2.124 2.12-2.078 2.166.665.665 2.116-2.124 2.125 2.124.752-.665-2.166-2.166 2.12-2.116z"/></svg>