<svg xmlns="http://www.w3.org/2000/svg" width="64" height="64" viewBox="0 0 64 64"><path fill="none" d="M0 0h64v64H0z"/><path d="M16.02 4.07H48c6.623 0 12 5.376 12 11.998v31.954c0 6.622-5.377 11.998-12 11.998H16.02c-6.623 0-12-5.376-12-11.998V16.068c0-6.622 5.377-11.998 12-11.998" style="stroke:none;fill:#8d6e63;stroke-miterlimit:10"/><path d="M56 23v24a2 2 0 0 1-2 2H38a2 2 0 0 1-2-2V23a2 2 0 0 1 2-2h16a2 2 0 0 1 2 2" opacity=".1"/><linearGradient id="a" x1="0" x2=".018" y1=".5" y2="-.5" gradientTransform="matrix(20 0 0 28 35 20)" gradientUnits="userSpaceOnUse"><stop offset="2.175%" style="stop-color:#ff594d"/><stop offset="52.775%" style="stop-color:#ff7f76"/></linearGradient><path fill="url(#a)" d="M55 22v24a2 2 0 0 1-2 2H37a2 2 0 0 1-2-2V22a2 2 0 0 1 2-2h16a2 2 0 0 1 2 2"/><path d="M51 19v32a2 2 0 0 1-2 2H33a2 2 0 0 1-2-2V19a2 2 0 0 1 2-2h16a2 2 0 0 1 2 2" opacity=".1"/><linearGradient id="b" x1="0" x2=".011" y1=".5" y2="-.5" gradientTransform="matrix(20 0 0 36 30 16)" gradientUnits="userSpaceOnUse"><stop offset="6.669%" style="stop-color:#ffee5e"/><stop offset="54.069%" style="stop-color:#feff9f"/></linearGradient><path fill="url(#b)" d="M50 18v32a2 2 0 0 1-2 2H32a2 2 0 0 1-2-2V18a2 2 0 0 1 2-2h16a2 2 0 0 1 2 2"/><path d="M46 15v34a2 2 0 0 1-2 2H16a2 2 0 0 1-2-2V15a2 2 0 0 1 2-2h28a2 2 0 0 1 2 2" opacity=".05"/><path fill="#f5f5f5" d="M45 14v34a2 2 0 0 1-2 2H15a2 2 0 0 1-2-2V14a2 2 0 0 1 2-2h28a2 2 0 0 1 2 2"/><linearGradient id="c" x1=".5" x2=".506" y1="1" y2="-.021" gradientTransform="matrix(55.981 0 0 42.134 4.021 17.888)" gradientUnits="userSpaceOnUse"><stop offset="0%" style="stop-color:#8d6e63"/><stop offset="98.333%" style="stop-color:#ffab91"/></linearGradient><path fill="url(#c)" d="M4.021 17.888 60.002 28v20.022c0 6.623-5.378 12-12 12H16.021c-6.623 0-12-5.377-12-12z"/></svg>