<svg xmlns="http://www.w3.org/2000/svg" width="64" height="64" viewBox="0 0 64 64"><defs><linearGradient id="a" x1=".5" x2=".49" y1="0" y2="1"><stop offset="0%" style="stop-color:rgba(255,255,255,.1)"/><stop offset="100%" style="stop-color:rgba(0,0,0,.1)"/></linearGradient></defs><path d="M16 4h32c6.623 0 12 5.377 12 12v32c0 6.623-5.377 12-12 12H16C9.377 60 4 54.623 4 48V16C4 9.377 9.377 4 16 4" style="stroke:none;fill:#ff922b;stroke-miterlimit:10"/><path d="M16 4h32c6.623 0 12 5.377 12 12v32c0 6.623-5.377 12-12 12H16C9.377 60 4 54.623 4 48V16C4 9.377 9.377 4 16 4" style="stroke:none;fill:url(#a);stroke-miterlimit:10"/><path d="M13.6 12.305c.052 0 .095-.019.097-.043l-.024-.073c-.006.018-.037.03-.073.03s-.067-.012-.073-.03l-.024.073c.003.024.046.043.097.043m0-.155c.024 0 .047-.008.053-.02l-.021-.065c-.004-.01-.019-.015-.032-.015s-.028.005-.031.015l-.022.065c.006.012.029.02.053.02m.189.178-.081-.035.01.028c-.001.029-.054.053-.118.053-.063 0-.117-.024-.117-.053l.009-.028-.081.035c-.023.01-.023.028-.002.04l.152.087a.08.08 0 0 0 .078 0l.152-.087c.022-.012.021-.03-.002-.04"/><linearGradient id="b" x1=".516" x2=".516" y1="-.486" y2="1.31" gradientTransform="matrix(37.071 0 0 34.755 13.407 14.475)" gradientUnits="userSpaceOnUse"><stop offset="0%" style="stop-color:#fff"/><stop offset="50%" style="stop-color:#ebebeb"/><stop offset="100%" style="stop-color:#d7d7d7"/></linearGradient><path fill="url(#b)" d="M31.942 35.866c4.615 0 8.478-1.568 8.712-3.615l-2.17-6.088c-.51 1.472-3.33 2.509-6.542 2.509s-6.03-1.038-6.542-2.509l-2.169 6.088c.234 2.047 4.096 3.615 8.711 3.615m0-12.947c2.169 0 4.184-.671 4.774-1.714-.813-2.283-1.511-4.242-1.953-5.478-.293-.824-1.622-1.252-2.821-1.252s-2.528.428-2.822 1.252l-1.953 5.478c.59 1.043 2.607 1.714 4.775 1.714m16.954 14.854-7.251-2.921.835 2.33c-.042 2.469-4.835 4.437-10.538 4.437-5.702 0-10.496-1.968-10.537-4.437l.834-2.33-7.25 2.921c-2.033.819-2.118 2.336-.19 3.37l13.637 7.312c1.928 1.033 5.085 1.033 7.013 0l13.636-7.312c1.929-1.034 1.844-2.551-.189-3.37"/></svg>