<svg xmlns="http://www.w3.org/2000/svg" width="64" height="64" viewBox="0 0 64 64"><defs><linearGradient id="a" x1=".509" x2=".509" y1="-.083" y2="1.214"><stop offset="0%" style="stop-color:#fbb521"/><stop offset="100%" style="stop-color:#f15f19"/></linearGradient></defs><path d="M16 4h32c6.623 0 12 5.377 12 12v32c0 6.623-5.377 12-12 12H16C9.377 60 4 54.623 4 48V16C4 9.377 9.377 4 16 4" style="stroke:none;fill:url(#a);stroke-miterlimit:10"/><linearGradient id="b" x1=".345" x2=".443" y1="-.042" y2=".77" gradientTransform="matrix(19.92 -11.501 10.05 17.408 8.488 14.866)" gradientUnits="userSpaceOnUse"><stop offset="0%" style="stop-color:#e8ebec"/><stop offset="100%" style="stop-color:#fdfeff"/></linearGradient><path fill="url(#b)" d="M13.513 23.57c-2.774-4.804-.563-11.281 4.935-14.455s12.211-1.85 14.985 2.954c2.773 4.803.562 11.28-4.935 14.454s-12.212 1.85-14.985-2.953"/><linearGradient id="c" x1=".517" x2=".517" y1="-.169" y2="1.16" gradientTransform="translate(7.906 8.254)scale(48.184)" gradientUnits="userSpaceOnUse"><stop offset="0%" style="stop-color:#e8ebec"/><stop offset="100%" style="stop-color:#fdfeff"/></linearGradient><circle cx="31.999" cy="32.347" r="24.092" fill="url(#c)" vector-effect="non-scaling-stroke"/><linearGradient id="d" x1=".51" x2=".51" y1="-.662" y2="1.135" gradientTransform="translate(19.533 16.844)scale(16.061)" gradientUnits="userSpaceOnUse"><stop offset="0%" style="stop-color:#197cf1"/><stop offset="100%" style="stop-color:#21c9fb"/></linearGradient><circle cx="27.563" cy="24.874" r="8.031" fill="url(#d)" vector-effect="non-scaling-stroke"/></svg>