<svg xmlns="http://www.w3.org/2000/svg" width="64" height="64" viewBox="0 0 64 64"><defs><linearGradient id="a" x1=".5" x2=".521" y1="1" y2=".004"><stop offset="0%" style="stop-color:rgba(1,1,1,.1)"/><stop offset="100%" style="stop-color:rgba(255,255,255,.1)"/></linearGradient></defs><path d="M17.002 3.97h29.996C54.174 3.97 60 9.796 60 16.972v29.996c0 7.176-5.826 13.002-13.002 13.002H17.002C9.826 59.97 4 54.144 4 46.968V16.972C4 9.796 9.826 3.97 17.002 3.97" style="stroke:none;fill:#e1f5fe;stroke-miterlimit:10"/><path d="M17.002 3.97h29.996C54.174 3.97 60 9.796 60 16.972v29.996c0 7.176-5.826 13.002-13.002 13.002H17.002C9.826 59.97 4 54.144 4 46.968V16.972C4 9.796 9.826 3.97 17.002 3.97" style="stroke:none;fill:url(#a);stroke-miterlimit:10"/><g opacity=".5"><linearGradient id="b" x1=".532" x2=".525" y1="-.025" y2="1.008" gradientTransform="matrix(34.088 0 0 34.089 14.956 14.955)" gradientUnits="userSpaceOnUse"><stop offset="0%" style="stop-color:#4fc3f7"/><stop offset="100%" style="stop-color:#03a9f4"/></linearGradient><path fill="url(#b)" d="m32.32 14.979-8.094 1.856a.96.96 0 0 0-.723 1.149l1.319 5.815c.117.516.577 1.161 1.026 1.441l4.463 2.779a.97.97 0 0 0 1.329-.302l2.842-4.457c.284-.446.42-1.227.303-1.743L33.466 15.7a.956.956 0 0 0-1.146-.721M38.815 25.9l-2.765 4.491a.98.98 0 0 0 .303 1.335l4.43 2.854c.445.286 1.225.423 1.74.305l5.774-1.324a.96.96 0 0 0 .723-1.149l-1.847-8.144a.957.957 0 0 0-1.147-.721l-5.775 1.323c-.515.118-1.159.579-1.436 1.03m-17.336 3.179-5.777 1.324a.96.96 0 0 0-.722 1.148l1.847 8.146a.96.96 0 0 0 1.147.721l5.776-1.324c.515-.118 1.159-.58 1.437-1.03l2.765-4.491a.98.98 0 0 0-.303-1.335l-4.43-2.854c-.445-.286-1.225-.423-1.74-.305m7.578 13.405 1.319 5.815a.956.956 0 0 0 1.146.72l8.094-1.853a.96.96 0 0 0 .723-1.149l-1.319-5.814c-.117-.516-.577-1.162-1.026-1.441l-4.463-2.779a.97.97 0 0 0-1.329.301l-2.842 4.457c-.284.446-.42 1.227-.303 1.743"/></g><path fill="#01579b" fill-rule="evenodd" d="m35.291 23.776-2.84 4.452v.009a1.946 1.946 0 0 1-2.648.594l-4.462-2.777a3.26 3.26 0 0 1-1.458-2.039l-1.324-5.869-.029-.268c-.01-.039-.01-.067-.01-.106 0-.431.144-.852.422-1.196a1.9 1.9 0 0 1 1.065-.671l8.147-1.867.268-.038h.115c.432 0 .854.144 1.19.421.345.268.576.642.672 1.063l1.324 5.821v.01c.048.201.067.402.067.613a3.45 3.45 0 0 1-.48 1.819c-.009.009-.009.019-.019.029m12.819.277 1.861 8.196.029.268v.105c0 .441-.144.862-.413 1.197a1.98 1.98 0 0 1-1.074.68l-5.776 1.321h-.01a2.6 2.6 0 0 1-.614.067 3.4 3.4 0 0 1-1.823-.488c-.01-.01-.019-.01-.029-.019l-4.433-2.853a1.94 1.94 0 0 1-.882-1.628c0-.354.096-.709.287-1.005l2.764-4.5c.009 0 .009-.01.009-.02a3.2 3.2 0 0 1 .874-.89c.345-.249.729-.44 1.132-.546h.029l5.824-1.34.268-.029h.106c.441 0 .854.144 1.199.412.336.278.576.651.672 1.072M28.767 34.078l-2.764 4.49s-.009.01-.009.019a3.2 3.2 0 0 1-.874.891c-.345.258-.719.44-1.132.545h-.029l-5.824 1.341-.268.029c-.039 0-.067.009-.106.009-.441 0-.854-.153-1.199-.421a1.93 1.93 0 0 1-.672-1.072l-1.861-8.196-.029-.268v-.106c0-.43.144-.852.413-1.196a1.93 1.93 0 0 1 1.074-.671l5.776-1.331h.01a3.45 3.45 0 0 1 2.447.422c0 .009.009.009.019.019l4.433 2.853c.556.354.882.977.882 1.628 0 .354-.096.708-.287 1.015m5.277 1.091 4.461 2.777c0 .009.01.009.02.019.345.23.652.526.892.871.249.345.432.718.537 1.13v.029l1.334 5.859.029.268c0 .039.009.077.009.106 0 .44-.153.861-.422 1.196a1.88 1.88 0 0 1-1.075.671l-8.146 1.867-.268.028c-.039.01-.067.01-.106.01a1.9 1.9 0 0 1-1.199-.421 1.9 1.9 0 0 1-.672-1.073l-1.314-5.811s0-.01-.01-.01a3 3 0 0 1-.057-.603 3.4 3.4 0 0 1 .479-1.829c0-.009.01-.019.01-.029l2.85-4.452c.355-.555.969-.89 1.631-.89.355 0 .71.096 1.017.287M32.319 14.98l-8.093 1.855a.96.96 0 0 0-.723 1.148l1.319 5.817c.117.515.577 1.161 1.026 1.44l4.463 2.779a.97.97 0 0 0 1.329-.301l2.842-4.458c.284-.446.42-1.226.303-1.742l-1.319-5.819a.956.956 0 0 0-1.147-.719m6.496 10.92-2.765 4.491a.98.98 0 0 0 .303 1.335l4.43 2.853c.445.287 1.225.424 1.741.305l5.772-1.323a.96.96 0 0 0 .724-1.148l-1.848-8.146a.956.956 0 0 0-1.147-.72l-5.773 1.323c-.516.118-1.16.579-1.437 1.03m-17.337 3.179-5.775 1.324a.96.96 0 0 0-.724 1.148l1.849 8.147a.956.956 0 0 0 1.147.719l5.774-1.323c.516-.118 1.16-.58 1.437-1.03l2.767-4.492a.983.983 0 0 0-.304-1.335l-4.43-2.853c-.445-.286-1.225-.423-1.741-.305m7.579 13.404 1.319 5.816a.957.957 0 0 0 1.147.72l8.092-1.853a.96.96 0 0 0 .724-1.148l-1.319-5.816c-.117-.515-.577-1.161-1.026-1.441l-4.463-2.778a.97.97 0 0 0-1.329.301l-2.842 4.458c-.284.445-.42 1.226-.303 1.741" opacity=".9"/></svg>