<svg xmlns="http://www.w3.org/2000/svg" width="64" height="64" viewBox="0 0 64 64"><defs><linearGradient id="a" x1=".464" x2=".464" y1=".947" y2=".054"><stop offset="0%" style="stop-color:#aba7ab"/><stop offset="100%" style="stop-color:#c0bec0"/></linearGradient></defs><path d="M16 4h32c6.623 0 12 5.377 12 12v32c0 6.623-5.377 12-12 12H16C9.377 60 4 54.623 4 48V16C4 9.377 9.377 4 16 4" style="stroke:none;fill:url(#a);stroke-miterlimit:10"/><path d="M16 4h32c6.623 0 12 5.377 12 12v32c0 6.623-5.377 12-12 12H16C9.377 60 4 54.623 4 48V16C4 9.377 9.377 4 16 4" style="stroke:none;fill:#69db7c;stroke-miterlimit:10"/><clipPath id="b"><path d="M16 4h32c6.623 0 12 5.377 12 12v32c0 6.623-5.377 12-12 12H16C9.377 60 4 54.623 4 48V16C4 9.377 9.377 4 16 4" style="stroke:none;fill:url(#a);stroke-miterlimit:10"/><path d="M16 4h32c6.623 0 12 5.377 12 12v32c0 6.623-5.377 12-12 12H16C9.377 60 4 54.623 4 48V16C4 9.377 9.377 4 16 4" style="stroke:none;fill:#69db7c;stroke-miterlimit:10"/></clipPath><g clip-path="url(#b)"><path fill="#fff" d="M15.2 4a11.16 11.16 0 0 0-9.776 5.727c.775-.603 2.392-1.504 2.884-.958.59.678-.088.765-.569.963-.482.196-1.16.306-1.16.874 0 .222.015.627.024 1.014-.162-.003-.325-.012-.487-.012-.462 0-.919.023-1.377.042l-.002-.431c-.054.143-.099.291-.146.435h-.013c-.024.071-.037.146-.059.217q-.08.26-.146.526c-.034.13-.077.255-.106.389h.009q-.185.84-.241 1.723c.185-.278.451-.541.706-.796.428-.362.535-.662.441-.956.311-.011.62-.028.934-.028.152 0 .303.008.457.011q-.015.24-.081.47c-.197.59 0 2.8-.482 2.997-.474.194-1.519.193-2.01-.541v8.233c.246.131.496.118.851-.146.224-.158.256-.036.265.158-.371.154-.749.297-1.116.458v5.75c1.147-1.071 2.229-2.359 1.595-2.887-.905-.665-.867-1.405-.805-1.971q.343-.146.688-.288c.161.148.377.277.728.335 1.013.114 1.862-.065 2.55-.045A52.6 52.6 0 0 0 4 32.369v2.38a51.4 51.4 0 0 1 4.626-7.51 54 54 0 0 0-.112 3.305c0 8.14 1.848 15.849 5.141 22.737A52 52 0 0 1 4 45.145v1.616a53 53 0 0 0 10.638 8.462 53 53 0 0 0 2.868 4.775h1.378a52 52 0 0 1-2.371-3.696 52.7 52.7 0 0 0 8.456 3.696h3.898a51.5 51.5 0 0 1-13.384-5.574 51.44 51.44 0 0 1-5.616-28.729c.033.034.071.054.103.094.679.964 2.997 3.106 2.997 3.478s-.963 4.441.285 8.095c1.246 3.675 2.209-.175 2.603-1.729.306-1.553-.088-1.64 1.356-2.997 1.445-1.355 5.01-3.39 5.885-3.763.874-.371.393.307.874 1.553.482 1.357-.109 4.048 1.445 3.282 1.05-.482 1.443-.175 1.05.875-.372 2.603-.372 4.331.197 5.207.765 1.247 2.406 6.563 2.8 4.528s-.482-3.281-1.445-3.96c-.962-.678-1.728-2.319-.568-4.047s1.16.679 1.924 1.554c.964.677 1.161 1.728 1.641.963.482-.766 3.085-1.358 1.445-4.727-1.641-3.39-1.16-2.231-.394-3.478.087-.174.284-.371.482-.568.174.087.283.087.567 0 .372-.11.854-.109.767.087-.088.197 0 .569.197.766.196.087.283-.197.196-.394-.109-.196.284-.482.766-.482.481 0 .569-.087.766-.283.196-.197.283-.088.482 0 .162.073.339-.072.609-.278.232.314.456.635.681.955q.839 1.193 1.616 2.451a5.2 5.2 0 0 0-.239 1.552h.198v-.284c.063-.353.137-.677.207-.995.123.202.25.398.369.602l-.007.022c-.198.482 0 1.247.481 2.122l.873.289q.746 1.426 1.414 2.915c-.025.001-.043-.008-.071-.004a2 2 0 0 0-.554.168c-1.728.766-1.05.963 0 .678.678-.197.765.088.197.766.568.569.963.678 1.05.285l.048-.336c.343.832.672 1.671.978 2.528q.051 1.263.053 2.542c0 1.772-.103 3.513-.25 5.237-.137-.027-.26-.04-.26-.04s-2.123 0-3.479.482c-1.334.482-4.9-.679-6.737-1.16-1.925-.394-2.013-.482-2.407-.482s-.59-.283-.393-1.247c.197-.962-.372-1.159-.766-1.837-.482-.678-1.159-2.012-2.209-2.887-.679-.569-1.751-1.445-2.997-2.603 0 .568.284 1.159 1.159 1.924 1.072 1.072 1.947 4.441 2.997 5.404s1.926 1.247 1.926 1.729c0 .59 2.011.765 3.652 1.159 1.641.284 5.01.482 6.169.482 1.16 0 2.888-1.073 1.641-.198-1.356.874.088 1.16 1.444.196.084-.059.129-.104.193-.156a62 62 0 0 1-.495 3.837c-.186.095-.414.253-.726.52-1.334 1.16-2.013 2.8-3.369 3.369-1.078.47-.703-.003-1.586.543H48.8a11.17 11.17 0 0 0 7.135-2.556c-.645-.987-1.243-1.923-1.644-2.668-.436-.862-.775-1.212-1.033-1.234-.43-.037-.632.838-.674 1.781v.197c.088 1.639.175 2.603-1.553 1.443-1.729-1.16-2.691-1.269-1.729-2.318.501-.614-.364-.986-1.37-1.005a61 61 0 0 0-1.143-5.552c.623.336 1.919.44 3.346.999 1.749.679 0 1.927.873 1.927.874 0 2.32 1.049 2.8.283.482-.853.964-.569 2.211.394 1.16 1.072 2.603.788 2.122.394s-1.554-1.247-2.122-2.801c-.678-1.443-4.528-2.121-5.491-2.405-.963-.285-1.728 1.246-2.122.284-.36-.639-.993-1.355-1.61-1.384a.8.8 0 0 0-.579.213 58 58 0 0 0-.968-3.022 61.4 61.4 0 0 0-2.633-15.351c.042-.011.076-.026.124-.035h.175q.148-.025.284-.088l-.087-.196s-.109.109-.175.065h-.197c-.07.024-.119.051-.179.075l-.081-.261c.018-.083.011-.163-.046-.163l-.006.004a60 60 0 0 0-.755-2.218c.048-.164.019-.297-.145-.392q-.089-.253-.183-.504c.031-.013.045-.025.082-.041.082-.027.121-.048.177-.072A51.6 51.6 0 0 1 60 34.678v-1.506a52.75 52.75 0 0 0-18.323-10.54c-.254-.414-.355-1.386-.73-1.657-.372-.305-.285-.109-.087-.394.197-.372.874-.852 1.64-1.049s0-.395-.284-.482c-.175-.087-.285-.284-.569 0-.285.285-.765.285-.678 0 .088-.284.088-.393-.394-.569s-.284-.568 0-.568c.285 0 .175 0 1.051-.481.765-.591.656-.964 1.049-.875.482.284-.11.568-.393 1.246-.373.678.283.482.678.198.371-.285.766-.372 1.049-.569l.089-.088c.393.372.481.765.196 1.05-.591.569-.285.372.284.569.569.174 0 1.246 0 1.728 0 .569 1.641.963 1.837-.393.176-1.357-1.64-2.123-.392-2.997 1.159-.875.678-1.072 1.247-1.554 0 .11.108 0 .196-.087l.088-.088a1.53 1.53 0 0 1 1.444 0c.393.175 2.69-2.231 3.565-3.959.875-1.838 1.356-4.638 0-3.961-1.331.677-2.289-.387-1.059-1.239q2.316.052 4.616.308a11 11 0 0 0-1.826-1.284 77 77 0 0 0-1.518-.099q.232-.215.466-.425A11.2 11.2 0 0 0 48.8 4zm22.378 26.426c0-.022-.023-.044-.066-.044-.196 0-.196.198 0 .089.045 0 .066-.022.066-.045M54.204 7.063c0 .395-.11.569-.197.482-.285 0-.109-.197-.197 1.247s-.482 3.959.197 3.959c.766 0 .284-.59.284-1.159s.11-.766.394-.766.285-.372 0-1.247c-.284-.875-.109-1.444-.197-1.837-.087-.197-.197-.482-.284-.679m-.716 6.548c-.047.002-.072.07-.072.234 0 .657-.371.765-.766 1.05-.372.284-.372.284-.284 1.728.088 1.531-1.268 2.582-2.034 3.172s-2.013.875-2.406.875c-.504 0-1.072.678-1.554.876-.284.087-.197.765.198 1.924.284 0 .393-.109.481-.196.196-.285.196-.766.196-1.051 0-.677.679.197.963 0s.372-.393.765-.677c.394-.285.679.284 1.357-.198.677-.481 1.159-.109 1.728-.394.59-.284.306-1.552.875-2.603.591-1.072.481-1.946-.088-2.515s1.16-.088 2.036-.569c.852-.482.283-.765-.395-.964-.508-.145-.857-.701-1-.692M41.019 26.288a59.4 59.4 0 0 1 2.845 13.142 55 55 0 0 0-2.967-5.898c.127-.229.21-.488.094-.831-.099-.29-.209-.422-.322-.444-.126-.025-.256.112-.383.295a52 52 0 0 0-2.277-3.415c.011-.158-.011-.329.314-.461.59-.197.392-.482.873-.765.285-.285.766-.285 1.161-.482.108-.11.108-.481.196-.679.085-.273.367-.287.466-.463zm1.984.726c-.174 0-.087.109 0 .087.088 0 .088-.087 0-.087m-1.925.481c-.197 0-.372.197-.569.59l-.285.569c-.108.198 0 .591.285 1.16.087-.306.284-.788.569-1.356.394-.875.394-.963 0-.963m.11 2.406c-.197.394-.592.875-.964 1.445l.198.086.197-.283c.284-.394.569-.766.765-1.161zm-6.957 1.159c-.569 0-.963.307-.963.307s-.283.11-.196.678c.196.569.678.284.874.087.198-.196.285-.481.481-.677s.373-.395-.196-.395m.59 2.035c-.197 0-.197.198 0 .088.088 0 .088-.088 0-.088m.372.088c-.174 0-.174.197 0 .087.088 0 .088-.087 0-.087m-.481.394c-.175 0-.175.196 0 .087.088 0 .088-.087 0-.087m-1.247.087s-.197 0-.197.023v1.814h.197zm3.172.109c-.175 0-.175.197 0 .087.087 0 .087-.087 0-.087m-1.334.087c-.197 0-.197.198 0 .089.087 0 .087-.089 0-.089m-.766.198c-.197 0-.197.197 0 .087.087 0 .087-.087 0-.087m1.618.197c-.174 0-.174.197 0 .087.089 0 .089-.087 0-.087m2.713 1.925v.306a6.2 6.2 0 0 1-.568 1.248l.196.087.088-.197c.284-.482.394-.875.481-1.159v-.285zm-5.49.963c-.11.284-.197.678-.372.896a1.6 1.6 0 0 0-.394.569l.197.088.087-.197c.089-.11.197-.306.285-.394.197-.284.306-.569.394-.963zm4.134.087c-.196 0-.088.087 0 .087.087 0 .088-.087 0-.087m-1.356.394c-.175 0-.175.197 0 .087.088 0 .088-.087 0-.087m1.64.087c-.174 0-.174.197 0 .087.088 0 .088-.087 0-.087m.394 0c-.197 0-.197.197 0 .087.088 0 .088-.087 0-.087m-2.602.306c-.198 0-.088.088 0 .088.087 0 .087-.088 0-.088m-19.863.088c0 .284-.197.678-.482 1.356-.394.853.482 2.209.963 1.247.393-.678.196-1.553-.481-2.603m20.431.196c-.175 0-.175.198 0 .088.088 0 .088-.088 0-.088m-1.247.679c-.196 0-.196.175 0 .088.088 0 .088-.088 0-.088m.876 0c-.197 0-.197.175 0 .088.087 0 .087-.088 0-.088m1.355 0c-.196 0-.196.175 0 .088.088 0 .088-.088 0-.088m-2.8.088c-.196 0-.196.197 0 .087.088 0 .088-.087 0-.087m2.976.087c-.088.11-.175.197-.175.284-.307.285-.482.482-.876 1.16h.285l.087-.198c.284-.481.482-.677.679-.962.108 0 .108-.109.197-.197zm-1.248.504c-.196 0-.087.086 0 .086.088 0 .088-.087 0-.087zm-1.837.371c-.197 0-.197.197 0 .087.087 0 .087-.087 0-.087m1.355 0c-.196 0-.196.197 0 .087.089 0 .089-.087 0-.087m-2.601.109c-.198 0-.198.175 0 .088.087 0 .087-.088 0-.088m-.964.175c0 .307.088.592.088.854.197.197.284.481.481.766l.197-.089-.087-.196-.284-.569c-.198-.197-.198-.481-.198-.766zm2.888.679c-.196 0-.196.196 0 .087.087 0 .087-.087 0-.087m2.807.067c-.298-.013-.63.227-.773.523-.284.569-2.602 1.728-3.565 2.406-1.05.679-1.247 1.248-.482 2.407.766 1.269 2.21 1.837 3.172 1.837s2.013-1.837 1.926-2.996c-.109-1.138.284-1.729.284-3.172 0-.723-.264-.991-.562-1.005m-2.895.414c-.197 0-.197.196 0 .087.088 0 .088-.088 0-.088zm.569.591a.49.49 0 0 0-.284.459c-.285.306-.678.482-.963.393v.197h.088c.285.088.678-.087.963-.481.196-.196.306-.284.392-.482zm6.966 2.401c-.605-.033-2.274.098-2.699.376-.592.395-.876.985-1.161 2.036-.196.677 0 1.531.569 2.405.175 0 .372-.371.569-1.05.285-.962.482.372 1.159 1.248.679.963.569-.679 0-1.641s-.765-.591 0-1.16c.854-.481 0-.766-1.355-.963-1.357-.196 2.603-.962 3.084-1.159.121-.049.036-.081-.166-.092m2.933 2.323a59 59 0 0 1 1.524 6.988c-.354.101-.672.249-.879.473-.963 1.049-.481 1.443-1.246 1.443a1 1 0 0 1-.2-.024 62 62 0 0 0 .801-8.88" opacity=".5"/></g><g style="opacity:.5"><g opacity=".3"><linearGradient id="c" x1="0" x2="1" y1=".5" y2=".5" gradientTransform="matrix(14 0 0 56.002 4 3.999)" gradientUnits="userSpaceOnUse"><stop offset="0%" style="stop-color:#000"/><stop offset="100%" stop-opacity=".5" style="stop-color:#000"/></linearGradient><path fill="url(#c)" d="M16.986 4C9.886 4 4.162 9.637 4 16.697v30.607c.146 7.064 5.921 12.71 12.986 12.697H18V3.999z"/></g><g opacity=".6"><linearGradient id="d" x1="0" x2="1" y1=".5" y2=".5" gradientTransform="matrix(14 0 0 56.002 18 4)" gradientUnits="userSpaceOnUse"><stop offset="0%" stop-opacity=".5" style="stop-color:#000"/><stop offset="100%" style="stop-color:#000"/></linearGradient><path fill="url(#d)" d="M18 4v56.002h14V4z"/></g><g opacity=".3"><linearGradient id="e" x1="0" x2="1" y1=".5" y2=".5" gradientTransform="matrix(14 0 0 56.002 32 4)" gradientUnits="userSpaceOnUse"><stop offset="0%" style="stop-color:#000"/><stop offset="100%" stop-opacity=".5" style="stop-color:#000"/></linearGradient><path fill="url(#e)" d="M32 4v56.002h14V4z"/></g><g opacity=".6"><linearGradient id="f" x1="0" x2="1.001" y1=".5" y2=".5" gradientTransform="matrix(13.986 0 0 56.002 46 4)" gradientUnits="userSpaceOnUse"><stop offset="0%" stop-opacity=".5" style="stop-color:#000"/><stop offset="100%" style="stop-color:#000"/></linearGradient><path fill="url(#f)" d="M46 4v56.002h.984A12.97 12.97 0 0 0 59.986 47V17.002A12.97 12.97 0 0 0 46.984 4z"/></g></g><circle cx="46" cy="46" r="16" fill="#868e96" vector-effect="non-scaling-stroke"/><linearGradient id="g" x1=".5" x2=".5" y1="1" y2="0" gradientTransform="matrix(32 0 0 32 30 30)" gradientUnits="userSpaceOnUse"><stop offset="0%" stop-opacity=".1" style="stop-color:#000"/><stop offset="100%" stop-opacity=".1" style="stop-color:#fff"/></linearGradient><circle cx="46" cy="46" r="16" fill="url(#g)" vector-effect="non-scaling-stroke"/><circle cx="46" cy="46" r="14" fill="#eee" vector-effect="non-scaling-stroke"/><circle cx="46" cy="46" r="14" fill="none" opacity=".3" vector-effect="non-scaling-stroke"/><path fill-rule="evenodd" d="M44.486 35.07h.729l1.773 3.346V35.07h.525v4h-.728l-1.774-3.346v3.346h-.525zM33.994 44h.547l.84 3.381.84-3.381h.608l.84 3.381.84-3.381h.549l-1.005 4h-.68l-.845-3.472L35.677 48h-.681zm20.42 0h2.53v.455h-1.989v1.185h1.905v.455h-1.905v1.45h2.036V48h-2.577zm-7.247 9.775v.528q-.308-.148-.581-.22t-.528-.072q-.442 0-.683.171-.239.172-.239.488 0 .265.158.402.161.134.606.217l.327.067q.605.115.892.407.29.29.29.777 0 .581-.392.881-.389.3-1.141.3-.284 0-.606-.064-.319-.064-.662-.19v-.557q.33.184.646.278t.622.094q.463 0 .715-.182t.252-.52q0-.295-.182-.46-.18-.167-.592-.25l-.33-.064q-.605-.12-.876-.378t-.27-.715q0-.53.372-.836.375-.306 1.031-.306.282 0 .574.051t.597.153" opacity=".5"/><path fill="#fd6761" d="m54.485 37.515-9.9 7.07L46 46z"/><linearGradient id="h" x1=".5" x2=".475" y1=".917" y2=".103" gradientTransform="rotate(45 -18.042 84.527)scale(2 12)" gradientUnits="userSpaceOnUse"><stop offset="0%" style="stop-color:#c5302c"/><stop offset="100%" style="stop-color:#e73834"/></linearGradient><path fill="url(#h)" d="m54.485 37.515-7.071 9.899L46 46z"/><linearGradient id="i" x1=".293" x2=".981" y1=".471" y2=".638" gradientTransform="rotate(45 -31.527 76.113)scale(2 12)" gradientUnits="userSpaceOnUse"><stop offset="0%" style="stop-color:#fff"/><stop offset="100%" style="stop-color:#f8f8f8"/></linearGradient><path fill="url(#i)" d="m37.515 54.485 7.071-9.899L46 46z"/><linearGradient id="j" x1="-.354" x2=".654" y1=".413" y2=".748" gradientTransform="rotate(45 -32.527 78.527)scale(2 12)" gradientUnits="userSpaceOnUse"><stop offset="0%" style="stop-color:#c7c7c7"/><stop offset="100%" style="stop-color:#f2f2f2"/></linearGradient><path fill="url(#j)" d="m37.515 54.485 9.899-7.071L46 46z"/></svg>