<svg xmlns="http://www.w3.org/2000/svg" width="16" height="16" viewBox="0 0 16 16"><defs><clipPath id="a"><path d="M0 0h16v16H0z"/></clipPath></defs><g clip-path="url(#a)"><path fill="gray" d="M8.563 4.625v3.056l2.539 1.524a.562.562 0 1 1-.579.965L7.71 8.482A.56.56 0 0 1 7.438 8V4.625a.562.562 0 0 1 1.125 0M8 1.25a6.7 6.7 0 0 0-4.776 1.979 29 29 0 0 0-1.411 1.537V3.5a.562.562 0 0 0-1.125 0v2.813c0 .31.251.562.562.562h2.813a.562.562 0 0 0 0-1.125H2.445A31 31 0 0 1 4.02 4.022a5.626 5.626 0 1 1 .116 8.069.563.563 0 1 0-.773.818A6.75 6.75 0 1 0 8 1.25"/></g></svg>