<svg xmlns="http://www.w3.org/2000/svg" width="16pt" height="16pt" viewBox="0 0 16 16"><defs><clipPath id="a"><path d="M0 0h16v16H0z"/></clipPath></defs><g fill="gray" clip-path="url(#a)"><path d="M3 8v5c0 .554.446 1 1 1h4.211c.115.352.274.688.475 1H4c-1.108 0-2-.892-2-2V8zm9.5 8a3.5 3.5 0 1 0 0-7 3.5 3.5 0 0 0 0 7m0-1.086-2.5-2.5.707-.707L12 13v-3h1v3l1.293-1.293.707.707z"/><path fill-rule="evenodd" d="M2 1h12a1 1 0 0 1 1 1v4a1 1 0 0 1-1 1H2a1 1 0 0 1-1-1V2a1 1 0 0 1 1-1m0 1h12v4H2z"/></g></svg>