<svg xmlns="http://www.w3.org/2000/svg" width="16pt" height="16pt" viewBox="0 0 16 16"><defs><clipPath id="a"><path d="M0 0h16v16H0z"/></clipPath></defs><g clip-path="url(#a)"><path fill="gray" d="M4 15c-1.108 0-2-.892-2-2V3c0-1.108.892-2 2-2h8c1.108 0 2 .892 2 2v5.68a4.3 4.3 0 0 0-1-.283V3c0-.554-.446-1-1-1H4c-.554 0-1 .446-1 1v10c0 .554.446 1 1 1h4.211c.115.352.274.688.475 1z"/><path fill="none" d="M16 16H0V0h16z"/><path fill="gray" d="M12.5 9a3.5 3.5 0 1 0 0 7 3.5 3.5 0 0 0 0-7m-.5 1h1v2h2v1h-2v2h-1v-2h-2v-1h2z"/></g></svg>