<svg xmlns="http://www.w3.org/2000/svg" width="16" height="16"><path fill="gray" d="M8 0a8 8 0 0 0-8 8 8 8 0 0 0 8 8 8 8 0 0 0 8-8 8 8 0 0 0-8-8m0 1a7 7 0 0 1 7 7 7 7 0 0 1-7 7 7 7 0 0 1-7-7 7 7 0 0 1 7-7"/><path fill="gray" d="M7.5 3v1H6.25A2.245 2.245 0 0 0 4 6.25 2.245 2.245 0 0 0 6.25 8.5h3.5c.693 0 1.25.558 1.25 1.25 0 .693-.557 1.25-1.25 1.25h-3.5c-.607 0-1.11-.428-1.225-1H4.014a2.245 2.245 0 0 0 2.236 2H7.5v1h1v-1h1.25A2.245 2.245 0 0 0 12 9.75 2.245 2.245 0 0 0 9.75 7.5h-3.5C5.558 7.5 5 6.943 5 6.25 5 5.558 5.558 5 6.25 5h3.5c.607 0 1.11.428 1.225 1h1.011A2.245 2.245 0 0 0 9.75 4H8.5V3z"/></svg>