<svg xmlns="http://www.w3.org/2000/svg" width="16pt" height="16pt" viewBox="0 0 16 16"><defs><clipPath id="a"><path d="M0 0h16v16H0z"/></clipPath></defs><g fill="gray" clip-path="url(#a)"><path d="M2.586 7.5h1v-3c0-1.662 1.338-3 3-3s3 1.338 3 3v5.295L7.609 7.818a.499.499 0 0 0-.853.354c0 .128.048.255.146.353l2.828 2.828a.5.5 0 0 0 .541.11h.002a.5.5 0 0 0 .164-.11l2.83-2.828a.5.5 0 0 0 0-.707.5.5 0 0 0-.707 0l-1.974 1.973V4.5c0-2.216-1.784-4-4-4s-4 1.784-4 4zm7.5 8a1.5 1.5 0 1 1 .001-3.001 1.5 1.5 0 0 1-.001 3.001"/></g></svg>