<svg xmlns="http://www.w3.org/2000/svg" width="16" height="16" viewBox="0 0 16 16"><path fill="gray" d="M6.667 4.356c-.329.062-.676.267-.951.756a.444.444 0 1 1-.763-.446l-.001.001a2.29 2.29 0 0 1 1.522-1.179l.015-.003a2.2 2.2 0 0 1 1.6.32c.427.284.773.747.782 1.307.009.587-.347 1.111-.996 1.493-.444.267-.622.444-.684.56-.062.098-.08.187-.08.391a.444.444 0 0 1-.888 0c0-.24.009-.542.213-.862.178-.302.507-.569.987-.853s.56-.551.56-.711c0-.178-.124-.409-.391-.578a1.2 1.2 0 0 0-.933-.196zm.222 5.866a.667.667 0 1 0 0-1.334.667.667 0 1 0 0 1.334M6.667.889a5.778 5.778 0 0 0-5.025 8.624l-.015-.029-.711 1.849a.889.889 0 0 0 1.073 1.172l-.006.002 2.222-.622A5.778 5.778 0 1 0 6.686.889zM1.778 6.667a4.889 4.889 0 1 1 2.64 4.343l.027.013-.16-.08-2.542.711.862-2.249-.116-.187a4.8 4.8 0 0 1-.711-2.532zm7.52 8.444a5.76 5.76 0 0 1-4.367-2.001l-.006-.007a6.5 6.5 0 0 0 1.555.231h.01a4.82 4.82 0 0 0 2.809.893c.812 0 1.577-.199 2.249-.55l-.027.013.16-.08 2.542.711-.862-2.249.116-.187a4.8 4.8 0 0 0 .722-2.549 4.84 4.84 0 0 0-.874-2.782l.01.016c0-.533-.089-1.067-.213-1.564a5.75 5.75 0 0 1 1.962 4.33 5.74 5.74 0 0 1-.75 2.845l.015-.028.711 1.849a.889.889 0 0 1-1.082 1.172l.006.002-2.213-.622a5.7 5.7 0 0 1-2.471.56z"/></svg>