<svg xmlns="http://www.w3.org/2000/svg" width="16pt" height="16pt" viewBox="0 0 16 16"><defs><clipPath id="a"><path d="M0 0h16v16H0z"/></clipPath></defs><g fill="gray" clip-path="url(#a)"><path d="m5 12 3 4 3-4zm8-2c1.662 0 3-1.338 3-3s-1.338-3-3-3H9C7.338 4 6 5.338 6 7c0 .353.071.686.182 1H7c.09 0 .168-.029.25-.049A2 2 0 0 1 7 7c0-1.108.892-2 2-2h4c1.108 0 2 .892 2 2s-.892 2-2 2h-2.559a4 4 0 0 1-.83 1zm-6 0c1.662 0 3-1.338 3-3 0-.353-.071-.686-.182-1H9c-.09 0-.168.029-.25.049.154.284.25.604.25.951 0 1.108-.892 2-2 2H3c-1.108 0-2-.892-2-2s.892-2 2-2h2.559c.221-.379.501-.713.83-1H3C1.338 4 0 5.338 0 7s1.338 3 3 3z"/></g></svg>