<svg xmlns="http://www.w3.org/2000/svg" width="16" height="16" viewBox="0 0 16 16"><path fill="gray" d="M12.445 2.668v1.777H9.777A3.55 3.55 0 0 0 6.223 8a2.664 2.664 0 0 1-2.668 2.668H.89v.887h2.664A3.55 3.55 0 0 0 7.109 8a2.664 2.664 0 0 1 2.668-2.668h2.668v1.777l2.664-2.218ZM.891 4.445v.887h2.664a2.65 2.65 0 0 1 1.922.824q.127-.46.367-.86a3.52 3.52 0 0 0-2.29-.85Zm11.554 4.446v1.777H9.777a2.65 2.65 0 0 1-1.922-.824c-.082.3-.207.59-.367.86.64.546 1.45.85 2.29.85h2.667v1.778l2.664-2.223Zm0 0"/></svg>