<svg xmlns="http://www.w3.org/2000/svg" viewBox="2 2 18 18"><path fill="currentColor" d="M12.174 5.66c.38 0 .542.124.652.186l.022.013 6.935 4.096c.075.044.21.108.37.305.162.2.257.529.257.736 0 .208-.087.52-.242.72-.153.199-.296.277-.385.329l-6.935 4.096-.022.013a1.35 1.35 0 0 1-.652.18 1.2 1.2 0 0 1-.832-.342 1.24 1.24 0 0 1-.342-.847v-3.252c-.085.073-.162.12-.217.152L3.848 16.14l-.022.013a1.35 1.35 0 0 1-.652.18c-.256 0-.588-.097-.832-.342A1.24 1.24 0 0 1 2 15.145V6.857c0-.26.09-.586.32-.832.231-.245.571-.365.854-.365.38 0 .542.124.652.186l.022.013 6.935 4.096c.05.029.126.07.217.149V6.857c0-.26.09-.586.32-.832.231-.245.571-.365.854-.365m0 1c-.098 0-.174.069-.174.197v8.288c0 .128.076.189.174.189a.35.35 0 0 0 .166-.055l6.936-4.095c.09-.053.134-.097.134-.188s-.044-.129-.134-.182L12.34 6.72a.4.4 0 0 0-.166-.059m-9 0c-.098 0-.174.069-.174.197v8.288c0 .128.076.189.174.189a.35.35 0 0 0 .166-.055l6.936-4.095c.09-.053.134-.097.134-.188s-.044-.129-.134-.182L3.34 6.72a.4.4 0 0 0-.166-.059" style="color:gray"/></svg>