<svg xmlns="http://www.w3.org/2000/svg" width="16" height="16" viewBox="0 0 16 16"><path fill="gray" d="M3.637.93a.5.5 0 0 1 0 .707A9 9 0 0 0 1 8a9 9 0 0 0 2.654 6.344.5.5 0 0 1 .002.709.5.5 0 0 1-.709.002A10 10 0 0 1 0 8.002V8A10 10 0 0 1 2.93.93a.5.5 0 0 1 .707 0" color="#000" style="-inkscape-stroke:none;paint-order:normal"/><path fill="gray" d="M5.758 3.05a.5.5 0 0 1 0 .708A6 6 0 0 0 4 8a6 6 0 0 0 1.77 4.229.5.5 0 0 1 .001.709.5.5 0 0 1-.709.002A7 7 0 0 1 3 8.002V8a7 7 0 0 1 2.05-4.95.5.5 0 0 1 .708 0m1.767 1.975a.5.5 0 0 1 .354.147.5.5 0 0 1 0 .707A3 3 0 0 0 6.999 8a3 3 0 0 0 .885 2.115.5.5 0 0 1 0 .707.5.5 0 0 1-.707 0A4 4 0 0 1 6 8.002V8a4 4 0 0 1 1.172-2.828.5.5 0 0 1 .353-.147" color="#000" style="-inkscape-stroke:none;paint-order:normal"/><path fill="gray" d="M9.902 2.713a1 1 0 0 1 .805.289L12.703 5H14c1.09 0 2 .91 2 2v2c0 1.09-.91 2-2 2h-1.297l-1.996 1.998A1 1 0 0 1 9 12.291V3.709a1 1 0 0 1 .617-.924 1 1 0 0 1 .285-.072m.098.996v8.582L12.289 10h1.71c.555 0 1-.446 1-1V7c0-.554-.445-1-1-1h-1.71z" color="#000" style="-inkscape-stroke:none;paint-order:stroke fill markers"/></svg>