<svg xmlns="http://www.w3.org/2000/svg" viewBox="0 0 16 16"><g fill="gray" transform="translate(-630 -100)"><g color="#000"><path d="M633.38 102.82a.5.5 0 0 0-.4.242 6.5 6.5 0 0 0-.98 3.434.5.5 0 1 0 1 0 5.5 5.5 0 0 1 .83-2.906.5.5 0 0 0-.45-.77" style="font-feature-settings:normal;font-variant-alternates:normal;font-variant-caps:normal;font-variant-ligatures:normal;font-variant-numeric:normal;font-variant-position:normal;isolation:auto;mix-blend-mode:normal;shape-padding:0;text-decoration-color:#000;text-decoration-line:none;text-decoration-style:solid;text-indent:0;text-orientation:mixed;text-transform:none;white-space:normal"/><path fill-rule="evenodd" d="M632.49 105.99a.5.5 0 0 0-.492.508v5.062a.5.5 0 1 0 1 0v-5.062a.5.5 0 0 0-.508-.508" style="font-feature-settings:normal;font-variant-alternates:normal;font-variant-caps:normal;font-variant-ligatures:normal;font-variant-numeric:normal;font-variant-position:normal;isolation:auto;mix-blend-mode:normal;shape-padding:0;text-decoration-color:#000;text-decoration-line:none;text-decoration-style:solid;text-indent:0;text-orientation:mixed;text-transform:none;white-space:normal"/><path d="M638.5 103a3.51 3.51 0 0 0-3.5 3.5.5.5 0 1 0 1 0c0-1.387 1.113-2.5 2.5-2.5s2.5 1.113 2.5 2.5a.5.5 0 1 0 1 0c0-1.927-1.573-3.5-3.5-3.5" style="font-feature-settings:normal;font-variant-alternates:normal;font-variant-caps:normal;font-variant-ligatures:normal;font-variant-numeric:normal;font-variant-position:normal;isolation:auto;mix-blend-mode:normal;shape-padding:0;text-decoration-color:#000;text-decoration-line:none;text-decoration-style:solid;text-indent:0;text-orientation:mixed;text-transform:none;white-space:normal"/><path fill-rule="evenodd" d="M638.49 105.99a.5.5 0 0 0-.492.508v5s0 .547.135 1.223c.135.675.393 1.513 1.011 2.13a.5.5 0 1 0 .707-.707c-.382-.382-.623-1.044-.738-1.619a6 6 0 0 1-.115-1.027v-5a.5.5 0 0 0-.508-.508m-3 0a.5.5 0 0 0-.492.508v1a.5.5 0 1 0 1 0v-1a.5.5 0 0 0-.508-.508m0 4a.5.5 0 0 0-.492.508v3a.5.5 0 1 0 1 0v-3a.5.5 0 0 0-.508-.508m6-4a.5.5 0 0 0-.492.508v5s.004.345.15.783.437 1.011.996 1.57a.5.5 0 1 0 .707-.707 3 3 0 0 1-.754-1.18c-.104-.311-.1-.466-.1-.466v-5a.5.5 0 0 0-.507-.508m3 0a.5.5 0 0 0-.492.508v1a.5.5 0 1 0 1 0v-1a.5.5 0 0 0-.508-.508" style="font-feature-settings:normal;font-variant-alternates:normal;font-variant-caps:normal;font-variant-ligatures:normal;font-variant-numeric:normal;font-variant-position:normal;isolation:auto;mix-blend-mode:normal;shape-padding:0;text-decoration-color:#000;text-decoration-line:none;text-decoration-style:solid;text-indent:0;text-orientation:mixed;text-transform:none;white-space:normal"/><path d="M638.57 100a6.5 6.5 0 0 0-3.238.826.5.5 0 1 0 .486.873 5.5 5.5 0 0 1 8.186 4.8.5.5 0 1 0 1 0 6.5 6.5 0 0 0-6.434-6.5z" style="font-feature-settings:normal;font-variant-alternates:normal;font-variant-caps:normal;font-variant-ligatures:normal;font-variant-numeric:normal;font-variant-position:normal;isolation:auto;mix-blend-mode:normal;shape-padding:0;text-decoration-color:#000;text-decoration-line:none;text-decoration-style:solid;text-indent:0;text-orientation:mixed;text-transform:none;white-space:normal"/></g><circle cx="644.5" cy="109.5" r=".5"/></g></svg>