<svg xmlns="http://www.w3.org/2000/svg" viewBox="0 0 16 16"><path fill="gray" d="M4.994 1c-1.258.015-2.179-.03-2.931.385a1.88 1.88 0 0 0-.84.998C1.06 2.822 1 3.343 1 4v8c0 .657.06 1.178.224 1.617s.462.79.839.997c.752.415 1.673.371 2.931.386h6.012c1.258-.015 2.178.03 2.931-.386a1.88 1.88 0 0 0 .84-.997c.164-.439.223-.96.223-1.617V4c0-.658-.06-1.178-.224-1.617a1.88 1.88 0 0 0-.839-.998c-.753-.415-1.673-.37-2.931-.385H4.997zm.011 1H11c1.26.014 2.088.059 2.454.261.183.101.288.213.385.473s.16.673.16 1.266v8c0 .592-.062 1.005-.16 1.265-.097.26-.202.372-.385.474-.366.202-1.195.246-2.454.26H5c-1.26-.014-2.088-.058-2.454-.26-.183-.102-.288-.214-.385-.474S2 12.592 2 12V4c0-.593.062-1.006.16-1.266.097-.26.202-.372.385-.473.367-.202 1.196-.247 2.46-.261" font-family="sans-serif" font-weight="400" overflow="visible" style="font-feature-settings:normal;font-variant-alternates:normal;font-variant-caps:normal;font-variant-ligatures:normal;font-variant-numeric:normal;font-variant-position:normal;isolation:auto;mix-blend-mode:normal;shape-padding:0;text-decoration-color:#000;text-decoration-line:none;text-decoration-style:solid;text-indent:0;text-orientation:mixed;text-transform:none"/><path fill="gray" d="M7.995 4c-1.08 2.19-1.827 4.634-1.878 4.802-.004.02-.017.04-.017.06a1.995 1.995 0 0 0 1.893 2.619 1.995 1.995 0 0 0 1.889-2.619s-.733-2.467-1.887-4.859z"/></svg>