<svg xmlns="http://www.w3.org/2000/svg" width="16" height="16" viewBox="0 0 16 16"><path fill="gray" d="M8.5 2.973c-2.48 0-4.5 2.02-4.5 4.5s2.02 4.5 4.5 4.5 4.5-2.02 4.5-4.5-2.02-4.5-4.5-4.5M8 4.01v.525c0 .278.223.5.5.5s.5-.222.5-.5V4.01a3.5 3.5 0 0 1 1.6.658l-.377.375a.5.5 0 1 0 .707.707l.377-.373c.341.458.572 1.003.656 1.596h-.526a.499.499 0 1 0 0 1h.526a3.5 3.5 0 0 1-.658 1.6l-.375-.374a.497.497 0 0 0-.707 0 .5.5 0 0 0 0 .707l.375.373A3.5 3.5 0 0 1 9 10.936v-.526a.499.499 0 1 0-1 0v.526a3.5 3.5 0 0 1-1.596-.657l.373-.373A.5.5 0 1 0 6.07 9.2l-.375.373-.002-.002a3.5 3.5 0 0 1-.656-1.597h.525c.278 0 .5-.223.5-.5 0-.278-.222-.5-.5-.5h-.525a3.5 3.5 0 0 1 .656-1.596l.377.373a.5.5 0 1 0 .707-.707L6.4 4.668A3.5 3.5 0 0 1 8 4.01m.5 1.963c-.82 0-1.5.68-1.5 1.5 0 .824.68 1.5 1.5 1.5.824 0 1.5-.676 1.5-1.5 0-.82-.676-1.5-1.5-1.5m0 1c.281 0 .5.218.5.5 0 .281-.219.5-.5.5s-.5-.219-.5-.5.219-.5.5-.5"/><path fill="gray" d="M0 0v1h1c.554 0 1 .446 1 1v14h1v-2h2v1c0 .554.446 1 1 1h5c.554 0 1-.446 1-1v-1h2c1.108 0 2-.892 2-2V3c0-1.108-.892-2-2-2H2.732C2.387.402 1.742 0 1 0zm3 2h11c.554 0 1 .446 1 1v9c0 .554-.446 1-1 1h-3v2h-1v-2H9v2H8v-2H7v2H6v-2H3z" style="paint-order:fill markers stroke"/></svg>