<svg xmlns="http://www.w3.org/2000/svg" viewBox="0 0 16 16"><path fill="gray" d="M3.787 1c-.677 0-1.25.048-1.76.303-.34.17-.63.462-.797.838C1.064 2.516 1 2.958 1 3.5v2c0 .542.064.983.23 1.36.167.374.458.668.797.837C2.707 8.037 3 8 4 8h.787c-.677.006-1.25.048-1.76.303-.34.17-.63.462-.797.838-.166.375-.23.817-.23 1.36v2c0 .541.064.982.23 1.358.167.375.458.67.797.838.68.34 1.473.303 2.473.303h4c1 0 1.794.037 2.473-.303.34-.17.63-.462.797-.838.166-.375.23-.817.23-1.359v-2c0-.542-.064-.983-.23-1.36a1.72 1.72 0 0 0-.797-.837c-.51-.255-1.083-.298-1.76-.303H11c1 0 1.294.037 1.973-.303.34-.17.63-.462.797-.838.166-.375.23-.817.23-1.359v-2c0-.542-.064-.983-.23-1.36a1.72 1.72 0 0 0-.797-.837C12.293.963 12 1 11 1H9.787c-.677 0-1.25.048-1.76.303a1.7 1.7 0 0 0-.527.416 1.7 1.7 0 0 0-.527-.416C6.293.963 6 1 5 1zM4 2h1c1 0 1.206.037 1.527.197.16.08.245.163.328.35S7 3.042 7 3.5v1q-.001.334-.04.566a2.5 2.5 0 0 0-1.446.928C5.366 5.998 5.209 6 5 6H4c-1 0-1.206-.037-1.527-.197a.6.6 0 0 1-.329-.35C2.06 5.266 2 4.958 2 4.5v-1c0-.458.06-.766.144-.953a.62.62 0 0 1 .329-.35C2.793 2.037 3 2 4 2m6 0h1c1 0 1.206.037 1.527.197.16.08.245.163.328.35S13 3.042 13 3.5v1c0 .458-.06.766-.145.953a.62.62 0 0 1-.328.35C12.207 5.963 12 6 11 6h-1c-.206 0-.36-.002-.506-.006a2.5 2.5 0 0 0-1.455-.933A4 4 0 0 1 8 4.5v-1c0-.458.06-.766.144-.953a.62.62 0 0 1 .329-.35C8.793 2.037 9 2 10 2M7.5 6A1.5 1.5 0 0 1 9 7.5 1.5 1.5 0 0 1 7.5 9 1.5 1.5 0 0 1 6 7.5 1.5 1.5 0 0 1 7.5 6m-2 3h.008A2.5 2.5 0 0 0 7.5 10a2.5 2.5 0 0 0 1.992-1H9.5c1 0 1.706.037 2.027.197.16.08.245.163.328.35S12 10.5 12 10.5v1s-.06.766-.145.953a.62.62 0 0 1-.328.35c-.32.16-1.027.197-2.027.197h-4c-1 0-1.706-.037-2.027-.197a.6.6 0 0 1-.328-.35C3.06 12.266 3 11.5 3 11.5v-1s.06-.766.145-.953a.62.62 0 0 1 .328-.35C3.793 9.037 4.5 9 5.5 9" color="#000" style="-inkscape-stroke:none"/></svg>