<svg xmlns="http://www.w3.org/2000/svg" width="64" height="64" viewBox="0 0 16.933 16.933"><defs><linearGradient id="f" x1="8.467" x2="8.467" y1="285.89" y2="291.18" gradientTransform="translate(0 -280.07)" gradientUnits="userSpaceOnUse"><stop offset="0" stop-color="#e0e0e0"/><stop offset="1" stop-color="#fff"/></linearGradient><linearGradient id="c" x1="32" x2="32" y1="11" y2="53" gradientUnits="userSpaceOnUse"><stop offset="0" stop-color="#f7bd39"/><stop offset="1" stop-color="#f9e657"/></linearGradient><linearGradient id="e" x1="8.467" x2="8.467" y1="284.83" y2="292.24" gradientUnits="userSpaceOnUse"><stop offset="0" stop-color="#525252"/><stop offset="1" stop-color="#1f1f1f"/></linearGradient><linearGradient id="b" x1="30" x2="30" y1="10" y2="70" gradientTransform="scale(.26459)" gradientUnits="userSpaceOnUse"><stop offset="0"/><stop offset="1" stop-opacity=".35"/></linearGradient><linearGradient id="a" x1="7.937" x2="7.937" y1="65.066" y2=".712" gradientTransform="translate(2.116 2.11)scale(.19844)" gradientUnits="userSpaceOnUse"><stop offset="0" stop-color="#49892f"/><stop offset="1" stop-color="#89da62"/></linearGradient><filter id="d" width="1.12" height="1.12" x="-.06" y="-.06" color-interpolation-filters="sRGB"><feGaussianBlur stdDeviation=".185"/></filter></defs><path fill="url(#a)" d="M4.498 1.05h7.938a3.433 3.433 0 0 1 3.44 3.44v7.937a3.433 3.433 0 0 1-3.44 3.44H4.498a3.433 3.433 0 0 1-3.44-3.44V4.49a3.433 3.433 0 0 1 3.44-3.44"/><path fill="url(#b)" d="M4.498 1.058v1.633L5.556 3.75V1.058zm1.587 0v3.22l.926.927.178-.178h-.31V1.058zm1.323 0v3.75l.84-.84h-.046v-2.91zm1.323 0v2.427l.794-.794V1.058zm1.323 0V2.91L7.385 5.58l.288.287 3.175-3.175V1.058zm1.323 0V2.91L7.822 6.465l-.15-.149-.149.15-.512-.513-.512.512-.15-.149-.149.15L2.645 2.91V1.597a3.4 3.4 0 0 0-1.017.993v1.888l-.57.57v.57l.855.854h2.536L2.473 4.496a.397.397 0 0 1-.357-.395.397.397 0 0 1 .397-.397.397.397 0 0 1 .397.397.4.4 0 0 1-.007.076l2.295 2.295h7.542l1.995-2.28h1.125a4 4 0 0 0-.038-.284h-1.087v-1.14l-2.28 2.564H11.6l2.28-2.564v-1.4a3.4 3.4 0 0 0-1.18-.3V2.91L9.145 6.465l-.375-.374 3.4-3.4V1.058zm-7.408.04a3.4 3.4 0 0 0-.794.22v1.373L6.35 5.866l.287-.287-.552-.552h-.529v-.53L3.97 2.91zM3.908 9.89l-2.85 2.28v.256c0 .193.02.381.05.565l1.66-1.106v.57l-1.544 1.029.04.11h.934v1.388c.47.424 1.057.718 1.71.83V12.74l1.709-1.425h.855l-1.71 1.425v3.126h1.059v-1.35l3.555-3.554.149.15.15-.15.511.512.512-.512.15.15.15-.15 3.554 3.555v.619q.336-.262.596-.598l-3.202-3.202.374-.374 3.126 3.126c.191-.349.325-.734.386-1.143L13.88 10.46h-.57l-.57-.57H9.314l.063.063-3.298 3.297a.4.4 0 0 1 .007.076.397.397 0 0 1-.397.397.397.397 0 0 1-.396-.397.397.397 0 0 1 .357-.395l3.04-3.04zm5.617 1.671L6.35 14.737v1.13h.794v-1.35L8.73 12.93v-.529h.53l.551-.552zm1.323 0-.288.287 2.669 2.669v1.254q.421-.1.794-.294v-.741zm-.662.661-.926.926v2.718h.794V12.4h.31zm.397.397v3.247h.794v-2.408h.045zM8.731 13.68l-1.058 1.058v1.13H8.73zm3.175.264v1.924h.53q.133 0 .264-.012v-1.118z" opacity=".1"/><g transform="translate(0 -280.099)"><path fill="url(#c)" d="M19 15.033V19h-4v2h4v2h-4v2h4v2h-4v2h4v2h-4v2h4v2h-4v2h4v2h-4v2h4v2h-4v2h4v4.033h2V45h2v4.033h2V45h2v4.033h2V45h2v4.033h2V45h2v4.033h2V45h2v4.033h2V45h2v4.033h2V45h4v-2h-4v-2h4v-2h-4v-2h4v-2h-4v-2h4v-2h-4v-2h4v-2h-4v-2h4v-2h-4v-2h4v-2h-4v-3.967h-2V19h-2v-3.967h-2V19h-2v-3.967h-2V19h-2v-3.967h-2V19h-2v-3.967h-2V19h-2v-3.967h-2V19h-2v-3.967zM21 21h2v2h-2zm4 0h2v2h-2zm4 0h2v2h-2zm4 0h2v2h-2zm4 0h2v2h-2zm4 0h2v2h-2zm-20 4h2v2h-2zm4 0h2v2h-2zm4 0h2v2h-2zm4 0h2v2h-2zm4 0h2v2h-2zm4 0h2v2h-2zm-20 4h2v2h-2zm4 0h2v2h-2zm4 0h2v2h-2zm4 0h2v2h-2zm4 0h2v2h-2zm4 0h2v2h-2zm-20 4h2v2h-2zm4 0h2v2h-2zm4 0h2v2h-2zm4 0h2v2h-2zm4 0h2v2h-2zm4 0h2v2h-2zm-20 4h2v2h-2zm4 0h2v2h-2zm4 0h2v2h-2zm4 0h2v2h-2zm4 0h2v2h-2zm4 0h2v2h-2zm-20 4h2v2h-2zm4 0h2v2h-2zm4 0h2v2h-2zm4 0h2v2h-2zm4 0h2v2h-2zm4 0h2v2h-2z" transform="translate(0 280.07)scale(.26458)"/><rect width="7.408" height="7.408" x="4.763" y="284.83" fill-rule="evenodd" filter="url(#d)" opacity=".5" rx=".529" ry=".529"/><rect width="7.408" height="7.408" x="4.763" y="284.83" fill="url(#e)" fill-rule="evenodd" rx=".529" ry=".529"/></g><g fill-rule="evenodd" transform="translate(0 -280.09)"><circle cx="5.424" cy="285.49" r=".132" opacity=".35" style="paint-order:stroke fill markers"/><circle cx="11.509" cy="285.49" r=".132" opacity=".35" style="paint-order:stroke fill markers"/><circle cx="5.424" cy="291.58" r=".132" opacity=".35" style="paint-order:stroke fill markers"/><circle cx="11.509" cy="291.58" r=".132" opacity=".35" style="paint-order:stroke fill markers"/></g><path fill="url(#f)" d="m8.467 5.82.396.132s.165.506.297.638c.21.21 1.026.685 1.026 1.744 0 .793-.529 1.323-1.19 1.72.661-.662.926-.927.926-1.72 0-1.059-1.059-1.191-1.059-1.191v2.88c0 .295-.277.784-.73.972-.574.237-1.175.102-1.342-.304s.16-.925.735-1.163c.342-.142.664-.175.94-.055z"/></svg>