<svg xmlns="http://www.w3.org/2000/svg" width="64" height="64" enable-background="new 0 0 1024 1024" image-rendering="optimizeSpeed" viewBox="0 0 64 64"><defs><linearGradient id="c" x1="29.565" x2="29.728" y1="11.048" y2="53.559" gradientUnits="userSpaceOnUse"><stop offset="0" stop-color="#fff"/><stop offset="1" stop-color="#dbf6f8"/></linearGradient><linearGradient id="a" x1="7.937" x2="7.937" y1="15.081" y2="1.852" gradientTransform="scale(3.7796)" gradientUnits="userSpaceOnUse"><stop offset="0" stop-color="#1866ee"/><stop offset="1" stop-color="#15c2fc"/></linearGradient><filter id="b" width="1.159" height="1.096" x="-.08" y="-.048" color-interpolation-filters="sRGB"><feGaussianBlur stdDeviation=".797"/></filter></defs><rect width="56.002" height="56.002" x="4" y="3.969" fill="url(#a)" rx="13.002" ry="13.002"/><path d="M30.675 12.148a1.862 1.862 0 0 0-2.072 1.85v13.37l-5.572-4.503a1.861 1.861 0 1 0-2.339 2.897l7.722 6.242-7.722 6.241a1.861 1.861 0 1 0 2.34 2.894l5.57-4.503v13.367a1.862 1.862 0 0 0 3.027 1.452l11.674-9.36a1.86 1.86 0 0 0 0-2.904l-8.969-7.19 8.969-7.19a1.86 1.86 0 0 0 0-2.908l-11.674-9.357a1.87 1.87 0 0 0-.954-.398m1.649 5.729 6.84 5.482-6.84 5.479zm0 17.285 6.84 5.482-6.84 5.479z" filter="url(#b)" opacity=".15"/><path fill="url(#c)" d="M30.675 12.148a1.862 1.862 0 0 0-2.072 1.85v13.37l-5.572-4.503a1.861 1.861 0 1 0-2.339 2.897l7.722 6.242-7.722 6.241a1.861 1.861 0 1 0 2.34 2.894l5.57-4.503v13.367a1.862 1.862 0 0 0 3.027 1.452l11.674-9.36a1.86 1.86 0 0 0 0-2.904l-8.969-7.19 8.969-7.19a1.86 1.86 0 0 0 0-2.908l-11.674-9.357a1.87 1.87 0 0 0-.954-.398m1.649 5.729 6.84 5.482-6.84 5.479zm0 17.285 6.84 5.482-6.84 5.479z"/></svg>