<svg xmlns="http://www.w3.org/2000/svg" width="64" height="64" viewBox="0 0 16.933 16.933"><defs><filter id="l" width="1.465" height="1.496" x="-.233" y="-.248" color-interpolation-filters="sRGB"><feGaussianBlur stdDeviation="1.061"/></filter><filter id="k" width="1.023" height="1.025" x="-.012" y="-.012" color-interpolation-filters="sRGB"><feGaussianBlur stdDeviation=".03"/></filter><filter id="i" width="1.125" height="1.133" x="-.062" y="-.067" color-interpolation-filters="sRGB"><feGaussianBlur stdDeviation=".086"/></filter><filter id="j" width="1.111" height="1.131" x="-.055" y="-.066" color-interpolation-filters="sRGB"><feGaussianBlur stdDeviation=".762"/></filter><filter id="n" width="1.465" height="1.496" x="-.233" y="-.248" color-interpolation-filters="sRGB"><feGaussianBlur stdDeviation=".512"/></filter><filter id="h" width="1.116" height="1.124" x="-.058" y="-.062" color-interpolation-filters="sRGB"><feGaussianBlur stdDeviation=".128"/></filter><filter id="m" width="1.393" height="1.617" x="-.196" y="-.309" color-interpolation-filters="sRGB"><feGaussianBlur stdDeviation="2.988"/></filter><filter id="f" width="1.22" height="1.26" x="-.11" y="-.13" color-interpolation-filters="sRGB"><feGaussianBlur stdDeviation=".152"/></filter><filter id="g" width="1.38" height="1.486" x="-.19" y="-.243" color-interpolation-filters="sRGB"><feGaussianBlur stdDeviation=".152"/></filter><linearGradient id="b" x1="9.969" x2="9.969" y1="295.76" y2="281.49" gradientTransform="translate(-.102 -283.55)scale(1.012)" gradientUnits="userSpaceOnUse"><stop offset="0" stop-color="#666"/><stop offset="1" stop-color="#9f9f9f"/></linearGradient><linearGradient id="c" x1="5.033" x2="5.033" y1="294.19" y2="282.62" gradientTransform="translate(0 -280.07)" gradientUnits="userSpaceOnUse"><stop offset="0" stop-color="#333"/><stop offset="1" stop-color="#666"/></linearGradient><linearGradient id="d" x1="8.467" x2="8.467" y1="283.24" y2="293.82" gradientTransform="translate(0 -280.07)" gradientUnits="userSpaceOnUse"><stop offset="0"/><stop offset="1" stop-color="#121212"/></linearGradient><linearGradient id="a" x1="8.13" x2="8.13" y1="15.101" y2="1.993" gradientUnits="userSpaceOnUse"><stop offset="0" stop-color="#ccc"/><stop offset="1" stop-color="#ebebeb"/></linearGradient><radialGradient id="e" cx="-136.99" cy="198.65" r="38.5" gradientTransform="matrix(.0982 0 0 .08247 21.918 -7.92)" gradientUnits="userSpaceOnUse"><stop offset="0" stop-color="#2561db" stop-opacity=".941"/><stop offset="1" stop-color="#0d0d0d"/></radialGradient></defs><g color="#000"><path d="M4.37.53C2.254.53.53 2.312.53 4.496v8.468c0 2.184 1.725 3.968 3.84 3.968h8.194c2.114 0 3.84-1.783 3.84-3.968V4.497c0-2.184-1.726-3.968-3.84-3.968zm.256.52h7.681c1.844 0 3.33 1.534 3.33 3.44v7.937c0 1.906-1.485 3.44-3.33 3.44h-7.68c-1.845 0-3.33-1.534-3.33-3.44V4.49c0-1.906 1.485-3.44 3.33-3.44" opacity=".01" style="font-feature-settings:normal;font-variant-alternates:normal;font-variant-caps:normal;font-variant-east-asian:normal;font-variant-ligatures:normal;font-variant-numeric:normal;font-variant-position:normal;font-variation-settings:normal;inline-size:0;isolation:auto;mix-blend-mode:normal;shape-margin:0;shape-padding:0;text-decoration-color:#000;text-decoration-line:none;text-decoration-style:solid;text-indent:0;text-orientation:mixed;text-transform:none;white-space:normal"/><path d="M4.359.794C2.392.794.795 2.447.795 4.48v8.5c0 2.035 1.597 3.688 3.564 3.688h8.216c1.967 0 3.564-1.653 3.564-3.688v-8.5c0-2.034-1.597-3.687-3.564-3.687zm.272.256h7.672c1.842 0 3.325 1.534 3.325 3.44v7.937c0 1.906-1.483 3.44-3.325 3.44H4.63c-1.842 0-3.325-1.534-3.325-3.44V4.49c0-1.906 1.483-3.44 3.325-3.44" opacity=".01" style="font-feature-settings:normal;font-variant-alternates:normal;font-variant-caps:normal;font-variant-east-asian:normal;font-variant-ligatures:normal;font-variant-numeric:normal;font-variant-position:normal;font-variation-settings:normal;inline-size:0;isolation:auto;mix-blend-mode:normal;shape-margin:0;shape-padding:0;text-decoration-color:#000;text-decoration-line:none;text-decoration-style:solid;text-indent:0;text-orientation:mixed;text-transform:none;white-space:normal"/><path d="M4.31 1.058c-1.866 0-3.375 1.539-3.375 3.44v8.467c0 1.9 1.57 3.439 3.435 3.439h8.2c1.866 0 3.427-1.538 3.427-3.44V4.498c0-1.9-1.51-3.439-3.375-3.439h-.097c1.794.087 3.214 1.582 3.214 3.432v7.937c0 1.906-1.506 3.44-3.377 3.44h-7.79c-1.871 0-3.377-1.534-3.377-3.44V4.49c0-1.85 1.42-3.345 3.214-3.432z" opacity=".03" style="font-feature-settings:normal;font-variant-alternates:normal;font-variant-caps:normal;font-variant-east-asian:normal;font-variant-ligatures:normal;font-variant-numeric:normal;font-variant-position:normal;font-variation-settings:normal;inline-size:0;isolation:auto;mix-blend-mode:normal;shape-margin:0;shape-padding:0;text-decoration-color:#000;text-decoration-line:none;text-decoration-style:solid;text-indent:0;text-orientation:mixed;text-transform:none;white-space:normal"/><path d="M4 46.969V49c0 6.648 5.896 12 12.544 12h30.961C54.153 61 60 55.648 60 49v-1.992a12.97 12.97 0 0 1-13 12.963H17.002A12.973 12.973 0 0 1 4 46.969" opacity=".03" style="font-feature-settings:normal;font-variant-alternates:normal;font-variant-caps:normal;font-variant-east-asian:normal;font-variant-ligatures:normal;font-variant-numeric:normal;font-variant-position:normal;font-variation-settings:normal;inline-size:0;isolation:auto;mix-blend-mode:normal;shape-margin:0;shape-padding:0;text-decoration-color:#000;text-decoration-line:none;text-decoration-style:solid;text-indent:0;text-orientation:mixed;text-transform:none;white-space:normal" transform="scale(.26458)"/><path d="M1.058 11.906v.592c0 1.939 1.573 3.5 3.332 3.5h8.16c1.76 0 3.325-1.561 3.325-3.5v-.58c-.006 2.095-1.537 3.78-3.44 3.78H4.498c-1.905 0-3.44-1.692-3.44-3.792" opacity=".05" style="font-feature-settings:normal;font-variant-alternates:normal;font-variant-caps:normal;font-variant-east-asian:normal;font-variant-ligatures:normal;font-variant-numeric:normal;font-variant-position:normal;font-variation-settings:normal;inline-size:0;isolation:auto;mix-blend-mode:normal;shape-margin:0;shape-padding:0;text-decoration-color:#000;text-decoration-line:none;text-decoration-style:solid;text-indent:0;text-orientation:mixed;text-transform:none;white-space:normal"/></g><rect width="14.817" height="14.817" x="1.058" y="1.05" fill="url(#a)" rx="3.44" ry="3.44"/><g stroke-width="1.434" transform="translate(2.561 2.566)scale(.69746)"><circle cx="8.467" cy="8.46" r="7.966" fill="url(#b)"/><circle cx="8.467" cy="8.46" r="6.35" fill="url(#c)"/><circle cx="8.467" cy="8.46" r="5.292" fill="url(#d)"/><circle cx="8.467" cy="8.46" r="4.116" fill="url(#e)" stroke="#0d224d" stroke-linecap="round" stroke-linejoin="round" stroke-width=".336"/><path fill="#4678cc" d="m4.945 6.47 1.464.81s.458-.477.772-.686c.348-.23 1.105-.416 1.093-.36l-.241-1.762S6.412 4.31 4.945 6.47" filter="url(#f)" opacity=".8"/><path fill="#4678cc" d="m4.788 6.73 1.565.695s-.089.202-.123.421c-.032.2.004.387.004.387l-1.806-.019s.072-1.036.36-1.484" filter="url(#g)" opacity=".8"/><g fill="#fff" transform="translate(0 -280.07)"><ellipse cx="-228.33" cy="44.944" fill-opacity=".3" filter="url(#h)" rx="3.083" ry="1.903" transform="rotate(-40.912 351.478 75.712)scale(.20753)"/><ellipse cx="-228.1" cy="51.166" fill-opacity=".3" filter="url(#i)" rx="1.918" ry="1.184" transform="rotate(-40.912 364.297 96.013)scale(.13617)"/><ellipse cx="-222.03" cy="111.72" filter="url(#j)" opacity=".2" rx="18.419" ry="11.368" transform="rotate(-33.78 441.43 84.746)scale(.14285)"/><ellipse cx="-235.29" cy="75.046" fill-opacity=".3" filter="url(#k)" rx="3.667" ry="2.263" transform="rotate(-40.912 363.859 94.854)scale(.13617)"/><ellipse cx="-234.21" cy="88.759" filter="url(#l)" rx="6.386" ry="3.941" transform="rotate(-40.914 356.356 87.248)scale(.16571)"/></g><g transform="translate(0 -280.07)"><ellipse cx="-222.03" cy="111.72" fill="#4397ee" filter="url(#m)" opacity=".45" rx="18.419" ry="11.368" transform="rotate(-30.523 484.986 70.01)scale(.16306)"/><ellipse cx="-228.33" cy="44.944" fill="#fff" fill-opacity=".854" filter="url(#n)" rx="3.083" ry="1.903" transform="rotate(-40.912 369.102 103.996)scale(.10761)"/><ellipse cx="-228.1" cy="51.166" fill="#fff" fill-opacity=".3" filter="url(#i)" rx="1.918" ry="1.184" transform="rotate(-40.912 374.319 107.864)scale(.09151)"/></g></g></svg>