<svg xmlns="http://www.w3.org/2000/svg" width="64" height="64" viewBox="0 0 64 64"><clipPath id="a"><path fill="#fff" d="M0 0h64v64H0z"/></clipPath><g clip-path="url(#a)"><path fill="gray" d="M15.5 52h33a1.5 1.5 0 0 1 0 3h-33a1.5 1.5 0 0 1 0-3"/><path fill="#e6e6e6" d="M28 26h8c1.656 0 3 1.344 3 3v26c0 1.656-1.344 3-3 3h-8c-1.656 0-3-1.344-3-3V29c0-1.656 1.344-3 3-3"/><path fill="#4d4d4d" d="M7 6h50c2.76 0 5 2.24 5 5v30c0 2.76-2.24 5-5 5H7c-2.76 0-5-2.24-5-5V11c0-2.76 2.24-5 5-5"/><path fill="#6b7280" d="M7 45h50c2.208 0 4-1.792 4-4V11c0-2.208-1.792-4-4-4H7c-2.208 0-4 1.792-4 4v30c0 2.208 1.792 4 4 4"/></g></svg>