<svg xmlns="http://www.w3.org/2000/svg" width="64" height="64" viewBox="0 0 64 64"><clipPath id="a"><path fill="#fff" d="M0 0h64v64H0z"/></clipPath><g clip-path="url(#a)"><path fill="#4d4d4d" d="M7 52h50c2.76 0 5-2.24 5-5V17c0-2.76-2.24-5-5-5H7c-2.76 0-5 2.24-5 5v30c0 2.76 2.24 5 5 5"/><path fill="#6b7280" d="M7 51h50c2.208 0 4-1.792 4-4V17c0-2.208-1.792-4-4-4H7c-2.208 0-4 1.792-4 4v30c0 2.208 1.792 4 4 4"/><path fill="gray" d="M1 52h62a1 1 0 0 1 0 2H1a1 1 0 0 1 0-2"/><path d="M23 52c0 .554.446 1 1 1h16c.554 0 1-.446 1-1z" opacity=".35" style="opacity:.35"/></g></svg>