<svg xmlns="http://www.w3.org/2000/svg" width="64" height="64" viewBox="0 0 64 64"><defs><linearGradient id="a" x1=".5" x2=".5" y1="0" y2="1"><stop offset="0%" style="stop-color:rgba(255,255,255,.1)"/><stop offset="100%" style="stop-color:rgba(0,0,0,.1)"/></linearGradient></defs><path d="M15.999 3.97h32.002C54.623 3.97 60 9.347 60 15.969v32.002c0 6.622-5.377 11.999-11.999 11.999H15.999C9.377 59.97 4 54.593 4 47.971V15.969C4 9.347 9.377 3.97 15.999 3.97" style="stroke:none;fill:#f5f5f5;stroke-miterlimit:10"/><path d="M15.999 3.97h32.002C54.623 3.97 60 9.347 60 15.969v32.002c0 6.622-5.377 11.999-11.999 11.999H15.999C9.377 59.97 4 54.593 4 47.971V15.969C4 9.347 9.377 3.97 15.999 3.97" style="stroke:none;fill:url(#a);stroke-miterlimit:10"/><path fill="gray" d="M32.11 52a4 4 0 0 0 4-4c0-1.863-1.276-3.4-3-3.844V40l6.624-6.531.032-.032v-.03c.192-.143.345-.418.343-.657V29h2v-6h-6v6h2v.812l-.093 1.907v.375l-.282.25-3.093 3.343-1.532 1.376V20h3l-4-8-4 8h3v18.281l-5-2.875V32l.344-.156c1.153-.507 1.969-1.629 1.969-2.969a3.28 3.28 0 0 0-3.281-3.281c-1.813 0-3.25 1.468-3.25 3.281 0 1.34.816 2.462 1.968 2.969l.25.125v4.03c-.003.353.195.7.5.876l6.5 3.719v3.562c-1.724.445-3 1.98-3 3.844a4 4 0 0 0 4 4"/></svg>