<svg xmlns="http://www.w3.org/2000/svg" xmlns:xlink="http://www.w3.org/1999/xlink" width="64" height="64"><defs><filter id="h" width="1.105" height="1.124" x="-.052" y="-.062" color-interpolation-filters="sRGB"><feGaussianBlur stdDeviation=".567"/></filter><filter id="o" width="1.091" height="1.115" x="-.045" y="-.058" color-interpolation-filters="sRGB"><feGaussianBlur stdDeviation=".567"/></filter><filter id="s" width="1.133" height="1.151" x="-.066" y="-.076" color-interpolation-filters="sRGB"><feGaussianBlur stdDeviation=".567"/></filter><filter id="q" width="1.072" height="1.072" x="-.036" y="-.036" color-interpolation-filters="sRGB"><feGaussianBlur stdDeviation=".094"/></filter><filter id="v" width="1.065" height="1.08" x="-.033" y="-.04" color-interpolation-filters="sRGB"><feGaussianBlur stdDeviation=".181"/></filter><linearGradient xlink:href="#a" id="l" x1="32" x2="32" y1="41" y2="23" gradientTransform="translate(-4.923 -4.923)scale(1.1538)" gradientUnits="userSpaceOnUse"/></defs><linearGradient xlink:href="#b" id="d" x1="6" x2="6" y1="58" y2="6" gradientTransform="translate(-4.923 -4.923)scale(1.1538)" gradientUnits="userSpaceOnUse"/><linearGradient xlink:href="#c" id="u" x1="35.002" x2="52.002" y1="32" y2="49" gradientUnits="userSpaceOnUse"/><linearGradient xlink:href="#c" id="g" x1="6" x2="19" y1="32" y2="45" gradientUnits="userSpaceOnUse"/><linearGradient id="f" x1="32" x2="32" y1="58" y2="32" gradientTransform="translate(-4.923 -4.923)scale(1.1538)" gradientUnits="userSpaceOnUse"><stop offset="0" stop-color="#fdad23"/><stop offset="1" stop-color="#fdc96f"/></linearGradient><linearGradient id="i" x1="32" x2="32" y1="32" y2="6" gradientTransform="translate(-4.923 -4.923)scale(1.1538)" gradientUnits="userSpaceOnUse"><stop offset="0" stop-color="#27ad60"/><stop offset="1" stop-color="#58d68d"/></linearGradient><linearGradient id="e" x1="32" x2="32" y1="58" y2="32" gradientTransform="matrix(-1.1538 0 0 1.1538 68.92 -4.923)" gradientUnits="userSpaceOnUse"><stop offset="0" stop-color="#8e44ad"/><stop offset="1" stop-color="#af7ac4"/></linearGradient><linearGradient xlink:href="#b" id="t" x1="32" x2="32" y1="35" y2="29" gradientTransform="translate(-4.923 -4.923)scale(1.1538)" gradientUnits="userSpaceOnUse"/><linearGradient id="m" x1="32" x2="32" y1="36" y2="28" gradientTransform="translate(-4.923 -4.923)scale(1.1538)" gradientUnits="userSpaceOnUse"><stop offset="0" stop-color="#5c7274"/><stop offset="1" stop-color="#a4a4a4"/></linearGradient><linearGradient xlink:href="#a" id="w" x1="32" x2="32" y1="58" y2="40" gradientTransform="translate(-4.923 -4.923)scale(1.1538)" gradientUnits="userSpaceOnUse"/><linearGradient id="p" x1="25.637" x2="57.998" y1="40.676" y2="40.676" gradientUnits="userSpaceOnUse"><stop offset="0" stop-color="#292c2f"/><stop offset="1" stop-color="#292c2f" stop-opacity="0"/></linearGradient><linearGradient xlink:href="#c" id="r" x1="46" x2="53.135" y1="40" y2="47.135" gradientUnits="userSpaceOnUse"/><linearGradient id="c"><stop offset="0" stop-color="#292c2f"/><stop offset="1" stop-opacity="0"/></linearGradient><linearGradient id="j" x1="32" x2="32" y1="32" y2="6" gradientTransform="translate(-4.923 -4.923)scale(1.1538)" gradientUnits="userSpaceOnUse"><stop offset="0" stop-color="#1190d9"/><stop offset="1" stop-color="#73c4ef"/></linearGradient><linearGradient id="a" x1="32" x2="32" y1="41" y2="23" gradientUnits="userSpaceOnUse"><stop offset="0" stop-color="#cecece"/><stop offset="1" stop-color="#ececec"/></linearGradient><linearGradient id="b" x1="6" x2="6" y1="58" y2="6" gradientUnits="userSpaceOnUse"><stop offset="0" stop-color="#98a7b0"/><stop offset="1" stop-color="#dde1e3"/></linearGradient><linearGradient xlink:href="#c" id="n" x1="26" x2="50" y1="26" y2="50" gradientUnits="userSpaceOnUse"/><g stroke-width=".867"><path fill="url(#d)" d="M31.999 21.615a10.384 10.384 0 0 0-10.384 10.384 10.384 10.384 0 0 0 10.384 10.384 10.384 10.384 0 0 0 10.384-10.384 10.384 10.384 0 0 0-10.384-10.384m0 6.923c1.918 0 3.461 1.544 3.461 3.461s-1.543 3.462-3.46 3.462-3.461-1.544-3.461-3.462 1.543-3.461 3.461-3.461"/><path fill="url(#e)" d="M32.001 60.844V37.768a5.77 5.77 0 0 0 5.769-5.769h24.227c0 16.619-13.378 28.845-29.996 28.845"/><path fill="url(#f)" d="M31.996 60.844V37.768a5.77 5.77 0 0 1-5.769-5.769H2c0 16.619 13.378 28.845 29.996 28.845"/></g><path fill="url(#g)" d="m6 32 22 22 3.998-2.998v-6.277l-6.361-6.362.004-.004A9 9 0 0 1 23 32zm22.582 8.32a9 9 0 0 0 .272.1 9 9 0 0 1-.272-.1m.842.3a9 9 0 0 0 .306.077 9 9 0 0 1-.306-.078zm.879.214a9 9 0 0 0 .306.047 9 9 0 0 1-.306-.047m.875.125a9 9 0 0 0 .82.041 9 9 0 0 1-.82-.041" filter="url(#h)" opacity=".1" transform="translate(-4.923 -4.923)scale(1.1538)"/><g stroke-width=".867"><path fill="url(#i)" d="M31.999 2v24.23a5.77 5.77 0 0 0-5.769 5.769H2.003C2.003 15.38 15.381 2 31.999 2"/><path fill="#ca902a" d="M2.002 31.065c-.005.252 0 .503 0 .756 0 13.284 8.45 24.503 20.26 28.554l1.126-.82C11.22 55.828 2.328 44.434 2.002 31.062z"/><path fill="url(#j)" d="M31.999 2v24.23a5.77 5.77 0 0 1 5.769 5.769h24.227C61.995 15.38 48.617 2 31.999 2"/><path fill="url(#l)" d="M31.999 21.615a10.384 10.384 0 1 0 0 20.768 10.384 10.384 0 0 0 0-20.768m0 4.615a5.769 5.769 0 1 1 0 11.538 5.769 5.769 0 0 1 0-11.538"/><path fill="#292c2f" d="M37.768 27.384a1.154 1.154 0 1 1 0-2.308 1.154 1.154 0 0 1 0 2.308M26.23 38.922a1.154 1.154 0 1 1 0-2.308 1.154 1.154 0 0 1 0 2.308m1.154-12.692a1.154 1.154 0 1 1-2.308 0 1.154 1.154 0 0 1 2.308 0m11.538 11.538a1.154 1.154 0 1 1-2.308 0 1.154 1.154 0 0 1 2.308 0" opacity=".4"/><path fill="url(#m)" d="M31.999 27.384a4.615 4.615 0 1 0 0 9.23 4.615 4.615 0 0 0 0-9.23m0 1.154a3.461 3.461 0 1 1 0 6.923 3.461 3.461 0 0 1 0-6.923"/><path fill="#4d4d4d" d="M33.153 23.922a1.154 1.154 0 1 1-2.308 0 1.154 1.154 0 0 1 2.308 0m8.077 8.077a1.154 1.154 0 1 1-2.308 0 1.154 1.154 0 0 1 2.308 0m-8.077 8.076a1.154 1.154 0 1 1-2.308 0 1.154 1.154 0 0 1 2.308 0M25.076 32a1.154 1.154 0 1 1-2.307 0 1.154 1.154 0 0 1 2.307 0"/><path fill="#7f8c8d" d="M42.359 32.488a10.384 10.384 0 0 1-10.36 9.895 10.384 10.384 0 0 1-10.36-9.72 10 10 0 0 0-.024.49 10.384 10.384 0 0 0 10.384 10.384 10.384 10.384 0 0 0 10.384-10.384 10 10 0 0 0-.024-.665"/></g><path fill="url(#n)" d="M41 32a9 9 0 0 1-9 9 9 9 0 0 1-6.36-2.64l-.003.003 9.5 9.5L37 46l1-2 8-4 7.135 7.135a26 26 0 0 0 2.486-4.242L44.727 32zm11.967 15.389c-.086.116-.177.228-.264.343zm-1.705 2.095c-.053.058-.11.113-.162.17zM49.54 51.2l-.24.223zm-2.01 1.658q-.152.116-.306.229zm-2.203 1.475q-.165.099-.334.193zm-2.371 1.258-.066.03.004.003z" filter="url(#o)" opacity=".3" transform="translate(-4.923 -4.923)scale(1.1538)"/><path fill="url(#p)" d="M41 32h3.727l-6.27-6.27A9 9 0 0 1 41 32" filter="url(#q)" opacity=".2" transform="translate(-4.923 -4.923)scale(1.1538)"/><path fill="#292c2f" d="m48.152 41.229-9.23 4.615-1.154 2.308-3.462 3.461-12.054 8.77A30.1 30.1 0 0 0 32 61.996c.251 0 .498-.011.747-.018l5.021-6.904 3.462-3.462 2.307-1.154z" opacity=".2"/><path fill="url(#r)" d="m46 40-4 8-2 1-3 3-4.352 5.984a25.91 25.91 0 0 0 20.5-10.836z" filter="url(#s)" opacity=".2" transform="translate(-4.923 -4.923)scale(1.1538)"/><circle cx="31.999" cy="31.999" r="3.461" fill="url(#t)"/><path fill="url(#u)" d="m44.721 32 10.883 10.88A25.9 25.9 0 0 0 58 32Z" filter="url(#v)" opacity=".1" transform="translate(-4.923 -4.923)scale(1.1538)"/><g stroke-width=".867"><path fill="#6e3e86" d="M61.995 31.065c-.384 15.827-12.773 28.89-28.389 29.733l-.86 1.18c16.27-.398 29.25-13.693 29.25-30.158 0-.254.005-.504 0-.755z"/><path fill="url(#w)" d="m48.152 41.229-9.23 4.615-1.154 2.308-3.462 3.461-12.054 8.77A30.1 30.1 0 0 0 32 61.996c.251 0 .498-.011.747-.018l5.021-6.904 3.462-3.462 2.307-1.154zm-6.923 5.291 1.632 1.632-1.632 1.631-1.631-1.631zm-3.939 3.94 1.632 1.63-.677.677h-1.631v-1.631zm-2.984 3.46a1.154 1.154 0 0 1 1.154 1.155 1.154 1.154 0 0 1-1.154 1.153 1.154 1.154 0 0 1-1.153-1.153 1.154 1.154 0 0 1 1.153-1.154m-3.461 2.308 2.308 2.308-1.909 2.29a29.5 29.5 0 0 1-5.21-.59zm-4.656 5.204c.111.022.223.038.334.058-.11-.02-.223-.036-.335-.058z"/><path fill="#292c2f" d="m36.614 51.136-5.769 5.093 2.308 2.308 5.093-5.77h-1.632zm2.984-2.984L37.29 50.46l1.632 1.631 2.307-2.307zm6.246-4.615-4.615 2.984 1.632 1.631z" opacity=".1"/></g></svg>