<svg xmlns="http://www.w3.org/2000/svg" width="64" height="64" viewBox="0 0 64 64"><defs><linearGradient id="a" x1=".5" x2=".5" y1="0" y2="1"><stop offset="0%" style="stop-color:rgba(255,255,255,.1)"/><stop offset="100%" style="stop-color:rgba(0,0,0,.1)"/></linearGradient></defs><path d="M15.999 3.97h32.002C54.623 3.97 60 9.347 60 15.969v32.002c0 6.622-5.377 11.999-11.999 11.999H15.999C9.377 59.97 4 54.593 4 47.971V15.969C4 9.347 9.377 3.97 15.999 3.97" style="stroke:none;fill:#f5f5f5;stroke-miterlimit:10"/><path d="M15.999 3.97h32.002C54.623 3.97 60 9.347 60 15.969v32.002c0 6.622-5.377 11.999-11.999 11.999H15.999C9.377 59.97 4 54.593 4 47.971V15.969C4 9.347 9.377 3.97 15.999 3.97" style="stroke:none;fill:url(#a);stroke-miterlimit:10"/><path fill="gray" fill-rule="evenodd" d="M20 22a3.002 3.002 0 1 1 3.001 3.001A3.003 3.003 0 0 1 20 22m8.999 0A3.003 3.003 0 0 1 32 18.999 3.003 3.003 0 0 1 35.001 22 3.003 3.003 0 0 1 32 25.001 3.003 3.003 0 0 1 28.999 22m8.999 0A3.002 3.002 0 0 1 44 22a3.002 3.002 0 0 1-6.002 0M20 30.001a3.002 3.002 0 1 1 3.001 3.001A3.003 3.003 0 0 1 20 30.001m8.999 0A3.003 3.003 0 0 1 32 27a3.003 3.003 0 0 1 3.001 3.001A3.003 3.003 0 0 1 32 33.002a3.003 3.003 0 0 1-3.001-3.001m8.999 0a3.002 3.002 0 0 1 6.002 0 3.002 3.002 0 0 1-6.002 0M20 37.998a3.002 3.002 0 1 1 3.001 3.001A3.003 3.003 0 0 1 20 37.998m8.999 0A3.003 3.003 0 0 1 32 34.997a3.003 3.003 0 0 1 3.001 3.001A3.003 3.003 0 0 1 32 40.999a3.003 3.003 0 0 1-3.001-3.001m8.999 0a3.002 3.002 0 0 1 6.002 0 3.002 3.002 0 0 1-6.002 0m-8.999 8.001A3.003 3.003 0 0 1 32 42.998a3.003 3.003 0 0 1 3.001 3.001A3.003 3.003 0 0 1 32 49a3.003 3.003 0 0 1-3.001-3.001"/></svg>