<svg xmlns="http://www.w3.org/2000/svg" width="64" height="64" fill="none" viewBox="0 0 64 64"><defs><style id="current-color-scheme" type="text/css">.ColorScheme-Highlight{color:#3daee9}</style></defs><rect width="56.002" height="56.002" x="4" y="3.969" fill="#4d4d4d" rx="13.002" ry="13.002"/><path fill="#000" d="M3.998 45.998v1c0 7.203 5.8 13.004 13.004 13.004h29.996c7.203 0 13.004-5.8 13.004-13.004v-1c0 7.203-5.8 13.002-13.004 13.002H17.002A12.975 12.975 0 0 1 3.998 45.998" opacity=".35"/><g fill="#fff"><path d="M3.998 18.004v-1C3.998 9.801 9.798 4 17.002 4h29.996c7.203 0 13.004 5.8 13.004 13.004v1c0-7.203-5.8-13.002-13.004-13.002H17.002A12.975 12.975 0 0 0 3.998 18.004" opacity=".15"/><path stroke-width="1.72" d="M38.922 21.46a9.461 9.461 0 1 1-18.922 0 9.46 9.46 0 0 1 18.92 0z" class="ColorScheme-Highlight" opacity=".35"/><path stroke-width="1.658" d="M36.922 21.46a7.461 7.461 0 1 1-14.922 0 7.46 7.46 0 0 1 14.92 0z" class="ColorScheme-Highlight"/></g><path fill="#e1a684" stroke-width="1.538" d="M30.252 52.542c3.808.422 9.19.452 9.94.454l.178.002c3.308.054 6.17-2.148 6.594-5.44l1.064-7.324c.912-5.47-3.192-6.836-4.56-4.1 0-3.192-3.646-5.016-5.468-2.28 0-2.736-3.932-4.56-5.754-1.824V22.002c0-3.646-5.386-4.558-5.386 0V41.46s-.768-2.308-2.306-3.846c-5.014-5.014-7.52-.114-7.52-.114 3.646 2.734 6.406 14.284 13.218 15.04z"/></svg>