<svg xmlns="http://www.w3.org/2000/svg" width="64" height="64"><defs><linearGradient id="a" x1="-1129.7" x2="-1106.6" y1="944.53" y2="962.74" gradientTransform="matrix(0 1.7143 1.7144 0 -1603.1 1948.5)" gradientUnits="userSpaceOnUse"><stop offset="0" stop-color="#bfbfbf"/><stop offset=".5" stop-color="#fff"/><stop offset="1" stop-color="#bfbfbf"/></linearGradient></defs><path fill="url(#a)" d="M32 2C15.404 1.968 1.948 15.424 2 32c0 16.628 13.373 30 30 30 16.597.033 30.054-13.424 30-30C62 15.372 48.627 2 32 2m0 20a10 10 0 0 1 10 10 10 10 0 0 1-10 10 10 10 0 0 1-10-10 10 10 0 0 1 10-10" color="#000" style="-inkscape-stroke:none"/><path fill-rule="evenodd" d="M32 15a17 17 0 0 0-17 17 17 17 0 0 0 17 17 17 17 0 0 0 17-17 17 17 0 0 0-17-17m0 7a10 10 0 0 1 10 10 10 10 0 0 1-10 10 10 10 0 0 1-10-10 10 10 0 0 1 10-10" opacity=".15" style="paint-order:stroke fill markers"/><path fill="#b3b3b3" d="M31.998 22C26.478 22 22 26.479 22 32c0 5.518 4.48 10 9.998 10C37.518 42 42 37.518 42 32c0-5.522-4.481-10-10.002-10m0 4.998A5.005 5.005 0 0 1 37.001 32a5.002 5.002 0 0 1-10.002 0 5.004 5.004 0 0 1 4.999-5.002"/><path d="M32 2C15.404 1.968 1.948 15.424 2 32c0 16.628 13.373 30 30 30 16.597.033 30.054-13.424 30-30C62 15.372 48.627 2 32 2m.002.998a28.904 28.904 0 0 1 28.996 29.004c.052 16.033-12.941 29.028-28.996 28.996A28.904 28.904 0 0 1 2.998 32.002v-.008C2.948 15.961 15.947 2.967 32.002 2.998m0 18.004c-6.063 0-11 4.937-11 11S25.939 43 32.002 43 43 38.065 43 32.002s-4.935-11-10.998-11M32 22a10 10 0 0 1 10 10 10 10 0 0 1-10 10 10 10 0 0 1-10-10 10 10 0 0 1 10-10" color="#000" opacity=".25" style="-inkscape-stroke:none"/><circle cx="50" cy="50" r="12" fill="#9550b2"/><path fill="#fff" fill-rule="evenodd" d="M46.17 42.8A4.81 4.81 0 0 1 50 47.534a4.82 4.82 0 0 1-1.543 3.54 3.6 3.6 0 0 1-.858-2.332c0-.198.031-.387.061-.576a4.81 4.81 0 0 0-2.46 4.2c0 2.679 2.14 4.834 4.8 4.834s4.8-2.155 4.8-4.834a9.583 9.583 0 0 0-8.63-9.566"/></svg>