<svg xmlns="http://www.w3.org/2000/svg" width="64" height="64" viewBox="0 0 16.933 16.933"><defs><linearGradient id="a" x1="-1129.7" x2="-1106.6" y1="944.53" y2="962.74" gradientTransform="matrix(0 .45356 .45358 0 -424.15 515.54)" gradientUnits="userSpaceOnUse"><stop offset="0" stop-color="#bfbfbf"/><stop offset=".5" stop-color="#fff"/><stop offset="1" stop-color="#bfbfbf"/></linearGradient></defs><path fill="url(#a)" d="M8.467.53C4.074.52.515 4.08.529 8.465c0 4.4 3.538 7.938 7.938 7.938 4.39.009 7.951-3.552 7.937-7.938A7.917 7.917 0 0 0 8.467.528m0 5.29a2.646 2.646 0 0 1 2.645 2.647 2.646 2.646 0 0 1-2.646 2.645 2.646 2.646 0 0 1-2.645-2.645A2.646 2.646 0 0 1 8.467 5.82" color="#000" style="-inkscape-stroke:none"/><path fill-rule="evenodd" d="M8.467 3.969a4.5 4.5 0 0 0-4.498 4.498 4.5 4.5 0 0 0 4.498 4.497 4.5 4.5 0 0 0 4.497-4.498A4.5 4.5 0 0 0 8.466 3.97m0 1.852a2.646 2.646 0 0 1 2.645 2.646 2.646 2.646 0 0 1-2.646 2.645A2.646 2.646 0 0 1 5.82 8.467a2.646 2.646 0 0 1 2.646-2.645" opacity=".15" style="paint-order:stroke fill markers"/><path fill="#b3b3b3" d="M8.466 5.82a2.646 2.646 0 1 0 .001 5.293 2.646 2.646 0 0 0 0-5.292m0 1.323a1.323 1.323 0 1 1 0 2.645 1.323 1.323 0 0 1 0-2.645"/><path d="M8.467.53C4.074.52.515 4.08.529 8.465c0 4.4 3.538 7.938 7.938 7.938 4.39.009 7.951-3.552 7.937-7.938A7.917 7.917 0 0 0 8.467.528m0 .263a7.647 7.647 0 0 1 7.672 7.674 7.647 7.647 0 0 1-7.672 7.672 7.647 7.647 0 0 1-7.674-7.67v-.002C.78 4.223 4.22.785 8.467.793m0 4.764a2.914 2.914 0 0 0-2.91 2.91 2.914 2.914 0 0 0 2.91 2.91 2.913 2.913 0 0 0 2.91-2.91 2.914 2.914 0 0 0-2.91-2.91m0 .264a2.646 2.646 0 0 1 2.645 2.645 2.646 2.646 0 0 1-2.646 2.646 2.646 2.646 0 0 1-2.645-2.646 2.646 2.646 0 0 1 2.646-2.645" color="#000" opacity=".25" style="-inkscape-stroke:none"/><path d="M9.753 11.7a.4.4 0 0 0-.072.007c-.084.013-1.622.322-1.67.336a.18.18 0 0 0-.11.086l-.016.03-.003 1.044-.003 1.044-.016.03c-.023.045-.06.068-.131.083l-.163.036c-.201.043-.297.082-.373.153a.5.5 0 0 0-.067.08.42.42 0 0 0 .046.49.4.4 0 0 0 .215.118c.086.02.27 0 .382-.041a.48.48 0 0 0 .273-.272c.04-.11.037-.041.04-1.067.003-.685.006-.94.011-.951a.12.12 0 0 1 .077-.058c.018-.005.24-.052.492-.103.987-.201.92-.19.957-.17.01.005.023.018.03.029.01.019.01.058.01.643-.001.705.002.664-.05.71-.03.03-.047.035-.2.067-.272.056-.365.093-.453.182a.4.4 0 0 0-.117.28c0 .185.14.355.322.393a.9.9 0 0 0 .377-.038.4.4 0 0 0 .18-.114.3.3 0 0 0 .083-.112 1 1 0 0 0 .042-.108l.014-.05.001-1.322c.002-1.472.005-1.367-.04-1.408a.1.1 0 0 0-.068-.027" opacity=".35"/></svg>