<svg xmlns="http://www.w3.org/2000/svg" width="64" height="64" viewBox="0 0 16.933 16.933"><defs><linearGradient id="a" x1="-1129.7" x2="-1106.6" y1="944.53" y2="962.74" gradientTransform="matrix(0 .45356 .45358 0 -424.15 515.54)" gradientUnits="userSpaceOnUse"><stop offset="0" stop-color="#bfbfbf"/><stop offset=".5" stop-color="#fff"/><stop offset="1" stop-color="#bfbfbf"/></linearGradient></defs><path fill="url(#a)" d="M8.467.53C4.074.52.515 4.08.529 8.465c0 4.4 3.538 7.938 7.938 7.938 4.39.009 7.951-3.552 7.937-7.938A7.917 7.917 0 0 0 8.467.528m0 5.29a2.646 2.646 0 0 1 2.645 2.647 2.646 2.646 0 0 1-2.646 2.645 2.646 2.646 0 0 1-2.645-2.645A2.646 2.646 0 0 1 8.467 5.82" color="#000" style="-inkscape-stroke:none"/><path fill-rule="evenodd" d="M8.467 3.969a4.5 4.5 0 0 0-4.498 4.498 4.5 4.5 0 0 0 4.498 4.497 4.5 4.5 0 0 0 4.497-4.498A4.5 4.5 0 0 0 8.466 3.97m0 1.852a2.646 2.646 0 0 1 2.645 2.646 2.646 2.646 0 0 1-2.646 2.645A2.646 2.646 0 0 1 5.82 8.467a2.646 2.646 0 0 1 2.646-2.645" opacity=".15" style="paint-order:stroke fill markers"/><path fill="#b3b3b3" d="M8.466 5.82a2.646 2.646 0 1 0 .001 5.293 2.646 2.646 0 0 0 0-5.292m0 1.323a1.323 1.323 0 1 1 0 2.645 1.323 1.323 0 0 1 0-2.645"/><path d="M8.467.53C4.074.52.515 4.08.529 8.465c0 4.4 3.538 7.938 7.938 7.938 4.39.009 7.951-3.552 7.937-7.938A7.917 7.917 0 0 0 8.467.528m0 .263a7.647 7.647 0 0 1 7.672 7.674 7.647 7.647 0 0 1-7.672 7.672 7.647 7.647 0 0 1-7.674-7.67v-.002C.78 4.223 4.22.785 8.467.793m0 4.764a2.914 2.914 0 0 0-2.91 2.91 2.914 2.914 0 0 0 2.91 2.91 2.913 2.913 0 0 0 2.91-2.91 2.914 2.914 0 0 0-2.91-2.91m0 .264a2.646 2.646 0 0 1 2.645 2.645 2.646 2.646 0 0 1-2.646 2.646 2.646 2.646 0 0 1-2.645-2.646 2.646 2.646 0 0 1 2.646-2.645" color="#000" opacity=".25" style="-inkscape-stroke:none"/><path d="M8.193 14.07q-.128.064-.266.097-.138.032-.289.032-.448 0-.71-.241-.263-.242-.263-.656t.262-.656q.263-.242.711-.242.15 0 .289.033.138.032.266.096v.358q-.129-.085-.254-.124-.125-.04-.263-.04-.248 0-.39.153t-.142.422.142.42q.142.154.39.154.138 0 .263-.04t.254-.124zm.848-1.3v1.056h.166q.284 0 .433-.136t.15-.394q0-.257-.149-.392-.149-.134-.434-.134zm-.463-.337h.488q.41 0 .609.057.2.055.344.19.126.117.188.27.061.153.061.346 0 .196-.061.35-.062.153-.188.27-.144.134-.346.191-.203.056-.607.056h-.488zm-.199 2.561q.083 0 .12-.03t.036-.098-.037-.097q-.036-.03-.119-.03h-.112v.255zm-.112.176v.375h-.265v-.99h.405q.203 0 .298.065.095.066.095.208 0 .098-.05.161-.049.063-.148.093.055.012.097.054.044.042.088.128l.144.28h-.283l-.125-.245q-.038-.075-.077-.102t-.103-.027z" opacity=".35"/></svg>