<svg xmlns="http://www.w3.org/2000/svg" width="64" height="64" viewBox="0 0 16.933 16.933"><defs><linearGradient id="a" x1="-1129.7" x2="-1106.6" y1="944.53" y2="962.74" gradientTransform="matrix(0 .45356 .45358 0 -424.15 515.54)" gradientUnits="userSpaceOnUse"><stop offset="0" stop-color="#bfbfbf"/><stop offset=".5" stop-color="#fff"/><stop offset="1" stop-color="#bfbfbf"/></linearGradient></defs><path fill="url(#a)" d="M8.467.53C4.074.52.515 4.08.529 8.465c0 4.4 3.538 7.938 7.938 7.938 4.39.009 7.951-3.552 7.937-7.938A7.917 7.917 0 0 0 8.467.528m0 5.29a2.646 2.646 0 0 1 2.645 2.647 2.646 2.646 0 0 1-2.646 2.645 2.646 2.646 0 0 1-2.645-2.645A2.646 2.646 0 0 1 8.467 5.82" color="#000" style="-inkscape-stroke:none"/><path fill-rule="evenodd" d="M8.467 3.969a4.5 4.5 0 0 0-4.498 4.498 4.5 4.5 0 0 0 4.498 4.497 4.5 4.5 0 0 0 4.497-4.498A4.5 4.5 0 0 0 8.466 3.97m0 1.852a2.646 2.646 0 0 1 2.645 2.646 2.646 2.646 0 0 1-2.646 2.645A2.646 2.646 0 0 1 5.82 8.467a2.646 2.646 0 0 1 2.646-2.645" opacity=".15" style="paint-order:stroke fill markers"/><path fill="#b3b3b3" d="M8.466 5.82a2.646 2.646 0 1 0 .001 5.293 2.646 2.646 0 0 0 0-5.292m0 1.323a1.323 1.323 0 1 1 0 2.645 1.323 1.323 0 0 1 0-2.645"/><path d="M8.467.53C4.074.52.515 4.08.529 8.465c0 4.4 3.538 7.938 7.938 7.938 4.39.009 7.951-3.552 7.937-7.938A7.917 7.917 0 0 0 8.467.528m0 .263a7.647 7.647 0 0 1 7.672 7.674 7.647 7.647 0 0 1-7.672 7.672 7.647 7.647 0 0 1-7.674-7.67v-.002C.78 4.223 4.22.785 8.467.793m0 4.764a2.914 2.914 0 0 0-2.91 2.91 2.914 2.914 0 0 0 2.91 2.91 2.913 2.913 0 0 0 2.91-2.91 2.914 2.914 0 0 0-2.91-2.91m0 .264a2.646 2.646 0 0 1 2.645 2.645 2.646 2.646 0 0 1-2.646 2.646 2.646 2.646 0 0 1-2.645-2.646 2.646 2.646 0 0 1 2.646-2.645" color="#000" opacity=".25" style="-inkscape-stroke:none"/><path d="M6.04 12.506h2.076c.015.001.02.02.025.031.017.038.027.079.04.118.03.097.07.192.105.287q.052.148.097.297.022.067.029.136c0 .006.006.013.01.013a.5.5 0 0 1 .046-.08l.083-.103.092-.117q.104-.122.21-.242l.217-.247.046-.053c.012-.015.023-.032.042-.038.034-.01.075-.005.11-.003.104.004.21.001.314.001h.67a1.6 1.6 0 0 1 .316.021c.184.031.373.096.509.224.064.06.117.133.14.217a.4.4 0 0 1-.005.238.72.72 0 0 1-.303.38 1.7 1.7 0 0 1-.269.148 1.6 1.6 0 0 1-.292.09c-.211.043-.428.035-.643.035h-.502c.004-.049.021-.097.033-.144l.039-.157.078-.317.043-.18.022-.086c.004-.015.008-.037.019-.05.005-.006.018-.007.025-.008l.052-.001.12.001h.345c-.007.052-.023.102-.035.153l-.04.162-.08.33c.104 0 .207.004.309-.01a1 1 0 0 0 .288-.093c.127-.069.23-.19.235-.335a.25.25 0 0 0-.055-.172.4.4 0 0 0-.2-.113c-.188-.052-.39-.033-.583-.032H9.57c-.028 0-.058-.003-.085.002-.024.004-.04.03-.054.046q-.03.03-.058.063l-.114.122-.45.487q-.176.194-.354.385c-.072.077-.147.153-.216.233-.006.008-.016.016-.02.026v.002c-.008 0-.008.002-.01-.006l-.01-.034q-.011-.036-.026-.072-.058-.149-.112-.299l-.226-.616-.071-.19-.035-.092c-.006-.017-.014-.065-.04-.065 0 .029.009.054.018.082a.5.5 0 0 1 .022.113c.01.095 0 .193-.04.282-.072.165-.231.292-.388.381-.165.095-.35.153-.54.182a2 2 0 0 1-.307.02h-.749c0-.024.011-.05.018-.074q.02-.076.038-.153L5.918 13l.017-.07c.003-.008 0-.012.01-.012h.54l-.159.644c.107 0 .215.005.32-.012a1 1 0 0 0 .274-.087c.141-.075.256-.222.238-.384-.02-.18-.217-.247-.379-.264-.098-.01-.197-.008-.295-.008h-.492c-.008 0-.027.004-.027-.003 0-.02.01-.042.014-.06zm2.428 1.7a2.841.449 0 0 0-2.841.45 2.841.449 0 0 0 2.84.448 2.841.449 0 0 0 2.842-.449 2.841.449 0 0 0-2.841-.449m0 .34a.691.11 0 0 1 .691.11.691.11 0 0 1-.691.108.691.11 0 0 1-.691-.109.691.11 0 0 1 .69-.11z" opacity=".4"/></svg>