<?xml version="1.0" encoding="UTF-8" standalone="no"?><!-- Generator: Gravitdesign.com --><svg xmlns="http://www.w3.org/2000/svg" xmlns:xlink="http://www.w3.org/1999/xlink" style="isolation:isolate" viewBox="0 0 64 64" width="64pt" height="64pt"><defs><clipPath id="_clipPath_sFOtnLsDCTcUN17JtZBvt2k4bi1ezAB6"><rect width="64" height="64"/></clipPath></defs><g clip-path="url(#_clipPath_sFOtnLsDCTcUN17JtZBvt2k4bi1ezAB6)"><defs><linearGradient id="_lgradient_4" x1="0.5" y1="0" x2="0.5000000000000001" y2="1.0000000000000002"><stop offset="0%" style="stop-color:rgba(255,255,255,0.1)"/><stop offset="100%" style="stop-color:rgba(0,0,0,0.1)"/></linearGradient></defs><path d="M 15.999 3.97 L 48.001 3.97 C 54.623 3.97 60 9.347 60 15.969 L 60 47.971 C 60 54.593 54.623 59.97 48.001 59.97 L 15.999 59.97 C 9.377 59.97 4 54.593 4 47.971 L 4 15.969 C 4 9.347 9.377 3.97 15.999 3.97 Z" style="stroke:none;fill:#F5F5F5;stroke-miterlimit:10;"/><path d="M 15.999 3.97 L 48.001 3.97 C 54.623 3.97 60 9.347 60 15.969 L 60 47.971 C 60 54.593 54.623 59.97 48.001 59.97 L 15.999 59.97 C 9.377 59.97 4 54.593 4 47.971 L 4 15.969 C 4 9.347 9.377 3.97 15.999 3.97 Z" style="stroke:none;fill:url(#_lgradient_4);stroke-miterlimit:10;"/><path d=" M 32.004 14 C 28.516 14 25.706 16.755 25.706 20.178 L 25.706 33.358 C 25.706 36.78 28.516 39.536 32.004 39.536 C 35.492 39.536 38.3 36.78 38.3 33.357 L 38.3 20.178 C 38.3 16.755 35.492 14 32.004 14 Z  M 41.854 28.791 C 41.551 28.793 41.261 28.915 41.05 29.128 C 40.838 29.341 40.722 29.628 40.728 29.926 L 40.728 33.769 C 40.728 36.673 39.665 38.629 38.078 39.935 C 36.491 41.241 34.314 41.884 32.098 41.825 C 29.883 41.768 27.662 41.008 26.028 39.65 C 24.395 38.293 23.311 36.376 23.271 33.753 L 23.271 29.926 C 23.275 29.625 23.156 29.335 22.939 29.123 C 22.723 28.91 22.427 28.792 22.121 28.796 C 21.82 28.8 21.532 28.921 21.322 29.133 C 21.112 29.345 20.997 29.63 21.001 29.926 L 21.001 33.783 C 21.049 37.013 22.483 39.617 24.565 41.347 C 26.345 42.826 28.573 43.692 30.865 43.958 L 30.865 47.573 L 26.39 47.573 C 25.705 47.573 25.153 48.115 25.153 48.788 C 25.153 49.461 25.704 50 26.389 50 L 37.617 50 C 38.302 50 38.855 49.46 38.855 48.788 C 38.855 48.115 38.302 47.573 37.617 47.573 L 33.135 47.573 L 33.135 44.025 C 35.46 43.889 37.741 43.121 39.542 41.638 C 41.626 39.922 43 37.232 43 33.768 L 43 29.926 C 43.006 29.625 42.887 29.334 42.671 29.12 C 42.455 28.907 42.16 28.788 41.853 28.791 L 41.854 28.791 Z " fill="rgb(128,128,128)"/></g></svg>