<svg xmlns="http://www.w3.org/2000/svg" width="64" height="64" viewBox="0 0 64 64"><defs><linearGradient id="a" x1=".5" x2=".5" y1="0" y2="1"><stop offset="0%" style="stop-color:rgba(255,255,255,.1)"/><stop offset="100%" style="stop-color:rgba(0,0,0,.1)"/></linearGradient></defs><path d="M15.999 3.97h32.002C54.623 3.97 60 9.347 60 15.969v32.002c0 6.622-5.377 11.999-11.999 11.999H15.999C9.377 59.97 4 54.593 4 47.971V15.969C4 9.347 9.377 3.97 15.999 3.97" style="stroke:none;fill:#f5f5f5;stroke-miterlimit:10"/><path d="M15.999 3.97h32.002C54.623 3.97 60 9.347 60 15.969v32.002c0 6.622-5.377 11.999-11.999 11.999H15.999C9.377 59.97 4 54.593 4 47.971V15.969C4 9.347 9.377 3.97 15.999 3.97" style="stroke:none;fill:url(#a);stroke-miterlimit:10"/><linearGradient id="b" x1=".464" x2=".5" y1="-3.08" y2="-1.149" gradientTransform="matrix(17.633 0 0 6.92 23.183 33.517)" gradientUnits="userSpaceOnUse"><stop offset="0%" style="stop-color:#0012ff"/><stop offset="100%" style="stop-color:#00bcff"/></linearGradient><path fill="url(#b)" d="M32 33.517a10.94 10.94 0 0 0-8.389 3.918 1.825 1.825 0 0 0 1.398 3.001 1.82 1.82 0 0 0 1.399-.651A7.3 7.3 0 0 1 32 37.169c2.156 0 4.194.954 5.591 2.616.361.431.879.651 1.399.651a1.825 1.825 0 0 0 1.398-3.001 10.94 10.94 0 0 0-8.389-3.918z"/><linearGradient id="c" x1=".478" x2=".5" y1="-1.393" y2="-.211" gradientTransform="matrix(28.817 0 0 9.533 17.592 25.482)" gradientUnits="userSpaceOnUse"><stop offset="0%" style="stop-color:#0012ff"/><stop offset="100%" style="stop-color:#00bcff"/></linearGradient><path fill="url(#c)" d="M31.999 25.482c-5.395 0-10.49 2.381-13.979 6.532a1.824 1.824 0 0 0 .224 2.572 1.824 1.824 0 0 0 2.573-.222 14.58 14.58 0 0 1 11.182-5.229c4.314 0 8.391 1.906 11.184 5.229a1.82 1.82 0 0 0 1.399.651 1.824 1.824 0 0 0 1.398-3.001c-3.491-4.151-8.585-6.532-13.981-6.532"/><linearGradient id="d" x1=".484" x2=".5" y1="-.456" y2=".395" gradientTransform="matrix(40 0 0 12.147 12 17.746)" gradientUnits="userSpaceOnUse"><stop offset="0%" style="stop-color:#0012ff"/><stop offset="100%" style="stop-color:#00bcff"/></linearGradient><path fill="url(#d)" d="M51.572 26.892c-4.885-5.813-12.02-9.146-19.572-9.146-7.553 0-14.686 3.333-19.572 9.146a1.824 1.824 0 0 0 .224 2.572 1.827 1.827 0 0 0 2.573-.222c4.189-4.984 10.304-7.843 16.775-7.843s12.586 2.859 16.775 7.841a1.824 1.824 0 0 0 2.574.223 1.825 1.825 0 0 0 .223-2.572z"/><linearGradient id="f" x1=".394" x2=".5" y1="-4.853" y2=".806" gradientTransform="matrix(6.016 0 0 5.817 28.991 40.437)" gradientUnits="userSpaceOnUse"><stop offset="0%" style="stop-color:#0012ff"/><stop offset="100%" style="stop-color:#00bcff"/></linearGradient><path fill="url(#f)" d="M28.991 43.246a3.01 3.01 0 0 0 6.017 0c-.508-4.27-5.92-3.181-6.017 0"/></svg>