<svg xmlns="http://www.w3.org/2000/svg" xmlns:xlink="http://www.w3.org/1999/xlink" width="64" height="64"><defs><linearGradient id="a" x1="32" x2="32" y1="23.447" y2="40.553" gradientTransform="translate(2.116 2.11)scale(.19844)" gradientUnits="userSpaceOnUse"><stop offset="0" stop-color="#0084d7"/><stop offset="1" stop-color="#39beff"/></linearGradient><linearGradient id="e" x1="32" x2="32" y1="11" y2="53" gradientUnits="userSpaceOnUse"><stop offset="0" stop-color="#f7bd39"/><stop offset="1" stop-color="#f9e657"/></linearGradient><linearGradient id="g" x1="8.467" x2="8.467" y1="284.83" y2="292.24" gradientUnits="userSpaceOnUse"><stop offset="0" stop-color="#e0e0e0"/><stop offset="1" stop-color="#fff"/></linearGradient><linearGradient id="d" x1="30" x2="30" y1="10" y2="70" gradientTransform="scale(.26459)" gradientUnits="userSpaceOnUse"><stop offset="0"/><stop offset="1" stop-opacity=".35"/></linearGradient><linearGradient id="b" x1="7.937" x2="7.937" y1="43.153" y2="24.847" gradientUnits="userSpaceOnUse" spreadMethod="pad"><stop offset="0" stop-color="#3b7bab"/><stop offset="1" stop-color="#5cc2d4"/></linearGradient><linearGradient xlink:href="#a" id="h" x1="32" x2="32" y1="23.447" y2="40.553" gradientTransform="translate(2.116 2.11)scale(.19844)" gradientUnits="userSpaceOnUse"/><linearGradient xlink:href="#b" id="c" x1="9.26" x2="9.26" y1="15.866" y2="1.058" gradientUnits="userSpaceOnUse"/><filter id="f" width="1.12" height="1.12" x="-.06" y="-.06" color-interpolation-filters="sRGB"><feGaussianBlur stdDeviation=".185"/></filter></defs><path fill="url(#b)" d="M4.498 1.05h7.938a3.433 3.433 0 0 1 3.44 3.44v7.937a3.433 3.433 0 0 1-3.44 3.44H4.498a3.433 3.433 0 0 1-3.44-3.44V4.49a3.433 3.433 0 0 1 3.44-3.44" style="fill:url(#c);fill-opacity:1" transform="translate(.002 .032)scale(3.77918)"/><path fill="url(#d)" d="M4.498 1.058v1.633L5.556 3.75V1.058Zm1.587 0v3.22l.926.927.178-.178h-.31V1.058Zm1.323 0v3.75l.84-.84h-.046v-2.91zm1.323 0v2.427l.794-.794V1.058Zm1.323 0V2.91L7.385 5.58l.288.287 3.175-3.175V1.058Zm1.323 0V2.91L7.822 6.465l-.15-.149-.149.15-.512-.513-.512.512-.15-.149-.149.15L2.645 2.91V1.597a3.4 3.4 0 0 0-1.017.993v1.888l-.57.57v.57l.855.854h2.536L2.473 4.496a.397.397 0 0 1-.357-.395.397.397 0 0 1 .397-.397.397.397 0 0 1 .397.397.4.4 0 0 1-.007.076l2.295 2.295h7.542l1.995-2.28h1.125a4 4 0 0 0-.038-.284h-1.087v-1.14l-2.28 2.564H11.6l2.28-2.564v-1.4a3.4 3.4 0 0 0-1.18-.3V2.91L9.145 6.465l-.375-.374 3.4-3.4V1.058Zm-7.408.04a3.4 3.4 0 0 0-.794.22v1.373L6.35 5.866l.287-.287-.552-.552h-.529v-.53L3.97 2.91V1.098ZM3.908 9.89l-2.85 2.28v.256c0 .193.02.381.05.565l1.66-1.106v.57l-1.544 1.029.04.11h.934v1.388c.47.424 1.057.718 1.71.83V12.74l1.709-1.425h.855l-1.71 1.425v3.126h1.059v-1.35l3.555-3.554.149.15.15-.15.511.512.512-.512.15.15.15-.15 3.554 3.555v.619q.335-.262.596-.598l-3.202-3.202.374-.374 3.126 3.126c.191-.349.325-.734.386-1.143L13.88 10.46h-.57l-.57-.57H9.314l.063.063-3.298 3.297a.4.4 0 0 1 .007.076.397.397 0 0 1-.397.397.397.397 0 0 1-.396-.397.397.397 0 0 1 .357-.395l3.04-3.04zm5.617 1.671L6.35 14.737v1.13h.794v-1.35L8.73 12.93v-.529h.53l.551-.552-.287-.287Zm1.323 0-.288.287 2.669 2.669v1.254q.421-.1.794-.294v-.741zm-.662.661-.926.926v2.718h.794V12.4h.31zm.397.397v3.247h.794v-2.408h.045zM8.731 13.68l-1.058 1.058v1.13H8.73Zm3.175.264v1.924h.53q.133 0 .264-.012v-1.118z" opacity=".1" style="fill:url(#d)" transform="translate(.002 .032)scale(3.77918)"/><g transform="translate(.002 -1058.517)scale(3.77918)"><path fill="url(#e)" d="M19 15.033V19h-4v2h4v2h-4v2h4v2h-4v2h4v2h-4v2h4v2h-4v2h4v2h-4v2h4v2h-4v2h4v4.033h2V45h2v4.033h2V45h2v4.033h2V45h2v4.033h2V45h2v4.033h2V45h2v4.033h2V45h2v4.033h2V45h4v-2h-4v-2h4v-2h-4v-2h4v-2h-4v-2h4v-2h-4v-2h4v-2h-4v-2h4v-2h-4v-2h4v-2h-4v-3.967h-2V19h-2v-3.967h-2V19h-2v-3.967h-2V19h-2v-3.967h-2V19h-2v-3.967h-2V19h-2v-3.967h-2V19h-2v-3.967ZM21 21h2v2h-2zm4 0h2v2h-2zm4 0h2v2h-2zm4 0h2v2h-2zm4 0h2v2h-2zm4 0h2v2h-2zm-20 4h2v2h-2zm4 0h2v2h-2zm4 0h2v2h-2zm4 0h2v2h-2zm4 0h2v2h-2zm4 0h2v2h-2zm-20 4h2v2h-2zm4 0h2v2h-2zm4 0h2v2h-2zm4 0h2v2h-2zm4 0h2v2h-2zm4 0h2v2h-2zm-20 4h2v2h-2zm4 0h2v2h-2zm4 0h2v2h-2zm4 0h2v2h-2zm4 0h2v2h-2zm4 0h2v2h-2zm-20 4h2v2h-2zm4 0h2v2h-2zm4 0h2v2h-2zm4 0h2v2h-2zm4 0h2v2h-2zm4 0h2v2h-2zm-20 4h2v2h-2zm4 0h2v2h-2zm4 0h2v2h-2zm4 0h2v2h-2zm4 0h2v2h-2zm4 0h2v2h-2z" style="fill:url(#e)" transform="translate(0 280.07)scale(.26458)"/><rect width="7.408" height="7.408" x="4.763" y="284.83" fill-rule="evenodd" filter="url(#f)" opacity=".5" rx=".529" ry=".529"/><rect width="7.408" height="7.408" x="4.763" y="284.83" fill="url(#g)" fill-rule="evenodd" rx=".529" ry=".529" style="fill:url(#g)"/></g><g fill-rule="evenodd" transform="translate(.002 -1058.48)scale(3.77918)"><circle cx="5.424" cy="285.49" r=".132" opacity=".35" style="paint-order:stroke fill markers"/><circle cx="11.509" cy="285.49" r=".132" opacity=".35" style="paint-order:stroke fill markers"/><circle cx="5.424" cy="291.58" r=".132" opacity=".35" style="paint-order:stroke fill markers"/><circle cx="11.509" cy="291.58" r=".132" opacity=".35" style="paint-order:stroke fill markers"/></g><path fill="url(#h)" d="M8.467 6.77c-.9 0-1.748.397-2.33 1.09a.218.218 0 1 0 .333.28 2.605 2.605 0 0 1 3.994-.001.218.218 0 0 0 .333-.28 3.04 3.04 0 0 0-2.33-1.089m0 .921c-.642 0-1.25.284-1.665.778a.218.218 0 0 0 .333.28 1.737 1.737 0 0 1 2.663 0 .217.217 0 0 0 .307.027.22.22 0 0 0 .027-.307 2.17 2.17 0 0 0-1.665-.778m0 .957a1.3 1.3 0 0 0-.999.467.218.218 0 1 0 .333.28.868.868 0 0 1 1.331 0 .218.218 0 1 0 .334-.28 1.3 1.3 0 0 0-1-.467zm.045.825c-.19-.014-.397.12-.403.334a.358.358 0 0 0 .716 0c-.026-.223-.165-.323-.313-.334" style="fill:url(#h)" transform="translate(.002 .032)scale(3.77918)"/></svg>