<svg xmlns="http://www.w3.org/2000/svg" width="64" height="64" viewBox="0 0 64 64">
    <defs>
        <linearGradient id="a" x1=".5" x2=".5" y1="-.01" y2="1.01">
            <stop offset="0%" style="stop-color:rgba(255,204,153,.2)"/>
            <stop offset="100%" style="stop-color:rgba(0,0,0,.1)"/>
        </linearGradient>
    </defs>
    <path d="M16.5 4.5h31c6.623 0 12 5.377 12 12v31c0 6.623-5.377 12-12 12h-31c-6.623 0-12-5.377-12-12v-31c0-6.623 5.377-12 12-12" style="stroke:none;fill:#3b82f6;stroke-miterlimit:10"/>
    <path d="M16.5 4.5h31c6.623 0 12 5.377 12 12v31c0 6.623-5.377 12-12 12h-31c-6.623 0-12-5.377-12-12v-31c0-6.623 5.377-12 12-12" style="stroke:none;fill:url(#a);stroke-miterlimit:10"/>
    <path fill="#f5f5f5" d="M32.5 14c-9.661 0-17.494 7.828-17.5 17.488v14.797a2.707 2.707 0 0 0 2.718 2.714h14.789c9.665-.002 17.498-7.838 17.496-17.503S42.164 13.998 32.5 14m5.276 3.836c.699 0 1.202.083 1.852.25.949.245 1.723 1.028 1.723 1.931 0 1.096-.793 1.89-1.98 1.89-.567 0-.771-.113-1.599-.113a4.427 4.427 0 0 0-4.422 4.422v3.832c0 .348.272.628.616.628h2.914a1.954 1.954 0 1 1 0 3.904h-3.534v4.471a8.39 8.39 0 0 1-8.391 8.391c-.703 0-1.201-.083-1.852-.253-.952-.246-1.727-1.025-1.727-1.928 0-1.096.794-1.89 1.984-1.89.564 0 .768.106 1.595.106a4.43 4.43 0 0 0 4.426-4.422v-3.844a.62.62 0 0 0-.623-.627h-2.911a1.954 1.954 0 0 1 .023-3.908h3.515v-4.449a8.39 8.39 0 0 1 8.391-8.391"/>
</svg>
