<svg xmlns="http://www.w3.org/2000/svg" width="64" height="64" viewBox="0 0 64 64">
    <g opacity=".9">
        <linearGradient id="a" x1=".984" x2=".012" y1=".5" y2=".5" gradientTransform="matrix(-48 0 0 9 56 5.5)" gradientUnits="userSpaceOnUse">
            <stop offset="0%" style="stop-color:#aaa"/>
            <stop offset="10%" stop-opacity=".62" style="stop-color:#737373"/>
            <stop offset="90%" stop-opacity=".62" style="stop-color:#737373"/>
            <stop offset="100%" stop-opacity=".62" style="stop-color:#acacac"/>
        </linearGradient>
        <path fill="url(#a)" fill-opacity=".75" d="M49.267 5.5H14.733C11.017 5.5 8 7.516 8 10s3.017 4.5 6.733 4.5h34.534C52.983 14.5 56 12.484 56 10s-3.017-4.5-6.733-4.5"/>
        <linearGradient id="b" x1=".5" x2=".5" y1="0" y2="1" gradientTransform="matrix(-48 0 0 9 56 5.5)" gradientUnits="userSpaceOnUse">
            <stop offset=".417%" stop-opacity=".5" style="stop-color:#fff"/>
            <stop offset="97.5%" stop-opacity=".5" style="stop-color:#555"/>
        </linearGradient>
        <path fill="url(#b)" fill-opacity=".75" d="M49.267 5.5H14.733C11.017 5.5 8 7.516 8 10s3.017 4.5 6.733 4.5h34.534C52.983 14.5 56 12.484 56 10s-3.017-4.5-6.733-4.5"/>
    </g>
    <path fill="#ddd" fill-rule="evenodd" d="M49.267 5.5H14.733C11.017 5.5 8 7.516 8 10s3.017 4.5 6.733 4.5h34.534C52.983 14.5 56 12.484 56 10s-3.017-4.5-6.733-4.5m.003 1H14.73c-.79 0-1.59.1-2.35.32-.66.18-1.29.46-1.86.84-.46.29-.85.68-1.15 1.14-.24.35-.36.77-.37 1.2.01.43.13.85.37 1.2.3.46.69.85 1.15 1.14.57.38 1.2.66 1.86.84.76.22 1.56.32 2.35.32h34.54c.79 0 1.59-.1 2.35-.32.66-.18 1.29-.46 1.86-.84.46-.29.85-.68 1.15-1.14.24-.35.36-.77.37-1.2-.01-.43-.13-.85-.37-1.2-.3-.46-.69-.85-1.15-1.14-.57-.38-1.2-.66-1.86-.84-.76-.22-1.56-.32-2.35-.32"/>
    <g opacity=".75">
        <path fill="#aaa" d="M55.992 9.5q.067.5.008 1l-5 43c-.32 2.752-3.23 5-6 5H19c-2.77 0-5.68-2.248-6-5l-5-43q-.059-.514.008-1h.033q-.04.245-.041.5c0 2.493 3.002 4.5 6.732 4.5h34.535C52.997 14.5 56 12.493 56 10q0-.255-.041-.5z"/>
        <linearGradient id="d" x1=".488" x2=".48" y1=".105" y2="1.006" gradientTransform="matrix(-48.055 0 0 49 56.028 9.5)" gradientUnits="userSpaceOnUse">
            <stop offset="0%" stop-opacity="0" style="stop-color:#fff"/>
            <stop offset="100%" style="stop-color:#fff"/>
        </linearGradient>
        <path fill="url(#d)" d="M55.992 9.5q.067.5.008 1l-5 43c-.32 2.752-3.23 5-6 5H19c-2.77 0-5.68-2.248-6-5l-5-43q-.059-.514.008-1h.033q-.04.245-.041.5c0 2.493 3.002 4.5 6.732 4.5h34.535C52.997 14.5 56 12.493 56 10q0-.255-.041-.5z"/>
        <linearGradient id="e" x1=".065" x2=".178" y1=".576" y2=".564" gradientTransform="matrix(-48.055 0 0 49 56.028 9.5)" gradientUnits="userSpaceOnUse">
            <stop offset="0%" style="stop-color:#fff"/>
            <stop offset="100%" stop-opacity="0" style="stop-color:#fff"/>
        </linearGradient>
        <path fill="url(#e)" fill-opacity=".5" d="M55.992 9.5q.067.5.008 1l-5 43c-.32 2.752-3.23 5-6 5H19c-2.77 0-5.68-2.248-6-5l-5-43q-.059-.514.008-1h.033q-.04.245-.041.5c0 2.493 3.002 4.5 6.732 4.5h34.535C52.997 14.5 56 12.493 56 10q0-.255-.041-.5z"/>
    </g>
    <linearGradient id="f" x1=".512" x2=".512" y1=".971" y2="-.009" gradientTransform="matrix(48 0 0 5.576 8 8.924)" gradientUnits="userSpaceOnUse">
        <stop offset="0%" style="stop-color:#ddd"/>
        <stop offset="100%" stop-opacity="0" style="stop-color:#ddd"/>
    </linearGradient>
    <path fill="url(#f)" d="m54.9 9.304 1.007.008c.066.222.093.453.093.688 0 2.484-3.017 4.5-6.733 4.5H14.733C11.017 14.5 8 12.484 8 10c0-.372.068-.734.212-1.076l1.087.009C9.103 9.25 9.009 9.621 9 10c.01.43.13.85.37 1.2.3.46.69.85 1.15 1.14.57.38 1.2.66 1.86.84.76.22 1.56.32 2.35.32h34.54c.79 0 1.59-.1 2.35-.32.66-.18 1.29-.46 1.86-.84.46-.29.85-.68 1.15-1.14.24-.35.36-.77.37-1.2a3.2 3.2 0 0 0-.1-.696"/>
</svg>
