<svg xmlns="http://www.w3.org/2000/svg" width="16" height="16" viewBox="0 0 16 16"><path fill="gray" d="M9 4a1 1 0 1 1 1.999-.001A1 1 0 0 1 9 4M6 4a1 1 0 1 1 1.999-.001A1 1 0 0 1 6 4M3 4a1 1 0 1 1 2.001-.001A1 1 0 0 1 3 4m9.98 5v2a3 3 0 0 1-2.992 2.992h-7A.997.997 0 0 1 1.992 13c0-.55.449-.996.996-1l8.984-.012a1.99 1.99 0 0 0 2-1.984l-1-.004a.997.997 0 0 1-1 .988l-8.984.016c-1.106 0-1.996.89-1.996 1.996a1.99 1.99 0 0 0 1.996 1.992h7A3.99 3.99 0 0 0 13.98 11V9z"/><path fill="gray" d="M14 5.805V6c0 .334-.081.648-.225.924a.983.983 0 1 1-1.646 1.07Q12.065 8 12 8h-.936c.216.862.994 1.5 1.924 1.5a1.98 1.98 0 0 0 1.985-1.984c0-.73-.39-1.366-.973-1.711"/><path fill="gray" d="M2 0C.892 0 0 .892 0 2v4c0 1.108.892 2 2 2h10c1.108 0 2-.892 2-2V2c0-1.108-.892-2-2-2zm0 1h10c.554 0 1 .446 1 1v4c0 .554-.446 1-1 1H2c-.554 0-1-.446-1-1V2c0-.554.446-1 1-1"/></svg>