<svg xmlns="http://www.w3.org/2000/svg" width="16" height="16" viewBox="0 0 16 16"><path fill="gray" d="M2 6v2.5C2 9.883 3.117 11 4.5 11h7.977c.562 0 1.023.46 1.023 1.016-.008.55-.465.992-1.023.984H6v1h6.469a2 2 0 0 0 2.031-1.977A2.02 2.02 0 0 0 12.477 10H4.5C3.676 10 3 9.324 3 8.5V6z"/><path fill="gray" d="M1 7h14v1H1z"/><path fill="gray" d="M5 1C3.338 1 2 2.338 2 4v4h1V4c0-1.108.892-2 2-2h6c1.108 0 2 .892 2 2v4h1V4c0-1.662-1.338-3-3-3zM2.5 13c-.831 0-1.5.669-1.5 1.5S1.669 16 2.5 16h4c.831 0 1.5-.669 1.5-1.5S7.331 13 6.5 13zm0 1h4a.499.499 0 1 1 0 1h-4a.499.499 0 1 1 0-1"/></svg>