<svg xmlns="http://www.w3.org/2000/svg" viewBox="0 0 16 16"><g fill="gray"><path d="M4 9c-.66 0-1.183.06-1.623.225a1.9 1.9 0 0 0-1.002.838c-.292.526-.343 1.187-.36 1.937.017.75.068 1.411.36 1.938.223.389.578.686 1.002.837.44.165.963.225 1.623.225l8.03.006c.658 0 1.183-.06 1.622-.225a1.9 1.9 0 0 0 1.002-.838c.292-.528.343-1.191.36-1.943-.018-.746-.07-1.406-.36-1.932a1.9 1.9 0 0 0-1.002-.837c-.44-.165-.963-.225-1.623-.225zm0 1 8.03.006c.593 0 1.008.063 1.27.16.26.098.374.204.476.387.137.248.19.784.221 1.447-.031.67-.083 1.21-.221 1.46-.102.182-.216.288-.477.386-.26.097-.676.16-1.27.16L4 14c-.594 0-1.01-.063-1.27-.16-.261-.097-.376-.203-.477-.387-.137-.249-.19-.787-.221-1.453.032-.666.084-1.204.221-1.453.1-.184.216-.29.477-.387.26-.097.676-.16 1.27-.16" style="isolation:auto;mix-blend-mode:normal;text-decoration-color:#000;text-decoration-line:none;text-decoration-style:solid;text-indent:0;text-transform:none;white-space:normal"/><path d="M11.015 12h2v1h-2z"/><path fill-rule="evenodd" d="M11 4h1v6h-1z"/><circle cx="11.441" cy="4.412" r="1.5" fill-rule="evenodd"/><path d="M6.667 0A6.1 6.1 0 0 0 4.88 4.32c0 1.565.595 3.13 1.787 4.323l.6-.6a5.255 5.255 0 0 1 0-7.441zm1.746 1.682a3.72 3.72 0 0 0-1.09 2.638 3.72 3.72 0 0 0 1.09 2.64l.602-.599a2.88 2.88 0 0 1 0-4.082z"/></g></svg>