<svg xmlns="http://www.w3.org/2000/svg" width="16" height="16" viewBox="0 0 16 16"><path fill="gray" d="M4 1C2.338 1 1 2.338 1 4v1h1V4c0-1.108.892-2 2-2h8c1.108 0 2 .892 2 2v6c0 1.108-.892 2-2 2H9v1h3c1.662 0 3-1.338 3-3V4c0-1.662-1.338-3-3-3zm5 13v1h4c0-.554-.446-1-1-1z"/><path fill="gray" d="M2.281 6C1.571 6 1 6.571 1 7.281v7.438c0 .71.571 1.28 1.281 1.28H6.72c.71 0 1.28-.57 1.28-1.28V7.28C8 6.571 7.43 6 6.72 6H4zm.13 1H3c0 .554.446 1 1 1h1c.554 0 1-.446 1-1h.59c.227 0 .41.182.41.41v7.11c0 .266-.214.48-.48.48H2.48a.48.48 0 0 1-.48-.48V7.41c0-.228.182-.41.41-.41"/></svg>