<svg xmlns="http://www.w3.org/2000/svg" width="16" height="16"><defs><style id="current-color-scheme" type="text/css">.ColorScheme-Text{color:gray}</style></defs><rect width="4" height=".418" x="6" y="14" fill="currentColor" class="ColorScheme-Text" opacity=".45" ry=".209"/><path fill="gray" d="M5 0C3.892 0 3 .892 3 2v12c0 1.108.892 2 2 2h6c1.108 0 2-.892 2-2V2c0-1.108-.892-2-2-2zm.025 1H6c0 .554.446 1 1 1h2c.554 0 1-.446 1-1h.975C11.543 1 12 1.457 12 2.025v11.95c0 .567-.457 1.025-1.025 1.025h-5.95A1.023 1.023 0 0 1 4 13.974V2.025C4 1.457 4.457 1 5.025 1"/><path fill="currentColor" d="M9 3 6 8h2l-1 4 3-5H8z" class="ColorScheme-Text"/></svg>