<svg xmlns="http://www.w3.org/2000/svg" width="16" height="16" viewBox="0 0 16 16"><path fill="gray" d="M6.031 12A1.03 1.03 0 0 0 5 13.027V15.5c0 .277.227.5.5.5h5c.277 0 .5-.223.5-.5v-2.473A1.03 1.03 0 0 0 9.973 12zM6 14h1v1H6zm3 0h1v1H9z"/><path fill="gray" d="M7.031 8.973A3.03 3.03 0 0 0 4 12c0 .55.45 1 1 1h6a1 1 0 0 0 1-1 3.027 3.027 0 0 0-3.027-3.027zm0 1h1.942C10.104 9.973 11 10.869 11 12H5c0-1.13.9-2.027 2.031-2.027"/><g fill="gray" fill-rule="evenodd"><path d="M13.139 1.428c-.545-.428-1.139.224-.684.732A8 8 0 0 1 15 8a8 8 0 0 1-2.554 5.852c-.446.471.18 1.148.677.728A9 9 0 0 0 16 8a9 9 0 0 0-2.861-6.572" style="paint-order:normal" transform="rotate(-90 8 8)"/><path d="M10.775 2.889c-.587-.535-1.199.225-.684.732A6 6 0 0 1 12 8a6 6 0 0 1-1.916 4.389c-.469.446.173 1.146.68.728A7 7 0 0 0 13 8a7 7 0 0 0-2.225-5.111" style="paint-order:normal" transform="rotate(-90 8 8)"/><path d="M8.41 4.35c-.52-.494-1.155.22-.683.73A4 4 0 0 1 9 8a4 4 0 0 1-1.277 2.926c-.473.43.14 1.152.68.73A5 5 0 0 0 10 8a5 5 0 0 0-1.59-3.65" style="paint-order:normal" transform="rotate(-90 8 8)"/></g></svg>