<svg xmlns="http://www.w3.org/2000/svg" width="16" height="16" viewBox="0 0 16 16"><path fill="gray" d="M9 0a2 2 0 0 0-2 2H3.531A2 2 0 0 0 1.5 3.977C1.5 5.097 2.402 6 3.523 6H11.5c.65 0 1.205.42 1.412 1H3c-1.11 0-2 .89-2 2v5c0 1.11.89 2 2 2h10c1.11 0 2-.89 2-2V9a1.99 1.99 0 0 0-1.014-1.74A2.495 2.495 0 0 0 11.5 5H3.523C2.961 5 2.5 4.54 2.5 3.984c.008-.55.465-.992 1.023-.984h3.744A2 2 0 0 0 9 4h2V3h2V1h-2V0zm0 1h1v2H9c-.554 0-1-.446-1-1s.446-1 1-1M3 8h4.5v3H2V9c0-.554.446-1 1-1m5.5 0H13c.554 0 1 .446 1 1v2H8.5zM2 12h5.5v3H3c-.554 0-1-.446-1-1zm6.5 0H14v2c0 .554-.446 1-1 1H8.5z"/></svg>