<svg xmlns="http://www.w3.org/2000/svg" width="16" height="16" viewBox="0 0 16 16"><path fill="gray" d="M8 1c1.662 0 3 1.338 3 3v2h-1V4c0-1.108-.892-2-2-2H4c-1.108 0-2 .892-2 2v8c0 1.108.892 2 2 2h4c1.108 0 2-.892 2-2v-2h1v2c0 1.662-1.338 3-3 3H4c-1.662 0-3-1.338-3-3V4c0-1.662 1.338-3 3-3zm4.672 3.67a.5.5 0 0 1 .353.148l2.829 2.828.033.038v.001l.008.01.033.051.006.01q.015.026.029.056l.006.016a.5.5 0 0 1 .03.121v.004a.5.5 0 0 1 0 .094v.002a.5.5 0 0 1-.036.14l-.016.032q-.01.021-.023.043l-.027.039-.01.011v.002l-.033.037-2.829 2.829a.499.499 0 1 1-.707-.707L14.293 8.5H6.5a.499.499 0 1 1 0-1h7.793l-1.975-1.975a.5.5 0 0 1 0-.707.5.5 0 0 1 .354-.148"/></svg>