<svg xmlns="http://www.w3.org/2000/svg" width="16" height="16" viewBox="0 0 16 16"><path fill="gray" d="M3 7c-1.108 0-2 .892-2 2v4c0 1.108.892 2 2 2h10c1.108 0 2-.892 2-2V9c0-1.108-.892-2-2-2h-1v1h1c.554 0 1 .446 1 1v4c0 .554-.446 1-1 1H3c-.554 0-1-.446-1-1V9c0-.554.446-1 1-1h1V7z" style="paint-order:stroke fill markers"/><rect width="1" height="9" x="7.5" y="2" fill="gray" rx="0" ry="0" style="paint-order:stroke fill markers"/><path fill="gray" d="M6.364-4.95h6v1h-6z" style="paint-order:stroke fill markers" transform="rotate(45)"/><path fill="gray" d="M-4.95 6.364h6v1h-6z" style="paint-order:stroke fill markers" transform="rotate(135)scale(1 -1)"/></svg>