<svg xmlns="http://www.w3.org/2000/svg" width="16" height="16" viewBox="0 0 16 16"><g fill="gray"><path d="M4.422 9.926c-.407.001-.642.511-.379.822.858 1.042 2.366 1.503 3.871 1.516 1.504.012 3.057-.431 4.02-1.479a.5.5 0 0 0 .154-.388.5.5 0 0 0-.168-.334.5.5 0 0 0-.348-.135.51.51 0 0 0-.379.193l.01-.012c-.68.744-1.983 1.166-3.28 1.155-1.294-.011-2.542-.464-3.109-1.15l-.002-.003a.5.5 0 0 0-.388-.185zm.002 0 .164.06-.07-.06z"/><path d="M7.959 2c-.621 2.15-1.167 4.252-1.312 6.102l-.002.005v.006c-.013.231-.017.493.058.77.038.138.096.287.22.426a.85.85 0 0 0 .536.263l.01.002 1.285.051c.004.021 0 .01.014.123.12 1.42.238 2.86.502 4.252h1.062c-.284-1.377-.44-2.838-.568-4.338v-.01c-.027-.25-.038-.463-.211-.699s-.486-.318-.697-.326l-1.19-.047a1.8 1.8 0 0 1-.023-.4v-.002C7.783 6.4 8.373 4.226 9.02 2z"/><path d="M4 1C2.338 1 1 2.338 1 4v8c0 1.662 1.338 3 3 3h8c1.662 0 3-1.338 3-3V4c0-1.662-1.338-3-3-3zm0 1h8c1.108 0 2 .892 2 2v8c0 1.108-.892 2-2 2H4c-1.108 0-2-.892-2-2V4c0-1.108.892-2 2-2"/><rect width="1" height="2" x="4" y="5" rx=".5" ry=".5"/><rect width="1" height="2" x="11" y="5" rx=".5" ry=".5"/></g></svg>