<svg xmlns="http://www.w3.org/2000/svg" width="256" height="256" viewBox="0 0 256 256"><defs><clipPath id="a"><path d="M0 0h256v256H0z"/></clipPath></defs><g clip-path="url(#a)"><path fill="gray" d="m158.623 3.545 33.941 33.942a8 8 0 0 1 0 11.313l-33.941 33.941a8 8 0 0 1-11.314 0 8 8 0 0 1 0-11.313l19.375-19.375-36.027 1.577-.347.007c-43.876.008-79.558 35.355-79.981 79.229s34.572 79.902 78.44 80.756 80.237-33.785 81.522-77.643a8.005 8.005 0 0 1 16.002.446 95.44 95.44 0 0 1-28.072 65.11l-.933.934c-31.01 30.171-78.369 35.872-115.652 13.921-37.284-21.95-55.277-66.128-43.941-107.881 11.337-41.754 49.202-70.765 92.467-70.846l38.219-1.732-21.072-21.072a8 8 0 0 1 11.314-11.314"/></g></svg>