<svg xmlns="http://www.w3.org/2000/svg" xmlns:xlink="http://www.w3.org/1999/xlink" width="64" height="64" viewBox="0 0 64 64"><defs><linearGradient xlink:href="#a" id="b" x1="16" x2="16" y1="30" y2="2" gradientTransform="scale(2)" gradientUnits="userSpaceOnUse"/><linearGradient id="a"><stop offset="0" style="stop-color:#e23737;stop-opacity:1"/><stop offset="1" style="stop-color:#e37d7d;stop-opacity:1"/></linearGradient></defs><rect width="56" height="56" x="4" y="5" ry="12" style="opacity:.2;fill:#000;stroke-width:3.5"/><rect width="56" height="56" x="4" y="4" ry="12" style="fill:url(#b);stroke-width:2"/><path d="M29.695 12c-.69 0-.826.032-1.104.265-.552.463-.867 1.887-.863 3.958.003 2.142.296 4.18.97 6.832l.425 1.655-.399 1.244c-1.266 4.047-3.102 8.259-5.808 13.306-4.1 7.649-7.269 11.664-9.476 12.02-.355.058-.372.043-.372-.211 0-1.291 2.448-4.519 5.17-6.818 1.39-1.175-.228-.39-2.1 1.02-1.886 1.419-3.45 3.26-3.934 4.633-.344.976-.271 1.321.36 1.642 1.125.572 1.699.594 2.657.119 1.863-.925 4.328-3.852 7.07-8.394.89-1.473 1.17-1.84 1.396-1.84.08 0 .92-.233 1.86-.517 3.758-1.132 8.27-2.046 12.693-2.581l1.476-.186.744.371c1.938.972 4.639 1.916 6.619 2.304 1.338.262 3.082.31 3.668.106.369-.13 1.138-.585 1.138-.735-1.503.705-3.767-.166-5.471-.669-1.123-.354-3.595-1.32-3.735-1.456 2.993-.58 8.607-.708 9.21 1.364.177 0 .132-.832-.066-1.165-.37-.625-1.444-1.13-2.99-1.417-1.252-.233-4.22-.298-6.54-.146l-2.06.133-.743-.45c-4.268-2.586-6.528-5.502-8.573-11.042-.307-.831-.327-.945-.226-1.47.358-1.845.69-8.08.439-8.234-.456 2.043-.825 4.087-1.29 5.93-.095 0-.376-1.437-.597-3.11-.241-1.821-.154-4.284.172-5.124.131-.336.301-.643.386-.675.836.24 1.3.902 1.422 1.92.118 0 .149-.195.173-.821.052-1.378-.317-1.761-1.701-1.761m.332 15.199c.047-.015.074.087.133.251.072.203.476 1.031.89 1.84 1.784 3.483 3.759 5.767 6.606 7.64.144.094.233.202.199.238s-.613.16-1.276.278c-4.518.804-10.142 2.497-12.878 3.866-.044.021-.08-.021-.08-.093s.269-.632.611-1.245c2.58-4.613 4.312-8.341 5.29-11.412.31-.974.426-1.338.505-1.363" style="display:inline;fill:#fff;fill-opacity:1;fill-rule:nonzero;stroke:none"/></svg>