<svg xmlns="http://www.w3.org/2000/svg" xmlns:xlink="http://www.w3.org/1999/xlink" width="64" height="64" viewBox="0 0 64 64"><defs><linearGradient xlink:href="#a" id="b" x1="16" x2="16" y1="30" y2="2" gradientTransform="scale(2)" gradientUnits="userSpaceOnUse"/><linearGradient id="a"><stop offset="0" style="stop-color:#ffbb75;stop-opacity:1"/><stop offset="1" style="stop-color:#f68200;stop-opacity:1"/></linearGradient></defs><rect width="56" height="56" x="4" y="5" ry="12" style="opacity:.2;fill:#000;stroke-width:3.5"/><rect width="56" height="56" x="4" y="4" ry="12" style="fill:url(#b);stroke-width:2"/><path d="M17 12a3 3 0 0 0-3 3 3 3 0 0 0 3 3c16.052 0 29 12.948 29 29a3 3 0 0 0 3 3 3 3 0 0 0 3-3c0-19.294-15.706-35-35-35m0 14a3 3 0 0 0-3 3 3 3 0 0 0 3 3c8.32 0 15 6.68 15 15a3 3 0 0 0 3 3 3 3 0 0 0 3-3c0-11.562-9.438-21-21-21m1 14a6 6 0 1 0 0 12 6 6 0 0 0 0-12" style="color:#000;fill:#fff;stroke:none;stroke-width:2;stroke-linecap:round;-inkscape-stroke:none"/></svg>