<svg xmlns="http://www.w3.org/2000/svg" width="64" height="64" viewBox="0 0 64 64"><rect width="56" height="56" x="4" y="5" ry="12" style="opacity:.2;fill:#000;stroke-width:3.5"/><rect width="56" height="56" x="4" y="4" ry="12" style="fill:#fafafa;fill-opacity:1;stroke-width:2"/><path d="M46.014 26a.54.54 0 0 0-.424.191l-1.256 1.471a5.94 5.94 0 0 0-3.715-1.297q-.725.001-1.4.164l4.08 11.135a5.98 5.98 0 0 0 3.15-4.057l1.901.368a.546.546 0 1 0 .207-1.073l-1.975-.382q.004-.094.004-.188a5.94 5.94 0 0 0-1.463-3.912l1.297-1.52a.546.546 0 0 0-.406-.9M42 28a1 1 0 0 1 1 1 1 1 0 0 1-1 1 1 1 0 0 1-1-1 1 1 0 0 1 1-1m2 5a1 1 0 0 1 1 1 1 1 0 0 1-1 1 1 1 0 0 1-1-1 1 1 0 0 1 1-1" style="fill:#3ddc84;fill-opacity:1"/><path d="M32.893 12a1.86 1.86 0 0 0-1.861 1.861v4.461a2.96 2.96 0 0 0-2.424 1.926L24.04 32.793a14.6 14.6 0 0 1-3.115-3.615c-.51-.809-1.284-1.178-2.071-1.178-.908 0-1.833.462-2.381 1.184-.548.721-.721 1.702-.13 2.742v.002l.001.002a18.8 18.8 0 0 0 5.83 5.994l-2.252 6.185c-.133.366-.097 6.27-.097 6.27a.715.715 0 0 0 1.31.557s4.217-4.438 4.35-4.803l2.11-5.793c1.608.434 3.278.66 4.968.66 1.85 0 3.722-.27 5.56-.834l2.194 5.984c.129.365 4.332 4.786 4.332 4.786a.713.713 0 0 0 1.31-.557s-.01-5.88-.148-6.242L37.05 20.23a2.92 2.92 0 0 0-2.297-1.855v-4.514A1.86 1.86 0 0 0 32.893 12m-.02 13.836 3.49 9.525c-1.259.402-2.539.639-3.804.639-1.095 0-2.179-.15-3.229-.432Z" style="fill:#4285f4;fill-opacity:1"/><path fill="#e4e4e4" d="M33 25a4 4 0 1 0 0-8 4 4 0 0 0 0 8" style="fill:#fafafa;fill-opacity:1"/><path d="M33 16a5 5 0 0 0-4.619 3.086 5 5 0 0 0 1.084 5.45A5 5 0 1 0 33 16m0 2.082a2.917 2.917 0 1 1-2.062 4.98 2.916 2.916 0 0 1 0-4.125A2.92 2.92 0 0 1 33 18.083" style="fill:#073042;fill-opacity:1"/></svg>