<svg xmlns="http://www.w3.org/2000/svg" xmlns:xlink="http://www.w3.org/1999/xlink" width="64" height="64" viewBox="0 0 64 64"><defs><linearGradient xlink:href="#a" id="b" x1="16" x2="16" y1="30" y2="2" gradientTransform="scale(2)" gradientUnits="userSpaceOnUse"/><linearGradient xlink:href="#a" id="c" x1="26" x2="26" y1="44" y2="-12" gradientTransform="translate(6 16)" gradientUnits="userSpaceOnUse"/><linearGradient id="a"><stop offset="0" style="stop-color:#d09552;stop-opacity:1"/><stop offset="1" style="stop-color:#f7dcb2;stop-opacity:1"/></linearGradient></defs><rect width="56" height="56" x="4" y="5" ry="12" style="opacity:.2;fill:#000;stroke-width:3.5"/><rect width="56" height="56" x="4" y="4" ry="12" style="fill:url(#b);stroke-width:2"/><rect width="20" height="24" x="12" y="15" ry="4" style="opacity:.6;fill:#fff;stroke-width:4;stroke-linecap:round;stroke-linejoin:round"/><path d="M16 21c-2.216 0-4 1.784-4 4v18c0 3.324 2.676 6 6 6h28c3.324 0 6-2.676 6-6V27c0-3.324-2.676-6-6-6z" style="fill:#fff;stroke-width:4;stroke-linecap:round;stroke-linejoin:round"/><path d="M12 32v2h2v-2zm2 2v2h2v-2zm2 0h2v-2h-2zm2 0v2h2v-2zm2 0h2v-2h-2zm2 0v2h2v-2zm2 0h2v-2h-2zm2 0v2h2v-2zm2 0h2v-2h-2zm2 0v2h2v-2zm2 0h2v-2h-2zm2 0v2h2v-2zm2 0h2v-2h-2zm2 0v2h2v-2zm2 0h2v-2h-2zm2 0v2h2v-2zm2 0h2v-2h-2zm2 0v2h2v-2zm2 0h2v-2h-2zm2 0v2h2v-2z" style="fill:url(#c);fill-opacity:1;stroke-width:2;stroke-linecap:round;stroke-linejoin:round"/></svg>