<svg xmlns="http://www.w3.org/2000/svg" xmlns:xlink="http://www.w3.org/1999/xlink" width="64" height="64" viewBox="0 0 64 64"><defs><linearGradient id="a"><stop offset="0" style="stop-color:#f8dabe;stop-opacity:1"/><stop offset="1" style="stop-color:#faf5eb;stop-opacity:1"/></linearGradient><linearGradient xlink:href="#a" id="c" x1="16" x2="16" y1="30" y2="2" gradientTransform="scale(2)" gradientUnits="userSpaceOnUse"/><linearGradient xlink:href="#b" id="d" x1="52.133" x2="52.133" y1="12.251" y2="52" gradientUnits="userSpaceOnUse"/><linearGradient id="b"><stop offset="0" style="stop-color:#ffbb75;stop-opacity:1"/><stop offset="1" style="stop-color:#f68200;stop-opacity:1"/></linearGradient></defs><rect width="56" height="56" x="4" y="5" ry="12" style="opacity:.2;fill:#000;stroke-width:3.5"/><rect width="56" height="56" x="4" y="4" ry="12" style="fill:url(#c);stroke-width:2"/><path d="M32.769 12.251c-.512 0-1.023.194-1.414.586a1.995 1.995 0 0 0 0 2.828l6.348 6.35q-.285-.012-.57-.015H16c-1.108 0-2 .892-2 2s.892 2 2 2h10.973q-.214.207-.418.422l-.028-.027-13.94 13.941a1.995 1.995 0 0 0 0 2.828 1.995 1.995 0 0 0 2.828 0l6.76-6.762a15 15 0 0 0-.042.598c0 8.284 6.715 15 15 15s15-6.716 15-15a15 15 0 0 0-4.395-10.605L34.183 12.837a2 2 0 0 0-1.414-.586" style="opacity:1;fill:url(#d);stroke-width:2.72728;stroke-linecap:square;stroke-linejoin:round"/><circle cx="37" cy="37" r="11" style="fill:#fff;stroke-width:5.50004;stroke-linecap:square;stroke-linejoin:round"/><circle cx="37" cy="37" r="5" style="fill:#28aee7;fill-opacity:1;stroke-width:5.00004;stroke-linecap:square;stroke-linejoin:round"/></svg>