<svg xmlns="http://www.w3.org/2000/svg" xmlns:xlink="http://www.w3.org/1999/xlink" width="64" height="64" viewBox="0 0 64 64"><defs><linearGradient id="a"><stop offset="0" style="stop-color:#eaebed;stop-opacity:1"/><stop offset="1" style="stop-color:#f9fafa;stop-opacity:1"/></linearGradient><linearGradient xlink:href="#a" id="c" x1="16" x2="16" y1="30" y2="2" gradientTransform="scale(2)" gradientUnits="userSpaceOnUse"/><linearGradient xlink:href="#b" id="d" x1="35.554" x2="35.554" y1="35.46" y2="49.46" gradientTransform="matrix(2 0 0 2 -39.108 -38.92)" gradientUnits="userSpaceOnUse"/><linearGradient id="b"><stop offset="0" style="stop-color:#41bbff;stop-opacity:1"/><stop offset="1" style="stop-color:#0091f9;stop-opacity:1"/></linearGradient></defs><rect width="56" height="56" x="4" y="5" ry="12" style="opacity:.2;fill:#000;stroke-width:3.5"/><rect width="56" height="56" x="4" y="4" ry="12" style="fill:url(#c);stroke-width:2"/><path d="M36 32c-2.216 0-4 1.784-4 4v18c0 2.216 1.784 4 4 4h12a10 10 0 0 0 10-10V36c0-2.216-1.784-4-4-4z" style="fill:url(#d);fill-opacity:1;stroke-width:3.14286;stroke-linecap:round;stroke-linejoin:round"/><path d="M17.999 14v6h-6v2h6v6h2v-6h6v-2h-6v-6zm20 6v2h14v-2ZM12.706 37.293l-1.414 1.414L16.585 44l-5.293 5.293 1.414 1.414L18 45.414l5.293 5.293 1.414-1.414L19.413 44l5.293-5.293-1.414-1.414-5.293 5.293z" style="fill:#666;stroke-width:13.7173;stroke-linejoin:round"/><path d="M37.999 40v2h14v-2Zm0 6v2h14v-2z" style="fill:#fff;stroke-width:13.7172;stroke-linejoin:round"/></svg>