<svg xmlns="http://www.w3.org/2000/svg" xmlns:xlink="http://www.w3.org/1999/xlink" width="64" height="64" viewBox="0 0 64 64"><defs><linearGradient xlink:href="#a" id="c" x1="16" x2="16" y1="30" y2="2" gradientTransform="scale(2)" gradientUnits="userSpaceOnUse"/><linearGradient id="a"><stop offset="0" style="stop-color:#96a3ad;stop-opacity:1"/><stop offset="1" style="stop-color:#c4c8cd;stop-opacity:1"/></linearGradient><linearGradient id="b"><stop offset="0" style="stop-color:#3a3a3a;stop-opacity:1"/><stop offset="1" style="stop-color:#4d4d4d;stop-opacity:1"/></linearGradient><linearGradient xlink:href="#b" id="d" x1="16" x2="16" y1="29.5" y2="1.5" gradientTransform="matrix(2 0 0 2 0 1)" gradientUnits="userSpaceOnUse"/></defs><rect width="56" height="56" x="4" y="5" ry="12" style="opacity:.2;fill:#000;stroke-width:3.5"/><rect width="56" height="56" x="4" y="4" ry="12" style="fill:url(#c);stroke-width:2"/><rect width="8" height="8" x="42" y="23" ry="2" style="opacity:1;fill:#eeaf4f;stroke-width:4"/><path d="M28 15c-2.216 0-2.66.99-4 3l-2 3h-5a5 5 0 0 0-5 5v18a5 5 0 0 0 5 5h30a5 5 0 0 0 5-5V26a5 5 0 0 0-5-5h-5l-2-3c-1.23-1.844-1.784-3-4-3zm4 10c5.523 0 10 4.477 10 10s-4.477 10-10 10-10-4.477-10-10 4.477-10 10-10m14 0a2 2 0 1 1 0 4 2 2 0 0 1 0-4m-14 2a8 8 0 1 0 0 16 8 8 0 0 0 0-16" style="opacity:1;fill:url(#d);stroke-width:9.9048;stroke-linecap:round;stroke-linejoin:round"/></svg>