<svg xmlns="http://www.w3.org/2000/svg" xmlns:xlink="http://www.w3.org/1999/xlink" width="64" height="64" viewBox="0 0 64 64"><defs><linearGradient id="a"><stop offset="0" style="stop-color:#eaebed;stop-opacity:1"/><stop offset="1" style="stop-color:#f9fafa;stop-opacity:1"/></linearGradient><linearGradient xlink:href="#a" id="b" x1="16" x2="16" y1="30" y2="2" gradientTransform="scale(2)" gradientUnits="userSpaceOnUse"/></defs><rect width="56" height="56" x="4" y="5" ry="12" style="opacity:.2;fill:#000;stroke-width:3.5"/><rect width="56" height="56" x="4" y="4" ry="12" style="fill:url(#b);stroke-width:2"/><path d="m26.575 14 4.73 7.031h3.149L30.759 14Zm6.121 9.879q-1.757 0-3.574.484a9.1 9.1 0 0 0-3.332 1.668q-1.516 1.181-2.426 3.301l3.394 1.215q.592-1.273 2.047-2.395 1.453-1.12 4.012-1.12 2.471 0 3.684 1.241 1.227 1.243 1.226 3.485v.12q0 .865-.62 1.212-.607.348-1.938.5-1.32.136-3.442.41-1.62.211-3.226.574-1.591.35-2.91 1.063a5.56 5.56 0 0 0-2.106 1.968q-.788 1.243-.789 3.243 0 2.272 1.062 3.879 1.061 1.591 2.864 2.441 1.803.833 4.015.832 2.03 0 3.438-.605 1.41-.606 2.258-1.47.849-.862 1.215-1.62h.18v3.148h3.577V32.121q0-2.773-.91-4.426-.91-1.65-2.289-2.468a8.2 8.2 0 0 0-2.832-1.075q-1.455-.272-2.578-.273m5.031 11.879v3.273q0 1.455-.758 2.774-.741 1.316-2.21 2.148-1.454.835-3.575.836-2.137-.001-3.531-.941-1.38-.954-1.379-2.817 0-1.364.727-2.152.742-.802 1.937-1.195 1.213-.411 2.61-.594.574-.075 1.5-.18.938-.12 1.921-.273a17 17 0 0 0 1.758-.38q.773-.225 1-.5" style="font-family:Inter;-inkscape-font-specification:Inter;fill:#666;fill-opacity:1;stroke-width:2"/></svg>