<svg xmlns="http://www.w3.org/2000/svg" xmlns:xlink="http://www.w3.org/1999/xlink" width="64" height="64" viewBox="0 0 64 64"><defs><linearGradient id="a"><stop offset="0" style="stop-color:#eaebed;stop-opacity:1"/><stop offset="1" style="stop-color:#f9fafa;stop-opacity:1"/></linearGradient><linearGradient xlink:href="#a" id="c" x1="16" x2="16" y1="30" y2="2" gradientTransform="scale(2)" gradientUnits="userSpaceOnUse"/><linearGradient xlink:href="#b" id="d" x1="8" x2="8" y1="16" y2="0" gradientTransform="matrix(3.5 0 0 3.5 4 4)" gradientUnits="userSpaceOnUse"/><linearGradient id="b"><stop offset="0" style="stop-color:#272727;stop-opacity:1"/><stop offset="1" style="stop-color:#5d5d5d;stop-opacity:1"/></linearGradient></defs><rect width="56" height="56" x="4" y="5" ry="12" style="opacity:.2;fill:#000;stroke-width:3.5"/><path d="M16 4h32l12 12v32c0 6.648-5.352 12-12 12H16L4 48V16C4 9.352 9.352 4 16 4" style="fill:url(#c);stroke-width:2"/><path d="M32 4v28h28V16c0-6.648-5.352-12-12-12Zm0 28H4v16c0 6.648 5.352 12 12 12h16z" style="fill:url(#d);fill-opacity:1;stroke-width:1.75;stroke-linecap:round;stroke-linejoin:round"/><path d="m17.002 35-.004 2.756L10 42.216l1.368 2.83 2.944-1.093a2.78 2.78 0 0 0 2.2 1.099c1.472-.002 2.383-1.26 2.488-2.779v-.001 4.774c-.964.724-1.859 1.49-3.344 1.954-2.192.686-3.698 1.606-3.698 3.97L13.913 56h8.957L26 53.03v-7.26c0-4.73-1.708-8.34-6.28-8.34l-.147.007c.007-.234-.015-.068-.065-.297-.277-1.25-1.265-2.138-2.506-2.14" style="fill:#f2f2f2;fill-opacity:1;stroke-width:2"/></svg>