<svg xmlns="http://www.w3.org/2000/svg" xmlns:xlink="http://www.w3.org/1999/xlink" width="64" height="64" viewBox="0 0 64 64"><defs><linearGradient id="a"><stop offset="0" style="stop-color:#eaebed;stop-opacity:1"/><stop offset="1" style="stop-color:#f9fafa;stop-opacity:1"/></linearGradient><linearGradient xlink:href="#a" id="b" x1="16" x2="16" y1="30" y2="2" gradientTransform="scale(2)" gradientUnits="userSpaceOnUse"/></defs><rect width="56" height="56" x="4" y="5" ry="12" style="opacity:.2;fill:#000;stroke-width:3.5"/><rect width="56" height="56" x="4" y="4" ry="12" style="fill:url(#b);stroke-width:2"/><path d="M6.35 1.852a4.5 4.5 0 0 0-3.895 2.25l.147 2.623 1.8.75L6.35 6.35V4.101h3.895A4.5 4.5 0 0 0 6.35 1.852" style="fill:#1967d2;fill-opacity:1;stroke-width:.0175699" transform="translate(3.765 3.765)scale(4.4465)"/><path d="M1.852 6.35a4.5 4.5 0 0 0 4.498 4.498l1.973-1.055-.025-2.319L6.35 6.35 4.402 7.474 2.455 4.102a4.5 4.5 0 0 0-.603 2.248" style="fill:#669df6;fill-opacity:1;stroke-width:.0175699" transform="translate(3.765 3.765)scale(4.4465)"/><path d="m6.35 6.35 1.948 1.124-1.948 3.374A4.498 4.498 0 0 0 10.245 4.1H6.35Z" style="fill:#aecbfa;fill-opacity:1;stroke-width:.0175699" transform="translate(3.765 3.765)scale(4.4465)"/><path d="M8.599 6.35a2.249 2.249 0 1 1-4.498 0 2.249 2.249 0 0 1 4.498 0" style="fill:#fff;stroke-width:.0175699" transform="translate(3.765 3.765)scale(4.4465)"/><path d="M8.15 6.35a1.8 1.8 0 1 1-3.6 0 1.8 1.8 0 0 1 3.6 0" style="fill:#1a73e8;fill-opacity:1;stroke-width:.0172995" transform="translate(3.765 3.765)scale(4.4465)"/></svg>