<svg xmlns="http://www.w3.org/2000/svg" xmlns:xlink="http://www.w3.org/1999/xlink" width="64" height="64" viewBox="0 0 64 64"><defs><linearGradient id="a"><stop offset="0" style="stop-color:#eaebed;stop-opacity:1"/><stop offset="1" style="stop-color:#f9fafa;stop-opacity:1"/></linearGradient><linearGradient xlink:href="#a" id="c" x1="16" x2="16" y1="30" y2="2" gradientTransform="scale(2)" gradientUnits="userSpaceOnUse"/><linearGradient xlink:href="#b" id="d" x1="26" x2="26" y1="6" y2="26" gradientTransform="scale(2)" gradientUnits="userSpaceOnUse"/><linearGradient id="b"><stop offset="0" style="stop-color:#fff;stop-opacity:1"/><stop offset="1" style="stop-color:#fff;stop-opacity:0"/></linearGradient></defs><rect width="56" height="56" x="4" y="5" ry="12" style="opacity:.2;fill:#000;stroke-width:3.5"/><rect width="56" height="56" x="4" y="4" ry="12" style="fill:url(#c);stroke-width:2"/><path d="m50.586 16.238-8.237-3.99a2.48 2.48 0 0 0-2.84.486L12.543 37.162a1.68 1.68 0 0 0 .002 2.478l2.202 2.013a1.66 1.66 0 0 0 2.128.096l32.47-24.477c1.09-.83 2.654-.05 2.654 1.326v-.096c0-.966-.55-1.846-1.414-2.264" style="fill:#0072b0;stroke-width:2.00002"/><path d="m50.586 47.763-8.237 3.989a2.48 2.48 0 0 1-2.84-.486L12.543 25.94a1.68 1.68 0 0 1 .002-2.478l2.202-2.014a1.66 1.66 0 0 1 2.128-.095l32.47 25.376c1.09.831 2.654.05 2.654-1.325v.096c0 .965-.55 1.845-1.414 2.264" style="fill:#008eda;stroke-width:2.00002"/><path d="M42.35 51.752a2.48 2.48 0 0 1-2.842-.486c.922.927 2.499.27 2.499-1.041v-36.45c0-1.312-1.577-1.968-2.499-1.041a2.48 2.48 0 0 1 2.842-.486l8.235 3.983a2.51 2.51 0 0 1 1.416 2.265v27.008c0 .966-.55 1.847-1.416 2.265z" style="fill:#1eacf8;stroke-width:2.00002"/><path d="M41.228 12.001a2.5 2.5 0 0 0-.742.13c-.24.08-.47.194-.68.347-.041.03-.077.068-.117.101q-.093.073-.18.157l-15.59 14.12-7.043-5.503a1.66 1.66 0 0 0-2.129.094l-2.203 2.015a1.68 1.68 0 0 0 0 2.477l6.082 5.715-6.082 5.507a1.685 1.685 0 0 0 0 2.48l2.203 2.013a1.66 1.66 0 0 0 2.13.097l6.937-5.23 15.695 14.746a2.48 2.48 0 0 0 2.84.484l8.234-3.98c.22-.106.415-.244.59-.403a3 3 0 0 0 .239-.246v-.004a3 3 0 0 0 .207-.277v-.004q.184-.297.28-.637.05-.164.075-.336v-.007q.026-.174.027-.352V18.497a3 3 0 0 0-.027-.352v-.007a2.5 2.5 0 0 0-.8-1.504 2.5 2.5 0 0 0-.59-.402l-8.235-3.985a2.5 2.5 0 0 0-1.121-.246m.777 10.805v18.187l-11.843-9.257Z" style="opacity:.25;fill:url(#d);fill-opacity:1;stroke-width:2.00002"/></svg>