<svg xmlns="http://www.w3.org/2000/svg" xmlns:xlink="http://www.w3.org/1999/xlink" width="64" height="64" viewBox="0 0 64 64"><defs><radialGradient xlink:href="#a" id="n" cx="32" cy="60" r="27.5" fx="32" fy="60" gradientTransform="matrix(1.0367 0 0 1.01818 -1.174 -.582)" gradientUnits="userSpaceOnUse"/><radialGradient xlink:href="#b" id="m" cx="45.75" cy="51.799" r="27.5" fx="45.75" fy="51.799" gradientTransform="rotate(90 36.31 20.88)scale(1.0367)" gradientUnits="userSpaceOnUse"/><radialGradient xlink:href="#c" id="l" cx="6.551" cy="56.244" r="27.5" fx="6.551" fy="56.244" gradientTransform="rotate(223.96 18.602 30.433)scale(1.01754 1.32786)" gradientUnits="userSpaceOnUse"/><radialGradient xlink:href="#d" id="k" cx="32" cy="60" r="27.5" fx="32" fy="60" gradientTransform="matrix(-1.0367 0 0 -1.01818 65.174 64.582)" gradientUnits="userSpaceOnUse"/><radialGradient xlink:href="#e" id="j" cx="8.033" cy="59.247" r="27.5" fx="8.033" fy="59.247" gradientTransform="rotate(-45.368 -32.604 79.811)scale(1.33234 1.5578)" gradientUnits="userSpaceOnUse"/><radialGradient xlink:href="#f" id="i" cx="57.209" cy="56.944" r="27.5" fx="57.209" fy="56.944" gradientTransform="matrix(.9893 -1.03807 .9416 .89735 -52.548 65.685)" gradientUnits="userSpaceOnUse"/><radialGradient xlink:href="#g" id="h" cx="-1.675" cy="11.873" r="27.5" fx="-1.675" fy="11.873" gradientTransform="rotate(134.667 4.21 13.635)scale(1.19321 1.43705)" gradientUnits="userSpaceOnUse"/><linearGradient id="a"><stop offset="0" style="stop-color:#47c12a;stop-opacity:1"/><stop offset="1" style="stop-color:#47c12a;stop-opacity:0"/></linearGradient><linearGradient id="b"><stop offset="0" style="stop-color:#f5e224;stop-opacity:1"/><stop offset="1" style="stop-color:#f5e224;stop-opacity:0"/></linearGradient><linearGradient id="c"><stop offset="0" style="stop-color:#aa3ad4;stop-opacity:1"/><stop offset="1" style="stop-color:#aa3ad4;stop-opacity:0"/></linearGradient><linearGradient id="d"><stop offset="0" style="stop-color:#ff2a2a;stop-opacity:1"/><stop offset="1" style="stop-color:#ff2929;stop-opacity:.00392157"/></linearGradient><linearGradient id="e"><stop offset="0" style="stop-color:#f5cc24;stop-opacity:1"/><stop offset="1" style="stop-color:#f5cc24;stop-opacity:.00045133"/></linearGradient><linearGradient id="f"><stop offset="0" style="stop-color:#24c2f5;stop-opacity:1"/><stop offset="1" style="stop-color:#24c2f5;stop-opacity:0"/></linearGradient><linearGradient id="g"><stop offset="0" style="stop-color:#ff910c;stop-opacity:1"/><stop offset="1" style="stop-color:#ff910c;stop-opacity:0"/></linearGradient></defs><rect width="56" height="56" x="4" y="5" ry="12" style="opacity:.2;fill:#000;stroke-width:3.5"/><rect width="56" height="56" x="4" y="4" ry="12" style="fill:#fafafa;fill-opacity:1;stroke-width:2"/><rect width="56" height="56" x="4" y="4" ry="12" style="fill:url(#h);fill-opacity:1;stroke-width:1.01818;stroke-linejoin:round"/><rect width="56" height="56" x="4" y="4" ry="12" style="fill:url(#i);fill-opacity:1;stroke-width:1.01818;stroke-linejoin:round"/><rect width="56" height="56" x="4" y="4" ry="12" style="fill:url(#j);fill-opacity:1;stroke-width:1.01818;stroke-linejoin:round"/><rect width="56" height="56" x="4" y="4" ry="12" style="fill:url(#k);fill-opacity:1;stroke-width:1.01818;stroke-linejoin:round"/><rect width="56" height="56" x="4" y="4" ry="12" style="fill:url(#l);fill-opacity:1;stroke-width:1.01818;stroke-linejoin:round"/><rect width="56" height="56" x="4" y="4" ry="12" style="fill:url(#m);fill-opacity:1;stroke-width:1.01818;stroke-linejoin:round"/><rect width="56" height="56" x="4" y="4" ry="12" style="fill:url(#n);fill-opacity:1;stroke-width:1.01818;stroke-linejoin:round"/><path d="M14 10v13l1 1v4c0 .554.446 1 1 1s1-.446 1-1v-4l1-1V10Z" style="opacity:.7;fill:#fff;stroke-width:3;stroke-linecap:round;stroke-linejoin:round" transform="rotate(45 33.913 32.792)scale(2)"/><path d="M16 5c-1.108 0-2 .892-2 2v3h-1c-.554 0-1 .446-1 1s.446 1 1 1h6c.554 0 1-.446 1-1s-.446-1-1-1h-1V7c0-1.108-.892-2-2-2" style="fill:#fff;stroke-width:8;stroke-linecap:round;stroke-linejoin:round" transform="rotate(45 33.913 32.792)scale(2)"/></svg>