<svg xmlns="http://www.w3.org/2000/svg" xmlns:xlink="http://www.w3.org/1999/xlink" width="64" height="64" viewBox="0 0 64 64"><defs><linearGradient xlink:href="#a" id="c" x1="16" x2="16" y1="30" y2="2" gradientTransform="scale(2)" gradientUnits="userSpaceOnUse"/><linearGradient id="a"><stop offset="0" style="stop-color:#5d5d5d;stop-opacity:1"/><stop offset="1" style="stop-color:#272727;stop-opacity:1"/></linearGradient><linearGradient xlink:href="#b" id="d" x1="72" x2="24" y1="78" y2="18" gradientTransform="scale(.66667)" gradientUnits="userSpaceOnUse"/><linearGradient id="b"><stop offset="0" style="stop-color:#67def9;stop-opacity:1"/><stop offset="1" style="stop-color:#3bb4f6;stop-opacity:1"/></linearGradient></defs><rect width="56" height="56" x="4" y="5" ry="12" style="opacity:.2;fill:#000;stroke-width:3.5"/><rect width="56" height="56" x="4" y="4" ry="12" style="fill:url(#c);stroke-width:2"/><path d="M34.91 12.714C34.182 12.424 32.726 12 32 12s-2.182.424-2.91.714L17.455 17c-.835.33-1.455.769-1.455 1.429 0 .714.167 1.066.363 1.785l6.91 23.928s.294.83.727 1.43c.397.548 1.455 1.428 1.455 1.428l5.091 4.286S31.458 52 32 52s1.454-.714 1.454-.714L38.546 47s1.042-.892 1.454-1.428c.43-.56.728-1.43.728-1.43l6.908-23.928c.23-.707.364-1.071.364-1.785 0-.632-.466-1.081-1.454-1.429Z" style="fill:url(#d);fill-opacity:1;stroke-width:2"/><path d="m32 17-3 5 2 18 1 1 1-1 2-18zm-5 23.5L26 42l1 1.5 3-.5 1-1-1-1zm10 0-3 .5-1 1 1 1 3 .5 1-1.5zM32 43l-1 1-.5 3 1.5 1 1.5-1-.5-3z" style="fill:#4f4f4f;stroke-width:2"/></svg>