<svg xmlns="http://www.w3.org/2000/svg" xmlns:xlink="http://www.w3.org/1999/xlink" width="64" height="64" viewBox="0 0 64 64"><defs><linearGradient xlink:href="#a" id="b" x1="16" x2="16" y1="30" y2="2" gradientTransform="scale(2)" gradientUnits="userSpaceOnUse"/><linearGradient id="a"><stop offset="0" style="stop-color:#272727;stop-opacity:1"/><stop offset="1" style="stop-color:#5d5d5d;stop-opacity:1"/></linearGradient></defs><rect width="56" height="56" x="4" y="5" ry="12" style="opacity:.2;fill:#000;stroke-width:3.5"/><rect width="56" height="56" x="4" y="4" ry="12" style="fill:url(#b);stroke-width:2"/><path d="M25.209 10.776c-4.142 2.186-7.608 6.272-7.708 11.137-.08 2.525.448 5.189 1.682 7.364 4.331.074 8.792 2.546 10.31 6.758 2.225 5.569-.395 12.961-6.25 15.013-3.002 1.081-6.341.6-9.243-.566 3.967 2.498 9.25 3.452 13.514 1.096 2.232-1.182 4.196-2.971 5.534-5.09-2.106-3.797-2.189-8.89.697-12.32 3.699-4.715 11.404-6.166 16.113-2.125 2.438 2.057 3.688 5.19 4.13 8.283.178-4.68-1.629-9.726-5.79-12.243-2.139-1.364-4.665-2.113-7.173-2.286-2.236 3.723-6.604 6.344-11.017 5.563-5.93-.837-11.047-6.774-9.902-12.87.56-3.14 2.649-5.788 5.103-7.714" style="fill:#fff;stroke-width:1.05264"/></svg>