<svg xmlns="http://www.w3.org/2000/svg" xmlns:xlink="http://www.w3.org/1999/xlink" width="64" height="64" viewBox="0 0 64 64"><defs><linearGradient xlink:href="#a" id="b" x1="16" x2="16" y1="30" y2="2" gradientTransform="scale(2)" gradientUnits="userSpaceOnUse"/><linearGradient id="a"><stop offset="0" style="stop-color:#ef8d7a;stop-opacity:1"/><stop offset="1" style="stop-color:#e5443f;stop-opacity:1"/></linearGradient></defs><rect width="56" height="56" x="4" y="5" ry="12" style="opacity:.2;fill:#000;stroke-width:3.5"/><rect width="56" height="56" x="4" y="4" ry="12" style="fill:url(#b);stroke-width:2"/><path d="M9.993 25.638a1.455 1.455 0 1 0-.93 2.758c1.441.489 1.543.866 1.633 1.68.09.813-.219 2.134-.516 3.562s-.634 3.087.234 4.68c.87 1.592 2.79 2.464 5.664 2.648 1.232.079 1.926.485 2.477 1.07.552.585.937 1.422 1.164 2.32.455 1.798.258 3.657.258 3.657a1.455 1.455 0 0 0 2.89.336s.288-2.275-.328-4.711c-.308-1.218-.851-2.524-1.867-3.602-1.015-1.077-2.529-1.856-4.406-1.976-2.415-.155-3.062-.703-3.297-1.133-.234-.43-.21-1.39.063-2.695.271-1.305.737-2.822.554-4.477s-1.406-3.375-3.593-4.117" style="color:#000;opacity:.5;fill:#fff;stroke:none;stroke-width:4;stroke-linecap:round;-inkscape-stroke:none"/><path d="M49.602 14.74a2 2 0 0 0-1.32.586c-.05.05-.099.096-.141.149L22.828 40.779 20 49.264l8.484-2.828L53.79 21.123q.04-.034.078-.07l.07-.07a1.995 1.995 0 0 0 0-2.829l-2.828-2.828a2 2 0 0 0-1.507-.586" style="fill:#fff;stroke-width:1"/></svg>