<svg xmlns="http://www.w3.org/2000/svg" xmlns:xlink="http://www.w3.org/1999/xlink" width="64" height="64" viewBox="0 0 64 64"><defs><linearGradient id="a"><stop offset="0" style="stop-color:#eaebed;stop-opacity:1"/><stop offset="1" style="stop-color:#f9fafa;stop-opacity:1"/></linearGradient><linearGradient xlink:href="#a" id="d" x1="16" x2="16" y1="30" y2="2" gradientTransform="scale(2)" gradientUnits="userSpaceOnUse"/><linearGradient xlink:href="#b" id="e" x1="4" x2="13" y1="8.5" y2="8.5" gradientTransform="matrix(4.4444 0 0 4 -5.777 -2)" gradientUnits="userSpaceOnUse"/><linearGradient id="b"><stop offset="0" style="stop-color:#f50;stop-opacity:1"/><stop offset=".41" style="stop-color:#f50;stop-opacity:1"/><stop offset=".58" style="stop-color:#ff2000;stop-opacity:1"/><stop offset="1" style="stop-color:#ff2000;stop-opacity:1"/></linearGradient><linearGradient xlink:href="#c" id="f" x1="4.705" x2="12.295" y1="3.843" y2="3.843" gradientTransform="matrix(4.4444 0 0 4 -5.777 -2)" gradientUnits="userSpaceOnUse"/><linearGradient id="c"><stop offset="0" style="stop-color:#ff452a;stop-opacity:1"/><stop offset="1" style="stop-color:#ff2000;stop-opacity:1"/></linearGradient></defs><rect width="56" height="56" x="4" y="5" ry="12" style="opacity:.2;fill:#000;stroke-width:3.5"/><rect width="56" height="56" x="4" y="4" ry="12" style="fill:url(#d);stroke-width:2"/><path d="m15.638 19.002 11.52-6.337 23.185 4.339-5.616 22.854-13.635 7.918-11.375-9.118Z" style="fill:#fff;stroke-width:10.0415;stroke-linecap:round;stroke-linejoin:round"/><path d="m52 17.92-3.132-3.485c-1.291-1.073-3.26-1.337-4.89-.66l-1.502.625-3.81-4.4H25.334l-3.81 4.4-1.502-.625c-1.63-.677-3.598-.414-4.889.66L12 17.92l2.116 2.64L12 24.08l6.106 19.774c.836 2.006 2.518 3.687 4.73 4.734L32 54l9.164-5.412c2.212-1.047 3.894-2.728 4.73-4.734L52 24.08l-2.116-3.52Z" style="display:inline;fill:url(#e);fill-opacity:1;stroke-width:.964987"/><path d="m32 43.44-6.35-5.28s5.292-2.64 6.35-2.64 6.35 2.64 6.35 2.64zm14.476-18.691-4.952 5.491.603.748a2.82 2.82 0 0 1 .645 1.778c0 .686-.254 1.364-.772 1.927-.55.616-1.365 1.109-2.159 1.399-.54.202-1.069.308-1.492.308-.952 0-2.77-1.427-5.29-2.931v-.97l4.777-2.384c.39-.195.587-.576.489-.945l-1.544-5.778c.184-.358.47-.655.894-.849l5.965-1.983-3.174-.88h-2.117l-.015.015c-.105.001-.213.002-.32.035l-3.175.88c-.514.142-.816.586-.698 1.026l1.951 7.3L32 30.978l-4.093-2.043 1.951-7.3c.118-.44-.184-.883-.698-1.026l-3.175-.88a1.2 1.2 0 0 0-.32-.035l-.015-.015h-2.116l-3.175.88 5.966 1.983c.424.193.71.491.894.848l-1.544 5.778c-.098.37.098.751.488.945l4.778 2.384v.991c-2.59 1.535-4.355 2.911-5.29 2.911-.424 0-.953-.105-1.493-.308-.794-.29-1.608-.783-2.159-1.399-.984-1.082-1.037-2.57-.127-3.705l.604-.748-4.953-5.49c-.836-.925-.846-2.183-.044-3.125l3.936-5.465 2.89.484c.401.071.814.097 1.227.097a7.44 7.44 0 0 0 3.28-.748 7.1 7.1 0 0 1 3.185-.74c1.1 0 2.201.247 3.185.74a7.5 7.5 0 0 0 4.508.651l2.89-.484 3.936 5.465c.804.942.793 2.2-.045 3.124z" style="display:inline;fill:#fff;fill-opacity:1;stroke-width:.964987"/><path d="m25.333 10-3.81 4.398-1.502-.625c-1.41-.586-3.366-.563-4.887.664 1.838-.898 6.022.47 6.285 1.72l2.881.484c.402.07.82.101 1.233.101a7.45 7.45 0 0 0 3.281-.75A7.1 7.1 0 0 1 32 15.25c1.1 0 2.202.25 3.186.742 1.354.669 2.96.904 4.505.649l2.89-.485c.263-1.25 4.447-2.617 6.285-1.719-1.521-1.227-3.477-1.25-4.887-.664l-1.502.625L38.667 10Z" style="fill:url(#f);fill-opacity:1;stroke-width:7.79453;stroke-linecap:round;stroke-linejoin:round"/></svg>