<svg xmlns="http://www.w3.org/2000/svg" xmlns:xlink="http://www.w3.org/1999/xlink" width="64" height="64" viewBox="0 0 64 64"><defs><linearGradient xlink:href="#a" id="c" x1="16" x2="16" y1="30" y2="2" gradientTransform="scale(2)" gradientUnits="userSpaceOnUse"/><linearGradient id="b"><stop offset="0" style="stop-color:#886c38;stop-opacity:1"/><stop offset="1" style="stop-color:#d1bc92;stop-opacity:1"/></linearGradient><linearGradient xlink:href="#b" id="d" x1="16" x2="16" y1="30" y2="2" gradientTransform="scale(2)" gradientUnits="userSpaceOnUse"/><linearGradient id="a"><stop offset="0" style="stop-color:#2a2111;stop-opacity:1"/><stop offset="1" style="stop-color:#534323;stop-opacity:1"/></linearGradient></defs><rect width="56" height="56" x="4" y="5" ry="12" style="opacity:.2;fill:#000;stroke-width:3.5"/><rect width="56" height="56" x="4" y="4" ry="12" style="fill:url(#c);stroke-width:2"/><path d="M32 12c-11.046 0-20 8.954-20 20s8.954 20 20 20 20-8.954 20-20-8.954-20-20-20m2 4.129A16 16 0 0 1 47.871 30H34Zm-4 .027V30H16.156A16 16 0 0 1 30 16.156M16.156 34H30v13.844A16 16 0 0 1 16.156 34M34 34h13.844A16 16 0 0 1 34 47.844Z" style="fill:url(#d);stroke-width:4;stroke-linecap:round;stroke-linejoin:round"/></svg>