<svg xmlns="http://www.w3.org/2000/svg" xmlns:xlink="http://www.w3.org/1999/xlink" width="64" height="64" viewBox="0 0 64 64"><defs><linearGradient xlink:href="#a" id="b" x1="16" x2="16" y1="30" y2="2" gradientTransform="scale(2)" gradientUnits="userSpaceOnUse"/><linearGradient id="a"><stop offset="0" style="stop-color:#3465c4;stop-opacity:1"/><stop offset="1" style="stop-color:#68b4f7;stop-opacity:1"/></linearGradient></defs><rect width="56" height="56" x="4" y="5" ry="12" style="opacity:.2;fill:#000;stroke-width:3.5"/><rect width="56" height="56" x="4" y="4" ry="12" style="fill:url(#b);stroke-width:2"/><path d="M52 4.68V27h8V16c0-5.244-3.33-9.68-8-11.32" style="fill:#8ace64;fill-opacity:1;stroke-width:3.57772;stroke-linecap:round;stroke-linejoin:round"/><path d="M52 23v22h8V23Z" style="fill:#f44d4d;fill-opacity:1;stroke-width:1.7127;stroke-linecap:round;stroke-linejoin:round"/><path d="M52 41v18.32c4.67-1.64 8-6.076 8-11.32v-7z" style="fill:#ffbc42;fill-opacity:1;stroke-width:3.0984;stroke-linecap:round;stroke-linejoin:round"/><path d="M52 23v1h8v-1zm0 18v1h8v-1z" style="opacity:.2;fill:#000;fill-opacity:1;stroke-width:2.0656;stroke-linecap:round;stroke-linejoin:round"/><path d="M36.2 39.98q-1.256 0-2.415-.627-1.16-.66-1.63-2.07h-.032q-.282.753-.846 1.255a5 5 0 0 1-1.255.815 5.4 5.4 0 0 1-1.348.439q-.69.125-1.254.125-3.01 0-4.578-1.693t-1.568-4.547v-2.445q0-2.885 1.505-4.547 1.537-1.693 4.17-1.693 1.756 0 2.791.533t1.474 1.286v-1.63h2.947v9.876q0 1.317.533 1.944.534.596 1.537.596.783 0 1.38-.282.594-.314 1.003-.972.407-.69.627-1.756.22-1.098.22-2.665v-.345q0-2.634-.785-4.704-.752-2.07-2.257-3.511-1.506-1.474-3.7-2.227-2.195-.783-5.048-.783-2.445 0-4.484.783a9.7 9.7 0 0 0-3.512 2.29q-1.442 1.473-2.257 3.637t-.816 4.891v.533q0 2.916.784 5.174.816 2.226 2.32 3.73 1.506 1.538 3.67 2.321 2.193.816 4.922.815 2.352 0 4.672-.533a17.2 17.2 0 0 0 4.264-1.505l.878 2.195q-1.976 1.066-4.452 1.63-2.446.596-5.268.596-3.387 0-6.052-1.003t-4.515-2.885-2.853-4.546Q14 35.809 14 32.517v-.595q0-3.01.94-5.55.973-2.571 2.729-4.421 1.787-1.85 4.295-2.885 2.54-1.065 5.707-1.066 3.48 0 6.145 1.003 2.666.972 4.484 2.76t2.76 4.264q.94 2.477.94 5.456v.407q0 1.38-.282 2.822a8.4 8.4 0 0 1-.91 2.603 5.6 5.6 0 0 1-1.787 1.912q-1.097.753-2.822.753m-11.822-6.804q0 1.786.784 2.853.785 1.035 2.477 1.035a5 5 0 0 0 1.255-.157 2.8 2.8 0 0 0 1.097-.533q.502-.376.784-1.003t.282-1.568v-2.76q0-.626-.188-1.19a2.4 2.4 0 0 0-.564-1.036 2.6 2.6 0 0 0-1.066-.72q-.659-.283-1.6-.283-1.536 0-2.414.847-.846.846-.847 3.072z" style="font-weight:700;font-size:4.74057px;line-height:1.25;font-family:&quot;나눔스퀘어&quot;;-inkscape-font-specification:&quot;나눔스퀘어 Bold&quot;;fill:#fff;stroke-width:.78388"/></svg>