<svg xmlns="http://www.w3.org/2000/svg" xmlns:xlink="http://www.w3.org/1999/xlink" width="64" height="64" viewBox="0 0 64 64"><defs><linearGradient xlink:href="#a" id="c" x1="16" x2="16" y1="30" y2="2" gradientTransform="scale(2)" gradientUnits="userSpaceOnUse"/><linearGradient id="b"><stop offset="0" style="stop-color:#e9e9e9;stop-opacity:1"/><stop offset="1" style="stop-color:#d0d0d0;stop-opacity:1"/></linearGradient><linearGradient id="a"><stop offset="0" style="stop-color:#28b013;stop-opacity:1"/><stop offset="1" style="stop-color:#4ac265;stop-opacity:1"/></linearGradient><linearGradient xlink:href="#b" id="d" x1="11" x2="11" y1="4" y2="18" gradientTransform="translate(.571 .571)scale(2.85714)" gradientUnits="userSpaceOnUse"/></defs><rect width="56" height="56" x="4" y="5" ry="12" style="opacity:.2;fill:#000;stroke-width:4.9"/><rect width="56" height="56" x="4" y="4" ry="12" style="fill:url(#c);stroke-width:2"/><rect width="40" height="40" x="12" y="13" ry="8" style="opacity:.2;fill:#000;stroke-width:5.71428"/><rect width="40" height="40" x="12" y="12" ry="8" style="opacity:1;fill:url(#d);stroke-width:5.71428"/><path d="M33.522 38.15c-2.24 1.04-4.324 1.033-5.725.929-1.668-.12-3.011-.576-3.601-.976a.795.795 0 1 0-.892 1.316c.948.644 2.627 1.12 4.381 1.248.296.02.62.036.973.036 1.524 0 3.464-.148 5.536-1.112a.796.796 0 0 0 .384-1.056.8.8 0 0 0-1.056-.384m8.841-1.179c.077-6.909.785-19.966-12.441-18.91-13.06 1.051-9.597 14.845-9.792 19.466-.173 2.444-.984 5.432-2.13 8.473h3.53c.363-1.288.63-2.565.745-3.777q.318.223.683.428c.396.232.735.544 1.095.872.84.765 1.794 1.633 3.656 1.74.124.009.252.013.372.013 1.885 0 3.173-.824 4.209-1.488.496-.317.924-.589 1.328-.72 1.148-.36 2.149-.94 2.897-1.677.116-.116.224-.232.328-.356.416 1.528.988 3.249 1.62 4.965H46c-1.808-2.797-3.677-5.533-3.637-9.029m-20.969-3.757v-.004c-.13-2.252.949-4.148 2.41-4.236 1.46-.084 2.75 1.676 2.877 3.932h.004q.007.18.008.36c-.464.116-.88.284-1.254.484l-.004-.052c-.126-1.28-.809-2.248-1.528-2.16-.718.088-1.2 1.196-1.074 2.477.054.56.215 1.06.439 1.436-.056.044-.214.16-.395.292l-.5.368c-.544-.716-.917-1.74-.983-2.897m14.797 5.573c-.052 1.192-1.613 2.312-3.049 2.76l-.012.004c-.596.196-1.132.536-1.696.9-.948.604-1.932 1.237-3.349 1.237q-.145 0-.284-.012c-1.3-.077-1.907-.629-2.676-1.329-.406-.372-.826-.752-1.366-1.072l-.012-.004c-1.168-.66-1.893-1.48-1.94-2.192q-.032-.536.47-.916c.729-.544 1.217-.9 1.54-1.136.358-.264.467-.344.546-.42a4 4 0 0 0 .186-.18c.67-.648 1.788-1.736 3.504-1.736 1.053 0 2.213.404 3.449 1.2.584.38 1.092.556 1.736.776.44.152.94.324 1.612.612l.012.004c.624.26 1.365.728 1.329 1.504m-.344-2.8a7 7 0 0 0-.377-.172 21 21 0 0 0-1.492-.572c.224-.436.36-.98.372-1.569.032-1.432-.688-2.592-1.612-2.596-.92-.004-1.692 1.156-1.724 2.588v.14a8.3 8.3 0 0 0-1.672-.568 2 2 0 0 1-.008-.16c-.052-2.612 1.548-4.768 3.576-4.824s3.713 2.016 3.769 4.624c.02 1.18-.292 2.269-.832 3.109" style="opacity:.4;fill:#000;stroke-width:4.00058"/></svg>