<svg xmlns="http://www.w3.org/2000/svg" xmlns:xlink="http://www.w3.org/1999/xlink" width="64" height="64" viewBox="0 0 64 64"><defs><linearGradient xlink:href="#a" id="b" x1="16" x2="16" y1="30" y2="2" gradientTransform="scale(2)" gradientUnits="userSpaceOnUse"/><linearGradient id="a"><stop offset="0" style="stop-color:#017cd9;stop-opacity:1"/><stop offset="1" style="stop-color:#3fa3e8;stop-opacity:1"/></linearGradient></defs><rect width="56" height="56" x="4" y="5" ry="12" style="opacity:.2;fill:#000;stroke-width:3.5"/><rect width="56" height="56" x="4" y="4" ry="12" style="fill:url(#b);stroke-width:2"/><path d="M30.645 14.064a1 1 0 0 0-.645.934v14.657l-8.382-7.443a1 1 0 0 0-1.236 1.572l9.363 8.214-9.363 8.214a1 1 0 1 0 1.236 1.572L30 34.341v14.657a1 1 0 0 0 1.747.664l10-8.999a1 1 0 0 0-.13-1.45l-8.635-7.215 8.634-7.212a1 1 0 0 0 .13-1.451l-9.999-9.001c-.308-.278-.714-.418-1.102-.27M32 33.77l7.145 6.359L32 46.368zm0-3.544V17.628l7.145 6.241z" style="fill:#fff;stroke-width:2"/></svg>