<svg xmlns="http://www.w3.org/2000/svg" xmlns:xlink="http://www.w3.org/1999/xlink" width="64" height="64" viewBox="0 0 64 64"><defs><linearGradient xlink:href="#a" id="c" x1="16" x2="16" y1="30" y2="2" gradientTransform="scale(2)" gradientUnits="userSpaceOnUse"/><linearGradient id="a"><stop offset="0" style="stop-color:#28b013;stop-opacity:1"/><stop offset="1" style="stop-color:#4ac265;stop-opacity:1"/></linearGradient><linearGradient xlink:href="#b" id="d" x1="11" x2="11" y1="4" y2="18" gradientTransform="translate(5.286 5.286)scale(2.42857)" gradientUnits="userSpaceOnUse"/><linearGradient id="b"><stop offset="0" style="stop-color:#858585;stop-opacity:1"/><stop offset="1" style="stop-color:#595959;stop-opacity:1"/></linearGradient></defs><rect width="56" height="56" x="4" y="5" ry="12" style="opacity:.2;fill:#000;stroke-width:4.9"/><rect width="56" height="56" x="4" y="4" ry="12" style="fill:url(#c);stroke-width:2"/><path d="M25 11c-.554 0-1 .446-1 1v12H12c-.554 0-1 .446-1 1s.446 1 1 1h12v5H12c-.554 0-1 .446-1 1s.446 1 1 1h12v5H12c-.554 0-1 .446-1 1s.446 1 1 1h12v12c0 .554.446 1 1 1s1-.446 1-1V40h5v12c0 .554.446 1 1 1s1-.446 1-1V40h5v12c0 .554.446 1 1 1s1-.446 1-1V40h12c.554 0 1-.446 1-1s-.446-1-1-1H40v-5h12c.554 0 1-.446 1-1s-.446-1-1-1H40v-5h12c.554 0 1-.446 1-1s-.446-1-1-1H40V12c0-.554-.446-1-1-1s-1 .446-1 1v12h-5V12c0-.554-.446-1-1-1s-1 .446-1 1v12h-5V12c0-.554-.446-1-1-1m1 15h5v5h-5zm7 0h5v5h-5zm-7 7h5v5h-5zm7 0h5v5h-5z" style="fill:#f2f2f2;stroke-width:4.23623;stroke-linecap:round;stroke-linejoin:round"/><rect width="34" height="34" x="15" y="16" ry="6" style="opacity:.2;fill:#000;stroke-width:4.85714"/><rect width="34" height="34" x="15" y="15" ry="6" style="opacity:1;fill:url(#d);stroke-width:4.85714"/></svg>