<svg xmlns="http://www.w3.org/2000/svg" xmlns:xlink="http://www.w3.org/1999/xlink" width="64" height="64" viewBox="0 0 64 64"><defs><linearGradient xlink:href="#a" id="b" x1="16" x2="16" y1="30" y2="2" gradientTransform="scale(2)" gradientUnits="userSpaceOnUse"/><linearGradient id="a"><stop offset="0" style="stop-color:#ffde75;stop-opacity:1"/><stop offset="1" style="stop-color:#ffb251;stop-opacity:1"/></linearGradient></defs><rect width="56" height="56" x="4" y="5" ry="12" style="opacity:.2;fill:#000;stroke-width:3.5"/><rect width="56" height="56" x="4" y="4" ry="12" style="fill:url(#b);stroke-width:2"/><path d="M31.927 12.851a2 2 0 0 0-1.79 1.125l-5.04 10.347-11.402 1.712a2 2 0 0 0-1.094 3.407l8.284 8.01-1.899 11.363a2 2 0 0 0 2.923 2.094l10.167-5.408 10.222 5.322a2 2 0 0 0 2.891-2.118l-2-11.355 8.213-8.072a2 2 0 0 0-1.118-3.407l-11.417-1.61-5.134-10.308a2 2 0 0 0-1.806-1.102" style="color:#000;fill:#fff;stroke:none;stroke-width:5.26388;stroke-linecap:round;stroke-linejoin:round;paint-order:stroke fill markers"/></svg>