<svg xmlns="http://www.w3.org/2000/svg" xmlns:xlink="http://www.w3.org/1999/xlink" width="64" height="64" viewBox="0 0 64 64"><defs><linearGradient id="a"><stop offset="0" style="stop-color:#eaebed;stop-opacity:1"/><stop offset="1" style="stop-color:#f9fafa;stop-opacity:1"/></linearGradient><linearGradient xlink:href="#a" id="b" x1="16" x2="16" y1="30" y2="2" gradientTransform="scale(2)" gradientUnits="userSpaceOnUse"/></defs><rect width="56" height="56" x="4" y="5" ry="12" style="opacity:.2;fill:#000;stroke-width:3.5"/><rect width="56" height="56" x="4" y="4" ry="12" style="fill:url(#b);stroke-width:2"/><circle cx="32" cy="32" r="20" style="fill:#6e6e6e;fill-opacity:1;stroke-width:4;stroke-linecap:round;stroke-linejoin:round"/><path d="M32 18c-1.108 0-2 .892-2 2v12q0 .102.012.203a2 2 0 0 0 .05.297l.024.078.004.02q.026.079.059.156.036.09.082.176l.011.023q.08.15.184.281l.023.032q.066.077.137.148v.004l8.488 8.484a1.995 1.995 0 0 0 2.829 0 1.995 1.995 0 0 0 0-2.828L34 31.168V20c0-1.108-.892-2-2-2" style="fill:#fff;stroke-width:4;stroke-linecap:round;stroke-linejoin:round"/></svg>