<svg xmlns="http://www.w3.org/2000/svg" xmlns:xlink="http://www.w3.org/1999/xlink" width="64" height="64" viewBox="0 0 64 64"><defs><linearGradient xlink:href="#a" id="c" x1="16" x2="16" y1="30" y2="2" gradientTransform="scale(2)" gradientUnits="userSpaceOnUse"/><linearGradient xlink:href="#b" id="d" x1="5.873" x2="6.687" y1="1.069" y2="7.429" gradientTransform="scale(7.55905)" gradientUnits="userSpaceOnUse"/><linearGradient id="b"><stop offset="0" style="stop-color:#fff;stop-opacity:1"/><stop offset="1" style="stop-color:#fff;stop-opacity:0"/></linearGradient><linearGradient xlink:href="#b" id="e" x1="6.726" x2="1.828" y1="6.971" y2="1.619" gradientTransform="scale(7.55905)" gradientUnits="userSpaceOnUse"/><linearGradient xlink:href="#b" id="f" x1="6.738" x2="1.792" y1="1.827" y2="5.722" gradientTransform="scale(7.55905)" gradientUnits="userSpaceOnUse"/><linearGradient xlink:href="#b" id="g" x1="1.058" x2="7.171" y1="3.679" y2="3.679" gradientTransform="scale(7.55905)" gradientUnits="userSpaceOnUse"/><linearGradient id="a"><stop offset="0" style="stop-color:#7253e1;stop-opacity:1"/><stop offset="1" style="stop-color:#b491dd;stop-opacity:1"/></linearGradient></defs><rect width="56" height="56" x="4" y="5" ry="12" style="opacity:.2;fill:#000;stroke-width:3.5"/><rect width="56" height="56" x="4" y="4" ry="12" style="fill:url(#c);stroke-width:2"/><path d="M32.859 8a.864.864 0 0 0 .008 1.727c2.397-.013 4.49 1.833 6.175 5.125 1.686 3.291 2.85 7.914 3.34 12.879.98 9.93-1.114 19.369-5.91 24.448a.864.864 0 1 0 1.257 1.187c5.496-5.819 7.388-15.558 6.376-25.807-.506-5.125-1.692-9.91-3.528-13.493C38.742 10.483 36.142 7.983 32.86 8" style="color:#000;opacity:.8;fill:url(#d);fill-opacity:1;stroke:none;stroke-width:2;stroke-linecap:round;stroke-linejoin:round;-inkscape-stroke:none"/><path d="M14.406 18.84a.864.864 0 0 0-.926.797c-.28 3.923 1.384 8.28 4.074 12.531 2.69 4.25 6.433 8.4 10.48 11.836s8.388 6.158 12.344 7.516c3.957 1.357 7.7 1.356 10.102-1.043a.864.864 0 0 0 .004-1.223.864.864 0 0 0-1.223 0c-1.763 1.761-4.672 1.884-8.32.633-3.649-1.252-7.865-3.868-11.79-7.2-3.923-3.331-7.563-7.378-10.136-11.445-2.573-4.066-4.051-8.147-3.813-11.48a.864.864 0 0 0-.796-.922" style="color:#000;opacity:.8;fill:url(#e);fill-opacity:1;stroke:none;stroke-width:2;stroke-linecap:round;stroke-linejoin:round;-inkscape-stroke:none"/><path d="M45.37 13.473c-1.003-.023-2.067.1-3.156.347-3.485.793-7.414 2.812-11.262 5.59-7.695 5.556-15.08 14.14-17.214 22.504a.864.864 0 0 0 .625 1.05.864.864 0 0 0 1.05-.624c1.966-7.699 9.122-16.167 16.551-21.531 3.715-2.682 7.498-4.592 10.633-5.305s5.447-.279 6.8 1.504a.864.864 0 0 0 1.212.164.864.864 0 0 0 .168-1.211c-.93-1.224-2.2-1.957-3.672-2.285a9 9 0 0 0-1.735-.203" style="color:#000;opacity:.8;fill:url(#f);fill-opacity:1;stroke:none;stroke-width:2;stroke-linecap:round;stroke-linejoin:round;-inkscape-stroke:none"/><path d="M33.261 21.371a57 57 0 0 0-7.57.516c-4.897.667-9.357 1.968-12.606 3.867-3.248 1.9-5.385 4.55-5.05 7.715a.864.864 0 0 0 .949.77.864.864 0 0 0 .77-.95c-.245-2.31 1.257-4.32 4.202-6.043s7.234-3.003 11.97-3.648c9.47-1.29 20.746-.006 26.917 4.426a.864.864 0 0 0 1.203-.2.864.864 0 0 0-.195-1.203c-5.124-3.68-12.895-5.256-20.59-5.25" style="color:#000;opacity:.8;fill:url(#g);fill-opacity:1;stroke:none;stroke-width:2;stroke-linecap:round;stroke-linejoin:round;-inkscape-stroke:none"/><circle cx="15" cy="43" r="3" style="fill:#fff;fill-opacity:1;stroke-width:3;stroke-linecap:round;stroke-linejoin:round"/><circle cx="15" cy="17" r="3" style="fill:#fff;fill-opacity:1;stroke-width:2;stroke-linecap:round;stroke-linejoin:round"/><circle cx="53" cy="27" r="3" style="fill:#fff;fill-opacity:1;stroke-width:2;stroke-linecap:round;stroke-linejoin:round"/><circle cx="37" cy="53" r="3" style="fill:#fff;fill-opacity:1;stroke-width:2;stroke-linecap:round;stroke-linejoin:round"/></svg>