<svg xmlns="http://www.w3.org/2000/svg" xmlns:xlink="http://www.w3.org/1999/xlink" width="64" height="64" viewBox="0 0 64 64"><defs><linearGradient xlink:href="#a" id="b" x1="16" x2="16" y1="30" y2="2" gradientTransform="scale(2)" gradientUnits="userSpaceOnUse"/><linearGradient id="a"><stop offset="0" style="stop-color:#78609f;stop-opacity:1"/><stop offset="1" style="stop-color:#7d97e6;stop-opacity:1"/></linearGradient></defs><rect width="56" height="56" x="4" y="5" ry="12" style="opacity:.2;fill:#000;stroke-width:3.5"/><rect width="56" height="56" x="4" y="4" ry="12" style="fill:url(#b);stroke-width:2"/><circle cx="32" cy="32" r="20" style="opacity:.4;fill:#fff;stroke-width:5.71428;stroke-linecap:round;stroke-linejoin:round"/><circle cx="32" cy="32" r="14" style="opacity:.6;fill:#fff;stroke-width:4.03866;stroke-linecap:round;stroke-linejoin:round"/><circle cx="32" cy="32" r="8" style="opacity:.2;fill:#000;stroke-width:4;stroke-linecap:round;stroke-linejoin:round"/><path d="M30 22c-.554 0-1 .446-1 1v4l2 2-2 2v10c0 .554.446 1 1 1h4c.554 0 1-.446 1-1v-4l-2-2 2-2V23c0-.554-.446-1-1-1z" style="fill:#333;stroke-width:2;stroke-linecap:round;stroke-linejoin:round"/></svg>