<svg xmlns="http://www.w3.org/2000/svg" xmlns:xlink="http://www.w3.org/1999/xlink" width="64" height="64" viewBox="0 0 64 64"><defs><linearGradient xlink:href="#a" id="b" x1="16" x2="16" y1="30" y2="2" gradientTransform="scale(2)" gradientUnits="userSpaceOnUse"/><linearGradient id="a"><stop offset="0" style="stop-color:#0091f9;stop-opacity:1"/><stop offset="1" style="stop-color:#41bbff;stop-opacity:1"/></linearGradient></defs><rect width="56" height="56" x="4" y="5" ry="12" style="opacity:.2;fill:#000;stroke-width:3.5"/><rect width="56" height="56" x="4" y="4" ry="12" style="fill:url(#b);stroke-width:2"/><path d="M32 12c-5.54 0-10 4.46-10 10v6h-2c-2.216 0-4 1.784-4 4v16c0 2.216 1.784 4 4 4h24c2.216 0 4-1.784 4-4V32c0-2.216-1.784-4-4-4h-2v-6c0-5.54-4.46-10-10-10m0 4c3.324 0 6 2.676 6 6v6H26v-6c0-3.324 2.676-6 6-6" style="fill:#fff;stroke-width:2;stroke-linecap:round;stroke-linejoin:round"/></svg>