<svg xmlns="http://www.w3.org/2000/svg" xmlns:xlink="http://www.w3.org/1999/xlink" width="64" height="64" viewBox="0 0 64 64"><defs><linearGradient xlink:href="#a" id="b" x1="16" x2="16" y1="30" y2="2" gradientTransform="scale(2)" gradientUnits="userSpaceOnUse"/><linearGradient id="a"><stop offset="0" style="stop-color:#9aafb9;stop-opacity:1"/><stop offset="1" style="stop-color:#688492;stop-opacity:1"/></linearGradient></defs><rect width="56" height="56" x="4" y="5" ry="12" style="opacity:.2;fill:#000;stroke-width:3.5"/><rect width="56" height="56" x="4" y="4" ry="12" style="fill:url(#b);stroke-width:2"/><path d="M50 14s-5.402-.15-10.797 2.55c-1.649.75-3.446 1.95-4.945 3.45-2.424 2.424-6.191 6.885-9.156 10.492h-6.586l-2.996 4.496 5.082 1.375c.015.182.066.44.207.785l-.793 1.739c-.016.037-.23.672 1.949 2.996 2.324 2.325 3.102 2.117 3.148 2.101l1.864-.847a2.2 2.2 0 0 0 .62.117l1.415 5.226 4.496-3v-6.785c3.632-2.936 8.091-6.626 10.496-8.953 1.499-1.499 2.7-3.3 3.598-4.949C50.147 19.401 50 14.007 50 14m-10 6c2.2 0 4 1.798 4 4 0 2.2-1.802 4-4 4-2.202 0-4-1.8-4-4 0-2.202 1.798-4 4-4M18.066 39.488c-.3.303-.75.597-1.05.899-3.448 3.445-2.996 9.593-2.996 9.593s6.144.448 9.593-3c.302-.3.599-.747.899-1.046-.3-.15-.45-.298-.75-.45-2.85 2.25-7.196 1.95-7.196 1.95s-.3-4.349 1.95-7.196c-.152-.3-.3-.45-.45-.75" style="fill:#f9f9f9;stroke-width:3.59996"/></svg>