<svg xmlns="http://www.w3.org/2000/svg" xmlns:xlink="http://www.w3.org/1999/xlink" width="64" height="64" viewBox="0 0 64 64"><defs><linearGradient xlink:href="#a" id="b" x1="2" x2="30" y1="30" y2="2" gradientTransform="scale(2)" gradientUnits="userSpaceOnUse"/><linearGradient id="a"><stop offset="0" style="stop-color:#eb7b51;stop-opacity:1"/><stop offset=".3" style="stop-color:#ee5b85;stop-opacity:1"/><stop offset=".687" style="stop-color:#c05fe9;stop-opacity:1"/><stop offset="1" style="stop-color:#2f95f5;stop-opacity:1"/></linearGradient></defs><rect width="56" height="56" x="4" y="5" ry="12" style="opacity:.2;fill:#000;stroke-width:3.5"/><rect width="56" height="56" x="4" y="4" ry="12" style="fill:url(#b);stroke-width:2"/><rect width="30" height="22" x="17" y="12" ry="4" style="opacity:.5;fill:#fff;stroke-width:8;stroke-linecap:round;stroke-linejoin:round"/><path d="M17 30v4c0 2.216 1.784 4 4 4h4a3 3 0 0 1 3 3v7c0 2.216 1.784 4 4 4s4-1.784 4-4v-7a3 3 0 0 1 3-3h4c2.216 0 4-1.784 4-4v-4z" style="fill:#fff;stroke-width:8;stroke-linecap:round;stroke-linejoin:round"/></svg>