<svg xmlns="http://www.w3.org/2000/svg" xmlns:xlink="http://www.w3.org/1999/xlink" width="64" height="64" viewBox="0 0 64 64"><defs><linearGradient xlink:href="#a" id="b" x1="16" x2="16" y1="30" y2="2" gradientTransform="scale(2)" gradientUnits="userSpaceOnUse"/><linearGradient id="a"><stop offset="0" style="stop-color:#0861bd;stop-opacity:1"/><stop offset="1" style="stop-color:#2da9ff;stop-opacity:1"/></linearGradient></defs><rect width="56" height="56" x="4" y="5" ry="12" style="opacity:.2;fill:#000;stroke-width:3.5"/><rect width="56" height="56" x="4" y="4" ry="12" style="fill:url(#b);stroke-width:2"/><path d="M32 14a4 4 0 1 0 0 8 4 4 0 0 0 0-8M19 26a1 1 0 0 0 0 2h9v21a1 1 0 0 0 2 0V38h4v11a1 1 0 0 0 2 0V28h9a1 1 0 0 0 0-2z" style="fill:#fff;stroke-width:4"/></svg>