<svg xmlns="http://www.w3.org/2000/svg" xmlns:xlink="http://www.w3.org/1999/xlink" width="64" height="64" viewBox="0 0 64 64"><defs><linearGradient id="a"><stop offset="0" style="stop-color:#eaebed;stop-opacity:1"/><stop offset="1" style="stop-color:#f9fafa;stop-opacity:1"/></linearGradient><linearGradient xlink:href="#a" id="c" x1="16" x2="16" y1="30" y2="2" gradientTransform="scale(2)" gradientUnits="userSpaceOnUse"/><linearGradient xlink:href="#b" id="d" x1="8" x2="8" y1="14" y2="0" gradientTransform="matrix(3.6 0 0 4 3.2 4)" gradientUnits="userSpaceOnUse"/><linearGradient id="b"><stop offset="0" style="stop-color:#0091f9;stop-opacity:1"/><stop offset="1" style="stop-color:#41bbff;stop-opacity:1"/></linearGradient></defs><rect width="56" height="56" x="4" y="5" ry="12" style="opacity:.2;fill:#000;stroke-width:3.5"/><rect width="56" height="56" x="4" y="4" ry="12" style="fill:url(#c);stroke-width:2"/><rect width="36" height="4" x="14" y="20" ry="2" style="fill:url(#d);stroke-width:3.79474"/><rect width="36" height="4" x="14" y="40" ry="2" style="opacity:.4;fill:#000;stroke-width:3.79474"/><path d="M44 15a7 7 0 1 0 0 14 7 7 0 0 0 0-14M20 35a7 7 0 1 0 0 14 7 7 0 0 0 0-14" style="opacity:.2;fill:#000;stroke-width:2.33333"/><path d="M44 16a6 6 0 1 0 0 12 6 6 0 0 0 0-12M20 36a6 6 0 1 0 0 12 6 6 0 0 0 0-12" style="fill:#f9f9f9;fill-opacity:1;stroke-width:12;stroke-linecap:round;stroke-linejoin:round"/></svg>