<svg xmlns="http://www.w3.org/2000/svg" xmlns:xlink="http://www.w3.org/1999/xlink" width="64" height="64" viewBox="0 0 64 64"><defs><linearGradient xlink:href="#a" id="b" x1="16" x2="16" y1="30" y2="2" gradientTransform="scale(2)" gradientUnits="userSpaceOnUse"/><linearGradient id="a"><stop offset="0" style="stop-color:#38b517;stop-opacity:1"/><stop offset="1" style="stop-color:#97e527;stop-opacity:1"/></linearGradient></defs><rect width="56" height="56" x="4" y="5" ry="12" style="opacity:.2;fill:#000;stroke-width:3.5"/><rect width="56" height="56" x="4" y="4" ry="12" style="fill:url(#b);stroke-width:2"/><path d="M4 20v28c0 6.648 5.352 12 12 12h32c6.648 0 12-5.352 12-12v-4z" style="opacity:.2;fill:#000;stroke-width:6;stroke-linecap:round;stroke-linejoin:round"/><path d="M24 20v24h9.643C38.273 44 42 40.135 42 35.333v-6.666C42 23.865 38.273 20 33.643 20M28 24h5.643C36.203 24 38 26.012 38 28.667v6.666C38 37.988 36.203 40 33.643 40H28Z" style="fill:#fff;stroke-width:2"/></svg>