<svg xmlns="http://www.w3.org/2000/svg" xmlns:xlink="http://www.w3.org/1999/xlink" width="64" height="64" viewBox="0 0 64 64"><defs><linearGradient xlink:href="#a" id="b" x1="16" x2="16" y1="30" y2="2" gradientTransform="scale(2)" gradientUnits="userSpaceOnUse"/><linearGradient id="a"><stop offset="0" style="stop-color:#272727;stop-opacity:1"/><stop offset="1" style="stop-color:#5d5d5d;stop-opacity:1"/></linearGradient></defs><rect width="56" height="56" x="4" y="5" ry="12" style="opacity:.2;fill:#000;stroke-width:3.5"/><rect width="56" height="56" x="4" y="4" ry="12" style="fill:url(#b);stroke-width:2"/><path d="M26 39v2h26v-2zm-14 4v2h40v-2zm0 4v2h26v-2z" style="fill:#999;stroke-width:6.69328;stroke-linecap:round;stroke-linejoin:round"/><path d="M12 31v2h10v-2zm0 4v2h10v-2z" style="fill:#be4747;fill-opacity:1;stroke-width:8;stroke-linecap:round;stroke-linejoin:round"/><path d="M26 31v2h26v-2zm0 4v2h16v-2z" style="fill:#7ebe47;fill-opacity:1;stroke-width:8;stroke-linecap:round;stroke-linejoin:round"/><path d="M12 23v2h10v-2zm0 4v2h10v-2z" style="fill:#7849a6;fill-opacity:1;stroke-width:8;stroke-linecap:round;stroke-linejoin:round"/><path d="M26 23v2h26v-2zm0 4v2h16v-2z" style="fill:#bb59a3;fill-opacity:1;stroke-width:8;stroke-linecap:round;stroke-linejoin:round"/><path d="M12 15v2h40v-2zm0 4v2h26v-2z" style="fill:#4775be;fill-opacity:1;stroke-width:8;stroke-linecap:round;stroke-linejoin:round"/></svg>