<svg xmlns="http://www.w3.org/2000/svg" xmlns:xlink="http://www.w3.org/1999/xlink" width="64" height="64" viewBox="0 0 64 64"><defs><linearGradient xlink:href="#a" id="b" x1="16" x2="16" y1="30" y2="2" gradientTransform="scale(2)" gradientUnits="userSpaceOnUse"/><linearGradient id="a"><stop offset="0" style="stop-color:#35b360;stop-opacity:1"/><stop offset="1" style="stop-color:#82d3a7;stop-opacity:1"/></linearGradient></defs><rect width="56" height="56" x="4" y="5" ry="12" style="opacity:.2;fill:#000;stroke-width:3.5"/><rect width="56" height="56" x="4" y="4" ry="12" style="fill:url(#b);stroke-width:2"/><path d="m28.434 22-6.325 18.816-2.109.399V42h6v-.785l-1.785-.399L25.684 36h7.113l1.844 4.816-2.641.399V42h8v-.785l-2.355-.399L31.062 22Zm.648 3.527 3.285 8.5h-5.863ZM45.828 28c-1.216 0-2.726.167-4.328.5v3h.934l.504-1.746c.82-.447 1.827-.668 2.816-.668q1.096 0 1.613.656c.356.438.59 1.116.59 2.04v2.19l-2.547.055c-1.503.029-2.35.23-3.14.543q-1.189.456-1.739 1.34-.532.871-.531 2.215C40 40.789 41.191 42 43.574 42c1.75 0 3.342-.54 4.469-1.625l.23 1.625H52v-.648l-1-.36v-9.34c-.008-1.236-.4-2.154-1.121-2.754-.712-.599-2.528-.898-4.05-.898M48 35.02v4.625c-.494.228-.888.422-1.383.574-.484.142-.765.21-1.437.21-1.414 0-2.121-.696-2.121-2.37q0-1.57.699-2.243c.474-.447 1.073-.69 2.398-.738z" style="fill:#fff;stroke-width:1"/><path d="M16 4C9.352 4 4 9.352 4 16v32c0 6.648 5.352 12 12 12z" style="opacity:.5;fill:#000;stroke-width:2"/></svg>