<svg xmlns="http://www.w3.org/2000/svg" xmlns:xlink="http://www.w3.org/1999/xlink" width="64" height="64" viewBox="0 0 64 64"><defs><linearGradient xlink:href="#a" id="b" x1="16" x2="16" y1="30" y2="2" gradientTransform="scale(2)" gradientUnits="userSpaceOnUse"/><linearGradient id="a"><stop offset="0" style="stop-color:#5865f2;stop-opacity:1"/><stop offset="1" style="stop-color:#7e89e3;stop-opacity:1"/></linearGradient></defs><rect width="56" height="56" x="4" y="5" ry="12" style="opacity:.2;fill:#000;stroke-width:3.5"/><rect width="56" height="56" x="4" y="4" ry="12" style="fill:url(#b);stroke-width:2"/><path d="M26.842 18.002a29.2 29.2 0 0 0-7.328 2.318.1.1 0 0 0-.045.041c-4.667 7.115-5.948 14.056-5.32 20.91a.13.13 0 0 0 .047.086c3.079 2.308 6.06 3.709 8.988 4.637a.12.12 0 0 0 .127-.04c.692-.966 1.31-1.763 1.84-2.833a.12.12 0 0 0-.063-.162c-.979-.379-1.91-.84-2.807-1.365-.07-.043-.078-.146-.013-.196.188-.144.378-.295.558-.447a.11.11 0 0 1 .118-.015c5.891 2.744 12.27 2.744 18.091 0a.1.1 0 0 1 .116.013c.18.152.37.305.56.45a.12.12 0 0 1-.012.195c-.896.535-1.828.987-2.808 1.365a.117.117 0 0 0-.06.162c.54 1.069 1.155 1.865 1.835 2.83.029.041.08.058.127.043 2.942-.928 5.925-2.329 9.004-4.636a.12.12 0 0 0 .049-.086c.75-7.925-1.261-14.805-5.326-20.907a.1.1 0 0 0-.045-.045 29.2 29.2 0 0 0-7.326-2.318.11.11 0 0 0-.12.055c-.316.574-.664.643-.91 1.232a26.9 26.9 0 0 0-8.232 0c-.246-.602-.608-.658-.926-1.232a.115.115 0 0 0-.119-.055M25.496 31c1.965 0 3.535 1.585 3.504 3.5 0 1.93-1.555 3.5-3.504 3.5A3.51 3.51 0 0 1 22 34.5c0-1.93 1.547-3.5 3.496-3.5M38.5 31c1.965 0 3.53 1.585 3.5 3.5 0 1.93-1.535 3.5-3.5 3.5-1.918 0-3.5-1.57-3.5-3.5s1.551-3.5 3.5-3.5" style="fill:#fff;stroke-width:1"/></svg>