<svg xmlns="http://www.w3.org/2000/svg" xmlns:xlink="http://www.w3.org/1999/xlink" width="64" height="64" viewBox="0 0 64 64"><defs><linearGradient xlink:href="#a" id="b" x1="16" x2="16" y1="30" y2="2" gradientTransform="scale(2)" gradientUnits="userSpaceOnUse"/><linearGradient id="a"><stop offset="0" style="stop-color:#a1a1a1;stop-opacity:1"/><stop offset="1" style="stop-color:#dedede;stop-opacity:1"/></linearGradient></defs><rect width="56" height="56" x="4" y="5" ry="12" style="opacity:.2;fill:#000;stroke-width:3.5"/><rect width="56" height="56" x="4" y="4" ry="12" style="fill:url(#b);stroke-width:2"/><path d="M32 12c-11.046 0-20 8.954-20 20s8.954 20 20 20 20-8.954 20-20-8.954-20-20-20m0 14a6 6 0 1 1 0 12 6 6 0 0 1 0-12" style="opacity:.6;fill:#fff;stroke-width:4;stroke-linecap:round;stroke-linejoin:round;paint-order:stroke fill markers"/><path d="M46 53.464a4 4 0 0 0 4-6.928L30.678 40Z" style="fill:#fff;stroke-width:8;stroke-linecap:round;stroke-linejoin:round;paint-order:stroke fill markers"/></svg>