<svg xmlns="http://www.w3.org/2000/svg" xmlns:xlink="http://www.w3.org/1999/xlink" width="64" height="64" viewBox="0 0 64 64"><defs><linearGradient id="a"><stop offset="0" style="stop-color:#eaebed;stop-opacity:1"/><stop offset="1" style="stop-color:#f9fafa;stop-opacity:1"/></linearGradient><linearGradient xlink:href="#a" id="b" x1="16" x2="16" y1="30" y2="2" gradientTransform="scale(2)" gradientUnits="userSpaceOnUse"/></defs><rect width="56" height="56" x="4" y="5" ry="12" style="opacity:.2;fill:#000;stroke-width:3.5"/><rect width="56" height="56" x="4" y="4" ry="12" style="fill:url(#b);stroke-width:2"/><path d="M12 14v2h2v12h-2v2h10v-2h2V16h-2v-2zm16 0v2h-2v12h2v2h8v-2h2V16h-2v-2zm14 0v2h-2v4h2v2h4v2h2v4h-4v-4h-4v4h2v2h8v-2h2v-4h-2v-2h-2v-2h-4v-4h4v4h4v-4h-2v-2zm-24 2h2v12h-2zm12 0h4v12h-4ZM12 34v2h2v12h-2v2h10v-2h2v-6h-2v-2h2v-4h-2v-2zm16 0v2h-2v12h2v2h8v-2h2V36h-2v-2zm10 0v2h2v4h2v4h-2v4h-2v2h4v-2h2v-2h2v2h2v2h4v-2h-2v-4h-2v-4h2v-4h2v-2h-4v2h-2v2h-2v-2h-2v-2zm-20 2h2v4h-2zm12 0h4v12h-4zm-12 6h2v6h-2z" style="fill:#6f6f6f;fill-opacity:1;stroke-width:2"/></svg>