<svg xmlns="http://www.w3.org/2000/svg" xmlns:xlink="http://www.w3.org/1999/xlink" width="64" height="64" viewBox="0 0 64 64"><defs><linearGradient xlink:href="#a" id="b" x1="16" x2="16" y1="30" y2="2" gradientTransform="scale(2)" gradientUnits="userSpaceOnUse"/><linearGradient id="a"><stop offset="0" style="stop-color:#0091f9;stop-opacity:1"/><stop offset="1" style="stop-color:#41bbff;stop-opacity:1"/></linearGradient></defs><rect width="56" height="56" x="4" y="5" ry="12" style="opacity:.2;fill:#000;stroke-width:3.5"/><rect width="56" height="56" x="4" y="4" ry="12" style="fill:url(#b);stroke-width:2"/><rect width="4" height="36" x="14" y="14" ry="2" style="opacity:.4;fill:#000;stroke-width:3.79474"/><rect width="4" height="36" x="30" y="14" ry="2" style="opacity:.4;fill:#000;stroke-width:3.79474"/><rect width="4" height="36" x="46" y="14" ry="2" style="opacity:.4;fill:#000"/><rect width="4" height="26" x="14" y="24" ry="2" style="fill:#bef3ff;fill-opacity:1;stroke-width:2"/><rect width="4" height="12" x="30" y="38" ry="2" style="fill:#bef3ff;fill-opacity:1;stroke-width:2"/><rect width="4" height="21" x="46" y="29" ry="2" style="fill:#bef3ff;fill-opacity:1;stroke-width:2"/><path d="M16 20a5 5 0 1 0 0 10 5 5 0 0 0 0-10m32 4a5 5 0 1 0 0 10 5 5 0 0 0 0-10m-16 9a5 5 0 1 0 0 10 5 5 0 0 0 0-10" style="opacity:.2;fill:#000;stroke-width:1.66666"/><path d="M16 21a4 4 0 1 0 0 8 4 4 0 0 0 0-8m32 4a4 4 0 1 0 0 8 4 4 0 0 0 0-8m-16 9a4 4 0 1 0 0 8 4 4 0 0 0 0-8" style="fill:#f9f9f9;fill-opacity:1;stroke-width:8;stroke-linecap:round;stroke-linejoin:round"/></svg>