<svg xmlns="http://www.w3.org/2000/svg" width="64" height="64" viewBox="0 0 64 64"><rect width="56" height="56" x="4" y="5" ry="12" style="opacity:.2;fill:#000;stroke-width:3.5"/><rect width="56" height="56" x="4" y="4" ry="12" style="fill:#494c60;stroke-width:2;fill-opacity:1"/><path d="M32.86 10.003a3 3 0 1 0 1.728 5.541c.905.982 1.73 2.235 2.447 3.686-3.755 1.255-7.816 3.348-11.453 5.889-2.338 1.632-4.239 3.68-5.713 5.884l-.183-.23c-2.967-3.771-4.21-7.843-3.157-10.358.546-1.304 1.296-1.865 2.239-2.156.943-.29 2.125-.234 3.285.024 2.32.515 4.43 1.773 4.43 1.773a1 1 0 0 0 1.035-1.713s-2.299-1.406-5.032-2.014a10.7 10.7 0 0 0-2.129-.269 7 7 0 0 0-2.177.287c-1.435.442-2.754 1.523-3.496 3.297-1.524 3.64.215 8.276 3.431 12.365q.317.405.656.803c-1.336 2.436-2.184 4.972-2.556 7.29a3 3 0 1 0 2.021.165c.33-1.827 1.002-3.859 2.014-5.854 3.052 3.06 6.993 5.604 11.283 6.768 2.597.704 5.255.885 7.717.78a23 23 0 0 1-.646 2.32c-.643 1.888-1.493 3.404-2.47 4.386-.976.982-2.022 1.454-3.323 1.403-2.87-.114-4.494-1.427-5.512-2.742-1.018-1.316-1.328-2.567-1.328-2.567a1 1 0 0 0-1.942.477s.406 1.658 1.688 3.314 3.54 3.378 7.013 3.516c1.87.074 3.54-.7 4.823-1.99s2.235-3.071 2.943-5.155c.332-.976.61-2.023.836-3.12a35.4 35.4 0 0 0 5.283-.983 3 3 0 1 0-.613-1.938 36 36 0 0 1-4.309.81c.424-3.058.482-6.41.194-9.75-.29-3.346-.968-6.604-2.041-9.448l.084-.022c2.015-.489 3.803-.627 5.117-.4s2.09.728 2.515 1.617c2.03 4.235-1.343 8.871-1.343 8.871a1 1 0 0 0 1.601 1.2s4.171-5.453 1.545-10.934c-.738-1.541-2.248-2.426-3.978-2.725-.865-.15-1.8-.176-2.793-.098a20 20 0 0 0-3.137.526q-.2.048-.4.1c-.875-1.846-1.943-3.45-3.203-4.706a3 3 0 0 0-2.995-3.92M33 12a1 1 0 1 1 0 2 1 1 0 0 1 0-2m4.848 9.073c1.045 2.66 1.766 5.787 2.047 9.043.29 3.372.198 6.77-.258 9.773-2.448.155-5.097.035-7.58-.639-4.051-1.098-7.896-3.643-10.782-6.65 1.38-2.204 3.197-4.267 5.452-5.842 3.54-2.473 7.55-4.51 11.12-5.685M32 27.999c-2.196 0-4 1.805-4 4s1.804 4 4 4 4-1.804 4-4-1.804-4-4-4m17 10a1 1 0 1 1 0 2 1 1 0 0 1 0-2m-32 4a1 1 0 1 1 0 2 1 1 0 0 1 0-2" style="baseline-shift:baseline;display:inline;overflow:visible;vector-effect:none;fill:#cff7ff;stroke-linecap:round;stop-color:#000"/></svg>