<svg xmlns="http://www.w3.org/2000/svg" xmlns:xlink="http://www.w3.org/1999/xlink" width="64" height="64" viewBox="0 0 64 64"><defs><linearGradient xlink:href="#a" id="b" x1="16" x2="16" y1="30" y2="2" gradientTransform="scale(2)" gradientUnits="userSpaceOnUse"/><linearGradient id="a"><stop offset="0" style="stop-color:#9d4dcd;stop-opacity:1"/><stop offset="1" style="stop-color:#b589df;stop-opacity:1"/></linearGradient></defs><rect width="56" height="56" x="4" y="5" ry="12" style="opacity:.2;fill:#000;stroke-width:3.5"/><rect width="56" height="56" x="4" y="4" ry="12" style="fill:url(#b);stroke-width:2"/><path d="M19.612 48.385s2.146.623 5.002.98c1.157.144 5.558.648 8.933.635 0 0 4.11.004 6.379-.318 2.374-.337 3.719-.767 4.467-1.626.02-.205.361-.873-.561-1.516-2.36-1.648-5.408-2.096-11.334-3.504-6.55-1.648-8.508-3.224-9.486-4.364-.928-1.145.174-3.52 5.452-4.686 2.673-.65 12.628-.77 12.628-.77-2.856-2.267-8.219-6.326-9.314-7.19-.961-.757-2.51-1.919-2.677-2.957-.224-1.01 1.367-1.497 2.209-1.553 2.714-.187 6.42.13 9.713.786 1.656.33 1.947.28 1.947.28 2.358.113 4.192-1.122 4.099-3.724-.02-2.639-2.658-4.755-5.578-4.847-2.75-.088-9.526.393-9.526.393 7.898 1.628 9.19 2.043 9.602 2.994.244.562-.406 1.12-2.582 1.011-2.37-.119-7.226-.692-7.226-.692-4.622-.712-7.842-1.385-9.246.449-.917 1.198.131 2.657.543 3.518 1.834 3.2 5.006 5.397 7.018 6.944.757.582 3.07 1.871 3.07 1.871-7.187-1.965-12.914-.86-16.546 1.048-4.173 2.471-3.46 6.64 3.163 10.538 3.912 2.302 5.86 3.407 12.264 4.194 3.744.597 4.301.841 4.273 1.153-.04.438-4.43.605-5.638.688-3.07.212-11.01.264-11.05.264z" style="fill:#fff;stroke-width:3.99994"/></svg>