<svg xmlns="http://www.w3.org/2000/svg" xmlns:xlink="http://www.w3.org/1999/xlink" width="64" height="64" viewBox="0 0 64 64"><defs><linearGradient id="a"><stop offset="0" style="stop-color:#ffde75;stop-opacity:1"/><stop offset="1" style="stop-color:#ffecab;stop-opacity:1"/></linearGradient><linearGradient xlink:href="#a" id="d" x1="32" x2="32" y1="60" y2="5" gradientUnits="userSpaceOnUse"/><linearGradient xlink:href="#b" id="c" x1="16" x2="16" y1="30" y2="2" gradientTransform="scale(2)" gradientUnits="userSpaceOnUse"/><linearGradient id="b"><stop offset="0" style="stop-color:#eaebed;stop-opacity:1"/><stop offset="1" style="stop-color:#f9fafa;stop-opacity:1"/></linearGradient></defs><rect width="56" height="56" x="4" y="5" ry="12" style="opacity:.2;fill:#000;stroke-width:3.5"/><rect width="56" height="56" x="4" y="4" ry="12" style="fill:url(#c);stroke-width:2"/><circle cx="32" cy="32" r="20" style="opacity:1;fill:url(#d)"/><path d="M23 24a3 3 0 1 0 0 6 3 3 0 0 0 0-6m18 0a3 3 0 1 0 0 6 3 3 0 0 0 0-6M24 38c1.651 3.71 4.702 5.997 8.004 6 3.3-.007 6.346-2.293 7.996-6h-1.121c-1.75 2.539-4.25 3.993-6.875 4-2.625-.007-5.125-1.461-6.875-4z" style="fill:#8c6d31;fill-opacity:1;stroke-width:2"/></svg>