<svg xmlns="http://www.w3.org/2000/svg" xmlns:xlink="http://www.w3.org/1999/xlink" width="64" height="64" viewBox="0 0 64 64"><defs><linearGradient id="a"><stop offset="0" style="stop-color:#eaebed;stop-opacity:1"/><stop offset="1" style="stop-color:#f9fafa;stop-opacity:1"/></linearGradient><linearGradient xlink:href="#a" id="e" x1="16" x2="16" y1="30" y2="2" gradientTransform="scale(2)" gradientUnits="userSpaceOnUse"/><linearGradient xlink:href="#b" id="f" x1="8" x2="8" y1="13" y2="3" gradientTransform="scale(4)" gradientUnits="userSpaceOnUse"/><linearGradient id="b"><stop offset="0" style="stop-color:#454545;stop-opacity:1"/><stop offset="1" style="stop-color:#5d5d5d;stop-opacity:1"/></linearGradient><linearGradient xlink:href="#c" id="g" x1="8" x2="8" y1="12" y2="4" gradientTransform="scale(4)" gradientUnits="userSpaceOnUse"/><linearGradient id="c"><stop offset="0" style="stop-color:#81868a;stop-opacity:1"/><stop offset="1" style="stop-color:#a7aaad;stop-opacity:1"/></linearGradient><linearGradient xlink:href="#d" id="h" x1="8" x2="8" y1="10" y2="6" gradientTransform="matrix(5.5 0 0 5.5 -12 -12)" gradientUnits="userSpaceOnUse"/><linearGradient id="d"><stop offset="0" style="stop-color:#1b8f71;stop-opacity:1"/><stop offset="1" style="stop-color:#42c9a1;stop-opacity:1"/></linearGradient></defs><rect width="56" height="56" x="4" y="5" ry="12" style="opacity:.2;fill:#000;stroke-width:3.5"/><rect width="56" height="56" x="4" y="4" ry="12" style="fill:url(#e);stroke-width:2"/><path d="M32 12a20 20 0 0 0-20 20h20zm0 20v20a20 20 0 0 0 20-20z" style="fill:url(#f);fill-opacity:1;stroke-width:4;stroke-linecap:round;stroke-linejoin:round;paint-order:stroke fill markers"/><path d="M32 16a16 16 0 0 0-16 16 16 16 0 0 0 16 16 16 16 0 0 0 16-16H32Z" style="fill:url(#g);fill-opacity:1;stroke-width:4;stroke-linecap:round;stroke-linejoin:round;paint-order:stroke fill markers"/><circle cx="32" cy="32" r="11" style="fill:url(#h);fill-opacity:1;stroke-width:3.66667;stroke-linecap:round;stroke-linejoin:round;paint-order:stroke fill markers"/><circle cx="32" cy="32" r="6" style="fill:#fff;fill-opacity:1;stroke-width:1.99999;stroke-linecap:round;stroke-linejoin:round;paint-order:stroke fill markers"/></svg>