<svg xmlns="http://www.w3.org/2000/svg" xmlns:xlink="http://www.w3.org/1999/xlink" width="64" height="64" viewBox="0 0 64 64"><defs><radialGradient id="d" cx="-7907.187" cy="-8515.121" r="80.797" gradientTransform="translate(600.835 642.21)scale(.07519)" gradientUnits="userSpaceOnUse"><stop offset=".129" stop-color="#ffbd4f"/><stop offset=".186" stop-color="#ffac31"/><stop offset=".247" stop-color="#ff9d17"/><stop offset=".283" stop-color="#ff980e"/><stop offset=".403" stop-color="#ff563b"/><stop offset=".467" stop-color="#ff3750"/><stop offset=".71" stop-color="#f5156c"/><stop offset=".782" stop-color="#eb0878"/><stop offset=".86" stop-color="#e50080"/></radialGradient><radialGradient id="e" cx="-7936.711" cy="-8482.089" r="80.797" gradientTransform="translate(600.835 642.21)scale(.07519)" gradientUnits="userSpaceOnUse"><stop offset=".3" stop-color="#960e18"/><stop offset=".351" stop-color="#b11927" stop-opacity=".74"/><stop offset=".435" stop-color="#db293d" stop-opacity=".343"/><stop offset=".497" stop-color="#f5334b" stop-opacity=".094"/><stop offset=".53" stop-color="#ff3750" stop-opacity="0"/></radialGradient><radialGradient id="f" cx="-7926.97" cy="-8533.457" r="58.534" gradientTransform="translate(600.835 642.21)scale(.07519)" gradientUnits="userSpaceOnUse"><stop offset=".132" stop-color="#fff44f"/><stop offset=".252" stop-color="#ffdc3e"/><stop offset=".506" stop-color="#ff9d12"/><stop offset=".526" stop-color="#ff980e"/></radialGradient><radialGradient id="g" cx="-7945.648" cy="-8460.984" r="38.471" gradientTransform="translate(600.835 642.21)scale(.07519)" gradientUnits="userSpaceOnUse"><stop offset=".353" stop-color="#3a8ee6"/><stop offset=".472" stop-color="#5c79f0"/><stop offset=".669" stop-color="#9059ff"/><stop offset="1" stop-color="#c139e6"/></radialGradient><radialGradient id="h" cx="-7935.62" cy="-8491.546" r="20.397" gradientTransform="matrix(.07308 -.01767 .02068 .08556 759.951 590.315)" gradientUnits="userSpaceOnUse"><stop offset=".206" stop-color="#9059ff" stop-opacity="0"/><stop offset=".278" stop-color="#8c4ff3" stop-opacity=".064"/><stop offset=".747" stop-color="#7716a8" stop-opacity=".45"/><stop offset=".975" stop-color="#6e008b" stop-opacity=".6"/></radialGradient><radialGradient id="i" cx="-7937.731" cy="-8518.427" r="27.676" gradientTransform="translate(600.835 642.21)scale(.07519)" gradientUnits="userSpaceOnUse"><stop offset="0" stop-color="#ffe226"/><stop offset=".121" stop-color="#ffdb27"/><stop offset=".295" stop-color="#ffc82a"/><stop offset=".502" stop-color="#ffa930"/><stop offset=".732" stop-color="#ff7e37"/><stop offset=".792" stop-color="#ff7139"/></radialGradient><radialGradient id="j" cx="-7915.977" cy="-8535.981" r="118.081" gradientTransform="translate(600.835 642.21)scale(.07519)" gradientUnits="userSpaceOnUse"><stop offset=".113" stop-color="#fff44f"/><stop offset=".456" stop-color="#ff980e"/><stop offset=".622" stop-color="#ff5634"/><stop offset=".716" stop-color="#ff3647"/><stop offset=".904" stop-color="#e31587"/></radialGradient><radialGradient id="k" cx="-7927.165" cy="-8522.859" r="86.499" gradientTransform="matrix(.0079 .07481 -.0491 .00519 -350.947 638.163)" gradientUnits="userSpaceOnUse"><stop offset="0" stop-color="#fff44f"/><stop offset=".06" stop-color="#ffe847"/><stop offset=".168" stop-color="#ffc830"/><stop offset=".304" stop-color="#ff980e"/><stop offset=".356" stop-color="#ff8b16"/><stop offset=".455" stop-color="#ff672a"/><stop offset=".57" stop-color="#ff3647"/><stop offset=".737" stop-color="#e31587"/></radialGradient><radialGradient id="l" cx="-7938.383" cy="-8508.176" r="73.72" gradientTransform="translate(600.835 642.21)scale(.07519)" gradientUnits="userSpaceOnUse"><stop offset=".137" stop-color="#fff44f"/><stop offset=".48" stop-color="#ff980e"/><stop offset=".592" stop-color="#ff5634"/><stop offset=".655" stop-color="#ff3647"/><stop offset=".904" stop-color="#e31587"/></radialGradient><radialGradient id="m" cx="-7918.923" cy="-8503.861" r="80.686" gradientTransform="translate(600.835 642.21)scale(.07519)" gradientUnits="userSpaceOnUse"><stop offset=".094" stop-color="#fff44f"/><stop offset=".231" stop-color="#ffe141"/><stop offset=".509" stop-color="#ffaf1e"/><stop offset=".626" stop-color="#ff980e"/></radialGradient><linearGradient xlink:href="#a" id="b" x1="16" x2="16" y1="30" y2="2" gradientTransform="scale(2)" gradientUnits="userSpaceOnUse"/><linearGradient id="a"><stop offset="0" style="stop-color:#3b005e;stop-opacity:1"/><stop offset="1" style="stop-color:#84009d;stop-opacity:1"/></linearGradient><linearGradient id="c" x1="70.786" x2="6.447" y1="12.393" y2="74.468" gradientTransform="translate(1.225 1.323)scale(.07519)" gradientUnits="userSpaceOnUse"><stop offset=".048" stop-color="#fff44f"/><stop offset=".111" stop-color="#ffe847"/><stop offset=".225" stop-color="#ffc830"/><stop offset=".368" stop-color="#ff980e"/><stop offset=".401" stop-color="#ff8b16"/><stop offset=".462" stop-color="#ff672a"/><stop offset=".534" stop-color="#ff3647"/><stop offset=".705" stop-color="#e31587"/></linearGradient><linearGradient id="n" x1="70.013" x2="15.267" y1="12.061" y2="66.806" gradientTransform="translate(1.225 1.323)scale(.07519)" gradientUnits="userSpaceOnUse"><stop offset=".167" stop-color="#fff44f" stop-opacity=".8"/><stop offset=".266" stop-color="#fff44f" stop-opacity=".634"/><stop offset=".489" stop-color="#fff44f" stop-opacity=".217"/><stop offset=".6" stop-color="#fff44f" stop-opacity="0"/></linearGradient></defs><rect width="56" height="56" x="4" y="5" ry="12" style="opacity:.2;fill:#000;stroke-width:3.5"/><rect width="56" height="56" x="4" y="4" ry="12" style="fill:url(#b);stroke-width:2"/><path d="M6.933 3.34c-.127-.305-.383-.634-.585-.738a3 3 0 0 1 .296.885v.005c-.33-.822-.888-1.153-1.344-1.874a4 4 0 0 1-.101-.172.5.5 0 0 1-.044-.115.01.01 0 0 0-.006-.008h-.006l-.001.001-.002.001v-.002c-.731.429-.98 1.222-1.002 1.62a1.46 1.46 0 0 0-.802.308 1 1 0 0 0-.075-.057 1.35 1.35 0 0 1-.009-.712 2.2 2.2 0 0 0-.701.542H2.55c-.116-.146-.108-.629-.101-.73a.5.5 0 0 0-.097.052 2 2 0 0 0-.285.244 2.6 2.6 0 0 0-.273.327 2.5 2.5 0 0 0-.39.882l-.004.02L1.37 4v.006a3 3 0 0 0-.047.402v.015a2.914 2.914 0 0 0 5.786.493l.013-.113a3 3 0 0 0-.189-1.464M3.574 5.62l.04.02.003.002zm3.07-2.127V3.49z" style="fill:url(#c);stroke-width:.0751865" transform="translate(3.837 3.199)scale(6.65279)"/><path d="M6.933 3.34c-.127-.305-.383-.634-.585-.738a3 3 0 0 1 .296.885v.006a2.64 2.64 0 0 1-.09 1.966c-.335.717-1.143 1.452-2.408 1.416-1.368-.039-2.572-1.053-2.797-2.382-.04-.21 0-.316.02-.486a2 2 0 0 0-.046.402v.015a2.914 2.914 0 0 0 5.786.493l.013-.113a3 3 0 0 0-.189-1.464" style="fill:url(#d);stroke-width:.0751865" transform="translate(3.837 3.199)scale(6.65279)"/><path d="M6.933 3.34c-.127-.305-.383-.634-.585-.738a3 3 0 0 1 .296.885v.006a2.64 2.64 0 0 1-.09 1.966c-.335.717-1.143 1.452-2.408 1.416-1.368-.039-2.572-1.053-2.797-2.382-.04-.21 0-.316.02-.486a2 2 0 0 0-.046.402v.015a2.914 2.914 0 0 0 5.786.493l.013-.113a3 3 0 0 0-.189-1.464" style="fill:url(#e);stroke-width:.0751865" transform="translate(3.837 3.199)scale(6.65279)"/><path d="m5.517 3.682.018.014a1.6 1.6 0 0 0-.27-.353c-.906-.906-.238-1.964-.125-2.018v-.002c-.731.429-.98 1.222-1.002 1.619q.05-.004.102-.005a1.47 1.47 0 0 1 1.277.745" style="fill:url(#f);stroke-width:.0751865" transform="translate(3.837 3.199)scale(6.65279)"/><path d="M4.242 3.863c-.005.073-.26.323-.35.323-.829 0-.964.501-.964.501.037.422.331.77.687.954l.049.023q.043.02.086.035a1.3 1.3 0 0 0 .379.073c1.452.069 1.733-1.736.685-2.26a1 1 0 0 1 .703.17 1.47 1.47 0 0 0-1.277-.745q-.051.001-.102.005a1.46 1.46 0 0 0-.802.31c.044.037.094.087.2.191.198.195.705.397.706.42" style="fill:url(#g);stroke-width:.0751865" transform="translate(3.837 3.199)scale(6.65279)"/><path d="M4.242 3.863c-.005.073-.26.323-.35.323-.829 0-.964.501-.964.501.037.422.331.77.687.954l.049.023q.043.02.086.035a1.3 1.3 0 0 0 .379.073c1.452.069 1.733-1.736.685-2.26a1 1 0 0 1 .703.17 1.47 1.47 0 0 0-1.277-.745q-.051.001-.102.005a1.46 1.46 0 0 0-.802.31c.044.037.094.087.2.191.198.195.705.397.706.42" style="fill:url(#h);stroke-width:.0751865" transform="translate(3.837 3.199)scale(6.65279)"/><path d="m3.2 3.154.06.04a1.35 1.35 0 0 1-.008-.712 2.2 2.2 0 0 0-.701.542c.014 0 .436-.008.649.13" style="fill:url(#i);stroke-width:.0751865" transform="translate(3.837 3.199)scale(6.65279)"/><path d="M1.35 4.493c.224 1.329 1.429 2.343 2.796 2.382 1.265.036 2.074-.699 2.408-1.416a2.64 2.64 0 0 0 .09-1.966v-.006l.001.005c.103.675-.24 1.329-.777 1.771l-.001.004c-1.046.851-2.047.514-2.25.376l-.042-.021c-.61-.292-.861-.847-.807-1.324a.75.75 0 0 1-.69-.434 1.1 1.1 0 0 1 1.07-.043 1.45 1.45 0 0 0 1.095.043c-.001-.024-.508-.225-.706-.42-.106-.104-.156-.154-.2-.192a1 1 0 0 0-.075-.057l-.06-.04c-.213-.138-.636-.13-.65-.13h-.001c-.116-.147-.108-.63-.1-.73a.5.5 0 0 0-.098.051 2 2 0 0 0-.285.244 2.6 2.6 0 0 0-.274.327 2.5 2.5 0 0 0-.39.882c-.002.006-.105.459-.054.694" style="fill:url(#j);stroke-width:.0751865" transform="translate(3.837 3.199)scale(6.65279)"/><path d="M5.265 3.343a1.6 1.6 0 0 1 .27.353l.044.036c.66.609.314 1.47.289 1.531.536-.442.88-1.096.776-1.77-.33-.823-.888-1.154-1.344-1.875a4 4 0 0 1-.101-.172.5.5 0 0 1-.044-.115.01.01 0 0 0-.006-.008h-.006l-.001.001-.002.001c-.113.054-.781 1.112.125 2.018" style="fill:url(#k);stroke-width:.0751865" transform="translate(3.837 3.199)scale(6.65279)"/><path d="m5.578 3.732-.043-.036-.018-.014a1 1 0 0 0-.703-.17c1.048.524.767 2.329-.686 2.26A1.3 1.3 0 0 1 3.75 5.7q-.043-.016-.085-.035l-.05-.023.003.001c.202.138 1.203.476 2.249-.376l.001-.004c.026-.06.372-.922-.289-1.53" style="fill:url(#l);stroke-width:.0751865" transform="translate(3.837 3.199)scale(6.65279)"/><path d="M2.928 4.687s.135-.501.964-.501c.09 0 .345-.25.35-.323a1.45 1.45 0 0 1-1.094-.043 1.1 1.1 0 0 0-1.071.043.75.75 0 0 0 .69.435c-.054.476.198 1.032.807 1.323l.04.02c-.355-.184-.649-.532-.686-.954" style="fill:url(#m);stroke-width:.0751865" transform="translate(3.837 3.199)scale(6.65279)"/><path d="M6.933 3.34c-.127-.305-.383-.634-.585-.738a3 3 0 0 1 .296.885v.005c-.33-.822-.888-1.153-1.344-1.874a4 4 0 0 1-.101-.172.5.5 0 0 1-.044-.115.01.01 0 0 0-.006-.008h-.006l-.001.001-.002.001v-.002c-.731.429-.98 1.222-1.002 1.62q.05-.005.102-.006a1.47 1.47 0 0 1 1.277.745 1 1 0 0 0-.703-.17c1.048.524.767 2.329-.685 2.26a1.3 1.3 0 0 1-.38-.073q-.042-.016-.085-.035l-.05-.023.003.001-.043-.021.04.02c-.355-.184-.649-.532-.686-.954 0 0 .135-.501.964-.501.09 0 .345-.25.35-.323-.001-.023-.508-.225-.706-.42-.106-.104-.156-.154-.2-.192a1 1 0 0 0-.075-.057 1.35 1.35 0 0 1-.009-.712 2.2 2.2 0 0 0-.701.542H2.55c-.116-.146-.108-.63-.101-.73a.5.5 0 0 0-.097.052 2 2 0 0 0-.285.244 2.6 2.6 0 0 0-.273.327 2.5 2.5 0 0 0-.39.882l-.004.02c-.006.025-.03.155-.034.183 0 .003 0-.002 0 0a3 3 0 0 0-.043.407v.015a2.914 2.914 0 0 0 5.786.492l.013-.112a3 3 0 0 0-.189-1.464m-.29.15.001.003z" style="fill:url(#n);stroke-width:.0751865" transform="translate(3.837 3.199)scale(6.65279)"/></svg>