<svg xmlns="http://www.w3.org/2000/svg" xmlns:xlink="http://www.w3.org/1999/xlink" width="64" height="64" viewBox="0 0 64 64"><defs><linearGradient xlink:href="#a" id="b" x1="16" x2="16" y1="30" y2="2" gradientTransform="scale(2)" gradientUnits="userSpaceOnUse"/><linearGradient id="a"><stop offset="0" style="stop-color:#0091f9;stop-opacity:1"/><stop offset="1" style="stop-color:#41bbff;stop-opacity:1"/></linearGradient></defs><rect width="56" height="56" x="4" y="5" ry="12" style="opacity:.2;fill:#000;stroke-width:3.5"/><rect width="56" height="56" x="4" y="4" ry="12" style="fill:url(#b);stroke-width:2"/><rect width="44" height="32" x="10" y="16" ry="4" style="opacity:.6;fill:#fff;fill-opacity:1;stroke-width:8;stroke-linecap:round;stroke-linejoin:round"/><rect width="36" height="10" x="14" y="30" ry="2" style="fill:#fff;stroke-width:7.74596;stroke-linecap:round;stroke-linejoin:round"/><path d="M14 22h20v2H14z" style="fill:#fff;stroke-width:6.32456;stroke-linecap:round;stroke-linejoin:round"/><path d="M19 33a2 2 0 1 0 0 4 2 2 0 0 0 0-4m6 0a2 2 0 1 0 0 4 2 2 0 0 0 0-4m6 0a2 2 0 1 0 0 4 2 2 0 0 0 0-4m6 0a2 2 0 1 0 0 4 2 2 0 0 0 0-4m6 0a2 2 0 1 0 0 4 2 2 0 0 0 0-4" style="fill:#4d4d4d;fill-opacity:1;stroke-width:2;stroke-linecap:round;stroke-linejoin:round"/></svg>