<svg xmlns="http://www.w3.org/2000/svg" xmlns:xlink="http://www.w3.org/1999/xlink" width="64" height="64" viewBox="0 0 64 64"><defs><linearGradient xlink:href="#a" id="b" x1="16" x2="16" y1="30" y2="2" gradientTransform="scale(2)" gradientUnits="userSpaceOnUse"/><linearGradient id="a"><stop offset="0" style="stop-color:#ffcf41;stop-opacity:1"/><stop offset="1" style="stop-color:#f98d00;stop-opacity:1"/></linearGradient></defs><rect width="56" height="56" x="4" y="5" ry="12" style="opacity:.2;fill:#000;stroke-width:3.5"/><rect width="56" height="56" x="4" y="4" ry="12" style="fill:url(#b);stroke-width:2"/><rect width="40" height="28" x="12" y="18" ry="4" style="opacity:1;fill:#f2f2f2;stroke-width:2;stroke-linecap:round"/><path d="M12.207 20.73 12 21.75l17.172 13.703a3.99 3.99 0 0 0 5.656 0L52 21.75l-.207-1.02Z" style="opacity:.2;fill:#000;stroke-width:1;stroke-linecap:round;stroke-linejoin:round"/><path d="M16 18a3.99 3.99 0 0 0-3.791 2.729l16.963 13.726a3.99 3.99 0 0 0 5.656 0L51.791 20.73A3.99 3.99 0 0 0 48 18Z" style="fill:#fff;stroke-width:1;stroke-linecap:round;stroke-linejoin:round"/></svg>