<svg xmlns="http://www.w3.org/2000/svg" xmlns:xlink="http://www.w3.org/1999/xlink" width="64" height="64" viewBox="0 0 64 64"><defs><linearGradient xlink:href="#a" id="b" x1="16" x2="16" y1="30" y2="2" gradientTransform="scale(2)" gradientUnits="userSpaceOnUse"/><linearGradient id="a"><stop offset="0" style="stop-color:#cfc6be;stop-opacity:1"/><stop offset="1" style="stop-color:#f0ecec;stop-opacity:1"/></linearGradient></defs><rect width="56" height="56" x="4" y="5" ry="12" style="opacity:.2;fill:#000;stroke-width:3.5"/><rect width="56" height="56" x="4" y="4" ry="12" style="fill:url(#b);stroke-width:2"/><path d="M50.606 12.013c-.348-.055-.66.141-.848.365-.188.223-.318.5-.432.849-.196.604-.917 2.845-3.515 5.06-2.599 2.216-7.08 5.514-14.846 5.713-4.723.056-7.98-2.374-9.863-6.1-.47-.93-1.155-2.663-1.155-1.56v1.705l-.024 8.824.048.116s.423.94-.024 2.206-2.21 3.114-6.15 4.297l-.481.143.091.507c.219 1.229 1.09 2.488 2.376 3.777s3.007 2.594 5.012 3.773c4.01 2.358 9.146 4.222 14.136 4.31s9.872-1.658 13.103-6.491 4.806-14.057 3.515-26.07h-.002c-.04-.33-.114-.611-.244-.858s-.35-.502-.697-.557z" style="fill:#8c8073;fill-rule:evenodd;fill-opacity:1"/><path d="M24.499 23c-1.36 0-2.728.45-3.77 1.376C19.69 25.3 19 26.71 19 28.5s.689 3.199 1.73 4.124c1.04.926 2.408 1.375 3.769 1.375 1.36 0 2.728-.45 3.77-1.375C29.308 31.7 30 30.291 30 28.501s-.69-3.2-1.732-4.125C27.228 23.45 25.86 23 24.5 23" style="fill:#fff;fill-rule:evenodd"/><path d="M25.5 27c-.613 0-1.232.203-1.709.627S23 28.704 23 29.5s.314 1.45.791 1.874A2.57 2.57 0 0 0 25.5 32c.613 0 1.232-.202 1.709-.626S28 30.296 28 29.5s-.314-1.449-.791-1.873A2.57 2.57 0 0 0 25.5 27" style="fill:#3f3f3f;fill-rule:evenodd"/><path d="M36 36s.154.78.707 1.492c-1.308 1.006-3.894 1.324-6.838 1.506-1.772.107-3.726 0-5.869 0V39c3.34 1.174 6.206 2.05 8.457 1.998 2.115-.05 3.687-.95 4.6-2.207.127.495.44.962.943 2.207.226-1.417 1.391-2.1.53-3.207C37.664 36.681 36 36 36 36" style="opacity:1;fill:#333;fill-opacity:1;fill-rule:evenodd"/><path d="M14.474 26q-.4-.001-.781.057a4.3 4.3 0 0 0-1.844.746c-2.16 1.544-2.73 5.042-.06 8.706 2.668 3.663 6.2 4.232 8.36 2.688 2.161-1.544 2.733-5.042.064-8.706-1.752-2.404-3.875-3.474-5.739-3.49z" style="fill:#3f3f3f;fill-rule:evenodd"/><path d="M33.499 23c-1.36 0-2.728.45-3.77 1.376C28.69 25.3 28 26.71 28 28.5s.689 3.199 1.73 4.124c1.04.926 2.408 1.375 3.769 1.375 1.36 0 2.728-.45 3.77-1.375C38.308 31.7 39 30.291 39 28.501s-.69-3.2-1.732-4.125C36.228 23.45 34.86 23 33.5 23" style="fill:#fff;fill-rule:evenodd"/><path d="M34.5 27c-.613 0-1.232.203-1.709.627S32 28.704 32 29.5s.314 1.45.791 1.874A2.57 2.57 0 0 0 34.5 32c.613 0 1.232-.202 1.709-.626S37 30.296 37 29.5s-.314-1.449-.791-1.873A2.57 2.57 0 0 0 34.5 27" style="fill:#3f3f3f;fill-rule:evenodd"/><path d="m45.968 45.4.926-1.844c-3.446-2.522-9.88-5.08-9.88-5.08L36 39.033s5.842 5.181 9.968 6.367" style="fill:#ff9a0c"/><path d="m46 42-.483.318c-.448.245-.81.66-1.105 1.142-.337.792-.47 1.287-.412 2.06l.7-.12s3.655 1.049 5.385 1.6l.203-.39.712-1.379-5-2.561z" style="fill:#8a8a8a"/><path d="M56 52c-1.247-4.052-1.69-7.269-4.948-6.982-2.626.23-2.81 3.832-.096 4.826A58 58 0 0 1 56 52" style="fill:#3f3f3f"/></svg>