<svg xmlns="http://www.w3.org/2000/svg" xmlns:xlink="http://www.w3.org/1999/xlink" width="64" height="64" viewBox="0 0 64 64"><defs><linearGradient xlink:href="#a" id="b" x1="16" x2="16" y1="30" y2="2" gradientTransform="scale(2)" gradientUnits="userSpaceOnUse"/><linearGradient id="a"><stop offset="0" style="stop-color:#b32420;stop-opacity:1"/><stop offset="1" style="stop-color:#ec6b52;stop-opacity:1"/></linearGradient></defs><rect width="56" height="56" x="4" y="5" ry="12" style="opacity:.2;fill:#000;stroke-width:3.5"/><rect width="56" height="56" x="4" y="4" ry="12" style="fill:url(#b);stroke-width:2"/><path d="m25.637 15.736-1.414 1.414L22 37l9 12 18.646-17.254L32 16z" style="opacity:.3;fill:#fff"/><path d="M12.201 29.172a3.99 3.99 0 0 0 0 5.656L29.171 51.8a3.99 3.99 0 0 0 5.657 0L51.8 34.829a3.99 3.99 0 0 0 0-5.657L34.829 12.2a3.99 3.99 0 0 0-5.657 0l-3.536 3.536 3.627 3.626a4 4 0 0 1 4.858.616 4 4 0 0 1 .61 4.852l3.724 3.725a4 4 0 0 1 4.859.616 4 4 0 0 1 0 5.656 4 4 0 0 1-5.657 0 4 4 0 0 1-.61-4.851l-3.73-3.732a4 4 0 0 1-1.024.41v9.253a4 4 0 0 1 1.828 1.042 4 4 0 0 1 0 5.657 4 4 0 0 1-5.657 0 4 4 0 0 1 0-5.657 4 4 0 0 1 1.829-1.042v-9.253a4 4 0 0 1-1.829-1.019 4 4 0 0 1-.609-4.852l-3.633-3.633z" style="fill:#fff;stroke-width:2"/></svg>