<svg xmlns="http://www.w3.org/2000/svg" width="64" height="64" viewBox="0 0 64 64"><rect width="56" height="56" x="4" y="5" ry="12" style="opacity:.2;fill:#000;stroke-width:3.5"/><rect width="56" height="56" x="4" y="4" ry="12" style="fill:#fafafa;fill-opacity:1;stroke-width:2"/><path d="M12 22.734v21.54C12 45.78 13.207 47 14.7 47H20V28.793Z" style="fill:#4285f4;stroke-width:1"/><path d="m52 22.734-8 6.059V47h5.3c1.493 0 2.7-1.22 2.7-2.727z" style="fill:#34a853;stroke-width:1"/><path d="M18.48 28.912V17.825L32 27.91l13.52-10.084v11.087L32 38.998Z" style="fill:#ea4335;stroke-width:1"/><path d="M47.934 17c-.822 0-1.663.255-2.414.824L44 18.977v11.086l8-6.06v-2.905C52 18.676 50.032 17 47.934 17" style="fill:#fbbc04;stroke-width:1"/><path d="M16.066 17C13.968 17 12 18.676 12 21.098v2.908l8 6.058V18.977l-1.52-1.153A3.97 3.97 0 0 0 16.066 17" style="fill:#c5221f;stroke-width:1"/></svg>