<svg xmlns="http://www.w3.org/2000/svg" xmlns:xlink="http://www.w3.org/1999/xlink" width="64" height="64" viewBox="0 0 64 64"><defs><linearGradient xlink:href="#a" id="b" x1="16" x2="16" y1="30" y2="2" gradientTransform="scale(2)" gradientUnits="userSpaceOnUse"/><linearGradient id="a"><stop offset="0" style="stop-color:#3d7fca;stop-opacity:1"/><stop offset="1" style="stop-color:#8baee9;stop-opacity:1"/></linearGradient></defs><rect width="56" height="56" x="4" y="5" ry="12" style="opacity:.2;fill:#000;stroke-width:3.5"/><rect width="56" height="56" x="4" y="4" ry="12" style="fill:url(#b);stroke-width:2"/><path d="M46.335 10c-8.886 0-10.55 14-5.551 14 4.998 0 14.437-14 5.55-14m-15.106 2.031c-5.082.68-3.292 9.795-.586 9.965s5.67-10.645.586-9.965m-8.191 3.98c-.26.023-.539.08-.836.18-4.758 1.606-.724 8.235 1.941 7.79 2.501-.417 2.789-8.307-1.105-7.97M16.78 22c-.425-.01-.882.086-1.371.316-3.91 1.845 1.317 6.305 3.617 5.614 2.013-.605.727-5.862-2.246-5.93m18.578 2.004c-6.742-.124-15.635 3.55-17.152 10.93C16.563 42.92 24.97 54 33.74 54c4.314 0 9.288-4.232 10.219-9.594.312-1.796-1.25-2.425-3.07-2.406-2.326.024-5.074 1.143-4.891 2.66.266 2.21-1.104 3.359-2.64 3.395-2.099-.264-3.127-1.522-3.403-3.422-.376-4.99 14.241-8.544 13.043-16.281-.439-2.83-3.595-4.274-7.64-4.348" style="fill:#fff;stroke-width:2"/></svg>