<svg xmlns="http://www.w3.org/2000/svg" xmlns:xlink="http://www.w3.org/1999/xlink" width="64" height="64" viewBox="0 0 64 64"><defs><linearGradient xlink:href="#a" id="b" x1="16" x2="16" y1="30" y2="2" gradientTransform="scale(2)" gradientUnits="userSpaceOnUse"/><linearGradient id="a"><stop offset="0" style="stop-color:#13a5c5;stop-opacity:1"/><stop offset="1" style="stop-color:#b1f6cb;stop-opacity:1"/></linearGradient></defs><rect width="56" height="56" x="4" y="5" ry="12" style="opacity:.2;fill:#000;stroke-width:3.5"/><rect width="56" height="56" x="4" y="4" ry="12" style="fill:url(#b);stroke-width:2"/><path d="M32 12a20 20 0 0 0-20 20 20 20 0 0 0 20 20 20 20 0 0 0 20-20 20 20 0 0 0-20-20m-7.89 3.82 4.964 6.621a9.94 9.94 0 0 0-4.144 2.489 9.94 9.94 0 0 0-2.489 4.144l-6.62-4.965a18 18 0 0 1 3.452-4.836 18 18 0 0 1 4.836-3.453m15.78 0a18 18 0 0 1 4.837 3.453 18 18 0 0 1 3.453 4.836l-6.621 4.965a9.94 9.94 0 0 0-2.489-4.144 9.94 9.94 0 0 0-4.144-2.489zM32 24a8 8 0 1 1 0 16 8 8 0 0 1 0-16m-9.559 10.926a9.94 9.94 0 0 0 2.489 4.144 9.94 9.94 0 0 0 4.144 2.489l-4.965 6.62a18 18 0 0 1-4.836-3.452 18 18 0 0 1-3.453-4.836zm19.118 0 6.62 4.965a18 18 0 0 1-3.452 4.836 18 18 0 0 1-4.836 3.453l-4.965-6.621a9.94 9.94 0 0 0 4.144-2.489 9.94 9.94 0 0 0 2.489-4.144" style="fill:#fff;stroke-width:4;stroke-linecap:round;stroke-linejoin:round"/></svg>