<svg xmlns="http://www.w3.org/2000/svg" xmlns:xlink="http://www.w3.org/1999/xlink" width="64" height="64" viewBox="0 0 64 64"><defs><linearGradient xlink:href="#a" id="b" x1="16" x2="16" y1="30" y2="2" gradientTransform="scale(2)" gradientUnits="userSpaceOnUse"/><linearGradient id="a"><stop offset="0" style="stop-color:#272727;stop-opacity:1"/><stop offset="1" style="stop-color:#5d5d5d;stop-opacity:1"/></linearGradient></defs><rect width="56" height="56" x="4" y="5" ry="12" style="opacity:.2;fill:#000;stroke-width:3.5"/><rect width="56" height="56" x="4" y="4" ry="12" style="fill:url(#b);stroke-width:2"/><path d="M18 12v12h2V12Zm4 0v12h2V12Zm-4 14v12h2V26Zm4 0v12h2V26Zm-4 14v12h2V40Zm4 0v12h2V40Z" style="fill:#8bc34a;stroke-width:4"/><path d="M26 26v12h2V26Zm10 0v12h2V26Z" style="fill:#ff9800;stroke-width:2"/><path d="M40 12v12h2V12Zm4 0v12h2V12Zm-4 14v12h2V26Zm4 0v12h2V26Zm-4 14v12h2V40Zm4 0v12h2V40Z" style="fill:#ff5722;stroke-width:2"/><path d="M12 12v12h4v-2h-2v-8h2v-2zm36 0v2h2v8h-2v2h4V12ZM12 26v12h4v-2h-2v-8h2v-2zm36 0v2h2v8h-2v2h4V26ZM12 40v12h4v-2h-2v-8h2v-2zm36 0v2h2v8h-2v2h4V40Z" style="fill:#f9f9f9;stroke-width:2"/></svg>