<svg xmlns="http://www.w3.org/2000/svg" xmlns:xlink="http://www.w3.org/1999/xlink" width="64" height="64" viewBox="0 0 64 64"><defs><linearGradient id="a"><stop offset="0" style="stop-color:#ede4d3;stop-opacity:1"/><stop offset="1" style="stop-color:#fbf6f0;stop-opacity:1"/></linearGradient><linearGradient id="c"><stop offset="0" style="stop-color:#eaebed;stop-opacity:1"/><stop offset="1" style="stop-color:#f9fafa;stop-opacity:1"/></linearGradient><linearGradient xlink:href="#a" id="d" x1="16" x2="16" y1="30" y2="2" gradientTransform="scale(2)" gradientUnits="userSpaceOnUse"/><linearGradient xlink:href="#b" id="e" x1="26" x2="26" y1="25.928" y2="6" gradientTransform="scale(2)" gradientUnits="userSpaceOnUse"/><linearGradient id="b"><stop offset="0" style="stop-color:#333;stop-opacity:1"/><stop offset="1" style="stop-color:#6a6a6a;stop-opacity:1"/></linearGradient><linearGradient xlink:href="#c" id="f" x1="19.933" x2="19.933" y1="13.387" y2="7.683" gradientTransform="scale(2)" gradientUnits="userSpaceOnUse"/></defs><rect width="56" height="56" x="4" y="5" ry="12" style="opacity:.2;fill:#000;stroke-width:3.5"/><rect width="56" height="56" x="4" y="4" ry="12" style="fill:url(#d);stroke-width:2"/><path d="M32 12a4.25 4.25 0 0 0-3.117 1.332L13.332 29.359A4.75 4.75 0 0 0 12 32.555v.074c0 3.442 9.17.1 10 4.297.452 2.286-5 1.229-5 3.515 0 2.689 7.715.854 9.926 3.04.904 2.21-2.965 1.861-2.262 3.921 1.281 1.332 4.193.578 4.746 2.739.653 2.462 4.825 2.035 7.262.226 1.306-1.331-1.985-1.936-.703-3.293 1.306-1.331 7.688-1.054 7.738-3.969-.603-1.834-3.014-2.136-3.039-4.296-.126-1.835 1.96-1.305 8.594-3.114C51.9 34.44 52 33.785 52 32.63v-.074c-.025-1.156-.552-2.316-1.406-3.196L35.117 13.332A4.3 4.3 0 0 0 32 12m17.875 27.43c-.233 0-.444.025-.613.082-.427.125-2.438.203-2.262 1.71 1.809.78 4.572 1.38 4.898-.152.252-1.13-.826-1.607-1.78-1.632a3 3 0 0 0-.243-.008m-30.488 5.062q-.138 0-.274.02a1.4 1.4 0 0 0-.457.152c-1.382.528-2.308 1.632-1.027 2.11 1.281.477 2.158-.026 3.289-.63 1.13-.602 1.083-.703 1.008-.93-.151.026-1.182-.602-2.262-.702a2 2 0 0 0-.277-.02" style="fill:url(#e);fill-opacity:1;stroke-width:2.51256"/><path d="M32.302 15.366c1.18 0 4.397 3.972 7.26 6.962.83 1.08-.3 2.185-.3 2.185l-6.005-3.292-2.663 3.594-2.337-3.518-1.407 5.477-4.147-2.487 1.107-1.408 6.482-6.658c.477-.503.879-.855 2.01-.855" style="fill:url(#f);fill-opacity:1;stroke-width:2.51256"/></svg>