<svg xmlns="http://www.w3.org/2000/svg" xmlns:xlink="http://www.w3.org/1999/xlink" width="64" height="64" viewBox="0 0 64 64"><defs><linearGradient xlink:href="#a" id="b" x1="16" x2="16" y1="30" y2="2" gradientTransform="scale(2)" gradientUnits="userSpaceOnUse"/><linearGradient id="a"><stop offset="0" style="stop-color:#f87c00;stop-opacity:1"/><stop offset="1" style="stop-color:#ff981e;stop-opacity:1"/></linearGradient></defs><rect width="56" height="56" x="4" y="5" ry="12" style="opacity:.2;fill:#000;stroke-width:3.5"/><rect width="56" height="56" x="4" y="4" ry="12" style="fill:url(#b);stroke-width:2"/><path d="M31.814 15.006c-4.567.044-9.132.311-9.993.79-1.721.957-9.841 14.5-9.821 16.38.02 1.882 8.437 15.273 10.179 16.197s18.278.791 20-.166c1.721-.957 9.841-14.5 9.821-16.38-.02-1.882-8.437-15.295-10.179-16.22-.87-.462-5.44-.644-10.007-.6m1.332 3.77c2.978.013 5.681.173 6.257.488.04.021.093.083.142.122l-7.266 8.109-.32.34-.301-.34-7.567-7.929c.07-.063.15-.131.204-.162.651-.372 4.112-.59 7.564-.624q.647-.006 1.287-.003m10.338 6.1c1.857 3 3.616 6.217 3.624 6.983.009.831-1.975 4.565-3.925 7.789l-7.14-6.38-.341-.306.323-.298zm-23.032.021 6.98 7.767.282.298-.297.285-6.622 6.378c-1.962-3.133-3.894-6.676-3.903-7.485-.008-.783 1.73-4.153 3.56-7.243M31.96 36.346l.283.28 7.946 7.467c-.204.236-.377.412-.502.484-1.301.744-13.791.899-15.108.18-.147-.08-.387-.305-.643-.6l7.723-7.531z" style="fill:#fff;stroke-width:1.5434"/></svg>