<svg xmlns="http://www.w3.org/2000/svg" xmlns:xlink="http://www.w3.org/1999/xlink" width="64" height="64" viewBox="0 0 64 64"><defs><linearGradient xlink:href="#a" id="b" x1="16" x2="16" y1="30" y2="2" gradientTransform="scale(2)" gradientUnits="userSpaceOnUse"/><linearGradient id="a"><stop offset="0" style="stop-color:#80d935;stop-opacity:1"/><stop offset="1" style="stop-color:#afd65f;stop-opacity:1"/></linearGradient></defs><rect width="56" height="56" x="4" y="5" ry="12" style="opacity:.2;fill:#000;stroke-width:3.5"/><rect width="56" height="56" x="4" y="4" ry="12" style="fill:url(#b);stroke-width:2"/><path d="M14.495 29.993s3.567-5.821 11.51-6.423v-2.112c-8.798.7-16.005 8.09-16.005 8.09s3.903 12.372 16.005 13.505v-2.245c-8.88-1.108-11.51-10.815-11.51-10.815m11.51 6.35V38.4c-6.712-1.186-8.163-8.106-8.163-8.106s2.81-3.54 8.163-4.114v2.255h-.01c-2.81-.335-4.592 2.267-4.592 2.267s.818 4.382 4.602 5.643m0-19.344v4.458c.258-.02.928-.036 1.188-.045 10.002-.334 16.52 8.136 16.52 8.136s-7.486 9.026-15.284 9.026c-.715 0-1.796-.065-2.424-.176v2.409c.537.068 1.506.107 2.088.107 7.257 0 12.505-3.675 17.586-8.025.843.669 4.292 2.297 5.001 3.01-4.831 4.011-16.092 7.245-22.476 7.245a29 29 0 0 1-2.199-.092V47H54V17Zm0 9.179v-2.61c.256-.018.925-.031 1.188-.04 7.193-.224 11.912 6.13 11.912 6.13s-5.097 7.02-10.562 7.02c-.787 0-1.903-.125-2.538-.336v-7.91c2.8.336 3.775 1.563 5.459 4.346l3.744-3.131s-2.733-3.555-7.34-3.555a23 23 0 0 0-1.863.085" style="fill:#fff"/></svg>