<svg xmlns="http://www.w3.org/2000/svg" xmlns:xlink="http://www.w3.org/1999/xlink" width="64" height="64" viewBox="0 0 64 64"><defs><linearGradient id="a"><stop offset="0" style="stop-color:#eaebed;stop-opacity:1"/><stop offset="1" style="stop-color:#f9fafa;stop-opacity:1"/></linearGradient><linearGradient xlink:href="#a" id="d" x1="16" x2="16" y1="30" y2="2" gradientTransform="scale(2)" gradientUnits="userSpaceOnUse"/><linearGradient xlink:href="#b" id="e" x1="26" x2="44" y1="20" y2="0" gradientTransform="matrix(2 0 0 2 -38 12)" gradientUnits="userSpaceOnUse"/><linearGradient id="b"><stop offset="0" style="stop-color:#656565;stop-opacity:1"/><stop offset="1" style="stop-color:#979797;stop-opacity:1"/></linearGradient><linearGradient xlink:href="#c" id="h" x1="35" x2="44" y1="8" y2="7" gradientTransform="matrix(2 0 0 2 -38 12)" gradientUnits="userSpaceOnUse"/><linearGradient id="c"><stop offset="0" style="stop-color:#7da52e;stop-opacity:1"/><stop offset="1" style="stop-color:#a7d056;stop-opacity:1"/></linearGradient><linearGradient xlink:href="#c" id="g" x1="26" x2="35" y1="4" y2="11" gradientTransform="matrix(2 0 0 2 -38 12)" gradientUnits="userSpaceOnUse"/><linearGradient xlink:href="#c" id="f" x1="35" x2="35" y1="0" y2="8" gradientTransform="matrix(2 0 0 2 -38 12)" gradientUnits="userSpaceOnUse"/></defs><rect width="56" height="56" x="4" y="5" ry="12" style="opacity:.2;fill:#000;stroke-width:3.5"/><rect width="56" height="56" x="4" y="4" ry="12" style="fill:url(#d);stroke-width:2"/><path d="m32 12-18 8v24l18 8 18-8V20Z" style="fill:url(#e);fill-opacity:1;stroke-width:4;stroke-linecap:round;stroke-linejoin:round"/><path d="m32 12 18 8-18 8-18-8Z" style="fill:url(#f);fill-opacity:1;stroke-width:4;stroke-linecap:round;stroke-linejoin:round"/><path d="m14 20 18 8v6l-18-8Z" style="fill:url(#g);fill-opacity:1;stroke-width:4;stroke-linecap:round;stroke-linejoin:round"/><path d="m32 28 18-8v6l-18 8z" style="fill:url(#h);fill-opacity:1;stroke-width:4;stroke-linecap:round;stroke-linejoin:round"/></svg>