<svg xmlns="http://www.w3.org/2000/svg" xmlns:xlink="http://www.w3.org/1999/xlink" width="64" height="64" viewBox="0 0 64 64"><defs><linearGradient id="a"><stop offset="0" style="stop-color:#eaebed;stop-opacity:1"/><stop offset="1" style="stop-color:#f9fafa;stop-opacity:1"/></linearGradient><linearGradient xlink:href="#a" id="b" x1="16" x2="16" y1="30" y2="2" gradientTransform="scale(2)" gradientUnits="userSpaceOnUse"/></defs><rect width="56" height="56" x="4" y="5" ry="12" style="opacity:.2;fill:#000;stroke-width:3.5"/><rect width="56" height="56" x="4" y="4" ry="12" style="fill:url(#b);stroke-width:2"/><path d="M42.855 33.633c-.456 0-.94.085-1.437.27-.399.148-.61.491-.61.491s.255-.107.817-.23c2.299-.505 5.592 3.242-1.531 7.14a.7.7 0 0 1-.145.2c8.471-2.346 6.625-7.879 2.906-7.871m-15.609.379c-.908.025-3.033.232-5.504 1.492-3.897 1.985 9.637 2.89 16.645.949.728-.524 1.734-.977 1.734-.977s-2.867.537-5.722.79c-3.496.308-7.243.37-9.125.105-4.457-.628 2.441-2.356 2.441-2.356s-.166-.012-.469-.004zm-1.136 4.542c-6.429 2.249 3.577 4.8 12.562 2.032-.955-.355-1.559-1.004-1.559-1.004-4.392.89-6.93.861-10.144.512-2.485-.271-.86-1.54-.86-1.54m.91 4.38c-5.838 1.718 3.548 5.268 10.98 1.913-1.217-.498-2.09-1.074-2.09-1.074-3.314.66-4.85.714-7.86.352-2.482-.3-1.03-1.192-1.03-1.192m-4.055 2.902c-2.621.085-7.75 2.57-3.062 3.37 15.152 2.589 27.621-1.166 23.69-3.034 0 0 1.077.935-1.179 1.656-4.289 1.369-17.857 1.781-21.625.055-1.353-.622 1.186-1.483 1.985-1.665.833-.19 1.308-.156 1.308-.156-.235-.174-.632-.242-1.117-.226M46 48.21s-.476 1.29-5.648 2.316c-5.836 1.157-13.037 1.024-17.305.281 0 0 .875.762 5.367 1.067 6.836.46 17.338-.256 17.586-3.664" style="fill:#5a87b6;fill-opacity:1;stroke-width:.667296"/><path d="M35.8 12c1.592 6.604-5.61 8.598-8.21 12.71-1.77 2.803.867 5.815 4.465 9.235-1.403-3.342-6.16-6.265.004-11.394C39.745 16.159 35.8 12 35.8 12m4.755 8.168s-12.996 3.42-6.79 10.957c1.833 2.222-.48 4.222-.48 4.222s4.65-2.53 2.516-5.699c-1.995-2.953-3.526-4.42 4.754-9.48" style="fill:#f95;stroke-width:.667296"/></svg>