<svg xmlns="http://www.w3.org/2000/svg" xmlns:xlink="http://www.w3.org/1999/xlink" width="64" height="64" viewBox="0 0 64 64"><defs><linearGradient xlink:href="#a" id="b" x1="16" x2="16" y1="30" y2="2" gradientTransform="scale(2)" gradientUnits="userSpaceOnUse"/><linearGradient id="a"><stop offset="0" style="stop-color:#3daee9;stop-opacity:1"/><stop offset="1" style="stop-color:#76c6ee;stop-opacity:1"/></linearGradient></defs><rect width="56" height="56" x="4" y="5" ry="12" style="opacity:.2;fill:#000;stroke-width:3.5"/><rect width="56" height="56" x="4" y="4" ry="12" style="fill:url(#b);stroke-width:2"/><path d="m36 11-8 1.21v28.938L36 39V27.82L44 41l8-3-10-12 10.004-12.996L44.242 11 36 24.117Zm-16.29 7.848a.74.74 0 0 0-.523.218l-3.144 3.145c-.29.29-.22.705 0 1.05l3.254 5.11a13 13 0 0 0-.625 1.543c-.008.023-.02.044-.027.066l-5.903 1.313c-.4.089-.742.332-.742.742v3.93c0 .41.342.653.742.742l5.903 1.313c.012.038.033.074.046.113a13 13 0 0 0 .606 1.5l-3.254 5.105c-.22.346-.29.76 0 1.051l3.144 3.145c.29.29.757.29 1.047 0l5.102-3.25a13 13 0 0 0 1.547.632c.035.013.067.031.101.043l1.309 5.899c0 .41.332.742.742.742h4.442c.41 0 .653-.342.742-.742l1.308-6.078a13 13 0 0 0 1.746-.809l4.98 3.563a.74.74 0 0 0 1.048 0l3.144-3.145c.29-.29.22-.705 0-1.05l-1.894-2.876-.2.074a1 1 0 0 1-1.206-.417l-1.993-3.282C39.492 42.208 35.572 45 31 45c-6.075 0-11-4.925-11-11 0-4.662 2.906-8.637 7-10.238V21.57l-.016.07c-.044.016-.085.04-.129.055q-.782.261-1.527.618l-5.094-3.247a.74.74 0 0 0-.523-.218" style="fill:#fff"/></svg>