<svg xmlns="http://www.w3.org/2000/svg" xmlns:xlink="http://www.w3.org/1999/xlink" width="64" height="64" viewBox="0 0 64 64"><defs><linearGradient xlink:href="#a" id="e" x1="16" x2="16" y1="2" y2="30" gradientTransform="scale(2)" gradientUnits="userSpaceOnUse"/><linearGradient id="a"><stop offset="0" style="stop-color:#424649;stop-opacity:1"/><stop offset="1" style="stop-color:#2a2c2f;stop-opacity:1"/></linearGradient><linearGradient xlink:href="#b" id="f" x1="6" x2="26" y1="34" y2="37" gradientUnits="userSpaceOnUse"/><linearGradient id="b"><stop offset="0" style="stop-color:#abdaf9;stop-opacity:1"/><stop offset="1" style="stop-color:#7cbcec;stop-opacity:1"/></linearGradient><linearGradient xlink:href="#c" id="g" x1="42.512" x2="40.242" y1="45.4" y2="21.586" gradientUnits="userSpaceOnUse"/><linearGradient id="c"><stop offset="0" style="stop-color:#375a7d;stop-opacity:1"/><stop offset="1" style="stop-color:#54a3d8;stop-opacity:1"/></linearGradient><linearGradient xlink:href="#d" id="h" x1="32" x2="32" y1="14" y2="4" gradientUnits="userSpaceOnUse"/><linearGradient id="d"><stop offset="0" style="stop-color:#c42c2c;stop-opacity:1"/><stop offset="1" style="stop-color:#f36856;stop-opacity:1"/></linearGradient></defs><rect width="56" height="56" x="4" y="5" ry="12" style="opacity:.2;fill:#000;stroke-width:3.5"/><rect width="56" height="56" x="4" y="4" ry="12" style="fill:url(#e);stroke-width:2"/><path d="M22 16v3h4v-3zm-4 6v3h8v-3zm-8 6v3h16v-3zm-4 6v3h20v-3Zm4 6v3h16v-3zm8 6v3h8v-3z" style="fill:url(#f);fill-opacity:1;fill-rule:evenodd;stroke-width:.999999"/><path d="M39.555 21.402c-.736.04-1.53.687-1.527 1.405L38 43.994c0 .956 1.408 1.789 2.214 1.22l15.178-10.63c.811-.56.81-1.877 0-2.441l-15.15-10.557a1.08 1.08 0 0 0-.686-.184Z" style="fill:url(#g);fill-opacity:1;stroke-width:.999999"/><path d="M30 9h4v51h-4z" style="fill:#e05e4c;fill-opacity:1;stroke-width:2.0199;stroke-linejoin:round"/><path d="m24 4 8 10 8-10z" style="fill:url(#h);fill-opacity:1;stroke-width:.91287"/></svg>