<svg xmlns="http://www.w3.org/2000/svg" xmlns:xlink="http://www.w3.org/1999/xlink" width="64" height="64" viewBox="0 0 64 64"><defs><linearGradient xlink:href="#a" id="b" x1="16" x2="16" y1="30" y2="2" gradientTransform="scale(2)" gradientUnits="userSpaceOnUse"/><linearGradient id="a"><stop offset="0" style="stop-color:#77b842;stop-opacity:1"/><stop offset="1" style="stop-color:#b4d270;stop-opacity:1"/></linearGradient></defs><rect width="56" height="56" x="4" y="5" ry="12" style="opacity:.2;fill:#000;stroke-width:3.5"/><rect width="56" height="56" x="4" y="4" ry="12" style="fill:url(#b);stroke-width:2"/><path d="M38.572 10.91c-.76 1.108-2.812 3.441-4.144 4.778l-.59 1.425a15 15 0 0 1 7.39 3.062l.591-1.426c.004-1.886.202-4.988.449-6.308zm-13.142.002-3.695 1.53c.247 1.322.445 4.422.448 6.309l.59 1.424a15.1 15.1 0 0 1 7.39-3.061l-.59-1.424c-1.331-1.337-3.383-3.67-4.143-4.778m26.13 10.823c-1.321.247-4.422.445-6.308.448l-1.424.59a15.1 15.1 0 0 1 3.06 7.39l1.425-.59c1.336-1.331 3.669-3.383 4.777-4.143zm-32.81.447c-1.886-.003-4.988-.201-6.308-.448l-1.531 3.695c1.108.76 3.441 2.812 4.778 4.144l1.425.59a15 15 0 0 1 3.062-7.39zm28.139 11.656a15 15 0 0 1-3.061 7.39l1.425.591c1.887.004 4.988.202 6.309.449l1.53-3.696c-1.108-.76-3.44-2.812-4.777-4.144zm-29.774 0-1.424.59c-1.337 1.332-3.67 3.384-4.778 4.143l1.53 3.695c1.322-.246 4.422-.445 6.309-.448l1.424-.59a15.1 15.1 0 0 1-3.061-7.39m24.114 9.989a15.1 15.1 0 0 1-7.39 3.06l.59 1.425c1.332 1.336 3.384 3.669 4.143 4.777l3.695-1.53c-.246-1.321-.445-4.422-.448-6.308Zm-18.455 0-.59 1.425c-.004 1.887-.202 4.988-.45 6.309l3.696 1.53c.76-1.108 2.812-3.44 4.144-4.777l.59-1.426a15 15 0 0 1-7.39-3.061" style="opacity:.6;fill:#fff;stroke-width:2;stroke-linecap:round;stroke-linejoin:round"/><path d="M32 14c-9.94 0-18 8.06-18 18 0 9.942 8.06 18 18 18 9.942 0 18-8.058 18-18 0-9.94-8.058-18-18-18m0 4a14 14 0 0 1 14 14 14 14 0 0 1-14 14 14 14 0 0 1-14-14 14 14 0 0 1 14-14" style="fill:#fff;stroke-width:3.6;stroke-linecap:round;stroke-linejoin:round"/><path d="m24 34 6 6h-6z" style="fill:#fff;stroke-width:6;stroke-linecap:round"/></svg>