<svg xmlns="http://www.w3.org/2000/svg" xmlns:xlink="http://www.w3.org/1999/xlink" width="64" height="64" viewBox="0 0 64 64"><defs><linearGradient xlink:href="#a" id="b" x1="16" x2="16" y1="30" y2="2" gradientTransform="scale(2)" gradientUnits="userSpaceOnUse"/><linearGradient id="a"><stop offset="0" style="stop-color:#da9925;stop-opacity:1"/><stop offset="1" style="stop-color:#e9b68c;stop-opacity:1"/></linearGradient></defs><rect width="56" height="56" x="4" y="5" ry="12" style="opacity:.2;fill:#000;stroke-width:3.5"/><rect width="56" height="56" x="4" y="4" ry="12" style="fill:url(#b);stroke-width:2"/><path d="M28.62 16c-3.682 0-7.561.958-11.548 2.85-3.245 1.54-4.633 2.81-3.865 3.54.27.258.083.312 4.629-1.374 3.106-1.153 6.926-2.125 8.992-2.291 3.189-.257 6.987.541 13.71 2.879 2.415.839 5.192 1.72 6.17 1.959 2.094.508 2.314.43 4.06.435L52 24v-.998c0-1.138-.143-1.047-1.65-1.047-3.363 0-4.202-.516-9.262-2.65C35.668 17.019 32.383 16 28.62 16m-2.261 8.012a9.3 9.3 0 0 0-1.492.158c-1.893.39-4.428 1.806-5.983 3.244-2.41 2.228-5.134 6.395-4.867 7.445.12.473.248.505 2.371.594 1.233.052 3.647.33 5.54.62l3.482.52v1.468c-.594 2.688-.17 4.14-.065 5.119.396 3.543.401 3.929 1.317 3.8 1.414-2.3 1.376-6.71 1.386-9.251l1.444 1.398c3.954 3.488 5.419 3.738 8.81 5.37 2.805 1.142 5.21 1.649 7.92 1.452 1.666 0 3.77-1.846 3.768-3.98 0-1.646-.465-3.036-1.592-3.565-2.072-.972-4.37.181-4.37 2.338 0 2.117 2.041 3.294 3.395 1.955.565-.558.704-1.5.303-2.066-.178-.251-.197-.21-.086.18.384 1.342-.662 2.273-1.865 1.658-1.257-.643-1.019-2.707.352-3.047.677-.168 1.862.917 2.306 1.812.24.483.248.777.043 1.453-.672 2.22-3.695 2.231-8.244.038-1.103-.532-2.581-1.334-3.285-1.784-1.213-.775-2.793-1.725-4.91-3.564-1.122-.974-1.185-.84 1.74-1.313.841-.135 3.3-.841 5.463-1.568 3.842-1.29 3.988-1.595 6.336-1.611 1.321-.01-.875-.093 1.318.002l4.106.17v-4.078l-4.76-.118c-6.637-.172-3.402-.325-10.252-2.941-1.308-.5-2.703-1.103-3.617-1.34-1.622-.42-4.297-.631-6.012-.568m7.771 3.404c.08 0 1.212.635 3.038 1.408s3.556 1.462 3.843 1.533c.288.072.522.208.522.3 0 .09-1.106.709-2.457 1.372-2.757 1.353-4.391 1.92-7.055 2.051l-.656.027.709-.552c.39-.305.98-1.007 1.31-1.563.524-.881.602-1.236.602-2.79 0-.98.065-1.786.144-1.786m-11.494.47c.328-.06.325.441.328 1.444.007 1.973.486 3.048 1.864 4.18l.9.738-4.633-.389c-2.25-.212-3.997-.431-4.058-.492-.219-.216 1.389-1.868 3.158-3.547 1.317-1.25 2.114-1.872 2.441-1.933" style="fill:#482f00"/></svg>