<svg xmlns="http://www.w3.org/2000/svg" xmlns:xlink="http://www.w3.org/1999/xlink" width="64" height="64" viewBox="0 0 64 64"><defs><linearGradient xlink:href="#a" id="b" x1="16" x2="16" y1="30" y2="2" gradientTransform="scale(2)" gradientUnits="userSpaceOnUse"/><linearGradient id="a"><stop offset="0" style="stop-color:#c72222;stop-opacity:1"/><stop offset="1" style="stop-color:#cf5b5b;stop-opacity:1"/></linearGradient></defs><rect width="56" height="56" x="4" y="5" ry="12" style="opacity:.2;fill:#000;stroke-width:3.5"/><rect width="56" height="56" x="4" y="4" ry="12" style="fill:url(#b);stroke-width:2"/><path d="M27.318 10.362c-.329.29-.41.724-.41 1.23 0 .94.328 2.099.492 2.533 0 0 .246 5.066.328 5.645-.739.072-2.051.144-2.544.29h-.656c-1.395.072-2.708.144-3.282.65l-.246.218.246.29c.41.433.574 1.664.739 2.966.41 2.678.902 6.007 3.364 7.31l.492.217v-.507s.082-.217.082-.507c0-.217-.082-.579-.164-1.085.656.072 2.051.217 2.543.217.082.579 2.216 24.171 2.216 24.171h.82s.903-23.303.903-24.026c.574 0 3.117.072 3.856.144-.164.435-.82 2.244-.82 2.244l1.148-.94c.328-.218 7.466-5.935 6.482-9.698-.328-1.23-1.477-2.099-3.364-2.533h-.165c-1.066 0-4.348.072-6.81.217.083-1.882.083-2.895.083-3.401v-.652c0-.362.41-.868.738-1.23.328-.434.739-.796.739-1.23 0-.145-.083-.29-.164-.434-.493-.652-4.103-2.316-5.662-2.461-.492.072-.82.145-.984.362M27.4 22.23h.41c0 .652.246 5.21.328 5.862-.656-.072-2.215-.217-2.707-.217-.246-.94-.328-1.954-.41-2.967-.083-.869-.165-1.737-.329-2.533.739 0 2.708-.145 2.708-.145m5.005 2.244s.082-1.737.082-2.316c1.066.145 2.461.217 3.774.217h1.477c0 .29-.082.651-.082.651-.164 1.592-.41 3.474-1.149 5.356-.492 0-3.528-.145-4.184-.218 0-.506.082-3.69.082-3.69" style="display:inline;fill:#fff;fill-opacity:1;stroke-width:2"/></svg>