<svg xmlns="http://www.w3.org/2000/svg" xmlns:xlink="http://www.w3.org/1999/xlink" width="64" height="64" viewBox="0 0 64 64"><defs><linearGradient xlink:href="#a" id="b" x1="16" x2="16" y1="30" y2="2" gradientTransform="scale(2)" gradientUnits="userSpaceOnUse"/><linearGradient id="a"><stop offset="0" style="stop-color:#ffb251;stop-opacity:1"/><stop offset="1" style="stop-color:#ffde75;stop-opacity:1"/></linearGradient></defs><rect width="56" height="56" x="4" y="5" ry="12" style="opacity:.2;fill:#000;stroke-width:3.5"/><rect width="56" height="56" x="4" y="4" ry="12" style="fill:url(#b);stroke-width:2"/><path d="M41.37 41.12a5.7 5.7 0 0 1-2.759-.717q-1.325-.753-1.863-2.365h-.036a3.55 3.55 0 0 1-.967 1.433q-.645.574-1.434.932a6 6 0 0 1-1.54.502 8 8 0 0 1-1.434.143q-3.44 0-5.232-1.935-1.791-1.935-1.791-5.196v-2.795q0-3.297 1.72-5.196 1.755-1.935 4.766-1.935 2.005 0 3.189.61 1.183.608 1.684 1.468v-1.863h3.368v11.288q0 1.505.61 2.222.609.68 1.755.68.896 0 1.577-.322.68-.359 1.147-1.111.466-.788.717-2.007.25-1.254.25-3.046v-.394q0-3.01-.895-5.375-.861-2.365-2.58-4.013-1.72-1.684-4.229-2.545-2.508-.895-5.77-.895-2.794 0-5.124.895a11.1 11.1 0 0 0-4.013 2.616q-1.649 1.685-2.58 4.157-.932 2.473-.932 5.59v.61q0 3.332.896 5.912.931 2.544 2.652 4.264 1.72 1.756 4.192 2.652 2.51.932 5.626.932 2.688 0 5.34-.61 2.652-.573 4.873-1.72l1.004 2.509q-2.258 1.218-5.089 1.863-2.795.681-6.02.681-3.87 0-6.916-1.147-3.045-1.146-5.16-3.296T17.11 39.4Q16 36.355 16 32.59v-.68q0-3.44 1.075-6.343 1.11-2.939 3.118-5.053 2.042-2.114 4.909-3.297Q28.005 16 31.624 16q3.977 0 7.023 1.147 3.045 1.11 5.125 3.153 2.077 2.043 3.153 4.874Q48 28.004 48 31.409v.466q0 1.576-.323 3.225a9.6 9.6 0 0 1-1.039 2.974 6.4 6.4 0 0 1-2.042 2.186q-1.254.86-3.225.86m-13.509-7.776q0 2.042.896 3.26.895 1.184 2.83 1.183.754 0 1.434-.179.717-.179 1.254-.61.574-.429.896-1.146t.323-1.792v-3.153q0-.717-.215-1.362a2.7 2.7 0 0 0-.645-1.182q-.465-.538-1.219-.824-.751-.323-1.827-.323-1.755 0-2.76.968-.966.967-.967 3.511z" style="font-weight:700;font-size:4.74057px;line-height:1.25;font-family:&quot;나눔스퀘어&quot;;-inkscape-font-specification:&quot;나눔스퀘어 Bold&quot;;fill:#4d4d4d;fill-opacity:1;stroke-width:.895862"/></svg>