<svg xmlns="http://www.w3.org/2000/svg" xmlns:xlink="http://www.w3.org/1999/xlink" width="64" height="64" viewBox="0 0 64 64"><defs><linearGradient xlink:href="#a" id="e" x1=".686" x2="12.315" y1="14.784" y2="6.35" gradientTransform="matrix(3.5 0 0 3.5 4 4)" gradientUnits="userSpaceOnUse"/><linearGradient id="a"><stop offset="0" style="stop-color:#0ff;stop-opacity:1"/><stop offset="1" style="stop-color:#0ff;stop-opacity:0"/></linearGradient><linearGradient xlink:href="#b" id="g" x1="8" x2="8.009" y1="0" y2="12.053" gradientTransform="matrix(3.5 0 0 3.5 4 4)" gradientUnits="userSpaceOnUse"/><linearGradient id="b"><stop offset="0" style="stop-color:#f0f;stop-opacity:1"/><stop offset="1" style="stop-color:#f0f;stop-opacity:0"/></linearGradient><linearGradient xlink:href="#c" id="f" x1="15.436" x2="3.637" y1="14.619" y2="6.367" gradientTransform="matrix(3.5 0 0 3.5 4 4)" gradientUnits="userSpaceOnUse"/><linearGradient id="c"><stop offset="0" style="stop-color:#ff0;stop-opacity:1"/><stop offset="1" style="stop-color:#ff0;stop-opacity:0"/></linearGradient><linearGradient xlink:href="#d" id="h" x1="37.722" x2="22.045" y1="46.083" y2="46.083" gradientTransform="translate(-32.001 -48)scale(2.00001)" gradientUnits="userSpaceOnUse"/><linearGradient id="d"><stop offset="0" style="stop-color:#5596ea;stop-opacity:1"/><stop offset="1" style="stop-color:#5596ea;stop-opacity:0"/></linearGradient></defs><rect width="56" height="56" x="4" y="5" ry="12" style="opacity:.2;fill:#000;stroke-width:3.5"/><rect width="56" height="56" x="4" y="4" ry="12" style="fill:#fff;stroke-width:2"/><rect width="56" height="56" x="4" y="4" ry="12" style="fill:url(#e);stroke-width:3.5"/><rect width="56" height="56" x="4" y="4" ry="12" style="fill:url(#f);stroke-width:3.5"/><rect width="56" height="56" x="4" y="4" ry="12" style="fill:url(#g);stroke-width:3.5"/><path d="M4 47v1c0 6.648 5.352 12 12 12h32c6.648 0 12-5.352 12-12v-1c0 6.648-5.352 12-12 12H16C9.352 59 4 53.648 4 47" style="fill:#7f7f7f;fill-opacity:1;stroke-width:2"/><path d="M43.8 37.68C28 51.446 13.54 39.15 11.442 34.333c1.24 8.363 6.972 15.846 15.632 18.726 6.54 2.176 20.001.734 21.014-5.936z" style="fill:url(#h);fill-opacity:1;stroke-width:2.00002"/><path d="M8.031 7.016a12 12 0 0 0-3.117 4.363c5.476 5.572 14.173 14.483 16.445 17.05 3.512 3.968 11.832 10.288 16.157 6.305 3.056-4.998-4.924-11.732-9.582-14.304-3.118-1.722-13.44-9.015-19.903-13.414" style="fill:#4f4f4f;stroke-width:2.00002"/><path d="M43.554 39.643c-1.352.609-1.206 1.049-2.406.86-.828-.132-8-5.476-8-5.476-.363-.857.073-2.036.893-2.97.76-.98 1.843-1.643 2.771-1.47 0 0 6.799 5.796 7.1 6.565.437 1.115-.031 1.065-.358 2.491" style="fill:#9b9b9b;stroke-width:2.00002"/><path d="M44.886 51.369c5.083-2.82 6.278-7.9 4.271-11.494-1.56-2.793-4.12-3.32-5.89-1.97-1.754 1.34-1.91 2.935-1.386 4.52 1.068 3.234 5.645 5.61 3.005 8.944" style="fill:#3f3f3f;stroke-width:2.00002"/></svg>