<svg xmlns="http://www.w3.org/2000/svg" xmlns:xlink="http://www.w3.org/1999/xlink" width="64" height="64" viewBox="0 0 64 64"><defs><linearGradient xlink:href="#a" id="b" x1="16" x2="16" y1="30" y2="2" gradientTransform="scale(2)" gradientUnits="userSpaceOnUse"/><linearGradient id="a"><stop offset="0" style="stop-color:#3daee9;stop-opacity:1"/><stop offset="1" style="stop-color:#76c6ee;stop-opacity:1"/></linearGradient></defs><rect width="56" height="56" x="4" y="5" ry="12" style="opacity:.2;fill:#000;stroke-width:3.5"/><rect width="56" height="56" x="4" y="4" ry="12" style="fill:url(#b);stroke-width:2"/><path d="M24 12h16v25H24z" style="fill:#fff;fill-opacity:1;stroke-width:5.16394;stroke-linecap:round;stroke-linejoin:round"/><path d="M33.187 22a1.25 1.25 0 1 0 .063 0zm-5.562 4.976a.7.7 0 0 0-.19.054c-.494.216-.659.922-.01 2.402.65 1.48 1.576 2.507 2.07 2.29s.366-1.591-.283-3.071c-.568-1.296-1.127-1.727-1.587-1.67zM15.687 27a1.25 1.25 0 1 0 .063 0zm6.811 0c-.374.017-.811.374-.361.87.639.704.98 1.96.41 2.211-.573.252-.535-.936-.586-1.567s-1.631-1.012-2.217-.23c-.585.782.002 1.627.581 1.797.58.171.672.812 1.016 1.48.345.667 2.022.5 2.432 0s.666-1.432-.132-2.29-.556-1.657-.772-2.095c-.053-.11-.169-.164-.298-.176zm23.188 0a1.25 1.25 0 1 0 .063 0zm-4.472.415c-.451.01-.648.92-.762 1.778-.122.915-.582 1.862-.186 2.046.55.243.83-1.26 1.45-1.822.621-.562.109-1.87-.41-1.992a.4.4 0 0 0-.092-.01m-15.737.132a.978.978 0 0 0 0 1.953.978.978 0 0 0 0-1.953m11.06.293c-.635.047-1.263 1.13-1.573 1.88-.355.857.074 2.528-.762 3.154-.836.628-1.448.642-1.865.39-.418-.25.354-.216-.112-1.171-.468-.955-1.583-.656-1.875.088s.312.708.102 1.147c-.209.44-1.986.917-2.383-.4s-1.807-2.753-2.246-2.397c-.439.355.052 1.665 1.201 2.71s-.294 1.606-1.293.82c-1-.788-2.172.596-3.081 1.523-.91.926-1.72.99-2.369.435-.646-.554-.082-2.063-.83-3.58-.746-1.515-2.227-.76-2.436.264s1.873 1.717 1.47 2.285c-.404.57-2.02.438-2.496-.634-.475-1.072-1.512-.721-1.533.156-.02.878.804.261 1.446.903L32.488 52 49.07 35.413c1.951-1.95-.282-1.113-.742-.674-.46.44-1.883.794-2.05.313-.168-.481 1.592-1.288 2.094-1.831s.991-2.086.18-2.651c-.81-.566-1.957.453-2.455 1.206-.502.752-.069 2.671-.738 3.256-.669.586-1.037.228-1.162-.273-.126-.501 1.445-1.208.786-2.456-.66-1.248-1.877-.682-2.441-.098-.564.586.337 1.488.547 2.408.209.92-1.928.896-2.764.561s-1.11-2.433-1.465-2.559c-.355-.125-1.262.697-2.412.342s-.194-1.068.161-1.904.919-2.848.2-3.164a.6.6 0 0 0-.273-.049m-23.56 2.207a.978.978 0 0 0 0 1.953.978.978 0 0 0 0-1.953m37.997 1.963a.973.973 0 0 0 .049 1.948.973.973 0 1 0 0-1.948z" style="fill:#b0e8fb;fill-opacity:1;stroke-width:2.49996"/></svg>