<svg xmlns="http://www.w3.org/2000/svg" xmlns:xlink="http://www.w3.org/1999/xlink" width="64" height="64" viewBox="0 0 64 64"><defs><linearGradient xlink:href="#a" id="b" x1="16" x2="16" y1="30" y2="2" gradientTransform="scale(2)" gradientUnits="userSpaceOnUse"/><linearGradient xlink:href="#a" id="c" x1="16" x2="16" y1="28" y2="0" gradientTransform="matrix(2 0 0 2 0 4)" gradientUnits="userSpaceOnUse"/><linearGradient id="a"><stop offset="0" style="stop-color:#bd9565;stop-opacity:1"/><stop offset="1" style="stop-color:#dec18b;stop-opacity:1"/></linearGradient></defs><rect width="56" height="56" x="4" y="5" ry="12" style="opacity:.2;fill:#000;stroke-width:3.5"/><rect width="56" height="56" x="4" y="4" ry="12" style="fill:url(#b);stroke-width:2"/><rect width="26" height="20" x="14" y="14" ry="4" style="fill:#9f825a;fill-opacity:1;stroke-width:8;stroke-linecap:round;stroke-linejoin:round"/><path d="M14 18v28c0 2.216 1.784 4 4 4h28c2.216 0 4-1.784 4-4V26c0-2.216-1.784-4-4-4H18a4 4 0 0 1-4-4" style="fill:#eaddca;fill-opacity:1;stroke-width:16;stroke-linecap:round;stroke-linejoin:round"/><rect width="16" height="8" x="38" y="32" ry="2" style="fill:#fff;stroke-width:16;stroke-linecap:round;stroke-linejoin:round"/><circle cx="50" cy="36" r="2" style="fill:url(#c);fill-opacity:1;stroke-width:8;stroke-linecap:round;stroke-linejoin:round"/></svg>