<svg xmlns="http://www.w3.org/2000/svg" xmlns:xlink="http://www.w3.org/1999/xlink" width="64" height="64" viewBox="0 0 64 64"><defs><linearGradient xlink:href="#a" id="b" x1="16" x2="16" y1="30" y2="2" gradientTransform="scale(2)" gradientUnits="userSpaceOnUse"/><linearGradient id="a"><stop offset="0" style="stop-color:#2ba611;stop-opacity:1"/><stop offset="1" style="stop-color:#89e451;stop-opacity:1"/></linearGradient></defs><rect width="56" height="56" x="4" y="5" ry="12" style="opacity:.2;fill:#000;stroke-width:3.5"/><rect width="56" height="56" x="4" y="4" ry="12" style="fill:url(#b);stroke-width:2"/><path d="M18 22c-1.108 0-2 .892-2 2v14c0 1.108.892 2 2 2h22c1.108 0 2-.892 2-2V24c0-1.108-.892-2-2-2zm0 2h6v2h-6zm8 0h6v2h-6zm8 0h6v2h-6zm-16 4h6v2h-6zm8 0h6v2h-6zm8 0h6v2h-6zm-16 4h6v2h-6zm8 0h6v2h-6zm8 0h6v2h-6zm-16 4h6v2h-6zm8 0h6v2h-6zm8 0h6v2h-6z" style="fill:#fff"/><rect width="18" height="14" x="30" y="32" ry="2" style="fill:#b1e59b;fill-opacity:1;stroke:none;stroke-width:1.16666"/><path d="M36 34v10h2V34Zm-4 2v8h2v-8zm8 4v4h2v-4zm4-2v6h2v-6z" style="fill:#5aba30;fill-opacity:1;stroke:none;stroke-width:1.99999"/></svg>