<svg xmlns="http://www.w3.org/2000/svg" xmlns:xlink="http://www.w3.org/1999/xlink" width="64" height="64" viewBox="0 0 64 64"><defs><linearGradient xlink:href="#a" id="b" x1="16" x2="16" y1="30" y2="2" gradientTransform="scale(2)" gradientUnits="userSpaceOnUse"/><linearGradient id="a"><stop offset="0" style="stop-color:#8a0ac2;stop-opacity:1"/><stop offset="1" style="stop-color:#d378e5;stop-opacity:1"/></linearGradient></defs><rect width="56" height="56" x="4" y="5" ry="12" style="opacity:.2;fill:#000;stroke-width:3.5"/><rect width="56" height="56" x="4" y="4" ry="12" style="fill:url(#b);stroke-width:2"/><path d="M23.5 20c-4.142 0-7.5.808-7.5 2v3c0 1.192 3.358 2 7.5 2s7.5-.808 7.5-2v-3c0-1.192-3.358-2-7.5-2M16 27v4c0 1.192 3.358 2 7.5 2s7.5-.808 7.5-2v-4c0 1.192-3.358 2-7.5 2s-7.5-.808-7.5-2m0 6v4c0 1.192 3.358 2 7.5 2s7.5-.808 7.5-2v-4c0 1.192-3.358 2-7.5 2s-7.5-.808-7.5-2m0 6v4c0 1.192 3.358 2 7.5 2s7.5-.808 7.5-2v-4c0 1.192-3.358 2-7.5 2s-7.5-.808-7.5-2" style="fill:#e88ff7;fill-opacity:1;stroke-width:1.93649;stroke-linecap:round;stroke-linejoin:round"/><path d="M36 24c-1.108 0-2 .892-2 2v16c0 1.108.892 2 2 2h10c1.108 0 2-.892 2-2V26c0-1.108-.892-2-2-2zm0 2h4v4h-4zm6 0h4v4h-4zm-6 6h4v4h-4zm6 0h4v4h-4zm-6 6h4v4h-4zm6 0h4v4h-4z" style="fill:#fff"/></svg>