<svg xmlns="http://www.w3.org/2000/svg" xmlns:xlink="http://www.w3.org/1999/xlink" width="64" height="64" viewBox="0 0 64 64"><defs><linearGradient xlink:href="#a" id="b" x1="16" x2="16" y1="30" y2="2" gradientTransform="scale(2)" gradientUnits="userSpaceOnUse"/><linearGradient id="a"><stop offset="0" style="stop-color:#d75112;stop-opacity:1"/><stop offset="1" style="stop-color:#f47700;stop-opacity:1"/></linearGradient></defs><rect width="56" height="56" x="4" y="5" ry="12" style="opacity:.2;fill:#000;stroke-width:3.5"/><rect width="56" height="56" x="4" y="4" ry="12" style="fill:url(#b);stroke-width:2"/><rect width="16" height="12" x="32" y="33" ry="2" style="fill:#f7c195;fill-opacity:1;stroke-width:4.58258;stroke-linecap:round;stroke-linejoin:round"/><path d="M17 21c-.554 0-1 .446-1 1s.446 1 1 1h30c.554 0 1-.446 1-1s-.446-1-1-1zm4 4c-.554 0-1 .446-1 1s.446 1 1 1h22c.554 0 1-.446 1-1s-.446-1-1-1zm-4 8a1 1 0 1 0 0 2 1 1 0 0 0 0-2m4 0c-.554 0-1 .446-1 1s.446 1 1 1h8c.554 0 1-.446 1-1s-.446-1-1-1zm-4 4a1 1 0 1 0 0 2 1 1 0 0 0 0-2m4 0c-.554 0-1 .446-1 1s.446 1 1 1h8c.554 0 1-.446 1-1s-.446-1-1-1zm-4 4a1 1 0 1 0 0 2 1 1 0 0 0 0-2m4 0c-.554 0-1 .446-1 1s.446 1 1 1h8c.554 0 1-.446 1-1s-.446-1-1-1z" style="fill:#fff;stroke-width:1.99999;stroke-linecap:round;stroke-linejoin:round"/><path d="M45.625 35.219a1 1 0 0 0-1.406.156L41.363 39l-2.215-1.848a1 1 0 0 0-1.4.118l-3.508 4.08a1 1 0 1 0 1.52 1.3l2.865-3.33 2.242 1.87a1 1 0 0 0 1.422-.143l3.492-4.422a1 1 0 0 0-.156-1.406" style="color:#000;fill:#e35100;fill-opacity:1;stroke-linecap:round;stroke-linejoin:round;-inkscape-stroke:none"/></svg>