<svg xmlns="http://www.w3.org/2000/svg" xmlns:xlink="http://www.w3.org/1999/xlink" width="64" height="64" viewBox="0 0 64 64"><defs><linearGradient xlink:href="#a" id="b" x1="16" x2="16" y1="30" y2="2" gradientTransform="scale(2)" gradientUnits="userSpaceOnUse"/><linearGradient id="a"><stop offset="0" style="stop-color:#086bc8;stop-opacity:1"/><stop offset="1" style="stop-color:#1ca3fa;stop-opacity:1"/></linearGradient></defs><rect width="56" height="56" x="4" y="5" ry="12" style="opacity:.2;fill:#000;stroke-width:3.5"/><rect width="56" height="56" x="4" y="4" ry="12" style="fill:url(#b);stroke-width:2"/><path d="M17 20c-.554 0-1 .446-1 1s.446 1 1 1h12c.554 0 1-.446 1-1s-.446-1-1-1zm0 4c-.554 0-1 .446-1 1s.446 1 1 1h12c.554 0 1-.446 1-1s-.446-1-1-1zm0 4c-.554 0-1 .446-1 1s.446 1 1 1h12c.554 0 1-.446 1-1s-.446-1-1-1zm0 6c-.554 0-1 .446-1 1s.446 1 1 1h30c.554 0 1-.446 1-1s-.446-1-1-1zm0 4c-.554 0-1 .446-1 1s.446 1 1 1h30c.554 0 1-.446 1-1s-.446-1-1-1zm0 4c-.554 0-1 .446-1 1s.446 1 1 1h12c.554 0 1-.446 1-1s-.446-1-1-1z" style="fill:#fff;stroke-width:2"/><path d="M36 20c-1.108 0-2 .892-2 2v6c0 1.108.892 2 2 2h10c1.108 0 2-.892 2-2v-6c0-1.108-.892-2-2-2zm2 3 6 5h-8zm7-1a1 1 0 1 1 0 2 1 1 0 0 1 0-2" style="fill:#7ad2f9;fill-opacity:1;stroke-width:2"/></svg>