<svg xmlns="http://www.w3.org/2000/svg" xmlns:xlink="http://www.w3.org/1999/xlink" width="64" height="64" viewBox="0 0 64 64"><defs><linearGradient xlink:href="#a" id="b" x1="16" x2="16" y1="30" y2="2" gradientTransform="scale(2)" gradientUnits="userSpaceOnUse"/><linearGradient id="a"><stop offset="0" style="stop-color:#d3113a;stop-opacity:1"/><stop offset="1" style="stop-color:#f239a1;stop-opacity:1"/></linearGradient></defs><rect width="56" height="56" x="4" y="5" ry="12" style="opacity:.2;fill:#000;stroke-width:3.5"/><rect width="56" height="56" x="4" y="4" ry="12" style="fill:url(#b);stroke-width:2"/><path d="M30 20v.008a1 1 0 0 0-.828.652l-6.195 15.102-1.813-5.02A.996.996 0 0 0 20.2 30H17c-.554 0-1 .446-1 1s.446 1 1 1h2.434l2.328 5.953c.201.685.373.993.707 1.129a1 1 0 0 0 1.285-.598L30.812 22H47c.554 0 1-.446 1-1s-.446-1-1-1zM17 44c-.554 0-1 .446-1 1s.446 1 1 1h6c.554 0 1-.446 1-1s-.446-1-1-1zm12 0c-.554 0-1 .446-1 1s.446 1 1 1h6c.554 0 1-.446 1-1s-.446-1-1-1zm12 0c-.554 0-1 .446-1 1s.446 1 1 1h6c.554 0 1-.446 1-1s-.446-1-1-1z" style="fill:#fff;stroke-width:4;stroke-linecap:round;stroke-linejoin:round"/><path d="M34.344 26.344a1.996 1.996 0 0 0 0 2.828L37.17 32l-2.827 2.828a1.996 1.996 0 0 0 0 2.828 1.996 1.996 0 0 0 2.828 0L40 34.828l2.828 2.828a1.996 1.996 0 0 0 2.828 0 1.996 1.996 0 0 0 0-2.828L42.828 32l2.828-2.828a1.996 1.996 0 0 0 0-2.828 1.996 1.996 0 0 0-2.828 0L40 29.17l-2.828-2.827a1.996 1.996 0 0 0-2.828 0" style="fill:#ef95b4;fill-opacity:1;stroke-width:4;stroke-linecap:round;stroke-linejoin:round"/></svg>