<svg xmlns="http://www.w3.org/2000/svg" xmlns:xlink="http://www.w3.org/1999/xlink" width="64" height="64" viewBox="0 0 64 64"><defs><linearGradient id="a"><stop offset="0" style="stop-color:#eaebed;stop-opacity:1"/><stop offset="1" style="stop-color:#f9fafa;stop-opacity:1"/></linearGradient><linearGradient xlink:href="#a" id="c" x1="16" x2="16" y1="30" y2="2" gradientTransform="scale(2)" gradientUnits="userSpaceOnUse"/><linearGradient id="b"><stop offset="0" style="stop-color:#0091f9;stop-opacity:1"/><stop offset="1" style="stop-color:#41bbff;stop-opacity:1"/></linearGradient><linearGradient xlink:href="#b" id="d" x1="16" x2="16" y1="30" y2="2" gradientTransform="scale(2)" gradientUnits="userSpaceOnUse"/></defs><rect width="56" height="56" x="4" y="5" ry="12" style="opacity:.2;fill:#000;stroke-width:3.5"/><rect width="56" height="56" x="4" y="4" ry="12" style="fill:url(#c);stroke-width:2"/><path d="M41 20v3h-7.138v3.003h1.219V26h9v.003h4.172c-.77 2.671-2.472 5.25-4.131 7.21-2.082-2.429-2.685-3.68-2.865-4.213h-3.06c.226.687 1.064 2.517 4.17 6.103-1.34 1.35-6.534 5.735-6.534 5.735l.937 2.892s5.596-4.787 7.37-6.641c1.779 1.901 4.076 4.186 7.045 6.911l1.93-1.901c-3.18-2.843-5.51-5.099-7.224-6.911 2.297-2.678 4.628-6.105 5.121-9.19h4.985v.005h.006V23H44v-3z" style="fill:#5a717f;stroke-width:2"/><path d="M16 4C9.352 4 4 9.352 4 16v32c0 6.648 5.352 12 12 12h26L24 4Z" style="fill:url(#d);stroke-width:10;stroke-linecap:round;stroke-linejoin:round"/><path d="m24.048 40-1.357-4H15.31l-1.357 4H10l6.574-18H21.4L28 40Zm-2.145-7L19 24.787 16.15 33Z" style="fill:#fff;stroke-width:1.99999"/></svg>