<svg xmlns="http://www.w3.org/2000/svg" xmlns:xlink="http://www.w3.org/1999/xlink" width="64" height="64" viewBox="0 0 64 64"><defs><linearGradient id="a"><stop offset="0" style="stop-color:#eaebed;stop-opacity:1"/><stop offset="1" style="stop-color:#f9fafa;stop-opacity:1"/></linearGradient><linearGradient xlink:href="#a" id="c" x1="16" x2="16" y1="30" y2="2" gradientTransform="scale(2)" gradientUnits="userSpaceOnUse"/><linearGradient id="b"><stop offset="0" style="stop-color:#e64686;stop-opacity:1"/><stop offset="1" style="stop-color:#ec7e93;stop-opacity:1"/></linearGradient><linearGradient xlink:href="#a" id="e" x1="8" x2="8" y1="15.778" y2=".222" gradientTransform="matrix(3.6 0 0 3.6 3.2 3.2)" gradientUnits="userSpaceOnUse"/><linearGradient xlink:href="#b" id="d" x1="11" x2="11" y1="21" y2="1" gradientTransform="translate(1.2 1.2)scale(2.79999)" gradientUnits="userSpaceOnUse"/><linearGradient xlink:href="#b" id="f" x1="8.222" x2="8.222" y1="16.399" y2="-.399" gradientTransform="matrix(3.59998 0 0 3.33366 2.4 5.33)" gradientUnits="userSpaceOnUse"/></defs><rect width="56" height="56" x="4" y="5" ry="12" style="opacity:.2;fill:#000;stroke-width:4.9"/><rect width="56" height="56" x="4" y="4" ry="12" style="fill:url(#c);stroke-width:1.99999"/><path d="M24.156 4a45 45 0 0 0-.554 7c-.03 11.703 8.394 20.996 8.398 21 0 0 1.755-15.447 9.52-28zM32 32s13.57-6.06 28-5.879c-.012-6.5-.003-2.57 0-10.121v-.078a12 12 0 0 0-1.82-6.293c-6.416 1.157-8.32 2.376-12.192 4.598C35.838 20.053 32.001 31.997 32 32m0 0s16.263 9.458 21.031 26.906A11.98 11.98 0 0 0 60 48.008V39c-1.576-1.25-3.423-2.516-5.61-3.773C44.27 29.349 32.004 31.999 32 32m0 0c-.001.027-.618 15.857-9.52 28h17.641c.31-2.04.282-4.361.277-7 .03-11.7-8.388-20.99-8.398-21m0 0s-13.566 6.063-27.996 5.883C4 40.58 4 44.602 4 48v.043a11.97 11.97 0 0 0 1.695 6.129c4.538-.713 8.515-2.195 12.317-4.399C28.154 43.952 31.992 32.023 32 32m0 0S16.393 22.116 10.137 5.516a11.97 11.97 0 0 0-6.102 9.566c.006 3.733.004 7.55-.02 9.934 1.57 1.239 3.397 2.494 5.594 3.757C19.725 34.648 31.985 32.003 32 32" style="fill:url(#d);fill-opacity:1;stroke-width:6.64079;stroke-linecap:round;stroke-linejoin:round"/><circle cx="32" cy="32" r="18" style="fill:url(#e);fill-opacity:1;stroke-width:7.2;stroke-linecap:round;stroke-linejoin:round"/><path d="M25.142 22.092c-.627-.334-1.142.333-1.142 1v17.815c0 .84.93 1.365 1.673.945l7.885-4.454 7.884-4.453a1.08 1.08 0 0 0 0-1.89L33.558 26.6l-7.885-4.453a1.1 1.1 0 0 0-.531-.147z" style="fill:url(#f);fill-opacity:1;stroke-width:3.46427"/></svg>