<svg xmlns="http://www.w3.org/2000/svg" xmlns:xlink="http://www.w3.org/1999/xlink" width="64" height="64" viewBox="0 0 64 64"><defs><linearGradient xlink:href="#a" id="b" x1="16" x2="16" y1="30" y2="2" gradientTransform="scale(2)" gradientUnits="userSpaceOnUse"/><linearGradient id="a"><stop offset="0" style="stop-color:#272727;stop-opacity:1"/><stop offset="1" style="stop-color:#5d5d5d;stop-opacity:1"/></linearGradient></defs><rect width="56" height="56" x="4" y="5" ry="12" style="opacity:.2;fill:#000;stroke-width:3.5"/><rect width="56" height="56" x="4" y="4" ry="12" style="fill:url(#b);stroke-width:2"/><path d="M32.143 12a1.5 1.5 0 0 0-.664.186s-4.439 2.432-8.89 5.047c-2.224 1.308-4.45 2.659-6.155 3.795-.853.569-1.57 1.078-2.127 1.537-.279.23-.516.44-.737.692S13 23.723 13 24.6V41h3V25.075c.069-.065.101-.101.215-.195.411-.34 1.076-.818 1.883-1.356 1.613-1.076 3.812-2.412 6.011-3.705 4.035-2.37 7.438-4.236 8.08-4.59.636.358 3.949 2.215 7.887 4.582 2.15 1.293 4.299 2.628 5.875 3.704.788.537 1.437 1.015 1.838 1.353.112.095.144.133.211.197v15.936h3V24.6c0-.86-.339-1.079-.555-1.33a6 6 0 0 0-.72-.696c-.546-.46-1.249-.97-2.082-1.539-1.668-1.137-3.845-2.487-6.02-3.795-4.35-2.615-8.69-5.049-8.69-5.049a1.5 1.5 0 0 0-.79-.191m.357 5.5-.354.647-.646.354.646.353.354.647.354-.647.646-.353-.646-.354Zm-4.592 2.41A12.6 12.6 0 0 0 20 31.6c0 5.048 2.974 9.39 7.26 11.4H11v.667h4v.668h-4V45h6v.666h-4v.668h8V47h-4v.666h9v.668h-2V49h14v-.666h-2v-.668h9V47h-4v-.666h8v-.668h-4V45h6v-.666h-4v-.668h4V43H37.959a12.6 12.6 0 0 0 6.334-6.707 12.6 12.6 0 0 1-4.693.906A12.596 12.596 0 0 1 27.909 19.91M41.5 23.5l-.354.647-.646.354.646.353.354.647.354-.647.646-.353-.646-.354Zm-11 .5-.531.97-.969.53.969.532.531.969.531-.969.969-.531-.969-.531Zm-12 .5-.354.647-.646.354.646.353.354.647.354-.647.646-.353-.646-.354Zm17 2-.354.647-.646.354.646.353.354.647.354-.647.646-.353-.646-.354Zm8 2-.707 1.294-1.293.707 1.293.707.707 1.293.707-1.293L45.5 30.5l-1.293-.707Zm-6 2.5-.531.97-.969.53.969.532.531.969.531-.969.969-.531-.969-.531Zm-18 5.5-.707 1.294-1.293.707 1.293.707.707 1.293.707-1.293L21.5 38.5l-1.293-.707Z" style="fill:#fff"/></svg>