<svg xmlns="http://www.w3.org/2000/svg" xmlns:xlink="http://www.w3.org/1999/xlink" width="64" height="64" viewBox="0 0 64 64"><defs><linearGradient id="a"><stop offset="0" style="stop-color:#eaebed;stop-opacity:1"/><stop offset="1" style="stop-color:#f9fafa;stop-opacity:1"/></linearGradient><linearGradient xlink:href="#a" id="e" x1="16" x2="16" y1="30" y2="2" gradientTransform="scale(2)" gradientUnits="userSpaceOnUse"/><linearGradient id="d"><stop offset="0" style="stop-color:#ffba00;stop-opacity:1"/><stop offset="1" style="stop-color:#ff7f02;stop-opacity:1"/></linearGradient><linearGradient xlink:href="#b" id="h" x1="10" x2="10.003" y1="10" y2="23.739" gradientTransform="scale(2)" gradientUnits="userSpaceOnUse"/><linearGradient id="b"><stop offset="0" style="stop-color:#794d3b;stop-opacity:1"/><stop offset="1" style="stop-color:#5e3c2e;stop-opacity:1"/></linearGradient><linearGradient xlink:href="#c" id="i" x1="16.893" x2="16.893" y1="16.46" y2="10.46" gradientTransform="scale(2)" gradientUnits="userSpaceOnUse"/><linearGradient id="c"><stop offset="0" style="stop-color:#e5dfdd;stop-opacity:1"/><stop offset="1" style="stop-color:#fff;stop-opacity:1"/></linearGradient><linearGradient xlink:href="#b" id="j" x1="10.003" x2="10.003" y1="9.739" y2="23.739" gradientTransform="scale(2)" gradientUnits="userSpaceOnUse"/><radialGradient xlink:href="#d" id="g" cx="8.75" cy="8.75" r="4.5" fx="8.75" fy="8.75" gradientTransform="matrix(3.33327 -.02008 .03012 5 5.57 -9.574)" gradientUnits="userSpaceOnUse"/></defs><rect width="56" height="56" x="4" y="5" ry="12" style="opacity:.2;fill:#000;stroke-width:3.5"/><rect width="56" height="56" x="4" y="4" ry="12" style="fill:url(#e);stroke-width:2"/><circle cx="35" cy="34" r="15" style="fill:url(#g);fill-opacity:1;stroke-width:13.3334;stroke-linecap:round;stroke-linejoin:round"/><path d="M31.366 12.001c-10.463-.01-19.084 8.607-19.36 19.476-.279 11.042 8.159 20.227 18.846 20.515 5.207.14 9.985-1.856 13.55-5.218.381-.318.588-.516.588-.516s3.867-4.058 4.075-7.408c-.987 1.63-1.892 3.262-4.348 4.47-1.126.522-2.159.966-3.2 1.317l-.2.049q-.74.178-1.551.29-.1.015-.2.026a21 21 0 0 1-1.74.149l-.187.004q-.886.03-1.809-.006l-.119-.002a27 27 0 0 1-1.89-.159l-.272-.029a26 26 0 0 1-1.847-.305l-.297-.06a25 25 0 0 1-2.338-.617q-.21-.066-.418-.135-.294-.102-.584-.213c-.158-.06-.317-.117-.473-.18q-.269-.11-.53-.228c-.15-.066-.302-.128-.448-.197q-.48-.225-.934-.473a9 9 0 0 1-2.018-1.508c-2.039-2.081-1.944-4.529-1.837-6.115.135-1.992 1.805-6.364 7.302-8.68 3.397-1.199 7.391-2.037 10.73-.962 2.513.567 4.319 1.39 6.708 2.234 0 0-.02.042.64.205 4.646.736 4.124-3.091 4.124-3.091l-.364-.896c-.08-.472.273-.844.273-.844s-.286-1.055-.238-1.753c.049-.697.01-1.59-.143-2.865-.152-1.274-.988-1.782-1.26-1.98-.271-.198-1.538-1.153-2.751-1.629-1.214-.476-2.442-.828-3.953-.615-.168.024-.327.05-.492.074-.03-.01-.053-.02-.084-.03-.577-.17-.984-1.103-1.455-1.092a1.4 1.4 0 0 0-.221.024h-.002l-.115.027a1 1 0 0 0-.123.045c-.276.128-.445.61-.55.926a18.8 18.8 0 0 0-8.485-2.025m-5.672 10.752c-.675.49-3.327 2.44-4.94 5.156 1.613-2.717 2.385-3.444 4.94-5.156M42.733 44.27" style="fill:url(#h);fill-opacity:1;stroke-width:2"/><path d="M31.367 12c-10.463-.01-19.084 8.607-19.36 19.477q-.009.456.003.908C12.33 21.559 20.932 12.99 31.365 13q.248 0 .498.008c2.867.077 5.57.795 7.989 2.017.104-.316.273-.797.548-.925a1 1 0 0 1 .123-.045q.06-.016.116-.028h.002a1.4 1.4 0 0 1 .22-.023c.471-.011.879.92 1.455 1.092.032.009.055.02.084.029.166-.025.325-.05.493-.074 1.511-.213 2.739.139 3.953.615s2.48 1.431 2.752 1.629c.27.198 1.107.706 1.26 1.98.08.668.127 1.226.148 1.711.034-.675-.005-1.522-.147-2.709-.152-1.274-.99-1.782-1.261-1.98-.272-.198-1.537-1.153-2.75-1.629-1.215-.476-2.442-.83-3.953-.617-.168.024-.327.05-.493.074l-.086-.027c-.576-.172-.982-1.105-1.453-1.094a1.4 1.4 0 0 0-.34.05 1 1 0 0 0-.12.048c-.276.128-.447.61-.551.925A18.8 18.8 0 0 0 31.367 12m19.649 9.686q-.004.138-.01.267c.011.25.014.477.012.69q.007.103.02.207c.014-.094.026-.187.034-.295.038.243.057.4.067.482.054-.087.1-.142.1-.142s-.165-.61-.223-1.21" style="opacity:.2;fill:#fff;fill-opacity:1;stroke-width:2"/><path d="M39.804 18.021c-2.093-.003-4.361.61-6.019 1.186-3.142 1.112-6.545 1.727-9.09 3.546-.676.49-3.107 2.439-4.72 5.155-4.455 7.877-.081 16.67 5.68 18.57 6.334 2.369 13.111 2.624 20.737-4.116-.656.525-1.85 1.311-3.66 1.907-4.314 1.608-11.935 1.092-17.052-1.718-4.116-2.277-3.789-5.63-3.654-7.622.135-1.993 1.605-6.365 7.102-8.68 3.397-1.2 7.39-2.038 10.73-.963 2.512.567 4.317 1.593 6.706 2.436 0 0-.02.04.64.204C51.85 28.662 52 24.573 52 24.573l-.132-.744-.405-1.011-.193-.433-.116-.235s-.033-.295-.08-.596c-.09 1.123-.536 1.447-.536 1.447-3.61-.685-4.256-3.227-8.063-4.534-.805-.317-1.72-.445-2.67-.446m6.588 24.341c.42-.336.625-.566.625-.566q-.314.292-.625.566" style="fill:url(#i);fill-opacity:1;stroke-width:2"/><path d="m19.655 27.299-.022.178c1.453-.074 5.034.241 6.355 1.168 1.024.691 1.947 1.723 3.26 1.256.898-.315.947-.848.603-1.725-.29-.712-.77-1.943-1.364-2.415-.856-.677-3.068-.44-3.179-1.856-.083-.67.318-1.417.692-1.905 0 0-6.064 1.32-6.345 5.299" style="fill:url(#j);fill-opacity:1;stroke-width:2"/><path d="M51.604 21.536c-.042.551-.393.965-.783.923-.39-.04-.672-.52-.629-1.072.043-.55.393-.963.782-.922.39.042.672.52.63 1.071m-4.92-.107a1.503 1.503 0 0 1-2.365-1.856 1.5 1.5 0 0 1 2.104-.251c.653.513.769 1.456.26 2.107M50.537 23s-.173.545-.984.593c-.812.048-.671 1.176.032 1.808s1.254.805 1.723.32c.469-.484 1.619-1.287-.771-2.721" style="fill:#3f3f3f;stroke-width:2"/></svg>