<svg xmlns="http://www.w3.org/2000/svg" xmlns:xlink="http://www.w3.org/1999/xlink" width="64" height="64" viewBox="0 0 64 64"><defs><linearGradient xlink:href="#a" id="b" x1="16" x2="16" y1="30" y2="2" gradientTransform="scale(2)" gradientUnits="userSpaceOnUse"/><linearGradient id="a"><stop offset="0" style="stop-color:#ffde75;stop-opacity:1"/><stop offset="1" style="stop-color:#ffecab;stop-opacity:1"/></linearGradient></defs><rect width="56" height="56" x="4" y="5" ry="12" style="opacity:.2;fill:#000;stroke-width:3.5"/><rect width="56" height="56" x="4" y="4" ry="12" style="fill:url(#b);stroke-width:2"/><path d="M16 4C9.352 4 4 9.352 4 16v32c0 6.648 5.352 12 12 12h16V4Z" style="opacity:.4;fill:#fff;stroke-width:4;stroke-linecap:round;stroke-linejoin:round"/><path d="M45.141 20.976c0 2.73-.054 5.294-.432 7.686l-8.509-.038.927 1.435h7.314c-.917 4.093-3.029 7.638-7.918 10.563l.325 1.993c5.212-2.473 8.54-6.332 9.598-12.556h9.261l-3.268-3.267-1.435 1.9-4.364-.02q.17-1.532.17-3.248l1.624-.369zm4.263 2.365-.924.462c.966.891 2.272 1.615 2.316 2.967l1.854-1.392c-.745-1.1-2.024-1.534-3.246-2.037m-2.502 7.552c0 6.323 7.09 11.769 7.09 11.769l1.808-2.874s-7.878-3.797-7.878-8.665zM17.842 20.66l-1.22 1.091.027 2.896-8.449-.252 1.29 1.745h7.17l.02 2.925h-3.932l-1.67-.798.07 8.617 1.83-.943v-1.092h3.742l.022 3.194-8.364-.068 2.258 2.291.968-.837h5.15l.013 1.928c0 .692.645 1.381.645 1.381l1.791-1.31s-.858-.54-.858-1.162l-.022-.837h9.198l-2.53-2.164-1.216.835-5.49-.043-.074-3.207h2.778l.762 1.2 1.33-1.348-.54-.618v-4.51l1.182-.725-2.83-1.528.016 1.744h-2.843l-.058-2.925h7.971l-2.527-2.562-1.22 1.236-4.265-.126zm-4.864 9.316h3.707l.01 1.454h-3.717zm5.112 0h2.83l.014 1.454h-2.805zm-5.112 2.362h3.726l.008 1.601h-3.734zm5.175 0h2.789l.014 1.601h-2.77z" style="fill:#c58c00;stroke-width:2"/></svg>