<svg xmlns="http://www.w3.org/2000/svg" xmlns:xlink="http://www.w3.org/1999/xlink" width="64" height="64" viewBox="0 0 64 64"><defs><linearGradient xlink:href="#a" id="f" x1="16" x2="16" y1="30" y2="2" gradientTransform="scale(2)" gradientUnits="userSpaceOnUse"/><linearGradient id="c"><stop offset="0" style="stop-color:#0091f9;stop-opacity:1"/><stop offset="1" style="stop-color:#41bbff;stop-opacity:1"/></linearGradient><linearGradient id="a"><stop offset="0" style="stop-color:#d0c7b6;stop-opacity:1"/><stop offset="1" style="stop-color:#e9e5dc;stop-opacity:1"/></linearGradient><linearGradient xlink:href="#b" id="j" x1="16" x2="16" y1="16.5" y2="0" gradientTransform="translate(5.333)scale(2.66667)" gradientUnits="userSpaceOnUse"/><linearGradient id="b"><stop offset="0" style="stop-color:#e72f2f;stop-opacity:1"/><stop offset="1" style="stop-color:#ff6969;stop-opacity:1"/></linearGradient><linearGradient xlink:href="#b" id="k" x1="14" x2="14" y1="2" y2="6" gradientTransform="matrix(4 0 0 4 -8 0)" gradientUnits="userSpaceOnUse"/><linearGradient xlink:href="#c" id="g" x1="16" x2="16" y1="30" y2="2" gradientTransform="scale(2)" gradientUnits="userSpaceOnUse"/><linearGradient xlink:href="#d" id="i" x1="16" x2="16" y1="30" y2="2" gradientTransform="scale(2)" gradientUnits="userSpaceOnUse"/><linearGradient id="d"><stop offset="0" style="stop-color:#eaebed;stop-opacity:1"/><stop offset="1" style="stop-color:#f9fafa;stop-opacity:1"/></linearGradient><linearGradient id="e"><stop offset="0" style="stop-color:#1ea362;stop-opacity:1"/><stop offset="1" style="stop-color:#2bd885;stop-opacity:1"/></linearGradient><linearGradient xlink:href="#e" id="h" x1="16" x2="16" y1="30" y2="2" gradientTransform="scale(2)" gradientUnits="userSpaceOnUse"/></defs><rect width="56" height="56" x="4" y="5" ry="12" style="opacity:.2;fill:#000;stroke-width:3.5"/><rect width="56" height="56" x="4" y="4" ry="12" style="fill:url(#f);stroke-width:2"/><path d="M32 34.8 9.023 57.778A11.97 11.97 0 0 0 16 60h32c2.606 0 5.013-.822 6.977-2.223z" style="fill:url(#g);stroke-width:2"/><path d="m57.816 9.082-23.015 23.02 22.933 22.933A11.97 11.97 0 0 0 60 48V16c0-2.58-.808-4.965-2.184-6.918" style="fill:url(#h);stroke-width:2"/><path d="M53.777 5.469 5.402 53.652a12 12 0 0 0 4.95 4.946l21.66-21.66L53.664 58.59a12 12 0 0 0 4.941-4.957L36.961 31.988l21.637-21.636a12 12 0 0 0-4.82-4.883" style="fill:url(#i);stroke-width:2"/><path d="M48 0c-8.873 0-16 6.87-16 16 0 11.973 16 28 16 28s16-16.027 16-28c0-9.13-7.127-16-16-16" style="fill:url(#j);fill-opacity:1;stroke:none;stroke-width:2.95086;stroke-linecap:round;stroke-linejoin:round;stroke-miterlimit:10"/><circle cx="48" cy="16" r="8" style="opacity:.8;fill:url(#k);fill-opacity:1;stroke-width:5.33332"/><circle cx="48" cy="16" r="8" style="opacity:.1;fill:#000;stroke-width:8"/></svg>