<svg xmlns="http://www.w3.org/2000/svg" xmlns:xlink="http://www.w3.org/1999/xlink" width="64" height="64" viewBox="0 0 64 64"><defs><linearGradient xlink:href="#a" id="b" x1="16" x2="16" y1="30" y2="2" gradientTransform="scale(2)" gradientUnits="userSpaceOnUse"/><linearGradient id="a"><stop offset="0" style="stop-color:#828282;stop-opacity:1"/><stop offset="1" style="stop-color:#c3c3c3;stop-opacity:1"/></linearGradient></defs><rect width="56" height="56" x="4" y="5" ry="12" style="opacity:.2;fill:#000;stroke-width:3.5"/><rect width="56" height="56" x="4" y="4" ry="12" style="fill:url(#b);stroke-width:2"/><path d="M32.11 52a4 4 0 0 0 4-4c0-1.863-1.276-3.4-3-3.844V40l6.624-6.531.032-.032v-.03c.192-.143.345-.418.343-.657V29h2v-6h-6v6h2v.812l-.093 1.907v.375l-.282.25-3.093 3.343-1.532 1.376V20h3l-4-8-4 8h3v18.281l-5-2.875V32l.344-.156c1.153-.507 1.969-1.629 1.969-2.969a3.28 3.28 0 0 0-3.281-3.281c-1.813 0-3.25 1.468-3.25 3.281 0 1.34.816 2.462 1.968 2.969l.25.125v4.03c-.003.353.195.7.5.876l6.5 3.719v3.562c-1.724.445-3 1.98-3 3.844a4 4 0 0 0 4 4" style="color:#bebebe;display:inline;overflow:visible;visibility:visible;fill:#fff;fill-opacity:1;fill-rule:nonzero;stroke:none;stroke-width:1;marker:none"/></svg>