<svg xmlns="http://www.w3.org/2000/svg" xmlns:xlink="http://www.w3.org/1999/xlink" width="64" height="64" viewBox="0 0 64 64"><defs><linearGradient id="a"><stop offset="0" style="stop-color:#eaebed;stop-opacity:1"/><stop offset="1" style="stop-color:#f9fafa;stop-opacity:1"/></linearGradient><linearGradient xlink:href="#a" id="b" x1="16" x2="16" y1="30" y2="2" gradientTransform="scale(2)" gradientUnits="userSpaceOnUse"/></defs><rect width="56" height="56" x="4" y="5" ry="12" style="opacity:.2;fill:#000;stroke-width:3.5"/><rect width="56" height="56" x="4" y="4" ry="12" style="fill:url(#b);stroke-width:2"/><rect width="56" height="16" x="4" y="24" ry="4" style="opacity:.8;fill:#39aceb;fill-opacity:1;stroke-width:3.5"/><path d="M13 16a1 1 0 1 0 0 2 1 1 0 0 0 0-2m6 0c-.554 0-1 .446-1 1s.446 1 1 1h32c.554 0 1-.446 1-1s-.446-1-1-1zm-6 30a1 1 0 1 0 0 2 1 1 0 0 0 0-2m6 0c-.554 0-1 .446-1 1s.446 1 1 1h32c.554 0 1-.446 1-1s-.446-1-1-1z" style="opacity:.5;fill:#000;fill-opacity:1;stroke-width:4;stroke-linecap:round;stroke-linejoin:round"/><path d="M13 31a1 1 0 1 0 0 2 1 1 0 0 0 0-2m6 0c-.554 0-1 .446-1 1s.446 1 1 1h32c.554 0 1-.446 1-1s-.446-1-1-1z" style="opacity:1;fill:#fff;fill-opacity:1;stroke-width:4;stroke-linecap:round;stroke-linejoin:round"/></svg>