<svg xmlns="http://www.w3.org/2000/svg" xmlns:xlink="http://www.w3.org/1999/xlink" width="64" height="64" viewBox="0 0 64 64"><defs><linearGradient xlink:href="#a" id="c" x1="16" x2="16" y1="30" y2="2" gradientTransform="scale(2)" gradientUnits="userSpaceOnUse"/><linearGradient id="a"><stop offset="0" style="stop-color:#adb2b9;stop-opacity:1"/><stop offset="1" style="stop-color:#e0e2e4;stop-opacity:1"/></linearGradient><linearGradient xlink:href="#b" id="d" x1="32" x2="32" y1="52" y2="12" gradientUnits="userSpaceOnUse"/><linearGradient id="b"><stop offset="0" style="stop-color:#3f3f3f;stop-opacity:1"/><stop offset="1" style="stop-color:#666;stop-opacity:1"/></linearGradient></defs><rect width="56" height="56" x="4" y="5" ry="12" style="opacity:.2;fill:#000;stroke-width:3.5"/><rect width="56" height="56" x="4" y="4" ry="12" style="fill:url(#c);stroke-width:2"/><path d="M32 12c-1.108 0-2 .892-2 2v4c0 1.108.892 2 2 2s2-.892 2-2v-4c0-1.108-.892-2-2-2m4 4.512V18c0 2.216-1.784 4-4 4s-4-1.784-4-4v-1.46a16 16 0 0 0-7.382 4.273l1.257.722A3.99 3.99 0 0 1 23.34 27a3.99 3.99 0 0 1-5.465 1.465l-1.277-.738A16 16 0 0 0 16 32c.006 1.445.207 2.882.598 4.273l1.277-.738A4 4 0 0 1 19.77 35a3.99 3.99 0 0 1 3.57 2 3.99 3.99 0 0 1-1.465 5.465l-1.257.722A16 16 0 0 0 28 47.462V46c0-2.216 1.784-4 4-4s4 1.784 4 4v1.46a16 16 0 0 0 7.383-4.273l-1.258-.722A3.99 3.99 0 0 1 40.661 37a3.99 3.99 0 0 1 3.57-2 4 4 0 0 1 1.894.535l1.278.738A16 16 0 0 0 48 32a16 16 0 0 0-.586-4.277l-1.289.742A3.99 3.99 0 0 1 40.661 27a3.99 3.99 0 0 1 1.464-5.465l1.29-.742A16 16 0 0 0 36 16.512m-19.726 4.492A2 2 0 0 0 14.68 22c-.554.96-.229 2.18.73 2.734l3.465 2A2 2 0 0 0 21.61 26a2 2 0 0 0-.735-2.734l-3.464-2a2 2 0 0 0-1.137-.262m31.168 0c-.29.022-.586.106-.856.262l-3.46 2A2 2 0 0 0 42.39 26a2 2 0 0 0 2.734.734l3.461-2A2 2 0 0 0 49.321 22a2 2 0 0 0-1.88-.996M32 26a6 6 0 1 1 0 12 6 6 0 0 1 0-12m0 2a4 4 0 1 0 0 8 4 4 0 0 0 0-8m-12.273 9.004c-.29.022-.582.106-.852.262l-3.464 2A2 2 0 0 0 14.68 42a1.995 1.995 0 0 0 2.73.734l3.464-2A2 2 0 0 0 21.61 38a2 2 0 0 0-1.883-.996m24.258 0A2 2 0 0 0 42.39 38a2 2 0 0 0 .734 2.734l3.461 2A2 2 0 0 0 49.321 42a2 2 0 0 0-.735-2.734l-3.46-2a2 2 0 0 0-1.141-.262M32 44c-1.108 0-2 .892-2 2v4c0 1.108.892 2 2 2s2-.892 2-2v-4c0-1.108-.892-2-2-2" style="fill:url(#d);fill-opacity:1;stroke-width:4;stroke-linecap:round;stroke-linejoin:round"/></svg>