<svg xmlns="http://www.w3.org/2000/svg" xmlns:xlink="http://www.w3.org/1999/xlink" width="64" height="64" viewBox="0 0 64 64"><defs><linearGradient xlink:href="#a" id="b" x1="16" x2="16" y1="30" y2="2" gradientTransform="scale(2)" gradientUnits="userSpaceOnUse"/><linearGradient id="a"><stop offset="0" style="stop-color:#6ab12d;stop-opacity:1"/><stop offset="1" style="stop-color:#8dd27a;stop-opacity:1"/></linearGradient></defs><rect width="56" height="56" x="4" y="5" ry="12" style="opacity:.2;fill:#000;stroke-width:3.5"/><rect width="56" height="56" x="4" y="4" ry="12" style="fill:url(#b);stroke-width:2"/><path d="M14 15v12h12V15Zm12 12v8h-6v16h6v-6h12v6h6V35h-6v-8zm12 0h12V15H38Z" style="opacity:.2;fill:#fff;stroke-width:2"/><path d="M14 14v12h12V14Zm12 13v6h-6v17h6v-6h12v6h6V33h-6v-6Zm12-1h12V14H38Z" style="fill:#000;stroke-width:2"/><path d="M14 13v1h12v-1zm24 0v1h12v-1ZM26 26v1h12v-1zm-6 6v1h6v-1zm18 0v1h6v-1z" style="opacity:.3;fill:#000;stroke-width:2"/></svg>