<svg xmlns="http://www.w3.org/2000/svg" width="64" height="64" viewBox="0 0 64 64"><rect width="56" height="56" x="4" y="5" ry="12" style="opacity:.2;fill:#000;stroke-width:3.5"/><rect width="56" height="56" x="4" y="4" ry="12" style="fill:#565c64;stroke-width:2;fill-opacity:1"/><path d="M32.977 11.049v18.558l13.125-13.125a21 21 0 0 0-13.125-5.433m-2 .043a21 21 0 0 0-13.102 5.414l13.102 13.101zm16.539 6.804L34.39 31.021h18.562a21 21 0 0 0-5.437-13.125m-31.055.024a21 21 0 0 0-5.414 13.101h18.516Zm-5.413 15.1a21 21 0 0 0 5.41 13.106L29.563 33.02Zm23.344 0 13.105 13.106a21 21 0 0 0 5.41-13.106Zm-3.414 1.415L17.87 47.54a21 21 0 0 0 13.106 5.41zm2 0V52.95a21 21 0 0 0 13.105-5.41Z" style="fill:#fff;stroke-width:2"/></svg>