<svg xmlns="http://www.w3.org/2000/svg" width="64" height="64" viewBox="0 0 64 64"><rect width="56" height="56" x="4" y="5" ry="12" style="opacity:.2;fill:#000;stroke-width:3.5"/><rect width="56" height="56" x="4" y="4" ry="12" style="fill:#0082c9;stroke-width:2;fill-opacity:1"/><path d="M32 22a10 10 0 0 0-8.457 4.676A7 7 0 0 0 19 25a7 7 0 0 0-7 7 7 7 0 0 0 7 7 7 7 0 0 0 4.543-1.678A10 10 0 0 0 32 42a10 10 0 0 0 8.457-4.678A7 7 0 0 0 45 39a7 7 0 0 0 7-7 7 7 0 0 0-7-7 7 7 0 0 0-4.54 1.676A10 10 0 0 0 32 22m0 4a6 6 0 0 1 6 6 6 6 0 0 1-6 6 6 6 0 0 1-6-6 6 6 0 0 1 6-6m-13 3a3 3 0 0 1 3 3 3 3 0 0 1-3 3 3 3 0 0 1-3-3 3 3 0 0 1 3-3m26 0a3 3 0 0 1 3 3 3 3 0 0 1-3 3 3 3 0 0 1-3-3 3 3 0 0 1 3-3" style="fill:#fff;stroke-width:4;stroke-linecap:round;stroke-linejoin:round"/></svg>