<svg xmlns="http://www.w3.org/2000/svg" xmlns:xlink="http://www.w3.org/1999/xlink" width="64" height="64" viewBox="0 0 64 64"><defs><linearGradient xlink:href="#a" id="b" x1="16" x2="16" y1="30" y2="2" gradientTransform="scale(2)" gradientUnits="userSpaceOnUse"/><linearGradient id="a"><stop offset="0" style="stop-color:#ff9e1d;stop-opacity:1"/><stop offset="1" style="stop-color:#ffe32b;stop-opacity:1"/></linearGradient></defs><rect width="56" height="56" x="4" y="5" ry="12" style="opacity:.2;fill:#000;stroke-width:1.75"/><rect width="56" height="56" x="4" y="4" ry="12" style="fill:url(#b);stroke-width:2"/><path d="M32 14a2.495 2.495 0 0 0-2.5 2.578C25.18 17.698 22 21.5 22 26.5c0 5.013.002 15-4.453 15-.297 0-.547.279-.547.625V44h30v-1.875c0-.346-.251-.625-.547-.625-4.472 0-4.453-9.988-4.453-15 0-5-3.18-8.802-7.5-9.922V16.5c0-1.385-1.115-2.5-2.5-2.5m-4.297 32.5C28.568 47.992 30.151 49 32 49c1.85 0 3.432-1.008 4.297-2.5z" style="color:#000;display:inline;overflow:visible;visibility:visible;fill:#fff;fill-opacity:1;fill-rule:nonzero;stroke:none;stroke-width:8;marker:none"/></svg>