<svg xmlns="http://www.w3.org/2000/svg" width="64" height="64" viewBox="0 0 64 64"><rect width="56" height="56" x="4" y="5" ry="12" style="opacity:.2;fill:#000;stroke-width:3.5"/><rect width="56" height="56" x="4" y="4" ry="12" style="fill:#fafafa;fill-opacity:1;stroke-width:2"/><path d="M32 19s-11.503.016-14.642.78c-1.685.429-3.07 1.63-3.533 3.22-.826 2.906-.825 8.985-.825 8.985s-.001 6.073.825 8.948c.462 1.59 1.815 2.858 3.533 3.286C20.53 45.015 32 45 32 45s11.499-.016 14.637-.78c1.719-.429 3.072-1.667 3.534-3.257.826-2.906.829-8.948.829-8.948s.03-6.11-.829-9.015c-.462-1.59-1.815-2.791-3.534-3.22C43.5 18.986 32 19 32 19" style="fill:red;fill-opacity:1;stroke-width:.317904"/><path d="m28 26 10 6-10 6z" style="fill:#fff;stroke-width:.297286"/></svg>