<svg xmlns="http://www.w3.org/2000/svg" xmlns:xlink="http://www.w3.org/1999/xlink" width="64" height="64" viewBox="0 0 64 64"><defs><linearGradient xlink:href="#a" id="b" x1="16" x2="16" y1="30" y2="2" gradientTransform="scale(2)" gradientUnits="userSpaceOnUse"/><linearGradient id="a"><stop offset="0" style="stop-color:#0091f9;stop-opacity:1"/><stop offset="1" style="stop-color:#41bbff;stop-opacity:1"/></linearGradient></defs><rect width="56" height="56" x="4" y="5" ry="12" style="opacity:.2;fill:#000;stroke-width:3.5"/><rect width="56" height="56" x="4" y="4" ry="12" style="fill:url(#b);stroke-width:2"/><path d="M18 10c-1.857 0-4.07 2.102-4.07 4H7.078C6.481 14 6 14.446 6 15s.481 1 1.078 1H10v2H6c-1.626.004-1.739 1.118-1.855 2.668A90 90 0 0 0 4 26v22c0 4.605 2.567 8.588 6.355 10.602a5.7 5.7 0 0 0 1.25-.536 6 6 0 0 0 2.325-4.707V41.723c0-1.899-2.8-3.438-4.657-3.438s-3.312-2.252-3.312-4.152c0-1.899 1.455-3.875 3.312-3.875 1.858 0 4.657-1.1 4.657-3s.076-3.356 1.933-3.356 4.188-1.54 4.188-3.441v-4.816c0-.977.548-1.77 1.504-1.77.959-.059 2.443.125 2.37-2.25C23.999 10 22 10.041 20.986 10zm25.648 7.18c-1.794 0-3.25 1.49-3.25 3.324v1.414c0 1.834-.854 3.324-2.648 3.324-2.158.164-3.91 2.085-3.75 4.293v5.797c0 1.883 1.029 4.469 2.871 4.469C38.84 39.8 40 41.408 40 42.957v3.27c0 2.065.878 3.773 2.898 3.773 2.02-.002 3.104-1.71 3.102-3.773v-6.305c0-1.513.588-3.764 1.637-4.832 1.047-1.068 2.469-3.068 3.949-3.067l1.945.016a3.22 3.22 0 0 0 2.301-.969c.608-.621.95-1.467.95-2.347v-8.22c0-1.833-1.455-3.323-3.25-3.323z" style="fill:#98d6fe;fill-opacity:1;stroke-width:2"/><path d="M48 33.4v14.16c0 1.055-.585 2.193-1.52 3.07-.934.878-2.184 1.372-2.883 1.372H28.711c-1.04 0-2.409-.228-3.356-.622-.947-.393-1.225-.792-1.254-.968-.281-1.76-.338-3.14-.422-4.36s-.124-2.382-.867-3.57c-.742-1.188-2.121-1.86-3.613-2.14s-3.332-.34-5.961-.34v4c2.551 0 4.265.09 5.223.27.957.179.928.278.96.331.034.053.193.6.27 1.723.077 1.122.137 2.714.457 4.719.34 2.12 2.064 3.359 3.672 4.027s3.347.93 4.89.93h14.887c2.104 0 4.055-.986 5.621-2.457C50.785 52.073 52 49.992 52 47.56V33.4Z" style="color:#000;opacity:.3;fill:#000;stroke-width:2;-inkscape-stroke:none"/><path d="M10 38a4 4 0 1 0 0 8 4 4 0 0 0 0-8m40 0a1.999 1.999 0 1 0 0 4 1.999 1.999 0 1 0 0-4m-32 2a1.999 1.999 0 1 0 0 4 1.999 1.999 0 1 0 0-4m32 6a1.999 1.999 0 1 0 0 4 1.999 1.999 0 1 0 0-4m-28 2a1.999 1.999 0 1 0 0 4 1.999 1.999 0 1 0 0-4m6 4a1.999 1.999 0 1 0 0 4 1.999 1.999 0 1 0 0-4m8 0a1.999 1.999 0 1 0 0 4 1.999 1.999 0 1 0 0-4m8 0a1.999 1.999 0 1 0 0 4 1.999 1.999 0 1 0 0-4" style="fill:#fff;stroke-width:2"/><rect width="36" height="30" x="24" y="4" ry="4" style="fill:#3a325a;fill-opacity:1;stroke-width:4"/><path d="m34.6 10 5.09 15.673 3.32-2.918 2.158 2.657a1.565 1.565 0 0 0 2.243.21 1.664 1.664 0 0 0 .203-2.3l-2.188-2.693 3.174-2.792Z" style="fill:#fff;stroke-width:2"/></svg>