<svg xmlns="http://www.w3.org/2000/svg" xmlns:xlink="http://www.w3.org/1999/xlink" width="64" height="64" viewBox="0 0 64 64"><defs><linearGradient id="a"><stop offset="0" style="stop-color:#eaebed;stop-opacity:1"/><stop offset="1" style="stop-color:#f9fafa;stop-opacity:1"/></linearGradient><linearGradient xlink:href="#a" id="c" x1="16" x2="16" y1="30" y2="2" gradientTransform="scale(2)" gradientUnits="userSpaceOnUse"/><linearGradient xlink:href="#b" id="d" x1="24" x2="24" y1="45" y2="3" gradientTransform="scale(1.33333)" gradientUnits="userSpaceOnUse"/><linearGradient id="b"><stop offset="0" style="stop-color:#ffa12a;stop-opacity:1"/><stop offset="1" style="stop-color:#ffdc75;stop-opacity:1"/></linearGradient></defs><rect width="56" height="56" x="4" y="5" ry="12" style="opacity:.2;fill:#000;stroke-width:3.5"/><rect width="56" height="56" x="4" y="4" ry="12" style="fill:url(#c);stroke-width:2"/><path d="M31.914 12c-7.662 0-16.769 6.276-18.654 13.333-.888 5.311.575 9.158 3.256 11.731.071.752.215 1.503.152 2.254l-.008.067a3 3 0 0 1-.068.424c-.014.057-.036.116-.053.173a3 3 0 0 1-.107.323c-.038.089-.093.178-.14.267-.046.084-.083.167-.138.25a4 4 0 0 1-.404.512c-.625.667-1.172 1.083-1.64 1.354C12.702 43.5 12 43 12 44c0 1.083 2.475 3.046 4.744 2.314.35-.112.694-.287 1.024-.541q.247-.189.482-.439c.286-.306.535-.591.756-.859.218-.263.403-.505.57-.735.038.335.016.759-.146 1.406-.647 2.576-4.068 2.36-2.43 4.188 1.27 1.417 5.065 1.471 7.164-.369C23.327 50.862 22.055 52 24.5 52c3.75 0 7.5-2.666 7.5-6.666 0 4 3.75 6.666 7.5 6.666 2.445 0 1.173-1.138.336-3.035 2.099 1.84 5.894 1.786 7.164.369 1.639-1.828-1.783-1.612-2.43-4.188-.163-.648-.185-1.072-.146-1.408.338.467.761.993 1.326 1.596C48.25 48.001 52 45.333 52 44s-1.25.001-3.75-2.666c-1.395-1.488-.862-2.977-.754-4.465 2.893-2.616 4.266-6.435 3.072-11.536C47.906 17.77 39.576 12 31.914 12" style="fill:url(#d);fill-opacity:1;stroke-width:1"/><ellipse cx="23" cy="26" rx="3" ry="4" style="fill:#fff;stroke-width:2;stroke-linecap:round;stroke-linejoin:round"/><ellipse cx="41" cy="26" rx="3" ry="4" style="fill:#fff;stroke-width:2.82842;stroke-linecap:round;stroke-linejoin:round"/><ellipse cx="24.5" cy="26" rx="1.5" ry="2" style="fill:#333;stroke-width:1.41421;stroke-linecap:round;stroke-linejoin:round"/><ellipse cx="42.5" cy="26" rx="1.5" ry="2" style="fill:#333;stroke-width:2.44948;stroke-linecap:round;stroke-linejoin:round"/></svg>