<svg xmlns="http://www.w3.org/2000/svg" xmlns:xlink="http://www.w3.org/1999/xlink" width="64" height="64" viewBox="0 0 64 64"><defs><linearGradient xlink:href="#a" id="b" x1="16" x2="16" y1="30" y2="2" gradientTransform="scale(2)" gradientUnits="userSpaceOnUse"/><linearGradient id="a"><stop offset="0" style="stop-color:#a52ed9;stop-opacity:1"/><stop offset="1" style="stop-color:#b369e3;stop-opacity:1"/></linearGradient></defs><rect width="56" height="56" x="4" y="5" ry="12" style="opacity:.2;fill:#000;stroke-width:3.5"/><rect width="56" height="56" x="4" y="4" ry="12" style="fill:url(#b);stroke-width:2"/><path d="M27.972 25.736c-.493.417-.842.566-1.277.566-.667 0-.87-.417-.87-1.728v-5.808c0-1.549-.145-2.413-.58-3.128-.639-1.072-2.388-1.638-4.1-1.638-2.727 0-4.874 1.46-4.874 3.336 0 .685.551 1.281 1.247 1.281s1.306-.596 1.306-1.251c0-.12-.029-.268-.058-.477a3.4 3.4 0 0 1-.087-.715c0-.804.929-1.46 2.09-1.46 1.42 0 2.438.865 2.438 2.473v2.369c-3.996 1.21-5.195 1.533-6.443 2.665-.638.596-1.045 1.609-1.045 2.592 0 1.876 1.277 3.187 3.047 3.187 1.277 0 2.7-.626 4.47-2.175.145 1.58.935 2.175 2.125 2.175.986 0 1.595-.358 2.611-1.49zm-4.765-1.698c0 .894-.145 1.222-.754 1.579-.726.417-1.743.655-2.352.655-1.016 0-1.828-1.012-1.828-2.293v-.12c.029-1.787 1.54-2.367 4.934-3.588zM41.4 34.006q-.713-.064-1.796.514t-2.2 1.733q-1.115 1.123-2.075 2.728a12.4 12.4 0 0 0-1.363 3.563q-.341 1.444-.247 2.503.092 1.028.433 1.701.34.642.837.93.495.322.929.322a6.5 6.5 0 0 0 1.858-.417q.805-.321 1.704-.995.898-.706 1.641-1.99-.03.866.093 1.444.155.577.31.93.186.418.465.643.278.192.65.256.372.096.774.064.434-.032.837-.16.402-.129.712-.321.465-.321 1.146-1.091.713-.803 1.425-1.733a93 93 0 0 0 1.425-1.894q.68-.963 1.115-1.605.371-.514.433-.898.093-.386-.031-.578-.124-.193-.372-.129-.248.033-.495.321-.185.258-.62.803-.402.545-.929 1.252-.526.705-1.146 1.476-.588.738-1.146 1.38-.558.61-1.053 1.027-.495.385-.805.385-.372 0-.589-.16a1.2 1.2 0 0 1-.279-.482 3 3 0 0 1-.124-.61q0-.353.032-.641l.155-.803q.062-.321.092-.545.062-.258.093-.482.063-.257.124-.545.31-1.477.496-2.408t.279-1.476a5.5 5.5 0 0 0 .092-.738q0-.225-.03-.289a.6.6 0 0 0-.249-.032q-.155 0-.464.032a7 7 0 0 0-.713.128q.652-1.026.496-1.636-.124-.643-.557-.963-.527-.354-1.363-.514m-.73 2.008q.12.006.204.079a.8.8 0 0 1 .123.353q.03.192-.03.545-.032.32-.28.835.248-.064.496-.097.248-.031.403-.096.186-.065.34-.096.124-.032.031.513-.061.514-.216 1.316a32 32 0 0 1-.372 1.67q-.217.866-.372 1.508-.03.16-.278.513-.217.353-.589.77a6 6 0 0 1-.805.803q-.435.385-.898.642-.435.224-.868.257-.434 0-.774-.354-.186-.192-.248-.802a7 7 0 0 1 .031-1.476q.124-.835.403-1.766a8.6 8.6 0 0 1 .743-1.797q1.115-2.022 1.952-2.76.65-.578 1.005-.56M40.6 14c-2.149 0-4.322.562-5.796 1.588l1.399 2.663c.974-.757 2.448-1.222 3.872-1.222 2.098 0 3.272 1.56 3.272 3.197l-3.878-.018c-4.097-.018-5.77 1.553-5.77 3.874 0 2.272 1.71 3.918 4.857 3.918 1.973 0 4.066-.571 4.79-1.768l.001 1.619 4.136-.001v-7.89c0-3.981-2.787-5.96-6.884-5.96m-.906 11.499c-1.374 0-2.199-.635-2.199-1.588 0-.88.575-1.287 2.398-1.276l3.454.018v.758c0 1.276-2.355 2.088-3.653 2.088M17.316 34c-1.577-.022-1.577 2.35 0 2.328h5.764c.006 0 .167.02.342.115.178.098.283.11.313.547v-.011l.144 3.489a4 4 0 0 0-.45-.147l-.137-.034H17.9c-2.528 0-3.44 2.542-3.44 2.542l-.06.18v.886c0 1.766.835 2.985 1.715 3.533.88.549 1.785.541 1.785.541h4.428l1.98-1.282.01.187c.052 1.592 2.464 1.45 2.329-.137l-.583-9.9v-.006a3.06 3.06 0 0 0-1.521-2.43c-.669-.365-1.317-.399-1.317-.399L23.187 34zm.584 8.615h5.042c.062.018.306.083.605.281.326.217.512.401.522.79l.08.326-2.511 1.63H17.9s-.261-.008-.548-.187c-.287-.18-.619-.415-.619-1.56v-.444c.06-.178.312-.836 1.167-.836" style="fill:#fff;stroke-width:1.98452"/></svg>