<svg xmlns="http://www.w3.org/2000/svg" xmlns:xlink="http://www.w3.org/1999/xlink" width="64" height="64" viewBox="0 0 64 64"><defs><linearGradient xlink:href="#a" id="b" x1="16" x2="16" y1="30" y2="2" gradientTransform="scale(2)" gradientUnits="userSpaceOnUse"/><linearGradient id="a"><stop offset="0" style="stop-color:#adb2b9;stop-opacity:1"/><stop offset="1" style="stop-color:#e0e2e4;stop-opacity:1"/></linearGradient></defs><rect width="56" height="56" x="4" y="5" ry="12" style="opacity:.2;fill:#000;stroke-width:3.5"/><rect width="56" height="56" x="4" y="4" ry="12" style="fill:url(#b);stroke-width:2"/><path d="M19 13v8h26v-8zm0 24v14h26V37Z" style="fill:#fff;stroke-width:2;stroke-linecap:round;stroke-linejoin:round"/><path d="M17 28h2v2h-2z" style="fill:#f9f9f9;fill-opacity:1;stroke-linecap:round;stroke-linejoin:round"/><path d="M15 23c-1.108 0-2 .892-2 2v10c0 1.108.892 2 2 2h2v-2h30v2h2c1.108 0 2-.892 2-2V25c0-1.108-.892-2-2-2zm2 5h2v2h-2z" style="fill:#4d4d4d;fill-opacity:1;stroke-linecap:round;stroke-linejoin:round"/></svg>