<svg xmlns="http://www.w3.org/2000/svg" xmlns:xlink="http://www.w3.org/1999/xlink" width="64" height="64" viewBox="0 0 64 64"><defs><linearGradient xlink:href="#a" id="b" x1="16" x2="16" y1="30" y2="2" gradientTransform="scale(2)" gradientUnits="userSpaceOnUse"/><linearGradient id="a"><stop offset="0" style="stop-color:#2092ff;stop-opacity:1"/><stop offset="1" style="stop-color:#74afe1;stop-opacity:1"/></linearGradient></defs><rect width="56" height="56" x="4" y="5" ry="12" style="opacity:.2;fill:#000;stroke-width:3.5"/><rect width="56" height="56" x="4" y="4" ry="12" style="fill:url(#b);stroke-width:2"/><path d="M20.348 22.547q-2.496 0-4.391 1.258-1.878 1.258-2.918 3.52Q12 29.564 12 32.534q0 2.954 1.04 5.215 1.039 2.243 2.917 3.52 1.895 1.257 4.39 1.257 1.26-.001 2.352-.367a6.3 6.3 0 0 0 2.043-1.074 7 7 0 0 0 1.621-1.84h.04V49H29.5V22.91h-3.027v2.844h-.035a5.85 5.85 0 0 0-1.567-1.785 6.7 6.7 0 0 0-2.117-1.059 7.9 7.9 0 0 0-2.406-.363m.476 2.77q1.786 0 3.098.894 1.313.893 2.023 2.516.711 1.621.711 3.808 0 2.17-.71 3.793-.713 1.623-2.024 2.516-1.312.893-3.098.894-1.659 0-2.953-.82-1.277-.82-2.008-2.426-.728-1.606-.726-3.957-.001-2.369.726-3.973.73-1.604 2.008-2.425 1.294-.82 2.953-.82" style="fill:#a6d3fb;fill-opacity:1;stroke-width:14;stroke-linecap:round"/><path d="M43.245 42.526a7.7 7.7 0 0 1-2.37-.364 6.5 6.5 0 0 1-2.078-1.076 6.9 6.9 0 0 1-1.64-1.841h-.037v2.917h-3.026V15h3.099v10.755h.036a6 6 0 0 1 1.55-1.786 6.5 6.5 0 0 1 2.078-1.058 7.8 7.8 0 0 1 2.388-.364q2.515 0 4.393 1.258 1.878 1.257 2.917 3.518 1.04 2.242 1.039 5.214 0 2.952-1.04 5.213-1.038 2.243-2.916 3.518-1.878 1.258-4.393 1.258m-.474-2.789q1.677 0 2.953-.82t2.005-2.425.73-3.955q0-2.37-.73-3.974-.729-1.605-2.005-2.425t-2.953-.82q-1.787 0-3.099.893t-2.023 2.516q-.711 1.621-.711 3.81 0 2.17.71 3.791.711 1.622 2.024 2.516t3.099.893" style="fill:#fff;stroke-width:14;stroke-linecap:round"/></svg>