<svg xmlns="http://www.w3.org/2000/svg" xmlns:xlink="http://www.w3.org/1999/xlink" width="64" height="64" viewBox="0 0 64 64"><defs><linearGradient xlink:href="#a" id="b" x1="16" x2="16" y1="30" y2="2" gradientTransform="scale(2)" gradientUnits="userSpaceOnUse"/><linearGradient id="a"><stop offset="0" style="stop-color:#38b517;stop-opacity:1"/><stop offset="1" style="stop-color:#97e527;stop-opacity:1"/></linearGradient></defs><rect width="56" height="56" x="4" y="5" ry="12" style="opacity:.2;fill:#000;stroke-width:3.5"/><rect width="56" height="56" x="4" y="4" ry="12" style="fill:url(#b);stroke-width:2"/><path d="M4 20v28c0 6.648 5.352 12 12 12h32c6.648 0 12-5.352 12-12v-4z" style="opacity:.2;fill:#000;stroke-width:6;stroke-linecap:round;stroke-linejoin:round"/><path d="M13 20v24h9.643C27.273 44 31 40.135 31 35.334v-6.668C31 23.865 27.272 20 22.643 20Zm21 0 7 24h4l7-24h-4l-5 18-5-18Zm-17 4h5.643C25.203 24 27 26.011 27 28.666v6.668C27 37.989 25.202 40 22.643 40H17Z" style="fill:#fff;stroke-width:2"/></svg>