<svg xmlns="http://www.w3.org/2000/svg" xmlns:xlink="http://www.w3.org/1999/xlink" width="64" height="64" viewBox="0 0 64 64"><defs><linearGradient xlink:href="#a" id="b" x1="16" x2="16" y1="30" y2="2" gradientTransform="scale(2)" gradientUnits="userSpaceOnUse"/><linearGradient id="a"><stop offset="0" style="stop-color:#26bc25;stop-opacity:1"/><stop offset="1" style="stop-color:#65df47;stop-opacity:1"/></linearGradient></defs><rect width="56" height="56" x="4" y="5" ry="12" style="opacity:.2;fill:#000;stroke-width:3.5"/><rect width="56" height="56" x="4" y="4" ry="12" style="fill:url(#b);stroke-width:2"/><path d="M40 18v6h-4v4h4v8.234C40 41.881 41.998 44 45.586 44H50v-4h-3.969C44.101 40 44 38.66 44 35.836V28h6v-4h-6v-6Zm-15.95.043C16.11 18.043 14 22.529 14 31s2.073 13.055 10.05 13.055h2.266l3.301 5.644 3.824-1.41-3.117-5.648C33.293 41.229 34 36.647 34 31c0-8.47-2.008-12.957-9.95-12.957M24.017 22C28.86 22 30 25.514 30 31.309 30 37.103 28.896 40 24.016 40 19.135 40 18 37.103 18 31.309S19.172 22 24.016 22" style="fill:#fff;stroke-width:2"/></svg>