<svg xmlns="http://www.w3.org/2000/svg" xmlns:xlink="http://www.w3.org/1999/xlink" width="64" height="64" viewBox="0 0 64 64"><defs><linearGradient xlink:href="#a" id="b" x1="16" x2="16" y1="30" y2="2" gradientTransform="scale(2)" gradientUnits="userSpaceOnUse"/><linearGradient id="a"><stop offset="0" style="stop-color:#38b517;stop-opacity:1"/><stop offset="1" style="stop-color:#97e527;stop-opacity:1"/></linearGradient></defs><rect width="56" height="56" x="4" y="5" ry="12" style="opacity:.2;fill:#000;stroke-width:3.5"/><rect width="56" height="56" x="4" y="4" ry="12" style="fill:url(#b);stroke-width:2"/><path d="M4 20v28c0 6.648 5.352 12 12 12h32c6.648 0 12-5.352 12-12v-4z" style="opacity:.2;fill:#000;stroke-width:6;stroke-linecap:round;stroke-linejoin:round"/><path d="M44.8 18c-4.877 0-8.8 3.863-8.8 8.664v8.676c0 4.8 3.923 8.66 8.8 8.66H50v-4h-5.2c-2.696 0-4.737-2.006-4.737-4.66v-8.676C40.063 24.01 42.104 22 44.8 22H50v-4Zm-22.75.043C14.11 18.043 12 22.529 12 31s2.073 13.055 10.05 13.055h2.266l3.301 5.644 3.824-1.41-3.117-5.648C31.293 41.229 32 36.647 32 31c0-8.47-2.008-12.957-9.95-12.957M22.017 22C26.86 22 28 25.514 28 31.309 28 37.103 26.896 40 22.016 40 17.135 40 16 37.103 16 31.309S17.172 22 22.016 22" style="fill:#fff;stroke-width:2"/></svg>