<svg xmlns="http://www.w3.org/2000/svg" xmlns:xlink="http://www.w3.org/1999/xlink" width="64" height="64" viewBox="0 0 64 64"><defs><linearGradient xlink:href="#a" id="d" x1="16" x2="16" y1="30" y2="2" gradientTransform="scale(2)" gradientUnits="userSpaceOnUse"/><linearGradient id="a"><stop offset="0" style="stop-color:#272727;stop-opacity:1"/><stop offset="1" style="stop-color:#5d5d5d;stop-opacity:1"/></linearGradient><linearGradient xlink:href="#b" id="e" x1="10.5" x2="18" y1="2" y2="12" gradientUnits="userSpaceOnUse"/><linearGradient id="b"><stop offset="0" style="stop-color:#c74d4d;stop-opacity:1"/><stop offset="1" style="stop-color:#ba2121;stop-opacity:1"/></linearGradient><linearGradient xlink:href="#c" id="j" x1="15.5" x2="8" y1="17" y2="7" gradientUnits="userSpaceOnUse"/><linearGradient id="c"><stop offset="0" style="stop-color:#a745c1;stop-opacity:1"/><stop offset="1" style="stop-color:#b767cc;stop-opacity:1"/></linearGradient><linearGradient xlink:href="#b" id="f" x1="10.5" x2="18" y1="2" y2="12" gradientUnits="userSpaceOnUse"/><linearGradient xlink:href="#b" id="g" x1="10.5" x2="18" y1="2" y2="12" gradientUnits="userSpaceOnUse"/><linearGradient xlink:href="#b" id="h" x1="10.5" x2="18" y1="2" y2="12" gradientUnits="userSpaceOnUse"/><linearGradient xlink:href="#b" id="i" x1="10.5" x2="18" y1="2" y2="12" gradientUnits="userSpaceOnUse"/><linearGradient xlink:href="#c" id="k" x1="15.5" x2="8" y1="17" y2="7" gradientUnits="userSpaceOnUse"/><linearGradient xlink:href="#c" id="l" x1="15.5" x2="8" y1="17" y2="7" gradientUnits="userSpaceOnUse"/><linearGradient xlink:href="#c" id="m" x1="15.5" x2="8" y1="17" y2="7" gradientUnits="userSpaceOnUse"/><linearGradient xlink:href="#c" id="n" x1="15.5" x2="8" y1="17" y2="7" gradientUnits="userSpaceOnUse"/></defs><rect width="56" height="56" x="4" y="5" ry="12" style="opacity:.2;fill:#000;stroke-width:3.5"/><rect width="56" height="56" x="4" y="4" ry="12" style="fill:url(#d);stroke-width:2"/><g style="fill:url(#e);fill-opacity:1" transform="matrix(2 0 0 2 16 8)"><rect width="5" height="5" x="3" y="2" ry="1" style="opacity:1;fill:url(#f);fill-opacity:1;stroke-width:2"/><rect width="5" height="5" x="8" y="2" ry="1" style="opacity:1;fill:url(#g);fill-opacity:1;stroke-width:2"/><rect width="5" height="5" x="13" y="2" ry="1" style="opacity:1;fill:url(#h);fill-opacity:1;stroke-width:2"/><rect width="5" height="5" x="13" y="7" ry="1" style="opacity:1;fill:url(#i);fill-opacity:1;stroke-width:2"/></g><g style="fill:url(#j);fill-opacity:1" transform="matrix(2 0 0 2 11 18)"><rect width="5" height="5" x=".5" y="12" ry="1" style="opacity:1;fill:url(#k);fill-opacity:1;stroke-width:2"/><rect width="5" height="5" x="5.5" y="12" ry="1" style="opacity:1;fill:url(#l);fill-opacity:1;stroke-width:2"/><rect width="5" height="5" x="10.5" y="12" ry="1" style="opacity:1;fill:url(#m);fill-opacity:1;stroke-width:2"/><rect width="5" height="5" x="5.5" y="7" ry="1" style="opacity:1;fill:url(#n);fill-opacity:1;stroke-width:2"/></g><rect width="10" height="10" x="22" y="42" ry="2" style="opacity:.2;fill:#fff;fill-opacity:1;stroke-width:4"/><rect width="10" height="10" x="32" y="12" ry="2" style="opacity:.2;fill:#fff;fill-opacity:1;stroke-width:4"/><rect width="10" height="10" x="42" y="22" ry="2" style="opacity:.2;fill:#fff;fill-opacity:1;stroke-width:4"/></svg>