<svg xmlns="http://www.w3.org/2000/svg" xmlns:xlink="http://www.w3.org/1999/xlink" width="64" height="64" viewBox="0 0 64 64"><defs><linearGradient id="a"><stop offset="0" style="stop-color:#eaebed;stop-opacity:1"/><stop offset="1" style="stop-color:#f9fafa;stop-opacity:1"/></linearGradient><linearGradient xlink:href="#a" id="b" x1="16" x2="16" y1="30" y2="2" gradientTransform="scale(2)" gradientUnits="userSpaceOnUse"/></defs><rect width="56" height="56" x="4" y="5" ry="12" style="opacity:.2;fill:#000;stroke-width:3.5"/><rect width="56" height="56" x="4" y="4" ry="12" style="fill:url(#b);stroke-width:2"/><path d="m22 20 4 6h-8l-1 4h-4.5l1.5-6h-3L8 36h7.2L14 40h7l-5 6h6l4-6h12l4 6h6l-5-6h7l-1.2-4H56l-3-12h-3l1.5 6H47l-1-4h-8l4-6h-3l-4 6h-6l-4-6z" style="fill:#5d5d5d;fill-opacity:1"/><path d="M21 29v5h5v-5zm17 0v5h5v-5z" style="fill:#fff;fill-opacity:1;stroke-width:.9375;stroke-linecap:round;stroke-linejoin:round"/></svg>