<svg xmlns="http://www.w3.org/2000/svg" xmlns:xlink="http://www.w3.org/1999/xlink" width="64" height="64" viewBox="0 0 64 64"><defs><linearGradient id="a"><stop offset="0" style="stop-color:#eaebed;stop-opacity:1"/><stop offset="1" style="stop-color:#f9fafa;stop-opacity:1"/></linearGradient><linearGradient xlink:href="#a" id="c" x1="16" x2="16" y1="30" y2="2" gradientTransform="scale(2)" gradientUnits="userSpaceOnUse"/><linearGradient xlink:href="#b" id="d" x1="11" x2="11" y1="13" y2="3" gradientTransform="translate(2)scale(3.99997)" gradientUnits="userSpaceOnUse"/><linearGradient id="b"><stop offset="0" style="stop-color:#2e2e2e;stop-opacity:1"/><stop offset="1" style="stop-color:#565656;stop-opacity:1"/></linearGradient></defs><rect width="56" height="56" x="4" y="5" ry="12" style="opacity:.2;fill:#000;stroke-width:3.5"/><rect width="56" height="56" x="4" y="4" ry="12" style="fill:url(#c);stroke-width:2"/><path d="M43.661 20.95c-.076-.63.399-1.63.335-2.989-.066-1.362-.713-3.26-3.368-4.637q-.07-.037-.144-.073c-1.727-.86-4.245-1.475-7.181-1.174-2.282.235-4.652 1.012-6.886 2.383a18.6 18.6 0 0 0-5.367 4.994 19 19 0 0 0-2.203 4.389c-.238.69-.436 1.406-.584 2.137-.19.95-.295 1.988-.254 3.084.109 1.739.59 3.638 1.663 5.348a9.2 9.2 0 0 0 1.867 2.16A8 8 0 0 0 24 38.005c1.452.512 2.88.512 4.06.319.627-.102 1.202-.26 1.71-.434a17 17 0 0 0 1.654-.673c.99-.468 1.919-1.028 2.658-1.48.74-.451 1.464-.905 2.16-1.273.415-.212.908-.45 1.395-.629q.195-.07.388-.128c.485-.144.963-.208 1.388-.162.364.038.672.166.88.324.087.06.163.143.227.232.056.082.093.16.113.202.023.053.035.161-.004.318a1.6 1.6 0 0 1-.24.527 3 3 0 0 1-.543.585 5.7 5.7 0 0 1-.838.57c-.712.369-1.42.617-2.417 1.018-.903.363-1.982.832-2.992 1.576-.53.403-1.06.906-1.516 1.515a6.3 6.3 0 0 0-1.068 2.206 5.5 5.5 0 0 0 .058 2.737c.133.467.339.91.602 1.304.267.399.601.76.998 1.047.704.505 1.48.691 2.152.711h.228a5.1 5.1 0 0 0 1.606-.32c.517-.171.986-.402 1.388-.605.411-.21.727-.381 1.058-.523.302-.144.565-.237.803-.277.226-.037.41-.02.544.02a.6.6 0 0 1 .24.144c.023.011.044.029.058.034.016 0 .03.009.051.004.019-.004 0 .067-.074.16-.086.108-.211.217-.404.378-.187.153-.442.355-.674.603a3 3 0 0 0-.661 1.045 2.56 2.56 0 0 0-.115 1.264c.074.454.269.826.495 1.09.304.358.657.511.918.553q.095.014.178.011c.465-.017.651-.4.734-.513-.115-.118-.233-.419-.325-.676l-.029-.084a1 1 0 0 1-.061-.347.5.5 0 0 1 .057-.217.27.27 0 0 1 .107-.105c.037-.017.099-.07.21-.143.137-.089.234-.14.478-.282.191-.108.474-.277.745-.505.272-.228.584-.56.806-1.023.197-.414.293-.872.293-1.324a3.3 3.3 0 0 0-.256-1.282 3.4 3.4 0 0 0-.682-1.008 3.5 3.5 0 0 0-.908-.666 3.9 3.9 0 0 0-1.939-.399 6 6 0 0 0-1.663.335c-.464.168-.945.39-1.286.538-.392.17-.694.288-.98.359-.268.05-.472.046-.62.01l-.055-.014c-.15-.051-.232-.14-.21-.184.013-.018.015-.04.019-.078.004-.035.008-.075.025-.11.024-.076.065-.206.15-.328.061-.135.164-.288.332-.46a3.2 3.2 0 0 1 .67-.517c.546-.354 1.197-.618 2.041-.903.78-.266 1.85-.592 2.834-1.032.53-.226 1.08-.503 1.614-.853a8 8 0 0 0 1.58-1.337 7.4 7.4 0 0 0 1.281-1.984 6.9 6.9 0 0 0 .573-2.582 6.8 6.8 0 0 0-.445-2.567c-.3-.8-.738-1.517-1.26-2.118a7.2 7.2 0 0 0-3.76-2.26c-1.456-.348-2.821-.22-3.87.02q-.439.103-.824.225a12.3 12.3 0 0 0-2.34 1.043c-.917.512-1.831 1.134-2.454 1.544-.722.476-1.37.888-2.018 1.205-.29.143-.606.272-.935.36-.263.07-.52.116-.772.129-.483.027-.89-.067-1.164-.237a1.8 1.8 0 0 1-.475-.405 2.2 2.2 0 0 1-.363-.61 3.23 3.23 0 0 1-.173-1.651q.036-.53.208-1.059.133-.409.363-.828c.362-.655.885-1.275 1.5-1.809a9.4 9.4 0 0 1 3.205-2.082 9.8 9.8 0 0 1 3.528-.675c1.356-.009 2.57.241 3.52.361l.08.009c1.504.18 2.656-.2 3.678-.726.992-.51 1.88-1.198 2.434-1.203z" style="fill:url(#d);stroke-width:3.99996"/></svg>