<svg xmlns="http://www.w3.org/2000/svg" xmlns:xlink="http://www.w3.org/1999/xlink" width="64" height="64" viewBox="0 0 64 64"><defs><linearGradient xlink:href="#a" id="b" x1="16" x2="16" y1="30" y2="2" gradientTransform="scale(2)" gradientUnits="userSpaceOnUse"/><linearGradient id="a"><stop offset="0" style="stop-color:#13a5c5;stop-opacity:1"/><stop offset="1" style="stop-color:#b1f6cb;stop-opacity:1"/></linearGradient></defs><rect width="56" height="56" x="4" y="5" ry="12" style="opacity:.2;fill:#000;stroke-width:3.5"/><rect width="56" height="56" x="4" y="4" ry="12" style="fill:url(#b);stroke-width:2"/><path d="M19 16c-.554 0-1 .446-1 1v5h-5c-.554 0-1 .446-1 1s.446 1 1 1h5v16c0 1.108.892 2 2 2h24v5c0 .554.446 1 1 1s1-.446 1-1v-5h5c.554 0 1-.446 1-1s-.446-1-1-1h-5V24c0-1.108-.892-2-2-2H20v-5c0-.554-.446-1-1-1m1 8h24v16H20Z" style="fill:#fff;stroke-width:1.0328;stroke-linecap:round;stroke-linejoin:round"/></svg>