<svg xmlns="http://www.w3.org/2000/svg" xmlns:xlink="http://www.w3.org/1999/xlink" width="64" height="64" viewBox="0 0 64 64"><defs><linearGradient xlink:href="#a" id="b" x1="16" x2="16" y1="30" y2="2" gradientTransform="scale(2)" gradientUnits="userSpaceOnUse"/><linearGradient id="a"><stop offset="0" style="stop-color:#4cb35a;stop-opacity:1"/><stop offset="1" style="stop-color:#73d091;stop-opacity:1"/></linearGradient></defs><rect width="56" height="56" x="4" y="5" ry="12" style="opacity:.2;fill:#000;stroke-width:3.5"/><rect width="56" height="56" x="4" y="4" ry="12" style="fill:url(#b);stroke-width:2"/><rect width="40" height="30" x="12" y="18" ry="4" style="opacity:.5;fill:#fff;fill-opacity:1;stroke-width:2;stroke-linecap:round;stroke-linejoin:round;paint-order:stroke fill markers"/><path d="M12 24h40v6H12z" style="opacity:.5;fill:#000;stroke-width:2.9277;stroke-linecap:round;stroke-linejoin:round;paint-order:stroke fill markers"/><path d="M27 10c-6.075 0-11 4.925-11 11 0 4.274 2.44 7.976 6 9.797V50.82L24 52h2.75l3.254-3.535-.75-.785.75-.785-1.5-1.575 1.5-1.57-.75-.785.75-.785L28.879 41l1.125-1.18v-1.175l-.75-.79.75-.785v-3.039L32 33.97v-3.172c3.56-1.821 6-5.523 6-9.797 0-6.075-4.925-11-11-11m0 4.031c1.657 0 3 1.336 3 2.985A2.99 2.99 0 0 1 27 20c-1.657 0-3-1.336-3-2.984a2.99 2.99 0 0 1 3-2.985" style="fill:#fff;fill-opacity:1;stroke-width:2"/></svg>