<svg xmlns="http://www.w3.org/2000/svg" xmlns:xlink="http://www.w3.org/1999/xlink" width="64" height="64" viewBox="0 0 64 64"><defs><linearGradient xlink:href="#a" id="b" x1="16" x2="16" y1="30" y2="2" gradientTransform="scale(2)" gradientUnits="userSpaceOnUse"/><linearGradient id="a"><stop offset="0" style="stop-color:#0091f9;stop-opacity:1"/><stop offset="1" style="stop-color:#41bbff;stop-opacity:1"/></linearGradient></defs><rect width="56" height="56" x="4" y="5" ry="12" style="opacity:.2;fill:#000;stroke-width:3.5"/><rect width="56" height="56" x="4" y="4" ry="12" style="fill:url(#b);stroke-width:2"/><path d="M27 12a15 15 0 0 0-15 15 15 15 0 0 0 15 15 15 15 0 0 0 9.875-3.71l13.46 13.46a1 1 0 0 0 1.415 0 1 1 0 0 0 0-1.414L38.29 36.875A15 15 0 0 0 42 27a15 15 0 0 0-15-15m0 2a13 13 0 0 1 13 13 13 13 0 0 1-3.809 9.191A13 13 0 0 1 27 40a13 13 0 0 1-13-13 13 13 0 0 1 13-13" style="fill:#fff;stroke-width:7.5;stroke-linecap:round;stroke-linejoin:round"/></svg>