<svg xmlns="http://www.w3.org/2000/svg" xmlns:xlink="http://www.w3.org/1999/xlink" width="64" height="64" viewBox="0 0 64 64"><defs><linearGradient id="a"><stop offset="0" style="stop-color:#eaebed;stop-opacity:1"/><stop offset="1" style="stop-color:#f9fafa;stop-opacity:1"/></linearGradient><linearGradient xlink:href="#a" id="b" x1="16" x2="16" y1="30" y2="2" gradientTransform="scale(2)" gradientUnits="userSpaceOnUse"/></defs><rect width="56" height="56" x="4" y="5" ry="12" style="opacity:.2;fill:#000;stroke-width:3.5"/><rect width="56" height="56" x="4" y="4" ry="12" style="fill:url(#b);stroke-width:2"/><path d="M27 13a4 4 0 0 0-4 4 4 4 0 0 0 4 4h4v-4a4 4 0 0 0-4-4M13 27a4 4 0 0 0 4 4h10a4 4 0 0 0 4-4 4 4 0 0 0-4-4H17a4 4 0 0 0-4 4" style="fill:#36c5f0;stroke-width:2"/><path d="M47 23a4 4 0 0 1 4 4 4 4 0 0 1-4 4h-4v-4a4 4 0 0 1 4-4M37 13a4 4 0 0 0-4 4v10a4 4 0 0 0 4 4 4 4 0 0 0 4-4V17a4 4 0 0 0-4-4" style="fill:#2eb67d;stroke-width:2"/><path d="M37 51a4 4 0 0 0 4-4 4 4 0 0 0-4-4h-4v4a4 4 0 0 0 4 4m-4-14a4 4 0 0 0 4 4h10a4 4 0 0 0 4-4 4 4 0 0 0-4-4H37a4 4 0 0 0-4 4" style="fill:#ecb22e;stroke-width:2"/><path d="M17 41a4 4 0 0 1-4-4 4 4 0 0 1 4-4h4v4a4 4 0 0 1-4 4m10-8a4 4 0 0 0-4 4v10a4 4 0 0 0 4 4 4 4 0 0 0 4-4V37a4 4 0 0 0-4-4" style="fill:#e01e5a;stroke-width:2"/></svg>