<svg xmlns="http://www.w3.org/2000/svg" xmlns:xlink="http://www.w3.org/1999/xlink" width="64" height="64" viewBox="0 0 64 64"><defs><linearGradient xlink:href="#a" id="b" x1="16" x2="16" y1="30" y2="2" gradientTransform="scale(2)" gradientUnits="userSpaceOnUse"/><linearGradient id="a"><stop offset="0" style="stop-color:#2eb75b;stop-opacity:1"/><stop offset="1" style="stop-color:#96d573;stop-opacity:1"/></linearGradient></defs><rect width="56" height="56" x="4" y="5" ry="12" style="opacity:.2;fill:#000;stroke-width:3.5"/><rect width="56" height="56" x="4" y="4" ry="12" style="fill:url(#b);stroke-width:2"/><path d="M32.218 29.253c-5.8-.531-11.578.257-16.79 1.82a2 2 0 0 0-1.339 2.489 2 2 0 0 0 2.488 1.34c9.578-2.874 20.893-2.847 30.278 3.722a2 2 0 0 0 2.296-3.273c-5.307-3.716-11.132-5.567-16.933-6.098m1.07-11.098c-6.886-.528-13.726.33-19.148 1.957a3 3 0 0 0-2.012 3.739 3 3 0 0 0 3.738 2.011c9.157-2.747 24.65-2.556 33.418 3.582a3 3 0 0 0 4.176-.738 3 3 0 0 0-.738-4.176c-5.616-3.93-12.548-5.847-19.434-6.375m-2.93 19.836c-5.025-.264-9.772.469-13.25 2.207a2 2 0 1 0 1.79 3.578c2.523-1.261 6.775-2.028 11.25-1.793s9.178 1.438 12.796 3.7a2 2 0 0 0 2.754-.637 2 2 0 0 0-.636-2.754c-4.381-2.738-9.678-4.036-14.703-4.3" style="baseline-shift:baseline;display:inline;overflow:visible;vector-effect:none;fill:#363636;fill-opacity:1;stroke-width:2;stroke-linecap:round;stop-color:#000"/></svg>