<svg xmlns="http://www.w3.org/2000/svg" xmlns:xlink="http://www.w3.org/1999/xlink" width="64" height="64" viewBox="0 0 64 64"><defs><linearGradient xlink:href="#a" id="b" x1="16" x2="16" y1="2" y2="30" gradientTransform="scale(2)" gradientUnits="userSpaceOnUse"/><linearGradient id="a"><stop offset="0" style="stop-color:#111d2e;stop-opacity:1"/><stop offset=".2" style="stop-color:#051839;stop-opacity:1"/><stop offset=".4" style="stop-color:#0a1b48;stop-opacity:1"/><stop offset=".6" style="stop-color:#132e62;stop-opacity:1"/><stop offset=".7" style="stop-color:#144b7e;stop-opacity:1"/><stop offset=".87" style="stop-color:#136497;stop-opacity:1"/><stop offset="1" style="stop-color:#1387b8;stop-opacity:1"/></linearGradient></defs><rect width="56" height="56" x="4" y="5" ry="12" style="opacity:.2;fill:#000;stroke-width:3.5"/><rect width="56" height="56" x="4" y="4" ry="12" style="fill:url(#b);stroke-width:2"/><path d="M41 16c-5.942.01-10.801 4.737-10.977 10.676L23.31 36.05a8 8 0 0 0-3.914 1.43L4 31v9l12.055 4.746A8 8 0 0 0 24 52a8 8 0 0 0 7.988-7.848l10.453-6.257A11 11 0 0 0 52 27c0-6.075-4.925-11-11-11m0 4a7 7 0 1 1 0 14 7 7 0 0 1 0-14m0 2a5 5 0 1 0 0 10 5 5 0 0 0 0-10M24 38a6 6 0 0 1 5.715 4.176l.207.886A6 6 0 0 1 30 44a6 6 0 0 1-6 6 6 6 0 0 1-5.727-4.234l4.055 1.867c4.912 2.416 8.374-5.107 3.344-7.266l-4.043-1.86A6 6 0 0 1 24 38" style="fill:#fff;stroke-width:2"/></svg>