<svg xmlns="http://www.w3.org/2000/svg" xmlns:xlink="http://www.w3.org/1999/xlink" width="64" height="64" viewBox="0 0 64 64"><defs><linearGradient xlink:href="#a" id="c" x1="16" x2="16" y1="30" y2="2" gradientTransform="scale(2)" gradientUnits="userSpaceOnUse"/><linearGradient id="a"><stop offset="0" style="stop-color:#272727;stop-opacity:1"/><stop offset="1" style="stop-color:#5d5d5d;stop-opacity:1"/></linearGradient><linearGradient xlink:href="#b" id="d" x1="14" x2="14" y1="46" y2="18" gradientTransform="matrix(2 0 0 2 4 -32)" gradientUnits="userSpaceOnUse"/><linearGradient id="b"><stop offset="0" style="stop-color:#58dc93;stop-opacity:1"/><stop offset="1" style="stop-color:#a1e16b;stop-opacity:1"/></linearGradient></defs><rect width="56" height="56" x="4" y="5" ry="12" style="opacity:.2;fill:#000;stroke-width:3.5"/><rect width="56" height="52" x="4" y="4" ry="12" style="fill:url(#c);stroke-width:2"/><path d="M18 20c-7.077 0-14 9.28-14 14v14c0 6.648 5.352 12 12 12h32c6.534 0 11.817-5.17 11.996-11.66-.004-4.396-.011-8.357-.023-8.371C58.273 38.055 54.94 33.965 50 34c-3.929.028-8 3.972-12 4s-5.965-2.71-8-6c-2.943-5.418-6-12-12-12" style="fill:url(#d);fill-opacity:1;stroke-width:4.73286;stroke-linecap:round;stroke-linejoin:round"/><path d="M14 16v3h1v-2h2v-1zm6 0v1h2v2h1v-3zm-6 6v3h3v-1h-2v-2zm8 0v2h-2v1h3v-3zm24 8v3h1v-2h2v-1zm6 0v1h2v2h1v-3zm-6 6v3h3v-1h-2v-2zm8 0v2h-2v1h3v-3z" style="fill:#ebfae7;stroke-width:2;stroke-linecap:round;stroke-linejoin:round"/></svg>