<svg xmlns="http://www.w3.org/2000/svg" xmlns:xlink="http://www.w3.org/1999/xlink" width="64" height="64" viewBox="0 0 64 64"><defs><linearGradient xlink:href="#a" id="b" x1="16" x2="16" y1="30" y2="2" gradientTransform="scale(2)" gradientUnits="userSpaceOnUse"/><linearGradient id="a"><stop offset="0" style="stop-color:#3a4c5f;stop-opacity:1"/><stop offset="1" style="stop-color:#5b7790;stop-opacity:1"/></linearGradient></defs><rect width="56" height="56" x="4" y="5" ry="12" style="opacity:.2;fill:#000;stroke-width:3.5"/><rect width="56" height="56" x="4" y="4" ry="12" style="fill:url(#b);stroke-width:2"/><path d="M32 16c-8.837 0-16 7.163-16 16s7.163 16 16 16 16-7.163 16-16-7.163-16-16-16m0 8a8 8 0 1 1 0 16 8 8 0 0 1 0-16" style="fill:#fff;stroke-width:3.2;stroke-linecap:round;stroke-linejoin:round"/><path d="M38.571 10.91c-1.023-.425-1.962.744-2.505 1.71l-1.976 3.51c1.355.18 2.71.539 4.032 1.087a16 16 0 0 1 3.62 2.083l1.086-3.88c.299-1.067.461-2.557-.562-2.981zm-12.218.016a1.16 1.16 0 0 0-.924-.014l-3.695 1.53c-1.023.424-.86 1.914-.562 2.98l1.085 3.883a16.1 16.1 0 0 1 7.656-3.17l-1.978-3.514c-.374-.663-.935-1.422-1.582-1.695m24.541 10.165c-.65-.264-1.583-.124-2.317.081l-3.882 1.085a16.1 16.1 0 0 1 3.17 7.656l3.514-1.979c.965-.543 2.133-1.48 1.71-2.505l-1.531-3.695a1.16 1.16 0 0 0-.664-.643m-31.593 1.167-3.88-1.087c-1.067-.299-2.557-.461-2.981.562l-1.53 3.696c-.425 1.023.744 1.962 1.71 2.505l3.511 1.975a16 16 0 0 1 1.087-4.032 16 16 0 0 1 2.083-3.62M47.869 34.09a16 16 0 0 1-1.087 4.032 16 16 0 0 1-2.083 3.62l3.88 1.086c1.067.299 2.557.461 2.981-.562l1.53-3.696c.425-1.023-.744-1.962-1.71-2.505zm-31.735-.004-3.513 1.978c-.965.544-2.133 1.482-1.71 2.506l1.531 3.695c.424 1.023 1.914.86 2.98.562l3.883-1.085a16.1 16.1 0 0 1-3.17-7.656m25.609 10.608a16.1 16.1 0 0 1-7.656 3.17l1.978 3.513c.544.966 1.482 2.134 2.506 1.71l3.695-1.53c1.023-.424.86-1.914.562-2.98zm-19.485.005-1.087 3.879c-.299 1.067-.461 2.557.562 2.981l3.696 1.53c1.023.425 1.962-.744 2.505-1.71l1.975-3.511a16 16 0 0 1-4.032-1.087 16 16 0 0 1-3.62-2.082" style="opacity:.5;fill:#f9f9f9;stroke-width:2"/></svg>