<svg xmlns="http://www.w3.org/2000/svg" xmlns:xlink="http://www.w3.org/1999/xlink" width="64" height="64" viewBox="0 0 64 64"><defs><linearGradient xlink:href="#a" id="b" x1="16" x2="16" y1="30" y2="2" gradientTransform="scale(2)" gradientUnits="userSpaceOnUse"/><linearGradient id="a"><stop offset="0" style="stop-color:#96a3ad;stop-opacity:1"/><stop offset="1" style="stop-color:#c4c8cd;stop-opacity:1"/></linearGradient></defs><rect width="56" height="56" x="4" y="5" ry="12" style="opacity:.2;fill:#000;stroke-width:3.5"/><rect width="56" height="56" x="4" y="4" ry="12" style="fill:url(#b);stroke-width:2"/><rect width="30" height="24" x="11" y="13" ry="3" style="opacity:.1;fill:#000;fill-opacity:1;stroke-width:6;stroke-linecap:round;stroke-linejoin:round"/><rect width="28" height="22" x="12" y="14" ry="2" style="fill:#eaeaea;fill-opacity:1;stroke-width:3;stroke-linecap:round;stroke-linejoin:round"/><rect width="30" height="24" x="23" y="27" ry="3" style="opacity:.1;fill:#000;fill-opacity:1;stroke-width:6;stroke-linecap:round;stroke-linejoin:round"/><rect width="28" height="22" x="24" y="28" ry="2" style="fill:#fff;fill-opacity:1;stroke-width:3;stroke-linecap:round;stroke-linejoin:round"/><path d="M26 28h24c1.108 0 2 .892 2 2v2H24v-2c0-1.108.892-2 2-2" style="fill:#6e7584;fill-opacity:1;stroke-width:6;stroke-linecap:round;stroke-linejoin:round"/><path d="M14 14h24c1.108 0 2 .892 2 2v2H12v-2c0-1.108.892-2 2-2" style="fill:#7e8593;fill-opacity:1;stroke-width:6;stroke-linecap:round;stroke-linejoin:round"/></svg>