<svg xmlns="http://www.w3.org/2000/svg" xmlns:xlink="http://www.w3.org/1999/xlink" width="64" height="64" viewBox="0 0 64 64"><defs><linearGradient xlink:href="#a" id="b" x1="16" x2="16" y1="30" y2="2" gradientTransform="scale(2)" gradientUnits="userSpaceOnUse"/><linearGradient id="a"><stop offset="0" style="stop-color:#1d9ad8;stop-opacity:1"/><stop offset="1" style="stop-color:#3cacde;stop-opacity:1"/></linearGradient></defs><rect width="56" height="56" x="4" y="5" ry="12" style="opacity:.2;fill:#000;stroke-width:3.5"/><rect width="56" height="56" x="4" y="4" ry="12" style="fill:url(#b);stroke-width:2"/><path d="M48.014 17.335c-.795.022-1.735.341-2.647.648C39.397 20 20.522 28.17 15.357 30.865c-1.273.528-1.82 1.424-.894 2.198.796.655 3.712 1.558 6.063 2.017 2.004.606 3.558.025 4.996-.787 3.454-2.046 13.746-8.558 14.298-8.923.555-.362 1.161.31.852.636-.309.328-7.595 6.864-9.988 9.819-1.269 1.624-1.232 2.491.07 3.515 2.923 2.291 10.729 7.516 11.891 7.831 1.48.403 2.35.068 2.974-1.143.57-1.107 3.85-20.026 4.318-24.918.317-3.03-.6-3.813-1.923-3.775" style="fill:#fff;stroke-width:2.1302"/></svg>