<svg xmlns="http://www.w3.org/2000/svg" xmlns:xlink="http://www.w3.org/1999/xlink" width="64" height="64" viewBox="0 0 64 64"><defs><linearGradient xlink:href="#a" id="b" x1="16" x2="16" y1="30" y2="2" gradientTransform="scale(2)" gradientUnits="userSpaceOnUse"/><linearGradient id="a"><stop offset="0" style="stop-color:#272727;stop-opacity:1"/><stop offset="1" style="stop-color:#5d5d5d;stop-opacity:1"/></linearGradient></defs><rect width="56" height="56" x="4" y="5" ry="12" style="opacity:.2;fill:#000;stroke-width:3.5"/><rect width="56" height="56" x="4" y="4" ry="12" style="fill:url(#b);stroke-width:2"/><g style="opacity:.3"><path d="M32 16c-8.836 0-16 7.164-16 16s7.164 16 16 16 16-7.163 16-16-7.163-16-16-16m0 8a8 8 0 1 1 0 16 8 8 0 0 1 0-16" style="fill:#fff;stroke-width:3.2;stroke-linecap:round;stroke-linejoin:round"/><path d="M38.571 10.91c-1.023-.425-1.962.744-2.505 1.71l-1.975 3.512c1.356.179 2.71.538 4.032 1.086a16 16 0 0 1 3.62 2.083l1.086-3.88c.299-1.067.462-2.557-.562-2.98zm-12.217.017a1.16 1.16 0 0 0-.924-.015l-3.696 1.53c-1.023.424-.86 1.914-.562 2.98l1.085 3.883a16.1 16.1 0 0 1 7.656-3.17l-1.978-3.513c-.374-.664-.935-1.423-1.581-1.695m24.54 10.165c-.65-.265-1.583-.125-2.316.08l-3.883 1.085a16.1 16.1 0 0 1 3.171 7.656l3.513-1.978c.965-.544 2.134-1.482 1.71-2.505l-1.53-3.696a1.16 1.16 0 0 0-.665-.642m-31.593 1.166-3.88-1.087c-1.067-.298-2.557-.461-2.98.562l-1.532 3.696c-.424 1.024.745 1.962 1.71 2.505l3.513 1.975a16 16 0 0 1 1.086-4.032 16 16 0 0 1 2.083-3.619m28.568 11.833a16 16 0 0 1-1.087 4.032 16 16 0 0 1-2.082 3.62l3.88 1.086c1.066.299 2.556.462 2.98-.562l1.53-3.696c.425-1.023-.744-1.962-1.71-2.505Zm-31.735-.004-3.512 1.979c-.966.543-2.134 1.481-1.71 2.505l1.53 3.695c.424 1.024 1.914.86 2.98.562l3.883-1.085a16.1 16.1 0 0 1-3.17-7.656m25.61 10.608a16.1 16.1 0 0 1-7.657 3.171l1.979 3.513c.543.965 1.481 2.134 2.505 1.71l3.695-1.531c1.024-.424.86-1.913.562-2.98zm-19.486.005-1.087 3.88c-.298 1.066-.461 2.556.562 2.98l3.696 1.53c1.024.425 1.962-.744 2.505-1.71l1.975-3.511a16 16 0 0 1-4.032-1.087 16 16 0 0 1-3.619-2.082" style="opacity:.5;fill:#f9f9f9;stroke-width:2"/></g><path d="M12 14v2l8 4-8 4v2l10-5v-2zm10 12v2h10v-2z" style="fill:#fff;stroke-width:1.66905"/></svg>