<svg xmlns="http://www.w3.org/2000/svg" xmlns:xlink="http://www.w3.org/1999/xlink" width="64" height="64" viewBox="0 0 64 64"><defs><linearGradient id="a"><stop offset="0" style="stop-color:#eaebed;stop-opacity:1"/><stop offset="1" style="stop-color:#f9fafa;stop-opacity:1"/></linearGradient><linearGradient xlink:href="#a" id="c" x1="16" x2="16" y1="30" y2="2" gradientTransform="scale(2)" gradientUnits="userSpaceOnUse"/><linearGradient xlink:href="#b" id="d" x1="33" x2="33" y1="30" y2="14" gradientTransform="translate(-1 -2)" gradientUnits="userSpaceOnUse"/><linearGradient id="b"><stop offset="0" style="stop-color:#3689e6;stop-opacity:1"/><stop offset="1" style="stop-color:#5dcffc;stop-opacity:1"/></linearGradient><linearGradient xlink:href="#a" id="e" x1="31" x2="31" y1="61" y2="5" gradientTransform="translate(1 -1)" gradientUnits="userSpaceOnUse"/></defs><rect width="56" height="56" x="4" y="5" ry="12" style="opacity:.2;fill:#000;stroke-width:3.5"/><rect width="56" height="56" x="4" y="4" ry="12" style="fill:url(#c);stroke-width:2"/><rect width="40" height="16" x="12" y="12" ry="8" style="fill:url(#d);fill-opacity:1;stroke-width:3;stroke-linecap:round;stroke-linejoin:round"/><rect width="40" height="16" x="12" y="36" ry="8" style="fill:#b3b3b3;fill-opacity:1;stroke-width:3;stroke-linecap:round;stroke-linejoin:round"/><path d="M44 14a6 6 0 1 0 0 12 6 6 0 0 0 0-12M20 38a6 6 0 1 0 0 12 6 6 0 0 0 0-12" style="fill:url(#e);fill-opacity:1;stroke-width:4;stroke-linecap:round;stroke-linejoin:round"/></svg>