<svg xmlns="http://www.w3.org/2000/svg" xmlns:xlink="http://www.w3.org/1999/xlink" width="64" height="64" viewBox="0 0 64 64"><defs><linearGradient xlink:href="#a" id="c" x1="16" x2="16" y1="30" y2="2" gradientTransform="scale(2)" gradientUnits="userSpaceOnUse"/><linearGradient id="a"><stop offset="0" style="stop-color:#272727;stop-opacity:1"/><stop offset="1" style="stop-color:#5d5d5d;stop-opacity:1"/></linearGradient><linearGradient xlink:href="#b" id="d" x1="-.5" x2="15.5" y1="8.5" y2="8.5" gradientTransform="matrix(4 0 0 4 2 -2)" gradientUnits="userSpaceOnUse"/><linearGradient id="b"><stop offset="0" style="stop-color:#009fe8;stop-opacity:0"/><stop offset=".25" style="stop-color:#009fe8;stop-opacity:.75"/><stop offset=".5" style="stop-color:#009fe8;stop-opacity:1"/><stop offset=".75" style="stop-color:#009fe8;stop-opacity:.75"/><stop offset="1" style="stop-color:#009fe8;stop-opacity:0"/></linearGradient></defs><rect width="56" height="56" x="4" y="5" ry="12" style="opacity:.2;fill:#000;stroke-width:3.5"/><rect width="56" height="56" x="4" y="4" ry="12" style="fill:url(#c);stroke-width:2"/><path d="M26.086 14a2 2 0 0 0-1.945 1.258L18.648 30H4v4h16a2 2 0 0 0 1.86-1.258L26 22l10.085 26.578c.546 1.814 3.072 1.923 3.773.164L45.351 34H60v-4H44a2 2 0 0 0-1.859 1.258L38 42 27.914 15.43A2 2 0 0 0 26.086 14" style="color:#000;fill:url(#d);fill-opacity:1;stroke-width:4;stroke-linecap:round;stroke-linejoin:round"/></svg>