<svg xmlns="http://www.w3.org/2000/svg" xmlns:xlink="http://www.w3.org/1999/xlink" width="64" height="64" viewBox="0 0 64 64"><defs><linearGradient xlink:href="#a" id="b" x1="16" x2="16" y1="30" y2="2" gradientTransform="scale(2)" gradientUnits="userSpaceOnUse"/><linearGradient id="a"><stop offset="0" style="stop-color:#0091f9;stop-opacity:1"/><stop offset="1" style="stop-color:#41bbff;stop-opacity:1"/></linearGradient></defs><rect width="56" height="56" x="4" y="5" ry="12" style="opacity:.2;fill:#000;stroke-width:3.5"/><rect width="56" height="56" x="4" y="4" ry="12" style="fill:url(#b);stroke-width:2"/><path d="M32 12a8 8 0 1 0 0 16 8 8 0 0 0 0-16" style="fill:#fff;stroke-width:2"/><path d="M32 32c-15.644.01-16 12-16 12v.04C16 47.352 23.163 52 32 52c8.832 0 16-4.645 16-7.957V44c0 .004-.289-12.008-16-12" style="opacity:.6;fill:#fff;stroke-width:2"/></svg>