<svg xmlns="http://www.w3.org/2000/svg" xmlns:xlink="http://www.w3.org/1999/xlink" width="64" height="64" viewBox="0 0 64 64"><defs><linearGradient id="a"><stop offset="0" style="stop-color:#bbe88b;stop-opacity:1"/><stop offset="1" style="stop-color:#c7f3b4;stop-opacity:1"/></linearGradient><linearGradient id="b"><stop offset="0" style="stop-color:#3c8024;stop-opacity:1"/><stop offset="1" style="stop-color:#70cf6a;stop-opacity:1"/></linearGradient><linearGradient xlink:href="#a" id="c" x1="16" x2="16" y1="30" y2="2" gradientTransform="scale(2)" gradientUnits="userSpaceOnUse"/><linearGradient xlink:href="#b" id="d" x1="32.527" x2="12.728" y1="9.899" y2="-9.899" gradientTransform="scale(2)" gradientUnits="userSpaceOnUse"/></defs><rect width="56" height="56" x="4" y="5" ry="12" style="opacity:.2;fill:#000;stroke-width:3.5"/><rect width="56" height="56" x="4" y="4" ry="12" style="fill:url(#c);stroke-width:2"/><rect width="32" height="32" x="29.255" y="-16" ry="4" style="opacity:1;fill:url(#d);stroke:none;stroke-width:8;stroke-linecap:square;stroke-linejoin:miter;stroke-dasharray:none;stroke-opacity:1;paint-order:stroke fill markers" transform="rotate(45)"/><path d="M18 18c-1.108 0-2 .892-2 2s.892 2 2 2h1v23c.003 2.732 3.362 4.039 5.21 2.027l22.985-25.422A1.99 1.99 0 0 0 48 20c0-1.108-.892-2-2-2h-8c-1.108 0-2 .892-2 2s.892 2 2 2h.61L25 37.289V22h1c1.108 0 2-.892 2-2s-.892-2-2-2z" style="fill:#fff;stroke:none;stroke-width:3;stroke-linecap:round;stroke-linejoin:round;paint-order:stroke fill markers"/></svg>