<svg xmlns="http://www.w3.org/2000/svg" xmlns:xlink="http://www.w3.org/1999/xlink" width="64" height="64" viewBox="0 0 64 64"><defs><linearGradient id="a"><stop offset="0" style="stop-color:#eaebed;stop-opacity:1"/><stop offset="1" style="stop-color:#f9fafa;stop-opacity:1"/></linearGradient><linearGradient xlink:href="#a" id="b" x1="16" x2="16" y1="30" y2="2" gradientTransform="scale(2)" gradientUnits="userSpaceOnUse"/></defs><rect width="56" height="56" x="4" y="5" ry="12" style="opacity:.2;fill:#000;stroke-width:3.5"/><rect width="56" height="56" x="4" y="4" ry="12" style="fill:url(#b);stroke-width:2"/><path d="M37.6 40 44 24h4.8l6.4 16h-4.8l-4-9.6-4 9.6z" style="fill:#464646;stroke-width:2"/><path d="m32.8 40 6.4-16H44l6.4 16h-4.8l-4-9.6-4 9.6z" style="fill:#909198;stroke-width:2"/><path d="m24.8 40 6.4-16H36l6.4 16h-4.8l-4-9.6-4 9.6z" style="fill:#464646;stroke-width:2"/><path d="m20 40 6.4-16h4.8l6.4 16h-4.8l-4-9.6-4 9.6z" style="fill:#909198;stroke-width:2"/><path d="m8.8 24 6.4 16H20l6.4-16h-4.8l-4 9.6-4-9.6z" style="fill:#a53655;stroke-width:2"/></svg>