<svg xmlns="http://www.w3.org/2000/svg" xmlns:xlink="http://www.w3.org/1999/xlink" width="64" height="64" viewBox="0 0 64 64"><defs><linearGradient xlink:href="#a" id="b" x1="16" x2="16" y1="30" y2="2" gradientTransform="scale(2)" gradientUnits="userSpaceOnUse"/><linearGradient id="a"><stop offset="0" style="stop-color:#ff650f;stop-opacity:1"/><stop offset="1" style="stop-color:#ffb54f;stop-opacity:1"/></linearGradient></defs><rect width="56" height="56" x="4" y="5" ry="12" style="opacity:.2;fill:#000;stroke-width:3.5"/><rect width="56" height="56" x="4" y="4" ry="12" style="fill:url(#b);stroke-width:2"/><path d="M32.004 12a7.1 7.1 0 0 0-2.75.512 2 2 0 0 0-1.168 1.29l-1.84 6.214C27.603 21 29.847 21.485 32 21.5c2.222.016 4.354-.469 5.754-1.484l-1.84-6.215a2 2 0 0 0-1.266-1.324A8.4 8.4 0 0 0 32.004 12m-8.125 16.012-2.367 7.996C24.729 37.8 28.407 38.523 32 38.5c3.657-.023 7.229-.822 10.488-2.492l-2.367-7.996c-5.497 2.187-10.12 2.749-16.242 0m18.61 7.996 1.421 4.813a2 2 0 0 1-.871 2.27c-3.138 1.925-7.056 2.871-11.04 2.91-3.981.037-8.059-.825-11.14-2.973a2 2 0 0 1-.773-2.207l1.426-4.813h-2.504c-.807 0-1.537.486-1.848 1.23l-4.996 11.993A2 2 0 0 0 14.008 52h35.984a2 2 0 0 0 1.844-2.77L46.84 37.239a2 2 0 0 0-1.848-1.23z" style="fill:#fff;stroke-width:2"/></svg>