<svg xmlns="http://www.w3.org/2000/svg" xmlns:xlink="http://www.w3.org/1999/xlink" width="64" height="64" viewBox="0 0 64 64"><defs><linearGradient xlink:href="#a" id="d" x1="16" x2="16" y1="30" y2="2" gradientTransform="scale(2)" gradientUnits="userSpaceOnUse"/><linearGradient id="a"><stop offset="0" style="stop-color:#41bbff;stop-opacity:1"/><stop offset="1" style="stop-color:#0a8aff;stop-opacity:1"/></linearGradient><linearGradient xlink:href="#b" id="e" x1="29" x2="16" y1="29" y2="3" gradientTransform="translate(9.23 13.23)scale(.92308)" gradientUnits="userSpaceOnUse"/><linearGradient id="b"><stop offset="0" style="stop-color:#ff8e42;stop-opacity:1"/><stop offset="1" style="stop-color:#ffdc42;stop-opacity:1"/></linearGradient><linearGradient xlink:href="#c" id="f" x1="23" x2="15" y1="23" y2="12" gradientTransform="matrix(2 0 0 2 6 2)" gradientUnits="userSpaceOnUse"/><linearGradient id="c"><stop offset="0" style="stop-color:#d3d3d3;stop-opacity:1"/><stop offset="1" style="stop-color:#ebf3fb;stop-opacity:1"/></linearGradient></defs><rect width="56" height="56" x="4" y="5" ry="12" style="opacity:.2;fill:#000;stroke-width:3.5"/><rect width="56" height="56" x="4" y="4" ry="12" style="fill:url(#d);stroke-width:2"/><circle cx="24" cy="28" r="12" style="fill:url(#e);fill-opacity:1;stroke:none;stroke-width:1.84615;stroke-linecap:round;stroke-linejoin:round;stroke-dasharray:none;stroke-opacity:1"/><path d="M36 26a10 10 0 0 0-10 10c-3.324 0-6 2.676-6 6s2.676 6 6 6h20c3.324 0 6-2.676 6-6s-2.676-6-6-6a10 10 0 0 0-10-10" style="fill:url(#f);fill-opacity:1;stroke-width:10;stroke-linecap:round;stroke-linejoin:round"/></svg>