<svg xmlns="http://www.w3.org/2000/svg" xmlns:xlink="http://www.w3.org/1999/xlink" width="64" height="64" viewBox="0 0 64 64"><defs><linearGradient id="a"><stop offset="0" style="stop-color:#eaebed;stop-opacity:1"/><stop offset="1" style="stop-color:#f9fafa;stop-opacity:1"/></linearGradient><linearGradient xlink:href="#a" id="f" x1="16" x2="16" y1="30" y2="2" gradientTransform="scale(2)" gradientUnits="userSpaceOnUse"/><linearGradient xlink:href="#b" id="g" x1="8.202" x2="16.404" y1="3.44" y2="11.306" gradientTransform="translate(2)scale(3.77953)" gradientUnits="userSpaceOnUse"/><linearGradient id="b"><stop offset="0" style="stop-color:#000;stop-opacity:1"/><stop offset="1" style="stop-color:#000;stop-opacity:0"/></linearGradient><linearGradient xlink:href="#c" id="h" x1="27" x2="43" y1="13" y2="48" gradientTransform="translate(1 -1.176)" gradientUnits="userSpaceOnUse"/><linearGradient id="c"><stop offset="0" style="stop-color:#bdc3c7;stop-opacity:1"/><stop offset="1" style="stop-color:#7f8c8d;stop-opacity:1"/></linearGradient><linearGradient xlink:href="#d" id="i" x1="7.673" x2="6.615" y1="16.272" y2="13.626" gradientTransform="matrix(3.77953 0 0 4.31946 1 -7.429)" gradientUnits="userSpaceOnUse"/><linearGradient id="d"><stop offset="0" style="stop-color:#18222a;stop-opacity:1"/><stop offset="1" style="stop-color:#566069;stop-opacity:1"/></linearGradient><linearGradient xlink:href="#e" id="j" x1="12.435" x2="12.435" y1="13.494" y2="11.906" gradientTransform="matrix(3.09234 0 0 2.51969 6 18)" gradientUnits="userSpaceOnUse"/><linearGradient id="e"><stop offset="0" style="stop-color:#f39c12;stop-opacity:1"/><stop offset="1" style="stop-color:#f5ab35;stop-opacity:1"/></linearGradient><linearGradient xlink:href="#b" id="k" x1="7.673" x2="10.054" y1="14.023" y2="16.404" gradientTransform="matrix(3.77953 0 0 4.31946 -3 -8.571)" gradientUnits="userSpaceOnUse"/></defs><rect width="56" height="56" x="4" y="5" ry="12" style="opacity:.2;fill:#000;stroke-width:3.5"/><rect width="56" height="56" x="4" y="4" ry="12" style="fill:url(#f);stroke-width:2"/><path d="m32 12-5 30.172 7.742-1.938L35 60h13c6.648 0 12-5.352 12-12V36L36.61 12.969l-1.891 3.187L34 14Z" style="opacity:.2;fill:url(#g);fill-opacity:1;stroke-width:.670894;stroke-linecap:round;stroke-linejoin:round"/><path d="M32 12a4 4 0 0 0-4 4 4 4 0 0 0 1.438 3.063C27.064 30.753 22 36 22 36s3.77 6.04 4 12h14c.23-5.96 4-12 4-12s-5.064-5.246-7.437-16.937A4 4 0 0 0 38 16a4 4 0 0 0-4-4v20.176A3 3 0 0 1 36 35a3 3 0 0 1-3 3 3 3 0 0 1-3-3 3 3 0 0 1 2-2.812V20Z" style="fill:url(#h);fill-opacity:1;stroke-width:.821676;stroke-linecap:round;stroke-linejoin:round"/><path d="M26 52h14v8H26z" style="fill:url(#i);fill-opacity:1;stroke-width:.591118;stroke-linecap:round;stroke-linejoin:round"/><rect width="18" height="4" x="24" y="48" ry="2" style="fill:url(#j);fill-opacity:1;stroke-width:.49549;stroke-linecap:round;stroke-linejoin:round"/><path d="M26 52h14v8h-6z" style="opacity:.2;fill:url(#k);fill-opacity:1;stroke-width:.717216;stroke-linecap:round;stroke-linejoin:round"/></svg>