<svg xmlns="http://www.w3.org/2000/svg" xmlns:xlink="http://www.w3.org/1999/xlink" width="64" height="64" viewBox="0 0 64 64"><defs><linearGradient xlink:href="#a" id="c" x1="16" x2="16" y1="30" y2="2" gradientTransform="scale(2)" gradientUnits="userSpaceOnUse"/><linearGradient xlink:href="#b" id="d" x1="11.2" x2="52.8" y1="21.508" y2="48.809" gradientTransform="translate(-1.846 -2.749)scale(1.0577)" gradientUnits="userSpaceOnUse"/><linearGradient id="b"><stop offset="0" style="stop-color:#ec6e28;stop-opacity:1"/><stop offset="1" style="stop-color:#f3bf21;stop-opacity:1"/></linearGradient><linearGradient id="a"><stop offset="0" style="stop-color:#adb2b9;stop-opacity:1"/><stop offset="1" style="stop-color:#e0e2e4;stop-opacity:1"/></linearGradient></defs><rect width="56" height="56" x="4" y="5" ry="12" style="opacity:.2;fill:#000;stroke-width:3.5"/><rect width="56" height="56" x="4" y="4" ry="12" style="fill:url(#c);stroke-width:2"/><path d="m14 14 14 19.387L16 50h2l11-15.23 5-6.922L24 14Zm32 0L30 36.152 40 50h10L36 30.613 48 14Z" style="fill:#373a3d;fill-opacity:1;stroke-width:3.26598"/><path d="M32 20c-1.074 0-2.221.082-3.254.18 1.84 2.37 3.364 4.379 5.121 6.66-.986-2.097-3.012-4.11-2.312-5.145.694-1.023 1.972-.851 2.07-.851 2.049 0 4.023.23 5.867.652l.43-.586C37.462 20.285 34.794 20 32 20m11.098 1.914-.399.563c5.682 2.198 9.524 6.393 9.524 11.203 0 7.085-8.332 12.836-18.598 12.836s-18.602-5.747-18.602-12.832c0-3.564 2.114-6.79 5.516-9.118l-1.219-1.972C13.684 25.214 10 29.529 10 34.41c0 7.988 9.856 14.465 22 14.465s22-6.479 22-14.465c0-5.327-4.38-9.984-10.902-12.496" style="fill:url(#d);fill-opacity:1;stroke-width:1.05769"/></svg>