<svg xmlns="http://www.w3.org/2000/svg" width="16" height="16"><path fill="gray" d="m6.432 2.414-.35.06a11 11 0 0 0-2.813.887l-.126.059-.077.117C1.31 6.192.818 8.835 1.056 11.393l.022.22.178.133a11.3 11.3 0 0 0 3.44 1.762l.343.107.209-.29q.425-.585.748-1.231l.084-.168c1.286.32 2.561.32 3.84.002l.082.166q.322.647.748 1.232l.21.29.343-.106a11.2 11.2 0 0 0 3.441-1.764l.178-.133.021-.22c.281-2.97-.49-5.582-2.015-7.86l-.078-.115-.125-.06a11 11 0 0 0-2.81-.883l-.35-.06-.172.312c-.077.138-.147.302-.221.46a10.3 10.3 0 0 0-2.344 0c-.073-.154-.142-.31-.225-.46zM5.904 3.57c.05.103.106.202.15.307l.153.357.383-.058a9.3 9.3 0 0 1 2.822 0l.387.058.15-.361c.039-.092.094-.195.145-.303.707.15 1.403.352 2.062.649 1.32 2.018 1.962 4.253 1.772 6.838a10 10 0 0 1-2.586 1.326q-.095-.15-.184-.303c.222-.105.45-.195.66-.322l.637-.383-.596-.445a6 6 0 0 1-.252-.2l-.244-.203-.289.137c-1.985.94-4.137.94-6.15-.002l-.29-.135-.243.205q-.122.102-.248.196l-.602.445.64.385c.21.126.438.215.659.32q-.089.153-.184.3a10 10 0 0 1-2.588-1.323c-.167-2.25.263-4.494 1.776-6.836.659-.297 1.353-.5 2.06-.649"/><path fill="gray" d="M5.674 9.97c-.691 0-1.258-.646-1.258-1.432s.555-1.433 1.258-1.433c.704 0 1.271.646 1.259 1.433.001.786-.555 1.432-1.259 1.432m4.652 0c-.692 0-1.259-.646-1.259-1.432s.555-1.433 1.259-1.433 1.27.646 1.258 1.433c0 .786-.555 1.432-1.258 1.432"/></svg>