<svg xmlns="http://www.w3.org/2000/svg" width="16.031" height="16" viewBox="0 0 16.031 16"><title>Gnome Symbolic Icon Theme</title><path fill="gray" d="M2 2C.892 2 0 2.892 0 4v9c0 1.108.892 2 2 2h7.678a4.5 4.5 0 0 1-.916-1H2c-.554 0-1-.446-1-1V7h14v.76a4.5 4.5 0 0 1 1 .914V5c0-1.108-.892-2-2-2H6.371c-.58-.023-.605.077-1.039-.357S4.719 2 4 2zm0 1h2c.311 0 .52 0 .998.47.479.472.639.53 1 .53H14c.554 0 1 .446 1 1v1H1V4c0-.554.446-1 1-1"/><path fill="#ffb74d" d="M12.5 8a3.5 3.5 0 1 0 0 7 3.5 3.5 0 0 0 0-7m0 .99c.277 0 .5.223.5.5v2a.499.499 0 1 1-1 0v-2c0-.277.223-.5.5-.5m0 4a.5.5 0 0 1 .5.5.5.5 0 0 1-.5.5.5.5 0 0 1-.5-.5.5.5 0 0 1 .5-.5" class="warning"/></svg>