<svg xmlns="http://www.w3.org/2000/svg" width="16" height="16"><path fill="gray" d="m11.162 4.27-.076.007v.008c-1.106.83-2.098 1.99-3.102 2.992L6.22 5.52c-.335-.546-1.28.394-.735.732L7.62 8.387a.533.533 0 0 0 .733 0l3.2-3.201a.533.533 0 0 0-.39-.916z" color="#000" font-weight="400" overflow="visible" style="font-feature-settings:normal;font-variant-alternates:normal;font-variant-caps:normal;font-variant-ligatures:normal;font-variant-numeric:normal;font-variant-position:normal;isolation:auto;mix-blend-mode:normal;shape-padding:0;text-decoration-color:#000;text-decoration-line:none;text-decoration-style:solid;text-indent:0;text-orientation:mixed;text-transform:none;white-space:normal"/><path fill="gray" d="M8 0C3.576 0 0 3.576 0 8s3.576 8 8 8 8-3.576 8-8-3.576-8-8-8m0 1c3.87 0 7 3.13 7 7s-3.13 7-7 7-7-3.13-7-7 3.13-7 7-7" color="#bebebe" overflow="visible" style="text-indent:0;text-transform:none"/></svg>