<svg xmlns="http://www.w3.org/2000/svg" width="16" height="16"><path fill="currentColor" d="M3.5 2A3.5 3.5 0 0 0 0 5.5 3.5 3.5 0 0 0 3.5 9 3.5 3.5 0 0 0 7 5.5 3.5 3.5 0 0 0 3.5 2m9 0A3.5 3.5 0 0 0 9 5.5 3.5 3.5 0 0 0 12.5 9a3.5 3.5 0 0 0 1.72-.46c-1 2.105-2.879 3.732-5.22 4.46v1.04c3.773-1.04 6.54-4.176 6.96-8.022l.009-.069q.023-.224.035-.453H16A3.5 3.5 0 0 0 12.5 2m-9 1A2.5 2.5 0 0 1 6 5.5 2.5 2.5 0 0 1 3.5 8 2.5 2.5 0 0 1 1 5.5 2.5 2.5 0 0 1 3.5 3m9 0A2.5 2.5 0 0 1 15 5.496v.002l-.004.037a2.5 2.5 0 0 1-.031.365l-.004.041A2.5 2.5 0 0 1 12.5 8 2.5 2.5 0 0 1 10 5.5 2.5 2.5 0 0 1 12.5 3" style="color:gray"/></svg>