<svg xmlns="http://www.w3.org/2000/svg" width="16" height="16"><path fill="gray" d="M3.5 1c-.277 0-.5.223-.5.5V3c-1.108 0-2 .892-2 2v7c0 1.108.892 2 2 2v1.5a.499.499 0 1 0 1 0V14h3.5v1.5a.499.499 0 1 0 1 0V14H12v1.5a.499.499 0 1 0 1 0V14c1.108 0 2-.892 2-2V5c0-1.108-.892-2-2-2V1.5a.499.499 0 1 0-1 0V3H8.5V1.5a.499.499 0 1 0-1 0V3H4V1.5c0-.277-.223-.5-.5-.5M3 4h10c.554 0 1 .446 1 1v5c0 .554-.446 1-1 1H3c-.554 0-1-.446-1-1V5c0-.554.446-1 1-1m-1 7.732c.294.17.635.268 1 .268h10a2 2 0 0 0 1-.268V12c0 .554-.446 1-1 1H3c-.554 0-1-.446-1-1z" style="paint-order:stroke fill markers"/></svg>