<svg xmlns="http://www.w3.org/2000/svg" width="16" height="16" viewBox="0 0 16 16"><path fill="gray" d="M6 1S3.188 1 3.008 3.72v.007A1 1 0 0 0 3 3.834v7.526c-.117.752-.62 1.145-1.375 1.761-.629.488-.773 1.309-.309 1.7.43.35 1.164.3 1.66-.344L3.997 13H7.84c.052.002.1.008.156.008L12 13h.166q.138 0 .262-.041c.825-.126 2.571-.662 2.568-2.951V1zm0 1h8v8c0 1.108-.892 2-2 2H4.895l3-3H12c.554 0 1-.446 1-1H8.895l4.712-4.713a.996.996 0 0 0-1.414 0L10 5.481V3c-.554 0-1 .446-1 1v2.48l-3 3V3c-.554 0-1 .446-1 1v6.48l-1 1V4c0-1.108.892-2 2-2"/></svg>