<svg xmlns="http://www.w3.org/2000/svg" width="16" height="16"><style id="current-color-scheme" type="text/css">.ColorScheme-Text{color:gray}</style><path fill="currentColor" d="M12.5 7.5a.5.5 0 1 0 0 1 .5.5 0 0 0 0-1m3 0a.5.5 0 1 0 0 1 .5.5 0 0 0 0-1" class="ColorScheme-Text"/><path fill="currentColor" d="M7.295 1.045A.5.5 0 0 0 7 1.5v5.285L4.266 5.076a.5.5 0 0 0-.69.158.5.5 0 0 0 .159.69L7 7.964v.071l-3.265 2.041a.5.5 0 0 0-.158.69.5.5 0 0 0 .689.158L7 9.214V14.5a.5.5 0 0 0 .832.373l4.5-4a.5.5 0 0 0-.066-.797L8.944 8l3.322-2.076a.5.5 0 0 0 .066-.797l-4.5-4a.5.5 0 0 0-.537-.082M8 2.613l3.17 2.817L8 7.41zM8 8.59l3.17 1.98L8 13.387z" class="ColorScheme-Text"/><path fill="currentColor" d="M.5 7.5a.5.5 0 1 0 0 1 .5.5 0 0 0 0-1m3 0a.5.5 0 1 0 0 1 .5.5 0 0 0 0-1" class="ColorScheme-Text"/></svg>