<svg xmlns="http://www.w3.org/2000/svg" xml:space="preserve" style="fill-rule:evenodd;clip-rule:evenodd;stroke-linejoin:round;stroke-miterlimit:2" viewBox="0 0 64 64"><circle cx="32" cy="32" r="31" style="fill:#fff;fill-opacity:.5"/><circle cx="32" cy="32" r="31" style="fill:url(#a)"/><path d="M32 1c17.11 0 31 13.89 31 31S49.11 63 32 63 1 49.11 1 32 14.89 1 32 1m0 1C15.44 2 2 15.44 2 32s13.44 30 30 30 30-13.44 30-30S48.56 2 32 2" style="fill-opacity:.5"/><path d="M32 9c12.69 0 23 10.31 23 23S44.69 55 32 55 9 44.69 9 32 19.31 9 32 9m0 1c-12.14 0-22 9.86-22 22s9.86 22 22 22 22-9.86 22-22-9.86-22-22-22"/><g opacity=".5"><path d="M60 16v32c0 6.62-5.38 12-12 12H16C9.38 60 4 54.62 4 48V16C4 9.38 9.38 4 16 4h32c6.62 0 12 5.38 12 12" style="fill:#ebebeb"/><path d="M60 16v32c0 6.63-5.38 12.01-12 12.01H16C9.37 60.01 4 54.63 4 48V16C4 9.38 9.37 4 16 4h32c6.62 0 12 5.38 12 12" style="fill:url(#b)"/><path d="M60 16v32c0 6.62-5.38 12-12 12H16C9.38 60 4 54.62 4 48V16C4 9.38 9.38 4 16 4h32c6.62 0 12 5.38 12 12m-1 0c0-6.07-4.93-11-11-11H16C9.93 5 5 9.93 5 16v32c0 6.07 4.93 11 11 11h32c6.07 0 11-4.93 11-11z"/><path d="M52 18v28c0 3.31-2.69 6-6 6H18c-3.31 0-6-2.69-6-6V18c0-3.31 2.69-6 6-6h28c3.31 0 6 2.69 6 6m-1 0c0-2.76-2.24-5-5-5H18c-2.76 0-5 2.24-5 5v28c0 2.76 2.24 5 5 5h28c2.76 0 5-2.24 5-5z"/></g><defs><linearGradient id="a" x1="0" x2="1" y1="0" y2="0" gradientTransform="rotate(90 15.499 16.504)scale(61.99674)" gradientUnits="userSpaceOnUse"><stop offset="0" style="stop-color:#fff;stop-opacity:.1"/><stop offset="1" style="stop-color:#000;stop-opacity:.1"/></linearGradient><linearGradient id="b" x1="0" x2="1" y1="0" y2="0" gradientTransform="matrix(0 56 -56 0 32 4)" gradientUnits="userSpaceOnUse"><stop offset="0" style="stop-color:#fff;stop-opacity:.1"/><stop offset="1" style="stop-color:#000;stop-opacity:.1"/></linearGradient></defs></svg>