<svg xmlns="http://www.w3.org/2000/svg" width="64" height="64"><defs><linearGradient id="a" x1="7.937" x2="7.937" y1="15.081" y2="1.852" gradientTransform="scale(3.7796)" gradientUnits="userSpaceOnUse"><stop offset="0" stop-color="#f1efeb"/><stop offset="1" stop-color="#fdfcfc"/></linearGradient><linearGradient id="c" x1="32" x2="32" y1="61.301" y2="23.985" gradientTransform="matrix(1.5 0 0 1.5 -4 -4)" gradientUnits="userSpaceOnUse"><stop offset="0" stop-color="#569914"/><stop offset="1" stop-color="#9cc94b"/></linearGradient><filter id="b" width="1.108" height="1.135" x="-.054" y="-.067" color-interpolation-filters="sRGB"><feGaussianBlur stdDeviation="1.011"/></filter></defs><rect width="56.002" height="56.002" x="4" y="3.969" fill="url(#a)" rx="13.002" ry="13.002"/><rect width="5" height="10" x="25" y="14" fill="#202224" opacity=".15" ry="1"/><path d="M45.436 24.81c-.48.033-.934.298-1.193.748L39 34.64c-2.064-.534-4.364-.848-6.959-.848s-4.893.314-6.957.848l-5.242-9.082a1.496 1.496 0 0 0-2.05-.549 1.496 1.496 0 0 0-.547 2.049l4.93 8.54c-7.385 3.05-10.894 9.447-12.577 15.044a30 30 0 0 0 22.443 10.15 30 30 0 0 0 22.447-10.139c-1.682-5.6-5.19-12.003-12.578-15.057l4.932-8.539a1.497 1.497 0 0 0-.551-2.049 1.5 1.5 0 0 0-.855-.199z" filter="url(#b)" opacity=".1"/><path fill="url(#c)" d="M18.502 26.014a1.5 1.5 0 0 0-.75.203 1.496 1.496 0 0 0-.549 2.049l4.627 8.012A24 24 0 0 0 8.111 56.452a12.94 12.94 0 0 0 8.89 3.52H47c3.45 0 6.568-1.341 8.89-3.518a24 24 0 0 0-13.71-20.186l4.62-8.002a1.497 1.497 0 0 0-.55-2.05 1.5 1.5 0 0 0-.856-.199c-.48.033-.934.299-1.193.749l-4.846 8.396A24 24 0 0 0 32 34a24 24 0 0 0-7.338 1.187L19.8 26.766a1.5 1.5 0 0 0-1.298-.752"/><circle cx="23" cy="50" r="3" fill="#fff"/><circle cx="41" cy="50" r="3" fill="#fff"/><rect width="5" height="10" x="35" y="14" fill="#202224" opacity=".15" ry="1"/></svg>