<svg xmlns="http://www.w3.org/2000/svg" width="64" height="64"><defs><linearGradient id="a" x1="7.937" x2="7.937" y1="15.081" y2="1.852" gradientTransform="scale(3.7796)" gradientUnits="userSpaceOnUse"><stop offset="0" stop-color="#f1efeb"/><stop offset="1" stop-color="#fdfcfc"/></linearGradient><linearGradient id="d" x1="31.95" x2="31.95" y1="9.172" y2="58.887" gradientUnits="userSpaceOnUse"><stop offset="0" stop-color="#941bf9"/><stop offset="1" stop-color="#571bf9"/></linearGradient><linearGradient id="c" x1="28.259" x2="28.259" y1="56.519" y2="16.539" gradientUnits="userSpaceOnUse"><stop offset="0" stop-color="#af1876"/><stop offset="1" stop-color="#e13d72"/></linearGradient><linearGradient id="b" x1="30.714" x2="30.714" y1="50.08" y2="5.905" gradientUnits="userSpaceOnUse"><stop offset="0" stop-color="#3724b4"/><stop offset="1" stop-color="#6419f0"/></linearGradient></defs><rect width="56.002" height="56.002" x="4" y="3.969" fill="url(#a)" rx="13.002" ry="13.002"/><path fill="#bf00d2" d="M30.092 11.137A21 21 0 0 0 11.133 30.14a21.5 21.5 0 0 0 1.655 8.233c3.687 8.89 14.08 14.812 23.59 10.662 6.47-2.824 10.79-10.542 7.544-17.556v-.001c-1.076-2.326-2.956-4.192-5.263-5.25s-5.156-1.25-7.728.024a7.82 7.82 0 0 0-3.713 3.89c-.741 1.7-.847 3.855.167 5.747.64 1.194 1.638 2.104 2.906 2.623s2.946.563 4.36-.271a4.26 4.26 0 0 0 1.872-2.228c.366-.974.365-2.345-.359-3.438v-.001c-.44-.663-1-1.107-1.788-1.37-.635-.212-1.536-.203-2.327.158.288-.347.622-.66.993-.844h.001c1.196-.593 2.406-.525 3.632.037s2.35 1.675 2.927 2.923c1.974 4.268-.856 9.33-5.129 11.195-6.768 2.954-14.526-1.463-17.287-8.123-4.154-10.017 2.331-21.241 12.11-25.118h.002c.262-.105.528-.201.794-.296zm1.414 20.526q-.002 0-.004.003l-.005.003zm.58 2.437h2.97c-.007.122.024.282-.002.374-.129.458-.297.693-.657.97-.476.364-1.19.388-1.528.275s-.487-.233-.674-.515c-.188-.284-.18-.728-.129-.865.047-.124.058-.132.143-.182-.01-.004-.034-.017-.116-.051-.002 0-.005-.005-.007-.006m.123.057c.01.003.003-.005.02-.015-.01.007-.01.009-.02.015"/><path fill="url(#b)" d="M32 4a28 28 0 0 0-7.146.973C14.38 9.748 7.308 21.336 9.408 33.775c2.01 11.899 12.818 21.316 24.804 18.96 9.657-1.897 16.91-11.525 15.016-21.963-1.51-8.322-9.188-14.967-17.738-13.155-6.78 1.44-11.808 8.225-10.364 15.57 1.133 5.753 6.562 10.417 12.65 9.007 4.752-1.1 8.217-5.877 7.099-11.047v-.001c-.864-3.981-4.743-7.284-9.139-6.153a6.85 6.85 0 0 0-4.041 2.921c.953-2.128 2.9-3.78 5.079-4.243 4.717-1 9.401 2.898 10.364 8.206 1.268 6.992-3.825 13.55-10.118 14.787h-.001C24.85 48.27 17.008 41.609 15.51 32.746c-1.902-11.26 6.232-21.698 16.439-23.574 12.82-2.358 24.904 8.047 27.073 21.725.376 2.372.45 4.717.274 7.005a28 28 0 0 0 .702-5.9 28 28 0 0 0-28-28zm1.487 26.969c.506.034 1.145.588 1.34 1.488.045.207-.007.407-.011.612a2.2 2.2 0 0 1-1.16.919h-.002c-.304.102-.631.101-.936.06v-2.636c.01.005.045.002.052.006.106.076.081.067.092.113-.043-.183.27-.506.415-.544h.002a.7.7 0 0 1 .208-.018" transform="matrix(.75 0 0 .75 8 8)"/><path fill="#3724b4" d="M38.255 12.867c-3.294-.085-6.615.578-9.715 2.146-3.595 1.821-6.575 4.934-8.207 8.65-1.632 3.714-1.846 8.16.372 12.125a11.2 11.2 0 0 0 5.529 4.888c2.355.953 5.25 1.009 7.721-.55v-.002a6.9 6.9 0 0 0 2.82-3.496c.537-1.485.501-3.427-.63-4.966a4.27 4.27 0 0 0-2.258-1.608c-.97-.299-2.393-.203-3.393.69l-.003.003-.002.001c-.484.435-.766.877-.93 1.566s0 1.913.827 2.615c.408.347.666.466 1.212.546.273.04.636.057 1.089-.102.018-.006.036-.025.053-.032-.213.468-.628.98-1.027 1.233-1.235.779-2.52.77-3.903.21s-2.719-1.758-3.44-3.046c-1.525-2.729-1.402-5.632-.192-8.387s3.577-5.232 6.259-6.59c6.391-3.235 14.364-1.561 19.897 3.01a21 21 0 0 0-9.09-8.621q-1.486-.242-2.99-.283zm-6.54 18.457c.122-.007.228.004.329.013v4.042l-.477-.056c-.6-.14-1.221-.72-1.425-1.177a1.84 1.84 0 0 1-.177-.956c.021-.376-.004-.436.263-.878.226-.398.671-.763 1.063-.9.165-.059.302-.082.424-.088m2.185 3.014-.066.112c.028-.044.021-.049.044-.086.005-.01.017-.017.022-.026"/><path fill="url(#c)" d="M34.864 12.988a19.3 19.3 0 0 0-4.253.374c-9.045 1.807-16.043 10.552-14.05 20.093 1.552 7.432 8.793 13.18 16.7 11.454 6.097-1.331 10.82-7.317 9.317-13.861-1.148-5.001-6.108-8.873-11.54-7.56-4.112.994-7.304 5.118-6.142 9.652v.001c.874 3.4 4.334 6.046 8.154 5h.001c.587-.16 1.121-.464 1.633-.793-.783.7-1.686 1.283-2.744 1.514-4.246.927-8.427-2.388-9.321-6.673-1.23-5.888 3.322-11.584 9.205-12.76h.001c7.86-1.572 15.36 4.455 16.857 12.235 1.958 10.173-5.82 19.787-15.862 21.648-12.894 2.387-24.99-7.44-27.26-20.113v-.001c-.66-3.673-.524-7.493.342-11.144a28 28 0 0 0-1.901 9.945 28 28 0 0 0 25.81 27.843 28 28 0 0 0 4.137-.445c13.23-2.452 23.47-15.096 20.812-28.902-1.845-9.59-10.145-17.277-19.895-17.508zm-3.8 14.776q-.002 0-.005.003h-.006zm4.173 3.117.005.013-.004-.007zm1.915.275.002.004-.002-.003zm-5.785.99h2.775a2 2 0 0 1-.26.777 1.6 1.6 0 0 1-.951.74c-.911.29-1.544-.18-1.715-.758-.138-.472.021-.682.205-.732h-.004c-.01.003-.037-.024-.05-.027m-3.15 1.068.002.002v.002zm5 2.396-.013.004q.003 0 .007-.003z" transform="matrix(.75 0 0 .75 8 8)"/><path fill="url(#d)" d="M35.582 8.674a23.5 23.5 0 0 0-5.195.455c-11.008 2.2-19.522 12.847-17.107 24.422 1.874 8.978 10.617 15.922 20.119 13.847 7.291-1.592 12.935-8.752 11.148-16.536v-.001c-1.356-5.908-7.213-10.485-13.59-8.942-4.788 1.16-8.503 5.962-7.159 11.202 1 3.895 4.96 6.923 9.297 5.735h.002c3.185-.875 5.681-4.172 4.613-7.805v-.001c-.16-.544-.454-1.038-.77-1.512.728.757 1.332 1.652 1.574 2.707v.001c.944 4.11-2.272 8.196-6.435 9.105-5.84 1.275-11.524-3.232-12.741-9.064-1.654-7.924 4.418-15.52 12.264-17.09 10.404-2.081 20.276 5.857 22.247 16.108 2.563 13.332-7.585 25.88-20.684 28.31q-1.086.202-2.173.313A28 28 0 0 0 32 60a28 28 0 0 0 28-28 28 28 0 0 0-.066-1.81l-.009-.054c-2.26-11.75-12.427-21.173-24.343-21.462" transform="matrix(.75 0 0 .75 8 8)"/></svg>