<svg xmlns="http://www.w3.org/2000/svg" width="64" height="64"><defs><linearGradient id="a" x1="7.937" x2="7.937" y1="15.081" y2="1.852" gradientTransform="scale(3.7796)" gradientUnits="userSpaceOnUse"><stop offset="0" stop-color="#f1efeb"/><stop offset="1" stop-color="#fdfcfc"/></linearGradient></defs><rect width="56.002" height="56.002" x="4" y="3.969" fill="url(#a)" rx="13.002" ry="13.002"/><g transform="translate(.696 .696)scale(1.3043)"><rect width="26" height="17" x="11" y="15" fill="#b48464" ry="1.5"/><path fill="#6c5947" d="M13 16a1 1 0 0 0-1 1 1 1 0 0 0 1 1 1 1 0 0 0 1-1 1 1 0 0 0-1-1m22 0a1 1 0 0 0-1 1 1 1 0 0 0 1 1 1 1 0 0 0 1-1 1 1 0 0 0-1-1"/><path fill="#908e9a" d="M14.5 23.5V25h3v-1.5zm8 0V25h3v-1.5zm8 0V25h3v-1.5z"/><path fill="#d5d8d8" d="M15 28v8h1l1-1-.5-.5.5-.5v-1l-.5-1 .5-1-.5-1 .5-1v-1zm8 0v6.5l.5.5h.5l1-1-.5-.5.5-.5-.5-.5.5-.5-1-1 1-1h-.5l.5-1v-1zm8 0v8l1 1 1-1-.5-.5.5-.5-1-1h1l-.5-1 .5-1-.5-.5.5-.5-1-1h1v-2z"/><path fill="#58a5e9" d="M16 23a3 3 0 0 0-3 3 3 3 0 0 0 3 3 3 3 0 0 0 3-3 3 3 0 0 0-3-3m0 1a1 1 0 0 1 1 1 1 1 0 0 1-1 1 1 1 0 0 1-1-1 1 1 0 0 1 1-1"/><path fill="#e64c4c" d="M24 23a3 3 0 0 0-3 3 3 3 0 0 0 3 3 3 3 0 0 0 3-3 3 3 0 0 0-3-3m0 1a1 1 0 0 1 1 1 1 1 0 0 1-1 1 1 1 0 0 1-1-1 1 1 0 0 1 1-1"/><path fill="#b662c0" d="M32 23a3 3 0 0 0-3 3 3 3 0 0 0 3 3 3 3 0 0 0 3-3 3 3 0 0 0-3-3m0 1a1 1 0 0 1 1 1 1 1 0 0 1-1 1 1 1 0 0 1-1-1 1 1 0 0 1 1-1"/><path fill="#ebebeb" d="M13.5 20c-.277 0-.5.223-.5.5v1c0 .277.223.5.5.5h5c.277 0 .5-.223.5-.5v-1c0-.277-.223-.5-.5-.5zm8 0c-.277 0-.5.223-.5.5v1c0 .277.223.5.5.5h5c.277 0 .5-.223.5-.5v-1c0-.277-.223-.5-.5-.5zm8 0c-.277 0-.5.223-.5.5v1c0 .277.223.5.5.5h5c.277 0 .5-.223.5-.5v-1c0-.277-.223-.5-.5-.5z"/></g></svg>