<svg xmlns="http://www.w3.org/2000/svg" width="64" height="64"><defs><linearGradient id="a" x1="3.2" x2="18" y2="24" gradientTransform="matrix(2.5184 0 0 2.4554 4.047 4.014)" gradientUnits="userSpaceOnUse"><stop offset="0" stop-color="#1abc9c"/><stop offset="1" stop-color="#16a085"/></linearGradient></defs><rect width="56.002" height="56.002" x="4" y="3.969" fill="url(#a)" rx="13.001" ry="13.001"/><path fill-opacity=".2" d="M15.232 15.197v44.728h1.4V15.199z" opacity=".441"/><path d="M4.133 15.197q-.056.412-.086.832V47.91A12.95 12.95 0 0 0 15.23 59.838V15.197z" opacity=".3"/><path fill-opacity=".2" d="M4.047 15.197v1.4H59.96v-1.4z" opacity=".69"/><path fill="#fff" d="M16.1 4.014A12.95 12.95 0 0 0 4.133 15.198h55.736A12.95 12.95 0 0 0 47.902 4.014H16.099z" opacity=".2"/><path fill="none" stroke="#fff" stroke-width="2.794" d="M19.425 41.753h11.179c2.8 0 4.193-1.395 6.989-1.395 2.8 0 4.616 1.395 6.988 1.395h11.184m-36.34-16.772h4.194c2.796 0 4.19-1.4 6.985-1.4 2.8 0 4.616 1.4 6.988 1.4h18.173m-36.34 8.389h18.173c2.796 0 4.19-1.4 6.983-1.4 2.801 0 4.613 1.4 6.989 1.4h4.196"/><path fill="#fff" d="M19.425 48.741v2.8h19.942l1.025-2.8z" style="-inkscape-stroke:none"/><path fill="#bdc3c7" d="m53.69 1.599-2.028.11-21.656 50.092-.261 9.797 6.943-6.91 21.657-50.09-1.313-1.554Z"/><path fill-opacity=".2" d="M51.656 1.709 30.02 51.801l1.306 1.56L52.976 3.27Z"/><path fill="#fff" fill-opacity=".2" d="m58.338 4.597-2.028.11-21.65 50.098 2.028-.116Z"/><path fill-opacity=".2" d="m31.319 53.355 3.341 1.444-4.915 6.799z"/><path fill-opacity=".4" d="m30.013 51.801 1.306 1.56-1.581 8.237z"/><path fill-opacity=".2" d="m53.69 1.599-2.028.11 1.307 1.56 3.341 1.444 2.028-.116-1.306-1.554z"/><path fill="#fff" fill-opacity=".4" d="m31.456 48.467-.721 1.67 1.306 1.554 3.341 1.444 2.028-.117.722-1.664-2.028.11-3.341-1.444Zm19.12-44.255-.722 1.67 1.307 1.56 3.34 1.445 2.036-.117.722-1.67-2.035.116-3.335-1.444zm-1.444 3.34-.722 1.671 1.307 1.561 3.341 1.444 2.035-.117.722-1.67-2.035.116-3.334-1.444z"/><path fill-opacity=".266" d="m33.91 57.452-1.326.227-1.925-.832-.756-1.107-.158 5.858Z"/></svg>