<svg xmlns="http://www.w3.org/2000/svg" width="64" height="64"><defs><linearGradient id="a" x1="7.937" x2="7.937" y1="15.081" y2="1.852" gradientTransform="scale(3.7796)" gradientUnits="userSpaceOnUse"><stop offset="0" stop-color="#363636"/><stop offset="1" stop-color="#6c6c6c"/></linearGradient><filter id="b" width="1.404" height="1.231" x="-.202" y="-.116" color-interpolation-filters="sRGB"><feGaussianBlur stdDeviation="1.684"/></filter></defs><rect width="56" height="56" x="4" y="4" fill="url(#a)" rx="13" ry="13"/><g filter="url(#b)" opacity=".25" transform="translate(2.002 1.933)"><path d="M23 14h17v7H23zm0 7h6v7h-6zm14 0h6v7h-6zm-14 7h17v7H23zm0 7h6v7h-6zm14 0h6v7h-6zm-14 7h17v7H23z"/></g><path fill="#e62525" d="M23 14h17v7H23z"/><path fill="#cd2121" d="M23 21h6v7h-6zm14 0h6v7h-6z"/><path fill="#b31d1d" d="M23 28h17v7H23z"/><path fill="#9a1919" d="M23 35h6v7h-6zm14 0h6v7h-6z"/><path fill="#801414" d="M23 42h17v7H23z"/></svg>