<svg xmlns="http://www.w3.org/2000/svg" width="64" height="64" fill="none"><path fill="url(#a)" d="M47 4H17.002C9.822 4 4 9.821 4 17.002V47c0 7.18 5.821 13.002 13.002 13.002H47c7.18 0 13.002-5.821 13.002-13.002V17.002C60.002 9.822 54.181 4 47 4" clip-path="url(#b)" transform="translate(-.001 -.001)"/><g fill="#fff" clip-path="url(#c)"><path d="M39.169 16H24.831c-4.87 0-8.83 3.962-8.83 8.83v14.34c0 4.87 3.96 8.83 8.83 8.83h14.338C44.039 48 48 44.039 48 39.17V24.83c0-4.87-3.961-8.83-8.831-8.83m5.992 23.169a6 6 0 0 1-5.992 5.992H24.831a6 6 0 0 1-5.991-5.992V24.831a6 6 0 0 1 5.991-5.992H39.17a6 6 0 0 1 5.992 5.992z"/><path d="M32 23.755c-4.547 0-8.245 3.699-8.245 8.246 0 4.546 3.698 8.245 8.245 8.245s8.245-3.699 8.245-8.245c0-4.547-3.698-8.246-8.245-8.246m0 13.651A5.41 5.41 0 0 1 26.594 32c0-2.981 2.425-5.406 5.406-5.406s5.406 2.425 5.406 5.406A5.41 5.41 0 0 1 32 37.406m8.591-16.059a2.1 2.1 0 0 0-1.47.61 2.1 2.1 0 0 0-.612 1.472 2.1 2.1 0 0 0 .611 1.473 2.1 2.1 0 0 0 1.471.61 2.1 2.1 0 0 0 1.472-.61c.389-.388.61-.926.61-1.473a2.1 2.1 0 0 0-.61-1.472 2.1 2.1 0 0 0-1.472-.61"/></g><defs><clipPath id="c"><path fill="#fff" d="M0 0h64v64H0z"/></clipPath><clipPath id="b"><path fill="#fff" d="M0 0h64v64H0z"/></clipPath><linearGradient id="a" x1="106.5" x2="8.5" y1="-43.5" y2="58.5" gradientUnits="userSpaceOnUse"><stop offset="0" stop-color="#575dcc"/><stop offset=".677" stop-color="#e0316b"/><stop offset="1" stop-color="#fed373"/></linearGradient></defs></svg>