<svg xmlns="http://www.w3.org/2000/svg" width="64" height="64" enable-background="new 0 0 1024 1024" image-rendering="optimizeSpeed"><defs><linearGradient id="e" x1="25.195" x2="25.195" y1="19.358" y2="41.358" gradientUnits="userSpaceOnUse"><stop offset="0" stop-color="#0ba55f"/><stop offset="1" stop-color="#0cc380"/></linearGradient><linearGradient id="d" x1="36.029" x2="36.029" y1="19.358" y2="34.026" gradientUnits="userSpaceOnUse"><stop offset="0" stop-color="#fbaf4b"/><stop offset="1" stop-color="#fbe046"/></linearGradient><linearGradient id="c" x1="43.832" x2="26.616" y1="37.531" y2="37.073" gradientUnits="userSpaceOnUse"><stop offset="0" stop-color="#3e97fb"/><stop offset="1" stop-color="#207efa"/></linearGradient><linearGradient id="a" x1="7.937" x2="7.937" y1="15.081" y2="1.852" gradientTransform="scale(3.7796)" gradientUnits="userSpaceOnUse"><stop offset="0" stop-color="#363636"/><stop offset="1" stop-color="#6c6c6c"/></linearGradient><filter id="b" width="1.111" height="1.131" x="-.055" y="-.065" color-interpolation-filters="sRGB"><feGaussianBlur stdDeviation=".6"/></filter></defs><rect width="56.002" height="56.002" x="4" y="3.969" fill="url(#a)" rx="13.002" ry="13.002"/><g fill-rule="evenodd" filter="url(#b)" opacity=".15" transform="translate(-7.009 -5.364)scale(1.2308)"><path d="M27.363 34.026h17.332l-4.332 7.332H23.027m21.668-7.332-8.668-14.668h-8.664l8.664 14.668"/><path d="m23.027 41.358 8.668-14.668-4.332-7.332-8.668 14.668"/></g><g fill-rule="evenodd"><path fill="url(#c)" d="M27.363 34.026h17.332l-4.332 7.332H23.027" transform="translate(-7.009 -5.364)scale(1.2308)"/><path fill="url(#d)" d="m44.695 34.026-8.668-14.668h-8.664l8.664 14.668" transform="translate(-7.009 -5.364)scale(1.2308)"/><path fill="url(#e)" d="m23.027 41.358 8.668-14.668-4.332-7.332-8.668 14.668" transform="translate(-7.009 -5.364)scale(1.2308)"/></g></svg>