<svg xmlns="http://www.w3.org/2000/svg" width="64" height="64" enable-background="new 0 0 1024 1024" image-rendering="optimizeSpeed"><defs><linearGradient id="f" x1="24" x2="4" y1="4" y2="44" gradientUnits="userSpaceOnUse"><stop offset="0" stop-color="#006eeb"/><stop offset="1" stop-color="#33c5ff"/></linearGradient><linearGradient id="e" x1="44" x2="24" y1="44" y2="4" gradientUnits="userSpaceOnUse"><stop offset="0" stop-color="#c00010"/><stop offset="1" stop-color="#ff5252"/></linearGradient><linearGradient id="g" x1="44" x2="4" gradientUnits="userSpaceOnUse"><stop offset="0" stop-color="#3b9900"/><stop offset="1" stop-color="#2bf333"/></linearGradient><linearGradient id="a" x1="7.937" x2="7.937" y1="15.081" y2="1.852" gradientTransform="scale(3.7796)" gradientUnits="userSpaceOnUse"><stop offset="0" stop-color="#333"/><stop offset="1" stop-color="#6b6b6b"/></linearGradient><filter id="b" width="1.24" height="1.12" x="-.12" y="-.06" color-interpolation-filters="sRGB"><feGaussianBlur stdDeviation="1.001"/></filter><filter id="c" width="1.22" height="1.12" x="-.11" y="-.06" color-interpolation-filters="sRGB"><feGaussianBlur stdDeviation="1.001"/></filter><filter id="d" width="1.12" height="1.439" x="-.06" y="-.219" color-interpolation-filters="sRGB"><feGaussianBlur stdDeviation="1.001"/></filter></defs><rect width="56.002" height="56.002" x="4" y="3.969" fill="url(#a)" rx="13.002" ry="13.002"/><g fill-rule="evenodd"><path d="m24 4 2.938 33.3 17.06 6.703z" filter="url(#b)" opacity=".25" transform="translate(8.02 5)"/><path d="M24 4 4 44l21.795-19.668z" filter="url(#c)" opacity=".25" transform="translate(8.02 5)"/><path d="M16.13 33.05 4 43.993l39.996.004zM4.03 43.927l-.072.066h.039z" filter="url(#d)" opacity=".25" transform="translate(8.02 5)"/><path fill="url(#e)" d="m24 4 2.938 33.3 17.06 6.703z" transform="translate(8.02 5)"/><path fill="url(#f)" d="M24 4 4 44l21.795-19.668z" transform="translate(8.02 5)"/><path fill="url(#g)" d="M16.13 33.05 4 43.993l39.996.004zM4.03 43.927l-.072.066h.039z" transform="translate(8.02 5)"/></g></svg>