<svg xmlns="http://www.w3.org/2000/svg" width="64" height="64" viewBox="0 0 16.933 16.933"><defs><linearGradient id="a" x1="7.166" x2="8.018" y1="2.18" y2="14.861" gradientUnits="userSpaceOnUse"><stop offset="0" stop-color="#66b2e9"/><stop offset="1" stop-color="#3384bd"/></linearGradient><linearGradient id="b" x1="32" x2="32" y1="3" y2="38" gradientUnits="userSpaceOnUse"><stop offset="0" stop-color="#fff"/><stop offset="1" stop-color="#d8eaf9"/></linearGradient><linearGradient id="c" x1="2.646" x2="2.117" y1="8.466" y2="8.466" gradientTransform="scale(3.7796)" gradientUnits="userSpaceOnUse"><stop offset="0"/><stop offset="1" stop-opacity="0"/></linearGradient></defs><rect width="14.817" height="14.817" x="1.058" y="1.05" fill="url(#a)" rx="3.44" ry="3.44"/><path fill="#fff" d="M4.498 1.05a3.433 3.433 0 0 0-3.44 3.44v.273a3.433 3.433 0 0 1 3.44-3.44h7.937a3.433 3.433 0 0 1 3.44 3.44V4.49a3.433 3.433 0 0 0-3.44-3.44z" opacity=".15"/><path d="M4.498 15.875a3.43 3.43 0 0 1-3.44-3.44v-.273a3.43 3.43 0 0 0 3.44 3.44h7.937a3.43 3.43 0 0 0 3.44-3.44v.273a3.43 3.43 0 0 1-3.44 3.44z" opacity=".15"/><path fill="url(#b)" d="M20 3.969v35.39c0 .394.712.987 1.852.329l9.513-4.791c.176-.088.405-.13.635-.13s.46.042.635.13l9.514 4.79c1.14.66 1.851.066 1.851-.327V3.969z" transform="scale(.26458)"/><path fill="url(#c)" d="M10 6.016C6.39 8.32 4 12.352 4 16.97v29.998c0 4.618 2.39 8.65 6 10.955z" opacity=".25" transform="scale(.26458)"/></svg>