<svg xmlns="http://www.w3.org/2000/svg" xml:space="preserve" style="fill-rule:evenodd;clip-rule:evenodd;stroke-linejoin:round;stroke-miterlimit:2" viewBox="0 0 64 64"><path d="M60 15.99v32C60 54.62 54.62 60 48 60H16C9.37 60 4 54.62 4 47.99v-32c0-6.61 5.37-12 12-12h32c6.62 0 12 5.38 12 12" style="fill:#030000"/><path d="M60 15.99v32C60 54.62 54.62 60 48 60H16C9.37 60 4 54.62 4 47.99v-32c0-6.61 5.37-12 12-12h32c6.62 0 12 5.38 12 12" style="fill:#fff;fill-opacity:.5"/><path d="M60 15.99v32C60 54.62 54.62 60 48 60H16C9.37 60 4 54.62 4 47.99v-32c0-6.61 5.37-12 12-12h32c6.62 0 12 5.38 12 12" style="fill:url(#a)"/><path d="M16 27.29v1.47c0 3.18 2.62 5.8 5.8 5.8h1.47V30.2h4.37c.8 0 1.45.65 1.45 1.45 0 .81-.65 1.46-1.45 1.46h-1.46v1.45h11.64l5.82-7.27z" style="fill:#f2f2f2;fill-rule:nonzero"/><path d="m20.36 11.98 23.28 16-5.82 5.82-8.73-5.82c-5.82-4.36-8.73-8.72-8.73-16" style="fill:#fff;fill-rule:nonzero"/><path d="M42.91 24.38c-1.35 0-2.69.5-3.64 1.46L21.82 43.29c-.96.95-1.45 2.29-1.46 3.64 0 2.79 2.3 5.09 5.09 5.09h.01c1.34 0 2.68-.5 3.63-1.46l17.46-17.45c.95-.95 1.45-2.29 1.45-3.64 0-2.79-2.3-5.09-5.09-5.09" style="fill:url(#b);fill-rule:nonzero"/><path d="m26.18 41.84-.72.72 1.09 1.09-.73.73-1.09-1.09-.73.73 1.09 1.09L24 46.2l.73.73 1.09-1.09.73.72-1.09 1.09.72.73 1.09-1.09 1.09 1.09.73-.73L28 46.56l.73-.72 1.09 1.09.73-.73-1.09-1.09 1.09-1.09-.73-.73-1.09 1.09-.73-.73 1.09-1.09-.73-.72-1.09 1.09zm1.09 2.54.73.73-.73.73-.72-.73z" style="fill:#f9f9f9;fill-rule:nonzero"/><path d="M24.73 15.74v1.46l8.72 6v-1.46z" style="fill:url(#c);fill-rule:nonzero"/><defs><linearGradient id="a" x1="0" x2="1" y1="0" y2="0" gradientTransform="matrix(0 56 -56 0 32 3.995)" gradientUnits="userSpaceOnUse"><stop offset="0" style="stop-color:#fff;stop-opacity:.1"/><stop offset="1" style="stop-color:#000;stop-opacity:.1"/></linearGradient><linearGradient id="b" x1="0" x2="1" y1="0" y2="0" gradientTransform="translate(20.364 38.2)scale(27.636)" gradientUnits="userSpaceOnUse"><stop offset="0" style="stop-color:#f13f47;stop-opacity:1"/><stop offset="1" style="stop-color:#ff7552;stop-opacity:1"/></linearGradient><linearGradient id="c" x1="0" x2="1" y1="0" y2="0" gradientTransform="rotate(212 20.172 5.462)scale(11.421)" gradientUnits="userSpaceOnUse"><stop offset="0" style="stop-color:#878787;stop-opacity:1"/><stop offset="1" style="stop-color:#878787;stop-opacity:0"/></linearGradient></defs></svg>