<svg xmlns="http://www.w3.org/2000/svg" width="64" height="64" viewBox="0 0 16.933 16.933"><defs><radialGradient id="b" cx="233.65" cy="90.547" r="54.818" gradientTransform="matrix(-.0402 .17967 -.18631 -.04168 33.214 -32.997)" gradientUnits="userSpaceOnUse"><stop offset="0" stop-color="#c7d6e4"/><stop offset=".284" stop-color="#808fa3"/><stop offset=".515" stop-color="#5b6474"/><stop offset="1" stop-color="#282825"/></radialGradient><radialGradient id="c" cx="249.55" cy="75.627" r="54.818" gradientTransform="rotate(94.11 13.784 1.735)scale(.0791 .08805)" gradientUnits="userSpaceOnUse"><stop offset="0" stop-color="#d7e4f1"/><stop offset="1" stop-color="#fff" stop-opacity="0"/></radialGradient><radialGradient id="g" cx="-498.85" cy="944.67" r="11.015" gradientTransform="matrix(0 .63047 -.55955 0 535.37 318.15)" gradientUnits="userSpaceOnUse"><stop offset="0" stop-color="#bcc5d5"/><stop offset=".515" stop-color="#6e78a9"/><stop offset="1" stop-color="#232a30"/></radialGradient><radialGradient id="i" cx="53.787" cy="1025.4" r="25.322" gradientTransform="matrix(0 .33212 -.39936 0 416.05 -10.992)" gradientUnits="userSpaceOnUse"><stop offset="0" stop-color="#bcc5d5"/><stop offset=".284" stop-color="#94a5b9"/><stop offset=".515" stop-color="#69758a"/><stop offset="1" stop-color="#282825"/></radialGradient><linearGradient id="a" x1="7.937" x2="7.937" y1="15.081" y2="1.852" gradientUnits="userSpaceOnUse"><stop offset="0" stop-color="#3fbefb"/><stop offset="1" stop-color="#8073f8"/></linearGradient><linearGradient id="d" x1="305.99" x2="305.99" y1="9.011" y2="116.17" gradientTransform="translate(-6.664 4.118)scale(.04504)" gradientUnits="userSpaceOnUse"><stop offset="0" stop-color="#2600bc"/><stop offset="1" stop-color="#109cd8"/></linearGradient><linearGradient id="e" x1="301.06" x2="301.06" y1="149.41" y2="-38.003" gradientTransform="matrix(.7 0 0 .7 66.103 -6.442)" gradientUnits="userSpaceOnUse"><stop offset="0" stop-color="#0beafa"/><stop offset="1" stop-color="#6b15ff" stop-opacity="0"/></linearGradient><filter id="f" width="1.143" height="1.143" x="-.071" y="-.071"><feGaussianBlur stdDeviation="3.263"/></filter><filter id="h" width="1.15" height="1.15" x="-.075" y="-.075" color-interpolation-filters="sRGB"><feGaussianBlur stdDeviation=".209"/></filter></defs><rect width="14.817" height="14.817" x="1.058" y="1.05" fill="url(#a)" rx="3.44" ry="3.44"/><g transform="translate(-.012 -.013)scale(1.0042)"><circle cx="8.443" cy="8.444" r="5.533" fill="url(#b)"/><circle cx="8.443" cy="8.444" r="5.533" fill="url(#c)"/><circle cx="8.466" cy="8.444" r="3.527" fill="url(#d)"/><circle cx="303.04" cy="62.699" r="54.818" fill="url(#e)" filter="url(#f)" transform="matrix(.05944 0 0 .05945 -9.57 4.716)"/></g><path fill="url(#g)" d="M8.445 7.323c-.619 0-1.121.503-1.121 1.121-.009.259.079.512.257.712q.018.023.038.045l.01.01.06.06 4.749 4.751h1.585l-.013-1.594L9.309 7.73l-.038-.038-.035-.042-.036-.03q-.022-.02-.045-.038a1 1 0 0 0-.711-.258z" filter="url(#h)" opacity=".35"/><path fill="url(#i)" d="M8.445 7.323c-.619 0-1.121.503-1.121 1.121-.009.259.079.512.257.712q.018.023.038.045l.01.01.06.06 4.749 4.751h1.585l-.013-1.594L9.309 7.73l-.038-.038-.035-.042-.036-.03q-.022-.02-.045-.038a1 1 0 0 0-.711-.258z"/></svg>