<svg xmlns="http://www.w3.org/2000/svg" width="64" height="64"><defs><linearGradient id="a" x1="7.937" x2="7.937" y1="15.081" y2="1.852" gradientTransform="scale(3.7796)" gradientUnits="userSpaceOnUse"><stop offset="0" stop-color="#b81e31"/><stop offset="1" stop-color="#ff5c5c"/></linearGradient></defs><rect width="56.002" height="56.002" x="4" y="3.969" fill="url(#a)" rx="13.002" ry="13.002"/><path fill="#fafafa" d="m30.359 3.969-7.201 24.014C18.358 25.045 10.7 22.093 4 21.149v6.049c6.145.997 12.749 3.784 17.39 6.738l-8.157 25.48c1.192.358 2.457.555 3.77.555h2.384l7.287-22.752c5.26 3.465 10.627 6.78 17.328 6.78 4.617 0 8.208-.3 12.357-1.671.596-.197 3.02-1.112 3.643-1.35v-6.826c-2.055.97-3.996 1.974-5.524 2.479C51.015 37.774 48.384 38 44.001 38c-5.107 0-9.96-3.086-15.555-6.752l8.172-27.28z"/></svg>