<svg xmlns="http://www.w3.org/2000/svg" width="64" height="64" fill="none"><rect width="56.002" height="56.002" x="3.999" y="3.999" fill="#fff" rx="13.002" ry="13.002"/><path fill="#f4aa41" d="M23.227 17.307 19.98 18.63l-5.232 6.429L11.5 33.19l1.443 3.971c.906 2.868 2.543 5.434 5.232 7.564l1.805-2.521s2.758 5.831 7.749 6.777c0 0 7.406 1.464 11.255-.663 2.468-1.364 3.187-3.341 3.187-3.341l2.466-2.584 1.143 1.765 1.503-.063 3.909-5.484 1.263-4.097-.12-3.404-1.684-4.16-3.488-5.609s-1.925-3.719-5.894-2.963c0 0-4.691-3.656-8.54-3.088-3.849.567-3.307-.946-9.502 2.017" class="fills"/><path fill="#ea5a47" d="m32.248 42.015-2.225 1.828h-1.804l-.06 2.899.541 2.647.782 1.45 2.044 1.135 3.308-.441 1.143-1.324.721-3.215-.18-3.025-1.443.189z" class="fills"/><path fill="#3f3f3f" d="m29.722 34.199-1.142 2.836 1.563.946.902.378 3.128.126 2.104-1.702-1.262-2.458z" class="fills"/><path fill="#000" d="M27.562 29.048s-1.303.94-1.984.505-.897-1.365-.482-2.079c.415-.713 1.303-.939 1.983-.505.681.435.483 2.079.483 2.079" class="fills"/><path d="M30.162 34.265h4.435c.289 0 .551.181.664.46l.836 2.061-1.573.867c-.444.244-.985-.049-1.051-.571" class="fills"/><path stroke="#000" stroke-linejoin="round" stroke-miterlimit="10" stroke-width="1.5" d="M30.162 34.265h4.435c.289 0 .551.181.664.46l.836 2.061-1.573.867c-.444.244-.985-.049-1.051-.571" class="stroke-shape"/><path d="M31.354 37.107c-.082.474-.56.748-.985.565l-1.67-.72.787-2.197a.72.72 0 0 1 .676-.49" class="fills"/><path stroke="#000" stroke-linejoin="round" stroke-miterlimit="10" stroke-width="1.5" d="M31.354 37.107c-.082.474-.56.748-.985.565l-1.67-.72.787-2.197a.72.72 0 0 1 .676-.49" class="stroke-shape"/><path d="M28.233 44.113s-.519 6.652 2.17 7.517c1.91.614 3.717.403 4.375-.189.632-.567 1.9-3.384 1.319-7.328" class="fills"/><path stroke="#000" stroke-linejoin="round" stroke-miterlimit="10" stroke-width="1.5" d="M28.233 44.113s-.519 6.652 2.17 7.517c1.91.614 3.717.403 4.375-.189.632-.567 1.9-3.384 1.319-7.328" class="stroke-shape"/><path fill="#000" d="M38.212 29.048s1.302.94 1.983.505.897-1.365.482-2.079c-.414-.713-1.302-.939-1.983-.505-.681.435-.482 2.079-.482 2.079" class="fills"/><path d="M24.76 38.677c-.342 2.725 1.613 4.35 3.093 5.175a2.37 2.37 0 0 0 2.682-.241l1.863-1.53 1.863 1.53c.77.633 1.819.722 2.683.241 1.479-.825 3.435-2.45 3.092-5.175" class="fills"/><path stroke="#000" stroke-linejoin="round" stroke-miterlimit="10" stroke-width="1.5" d="M24.76 38.677c-.342 2.725 1.613 4.35 3.093 5.175a2.37 2.37 0 0 0 2.682-.241l1.863-1.53 1.863 1.53c.77.633 1.819.722 2.683.241 1.479-.825 3.435-2.45 3.092-5.175" class="stroke-shape"/><path d="M20.666 27.723c-1.672 3.903-.367 9.852.086 11.63.088.346.054.708-.092 1.031l-1.434 3.172c-.45.994-1.727 1.175-2.404.334-2.304-2.865-6.176-8.615-4.726-12.621 5.097-14.077 11.451-13.723 11.451-13.723 2.054-1.463 9.457-5.247 17.907.662 0 0 6.229-1.299 10.78 12.811 1.301 4.036-2.475 9.732-4.728 12.589-.672.853-1.96.676-2.412-.323l-1.424-3.151a1.56 1.56 0 0 1-.092-1.031c.453-1.778 1.758-7.727.086-11.63" class="fills"/><path stroke="#000" stroke-linejoin="round" stroke-miterlimit="10" stroke-width="1.5" d="M20.666 27.723c-1.672 3.903-.367 9.852.086 11.63.088.346.054.708-.092 1.031l-1.434 3.172c-.45.994-1.727 1.175-2.404.334-2.304-2.865-6.176-8.615-4.726-12.621 5.097-14.077 11.451-13.723 11.451-13.723 2.054-1.463 9.457-5.247 17.907.662 0 0 6.229-1.299 10.78 12.811 1.301 4.036-2.475 9.732-4.728 12.589-.672.853-1.96.676-2.412-.323l-1.424-3.151a1.56 1.56 0 0 1-.092-1.031c.453-1.778 1.758-7.727.086-11.63" class="stroke-shape"/><path d="M44.25 41.418s-2.221 5.084-5.632 6.256" class="fills"/><path stroke="#000" stroke-linejoin="round" stroke-miterlimit="10" stroke-width="1.5" d="M44.25 41.418s-2.221 5.084-5.632 6.256" class="stroke-shape"/><path d="M20.295 41.801s2.221 4.6 5.633 5.772" class="fills"/><path stroke="#000" stroke-linejoin="round" stroke-miterlimit="10" stroke-width="1.5" d="M20.295 41.801s2.221 4.6 5.633 5.772" class="stroke-shape"/><path d="M32.398 42.081v-2.292" class="fills"/><path stroke="#000" stroke-linejoin="round" stroke-miterlimit="10" stroke-width="1.5" d="M32.398 42.081v-2.292" class="stroke-shape"/></svg>