<svg xmlns="http://www.w3.org/2000/svg" xmlns:xlink="http://www.w3.org/1999/xlink" width="64" height="64" viewBox="0 0 16.933 16.933"><defs><linearGradient id="a"><stop offset="0"/><stop offset="1" stop-color="#323232"/></linearGradient><linearGradient id="c" x1="7.083" x2="7.083" y1="4.159" y2="11.291" gradientUnits="userSpaceOnUse"><stop offset="0" stop-color="#dcfb69"/><stop offset="1" stop-color="#66f52f"/></linearGradient><linearGradient id="d" x1="10.65" x2="10.65" y1="7.06" y2="12.763" gradientUnits="userSpaceOnUse"><stop offset="0" stop-color="#fff"/><stop offset="1" stop-color="#bdf7d8"/></linearGradient><linearGradient xlink:href="#a" id="e" x1="5.712" x2="5.712" y1="5.867" y2="7.01" gradientUnits="userSpaceOnUse"/><linearGradient xlink:href="#a" id="f" x1="8.376" x2="8.376" y1="5.867" y2="7.01" gradientUnits="userSpaceOnUse"/><linearGradient xlink:href="#a" id="g" x1="9.554" x2="9.554" y1="8.434" y2="9.348" gradientUnits="userSpaceOnUse"/><linearGradient xlink:href="#a" id="h" x1="11.685" x2="11.685" y1="8.434" y2="9.348" gradientUnits="userSpaceOnUse"/><linearGradient id="b" x1="8.364" x2="8.364" y1="2.37" y2="14.902" gradientTransform="translate(33.507)" gradientUnits="userSpaceOnUse"><stop offset="0" stop-color="#20ef85"/><stop offset="1" stop-color="#12a97e"/></linearGradient></defs><rect width="14.817" height="14.817" x="1.058" y="1.05" fill="url(#b)" rx="3.44" ry="3.44"/><path fill="url(#c)" fill-rule="evenodd" d="M7.083 4.16a3.715 3.428 0 0 1 3.715 3.427 3.715 3.428 0 0 1-3.715 3.429 3.715 3.428 0 0 1-1.584-.33c-.65.552-1.339.605-1.339.605.372-.424.62-.997.625-1.01a3.715 3.428 0 0 1-1.417-2.694A3.715 3.428 0 0 1 7.083 4.16"/><g fill-rule="evenodd"><path fill="url(#d)" d="M10.65 7.06a2.97 2.741 0 0 0-2.97 2.742 2.97 2.741 0 0 0 2.97 2.74 2.97 2.741 0 0 0 1.266-.263c.52.442 1.071.484 1.071.484a3.5 3.5 0 0 1-.5-.808A2.97 2.741 0 0 0 13.621 9.8a2.97 2.741 0 0 0-2.971-2.74"/><circle cx="5.712" cy="6.439" r=".571" fill="url(#e)"/><circle cx="8.376" cy="6.439" r=".571" fill="url(#f)"/><circle cx="9.554" cy="8.891" r=".457" fill="url(#g)"/><circle cx="11.685" cy="8.891" r=".457" fill="url(#h)"/></g></svg>