<svg xmlns="http://www.w3.org/2000/svg" width="64" height="64"><defs><linearGradient id="a" x1="7.937" x2="7.937" y1="15.081" y2="1.852" gradientTransform="scale(3.7796)" gradientUnits="userSpaceOnUse"><stop offset="0" stop-color="#f1efeb"/><stop offset="1" stop-color="#fff"/></linearGradient></defs><rect width="56.002" height="56.002" x="4" y="3.969" fill="url(#a)" rx="13.002" ry="13.002"/><g stroke-width="1.304"><path fill="#2eb67d" d="M36.565 15.043a3.26 3.26 0 0 0-3.26 3.26v9.131a3.26 3.26 0 0 0 3.26 3.261 3.26 3.26 0 0 0 3.26-3.26v-9.131a3.26 3.26 0 0 0-3.26-3.261m9.13 9.13a3.26 3.26 0 0 0-3.26 3.261v3.261h3.26a3.26 3.26 0 0 0 3.261-3.26 3.26 3.26 0 0 0-3.26-3.262z"/><path fill="#ecb22e" d="M48.957 36.565a3.26 3.26 0 0 0-3.26-3.26h-9.131a3.26 3.26 0 0 0-3.261 3.26 3.26 3.26 0 0 0 3.26 3.26h9.131a3.26 3.26 0 0 0 3.261-3.26m-9.13 9.13a3.26 3.26 0 0 0-3.261-3.26h-3.261v3.26a3.26 3.26 0 0 0 3.26 3.261 3.26 3.26 0 0 0 3.262-3.26z"/><path fill="#d6285e" d="M27.435 48.957a3.26 3.26 0 0 0 3.26-3.26v-9.131a3.26 3.26 0 0 0-3.26-3.261 3.26 3.26 0 0 0-3.26 3.26v9.131a3.26 3.26 0 0 0 3.26 3.261m-9.13-9.13a3.26 3.26 0 0 0 3.26-3.261v-3.261h-3.26a3.26 3.26 0 0 0-3.261 3.26 3.26 3.26 0 0 0 3.26 3.262z"/><path fill="#36c5f0" d="M15.043 27.435a3.26 3.26 0 0 0 3.26 3.26h9.131a3.26 3.26 0 0 0 3.261-3.26 3.26 3.26 0 0 0-3.26-3.26h-9.131a3.26 3.26 0 0 0-3.261 3.26m9.13-9.13a3.26 3.26 0 0 0 3.261 3.26h3.261v-3.26a3.26 3.26 0 0 0-3.26-3.261 3.26 3.26 0 0 0-3.262 3.26z"/></g></svg>