<svg xmlns="http://www.w3.org/2000/svg" xmlns:xlink="http://www.w3.org/1999/xlink" width="64" height="64"><defs><linearGradient id="b"><stop offset="0" style="stop-color:#74717b;stop-opacity:1"/><stop offset="1" style="stop-color:#9d9d9f;stop-opacity:1"/></linearGradient><linearGradient id="e" x1="7.937" x2="7.937" y1="15.081" y2="1.852" gradientTransform="scale(3.7796)" gradientUnits="userSpaceOnUse"><stop offset="0" stop-color="#f54800"/><stop offset="1" stop-color="#ffb200"/></linearGradient><linearGradient id="h" x1="16" x2="128" y1="74" y2="74" gradientTransform="matrix(1 0 0 .76924 -44 4.077)" gradientUnits="userSpaceOnUse"><stop offset="0" stop-color="#63452c"/><stop offset=".036" stop-color="#865e3c"/><stop offset=".071" stop-color="#63452c"/><stop offset=".929" stop-color="#63452c"/><stop offset=".964" stop-color="#865e3c"/><stop offset="1" stop-color="#63452c"/></linearGradient><linearGradient id="j" x1="23" x2="23" y1="238" y2="222" gradientTransform="rotate(90 184 149)scale(1.5)" gradientUnits="userSpaceOnUse"><stop offset="0" stop-color="#2ec27e"/><stop offset=".5" stop-color="#8ff0a4"/><stop offset="1" stop-color="#2ec27e"/></linearGradient><linearGradient id="n" x1="15" x2="33" y1="58" y2="58" gradientTransform="translate(-36 -35)" gradientUnits="userSpaceOnUse"><stop offset="0" stop-color="#2ec27e"/><stop offset=".5" stop-color="#57e389"/><stop offset="1" stop-color="#2ec27e"/></linearGradient><linearGradient id="p" x1="46" x2="46" y1="232" y2="228" gradientTransform="matrix(0 -1.1875 -2 0 448 108.5)" gradientUnits="userSpaceOnUse"><stop offset="0" stop-color="#9a9996"/><stop offset=".5" stop-color="#fff"/><stop offset="1" stop-color="#c0bfbc"/></linearGradient><linearGradient xlink:href="#a" id="v" x1="81" x2="81" y1="47" y2="65" gradientTransform="matrix(1.5 0 0 1.55556 -98 -94.11)"/><linearGradient id="a" gradientUnits="userSpaceOnUse"><stop offset="0" stop-color="#c0bfbc"/><stop offset=".5" stop-color="#deddda"/><stop offset="1" stop-color="#9a9996"/></linearGradient><linearGradient xlink:href="#a" id="w" x1="92" x2="104" y1="244" y2="244" gradientTransform="matrix(.83333 0 0 .82143 -26.667 -178.429)"/><linearGradient id="i" x1="16" x2="128" y1="74" y2="74" gradientTransform="matrix(1 0 0 .76924 -26.998 22.296)" gradientUnits="userSpaceOnUse"><stop offset="0" stop-color="#3d3846"/><stop offset=".036" stop-color="#5e5c64"/><stop offset=".071" stop-color="#3d3846"/><stop offset=".929" stop-color="#3d3846"/><stop offset=".964" stop-color="#5e5c64"/><stop offset="1" stop-color="#3d3846"/></linearGradient><linearGradient id="k" x1="84" x2="104" y1="258" y2="258" gradientTransform="rotate(-90 -23.89 155.109)" gradientUnits="userSpaceOnUse"><stop offset="0" stop-color="#46a2ed"/><stop offset="1" stop-color="#41c6f1"/></linearGradient><linearGradient id="m" x1="50" x2="70" y1="258" y2="258" gradientTransform="rotate(-90 -57.89 155.109)" gradientUnits="userSpaceOnUse"><stop offset="0" stop-color="#c9c8c5"/><stop offset="1" stop-color="#f6f5f4"/></linearGradient><linearGradient id="o" x1="84" x2="104" y1="258" y2="258" gradientTransform="rotate(-90 -5.89 173.109)" gradientUnits="userSpaceOnUse"><stop offset="0" stop-color="#e5a50a"/><stop offset="1" stop-color="#f6d32d"/></linearGradient><linearGradient id="q" x1="50" x2="70" y1="258" y2="258" gradientTransform="rotate(-90 -39.89 173.109)" gradientUnits="userSpaceOnUse"><stop offset="0" stop-color="#576ce3"/><stop offset="0" stop-color="#bb34b1"/><stop offset="1" stop-color="#e31f9e"/></linearGradient><linearGradient id="y" x1="72.062" x2="40.97" y1="230.291" y2="310.562" gradientTransform="matrix(.59942 -.89267 .96545 .47336 -261.508 3.23)" gradientUnits="userSpaceOnUse"><stop offset="0" stop-color="#1ebef1"/><stop offset="1" stop-color="#2509e8"/></linearGradient><linearGradient id="B" x1="16" x2="30" y1="86" y2="86" gradientTransform="rotate(-15 -101.733 169.572)" gradientUnits="userSpaceOnUse"><stop offset="0" stop-color="#f6f5f4" stop-opacity=".502"/><stop offset="1" stop-color="#fff" stop-opacity="0"/></linearGradient><linearGradient id="D" x1="-2.958" x2="62.958" y1="42" y2="42" gradientTransform="rotate(-15 -101.733 169.572)" gradientUnits="userSpaceOnUse"><stop offset="0" stop-color="#241f31"/><stop offset=".288" stop-color="#77767b"/><stop offset=".652" stop-color="#2f2840"/><stop offset="1" stop-color="#241f31"/></linearGradient><linearGradient id="F" x1="4" x2="56" y1="38.5" y2="38.5" gradientTransform="rotate(-15 -101.733 169.572)" gradientUnits="userSpaceOnUse"><stop offset="0" stop-color="#fff" stop-opacity="0"/><stop offset=".3" stop-color="#fff" stop-opacity=".263"/><stop offset="1" stop-color="#fff" stop-opacity="0"/></linearGradient><linearGradient xlink:href="#b" id="f" x1="32.001" x2="32.001" y1="3.969" y2="59.971" gradientUnits="userSpaceOnUse"/><clipPath id="c"><path d="M20 10h8v25h-8zm0 0"/></clipPath><clipPath id="x"><path d="M24 10c-6.629 0-12 5.371-12 12v22c0 2.21 1.79 4 4 4a2 2 0 0 1 2 2v7a2 2 0 0 1-2 2c-2.21 0-4 1.79-4 4v2h24v-2c0-2.21-1.79-4-4-4a2 2 0 0 1-2-2v-7a2 2 0 0 1 2-2c2.21 0 4-1.79 4-4V22c0-6.629-5.371-12-12-12m0 0"/></clipPath><clipPath id="A"><path d="M12 10h4v31h-4zm0 0"/></clipPath><clipPath id="u"><path d="M24 10c-6.629 0-12 5.371-12 12v22c0 2.21 1.79 4 4 4a2 2 0 0 1 2 2v7a2 2 0 0 1-2 2c-2.21 0-4 1.79-4 4v2h24v-2c0-2.21-1.79-4-4-4a2 2 0 0 1-2-2v-7a2 2 0 0 1 2-2c2.21 0 4-1.79 4-4V22c0-6.629-5.371-12-12-12m0 0"/></clipPath><clipPath id="r"><path d="M0 0h192v152H0z"/></clipPath><radialGradient id="l" cx="24" cy="53" r="14" gradientTransform="translate(-36 -35)" gradientUnits="userSpaceOnUse"><stop offset="0" stop-color="#26a269"/><stop offset=".7" stop-color="#26a269" stop-opacity=".478"/><stop offset="1" stop-color="#26a269" stop-opacity="0"/></radialGradient><radialGradient id="C" cx="26" cy="190.167" r="14" gradientTransform="rotate(-15 -1286.67 325.57)scale(1 1.71428)" gradientUnits="userSpaceOnUse"><stop offset="0" stop-color="#5e5c64"/><stop offset="1" stop-color="#241f31"/></radialGradient><radialGradient id="E" cx="30" cy="186" r="14" gradientTransform="rotate(-15 -752.124 277.16)scale(1.18946 1)" gradientUnits="userSpaceOnUse"><stop offset="0" stop-color="#9a9996" stop-opacity="0"/><stop offset=".779" stop-color="#9a9996" stop-opacity="0"/><stop offset="1" stop-color="#77767b"/></radialGradient><filter id="d" width="1" height="1" x="0" y="0"><feColorMatrix in="SourceGraphic" values="0 0 0 0 1 0 0 0 0 1 0 0 0 0 1 0 0 0 1 0"/></filter><filter id="t" width="1.242" height="1.108" x="-.121" y="-.054" style="color-interpolation-filters:sRGB"><feGaussianBlur stdDeviation="2.792"/></filter><filter id="g" width="1.134" height="1.17" x="-.067" y="-.085" style="color-interpolation-filters:sRGB"><feGaussianBlur stdDeviation="1.186"/></filter><mask id="s"><g filter="url(#c)" style="filter:url(#d)"><path fill-opacity=".3" d="M0 0h128v128H0z"/></g></mask></defs><rect width="56.002" height="56.002" x="4" y="3.969" fill="url(#e)" rx="13.002" ry="13.002" style="fill:url(#f);fill-opacity:1"/><path fill="#5e5c64" d="M13.798 16.662H50.17c1.674 0 3.031 1.5 3.031 3.349V46.8c0 1.849-1.357 3.348-3.031 3.348H13.798c-1.674 0-3.03-1.5-3.03-3.348V20.01c0-1.849 1.356-3.348 3.03-3.348m0 0" style="stroke-width:.398232;fill:#000;fill-opacity:1;filter:url(#g);opacity:.50026129"/><path fill="url(#h)" d="M-2.998 59.22h96a8 8 0 0 1 8 8v24a8 8 0 0 1-8 8h-96a8 8 0 0 1-8-8v-24a8 8 0 0 1 8-8m0 0" style="fill:url(#i)" transform="translate(14.758 12.375)scale(.38316)"/><path fill="#5e5c64" d="M13.61 16.674h36.783a3.065 3.065 0 0 1 3.065 3.065V44.26a3.065 3.065 0 0 1-3.065 3.065H13.609a3.065 3.065 0 0 1-3.065-3.065V19.74a3.065 3.065 0 0 1 3.065-3.065zm0 0"/><path fill="url(#j)" d="M79.002 19.22c7.73 0 14 6.27 14 14s-6.27 14-14 14-14-6.27-14-14 6.27-14 14-14m0 0" style="fill:url(#k)" transform="translate(14.758 12.375)scale(.38316)"/><path fill="url(#l)" d="M45.002 19.22c7.73 0 14 6.27 14 14s-6.27 14-14 14-14-6.27-14-14 6.27-14 14-14m0 0" style="fill:url(#m)" transform="translate(14.758 12.375)scale(.38316)"/><path fill="url(#n)" d="M79.002 55.22c7.73 0 14 6.27 14 14s-6.27 14-14 14-14-6.27-14-14 6.27-14 14-14m0 0" style="fill:url(#o)" transform="translate(14.758 12.375)scale(.38316)"/><path fill="url(#p)" d="M45.002 55.22c7.73 0 14 6.27 14 14s-6.27 14-14 14-14-6.27-14-14 6.27-14 14-14m0 0" style="fill:url(#q)" transform="translate(14.758 12.375)scale(.38316)"/><g clip-path="url(#r)" mask="url(#s)" transform="translate(4.414 -.185)scale(.38316)"><path d="M72 52c-7.73 0-14 6.27-14 14q.045.756.172 1.5A13.997 13.997 0 0 1 72 55a14 14 0 0 1 13.871 12.148q.088-.573.129-1.148c0-7.73-6.27-14-14-14m34 0c-7.73 0-14 6.27-14 14q.045.756.172 1.5A13.997 13.997 0 0 1 106 55a14 14 0 0 1 13.871 12.148q.088-.573.129-1.148c0-7.73-6.27-14-14-14M72 88c-7.73 0-14 6.27-14 14q.045.756.172 1.5A13.997 13.997 0 0 1 72 91a14 14 0 0 1 13.871 12.148q.088-.573.129-1.148c0-7.73-6.27-14-14-14m34 0c-7.73 0-14 6.27-14 14q.045.756.172 1.5A13.997 13.997 0 0 1 106 91a14 14 0 0 1 13.871 12.148q.088-.573.129-1.148c0-7.73-6.27-14-14-14m0 0"/></g><g style="opacity:.498471;fill:#000;fill-opacity:1;filter:url(#t)" transform="translate(14.4 16.42)scale(.38316)"><path fill="#fff" fill-opacity=".6" d="m-19.994 19.739 14.39 53.707c.914 3.41 4.15 7.655 6.728 10.062 3.366 3.143 5.683 6.736 7.979 11.257l10.263-2.75c-.273-5.063-.063-9.334 1.28-13.738 1.03-3.373 1.71-8.667.796-12.078L7.052 12.492Zm0 0" style="display:inline;fill:#000;fill-opacity:1"/><path fill="url(#u)" d="M-18.377-28.317c7.467-2 15.146 2.432 17.146 9.9L3.946.9c2 7.467-2.433 15.146-9.9 17.146s-15.145-2.432-17.146-9.9l-5.177-19.318c-2-7.467 2.433-15.145 9.9-17.146zm0 0" style="fill:#000;fill-opacity:1"/><path fill="url(#a)" d="M-31.276 12.41 13.157.502a3 3 0 0 1 3.674 2.122l1.553 5.795a3 3 0 0 1-2.122 3.675L-28.17 24a3 3 0 0 1-3.674-2.121l-1.553-5.796a3 3 0 0 1 2.121-3.674zm0 0" style="fill:#000;fill-opacity:1"/><path fill-opacity=".149" d="m-32.362 19.947.518 1.932A2.996 2.996 0 0 0-28.17 24l44.432-11.905a2.996 2.996 0 0 0 2.122-3.675l-.518-1.932a2.996 2.996 0 0 1-2.121 3.675l-44.433 11.905a2.996 2.996 0 0 1-3.674-2.12zm0 0" style="fill:#000;fill-opacity:1"/><path fill="url(#v)" d="M-28.277-11.17c-2-7.468 2.433-15.146 9.9-17.147s15.146 2.432 17.146 9.9" style="fill:#000;fill-opacity:1"/><path fill="url(#w)" d="m-32.88 18.015-.517-1.932a2.996 2.996 0 0 1 2.121-3.674L13.157.503a2.996 2.996 0 0 1 3.674 2.122l.518 1.932a2.996 2.996 0 0 0-3.675-2.122l-44.432 11.906a2.996 2.996 0 0 0-2.122 3.674m0 0" style="fill:#000;fill-opacity:1"/></g><path fill="#fff" fill-opacity=".6" d="m6.74 23.982 5.513 20.579c.35 1.306 1.59 2.933 2.578 3.855 1.29 1.204 2.177 2.58 3.057 4.313l3.932-1.054c-.104-1.94-.024-3.576.491-5.263.394-1.293.655-3.321.305-4.628l-5.514-20.578Zm0 0"/><path fill="url(#x)" d="M4.625 31.826c-2.731 1.14-2.914 4.052-3.405 6.748-.909 5.21-4.399 1.15-7.821 2.095-.67.184-1.285.717-1.834 1.442-.386.492-.717 1.127-.989 1.624L-1.74 72.41c.519 1.935 3.508 6.226 5.595 8.174 2.993 2.793 5.162 6.026 7.152 9.528l4.384-1.174c-.028-4.029.234-7.913 1.429-11.828.833-2.73 1.277-7.941.759-9.877L7.956 31.338c-1.236-.07-2.266.146-3.33.488zm0 0" style="fill:url(#y)" transform="translate(14.4 16.42)scale(.38316)"/><path fill="url(#A)" d="m-19.994 19.739 14.39 53.707c.914 3.41 4.15 7.655 6.728 10.062 3.366 3.143 5.683 6.736 7.979 11.257l10.263-2.75c-.273-5.063-.063-9.334 1.28-13.738 1.03-3.373 1.71-8.667.796-12.078L7.052 12.492Zm0 0" style="fill:url(#B)" transform="translate(14.4 16.42)scale(.38316)"/><path fill="none" stroke="#fff" stroke-linecap="round" stroke-opacity=".141" stroke-width="6.131" d="M15.371 44.354 10.097 24.67"/><path fill="none" stroke="#fff" stroke-linecap="round" stroke-opacity=".302" stroke-width="1.533" d="M15.173 43.614 9.898 23.929"/><path fill="url(#u)" d="M-18.377-28.317c7.467-2 15.146 2.432 17.146 9.9L3.946.9c2 7.467-2.433 15.146-9.9 17.146s-15.145-2.432-17.146-9.9l-5.177-19.318c-2-7.467 2.433-15.145 9.9-17.146zm0 0" style="fill:url(#C)" transform="translate(14.4 16.42)scale(.38316)"/><path fill="url(#a)" d="M-31.276 12.41 13.157.502a3 3 0 0 1 3.674 2.122l1.553 5.795a3 3 0 0 1-2.122 3.675L-28.17 24a3 3 0 0 1-3.674-2.121l-1.553-5.796a3 3 0 0 1 2.121-3.674zm0 0" style="fill:url(#D)" transform="translate(14.4 16.42)scale(.38316)"/><path fill-opacity=".149" d="m2 24.062.199.74c.164.615.793.978 1.407.813l17.025-4.562c.615-.164.978-.793.813-1.408l-.198-.74a1.15 1.15 0 0 1-.813 1.408L3.408 24.875A1.15 1.15 0 0 1 2 24.062m0 0"/><path fill="url(#v)" d="M-28.277-11.17c-2-7.468 2.433-15.146 9.9-17.147s15.146 2.432 17.146 9.9" style="fill:url(#E)" transform="translate(14.4 16.42)scale(.38316)"/><path fill="url(#w)" d="m-32.88 18.015-.517-1.932a2.996 2.996 0 0 1 2.121-3.674L13.157.503a2.996 2.996 0 0 1 3.674 2.122l.518 1.932a2.996 2.996 0 0 0-3.675-2.122l-44.432 11.906a2.996 2.996 0 0 0-2.122 3.674m0 0" style="fill:url(#F)" transform="translate(14.4 16.42)scale(.38316)"/></svg>