<svg xmlns="http://www.w3.org/2000/svg" width="64" height="64" viewBox="0 0 16.933 16.933"><defs><linearGradient id="a" x1="7.937" x2="7.937" y1="15.081" y2="1.852" gradientUnits="userSpaceOnUse"><stop offset="0" stop-color="#eae8e9"/><stop offset="1" stop-color="#f9f8f9"/></linearGradient></defs><rect width="14.817" height="14.817" x="1.058" y="1.05" fill="url(#a)" rx="3.44" ry="3.44"/><path d="M7.813 9.12h3.315v.438H7.813z" opacity=".1" style="paint-order:stroke fill markers"/><g stroke-linecap="round" stroke-linejoin="round" stroke-opacity=".35" stroke-width=".075" opacity=".25" transform="translate(0 .265)"><rect width="12.171" height=".132" x="2.381" y="3.969" opacity=".75" rx="0" ry=".066"/><rect width="12.171" height=".132" x="2.381" y="6.085" opacity=".75" rx="0" ry=".066"/><rect width="12.171" height=".132" x="2.381" y="8.202" opacity=".75" rx="0" ry=".066"/><rect width="12.171" height=".132" x="2.381" y="10.054" opacity=".75" rx="0" ry=".066"/><rect width="12.171" height=".132" x="2.381" y="12.171" opacity=".75" rx="0" ry=".066"/></g><path fill="#80878a" fill-opacity=".938" d="M13.177 1.491s.309-.75.448-.777c.139-.026-.322.814-.322.814z"/><path fill="#54728f" fill-opacity=".998" d="M13.285 1.472s.218-.618.236-.652.13-.147.173-.155c.043-.007.286.006.433.135.147.13.234.147.215.342s-1.057.33-1.057.33"/><path fill="#8bb0d8" d="M13.282 1.472s.25.037.5.19l.533-.6S14.222.9 13.876.818c-.182-.045-.257.008-.277.078z"/><path fill="#32475c" d="m13.135 1.635.212.029-.021.161-.213-.028z"/><path fill="#817160" d="m10.849 6.532.118-.556 2.1-4.48-.017-.055.039.026.001-.004.026.004.067.043.004.15-.054.122.013.286-.172.37-.138.016-.322.82-1.465 3.183s.064.117-.2.077z"/><path fill="#797878" d="M10.92 6.357s-.026.133-.015.142c.01.01.15-.094.15-.094l-.04.256.047-.007.85-1.835.902-1.995.027-.173.124-.198.164-.364.125-.287.083-.087.29.009-.346.943-2.026 4.207-.45.049-.089-.31z"/><path fill="#8d8d85" fill-opacity=".99" d="M13.9 1.98s.061-.109.194-.09c.133.017.165.317.055.42s-.25-.33-.25-.33z"/><path fill="#9e9e9e" d="m7.509 15.82 1.717-2.439-.213-.158s.014.042-.013.091c-.028.053-1.493 2.505-1.493 2.505z"/><path fill="#5c5956" d="M8.934 13.444c.032-.029.126-.173.088-.209a.7.7 0 0 0-.342-.186s.012.059-.082.092c-.094.032-.245-.016-.245-.016l-.001.188.334.103z"/><path fill="#898a8b" d="M10.527 6.271c-.007.088.005.122.045.138.04.02.05.1.032.195-.018.092.29-.123.29-.123l.04-.163z"/><path fill="#b3d5f0" d="M10.573 6.35c.21.059.281.079.355.014.104-.083 1.165-2.572 1.165-2.572l1.03-2.232s.006-.166-.174-.182c-.181-.015-.237-.031-.354.22-.117.25-1.936 4.397-2 4.497-.063.099-.109.219-.021.247zm3.15-5.537c-.011.005-.341.669-.341.669s.081.015.12.034.31-.676.31-.676z"/><path fill="#718ea5" d="M10.997 6.496c-.067.084-.099.157-.051.161.048.003.091.045.119.016.027-.03.374-.72.374-.72s1.404-3.079 1.407-3.134.014-.14.034-.16a.7.7 0 0 0 .09-.163c.004-.027.245-.544.254-.58s.087-.102.054-.129-.085-.074-.118-.057c-.033.02-.123.193-.094.23a1 1 0 0 1 .063.104l-.172.355s-.078-.014-.12.023c-.04.033-.134.287-.19.43a64 64 0 0 1-.735 1.601c-.054.105-.803 1.84-.915 2.023"/><path fill="#b3d5f0" d="M13.327 1.795c.031-.014.074.068.067.12a63 63 0 0 1-.998 2.285c-.111.21-.571 1.284-.571 1.284l-.964 2.138-.703 1.58s-.09-.077-.138-.084 1.354-2.91 1.354-2.91l1.461-3.27.058-.185z"/><path fill="#939394" d="m10.856 9.642.072-.138 2.431-5.486-2.619 5.501z"/><path fill="#d2f2ff" d="M9.784 9.08c.233.045.24.032.24.032l1.164-2.478s-.075.177-.318.076l-.02-.068-.452 1.08s-.76 1.338-.614 1.358m3.573-7.256c-.024-.04-.035-.096.005-.12.041-.025.107-.036.13.045.022.08-.106.26-.107.204 0-.056-.028-.128-.028-.128zm.135-.324s.06.057.107.05c.047-.01.362-.621.335-.68-.028-.057-.106-.067-.127-.03-.022.035-.34.644-.315.66M8.177 12.86s-.15.022-.197.108c-.047.089-.844 2.664-.844 2.664l.176.047s1.071-2.427 1.074-2.49c.003-.065-.086-.283-.21-.323z"/><path fill="#a6c9e5" d="M8.275 12.919s.37.087.416.14-.14.124-.281.083c-.14-.05-.135-.223-.135-.223m-.291.062s.178-.052.166-.095-.142-.084-.192-.058-.85 2.83-.85 2.83.024-.004.04-.035.773-2.56.837-2.644z"/><path fill="#5a5b60" d="m7.27 15.672.104.062 1.303-2.479-.273-.07z"/><path fill="#592628" d="m7.356 15.738 1.31-2.489.147.09-1.41 2.446z"/><path fill="#373d42" d="M8.785 13.329c.011.002.162.102.162.102L7.435 15.79l-.038-.005z"/><path fill="#62594f" fill-opacity=".947" d="M7.506 15.821s.553-.897.619-1.013c.067-.117.84-1.4.84-1.4s-1.343 2.059-1.503 2.326l-.019.038z"/><path fill="#a8a8a9" d="m7.968 12.837-.23-.03-.683 2.822.059.017s.785-2.69.854-2.806z"/><path fill="#cdccc2" d="M8.697 13.085c.051.011.088.063.025.096-.063.031-.17 0-.114-.047l.09-.056z"/><path fill="#e4c7a5" d="M8.798 13.247c-.027-.04-.04-.103-.011-.112.03-.014.11.063.072.1-.037.036-.061.017-.061.017z"/><path fill="#d2dde4" d="M7.738 12.811 9.519 9.03l.142.042-1.753 3.798z"/><path fill="#c2e0f1" d="m7.894 12.864.218-.004.58-1.428 1.114-2.35-.163-.013z"/><path fill="#d5d8d9" d="m8.092 12.861.212.072.498-.742 1.387-2.977-.17-.1-.232-.023s-1.336 2.68-1.702 3.743z"/><path fill="#aecbe5" d="m8.302 12.928.398.13.755-1.573 1.034-2.098-.31-.188-1.83 3.666z"/><path fill="#af9a81" d="M8.698 13.057 9 13.21l1.717-3.69-.256-.148z"/><path fill="#9d9d9c" d="m8.97 13.177.194.214.06-.008 1.608-3.618.066-.226-.201-.035z"/><path fill="#8fb1ce" d="m9.64 9.056 1.176-2.553.08-.025-.06.232L9.78 9.099z"/><path fill="#a7a7a8" d="m9.52 9.029 1.13-2.565.197.027-1.209 2.572z"/><path fill="#97b4cf" d="M13.405 1.969s.127-.154.08-.248c-.046-.094-.168.03-.168.03a.7.7 0 0 0-.136-.082s-.003-.195-.078-.205c0 0 .52.063 1.006.435 0 0-.322-.19-.572.447-.25.636-1.347 2.988-1.347 2.988l-1.81 3.994-.222-.144z"/><path fill="#c6c4b9" d="M10.353 9.302s.047.07.11.075c0 0 3.238-7.22 3.329-7.283.09-.063.121-.196.309-.2 0 0-.183-.115-.396.132-.212.248-.56 1.197-.56 1.197z"/><path fill="#dfc5a3" d="m10.442 9.374.17.084s3.25-7.179 3.286-7.239c.05-.082.19-.16.286-.181 0 0-.147-.121-.284-.062-.138.06-.274.397-.274.397z"/><path fill="#7a6e5e" d="M10.588 9.437c.03.033.037.097.163.082l1.66-3.474s1.727-3.674 1.746-3.754.038-.256-.051-.233c-.09.023-.219.126-.23.163-.013.036-3.194 7-3.288 7.216"/><path fill="#43474a" d="M10.709 9.51c.03-.01 3.36-7.252 3.324-7.284-.037-.034-.057.019-.09.068-.034.05-3.294 7.174-3.294 7.174-.01.03.012.034.06.043z"/><path fill="#262b2d" d="M7.054 15.63s.172-.073.455.19l-.068.054s-.102-.182-.338-.161z"/><path fill="#242421" d="M7.1 15.705s-.145.32-.185.438c0 0 .003.019.033.03l.216-.458z"/><path fill="#d9f5fe" d="m6.95 16.165.113.015.208-.447s-.06-.025-.11-.025z"/><path fill="#95badb" d="m7.057 16.177.035.009.24-.423s-.049-.035-.062-.036a7 7 0 0 0-.212.443z"/><path fill="#cdb699" d="m7.087 16.18.074.05.218-.431s-.019-.033-.05-.04z"/><path fill="#696158" fill-opacity=".923" d="m7.154 16.223.026.086.261-.435s-.04-.065-.063-.075z"/><path fill="#242421" d="M6.912 16.232c.12 0 .182.02.234.088l.037-.017s-.008-.08-.052-.111c-.043-.04-.059-.041-.214-.06z"/><path fill="#313334" fill-opacity=".999" d="m6.947 16.232-.124.265s.062.04.168.077l.133-.28s-.05-.067-.177-.062"/><path fill-opacity=".929" d="m6.856 16.439-.027.056.156.067.03-.053s-.108.001-.16-.07z"/><path fill="none" stroke="#000" stroke-opacity=".734" stroke-width=".187" d="M11.034 6.648s1.686-3.72 1.707-3.788c.02-.067-.001-.168.032-.199a.4.4 0 0 0 .055-.062"/><path fill="#2b0e10" d="M12.827 2.485c.04-.028.114-.012.096.04-.018.046-.025.096-.07.09-.047-.006-.072-.022-.026-.128z" opacity=".716"/><path fill="#7a6e5e" d="m13.848 1.688.188.118s.296-.61.303-.66a.2.2 0 0 0-.023-.1l-.137-.002z"/><path fill="#dfc5a3" d="M13.809 1.678c.026-.136.323-.648.36-.665.038-.019.156-.037.164.073 0 0-.085-.073-.157.047s-.248.572-.274.572c-.027.002-.1.007-.093-.027"/><path fill="#43474a" d="m13.943 1.715.225-.43-.2.454z"/><path fill="#c6c4b9" d="M13.745 1.642s.304-.618.35-.662.144-.023.183.024c0 0-.092-.02-.128.033-.036.052-.341.651-.341.651z"/><path fill="#1e1d28" d="M13.016 1.402s.82.066 1.112.506c0 0-.362-.229-.556-.305-.21-.083-.478-.136-.478-.136s-.026-.042-.078-.065"/><path d="M3.316 3.395h2.18v.409h-2.18zm.67 1.756h3.117v.479H3.986zm3.655.007h3.008v.523H7.641zM3.912 7.075h1.46v.504h-1.46zm1.992.04H7.53v.464H5.904zm-1.918 1.94h3.091v.471H3.986zm-.815 1.893H4.27v.636H3.171zm7.514 2.208h1.123v1.103h-1.123zm1.427.698h1.406v.439h-1.406z" opacity=".1" style="paint-order:stroke fill markers"/></svg>