<svg xmlns="http://www.w3.org/2000/svg" xml:space="preserve" width="64" height="64"><defs><linearGradient id="a" x1="7.937" x2="7.937" y1="15.081" y2="1.852" gradientTransform="scale(3.7796)" gradientUnits="userSpaceOnUse"><stop offset="0" stop-color="#0e71de" style="stop-color:#ff5c8f;stop-opacity:1"/><stop offset="1" stop-color="#25c9ff" style="stop-color:#ff8585;stop-opacity:1"/></linearGradient><filter id="b" width="1.289" height="1.299" x="-.145" y="-.149" style="color-interpolation-filters:sRGB"><feGaussianBlur stdDeviation="2.207"/></filter></defs><rect width="56" height="56" x="4" y="4" fill="url(#a)" rx="13" ry="13" style="fill:url(#a)"/><g style="fill:#ff2a2a;fill-opacity:1;filter:url(#b);opacity:.25" transform="translate(0 1.358)"><path d="M15.768 18.724c-.606-.129-1.252-.755-1.447-1.404-.207-.692.032-1.39.665-1.946.39-.342.615-.428 1.121-.428 1.245 0 2.021.768 2.022 2.001 0 .56-.074.75-.455 1.165-.506.551-1.176.766-1.906.612m-.543 7.593c-.58-.354-.884-.955-.884-1.748 0-1.178 1.237-2.095 2.383-1.767 2.165.621 1.818 3.79-.414 3.789-.383 0-.815-.11-1.085-.274m8.521 16.609c-.641-.279-.96-.579-1.282-1.21-.254-.498-.265-1.003-.265-11.444V19.35l.405-.638q.405-.639 1.026-.94c.619-.3.665-.3 11.346-.297 10.17.003 10.754.016 11.302.265.714.324 1.255 1.013 1.445 1.839.092.4.146 4.322.148 10.81.004 11.128 0 11.184-.8 11.95-.874.838-.444.81-12.135.803-9.212-.004-10.77-.035-11.19-.216m20.06-12.616V21.4H26.127v17.82h17.679zm-13.975 6.043c-.535-.233-.985-.84-1.102-1.488-.066-.36-.005-.648.233-1.108.965-1.862 3.62-1.236 3.619.854-.001 1.457-1.387 2.335-2.75 1.742m8.508-.045c-1.364-.688-1.349-2.711.024-3.416.672-.345 1.14-.338 1.789.027.69.388.988.923.988 1.778 0 1.462-1.446 2.294-2.801 1.61m-8.566-8.575c-1.733-.926-1.05-3.667.914-3.667.593 0 1.355.44 1.66.96 1.004 1.71-.83 3.64-2.574 2.707m8.485 0c-.602-.367-.93-.934-.94-1.624-.013-.796.382-1.422 1.123-1.78.82-.397 1.464-.268 2.166.434.488.487.533.598.533 1.302 0 .568-.077.867-.293 1.142-.62.788-1.775 1.022-2.59.526" style="fill:#ff2a2a;fill-opacity:1;stroke-width:.140308" transform="translate(-.511 -.66)"/><path d="M15.44 50.128c-.221-.135-.59-.542-.82-.904l-.419-.66v-16.21l.414-.472a3.4 3.4 0 0 1 .98-.726c.533-.24.6-.242 1.175-.022.336.128.795.425 1.02.66l.41.428.039 6.922.039 6.921 1.995.095c1.098.052 8.131.138 15.63.19l13.633.095.376.35c.446.417.91 1.275.91 1.684 0 .456-.526 1.374-.943 1.647-.356.233-1.363.248-17.207.248-15.771 0-16.853-.016-17.231-.246" style="fill:#ff2a2a;fill-opacity:1;stroke-width:.140308" transform="translate(-.511 -.66)"/></g><g style="fill:#fff;fill-opacity:1"><path d="M15.768 18.724c-.606-.129-1.252-.755-1.447-1.404-.207-.692.032-1.39.665-1.946.39-.342.615-.428 1.121-.428 1.245 0 2.021.768 2.022 2.001 0 .56-.074.75-.455 1.165-.506.551-1.176.766-1.906.612m-.543 7.593c-.58-.354-.884-.955-.884-1.748 0-1.178 1.237-2.095 2.383-1.767 2.165.621 1.818 3.79-.414 3.789-.383 0-.815-.11-1.085-.274m8.521 16.609c-.641-.279-.96-.579-1.282-1.21-.254-.498-.265-1.003-.265-11.444V19.35l.405-.638q.405-.639 1.026-.94c.619-.3.665-.3 11.346-.297 10.17.003 10.754.016 11.302.265.714.324 1.255 1.013 1.445 1.839.092.4.146 4.322.148 10.81.004 11.128 0 11.184-.8 11.95-.874.838-.444.81-12.135.803-9.212-.004-10.77-.035-11.19-.216m20.06-12.616V21.4H26.127v17.82h17.679zm-13.975 6.043c-.535-.233-.985-.84-1.102-1.488-.066-.36-.005-.648.233-1.108.965-1.862 3.62-1.236 3.619.854-.001 1.457-1.387 2.335-2.75 1.742m8.508-.045c-1.364-.688-1.349-2.711.024-3.416.672-.345 1.14-.338 1.789.027.69.388.988.923.988 1.778 0 1.462-1.446 2.294-2.801 1.61m-8.566-8.575c-1.733-.926-1.05-3.667.914-3.667.593 0 1.355.44 1.66.96 1.004 1.71-.83 3.64-2.574 2.707m8.485 0c-.602-.367-.93-.934-.94-1.624-.013-.796.382-1.422 1.123-1.78.82-.397 1.464-.268 2.166.434.488.487.533.598.533 1.302 0 .568-.077.867-.293 1.142-.62.788-1.775 1.022-2.59.526" style="fill:#fff;stroke-width:.140308;fill-opacity:1" transform="translate(-.511 -.66)"/><path d="M15.44 50.128c-.221-.135-.59-.542-.82-.904l-.419-.66v-16.21l.414-.472a3.4 3.4 0 0 1 .98-.726c.533-.24.6-.242 1.175-.022.336.128.795.425 1.02.66l.41.428.039 6.922.039 6.921 1.995.095c1.098.052 8.131.138 15.63.19l13.633.095.376.35c.446.417.91 1.275.91 1.684 0 .456-.526 1.374-.943 1.647-.356.233-1.363.248-17.207.248-15.771 0-16.853-.016-17.231-.246" style="fill:#fff;stroke-width:.140308;fill-opacity:1" transform="translate(-.511 -.66)"/></g></svg>