<svg xmlns="http://www.w3.org/2000/svg" width="64" height="64"><rect width="56" height="56" x="4" y="4" fill="#fff" rx="13" ry="13" style="paint-order:stroke fill markers"/><path d="M16.876 6h30c5.35 0 9.81 3.83 10.79 8.9h2.03c-1-6.19-6.35-10.93-12.82-10.93h-30c-6.71 0-12.24 5.09-12.93 11.62h2.03c.69-5.41 5.3-9.59 10.9-9.59m-13 15.59h2v20.45h-2zm43 36.35h-30c-5.7 0-10.39-4.34-10.94-9.9h-2c.55 6.68 6.13 11.93 12.95 11.93h30c6.82 0 12.4-5.25 12.95-11.93h-2c-.55 5.56-5.24 9.9-10.94 9.9zm11-37.04h2v21.15h-2z" class="cls-6" opacity=".94"/><path d="M55.286 14.9h2.39c-.98-5.07-5.44-8.9-10.79-8.9h-30.01c-5.6 0-10.21 4.18-10.9 9.59h2.7c4.49 0 4.62 6 0 6h-2.8v20.45h2.8c4.49 0 4.62 6 0 6h-2.74c.55 5.56 5.24 9.9 10.94 9.9h30c5.7 0 10.39-4.34 10.94-9.9h-2.54c-4.62 0-4.49-6 0-6h2.59V20.89h-2.59c-4.62 0-4.49-6 0-6zM10.836 55c-1.08 0-1.96-.88-1.96-1.96s.88-1.96 1.96-1.96 1.96.88 1.96 1.96-.88 1.96-1.96 1.96m0-42.08c-1.08 0-1.96-.88-1.96-1.96S9.756 9 10.836 9s1.96.88 1.96 1.96-.88 1.96-1.96 1.96m42.22 38.17c1.08 0 1.96.88 1.96 1.96s-.88 1.96-1.96 1.96-1.96-.88-1.96-1.96.88-1.96 1.96-1.96m-1.95-40.13c0-1.08.88-1.96 1.96-1.96s1.96.88 1.96 1.96-.88 1.96-1.96 1.96-1.96-.88-1.96-1.96" class="cls-6" opacity=".94"/><path fill="#00b7a0" d="M55.286 14.9h2.39c-.98-5.07-5.44-8.9-10.79-8.9h-30.01c-5.6 0-10.21 4.18-10.9 9.59h2.7c4.49 0 4.62 6 0 6h-2.8v20.45h2.8c4.49 0 4.62 6 0 6h-2.74c.55 5.56 5.24 9.9 10.94 9.9h30c5.7 0 10.39-4.34 10.94-9.9h-2.54c-4.62 0-4.49-6 0-6h2.59V20.89h-2.59c-4.62 0-4.49-6 0-6zM10.836 55c-1.08 0-1.96-.88-1.96-1.96s.88-1.96 1.96-1.96 1.96.88 1.96 1.96-.88 1.96-1.96 1.96m0-42.08c-1.08 0-1.96-.88-1.96-1.96S9.756 9 10.836 9s1.96.88 1.96 1.96-.88 1.96-1.96 1.96m42.22 38.17c1.08 0 1.96.88 1.96 1.96s-.88 1.96-1.96 1.96-1.96-.88-1.96-1.96.88-1.96 1.96-1.96m-1.95-40.13c0-1.08.88-1.96 1.96-1.96s1.96.88 1.96 1.96-.88 1.96-1.96 1.96-1.96-.88-1.96-1.96" class="cls-2" opacity=".94"/><path fill="#424963" d="M13.686 13.79h36.37v36.37h-36.37z" class="cls-7"/><path fill="#c5d3d9" d="M16.876 16.97h30v30h-30z" class="cls-4"/><path fill="#a3afb4" d="M43.356 16.97h3.52v30h-3.52z" class="cls-5"/><path fill="#424963" d="M25.256 45.02h-5.66c-.35 0-.63-.28-.63-.63v-5.66c0-.57.68-.85 1.08-.45l5.66 5.66c.4.4.12 1.08-.45 1.08" class="cls-7"/><path d="M31.706 24.87h-.44v-.44h-.44v-4.45h.44v-.44h.44v-.44h2.67v.44h.44v.44h.44v.88h-.89v-.44h-.44v-.44h-1.78v.44h-.44v3.56h.44v.44h1.78v-.44h.44v-.44h.89v.89h-.44v.44h-.44v.44h-2.67zm4.36.45v-6.23h3.56v.44h.44v.44h.44v1.78h-.44v.44h-.44v.44h-2.66v2.67h-.9zm.9-3.56h2.21v-.44h.44v-.89h-.44v-.44h-2.21v1.78zm5.25 3.11h-.44v-.44h-.44v-5.34h.89v4.89h.44v.44h1.78v-.44h.44v-4.89h.88v5.34h-.44v.44h-.44v.44h-2.67z" class="cls-1"/><path fill="#a3afb4" d="M16.876 16.97h26.67v.54h-26.67z" class="cls-5"/><path fill="#a3afb4" d="M17.416 16.97v30h-.54v-30z" class="cls-5"/><path d="M47.146 32.52v2.72h-2.63v.91h-2.19v.44h-2.17v-.91h-2.63v-.89h-2.17v-2.27h-1.3v-1.85h-4.35v1.82h-1.31v2.3h-2.19v.91h-2.62v.89h-2.18v-.44h-2.18v-.92h-2.61V32.5h-1.74v-1.81h-2.18v-2.27h-1.3v-1.83h40.96v1.83h-1.31v2.26h-2.17v1.84z" class="cls-1"/><path fill="#636363" d="M22.726 32.52v-1.83h-1.31v-1.36h-2.18v1.36h-1.3v-1.36h-1.75v1.37h1.31v1.81h1.31v1.37h1.74v1.36h1.75v-1.37h1.74v-1.35zm-.86 1.35h-1.32v-1.36h-1.3v-1.82h1.3v1.82h1.32z" class="cls-3"/></svg>