<svg xmlns="http://www.w3.org/2000/svg" xmlns:xlink="http://www.w3.org/1999/xlink" width="64" height="64"><defs><linearGradient id="a"><stop offset="0"/><stop offset="1" stop-opacity="0"/></linearGradient><linearGradient id="c" x1="86" x2="63" y1="19.458" y2="39" gradientTransform="translate(-57.378 -5.17)scale(1.146)" gradientUnits="userSpaceOnUse"><stop offset="0" stop-color="#007abb"/><stop offset="1" stop-color="#006caf"/></linearGradient><linearGradient xlink:href="#a" id="f" x1="86" x2="83" y1="20" y2="20" gradientTransform="translate(-57.378 -5.17)scale(1.146)" gradientUnits="userSpaceOnUse"/><linearGradient id="d" x1="87" x2="63" y1="46" y2="24" gradientTransform="translate(-57.378 -5.17)scale(1.146)" gradientUnits="userSpaceOnUse"><stop offset="0" stop-color="#0080ce"/><stop offset="1" stop-color="#008fd5"/></linearGradient><linearGradient xlink:href="#a" id="e" x1="86" x2="83" y1="44" y2="44" gradientTransform="translate(-57.378 -5.17)scale(1.146)" gradientUnits="userSpaceOnUse"/><linearGradient id="b" x1="7.937" x2="7.937" y1="15.081" y2="1.852" gradientTransform="translate(0 .032)scale(3.7795)" gradientUnits="userSpaceOnUse"><stop offset="0" stop-color="#292929"/><stop offset="1" stop-color="#4d4d4d"/></linearGradient></defs><rect width="56" height="56" x="4" y="4" fill="url(#b)" rx="13.002" ry="13.002"/><path fill="#1ab3f6" fill-rule="evenodd" d="M40.29 13.226a2.6 2.6 0 0 0-1.155.43c.597.742-.608 7.734.9 8.68l1.177.739v16.859l-1.848 1.385c-1.425 1.067.129 7.217-.245 8.008.413.252 1.03.521 1.57.455a1.6 1.6 0 0 0 .52-.154l7.524-3.689c.82-.402 1.648-.734 1.648-1.647V18.717c0-.913-.828-1.246-1.648-1.648L41.21 13.38a1.6 1.6 0 0 0-.92-.154" style="paint-order:stroke fill markers"/><path fill="url(#c)" fill-rule="evenodd" d="m14.184 36.621 24.478-22.623c1.111-1.027 2.55-.663 2.55 1.462v7.614L18.583 40.38c-.395.31-1.426 1.053-2.326.198l-2.29-2.177c-.6-.571-.259-1.341.218-1.782z" style="paint-order:stroke fill markers"/><g fill-rule="evenodd" stroke-width="1.146"><path fill="url(#d)" d="m14.184 26.376 24.478 22.623c1.111 1.027 2.55.663 2.55-1.462v-7.614l-22.63-17.307c-.395-.31-1.426-1.053-2.326-.198l-2.29 2.177c-.6.571-.259 1.341.218 1.782z" style="paint-order:stroke fill markers"/><path fill="url(#e)" d="m14.184 26.376 24.478 22.623c1.111 1.027 2.55.663 2.55-1.462v-7.614l-22.63-17.307c-.395-.31-1.426-1.053-2.326-.198l-2.29 2.177c-.6.571-.259 1.341.218 1.782z" opacity=".15" style="paint-order:stroke fill markers"/><path fill="url(#f)" d="m14.184 36.621 24.478-22.623c1.111-1.027 2.55-.663 2.55 1.462v7.614L18.583 40.38c-.395.31-1.426 1.053-2.326.198l-2.29-2.177c-.6-.571-.259-1.341.218-1.782z" opacity=".15" style="paint-order:stroke fill markers"/></g></svg>