<svg xmlns="http://www.w3.org/2000/svg" width="64" height="64"><defs><linearGradient id="b" x1="540" x2="540" y1="212.36" y2="872.36" gradientTransform="translate(-.408 -2.556)scale(.06351)" gradientUnits="userSpaceOnUse"><stop offset="0" stop-color="#fff"/><stop offset="1" stop-color="#d7d7d7"/></linearGradient><linearGradient id="c" x1="200" x2="400" y1="952.36" y2="952.36" gradientTransform="translate(-16.667 15.636)scale(.16259)" gradientUnits="userSpaceOnUse"><stop offset="0" stop-color="#f4fbfc"/><stop offset="1" stop-color="#d6d6d6"/></linearGradient><linearGradient id="a" x1="7.937" x2="7.937" y1="15.081" y2="1.852" gradientTransform="scale(3.7796)" gradientUnits="userSpaceOnUse"><stop offset="0" stop-color="#2ec2b4"/><stop offset="1" stop-color="#79eec1"/></linearGradient></defs><rect width="56.002" height="56.002" x="4" y="3.969" fill="url(#a)" rx="13.002" ry="13.002"/><circle cx="32.099" cy="31.884" r="20.959" fill="url(#b)" opacity=".2" style="paint-order:stroke markers fill"/><path fill="url(#c)" d="M32.111 15.637a16.26 16.26 0 0 0-16.26 16.258 16.26 16.26 0 0 0 16.26 16.26 16.26 16.26 0 0 0 16.26-16.26 16.26 16.26 0 0 0-16.26-16.258m0 2.068a14.2 14.2 0 0 1 6.52 1.6l-2.145 3.666a9.95 9.95 0 0 0-4.375-1.023 9.95 9.95 0 0 0-4.314.998l-2.231-3.635a14.2 14.2 0 0 1 6.545-1.606m0 6.206a7.985 7.985 0 0 1 7.984 7.984 7.985 7.985 0 0 1-7.984 7.984 7.985 7.985 0 0 1-7.984-7.984 7.985 7.985 0 0 1 7.984-7.984m12.576 1.425a14.2 14.2 0 0 1 1.613 6.559 14.2 14.2 0 0 1-1.61 6.54l-3.66-2.151a9.95 9.95 0 0 0 1.028-4.39 9.95 9.95 0 0 0-1.057-4.433zm-25.199.108 3.697 2.072a9.95 9.95 0 0 0-1.021 4.379 9.95 9.95 0 0 0 1.05 4.426l-3.693 2.111a14.2 14.2 0 0 1-1.601-6.537 14.2 14.2 0 0 1 1.568-6.451m8.242 15.375a9.95 9.95 0 0 0 4.381 1.023 9.95 9.95 0 0 0 4.305-.994l2.265 3.617a14.2 14.2 0 0 1-6.57 1.621 14.2 14.2 0 0 1-6.615-1.644z"/></svg>