<svg xmlns="http://www.w3.org/2000/svg" width="64" height="64" enable-background="new 0 0 1024 1024" image-rendering="optimizeSpeed"><defs><linearGradient id="c" x1="528.77" x2="537.94" y1="1036.3" y2="92.612" gradientTransform="translate(-1.624 -1.204)scale(.06351)" gradientUnits="userSpaceOnUse"><stop offset="0" stop-color="#351f1f"/><stop offset="1" stop-color="#352b1f" stop-opacity="0"/></linearGradient><linearGradient id="g" x1="31.926" x2="31.618" y1="26.908" y2="39.216" gradientUnits="userSpaceOnUse"><stop offset="0" stop-color="#fff"/><stop offset="1" stop-color="#d0d0d0"/></linearGradient><linearGradient id="e" x1="33.569" x2="38.583" y1="19.695" y2="21.627" gradientUnits="userSpaceOnUse"><stop offset="0" stop-color="#f4f4f4"/><stop offset="1" stop-color="#bfbfbf"/></linearGradient><linearGradient id="b" x1="7.9" x2="56.17" y1="19.867" y2="19.867" gradientUnits="userSpaceOnUse"><stop offset="0" stop-color="#fff" stop-opacity=".454"/><stop offset="1" stop-color="#fff" stop-opacity=".276"/></linearGradient><linearGradient id="a" x1="7.937" x2="7.937" y1="15.081" y2="1.852" gradientTransform="scale(3.7796)" gradientUnits="userSpaceOnUse"><stop offset="0" stop-color="#f54800"/><stop offset="1" stop-color="#ffb200"/></linearGradient><filter id="f" width="1.12" height="1.12" x="-.06" y="-.06" color-interpolation-filters="sRGB"><feGaussianBlur stdDeviation=".304"/></filter><filter id="d" width="1.124" height="1.051" x="-.062" y="-.025" color-interpolation-filters="sRGB"><feGaussianBlur stdDeviation=".301"/></filter></defs><rect width="56.002" height="56.002" x="4" y="3.969" fill="url(#a)" rx="13.002" ry="13.002"/><path d="M56.17 31.974v-.08h-7.685v.08q0 6.813-4.82 11.629h-.002l-.002.002v.001q-4.815 4.816-11.626 4.818-6.817 0-11.632-4.818l-.001-.001h.001v.001q-4.816-4.82-4.817-11.632v-.08H7.9v.08q0 9.993 7.066 17.066v-.001h.001l.002.001q7.068 7.07 17.066 7.07 9.993 0 17.063-7.07v-.001l-.002.001h.002q7.073-7.073 7.072-17.066" opacity=".35"/><path fill="url(#b)" d="M31.971 7.84q-9.956.023-17.002 7.066h-.002v.002q-.032.031-.06.065-6.978 7.02-7.007 16.922h7.686q.03-6.717 4.754-11.488l.062-.065q4.796-4.794 11.568-4.816V7.84zm.002 0v7.686h.063q6.721 0 11.503 4.69l.124.124v.002h.002q4.79 4.793 4.82 11.553h7.685q-.028-9.944-7.072-16.988h-.002l-.123-.123Q41.943 7.84 32.035 7.84h-.063z"/><path fill="url(#c)" d="M46.569 46.761q6.088-6.088 6.088-14.7t-6.088-14.7c-6.088-6.088-8.959-6.088-14.7-6.088s-10.642 2.03-14.7 6.088-6.088 8.959-6.088 14.7 2.03 10.642 6.088 14.7 8.959 6.088 14.7 6.088 10.642-2.03 14.7-6.088" opacity=".35"/><path d="m40.408 7.39-11.67 25.264 2.68 3.21 4.262-.69z" filter="url(#d)" opacity=".35"/><path fill="url(#e)" d="m40.408 7.39-11.67 25.264 2.68 3.209 4.262-.69z"/><path d="M31.926 26.908q-1.277 0-2.367.46a6 6 0 0 0-1.934 1.321q-1.238 1.238-1.615 2.832a6.3 6.3 0 0 0-.166 1.469q0 1.2.406 2.234a6 6 0 0 0 1.375 2.065q1.781 1.782 4.301 1.781 2.518 0 4.299-1.781t1.781-4.299q0-2.444-1.68-4.2l-.101-.1a6.3 6.3 0 0 0-1.387-1.057 7 7 0 0 0-.414-.207q-1.139-.518-2.492-.518z" filter="url(#f)" opacity=".5"/><path fill="url(#g)" d="M31.926 26.908q-1.277 0-2.367.46a6 6 0 0 0-1.934 1.321q-1.238 1.238-1.615 2.832a6.3 6.3 0 0 0-.166 1.469q0 1.2.406 2.234a6 6 0 0 0 1.375 2.065q1.781 1.782 4.301 1.781 2.518 0 4.299-1.781t1.781-4.299q0-2.444-1.68-4.2l-.101-.1a6.3 6.3 0 0 0-1.387-1.057 7 7 0 0 0-.414-.207q-1.139-.518-2.492-.518z"/></svg>