<svg xmlns="http://www.w3.org/2000/svg" xml:space="preserve" style="fill-rule:evenodd;clip-rule:evenodd;stroke-linejoin:round;stroke-miterlimit:2" viewBox="0 0 64 64"><path d="M60 15.97v32c0 6.62-5.38 12-12 12H16c-6.62 0-12-5.38-12-12v-32c0-6.62 5.38-12 12-12h32c6.62 0 12 5.38 12 12" style="fill:url(#a)"/><path d="M22.1 14.9v34.2c0 .5-.4.9-.9.9s-.9-.4-.9-.9V14.9c0-.5.4-.9.9-.9s.9.4.9.9m10.8 0v34.2c0 .5-.4.9-.9.9s-.9-.4-.9-.9V14.9c0-.5.4-.9.9-.9s.9.4.9.9m10.8 0v34.2c0 .5-.4.9-.9.9s-.9-.4-.9-.9V14.9c0-.5.4-.9.9-.9s.9.4.9.9" style="fill:#fff;fill-opacity:.75"/><circle cx="32" cy="21.2" r="2.7" style="fill:url(#b)"/><circle cx="42.8" cy="44.6" r="2.7" style="fill:url(#c)"/><circle cx="21.2" cy="37.4" r="2.7" style="fill:url(#d)"/><defs><linearGradient id="a" x1="0" x2="1" y1="0" y2="0" gradientTransform="matrix(0 -56 56 0 32 60)" gradientUnits="userSpaceOnUse"><stop offset="0" style="stop-color:#0c8acb;stop-opacity:1"/><stop offset="1" style="stop-color:#00e9f9;stop-opacity:1"/></linearGradient><linearGradient id="b" x1="0" x2="1" y1="0" y2="0" gradientTransform="matrix(0 -5.4 5.4 0 32 23.9)" gradientUnits="userSpaceOnUse"><stop offset="0" style="stop-color:#d1d1d1;stop-opacity:1"/><stop offset="1" style="stop-color:#fff;stop-opacity:1"/></linearGradient><linearGradient id="c" x1="0" x2="1" y1="0" y2="0" gradientTransform="matrix(0 -5.4 5.4 0 42.8 47.3)" gradientUnits="userSpaceOnUse"><stop offset="0" style="stop-color:#d1d1d1;stop-opacity:1"/><stop offset="1" style="stop-color:#fff;stop-opacity:1"/></linearGradient><linearGradient id="d" x1="0" x2="1" y1="0" y2="0" gradientTransform="matrix(0 -5.4 5.4 0 21.2 40.1)" gradientUnits="userSpaceOnUse"><stop offset="0" style="stop-color:#d1d1d1;stop-opacity:1"/><stop offset="1" style="stop-color:#fff;stop-opacity:1"/></linearGradient></defs></svg>