<svg xmlns="http://www.w3.org/2000/svg" xml:space="preserve" width="64" height="64"><defs><linearGradient id="a" x1="7.937" x2="7.937" y1="15.081" y2="1.852" gradientTransform="scale(3.7796)" gradientUnits="userSpaceOnUse"><stop offset="0" stop-color="#363636" style="stop-color:#ead438;stop-opacity:1"/><stop offset="1" stop-color="#6c6c6c" style="stop-color:#f5e997;stop-opacity:1"/></linearGradient><filter id="b" width="1.294" height="1.294" x="-.147" y="-.147" style="color-interpolation-filters:sRGB"><feGaussianBlur stdDeviation="3.498"/></filter></defs><rect width="56.002" height="56.002" x="4" y="3.969" fill="url(#a)" rx="13.002" ry="13.002"/><path d="M15.55 59.84c-4.368-.507-8.386-3.356-10.315-7.315-.784-1.61-1.134-2.846-1.325-4.68-.325-3.111.574-6.43 2.447-9.034.724-1.007 17.95-18.215 18.498-18.48a4.8 4.8 0 0 1 2.454-.46c1.595.145 1.624.17 9.025 7.57 7.401 7.402 7.426 7.43 7.57 9.026a4.8 4.8 0 0 1-.46 2.454c-.264.548-17.473 17.774-18.48 18.498a13.2 13.2 0 0 1-5.987 2.375c-1.529.208-1.975.214-3.426.046m4.018-3.089c1.18-.278 2.647-.957 3.68-1.703.448-.324 4.618-4.397 9.267-9.052l8.454-8.463v-1.32l-6.704-6.703-6.703-6.703h-1.32L17.78 31.26c-4.655 4.65-8.728 8.82-9.051 9.267-1.337 1.85-1.97 3.857-1.952 6.187.053 6.692 6.274 11.574 12.792 10.037m-6.28-6.263c-.754-.754-.425-2.048.607-2.389.387-.127.54-.113.955.09 1.45.708 1.016 2.685-.59 2.685-.472 0-.662-.075-.972-.386m8.624.18c-1.02-.715-.793-2.103.42-2.563 1.106-.42 2.207.927 1.649 2.018-.367.717-1.426.996-2.07.545m-4.398-4.407c-.316-.316-.386-.497-.386-1 0-.51.07-.684.402-1.017.367-.367.462-.397 1.068-.339.872.084 1.188.4 1.272 1.272.059.607.029.702-.338 1.068-.333.333-.508.402-1.017.402-.503 0-.685-.07-1-.386m8.59.217c-.782-.616-.866-1.495-.206-2.155.368-.368.55-.45 1.004-.45.455 0 .636.082 1.004.45.648.648.596 1.504-.128 2.09-.33.268-1.366.308-1.675.065m-12.5-4.176c-.533-.333-.703-.651-.703-1.315 0-1.114 1.313-1.74 2.249-1.073 1.429 1.017-.061 3.318-1.547 2.388m8.453.038c-.41-.202-.834-.864-.834-1.3 0-.334.361-.957.689-1.187.161-.113.524-.206.806-.206.406 0 .605.093.961.45.738.737.578 1.781-.345 2.259-.48.248-.748.245-1.277-.016m-4.271-4.24c-.524-.36-.648-.596-.65-1.228-.003-1.342 1.38-1.94 2.318-1.003.368.368.449.549.449 1.003 0 .455-.081.636-.45 1.004-.514.515-1.126.597-1.667.224m14.249-.234c-.035-.035-.758-.243-1.607-.463-5.947-1.536-5.631-1.422-5.636-2.05-.003-.362 5.515-5.878 5.876-5.875.575.004.58.013 1.26 2.607.215.817.577 2.184.805 3.037.55 2.065.582 2.32.314 2.588-.202.202-.864.304-1.012.156m7.647-13.905c-5.213-5.212-9.477-9.538-9.477-9.613s.358-.49.795-.922l.795-.787 9.572 9.574c5.265 5.266 9.573 9.636 9.574 9.71.001.21-1.368 1.515-1.589 1.515-.107 0-4.458-4.264-9.67-9.477m6.14-6.143L32.446 4.443l.83-.821.828-.822 13.402 13.402L60.91 29.605l-.787.795c-.432.436-.817.794-.856.794s-6.09-6.019-13.445-13.375m-9.18 9.179-1.948-1.951.86-.853.861-.853 1.914 1.91c1.053 1.051 1.914 1.973 1.914 2.049 0 .134-1.461 1.649-1.59 1.649-.035 0-.94-.878-2.012-1.951m6.143-6.008c-3.141-3.142-5.712-5.774-5.712-5.849 0-.074.358-.489.795-.921l.794-.786 5.808 5.807 5.808 5.807-.82.828c-.45.455-.852.827-.89.827-.04 0-2.641-2.57-5.783-5.713" style="fill:#000;stroke-width:.123826;filter:url(#b);opacity:.25"/><path d="M15.55 59.84c-4.368-.507-8.386-3.356-10.315-7.315-.784-1.61-1.134-2.846-1.325-4.68-.325-3.111.574-6.43 2.447-9.034.724-1.007 17.95-18.215 18.498-18.48a4.8 4.8 0 0 1 2.454-.46c1.595.145 1.624.17 9.025 7.57 7.401 7.402 7.426 7.43 7.57 9.026a4.8 4.8 0 0 1-.46 2.454c-.264.548-17.473 17.774-18.48 18.498a13.2 13.2 0 0 1-5.987 2.375c-1.529.208-1.975.214-3.426.046m4.018-3.089c1.18-.278 2.647-.957 3.68-1.703.448-.324 4.618-4.397 9.267-9.052l8.454-8.463v-1.32l-6.704-6.703-6.703-6.703h-1.32L17.78 31.26c-4.655 4.65-8.728 8.82-9.051 9.267-1.337 1.85-1.97 3.857-1.952 6.187.053 6.692 6.274 11.574 12.792 10.037m-6.28-6.263c-.754-.754-.425-2.048.607-2.389.387-.127.54-.113.955.09 1.45.708 1.016 2.685-.59 2.685-.472 0-.662-.075-.972-.386m8.624.18c-1.02-.715-.793-2.103.42-2.563 1.106-.42 2.207.927 1.649 2.018-.367.717-1.426.996-2.07.545m-4.398-4.407c-.316-.316-.386-.497-.386-1 0-.51.07-.684.402-1.017.367-.367.462-.397 1.068-.339.872.084 1.188.4 1.272 1.272.059.607.029.702-.338 1.068-.333.333-.508.402-1.017.402-.503 0-.685-.07-1-.386m8.59.217c-.782-.616-.866-1.495-.206-2.155.368-.368.55-.45 1.004-.45.455 0 .636.082 1.004.45.648.648.596 1.504-.128 2.09-.33.268-1.366.308-1.675.065m-12.5-4.176c-.533-.333-.703-.651-.703-1.315 0-1.114 1.313-1.74 2.249-1.073 1.429 1.017-.061 3.318-1.547 2.388m8.453.038c-.41-.202-.834-.864-.834-1.3 0-.334.361-.957.689-1.187.161-.113.524-.206.806-.206.406 0 .605.093.961.45.738.737.578 1.781-.345 2.259-.48.248-.748.245-1.277-.016m-4.271-4.24c-.524-.36-.648-.596-.65-1.228-.003-1.342 1.38-1.94 2.318-1.003.368.368.449.549.449 1.003 0 .455-.081.636-.45 1.004-.514.515-1.126.597-1.667.224m14.249-.234c-.035-.035-.758-.243-1.607-.463-5.947-1.536-5.631-1.422-5.636-2.05-.003-.362 5.515-5.878 5.876-5.875.575.004.58.013 1.26 2.607.215.817.577 2.184.804 3.037.551 2.065.583 2.32.315 2.588-.202.202-.864.304-1.012.156m7.647-13.905c-5.213-5.212-9.477-9.538-9.477-9.613s.358-.49.795-.922l.795-.787 9.572 9.574c5.265 5.266 9.573 9.636 9.574 9.71.002.21-1.368 1.515-1.589 1.515-.107 0-4.458-4.264-9.67-9.477m6.14-6.143L32.446 4.443l.83-.821.828-.822 13.402 13.402L60.91 29.605l-.787.795c-.432.436-.817.794-.856.794s-6.09-6.019-13.445-13.375m-9.18 9.179-1.948-1.951.86-.853.861-.853 1.914 1.91c1.053 1.051 1.914 1.973 1.914 2.049 0 .134-1.461 1.649-1.59 1.649-.035 0-.94-.878-2.012-1.951m6.143-6.008c-3.141-3.142-5.712-5.774-5.712-5.849 0-.074.358-.489.795-.921l.794-.786 5.808 5.807 5.808 5.807-.82.828c-.45.455-.852.827-.89.827-.04 0-2.641-2.57-5.783-5.713" style="fill:#000;stroke-width:.123826"/></svg>