<svg xmlns="http://www.w3.org/2000/svg" width="64" height="64"><defs><linearGradient id="a" x1="7.937" x2="7.937" y1="15.081" y2="1.852" gradientTransform="scale(3.7796)" gradientUnits="userSpaceOnUse"><stop offset="0" stop-color="#1ca8a8"/><stop offset="1" stop-color="#0cc"/></linearGradient><linearGradient id="b" x1="379.24" x2="374.24" y1="546.85" y2="546.85" gradientTransform="translate(-769.68 -1134.5)scale(2.1429)" gradientUnits="userSpaceOnUse"><stop offset="0" stop-color="#f6f5f4"/><stop offset=".6" stop-color="#fff"/><stop offset="1" stop-color="#e0dedb"/></linearGradient><linearGradient id="c" x1="379.24" x2="374.24" y1="546.85" y2="546.85" gradientTransform="matrix(-2.1429 0 0 2.1429 833.68 -1134.5)" gradientUnits="userSpaceOnUse"><stop offset="0" stop-color="#f6f5f4"/><stop offset=".6" stop-color="#f6f5f4"/><stop offset="1" stop-color="#cccbc8"/></linearGradient><linearGradient id="d" x1="59.092" x2="46.289" y1="216.78" y2="169" gradientTransform="matrix(.4447 0 0 .5416 -1.938 -91.511)" gradientUnits="userSpaceOnUse"><stop offset="0" stop-color="#0cc"/><stop offset="1" stop-color="#32e5d2"/></linearGradient></defs><path fill="url(#a)" d="M17.002 3.969A12.973 12.973 0 0 0 4 16.97v29.998A12.973 12.973 0 0 0 17.002 59.97H47a12.973 12.973 0 0 0 13.002-13.002V16.97A12.973 12.973 0 0 0 47 3.969z"/><rect width="49.998" height="49.998" x="7.002" y="6.971" fill="#c0bfbc" rx="10" ry="10"/><path fill="url(#b)" d="M46.998 6.97c5.54 0 10 4.46 10 10v30c0 5.54-4.46 10-10 10H32v-50z"/><circle cx="32.02" cy="32.044" r="30.001" fill="none"/><path fill="url(#c)" d="M17.002 6.97c-5.54 0-10 4.46-10 10v30c0 5.54 4.46 10 10 10H32v-50z"/><rect width="15" height="2.267" x="12.001" y="19.503" opacity=".1" rx="0" ry="0"/><rect width="15" height="2.267" x="12.001" y="24.037" opacity=".1" rx="0" ry="0"/><rect width="15" height="2.267" x="12.001" y="28.57" opacity=".1" rx="0" ry="0"/><rect width="15" height="2.267" x="12.001" y="33.103" opacity=".1" rx="0" ry="0"/><rect width="15" height="2.267" x="12.001" y="37.637" opacity=".1" rx="0" ry="0"/><rect width="8.001" height="2.267" x="12.001" y="42.17" opacity=".1" rx="0" ry="0"/><rect width="12" height="3.4" x="36.999" y="17.236" fill="#0cc" rx="0" ry="0"/><rect width="15" height="2.267" x="36.999" y="24.037" opacity=".1" rx="0" ry="0"/><rect width="15" height="2.267" x="36.999" y="28.57" opacity=".1" rx="0" ry="0"/><rect width="15" height="2.267" x="36.999" y="33.104" opacity=".1" rx="0" ry="0"/><rect width="11" height="2.267" x="36.999" y="37.637" opacity=".1" rx="0" ry="0"/><path fill="url(#d)" d="M18.65.008S14.99 11.076 15 16.898c.008 4.333.49 9.222 2.763 12.557 1.745 2.56 7.395 4.313 7.395 4.313l1.718-.56s4.17-4.96 4.632-8.238c.6-4.272-.99-8.8-2.762-12.556C26.365 7.364 18.65.008 18.65.008m0 0"/><path fill="#1ca8a8" d="M27.002 42.155c-4.79-21.774-4.664-24.205-7.007-36.188 2.904 11.755 3.934 13.853 8.725 35.627z"/><path fill="#1ca8a8" d="M22.055 16.291c1.609-3.39 2.185-4.07 2.755-5.198-.516 1.166-.728 2.101-2.336 5.492zm1.115 5.264c2.232-4.71 3.033-5.653 3.824-7.22-.714 1.62-1.01 2.919-3.244 7.628zm1.228 5.647c2.363-4.983 3.209-5.981 4.046-7.638-.757 1.714-1.07 3.087-3.43 8.07z"/><path fill="#1ca8a8" d="M22.387 16.184c-2.786-1.957-3.563-2.194-4.52-2.825.924.696 1.492 1.377 4.277 3.334zm1.195 5.238c-3.867-2.72-4.947-3.051-6.276-3.925 1.285.967 2.072 1.913 5.94 4.631zm1.254 5.636c-4.09-2.878-5.234-3.227-6.64-4.151 1.36 1.024 2.195 2.022 6.286 4.9z"/></svg>