<svg xmlns="http://www.w3.org/2000/svg" width="64" height="64"><defs><linearGradient id="a" x1="7.937" x2="7.937" y1="15.081" y2="1.852" gradientTransform="scale(3.7796)" gradientUnits="userSpaceOnUse"><stop offset="0" stop-color="#f1efeb"/><stop offset="1" stop-color="#fdfcfc"/></linearGradient><linearGradient id="b" x1="32" x2="32" y1="52" y2="15" gradientTransform="translate(49.686)" gradientUnits="userSpaceOnUse"><stop offset="0" stop-color="#151515"/><stop offset="1" stop-color="#2e2e2e"/></linearGradient><linearGradient id="c" x1="23.876" x2="23.876" y1="16.35" y2="31.354" gradientTransform="matrix(1.0187 .01545 -.00955 .78656 7.9 13.514)" gradientUnits="userSpaceOnUse"><stop offset="0" stop-color="#f62f09"/><stop offset="1" stop-color="#ff0034"/></linearGradient></defs><rect width="56.002" height="56.002" x="4" y="3.969" fill="url(#a)" rx="13.002" ry="13.002"/><rect width="28" height="42" x="18" y="11" fill="url(#b)" fill-rule="evenodd" rx="14" ry="14" style="paint-order:stroke fill markers"/><path fill="#fcc431" d="M31.884 49.546s4.95-3.11 10.202-.09c0 0 5.228 2.746-2.166 3.387L34 53z"/><path fill="#fcc431" d="M32.116 49.546s-4.95-3.11-10.202-.09c0 0-5.228 2.746 2.166 3.387L30 53z"/><g transform="translate(-69.81 9.298)scale(.79618)"><ellipse cx="127.88" cy="24.638" fill="#242424" opacity=".41" rx="11.079" ry="3.386"/><g fill="#fdfdfd" transform="translate(98.129 .04)scale(1.2308)"><ellipse cx="20.264" cy="12.583" rx="2.649" ry="4.161"/><ellipse cx="27.55" cy="12.583" rx="2.649" ry="4.161"/></g><ellipse cx="123.88" cy="15.364" rx="1.387" ry="2.062"/><path d="M131.14 14.417c.606 0 1.117.575 1.307 1.376.025.105.08.108.08-.004 0-1.138-.621-2.061-1.387-2.061s-1.387.923-1.387 2.061c0 .112.053.116.077.015.188-.806.702-1.387 1.31-1.387"/><ellipse cx="21.26" cy="12.431" fill="#fefefe" rx=".462" ry=".633" transform="translate(98.129 .04)scale(1.2308)"/><ellipse cx="20.954" cy="13.103" fill="#fefefe" opacity=".6" rx=".272" ry=".285" transform="rotate(-2.766 75.713 -2015.83)scale(1.2307)"/><path fill="#fcc431" d="M127.88 21.225c-6.239 0-11.298 2.298-11.298 3.272 0 .72 1.908 1.78 4.808 2.497-1.173-1.02-1.844-1.95-1.87-1.926l.154-.002c.796.725 7.46 7.42 16.376-.158l.13-.002a19.6 19.6 0 0 1-2.4 2.254c3.226-.681 5.398-1.8 5.398-2.664 0-1.207-5.06-3.271-11.299-3.271z"/></g><path fill="#242424" d="M19.039 31.048s-5.236.53-7.296 5.577c0 0-2.194 4.842 3.412 1.208l4.291-3.161zm25.922 0s5.236.53 7.296 5.577c0 0 2.194 4.842-3.412 1.208l-4.291-3.161z"/><path fill="#d4001b" d="M22.551 35.662s-1.612 6.352.765 7.615c0 0 1.2.826 2.973.395 0 0 1.544-.318 1.275-2.614 0 0-.23-3.017.031-4.363z"/><path fill="#fff" fill-rule="evenodd" d="M21 34.512V41c0 6.094 4.906 11 11 11s11-4.906 11-11v-6.488a15.922 11.916 0 0 1-11 3.32 15.922 11.916 0 0 1-11-3.32" style="paint-order:stroke fill markers"/><path fill="url(#c)" d="M45.686 27.373c-2.543 3.996-7.433 6.29-13.577 6.196-5.995-.09-10.744-2.218-13.263-6.133-1.07-1.664-3.16 2.883-1.753 4.703 2.824 3.654 8.187 6.211 14.404 6.397 6.805.201 12.75-2.495 15.536-6.55 1.028-1.495-.501-5.943-1.348-4.613z"/></svg>