<svg xmlns="http://www.w3.org/2000/svg" width="64" height="64" fill="none" style="-webkit-print-color-adjust:exact"><defs><linearGradient id="a" x1="7.937" x2="7.937" y1="15.081" y2="1.852" gradientTransform="scale(3.7796)" gradientUnits="userSpaceOnUse"><stop offset="0" stop-color="#0060df"/><stop offset="1" stop-color="#2592ff"/></linearGradient></defs><rect width="56.002" height="56.002" x="4" y="3.969" fill="url(#a)" rx="13.002" ry="13.002"/><rect width="64" height="64" x="84.352" rx="0" ry="0"/><rect width="60.882" height="62.001" x="85.912" y="1.999" fill="url(#pattern528)" rx="0" ry="0"/><rect width="56.002" height="56.002" x="88.352" y="3.969" rx="13.002" ry="13.002"/><path fill="#fff" fill-rule="evenodd" d="M46.705 15.993a1.44 1.44 0 0 0-1.061-.438H18.392c-.442 0-.752.131-1.061.438-.31.307-.443.701-.443 1.052v17.967c0 1.315.266 2.673.797 3.988.53 1.314 1.15 2.498 1.946 3.505a19.4 19.4 0 0 0 2.787 2.98c1.062.964 2.079 1.797 3.008 2.411.885.613 1.903 1.227 2.876 1.796.973.57 1.681.964 2.079 1.14.398.219.752.35.973.482.177.087.399.131.62.131s.442-.044.619-.131c.266-.088.575-.263 1.018-.482.398-.219 1.106-.57 2.079-1.14a63 63 0 0 0 2.875-1.796 30 30 0 0 0 3.009-2.411c1.061-.964 1.99-1.928 2.787-2.98A15.7 15.7 0 0 0 46.307 39a10.7 10.7 0 0 0 .796-3.988V17.045c.045-.351-.088-.745-.398-1.052M43.21 35.187c0 6.53-11.192 12.139-11.192 12.139V19.411H43.21z" clip-rule="evenodd"/></svg>