<svg xmlns="http://www.w3.org/2000/svg" width="64" height="64" enable-background="new"><defs><linearGradient id="a" x1="7.937" x2="7.937" y1="15.081" y2="1.852" gradientTransform="scale(3.7796)" gradientUnits="userSpaceOnUse"><stop offset="0" stop-color="#2e2e2e"/><stop offset="1" stop-color="#4d4d4d"/></linearGradient><linearGradient id="c" x1="30" x2="30" y1="53" y2="23.418" gradientUnits="userSpaceOnUse"><stop offset="0" stop-color="#ec6912"/><stop offset="1" stop-color="#ffa733"/></linearGradient><linearGradient id="g" x1="48" x2="48" y1="18" y2="14" gradientUnits="userSpaceOnUse"><stop offset="0" stop-color="#891a1f"/><stop offset="1" stop-color="#ff5961"/></linearGradient><linearGradient id="f" x1="32" x2="32" y1="17" y2="15" gradientUnits="userSpaceOnUse"><stop offset="0" stop-color="#969387"/><stop offset="1" stop-color="#e7e6e4"/></linearGradient><filter id="e" width="1.123" height="1.864" x="-.062" y="-.432" color-interpolation-filters="sRGB"><feGaussianBlur stdDeviation=".36"/></filter><filter id="b" width="1.187" height="1.256" x="-.093" y="-.128" color-interpolation-filters="sRGB"><feGaussianBlur stdDeviation="1.71"/></filter><filter id="d" width="1.175" height="1.281" x="-.088" y="-.14" color-interpolation-filters="sRGB"><feGaussianBlur stdDeviation="1.17"/></filter></defs><rect width="56.002" height="56.002" x="4" y="3.969" fill="url(#a)" rx="13.002" ry="13.002"/><rect width="44" height="44" x="10" y="10" fill="#fff" opacity=".15" rx="7" ry="7" style="paint-order:normal"/><rect width="44" height="32" x="10" y="23" filter="url(#b)" opacity=".35" rx="7" ry="7" style="paint-order:normal"/><rect width="44" height="32" x="10" y="22" fill="url(#c)" rx="7" ry="7" style="paint-order:normal"/><path d="M16 29v6a1 1 0 0 0 1 1 1 1 0 0 0 1-1v-4h5a1 1 0 0 0 1-1 1 1 0 0 0-1-1zm25 0a1 1 0 0 0-1 1 1 1 0 0 0 1 1h5v4a1 1 0 0 0 1 1 1 1 0 0 0 1-1v-6zM17 42a1 1 0 0 0-1 1v6h7a1 1 0 0 0 1-1 1 1 0 0 0-1-1h-5v-4a1 1 0 0 0-1-1m30 0a1 1 0 0 0-1 1v4h-5a1 1 0 0 0-1 1 1 1 0 0 0 1 1h7v-6a1 1 0 0 0-1-1" color="#000" filter="url(#d)" opacity=".15" style="font-feature-settings:normal;font-variant-alternates:normal;font-variant-caps:normal;font-variant-east-asian:normal;font-variant-ligatures:normal;font-variant-numeric:normal;font-variant-position:normal;font-variation-settings:normal;inline-size:0;isolation:auto;mix-blend-mode:normal;shape-margin:0;shape-padding:0;text-decoration-color:#000;text-decoration-line:none;text-decoration-style:solid;text-indent:0;text-orientation:mixed;text-transform:none;white-space:normal"/><path fill="none" stroke="#fff" stroke-linecap="round" stroke-width="2" d="M17 34v-5h6m24 5v-5h-6m6 13v5h-6m-24-5v5h6"/><circle cx="48" cy="16" r="3" fill="#78171b"/><rect width="14" height="2" x="25" y="15.461" filter="url(#e)" opacity=".15" rx="1" ry="1"/><rect width="14" height="2" x="25" y="15" fill="url(#f)" rx="1" ry="1"/><circle cx="48" cy="16" r="2" fill="url(#g)"/></svg>