<svg xmlns="http://www.w3.org/2000/svg" xml:space="preserve" width="64" height="64"><defs><linearGradient id="a" x1="7.937" x2="7.937" y1="15.081" y2="1.852" gradientTransform="translate(0 .032)scale(3.7795)" gradientUnits="userSpaceOnUse"><stop offset="0" stop-color="#f1efeb"/><stop offset="1" stop-color="#fdfcfc"/></linearGradient><linearGradient id="b" x1="199.997" x2="296.665" y1="214.302" y2="307.573" gradientTransform="translate(-59.688 -64.014)scale(.36946)" gradientUnits="userSpaceOnUse"><stop offset="0" stop-color="#62a0ea"/><stop offset="1" stop-color="#1a5fb4"/></linearGradient></defs><rect width="55.999" height="55.999" x="4" y="4" fill="url(#a)" rx="13.001" ry="13.001"/><path fill="url(#b)" d="M32.033 15.52a2.26 2.26 0 0 0-.68 3.129c3.736 5.784 4.617 10.146 4.235 13.97-1.546 7.32-4.906 8.806-7.843 8.806-2.867 0-2.099-4.719.056-6.1C29.088 34.522 30.735 34 32 34a2.266 2.266 0 0 0 2.27-2.262A2.266 2.266 0 0 0 32 29.475c-1.477 0-2.926.31-4.279.839.277-1.304.379-2.713.021-4.21-.542-2.275-2.103-4.448-4.814-6.553a2.27 2.27 0 0 0-3.185.393 2.26 2.26 0 0 0 .398 3.176c2.208 1.715 2.938 2.985 3.187 4.03.25 1.045.049 2.166-.452 3.707-.64 2.076-1.384 3.93-1.71 5.707-.16.875-.174 1.827-.215 2.588-1.59-1.55-2.213-3.597-2.213-6.588a2.266 2.266 0 0 0-2.27-2.262 2.266 2.266 0 0 0-2.266 2.262c0 4.085 1.194 7.972 4.396 10.565 2.898 2.76 10.267 1.74 10.267 6.172 0 1.251 1.831 1.86 3.084 1.86 1.285 0 2.902-.859 2.902-1.86 0-5.029 5.3-8.085 14.025-8.072a2.266 2.266 0 0 0 2.271-2.26 2.266 2.266 0 0 0-2.264-2.266c-.597-.001-1.179.02-1.752.053.975-2.294 1.408-4.82 1.319-7.547a2.267 2.267 0 0 0-2.342-2.188 2.266 2.266 0 0 0-2.195 2.337c.118 3.572-.015 6.762-2.677 8.443-.756.478-1.636.892-2.47.892.648-1.761 1.137-3.62 1.337-5.625.128-1.28.141-2.799-.004-3.98-.227-1.828-.5-3.902.194-5.465.623-1.345 2.02-1.909 4.072-1.909a2.266 2.266 0 0 0 2.267-2.262 2.266 2.266 0 0 0-2.267-2.264c-3.048 0-5.36 1.604-6.67 3.543a38 38 0 0 0-2.527-4.532 2.27 2.27 0 0 0-2.31-1.002 2.3 2.3 0 0 0-.825.323" style="fill:url(#b);stroke-width:.369457"/></svg>