<svg xmlns="http://www.w3.org/2000/svg" xml:space="preserve" width="64" height="64" image-rendering="optimizeSpeed"><defs><linearGradient id="a" x1="7.937" x2="7.937" y1="15.081" y2="1.852" gradientTransform="scale(3.7796)" gradientUnits="userSpaceOnUse"><stop offset="0" stop-color="#f1efeb"/><stop offset="1" stop-color="#fdfcfc"/></linearGradient><linearGradient id="d" x1="13" x2="22.5" y1="30.417" y2="30.417" gradientUnits="userSpaceOnUse"><stop offset="0" stop-color="#2376c8"/><stop offset="1" stop-color="#19468a"/></linearGradient><linearGradient id="c" x1="35.167" x2="35.167" y1="13" y2="51" gradientUnits="userSpaceOnUse"><stop offset="0" stop-color="#428ce6"/><stop offset="1" stop-color="#1e75e0"/></linearGradient><linearGradient id="b" x1="36.75" x2="36.75" y1="51" y2="13" gradientUnits="userSpaceOnUse"><stop offset="0" stop-color="#8fc1ff"/><stop offset="1" stop-color="#c8def9"/></linearGradient></defs><rect width="56.002" height="56.002" x="4" y="3.969" fill="url(#a)" rx="13.002" ry="13.002"/><g stroke-width="1.583"><path fill="url(#b)" d="m27.25 13-7.917 7.917 3.167 28.5V51h3.167v-4.75h3.166V51H32v-4.75l4.75-1.583 4.75 1.583V51h3.167v-4.75h3.166V51H51v-9.5l-3.167-4.75L51 32v-9.5l-6.333-4.75c0-2.631-5.285-4.75-7.917-4.75z"/><path fill="url(#c)" d="M17.75 13v9.5H32v-4.75A4.74 4.74 0 0 0 27.25 13zM32 22.5V32h9.5v-9.5zm9.5 0H51v-4.75A4.74 4.74 0 0 0 46.25 13h-9.5a4.74 4.74 0 0 1 4.75 4.75zm0 9.5v9.5H51V32zm0 9.5H32v4.75h3.167V51h3.166v-4.75H41.5zm-9.5 0V32H17.75v9.5z"/><path fill="url(#d)" d="M17.75 13A4.74 4.74 0 0 0 13 17.75v30.083h3.167v-4.75h3.166v4.75H22.5V17.75A4.74 4.74 0 0 0 17.75 13"/></g></svg>