<svg xmlns="http://www.w3.org/2000/svg" width="64" height="64"><rect width="56" height="56" x="4" y="4" fill="url(#linearGradient862-3)" rx="13" ry="13" style="fill:#28427b;fill-opacity:1"/><path d="M30.644 50.7c-5.827-.57-10.588-3.26-13.898-7.848-.834-1.158-2.086-3.637-2.527-5.008a18.84 18.84 0 0 1-.476-9.917c.504-2.28 1.668-4.916 3.009-6.818.844-1.196 2.89-3.28 4.079-4.152 3.023-2.22 6.57-3.474 10.41-3.68 1.273-.07 1.302-.066 1.143.136-.09.114-.664.799-1.276 1.523l-1.114 1.316-1.102.29c-8.266 2.165-12.406 11.03-8.698 18.624.352.72.944 1.724 1.317 2.23 2.111 2.867 5.356 4.894 8.987 5.615 1.327.263 3.996.264 5.258.002 4.017-.834 7.085-2.941 9.184-6.309 1.413-2.267 2.11-5.32 1.822-7.977-.292-2.692-1.162-4.856-2.856-7.104l-.653-.867-.1-1.717c-.056-.945-.103-1.832-.105-1.97-.003-.233.047-.213.665.272 3.328 2.61 5.766 6.618 6.7 11.015.26 1.223.29 1.6.293 3.596.002 1.89-.035 2.418-.245 3.463-.454 2.27-1.358 4.6-2.517 6.49-1.715 2.799-4.664 5.458-7.657 6.906-3.038 1.47-6.665 2.18-9.643 1.889m.79-16.723c-2.761-.913-4.206-3.41-3.56-6.149.362-1.533.308-1.458 7.067-9.808a903 903 0 0 0 1.963-2.433c.445-.556.729-.694 1.028-.5.135.086.176.605.238 3.018.04 1.603.125 4.693.187 6.866.095 3.354.088 4.077-.047 4.783-.352 1.84-1.415 3.31-2.932 4.055-.707.348-.841.375-1.958.401-1.022.024-1.315-.01-1.987-.233" style="fill:#fff;fill-opacity:1;stroke-width:.108783"/></svg>