<svg xmlns="http://www.w3.org/2000/svg" width="64" height="64"><defs><linearGradient id="a" x1="7.937" x2="7.937" y1="15.081" y2="1.852" gradientTransform="translate(-.001 .03)scale(3.7796)" gradientUnits="userSpaceOnUse"><stop offset="0" stop-color="#ec1c24"/><stop offset="1" stop-color="#f25a5f"/></linearGradient><linearGradient id="b" x1="31.736" x2="31.736" y1="45.776" y2="18.189" gradientUnits="userSpaceOnUse"><stop offset="0" stop-color="#fad1d3"/><stop offset="1" stop-color="#fff" stop-opacity=".979"/></linearGradient></defs><rect width="56.002" height="56.002" x="3.999" y="3.999" fill="url(#a)" rx="13.002" ry="13.002"/><path fill="url(#b)" d="M39.155 17.062c-.413 0-.829.082-1.22.24h-.001a3.23 3.23 0 0 0-1.483 1.218v.001a3 3 0 0 0-.162.275v.002a3 3 0 0 0-.133.286v.002a3.3 3.3 0 0 0-.22 1.532l.005.04q.03.261.099.515l.014.058v.002q.045.15.104.295v.002q.06.146.133.285c.029.056.064.11.096.164.023.037.042.076.066.113l.002.002a3.2 3.2 0 0 0 .41.504l.003.002 5.983 5.986.002.002q.207.207.389.43v.002q.183.222.338.456c.062.093.114.192.17.288.038.066.08.13.116.196l.002.002a5.67 5.67 0 0 1 .637 3.18 5.7 5.7 0 0 1-.2 1.07v.003a5.7 5.7 0 0 1-1.02 1.974v.002q-.178.224-.383.433a5.7 5.7 0 0 1-1.887 1.225h-.002a5.7 5.7 0 0 1-3.148.3l-.07-.011h-.001l-.106-.025a5.7 5.7 0 0 1-1.284-.452c-.053-.026-.108-.047-.16-.074h-.002c-.061-.033-.119-.073-.179-.108a6 6 0 0 1-.567-.375c-.065-.048-.132-.092-.195-.143h-.002a6 6 0 0 1-.39-.353l-.04-.037-5.99-5.99a3.2 3.2 0 0 0-.78-.573l-.002-.002a3 3 0 0 0-.286-.131l-.002-.002a3.3 3.3 0 0 0-1.206-.235h-.017c-.312 0-.623.045-.924.133a3.21 3.21 0 0 0-2.255 2.484v.002a3.3 3.3 0 0 0-.007 1.197l.007.044.019.074a3 3 0 0 0 .158.528l.002.002q.058.145.13.286l.003.001q.073.141.162.275c.025.039.055.074.081.111.1.138.207.271.332.395l.002.002 5.983 5.985.001.002a12.1 12.1 0 0 0 2.895 2.142l.002.001q.26.139.524.262l.002.002a12 12 0 0 0 1.081.444c1.274.455 2.61.692 3.947.712h.022a12.3 12.3 0 0 0 2.294-.186h.002a12.14 12.14 0 0 0 5.323-2.347h.002q.477-.369.926-.792c.031-.027.067-.057.118-.105l.026-.026c.018-.018.019-.022.03-.034l.033-.033.011-.013.004-.003c.09-.085.136-.144.17-.186q.212-.224.408-.455v-.002q.197-.23.38-.47v-.001a12 12 0 0 0 .983-1.492v-.002q.288-.515.52-1.05v-.002a12 12 0 0 0 .581-1.643v-.002q.23-.838.339-1.696v-.002a12.3 12.3 0 0 0-.039-3.366l-.009-.077a11 11 0 0 0-.102-.565v-.002l-.029-.128q-.09-.42-.21-.837l-.044-.156a12 12 0 0 0-.626-1.629l-.002-.002-.131-.262q-.064-.132-.131-.264a12 12 0 0 0-.29-.513v-.002q-.151-.254-.316-.502v-.002q-.166-.247-.344-.487v-.002a12 12 0 0 0-.37-.475l-.001-.002q-.192-.234-.395-.46l-.002-.002q-.204-.227-.422-.444l-.002-.002-5.987-5.985-.002-.002a3 3 0 0 0-.396-.331q-.054-.042-.11-.082h-.001a3 3 0 0 0-.275-.164h-.002l-.091-.042a3.26 3.26 0 0 0-1.42-.331zm-13.908 2.222a12.2 12.2 0 0 0-8.54 3.324l-.007.006q-.069.059-.135.124l-.003.003c-.07.07-.074.075-.038.042a2 2 0 0 0-.198.206l-.008.01c-4.505 4.776-4.423 12.342.246 17.01l5.986 5.987a3.263 3.263 0 0 0 4.588 0 3.256 3.256 0 0 0 .001-4.585l-5.988-5.989a5.717 5.717 0 0 1-.055-8.037 5.715 5.715 0 0 1 8.036.054l5.988 5.987a3.26 3.26 0 0 0 4.588 0 3.26 3.26 0 0 0 0-4.586l-5.989-5.988a12.17 12.17 0 0 0-8.472-3.568"/></svg>