<svg xmlns="http://www.w3.org/2000/svg" width="64" height="64" enable-background="new 0 0 1024 1024" image-rendering="optimizeSpeed"><defs><linearGradient id="c" x1="467.8" x2="467.8" y1="122.8" y2="-61.12" gradientTransform="translate(-58.641 26.695)scale(.1911)" gradientUnits="userSpaceOnUse"><stop offset="0" stop-color="#03bc6f"/><stop offset="1" stop-color="#00dcb4"/></linearGradient><linearGradient id="a" x1="7.937" x2="7.937" y1="15.081" y2="1.852" gradientTransform="scale(3.7796)" gradientUnits="userSpaceOnUse"><stop offset="0" stop-color="#ebb300"/><stop offset="1" stop-color="#ffe433"/></linearGradient><filter id="b" width="1.317" height="1.164" x="-.159" y="-.082" color-interpolation-filters="sRGB"><feGaussianBlur stdDeviation="1.433"/></filter></defs><rect width="56.002" height="56.002" x="4" y="3.969" fill="url(#a)" rx="13.002" ry="13.002"/><path d="M42.847 12.218c-2.332 1.899-6.413 3.528-9.926 4.4-2.51.622-6.546.647-7.54.644a1.52 1.52 0 0 0-1.441.049 1.525 1.525 0 0 0-.56 2.088l10.604 18.366a9.937 8.409 0 0 0-2.893-.364 9.937 8.409 0 0 0-9.937 8.408 9.937 8.409 0 0 0 9.938 8.409 9.937 8.409 0 0 0 9.937-8.409 9.937 8.409 0 0 0-1.16-3.941 2 2 0 0 0-.081-.166l-9.086-15.737c5.54-2.75 10.788-8.324 12.145-13.748z" filter="url(#b)" opacity=".15"/><path fill="url(#c)" d="M42.847 11c-2.332 1.899-6.413 3.528-9.926 4.4-2.51.622-6.546.647-7.54.644a1.52 1.52 0 0 0-1.441.049 1.525 1.525 0 0 0-.56 2.088l10.604 18.366a9.937 8.409 0 0 0-2.893-.364 9.937 8.409 0 0 0-9.937 8.408A9.937 8.409 0 0 0 31.092 53a9.937 8.409 0 0 0 9.937-8.409 9.937 8.409 0 0 0-1.16-3.941 2 2 0 0 0-.081-.166l-9.086-15.737c5.54-2.75 10.788-8.324 12.145-13.748z"/></svg>