<svg xmlns="http://www.w3.org/2000/svg" width="64" height="64" image-rendering="optimizeSpeed"><defs><radialGradient id="c" cx="10" cy="15" r="28.001" gradientUnits="userSpaceOnUse"><stop offset="0" stop-color="#f72f3f"/><stop offset="1" stop-color="#f72f3f" stop-opacity="0"/></radialGradient><radialGradient id="b" cx="5" cy="30" r="28.001" gradientTransform="matrix(1.0714 0 0 1 -.357 0)" gradientUnits="userSpaceOnUse"><stop offset="0" stop-color="#ff721a"/><stop offset="1" stop-color="#ff721a" stop-opacity="0"/></radialGradient><linearGradient id="a" x1="2.646" x2="14.552" y1="10.583" y2="10.583" gradientTransform="scale(3.7796)" gradientUnits="userSpaceOnUse"><stop offset="0" stop-color="#703dae"/><stop offset="1" stop-color="#066bec"/></linearGradient></defs><rect width="64" height="64" fill="none" rx="0" ry="0" style="paint-order:stroke fill markers"/><rect width="56.002" height="56.002" x="4" y="3.969" fill="url(#a)" rx="13.002" ry="13.002"/><circle cx="32.02" cy="32.044" r="30.001" fill="none"/><rect width="56.002" height="56.002" x="4" y="3.969" fill="url(#b)" rx="13.002" ry="13.002"/><rect width="56.002" height="56.002" x="4" y="3.969" fill="url(#c)" rx="13.002" ry="13.002"/><rect width="40" height="40" x="12" y="12" fill-rule="evenodd" rx="6" ry="6" style="paint-order:stroke fill markers"/><path fill="#f9f9f9" d="M18 41.999h15v3H18z"/><path fill="#fff" d="M26.727 20.909v-2.91H18v2.91h2.909v10.182h-2.91v2.91h8.728v-2.91h-2.91V20.909m9.59 13.065c-1.757-.2-2.994-1.347-4.1-2.357l1.766-1.995c.58.602 1.454 1.323 2.36 1.444.908.12 2.074.02 2.775-.574.7-.594.7-1.402.7-2.365V18h2.91l-.009 10.303c.009 2.05-.77 3.432-1.488 4.202-1.15 1.177-2.638 1.296-4.027 1.489"/></svg>