<svg xmlns="http://www.w3.org/2000/svg" xmlns:xlink="http://www.w3.org/1999/xlink" width="64" height="64"><defs><linearGradient id="b" x1="8.815" x2="8.783" y1="24.071" y2="-4.85" gradientTransform="scale(3.7796)" gradientUnits="userSpaceOnUse"><stop offset="0" stop-color="#343434" style="stop-color:#4d7280;stop-opacity:1"/><stop offset="1" stop-color="#666" style="stop-color:#adbdc2;stop-opacity:1"/></linearGradient><linearGradient id="d" x1="8.815" x2="8.783" y1="24.071" y2="-4.85" gradientTransform="scale(3.7796)" gradientUnits="userSpaceOnUse"><stop offset="0" stop-color="#343434" style="stop-color:#00161c;stop-opacity:1"/><stop offset="1" stop-color="#666" style="stop-color:#206a7c;stop-opacity:1"/></linearGradient><linearGradient id="a" x1="8.815" x2="8.783" y1="24.071" y2="-4.85" gradientTransform="translate(1.606 1.605)scale(3.58986)" gradientUnits="userSpaceOnUse"><stop offset="0" stop-color="#343434" style="stop-color:#00161c;stop-opacity:1"/><stop offset="1" stop-color="#666" style="stop-color:#206a7c;stop-opacity:1"/></linearGradient><linearGradient xlink:href="#a" id="c" x1="8.815" x2="8.783" y1="24.071" y2="-4.85" gradientTransform="matrix(2.5 0 0 2.5 10.833 8.854)" gradientUnits="userSpaceOnUse"/><filter id="g" width="2.13" height="2.15" x="-.61" y="-.58" style="color-interpolation-filters:sRGB"><feFlood flood-color="#000" flood-opacity=".811" result="flood"/><feComposite in="flood" in2="SourceGraphic" operator="in" result="composite1"/><feGaussianBlur in="composite1" result="blur" stdDeviation="2.479"/><feOffset dy="2.395" result="offset"/><feComposite in="SourceGraphic" in2="offset" result="composite2"/></filter><filter id="f" style="color-interpolation-filters:sRGB"><feFlood flood-color="#000" flood-opacity=".3" result="flood"/><feComposite in="flood" in2="SourceGraphic" operator="out" result="composite1"/><feGaussianBlur in="composite1" result="blur" stdDeviation=".2"/><feOffset dy="-.15" result="offset"/><feComposite in="offset" in2="SourceGraphic" operator="atop" result="composite2"/></filter><clipPath id="e" clipPathUnits="userSpaceOnUse"><rect width="37.042" height="37.042" x="13.479" y="11.479" fill="url(#b)" stroke-width="2.5" rx="8.6" ry="8.6" style="display:inline;fill:url(#c)"/></clipPath></defs><rect width="56.002" height="56.002" x="4" y="3.969" fill="url(#b)" rx="13.002" ry="13.002" style="display:inline;fill:url(#d)"/><g clip-path="url(#e)" style="display:inline;filter:url(#f)" transform="translate(-15 -10.359)scale(1.47351)"><path d="M18.889 13.865h2.58m.368 0h2.395m.386 0h2.138m.351 0h.921m.369 0h2.064m.405 0h5.418m.368 0h4.128m.368 0h1.253M18.89 16.413h4m.465 0h1.911m.354 0h.943m.384 0h1.76m.369 0h1.805m.341 0h2.835m.369 0h3.74M18.89 18.949h3.385m.356 0h5.576m.342 0h2.704m.346 0h2.53m.363 0h2.155m.346 0 3.39.023M18.89 21.508h4.707m.37 0h5.087m.352 0h2m.368 0h4.758m.32 0h3.262m.369 0h1.29m.37 0h.713M18.89 24.056h1.757m.54 0h6.506m-8.803 11.04h4m.465 0h1.911m.354 0h.943m.384 0h1.76m.369 0h1.805m.341 0h2.835m-15.167 3.36h3.385m.356 0h5.576m.342 0h2.704m9.556.07h5.523m-27.442-5.98h4.707m.37 0h5.087m.352 0h2m.368 0h4.758M18.89 27.453h2.58m.368 0h2.395m.386 0h2.138m.351 0h.921m.369 0h2.064m.405 0h5.418m.368 0h4.128M18.889 30h4.344m.342 0h4.614m.351 0h1.804m.34 0h4.34m.35 0h4.74M18.888 41.04h4.06m.436 0h1.79m.419 0h.892m.285 0h1.762m.234 0h9.33m.44 0h2.49m.335 0h.629m-18.477 2.547h1.324m-5.95 0h4.238m2.051 0h3.082m.325 0h4.524m.351 0h3.069m.309 0h.632m.346 0h3.896m.399 0h2.04" style="opacity:1;fill:none;stroke:#657b83;stroke-width:.836547px;stroke-linecap:butt;stroke-linejoin:miter;stroke-opacity:1"/><path d="M28.397 13.865h2.064m3.964 2.548h3.74m-6.944 18.682h2.835m2.596-7.643h4.128" style="opacity:1;fill:none;stroke:#268bd2;stroke-width:.836547px;stroke-linecap:butt;stroke-linejoin:miter;stroke-opacity:1"/><path d="M18.889 13.865h2.58m10.304 7.643h4.758m-9.585 13.587h1.76m3.067-2.547h4.758M18.89 27.452h2.58m.368 0h2.395" style="opacity:1;fill:none;stroke:#859900;stroke-width:.836547px;stroke-linecap:butt;stroke-linejoin:miter;stroke-opacity:1"/><path d="M18.889 18.949h3.385m19.867 2.559h.714M18.89 35.095h4m-4-7.643h2.58M28.54 30h1.804m-1.76 13.587h4.524" style="opacity:1;fill:none;stroke:#d33682;stroke-width:.836547px;stroke-linecap:butt;stroke-linejoin:miter;stroke-opacity:1"/></g><g style="display:inline;filter:url(#g)"><path d="M31.974 38.28h.947c4.432 0 8.026-3.569 8.026-8v-4c0-4.433-3.594-8-8.026-8h-.947m-4.024 0h-7.003v20h6.998" style="color:#000;clip-rule:nonzero;display:inline;overflow:visible;visibility:visible;opacity:1;isolation:auto;mix-blend-mode:normal;color-interpolation:sRGB;color-interpolation-filters:linearRGB;solid-color:#000;solid-opacity:1;fill:none;fill-opacity:1;fill-rule:nonzero;stroke:#fff;stroke-width:4;stroke-linecap:butt;stroke-linejoin:miter;stroke-miterlimit:4;stroke-dasharray:none;stroke-dashoffset:0;stroke-opacity:1;marker:none;color-rendering:auto;image-rendering:auto;shape-rendering:auto;text-rendering:auto;enable-background:accumulate" transform="translate(-4.774 -2.865)scale(1.21942)"/></g></svg>