<svg xmlns="http://www.w3.org/2000/svg" xml:space="preserve" width="64" height="64"><defs><linearGradient id="a" x1="7.937" x2="7.937" y1="15.081" y2="1.852" gradientTransform="scale(3.7796)" gradientUnits="userSpaceOnUse"><stop offset="0" stop-color="#f1efeb"/><stop offset="1" stop-color="#fdfcfc"/></linearGradient></defs><rect width="56" height="56" x="4" y="4" fill="url(#a)" rx="13" ry="13" style="fill:url(#a)"/><path d="M31.638 36.942a2.6 2.6 0 0 1-.449-.183c-.332-.176-6.712-5.411-6.666-5.47l2.62-3.197c.014-.016 1.077.832 2.361 1.884s2.35 1.903 2.37 1.891c.019-.011 2.278-2.823 5.02-6.247s5.001-6.22 5.02-6.214c.05.017 3.265 2.582 3.267 2.607.005.052-11.424 14.29-11.604 14.457-.23.213-.65.428-.958.491-.282.059-.725.05-.98-.019" style="fill:#ffb000;fill-opacity:1"/><path d="m30.854 47.991-.566-.058c-2.887-.287-5.854-1.491-8.16-3.313a18 18 0 0 1-2.222-2.11c-2.743-3.16-4.136-7.166-3.929-11.305.046-.918.12-1.538.279-2.341a16.07 16.07 0 0 1 6.903-10.266c.76-.5 1.16-.727 1.965-1.113 1.98-.95 4.225-1.497 6.296-1.534l.586-.01v3.591l-.527.027c-3.798.194-7.183 1.985-9.434 4.99-1.295 1.73-2.085 3.694-2.384 5.927-.093.696-.092 2.337.003 3.014.41 2.94 1.629 5.384 3.68 7.382 3.017 2.937 7.219 4.133 11.354 3.232 4.28-.932 7.816-4.174 9.151-8.39.339-1.069.487-1.938.576-3.366l.024-.38h3.596l-.024.751c-.115 3.551-1.55 7.096-3.993 9.868-2.313 2.624-5.511 4.47-8.899 5.135-1.064.21-1.594.259-2.908.272a32 32 0 0 1-1.367-.003" style="fill:#617fde;fill-opacity:1"/></svg>