<svg xmlns="http://www.w3.org/2000/svg" xmlns:xlink="http://www.w3.org/1999/xlink" width="64" height="64" viewBox="0 0 16.933 16.933"><defs><linearGradient id="a"><stop offset="0" stop-color="#fff"/><stop offset="1" stop-color="#a3d0df"/></linearGradient><linearGradient id="b" x1="7.937" x2="7.937" y1="15.081" y2="1.852" gradientUnits="userSpaceOnUse"><stop offset="0" stop-color="#3fbefb"/><stop offset="1" stop-color="#8073f8"/></linearGradient><linearGradient xlink:href="#a" id="d" x1="6.879" x2="6.879" y1="6.35" y2="10.583" gradientTransform="matrix(1.2 0 0 1.2222 -1.164 -1.881)" gradientUnits="userSpaceOnUse"/><linearGradient xlink:href="#a" id="c" x1="11.112" x2="11.112" y1="6.614" y2="10.319" gradientTransform="translate(-3.599 -3.604)scale(1.4257)" gradientUnits="userSpaceOnUse"/><linearGradient id="e" x1="46" x2="46" y1="60" y2="30" gradientTransform="translate(0 .265)scale(.26458)" gradientUnits="userSpaceOnUse"><stop offset="0" stop-color="#1e1e1e"/><stop offset="1" stop-color="#3c3c3c"/></linearGradient></defs><rect width="14.817" height="14.817" x="1.058" y="1.05" fill="url(#b)" rx="3.44" ry="3.44"/><path fill="url(#c)" d="M13.206 5.577a.5.5 0 0 0-.18.043c-.106.048-1.369 1.117-1.694 1.434-.115.112-.215.188-.216.371l-.003 1.041.004 1.041c0 .184.1.26.215.372.325.317 1.588 1.386 1.694 1.434a.5.5 0 0 0 .18.043.56.56 0 0 0 .482-.259s.07-.1.07-.211V6.047c0-.11-.07-.211-.07-.211a.56.56 0 0 0-.482-.26z" transform="translate(-.53)"/><path fill="url(#d)" d="M5.503 5.556h3.81c.704 0 1.27.571 1.27 1.28v3.26c0 .71-.566 1.28-1.27 1.28h-3.81c-.703 0-1.27-.57-1.27-1.28v-3.26c0-.709.567-1.28 1.27-1.28" transform="translate(-.53)"/><circle cx="12.171" cy="12.171" r="4.233" fill="url(#e)"/><path fill="#fff" d="M10.868 10.054a.814.814 0 0 0 0 1.628.8.8 0 0 0 .397-.112l.641.6-.64.601a.8.8 0 0 0-.397-.112.814.814 0 1 0 .783.6l.692-.671 1.455 1.374h.489v-.326l-2.636-2.554a.814.814 0 0 0-.784-1.028m0 .488a.326.326 0 1 1 0 .652.326.326 0 0 1 0-.652m2.93-.162-1.281 1.21.427.418 1.343-1.303v-.325zm-2.93 2.768a.326.326 0 1 1 0 .65.326.326 0 0 1 0-.65"/></svg>