<svg xmlns="http://www.w3.org/2000/svg" width="64" height="64"><defs><linearGradient id="c" x1="100" x2="100" y1="852.36" y2="1052.4" gradientTransform="translate(7.077 -206.2)scale(.2518)" gradientUnits="userSpaceOnUse"><stop offset="0" stop-color="#fff"/><stop offset="1" stop-color="#d7d7d7"/></linearGradient><linearGradient id="a" x1="7.937" x2="7.937" y1="15.081" y2="1.852" gradientTransform="scale(3.7796)" gradientUnits="userSpaceOnUse"><stop offset="0" stop-color="#0e71de"/><stop offset="1" stop-color="#25c9ff"/></linearGradient><filter id="b" width="1.08" height="1.065" x="-.04" y="-.033" color-interpolation-filters="sRGB"><feGaussianBlur stdDeviation="6.772"/></filter></defs><rect width="56.002" height="56.002" x="4" y="3.969" fill="url(#a)" rx="13.002" ry="13.002"/><path d="M406.93 592.43c0 71.534 1.35 96.504-44.54 96.504s-82.332 14.847-82.332 56.688 43.191 62.086 70.185 62.086 80.308-18.896 80.308-75.583v-256.44l229.45-53.313v196.38s2.7 23.62-27.669 23.62c-30.368 0-97.179-8.773-97.179 55.338s64.786 60.062 74.909 60.062 75.584-10.798 75.584-87.056v-360.37l-280.06 53.988z" filter="url(#b)" opacity=".2" transform="translate(-.614 -2.48)scale(.06376)"/><path fill="url(#c)" d="M25.332 34.657c0 4.561.086 6.153-2.84 6.153s-5.25.947-5.25 3.615 2.754 3.959 4.475 3.959c1.722 0 5.121-1.205 5.121-4.82v-16.35l14.63-3.4v12.522s.172 1.506-1.764 1.506-6.196-.56-6.196 3.529c0 4.087 4.13 3.83 4.776 3.83s4.82-.69 4.82-5.552V16.671l-17.858 3.443z"/></svg>