<svg xmlns="http://www.w3.org/2000/svg" width="64" height="64" viewBox="0 0 64 64"><defs><linearGradient id="a" x1=".5" x2=".521" y1="1" y2=".004"><stop offset="0%" style="stop-color:rgba(1,1,1,.1)"/><stop offset="100%" style="stop-color:rgba(255,255,255,.1)"/></linearGradient></defs><path d="M16 4h32c6.623 0 12 5.377 12 12v32c0 6.623-5.377 12-12 12H16C9.377 60 4 54.623 4 48V16C4 9.377 9.377 4 16 4" style="stroke:none;fill:#f5f5f5;stroke-miterlimit:10"/><path d="M16 4h32c6.623 0 12 5.377 12 12v32c0 6.623-5.377 12-12 12H16C9.377 60 4 54.623 4 48V16C4 9.377 9.377 4 16 4" style="stroke:none;fill:url(#a);stroke-miterlimit:10"/><linearGradient id="b" x1=".502" x2=".502" y1=".914" y2="-.141" gradientTransform="matrix(35.643 0 0 11.652 14.179 36.839)" gradientUnits="userSpaceOnUse"><stop offset="0%" style="stop-color:#ef2f2f"/><stop offset="100%" style="stop-color:#f5ac2b"/></linearGradient><path fill="url(#b)" d="m20.167 36.839-4.966 2.292c-1.363.629-1.363 1.643 0 2.27l14.342 6.619c1.361.629 3.554.629 4.916 0l14.342-6.619c1.362-.627 1.362-1.641 0-2.27l-4.966-2.292-9.377 4.326c-1.361.629-3.554.629-4.915 0z"/><linearGradient id="c" x1=".488" x2=".488" y1=".859" y2=".033" gradientTransform="matrix(35.642 0 0 11.653 14.18 28.614)" gradientUnits="userSpaceOnUse"><stop offset="0%" style="stop-color:#64cf3b"/><stop offset="100%" style="stop-color:#b0ec1e"/></linearGradient><path fill="url(#c)" d="m20.167 28.614-4.966 2.292c-1.362.629-1.362 1.643 0 2.27l14.342 6.618c1.361.631 3.555.631 4.916 0l14.342-6.618c1.362-.627 1.362-1.642 0-2.27l-4.966-2.292-9.377 4.327c-1.36.629-3.554.629-4.915 0z"/><defs><linearGradient id="d" x1=".171" x2=".896" y1=".852" y2=".127"><stop offset="0%" style="stop-color:#4b79d5"/><stop offset="100%" style="stop-color:#31c9ef"/></linearGradient></defs><path d="m14.887 22.827 14.969-6.909c1.183-.546 3.105-.546 4.288 0l14.969 6.909c1.183.546 1.183 1.432 0 1.979l-14.969 6.909c-1.183.546-3.105.546-4.288 0l-14.969-6.909c-1.183-.547-1.183-1.433 0-1.979" style="stroke:none;fill:url(#d);stroke-miterlimit:10"/></svg>