<svg xmlns="http://www.w3.org/2000/svg" width="64" height="64" viewBox="0 0 16.933 16.933"><defs><radialGradient id="b" cx="55" cy="10" r="28.001" gradientTransform="translate(32.742 5.954)scale(-.3307)" gradientUnits="userSpaceOnUse"><stop offset="0" stop-color="#ffea24"/><stop offset=".143" stop-color="#ffea24"/><stop offset="1" stop-color="#ffea24" stop-opacity="0"/></radialGradient><linearGradient id="a" x1="7.937" x2="7.937" y1="15.081" y2="1.852" gradientTransform="translate(0 .008)scale(.99996)" gradientUnits="userSpaceOnUse"><stop offset="0" stop-color="#d42b92"/><stop offset="1" stop-color="#f66"/></linearGradient></defs><rect width="14.816" height="14.816" x="1.058" y="1.058" fill="url(#a)" rx="3.44" ry="3.44"/><rect width="14.817" height="14.817" x="1.058" y="1.05" fill="url(#b)" rx="3.44" ry="3.44"/><rect width="10.583" height="10.583" x="3.175" y="3.175" fill-rule="evenodd" rx="1.588" ry="1.588" style="paint-order:stroke fill markers"/><path fill="#f9f9f9" d="M4.734 4.936v4.231h.77v-1.54h.615l.924 1.54h.767l-.96-1.605c.595-.14.963-.529.963-1.263V6.28c0-.855-.417-1.346-1.413-1.346zm4.19 0v4.231h1.153l.598-.007c.746-.009 1.71-.756 1.71-2.1v-.018c0-1.33-.802-2.106-1.797-2.106zm-3.42.768h.77c.461 0 .767.151.767.568v.02c0 .346-.306.568-.768.567h-.77zm4.189 0h.768c.464 0 1.155.392 1.155 1.338v.019c0 .958-.69 1.337-1.154 1.337h-.77zm-5.195 5.408h3.968v.794H4.498z"/></svg>