<svg xmlns="http://www.w3.org/2000/svg" width="64" height="64"><defs><linearGradient id="b" x1="13.784" x2="13.784" y1=".403" y2="23.336" gradientTransform="translate(11.129 12.248)scale(1.7082)" gradientUnits="userSpaceOnUse"><stop offset="0" stop-color="#fff"/><stop offset="1" stop-color="#afeeff"/></linearGradient><linearGradient id="a" x1="7.937" x2="7.937" y1="15.081" y2="1.852" gradientTransform="scale(3.7796)" gradientUnits="userSpaceOnUse"><stop offset="0" stop-color="#017cd1"/><stop offset="1" stop-color="#11c9ff"/></linearGradient></defs><rect width="56.002" height="56.002" x="4" y="3.969" fill="url(#a)" rx="13.002" ry="13.002"/><path fill="url(#b)" d="M50.468 35.299a9.7 9.7 0 0 1 1.332 2.69q.462 1.46.463 3.026-.002 2.24-.9 4.214a11.2 11.2 0 0 1-2.477 3.473 11.6 11.6 0 0 1-3.685 2.342 11.8 11.8 0 0 1-4.463.845q-3.364 0-6.04-1.587c-.496.069-.995.118-1.498.156q-.758.05-1.507.048-3.93-.001-7.381-1.406c-2.296-.941-4.307-2.22-6.039-3.847a17.7 17.7 0 0 1-4.069-5.721q-1.484-3.283-1.483-7.012c0-.482.024-.94.075-1.364.046-.423.11-.855.175-1.288q-1.844-2.558-1.842-5.505a9.8 9.8 0 0 1 .902-4.144 10.4 10.4 0 0 1 2.47-3.386c1.052-.96 2.284-1.715 3.683-2.269 1.403-.553 2.89-.823 4.466-.823 1.134 0 2.198.133 3.21.405 1.01.275 1.957.658 2.83 1.158.494-.07 1-.12 1.498-.159.506-.03 1.011-.05 1.505-.05 2.629 0 5.097.459 7.405 1.369 2.303.904 4.318 2.156 6.05 3.744a17.8 17.8 0 0 1 4.088 5.543q1.481 3.159 1.481 6.768.004 1.33-.25 2.78zm-9.73 5.47c.81-1.066 1.21-2.318 1.21-3.757q-.002-1.698-.67-2.856-.695-1.155-1.958-1.927c-.774-.499-1.78-.941-3.012-1.337a159 159 0 0 0-3.94-.926l-1.523-.347a19 19 0 0 1-.977-.227 7 7 0 0 1-.761-.227 12 12 0 0 1-.704-.277 3.6 3.6 0 0 1-1.164-.77q-.358-.405-.358-1.077.002-.98 1.163-1.756 1.312-.724 3.22-.7c1.47 0 2.504.217 3.087.652A5.5 5.5 0 0 1 36 27.14q.513.825 1.052 1.23c.343.263.82.404 1.42.423.674 0 1.233-.224 1.703-.675.46-.42.68-.893.668-1.426 0-.617-.175-1.223-.516-1.807-.338-.549-.907-1.133-1.691-1.753a10.2 10.2 0 0 0-2.879-1.325 14 14 0 0 0-1.904-.376 18 18 0 0 0-2.21-.123q-3.06 0-5.162.748c-1.504.52-2.644 1.233-3.416 2.16q-1.158 1.321-1.158 3.176c0 1.302.374 2.361 1.112 3.178q1.114 1.324 3.022 2.004c1.21.483 2.755.907 4.651 1.272.71.168 1.33.31 1.878.417.54.106 1.03.227 1.458.359q1.213.328 1.965 1.113.803.68.803 1.76c0 .996-.489 1.802-1.454 2.417-.912.63-2.145.941-3.698.919-1.244 0-2.144-.143-2.715-.434-.709-.323-1.231-.733-1.575-1.221a8 8 0 0 1-1.064-1.843c-.244-.634-.574-1.112-1.004-1.435-.402-.327-.872-.489-1.423-.489-.704 0-1.285.197-1.744.583-.46.439-.68.953-.67 1.53q.002 1.51 1.11 3.02a7.64 7.64 0 0 0 2.82 2.43q2.521 1.299 6.324 1.323c2.069 0 3.912-.307 5.516-.92 1.575-.7 2.75-1.565 3.517-2.605z"/></svg>