<svg xmlns="http://www.w3.org/2000/svg" xmlns:xlink="http://www.w3.org/1999/xlink" width="64" height="64" viewBox="0 0 16.933 16.933"><defs><linearGradient id="b" x1="7.937" x2="7.937" y1="15.081" y2="1.852" gradientUnits="userSpaceOnUse"><stop offset="0" stop-color="#eae8e9"/><stop offset="1" stop-color="#f9f8f9"/></linearGradient><linearGradient id="a"><stop offset="0" stop-color="#64baff"/><stop offset="1" stop-color="#0d52bf"/></linearGradient><linearGradient xlink:href="#a" id="f" x1="129.43" x2="193.44" y1="903.24" y2="914.53" gradientTransform="rotate(80 101.476 73.649)scale(.14977)" gradientUnits="userSpaceOnUse"/><linearGradient xlink:href="#a" id="c" x1="151" x2="151" y1="60" y2="76" gradientTransform="translate(-17.297 -4.026)scale(.13749)" gradientUnits="userSpaceOnUse"/><linearGradient xlink:href="#a" id="d" x1="151" x2="151" y1="60" y2="76" gradientTransform="translate(-17.297 .007)scale(.13749)" gradientUnits="userSpaceOnUse"/><linearGradient xlink:href="#a" id="e" x1="151" x2="151" y1="60" y2="76" gradientTransform="translate(-17.297 2.06)scale(.13749)" gradientUnits="userSpaceOnUse"/></defs><rect width="14.817" height="14.817" x="1.058" y="1.05" fill="url(#b)" rx="3.44" ry="3.44"/><g stroke-linecap="round" stroke-linejoin="round" stroke-opacity=".35" stroke-width=".075" opacity=".25" transform="translate(0 .265)"><rect width="12.171" height=".132" x="2.381" y="3.969" opacity=".75" rx="0" ry=".066"/><rect width="12.171" height=".132" x="2.381" y="6.085" opacity=".75" rx="0" ry=".066"/><rect width="12.171" height=".132" x="2.381" y="8.202" opacity=".75" rx="0" ry=".066"/><rect width="12.171" height=".132" x="2.381" y="10.054" opacity=".75" rx="0" ry=".066"/><rect width="12.171" height=".132" x="2.381" y="12.171" opacity=".75" rx="0" ry=".066"/></g><path fill="#da4d45" d="M4.719 1.058h.132v14.816h-.132z" opacity=".15"/><path fill="url(#c)" d="m4 4.598-.73.87-.395-.332-.265.316.711.597.994-1.185z" opacity=".2"/><path fill="url(#d)" d="m4 8.63-.73.87-.395-.332-.265.316.711.597.994-1.185z" opacity=".2"/><path fill="url(#e)" d="m4 10.685-.73.869-.395-.331-.265.315.711.597.994-1.185z" opacity=".2"/><path fill="url(#f)" d="M30.11 4.47a.6.6 0 0 0-.844.075l-3.85 4.589-1.836-1.54a.6.6 0 0 0-.844.073l-.77.918a.6.6 0 0 0 .074.844l3.212 2.695c.254.214.63.18.844-.073l5.006-5.966a.6.6 0 0 0-.074-.844z" transform="translate(-14.659 1.235)scale(.87155)"/></svg>