<svg xmlns="http://www.w3.org/2000/svg" width="64" height="64"><defs><linearGradient id="a" x1="7.937" x2="7.937" y1="15.081" y2="1.852" gradientTransform="translate(0 .032)scale(3.7795)" gradientUnits="userSpaceOnUse"><stop offset="0" stop-color="#f1efeb"/><stop offset="1" stop-color="#fdfcfc"/></linearGradient><linearGradient id="b" x1="11" x2="53.995" y1="29.5" y2="29.5" gradientUnits="userSpaceOnUse"><stop offset="0" stop-color="#42d7ff"/><stop offset="1" stop-color="#06a6ff"/></linearGradient><linearGradient id="c" x1="21.399" x2="43.612" y1="30.02" y2="30.02" gradientUnits="userSpaceOnUse"><stop offset="0" stop-color="#ff7e84"/><stop offset="1" stop-color="#ff476c"/></linearGradient></defs><g color="#000"><path d="M4.37.53C2.254.53.53 2.312.53 4.496v8.468c0 2.184 1.725 3.968 3.84 3.968h8.194c2.114 0 3.84-1.783 3.84-3.968V4.497c0-2.184-1.726-3.968-3.84-3.968zm.256.52h7.681c1.844 0 3.33 1.534 3.33 3.44v7.937c0 1.906-1.485 3.44-3.33 3.44h-7.68c-1.845 0-3.33-1.534-3.33-3.44V4.49c0-1.906 1.485-3.44 3.33-3.44z" opacity=".01" style="font-feature-settings:normal;font-variant-alternates:normal;font-variant-caps:normal;font-variant-east-asian:normal;font-variant-ligatures:normal;font-variant-numeric:normal;font-variant-position:normal;font-variation-settings:normal;inline-size:0;isolation:auto;mix-blend-mode:normal;shape-margin:0;shape-padding:0;text-decoration-color:#000;text-decoration-line:none;text-decoration-style:solid;text-indent:0;text-orientation:mixed;text-transform:none;white-space:normal" transform="scale(3.7796)"/><path d="M4.359.794C2.392.794.795 2.447.795 4.48v8.5c0 2.035 1.597 3.688 3.564 3.688h8.216c1.967 0 3.564-1.653 3.564-3.688v-8.5c0-2.034-1.597-3.687-3.564-3.687zm.272.256h7.672c1.842 0 3.325 1.534 3.325 3.44v7.937c0 1.906-1.483 3.44-3.325 3.44H4.63c-1.842 0-3.325-1.534-3.325-3.44V4.49c0-1.906 1.483-3.44 3.325-3.44z" opacity=".01" style="font-feature-settings:normal;font-variant-alternates:normal;font-variant-caps:normal;font-variant-east-asian:normal;font-variant-ligatures:normal;font-variant-numeric:normal;font-variant-position:normal;font-variation-settings:normal;inline-size:0;isolation:auto;mix-blend-mode:normal;shape-margin:0;shape-padding:0;text-decoration-color:#000;text-decoration-line:none;text-decoration-style:solid;text-indent:0;text-orientation:mixed;text-transform:none;white-space:normal" transform="scale(3.7796)"/><path d="M4.31 1.058c-1.866 0-3.375 1.539-3.375 3.44v8.467c0 1.9 1.57 3.439 3.435 3.439h8.2c1.866 0 3.427-1.538 3.427-3.44V4.498c0-1.9-1.51-3.439-3.375-3.439h-.097c1.794.087 3.214 1.582 3.214 3.432v7.937c0 1.906-1.506 3.44-3.377 3.44h-7.79c-1.871 0-3.377-1.534-3.377-3.44V4.49c0-1.85 1.42-3.345 3.214-3.432z" opacity=".03" style="font-feature-settings:normal;font-variant-alternates:normal;font-variant-caps:normal;font-variant-east-asian:normal;font-variant-ligatures:normal;font-variant-numeric:normal;font-variant-position:normal;font-variation-settings:normal;inline-size:0;isolation:auto;mix-blend-mode:normal;shape-margin:0;shape-padding:0;text-decoration-color:#000;text-decoration-line:none;text-decoration-style:solid;text-indent:0;text-orientation:mixed;text-transform:none;white-space:normal" transform="scale(3.7796)"/><path d="M4 46.969V49c0 6.648 5.896 12 12.544 12h30.961C54.153 61 60 55.648 60 49v-1.992a12.97 12.97 0 0 1-13 12.963H17.002A12.973 12.973 0 0 1 4 46.969" opacity=".03" style="font-feature-settings:normal;font-variant-alternates:normal;font-variant-caps:normal;font-variant-east-asian:normal;font-variant-ligatures:normal;font-variant-numeric:normal;font-variant-position:normal;font-variation-settings:normal;inline-size:0;isolation:auto;mix-blend-mode:normal;shape-margin:0;shape-padding:0;text-decoration-color:#000;text-decoration-line:none;text-decoration-style:solid;text-indent:0;text-orientation:mixed;text-transform:none;white-space:normal"/><path d="M1.058 11.906v.592c0 1.939 1.573 3.5 3.332 3.5h8.16c1.76 0 3.325-1.561 3.325-3.5v-.58c-.006 2.095-1.537 3.78-3.44 3.78H4.498c-1.905 0-3.44-1.692-3.44-3.792" opacity=".05" style="font-feature-settings:normal;font-variant-alternates:normal;font-variant-caps:normal;font-variant-east-asian:normal;font-variant-ligatures:normal;font-variant-numeric:normal;font-variant-position:normal;font-variation-settings:normal;inline-size:0;isolation:auto;mix-blend-mode:normal;shape-margin:0;shape-padding:0;text-decoration-color:#000;text-decoration-line:none;text-decoration-style:solid;text-indent:0;text-orientation:mixed;text-transform:none;white-space:normal" transform="scale(3.7796)"/></g><rect width="56" height="56" x="4" y="4" fill="url(#a)" rx="13.002" ry="13.002"/><path fill="url(#b)" d="M32.4 13c-6.312.055-11.401 5.187-11.4 11.5q0 .754.1 1.502L21 26h-.02c-5.515.01-9.98 4.485-9.98 10a10 10 0 0 0 16.578 7.531L39.97 33.28l.147-.164c.769-.71 1.627-.919 2.359-1.038.731-.12 1.331-.073 1.934-.056.144.013.125.015.187.024a4 4 0 0 1 .736.183 4 4 0 0 1 2.037 1.618l.034.05a4 4 0 0 1 .314.63l.006.011.004.012a4 4 0 0 1 .197.676l.01.046v.002a4 4 0 0 1-.021 1.56l-.006.03q-.035.15-.078.297l-.004.01a3.9 3.9 0 0 1-.69 1.314l-.006.008a4 4 0 0 1-.547.56l-.043.038-.011.01a4 4 0 0 1-1.248.69l-.047.017a4 4 0 0 1-2.23.066l-.005-.002a4 4 0 0 1-.623-.215l-.007-.004a4 4 0 0 1-.446-.234l-.008-.006q-.063-.038-.127-.08l-.007-.006a4 4 0 0 1-.473-.37l-.049-.044-.004-.004a4 4 0 0 1-.492-.56 3 3 0 0 0-4.81 3.585c2.965 4.023 8.513 5.236 12.887 2.819 4.373-2.418 6.297-7.762 4.468-12.412-1.371-3.488-4.554-5.822-8.105-6.262a10 10 0 0 0-.895-.07c-.135-.005-.272.012-.408.013v-.002q.1-.755.102-1.519C44 18.15 38.85 13 32.5 13zm.1 6a5.5 5.5 0 0 1 4.742 2.715l.002.002.01.017.02.036a6 6 0 0 1 .155.293l.01.019q.038.078.074.158l.01.022q.036.08.069.16l.01.021.062.162.008.022.007.025a5.5 5.5 0 0 1 .239.905l.004.023.002.018a6 6 0 0 1 .048.35l.002.023q.009.087.014.174l.002.021a6 6 0 0 1 .01.334 5.5 5.5 0 1 1-5.5-5.5M20.939 32h.06a4 4 0 0 1 2.22.674l.016.012q.063.04.124.084l.015.011a4 4 0 0 1 .246.198l.016.013.11.1.013.013q.114.11.22.227l.014.016q.05.056.096.113l.014.016.03.04a4 4 0 0 1 .16.212l.01.017q.042.06.08.123l.013.018.076.127.01.017.07.131.008.018q.035.066.066.133l.008.017q.03.067.059.137l.007.017a5 5 0 0 1 .11.297l.006.02.04.142.007.02.035.142.004.02a4 4 0 0 1 .078.479l.002.019.002.031a4 4 0 0 1 .015.346 4 4 0 0 1-6.078 3.418h-.002a4 4 0 0 1-.9-.75 4 4 0 0 1-.492-.68v-.002l-.08-.146v-.002l-.075-.149v-.002a4 4 0 0 1-.128-.308v-.002A4 4 0 0 1 17 36a4 4 0 0 1 3.939-4"/><path fill="url(#c)" d="m40.648 24.041-.146.002a3 3 0 0 0-2.739 2.053l-.015.049v.002a5.5 5.5 0 0 1-.334.824v.002a5.5 5.5 0 0 1-.428.707l-.05.072a5.5 5.5 0 0 1-.477.566l-.116.116a6 6 0 0 1-.51.44l-.148.109a6 6 0 0 1-.594.369l-.12.06a5.5 5.5 0 0 1-.694.293l-.057.02-.011.004a5.5 5.5 0 0 1-.782.191l-.062.01a5.5 5.5 0 0 1-.854.07h-.012a5.5 5.5 0 0 1-.863-.068l-.031-.006a5.5 5.5 0 0 1-.799-.193l-.05-.016-.008-.004a5.5 5.5 0 0 1-.721-.299l-.106-.056a6 6 0 0 1-.6-.37l-.122-.088-.008-.005a6 6 0 0 1-.525-.454l-.118-.119a6 6 0 0 1-.465-.545l-.005-.007-.057-.08a5.5 5.5 0 0 1-.412-.676l-.026-.05a5.5 5.5 0 0 1-.326-.802l-.002-.008a3 3 0 0 0-3.765-1.943 3 3 0 0 0-1.952 3.766A11.52 11.52 0 0 0 32.518 36a11.52 11.52 0 0 0 10.955-8.06 3 3 0 0 0-1.966-3.76 3 3 0 0 0-.86-.139z" color="#000" style="font-feature-settings:normal;font-variant-alternates:normal;font-variant-caps:normal;font-variant-east-asian:normal;font-variant-ligatures:normal;font-variant-numeric:normal;font-variant-position:normal;font-variation-settings:normal;inline-size:0;isolation:auto;mix-blend-mode:normal;shape-margin:0;shape-padding:0;text-decoration-color:#000;text-decoration-line:none;text-decoration-style:solid;text-indent:0;text-orientation:mixed;text-transform:none;white-space:normal"/><path fill="#ff456a" d="M22 56h11v4H22z"/><path fill="#1d8bff" d="M33 56h11v4H33z"/></svg>