<svg xmlns="http://www.w3.org/2000/svg" width="64" height="64" viewBox="0 0 16.933 16.933"><defs><radialGradient id="a" cx="10" cy="55" r="28.001" gradientTransform="matrix(1.6071 0 0 1.7856 -6.07 -43.21)" gradientUnits="userSpaceOnUse"><stop offset="0" stop-color="#0865c8"/><stop offset="1" stop-color="#0865c8" stop-opacity="0"/></radialGradient><radialGradient id="b" cx="55" cy="10" r="28.001" gradientTransform="translate(123.75 22.5)scale(-1.2499)" gradientUnits="userSpaceOnUse"><stop offset="0" stop-color="#ffea24"/><stop offset=".143" stop-color="#ffea24"/><stop offset="1" stop-color="#ffea24" stop-opacity="0"/></radialGradient></defs><g transform="scale(.26458)"><rect width="64" height="64" fill="none" rx="0" ry="0" style="paint-order:stroke fill markers"/><rect width="56.002" height="56.002" x="4" y="3.969" fill="#00b9c8" rx="13.002" ry="13.002"/><circle cx="32.02" cy="32.044" r="30.001" fill="none"/><rect width="56.002" height="56.002" x="4" y="3.969" fill="url(#a)" rx="13.002" ry="13.002"/><rect width="56.002" height="56.002" x="4" y="3.969" fill="url(#b)" rx="13.002" ry="13.002"/></g><rect width="10.583" height="10.583" x="3.175" y="3.175" fill-rule="evenodd" rx="1.588" ry="1.588" style="paint-order:stroke fill markers"/><path fill="#f9f9f9" d="M4.498 11.112h3.968v.794H4.498z"/><path fill="#fff" d="M10.03 7.487c.37.301.691.474 1.155.474.37 0 .77-.173.77-.427V7.51c0-.232-.261-.4-.956-.586-.834-.208-1.372-.685-1.372-1.221V5.68c0-.765.724-1.183 1.558-1.183.602 0 .97.2 1.407.465l-.429.584c-.37-.255-.631-.28-.978-.28-.348 0-.77.17-.77.379v.071c0 .278.267.408.962.593.834.232 1.33.497 1.33 1.131v.023c0 .716-.642 1.267-1.522 1.267-.626-.023-1.171-.26-1.657-.7m-.652-3.533-.77 2.694-.77-2.694h-.77l-.77 2.694-.769-2.694h-.77L5.413 8.73h.77l.77-2.694.77 2.694h.769l1.154-4.233"/></svg>