<svg xmlns="http://www.w3.org/2000/svg" width="64" height="64"><rect width="56.002" height="56.002" x="4" y="3.969" fill="#fffde7" rx="13.002" ry="13.002"/><path fill="#f5f3cc" d="M44.004 58.998c-.232.232.017.651.041.973H47a12.974 12.974 0 0 0 13.002-13.002v-3.97z"/><path d="M3.998 45.998v1c0 7.203 5.8 13.004 13.004 13.004h29.996c7.203 0 13.004-5.8 13.004-13.004v-1c0 7.203-5.8 13.002-13.004 13.002H17.002A12.975 12.975 0 0 1 3.998 45.998" opacity=".1"/><path fill="#00bfa5" fill-rule="evenodd" d="M17.002 3.969A12.974 12.974 0 0 0 4 16.97V17h56.002v-.03A12.974 12.974 0 0 0 47 3.969Z" style="paint-order:stroke fill markers"/><path fill="#fff" d="M3.998 18.004v-1C3.998 9.801 9.798 4 17.002 4h29.996c7.203 0 13.004 5.8 13.004 13.004v1c0-7.203-5.8-13.002-13.004-13.002H17.002A12.975 12.975 0 0 0 3.998 18.004" opacity=".35"/><path fill="#dcedc8" d="M60.002 43H48.426c-2.443 0-4.425 2.054-4.425 4.586V59Z"/><circle cx="18" cy="45" r="1" fill="#a5d6a7"/><circle cx="18" cy="50" r="1" fill="#a5d6a7"/><rect width="13.182" height="2" x="22" y="44" fill="#00796b" rx="1"/><rect width="7.909" height="2" x="22" y="49" fill="#00796b" rx="1"/><rect width="10" height="2" x="17" y="39" fill="#00796b" rx="1"/><rect width="29" height="2" x="17" y="29" fill="#00796b" rx="1"/><rect width="29" height="2" x="17" y="34" fill="#00796b" rx="1"/></svg>