<svg xmlns="http://www.w3.org/2000/svg" width="64" height="64" viewBox="0 0 16.933 16.933"><defs><linearGradient id="a" x1="7.937" x2="7.937" y1="15.081" y2="1.852" gradientUnits="userSpaceOnUse"><stop offset="0" stop-color="#767574"/><stop offset="1" stop-color="#d1e7ee"/></linearGradient><linearGradient id="b" x1="31.458" x2="31.458" y1="51.726" y2="62.898" gradientTransform="translate(-2.883 -9.44)scale(.36079)" gradientUnits="userSpaceOnUse"><stop offset="0" stop-color="#1776ff"/><stop offset="1" stop-color="#2fceff"/></linearGradient><linearGradient id="c" x1="31.458" x2="31.458" y1="36.898" y2="59.898" gradientTransform="translate(-2.883 -9.44)scale(.36079)" gradientUnits="userSpaceOnUse"><stop offset="0" stop-color="#ff5514"/><stop offset="1" stop-color="#ff9014"/></linearGradient><linearGradient id="d" x1="31.458" x2="31.458" y1="46.898" y2="56.898" gradientTransform="translate(-2.883 -9.44)scale(.36079)" gradientUnits="userSpaceOnUse"><stop offset="0" stop-color="#c0e5fb"/><stop offset="1" stop-color="#c3faff"/></linearGradient></defs><rect width="14.817" height="14.817" x="1.058" y="1.05" fill="url(#a)" rx="3.44" ry="3.44"/><rect width="13.757" height="13.742" x="1.588" y="1.587" fill="#030000" rx="2.91" ry="2.91"/><rect width="12.171" height="12.171" x="2.381" y="2.381" fill="#262626" rx="2.117" ry="2.117"/><g fill-rule="evenodd" stroke-width=".361" clip-rule="evenodd"><path fill="url(#b)" d="m7.72 9.222-.336.784 1.083 3.247 1.082-3.247-.336-.784z" style="paint-order:normal" transform="translate(0 .446)"/><path fill="url(#c)" d="M7.745 3.873 4.498 12.17H5.94l2.526-6.134 2.525 6.134h1.443L9.188 3.873z" style="paint-order:normal" transform="translate(0 .446)"/><path fill="url(#d)" d="M8.466 7.48 7.72 9.222l.747 1.866.746-1.866z" style="paint-order:normal" transform="translate(0 .446)"/></g></svg>