<svg xmlns="http://www.w3.org/2000/svg" width="64" height="64"><defs><linearGradient id="a" x1="7.937" x2="7.937" y1="15.081" y2="1.852" gradientTransform="scale(3.7796)" gradientUnits="userSpaceOnUse"><stop offset="0" stop-color="#b76728"/><stop offset="1" stop-color="#d09d6a"/></linearGradient></defs><rect width="64" height="64" fill="none" rx="0" ry="0" style="paint-order:stroke fill markers"/><rect width="56.002" height="56.002" x="4" y="3.969" fill="url(#a)" rx="13.002" ry="13.002"/><circle cx="32.02" cy="32.044" r="30.001" fill="none"/><rect width="46" height="46" x="9" y="9" opacity=".5" rx="8" ry="8"/><path fill="#fff" d="M14 16v1.778h1.8v10.667H14v1.778h9v-1.778h1.8V17.778H23V16zm14.4 0v1.778h-1.8v10.667h1.8v1.778h7.2v-1.778h1.8V17.778h-1.8V16zM41 16v1.778h-1.8v3.555H41v1.778h3.6v1.778h1.8v3.556h-3.6v-3.556h-3.6v3.556H41v1.777h7.2v-1.777H50v-3.556h-1.8v-1.778h-1.8v-1.778h-3.6v-3.555h3.6v3.555H50v-3.555h-1.8V16zm-21.6 1.778h1.8v10.667h-1.8zm10.8 0h3.6v10.667h-3.6zm-16.2 16v1.778h1.8v10.667H14V48h9v-1.777h1.8v-5.334H23v-1.778h1.8v-3.555H23v-1.778zm14.4 0v1.778h-1.8v10.667h1.8V48h7.2v-1.777h1.8V35.556h-1.8v-1.778zm9 0v1.778h1.8v3.555H41v3.556h-1.8v3.555h-1.8V48H41v-1.778h1.8v-1.777h1.8v1.777h1.8V48H50v-1.778h-1.8v-3.555h-1.8V39.11h1.8v-3.555H50v-1.778h-3.6v1.778h-1.8v1.777h-1.8v-1.777H41v-1.778zm-18 1.778h1.8v3.555h-1.8zm10.8 0h3.6v10.667h-3.6zm-10.8 5.333h1.8v5.333h-1.8z"/></svg>