<svg xmlns="http://www.w3.org/2000/svg" width="64" height="64" viewBox="0 0 16.933 16.933"><defs><linearGradient id="a" x1="169.51" x2="169.51" y1="122.46" y2="16.447" gradientTransform="translate(-12.938 -.111)scale(.12734)" gradientUnits="userSpaceOnUse"><stop offset="0" stop-color="#ff1f4c"/><stop offset="1" stop-color="#ff5277"/></linearGradient><linearGradient id="b" x1="29.504" x2="29.504" y1="47.747" y2="17.014" gradientUnits="userSpaceOnUse"><stop offset="0" stop-color="#ffb8c4"/><stop offset="1" stop-color="#fff"/></linearGradient></defs><rect width="14.817" height="14.817" x="1.058" y="1.05" fill="url(#a)" rx="3.44" ry="3.44"/><path fill="#fff" fill-opacity=".937" d="M15.875 6.54a2.6 2.6 0 0 0-.418.054 2.9 2.9 0 0 0-.93.4 5.5 5.5 0 0 0-1.029.02 5 5 0 0 0-1.648.485v.148a4.9 4.9 0 0 1 1.664-.502 5 5 0 0 1 .837-.028c-.659.488-1.175 1.215-1.583 1.936v.002a4.2 4.2 0 0 1-.916 1.175v.096q0 .038-.003.075c.407-.345.76-.767 1.034-1.284.432-.761.98-1.518 1.678-1.986.474.039.92.139 1.314.28V7.27a5.2 5.2 0 0 0-1.129-.253 2.7 2.7 0 0 1 .739-.293v.002a2.5 2.5 0 0 1 .39-.053zm-14.816.605v.253q.075-.021.152-.038c.537.297 1.042.855 1.513 1.898-.635.137-1.21.33-1.665.525v.144a9 9 0 0 1 1.725-.543c.402.908.892 1.561 1.454 1.992q.05-.04.109-.08c-.55-.41-1.03-1.042-1.43-1.94a7.5 7.5 0 0 1 1.352-.148c.308.481.66.983 1.13 1.407q.15.135.318.258a1 1 0 0 0 .164-.043 4 4 0 0 1-.394-.312c-.434-.392-.767-.856-1.062-1.311.437.006.869.06 1.275.178.16.046.326.11.498.183v-.144a5 5 0 0 0-.461-.166 5 5 0 0 0-1.399-.185c-.146-.23-.285-.457-.417-.667-.464-.734-1.054-1.087-1.657-1.199a2.8 2.8 0 0 0-1.032.015c-.057-.03-.116-.052-.173-.077m.753.152a2.4 2.4 0 0 1 .429.039c.569.105 1.121.432 1.568 1.14l.373.599c-.451.01-.897.07-1.325.155-.444-.992-.933-1.571-1.45-1.904q.2-.03.405-.03zm9.464.541c-.482.33-.93.766-1.312 1.33a10 10 0 0 1-1.142 1.407c-.798-.274-1.457-.611-2.051-.893v.148c.561.269 1.19.585 1.946.849q-.21.202-.435.382a4.6 4.6 0 0 1-.63.42 4 4 0 0 1-.879-.198v.044l.003.096q.314.106.672.163a3.3 3.3 0 0 1-.673.236q-.003.07-.008.137c.32-.07.624-.188.914-.344a5.3 5.3 0 0 0 1.327-.03 1 1 0 0 1-.033-.129 5.2 5.2 0 0 1-1.09.043q.247-.152.48-.335a6 6 0 0 0 .492-.436q.081.027.164.05a1 1 0 0 1 .055-.123l-.114-.034a10 10 0 0 0 1.111-1.379c.354-.52.763-.93 1.203-1.245zm4.6.617c-.225.223-.439.51-.705.873-.756 1.03-1.543 1.563-2.473 1.665q-.458.049-.878.055-.008.067-.018.129a10 10 0 0 0 .912-.054c.972-.106 1.795-.666 2.564-1.715.228-.31.415-.561.598-.762z" opacity=".35" style="font-feature-settings:normal;font-variant-alternates:normal;font-variant-caps:normal;font-variant-ligatures:normal;font-variant-numeric:normal;font-variant-position:normal;isolation:auto;mix-blend-mode:normal;shape-padding:0;text-decoration-color:#000;text-decoration-line:none;text-decoration-style:solid;text-indent:0;text-orientation:mixed;text-transform:none;white-space:normal"/><path fill="url(#b)" d="M43.527 12.188c-.337-.007-.758.054-1.287.174L33.18 14.2l-8.047 1.588c-.924.197-1.382.593-1.588 1.181a2.3 2.3 0 0 0-.095.375 4.6 4.6 0 0 0-.047.889l.023 20.363c-.016.358-.04.674-.09.953v.002c-.074.418-.21.75-.482 1.002s-.68.425-1.297.523c-1.82.271-3.184.634-4.195 1.082a7 7 0 0 0-.565.28q-.524.29-.9.619a3.5 3.5 0 0 0-1.014 1.476 4.2 4.2 0 0 0-.199.854 6.4 6.4 0 0 0-.049.926c.014.958.313 1.845.832 2.564a4.2 4.2 0 0 0 1.315 1.186 4.45 4.45 0 0 0 1.783.568q.495.051 1.031-.002c.939-.104 1.788-.273 2.543-.564 1.259-.485 2.255-1.313 2.97-2.76q.084-.165.153-.37c.14-.41.238-.934.297-1.528.08-.793.09-1.705.035-2.623l-.023-16.197c.002-.425-.022-.78.023-1.073v-.002c.004-.026.015-.047.02-.072a.85.85 0 0 1 .197-.436c.187-.216.513-.377 1.076-.494l9.045-1.824v-.002l5.37-1.082c.436-.088.757-.056.97.12.213.175.32.496.326.988l.024 12.102c-.034.715-.085 1.237-.334 1.613a1.2 1.2 0 0 1-.227.254c-.18.152-.42.273-.742.365h-.002a5 5 0 0 1-.549.117q-1.09.164-1.973.375c-.882.211-1.617.459-2.224.738q-.608.28-1.057.602c-.449.322-.55.444-.758.686-.73.844-.94 1.846-.925 2.968.022 1.597.851 2.945 2.168 3.66a4.6 4.6 0 0 0 1.793.532q.496.046 1.033-.008c.939-.104 1.778-.26 2.521-.537a5.3 5.3 0 0 0 1.36-.734c.616-.468 1.138-1.101 1.568-1.97q.083-.162.149-.364v-.002c.304-.942.336-2.473.369-4.108l-.016-24.777c0-.3-.017-.553-.045-.783a3 3 0 0 0-.043-.275q-.011-.063-.025-.122a1.5 1.5 0 0 0-.133-.351.9.9 0 0 0-.207-.246q-.039-.032-.082-.059a1 1 0 0 0-.215-.107q-.048-.02-.1-.035a1.7 1.7 0 0 0-.4-.055z" transform="scale(.26458)"/></svg>