<svg xmlns="http://www.w3.org/2000/svg" width="64" height="64"><defs><linearGradient id="a" x1="7.937" x2="7.937" y1="15.081" y2="1.852" gradientTransform="scale(3.7796)" gradientUnits="userSpaceOnUse"><stop offset="0" stop-color="#f54800"/><stop offset="1" stop-color="#ffb200"/></linearGradient></defs><rect width="56.002" height="56.002" x="4" y="3.969" fill="url(#a)" rx="13.002" ry="13.002"/><circle cx="32.02" cy="32.044" r="30.001" fill="none"/><path fill="#fff" d="M33 33v26.971h14a12.974 12.974 0 0 0 13.002-13.002V33z" opacity=".35" style="paint-order:stroke fill markers"/><path fill="#fff" fill-rule="evenodd" d="M20 20v-3h3v3h3v3h-3v3h-3v-3h-3v-3zm27 3h-9v-3h9zm-9 18.5h9v-3h-9zm9 5h-9v-3h9zm-29.879-6.257 2.121 2.121-2.121 2.121 2.121 2.122 2.122-2.122 2.121 2.122 2.121-2.122-2.121-2.121 2.121-2.121-2.121-2.122-2.121 2.122-2.122-2.122z" clip-rule="evenodd"/><path fill="#fff" d="M31 3.969v27.03H4v2h27v26.972h2V33h27.002v-2H33V3.969z" opacity=".15" style="paint-order:stroke fill markers"/></svg>