<svg xmlns="http://www.w3.org/2000/svg" width="64" height="64" viewBox="0 0 16.933 16.933"><defs><radialGradient id="a" cx="55" cy="10" r="28.001" gradientTransform="translate(15.808 5.954)scale(-.3307)" gradientUnits="userSpaceOnUse"><stop offset="0" stop-color="#db1457"/><stop offset=".36" stop-color="#fd6f32"/><stop offset="1" stop-color="#fdb60d"/></radialGradient><radialGradient id="b" cx="91.801" cy="10" r="28.001" fx="967.51" fy="169.18" gradientTransform="matrix(-.37796 0 0 -.33071 20.145 5.953)" gradientUnits="userSpaceOnUse"><stop offset="0" stop-color="#18bf82"/><stop offset=".36" stop-color="#79c856"/><stop offset="1" stop-color="#5ef789" stop-opacity="0"/></radialGradient></defs><rect width="14.817" height="14.817" x="-15.875" y="1.05" fill="url(#a)" opacity=".75" rx="3.44" ry="3.44" transform="scale(-1 1)"/><rect width="14.817" height="14.817" x="-15.875" y="1.05" fill="url(#b)" opacity=".75" rx="3.44" ry="3.44" transform="scale(-1 1)"/><rect width="10.583" height="10.583" x="3.175" y="3.175" fill-rule="evenodd" rx="1.588" ry="1.588" style="paint-order:stroke fill markers"/><path fill="#f9f9f9" d="M4.498 11.112h3.968v.794H4.498z"/><path fill="#fff" d="M4.498 4.762H6.36c.512 0 .917.135 1.187.405.216.216.35.54.35.918 0 .647-.35 1.079-.863 1.268l.972 1.484H6.953L6.09 7.542h-.702v1.295h-.89zm1.78 1.997c.432 0 .675-.243.675-.566 0-.378-.27-.567-.701-.567h-.864v1.133zm2.453-1.997h1.862c.513 0 .917.135 1.187.405.216.216.351.54.351.918 0 .647-.35 1.079-.863 1.268l.971 1.484h-1.052l-.864-1.295h-.701v1.295h-.89zm1.781 1.997c.432 0 .675-.243.675-.566 0-.378-.27-.567-.702-.567h-.863v1.133z"/></svg>