<svg xmlns="http://www.w3.org/2000/svg" xmlns:xlink="http://www.w3.org/1999/xlink" width="64" height="64" viewBox="0 0 16.933 16.933"><defs><linearGradient id="a"><stop offset="0" stop-color="#88888b"/><stop offset="1" stop-color="#d4d4d8"/></linearGradient><linearGradient id="b" x1="7.937" x2="7.937" y1="15.081" y2="1.852" gradientTransform="scale(3.7796)" gradientUnits="userSpaceOnUse"><stop offset="0" stop-color="#f3f1ee"/><stop offset="1" stop-color="#fff"/></linearGradient><linearGradient xlink:href="#a" id="c" x1="10.054" x2="10.054" y1="4.762" y2="5.027" gradientTransform="translate(-.265 2.117)" gradientUnits="userSpaceOnUse"/><linearGradient xlink:href="#a" id="d" x1="10.054" x2="10.054" y1="4.762" y2="5.027" gradientTransform="translate(-.265 5.292)" gradientUnits="userSpaceOnUse"/><linearGradient xlink:href="#a" id="e" x1="10.054" x2="10.054" y1="4.762" y2="5.027" gradientTransform="translate(-.265 8.466)" gradientUnits="userSpaceOnUse"/><linearGradient id="f" x1="7.937" x2="7.937" y1="4.762" y2="1.323" gradientUnits="userSpaceOnUse"><stop offset="0" stop-color="#0069f5"/><stop offset="1" stop-color="#4092ff"/></linearGradient></defs><path fill="url(#b)" d="M4 19v27.969a12.973 12.973 0 0 0 13.002 13.002H47a12.973 12.973 0 0 0 13.002-13.002V19z" transform="scale(.26458)"/><path fill="#0079fd" d="M3.966 5.82a1.06 1.06 0 0 0-1.042 1.06 1.06 1.06 0 0 0 1.058 1.058A1.06 1.06 0 0 0 5.04 6.88a1.06 1.06 0 0 0-1.058-1.058h-.016zm.003.265h.013a.794.794 0 0 1 .794.794.794.794 0 0 1-.794.794.794.794 0 0 1-.794-.794.794.794 0 0 1 .78-.794zm0 .265a.53.53 0 0 0-.516.529.53.53 0 0 0 .53.53.53.53 0 0 0 .528-.53.53.53 0 0 0-.529-.53h-.013z"/><rect width="7.408" height=".265" x="6.35" y="6.879" fill="url(#c)" ry=".132"/><rect width="7.408" height=".265" x="6.35" y="10.054" fill="url(#d)" ry=".132"/><rect width="7.408" height=".265" x="6.35" y="13.229" fill="url(#e)" ry=".132"/><path fill="#fb3027" d="M3.966 8.996a1.06 1.06 0 0 0-1.042 1.058 1.06 1.06 0 0 0 1.058 1.058 1.06 1.06 0 0 0 1.058-1.058 1.06 1.06 0 0 0-1.058-1.058zm.003.264h.013a.794.794 0 0 1 .794.794.794.794 0 0 1-.794.794.794.794 0 0 1-.794-.794.794.794 0 0 1 .78-.794zm0 .265a.53.53 0 0 0-.516.529.53.53 0 0 0 .53.53.53.53 0 0 0 .528-.53.53.53 0 0 0-.529-.53z"/><path fill="#f79500" d="M3.953 12.171a1.06 1.06 0 0 0-1.043 1.058 1.06 1.06 0 0 0 1.059 1.059 1.06 1.06 0 0 0 1.058-1.059 1.06 1.06 0 0 0-1.058-1.058zm.002.265h.014a.794.794 0 0 1 .793.793.794.794 0 0 1-.793.794.794.794 0 0 1-.794-.794.794.794 0 0 1 .78-.793m0 .264a.53.53 0 0 0-.515.53.53.53 0 0 0 .529.528.53.53 0 0 0 .529-.529.53.53 0 0 0-.53-.529z"/><path fill="url(#f)" d="M4.498 1.05a3.43 3.43 0 0 0-3.44 3.44v.537h14.817V4.49a3.43 3.43 0 0 0-3.44-3.44z"/></svg>