<svg xmlns="http://www.w3.org/2000/svg" width="64" height="64" viewBox="0 0 64 64"><defs><linearGradient id="a" x1=".5" x2=".521" y1="1" y2=".004"><stop offset="0%" style="stop-color:rgba(1,1,1,.1)"/><stop offset="100%" style="stop-color:rgba(255,255,255,.1)"/></linearGradient></defs><path d="M16 4h32c6.623 0 12 5.377 12 12v32c0 6.623-5.377 12-12 12H16C9.377 60 4 54.623 4 48V16C4 9.377 9.377 4 16 4" style="stroke:none;fill:#fff;stroke-miterlimit:10"/><path d="M16 4h32c6.623 0 12 5.377 12 12v32c0 6.623-5.377 12-12 12H16C9.377 60 4 54.623 4 48V16C4 9.377 9.377 4 16 4" style="stroke:none;fill:url(#a);stroke-miterlimit:10"/><linearGradient id="b" x1="0" x2="1" y1=".5" y2=".5" gradientTransform="matrix(10.961 0 0 33.613 26.52 17.385)" gradientUnits="userSpaceOnUse"><stop offset="0%" style="stop-color:#e5e5e5"/><stop offset="100%" style="stop-color:#fdfdfd"/></linearGradient><path fill="url(#b)" d="M28.546 17.385s-2.026 4.972-2.026 5.303v28.31h10.961v-28.31l-1.826-5.303z"/><linearGradient id="c" x1="0" x2="1" y1=".5" y2=".5" gradientTransform="matrix(10.96 0 0 5.302 26.52 17.385)" gradientUnits="userSpaceOnUse"><stop offset="0%" style="stop-color:#cbcbba"/><stop offset="100%" style="stop-color:#f0f0eb"/></linearGradient><path fill="url(#c)" d="M28.346 17.385s-1.826 4.972-1.826 5.302h10.96c0-.178-1.826-5.302-1.826-5.302z"/><linearGradient id="d" x1="0" x2="1" y1=".5" y2=".5" gradientTransform="matrix(13.52 0 0 11.656 13 14.462)" gradientUnits="userSpaceOnUse"><stop offset="0%" style="stop-color:#c9c7c2"/><stop offset="100%" style="stop-color:#fff"/></linearGradient><path fill="url(#d)" d="M13 26.116c.182.005 13.52 0 13.52 0 0-4.684-4.327-8.73-4.384-11.654h-4.75c0 2.924-4.387 6.97-4.386 11.654"/><linearGradient id="e" x1="0" x2="1" y1=".5" y2=".5" gradientTransform="matrix(7.308 0 0 1.849 28.346 15.536)" gradientUnits="userSpaceOnUse"><stop offset="0%" style="stop-color:#1c65ba"/><stop offset="100%" style="stop-color:#3390ff"/></linearGradient><path fill="url(#e)" d="M28.346 15.536v1.849h7.308v-1.849z"/><linearGradient id="f" x1="0" x2="1" y1=".5" y2=".5" gradientTransform="matrix(10.96 0 0 8.741 26.52 29.091)" gradientUnits="userSpaceOnUse"><stop offset="0%" style="stop-color:#1c65ba"/><stop offset="100%" style="stop-color:#3390ff"/></linearGradient><path fill="url(#f)" d="M32 29.091c-2.74 0-2.74 3.456-2.74 3.456h-2.74v5.285h10.96v-5.285h-2.739s0-3.456-2.74-3.456zm0 .73s1.993 2.431 1.264 3.633c0 0-1.8 1.202-2.529 0S32 29.82 32 29.82z"/><linearGradient id="g" x1="0" x2="1" y1=".5" y2=".5" gradientTransform="matrix(13.518 0 0 33.615 13.002 17.385)" gradientUnits="userSpaceOnUse"><stop offset="0%" style="stop-color:#ff9a1f"/><stop offset="100%" style="stop-color:#ffcf99"/></linearGradient><path fill="url(#g)" d="m16.437 17.385-.004.004c-1.29 2.486-3.434 5.45-3.431 8.724v21.963q.002.298.053.592.053.282.158.548c.135.343.331.658.58.93q.279.293.625.502.116.067.238.124.123.053.25.096l.129.04q.195.058.4.076.14.018.279.016H26.52V26.114c0-3.275-2.116-6.238-3.408-8.725l-.004-.003z"/><linearGradient id="h" x1="0" x2="1" y1=".5" y2=".5" gradientTransform="matrix(13.519 0 0 28.885 37.482 22.115)" gradientUnits="userSpaceOnUse"><stop offset="0%" style="stop-color:#c1151b"/><stop offset="100%" style="stop-color:#ff7072"/></linearGradient><path fill="url(#h)" d="M40.404 22.115c-1.554.76-2.922 2.452-2.922 4.212V51h10.524c1.66-.007 2.995-1.375 2.995-3.073V26.326c0-1.764-1.364-3.453-2.924-4.211z"/><linearGradient id="i" x1="0" x2="1" y1=".5" y2=".5" gradientTransform="matrix(4.75 0 0 1.462 17.385 13)" gradientUnits="userSpaceOnUse"><stop offset="0%" style="stop-color:#2ddc6c"/><stop offset="100%" style="stop-color:#96eeb5"/></linearGradient><path fill="url(#i)" d="M17.385 13h4.75v1.462h-4.75z"/><path fill="#67656c" d="M40.404 21.384h7.674v.743h-7.674z"/><linearGradient id="k" x1="0" x2="1" y1=".5" y2=".5" gradientTransform="matrix(7.674 0 0 2.538 40.404 18.846)" gradientUnits="userSpaceOnUse"><stop offset="0%" style="stop-color:#cbcbba"/><stop offset="100%" style="stop-color:#f0f0eb"/></linearGradient><path fill="url(#k)" d="M40.404 18.846h7.674v2.538h-7.674z"/><path fill="#fff" d="M46.616 44.967H51v1.648h-4.384z" opacity=".5"/><path fill="#33d17a" fill-opacity=".855" d="M19.76 28.346a3.652 3.652 0 0 0-3.164 5.481 3.654 3.654 0 1 0 3.164-5.481"/></svg>