<svg xmlns="http://www.w3.org/2000/svg" width="64" height="64"><defs><linearGradient id="d" x1="401.58" x2="401.92" y1="513.81" y2="532.44" gradientTransform="translate(-580.81 -753.64)scale(1.4999)" gradientUnits="userSpaceOnUse"><stop offset="0" stop-color="#9559b6"/><stop offset="1" stop-color="#8e44ad"/></linearGradient><linearGradient id="c" x1="417.87" x2="417.53" y1="516.47" y2="533.46" gradientTransform="translate(-580.81 -753.64)scale(1.4999)" gradientUnits="userSpaceOnUse"><stop offset="0" stop-color="#1d99f3"/><stop offset="1" stop-color="#2972a7"/></linearGradient><linearGradient id="a" x1="7.937" x2="7.937" y1="15.081" y2="1.852" gradientTransform="scale(3.7796)" gradientUnits="userSpaceOnUse"><stop offset="0" stop-color="#f1efeb"/><stop offset="1" stop-color="#fdfcfc"/></linearGradient><filter id="b" width="1.1" height="1.151" x="-.05" y="-.075" color-interpolation-filters="sRGB"><feGaussianBlur stdDeviation=".936"/></filter></defs><rect width="56.002" height="56.002" x="4" y="3.969" fill="url(#a)" rx="13.002" ry="13.002"/><g stroke-width="1.071" filter="url(#b)" opacity=".15" transform="translate(2.134 2.206)scale(.93337)"><path d="m37.472 20.644-1.291 6.436 7.816 4.884-10.055 6.283-1.724 8.597 22.279-14.852zm-5.474-3.645L9.5 31.998l17.27 11.513 1.303-6.498L20 31.97l10.388-6.491 1.688-8.425z"/></g><g stroke-width="1.071"><path fill="url(#c)" d="m37.472 20.644-1.291 6.436 7.816 4.884-10.055 6.283-1.724 8.597 22.279-14.852z" transform="translate(2.134 2.206)scale(.93337)"/><path fill="url(#d)" d="M31.998 16.999 9.5 31.998l17.27 11.513 1.303-6.498L20 31.97l10.388-6.491 1.688-8.425z" transform="translate(2.134 2.206)scale(.93337)"/></g></svg>