<svg xmlns="http://www.w3.org/2000/svg" xmlns:xlink="http://www.w3.org/1999/xlink" width="64" height="64" enable-background="new 0 0 1024 1024" image-rendering="optimizeSpeed"><defs><linearGradient id="b"><stop offset="0" stop-color="#8d8d8d"/><stop offset=".646" stop-color="#2d2d2d"/><stop offset="1" stop-color="gray"/></linearGradient><linearGradient id="a"><stop offset="0" stop-color="#6f6f6f"/><stop offset=".121" stop-color="#cecfce"/><stop offset=".197" stop-color="#848484"/><stop offset=".337" stop-color="#2d2d2d"/><stop offset=".489" stop-color="#565656"/><stop offset=".617" stop-color="silver"/><stop offset=".757" stop-color="#3e3e3e"/><stop offset=".918" stop-color="#848585"/><stop offset="1" stop-color="#969596"/></linearGradient><linearGradient id="f" x1="21" x2="45" y1="6" y2="6" gradientTransform="translate(-.854 8.945)" gradientUnits="userSpaceOnUse"><stop offset="0" stop-color="#d8d9d9"/><stop offset=".372" stop-color="#d4d4d2"/><stop offset="1" stop-color="#6d6d6d"/></linearGradient><linearGradient id="l" x1="21" x2="45" y1="6" y2="6" gradientTransform="matrix(.20833 0 0 .25 25.155 12.472)" gradientUnits="userSpaceOnUse"><stop offset="0" stop-color="#d0d0d0"/><stop offset="1" stop-color="#6d6d6d"/></linearGradient><linearGradient xlink:href="#a" id="e" x1="21" x2="45" y1="6" y2="6" gradientTransform="translate(-.854 10.945)" gradientUnits="userSpaceOnUse"/><linearGradient xlink:href="#a" id="j" x1="21" x2="45" y1="6" y2="6" gradientTransform="translate(25.155 13.89)scale(.20833)" gradientUnits="userSpaceOnUse"/><linearGradient xlink:href="#b" id="g" x1="34" x2="25" y1="8" y2="8" gradientTransform="translate(0 8.98)" gradientUnits="userSpaceOnUse"/><linearGradient xlink:href="#b" id="i" x1="38" x2="34" y1="4" y2="9" gradientTransform="translate(0 8.98)" gradientUnits="userSpaceOnUse"/><linearGradient id="k" x1="35" x2="24.983" y1="3" y2="4.644" gradientTransform="translate(0 8.98)" gradientUnits="userSpaceOnUse"><stop offset="0" stop-color="#818181"/><stop offset=".222" stop-color="#454545"/><stop offset=".375" stop-color="#838383"/><stop offset=".515" stop-color="#646563"/><stop offset="1" stop-color="#d6d6d5"/></linearGradient><linearGradient id="o" x1="32" x2="32" y1="14.831" y2="21.831" gradientTransform="translate(0 8.98)" gradientUnits="userSpaceOnUse"><stop offset="0" stop-color="#8bbb3b"/><stop offset="1" stop-color="#a3d65f" stop-opacity=".922"/></linearGradient><linearGradient id="m" x1="32" x2="32" y1="18.178" y2="43.309" gradientTransform="translate(0 8.98)" gradientUnits="userSpaceOnUse"><stop offset="0" stop-color="#8aba3b"/><stop offset="1" stop-color="#5b9709" stop-opacity=".996"/></linearGradient><linearGradient id="c" x1="-2193.4" x2="-2193.4" y1="1377.3" y2="541.43" gradientTransform="translate(147.21 -23.453)scale(.05882)" gradientUnits="userSpaceOnUse"><stop offset="0" stop-color="#262626"/><stop offset="1" stop-color="#4a4a4a"/></linearGradient><filter id="h" width="1.101" height="1.25" x="-.051" y="-.125" color-interpolation-filters="sRGB"><feGaussianBlur stdDeviation=".208"/></filter><filter id="n" width="1.078" height="1.257" x="-.039" y="-.129" color-interpolation-filters="sRGB"><feGaussianBlur stdDeviation=".375"/></filter><filter id="d" width="1.313" height="2.03" x="-.157" y="-.515" color-interpolation-filters="sRGB"><feGaussianBlur stdDeviation="1.502"/></filter><filter id="q" width="1.514" height="1.068" x="-.257" y="-.034" color-interpolation-filters="sRGB"><feGaussianBlur stdDeviation=".506"/></filter><filter id="p" width="1.634" height="1.066" x="-.317" y="-.033" color-interpolation-filters="sRGB"><feGaussianBlur stdDeviation=".498"/></filter></defs><rect width="56.002" height="56.002" x="4" y="3.969" fill="url(#c)" rx="13.002" ry="13.002"/><g fill-rule="evenodd"><path fill="#d6d6d5" d="M20.141 16.924a.137.137 0 0 0-.137.137v31.727c0 .015.011.025.016.039a12 4 0 0 0-.024.154 12 4 0 0 0 12 4 12 4 0 0 0 12-4 12 4 0 0 0-.013-.139c.008-.017.021-.033.021-.054V17.06a.137.137 0 0 0-.136-.137z" opacity=".15" style="paint-order:stroke fill markers"/><ellipse cx="32" cy="41.299" fill-opacity=".996" filter="url(#d)" opacity=".5" rx="11.5" ry="3.5" style="paint-order:stroke fill markers" transform="matrix(1.2927 0 0 1.0607 -8.013 6.27)"/><path fill="url(#e)" d="M32 12.981a12 4 0 0 0-10.381 2h-1.555a.065.065 0 0 0-.064.064v1.872c0 .004.007.003.008.007a12 4 0 0 0-.008.057 12 4 0 0 0 12 4 12 4 0 0 0 12-4 12 4 0 0 0-.006-.059c0-.003.006-.002.006-.005v-1.872a.065.065 0 0 0-.065-.064h-1.558a12 4 0 0 0-10.377-2" style="paint-order:stroke fill markers"/><ellipse cx="32" cy="14.981" fill="url(#f)" rx="12" ry="4" style="paint-order:stroke fill markers"/><path fill="url(#g)" d="M33.79 18.936a12 4 0 0 1-9.881-1.001l8.09-2.954z" filter="url(#h)" opacity=".75" style="paint-order:stroke fill markers"/><path fill="url(#i)" d="M43.783 14.223a12 4 0 0 1-6.765 4.391L32 14.982z" filter="url(#h)" opacity=".75" style="paint-order:stroke fill markers"/><path fill="url(#j)" d="M32 13.564c-.892 0-1.716.16-2.163.417h-.324a.013.013 0 0 0-.013.013v1.14l.002.001-.002.012c0 .46 1.12.834 2.5.834s2.5-.373 2.5-.834l-.001-.012.001-.001v-1.14a.013.013 0 0 0-.013-.013h-.325c-.446-.258-1.27-.417-2.162-.417" style="paint-order:stroke fill markers"/><path fill="url(#k)" d="M24.143 11.957a12 4 0 0 1 12.08-.72L32 14.98z" filter="url(#h)" opacity=".5" style="paint-order:stroke fill markers"/><ellipse cx="32" cy="13.981" fill="url(#l)" rx="2.5" ry="1" style="paint-order:stroke fill markers"/><path fill="url(#m)" d="M20.639 27.159c-.072 0-.13.041-.13.092v21.117c0 .01.009.018.013.027a11.496 2.663 0 0 0-.022.102 11.496 2.663 0 0 0 .028.127 11.5 3.5 0 0 0-.028.166 11.5 3.5 0 0 0 11.5 3.5 11.5 3.5 0 0 0 11.5-3.5 11.5 3.5 0 0 0-.023-.196 11.496 2.663 0 0 0 .016-.097 11.496 2.663 0 0 0-.014-.092c.008-.012.021-.023.021-.037V27.25c0-.05-.058-.092-.13-.092z" style="paint-order:stroke fill markers"/><ellipse cx="32" cy="48.789" fill-opacity=".996" filter="url(#n)" opacity=".05" rx="11.5" ry="3.5" style="paint-order:stroke fill markers"/><ellipse cx="32" cy="27.312" fill="url(#o)" rx="11.5" ry="3.5" style="paint-order:stroke fill markers"/><path fill="#d6d6d5" d="M33.016 7.943v36.04a12 4 0 0 0 3.768-.317V7.943z" filter="url(#p)" opacity=".25" style="paint-order:stroke fill markers" transform="matrix(1 0 0 .98005 0 9.14)"/><path fill="#fff" fill-opacity=".996" d="M22.564 7.943v34.521a12 4 0 0 0 4.727 1.211V7.943z" filter="url(#q)" opacity=".25" style="paint-order:stroke fill markers" transform="matrix(1 0 0 .98122 0 9.13)"/></g></svg>