<svg xmlns="http://www.w3.org/2000/svg" xmlns:xlink="http://www.w3.org/1999/xlink" xml:space="preserve" width="64" height="64"><defs><linearGradient id="e"><stop offset="0" style="stop-color:#4d8a0a;stop-opacity:1"/><stop offset="1" style="stop-color:#3f6d0a;stop-opacity:1"/></linearGradient><linearGradient id="a" x1="7.937" x2="7.937" y1="15.081" y2="1.852" gradientTransform="scale(3.7796)" gradientUnits="userSpaceOnUse" spreadMethod="pad"><stop offset="0" stop-color="#f1efeb" style="stop-color:#eef1eb;stop-opacity:1"/><stop offset="1" stop-color="#fdfcfc"/></linearGradient><linearGradient xlink:href="#a" id="b" x1="7.937" x2="7.937" y1="15.081" y2="1.852" gradientTransform="scale(3.7796)" gradientUnits="userSpaceOnUse"><stop offset="0" stop-color="#f1efeb"/><stop offset="1" stop-color="#fdfcfc"/></linearGradient><linearGradient id="c" x1="64" x2="64" y1="64" y2="72" gradientTransform="matrix(.4 0 0 .4 6.401 12.77)" gradientUnits="userSpaceOnUse"><stop offset="0" stop-color="#ffbe6f"/><stop offset="1" stop-color="#cdab8f"/></linearGradient><linearGradient id="d" x1="91" x2="96" y1="49" y2="48" gradientTransform="matrix(.4 0 0 .4 6.401 12.77)" gradientUnits="userSpaceOnUse" spreadMethod="reflect"><stop offset="0" stop-color="#f6d32d"/><stop offset="1" stop-color="#f9f06b"/></linearGradient><linearGradient xlink:href="#b" id="f" x1="7.937" x2="7.937" y1="15.081" y2="1.852" gradientTransform="scale(3.7796)" gradientUnits="userSpaceOnUse"/><linearGradient xlink:href="#c" id="k" x1="64" x2="64" y1="64" y2="72" gradientTransform="matrix(.4 0 0 .4 6.401 12.77)" gradientUnits="userSpaceOnUse"/><linearGradient xlink:href="#d" id="l" x1="91" x2="96" y1="49" y2="48" gradientTransform="matrix(.4 0 0 .4 6.401 12.77)" gradientUnits="userSpaceOnUse" spreadMethod="reflect"/><linearGradient xlink:href="#e" id="g" x1="32.001" x2="32.001" y1="31.97" y2="59.971" gradientUnits="userSpaceOnUse"/><clipPath id="h" clipPathUnits="userSpaceOnUse"><rect width="56.002" height="56.002" x="4" y="3.969" fill="url(#b)" stroke-width="3.78" rx="13.002" ry="13.002" style="fill:url(#f)"/></clipPath><clipPath id="j" clipPathUnits="userSpaceOnUse"><rect width="56.002" height="56.002" x="4" y="3.969" fill="url(#b)" stroke-width="3.78" rx="13.002" ry="13.002" style="fill:url(#f)"/></clipPath><filter id="i" width="1.262" height="1.335" x="-.131" y="-.167" style="color-interpolation-filters:sRGB"><feGaussianBlur stdDeviation="2.622"/></filter></defs><rect width="56.002" height="56.002" x="4" y="3.969" fill="url(#b)" rx="13.002" ry="13.002" style="fill:url(#g);fill-opacity:1"/><g clip-path="url(#h)" style="fill:#000;fill-opacity:1;filter:url(#i);opacity:.25"><path fill="#c0bfbc" d="m16 30.338-4.799.038v-.006c-1.2 0-3.2.8-3.2 3.2v26.4l3.2-.002V35.17c0-1.6.8-1.6 2.4-1.6l2.4-.032zm32.003 0 4.798.038v-.006c1.2 0 3.2.8 3.2 3.2v26.4l-3.2-.002V35.17c0-1.6-.8-1.6-2.4-1.6l-2.4-.032zm0 0" style="stroke-width:.4;fill:#000;fill-opacity:1"/><path fill="url(#c)" d="M22.401 22.37h19.2c5.302 0 9.6 4.298 9.6 9.6s-4.298 9.6-9.6 9.6h-19.2c-5.302 0-9.6-4.299-9.6-9.6a9.6 9.6 0 0 1 9.6-9.6m0 0" style="fill:#000;stroke-width:.4;fill-opacity:1"/><path fill="url(#d)" d="M40.801 22.37v19.2h.8a9.6 9.6 0 0 0 3.2-.546v-18.11a9.6 9.6 0 0 0-3.2-.544zm0 0" style="fill:#000;stroke-width:.4;fill-opacity:1"/><path fill="#3d3846" d="M25.601 22.37h3.2v19.2h-3.2zm0 0" style="stroke-width:.4;fill:#000;fill-opacity:1"/><path fill="#ed333b" d="M32.001 22.37h3.2v19.2h-3.2zm0 0" style="stroke-width:.4;fill:#000;fill-opacity:1"/><path fill="#986a44" d="M22.401 22.37a9.6 9.6 0 0 0-3.2.545v18.11a9.6 9.6 0 0 0 3.2.545zm0 0" style="stroke-width:.4;fill:#000;fill-opacity:1"/></g><g clip-path="url(#j)"><path fill="#c0bfbc" d="m16 30.338-4.799.038v-.006c-1.2 0-3.2.8-3.2 3.2v26.4l3.2-.002V35.17c0-1.6.8-1.6 2.4-1.6l2.4-.032zm32.003 0 4.798.038v-.006c1.2 0 3.2.8 3.2 3.2v26.4l-3.2-.002V35.17c0-1.6-.8-1.6-2.4-1.6l-2.4-.032zm0 0" style="stroke-width:.4"/><path fill="url(#c)" d="M22.401 22.37h19.2c5.302 0 9.6 4.298 9.6 9.6s-4.298 9.6-9.6 9.6h-19.2c-5.302 0-9.6-4.299-9.6-9.6a9.6 9.6 0 0 1 9.6-9.6m0 0" style="fill:url(#k);stroke-width:.4"/><path fill="url(#d)" d="M40.801 22.37v19.2h.8a9.6 9.6 0 0 0 3.2-.546v-18.11a9.6 9.6 0 0 0-3.2-.544zm0 0" style="fill:url(#l);stroke-width:.4"/><path fill="#3d3846" d="M25.601 22.37h3.2v19.2h-3.2zm0 0" style="stroke-width:.4"/><path fill="#ed333b" d="M32.001 22.37h3.2v19.2h-3.2zm0 0" style="stroke-width:.4"/><path fill="#986a44" d="M22.401 22.37a9.6 9.6 0 0 0-3.2.545v18.11a9.6 9.6 0 0 0 3.2.545zm0 0" style="stroke-width:.4"/></g></svg>