<svg xmlns="http://www.w3.org/2000/svg" width="64" height="64"><defs><linearGradient id="a" x1="7.937" x2="7.937" y1="15.081" y2="1.852" gradientTransform="scale(3.7796)" gradientUnits="userSpaceOnUse"><stop offset="0" stop-color="#ffc30d"/><stop offset="1" stop-color="#fff63f"/></linearGradient><linearGradient id="c" x2="0" y1="28" y2="20" gradientTransform="matrix(1.5 0 0 1.5 -4 -4)" gradientUnits="userSpaceOnUse"><stop offset="0" stop-color="#5c431c"/><stop offset="1" stop-color="#6b4e21"/></linearGradient><filter id="b" width="1.139" height="1.486" x="-.069" y="-.243" color-interpolation-filters="sRGB"><feGaussianBlur stdDeviation="1.215"/></filter></defs><rect width="64" height="64" fill="none" rx="0" ry="0" style="paint-order:stroke fill markers"/><rect width="56.002" height="56.002" x="4" y="3.969" fill="url(#a)" rx="13.002" ry="13.002"/><circle cx="32.02" cy="32.044" r="30.001" fill="none"/><path fill="#784421" d="M11 28v6h6v-6zm6 6v6h6v-6zm6 0h6v-6h-6zm6 0v6h6v-6zm6 0h6v-6h-6zm6 0v6h6v-6zm6 0h6v-6h-6z" filter="url(#b)" opacity=".15"/><path fill="url(#c)" d="M11 26v6h6v-6zm6 6v6h6v-6zm6 0h6v-6h-6zm6 0v6h6v-6zm6 0h6v-6h-6zm6 0v6h6v-6zm6 0h6v-6h-6z"/></svg>