<svg xmlns="http://www.w3.org/2000/svg" xmlns:xlink="http://www.w3.org/1999/xlink" width="64" height="64"><defs><linearGradient id="e" x1="21.374" x2="22.494" y1="-17.476" y2="20.609" gradientTransform="translate(13.05 16.586)" gradientUnits="userSpaceOnUse"><stop offset=".989" stop-color="#6d4aff"/></linearGradient><linearGradient id="f" x1="21.592" x2="12.284" y1="-12.203" y2="27.874" gradientTransform="translate(13.05 16.586)" gradientUnits="userSpaceOnUse"><stop offset=".48" stop-color="#24ecc6" stop-opacity="0"/><stop offset=".994" stop-color="#24ecc6"/></linearGradient><linearGradient xlink:href="#a" id="g" x1="24.671" x2="4.032" y1="32.265" y2="-3.028" gradientTransform="translate(13.05 16.586)" gradientUnits="userSpaceOnUse"/><linearGradient id="a" x1="24.671" x2="4.032" y1="32.265" y2="-3.028" gradientUnits="userSpaceOnUse"><stop offset=".066" stop-color="#abffef"/><stop offset=".45" stop-color="#cac9ff"/><stop offset="1" stop-color="#6d4aff"/></linearGradient><linearGradient xlink:href="#a" id="c" x1="24.671" x2="4.032" y1="32.265" y2="-3.028" gradientTransform="translate(14.798 18.572)" gradientUnits="userSpaceOnUse"/><linearGradient id="b" x1="7.937" x2="7.937" y1="15.081" y2="1.852" gradientTransform="translate(0 -1)scale(3.7796)" gradientUnits="userSpaceOnUse"><stop offset="0" stop-color="#f1efeb"/><stop offset="1" stop-color="#fdfcfc"/></linearGradient><filter id="d" width="1.303" height="1.332" x="-.152" y="-.166" color-interpolation-filters="sRGB"><feGaussianBlur stdDeviation="2.081"/></filter></defs><rect width="56.002" height="56.002" x="4" y="2.969" fill="url(#b)" rx="13.002" ry="13.002"/><path fill="url(#c)" d="m33.228 43.698-1.175 1.767a1.146 1.146 0 0 1-1.958-.081l1.212 2.195c.216.391.49.719.804.982 1.503 1.259 3.905 1.034 5.08-.757l13.245-20.185c1.404-2.14.06-5.01-2.483-5.302L21.921 19.33c-2.776-.318-4.752 2.632-3.402 5.078l.103.186 22.158 2.564a1.91 1.91 0 0 1 1.377 2.946zm-1.921 3.88c1.251 2.268 4.464 2.39 5.884.226l13.245-20.185c1.404-2.14.06-5.01-2.483-5.302L21.921 19.33c-2.776-.318-4.752 2.632-3.402 5.078zm0 0c1.251 2.268 4.464 2.39 5.884.226l13.245-20.185c1.404-2.14.06-5.01-2.483-5.302L21.921 19.33c-2.776-.318-4.752 2.632-3.402 5.078z" filter="url(#d)" opacity=".668" style="mix-blend-mode:multiply" transform="translate(-1.73 -1.72)scale(1.0501)"/><path fill="url(#e)" fill-rule="evenodd" d="M29.56 45.593c1.25 2.267 4.463 2.39 5.884.225l13.244-20.185c1.405-2.14.061-5.01-2.482-5.302l-26.033-2.985c-2.775-.319-4.751 2.63-3.401 5.077z" clip-rule="evenodd" transform="translate(-1.731 -2.77)scale(1.0501)"/><path fill="url(#f)" fill-rule="evenodd" d="M29.56 45.593c1.25 2.267 4.463 2.39 5.884.225l13.244-20.185c1.405-2.14.061-5.01-2.482-5.302l-26.033-2.985c-2.775-.319-4.751 2.63-3.401 5.077z" clip-rule="evenodd" transform="translate(-1.731 -2.77)scale(1.0501)"/><path fill="url(#g)" d="m31.48 41.712-1.175 1.767a1.146 1.146 0 0 1-1.957-.08l1.212 2.194c.216.392.49.72.804.982 1.503 1.26 3.905 1.034 5.08-.757l13.244-20.185c1.405-2.14.061-5.01-2.482-5.302l-26.033-2.985c-2.775-.319-4.751 2.63-3.401 5.077l.102.186 22.158 2.564a1.91 1.91 0 0 1 1.377 2.946z" transform="translate(-1.731 -2.77)scale(1.0501)"/></svg>