<svg xmlns="http://www.w3.org/2000/svg" width="64" height="64"><defs><linearGradient id="a" x1="7.937" x2="7.937" y1="15.081" y2="1.852" gradientTransform="translate(0 .032)scale(3.7795)" gradientUnits="userSpaceOnUse"><stop offset="0" stop-color="#009400"/><stop offset="1" stop-color="#75b768"/></linearGradient></defs><rect width="56" height="56" x="4" y="4" fill="url(#a)" rx="13.002" ry="13.002"/><g transform="translate(.696 .696)scale(1.3043)"><rect width="24" height="22" x="12" y="14" fill="#876e59" ry="3"/><rect width="20" height="18" x="14" y="16" fill="#ede89f" ry="1"/><path fill="#ebce70" d="M18 16v6h4v-6zm4 6v6h4v-6zm4 0h4v-6h-4zm4 0v6h4v-6zm0 6h-4v6h4zm-8 0h-4v6h4zm-4 0v-6h-4v6z"/><path fill="#327ddc" d="M22 10c-.554 0-1 .446-1 1v1a3 3 0 0 0 2 2.82V23h-1c-1.108 0-2 .892-2 2v5c0 .508.38.97 1 1.322h6c.62-.352 1-.814 1-1.322v-5c0-1.108-.892-2-2-2h-1v-8.18A3 3 0 0 0 27 12v-1c0-.554-.446-1-1-1zm1 1h2v1a1 1 0 0 1-1 1 1 1 0 0 1-1-1z"/><path fill="#225faa" d="M22 25c-.554 0-1 .446-1 1v5.322c.732.416 1.8.678 3 .678s2.268-.262 3-.678V26c0-.554-.446-1-1-1z"/></g></svg>