<svg xmlns="http://www.w3.org/2000/svg" width="64" height="64"><defs><linearGradient id="a" x1="7.937" x2="7.937" y1="15.081" y2="1.852" gradientTransform="scale(3.7796)" gradientUnits="userSpaceOnUse"><stop offset="0" stop-color="#076095"/><stop offset="1" stop-color="#0092c2"/></linearGradient></defs><rect width="64" height="64" fill="none" rx="0" ry="0" style="paint-order:stroke fill markers"/><rect width="56.002" height="56.002" x="4" y="3.969" fill="url(#a)" rx="13.002" ry="13.002"/><circle cx="32.02" cy="32.044" r="30.001" fill="none"/><path fill="#f9f9f9" d="M38.261 16.033a8.766 8.766 0 0 0-8.766 8.766 8.77 8.77 0 0 0 1.448 4.814l-13.971 13.97v1.253l1.252 1.252h1.252l.626-.626 2.505 2.505 1.879-1.879-2.505-2.504 1.252-1.253 1.879 1.879 1.878-1.879-1.878-1.878 1.252-1.252 2.505 2.504 1.878-1.878-2.504-2.505 5.204-5.205a8.75 8.75 0 0 0 4.814 1.448 8.766 8.766 0 0 0 0-17.532m0 3.757a5.01 5.01 0 1 1 0 10.018 5.01 5.01 0 0 1 0-10.018"/></svg>