<svg xmlns="http://www.w3.org/2000/svg" xmlns:xlink="http://www.w3.org/1999/xlink" xml:space="preserve" width="64" height="64"><defs><linearGradient id="b"><stop offset="0" style="stop-color:#8ed1ff;stop-opacity:1"/><stop offset=".725" style="stop-color:#989898;stop-opacity:1"/></linearGradient><linearGradient id="c" x1="7.937" x2="7.937" y1="15.081" y2="1.852" gradientTransform="scale(3.7796)" gradientUnits="userSpaceOnUse"><stop offset="0" stop-color="#363636" style="stop-color:#1a1919;stop-opacity:1"/><stop offset="1" stop-color="#525252" style="stop-color:#252424;stop-opacity:1"/></linearGradient><linearGradient xlink:href="#b" id="d" x1="19.955" x2="44.045" y1="6.17" y2="57.83" gradientUnits="userSpaceOnUse"/><filter id="e" width="260.2" height="221.7" x="-2" y="0" color-interpolation-filters="sRGB" filterUnits="userSpaceOnUse"><feFlood flood-opacity="0" result="BackgroundImageFix"/><feColorMatrix in="SourceAlpha" result="hardAlpha" values="0 0 0 0 0 0 0 0 0 0 0 0 0 0 0 0 0 0 127 0"/><feOffset dy="26"/><feGaussianBlur stdDeviation="8"/><feComposite in2="hardAlpha" operator="out"/><feColorMatrix values="0 0 0 0 0 0 0 0 0 0 0 0 0 0 0 0 0 0 0.2 0"/><feBlend in2="BackgroundImageFix" result="effect1_dropShadow_15_199"/><feBlend in="SourceGraphic" in2="effect1_dropShadow_15_199" result="shape"/><feColorMatrix in="SourceAlpha" result="hardAlpha" values="0 0 0 0 0 0 0 0 0 0 0 0 0 0 0 0 0 0 127 0"/><feOffset dx="6" dy="6"/><feGaussianBlur stdDeviation="8"/><feComposite in2="hardAlpha" k2="-1" k3="1" operator="arithmetic"/><feColorMatrix values="0 0 0 0 1 0 0 0 0 1 0 0 0 0 1 0 0 0 0.4 0"/><feBlend in2="shape" result="effect2_innerShadow_15_199"/></filter></defs><rect width="56" height="56" x="4" y="4" fill="url(#c)" rx="13" ry="13" style="display:inline;stroke:url(#d);stroke-opacity:1"/><g mask="url(#a)" style="display:inline;fill:none" transform="translate(11.039 11.178)scale(.16363)"><path fill="#989898" d="M57.4 99.9C93.2 64.1 145 57.6 174 84.7a55 55 0 1 0 16 66.3l50.6 51a125.8 125.8 0 0 1-168.2 30.3c-14 16.7-25.2 21.3-49.3 22.2 19.4-16.5 19.9-35 10.8-60.7-2.9-4.5-5.5-9.2-7.8-14-2.9-26.3 8-56.5 31.4-79.9z"/><g filter="url(#e)"><path fill="#8dd0ff" d="M140 0c42 0 79.3 20.6 102.2 52.3l-52.4 52.4a55.2 55.2 0 0 0-15.9-20C145 57.6 93.2 64.1 57.4 100 34 123.3 24 154 26 179.7A126 126 0 0 1 140 0"/></g></g></svg>