<svg xmlns="http://www.w3.org/2000/svg" width="64" height="64"><defs><linearGradient id="a" x1="7.937" x2="7.937" y1="15.081" y2="1.852" gradientTransform="scale(3.7796)" gradientUnits="userSpaceOnUse"><stop offset="0" stop-color="#363636"/><stop offset="1" stop-color="#6c6c6c"/></linearGradient><linearGradient id="b" x1="29.235" x2="29.235" y1="14" y2="32.183" gradientUnits="userSpaceOnUse"><stop offset="0" stop-color="#37e079"/><stop offset="1" stop-color="#31d8ad"/></linearGradient></defs><rect width="56.002" height="56.002" x="4" y="3.969" fill="url(#a)" rx="13.002" ry="13.002"/><g stroke-width=".643"><path fill="#d8d8d8" d="M35.657 26.791c-2.163 1.175-5.777 5.003-7.108 6.245C19.851 41.16 27.156 50 27.156 50c2.95-5.942 11.896-20.27 11.896-20.27s-2.497-1.973-3.395-2.939"/><path fill="#e4e4e4" d="M28.381 26.791c2.163 1.175 5.777 5.003 7.108 6.245C44.187 41.16 36.882 50 36.882 50c-2.95-5.942-11.896-20.27-11.896-20.27s2.497-1.973 3.395-2.939"/><path fill="url(#b)" d="M23 14c-4.94 0-9.001 4.061-9 9.002 0 4.94 4.06 9 9 9s9-4.06 9-9c0 4.94 4.06 9 9 9s9.001-4.061 9-9.002c0-4.94-4.06-9-9-9s-9 4.06-9 9c0-4.94-4.06-9-9-9m0 5.144a3.82 3.82 0 0 1 3.857 3.858 2.662 2.66 0 0 0 0 .002c.001 2.161-1.695 3.855-3.857 3.855s-3.858-1.694-3.857-3.855a2.662 2.66 0 0 0 0-.002A3.82 3.82 0 0 1 23 19.144m18 0a3.82 3.82 0 0 1 3.857 3.858 2.662 2.66 0 0 0 0 .002c.001 2.161-1.695 3.855-3.857 3.855s-3.858-1.694-3.857-3.855a2.662 2.66 0 0 0 0-.002A3.82 3.82 0 0 1 41 19.144"/><ellipse cx="32" cy="33.93" opacity=".2" rx="1.929" ry="1.928"/></g></svg>