<svg xmlns="http://www.w3.org/2000/svg" width="64" height="64"><defs><linearGradient id="a" x1="7.937" x2="7.937" y1="15.081" y2="1.852" gradientTransform="scale(3.7796)" gradientUnits="userSpaceOnUse"><stop offset="0" stop-color="#f1efeb"/><stop offset="1" stop-color="#fdfcfc"/></linearGradient><linearGradient id="d" x1="4" x2="44.088" y1="26" y2="26" gradientUnits="userSpaceOnUse"><stop offset="0" stop-color="#4285f4"/><stop offset="1" stop-color="#42b0f4"/></linearGradient><linearGradient id="c" x1="31.06" x2="44.088" y1="54" y2="54" gradientUnits="userSpaceOnUse"><stop offset="0" stop-color="#1e57b9"/><stop offset="1" stop-color="#1f32a3"/></linearGradient><linearGradient id="b" x1="19.912" x2="60" y1="38" y2="38" gradientUnits="userSpaceOnUse"><stop offset="0" stop-color="#d1d1d1"/><stop offset="1" stop-color="#e6e6e6"/></linearGradient></defs><rect width="56.002" height="56.002" x="4" y="3.969" fill="url(#a)" rx="13.002" ry="13.002"/><path fill="url(#b)" d="M56.275 60C58.323 60 60 58.379 60 56.393V19.608C60 17.62 58.323 16 56.275 16H19.912l16.303 24.926L34.505 60z" transform="translate(11.429 11.429)scale(.64286)"/><path fill="url(#c)" d="M44.088 48H31.06l3.445 12z" transform="translate(11.429 11.429)scale(.64286)"/><path fill="#5a717f" d="M38.43 27.5v1.93h-4.59v1.93h.784v-.002h5.786v.002h2.682c-.495 1.717-1.59 3.374-2.656 4.634-1.338-1.56-1.726-2.365-1.842-2.708h-1.966c.144.441.684 1.618 2.68 3.923-.862.868-1.514 1.383-1.514 1.383l.602 1.858s.911-.772 2.051-1.964c1.144 1.222 2.62 2.691 4.53 4.443l1.177-1.222a74 74 0 0 1-4.58-4.443c1.476-1.721 2.975-3.925 3.292-5.908h3.204v.003h.004v-1.93h-7.716V27.5z"/><path fill="url(#d)" d="M7.726 4C5.678 4 4 5.624 4 7.613v36.78C4 46.376 5.678 48 7.725 48H44.09L29.494 4z" transform="translate(11.429 11.429)scale(.64286)"/><path fill="#fff" d="M24.402 22.358c-3.258 0-5.901 2.592-5.901 5.785s2.643 5.786 5.9 5.786c3.414 0 5.671-2.348 5.671-5.66 0-.323-.027-.546-.07-.769h-5.073v1.928l1.138.002h1.946s-.715 2.644-3.727 2.57a3.857 3.857 0 1 1 2.574-6.727l1.497-1.409c-1.026-.927-2.362-1.506-3.955-1.506"/></svg>