<svg xmlns="http://www.w3.org/2000/svg" width="64" height="64"><defs><linearGradient id="a" x1="4" x2="60.002" y1="31.97" y2="31.97" gradientUnits="userSpaceOnUse"><stop offset="0" stop-color="#155897"/><stop offset="1" stop-color="#159757"/></linearGradient></defs><rect width="56.002" height="56.002" x="4" y="3.969" fill="url(#a)" rx="13.002" ry="13.002"/><path fill="#0c6244" d="M40.381 31.682c-1.117 0-2.234.473-3.09 1.421L13.487 59.48c1.119.312 2.294.49 3.515.49H47a12.97 12.97 0 0 0 12.434-9.18L43.471 33.103c-.856-.949-1.973-1.422-3.09-1.422z"/><path fill="#88bc00" d="M20.199 27.652c-1.117 0-2.234.473-3.09 1.422L4 43.599v3.369A12.974 12.974 0 0 0 17.002 59.97H47c.803 0 1.584-.083 2.346-.22-.048-1.163-.459-2.312-1.264-3.204L23.29 29.073c-.856-.948-1.973-1.422-3.09-1.422z"/></svg>