<svg xmlns="http://www.w3.org/2000/svg" xmlns:xlink="http://www.w3.org/1999/xlink" xml:space="preserve" width="64" height="64"><defs><linearGradient id="g"><stop offset="0" style="stop-color:#78acc2;stop-opacity:.547207"/><stop offset="1" style="stop-color:#5296b0;stop-opacity:.57270926"/></linearGradient><linearGradient id="e" x1="7.937" x2="7.937" y1="15.081" y2="1.852" gradientTransform="scale(3.7796)" gradientUnits="userSpaceOnUse"><stop offset="0" stop-color="#6c6c6c" style="stop-color:#4f3824;stop-opacity:1"/><stop offset="1" stop-color="#363636" style="stop-color:#865e3c;stop-opacity:1"/></linearGradient><linearGradient id="d" x1="7.937" x2="7.937" y1="15.081" y2="1.852" gradientTransform="scale(3.7796)" gradientUnits="userSpaceOnUse"><stop offset="0" stop-color="#6c6c6c" style="stop-color:#3f2d1d;stop-opacity:1"/><stop offset=".05" stop-color="#6c6c6c" style="stop-color:#553b26;stop-opacity:1"/><stop offset=".199" stop-color="#6c6c6c" style="stop-color:#63452c;stop-opacity:1"/><stop offset=".8" stop-color="#6c6c6c" style="stop-color:#63452c;stop-opacity:1"/><stop offset=".947" stop-color="#6c6c6c" style="stop-color:#513824;stop-opacity:1"/><stop offset="1" stop-color="#363636" style="stop-color:#3f2d1d;stop-opacity:1"/></linearGradient><linearGradient id="c" x1="7.937" x2="7.937" y1="15.081" y2="1.852" gradientTransform="scale(3.7796)" gradientUnits="userSpaceOnUse"><stop offset="0" stop-color="#6c6c6c" style="stop-color:#63452c;stop-opacity:1"/><stop offset="1" stop-color="#363636" style="stop-color:#865e3c;stop-opacity:1"/></linearGradient><linearGradient id="f" gradientUnits="userSpaceOnUse"><stop offset="0" stop-color="#fefefe"/><stop offset=".6" stop-color="#bbbab7"/><stop offset="1" stop-color="#5e5c64"/></linearGradient><linearGradient xlink:href="#a" id="p" x1="100" x2="112" y1="41" y2="41" gradientTransform="translate(114.626 66.42)scale(-.58393)"/><linearGradient id="a" gradientUnits="userSpaceOnUse"><stop offset="0" stop-color="#3f2d1d"/><stop offset=".25" stop-color="#3f2d1d" stop-opacity=".498"/><stop offset=".5" stop-color="#3f2d1d"/><stop offset=".75" stop-color="#3f2d1d" stop-opacity=".498"/><stop offset="1" stop-color="#3f2d1d"/></linearGradient><linearGradient xlink:href="#a" id="q" x1="0" x2="12" y1="0" y2="0" gradientTransform="matrix(.58393 0 0 -.58393 49.226 31.97)"/><linearGradient xlink:href="#b" id="r" x1="100" x2="112" y1="80.25" y2="80.25" gradientTransform="translate(114.626 99.586)scale(-.58393)"/><linearGradient id="b" gradientUnits="userSpaceOnUse"><stop offset="0" stop-color="#3f2d1d"/><stop offset=".155" stop-color="#63452c"/><stop offset=".818" stop-color="#63452c"/><stop offset="1" stop-color="#3f2d1d"/></linearGradient><linearGradient xlink:href="#b" id="s" x1="100" x2="112" y1="86.25" y2="86.25" gradientTransform="translate(114.626 99.586)scale(-.58393)"/><linearGradient xlink:href="#b" id="t" x1="100" x2="112" y1="92.25" y2="92.25" gradientTransform="translate(114.626 99.586)scale(-.58393)"/><linearGradient xlink:href="#c" id="k" x1="7.937" x2="7.937" y1="15.081" y2="1.852" gradientTransform="scale(3.7796)" gradientUnits="userSpaceOnUse"/><linearGradient xlink:href="#d" id="h" x1="1.058" x2="15.875" y1="1.05" y2="1.05" gradientTransform="scale(3.7796)" gradientUnits="userSpaceOnUse"/><linearGradient xlink:href="#d" id="n" x1="29.667" x2="34.339" y1="9.977" y2="9.977" gradientUnits="userSpaceOnUse"/><linearGradient xlink:href="#e" id="o" x1="33.171" x2="33.171" y1="14.649" y2="9.977" gradientUnits="userSpaceOnUse"/><radialGradient xlink:href="#f" id="l" cx="183.217" cy="-92.152" r="3" gradientTransform="matrix(0 .57145 -.6032 0 -33.346 -102.462)"/><radialGradient xlink:href="#f" id="m" cx="183.217" cy="-92.152" r="3" gradientTransform="matrix(0 .57145 .6032 0 97.352 -102.462)"/><radialGradient xlink:href="#g" id="i" cx="28.337" cy="38.198" r="19.272" fx="28.337" fy="38.198" gradientTransform="matrix(1 0 0 .80671 .25 7.628)" gradientUnits="userSpaceOnUse"/></defs><rect width="56.002" height="56.002" x="4" y="3.969" fill="url(#c)" rx="13.002" ry="13.002" style="fill:url(#h)"/><rect width="38.544" height="31.094" x="9.314" y="22.896" ry="2.604" style="fill:url(#i);fill-opacity:.547207;stroke-width:5.297;stroke-linecap:round;stroke-linejoin:round;paint-order:markers stroke fill"/><path d="M17.002 16.97A12.973 12.973 0 0 0 4 29.974V46.97a12.973 12.973 0 0 0 13.002 13H47a12.973 12.973 0 0 0 13.002-13.002V29.973A12.973 12.973 0 0 0 47 16.97zm11.416 7.173c12.612 0 14.126.55 15.135 1.101s2.523 1.103 2.523 13.227-1.514 12.675-2.523 13.226S41.03 52.8 28.418 52.8s-14.126-.55-15.135-1.102c-1.009-.55-2.521-1.102-2.521-13.226s1.512-12.676 2.521-13.227c1.01-.551 2.523-1.101 15.135-1.101" style="fill:url(#k)"/><path fill="url(#l)" d="M22.784 4.398a1.752 1.752 0 1 1-.91-3.383 1.752 1.752 0 0 1 .91 3.383m0 0" style="fill:url(#l);stroke-width:.583926"/><path fill="url(#m)" d="M41.223 4.398a1.752 1.752 0 1 0 .909-3.383 1.752 1.752 0 0 0-.91 3.383m0 0" style="fill:url(#m);stroke-width:.583926"/><path fill="#63452c" d="M30.835 7.642h2.336c.646 0 1.168.522 1.168 1.167v2.336c0 .646-.522 1.168-1.168 1.168h-2.336a1.167 1.167 0 0 1-1.168-1.168V8.81c0-.645.523-1.167 1.168-1.167m0 0" style="fill:url(#n);fill-opacity:1;stroke-width:.583926"/><path fill="#63452c" d="M30.835 9.977h2.336c.646 0 1.168.523 1.168 1.168v2.336c0 .645-.522 1.168-1.168 1.168h-2.336a1.167 1.167 0 0 1-1.168-1.168v-2.336c0-.645.523-1.168 1.168-1.168m0 0" style="stroke-width:.583926;fill:url(#o);fill-opacity:1"/><path d="M28.418 23.04c-16.648 0-17.152.551-17.656 1.103-.505.55-1.01 1.101-1.01 14.328s.505 13.777 1.01 14.328c.504.55 1.008 1.101 17.656 1.101s17.154-.55 17.658-1.101 1.008-1.102 1.008-14.328c0-13.227-.503-13.777-1.008-14.328-.504-.552-1.01-1.104-17.658-1.104m0 1.103c12.612 0 14.126.55 15.135 1.101s2.523 1.103 2.523 13.227-1.514 12.675-2.523 13.226S41.03 52.8 28.418 52.8s-14.126-.55-15.135-1.102c-1.009-.55-2.521-1.102-2.521-13.226s1.512-12.676 2.521-13.227c1.01-.551 2.523-1.101 15.135-1.101" style="fill:#422d1c;fill-opacity:.4619;stroke-width:.527279"/><path fill="url(#p)" d="M52.73 42.48a3.504 3.504 0 0 1-3.504-3.503v-1.168a3.504 3.504 0 0 1 7.007 0v1.168a3.504 3.504 0 0 1-3.503 3.503m0 0" style="fill:url(#p);stroke-width:.583926"/><path fill="#63452c" d="M49.226 38.977a3.504 3.504 0 0 1 7.007 0 3.504 3.504 0 0 1-7.007 0m0 0" style="stroke-width:.583926"/><path fill="#3f2d1d" d="M53.606 40.437a.585.585 0 0 1 1.168 0 .585.585 0 0 1-1.168 0m0 0" style="stroke-width:.583926"/><path fill="url(#q)" d="M52.73 31.97a3.504 3.504 0 0 0 3.503-3.504v-1.168a3.504 3.504 0 0 0-7.007 0v1.168a3.504 3.504 0 0 0 3.504 3.504m0 0" style="fill:url(#q);stroke-width:.583926"/><path fill="#63452c" d="M56.233 28.466a3.504 3.504 0 0 0-7.007 0 3.504 3.504 0 0 0 7.007 0m0 0" style="stroke-width:.583926"/><path fill="#3f2d1d" d="M51.854 29.926a.585.585 0 0 0-1.168 0 .585.585 0 0 0 1.168 0m3.211 23.53h-4.67a1.167 1.167 0 1 1 0-2.336h4.67a1.167 1.167 0 1 1 0 2.336m0 0" style="stroke-width:.583926"/><path fill="url(#r)" d="M55.065 53.456a1.164 1.164 0 0 0 1.13-1.46c-.13.504-.584.876-1.13.876h-4.67c-.546 0-1-.372-1.13-.876a1.164 1.164 0 0 0 1.13 1.46zm0 0" style="fill:url(#r);stroke-width:.583926"/><path fill="#3f2d1d" d="M55.065 49.952h-4.67a1.167 1.167 0 1 1 0-2.336h4.67a1.167 1.167 0 1 1 0 2.336m0 0" style="stroke-width:.583926"/><path fill="url(#s)" d="M55.065 49.952a1.164 1.164 0 0 0 1.13-1.46c-.13.504-.584.876-1.13.876h-4.67c-.546 0-1-.372-1.13-.876a1.164 1.164 0 0 0 1.13 1.46zm0 0" style="fill:url(#s);stroke-width:.583926"/><path fill="#3f2d1d" d="M55.065 46.449h-4.67a1.167 1.167 0 1 1 0-2.336h4.67a1.167 1.167 0 1 1 0 2.336m0 0" style="stroke-width:.583926"/><path fill="url(#t)" d="M55.065 46.449a1.164 1.164 0 0 0 1.13-1.46c-.13.504-.584.876-1.13.876h-4.67c-.546 0-1-.372-1.13-.876a1.164 1.164 0 0 0 1.13 1.46zm0 0" style="fill:url(#t);stroke-width:.583926"/></svg>