<svg xmlns="http://www.w3.org/2000/svg" width="64" height="64" enable-background="new 0 0 1024 1024" image-rendering="optimizeSpeed"><defs><linearGradient id="c" x1="14" x2="34.001" y1="24.006" y2="24.006" gradientUnits="userSpaceOnUse"><stop offset="0" stop-color="#fff"/><stop offset="1" stop-color="#e6e6e6"/></linearGradient><linearGradient id="a" x1="7.937" x2="7.937" y1="15.081" y2="1.852" gradientTransform="translate(0 .032)scale(3.7795)" gradientUnits="userSpaceOnUse"><stop offset="0" stop-color="#292929"/><stop offset="1" stop-color="#4d4d4d"/></linearGradient><filter id="b" width="1.138" height="1.106" x="-.069" y="-.053" color-interpolation-filters="sRGB"><feGaussianBlur stdDeviation=".575"/></filter></defs><rect width="56" height="56" x="4" y="4" fill="url(#a)" rx="13.002" ry="13.002"/><path d="M14.766 14.363a1.034 1.034 0 0 0-.73 1.262l5.531 20.617c.145.543.715.875 1.262.73l12.406-3.324c.547-.145.879-.719.73-1.262l-5.527-20.617a1.044 1.044 0 0 0-1.266-.73m-4.574 7.734s3.992 1.418 5.215 3.01c.867 1.125 1.813 2.883 1.105 4.109-.199.348-.551.566-.949.699-.664.227-1.48.215-2.137.125l.328 1.223 1.027-.277.277 1.031-4.117 1.105-.273-1.031 1.027-.273-.328-1.223c-.848.645-2.164 1.359-3.09.824-1.227-.707-1.289-2.703-1.102-4.109.262-1.988 3.01-5.211 3.01-5.211" filter="url(#b)" opacity=".5" transform="matrix(1.4 0 0 1.4 -1.6 -1.607)"/><path fill="url(#c)" d="M14.766 14.363a1.034 1.034 0 0 0-.73 1.262l5.531 20.617c.145.543.715.875 1.262.73l12.406-3.324c.547-.145.879-.719.73-1.262l-5.527-20.617a1.044 1.044 0 0 0-1.266-.73m-4.574 7.734s3.992 1.418 5.215 3.01c.867 1.125 1.813 2.883 1.105 4.109-.199.348-.551.566-.949.699-.664.227-1.48.215-2.137.125l.328 1.223 1.027-.277.277 1.031-4.117 1.105-.273-1.031 1.027-.273-.328-1.223c-.848.645-2.164 1.359-3.09.824-1.227-.707-1.289-2.703-1.102-4.109.262-1.988 3.01-5.211 3.01-5.211" transform="matrix(1.4 0 0 1.4 -1.6 -1.607)"/></svg>