<svg xmlns="http://www.w3.org/2000/svg" xmlns:xlink="http://www.w3.org/1999/xlink" width="64" height="64"><defs><linearGradient id="a"><stop offset="0" style="stop-color:#f9b208;stop-opacity:1"/><stop offset="1" style="stop-color:#788bff;stop-opacity:.78293848"/></linearGradient><linearGradient id="b" x1="7.937" x2="7.937" y1="15.081" y2="1.852" gradientTransform="scale(3.7796)" gradientUnits="userSpaceOnUse"><stop offset="0" stop-color="#f1efeb" style="stop-color:#f9e8b1;stop-opacity:1"/><stop offset="1" stop-color="#fdfcfc" style="stop-color:#b2bdff;stop-opacity:1"/></linearGradient><linearGradient xlink:href="#a" id="d" x1="32" x2="32" y1="60.001" y2="3.999" gradientUnits="userSpaceOnUse"/><filter id="c" width="1.53" height="1.236" x="-.265" y="-.118" style="color-interpolation-filters:sRGB"><feFlood flood-color="#000" flood-opacity=".169" result="flood"/><feGaussianBlur in="SourceGraphic" result="blur" stdDeviation=".4"/><feOffset in="blur" result="offset"/><feComposite in="flood" in2="offset" operator="in" result="comp1"/><feComposite in="SourceGraphic" in2="comp1" result="comp2"/></filter></defs><rect width="56.002" height="56.002" x="4" y="3.969" fill="url(#b)" rx="13.002" ry="13.002"/><g stroke-linecap="round" stroke-linejoin="round" stroke-width=".2" style="filter:url(#c)" transform="translate(32 32)scale(4.70737)"><path d="m2-4.5-4 5v-2z" class="f1" style="fill:#788bff;stroke:#788bff"/><path d="m0-.5 2 2v-2z" class="f2" style="fill:#f9b208;stroke:#f9b208"/><path d="m.4-.5 1.6-4-4 3v2h1.6" class="l1" style="fill:none;stroke:#788bff"/><path d="m0-.5-2 5 4-3v-2z" class="l2" style="fill:none;stroke:#f9b208"/></g><path fill="#fff" d="M17.001 4C9.814 3.984 3.984 9.814 3.999 17v30c-.016 7.186 5.815 13.016 13.002 13h29.998c7.187.015 13.018-5.815 13.002-13.002V17c.015-7.186-5.815-13.016-13.002-13Zm0 3.03h29.998c5.51-.01 9.981 4.46 9.97 9.97v30c.011 5.511-4.46 9.982-9.97 9.97H17.001c-5.51.012-9.981-4.459-9.97-9.97V17C7.02 11.49 11.49 7.02 17 7.03" opacity=".15" style="display:inline;fill:url(#d);fill-opacity:1;opacity:.10926011"/></svg>