<svg xmlns="http://www.w3.org/2000/svg" width="64" height="64"><defs><linearGradient id="a" x1="8.415" x2="8.415" y1="14.91" y2="2.074" gradientTransform="scale(3.7796)" gradientUnits="userSpaceOnUse"><stop offset="0" stop-color="#ffa355"/><stop offset="1" stop-color="#f55"/></linearGradient><linearGradient id="b" x1="16" x2="48" y1="33.417" y2="33.417" gradientUnits="userSpaceOnUse"><stop offset="0" stop-color="#e0e0e0"/><stop offset="1" stop-color="#fff"/></linearGradient><linearGradient id="d" x1="18" x2="40.747" y1="27.267" y2="27.267" gradientUnits="userSpaceOnUse"><stop offset="0" stop-color="#25a125"/><stop offset="1" stop-color="#6ddb1b"/></linearGradient><linearGradient id="c" x1="24.526" x2="46" y1="35.242" y2="35.242" gradientUnits="userSpaceOnUse"><stop offset="0" stop-color="#c82a2a"/><stop offset="1" stop-color="#eb5151"/></linearGradient></defs><path fill="url(#a)" d="M17.001 4A12.973 12.973 0 0 0 3.999 17v30a12.973 12.973 0 0 0 13.002 13.002h29.998A12.973 12.973 0 0 0 60.001 47V17.001A12.973 12.973 0 0 0 46.999 4z"/><path fill="url(#b)" d="M16 14.417v14.41c.077 5.432.395 9.932 2.693 13.254 2.77 3.985 7.373 7.502 13.307 10.336 5.921-2.828 10.554-6.35 13.318-10.336 2.297-3.322 2.605-7.822 2.681-13.254v-14.41"/><path fill="url(#c)" d="M46 20.618 24.526 45.06c2.11 1.824 4.544 3.376 7.474 4.806 5.182-2.53 9.236-5.668 11.654-9.232 2.012-2.972 2.278-6.998 2.346-11.858"/><path fill="url(#d)" d="M18 16v12.777c.054 3.88.49 7.052 1.588 9.756L40.748 16"/></svg>