<svg xmlns="http://www.w3.org/2000/svg" width="64" height="64"><defs><filter id="a" width="1" height="1" x="0" y="0"><feColorMatrix in="SourceGraphic" values="0 0 0 0 1 0 0 0 0 1 0 0 0 0 1 0 0 0 1 0"/></filter><filter id="f" width="1.291" height="1.297" x="-.145" y="-.149" color-interpolation-filters="sRGB"><feGaussianBlur stdDeviation="2.057"/></filter><filter id="g" width="1.096" height="1.096" x="-.048" y="-.048" color-interpolation-filters="sRGB"><feGaussianBlur stdDeviation=".321"/></filter><filter id="j" width="1.162" height="1.381" x="-.081" y="-.191" color-interpolation-filters="sRGB"><feGaussianBlur stdDeviation=".238"/></filter><filter id="i" width="1.109" height="1.381" x="-.054" y="-.191" color-interpolation-filters="sRGB"><feGaussianBlur stdDeviation=".238"/></filter><filter id="h" width="1.136" height="1.526" x="-.068" y="-.263" color-interpolation-filters="sRGB"><feGaussianBlur stdDeviation=".877"/></filter><linearGradient id="c" x1="30.26" x2="30.26" y1="11.288" y2="52.401" gradientUnits="userSpaceOnUse"><stop offset="0" stop-color="#16c087"/><stop offset="1" stop-color="#239561"/></linearGradient><linearGradient id="b" x1="29.011" x2="29.011" y1="56.512" y2="5.942" gradientTransform="scale(3.7796)" gradientUnits="userSpaceOnUse"><stop offset="0" stop-color="#946743"/><stop offset="1" stop-color="#b5835a"/></linearGradient><clipPath id="d"><path d="M0 0h192v152H0z"/></clipPath><mask id="e"><g filter="url(#a)"><path fill-opacity=".3" d="M0 0h128v128H0z"/></g></mask></defs><rect width="56.002" height="56.002" x="4" y="3.969" fill="url(#b)" rx="13.002" ry="13.002"/><rect width="51.996" height="51.939" x="6.002" y="6" fill="#030000" opacity=".35" rx="11" ry="11"/><rect width="46.002" height="46.002" x="9" y="9" fill="url(#c)" rx="8" ry="8"/><path fill="none" stroke="#f6f5f4" stroke-linecap="round" stroke-linejoin="round" stroke-width="3" d="M17.005 39.571c6.699-3.135 10.725-13.14 11.732-18.021-.603 4.16-3.605 7.289-1.868 10.643 1.09 2.104 3.966 1.8 5.722.795 3.764-2.156 5.097-7.713 5.583-11.047-.767 4.897-3.238 13.752 3.78 11.421"/><g clip-path="url(#d)" mask="url(#e)" transform="translate(-2.5 -11.77)scale(.47917)"><path d="m95.758 85.758 28.285-28.285 2.121-.707 2.121 2.121L128 62l-28 28-5.656-1v-1.828z" filter="url(#f)"/></g><path fill="#fff" d="m42.905 27.885 13.553-13.553 1.496.14 1.016 1.017-.137 1.492-13.417 13.417-2.396-.48.182-.537z"/><path fill="#deddda" d="m45.417 28.959 11.979-12.458-.938-2.17 1.496.141 1.016 1.016-.136 1.492-13.417 13.417-2.396-.479-.116-2.033.595 1.554z" filter="url(#g)" style="mix-blend-mode:normal"/><g transform="translate(0 -7)"><rect width="31" height="8" x="16.5" y="53" filter="url(#h)" opacity=".15" rx="4.5" ry="4.5"/><rect width="31" height="8" x="16.5" y="52" fill="#9e6f4a" rx="4.5" ry="4.5"/><rect width="24" height="2" x="20" y="55" fill="#865e3c" rx="1" ry="1"/><path fill="#fff" d="M34.006 53.992h7.951l.936 1.13v.935l-1.122.935h-7.765l-1.653-1.654.827-.577z"/><path fill="#deddda" d="m35 56 6.11-.33.847-1.678.936 1.13v.935l-1.122.935h-7.765l-1.653-1.653 1.653-1.347-.992 1.347z" filter="url(#i)"/><path fill="#fff" d="M23.248 53.992h5.145l.736 1.13v.935l-.922.935h-4.96l-1.185-1.654.455-.517z"/><path fill="#deddda" d="m24.71 56 2.836-.33.847-1.678.737 1.13v.935l-.923.935h-4.959l-1.185-1.653 1.185-1.347-.524 1.347z" filter="url(#j)"/></g></svg>