<svg xmlns="http://www.w3.org/2000/svg" width="64" height="64"><defs><linearGradient id="b" x1="512.4" x2="512.4" y1="290.23" y2="1201.6" gradientTransform="matrix(.10622 0 0 .11795 -22.427 -36.058)" gradientUnits="userSpaceOnUse"><stop offset="0" stop-color="#fff"/><stop offset="1" stop-color="#bdc3c7"/></linearGradient><linearGradient id="a" x1="7.937" x2="7.937" y1="15.081" y2="1.852" gradientTransform="scale(3.7796)" gradientUnits="userSpaceOnUse"><stop offset="0" stop-color="#f54800"/><stop offset="1" stop-color="#ffb200"/></linearGradient><linearGradient id="d" x1="7" x2="36.5" y1="51.5" y2="51.5" gradientTransform="translate(0 -3)" gradientUnits="userSpaceOnUse"><stop offset="0" stop-color="#ce2e0a"/><stop offset="1" stop-color="#e35f0b"/></linearGradient><filter id="c" width="1.216" height="1.216" x="-.108" y="-.108" color-interpolation-filters="sRGB"><feGaussianBlur stdDeviation=".945"/></filter></defs><path fill="url(#a)" d="M17.002 3.969A12.974 12.974 0 0 0 4 16.97V41h56.002V16.97A12.974 12.974 0 0 0 47 3.97H17.002z"/><path fill="url(#b)" d="M4 41v5.969A12.974 12.974 0 0 0 17.002 59.97H47a12.974 12.974 0 0 0 13.002-13.002V41z"/><path d="M30.5 12v15l-6.75-6.75-2.25 2.25L32 33l10.5-10.5-2.25-2.25L33.5 27V12z" filter="url(#c)" opacity=".15"/><path fill="#fcfcfc" d="M30.5 11v15l-6.75-6.75-2.25 2.25L32 32l10.5-10.5-2.25-2.25L33.5 26V11z"/><path d="M32 44a4.5 4.5 0 0 0-4.5 4.5A4.5 4.5 0 0 0 32 53a4.5 4.5 0 0 0 4.232-3h12.035a4.5 4.5 0 0 0 4.233 3 4.5 4.5 0 0 0 4.5-4.5 4.5 4.5 0 0 0-4.5-4.5 4.5 4.5 0 0 0-4.233 3H36.242A4.5 4.5 0 0 0 32 44" opacity=".35"/><path fill="url(#d)" d="M11.5 44A4.5 4.5 0 0 0 7 48.5a4.5 4.5 0 0 0 4.5 4.5 4.5 4.5 0 0 0 4.232-3h12.035A4.5 4.5 0 0 0 32 53a4.5 4.5 0 0 0 4.5-4.5A4.5 4.5 0 0 0 32 44a4.5 4.5 0 0 0-4.233 3H15.742a4.5 4.5 0 0 0-4.242-3"/></svg>