<svg xmlns="http://www.w3.org/2000/svg" width="64" height="64"><defs><linearGradient id="a" x1="7.937" x2="7.937" y1="15.081" y2="1.852" gradientTransform="scale(3.7796)" gradientUnits="userSpaceOnUse"><stop offset="0" stop-color="#0962ff"/><stop offset="1" stop-color="#23f4ff"/></linearGradient></defs><rect width="56.002" height="56.002" x="4" y="3.969" fill="url(#a)" rx="13.002" ry="13.002"/><path fill="#fff" d="M43.192 19.635c-4.395.96-9.346 1.514-13.52 1.736l.222-1.108c.258-1.22.443-2.438.849-3.73l-5.171-.223c.037 1.22 0 2.106-.185 3.695-.037.443-.148.922-.221 1.477-2.216-.037-4.987-.333-7.167-.702v4.544a76 76 0 0 0 6.317.369c-.96 4.026-2.438 8.902-4.174 12.264l4.322 1.55c.37-.628.627-1.107 1.034-1.588 2.18-2.807 5.91-4.321 10.121-4.321 3.546 0 5.467 1.846 5.467 4.026 0 5.393-8.09 6.353-16.105 5.06l1.294 4.728C38.095 48.668 46 45.714 46 37.476c0-4.654-3.916-7.83-9.826-7.83-3.361 0-6.132.664-9.087 2.29.591-1.774 1.182-4.101 1.662-6.317 4.913-.26 10.713-.96 14.517-1.552z"/></svg>