<svg xmlns="http://www.w3.org/2000/svg" width="64" height="64"><defs><linearGradient id="a" x1="7.937" x2="7.937" y1="15.081" y2="1.852" gradientTransform="scale(3.7796)" gradientUnits="userSpaceOnUse"><stop offset="0" stop-color="#0962ff"/><stop offset="1" stop-color="#23f4ff"/></linearGradient><linearGradient id="b" x1="34.085" x2="34.085" y1="21.424" y2="44.61" gradientUnits="userSpaceOnUse"><stop offset="0" stop-color="#f9f9f9"/><stop offset="1" stop-color="#cdf3ff"/></linearGradient></defs><rect width="56.002" height="56.002" x="4" y="3.969" fill="url(#a)" rx="13.002" ry="13.002"/><path fill="url(#b)" d="M40.842 17.771c-.74 1.972-1.604 4.065-2.586 5.79h-9.098v2.394h3.308v4.257c0 .74-.045 1.6-.126 2.259h-3.988v2.406h3.742c-.493 4.352-2.174 7.368-5.05 9.501l1.725 1.851c3.37-2.465 5.337-6.095 5.915-11.352h5.01V46.23h2.466V34.877H47v-2.406h-4.84v-6.517h4.033v-2.393h-5.351c.905-1.398 1.806-3.24 2.711-5.05zm-18.957.076v4.867h-4.078v2.434h4.078v6.422c-1.56.659-3.083 1.313-4.885 1.972l.86 2.586c1.48-.574 2.712-1.148 4.025-1.726v7.762q0 1.48-.618 1.48c-1.148 0-2.093-.166-3.16-.494l.493 2.586c.986.247 1.891.372 3.038.372q1.48 0 2.093-.74c.413-.492.565-1.357.565-2.585v-9.609l3.787-1.972-.372-2.218c-1.067.493-2.348 1.026-3.415 1.6v-5.44h4.056v-2.43h-4.056v-4.867zm11.563.296-2.46.74c.905 1.147 1.6 2.464 2.093 3.943l2.585-.865a11.9 11.9 0 0 0-2.213-3.818zm1.479 7.811h4.768v6.517H34.81c.076-.574.121-1.313.121-1.883z"/></svg>