<svg xmlns="http://www.w3.org/2000/svg" width="64" height="64"><defs><linearGradient id="a" x1="7.937" x2="7.937" y1="15.081" y2="1.852" gradientTransform="scale(3.7796)" gradientUnits="userSpaceOnUse"><stop offset="0" stop-color="#624484"/><stop offset="1" stop-color="#bd67a3"/></linearGradient><linearGradient id="c" x1="7.937" x2="7.937" y1="3.704" y2="9.789" gradientTransform="scale(3.7796)" gradientUnits="userSpaceOnUse"><stop offset="0" stop-color="#f8fcf8"/><stop offset="1" stop-color="#f8faf8" stop-opacity="0"/></linearGradient><radialGradient id="b" cx="8.466" cy="8.447" r="5.292" gradientTransform="matrix(3.7796 0 0 3.3875 0 3.31)" gradientUnits="userSpaceOnUse"><stop offset="0" stop-color="#fdfefd" stop-opacity="0"/><stop offset="1" stop-color="#e0adcf"/></radialGradient></defs><rect width="56.002" height="56.002" x="4" y="3.969" fill="url(#a)" rx="13.002" ry="13.002"/><path fill="#fdfefd" d="M31.998 14A20.002 16.498 0 0 0 12 30.502a20.002 16.498 0 0 0 7.918 13.123l.102.064a20.002 16.498 0 0 0 .2.125c.515.34 1.478 1.134 1.27 2.154-.28 1.376-1.75 2.805-2.018 3.145s-.48.718.167.737c.725.023 1.973-.382 2.985-.88 1.013-.5 2.23-1.664 3.013-1.902.74-.302 1.663-.404 3.167-.302a20.002 16.498 0 0 0 3.194.234A20.002 16.498 0 0 0 52 30.502 20.002 16.498 0 0 0 31.998 14"/><path fill="url(#b)" d="M31.998 14A20.002 16.498 0 0 0 12 30.502a20.002 16.498 0 0 0 7.918 13.123l.102.064a20.002 16.498 0 0 0 .2.125c.515.34 1.478 1.134 1.27 2.154-.28 1.376-1.75 2.805-2.018 3.145s-.48.718.167.737c.725.023 1.973-.382 2.985-.88 1.013-.5 2.23-1.664 3.013-1.902.74-.302 1.663-.404 3.167-.302a20.002 16.498 0 0 0 3.194.234A20.002 16.498 0 0 0 52 30.502 20.002 16.498 0 0 0 31.998 14"/><path fill="url(#c)" d="M31.998 14A20.002 16.498 0 0 0 12 30.502a20.002 16.498 0 0 0 7.918 13.123l.102.064a20.002 16.498 0 0 0 .2.125c.515.34 1.478 1.134 1.27 2.154-.28 1.376-1.75 2.805-2.018 3.145s-.48.718.167.737c.725.023 1.973-.382 2.985-.88 1.013-.5 2.23-1.664 3.013-1.902.74-.302 1.663-.404 3.167-.302a20.002 16.498 0 0 0 3.194.234A20.002 16.498 0 0 0 52 30.502 20.002 16.498 0 0 0 31.998 14"/></svg>