<svg xmlns="http://www.w3.org/2000/svg" xmlns:xlink="http://www.w3.org/1999/xlink" width="64" height="64"><defs><linearGradient id="b"><stop offset="0" stop-color="#e6ce42"/><stop offset="1" stop-color="#e68642"/></linearGradient><linearGradient id="a"><stop offset="0" stop-color="#4a5ead"/><stop offset="1" stop-color="#7564be"/></linearGradient><linearGradient id="c" x1="7.937" x2="7.937" y1="15.081" y2="1.852" gradientTransform="scale(3.7796)" gradientUnits="userSpaceOnUse"><stop offset="0" stop-color="#44d98a"/><stop offset="1" stop-color="#44d9b3"/></linearGradient><linearGradient xlink:href="#a" id="i" x1="42.435" x2="50.261" y1="24.826" y2="24.826" gradientUnits="userSpaceOnUse"/><linearGradient xlink:href="#a" id="j" x1="13.739" x2="21.565" y1="39.826" y2="39.826" gradientUnits="userSpaceOnUse"/><linearGradient xlink:href="#b" id="e" x1="35.913" x2="46.347" y1="37.869" y2="37.869" gradientUnits="userSpaceOnUse"/><linearGradient xlink:href="#b" id="d" x1="16.348" x2="26.782" y1="26.13" y2="26.13" gradientUnits="userSpaceOnUse"/><linearGradient id="g" x1="24.174" x2="39.826" y1="31.348" y2="31.348" gradientUnits="userSpaceOnUse"><stop offset="0" stop-color="#ad3bba"/><stop offset="1" stop-color="#8245c4"/></linearGradient><linearGradient id="h" x1="24.174" x2="39.826" y1="39.826" y2="39.826" gradientUnits="userSpaceOnUse"><stop offset="0" stop-color="#5be171"/><stop offset="1" stop-color="#5be1d2"/></linearGradient><linearGradient id="f" x1="22.87" x2="41.131" y1="31.999" y2="31.999" gradientUnits="userSpaceOnUse"><stop offset="0" stop-color="#2e2e2e"/><stop offset="1" stop-color="#525252"/></linearGradient></defs><rect width="56.002" height="56.002" x="4" y="3.969" fill="url(#c)" rx="13.002" ry="13.002"/><g stroke-width="1.304"><path fill="url(#d)" d="m21.565 32 5.217-2.609V22.87l-5.217-2.61-5.217 2.61v6.521z"/><path fill="url(#e)" d="m41.13 43.739 5.217-2.609v-6.52L41.13 32l-5.217 2.61v6.521z"/><rect width="18.261" height="33.913" x="22.87" y="15.043" fill="url(#f)" ry="1.304"/><path fill="url(#g)" d="M24.174 17.652h15.652v27.391H24.174z"/><rect width="5.217" height="1.304" x="29.391" y="46.348" fill="#666" ry=".652"/><path fill="url(#h)" d="M26.125 34.609a.65.65 0 0 0-.532 1.019l1.976 2.965a7.81 7.81 0 0 0-3.395 6.45h15.652a7.81 7.81 0 0 0-3.396-6.45l1.977-2.965a.65.65 0 0 0-.553-1.019.65.65 0 0 0-.53.298l-2.03 3.044c-1.003-.466-2.116-.733-3.294-.733s-2.292.267-3.294.733l-2.03-3.044a.65.65 0 0 0-.551-.298m2.614 6.522a.65.65 0 0 1 .652.652.65.65 0 0 1-.652.652.65.65 0 0 1-.652-.652.65.65 0 0 1 .652-.652m6.522 0a.65.65 0 0 1 .652.652.65.65 0 0 1-.652.652.65.65 0 0 1-.653-.652.65.65 0 0 1 .653-.652"/><path fill="#666" d="M30.696 15.043v.652c0 .361.29.652.652.652h1.304a.65.65 0 0 0 .653-.652v-.652z"/><path fill="url(#i)" d="m46.348 29.391 3.913-1.956v-5.218l-3.913-1.956-3.913 1.956v5.218z"/><path fill="url(#j)" d="m17.652 44.391 3.913-1.956v-5.218l-3.913-1.956-3.913 1.956v5.218z"/></g></svg>