<svg xmlns="http://www.w3.org/2000/svg" xml:space="preserve" width="64" height="64"><defs><linearGradient id="a" x1="7.937" x2="7.937" y1="15.081" y2="1.852" gradientTransform="scale(3.7796)" gradientUnits="userSpaceOnUse"><stop offset="0" stop-color="#0e71de"/><stop offset="1" stop-color="#25c9ff"/></linearGradient></defs><rect width="56.002" height="56.002" x="4" y="3.969" fill="url(#a)" rx="13.002" ry="13.002"/><path fill="#fff" d="M32 12a19.94 19.94 0 0 0-14.142 5.857c-7.81 7.81-7.81 20.476 0 28.286 7.81 7.809 20.474 7.809 28.284 0s7.81-20.476 0-28.286A19.94 19.94 0 0 0 32 12m-5.076 10.125a3 3 0 0 1 1.543.387l12.5 7c2.043 1.146 2.043 4.087 0 5.234l-12.5 7c-2 1.119-4.467-.327-4.467-2.618v-14c0-1.718 1.389-2.96 2.924-3.003"/></svg>