<svg xmlns="http://www.w3.org/2000/svg" width="64" height="64"><defs><linearGradient id="b" x1="32.786" x2="33.02" y1="5.061" y2="58.875" gradientUnits="userSpaceOnUse"><stop offset="0" stop-color="#2c5d7e"/><stop offset="1" stop-color="#1e4057"/></linearGradient><clipPath id="a"><path fill="#fa5344" d="M17.002 3.969h29.996C54.174 3.969 60 9.795 60 16.971v29.996c0 7.176-5.826 13.002-13.002 13.002H17.002C9.826 59.969 4 54.143 4 46.967V16.971C4 9.795 9.826 3.969 17.002 3.969"/></clipPath></defs><g clip-path="url(#a)"><path fill="url(#b)" d="M17.002 3.97h29.996C54.174 3.97 60 9.796 60 16.972v29.996c0 7.176-5.826 13.002-13.002 13.002H17.002C9.826 59.97 4 54.144 4 46.968V16.972C4 9.796 9.826 3.97 17.002 3.97"/></g><path fill="#a5de37" d="M32.897 36.137v13.018l15.635-7.067-.265-18.128-12.599 7.246c-2.282 1.63-2.771 3.138-2.771 4.931m-.937-3.871c.611-.978 1.508-1.834 2.812-2.649l13.143-7.6L31.7 13.39l-15.695 8.626 13.143 7.56c1.304.855 2.2 1.71 2.812 2.689m-3.75-1.06-12.439-7.184-.01 17.88 15.262 7.226v-12.99c-.04-1.794-.53-3.301-2.812-4.932"/><path fill="#c8f178" d="m50.828 22.485-4.035 2.323c.123.448.204.896.204 1.386V37.89a4.91 4.91 0 0 1-2.404 4.197l-10.23 5.828a4.9 4.9 0 0 1-1.466.53v4.645c.733-.122 1.426-.326 2.037-.693l13.245-7.62a5.96 5.96 0 0 0 2.975-5.176v-15.2c0-.612-.122-1.305-.326-1.916m-31.42-.49 10.147-5.868c1.508-.855 3.342-.855 4.809 0l10.188 5.869c.53.285.978.692 1.345 1.181l4.034-2.322a5.9 5.9 0 0 0-1.752-1.59l-13.245-7.62a5.97 5.97 0 0 0-5.95 0l-13.204 7.62a6.1 6.1 0 0 0-1.793 1.59l4.034 2.322a6.5 6.5 0 0 1 1.386-1.181m10.147 25.919-10.147-5.869a4.76 4.76 0 0 1-2.404-4.156V26.194c0-.449.081-.897.203-1.345l-4.034-2.323a6.1 6.1 0 0 0-.326 1.915v15.201a6 6 0 0 0 2.975 5.176l13.163 7.58c.611.367 1.304.57 2.037.693v-4.646c-.53-.082-1.018-.285-1.467-.53"/></svg>