<svg xmlns="http://www.w3.org/2000/svg" width="64" height="64" viewBox="0 0 16.933 16.933"><defs><linearGradient id="c" x1="6.576" x2="6.576" y1="1.58" y2="15.33" gradientUnits="userSpaceOnUse"><stop offset="0" stop-color="#f10166"/><stop offset="1" stop-color="#fc3d4a"/></linearGradient><linearGradient id="b" x1="8.466" x2="8.466" y1="1.674" y2="15.346" gradientTransform="matrix(4.3609 0 0 4.3586 -4.92 -4.886)" gradientUnits="userSpaceOnUse"><stop offset="0" stop-color="#f5c80b"/><stop offset="1" stop-color="#dded36"/></linearGradient><linearGradient id="a" x1="7.937" x2="7.937" y1="15.081" y2="1.852" gradientUnits="userSpaceOnUse"><stop offset="0" stop-color="#f1efeb"/><stop offset="1" stop-color="#fdfcfc"/></linearGradient></defs><g color="#000"><path d="M4.37.53C2.254.53.53 2.312.53 4.496v8.468c0 2.184 1.725 3.968 3.84 3.968h8.194c2.114 0 3.84-1.783 3.84-3.968V4.497c0-2.184-1.726-3.968-3.84-3.968zm.256.52h7.681c1.844 0 3.33 1.534 3.33 3.44v7.937c0 1.906-1.485 3.44-3.33 3.44h-7.68c-1.845 0-3.33-1.534-3.33-3.44V4.49c0-1.906 1.485-3.44 3.33-3.44z" opacity=".01" style="font-feature-settings:normal;font-variant-alternates:normal;font-variant-caps:normal;font-variant-east-asian:normal;font-variant-ligatures:normal;font-variant-numeric:normal;font-variant-position:normal;font-variation-settings:normal;inline-size:0;isolation:auto;mix-blend-mode:normal;shape-margin:0;shape-padding:0;text-decoration-color:#000;text-decoration-line:none;text-decoration-style:solid;text-indent:0;text-orientation:mixed;text-transform:none;white-space:normal"/><path d="M4.359.794C2.392.794.795 2.447.795 4.48v8.5c0 2.035 1.597 3.688 3.564 3.688h8.216c1.967 0 3.564-1.653 3.564-3.688v-8.5c0-2.034-1.597-3.687-3.564-3.687zm.272.256h7.672c1.842 0 3.325 1.534 3.325 3.44v7.937c0 1.906-1.483 3.44-3.325 3.44H4.63c-1.842 0-3.325-1.534-3.325-3.44V4.49c0-1.906 1.483-3.44 3.325-3.44z" opacity=".01" style="font-feature-settings:normal;font-variant-alternates:normal;font-variant-caps:normal;font-variant-east-asian:normal;font-variant-ligatures:normal;font-variant-numeric:normal;font-variant-position:normal;font-variation-settings:normal;inline-size:0;isolation:auto;mix-blend-mode:normal;shape-margin:0;shape-padding:0;text-decoration-color:#000;text-decoration-line:none;text-decoration-style:solid;text-indent:0;text-orientation:mixed;text-transform:none;white-space:normal"/><path d="M4.31 1.058c-1.866 0-3.375 1.539-3.375 3.44v8.467c0 1.9 1.57 3.439 3.435 3.439h8.2c1.866 0 3.427-1.538 3.427-3.44V4.498c0-1.9-1.51-3.439-3.375-3.439h-.097c1.794.087 3.214 1.582 3.214 3.432v7.937c0 1.906-1.506 3.44-3.377 3.44h-7.79c-1.871 0-3.377-1.534-3.377-3.44V4.49c0-1.85 1.42-3.345 3.214-3.432z" opacity=".03" style="font-feature-settings:normal;font-variant-alternates:normal;font-variant-caps:normal;font-variant-east-asian:normal;font-variant-ligatures:normal;font-variant-numeric:normal;font-variant-position:normal;font-variation-settings:normal;inline-size:0;isolation:auto;mix-blend-mode:normal;shape-margin:0;shape-padding:0;text-decoration-color:#000;text-decoration-line:none;text-decoration-style:solid;text-indent:0;text-orientation:mixed;text-transform:none;white-space:normal"/><path d="M4 46.969V49c0 6.648 5.896 12 12.544 12h30.961C54.153 61 60 55.648 60 49v-1.992a12.97 12.97 0 0 1-13 12.963H17.002A12.973 12.973 0 0 1 4 46.969" opacity=".03" style="font-feature-settings:normal;font-variant-alternates:normal;font-variant-caps:normal;font-variant-east-asian:normal;font-variant-ligatures:normal;font-variant-numeric:normal;font-variant-position:normal;font-variation-settings:normal;inline-size:0;isolation:auto;mix-blend-mode:normal;shape-margin:0;shape-padding:0;text-decoration-color:#000;text-decoration-line:none;text-decoration-style:solid;text-indent:0;text-orientation:mixed;text-transform:none;white-space:normal" transform="scale(.26458)"/><path d="M1.058 11.906v.592c0 1.939 1.573 3.5 3.332 3.5h8.16c1.76 0 3.325-1.561 3.325-3.5v-.58c-.006 2.095-1.537 3.78-3.44 3.78H4.498c-1.905 0-3.44-1.692-3.44-3.792" opacity=".05" style="font-feature-settings:normal;font-variant-alternates:normal;font-variant-caps:normal;font-variant-east-asian:normal;font-variant-ligatures:normal;font-variant-numeric:normal;font-variant-position:normal;font-variation-settings:normal;inline-size:0;isolation:auto;mix-blend-mode:normal;shape-margin:0;shape-padding:0;text-decoration-color:#000;text-decoration-line:none;text-decoration-style:solid;text-indent:0;text-orientation:mixed;text-transform:none;white-space:normal"/></g><rect width="14.817" height="14.817" x="1.058" y="1.05" fill="url(#a)" rx="3.44" ry="3.44"/><g stroke-width=".751"><path fill="url(#b)" d="M27.4 2.41A30.003 29.987 0 0 0 2.427 27.213c.282-.301 1.37-1.393 2.045-2.08.787-.801 1.234-1.268 2.414-2.453 6.08-6.106 15.824-15.755 19.268-19.059.325-.312 1.051-1.03 1.246-1.21zm13.434.955.088.032a30.003 29.987 0 0 0-.088-.032m-11.408.598c-.015-.015-.074.004-.158.049-.013.006-.032.021-.045.03-.076.043-.16.095-.254.165-.342.253-2.053 1.74-3.924 3.398s-3.904 3.488-4.898 4.42a144 144 0 0 1-3.098 2.817c-.672.58-2.17 1.9-3.33 2.933a317 317 0 0 1-2.67 2.344c-.632.523-2.782 2.428-3.69 3.27-.327.3-.814.718-1.076.927-.261.21-.9.765-1.414 1.23-.484.439-.958.844-1.388 1.202-.433.362-.815.673-1.123.924A30.003 29.987 0 0 0 2 32.02a30.003 29.987 0 0 0 2.21 11.238c.217-.356.584-.916.898-1.403.237-.37.4-.639.681-1.072l3.309-5.12 2.205-3.417 5.494-8.51A7692.6 7688.6 0 0 1 27.738 6.787c1.027-1.582 1.5-2.343 1.645-2.652.047-.101.057-.15.042-.168zM45.184 5.12l-.002.004c-.088.156-.195.32-.318.522l-.002.003a8 8 0 0 0-.412.758 166 166 0 0 0-1.514 3.25C36.046 24.895 31.554 40.93 30.33 54.662q-.131 1.472-.211 2.906a372 372 0 0 1-.236 3.819l-.016.506a30.003 29.987 0 0 0 2.137.11 30.003 29.987 0 0 0 29.998-29.989A30.003 29.987 0 0 0 45.185 5.121zM6.532 47.822l.258.412a30.016 30 0 0 1-.03-.05 30.003 29.987 0 0 1-.224-.362zm5.93 6.926a30.003 29.987 0 0 0 .261.24zm2.298 1.787a30.068 30.053 0 0 0 .22.147 30.003 29.987 0 0 1-.216-.147zm2.561 1.613a30.003 29.987 0 0 0 .393.227c-.131-.07-.262-.153-.393-.227" style="paint-order:markers stroke fill" transform="translate(1.693 1.693)scale(.21165)"/><path fill="url(#c)" d="M8.467 1.58a7 7 0 0 0-1.047.086c-.678.63-5.198 5.122-5.746 5.71l-.015.102c.141-.115.36-.291.586-.496.118-.107.264-.234.324-.282s.172-.144.247-.213c.208-.193.701-.63.846-.75.07-.06.346-.302.612-.538s.61-.54.764-.673c.154-.134.473-.424.71-.646.456-.428 1.866-1.678 2.022-1.794.051-.037.099-.063.106-.056.015.015-.073.164-.387.648A1764 1764 0 0 0 4.98 6.567L3.72 8.519l-1.264 1.96c-.15.231-.277.427-.365.571a6.88 6.88 0 0 0 5.885 4.28l.005-.125c.011-.16.036-.555.054-.876.197-3.51 1.392-7.777 3.286-11.738.07-.147.131-.227.172-.301a6.9 6.9 0 0 0-3.026-.71" transform="matrix(.923 0 0 .92252 .652 .66)"/><path fill="#d8d342" d="M8.073 2.147a6.35 6.346 0 0 0-.406.034 6.35 6.346 0 0 1 .406-.034M2.207 7.461l-.002.003a6.35 6.346 0 0 0-.015.092 6.35 6.346 0 0 1 .017-.095"/></g></svg>