<svg xmlns="http://www.w3.org/2000/svg" xml:space="preserve" style="fill-rule:evenodd;clip-rule:evenodd;stroke-linejoin:round;stroke-miterlimit:2" viewBox="0 0 64 64"><path d="M60 16v32c0 6.63-5.38 12.01-12 12.01H16C9.37 60.01 4 54.63 4 48V16C4 9.38 9.37 4 16 4h32c6.62 0 12 5.38 12 12" style="fill:#fff"/><path d="M60 16v32c0 6.63-5.38 12.01-12 12.01H16C9.37 60.01 4 54.63 4 48V16C4 9.38 9.37 4 16 4h32c6.62 0 12 5.38 12 12" style="fill:url(#a)"/><path d="M30.72 51.75c-4.53-1.13-8.62-5.36-12.54-12.95-4.63-8.98-6-17.13-3.65-21.72.95-1.86 3.23-3.05 5.34-2.79 1.17.15 3.22 1.05 3.75 1.64.57.64 1.36 2.56 1.69 4.12.18.83.38 3.07.45 5.17l.13 3.7.62-1.32c.34-.73.99-1.95 1.43-2.71 1.12-1.91 1.2-2.52.56-4.04s-.68-2.87-.12-3.44c.33-.32.57-.37 1.29-.27l.89.12 1.57-1.59c1.68-1.7 3.35-2.91 4.69-3.38 1.57-.55 3.96-.29 4.7.53l.38.42-.8-.17c-1.66-.35-3.32-.17-4.74.5-2.98 1.42-6.29 6.21-6.52 9.42-.06.86-.01 1.53.14 1.81.28.52.12.81-.23.45-.14-.13-.32-.23-.42-.23-.51 0-2.79 6.16-3.43 9.25-.45 2.17-.41 5.52.07 7.42.38 1.5 1.28 3.49 1.91 4.26l.34.4-.11-.4c-.06-.22-.35-1.17-.64-2.11-.77-2.45-.9-6.63-.3-9.55.49-2.4 1.26-4.72 2.32-7.04.76-1.65.78-1.66 1.39-1.54 1.47.32 1.91.35 1.91.16 0-.12-.26-.3-.58-.42-1.95-.68-1.36-2.64 1.86-6.19l1.32-1.46-.12-1.18c-.12-1.08-.09-1.19.32-1.41.55-.3 1.54-.13 2.06.34.55.49 2.68.58 4.15.17 1.5-.42 3.28-.47 3.71-.11.23.18.31.47.25.88-.05.34.07 1.1.28 1.7s.43 1.82.5 2.71c.15 1.97-.2 3.5-1.25 5.54-.9 1.73-.93 2.46-.2 4.26.62 1.53 1 3.19 1.31 5.73.33 2.64.25 4.5-.29 7.11-.62 2.99-.65 4.46-.1 5.17.83 1.05.33 2.21-1.18 2.72-.96.32-3.02.28-4.03-.07-1.19-.43-2.18-.38-3 .14-.62.39-1.01.45-3.3.49-1.77.04-2.98-.04-3.78-.24m7.04-.6c1.14-.6 1.56-.61 3.24-.08 2.04.65 4.54.2 5.04-.9.2-.44.16-.61-.3-1.27-.68-.99-.69-1.93-.03-4.97.88-4.09.51-9.52-.9-13.03-.33-.83-.6-1.83-.6-2.23 0-.44.36-1.49.92-2.69.69-1.47.94-2.29 1.01-3.22.11-1.35-.01-1.34-.78.06-.47.84-.85.68-.79-.32.05-.86-.26-1.63-.43-1.08-.06.16-.26.79-.45 1.39-.19.61-.61 1.36-.93 1.68-.54.54-.66.57-1.73.48-1.18-.11-2.63-.73-4.17-1.78-1.31-.9-1.47-.8-.96.63.54 1.53.4 2.61-.59 4.57-1.36 2.72-1.59 3.7-1.46 6.43.1 2.09.2 2.57 1.04 4.97 1.39 3.97 1.11 5-1.02 3.75-1.24-.72-3.6-2.99-4.21-4.04-.28-.47-.64-.86-.79-.86-.16 0-.28.05-.28.11s-.1.74-.22 1.51c-.25 1.62 0 4.04.62 6.03.21.68.33 1.31.27 1.41-.19.31-1.47-1.08-2.22-2.42-.39-.7-.94-1.96-1.22-2.8-.46-1.37-.52-1.86-.52-4.44 0-2.5.07-3.21.54-5.08.78-3.09 2.87-8.34 3.33-8.34.09 0 .21-.62.26-1.37.17-2.36 1.89-5.72 4.06-7.95 1.23-1.26 2.31-1.96 3.84-2.48.95-.33 1.05-.41.57-.41-.89-.01-2.41.78-4.06 2.09-.79.64-1.45 1.22-1.46 1.28 0 .07-.27.44-.6.83-.55.64-.71.71-1.95.8l-1.34.1-.06 1.15c-.05.84.05 1.4.37 2.1.6 1.34.54 2.41-.2 3.61-.34.54-1.02 1.88-1.52 2.97-1.16 2.5-1.2 2.59-1.42 2.59-.1 0-.23-2.03-.3-4.51-.19-6.75-.89-8.9-3.29-10.11-1.03-.52-1.41-.61-2.8-.61s-1.72.08-2.54.56c-1.17.69-1.83 1.53-2.4 3.07-.6 1.62-.65 6.53-.09 9.09 1.64 7.54 6.77 17.15 11.24 21.06 2.74 2.19 4.85 3.07 8.67 3.16 2.48.01 2.73-.02 3.61-.49m3.52-22.74c-.34-.22-.6-1.15-.6-1.93 0-.7.34-.95 1.21-.95.53 0 1.89-.57 2.1-.9.07-.11.38-.21.56-.21.4 0 .27.94-.35 2.38-.37.86-.59 1.09-1.34 1.42-1.01.45-.97.67-1.3.46zm1.43-.59c.05-1.4.24-1.38.46-.25.07.35 1.24-1.88 1.24-2.34 0-.28.05-.29-1.09.29-.54.27-1.24.5-1.55.5-.51 0-.57.06-.57.71 0 1.39.75 1.93 1.51 1.09m1.42-8.56c.61-.4 1.23-1.75 1.23-2.58 0-.78-.04-.83-.53-.96-.31-.07-1.2.03-2.07.21-2.57.53-2.94 1.27-1.96 2.21 1.14 1.09 2.74 1.44 3.33 1.12m-6.2-2.65c.47 0 .29-.36-.4-.79-.8-.49-1.58-.54-1.94-.11-.2.24-.2.47-.02 1.09l.24.79.92-.49c.51-.27 1.05-.49 1.2-.49" style="fill:url(#b);fill-rule:nonzero"/><path d="M30.59 51.37c-1.88-.53-3.4-1.39-5.11-2.89-4.47-3.91-9.6-13.52-11.24-21.06-.56-2.56-.51-7.47.09-9.09.57-1.54 1.23-2.38 2.4-3.07.82-.48 1.15-.56 2.54-.56s1.77.09 2.8.61c2.4 1.21 3.1 3.36 3.29 10.11.07 2.48.2 4.51.3 4.51.22 0 .26-.09 1.42-2.59.5-1.09 1.18-2.43 1.52-2.97.74-1.2.8-2.27.2-3.61-.32-.7-.42-1.26-.37-2.1l.06-1.15 1.34-.1c1.24-.09 1.4-.16 1.95-.8.33-.39.6-.76.6-.83.01-.06.67-.64 1.46-1.28 1.65-1.31 3.17-2.1 4.06-2.09.48 0 .37.08-.57.41-1.53.52-2.61 1.22-3.84 2.48-2.17 2.23-3.89 5.59-4.06 7.95-.05.75-.17 1.37-.27 1.37-.45 0-2.54 5.25-3.32 8.35-.47 1.86-.54 2.57-.54 5.07 0 2.58.06 3.07.52 4.44.28.84.83 2.1 1.22 2.8.75 1.34 2.03 2.73 2.22 2.42.06-.1-.06-.73-.27-1.41-.62-1.99-.87-4.41-.62-6.03.12-.77.22-1.45.22-1.51s.12-.11.28-.11c.15 0 .51.39.79.86.61 1.06 2.97 3.32 4.21 4.04 2.13 1.25 2.41.22 1.02-3.75-.84-2.4-.94-2.87-1.04-4.97-.13-2.73.1-3.71 1.46-6.43.99-1.96 1.13-3.04.59-4.57-.51-1.43-.35-1.53.96-.63 1.54 1.05 2.99 1.67 4.17 1.78 1.07.1 1.19.06 1.73-.48.32-.32.74-1.07.93-1.68l.44-1.39c.18-.55.49.23.44 1.08-.06 1 .32 1.16.79.32.77-1.4.89-1.41.78-.06-.07.93-.32 1.75-1.01 3.22-.56 1.2-.92 2.25-.92 2.69 0 .4.27 1.4.6 2.23 1.41 3.51 1.78 8.94.9 13.03-.66 3.04-.65 3.98.03 4.97.46.66.5.83.3 1.27-.5 1.1-3 1.55-5.04.9-1.68-.53-2.11-.52-3.24.09-.88.46-1.13.5-3.61.48-1.48-.01-3.06-.13-3.56-.27m12.27-23.14c.75-.34.97-.57 1.34-1.43.62-1.44.76-2.38.35-2.38-.18 0-.37.09-.44.2-.21.34-1.65 1-2.18 1-.87 0-1.13.2-1.13.91 0 1.07.5 2.08 1.03 2.09.07 0 .53-.18 1.03-.39m-.81-9.17c-.94-.5-1.85-1.42-1.85-1.86 0-.21.22-.53.49-.7.66-.43 3.49-.99 4.17-.82.49.12.55.22.55 1 0 .84-.67 2.18-1.28 2.58-.39.26-1.41.16-2.08-.2m-6.48-2.25c-.18-.62-.18-.86.02-1.1.36-.42 1.14-.38 1.94.11.69.43.87.79.4.79-.15 0-.69.22-1.2.49l-.92.49z" style="fill:url(#c);fill-rule:nonzero"/><defs><linearGradient id="a" x1="0" x2="1" y1="0" y2="0" gradientTransform="matrix(0 56 -48.66283 0 32 4)" gradientUnits="userSpaceOnUse"><stop offset="0" style="stop-color:#fff;stop-opacity:.1"/><stop offset="1" style="stop-color:#000;stop-opacity:.1"/></linearGradient><linearGradient id="b" x1="0" x2="1" y1="0" y2="0" gradientTransform="rotate(-90 40.445 8.743)scale(31.68266)" gradientUnits="userSpaceOnUse"><stop offset="0" style="stop-color:#6c523c;stop-opacity:1"/><stop offset="1" style="stop-color:#ae7952;stop-opacity:.96"/></linearGradient><linearGradient id="c" x1="0" x2="1" y1="0" y2="0" gradientTransform="rotate(-90 41.771 8.165)scale(33.7129)" gradientUnits="userSpaceOnUse"><stop offset="0" style="stop-color:#291d1a;stop-opacity:1"/><stop offset="1" style="stop-color:#513c34;stop-opacity:1"/></linearGradient></defs></svg>