<svg xmlns="http://www.w3.org/2000/svg" width="64" height="64"><defs><linearGradient id="a" x1="7.937" x2="7.937" y1="15.081" y2="1.852" gradientTransform="scale(3.7796)" gradientUnits="userSpaceOnUse"><stop offset="0" stop-color="#363636"/><stop offset="1" stop-color="#6c6c6c"/></linearGradient><linearGradient id="c" x1="32.198" x2="32.198" y1="17.017" y2="48.011" gradientUnits="userSpaceOnUse"><stop offset="0" stop-color="#5cbeff"/><stop offset="1" stop-color="#008eeb"/></linearGradient><filter id="b" width="1.216" height="1.216" x="-.108" y="-.108" color-interpolation-filters="sRGB"><feGaussianBlur stdDeviation="1.89"/></filter><filter id="d" width="1.061" height="1.062" x="-.031" y="-.031" color-interpolation-filters="sRGB"><feGaussianBlur stdDeviation=".537"/></filter></defs><rect width="64" height="64" fill="none" rx="0" ry="0" style="paint-order:stroke fill markers"/><rect width="56.002" height="56.002" x="4" y="3.969" fill="url(#a)" rx="13.002" ry="13.002"/><circle cx="32.02" cy="32.044" r="30.001" fill="none"/><path d="M28.587 12.002c-1.248-.017-1.513.033-1.872.34-.267.228-.485.682-.566 1.18-.036.225-.055 1.8-.055 4.281 0 3.135-.015 3.923-.07 3.923-.039 0-2.039-1.97-4.445-4.38s-4.48-4.452-4.608-4.541c-.349-.243-.97-.524-1.462-.66-.405-.11-.585-.12-2.42-.14-1.09-.012-1.984-.002-1.984.023s4.166 4.21 9.258 9.302c4.73 4.73 8.081 8.063 8.637 8.6V12.007zm6.826 0-.413.006v17.92c.556-.535 3.908-3.869 8.637-8.598 5.092-5.092 9.258-9.277 9.258-9.302s-.893-.035-1.983-.023c-1.836.02-2.015.029-2.42.14-.492.136-1.114.417-1.462.66-.128.089-2.202 2.131-4.609 4.54s-4.406 4.38-4.444 4.38c-.056 0-.07-.787-.07-3.922 0-2.482-.02-4.056-.056-4.28-.08-.5-.299-.953-.566-1.181-.358-.307-.624-.357-1.872-.34m-24.355 7.647c-.06 0-.067.337-.05 1.872.021 1.81.025 1.891.162 2.393a5.6 5.6 0 0 0 .738 1.664c.187.286 1.176 1.312 3.759 3.903l3.504 3.516-3.504 3.512c-2.583 2.59-3.572 3.617-3.76 3.903a5.6 5.6 0 0 0-.737 1.664c-.137.502-.14.584-.161 2.393-.018 1.535-.01 1.872.05 1.872.1 0 13.338-13.243 13.338-13.344 0-.102-13.238-13.348-13.339-13.348m41.884 0c-.1 0-13.339 13.247-13.339 13.348 0 .1 13.238 13.345 13.34 13.345.059 0 .067-.338.05-1.872-.022-1.81-.025-1.892-.162-2.394a5.6 5.6 0 0 0-.738-1.664c-.187-.286-1.176-1.312-3.76-3.903l-3.503-3.512 3.504-3.516c2.583-2.59 3.572-3.617 3.759-3.902a5.6 5.6 0 0 0 .738-1.665c.137-.502.14-.584.161-2.393.018-1.535.01-1.872-.05-1.872M29 36.064c-1.278 1.228-17.895 17.843-17.895 17.898 0 .024.893.038 1.984.026 1.835-.02 2.015-.032 2.42-.144.492-.135 1.113-.413 1.462-.656.128-.089 2.202-2.134 4.608-4.544s4.406-4.38 4.445-4.38c.055 0 .07.788.07 3.923 0 2.481.019 4.056.055 4.28.125.771.5 1.285 1.058 1.45.2.06.559.083 1.348.083.237 0 .263-.01.445-.015zm6 0v17.92c.183.005.209.015.446.015.789 0 1.148-.023 1.347-.082.558-.165.933-.68 1.058-1.45.036-.225.055-1.799.056-4.28 0-3.136.014-3.923.07-3.923.038 0 2.038 1.97 4.444 4.38s4.48 4.454 4.609 4.544c.348.242.97.52 1.462.656.405.111.584.124 2.42.143 1.09.012 1.983-.001 1.983-.026 0-.054-16.617-16.67-17.895-17.898z" filter="url(#b)" opacity=".2"/><path fill="url(#c)" d="M28.587 11.002c-1.248-.017-1.513.033-1.872.34-.267.228-.485.682-.566 1.18-.036.225-.055 1.8-.055 4.281 0 3.135-.015 3.923-.07 3.923-.039 0-2.039-1.97-4.445-4.38s-4.48-4.452-4.608-4.541c-.349-.243-.97-.524-1.462-.66-.405-.11-.585-.12-2.42-.14-1.09-.012-1.984-.002-1.984.023s4.166 4.21 9.258 9.302c4.73 4.73 8.081 8.063 8.637 8.6V11.007zm6.826 0-.413.006v17.92c.556-.535 3.908-3.869 8.637-8.598 5.092-5.092 9.258-9.277 9.258-9.302s-.893-.035-1.983-.023c-1.836.02-2.015.029-2.42.14-.492.136-1.114.417-1.462.66-.128.089-2.202 2.131-4.609 4.54s-4.406 4.38-4.444 4.38c-.056 0-.07-.787-.07-3.922 0-2.482-.02-4.056-.056-4.28-.08-.5-.299-.953-.566-1.181-.358-.307-.624-.357-1.872-.34m-24.355 7.647c-.06 0-.067.337-.05 1.872.021 1.81.025 1.891.162 2.393a5.6 5.6 0 0 0 .738 1.664c.187.286 1.176 1.312 3.759 3.903l3.504 3.516-3.504 3.512c-2.583 2.59-3.572 3.617-3.76 3.903a5.6 5.6 0 0 0-.737 1.664c-.137.502-.14.584-.161 2.393-.018 1.535-.01 1.872.05 1.872.1 0 13.338-13.243 13.338-13.344 0-.102-13.238-13.348-13.339-13.348m41.884 0c-.1 0-13.339 13.247-13.339 13.348 0 .1 13.238 13.345 13.34 13.345.059 0 .067-.338.05-1.872-.022-1.81-.025-1.892-.162-2.394a5.6 5.6 0 0 0-.738-1.664c-.187-.286-1.176-1.312-3.76-3.903l-3.503-3.512 3.504-3.516c2.583-2.59 3.572-3.617 3.759-3.902a5.6 5.6 0 0 0 .738-1.665c.137-.502.14-.584.161-2.393.018-1.535.01-1.872-.05-1.872M29 35.064c-1.278 1.228-17.895 17.843-17.895 17.898 0 .024.893.038 1.984.026 1.835-.02 2.015-.032 2.42-.144.492-.135 1.113-.413 1.462-.656.128-.089 2.202-2.134 4.608-4.544s4.406-4.38 4.445-4.38c.055 0 .07.788.07 3.923 0 2.481.019 4.056.055 4.28.125.771.5 1.285 1.058 1.45.2.06.559.083 1.348.083.237 0 .263-.01.445-.015zm6 0v17.92c.183.005.209.015.446.015.789 0 1.148-.023 1.347-.082.558-.165.933-.68 1.058-1.45.036-.225.055-1.799.056-4.28 0-3.136.014-3.923.07-3.923.038 0 2.038 1.97 4.444 4.38s4.48 4.454 4.609 4.544c.348.242.97.52 1.462.656.405.111.584.124 2.42.143 1.09.012 1.983-.001 1.983-.026 0-.054-16.617-16.67-17.895-17.898z"/><path fill="#fff" d="M28.586 11.002c-1.248-.017-1.512.033-1.871.34-.267.228-.486.683-.567 1.181-.036.225-.054 1.798-.054 4.28 0 3.135-.015 3.924-.07 3.924-.039 0-2.04-1.972-4.446-4.381s-4.48-4.452-4.607-4.541c-.349-.243-.971-.523-1.463-.659-.405-.11-.585-.12-2.42-.14-1.09-.012-1.982-.002-1.982.023 0 .003.894.896.984.989.36-.005.449-.018.998-.012 1.835.02 2.015.03 2.42.14.492.136 1.114.416 1.463.659.128.089 2.2 2.131 4.607 4.54s4.407 4.382 4.446 4.382c.055 0 .07-.79.07-3.924 0-2.482.018-4.055.055-4.28.08-.498.3-.953.566-1.181.359-.307.623-.357 1.871-.34l.414.006v-1zm6.828 0-.414.006v1l.414-.006c1.248-.017 1.512.033 1.871.34.267.228.486.683.567 1.181.036.225.054 1.798.054 4.28 0 3.135.015 3.924.07 3.924.039 0 2.04-1.972 4.446-4.381s4.48-4.452 4.607-4.541c.349-.243.971-.523 1.463-.659.405-.11.585-.12 2.42-.14.55-.006.638.007.998.012.09-.093.985-.986.985-.989 0-.025-.892-.035-1.983-.023-1.835.02-2.015.03-2.42.14-.492.136-1.114.416-1.463.659-.128.089-2.2 2.131-4.607 4.54s-4.407 4.382-4.445 4.382c-.056 0-.07-.79-.07-3.924 0-2.482-.019-4.055-.055-4.28-.081-.498-.3-.953-.567-1.181-.358-.307-.623-.357-1.87-.34zM11.06 18.648c-.049 0-.059.401-.053 1.325.008-.236.025-.325.053-.325.095 0 11.473 11.384 12.852 12.848.086-.09.486-.494.486-.5 0-.1-13.237-13.348-13.338-13.348m41.883 0c-.101 0-13.338 13.246-13.338 13.348 0 .006.4.41.486.5 1.38-1.463 12.756-12.848 12.852-12.848.028 0 .045.09.053.325.006-.924-.004-1.324-.053-1.324zm-34.27 13.848-3.006 3.014c-2.583 2.59-3.57 3.617-3.758 3.902a5.6 5.6 0 0 0-.738 1.665c-.137.502-.141.583-.162 2.392-.01.817-.011 1.28-.002 1.549.001-.205-.001-.27.002-.549.021-1.81.025-1.89.162-2.392.172-.633.403-1.15.738-1.665.187-.285 1.175-1.311 3.758-3.902l3.504-3.514zm26.656 0-.498.5 3.504 3.514c2.583 2.59 3.571 3.617 3.758 3.902.336.514.566 1.032.738 1.665.137.502.141.583.162 2.392.003.279 0 .344.002.549.01-.268.008-.732-.002-1.549-.02-1.81-.025-1.89-.162-2.392a5.6 5.6 0 0 0-.738-1.664c-.187-.286-1.175-1.312-3.758-3.903l-3.006-3.013zM29 35.066c-1.278 1.228-17.895 17.842-17.895 17.896 0 .012.629.009.983.014 1.714-1.76 15.708-15.753 16.912-16.91zm6 0v1c1.204 1.157 15.198 15.15 16.912 16.91.354-.005.983-.001.983-.014 0-.054-16.616-16.669-17.895-17.896" filter="url(#d)" opacity=".2"/></svg>