<svg xmlns="http://www.w3.org/2000/svg" xmlns:xlink="http://www.w3.org/1999/xlink" width="64" height="64"><defs><linearGradient id="c" x1="-130.87" x2="-31.402" y1="236.52" y2="236.52" gradientTransform="matrix(.58334 0 0 .58335 79.047 -105.9)" gradientUnits="userSpaceOnUse"><stop offset=".05" stop-color="#9fa6c2"/><stop offset=".5" stop-color="#d0d3dc"/><stop offset=".95" stop-color="#9fa6c2"/></linearGradient><linearGradient xlink:href="#a" id="d" x1="19" x2="59" y1="37" y2="37" gradientTransform="matrix(.5 0 0 .5091 0 -.104)"/><linearGradient id="a" gradientUnits="userSpaceOnUse"><stop offset="0" stop-color="#99a0c9"/><stop offset=".5" stop-color="#667dff" stop-opacity=".698"/><stop offset="1" stop-color="#99a0c9"/></linearGradient><linearGradient xlink:href="#a" id="e" x1="69" x2="109" y1="37" y2="37" gradientTransform="matrix(.5 0 0 .5091 0 -.104)"/><linearGradient xlink:href="#a" id="f" x1="19" x2="59" y1="89" y2="89" gradientTransform="matrix(.5 0 0 .5091 0 -.104)"/><linearGradient xlink:href="#b" id="g" x1="39" x2="39" y1="69" y2="105" gradientTransform="matrix(.5 0 0 .5091 0 -.104)"/><linearGradient id="b" gradientUnits="userSpaceOnUse"><stop offset="0" stop-color="#fff"/><stop offset="1" stop-color="#e2e7ff"/></linearGradient><linearGradient xlink:href="#b" id="h" x1="39" x2="39" y1="17" y2="53" gradientTransform="matrix(.5 0 0 .5091 0 -.104)"/><linearGradient xlink:href="#b" id="i" x1="89" x2="89" y1="17" y2="53" gradientTransform="matrix(.5 0 0 .5091 0 -.104)"/><linearGradient xlink:href="#a" id="j" x1="69" x2="109" y1="89" y2="89" gradientTransform="matrix(.5 0 0 .5091 0 -.104)"/><linearGradient xlink:href="#b" id="k" x1="89" x2="89" y1="69" y2="105" gradientTransform="matrix(.5 0 0 .5091 0 -.104)"/></defs><rect width="56.002" height="56.002" x="4" y="3.968" fill="url(#c)" rx="13.002" ry="13.002"/><path fill="#fff" d="M17.112 3.969 4 17.322v.717L17.82 3.97zm2.123 0L4 19.48v.721L19.94 3.968zm2.119 0L4 21.639v.722L22.063 3.968zm2.123 0L4 23.799v.718L24.182 3.97zm2.119 0L4 25.959v.72L26.305 3.97zm2.123 0-23.72 24.15v.72L28.425 3.97zm2.121 0L4 30.279V31L30.547 3.97zm2.121 0-27.96 28.47v.72l28.67-29.19zm2.123 0L4 34.599v.721L34.79 3.97zm2.12 0L4 36.758v.722L36.912 3.97zm2.122 0L4 38.918v.72l35.031-35.67zm2.12 0L4 41.08v.719l37.155-37.83zm2.123 0L4 43.24v.719l39.274-39.99zm2.119 0L4 45.399v.72l41.397-42.15zm2.123 0L4.028 47.529c.01.23.014.461.035.688L47.494 3.994c-.165-.006-.327-.025-.494-.025zm-31.186.072c-.28.03-.554.078-.828.125L4.164 14.992c-.041.274-.083.548-.107.828zm33.172.064L4.245 49.47c.038.197.09.388.137.582L49.415 4.199c-.204-.038-.41-.065-.618-.094m1.764.366L4.7 51.166q.09.264.192.523L51.106 4.635q-.27-.089-.545-.164m-37.621.148q-.575.186-1.125.424l-6.83 6.955c-.153.372-.293.75-.412 1.139zm39.203.402L5.33 52.687c.079.16.148.326.233.483L52.62 5.252c-.16-.077-.315-.16-.478-.23m1.412.723L6.102 54.061q.14.214.29.424L53.998 6.012q-.22-.138-.444-.267m1.281.854L7.006 55.297c.108.129.228.248.34.373L55.243 6.902c-.131-.107-.271-.203-.407-.305zm1.158.98L8.05 56.395q.184.173.373.34L56.354 7.931q-.176-.18-.36-.354zm1.04 1.104L9.21 57.372c.136.103.27.209.41.306L57.338 9.09c-.103-.136-.196-.278-.304-.409zm.896 1.246L10.497 58.224q.224.133.453.256L58.2 10.37a13 13 0 0 0-.27-.442zm.768 1.377L11.913 58.94c.169.072.346.127.52.192L58.93 11.789c-.071-.165-.154-.323-.232-.485zm.625 1.525-45.82 46.652q.278.08.564.147l45.426-46.254q-.08-.275-.17-.545m.445 1.707L15.272 59.842q.315.043.635.072L59.864 15.16c-.03-.209-.057-.418-.096-.623m.209 1.943L17.266 59.97h.709L60 17.18v-.248c0-.152-.017-.3-.023-.451zM60 18.617 19.39 59.971h.705L60 19.338zm0 2.162L21.508 59.971h.71L60 21.498zm0 2.16L23.631 59.971h.705L60 23.658zm0 2.157L25.752 59.97h.707L60 25.818zm0 2.16L27.873 59.97h.707L60 27.976zm0 2.162L29.994 59.97h.707l29.3-29.83zm0 2.16L32.115 59.971h.707L60 32.299zm0 2.162L34.237 59.97h.709L60 34.457zm0 2.158L36.36 59.971h.705L60 36.619zm0 2.159L38.48 59.97h.709L60 38.779zm0 2.16L40.602 59.97h.705L60 40.936zm0 2.16L42.72 59.97h.71L60 43.096zm0 2.16L44.844 59.97h.707l14.45-14.713zm0 2.16L46.965 59.97h.036c.238 0 .471-.024.707-.037L59.979 47.44c.005-.145.021-.286.022-.432zm-.177 2.342L49.295 59.758c.305-.054.604-.123.9-.198l9.458-9.629q.1-.44.17-.892m-.856 3.031-6.635 6.756a13 13 0 0 0 1.479-.785l4.384-4.465c.286-.485.55-.983.772-1.506" opacity=".15"/><path fill="url(#d)" fill-rule="evenodd" d="M29.5 18.733c0 5.624-4.476 10.182-10 10.182s-10-4.558-10-10.182 4.477-10.182 10-10.182 10 4.558 10 10.182"/><path fill="url(#e)" fill-rule="evenodd" d="M54.5 18.733c0 5.624-4.476 10.182-10 10.182s-10-4.558-10-10.182 4.477-10.182 10-10.182 10 4.558 10 10.182"/><path fill="url(#f)" fill-rule="evenodd" d="M29.5 45.206c0 5.624-4.476 10.182-10 10.182s-10-4.558-10-10.182 4.477-10.182 10-10.182 10 4.558 10 10.182"/><path fill="url(#g)" fill-rule="evenodd" d="M28.5 44.188c0 5.061-4.03 9.164-9 9.164s-9-4.103-9-9.164 4.03-9.164 9-9.164 9 4.103 9 9.164"/><path fill="url(#h)" fill-rule="evenodd" d="M28.5 17.715c0 5.061-4.03 9.164-9 9.164s-9-4.103-9-9.164 4.03-9.164 9-9.164 9 4.103 9 9.164"/><path fill="url(#i)" fill-rule="evenodd" d="M53.5 17.715c0 5.061-4.03 9.164-9 9.164s-9-4.103-9-9.164 4.03-9.164 9-9.164 9 4.103 9 9.164"/><path fill="url(#j)" fill-rule="evenodd" d="M54.5 45.206c0 5.624-4.476 10.182-10 10.182s-10-4.558-10-10.182 4.477-10.182 10-10.182 10 4.558 10 10.182"/><path fill="url(#k)" fill-rule="evenodd" d="M53.5 44.188c0 5.061-4.03 9.164-9 9.164s-9-4.103-9-9.164 4.03-9.164 9-9.164 9 4.103 9 9.164"/><path fill="#9199d1" fill-rule="evenodd" d="m39.729 47.927 8.443-8.598a.776.79 0 0 1 1.1 0 .776.79 0 0 1 0 1.12l-8.443 8.597a.776.79 0 0 1-1.1 0 .776.79 0 0 1 0-1.12m0-26.473 8.443-8.597a.776.79 0 0 1 1.1 0 .776.79 0 0 1 0 1.12l-8.443 8.597a.776.79 0 0 1-1.1 0 .78.794 0 0 1 0-1.12m-25 0 8.443-8.597a.776.79 0 0 1 1.1 0 .776.79 0 0 1 0 1.12l-8.444 8.597a.776.79 0 0 1-1.1 0 .78.794 0 0 1 0-1.12m.001 26.474 8.443-8.598a.78.794 0 0 1 1.1 0 .776.79 0 0 1 0 1.12l-8.444 8.597a.776.79 0 0 1-1.1 0 .776.79 0 0 1 0-1.12"/></svg>