<svg xmlns="http://www.w3.org/2000/svg" xml:space="preserve" width="64" height="64"><defs><linearGradient id="a" x1="7.937" x2="7.937" y1="15.081" y2="1.852" gradientTransform="scale(3.7796)" gradientUnits="userSpaceOnUse"><stop offset="0" stop-color="#f1efeb"/><stop offset="1" stop-color="#fdfcfc"/></linearGradient></defs><rect width="56" height="56" x="4" y="4" fill="url(#a)" rx="13" ry="13" style="fill:url(#a)"/><rect width="56" height="56" x="4" y="4" fill="url(#a)" rx="13" ry="13" style="fill:#f1ebdb;fill-opacity:1;stroke:#5e5c64;stroke-width:2;stroke-dasharray:none;stroke-opacity:1"/><path fill="#5e5c64" d="m-38.965 69.237 1.665-1.373a12.8 12.8 0 0 1-2.013-3.41l-2.004.795a15 15 0 0 0 2.352 3.988m1.606 1.671a15.2 15.2 0 0 0 3.88 2.52l.884-1.966a13 13 0 0 1-3.326-2.162zm-4.647-7.873 2.102-.482a13 13 0 0 1-.289-3.956l-2.149-.178a15.1 15.1 0 0 0 .336 4.616M-27.77 76.98c5.36 6.37 14.9 7.192 21.27 1.832C-.13 73.455.69 63.915-4.667 57.545a15.02 15.02 0 0 0-9.403-5.21l-.002-.006-.112-.012-.072-.009q-.752-.1-1.508-.119l-.16-.006a19 19 0 0 0-.784.002q.18.258.348.518.11.175.214.354l.108.176q.15.264.29.534.118.234.23.476.019.037.036.076a12.92 12.92 0 0 1-3.46 15.236 12.9 12.9 0 0 1-9.899 2.942q-.142-.018-.284-.039a15 15 0 0 1-.687-.116q-.338-.067-.673-.15.212.617.48 1.212l.004.013q.081.175.165.35l.123.261q.107.206.217.411c.027.05.05.098.078.147h.002c.47.85 1.02 1.652 1.646 2.395zm-14.205-20.853 2.098.505c.312-1.292.82-2.528 1.51-3.665l-1.845-1.118a15.1 15.1 0 0 0-1.763 4.278m3.11-6.164 1.654 1.383a13 13 0 0 1 2.98-2.615l-1.156-1.82a15 15 0 0 0-3.478 3.052m6.389-2.165a13 13 0 0 1 3.837-1.01l-.225-2.146a15.2 15.2 0 0 0-4.474 1.179zm5.826-1.067a12.8 12.8 0 0 1 3.88.8l.757-2.018a15 15 0 0 0-4.533-.937zm5.685 1.64a13 13 0 0 1 3.122 2.445l1.574-1.472a15.2 15.2 0 0 0-3.64-2.855zm0 0" style="stroke-width:.542996" transform="translate(53.76 -31.464)"/><g stroke="#f4ecd8" stroke-linecap="round" stroke-linejoin="round" stroke-miterlimit="10" stroke-width=".659"><path fill="#77767b" d="M18.506 22H5.496a.503.503 0 0 1-.502-.5v-18c0-.27.222-.499.501-.499h13.01a.5.5 0 0 1 .5.499v18.01a.503.503 0 0 1-.5.49m0 0" transform="matrix(.91899 0 0 .84202 14.54 17.783)"/><path fill="none" d="M12.994 19h3M7.995 9.999h7m-7 2h7m-7-3.998h8m-8-2h8m-8 7.998h5.43" transform="matrix(.91899 0 0 .84202 14.54 17.783)"/><path fill="#77767b" d="m18.503 22.001-13.008.002a.51.51 0 0 1-.5-.5V3.498a.5.5 0 0 1 .5-.498l13.01-.002c.27 0 .499.223.5.5l-.002 18.01a.51.51 0 0 1-.5.492m-5.507-3.002h3M7.998 10h6.999m-6.999 1.998h6.999M7.992 8.002l8.005-.004M7.993 5.999 15.997 6m-8 8.001h5.428" transform="rotate(179.004 23.338 22.614)scale(.401 .36741)"/></g></svg>