<svg xmlns="http://www.w3.org/2000/svg" width="64" height="64" fill="none"><defs><linearGradient id="a" x1=".5" x2=".5" y2="1"><stop offset="0" stop-color="#fbaeae"/><stop offset="1" stop-color="#f88c8c"/></linearGradient><linearGradient id="b" x1=".093" x2=".71" y1="-.018" y2=".977"><stop offset="0" stop-color="#f66161"/><stop offset="1" stop-color="#f44444"/></linearGradient><pattern id="c" width="20.007" height="30.01" x="32.001" y="21.966" patternUnits="userSpaceOnUse"><path fill="url(&quot;#a&quot;)" d="M0 0h20.007v30.01H0z"/></pattern><pattern id="d" width="28.67" height="30.008" x="11.994" y="21.969" patternUnits="userSpaceOnUse"><path fill="url(&quot;#b&quot;)" d="M0 0h28.67v30.008H0z"/></pattern></defs><rect width="56.002" height="56.002" x="4" y="3.969" fill="#fff" rx="13.002" ry="13.002"/><path fill="url(#c)" d="m32 32 8.663 5.001L32 52.006c11.05 0 20.007-8.957 20.007-20.006 0-3.645-.98-7.06-2.683-10.004H32z" class="fills"/><path fill="#e11919" d="M32 11.994c-7.405 0-13.866 4.026-17.325 10.006l8.661 15.002L32 32.001V21.997h17.324c-3.46-5.978-9.92-10.003-17.324-10.003" class="fills"/><path fill="url(#d)" d="M11.993 32c0 11.049 8.957 20.006 20.007 20.006l8.663-15.005L32 32l-8.663 5.001-8.662-15.002A19.9 19.9 0 0 0 11.993 32" class="fills"/><path fill="#fff" d="M42.004 32c0 5.524-4.479 10.003-10.004 10.003S21.996 37.524 21.996 32c0-5.525 4.479-10.004 10.004-10.004S42.004 26.475 42.004 32" class="fills"/><path fill="#ee2d2d" d="M40.128 32a8.128 8.128 0 1 1-16.256 0 8.128 8.128 0 0 1 16.256 0" class="fills"/></svg>