<svg xmlns="http://www.w3.org/2000/svg" width="64" height="64" viewBox="0 0 16.933 16.933"><defs><clipPath id="n"/><clipPath id="d"/><clipPath id="f"/><clipPath id="h"/><clipPath id="j"/><clipPath id="l"/><mask id="o" maskUnits="userSpaceOnUse"><g filter="url(#a)"><path fill-opacity=".528" d="M0 0h128v128H0z"/></g></mask><mask id="e" maskUnits="userSpaceOnUse"><g filter="url(#a)"><path fill-opacity=".528" d="M0 0h128v128H0z"/></g></mask><mask id="g" maskUnits="userSpaceOnUse"><g filter="url(#a)"><path fill-opacity=".528" d="M0 0h128v128H0z"/></g></mask><mask id="i" maskUnits="userSpaceOnUse"><g filter="url(#a)"><path fill-opacity=".528" d="M0 0h128v128H0z"/></g></mask><mask id="k" maskUnits="userSpaceOnUse"><g filter="url(#a)"><path fill-opacity=".528" d="M0 0h128v128H0z"/></g></mask><mask id="m" maskUnits="userSpaceOnUse"><g filter="url(#a)"><path fill-opacity=".528" d="M0 0h128v128H0z"/></g></mask><radialGradient id="p" cx="140.51" cy="332.56" r="60" gradientTransform="matrix(.26626 0 0 .15056 -21.342 -37.055)" gradientUnits="userSpaceOnUse"><stop offset="0" stop-color="#5e5c64" stop-opacity=".596"/><stop offset="1" stop-color="#fff" stop-opacity="0"/></radialGradient><radialGradient id="q" cx="44.28" cy="234.82" r="60" gradientTransform="matrix(.16441 0 0 .1469 -2.43 -27.938)" gradientUnits="userSpaceOnUse"><stop offset="0" stop-color="#fff" stop-opacity=".58"/><stop offset=".592" stop-color="#d2d2d2" stop-opacity=".286"/><stop offset="1" stop-color="#fff" stop-opacity="0"/></radialGradient><filter id="a" width="1" height="1" x="0" y="0"><feColorMatrix in="SourceGraphic" values="0 0 0 0 1 0 0 0 0 1 0 0 0 0 1 0 0 0 1 0"/></filter><filter id="c" width="1.235" height="1.392" x="-.118" y="-.196" color-interpolation-filters="sRGB"><feGaussianBlur stdDeviation=".745"/></filter><linearGradient id="b" x1="1.058" x2="15.875" y1="8.459" y2="8.459" gradientTransform="translate(-16.925 .008)" gradientUnits="userSpaceOnUse"><stop offset="0" stop-color="#203e5e"/><stop offset="1" stop-color="#9ebbdf"/></linearGradient></defs><rect width="14.817" height="14.817" x="-15.867" y="1.058" fill="url(#b)" rx="3.44" ry="3.44" transform="rotate(-90)"/><path d="M8.467 4.155a7.603 7.603 0 0 0-7.603 7.602v1.52h3.041v-1.52h9.123v1.52h3.042v-1.52a7.603 7.603 0 0 0-7.603-7.603zm0 3.547a4.06 4.06 0 0 1 3.757 2.534H4.721a4.06 4.06 0 0 1 3.746-2.534" filter="url(#c)" opacity=".15"/><path d="M8.184 1.05v3.363H4.935V1.079H4.37v3.334H1.058v.555H4.37V8.16H1.122v.588H4.37v3.59H1.122v.587H4.37v2.942h.565v-2.942h3.25v2.942h.564v-2.942h3.252v2.942h.565v-2.942h3.245v-.587h-3.245v-3.59h3.245V8.16h-3.245V4.968h3.309v-.555h-3.31V1.05h-.564v3.363H8.749V1.05zM4.935 4.968h3.25V8.16h-3.25zm3.814 0h3.252V8.16H8.749zm-3.814 3.78h3.25v3.59h-3.25zm3.814 0h3.252v3.59H8.749z" opacity=".15"/><path fill="#77767b" d="M.897 11.495a8 8 0 0 0-.033.507v1.014h3.041v-1.014h9.123v1.014h3.042v-1.014a8 8 0 0 0-.034-.507zm7.57-4.561a4.56 4.56 0 0 0-4.29 3.041h.544A4.06 4.06 0 0 1 8.467 7.44a4.06 4.06 0 0 1 3.757 2.534h.543a4.56 4.56 0 0 0-4.3-3.041z"/><path fill="#c0bfbc" d="M8.467 3.892a7.603 7.603 0 0 0-7.603 7.603v1.014h3.041v-1.014h9.123v1.014h3.042v-1.014a7.603 7.603 0 0 0-7.603-7.603m0 3.041a4.56 4.56 0 0 1 4.3 3.042H4.175a4.56 4.56 0 0 1 4.292-3.042"/><path fill="#3d3846" d="m54.54 46.563 3.862-1.036 2.59 9.66-3.863 1.036z" clip-path="url(#d)" mask="url(#e)" transform="translate(-.656 -1.684)scale(.12671)"/><path fill="#3d3846" d="m85.598 45.527 3.863 1.035-2.59 9.66-3.863-1.035z" clip-path="url(#f)" mask="url(#g)" transform="translate(-.656 -1.684)scale(.12671)"/><path fill="#3d3846" d="m113.01 60.16 2.828 2.828-7.07 7.07-2.829-2.828z" clip-path="url(#h)" mask="url(#i)" transform="translate(-.656 -1.684)scale(.12671)"/><path fill="#3d3846" d="m28.16 62.988 2.828-2.828 7.07 7.07-2.828 2.829z" clip-path="url(#j)" mask="url(#k)" transform="translate(-.656 -1.684)scale(.12671)"/><path fill="#3d3846" d="m13.527 90.402 1.036-3.863 9.66 2.59-1.035 3.863z" clip-path="url(#l)" mask="url(#m)" transform="translate(-.656 -1.684)scale(.12671)"/><path fill="#3d3846" d="m129.44 86.54 1.035 3.862-9.66 2.59-1.036-3.863z" clip-path="url(#n)" mask="url(#o)" transform="translate(-.656 -1.684)scale(.12671)"/><path fill="url(#p)" d="M8.467 3.892a7.603 7.603 0 0 0-7.603 7.603v1.52h3.041v-1.52h9.123v1.52h3.042v-1.52a7.603 7.603 0 0 0-7.603-7.603m0 3.548a4.06 4.06 0 0 1 3.757 2.534H4.721A4.06 4.06 0 0 1 8.467 7.44"/><path fill="url(#q)" d="M8.467 3.892a7.603 7.603 0 0 0-7.603 7.603v1.52h3.041v-1.52h9.123v1.52h3.042v-1.52a7.603 7.603 0 0 0-7.603-7.603m0 3.548a4.06 4.06 0 0 1 3.757 2.534H4.721A4.06 4.06 0 0 1 8.467 7.44"/></svg>