<svg xmlns="http://www.w3.org/2000/svg" xmlns:xlink="http://www.w3.org/1999/xlink" width="64" height="64"><defs><linearGradient id="c"><stop offset="0" style="stop-color:#f6f4f1;stop-opacity:1"/><stop offset="1" style="stop-color:#f2f0ec;stop-opacity:1"/></linearGradient><linearGradient id="b"><stop offset="0" style="stop-color:#f4f3f0;stop-opacity:1"/><stop offset="1" style="stop-color:#f1efeb;stop-opacity:1"/></linearGradient><linearGradient id="a"><stop offset="0" style="stop-color:#f6f4f2;stop-opacity:1"/><stop offset="1" style="stop-color:#f2f0ec;stop-opacity:1"/></linearGradient><linearGradient id="d" x1="7.937" x2="7.937" y1="15.081" y2="1.852" gradientTransform="scale(3.7796)" gradientUnits="userSpaceOnUse"><stop offset="0" stop-color="#f1efeb"/><stop offset="1" stop-color="#fdfcfc"/></linearGradient><linearGradient id="h" x1="88.834" x2="98.834" y1="86" y2="86" gradientTransform="translate(-6.46 -3.953)scale(.60522)" gradientUnits="userSpaceOnUse"><stop offset="0" stop-color="#5e5c64"/><stop offset=".076" stop-color="#9a9996"/><stop offset=".158" stop-color="#5e5c64"/><stop offset=".836" stop-color="#5e5c64"/><stop offset=".919" stop-color="#9a9996"/><stop offset="1" stop-color="#5e5c64"/></linearGradient><linearGradient xlink:href="#a" id="f" x1="54.1" x2="54.1" y1="41.437" y2="49.105" gradientUnits="userSpaceOnUse"/><linearGradient xlink:href="#b" id="g" x1="52.199" x2="52.199" y1="45.557" y2="53.226" gradientUnits="userSpaceOnUse"/><linearGradient xlink:href="#c" id="e" x1="47.205" x2="47.205" y1="41.752" y2="54.566" gradientUnits="userSpaceOnUse"/></defs><rect width="56" height="56" x="4" y="4" fill="url(#d)" rx="13" ry="13" style="fill:url(#d)"/><rect width="51.818" height="51.818" x="6.091" y="6.091" fill="url(#d)" rx="12.029" ry="12.029" style="fill:#deddda;fill-opacity:1;stroke-width:.925325"/><path fill="none" stroke="#5e5c64" stroke-width="4.595" d="M15.295 51.637q0-.345.007-.686m10.762-24.317q.24-.244.484-.485m24.318-10.761q.341-.008.685-.008"/><path fill="none" stroke="#5e5c64" stroke-width="2.298" d="M15.295 51.637q0-.287.005-.575m.248-3.42q.036-.285.078-.566m.662-3.347q.07-.275.142-.549m1.047-3.246.206-.53m1.404-3.113.263-.506m1.735-2.953q.155-.24.314-.477m2.033-2.768.365-.443m2.305-2.55q.2-.206.406-.407m2.551-2.305q.221-.184.445-.364m2.766-2.033q.236-.159.477-.315m2.953-1.735.506-.262m3.113-1.405.532-.205m3.244-1.048q.274-.073.548-.142m3.348-.662q.281-.042.565-.078m3.42-.248.575-.004"/><path fill="#5e5c64" d="m17.22 40.556.016-.066a1.21 1.21 0 0 1 1.485-.856l33.738 9.04c.648.173 1.028.835.856 1.483l-.019.066a1.206 1.206 0 0 1-1.482.856l-33.739-9.04a1.206 1.206 0 0 1-.856-1.483m0 0" style="stroke-width:.605217"/><path fill="#77767b" d="m17.22 39.934.016-.066a1.21 1.21 0 0 1 1.485-.856l33.738 9.04c.648.173 1.028.835.856 1.483l-.019.066a1.21 1.21 0 0 1-1.482.856l-33.739-9.04a1.206 1.206 0 0 1-.856-1.483m0 0" style="stroke-width:.605217"/><rect width="12.814" height="21.062" x="40.798" y="37.628" rx="2.505" ry="0" style="fill:url(#e);fill-opacity:1;stroke-width:.979794"/><rect width="7.245" height="10.584" x="40.801" y="49.027" rx="1.416" ry="0" style="fill:#f2f0ec;fill-opacity:1;stroke-width:.52223"/><rect width="7.669" height="15.289" x="50.266" y="37.626" rx="1.499" ry="0" style="fill:url(#f);fill-opacity:1;stroke-width:.645783"/><rect width="7.669" height="13.589" x="48.365" y="42.597" rx="1.499" ry="0" style="fill:url(#g);fill-opacity:1;stroke-width:.608819"/><path fill="url(#h)" d="M53.357 48.095a3.026 3.026 0 1 1-6.053 0 3.026 3.026 0 0 1 6.053 0m0 0" style="fill:url(#h);stroke-width:.605217"/><path fill="#77767b" d="M53.357 47.49a3.026 3.026 0 1 1-6.053 0 3.026 3.026 0 0 1 6.053 0m0 0" style="stroke-width:.605217"/><path fill="#5e5c64" d="M51.873 46.599c.092.158-.024.392-.258.527l-2.241 1.296c-.234.134-.497.115-.586-.04-.093-.16.023-.393.257-.528l2.242-1.295c.234-.135.496-.116.586.04M13.172 23.232l-1.475-9.029h1.154l.89 7.064 1.084-7.064h1.08l1.083 7.064.891-7.064h1.154l-1.475 9.029H16.46l-1.095-7.223-1.097 7.223Zm0 0"/></svg>