<svg xmlns="http://www.w3.org/2000/svg" width="64" height="64"><defs><linearGradient id="a" x1="7.937" x2="7.937" y1="15.081" y2="1.852" gradientTransform="scale(3.7796)" gradientUnits="userSpaceOnUse"><stop offset="0" stop-color="#8034a9"/><stop offset="1" stop-color="#d16df6"/></linearGradient><linearGradient id="b" x1="31.028" x2="31.028" y1="24.105" y2="57.854" gradientUnits="userSpaceOnUse"><stop offset="0" stop-color="#fff"/><stop offset="1" stop-color="#e7d4f0"/></linearGradient></defs><rect width="56.002" height="56.002" x="4" y="3.969" fill="url(#a)" rx="13.002" ry="13.002"/><path fill="url(#b)" d="M47.881 17.006c-.913-.043-3.487.261-7.508 3.059-2.25-.679-4.817-.929-7.494-.922-2.449.006-4.987.205-7.455.922-4.022-2.798-6.078-3.1-6.992-3.057-.305.014-.451.06-.451.06-1.53 3.967-.563 6.9-.274 7.63-1.796 2.013-2.85 4.584-2.85 7.73 0 11.044 7.156 13.519 13.392 14.246-.802.72-1.306 2.209-1.56 4.07-1.6.738-5.893 2.543-8.397-1.861 0 0-1.483-2.767-4.301-2.97 0 0-2.74-.036-.19 1.751 0 0 1.84.887 3.118 4.217 0 0 1.898 5.067 9.709 3.326.005 1.02.01 2.95.015 4.764h13.928c.007-2.78.014-5.9.014-7.982 0-2.688-1.11-4.446-2.117-5.336 6.254-.713 12.82-3.153 12.82-14.225 0-3.146-.875-5.72-2.674-7.733.288-.729 1.253-3.66-.28-7.627 0 0-.146-.048-.45-.062z"/></svg>