<svg xmlns="http://www.w3.org/2000/svg" xmlns:xlink="http://www.w3.org/1999/xlink" width="64" height="64" viewBox="0 0 16.933 16.933"><defs><clipPath id="d"/><clipPath id="e"/><clipPath id="f"/><clipPath id="g"/><clipPath id="h"/><clipPath id="i"/><clipPath id="j"/><clipPath id="k"/><clipPath id="l"/><clipPath id="m"/><clipPath id="n"/><clipPath id="o"/><clipPath id="p"/><clipPath id="q"/><clipPath id="r"/><clipPath id="s"/><clipPath id="t"/><clipPath id="u"/><clipPath id="v"/><clipPath id="w"/><clipPath id="x"/><clipPath id="y"/><clipPath id="z"/><clipPath id="A"/><linearGradient id="a"><stop offset="0" style="stop-color:#2a3542;stop-opacity:1"/><stop offset="1" style="stop-color:#1b1f22;stop-opacity:1"/></linearGradient><linearGradient id="b" x1="7.937" x2="7.937" y1="15.081" y2="1.852" gradientUnits="userSpaceOnUse" spreadMethod="pad"><stop offset="0" stop-color="#2858e4" style="stop-color:#0131ff;stop-opacity:1"/><stop offset=".137" stop-color="#2858e4" style="stop-color:#01ffdd;stop-opacity:1"/><stop offset=".258" stop-color="#2858e4" style="stop-color:#02ff20;stop-opacity:1"/><stop offset=".386" stop-color="#2858e4" style="stop-color:#c1ff01;stop-opacity:1"/><stop offset=".507" stop-color="#2858e4" style="stop-color:#f3ff01;stop-opacity:1"/><stop offset=".637" stop-color="#2858e4" style="stop-color:#fa8d00;stop-opacity:1"/><stop offset=".751" stop-color="#2858e4" style="stop-color:#ff0101;stop-opacity:1"/><stop offset=".878" stop-color="#2858e4" style="stop-color:#f901be;stop-opacity:1"/><stop offset="1" stop-color="#5ab9f4" style="stop-color:#9202ff;stop-opacity:1"/></linearGradient><linearGradient id="B" x1="2" x2="40" y1="87" y2="87" gradientTransform="rotate(-16.6 15.819 -31.316)scale(.11277)" gradientUnits="userSpaceOnUse"><stop offset="0" stop-color="#3584e4"/><stop offset="1" stop-color="#33d17a"/></linearGradient><linearGradient id="C" x1="2" x2="40" y1="52" y2="52" gradientTransform="rotate(-16.6 15.819 -31.316)scale(.11277)" gradientUnits="userSpaceOnUse"><stop offset="0" stop-color="#9a9996"/><stop offset=".646" stop-color="#c0bfbc"/><stop offset="1" stop-color="#77767b"/></linearGradient><linearGradient xlink:href="#a" id="c" x1="8.467" x2="8.467" y1="1.05" y2="15.867" gradientUnits="userSpaceOnUse"/></defs><rect width="14.817" height="14.817" x="1.058" y="1.05" fill="url(#b)" rx="3.44" ry="3.44" style="fill:url(#c);fill-opacity:1"/><path fill="#fff" fill-opacity=".2" d="M1.904 10.343H15.03c.143 0 .26.081.26.18v2.168c0 .1-.117.18-.26.18H1.904c-.143 0-.26-.08-.26-.18v-2.167c0-.1.117-.18.26-.18zm0 0" style="stroke-width:.108323"/><g clip-path="url(#d)" transform="matrix(.1312 0 0 .14022 -.718 -2.002)"><g clip-path="url(#e)"><path fill="#fff" fill-opacity=".2" d="M49 32h26a3 3 0 0 1 3 3v6a3 3 0 0 1-3 3H49a3 3 0 0 1-3-3v-6a3 3 0 0 1 3-3m0 0"/></g></g><g clip-path="url(#f)" transform="matrix(.1312 0 0 .14022 -.718 -2.002)"><g clip-path="url(#g)"><path fill="#fff" fill-opacity=".4" d="M52 36h20a1.999 1.999 0 1 1 0 4H52a1.999 1.999 0 1 1 0-4m0 0"/></g></g><g clip-path="url(#h)" transform="matrix(.17397 0 0 .1676 -6.193 -3.072)"><g clip-path="url(#i)"><path fill="#fff" fill-opacity=".2" d="M112 34v2l2 2-2 2v2h2l2-2 2 2h2v-2l-2-2 2-2v-2h-2l-2 2-2-2zm0 0"/></g></g><g clip-path="url(#j)" transform="matrix(.1312 0 0 .14022 -.718 -2.002)"><g clip-path="url(#k)"><path fill="#fff" fill-opacity=".4" d="M24 36h14a1.999 1.999 0 1 1 0 4H24a1.999 1.999 0 1 1 0-4m0 0"/></g></g><g clip-path="url(#l)" transform="matrix(.1312 0 0 .1676 -.718 -3.072)"><g clip-path="url(#m)"><path fill="#fff" fill-opacity=".4" d="M86 36.504h14c1.105 0 2 .749 2 1.674s-.895 1.673-2 1.673H86c-1.105 0-2-.748-2-1.673s.895-1.674 2-1.674m0 0" style="stroke-width:.91467"/></g></g><g clip-path="url(#n)" transform="matrix(.1312 0 0 .14484 -.718 -2.372)"><g clip-path="url(#o)"><path fill="#fff" fill-opacity=".2" d="M20 54h100a2 2 0 0 1 2 2v28a2 2 0 0 1-2 2H20a2 2 0 0 1-2-2V56a2 2 0 0 1 2-2m0 0"/></g></g><g clip-path="url(#p)" transform="matrix(.12498 0 0 .10686 -.282 1.056)"><g clip-path="url(#q)"><path fill="#fff" fill-opacity=".2" d="M20 90h46a2 2 0 0 1 2 2v14a2 2 0 0 1-2 2H20a2 2 0 0 1-2-2V92a2 2 0 0 1 2-2m0 0"/></g></g><g clip-path="url(#r)" transform="matrix(.12498 0 0 .10686 -.282 1.056)"><g clip-path="url(#s)"><path fill="#fff" fill-opacity=".2" d="M74 90h46a2 2 0 0 1 2 2v14a2 2 0 0 1-2 2H74a2 2 0 0 1-2-2V92a2 2 0 0 1 2-2m0 0"/></g></g><g clip-path="url(#t)" transform="matrix(.12498 0 0 .10686 -.282 1.056)"><g clip-path="url(#u)"><path fill="#637d9e" d="M90 96h24a2 2 0 0 1 2 2v2a2 2 0 0 1-2 2H90a2 2 0 0 1-2-2v-2a2 2 0 0 1 2-2m0 0"/></g></g><g clip-path="url(#v)" transform="matrix(.1312 0 0 .1676 -.718 -3.601)"><g clip-path="url(#w)"><path fill-opacity=".2" d="M14 48h112v2H14Zm0 0"/></g></g><g clip-path="url(#x)" transform="matrix(.1312 0 0 .1676 -.718 -3.601)"><g clip-path="url(#y)"><path fill-opacity=".149" d="M106.02 84 90 68h16V58h10l-10 10h10v10l-10-10Zm0 0"/></g></g><path fill="#deddda" d="m10.745 5.461 3.674-1.095a.225.225 0 0 1 .28.152l.71 2.377a.225.225 0 0 1-.152.28l-3.675 1.096a.225.225 0 0 1-.28-.152l-.709-2.377a.225.225 0 0 1 .152-.28zm0 0" style="stroke-width:.112766"/><g clip-path="url(#z)" transform="rotate(-16.6 15.819 -31.316)scale(.11277)"><g clip-path="url(#A)"><path fill-opacity=".2" d="M2 56v4a3.23 3.23 0 0 0 1.79 2.895l4.843 2.421A9.71 9.71 0 0 1 14 74l-3.078 36.957C10.426 116.902 15.117 122 21.082 122c5.922-.047 10.54-5.145 9.996-11.043L28 74a9.71 9.71 0 0 1 5.367-8.684l4.844-2.421A3.23 3.23 0 0 0 40 60v-4zm0 0"/></g></g><path fill="url(#B)" d="m11.56 8.984.128.432c.04.133.15.231.287.255l.601.106c.409.072.742.368.86.765l.858 4.093a1.15 1.15 0 0 0 1.454.867 1.14 1.14 0 0 0 .724-1.516l-1.523-3.895a1.1 1.1 0 0 1 .3-1.11l.446-.419a.36.36 0 0 0 .1-.37l-.129-.432Zm0 0" style="fill:url(#B);stroke-width:.112766"/><path fill="url(#C)" d="m11.302 8.12 4.106-1.225.387 1.297-4.107 1.224zm0 0" style="fill:url(#C);stroke-width:.112766"/><path fill-opacity=".102" d="m10.745 5.461.752 2.13-.536-2.194Zm.865-.258.839 1.633-.407-1.761zm2.377-.708.688 1.913-.472-1.978zm-1.297.386.817 2.346-.385-2.474zm0 0"/><path fill="#fff" fill-opacity=".2" d="m11.656 9.308.032.108 4.107-1.224-.032-.108zm-.354-1.188.032.107 4.107-1.224-.033-.108zm0 0" style="stroke-width:.112766"/><path fill-opacity=".149" d="M15.849 14.295a.45.45 0 1 1-.864.258.45.45 0 0 1 .864-.258m0 0" style="stroke-width:.112766"/></svg>