<svg xmlns="http://www.w3.org/2000/svg" width="64" height="64"><defs><linearGradient id="a" x1="7.937" x2="7.937" y1="15.081" y2="1.852" gradientTransform="scale(3.7796)" gradientUnits="userSpaceOnUse"><stop offset="0" stop-color="#767574"/><stop offset="1" stop-color="#d1e7ee"/></linearGradient><linearGradient id="b" x1="33.097" x2="77.171" y1="169.9" y2="212.87" gradientTransform="matrix(-1 0 0 1 88.099 -160.9)" gradientUnits="userSpaceOnUse"><stop offset="0" stop-color="#dc5df3"/><stop offset="1" stop-color="#ff3d4b"/></linearGradient></defs><rect width="56.002" height="56.002" x="4" y="3.969" fill="url(#a)" rx="13.002" ry="13.002"/><rect width="51.996" height="51.939" x="6.002" y="6" fill="#030000" rx="11" ry="11"/><rect width="46.002" height="46.002" x="9" y="9" fill="url(#b)" rx="8" ry="8"/><g fill="#fff"><path d="M42.592 24h.003l-7.546.007c-4.95 0-7.574-.003-7.574-.003-.698 0-1.253.673-1.27 1.332 0 0-.024-.544-.024 6.617l.006 6.677c.091.984.676 1.318 1.302 1.37l7.57-.017h7.485c1.073 0 1.4-.72 1.457-1.391v-6.636l-.003-6.466c0-.934-.603-1.49-1.407-1.49zm-23.555 1.773v12.443h.367l.626-.009 2.83-3.084c1.699-1.701 3.09-3.137 3.09-3.193 0-.053-1.362-1.46-3.028-3.126l-2.765-3.025-.691-.006zm16.06.455a5.78 5.78 0 0 1 5.734 6.443l-.013.104a5.78 5.78 0 0 1-6.47 4.957 5.777 5.777 0 0 1-4.983-6.1 5.776 5.776 0 0 1 5.731-5.404z"/><path d="M38.116 32.411a3.05 3.05 0 0 1-3.415 2.615 3.048 3.048 0 1 1 3.421-2.67"/></g><path fill="#fff" d="M17.002 12.002c-2.77 0-5 2.23-5 5V19H13v-1.998A3.993 3.993 0 0 1 17.002 13H20v-.998zm26.998 0V13h3a3.993 3.993 0 0 1 4.002 4.002V19H52v-1.998c0-2.77-2.23-5-5-5zM12.002 43v4c0 2.77 2.23 5 5 5H20v-.998h-2.998A3.993 3.993 0 0 1 13 47v-4zm39 0v4A3.993 3.993 0 0 1 47 51.002h-3V52h3c2.77 0 5-2.23 5-5v-4z"/></svg>