<svg xmlns="http://www.w3.org/2000/svg" xmlns:xlink="http://www.w3.org/1999/xlink" width="64" height="64"><defs><linearGradient id="c"><stop offset="0" style="stop-color:#573e27;stop-opacity:1"/><stop offset="1" style="stop-color:#1c140d;stop-opacity:1"/></linearGradient><linearGradient id="b" x1="7.937" x2="7.937" y1="15.081" y2="1.852" gradientTransform="translate(0 .002)scale(3.7795)" gradientUnits="userSpaceOnUse"><stop offset="0" stop-color="#c18434" style="stop-color:#cdab8f;stop-opacity:0"/><stop offset="1" stop-color="#e4b154" style="stop-color:#413932;stop-opacity:.14429095"/></linearGradient><linearGradient id="a" x1="7.937" x2="7.937" y1="15.081" y2="1.852" gradientTransform="scale(3.7796)" gradientUnits="userSpaceOnUse" spreadMethod="pad"><stop offset="0" stop-color="#ffc30d" style="stop-color:#865e3c;stop-opacity:1"/><stop offset=".204" stop-color="#ffc30d" style="stop-color:#b5835a;stop-opacity:1"/><stop offset=".804" stop-color="#ffc30d" style="stop-color:#b5835a;stop-opacity:1"/><stop offset="1" stop-color="#fff63f" style="stop-color:#865e3c;stop-opacity:1"/></linearGradient><linearGradient xlink:href="#a" id="d" x1="1.058" x2="15.875" y1="12.427" y2="12.427" gradientTransform="scale(3.7796)" gradientUnits="userSpaceOnUse"/><linearGradient id="f" x1="7.937" x2="7.937" y1="15.081" y2="1.852" gradientTransform="translate(0 .002)scale(3.7795)" gradientUnits="userSpaceOnUse"><stop offset="0" stop-color="#c18434" style="stop-color:#cdab8f;stop-opacity:1"/><stop offset="1" stop-color="#e4b154" style="stop-color:#c59f83;stop-opacity:1"/></linearGradient><linearGradient xlink:href="#b" id="g" x1="4.335" x2="8.374" y1="4.104" y2="4.104" gradientTransform="translate(0 .002)scale(3.7795)" gradientUnits="userSpaceOnUse"/><linearGradient xlink:href="#c" id="e" x1="32.35" x2="32.35" y1="3.969" y2="33.967" gradientUnits="userSpaceOnUse"/></defs><path d="M4.052 20.965v26.004c0 7.203 5.747 13.002 12.95 13.002H47c7.203 0 13.054-5.8 13.054-13.002V20.965a12.973 12.973 0 0 1-13.002 13.002H17.054A12.973 12.973 0 0 1 4.052 20.965" style="display:inline;fill:url(#d)"/><path d="M16.384 3.969v29.998h31.232V3.969Z" style="display:inline;opacity:1;stroke-width:4.08558;fill:url(#e);fill-opacity:1"/><path d="M32.35 3.969v29.998h14.648A12.973 12.973 0 0 0 60 20.965V16.97A12.973 12.973 0 0 0 46.998 3.969Zm-15.348 0C9.844 3.969 4 9.768 4 16.97v3.994a12.97 12.97 0 0 0 13.002 13.002c7.208 0 14.648-.968 14.648-.968V3s-7.49.968-14.648.968" style="display:inline;fill:url(#f)"/><path d="M17.002 3.969C9.844 3.969 4 9.768 4 16.97v3.994a12.97 12.97 0 0 0 13.002 13.002c7.208 0 14.648-.968 14.648-.968V3s-7.49.968-14.648.968" style="display:inline;fill:url(#g)"/><g style="display:inline"><path d="M91.953 111.414a3.957 3.865 0 0 1-3.957 3.866 3.957 3.865 0 0 1-3.957-3.866 3.957 3.865 0 0 1 3.957-3.865 3.957 3.865 0 0 1 3.957 3.865" style="stroke-linecap:round;stroke-linejoin:round" transform="matrix(.91992 0 0 .92956 -59.286 -59.184)"/><path d="M88.169 110.018a1.383 1.397 0 0 1-1.383 1.396 1.383 1.397 0 0 1-1.383-1.396 1.383 1.397 0 0 1 1.383-1.397 1.383 1.397 0 0 1 1.383 1.397" style="fill:#fff;stroke-width:1.64171;stroke-linecap:round;stroke-linejoin:round" transform="matrix(.91992 0 0 .92956 -59.286 -59.184)"/><path d="M90.38 112.984a.628.644 0 0 1-.628.643.628.644 0 0 1-.629-.643.628.644 0 0 1 .629-.644.628.644 0 0 1 .628.643" style="fill:#fff;stroke-linecap:round;stroke-linejoin:round" transform="matrix(.91992 0 0 .92956 -59.286 -59.184)"/><path d="M91.953 111.414a3.957 3.865 0 0 1-3.957 3.866 3.957 3.865 0 0 1-3.957-3.866 3.957 3.865 0 0 1 3.957-3.865 3.957 3.865 0 0 1 3.957 3.865" style="stroke-linecap:round;stroke-linejoin:round" transform="matrix(.91992 0 0 .92956 -38.507 -59.184)"/><path d="M88.169 110.018a1.383 1.397 0 0 1-1.383 1.396 1.383 1.397 0 0 1-1.383-1.396 1.383 1.397 0 0 1 1.383-1.397 1.383 1.397 0 0 1 1.383 1.397" style="fill:#fff;stroke-width:1.64171;stroke-linecap:round;stroke-linejoin:round" transform="matrix(.91992 0 0 .92956 -38.507 -59.184)"/><path d="M90.38 112.984a.628.644 0 0 1-.628.643.628.644 0 0 1-.629-.643.628.644 0 0 1 .629-.644.628.644 0 0 1 .628.643" style="fill:#fff;stroke-linecap:round;stroke-linejoin:round" transform="matrix(.91992 0 0 .92956 -38.507 -59.184)"/><path d="M94.719 113.556c3.687 2.56 7.274 2.323 10.787 0" style="fill:none;fill-opacity:1;stroke:#000;stroke-width:2;stroke-linecap:round;stroke-linejoin:round;stroke-dasharray:none;stroke-opacity:1" transform="matrix(.91992 0 0 .92956 -60.043 -59.184)"/><path d="M85.97 116.346a2.634 1.45 0 0 1-2.633 1.45 2.634 1.45 0 0 1-2.634-1.45 2.634 1.45 0 0 1 2.634-1.451 2.634 1.45 0 0 1 2.634 1.45m33.551.001a2.634 1.45 0 0 1-2.634 1.45 2.634 1.45 0 0 1-2.633-1.45 2.634 1.45 0 0 1 2.633-1.451 2.634 1.45 0 0 1 2.634 1.45" style="fill:#f66151;fill-opacity:1;stroke-width:2;stroke-linecap:round;stroke-linejoin:round" transform="matrix(.91992 0 0 .92956 -60.043 -59.184)"/></g></svg>