<svg xmlns="http://www.w3.org/2000/svg" width="64" height="64" viewBox="0 0 16.933 16.933"><defs><filter id="p" width="1.399" height="1.646" x="-.199" y="-.323" color-interpolation-filters="sRGB"><feGaussianBlur stdDeviation="1.061"/></filter><filter id="o" width="1.02" height="1.032" x="-.01" y="-.016" color-interpolation-filters="sRGB"><feGaussianBlur stdDeviation=".03"/></filter><filter id="m" width="1.108" height="1.174" x="-.054" y="-.087" color-interpolation-filters="sRGB"><feGaussianBlur stdDeviation=".086"/></filter><filter id="n" width="1.099" height="1.161" x="-.05" y="-.08" color-interpolation-filters="sRGB"><feGaussianBlur stdDeviation=".762"/></filter><filter id="r" width="1.399" height="1.646" x="-.199" y="-.323" color-interpolation-filters="sRGB"><feGaussianBlur stdDeviation=".512"/></filter><filter id="l" width="1.1" height="1.161" x="-.05" y="-.081" color-interpolation-filters="sRGB"><feGaussianBlur stdDeviation=".128"/></filter><filter id="q" width="1.389" height="1.631" x="-.195" y="-.315" color-interpolation-filters="sRGB"><feGaussianBlur stdDeviation="2.988"/></filter><filter id="j" width="1.219" height="1.26" x="-.11" y="-.13" color-interpolation-filters="sRGB"><feGaussianBlur stdDeviation=".152"/></filter><filter id="k" width="1.379" height="1.485" x="-.19" y="-.243" color-interpolation-filters="sRGB"><feGaussianBlur stdDeviation=".152"/></filter><filter id="b" width="1.294" height="1.294" x="-.147" y="-.147" color-interpolation-filters="sRGB"><feGaussianBlur stdDeviation=".648"/></filter><filter id="d" width="1.024" height="1.024" x="-.012" y="-.012" color-interpolation-filters="sRGB"><feGaussianBlur stdDeviation=".052"/></filter><linearGradient id="f" x1="8.467" x2="8.467" y1="280.6" y2="296.47" gradientTransform="translate(8.983 -96.719)scale(.37645)" gradientUnits="userSpaceOnUse"><stop offset="0" stop-color="#666"/><stop offset="1" stop-color="#9f9f9f"/></linearGradient><linearGradient id="g" x1="8.467" x2="8.467" y1="282.18" y2="294.88" gradientTransform="translate(9.021 -95.424)scale(.37199)" gradientUnits="userSpaceOnUse"><stop offset="0" stop-color="#333"/><stop offset="1" stop-color="#666"/></linearGradient><linearGradient id="h" x1="8.467" x2="8.467" y1="283.24" y2="293.82" gradientTransform="translate(9.021 -95.424)scale(.37199)" gradientUnits="userSpaceOnUse"><stop offset="0"/><stop offset="1" stop-color="#121212"/></linearGradient><linearGradient id="e" x1="8.467" x2="8.467" y1="-2.92" y2="19.84" gradientTransform="translate(9.021 8.759)scale(.37199)" gradientUnits="userSpaceOnUse"><stop offset="0" stop-color="#ccc"/><stop offset="1" stop-color="#ebebeb"/></linearGradient><linearGradient id="a" x1="6.87" x2="6.87" y1="15.131" y2="1.822" gradientUnits="userSpaceOnUse"><stop offset="0" stop-color="#3b3838"/><stop offset="1" stop-color="#535358"/></linearGradient><radialGradient id="i" cx="-136.99" cy="198.65" r="38.5" gradientTransform="matrix(.03653 0 0 .03068 17.174 5.813)" gradientUnits="userSpaceOnUse"><stop offset="0" stop-color="#2561db" stop-opacity=".941"/><stop offset="1" stop-color="#0d0d0d"/></radialGradient><radialGradient id="c" cx="12.171" cy="12.171" r="4.762" gradientUnits="userSpaceOnUse"><stop offset="0"/><stop offset="1" stop-opacity="0"/></radialGradient></defs><rect width="14.817" height="14.817" x="1.058" y="1.05" fill="url(#a)" rx="3.44" ry="3.44"/><path d="M11.112 3.704v.53h1.587c.294 0 .53.235.53.528V6.35h.529V4.762c0-.586-.472-1.058-1.058-1.058zm-6.88.003c-.585 0-1.057.472-1.057 1.058v1.587h.529V4.765c0-.293.236-.53.529-.53H5.82v-.528zm3.38 2.643-.105.051c-.133.065-.193.135-.303.348-.096.185-.18.282-.293.338-.067.033-.124.037-.772.045-.679.01-.7.011-.79.052a.6.6 0 0 0-.278.27l-.044.092V9.38c0 2.032-.006 1.926.12 2.075.036.04.115.1.177.131l.113.056h6.058l.114-.056a.6.6 0 0 0 .177-.135c.126-.155.12-.041.12-2.07V7.546l-.044-.092a.6.6 0 0 0-.278-.27c-.09-.041-.111-.043-.79-.052-.78-.01-.774-.01-.906-.142a1.2 1.2 0 0 1-.16-.241c-.11-.213-.17-.283-.302-.348l-.104-.051H7.61zm.774 1.079c.157-.007.316 0 .432.024.338.068.658.236.912.478.258.246.43.533.524.876.037.136.042.197.041.47 0 .284-.006.327-.05.474-.089.29-.205.504-.395.726a1.96 1.96 0 0 1-.933.568 2.1 2.1 0 0 1-.7.044 1.9 1.9 0 0 1-1.381-.968 1.7 1.7 0 0 1-.204-.935 1.66 1.66 0 0 1 .3-.94c.237-.36.604-.629 1.033-.757.109-.033.264-.054.421-.06m.176.508a1.4 1.4 0 0 0-.24.007c-.533.06-.96.418-1.128.946a1.5 1.5 0 0 0-.025.646c.062.285.237.575.46.76.326.272.805.37 1.218.25q.306-.087.56-.34a1.26 1.26 0 0 0 .343-.55c.04-.12.047-.176.048-.38.001-.202-.005-.26-.041-.376-.176-.562-.644-.929-1.195-.963m-5.378 3.704v1.588c0 .586.472 1.062 1.058 1.058h1.587v-.529H4.242a.53.53 0 0 1-.53-.529v-1.588z" filter="url(#b)" opacity=".15"/><path fill="#f8f8f8" d="M11.112 3.175v.53H12.7c.293 0 .529.235.529.528v1.588h.53V4.233c0-.586-.473-1.058-1.06-1.058zm-6.879.003c-.586 0-1.058.472-1.058 1.058v1.587h.53V4.236c0-.293.235-.53.528-.53h1.588v-.528zM7.611 5.82l-.104.05c-.132.066-.193.136-.303.349-.095.185-.179.282-.292.338-.068.033-.125.036-.772.045-.68.01-.702.01-.79.052a.6.6 0 0 0-.279.27l-.043.092V8.85c-.001 2.032-.007 1.926.12 2.075.035.04.115.1.177.131l.112.056h6.059l.113-.056a.6.6 0 0 0 .177-.135c.127-.155.12-.042.12-2.07V7.017l-.044-.092a.6.6 0 0 0-.278-.27c-.09-.041-.111-.043-.79-.052-.78-.01-.773-.01-.906-.142a1.2 1.2 0 0 1-.159-.241c-.11-.213-.17-.283-.303-.348l-.104-.051h-1.71zm.776 1.08a2 2 0 0 1 .431.024c.338.068.658.236.912.478.259.246.43.533.524.876.037.136.043.196.042.47-.002.284-.006.327-.051.474-.089.29-.205.504-.394.726a1.96 1.96 0 0 1-.934.567 2.1 2.1 0 0 1-.699.044 1.9 1.9 0 0 1-1.382-.968 1.7 1.7 0 0 1-.204-.934 1.66 1.66 0 0 1 .3-.94c.238-.36.604-.629 1.033-.757.11-.033.265-.054.422-.06m.176.508a1.4 1.4 0 0 0-.24.006c-.533.06-.96.418-1.13.947a1.5 1.5 0 0 0-.024.646c.062.285.237.575.46.76.327.272.805.37 1.219.25.205-.059.388-.17.559-.34a1.26 1.26 0 0 0 .343-.55c.04-.12.047-.176.048-.38.002-.203-.004-.26-.041-.377-.176-.56-.644-.928-1.194-.962m-5.38 3.704V12.7c0 .586.473 1.061 1.06 1.058H5.83v-.529H4.242a.53.53 0 0 1-.529-.53v-1.587z"/><circle cx="12.171" cy="12.171" r="4.762" fill="url(#c)"/><path d="M11.112 3.469v.236H12.7c.293 0 .53.235.53.528v-.236a.527.527 0 0 0-.53-.528zm-6.878 0a.53.53 0 0 0-.529.53v.237c0-.293.236-.53.529-.53h1.588V3.47H4.234zm8.995 2.116v.236h.53v-.236zm-10.054.002v.236h.53v-.236zm5.212 1.077a1.8 1.8 0 0 0-.421.06 1.88 1.88 0 0 0-1.033.757 1.66 1.66 0 0 0-.3.94 2 2 0 0 0 0 .228 1.66 1.66 0 0 1 .3-.932c.238-.36.604-.629 1.033-.757a1.8 1.8 0 0 1 .421-.06 2 2 0 0 1 .431.024c.338.068.658.236.912.478.26.246.43.533.524.876a1 1 0 0 1 .042.234c.001-.274-.005-.334-.042-.47a1.85 1.85 0 0 0-.524-.876 1.87 1.87 0 0 0-.912-.478 2 2 0 0 0-.43-.024zm1.41 1.928a.9.9 0 0 1-.047.299 1.26 1.26 0 0 1-.343.55c-.17.17-.354.28-.559.34a1.36 1.36 0 0 1-1.219-.25 1.42 1.42 0 0 1-.46-.76 2 2 0 0 1-.016-.156 1.5 1.5 0 0 0 .016.392c.062.285.237.575.46.76.327.272.805.37 1.22.25a1.3 1.3 0 0 0 .558-.34 1.26 1.26 0 0 0 .343-.55c.04-.12.047-.176.048-.38.001-.064 0-.113-.001-.155m2.108 1.18c-.004.83-.023.797-.119.913a.6.6 0 0 1-.177.135l-.112.056h-6.06l-.112-.056a.7.7 0 0 1-.177-.131c-.095-.112-.115-.08-.12-.915.003 1.022.018 1.032.12 1.151.035.04.115.1.177.13l.112.057h6.06l.112-.056a.6.6 0 0 0 .177-.135c.102-.124.117-.13.12-1.15zm-8.722 2.692v.236c0 .586.473 1.061 1.06 1.058H5.83v-.236H4.243a1.055 1.055 0 0 1-1.06-1.058" filter="url(#d)" opacity=".1"/><g stroke-width=".533"><circle cx="12.171" cy="11.906" r="4.233" fill="url(#e)"/><circle cx="12.171" cy="11.906" r="2.963" fill="url(#f)"/><circle cx="12.171" cy="11.906" r="2.362" fill="url(#g)"/><circle cx="12.171" cy="11.906" r="1.968" fill="url(#h)"/></g><circle cx="12.171" cy="11.906" r="1.531" fill="url(#i)" stroke="#0d224d" stroke-linecap="round" stroke-linejoin="round" stroke-width=".125"/><g stroke-width="1.434"><path fill="#4678cc" d="m4.945 6.47 1.464.81s.458-.477.772-.686c.348-.23 1.105-.416 1.093-.36l-.241-1.762S6.412 4.31 4.945 6.47" filter="url(#j)" opacity=".8" transform="translate(9.021 8.759)scale(.37199)"/><path fill="#4678cc" d="m4.788 6.73 1.565.695s-.089.202-.123.421c-.032.2.004.387.004.387l-1.806-.019s.072-1.036.36-1.484" filter="url(#k)" opacity=".8" transform="translate(9.021 8.759)scale(.37199)"/><g fill="#fff" transform="translate(9.021 -95.424)scale(.37199)"><ellipse cx="-228.33" cy="44.944" fill-opacity=".3" filter="url(#l)" rx="3.083" ry="1.903" transform="rotate(-40.912 351.478 75.712)scale(.20753)"/><ellipse cx="-228.1" cy="51.166" fill-opacity=".3" filter="url(#m)" rx="1.918" ry="1.184" transform="rotate(-40.912 364.297 96.013)scale(.13617)"/><ellipse cx="-222.03" cy="111.72" filter="url(#n)" opacity=".2" rx="18.419" ry="11.368" transform="rotate(-33.78 441.453 84.743)scale(.14284)"/><ellipse cx="-235.29" cy="75.046" fill-opacity=".3" filter="url(#o)" rx="3.667" ry="2.263" transform="rotate(-40.912 363.859 94.854)scale(.13617)"/><ellipse cx="-234.21" cy="88.759" filter="url(#p)" rx="6.386" ry="3.941" transform="rotate(-40.914 356.356 87.248)scale(.16571)"/></g><g transform="translate(9.021 -95.424)scale(.37199)"><ellipse cx="-222.03" cy="111.72" fill="#4397ee" filter="url(#q)" opacity=".45" rx="18.419" ry="11.368" transform="rotate(-30.522 485.005 70.007)scale(.16305)"/><ellipse cx="-228.33" cy="44.944" fill="#fff" fill-opacity=".854" filter="url(#r)" rx="3.083" ry="1.903" transform="rotate(-40.914 369.07 103.99)scale(.10761)"/><ellipse cx="-228.1" cy="51.166" fill="#fff" fill-opacity=".3" filter="url(#m)" rx="1.918" ry="1.184" transform="rotate(-40.912 374.32 107.86)scale(.09151)"/></g></g></svg>