<svg xmlns="http://www.w3.org/2000/svg" xmlns:xlink="http://www.w3.org/1999/xlink" width="64" height="64" fill="none"><g clip-path="url(#a)"><path fill="url(#b)" d="M1.559 1.999h60.882V64H1.559z"/><path fill="url(#c)" d="M47 3.89H17.002C9.822 3.89 4 9.711 4 16.892V46.89c0 7.18 5.821 13.002 13.002 13.002H47c7.18 0 13.002-5.821 13.002-13.002V16.892C60.002 9.712 54.181 3.89 47 3.89"/><g filter="url(#d)"><path fill="url(#e)" d="M32 52c11.046 0 20-8.954 20-20s-8.954-20-20-20-20 8.954-20 20 8.954 20 20 20"/></g><path fill="url(#f)" d="M32 14.727c-10 0-17.273 6.818-17.273 14.546 0 4.09 2.046 7.727 5.228 10.454s6.363 3.182 8.636 2.273c1.136-.455 1.818-.682 2.5-.227 1.136.681.909 2.045.227 3.181 3.637 0 6.364-1.136 8.864-2.954s4.09-4.773 4.09-7.955C44.273 26.318 37 19.5 27 19.5z"/><path fill="#ff6b6b" d="M25.636 27a1.818 1.818 0 1 0 0-3.636 1.818 1.818 0 0 0 0 3.636"/><path fill="#ffd166" d="M30.636 24.273a1.818 1.818 0 1 0 0-3.637 1.818 1.818 0 0 0 0 3.637"/><path fill="#06d6a0" d="M35.636 27a1.818 1.818 0 1 0 0-3.636 1.818 1.818 0 0 0 0 3.636"/><path fill="#4cc9f0" d="M29.273 32a1.818 1.818 0 1 0 0-3.636 1.818 1.818 0 0 0 0 3.636"/><path fill="#fff" d="M17.002 3.9A12.974 12.974 0 0 0 4 16.902v.48A12.974 12.974 0 0 1 17.002 4.378h29.996A12.974 12.974 0 0 1 60 17.38v-.479a12.97 12.97 0 0 0-13.002-13z" opacity=".1"/></g><defs><linearGradient id="c" x1="32.001" x2="32.001" y1="3.89" y2="59.892" gradientUnits="userSpaceOnUse"><stop stop-color="#f5feff"/><stop offset="1" stop-color="#bce6eb"/></linearGradient><linearGradient id="e" x1="32" x2="32" y1="12" y2="52" gradientUnits="userSpaceOnUse"><stop offset=".149" stop-color="#b2ebf2"/><stop offset="1" stop-color="#4ccbda"/></linearGradient><linearGradient id="f" x1="29.5" x2="29.5" y1="14.727" y2="44.954" gradientUnits="userSpaceOnUse"><stop stop-color="#fff"/><stop offset="1" stop-color="#dee0e0"/></linearGradient><clipPath id="a"><path fill="#fff" d="M0 0h64v64H0z"/></clipPath><pattern id="b" width="1" height="1" patternContentUnits="objectBoundingBox"><use xlink:href="#g" transform="scale(.00398)"/></pattern><filter id="d" width="48" height="48" x="8" y="10" color-interpolation-filters="sRGB" filterUnits="userSpaceOnUse"><feFlood flood-opacity="0" result="BackgroundImageFix"/><feColorMatrix in="SourceAlpha" result="hardAlpha" values="0 0 0 0 0 0 0 0 0 0 0 0 0 0 0 0 0 0 127 0"/><feOffset dy="2"/><feGaussianBlur stdDeviation="2"/><feComposite in2="hardAlpha" operator="out"/><feColorMatrix values="0 0 0 0 0.391781 0 0 0 0 0.526955 0 0 0 0 0.543269 0 0 0 0.25 0"/><feBlend in2="BackgroundImageFix" result="effect1_dropShadow_3017_2"/><feBlend in="SourceGraphic" in2="effect1_dropShadow_3017_2" result="shape"/></filter></defs></svg>