<svg xmlns="http://www.w3.org/2000/svg" width="64" height="64" viewBox="0 0 64 64"><defs><linearGradient id="a" x1=".5" x2=".521" y1="1" y2=".004"><stop offset="0%" style="stop-color:rgba(1,1,1,.1)"/><stop offset="100%" style="stop-color:rgba(255,255,255,.1)"/></linearGradient></defs><path d="M16 4h32c6.623 0 12 5.377 12 12v32c0 6.623-5.377 12-12 12H16C9.377 60 4 54.623 4 48V16C4 9.377 9.377 4 16 4" style="stroke:none;fill:#fff;stroke-miterlimit:10"/><path d="M16 4h32c6.623 0 12 5.377 12 12v32c0 6.623-5.377 12-12 12H16C9.377 60 4 54.623 4 48V16C4 9.377 9.377 4 16 4" style="stroke:none;fill:url(#a);stroke-miterlimit:10"/><g opacity=".9"><path fill="#4cc2ea" d="M13.6 17.5a1.6 1.6 0 0 0-1.6 1.6v25.6a1.6 1.6 0 0 0 1.6 1.6h9.6a1.6 1.6 0 0 0 1.6-1.6V19.1a1.6 1.6 0 0 0-1.6-1.6zm15.2 0c-2.104.03-2.104 3.17 0 3.2h21.6c2.104-.03 2.104-3.17 0-3.2zm0 4.8a1.6 1.6 0 0 0-1.6 1.6v14.4a1.6 1.6 0 0 0 1.6 1.6h21.6a1.6 1.6 0 0 0 1.6-1.6V23.9a1.6 1.6 0 0 0-1.6-1.6zM28 41.5c-1.052.015-1.052 1.585 0 1.6h23.2c1.052-.015 1.052-1.585 0-1.6zm0 3.2c-1.052.015-1.052 1.585 0 1.6h23.2a.8.8 0 1 0 0-1.6z"/><path fill-opacity=".75" d="M13.6 17.5a1.6 1.6 0 0 0-1.6 1.6v25.6a1.6 1.6 0 0 0 1.6 1.6h9.6a1.6 1.6 0 0 0 1.6-1.6V19.1a1.6 1.6 0 0 0-1.6-1.6zm15.2 0c-2.104.03-2.104 3.17 0 3.2h21.6c2.104-.03 2.104-3.17 0-3.2zm0 4.8a1.6 1.6 0 0 0-1.6 1.6v14.4a1.6 1.6 0 0 0 1.6 1.6h21.6a1.6 1.6 0 0 0 1.6-1.6V23.9a1.6 1.6 0 0 0-1.6-1.6zM28 41.5c-1.052.015-1.052 1.585 0 1.6h23.2c1.052-.015 1.052-1.585 0-1.6zm0 3.2c-1.052.015-1.052 1.585 0 1.6h23.2a.8.8 0 1 0 0-1.6z"/></g><path fill="#4fd2fd" d="m39.359 25.091-2.754 6.426H28.8v.914h8.394l1.748-4.077 1.327 8.761 2.309-4.684H50.4v-.914h-8.378l-1.292 2.622zm-21.066-5.193-1.223 2.566H13.6v.365h3.732l.776-1.628.591 3.497 1.025-1.869h3.477v-.365h-3.724l-.574 1.046zm0 6.4-1.223 2.566H13.6v.365h3.732l.776-1.628.591 3.497 1.025-1.869h3.477v-.365h-3.724l-.574 1.046zm0 6.4-1.223 2.566H13.6v.365h3.732l.776-1.628.591 3.497 1.025-1.869h3.477v-.365h-3.724l-.574 1.046zm0 6.402-1.223 2.565H13.6v.365h3.732l.776-1.627.591 3.496 1.025-1.869h3.477v-.365h-3.724l-.574 1.047z" style="opacity:.9"/></svg>