<svg xmlns="http://www.w3.org/2000/svg" xmlns:xlink="http://www.w3.org/1999/xlink" xml:space="preserve" width="64" height="64"><defs><linearGradient id="c"><stop offset="0" stop-color="#999a9c" style="stop-color:#2a2c2f;stop-opacity:1"/><stop offset="1" stop-color="#f4f5f5" style="stop-color:#424649;stop-opacity:1"/></linearGradient><linearGradient id="b"><stop offset="0" stop-color="#2a2c2f" style="stop-color:#2a2c2f;stop-opacity:.25"/><stop offset="1" stop-color="#424649" style="stop-color:#424649;stop-opacity:.25"/></linearGradient><linearGradient id="d" x1="7.937" x2="7.937" y1="15.081" y2="1.852" gradientTransform="scale(3.7796)" gradientUnits="userSpaceOnUse"><stop offset="0" stop-color="#0e71de" style="stop-color:#0e73de;stop-opacity:1"/><stop offset="1" stop-color="#25c9ff"/></linearGradient><linearGradient xlink:href="#a" id="i" x2="0" y1="532.8" y2="526.8" gradientTransform="translate(-713.35 -960.71)scale(1.8667)" gradientUnits="userSpaceOnUse"/><linearGradient xlink:href="#b" id="e" x2="0" y1="536.8" y2="532.8" gradientTransform="translate(-714.884 -948.023)scale(1.8667)" gradientUnits="userSpaceOnUse"/><linearGradient xlink:href="#c" id="j" x2="0" y1="20" y2="18" gradientTransform="translate(1.126 14.82)scale(1.8667)" gradientUnits="userSpaceOnUse"/><linearGradient id="a"><stop offset="0" stop-color="#999a9c" style="stop-color:#2a2c2f;stop-opacity:1"/><stop offset="1" stop-color="#f4f5f5" style="stop-color:#424649;stop-opacity:1"/></linearGradient><linearGradient id="h" x2="0" y1="532.8" y2="530.8" gradientTransform="translate(-719.131 -961.088)scale(1.8667)" gradientUnits="userSpaceOnUse"><stop offset="0" stop-color="#2980b9" style="stop-color:#2a2c2f;stop-opacity:1"/><stop offset="1" stop-color="#3498db" style="stop-color:#424649;stop-opacity:1"/></linearGradient><linearGradient id="g" x2="0" y1="530.8" y2="528.8" gradientTransform="translate(-717.885 -960.976)scale(1.8667)" gradientUnits="userSpaceOnUse"><stop offset="0" stop-color="#c0392b" style="stop-color:#2a2c2f;stop-opacity:1"/><stop offset="1" stop-color="#e74c3c" style="stop-color:#424649;stop-opacity:1"/></linearGradient><linearGradient xlink:href="#b" id="f" x2="0" y1="536.8" y2="532.8" gradientTransform="translate(-1833.248 -2466.178)scale(4.66688)" gradientUnits="userSpaceOnUse"/></defs><rect width="56.002" height="56.002" x="4" y="3.969" fill="url(#d)" rx="13.002" ry="13.002"/><g stroke-linecap="square"><path fill="url(#e)" d="M17.495 20.333a9.334 9.334 0 1 0 0 18.667 9.334 9.334 0 0 0 0-18.667" style="fill:url(#f);stroke-width:4.66688" transform="translate(1.007 -1.38)"/><g stroke-width=".1"><path fill="url(#g)" d="M46.66 26.135a1.867 1.867 0 0 0-1.867 1.867 1.867 1.867 0 0 0 1.866 1.867 1.867 1.867 0 0 0 1.867-1.867 1.867 1.867 0 0 0-1.867-1.867z" style="fill:url(#g);stroke-width:.18667" transform="matrix(1.25 0 0 1.24998 -8.157 -7.046)"/><path fill="url(#h)" d="M41.68 29.756a1.867 1.867 0 0 0-1.867 1.867 1.867 1.867 0 0 0 1.867 1.867 1.867 1.867 0 0 0 1.867-1.867 1.867 1.867 0 0 0-1.867-1.867" style="fill:url(#h);stroke-width:.18667" transform="matrix(1.25 0 0 1.24998 -8.157 -7.046)"/><path fill="url(#i)" d="M19.46 22.667V26.4h-3.733v3.733h3.734v3.734h3.733v-3.733h3.734V26.4h-3.734v-3.733z" style="fill:url(#i);stroke-width:.18667" transform="matrix(1.25 0 0 1.24998 -8.157 -7.046)"/></g><path fill="url(#e)" d="M25.394 46.554a3.733 3.733 0 0 0-3.734 3.734 3.733 3.733 0 0 0 3.734 3.733 3.733 3.733 0 0 0 3.733-3.733 3.733 3.733 0 0 0-3.733-3.734m11.2 0a3.733 3.733 0 0 0-3.734 3.734 3.733 3.733 0 0 0 3.734 3.733 3.733 3.733 0 0 0 3.733-3.733 3.733 3.733 0 0 0-3.733-3.734" style="fill:url(#e);stroke-width:1.8667" transform="translate(1.007 -1.38)"/><path fill="url(#j)" d="M25.394 48.421a1.867 1.867 0 0 0-1.867 1.867 1.867 1.867 0 0 0 1.867 1.866 1.867 1.867 0 0 0 1.866-1.866 1.867 1.867 0 0 0-1.866-1.867m11.2 0a1.867 1.867 0 0 0-1.867 1.867 1.867 1.867 0 0 0 1.867 1.866 1.867 1.867 0 0 0 1.866-1.866 1.867 1.867 0 0 0-1.866-1.867" style="fill:url(#j);stroke-width:1.8667" transform="translate(1.007 -1.38)"/></g></svg>