<svg xmlns="http://www.w3.org/2000/svg" width="64" height="64" viewBox="0 0 16.933 16.933"><defs><linearGradient id="a" x1="7.937" x2="7.937" y1="15.081" y2="1.852" gradientUnits="userSpaceOnUse"><stop offset="0" stop-color="#eae8e9"/><stop offset="1" stop-color="#f9f8f9"/></linearGradient><linearGradient id="b" x1="8.477" x2="8.477" y1="13.677" y2="3.478" gradientUnits="userSpaceOnUse"><stop offset="0" stop-color="#333"/><stop offset="1" stop-color="#5c5c5c"/></linearGradient></defs><rect width="14.817" height="14.817" x="1.058" y="1.05" fill="url(#a)" rx="3.44" ry="3.44"/><g stroke-linecap="round" stroke-linejoin="round" stroke-opacity=".35" stroke-width=".075" opacity=".25" transform="translate(0 .265)"><rect width="12.171" height=".132" x="2.381" y="3.969" opacity=".75" rx="0" ry=".066"/><rect width="12.171" height=".132" x="2.381" y="6.085" opacity=".75" rx="0" ry=".066"/><rect width="12.171" height=".132" x="2.381" y="8.202" opacity=".75" rx="0" ry=".066"/><rect width="12.171" height=".132" x="2.381" y="10.054" opacity=".75" rx="0" ry=".066"/><rect width="12.171" height=".132" x="2.381" y="12.171" opacity=".75" rx="0" ry=".066"/></g><path d="M7.813 9.12h3.315v.438H7.813zM3.316 3.395h2.18v.409h-2.18zm.67 1.756h3.117v.479H3.986zm3.655.007h3.008v.523H7.641zM3.912 7.075h1.46v.504h-1.46zm1.992.04H7.53v.464H5.904zm-1.918 1.94h3.091v.471H3.986zm-.815 1.893H4.27v.636H3.171zm7.514 2.208h1.123v1.103h-1.123zm1.427.698h1.406v.439h-1.406z" opacity=".1" style="paint-order:stroke fill markers"/><path fill="url(#b)" d="M12.7 3.175H4.234l-.265 4.233h.794c.106-.732.219-1.448.385-1.917.394-1.07.702-1.234 1.731-1.234.5 0 .794.162.794.528v7.256c0 .615 0 .659-1.145.659h-.442v1.058h4.762V12.7h-.443c-1.211 0-1.145-.044-1.145-.66V4.786c0-.366.294-.528.794-.528.924 0 1.262.105 1.64.985.228.542.356 1.33.477 2.166h.793z"/></svg>