<svg xmlns="http://www.w3.org/2000/svg" xmlns:xlink="http://www.w3.org/1999/xlink" width="64" height="64"><defs><linearGradient id="a"><stop offset="0" style="stop-color:#44d94d;stop-opacity:1"/><stop offset="1" style="stop-color:#a9ee6d;stop-opacity:1"/></linearGradient><linearGradient xlink:href="#a" id="b" x1="-38.169" x2="-38.169" y1="45.975" y2="4.066" gradientTransform="translate(67.768)" gradientUnits="userSpaceOnUse"/></defs><rect width="56.002" height="56.002" x="3.999" y="3.969" fill="#f2f2f2" rx="13.002" ry="13.002"/><path d="M16.999 4.066a12.973 12.973 0 0 0-13 13.002v29.998l.002.04v-1.131h32.582l7.992 7.875.176-7.875h15.25V17.068A12.973 12.973 0 0 0 46.997 4.066Z" style="fill:url(#b);stroke-width:.415829;stroke-linecap:square;paint-order:markers fill stroke"/><path d="M11 5 6 9H2v6h4l5 4z" style="fill:none;stroke:#fff;stroke-width:1.66029;stroke-dasharray:none;stroke-opacity:1;stroke-linecap:round;stroke-linejoin:round" transform="translate(18.17 11.752)scale(1.15279)"/><path d="M36.085 21.505a5.764 5.764 0 0 1 0 8.15m4.069-12.219a11.53 11.53 0 0 1 0 16.3" style="fill:none;stroke:#fff;stroke-width:1.91397;stroke-dasharray:none;stroke-opacity:1;stroke-linecap:round"/></svg>