<svg xmlns="http://www.w3.org/2000/svg" width="64" height="64"><defs><linearGradient id="g" x1="-322.18" x2="-320.91" y1="509.99" y2="594.99" gradientTransform="matrix(.26453 0 0 .23277 112.51 -91.006)" gradientUnits="userSpaceOnUse"><stop offset="0" stop-color="#eff0f1"/><stop offset="1" stop-color="#ccd2d7"/></linearGradient><linearGradient id="e" x1="-303.15" x2="-301.88" y1="591.82" y2="515.06" gradientTransform="matrix(.26453 0 0 .22561 114.51 -94.346)" gradientUnits="userSpaceOnUse"><stop offset="0" stop-color="#ffee5e"/><stop offset="1" stop-color="#feff9f"/></linearGradient><linearGradient id="c" x1="-322.73" x2="-320.91" y1="595.62" y2="510.62" gradientTransform="matrix(.26757 0 0 .22024 117.69 -98.601)" gradientUnits="userSpaceOnUse"><stop offset="0" stop-color="#ff594d"/><stop offset="1" stop-color="#ff7f76"/></linearGradient><linearGradient id="i" x1="32.079" x2="31.961" y1="62.104" y2="3.058" gradientTransform="translate(-8.448 -8.454)scale(1.2321)" gradientUnits="userSpaceOnUse"><stop offset="0" stop-color="#957d75"/><stop offset="1" stop-color="#d1b0a4"/></linearGradient><linearGradient id="a" x1="7.937" x2="7.937" y1="15.081" y2="1.852" gradientTransform="scale(3.7796)" gradientUnits="userSpaceOnUse"><stop offset="0" stop-color="#846458"/><stop offset="1" stop-color="#ad8578"/></linearGradient><filter id="f" width="1.056" height="1.102" x="-.028" y="-.051" color-interpolation-filters="sRGB"><feGaussianBlur stdDeviation=".425"/></filter><filter id="d" width="1.055" height="1.104" x="-.028" y="-.052" color-interpolation-filters="sRGB"><feGaussianBlur stdDeviation=".42"/></filter><filter id="b" width="1.054" height="1.106" x="-.027" y="-.053" color-interpolation-filters="sRGB"><feGaussianBlur stdDeviation=".42"/></filter><filter id="h" width="1.168" height="1.168" x="-.084" y="-.084" color-interpolation-filters="sRGB"><feGaussianBlur stdDeviation="1.407"/></filter></defs><path fill="url(#a)" d="M17.002 3.969A12.973 12.973 0 0 0 4 16.97v29.998a12.95 12.95 0 0 0 2.852 8.13L55.13 6.82A12.95 12.95 0 0 0 47 3.969z"/><rect width="37" height="19" x="14" y="14" filter="url(#b)" opacity=".25" ry="2"/><rect width="37" height="19" x="14" y="14" fill="url(#c)" ry="2"/><rect width="36.579" height="19.463" x="12" y="21" filter="url(#d)" opacity=".25" ry="2"/><rect width="36.579" height="19.463" x="12" y="21" fill="url(#e)" ry="2"/><rect width="36.579" height="20.08" x="10" y="28" filter="url(#f)" opacity=".25" ry="2.08"/><rect width="36.579" height="20.08" x="10" y="28" fill="url(#g)" ry="2.08"/><ellipse cx="-.789" cy="45.732" fill-rule="evenodd" filter="url(#h)" opacity=".2" rx="28.351" ry="2.033" style="paint-order:fill markers stroke" transform="rotate(-45)"/><path fill="url(#i)" d="M55.131 6.818 6.852 55.1a12.96 12.96 0 0 0 10.15 4.871H47a12.973 12.973 0 0 0 13.002-13.002V16.97c0-4.118-1.9-7.773-4.871-10.152"/><path fill="#7e6056" d="m45.579 33.602-2.799.237-.107 11.241 2.77-.383.046-4.792 3.671 5.35 2.925-.877-3.763-5.147 3.887-4.787-2.969-.692-3.738 4.788zm-6.365 2.683a.14.14 0 0 0-.09.034l-1.11 1.062a.136.136 0 0 0-.02.17l1.264 2.08c-.231.373-.42.772-.555 1.197l-2.364.456a.145.145 0 0 0-.116.14l-.014 1.515c0 .064.049.12.113.135l2.283.563c.117.494.302.967.548 1.399l-1.345 1.958a.135.135 0 0 0 .018.175l1.09 1.083a.145.145 0 0 0 .172.02l2.091-1.21c.406.233.846.42 1.31.547l.462 2.279a.14.14 0 0 0 .136.112l1.554.014a.14.14 0 0 0 .138-.104l.596-2.28a5.6 5.6 0 0 0 1.355-.542l2.037 1.33c.056.037.13.03.18-.017l1.103-1.062a.14.14 0 0 0 .026-.17l-.735-1.207-.246.074A.09.09 0 0 1 49 46s-.465-.682-1.073-1.567a4.47 4.47 0 0 1-3.99 2.331c-2.457-.022-4.432-1.986-4.409-4.384.017-1.764 1.112-3.27 2.667-3.935l.01-1.12a5.6 5.6 0 0 0-.816.343v-.005l-2.085-1.36a.13.13 0 0 0-.09-.02z"/></svg>