<svg xmlns="http://www.w3.org/2000/svg" width="64" height="64"><defs><linearGradient id="c" x1="31.833" x2="32.167" y1="51.559" y2="11.098" gradientUnits="userSpaceOnUse"><stop offset="0" stop-color="#f9f9f9"/><stop offset="1" stop-color="#f0fee6"/></linearGradient><linearGradient id="a" x1="7.937" x2="7.937" y1="15.081" y2="1.852" gradientTransform="scale(3.7796)" gradientUnits="userSpaceOnUse"><stop offset="0" stop-color="#30e461"/><stop offset="1" stop-color="#acf246"/></linearGradient><filter id="b" width="1.12" height="1.12" x="-.06" y="-.06" color-interpolation-filters="sRGB"><feGaussianBlur stdDeviation=".9"/></filter></defs><rect width="56.002" height="56.002" x="4" y="3.969" fill="url(#a)" rx="13.002" ry="13.002"/><circle cx="32.02" cy="32.044" r="30.001" fill="none"/><path d="M32 14a18 18 0 0 0-14.566 7.463l2.581 1.552A15 15 0 0 1 32 17a15 15 0 0 1 15 15 15 15 0 0 1-15 15 15 15 0 0 1-11.985-6.006l-2.584 1.551A18 18 0 0 0 32.001 50a18 18 0 0 0 18-18 18 18 0 0 0-18-18zm-18 7.5v21L32 32zm18 0a10.5 10.5 0 0 0-8.103 3.838l2.613 1.568A7.5 7.5 0 0 1 32 24.5a7.5 7.5 0 0 1 7.5 7.5 7.5 7.5 0 0 1-7.5 7.5 7.5 7.5 0 0 1-5.493-2.406l-2.613 1.57A10.5 10.5 0 0 0 32 42.5 10.5 10.5 0 0 0 42.5 32 10.5 10.5 0 0 0 32 21.5" filter="url(#b)" opacity=".15"/><path fill="url(#c)" d="M32 14a18 18 0 0 0-14.566 7.463l2.581 1.552A15 15 0 0 1 32 17a15 15 0 0 1 15 15 15 15 0 0 1-15 15 15 15 0 0 1-11.985-6.006l-2.584 1.551A18 18 0 0 0 32.001 50a18 18 0 0 0 18-18 18 18 0 0 0-18-18zm-18 7.5v21L32 32zm18 0a10.5 10.5 0 0 0-8.103 3.838l2.613 1.568A7.5 7.5 0 0 1 32 24.5a7.5 7.5 0 0 1 7.5 7.5 7.5 7.5 0 0 1-7.5 7.5 7.5 7.5 0 0 1-5.493-2.406l-2.613 1.57A10.5 10.5 0 0 0 32 42.5 10.5 10.5 0 0 0 42.5 32 10.5 10.5 0 0 0 32 21.5"/></svg>