<svg xmlns="http://www.w3.org/2000/svg" xmlns:xlink="http://www.w3.org/1999/xlink" width="64" height="64" viewBox="0 0 16.933 16.933"><defs><linearGradient id="d" x1="-896.07" x2="-895.11" y1="-476.09" y2="-475.27" gradientTransform="matrix(-7.6995 13.034 9.0054 11.144 -2599.3 16982)" gradientUnits="userSpaceOnUse"><stop offset="0" stop-color="#251480"/><stop offset="1" stop-color="#e96bc3"/></linearGradient><linearGradient id="c" x1="-895.8" x2="-895.14" y1="-475.97" y2="-475.37" gradientTransform="matrix(8.2643 -13.07 -9.0299 -11.961 3110.4 -17384)" gradientUnits="userSpaceOnUse"><stop offset="0" stop-color="#ffbe00"/><stop offset="1" stop-color="#f39060"/></linearGradient><linearGradient id="a" x1="7.937" x2="7.937" y1="15.081" y2="1.852" gradientTransform="translate(.002 .002)scale(.99977)" gradientUnits="userSpaceOnUse"><stop offset="0" stop-color="#767574"/><stop offset="1" stop-color="#d1e7ee"/></linearGradient><linearGradient xlink:href="#a" id="b" x1="7.937" x2="7.937" y1="15.081" y2="1.852" gradientTransform="translate(.002 .002)scale(.99977)" gradientUnits="userSpaceOnUse"/><clipPath id="g"><rect width="14.814" height="14.814" x="1.06" y="1.052" fill="url(#b)" rx="3.439" ry="3.439"/></clipPath><clipPath id="e"><rect width="14.814" height="14.814" x="1.06" y="1.052" fill="url(#b)" rx="3.439" ry="3.439"/></clipPath><filter id="f" width="1.21" height="1.49" x="-.105" y="-.245" color-interpolation-filters="sRGB"><feGaussianBlur stdDeviation=".553"/></filter></defs><path fill="url(#c)" d="M4.499 1.052a3.43 3.43 0 0 0-3.44 3.44v7.935a3.43 3.43 0 0 0 3.44 3.439H8.03L9.375 1.052z"/><path fill="url(#d)" d="M9.376 1.058 8.03 15.874h4.405a3.43 3.43 0 0 0 3.44-3.44V4.499a3.43 3.43 0 0 0-3.44-3.44z"/><path d="m14.793 9.925-.033-.017c-.24.035-.48 0-.72-.052a1.92 1.92 0 0 1-1.34-2.349 1.9 1.9 0 0 1 .327-.651V6.82l-.035-.017a1.98 1.98 0 0 0-1.698 1.44 2.02 2.02 0 0 0 .189 1.51 1.92 1.92 0 0 0 1.2.925c.173.053.361.069.533.069a1.98 1.98 0 0 0 1.576-.788zm-10.733.206a.24.24 0 0 0-.291.068l-.257.463a.24.24 0 0 0 .068.29.25.25 0 0 0 .104.036.24.24 0 0 0 .188-.103l.257-.462c.07-.104.035-.242-.07-.292zM2.74 7.816l.463.257c.035.017.07.035.103.035a.24.24 0 0 0 .189-.104.24.24 0 0 0-.069-.292l-.463-.256a.24.24 0 0 0-.29.069c-.052.102-.018.24.068.29zm2.881-.394c.034.016.068.035.103.035a.24.24 0 0 0 .189-.105l.256-.461a.24.24 0 0 0-.067-.292.24.24 0 0 0-.292.068l-.258.463c-.068.12-.034.24.07.29zm1.303 2.314L6.46 9.48a.24.24 0 0 0-.29.068.24.24 0 0 0 .068.29l.464.257a.2.2 0 0 0 .102.035.24.24 0 0 0 .189-.102c.068-.103.034-.223-.07-.292zm-3.43-.171c-.05-.103-.188-.137-.29-.07l-.446.241c-.103.052-.137.19-.07.292.035.068.104.103.19.103a.2.2 0 0 0 .102-.035l.463-.256c.07-.052.103-.189.052-.275zm.275-2.212c.035.069.103.103.19.103a.2.2 0 0 0 .1-.035c.105-.05.138-.188.07-.291l-.257-.463c-.05-.103-.188-.138-.291-.068-.104.052-.138.188-.07.292zm2.418.652c.035.07.102.102.188.102.035 0 .07-.017.103-.034l.463-.256c.103-.052.137-.19.07-.292a.203.203 0 0 0-.292-.07l-.464.257c-.086.053-.12.19-.068.292zm-.274 2.194a.2.2 0 0 0-.292-.068c-.103.05-.137.188-.07.292l.258.462c.035.068.104.103.189.103.035 0 .069-.018.104-.035.102-.05.136-.188.067-.291zM3.289 8.776a.2.2 0 0 0-.206-.205h-.737a.2.2 0 0 0-.205.205.2.2 0 0 0 .205.205h.737a.21.21 0 0 0 .206-.205m1.544-1.56a.2.2 0 0 0 .205-.206v-.737a.2.2 0 0 0-.205-.206.2.2 0 0 0-.207.206v.737a.21.21 0 0 0 .207.206M7.336 8.57h-.738a.2.2 0 0 0-.205.205.2.2 0 0 0 .205.205h.738a.2.2 0 0 0 .205-.205c.017-.12-.085-.205-.205-.205M4.85 10.336a.2.2 0 0 0-.206.207v.736a.2.2 0 0 0 .206.206.2.2 0 0 0 .205-.206v-.736a.21.21 0 0 0-.205-.207m0-2.691a1.14 1.14 0 0 0-1.133 1.131c0 .618.515 1.132 1.133 1.132a1.14 1.14 0 0 0 1.13-1.132 1.14 1.14 0 0 0-1.13-1.13z" clip-path="url(#e)" filter="url(#f)" opacity=".15"/><path fill="#fff" d="m14.793 9.925-.033-.017c-.24.035-.48 0-.72-.052a1.92 1.92 0 0 1-1.34-2.349 1.9 1.9 0 0 1 .327-.651V6.82l-.035-.017a1.98 1.98 0 0 0-1.698 1.44 2.02 2.02 0 0 0 .189 1.51 1.92 1.92 0 0 0 1.2.925c.173.053.361.069.533.069a1.98 1.98 0 0 0 1.576-.788zm-10.733.206a.24.24 0 0 0-.291.068l-.257.463a.24.24 0 0 0 .068.29.25.25 0 0 0 .104.036.24.24 0 0 0 .188-.103l.257-.462c.07-.104.035-.242-.07-.292zM2.74 7.816l.463.257c.035.017.07.035.103.035a.24.24 0 0 0 .189-.104.24.24 0 0 0-.069-.292l-.463-.256a.24.24 0 0 0-.29.069c-.052.102-.018.24.068.29zm2.881-.394c.034.016.068.035.103.035a.24.24 0 0 0 .189-.105l.256-.461a.24.24 0 0 0-.067-.292.24.24 0 0 0-.292.068l-.258.463c-.068.12-.034.24.07.29zm1.303 2.314L6.46 9.48a.24.24 0 0 0-.29.068.24.24 0 0 0 .068.29l.464.257a.2.2 0 0 0 .102.035.24.24 0 0 0 .189-.102c.068-.103.034-.223-.07-.292zm-3.43-.171c-.05-.103-.188-.137-.29-.07l-.446.241c-.103.052-.137.19-.07.292.035.068.104.103.19.103a.2.2 0 0 0 .102-.035l.463-.256c.07-.052.103-.189.052-.275zm.275-2.212c.035.069.103.103.19.103a.2.2 0 0 0 .1-.035c.105-.05.138-.188.07-.291l-.257-.463c-.05-.103-.188-.138-.291-.068-.104.052-.138.188-.07.292zm2.418.652c.035.07.102.102.188.102.035 0 .07-.017.103-.034l.463-.256c.103-.052.137-.19.07-.292a.203.203 0 0 0-.292-.07l-.464.257c-.086.053-.12.19-.068.292zm-.274 2.194a.2.2 0 0 0-.292-.068c-.103.05-.137.188-.07.292l.258.462c.035.068.104.103.189.103.035 0 .069-.018.104-.035.102-.05.136-.188.067-.291zM3.289 8.776a.2.2 0 0 0-.206-.205h-.737a.2.2 0 0 0-.205.205.2.2 0 0 0 .205.205h.737a.21.21 0 0 0 .206-.205m1.544-1.56a.2.2 0 0 0 .205-.206v-.737a.2.2 0 0 0-.205-.206.2.2 0 0 0-.207.206v.737a.21.21 0 0 0 .207.206M7.336 8.57h-.738a.2.2 0 0 0-.205.205.2.2 0 0 0 .205.205h.738a.2.2 0 0 0 .205-.205c.017-.12-.085-.205-.205-.205M4.85 10.336a.2.2 0 0 0-.206.207v.736a.2.2 0 0 0 .206.206.2.2 0 0 0 .205-.206v-.736a.21.21 0 0 0-.205-.207m0-2.691a1.14 1.14 0 0 0-1.133 1.131c0 .618.515 1.132 1.133 1.132a1.14 1.14 0 0 0 1.13-1.132 1.14 1.14 0 0 0-1.13-1.13z" clip-path="url(#g)"/></svg>