<svg xmlns="http://www.w3.org/2000/svg" xml:space="preserve" width="64" height="64"><defs><linearGradient id="a" x1="7.937" x2="7.937" y1="15.081" y2="1.852" gradientTransform="scale(3.7796)" gradientUnits="userSpaceOnUse"><stop offset="0" stop-color="#f1efeb"/><stop offset="1" stop-color="#fdfcfc"/></linearGradient></defs><rect width="56" height="56" x="4" y="4" fill="url(#a)" rx="13" ry="13" style="fill:url(#a)"/><g style="display:inline"><g style="display:inline"><path fill="none" d="M0 172h128v128H0z" style="display:inline;overflow:visible;visibility:visible;fill:#f0f0f0;fill-opacity:0;fill-rule:nonzero;stroke:none;stroke-width:.5;marker:none" transform="translate(3.484 -73.153)scale(.44556)"/></g><g style="display:inline"><path d="M0 172h128v128H0z" style="display:inline;overflow:visible;visibility:visible;fill:none;fill-opacity:1;fill-rule:nonzero;stroke:none;stroke-width:.5;marker:none" transform="translate(3.484 -73.153)scale(.44556)"/></g><g style="display:inline"><path d="M25 203h72m-72.432 76h40.864" style="display:inline;fill:none;fill-opacity:1;stroke:#99c1f1;stroke-width:2;stroke-linecap:round;stroke-linejoin:round;stroke-opacity:1" transform="translate(3.484 -73.153)scale(.44556)"/><g style="display:inline"><path d="M204 195h2v69h-2z" style="opacity:1;vector-effect:none;fill:#2864b0;fill-opacity:1;stroke:none;stroke-width:6.51674;stroke-linecap:butt;stroke-linejoin:miter;stroke-miterlimit:4;stroke-dasharray:none;stroke-dashoffset:0;stroke-opacity:1;marker:none;marker-start:none;marker-mid:none;marker-end:none;paint-order:normal" transform="translate(-74.936 -67.806)scale(.44556)"/><path d="m201 196 4-4 4 4z" style="opacity:1;vector-effect:none;fill:#2864b0;fill-opacity:1;stroke:none;stroke-width:6.51673;stroke-linecap:butt;stroke-linejoin:miter;stroke-miterlimit:4;stroke-dasharray:none;stroke-dashoffset:0;stroke-opacity:1;marker:none;marker-start:none;marker-mid:none;marker-end:none;paint-order:normal" transform="translate(-74.936 -67.806)scale(.44556)"/><path d="m201 262 4 4 4-4z" style="opacity:1;vector-effect:none;fill:#2864b0;fill-opacity:1;stroke:none;stroke-width:6.51673;stroke-linecap:butt;stroke-linejoin:miter;stroke-miterlimit:4;stroke-dasharray:none;stroke-dashoffset:0;stroke-opacity:1;marker:none;marker-start:none;marker-mid:none;marker-end:none;paint-order:normal" transform="translate(-74.936 -67.806)scale(.44556)"/></g><g style="display:inline"><path d="M204 216h2v48h-2z" style="opacity:1;vector-effect:none;fill:#2864b0;fill-opacity:1;stroke:none;stroke-width:6.51673;stroke-linecap:butt;stroke-linejoin:miter;stroke-miterlimit:4;stroke-dasharray:none;stroke-dashoffset:0;stroke-opacity:1;marker:none;marker-start:none;marker-mid:none;marker-end:none;paint-order:normal" transform="rotate(90 107.827 31.109)scale(.44556)"/><path d="m201 216 4-4 4 4z" style="opacity:1;vector-effect:none;fill:#2864b0;fill-opacity:1;stroke:none;stroke-width:6.51673;stroke-linecap:butt;stroke-linejoin:miter;stroke-miterlimit:4;stroke-dasharray:none;stroke-dashoffset:0;stroke-opacity:1;marker:none;marker-start:none;marker-mid:none;marker-end:none;paint-order:normal" transform="rotate(90 107.827 31.109)scale(.44556)"/><path d="m201 264 4 4 4-4z" style="opacity:1;vector-effect:none;fill:#2864b0;fill-opacity:1;stroke:none;stroke-width:6.51673;stroke-linecap:butt;stroke-linejoin:miter;stroke-miterlimit:4;stroke-dasharray:none;stroke-dashoffset:0;stroke-opacity:1;marker:none;marker-start:none;marker-mid:none;marker-end:none;paint-order:normal" transform="rotate(90 107.827 31.109)scale(.44556)"/></g><path d="M35 191v92m58-92v28" style="display:inline;fill:none;fill-opacity:1;stroke:#99c1f1;stroke-width:2;stroke-linecap:round;stroke-linejoin:round;stroke-opacity:1" transform="translate(3.484 -73.153)scale(.44556)"/><path d="M92.381 207.893q-.095.524-.429.857-.285.333-.619.667l-.666.666q-.286.334-.334.857-.143 1.096-1.143 1.81-1 .667-2.333.667-1.143 0-3.81-.143t-6.095-.143q-3.81 0-7.81.286-4 .238-7.809.857t-7.19 1.619-5.905 2.476-4 3.476q-1.476 1.953-1.476 4.524 0 2.333.81 4.571.857 2.19 1.952 4.048 1.143 1.81 2.286 3.19 1.19 1.382 1.857 2 .476.43.476.905 0 .953-2.429.953-.619 0-1.762-.238-1.095-.238-2.38-.81-1.286-.571-2.667-1.571-1.334-1-2.429-2.524t-1.81-3.62Q36 231.18 36 228.322q0-4.095 2.048-7.904 2.095-3.857 5.619-6.905 3.571-3.095 8.333-5.143 4.762-2.095 10.143-2.762 2.524-.428 5.143-.714 2.666-.286 5.238-.476 2.571-.19 4.952-.286 2.429-.095 4.476-.095 3.81 0 6 .285 2.19.239 3.238.62 1.096.38 1.334.857.286.428.286.81 0 .285-.191.57-.143.286-.238.715m-21 8.286q0 .333-.095 2.761-.096 2.43-.286 6.191-.143 3.762-.381 8.524-.19 4.762-.429 9.81-.19 5-.428 9.904-.19 4.905-.381 9-.143 4.095-.238 7-.095 2.857-.095 3.81 0 .523-.143 1.047-.095.572-.429 1.048-.333.524-.952.905-.572.38-1.572.571-.857.143-1.571.476-.667.381-1.238.762-.524.381-.953.667-.428.285-.81.285-.237 0-.332-.238-.096-.19-.143-.523-.048-.286-.048-.62v-.523q.048-2.953.286-9.905.095-2.952.238-7.048.19-4.143.429-9.666.285-5.572.619-12.62.333-7.095.761-15.952.096-2.143.762-3.571.667-1.429 2.381-1.81.857-.19 1.524-.619.714-.476 1.286-.952.571-.476 1-.857.428-.381.714-.381.429 0 .476.762.048.714.048 1.762" aria-label="T" style="font-size:97.5238px;font-family:Engagement;-inkscape-font-specification:&quot;Engagement, Normal&quot;;text-align:center;text-anchor:middle;white-space:pre;fill:#3584e4;stroke-width:2;stroke-linecap:round;stroke-linejoin:round;paint-order:markers stroke fill" transform="translate(3.484 -73.153)scale(.44556)"/></g></g></svg>