<svg xmlns="http://www.w3.org/2000/svg" width="64" height="64" viewBox="0 0 16.933 16.933"><defs><linearGradient id="a" x1="-15.867" x2="-1.05" y1="8.466" y2="8.466" gradientTransform="translate(-.008)" gradientUnits="userSpaceOnUse"><stop offset="0" stop-color="#838383"/><stop offset="1" stop-color="#fff"/></linearGradient><linearGradient id="c" x1="118.39" x2="173.78" y1="128.5" y2="236.98" gradientTransform="matrix(.0496 0 0 .05254 2.086 1.762)" gradientUnits="userSpaceOnUse"><stop offset="0" stop-color="red"/><stop offset="1" stop-color="#400"/></linearGradient><linearGradient id="e" x1="56.88" x2="110.98" y1="58.229" y2="120.55" gradientTransform="matrix(.10023 0 0 .10517 2.026 1.716)" gradientUnits="userSpaceOnUse"><stop offset="0" stop-color="#ffd600"/><stop offset="1" stop-color="#7a6500"/></linearGradient><filter id="d" width="1.177" height="1.173" x="-.089" y="-.086" color-interpolation-filters="sRGB"><feGaussianBlur stdDeviation="2.513"/></filter><filter id="b" width="1.295" height="1.293" x="-.147" y="-.147" color-interpolation-filters="sRGB"><feGaussianBlur stdDeviation=".702"/></filter></defs><rect width="14.817" height="14.817" x="-15.875" y="1.058" fill="url(#a)" rx="3.44" ry="3.44" transform="rotate(-90)"/><path d="m4.896 14.454 1.253-4.4-3.391-2.716 4.277-.105 1.512-4.26 1.378 4.26 4.26.123-3.367 2.734 1.195 4.364-3.516-2.594z" filter="url(#b)" opacity=".15"/><path fill="url(#c)" d="M6.186 9.853 2.83 7.14l4.233-.105 1.496-4.256 1.364 4.256 4.216.122-3.332 2.733 1.182 4.36-3.48-2.592-3.563 2.592z"/><path d="M37.639 60.89c-.167.833 8.555 9.881 9.333 9.666.43-.118 7-6.166 7-6.166l17.167 18.5s-4.667 2.666-9.667 2.166-7.95-2.544-13.666-8.833c-1.667-1.833-4.167 1.167-4.167 1.167l-3-.167s-3.667 1.333-2.5 3.667c.707 1.414-17.24 7.364-10.334 15.333 6.5 7.5 14.667-8 15.834-8.833s10.666 19 37.166 7c0 0 3.643 3.798 4 3.826.52.042 9.5-7.951 9.5-8.66 0-.604-5-5.333-5-5.333s12-14.167-1.573-34.645c-.994-1.5-6.126-8.297-13.03-12.773-4.005-2.596-9.096-5.648-16.897-8.249-2.5-.833 2.992 3.7 9.033 9.799 3.533 3.567 6.753 7.9 8.967 10.868 7.834 10.5 6.824 20.218 3.834 25 0 0-8.916-9.575-17-18.334 0 0 7.416-7.333 7-7.833-1.307-1.57-1.172-1.673-2.667-2.667 0 0-1.793.558-4.513.661-3.838.146-9.025-.118-9.32.172-1.003.988-15.25 13.418-15.5 14.668" filter="url(#d)" opacity=".25" transform="matrix(.10024 0 0 .10517 2.025 2.082)"/><path fill="url(#e)" d="M5.798 8.12c-.016.087.858 1.039.936 1.016.043-.012.702-.648.702-.648l1.72 1.945s-.468.28-.969.228-.797-.267-1.37-.929c-.167-.193-.417.123-.417.123l-.301-.018s-.368.14-.25.386c.07.149-1.729.775-1.036 1.613.651.788 1.47-.842 1.587-.93.117-.087 1.069 1.999 3.725.737 0 0 .365.4.4.402.053.005.953-.836.953-.91 0-.064-.501-.561-.501-.561s1.203-1.49-.158-3.644c-.1-.158-.614-.873-1.306-1.343a7 7 0 0 0-1.693-.868c-.251-.087.3.39.905 1.03.354.376.677.832.899 1.144.785 1.104.684 2.126.384 2.629 0 0-.894-1.007-1.704-1.928 0 0 .743-.771.702-.824-.131-.165-.118-.176-.268-.28 0 0-.18.058-.452.069-.385.015-.905-.012-.934.018-.1.104-1.529 1.411-1.554 1.543"/></svg>