<svg xmlns="http://www.w3.org/2000/svg" viewBox="0 0 16.933 16.933"><rect width="14.816" height="14.816" x="1.058" y="1.058" fill="#babfc5" rx="3.704" ry="3.704"/><circle cx="8.466" cy="8.466" r="4.498" fill="#1a1a1a"/><circle cx="8.466" cy="8.466" r="2.91" fill="#333" stroke="#121416" stroke-width=".106"/><circle cx="8.466" cy="8.466" r="2.381" fill="#4d4d4d" stroke="#1b1d1d" stroke-width=".106"/><circle cx="32" cy="32" r="3" fill="#30f7ff" transform="scale(.26458)"/><path d="M1.058 12.17v.265a3.433 3.433 0 0 0 3.44 3.44h7.937a3.433 3.433 0 0 0 3.44-3.44v-.265a3.433 3.433 0 0 1-3.44 3.44H4.498a3.433 3.433 0 0 1-3.44-3.44" opacity=".12"/><path fill="#fff" d="M1.058 4.764v-.265a3.433 3.433 0 0 1 3.44-3.44h7.937a3.433 3.433 0 0 1 3.44 3.44v.265a3.433 3.433 0 0 0-3.44-3.44H4.498a3.433 3.433 0 0 0-3.44 3.44" opacity=".2"/></svg>