<svg xmlns="http://www.w3.org/2000/svg" xmlns:xlink="http://www.w3.org/1999/xlink" width="64" height="64"><defs><linearGradient id="c"><stop offset="0" style="stop-color:#eaeaea;stop-opacity:1"/><stop offset="1" style="stop-color:#b0b0b0;stop-opacity:1"/></linearGradient><linearGradient id="a" x1="7.937" x2="7.937" y1="15.081" y2="1.852" gradientTransform="scale(3.7796)" gradientUnits="userSpaceOnUse" spreadMethod="pad"><stop offset="0" stop-color="#363636" style="stop-color:#eaeaea;stop-opacity:1"/><stop offset="1" stop-color="#6c6c6c"/></linearGradient><linearGradient xlink:href="#a" id="b" x1="7.937" x2="7.937" y1="15.081" y2="1.852" gradientTransform="scale(3.7796)" gradientUnits="userSpaceOnUse"><stop offset="0" stop-color="#363636" style="stop-color:#241f31;stop-opacity:1"/><stop offset="1" stop-color="#6c6c6c" style="stop-color:#312c3d;stop-opacity:1"/></linearGradient><linearGradient xlink:href="#b" id="e" x1="7.937" x2="7.937" y1="15.081" y2="1.852" gradientTransform="translate(4.338 4.334)scale(3.26724)" gradientUnits="userSpaceOnUse"/><linearGradient id="f" x1="82.547" x2="75.456" y1="85.636" y2="52.909" gradientTransform="translate(-2 -13)" gradientUnits="userSpaceOnUse"><stop offset="0" stop-color="#b0b0b0"/><stop offset="1" stop-color="#e4e4e4"/></linearGradient><linearGradient xlink:href="#c" id="d" x1="4" x2="4" y1="3.969" y2="59.971" gradientUnits="userSpaceOnUse"/><filter id="h" width="1.415" height="1.553" x="-.207" y="-.277" style="color-interpolation-filters:sRGB"><feGaussianBlur stdDeviation=".754"/></filter><filter id="g" width="1.415" height="1.553" x="-.207" y="-.277" style="color-interpolation-filters:sRGB"><feGaussianBlur stdDeviation=".754"/></filter></defs><rect width="56.002" height="56.002" x="4" y="3.969" fill="url(#b)" rx="13.002" ry="13.002" style="fill:url(#d);fill-opacity:1"/><rect width="48.41" height="39.55" x="7.796" y="7.764" fill="url(#b)" rx="9.242" ry="9.242" style="fill:url(#e);stroke:none;stroke-opacity:1;stroke-width:1.867;stroke-dasharray:none"/><path fill="#3584e4" d="M103 66.23c1.09.192 2.133-.535 2.273-1.628a43.6 43.6 0 0 0-1.164-17.032 43.62 43.62 0 0 0-24.054-28.293 43.6 43.6 0 0 0-18.621-3.91 43.64 43.64 0 0 0-33.399 16.235 43.6 43.6 0 0 0-8.43 17.058 43.6 43.6 0 0 0-.722 17.055c.168 1.09 1.226 1.789 2.312 1.57l13.184-2.68c1.082-.218 1.773-1.273 1.637-2.37a26.2 26.2 0 0 1 .546-9.438 26.1 26.1 0 0 1 5.06-10.234A26.17 26.17 0 0 1 61.66 32.82c3.852-.05 7.668.75 11.172 2.344a26.15 26.15 0 0 1 9.113 6.879 26.15 26.15 0 0 1 5.32 10.098 26.3 26.3 0 0 1 .79 9.425c-.11 1.098.61 2.137 1.695 2.329zm0 0" style="display:inline" transform="translate(2.425 3.559)scale(.47702)"/><path fill="#ed333b" d="M103 66.23c1.09.192 2.133-.535 2.273-1.628a43.7 43.7 0 0 0-1.765-19.059 43.7 43.7 0 0 0-9.75-16.469c-.758-.804-2.028-.781-2.797.016l-9.36 9.664c-.769.793-.742 2.055-.007 2.883a26.1 26.1 0 0 1 5.308 9.289 26.2 26.2 0 0 1 1.153 10.64c-.11 1.098.61 2.137 1.695 2.329zm0 0" style="display:inline" transform="translate(2.425 3.559)scale(.47702)"/><path fill="#fff" d="M17.648 17.351a.52.52 0 0 1 .736 0l1.472 1.473a.52.52 0 0 1-.736.736l-1.472-1.473a.52.52 0 0 1 0-.736m26.496 2.209a.52.52 0 0 1 0-.736l1.472-1.473a.52.52 0 0 1 .736.736L44.88 19.56a.52.52 0 0 1-.736 0m-19.909-6.608a.52.52 0 0 1 .679.283l.797 1.923a.52.52 0 1 1-.961.397l-.798-1.923a.52.52 0 0 1 .283-.68m23.632 12.179a.52.52 0 0 1 .281-.68l1.923-.796a.52.52 0 1 1 .399.962l-1.923.795a.52.52 0 0 1-.68-.281m-8.099-12.179c.265.11.392.416.282.68l-.798 1.923a.52.52 0 1 1-.961-.397l.797-1.923a.52.52 0 0 1 .68-.283M13.25 23.937a.52.52 0 0 1 .68-.282l1.924.796a.52.52 0 0 1-.397.961l-1.923-.795a.52.52 0 0 1-.283-.68M32 11.407a.52.52 0 0 1 .522.522v2.081a.52.52 0 0 1-1.042 0v-2.08a.52.52 0 0 1 .52-.522m0 0" style="display:inline"/><path fill="url(#f)" fill-rule="evenodd" d="M66.574 61.977A5.45 5.45 0 0 1 62 64.453a5.453 5.453 0 0 1-3.293-9.8 6 6 0 0 1 .563-.563l34.527-29.695a1.629 1.629 0 0 1 2.313 2.281L66.901 61.617a6 6 0 0 1-.328.36m0 0" style="fill:url(#f)" transform="translate(2.425 3.559)scale(.47702)"/><path fill="#fff" d="M49.171 31.703c0-.287.235-.52.522-.52h2.081a.52.52 0 0 1 0 1.04h-2.081a.52.52 0 0 1-.522-.52m-37.467 0a.52.52 0 0 1 .52-.52h2.081a.52.52 0 1 1 0 1.04h-2.08a.52.52 0 0 1-.52-.52m0 0"/><path fill="#68676b" d="M32 30.662a1.042 1.042 0 0 0 0 2.083 1.042 1.042 0 0 0 0-2.083m0 0"/><path fill="#949390" d="M18.363 85.184h8.727v2.18a4.363 4.363 0 1 1-8.727 0zm0 0" style="fill:#010101;fill-opacity:1;filter:url(#g);opacity:.34932577" transform="translate(2.425 11.684)scale(.47702)"/><path fill="#949390" d="M29.273 85.184H38v2.18a4.363 4.363 0 1 1-8.727 0zm0 0" style="fill:#010101;fill-opacity:1;filter:url(#h);opacity:.34932577" transform="translate(2.425 11.684)scale(.47702)"/><path fill="#d5d3cf" d="M15.347 52.319a2.081 2.081 0 1 1-4.163 0 2.083 2.083 0 1 1 4.163 0m5.204 0a2.081 2.081 0 1 1-4.162 0c0-1.15.931-2.084 2.081-2.084s2.081.934 2.081 2.084m0 0"/></svg>