<svg xmlns="http://www.w3.org/2000/svg" width="64" height="64" viewBox="0 0 16.933 16.933"><defs><linearGradient id="a" x1="8.649" x2="8.649" y1="1.483" y2="15.436" gradientUnits="userSpaceOnUse"><stop offset="0" stop-color="#17b7f1"/><stop offset="1" stop-color="#1763e1"/></linearGradient><linearGradient id="d" x1="60.997" x2="60.997" y1="29.79" y2="104.85" gradientTransform="matrix(.07932 0 0 .07931 6.953 7.179)" gradientUnits="userSpaceOnUse"><stop offset="0" stop-color="#0059ff"/><stop offset="1" stop-color="#31fbff"/></linearGradient><linearGradient id="c" x1="12.171" x2="12.171" y1="8.202" y2="16.139" gradientTransform="translate(2 2)scale(.99609)" gradientUnits="userSpaceOnUse"><stop offset="0" stop-color="#fff"/><stop offset="1" stop-color="#d7d7d7"/></linearGradient><radialGradient id="b" cx="12.17" cy="12.17" r="4.763" gradientUnits="userSpaceOnUse"><stop offset="0"/><stop offset="1" stop-opacity="0"/></radialGradient></defs><rect width="14.817" height="14.817" x="1.058" y="1.05" fill="url(#a)" rx="3.44" ry="3.44"/><path fill="#fff" d="M7.604 3.969c-.138 0-.17.006-.26.05a.66.66 0 0 0-.303.304.68.68 0 0 0-.026.465c.018.048.185.35.371.67s.338.595.339.61c0 .015-.458.82-1.018 1.79L5.69 9.624l-1.85.01-.104.049a.67.67 0 0 0-.317.315.5.5 0 0 0-.05.255c0 .125.008.163.05.252a.65.65 0 0 0 .426.356c.036.009 1.375.016 3.02.017l2.956.002.034-.037c.028-.03.033-.063.032-.205-.003-.43-.25-.84-.59-.975-.063-.025-.198-.03-1.118-.038l-1.049-.01.299-.514c1.859-3.198 2.46-4.24 2.488-4.313a.5.5 0 0 0 .026-.227.61.61 0 0 0-.354-.542c-.092-.044-.123-.05-.26-.05a.5.5 0 0 0-.267.05c-.151.07-.243.177-.43.505-.085.15-.16.272-.167.272s-.082-.122-.167-.272c-.188-.33-.266-.421-.422-.498-.105-.052-.13-.057-.273-.057zm1.792 2.449c-.037-.001-.133.093-.199.195-.23.356-.322 1.088-.194 1.547.025.087.326.623 1.312 2.327.704 1.217 1.306 2.243 1.34 2.28a.622.622 0 0 0 1.076-.474.7.7 0 0 0-.044-.194c-.02-.043-.184-.333-.364-.645l-.33-.566 1.1-.018.105-.049a.67.67 0 0 0 .317-.315.5.5 0 0 0 .05-.254.47.47 0 0 0-.05-.253.67.67 0 0 0-.315-.317l-.106-.05-1.831-.01-.923-1.601c-.508-.881-.933-1.603-.944-1.603m-4.361 4.748a.6.6 0 0 0-.218.027c-.037.02-.104.118-.258.383-.311.533-.335.586-.334.757 0 .27.148.484.405.588a.76.76 0 0 0 .482-.021c.16-.077.236-.177.576-.766l.316-.55-.028-.05c-.074-.132-.297-.264-.556-.328a1.8 1.8 0 0 0-.385-.04"/><circle cx="12.17" cy="12.17" r="4.763" fill="url(#b)"/><circle cx="12.17" cy="12.17" r="4.233" fill="url(#c)"/><path fill="url(#d)" d="M11.112 9.79v2.91H9.789l2.381 2.381 2.381-2.381H13.23V9.79z"/></svg>