<svg xmlns="http://www.w3.org/2000/svg" xml:space="preserve" style="fill-rule:evenodd;clip-rule:evenodd;stroke-linejoin:round;stroke-miterlimit:2" viewBox="0 0 64 64"><path d="M60 12.97v38a9 9 0 0 1-9 9H13a9 9 0 0 1-9-9v-38a9 9 0 0 1 9-9h38a9 9 0 0 1 9 9" style="fill:url(#a)"/><path d="M48.09 15c-12.84 0-21.82 11.84-21.82 11.84-9.28 1.23-14.85 7.62-14.85 7.62 2.58-.06 5.15-.56 9.2-.56 4.06 0 .67 3.75.67 3.75 1.23 2.46 4.75 5.23 4.75 5.23 1.66-1.78 3.56-1.17 3.56-1.17v9.34c6.51-5.59 6.7-13.9 6.7-13.9C48.22 29.35 48.09 15 48.09 15m-10.51 7.37c2.06 0 3.75 1.69 3.75 3.75 0 2.05-1.69 3.75-3.75 3.75s-3.75-1.7-3.75-3.75c0-2.06 1.69-3.75 3.75-3.75M19.51 40.18s-3.97 3.8-3.97 7.37c3.62 0 5.21-.51 7.42-4.01 0 0-1.27 1.06-3.67 1.06 0 0-.64-1.41.22-4.42" style="fill:#44494c;fill-rule:nonzero"/><path d="M48.06 15c-.1 1.92-1.17 14.64-12.18 21.85 0 0-.25 8.22-6.28 13.81v.39c6.51-5.59 6.7-13.9 6.7-13.9C48.22 29.35 48.09 15 48.09 15zm-10.48 6.98c-2.06 0-3.75 1.69-3.75 3.75 0 .07.02.13.03.19.1-1.97 1.72-3.56 3.72-3.56s3.62 1.59 3.72 3.56c0-.06.03-.12.03-.19 0-2.06-1.69-3.75-3.75-3.75M20.62 33.51c-3.85 0-6.35.43-8.81.53-.23.24-.39.42-.39.42 2.58-.06 5.15-.56 9.2-.56 1.38 0 1.89.43 1.98 1 .09-.75-.31-1.39-1.98-1.39m.81 3.97-.14.17c1.23 2.46 4.75 5.23 4.75 5.23 1.66-1.78 3.56-1.17 3.56-1.17v-.39s-1.9-.61-3.56 1.17c0 0-3.29-2.61-4.61-5.01m-1.92 2.7s-.09.12-.11.14c-.27 1.1-.36 1.96-.33 2.59.01-.69.12-1.6.44-2.73m3.45 3.37s-.2.12-.47.27c-1.98 2.85-3.58 3.34-6.92 3.34-.01.13-.03.26-.03.39 3.62 0 5.21-.5 7.42-4" style="fill:#292b2a;fill-opacity:.46;fill-rule:nonzero"/><defs><linearGradient id="a" x1="0" x2="1" y1="0" y2="0" gradientTransform="rotate(90 14.58 20.921)scale(52.50044)" gradientUnits="userSpaceOnUse"><stop offset="0" style="stop-color:#cbe2e7;stop-opacity:1"/><stop offset="1" style="stop-color:#797979;stop-opacity:1"/></linearGradient></defs></svg>