<svg xmlns="http://www.w3.org/2000/svg" width="64" height="64"><defs><linearGradient id="a" x1="7.937" x2="7.937" y1="15.081" y2="1.852" gradientTransform="scale(3.7796)" gradientUnits="userSpaceOnUse"><stop offset="0" stop-color="#f1efeb"/><stop offset="1" stop-color="#fdfcfc"/></linearGradient><linearGradient id="f" x1="27.449" x2="27.449" y1="36.346" y2="40.938" gradientUnits="userSpaceOnUse"><stop offset="0" stop-color="#757575"/><stop offset="1" stop-color="#525252"/></linearGradient><linearGradient id="e" x1="39.785" x2="39.785" y1="17.051" y2="27.019" gradientUnits="userSpaceOnUse"><stop offset="0" stop-color="#ff5a67"/><stop offset="1" stop-color="#ad2a36"/></linearGradient><linearGradient id="d" x1="33.992" x2="33.992" y1="21.997" y2="42.462" gradientUnits="userSpaceOnUse"><stop offset="0" stop-color="#755cd6"/><stop offset="1" stop-color="#3e269c"/></linearGradient><linearGradient id="c" x1="31.334" x2="31.334" y1="14.592" y2="48.078" gradientUnits="userSpaceOnUse"><stop offset="0" stop-color="#616161"/><stop offset="1" stop-color="#2f2f2f"/></linearGradient><filter id="b" width="1.191" height="1.249" x="-.095" y="-.125" color-interpolation-filters="sRGB"><feGaussianBlur stdDeviation="1.738"/></filter></defs><rect width="56.002" height="56.002" x="4" y="3.969" fill="url(#a)" rx="13.002" ry="13.002"/><path d="M29.66 16.598c-1.857.044-3.65.52-5.262 1.488-3.222 1.936-5.054 5.44-5.445 9.444s.634 8.536 3.137 12.7c.23.383.476.745.722 1.108-2.297.517-4.417.843-6.156.887-2.189.055-5.236-.417-6.107-2.426-.78-1.8 2.156-5.477 2.156-5.477s-3.994 3.814-3.682 6.196c.43 3.285 4.557 3.81 7.813 3.771 1.663-.019 4.25-.463 7.254-1.224 2.23 2.717 4.928 4.737 7.74 5.898 3.718 1.534 7.675 1.56 10.896-.375s5.055-5.442 5.445-9.445c.21-2.153-.003-4.459-.62-6.778 3.162-2.586 5.225-5.453 5.2-8.457-.029-3.578-6.464-3.893-6.464-3.681 0 0 4.771 1.197 4.668 3.502-.098 2.158-1.653 4.382-4.092 6.508a23.5 23.5 0 0 0-1.828-3.793 24 24 0 0 0-.846-1.297 5 5 0 0 0 .125-1.11 4.984 4.984 0 0 0-6.188-4.836 18 18 0 0 0-2.832-1.49c-1.858-.767-3.778-1.157-5.634-1.113m.049 1.416c1.633-.036 3.344.31 5.043 1.012.599.247 1.19.555 1.78.888a4.98 4.98 0 0 0-2.186 4.123v.002c-.268-.02-.536-.04-.809-.04a10.23 10.23 0 0 0-8.904 15.265 3.2 3.2 0 0 0-.297 1.341 3 3 0 0 0 .022.364q-.035.008-.069.02-.513-.717-.98-1.491c-2.356-3.92-3.299-8.172-2.941-11.83.357-3.659 1.985-6.694 4.763-8.363 1.39-.835 2.945-1.255 4.578-1.291m13.814 8.715c.096.151.2.292.293.447a22 22 0 0 1 1.879 4.012 35 35 0 0 1-2.059 1.472c-.247-1.6-.86-3.076-1.758-4.341a5 5 0 0 0 1.645-1.59m-11.816 2.678c3.572 0 6.536 2.68 6.937 6.144a71 71 0 0 1-8.302 3.564 3.188 3.188 0 0 0-5.233-.59 7 7 0 0 1-.347-2.171 6.937 6.937 0 0 1 6.945-6.948zm14.62 3.908c.462 1.965.603 3.899.429 5.69-.357 3.658-1.984 6.695-4.762 8.364s-6.223 1.682-9.621.28c-2.039-.842-4.038-2.21-5.824-4.008a3.2 3.2 0 0 0 2.486-.229 10.2 10.2 0 0 0 4.502 1.053c5.378 0 9.775-4.147 10.19-9.418.91-.56 1.788-1.136 2.6-1.732m-7.8 4.539c-.691 3.128-3.491 5.486-6.82 5.486a6.9 6.9 0 0 1-2.098-.324 3.2 3.2 0 0 0 1.066-1.942 79 79 0 0 0 7.852-3.22" color="#000" filter="url(#b)" opacity=".15" style="font-feature-settings:normal;font-variant-alternates:normal;font-variant-caps:normal;font-variant-east-asian:normal;font-variant-ligatures:normal;font-variant-numeric:normal;font-variant-position:normal;font-variation-settings:normal;inline-size:0;isolation:auto;mix-blend-mode:normal;shape-margin:0;shape-padding:0;text-decoration-color:#000;text-decoration-line:none;text-decoration-style:solid;text-indent:0;text-orientation:mixed;text-transform:none;white-space:normal"/><path fill="url(#c)" d="M30.115 14.596c-1.857.044-3.65.52-5.262 1.488-3.222 1.936-5.054 5.44-5.445 9.444s.634 8.536 3.137 12.7c.23.383.476.745.722 1.108-2.297.517-4.417.843-6.156.887-2.189.055-5.236-.417-6.107-2.426-.78-1.8 2.156-5.477 2.156-5.477s-3.994 3.814-3.682 6.196c.43 3.285 4.557 3.81 7.813 3.771 1.663-.019 4.25-.463 7.254-1.224 2.23 2.717 4.928 4.737 7.74 5.898 3.718 1.534 7.675 1.56 10.896-.375s5.055-5.442 5.445-9.445c.21-2.153-.003-4.459-.62-6.778 3.162-2.586 5.225-5.453 5.2-8.457-.029-3.578-6.464-3.893-6.464-3.681 0 0 4.771 1.197 4.668 3.502-.098 2.158-1.653 4.382-4.092 6.508a23.5 23.5 0 0 0-1.828-3.793c-2.503-4.166-6.023-7.198-9.74-8.733-1.86-.767-3.779-1.157-5.635-1.113m.049 1.416c1.633-.036 3.344.31 5.043 1.012 3.398 1.402 6.708 4.23 9.064 8.15a22 22 0 0 1 1.88 4.012c-5.456 4.237-14.167 7.955-21.407 9.8q-.514-.716-.98-1.49c-2.356-3.92-3.299-8.171-2.942-11.83.357-3.658 1.986-6.694 4.764-8.363 1.389-.834 2.945-1.254 4.578-1.29zm16.619 15.301c.46 1.966.602 3.899.428 5.69-.357 3.658-1.984 6.696-4.762 8.365s-6.223 1.681-9.621.279c-2.395-.988-4.738-2.697-6.742-4.984 6.691-1.861 15.04-5.194 20.697-9.35" color="#000" style="font-feature-settings:normal;font-variant-alternates:normal;font-variant-caps:normal;font-variant-east-asian:normal;font-variant-ligatures:normal;font-variant-numeric:normal;font-variant-position:normal;font-variation-settings:normal;inline-size:0;isolation:auto;mix-blend-mode:normal;shape-margin:0;shape-padding:0;text-decoration-color:#000;text-decoration-line:none;text-decoration-style:solid;text-indent:0;text-orientation:mixed;text-transform:none;white-space:normal" transform="translate(-.455)"/><path fill="url(#d)" d="M33.992 21.997c-5.653 0-10.233 4.579-10.233 10.233s4.579 10.233 10.233 10.233 10.233-4.579 10.233-10.233-4.579-10.233-10.233-10.233m-1.83 5.408c3.844 0 6.987 3.102 6.987 6.946s-3.143 6.988-6.987 6.988-6.947-3.144-6.947-6.988a6.937 6.937 0 0 1 6.947-6.946" transform="translate(-.455)"/><path fill="url(#e)" d="M44.769 22.035a4.984 4.984 0 1 1-9.968 0 4.984 4.984 0 1 1 9.968 0" transform="translate(-.455)"/><path fill="url(#f)" d="M31.167 38.603a3.188 3.188 0 1 1-6.376 0 3.188 3.188 0 1 1 6.376 0" transform="translate(-.455)"/></svg>