<svg xmlns="http://www.w3.org/2000/svg" width="64" height="64"><defs><linearGradient id="g" x1="386.57" x2="414.57" y1="531.8" y2="531.8" gradientUnits="userSpaceOnUse"><stop offset="0" stop-color="#fff"/><stop offset="1" stop-color="#ebebeb"/></linearGradient><linearGradient id="h" x1="-86.388" x2="-94.072" y1="734.34" y2="939.73" gradientTransform="translate(-826.36 -1107.5)scale(2.1429)" gradientUnits="userSpaceOnUse"><stop offset="0" stop-color="#1769cc"/><stop offset="1" stop-color="#5ee6fb"/></linearGradient><linearGradient id="a" x1="30" x2="30" y1="57" y2="8" gradientUnits="userSpaceOnUse"><stop offset="0" stop-color="#292929"/><stop offset="1" stop-color="#525252"/></linearGradient><linearGradient id="c" x1="90" x2="90" y1="43" y2="13" gradientTransform="translate(-58 8)" gradientUnits="userSpaceOnUse"><stop offset="0" stop-color="#3e9e9b"/><stop offset=".464" stop-color="#5e91a8"/><stop offset="1" stop-color="#d9d1a1"/></linearGradient><linearGradient id="e" x1="90" x2="90" y1="43" y2="13" gradientTransform="translate(-61 1)" gradientUnits="userSpaceOnUse"><stop offset="0" stop-color="#3cd1fb"/><stop offset="1" stop-color="#87e2fd"/></linearGradient><filter id="f" width="1.12" height="1.12" x="-.06" y="-.06" color-interpolation-filters="sRGB"><feGaussianBlur stdDeviation=".7"/></filter><filter id="b" width="1.144" height="1.186" x="-.072" y="-.093" color-interpolation-filters="sRGB"><feGaussianBlur stdDeviation="1.318"/></filter><filter id="d" width="1.144" height="1.186" x="-.072" y="-.093" color-interpolation-filters="sRGB"><feGaussianBlur stdDeviation="1.318"/></filter></defs><circle cx="32.02" cy="32.044" r="30.001" fill="none"/><rect width="56.002" height="56.002" x="4" y="3.969" fill="url(#a)" rx="13.002" ry="13.002"/><g stroke-linecap="round" stroke-linejoin="round" stroke-width="2"><rect width="44" height="34" x="12" y="20" filter="url(#b)" opacity=".35" rx="4" ry="4"/><rect width="44" height="34" x="12" y="19" fill="url(#c)" rx="4" ry="4"/><rect width="44" height="34" x="9" y="13" filter="url(#d)" opacity=".35" rx="4" ry="4"/><rect width="44" height="34" x="9" y="12" fill="url(#e)" rx="4" ry="4"/><path fill="#fff" d="M13 12c-2.216 0-4 1.784-4 4v3h44v-3c0-2.216-1.784-4-4-4z" opacity=".25"/></g><path fill="#273a3f" d="M14.225 15.594a.65.65 0 0 1 .324-.563.68.68 0 0 0-.549-.3c-.233-.037-.456.132-.574.132s-.301-.132-.495-.132c-.255 0-.49.15-.62.375-.265.47-.068 1.144.19 1.52.126.168.276.374.473.374.19 0 .262-.131.492-.131s.294.131.495.131c.204 0 .334-.187.459-.375.145-.206.204-.412.208-.431a.65.65 0 0 1-.403-.6m-.378-1.106a.7.7 0 0 0 .156-.488.63.63 0 0 0-.442.225c-.097.113-.181.3-.159.469.169.019.34-.094.445-.206M47.334 14A1.174 1.174 0 1 0 48 16.142l.786.787c.205.215.52-.108.3-.307l-.501-.502-.284-.284A1.174 1.174 0 0 0 47.334 14m0 .214a.96.96 0 1 1 0 1.921.96.96 0 0 1 0-1.921" class="ColorScheme-Text"/><g stroke-opacity=".8" stroke-width=".662" transform="matrix(.0804 0 0 .07945 56.388 -17.116)"><circle cx="400.57" cy="531.8" r="14" filter="url(#f)" opacity=".25" transform="matrix(10.622 .91339 -.90576 10.75 -3877.2 -5262.9)"/><circle cx="400.57" cy="531.8" r="14" fill="url(#g)" transform="matrix(10.622 .91339 -.90576 10.75 -3877.2 -5262.9)"/><path fill="url(#h)" d="M-67.447 887.53c-3.547 0-7.086-1.54-9.66-4.563-6.598-7.773-15.996-12.215-25.794-12.215-9.964 0-19.118 4.313-25.778 12.15-4.834 5.704-13.076 6.14-18.423.964-5.338-5.166-5.747-13.959-.904-19.645 11.494-13.532 27.934-21.296 45.105-21.296 17.145 0 33.585 7.782 45.113 21.342 4.843 5.695 4.434 14.488-.904 19.654-2.486 2.421-5.625 3.608-8.755 3.608zm28.934-34.809c-3.33 0-6.66-1.354-9.198-4.053-14.762-15.666-34.36-24.291-55.19-24.291-20.874 0-40.48 8.607-55.216 24.236-5.104 5.416-13.363 5.389-18.44-.056-5.078-5.444-5.06-14.256.055-19.672 19.648-20.85 45.792-32.333 73.604-32.333 27.769 0 53.903 11.501 73.586 32.388 5.112 5.417 5.13 14.228.055 19.682-2.548 2.718-5.904 4.1-9.25 4.1zm28.873-34.754c-3.243 0-6.494-1.29-9.024-3.868C-41.434 790.82-71.341 778-102.901 778c-31.62 0-61.545 12.8-84.254 36.061-5.19 5.315-13.45 5.139-18.44-.407s-4.817-14.358.373-19.672c27.595-28.252 63.927-43.806 102.32-43.806 38.315 0 74.638 15.573 102.29 43.834 5.199 5.314 5.373 14.126.392 19.672-2.565 2.847-5.99 4.285-9.416 4.285zm-94.895 103.22c8.7 0 15.754-7.139 15.754-15.945s-7.053-15.945-15.754-15.945c-8.7 0-15.754 7.139-15.754 15.945s7.053 15.945 15.754 15.945"/></g></svg>