<svg xmlns="http://www.w3.org/2000/svg" width="64" height="64" image-rendering="optimizeSpeed"><defs><linearGradient id="a" x1="7.937" x2="7.937" y1="15.081" y2="1.852" gradientTransform="scale(3.7796)" gradientUnits="userSpaceOnUse"><stop offset="0" stop-color="#0e71de"/><stop offset="1" stop-color="#25c9ff"/></linearGradient><linearGradient id="b" x1="27.87" x2="27.87" y1="16.322" y2="48.793" gradientUnits="userSpaceOnUse"><stop offset="0" stop-color="#fff"/><stop offset="1" stop-color="#fff" stop-opacity=".68"/></linearGradient></defs><rect width="56.002" height="56.002" x="4" y="3.969" fill="url(#a)" rx="13.002" ry="13.002"/><circle cx="32.02" cy="32.044" r="30.001" fill="none"/><path fill="url(#b)" d="M27.87 13.646c-8.228.4-14.87 6.057-14.87 13.485 0 2.768 1.586 5.005 4.008 6.899.879.506 1.92.572 3.045.088.628-.293 1.184-1.15 1.74-1.332.557-.182 1.02-.41 1.09-.465.43-.328 1.264-.834 2.504-1.576 1.112-.433 1.047-1.109 1.104-2.074.038-.453.134-1.576.315-2.79s.41-2.49.877-3.47c.504-1.059 1.373-1.813 2.08-2.7.706-.888 1.245-1.799 1.299-2.92.043-.894-.672-1.69-1.614-2.321a8 8 0 0 0-1.578-.824m4.012.22c.722.774 1.276 1.777 1.215 3.025-.083 1.725-.923 3.062-1.74 4.09-.818 1.027-1.62 1.854-1.835 2.306-.253.53-.532 1.759-.7 2.895a42 42 0 0 0-.3 2.657c-.003.038 0 .044-.003.083.462-.266.827-.488 1.305-.76 3.251-1.849 6.617-3.697 8.252-4.324 1.791-.687 4.57-.744 7.072-.74 1.79.003 3.085.066 3.852.107-2.968-5.203-9.073-8.15-17.119-9.338zm13.262 11.27a40 40 0 0 0-4.193.21c.998.786 2.045 1.924 2.59 3.55.628 1.873.596 3.788.433 5.186a35 35 0 0 1 3.076-.292 50 50 0 0 1 3.75-.078c.165-1.1.235-2.232.182-3.373-.087-1.873-.432-3.571-1.009-5.106a1 1 0 0 1-.322.044s-2.082-.137-4.507-.141m-7.395 1.225c-1.049.085-4.074 1.955-6.919 3.572a238 238 0 0 0-4.397 2.56c-1.223.732-2.182 1.348-2.316 1.45 0 0 2.497-1.23-.002.002-2.5 1.232-.687 3.776.173 4.151s3 2.022 5.027 1.78c2.87-.492 7.944-3.244 11.433-4.92 1.876-.94 1.305-4.024.861-5.412-.703-2.098-2.1-3.046-2.585-3.155s-.66-.169-1.275-.028c-.616.14 0 0 0 0m12.063 9.383a51 51 0 0 0-2.645.08c-1.205.068-2.51.223-3.623.437-.571.09-.858.16-1.572.4l-.002-.002c-.12.045-.242.088-.34.136-1.322.632-6.655 2.234-4.226 4.107l2.23 2.937c4.693 2.167 9.561-4.195 10.729-8.091-.192-.003-.212-.006-.552-.004zm-15.438 5.02c-1.042-1.105-3.971.902-2.83 2.79l3.78 5.984a1.72 1.72 0 0 0 2.377.555l1.642-1.02c.655-.686-.401-2.267-1.489-4.004z" style="paint-order:markers stroke fill"/></svg>