<svg xmlns="http://www.w3.org/2000/svg" xmlns:xlink="http://www.w3.org/1999/xlink" width="64" height="64" viewBox="0 0 16.933 16.933"><defs><linearGradient id="a"><stop offset="0"/><stop offset="1" stop-opacity="0"/></linearGradient><linearGradient xlink:href="#a" id="e" x1="14.503" x2="12.163" y1="23.921" y2="27.102" gradientTransform="scale(.26458)" gradientUnits="userSpaceOnUse"/><linearGradient id="i" x1="105.41" x2="105.41" y1="-101.99" y2="308.4" gradientTransform="translate(83.937 15.43)scale(.15595)" gradientUnits="userSpaceOnUse"><stop offset="0" stop-color="#fff"/><stop offset="1" stop-color="#d7d7d7"/></linearGradient><linearGradient id="h" x1="8.466" x2="8.466" y1="11.641" y2="5.292" gradientTransform="translate(17.425 -1.021)" gradientUnits="userSpaceOnUse"><stop offset="0" stop-color="#0a62ff"/><stop offset="1" stop-color="#70beff"/></linearGradient><linearGradient xlink:href="#a" id="f" x1="14.503" x2="12.722" y1="23.921" y2="26.439" gradientTransform="matrix(.26458 0 0 -.26458 0 16.933)" gradientUnits="userSpaceOnUse"/><linearGradient id="b" x1="6.614" x2="6.614" y1="15.875" y2="1.058" gradientTransform="scale(3.7796)" gradientUnits="userSpaceOnUse"><stop offset="0" stop-color="#e4eef1"/><stop offset="1" stop-color="#fff" stop-opacity=".988"/></linearGradient><linearGradient xlink:href="#a" id="d" x1="14.503" x2="12.722" y1="23.921" y2="26.439" gradientTransform="translate(16.932 16.932)scale(-.26458)" gradientUnits="userSpaceOnUse"/><linearGradient xlink:href="#a" id="c" x1="14.503" x2="12.163" y1="23.921" y2="27.102" gradientTransform="matrix(-.26458 0 0 .26458 16.933 0)" gradientUnits="userSpaceOnUse"/><radialGradient id="g" cx="8.466" cy="8.996" r="4.233" gradientTransform="translate(.53 .562)scale(.9375)" gradientUnits="userSpaceOnUse"><stop offset="0"/><stop offset=".732" stop-opacity=".46"/><stop offset=".867" stop-opacity=".1"/><stop offset="1" stop-opacity="0"/></radialGradient></defs><path fill="url(#b)" d="M17.002 3.969A12.973 12.973 0 0 0 4 16.97v29.998A12.973 12.973 0 0 0 17.002 59.97H47a12.973 12.973 0 0 0 13.002-13.002V16.97A12.973 12.973 0 0 0 47 3.969zM60 18.999v26l-.002-.001V19.002L60 19z" transform="scale(.26458)"/><path fill="url(#c)" d="M15.875 5.027V6.13L10.95 9.188l-1.425-.721z" opacity=".1"/><path fill="url(#d)" d="M15.875 11.906v-1.103l-4.714-3.177-1.636.84z" opacity=".1"/><path fill="url(#e)" d="M1.058 5.027V6.13l4.937 3.033 1.413-.696z" opacity=".1"/><path fill="url(#f)" d="M1.058 11.906v-1.103l4.998-3.026 1.352.69z" opacity=".1"/><circle cx="8.466" cy="8.996" r="4.233" fill="url(#g)" opacity=".25"/><circle cx="8.466" cy="8.466" r="3.175" fill="url(#h)"/><path d="M8.406 6.438a2.117 2.117 0 0 0-2.05 2.287 2.127 2.127 0 0 0 2.108 1.945c.562 0 1.1-.22 1.5-.62a.123.123 0 0 0-.175-.174 1.87 1.87 0 0 1-1.474.542 1.88 1.88 0 0 1-1.713-1.712A1.873 1.873 0 0 1 8.62 6.69a1.88 1.88 0 0 1 1.704 2.09.4.4 0 0 1-.21.303.34.34 0 0 1-.322 0 .123.123 0 1 0-.118.216.58.58 0 0 0 .554.003.64.64 0 0 0 .34-.492 2.126 2.126 0 0 0-2.162-2.372m.06 1.014a1.103 1.103 0 0 0 0 2.204c.39 0 .756-.21.953-.547a.123.123 0 1 0-.213-.124.857.857 0 1 1-.74-1.287c.472 0 .856.384.856.856a.123.123 0 0 0 .247 0c0-.608-.495-1.102-1.102-1.102z" opacity=".15"/><path fill="url(#i)" d="M99.539 15.438a16.06 16.06 0 0 0-10.898 4.697 16.08 16.08 0 0 0-4.652 12.66c.613 7.774 6.937 14.096 14.71 14.71q.644.05 1.282.05c4.262 0 8.35-1.676 11.377-4.703a.937.937 0 0 0-1.322-1.324 14.22 14.22 0 0 1-11.19 4.111c-6.865-.541-12.45-6.127-12.991-12.992a14.22 14.22 0 0 1 4.11-11.189 14.21 14.21 0 0 1 11.19-4.11c6.891.544 12.478 6.153 12.996 13.048a14.5 14.5 0 0 1-.063 2.82 2.98 2.98 0 0 1-1.591 2.295c-.795.41-1.688.41-2.45-.004a.936.936 0 1 0-.892 1.644c1.315.714 2.847.721 4.201.022a4.85 4.85 0 0 0 2.59-3.732c.126-1.048.15-2.12.07-3.186-.586-7.807-6.912-14.158-14.715-14.773q-.886-.069-1.762-.043zm.46 7.691c-4.611 0-8.364 3.752-8.364 8.364s3.753 8.365 8.365 8.365a8.4 8.4 0 0 0 7.227-4.15.935.935 0 1 0-1.618-.944A6.52 6.52 0 0 1 100 37.987c-3.58 0-6.494-2.914-6.494-6.494S96.42 25 100 25s6.492 2.912 6.492 6.492a.936.936 0 0 0 1.873 0c0-4.612-3.753-8.364-8.365-8.364z" transform="translate(-4.711 4.316)scale(.13178)"/><path fill="#0042b8" d="M11.639 8.33a3.175 3.175 0 0 1-3.172 3.046 3.175 3.175 0 0 1-3.173-3.039l-.002.13a3.175 3.175 0 0 0 3.175 3.175 3.175 3.175 0 0 0 3.175-3.175z" opacity=".35"/><path d="M15.875 4.77v.257zm-14.817 7.4v.257a3.43 3.43 0 0 0 3.44 3.44h7.937a3.43 3.43 0 0 0 3.44-3.44v-.257a3.43 3.43 0 0 1-3.44 3.44H4.498a3.43 3.43 0 0 1-3.44-3.44" opacity=".1"/><path fill="#fff" d="M15.875 12.155v-.257zm-14.816-7.4v-.257a3.43 3.43 0 0 1 3.44-3.44h7.937a3.43 3.43 0 0 1 3.44 3.44v.257a3.43 3.43 0 0 0-3.44-3.44H4.499a3.43 3.43 0 0 0-3.44 3.44"/></svg>