<svg xmlns="http://www.w3.org/2000/svg" width="64" height="64"><defs><linearGradient id="a" x1="7.937" x2="7.937" y1="15.081" y2="1.852" gradientTransform="scale(3.7796)" gradientUnits="userSpaceOnUse"><stop offset="0" stop-color="#554e97"/><stop offset="1" stop-color="#9c66cc"/></linearGradient><linearGradient id="b" x1="77.367" x2="77.367" y1="15.575" y2="37.82" gradientUnits="userSpaceOnUse"><stop offset="0" stop-color="#f9f8fc"/><stop offset="1" stop-color="#d9cdfc"/></linearGradient></defs><rect width="64" height="64" fill="none" rx="0" ry="0" style="paint-order:stroke fill markers"/><rect width="56.002" height="56.002" x="4" y="3.969" fill="url(#a)" rx="13.002" ry="13.002"/><circle cx="32.02" cy="32.044" r="30.001" fill="none"/><path fill="#fff" d="m25.544 22.11-1.546 1.197 2.897 3.724 1.538-1.21zm12.162 14.21-1.386 1.386 3.406 3.406 1.386-1.386zm-9.469 1.728-1.093 2.463 1.789.792 1.082-2.438z" opacity=".35"/><path fill="url(#b)" d="M83.054 14.634c-1.647.014-3 1.353-3 3 0 .578.172 1.116.459 1.576L77.32 23.2a4.94 4.94 0 0 0-2.266-.566 5 5 0 0 0-4.898 4h-6.372a1.98 1.98 0 0 0-1.73-1c-1.086.016-2 .914-2 2a2 2 0 0 0 3.73 1h6.372a5 5 0 0 0 9.898-1c0-1.216-.452-2.315-1.174-3.182l3.197-3.994c.308.107.633.176.977.176a3 3 0 0 0 3-3c0-1.657-1.353-3.014-3-3m-15 2c-1.095.013-2 .905-2 2s.895 2 2 2 2-.895 2-2-.905-2.013-2-2m15 0a1 1 0 1 1 0 2 1 1 0 0 1 0-2m-8 9a2 2 0 1 1 0 4 2 2 0 0 1 0-4m-13 1a1 1 0 1 1 0 2 1 1 0 0 1 0-2m21.5 7a2.5 2.5 0 1 0 0 5 2.5 2.5 0 0 0 0-5m-12.5 1c-1.095.013-2 .905-2 2s.895 2 2 2 2-.895 2-2-.905-2.013-2-2" transform="translate(-65.896 -4.044)scale(1.3043)"/></svg>