<svg xmlns="http://www.w3.org/2000/svg" width="64" height="64"><rect width="56.002" height="56.002" x="4" y="3.969" fill="#fff" rx="13.002" ry="13.002"/><path fill="#02c5e5" d="M17.002 3.969A12.974 12.974 0 0 0 4 16.97v29.998A12.974 12.974 0 0 0 17.002 59.97h2.908V3.969z" class="cls-1"/><path fill="#ff5f55" d="M44.006 3.969V59.97H47a12.974 12.974 0 0 0 13.002-13.002V16.97A12.974 12.974 0 0 0 47 3.969z" class="cls-2"/><path fill="#02c5e5" d="m30.708 21.863-1.428 6.164h-5.082l-.576 1.947h5.205l-1.096 4.733h-4.685l-.577 1.945h4.811l-1.33 5.738h1.78l1.33-5.738h1.583l.45-1.945h-1.585l1.098-4.733h1.582l.453-1.947h-1.584l1.428-6.164z" class="cls-1"/><path fill="#ff5f55" d="m36.833 21.863-1.427 6.164h-2.764l-.453 1.947h2.766l-1.098 4.733h-2.764l-.449 1.945h2.762l-1.33 5.738h1.822l1.33-5.738h4.437l.627-1.945H35.68l1.098-4.733h4.04l.628-1.947h-4.217l1.428-6.164z" class="cls-2"/></svg>