<svg xmlns="http://www.w3.org/2000/svg" xmlns:xlink="http://www.w3.org/1999/xlink" width="64" height="64"><defs><linearGradient id="g" x1="72" x2="114" y1="95" y2="95" gradientUnits="userSpaceOnUse"><stop offset="0" stop-color="#e66100"/><stop offset=".068" stop-color="#ff903e"/><stop offset=".169" stop-color="#e66100"/><stop offset=".887" stop-color="#e66100"/><stop offset="1" stop-color="#9d4200"/></linearGradient><linearGradient id="f" x1="14" x2="56" y1="95" y2="95" gradientUnits="userSpaceOnUse"><stop offset="0" stop-color="#813d9c"/><stop offset=".109" stop-color="#b378ca"/><stop offset=".242" stop-color="#813d9c"/><stop offset=".732" stop-color="#813d9c"/><stop offset=".872" stop-color="#4d255d"/><stop offset="1" stop-color="#813d9c"/></linearGradient><linearGradient xlink:href="#a" id="e" x1="-1710.2" x2="-1774.5" y1="-1202.4" y2="-1202.4" gradientTransform="matrix(-.08119 -.04688 -.06908 .11965 -177.24 127.07)"/><linearGradient id="a" gradientUnits="userSpaceOnUse"><stop offset="0" stop-color="#c0bfbc"/><stop offset=".155" stop-color="#fff"/><stop offset=".434" stop-color="#bdbbb5"/><stop offset=".65" stop-color="#c1c0ba"/><stop offset=".825" stop-color="#fff"/><stop offset="1" stop-color="#c0bfbc"/></linearGradient><linearGradient xlink:href="#a" id="d" x1="-1710.2" x2="-1774.5" y1="-1202.4" y2="-1202.4" gradientTransform="matrix(.08119 -.04688 .06908 .11965 307.03 127.07)"/><linearGradient id="c" x1="43" x2="85" y1="39" y2="39" gradientUnits="userSpaceOnUse"><stop offset="0" stop-color="#26a269"/><stop offset=".093" stop-color="#84e3b7"/><stop offset=".331" stop-color="#26a269"/><stop offset=".687" stop-color="#26a269"/><stop offset=".897" stop-color="#175e3c"/><stop offset="1" stop-color="#26a269"/></linearGradient><linearGradient id="b" x1="7.937" x2="7.937" y1="15.081" y2="1.852" gradientTransform="scale(3.7796)" gradientUnits="userSpaceOnUse"><stop offset="0" stop-color="#f1efeb"/><stop offset="1" stop-color="#fdfcfc"/></linearGradient></defs><rect width="56.002" height="56.002" x="4" y="3.969" fill="url(#b)" rx="13.002" ry="13.002"/><path fill="url(#c)" d="M51 18h26a8 8 0 0 1 8 8v26a8 8 0 0 1-8 8H51a8 8 0 0 1-8-8V26a8 8 0 0 1 8-8" transform="matrix(.38 0 0 .38 7.68 6.92)"/><path fill="#57e389" d="M27.06 11.48h9.88a3.04 3.04 0 0 1 3.04 3.04v9.88a3.04 3.04 0 0 1-3.04 3.04h-9.88a3.04 3.04 0 0 1-3.04-3.04v-9.88a3.04 3.04 0 0 1 3.04-3.04"/><path fill="url(#d)" d="M76.977 55.453a3.093 3.093 0 0 1 4.227 1.133l6.742 11.68a3.093 3.093 0 0 1-1.133 4.226 3.096 3.096 0 0 1-4.227-1.132l-6.742-11.68a3.093 3.093 0 0 1 1.133-4.227" transform="matrix(.38 0 0 .38 7.68 6.92)"/><path fill="url(#e)" d="M52.812 55.453a3.093 3.093 0 0 0-4.227 1.133l-6.742 11.68a3.093 3.093 0 0 0 1.133 4.226 3.096 3.096 0 0 0 4.227-1.132l6.742-11.68a3.093 3.093 0 0 0-1.133-4.227" transform="matrix(.38 0 0 .38 7.68 6.92)"/><path fill="url(#f)" d="M22 74h26a8 8 0 0 1 8 8v26a8 8 0 0 1-8 8H22a8 8 0 0 1-8-8V82a8 8 0 0 1 8-8" transform="matrix(.38 0 0 .38 7.68 6.92)"/><path fill="#dc8add" d="M16.04 32.76h9.88a3.04 3.04 0 0 1 3.04 3.04v9.88a3.04 3.04 0 0 1-3.04 3.04h-9.88A3.04 3.04 0 0 1 13 45.68V35.8a3.04 3.04 0 0 1 3.04-3.04"/><path fill="url(#g)" d="M80 74h26a8 8 0 0 1 8 8v26a8 8 0 0 1-8 8H80a8 8 0 0 1-8-8V82a8 8 0 0 1 8-8" transform="matrix(.38 0 0 .38 7.68 6.92)"/><path fill="#ffa348" d="M38.08 32.76h9.88A3.04 3.04 0 0 1 51 35.8v9.88a3.04 3.04 0 0 1-3.04 3.04h-9.88a3.04 3.04 0 0 1-3.04-3.04V35.8a3.04 3.04 0 0 1 3.04-3.04"/></svg>