<svg xmlns="http://www.w3.org/2000/svg" width="64" height="64"><defs><linearGradient id="a" x1="7.937" x2="7.937" y1="15.081" y2="1.852" gradientTransform="translate(0 1058.5)scale(3.7796)" gradientUnits="userSpaceOnUse"><stop offset="0" stop-color="#e91e63"/><stop offset="1" stop-color="#f06292"/></linearGradient></defs><g transform="translate(0 -1058.5)"><rect width="56.002" height="56.002" x="4" y="1062.5" fill="url(#a)" rx="13.002" ry="13.002"/><path fill="#fce4ec" d="M24 1076.5v4h4v-4zm12 0v4h4v-4zm-18 2v4h4v-4zm24 0v4h4v-4zm-30 2v4h4v-4zm18 0v4h4v-4zm18 0v4h4v-4zm-24 2v4h4v-4zm12 0v4h4v-4zm-18 2v4h4v-4zm24 0v4h4v-4zm-30 2v4h4v-4zm18 0v4h4v-4zm18 0v4h4v-4zm-24 2v4h4v-4zm12 0v4h4v-4zm-18 2v4h4v-4zm24 0v4h4v-4zm-30 2v4h4v-4zm18 0v4h4v-4zm18 0v4h4v-4zm-24 2v4h4v-4zm12 0v4h4v-4zm-18 2v4h4v-4zm24 0v4h4v-4zm-12 2v4h4v-4zm-6 2v4h4v-4zm12 0v4h4v-4zm-6 4v4h4v-4z"/></g></svg>