<svg xmlns="http://www.w3.org/2000/svg" width="64" height="64"><defs><linearGradient id="a" x1="28.309" x2="28.309" y1="3.969" y2="60.005" gradientUnits="userSpaceOnUse"><stop offset="0" stop-color="#ffd923"/><stop offset="1" stop-color="#ffa423"/></linearGradient><filter id="b" width="1.129" height="1.113" x="-.064" y="-.056" color-interpolation-filters="sRGB"><feGaussianBlur stdDeviation=".75"/></filter></defs><rect width="56.002" height="56.002" x="4" y="3.969" fill="url(#a)" rx="13.002" ry="13.002"/><g stroke-width=".667"><path d="M421.26 507.8q.988 0 1.105 1.49l-.553 4.681h.204l.436-.346h.116v.104q-.9.658-1.744 3.605-.32 2.531-1.076 4.68-.669 2.22-.669 4.092l-.843 2.461q0 .312.96.624-.175.728-.524.728v.139h.204v.104q0 .381-.989.381l.117.139v.485h-.204q.204.728.872.728v.243h-.872v.139q.436 0 .436.624l-1.221.485.116.139v.104q0 .243-.436.242v.14q.553 0 .553.242-.786.312-2.065 3.085-1.308 2.462-2.268 2.462h-.232q-.727-.555-1.192-3.675-1.861-4.75-1.861-5.582 0-2.15-1.192-4.576-.32-1.075-.437-2.704l-.523-.14q-1.977 3.572-2.064 5.583-.554 1.178-.873 2.843 1.193.38 1.193.728v.138q-.93-.139-1.309-.52-.407.936-1.076 5.2-.524 1.977-1.308 1.977-2.21-.867-3.693-2.843-.232 0-.756-1.976-.32 0-.436-1.976-1.104-2.809-1.512-6.414v-3.606h-.116l-.523.139v-.139q0-.243.523-.243l-.116-2.08v-1.63l-.844-5.2v-2.219q.553-2.08 1.92-2.08s.08-.005.348.347l-.348-.104q2.122 2.774 2.5 4.68h.989v.243h-.756v.277q.436 1.595.64 1.595h.232l.523-.139.117.14.116-.14.116.14v.103q-.581.417-.785 1.144h-.087v.243h.203q.408 5.79 1.512 8.771l.437.347h.232q.435 0 1.832-4.056.9-1.838 1.308-3.224l-.116-.382q.9-1.352 1.86-1.352h.204q.61 0 .873.763.813 1.144 1.308 3.432l1.628 3.606q.32.381.32.866.902 2.046 1.628 2.705h.35q.61 0 1.628-5.062.174 0 .959-2.704v-.139l-1.832-.243-.436.139h-.552v-.277l1.105-.104h2.151q1.251-4.473 2.297-6.934.35-5.062.96-5.062zm-11.078 2.981h.32v.104q0 .243-.32.243l-.116.139v.138l-.32-.138v-.243zm-1.628 1.353v.138q0 .278-1.396.59v-.243l.64-.347.116.104h.087zm-3.14 1.248v.104q-.61.555-1.978 1.005v-.243q.233 0 .233-.381zm5.524 1.213.116.139v.104l-.203.277h-.116l-.233-.277v-.104zm4.013.139h.116v.104l-.204.277h-.116v-.139zm-1.832 1.733.436.347q-.116.381-.64.381l-.232-.381q0-.173.436-.347m2.617 1.595.087.139v.104l-.087.138h-.233v-.138zm-4.13 1.248v.104l-.552.52h-.32v-.139q0-.312.873-.485m-3.81 10.609h.117v.243l-.872.52-.116-.139v-.243zm-.32 3.224h.087l.35.382-.117.104h-.116l-.204-.347z" filter="url(#b)" opacity=".15" transform="matrix(1.5 0 0 1.5 -580.66 -753.82)"/><path fill="#fff" d="M51.23 7.88q1.482 0 1.658 2.235l-.83 7.021h.306l.654-.519h.174v.156q-1.35.987-2.616 5.408-.48 3.797-1.614 7.02-1.003 3.329-1.003 6.138l-1.265 3.691q0 .468 1.44.936-.262 1.092-.786 1.092v.209h.306v.156q0 .571-1.483.571l.175.209v.727h-.306q.305 1.093 1.308 1.092v.365H46.04v.208q.653 0 .654.936l-1.831.728.174.208v.156q0 .364-.654.363v.21q.829 0 .829.363-1.179.468-3.097 4.628-1.962 3.692-3.402 3.693h-.348q-1.091-.833-1.788-5.513-2.793-7.124-2.792-8.373 0-3.224-1.788-6.864-.48-1.613-.655-4.056l-.785-.21q-2.966 5.358-3.096 8.375-.83 1.767-1.31 4.264 1.79.57 1.79 1.092v.207q-1.395-.208-1.963-.78-.61 1.405-1.614 7.8-.786 2.966-1.962 2.966-3.315-1.3-5.54-4.265-.348 0-1.134-2.964-.48 0-.654-2.964-1.656-4.213-2.268-9.62v-5.41h-.174l-.784.209v-.209q-.001-.364.784-.364l-.174-3.12v-2.445l-1.266-7.8v-3.329q.83-3.12 2.88-3.12s.12-.007.522.521l-.522-.156q3.184 4.161 3.75 7.02h1.484v.364h-1.134v.416q.653 2.393.96 2.392h.348l.784-.208.176.21.174-.21.174.21v.154q-.872.626-1.178 1.716h-.13v.365h.304q.612 8.686 2.268 13.156l.656.521h.348q.653 0 2.748-6.084 1.35-2.757 1.962-4.836l-.174-.573q1.35-2.028 2.79-2.028h.306q.916 0 1.309 1.144 1.22 1.718 1.962 5.148l2.442 5.41q.48.571.48 1.298 1.353 3.07 2.442 4.058h.525q.914 0 2.442-7.593.261 0 1.439-4.056v-.209l-2.748-.364-.654.208h-.828v-.415l1.657-.156h3.227q1.876-6.71 3.445-10.401.525-7.594 1.44-7.593zm-16.617 4.471h.48v.156q0 .365-.48.365l-.174.208v.207l-.48-.207v-.364zm-2.442 2.03v.207q0 .416-2.094.885v-.365l.96-.52.174.156h.13zm-4.71 1.872v.156q-.915.832-2.967 1.507v-.364q.35 0 .35-.572zm8.286 1.82.174.208v.156l-.304.415h-.174l-.35-.415v-.156zm6.02.209h.174v.156l-.306.415h-.174v-.208zm-2.748 2.6.654.52q-.174.571-.96.571l-.348-.571q0-.26.654-.52m3.925 2.392.13.208v.156l-.13.207h-.35v-.207zm-6.195 1.872v.156l-.828.78h-.48v-.209q0-.468 1.31-.727m-5.715 15.913h.175v.365l-1.308.78-.174-.209v-.364l1.308-.572m-.48 4.836h.13l.526.573-.176.156h-.174l-.306-.52z"/></g></svg>