<svg xmlns="http://www.w3.org/2000/svg" width="64" height="64"><defs><linearGradient id="a" x1="32" x2="32" y1="2" y2="62" gradientTransform="translate(-93.303)" gradientUnits="userSpaceOnUse"><stop offset="0" stop-color="#b757e4"/><stop offset=".225" stop-color="#ce63fe"/><stop offset=".225" stop-color="#a43dde"/><stop offset=".461" stop-color="#a147e8"/><stop offset=".461" stop-color="#782dc4"/><stop offset=".754" stop-color="#69369f"/><stop offset=".754" stop-color="#5e338b"/><stop offset="1" stop-color="#5b4770"/></linearGradient><linearGradient id="d" x1="45" x2="45" y1="27" y2="63" gradientUnits="userSpaceOnUse"><stop offset="0" stop-color="#722bb3"/><stop offset="1" stop-color="#8535ce"/></linearGradient><linearGradient id="b" x1="-50.778" x2="-50.778" y1="4" y2="64" gradientTransform="matrix(-1 0 0 1 -29.303 0)" gradientUnits="userSpaceOnUse"><stop offset="0" stop-color="#b757e4"/><stop offset=".225" stop-color="#ce63fe"/><stop offset="1" stop-color="#bc67e5"/></linearGradient><filter id="c" width="1.072" height="1.072" x="-.036" y="-.036" color-interpolation-filters="sRGB"><feGaussianBlur stdDeviation=".72"/></filter><filter id="e" width="1.126" height="1.115" x="-.063" y="-.057" color-interpolation-filters="sRGB"><feGaussianBlur stdDeviation=".477"/></filter></defs><rect width="56" height="56" x="4" y="4" fill="url(#a)" rx="13.002" ry="13.002"/><path fill="url(#b)" d="M25 4v56h21.998A12.974 12.974 0 0 0 60 46.998V17.002A12.974 12.974 0 0 0 46.998 4Z"/><circle cx="32" cy="32" r="24" fill-rule="evenodd" filter="url(#c)" opacity=".15" style="paint-order:stroke fill markers" transform="matrix(.75 0 0 .75 21 21)"/><circle cx="45" cy="45" r="18" fill="url(#d)" fill-rule="evenodd" style="paint-order:stroke fill markers"/><path d="M41.034 35h-5.076l-.055 20h5.13V42.919L48.967 55h5.077l.054-20h-5.13v12.081z" filter="url(#e)" opacity=".25"/><path fill="#fff" d="M41.034 35h-5.076l-.055 20h5.13V42.919L48.967 55h5.077l.054-20h-5.13v12.081z"/></svg>