<svg xmlns="http://www.w3.org/2000/svg" width="64" height="64"><defs><linearGradient id="a" x1="7.937" x2="7.937" y1="15.081" y2="1.852" gradientTransform="scale(3.7796)" gradientUnits="userSpaceOnUse"><stop offset="0" stop-color="#4c57d2"/><stop offset="1" stop-color="#858eff"/></linearGradient><linearGradient id="b" x1="47.707" x2="47.707" y1="37.565" y2="-27.487" gradientTransform="translate(-.374 31.914)scale(.50103)" gradientUnits="userSpaceOnUse"><stop offset="0" stop-color="#b1bded"/><stop offset="1" stop-color="#fff"/></linearGradient></defs><rect width="56.002" height="56.002" x="4" y="3.969" fill="url(#a)" rx="13.002" ry="13.002"/><path fill="url(#b)" d="M45.19 19.756a31 31 0 0 0-7.84-2.464c-.337.61-.732 1.432-1.004 2.085q-4.385-.66-8.688 0a22 22 0 0 0-1.017-2.085 30.8 30.8 0 0 0-7.845 2.47c-4.962 7.497-6.307 14.81-5.634 22.016 3.29 2.457 6.48 3.95 9.615 4.927a24 24 0 0 0 2.06-3.391 20.3 20.3 0 0 1-3.244-1.579q.409-.303.795-.628c6.253 2.924 13.046 2.924 19.224 0q.39.325.795.628a20 20 0 0 1-3.248 1.582 24 24 0 0 0 2.059 3.391c3.138-.977 6.33-2.47 9.62-4.93.79-8.355-1.347-15.599-5.648-22.022m-19.502 17.59c-1.877 0-3.416-1.752-3.416-3.886s1.506-3.89 3.416-3.89 3.45 1.753 3.416 3.89c.003 2.134-1.506 3.886-3.416 3.886m12.625 0c-1.877 0-3.416-1.752-3.416-3.886s1.506-3.89 3.416-3.89 3.45 1.753 3.416 3.89c0 2.134-1.506 3.886-3.416 3.886"/></svg>