<svg xmlns="http://www.w3.org/2000/svg" width="64" height="64" viewBox="0 0 16.933 16.933"><defs><linearGradient id="a" x1="7.937" x2="7.937" y1="15.081" y2="1.852" gradientUnits="userSpaceOnUse"><stop offset="0" stop-color="#767574"/><stop offset="1" stop-color="#d1e7ee"/></linearGradient><linearGradient id="b" x1="8.229" x2="8.229" y1="3.516" y2="13.525" gradientTransform="translate(-.368 -.368)scale(1.0435)" gradientUnits="userSpaceOnUse"><stop offset="0" stop-color="#f095cf"/><stop offset="1" stop-color="#ec5d8a"/></linearGradient><linearGradient id="f" x1="8.463" x2="12.084" y1="2.164" y2="7.365" gradientUnits="userSpaceOnUse"><stop offset="0" stop-color="#2a2a2a"/><stop offset=".129" stop-color="#393939"/><stop offset=".169" stop-color="#604c59"/><stop offset=".578" stop-color="#4b3f46"/><stop offset=".632" stop-color="#242224"/><stop offset=".684" stop-color="#5e425a"/><stop offset="1" stop-color="#2e2a2e"/></linearGradient><linearGradient id="d" x1="-10.502" x2="-10.507" y1="9.693" y2="10.175" gradientUnits="userSpaceOnUse"><stop offset="0" stop-color="#161616"/><stop offset=".507" stop-color="#554251"/><stop offset="1" stop-color="#302f2f"/></linearGradient><linearGradient id="e" x1="-11.36" x2="-8.974" y1="9.948" y2="9.948" gradientUnits="userSpaceOnUse"><stop offset="0" stop-color="#161616"/><stop offset=".041" stop-color="#272727"/><stop offset=".961" stop-color="#3c3c3c"/><stop offset="1" stop-color="#2a2a2a"/></linearGradient><linearGradient id="c" x1="48.625" x2="14.693" y1="34.754" y2="29.004" gradientUnits="userSpaceOnUse"><stop offset="0" stop-color="#e32b68"/><stop offset="1" stop-color="#eb5184" stop-opacity="0"/></linearGradient></defs><rect width="14.817" height="14.817" x="1.058" y="1.05" fill="url(#a)" rx="3.44" ry="3.44"/><rect width="12.7" height="12.7" x="2.117" y="2.117" fill="url(#b)" rx="2.209" ry="2.209"/><path d="M4.498 1.323A3.16 3.16 0 0 0 1.331 4.49v7.937a3.16 3.16 0 0 0 3.167 3.167h7.937a3.16 3.16 0 0 0 3.168-3.167V4.49a3.16 3.16 0 0 0-3.168-3.167zm0 .794h7.937A2.37 2.37 0 0 1 14.81 4.49v7.937a2.37 2.37 0 0 1-2.374 2.373H4.498a2.37 2.37 0 0 1-2.373-2.373V4.49a2.37 2.37 0 0 1 2.373-2.373"/><path fill="url(#c)" d="M11.631 11.072A7.97 7.97 0 0 0 9.001 17v29.346a43 41.569 0 0 0 20.98 5.34 43 41.569 0 0 0 20.462-5.051l-8.726-34.496a31.686 30.632 0 0 1-14.033 3.195 31.686 30.632 0 0 1-16.053-4.262" opacity=".35" transform="scale(.26458)"/><path fill="url(#d)" d="M-15.334 9.684h9.525v.529h-9.525z" transform="rotate(255.75)"/><path fill="url(#e)" d="M-11.36 9.691h2.386v.513h-2.386z" transform="rotate(255.75)"/><path fill="url(#f)" d="M8.275 1.843a.335.335 0 0 1 .467.096l3.595 5.373c.105.158.033.27-.08.347-.114.078-.231.096-.34-.06l-3.72-5.286a.335.335 0 0 1 .078-.47"/><path d="M8.2 1.918a.34.34 0 0 0-.004.395l3.72 5.287c.11.155.227.137.342.059a.3.3 0 0 0 .121-.146.3.3 0 0 1-.096.101c-.114.078-.232.097-.342-.059L8.221 2.27a.34.34 0 0 1-.022-.35z" opacity=".35"/></svg>