<svg xmlns="http://www.w3.org/2000/svg" width="64" height="64"><defs><linearGradient id="a" x1="7.937" x2="7.937" y1="15.081" y2="1.852" gradientTransform="scale(3.7796)" gradientUnits="userSpaceOnUse"><stop offset="0" stop-color="#f1efeb"/><stop offset="1" stop-color="#fdfcfc"/></linearGradient><linearGradient id="b" x1="17.367" x2="17.367" y1="10.635" y2="10.254" gradientTransform="matrix(1 0 0 .66667 -.434 3.49)" gradientUnits="userSpaceOnUse"><stop offset="0" stop-color="#212020"/><stop offset=".633" stop-color="#1c2328"/><stop offset="1" stop-color="#212020"/></linearGradient><linearGradient id="c" x1="17.367" x2="17.367" y1="10.635" y2="10.254" gradientUnits="userSpaceOnUse"><stop offset="0" stop-color="#212020"/><stop offset=".284" stop-color="#212020"/><stop offset=".635" stop-color="#374550"/><stop offset=".793" stop-color="#374550"/><stop offset="1" stop-color="#212020"/></linearGradient><linearGradient id="d" x1="30.946" x2="30.946" y1="11.199" y2="9.364" gradientTransform="matrix(1 0 0 .54079 3.25 4.869)" gradientUnits="userSpaceOnUse"><stop offset="0" stop-color="#212020"/><stop offset=".284" stop-color="#212020"/><stop offset=".635" stop-color="#374550"/><stop offset=".679" stop-color="#fefefe"/><stop offset=".767" stop-color="#fff"/><stop offset=".793" stop-color="#374550"/><stop offset="1" stop-color="#212020"/></linearGradient><linearGradient id="e" x1="25.135" x2="25.135" y1="11.222" y2="9.39" gradientTransform="translate(2.182 .144)" gradientUnits="userSpaceOnUse"><stop offset="0" stop-color="#212020"/><stop offset=".284" stop-color="#212020"/><stop offset=".635" stop-color="#5d7788"/><stop offset=".679" stop-color="#fff"/><stop offset=".767" stop-color="#fff"/><stop offset=".793" stop-color="#374550"/><stop offset="1" stop-color="#212020"/></linearGradient><linearGradient id="f" x1="25.135" x2="25.135" y1="11.222" y2="9.39" gradientTransform="translate(-10.229 .144)" gradientUnits="userSpaceOnUse"><stop offset="0" stop-color="#212020"/><stop offset=".284" stop-color="#212020"/><stop offset=".635" stop-color="#374550"/><stop offset="1" stop-color="#212020"/></linearGradient></defs><rect width="64" height="64" fill="none" rx="0" ry="0" style="paint-order:stroke fill markers"/><rect width="56.002" height="56.002" x="4" y="3.969" fill="url(#a)" rx="13.002" ry="13.002"/><rect width="46.002" height=".499" x="8.999" y="32" opacity=".188" rx=".249" ry=".249"/><rect width="46.002" height=".499" x="8.999" y="39" opacity=".188" rx=".249" ry=".249"/><rect width="46.002" height=".499" x="8.999" y="47.002" opacity=".188" rx=".249" ry=".249"/><path fill="maroon" d="m23.954 15.345-.295-5.46H11.893l-.294 5.46h.844c.138-.982.315-1.728.53-2.357.511-1.434 1.454-2.18 2.79-2.18.648 0 .923.216.923.707V22.22c0 .825-.177.923-1.768.923h-.51v.923h6.737v-.923h-.51c-1.572 0-1.749-.098-1.749-.923V11.515c0-.491.275-.707.923-.707 1.198 0 2.16.667 2.652 1.846.295.727.49 1.571.648 2.691z"/><path fill="maroon" d="M33.439 24.067h-.864c-.61 3.241-1.493 4.321-4.557 4.321H26.72c-1.001 0-1.414-.118-1.414-.943v-5.008h.393c2.436 0 2.77.982 2.828 2.828h.924v-6.443h-.924c-.098 1.925-.883 2.691-2.75 2.691h-.47v-4.478c0-.845.176-.982 1.237-.982h1.021c3.26 0 4.086.668 4.655 4.105h.845V15.13h-12.08v.923h.353c1.591 0 1.768.098 1.768.923v10.49c0 .824-.177.922-1.768.922h-.353v.924h12.06z"/><path fill="maroon" d="M46.737 24.067v-.923h-.275c-1.257 0-1.355-.06-2.023-1.022l-4.125-5.912 2.612-3.555c1.08-1.473 1.65-1.846 2.691-1.846h.315v-.924H40.53v.924h.471c.943 0 1.16.235 1.16.766 0 .216-.06.353-.276.667l-2.121 3.084-2.612-3.771c-.138-.197-.217-.393-.217-.491 0-.197.197-.256.943-.256h.747v-.923h-6.07v.923h.334c.963 0 1.198.099 1.65.747l3.87 5.598-3.182 4.42c-.786 1.08-1.356 1.59-2.377 1.57h-.275v.924h5.578v-.923h-.49c-.786 0-1.277-.354-1.277-.943 0-.255.117-.57.314-.864l2.278-3.3 2.927 4.144c.157.236.255.452.255.61 0 .294-.078.353-1.316.353h-.55v.923z"/><g stroke-linecap="round" stroke-linejoin="round" stroke-opacity=".35" stroke-width=".667" transform="rotate(-60 63.457 55.294)scale(2.8128)"><rect width=".656" height=".265" x="16.643" y="10.319" fill="url(#b)" rx=".048" ry=".048"/><rect width=".656" height=".397" x="17.077" y="10.243" fill="url(#c)" rx=".072" ry=".072"/><path fill="url(#d)" d="M33.137 9.933c.147 0 .265.223.265.5s-.118.501-.265.501h1.587c.147 0 .265-.223.265-.5 0-.278-.118-.501-.264-.501z"/><path fill="#212020" d="M33.72 9.933c.147 0 .185.223.185.5s-.038.501-.185.501h.132c.146 0 .185-.223.185-.5 0-.278-.039-.501-.185-.501z"/><path fill="url(#e)" d="M21.231 9.508c.147 0 .265.413.265.926s-.118.926-.265.926h12.292c.221 0 .398-.413.398-.926s-.177-.926-.398-.926z"/><g fill="#212020"><path d="M31.562 9.508c.221 0 .399.413.399.926s-.178.926-.399.926h.118c.22 0 .399-.413.399-.926s-.178-.926-.4-.926zm3.288.487c.04.084.099.242.099.435s-.06.359-.099.443c.08-.082.133-.237.137-.42v-.039c-.004-.182-.057-.337-.137-.419"/><path d="m27.116 9.454 6.431.214c.033.002.273.187.26.217l-.112.244c-.014.03-.026.06-.06.06H27.14c-.033 0-.052-.028-.06-.06l-.088-.401c-.007-.032.091-.274.124-.274"/></g><path fill="#374550" d="M27.171 9.404h6.495c.033 0 .053.027.06.06l.088.4c.007.032-.026.06-.06.06H27.26c-.033 0-.052-.028-.06-.06l-.088-.4c-.007-.033.027-.06.06-.06z"/><path fill="#565e64" d="M27.147 9.413c-.022.01-.041.027-.036.05l.088.4c.007.033.027.06.06.06h6.495c.033 0 .067-.027.06-.06l-.005-.02c-.008.004-.015.01-.023.01H27.29c-.033 0-.052-.027-.06-.06z"/><g stroke-width=".07"><path fill="url(#f)" d="M17.674 10.198s-.018.01-.011.047c.037.045.052.148.053.19s-.013.148-.048.208c.003.034.016.04.016.04l3.54.677c.216.042.287-.413.287-.926s-.083-.968-.3-.926z"/><path fill="#374550" d="M17.792 10.301s-.03 0-.027.081c.001.082.027.087.027.087l3.37.029c.221.002.23-.356.23-.5 0-.213-.15-.389-.229-.373z"/><path fill="#565e64" d="M17.792 10.301s-.03 0-.027.081c.001.082.027.087.027.087l3.322-.123c.22-.008.201-.205.201-.35 0-.213-.093-.296-.173-.282z"/><path fill="#fff" d="M17.792 10.319s-.03-.018-.027.064c.001.082.027.068.027.068l3.356-.243c.084-.006.12-.068.12-.213 0-.213-.077-.205-.144-.195z"/></g><path fill="#fff" d="M17.41 10.353c0 .013-.122.024-.2.024s-.081-.01-.081-.024.003-.024.081-.024.2.01.2.024"/><path fill="#374550" d="M16.983 10.412c0 .013-.122.024-.2.024s-.081-.01-.081-.024.003-.024.081-.024.2.01.2.024"/><path fill="#212020" d="M26.174 9.508c.221 0 .399.413.399.926s-.178.926-.399.926h.118c.22 0 .399-.413.399-.926s-.178-.926-.4-.926zm-3.326 0c.221 0 .399.413.399.926s-.178.926-.399.926h.118c.22 0 .399-.413.399-.926s-.178-.926-.4-.926zm-.614 0c.221 0 .399.413.399.926s-.178.926-.399.926h.118c.22 0 .399-.413.399-.926s-.178-.926-.4-.926z" opacity=".75"/></g></svg>