<svg xmlns="http://www.w3.org/2000/svg" xmlns:xlink="http://www.w3.org/1999/xlink" width="64" height="64"><defs><linearGradient id="a" gradientUnits="userSpaceOnUse"><stop offset="0" stop-color="#ffa348"/><stop offset=".475" stop-color="#c061cb"/><stop offset="1" stop-color="#1c71d8"/></linearGradient><linearGradient xlink:href="#a" id="c" x1="54" x2="10" y1="45" y2="11" gradientUnits="userSpaceOnUse"/><linearGradient xlink:href="#a" id="f" x1="44.947" x2="4" y1="52.945" y2="24.783" gradientUnits="userSpaceOnUse"/><linearGradient id="e" x1="42.5" x2="42.5" y1="16.5" y2="30.656" gradientUnits="userSpaceOnUse"><stop offset="0" stop-color="#fff"/><stop offset="1" stop-color="#fff" stop-opacity="0"/></linearGradient><linearGradient id="g" x1="60.131" x2="27.878" y1="86.868" y2="116" gradientUnits="userSpaceOnUse"><stop offset="0" stop-color="#fff"/><stop offset="1" stop-color="#fff" stop-opacity="0"/></linearGradient><linearGradient id="h" x1="78.402" x2="80.089" y1="84.516" y2="120.24" gradientUnits="userSpaceOnUse"><stop offset="0" stop-color="#fff"/><stop offset="1" stop-color="#fff" stop-opacity="0"/></linearGradient><linearGradient id="d" x1="45.196" x2="38.613" y1="40.696" y2="49.47" gradientUnits="userSpaceOnUse"><stop offset="0" stop-color="#fff"/><stop offset="1" stop-color="#fff" stop-opacity="0"/></linearGradient><linearGradient id="i" x1="5.379" x2="9.617" y1="53.438" y2="57.684" gradientUnits="userSpaceOnUse"><stop offset="0" stop-color="#4f4e52"/><stop offset="1" stop-color="#7b7a80"/></linearGradient><linearGradient id="j" x1="9.941" x2="42.059" y1="37.059" y2="37.059" gradientUnits="userSpaceOnUse"><stop offset="0" stop-color="#343338"/><stop offset="1" stop-color="#64626b"/></linearGradient><linearGradient id="b" x1="7.937" x2="7.937" y1="15.081" y2="1.852" gradientTransform="scale(3.7796)" gradientUnits="userSpaceOnUse"><stop offset="0" stop-color="#f1efeb"/><stop offset="1" stop-color="#fdfcfc"/></linearGradient></defs><rect width="56.002" height="56.002" x="4" y="3.969" fill="url(#b)" rx="13.002" ry="13.002"/><rect width="44" height="34" x="10" y="11" fill="url(#c)" rx="7" ry="7"/><g stroke-width=".5"><path fill="url(#d)" d="M33.5 30.656c-1.023 0-2.047.39-2.828 1.172L17.5 45H47c.754 0 1.478-.123 2.158-.342l-12.83-12.83a4 4 0 0 0-2.828-1.172" opacity=".35"/><path fill="url(#e)" d="M42.5 26.5a5 5 0 1 1 0-10 5 5 0 0 1 0 10" opacity=".5"/></g><path fill="url(#f)" d="M11.031 37.059c0 8.268 6.701 14.969 14.969 14.969s14.969-6.701 14.969-14.969S34.268 22.09 26 22.09s-14.969 6.701-14.969 14.969"/><path fill="url(#g)" d="M43.598 73.652a7.97 7.97 0 0 0-5.656 2.344l-7.527 7.527a30 30 0 0 0-.352 4.594c0 16.535 13.402 29.938 29.938 29.938 8.618 0 16.378-3.649 21.84-9.477L49.259 75.996a7.98 7.98 0 0 0-5.66-2.344z" opacity=".5" transform="matrix(.5 0 0 .5 -4 -7)"/><path fill="url(#h)" d="M78.402 84.516c-2.048 0-4.098.78-5.66 2.34L45.367 114.23A29.8 29.8 0 0 0 60 118.055c15.073 0 27.537-11.139 29.625-25.633l-5.567-5.566a7.98 7.98 0 0 0-5.656-2.34" opacity=".35" transform="matrix(.5 0 0 .5 -4 -7)"/><path fill="#3d3846" d="m13.939 46.998-4 4 2.121 2.121 4-4z" color="#000" style="-inkscape-stroke:none"/><path fill="url(#i)" d="M11 49.059a3 3 0 0 0-2.121.879l-7 7a3 3 0 0 0 0 4.242 3 3 0 0 0 4.242 0l7-7a3 3 0 0 0 0-4.242A3 3 0 0 0 11 49.059" color="#000" style="-inkscape-stroke:none"/><path fill="#fff" d="M11.031 37.059c0 8.268 6.701 14.969 14.969 14.969s14.969-6.701 14.969-14.969S34.268 22.09 26 22.09s-14.969 6.701-14.969 14.969" opacity=".35"/><path fill="url(#j)" d="M26 21c-8.857 0-16.059 7.202-16.059 16.059S17.142 53.118 26 53.118c8.857 0 16.059-7.202 16.059-16.059S34.858 21 26 21m0 2a14.044 14.044 0 0 1 14.059 14.059A14.044 14.044 0 0 1 26 51.118a14.044 14.044 0 0 1-14.059-14.059A14.044 14.044 0 0 1 26 23" color="#000" style="-inkscape-stroke:none"/></svg>