<svg xmlns="http://www.w3.org/2000/svg" width="64" height="64" image-rendering="optimizeSpeed"><defs><linearGradient id="a" x1="7.937" x2="7.937" y1="15.081" y2="1.852" gradientTransform="scale(3.7796)" gradientUnits="userSpaceOnUse"><stop offset="0" stop-color="#1560ff"/><stop offset="1" stop-color="#15afff"/></linearGradient><linearGradient id="b" x1="28.551" x2="28.551" y1="1052.4" y2="1004.4" gradientTransform="translate(4 -1167.8)scale(1.1667)" gradientUnits="userSpaceOnUse"><stop offset="0" stop-color="#bfe1f9"/><stop offset="1" stop-color="#f6fbfe"/></linearGradient></defs><rect width="56.002" height="56.002" x="4" y="3.969" fill="url(#a)" rx="13.002" ry="13.002"/><path fill="url(#b)" d="M17.676 4c.903.187.837-.09 0 0m1.728 0c.905 1.536 2.869 1.44 3.165.8 2.306-.25.158-1.189-1.046-.8zm-3.748.037c-1.408-.08-3.732 1.193-1.031.225.305.115 1.55.628 1.031-.225m36.46.971c-2.36.963.305 4.229 1.99 2.058.56.618 1.768 2.183-.035 2.02-.27-2.282-1.692.274-1.228 1.244-2.272.105-3.785 2.667-5.709 3.071-1.062-.157-2.287.538-.485.913 2.308 2.287-.966 3.1-2.8 2.377-1.586.191-1.529 3.034-1.058 4.22 2.982-.121.207 2.578-.809 3.292-.5 2.64-3.85 3.165-4.53 5.922-1.086 1.512.907 3.554-.803 5.229L60 39.091V23.846c-.348 3.18-3.462-.71-5.107-.355-1.884-.174.582-3.387-2.04-2.53-2.597-.601-4.894.792-7.284 1.08-2.884-1.017 3.314-.675 2.43-2.912 1.537-.967 1.886-2.637 3.733-2.127 1.991-2.024 3.048 1.55 5.064 1.849.393.896.804 2.022.974.408.018-.682 1.555-.412-.144-1.052-.928-.15-3.491-2.788-1.82-2.598 1.653 1.149 3.706 2.435 4.195 3.94.057-3.397-.055-6.99-2.21-9.852-.792.75-5.425.2-2.738-.27 1.29-.26 4.632-1.38-.25-2.871l-2.687-1.55zm-35.398.023c-1.934 1.56-.998 5.17-4.357 5.047-.141 2.779-2.877 1.2-1.149-.447-2.14-.048-4.99-3.834-5.715 1.29l-1.138 3.054c1.367-1.816 4.05 1.23 1.103.873-1.85-1.838-1.88 3.825-.453.622 2.713-.66-1.874 1.813-1.008 3.443v8.659c1.76.295-.825-3.702 1.914-3.887 1.483-.885 3.512-1.712 3.376-3.363 1.154-.87 2.785-2.1 4.196-2.583.228-1.385 4.265-2.821 3.26-1.006.766-.724 4.369-1.005 3.337-1.947-1.488 1.421-2.356-.569-1.489-1.594-2.571.062.796-1.465 1.24.056.321-.25-.34-1.081 1.231-.712.93-.225 3.517-1.331 1.558.252-2.521 1.674.98 1.437 2.136 1.847.807-1.763-2.084-1.664-.339-3.32.879-1.69-2.535-1.797-1.603-3.783.08-2.54-3.72 1.659-2.942-1.15-.117-1.414-2.127-1.104-3.158-1.351M46.894 7.22c-2.676.388-1.016 2.377-.268 3.29-1.185.708-1.18 2.71.781 1.698 4.108-.099-.806-2.546.114-4.08-.824-.21-.43-.578-.627-.908m-2.283 2.17c-2.264.267-2.268 3.62.367 1.769-.146-.817 1.252-1.71-.367-1.769M8.552 36.87c-1.532.52-2.62 1.574-3.69 2.417-2.375-1.475 1.558 3.324-.861 3.993-.05 3.676-.167 7.605 2.085 10.746.818 1.87 4.088 1.512 4.057 3.982 4.475 2.737 9.678 1.781 14.619 1.96 1.51.009 3.606.117 3.942-1.805 1.075-2.355.08-5.326 2.572-7.09 1.792-2.482-1.81-3.956-3.652-4.332-2.057-.394-3.752-1.222-5.574-2.272-.078-2.707-2.768-3.49-4.932-3.883-1.706-1.23-2.066-3.378-4.258-2.306-1.57-.079-3.151-1.27-4.305-.806.141-.18.393-.52-.003-.604" opacity=".5"/><path fill="#e6e6e6" d="M60.833 39.873q-.291-.707-.658-1.385a14 14 0 0 0-.437-.759 16.7 16.7 0 0 0-2.425-3.044Q52.627 30 45.999 30t-11.312 4.686q-4.686 4.686-4.686 11.312c0 6.626 1.562 8.191 4.686 11.314q4.685 4.685 11.312 4.685 6.628 0 11.314-4.685 2.58-2.583 3.74-5.754.944-2.584.944-5.56 0-2.282-.556-4.337a21 21 0 0 0-.132-.46 16 16 0 0 0-.476-1.328"/><path fill="#4d4d4d" d="m52.872 35.315-.54 1.442a.26.26 0 0 0 .08.281l.636.487c.078.06.21.062.293.004l1.252-.894a.22.22 0 0 1 .278.023l.525.525a.22.22 0 0 1 .023.278l-.894 1.251a.26.26 0 0 0 .005.293l.487.636c.06.078.188.115.282.08l1.44-.54a.22.22 0 0 1 .262.095l.37.642c.053.09.03.21-.049.274l-1.188.979a.26.26 0 0 0-.071.283l.305.74c.038.09.15.16.251.15l1.533-.149c.1-.01.203.061.23.16l.191.716a.22.22 0 0 1-.119.252l-1.402.638a.26.26 0 0 0-.142.256l.104.792a.26.26 0 0 0 .205.21l1.518.253c.1.017.18.112.18.213v.741a.22.22 0 0 1-.18.213l-1.517.253a.26.26 0 0 0-.203.21l-.104.793a.27.27 0 0 0 .142.256l1.4.637a.224.224 0 0 1 .119.252l-.192.717a.22.22 0 0 1-.23.159l-1.53-.148a.26.26 0 0 0-.251.15l-.307.74a.26.26 0 0 0 .07.283l1.19.979c.077.064.1.186.049.274l-.371.642a.22.22 0 0 1-.263.095l-1.442-.54a.26.26 0 0 0-.281.08l-.487.636a.27.27 0 0 0-.004.293l.894 1.252a.22.22 0 0 1-.023.278l-.525.524a.22.22 0 0 1-.278.024l-1.251-.894a.26.26 0 0 0-.293.005l-.636.487a.26.26 0 0 0-.08.281l.54 1.44a.22.22 0 0 1-.095.263l-.642.37a.22.22 0 0 1-.274-.049l-.979-1.188a.26.26 0 0 0-.283-.071l-.74.305a.27.27 0 0 0-.15.251l.149 1.533c.01.1-.061.203-.16.23l-.716.19a.22.22 0 0 1-.251-.118l-.638-1.402a.26.26 0 0 0-.256-.142l-.793.104a.26.26 0 0 0-.21.204l-.253 1.519a.22.22 0 0 1-.213.18h-.741a.22.22 0 0 1-.213-.18l-.253-1.517a.26.26 0 0 0-.21-.203l-.793-.104a.27.27 0 0 0-.256.142l-.637 1.4a.224.224 0 0 1-.252.119l-.717-.192a.22.22 0 0 1-.159-.23l.148-1.53a.26.26 0 0 0-.15-.251l-.74-.308a.26.26 0 0 0-.283.072l-.979 1.188a.22.22 0 0 1-.274.05l-.642-.371a.22.22 0 0 1-.095-.263l.54-1.442a.26.26 0 0 0-.08-.282l-.635-.486a.26.26 0 0 0-.293-.004l-1.253.894a.22.22 0 0 1-.277-.024l-.525-.524a.22.22 0 0 1-.024-.278l.894-1.252a.26.26 0 0 0-.005-.293l-.487-.635a.26.26 0 0 0-.281-.08l-1.44.54a.22.22 0 0 1-.263-.095l-.37-.642a.22.22 0 0 1 .049-.274l1.188-.979a.26.26 0 0 0 .072-.284l-.306-.739a.27.27 0 0 0-.251-.15l-1.533.149a.22.22 0 0 1-.229-.16l-.192-.716a.22.22 0 0 1 .12-.252l1.401-.638a.26.26 0 0 0 .142-.256l-.104-.792a.26.26 0 0 0-.204-.21l-1.519-.253a.22.22 0 0 1-.18-.213v-.742a.22.22 0 0 1 .18-.212l1.517-.253a.26.26 0 0 0 .203-.21l.104-.793a.27.27 0 0 0-.142-.257l-1.4-.637a.224.224 0 0 1-.118-.252l.191-.716c.027-.1.13-.17.23-.16l1.53.15a.26.26 0 0 0 .252-.152l.307-.739a.26.26 0 0 0-.071-.283l-1.189-.979a.22.22 0 0 1-.05-.274l.372-.642a.22.22 0 0 1 .262-.095l1.443.54c.094.035.22 0 .28-.08l.487-.636a.26.26 0 0 0 .004-.293l-.894-1.252a.22.22 0 0 1 .024-.278l.525-.525a.22.22 0 0 1 .278-.023l1.25.894a.26.26 0 0 0 .294-.005l.635-.487a.26.26 0 0 0 .08-.282l-.54-1.44a.22.22 0 0 1 .095-.262l.642-.37a.22.22 0 0 1 .275.049l.978 1.188a.26.26 0 0 0 .284.071l.74-.305a.27.27 0 0 0 .15-.251l-.15-1.533a.22.22 0 0 1 .16-.23l.716-.191a.22.22 0 0 1 .252.119l.638 1.402a.26.26 0 0 0 .256.142l.793-.104a.26.26 0 0 0 .21-.205l.253-1.518c.016-.1.112-.18.212-.18h.742a.22.22 0 0 1 .212.18l.253 1.517c.017.1.11.19.21.203l.794.104a.27.27 0 0 0 .256-.142l.637-1.4a.224.224 0 0 1 .252-.119l.716.192c.1.027.17.129.16.23l-.149 1.53a.26.26 0 0 0 .15.251l.74.307c.09.038.22.007.284-.07l.978-1.19a.22.22 0 0 1 .275-.049l.642.371a.22.22 0 0 1 .094.263m-2.457 3.073a8.83 8.83 0 0 0-6.606-.916c-.416.105-.172.048-.172.048-.579.197-.81.794-.518 1.326 0 0-.168-.307.014.024l2.598 4.74c.391.715 1.37 1.28 2.186 1.264l5.759-.12c.356-.007 0 0 0 0 .59-.013.975-.51.846-1.066a8.83 8.83 0 0 0-4.106-5.3zm-.145 15.415a8.83 8.83 0 0 0 4.186-5.191c.124-.411.048-.172.048-.172.129-.598-.264-1.103-.87-1.127 0 0 .35.014-.027-.001l-5.4-.215c-.815-.032-1.804.515-2.21 1.223l-2.864 4.998c-.177.31 0 0 0 0-.293.513-.064 1.098.48 1.275 0 0-.344-.095 0 0a8.83 8.83 0 0 0 6.657-.79m-10.48-1.41c.425.382 1.047.287 1.344-.224 0 0-.179.308 0 0l2.896-4.979c.41-.705.39-1.835-.045-2.525l-2.886-4.57-.014-.022c-.324-.514-.958-.601-1.411-.19 0 0 .169-.186-.125.127a8.83 8.83 0 0 0-2.402 6.221 8.83 8.83 0 0 0 2.645 6.16z"/></svg>