<svg xmlns="http://www.w3.org/2000/svg" width="64" height="64" viewBox="0 0 16.933 16.933"><defs><linearGradient id="a" x1="7.937" x2="7.937" y1="2.646" y2="14.263" gradientUnits="userSpaceOnUse"><stop offset="0" stop-color="#985efe"/><stop offset="1" stop-color="#2f73fe"/></linearGradient><filter id="b" width="1.026" height="1.022" x="-.013" y="-.011" color-interpolation-filters="sRGB"><feGaussianBlur stdDeviation=".029"/></filter></defs><rect width="14.816" height="14.816" x="1.058" y="1.058" fill="#fff" rx="3.704" ry="3.704"/><path fill="url(#a)" d="M8.466 2.646a5.82 5.82 0 1 0 0 11.641 5.82 5.82 0 0 0 0-11.641"/><path fill="#fff" d="M7.035 5.343a.7.7 0 0 1 .418.107l3.848 2.403a.72.72 0 0 1 0 1.224L7.453 11.48a.721.721 0 0 1-1.103-.61V6.06a.72.72 0 0 1 .685-.717" style="paint-order:stroke fill markers"/><path fill="#e4effe" d="M9.22 6.553 6.35 8.466l2.868 1.913L11.3 9.076a.72.72 0 0 0 0-1.224z"/><path fill="#d0e5fe" d="M6.35 8.466v2.404a.721.721 0 0 0 1.103.61l1.765-1.102z" style="paint-order:stroke fill markers"/><path fill="#fff" d="M7.09 5.342h-.054v.001a.723.723 0 0 0-.686.717v4.81a.721.721 0 0 0 1.103.61l3.848-2.403a.72.72 0 0 0 0-1.224L7.453 5.45a.7.7 0 0 0-.363-.108m-.002.08a.65.65 0 0 1 .324.095L11.26 7.92a.64.64 0 0 1 0 1.09l-3.848 2.404a.64.64 0 0 1-.983-.545V6.06a.64.64 0 0 1 .66-.639z" color="#000" filter="url(#b)" opacity=".35" style="paint-order:stroke fill markers"/></svg>