<svg xmlns="http://www.w3.org/2000/svg" width="64" height="64" fill="none" style="-webkit-print-color-adjust:exact"><defs><linearGradient id="a" x1="29.134" x2="29.134" y1="7.264" y2="58.326" gradientTransform="translate(.001 .001)scale(.99996)" gradientUnits="userSpaceOnUse"><stop offset="0" stop-color="#67b4ff"/><stop offset="1" stop-color="#678eff"/></linearGradient></defs><rect width="56" height="56" x="4" y="4" fill="url(#a)" class="fills" rx="13.002" ry="13.002"/><path fill="#fff" fill-rule="evenodd" d="M44.57 20.414q4.477 0 6.943 2.817Q54 26.028 54 31.169q0 5.139-2.508 7.995Q49.005 42 44.57 42q-2.218 0-4.062-.742a7.6 7.6 0 0 1-3.068-2.323h-.248l-.726 2.684H34V12h3.44v7.196q0 2.417-.165 4.34h.166q2.403-3.123 7.129-3.122m-.497 2.646q-3.524 0-5.078 1.865-1.555 1.846-1.555 6.244t1.596 6.301q1.597 1.884 5.119 1.884 3.171 0 4.726-2.113 1.554-2.132 1.554-6.11 0-4.074-1.554-6.073-1.554-1.998-4.808-1.998" class="fills"/><path fill="#c8e8ff" fill-rule="evenodd" d="M19.855 39.461q3.444 0 5.021-1.827t1.68-6.156v-.76q0-4.72-1.618-6.793-1.618-2.072-5.125-2.072-3.029 0-4.647 2.339-1.598 2.319-1.598 6.567c0 4.248.526 4.994 1.577 6.485q1.597 2.217 4.71 2.217m-.519 2.852q-4.398 0-6.867-3.057Q10 36.197 10 30.718q0-5.52 2.49-8.619Q14.979 19 19.419 19q4.668 0 7.178 3.489h.187l.498-3.079H30V52h-3.444v-9.625q0-2.052.228-3.489h-.269q-2.386 3.427-7.179 3.427" class="fills"/></svg>