<svg xmlns="http://www.w3.org/2000/svg" width="64" height="64"><defs><linearGradient id="d" x1="16.636" x2="36.97" y1="32.65" y2="32.65" gradientTransform="translate(9.019 9.381)" gradientUnits="userSpaceOnUse"><stop offset="0" stop-color="#a3d8f1" stop-opacity=".438"/><stop offset=".361" stop-color="#77c6eb" stop-opacity=".641"/><stop offset="1" stop-color="#2ea7e0"/></linearGradient><linearGradient id="a" x1="7.937" x2="7.937" y1="15.081" y2="1.852" gradientTransform="scale(3.7796)" gradientUnits="userSpaceOnUse"><stop offset="0" stop-color="#db43a5"/><stop offset="1" stop-color="#ff57ec"/></linearGradient><linearGradient id="b" x1="13.647" x2="1.63" y1="2.841" y2="15.328" gradientTransform="scale(3.7796)" gradientUnits="userSpaceOnUse"><stop offset="0" stop-color="#fff" stop-opacity="0"/><stop offset=".139" stop-color="#e8fffc" stop-opacity=".139"/><stop offset=".43" stop-color="#adfff3" stop-opacity=".43"/><stop offset=".846" stop-color="#4fffe5" stop-opacity=".846"/><stop offset="1" stop-color="#2bffe0"/></linearGradient><linearGradient id="c" x1="1.907" x2="15.298" y1="1.691" y2="15.295" gradientTransform="scale(3.7796)" gradientUnits="userSpaceOnUse"><stop offset="0" stop-color="#fff" stop-opacity="0"/><stop offset=".088" stop-color="#fffff8" stop-opacity=".088"/><stop offset=".216" stop-color="#fffee5" stop-opacity=".216"/><stop offset=".369" stop-color="#fffcc5" stop-opacity=".369"/><stop offset=".54" stop-color="#fff999" stop-opacity=".54"/><stop offset=".727" stop-color="#fff660" stop-opacity=".727"/><stop offset=".924" stop-color="#fff31c" stop-opacity=".924"/><stop offset="1" stop-color="#fff100"/></linearGradient><linearGradient id="e" x1="15.578" x2="36.334" y1="12.378" y2="32.788" gradientUnits="userSpaceOnUse"><stop offset="0" stop-color="#413535"/><stop offset="1" stop-color="#62382d"/></linearGradient><linearGradient id="f" x1="41.297" x2="45.168" y1="37.712" y2="41.325" gradientUnits="userSpaceOnUse"><stop offset="0" stop-color="#544545"/><stop offset="1" stop-color="#322225"/></linearGradient></defs><rect width="56.002" height="56.002" x="4" y="3.969" fill="url(#a)" rx="13.002" ry="13.002"/><rect width="56.002" height="56.002" x="4" y="3.969" fill="url(#b)" rx="13.002" ry="13.002"/><rect width="56.002" height="56.002" x="4" y="3.969" fill="url(#c)" rx="13.002" ry="13.002"/><path fill="url(#d)" d="M45.989 41.985c0-2.655-2.176-4.807-4.86-4.807a4.86 4.86 0 0 0-3.939 2.01l-.006-.007s-1.362 2.184-3.544 2.231c-2.273.049-6.23-.694-7.825-5.371 0 0-1.521 6.278 4.84 10.046 7.041 4.172 12.431.298 12.45.289l-.004-.005c1.531-1.063 2.888-2.427 2.888-4.386" transform="translate(-11.518 -12.812)scale(1.3364)"/><path fill="url(#e)" d="M28.697 24.066c7.755 7.57 11.448 11.654 11.152 11.957s-4.468-3.289-12.223-10.859-13.32-12.776-12.672-13.44c.686-.702 5.988 4.773 13.743 12.342" transform="translate(-11.518 -12.812)scale(1.3364)"/><path fill="url(#f)" d="M44.405 38.011c2.377 2.32 1.835 4.833 1.273 5.409-1.031-2.748-1.836-1.979-3.52-3.107-2.192-1.467-2.145-3.005-1.583-3.581s1.932-.574 3.83 1.279" transform="translate(-11.518 -12.812)scale(1.3364)"/><path fill="#9fa0a0" d="M34.835 29.835c5.752 5.367 8.147 7.73 8.656 7.209.53-.543-1.911-2.859-7.416-8.48z"/></svg>