<svg xmlns="http://www.w3.org/2000/svg" width="64" height="64" viewBox="0 0 16.933 16.933"><defs><linearGradient id="e" x1="13.229" x2="13.229" y1="9.79" y2="16.668" gradientUnits="userSpaceOnUse"><stop offset="0" stop-color="#8b63c3"/><stop offset="1" stop-color="#6164c5"/></linearGradient><linearGradient id="f" x1="100" x2="100" y1="852.36" y2="1052.4" gradientTransform="translate(10.146 -18.639)scale(.03361)" gradientUnits="userSpaceOnUse"><stop offset="0" stop-color="#fff"/><stop offset="1" stop-color="#d7d7d7"/></linearGradient><linearGradient id="a" x1="7.937" x2="7.937" y1="15.081" y2="1.852" gradientUnits="userSpaceOnUse"><stop offset="0" stop-color="#f1efeb"/><stop offset="1" stop-color="#fdfcfc"/></linearGradient><filter id="b" width="1.365" height="1.365" x="-.182" y="-.182" color-interpolation-filters="sRGB"><feGaussianBlur stdDeviation=".551"/></filter><filter id="c" width="1.365" height="1.365" x="-.182" y="-.182" color-interpolation-filters="sRGB"><feGaussianBlur stdDeviation=".551"/></filter><filter id="d" width="1.12" height="1.12" x="-.06" y="-.06" color-interpolation-filters="sRGB"><feGaussianBlur stdDeviation=".65"/></filter></defs><rect width="14.817" height="14.817" x="1.058" y="1.05" fill="url(#a)" rx="3.44" ry="3.44"/><path d="M8.318 284.04a4.5 4.5 0 0 0-3.032 1.313 4.5 4.5 0 0 0-.367 5.935l.945-.945a3.175 3.175 0 0 1 .358-4.054 3.18 3.18 0 0 1 3.303-.744v1.136l1.697-1.697a4.5 4.5 0 0 0-2.904-.944" filter="url(#b)" opacity=".15" style="paint-order:stroke markers fill" transform="translate(-1.303 -324.31)scale(1.1539)"/><path d="m12.015 285.78-.945.945a3.175 3.175 0 0 1-.359 4.054 3.18 3.18 0 0 1-3.303.744v-1.137l-1.122 1.123-.575.574a4.5 4.5 0 0 0 5.936-.368 4.5 4.5 0 0 0 .368-5.935" filter="url(#c)" opacity=".15" style="paint-order:stroke markers fill" transform="translate(-1.303 -324.31)scale(1.1539)"/><path fill="#3e90ea" d="M8.295 3.294a5.2 5.2 0 0 0-3.499 1.515 5.19 5.19 0 0 0-.423 6.848l1.09-1.09a3.664 3.664 0 0 1 .414-4.678 3.66 3.66 0 0 1 3.81-.859v1.311l1.959-1.958a5.2 5.2 0 0 0-3.35-1.09z" style="paint-order:stroke markers fill"/><path fill="#67e6f4" d="m12.561 5.301-1.09 1.09a3.664 3.664 0 0 1-.415 4.679 3.66 3.66 0 0 1-3.811.858v-1.312L5.95 11.912l-.663.662a5.19 5.19 0 0 0 6.85-.424 5.19 5.19 0 0 0 .423-6.85z" style="paint-order:stroke markers fill"/><circle cx="14.56" cy="14.56" r="13" filter="url(#d)" opacity=".25" style="paint-order:stroke markers fill" transform="translate(9.377 9.377)scale(.26458)"/><circle cx="13.229" cy="13.229" r="3.439" fill="url(#e)" style="paint-order:stroke fill markers"/><path fill="url(#f)" d="M12.583 13.513c0 .609.011.821-.38.821-.39 0-.7.127-.7.483s.368.528.597.528.684-.16.684-.643v-2.183l1.953-.453v1.671s.023.201-.235.201c-.259 0-.828-.074-.828.471 0 .546.552.511.638.511a.694.694 0 0 0 .643-.74v-3.068l-2.383.46z"/></svg>