<svg xmlns="http://www.w3.org/2000/svg" width="64" height="64" viewBox="0 0 16.933 16.933"><defs><linearGradient id="a" x1="7.937" x2="7.937" y1="15.081" y2="1.852" gradientUnits="userSpaceOnUse"><stop offset="0" stop-color="#eae8e9"/><stop offset="1" stop-color="#f9f8f9"/></linearGradient><linearGradient id="e" x1="25.135" x2="25.135" y1="11.222" y2="9.39" gradientTransform="translate(2.182 .144)" gradientUnits="userSpaceOnUse"><stop offset="0" stop-color="#212020"/><stop offset=".284" stop-color="#212020"/><stop offset=".635" stop-color="#5d7788"/><stop offset=".679" stop-color="#fff"/><stop offset=".767" stop-color="#fff"/><stop offset=".793" stop-color="#374550"/><stop offset="1" stop-color="#212020"/></linearGradient><linearGradient id="d" x1="30.946" x2="30.946" y1="11.199" y2="9.364" gradientTransform="matrix(1 0 0 .54079 3.25 4.869)" gradientUnits="userSpaceOnUse"><stop offset="0" stop-color="#212020"/><stop offset=".284" stop-color="#212020"/><stop offset=".635" stop-color="#374550"/><stop offset=".679" stop-color="#fefefe"/><stop offset=".767" stop-color="#fff"/><stop offset=".793" stop-color="#374550"/><stop offset="1" stop-color="#212020"/></linearGradient><linearGradient id="f" x1="25.135" x2="25.135" y1="11.222" y2="9.39" gradientTransform="translate(-10.229 .144)" gradientUnits="userSpaceOnUse"><stop offset="0" stop-color="#212020"/><stop offset=".284" stop-color="#212020"/><stop offset=".635" stop-color="#374550"/><stop offset="1" stop-color="#212020"/></linearGradient><linearGradient id="c" x1="17.367" x2="17.367" y1="10.635" y2="10.254" gradientUnits="userSpaceOnUse"><stop offset="0" stop-color="#212020"/><stop offset=".284" stop-color="#212020"/><stop offset=".635" stop-color="#374550"/><stop offset=".793" stop-color="#374550"/><stop offset="1" stop-color="#212020"/></linearGradient><linearGradient id="b" x1="17.367" x2="17.367" y1="10.635" y2="10.254" gradientTransform="matrix(1 0 0 .66667 -.434 3.49)" gradientUnits="userSpaceOnUse"><stop offset="0" stop-color="#212020"/><stop offset=".633" stop-color="#1c2328"/><stop offset="1" stop-color="#212020"/></linearGradient></defs><rect width="14.817" height="14.817" x="1.058" y="1.05" fill="url(#a)" rx="3.44" ry="3.44"/><path d="M7.813 9.12h3.315v.438H7.813z" opacity=".1" style="paint-order:stroke fill markers"/><g stroke-linecap="round" stroke-linejoin="round" stroke-opacity=".35" stroke-width=".075" opacity=".25" transform="translate(0 .265)"><rect width="12.171" height=".132" x="2.381" y="3.969" opacity=".75" rx="0" ry=".066"/><rect width="12.171" height=".132" x="2.381" y="6.085" opacity=".75" rx="0" ry=".066"/><rect width="12.171" height=".132" x="2.381" y="8.202" opacity=".75" rx="0" ry=".066"/><rect width="12.171" height=".132" x="2.381" y="10.054" opacity=".75" rx="0" ry=".066"/><rect width="12.171" height=".132" x="2.381" y="12.171" opacity=".75" rx="0" ry=".066"/></g><path d="M3.316 3.395h2.18v.409h-2.18zm.67 1.756h3.117v.479H3.986z" opacity=".1" style="paint-order:stroke fill markers"/><g stroke-linecap="round" stroke-linejoin="round" stroke-opacity=".35" transform="rotate(-60 17.022 22.198)"><rect width=".656" height=".265" x="16.643" y="10.319" fill="url(#b)" rx="0" ry=".048"/><rect width=".656" height=".397" x="17.077" y="10.243" fill="url(#c)" rx="0" ry=".072"/><path fill="url(#d)" d="M33.137 9.933c.147 0 .265.223.265.5s-.118.501-.265.501h1.587c.147 0 .265-.223.265-.5 0-.278-.118-.501-.264-.501z"/><path fill="#212020" d="M33.72 9.933c.147 0 .185.223.185.5s-.038.501-.185.501h.132c.146 0 .185-.223.185-.5 0-.278-.039-.501-.185-.501z"/><path fill="url(#e)" d="M21.231 9.508c.147 0 .265.413.265.926s-.118.926-.265.926h12.292c.221 0 .398-.413.398-.926s-.177-.926-.398-.926z"/><g fill="#212020"><path d="M31.562 9.508c.221 0 .399.413.399.926s-.178.926-.399.926h.118c.22 0 .399-.413.399-.926s-.178-.926-.4-.926zm3.288.487c.04.084.099.242.099.435s-.06.359-.099.443c.08-.082.133-.237.137-.42v-.039c-.004-.182-.057-.337-.137-.419"/><path d="m27.116 9.454 6.431.214c.033.002.273.187.26.217l-.112.244c-.014.03-.026.06-.06.06H27.14c-.033 0-.052-.028-.06-.06l-.088-.401c-.007-.032.091-.274.124-.274"/></g><path fill="#374550" d="M27.171 9.404h6.495c.033 0 .053.027.06.06l.088.4c.007.032-.026.06-.06.06H27.26c-.033 0-.052-.028-.06-.06l-.088-.4c-.007-.033.027-.06.06-.06z"/><path fill="#565e64" d="M27.147 9.413c-.022.01-.041.027-.036.05l.088.4c.007.033.027.06.06.06h6.495c.033 0 .067-.027.06-.06l-.005-.02c-.008.004-.015.01-.023.01H27.29c-.033 0-.052-.027-.06-.06z"/><g stroke-width=".104"><path fill="url(#f)" d="M17.674 10.198s-.018.01-.011.047c.037.045.052.148.053.19s-.013.148-.048.208c.003.034.016.04.016.04l3.54.677c.216.042.287-.413.287-.926s-.083-.968-.3-.926z"/><path fill="#374550" d="M17.792 10.301s-.03 0-.027.081c.001.082.027.087.027.087l3.37.029c.221.002.23-.356.23-.5 0-.213-.15-.389-.229-.373z"/><path fill="#565e64" d="M17.792 10.301s-.03 0-.027.081c.001.082.027.087.027.087l3.322-.123c.22-.008.201-.205.201-.35 0-.213-.093-.296-.173-.282z"/><path fill="#fff" d="M17.792 10.319s-.03-.018-.027.064c.001.082.027.068.027.068l3.356-.243c.084-.006.12-.068.12-.213 0-.213-.077-.205-.144-.195z"/></g><path fill="#fff" d="M17.41 10.353c0 .013-.122.024-.2.024s-.081-.01-.081-.024.003-.024.081-.024.2.01.2.024"/><path fill="#374550" d="M16.983 10.412c0 .013-.122.024-.2.024s-.081-.01-.081-.024.003-.024.081-.024.2.01.2.024"/><path fill="#212020" d="M26.174 9.508c.221 0 .399.413.399.926s-.178.926-.399.926h.118c.22 0 .399-.413.399-.926s-.178-.926-.4-.926zm-3.326 0c.221 0 .399.413.399.926s-.178.926-.399.926h.118c.22 0 .399-.413.399-.926s-.178-.926-.4-.926zm-.614 0c.221 0 .399.413.399.926s-.178.926-.399.926h.118c.22 0 .399-.413.399-.926s-.178-.926-.4-.926z" opacity=".75"/></g><path d="M7.641 5.158h3.008v.523H7.641zM3.912 7.075h1.46v.504h-1.46zm1.992.04H7.53v.464H5.904zm-1.918 1.94h3.091v.471H3.986zm-.815 1.893H4.27v.636H3.171zm7.514 2.208h1.123v1.103h-1.123zm1.427.698h1.406v.439h-1.406z" opacity=".1" style="paint-order:stroke fill markers"/></svg>