<svg xmlns="http://www.w3.org/2000/svg" width="64" height="64" viewBox="0 0 64 64"><defs><linearGradient id="a" x1=".5" x2=".49" y1="0" y2="1.003"><stop offset="0%" style="stop-color:rgba(255,255,255,.1)"/><stop offset="100%" style="stop-color:rgba(0,0,0,.1)"/></linearGradient></defs><path d="M16 4h32c6.623 0 12 5.377 12 12v32c0 6.623-5.377 12-12 12H16C9.377 60 4 54.623 4 48V16C4 9.377 9.377 4 16 4" style="stroke:none;fill:#343a40;stroke-miterlimit:10"/><path d="M16 4h32c6.623 0 12 5.377 12 12v32c0 6.623-5.377 12-12 12H16C9.377 60 4 54.623 4 48V16C4 9.377 9.377 4 16 4" style="stroke:none;fill:#fff3bf;stroke-miterlimit:10"/><path d="M16 4h32c6.623 0 12 5.377 12 12v32c0 6.623-5.377 12-12 12H16C9.377 60 4 54.623 4 48V16C4 9.377 9.377 4 16 4" style="stroke:none;fill:url(#a);stroke-miterlimit:10"/><linearGradient id="b" x1=".508" x2=".508" y1=".002" y2="1.002" gradientTransform="matrix(40 0 0 -40 12 52)" gradientUnits="userSpaceOnUse"><stop offset="0%" style="stop-color:#4c4c4c"/><stop offset="100%" style="stop-color:#2a2a2a"/></linearGradient><path fill="url(#b)" d="M12 32c0 11.038 8.962 20 20 20s20-8.962 20-20-8.962-20-20-20-20 8.962-20 20"/><linearGradient id="c" x1=".31" x2=".31" y1="-.01" y2=".99" gradientTransform="matrix(33.342 0 0 -33.342 15.329 48.671)" gradientUnits="userSpaceOnUse"><stop offset="0%" style="stop-color:#fedf2d"/><stop offset="100%" style="stop-color:#f48d01"/></linearGradient><radialGradient id="d" cx=".5" cy=".5" r="1" fx=".5" fy=".5"><stop offset="0%" style="stop-color:#fe8c06"/><stop offset="100%" style="stop-color:#fea933"/></radialGradient><path fill="url(#c)" stroke="url(#d)" stroke-linejoin="round" stroke-width="1.993" d="M15.329 32c0 9.201 7.47 16.671 16.671 16.671S48.671 41.201 48.671 32 41.201 15.329 32 15.329 15.329 22.799 15.329 32Z" vector-effect="non-scaling-stroke"/><g fill="none"><path d="M29.671 36.804c0 3.942 3.2 7.142 7.142 7.142s7.142-3.2 7.142-7.142-3.2-7.142-7.142-7.142a7.145 7.145 0 0 0-7.142 7.142m-9.63-11.641a5.104 5.104 0 0 0 5.101 5.101 5.104 5.104 0 0 0 5.102-5.101 5.104 5.104 0 0 0-5.102-5.102 5.104 5.104 0 0 0-5.101 5.102"/><path d="m30.61 40.395-9.591-12.243 7.346-6.938 12.856 9.999z"/></g><g opacity=".9"><linearGradient id="e" x1=".427" x2=".427" y1="-.035" y2="1.057" gradientTransform="translate(25.333 25.333)scale(13.333)" gradientUnits="userSpaceOnUse"><stop offset="0%" style="stop-color:#4c4c4c"/><stop offset="100%" style="stop-color:#2a2a2a"/></linearGradient><circle cx="32" cy="32" r="6.667" fill="url(#e)" vector-effect="non-scaling-stroke"/></g></svg>