<svg xmlns="http://www.w3.org/2000/svg" width="64" height="64"><defs><linearGradient id="a" x1="31.525" x2="31.525" y1="6.542" y2="59.045" gradientUnits="userSpaceOnUse"><stop offset="0" stop-color="#ff413f"/><stop offset="1" stop-color="#e62f2e"/></linearGradient><filter id="b" width="1.567" height="1.133" x="-.283" y="-.067" color-interpolation-filters="sRGB"><feGaussianBlur stdDeviation=".945"/></filter></defs><path fill="url(#a)" d="M17.002 3.97h29.996C54.174 3.97 60 9.796 60 16.972v29.996c0 7.176-5.826 13.002-13.002 13.002H17.002C9.826 59.97 4 54.144 4 46.968V16.972C4 9.796 9.826 3.97 17.002 3.97"/><g filter="url(#b)" opacity=".15" transform="translate(-11 2.004)"><rect width="6" height="22" x="40" y="14" opacity="1" rx="3" ry="3"/><circle cx="43" cy="44" r="4" opacity="1"/></g><g fill="#fff" transform="translate(-11 1)"><rect width="6" height="22" x="40" y="14" rx="3" ry="3"/><circle cx="43" cy="44" r="4"/></g></svg>