<svg xmlns="http://www.w3.org/2000/svg" width="64" height="64"><defs><linearGradient id="a" x1="7.937" x2="7.937" y1="15.081" y2="1.852" gradientTransform="scale(3.7796)" gradientUnits="userSpaceOnUse"><stop offset="0" stop-color="#f54800"/><stop offset="1" stop-color="#ffb200"/></linearGradient></defs><rect width="64" height="64" fill="none" rx="0" ry="0" style="paint-order:stroke fill markers"/><rect width="56.002" height="56.002" x="4" y="3.969" fill="url(#a)" rx="13.002" ry="13.002"/><circle cx="32.02" cy="32.044" r="30.001" fill="none"/><path fill="#fff" d="M29.431 13.25c-.63 0-1.14.484-1.14 1.083v4.336c0 2.462-2.148 5.899-4.223 9.153-2.194 3.437-6.577 6.992-7.005 10.296A8.5 8.5 0 0 0 17 39.302c13.684.455 25.805-7.211 25.936-7.295l1.042-.67c-.686-1.176-2.396-2.457-3.534-3.74-2.75-3.102-4.61-6.51-4.61-8.929v-4.335c0-.6-.512-1.084-1.141-1.084zm15.821 19.963-.83.528c-6.864 4.371-17.373 7.838-27.152 7.648 1.385 5.028 6.9 8.422 7.182 8.589.184.108 1.48.772 7.42.772 5.938 0 7.436-.664 7.618-.772.343-.2 8.338-5.07 7.44-11.932-.206-1.567-.84-3.19-1.678-4.833"/></svg>