<svg xmlns="http://www.w3.org/2000/svg" width="64" height="64" viewBox="0 0 64 64"><defs><linearGradient id="a" x1=".5" x2=".487" y1="0" y2=".996"><stop offset="0%" style="stop-color:rgba(255,255,255,.5)"/><stop offset="100%" style="stop-color:rgba(0,0,0,.25)"/></linearGradient></defs><path d="M15.991 4h32.018C54.627 4 60 9.373 60 15.991v32.018C60 54.627 54.627 60 48.009 60H15.991C9.373 60 4 54.627 4 48.009V15.991C4 9.373 9.373 4 15.991 4" style="stroke:none;fill:#4d4d4d;stroke-miterlimit:10"/><path d="M15.991 4h32.018C54.627 4 60 9.373 60 15.991v32.018C60 54.627 54.627 60 48.009 60H15.991C9.373 60 4 54.627 4 48.009V15.991C4 9.373 9.373 4 15.991 4" style="stroke:none;fill:url(#a);stroke-miterlimit:10;opacity:.5"/><path fill="#fff" d="M49.78 32.002v-.004c0-9.812-7.966-17.778-17.778-17.778h-.004c-9.812 0-17.778 7.966-17.778 17.778v.004c0 9.812 7.966 17.778 17.778 17.778h.004c9.812 0 17.778-7.966 17.778-17.778" opacity=".1" style="opacity:.3"/><path fill="#fff" d="M46.45 32.005c0-7.972-6.473-14.445-14.445-14.445S17.56 24.033 17.56 32.005 24.033 46.45 32.005 46.45 46.45 39.977 46.45 32.005" opacity=".25" style="opacity:.3"/><path fill="#fff" d="m32.004 19.78-3.3 3.96a8.889 8.889 0 1 0 12.028 9.935 8.89 8.89 0 0 0-5.431-9.935z" opacity=".9"/><circle cx="14.783" cy="15.891" r="2.776" opacity=".3" vector-effect="non-scaling-stroke"/><circle cx="14.783" cy="15.891" r="1.667" fill="#f44336" vector-effect="non-scaling-stroke"/><path d="M30.891 8.669h2.222v4.442h-2.222zm6.081.508 2.142.575-1.147 4.292-2.146-.576zm5.732 2.066 1.923 1.108-2.221 3.847-1.923-1.109zm5.01 3.473 1.57 1.57-3.141 3.145-1.57-1.57zm3.939 4.657 1.113 1.923-3.847 2.226-1.113-1.928zm2.603 5.518.576 2.145-4.292 1.151-.575-2.146zm1.08 6v2.222h-4.443v-2.222z" opacity=".3"/></svg>