<svg xmlns="http://www.w3.org/2000/svg" width="64" height="64"><defs><linearGradient id="a" x1="7.937" x2="7.937" y1="15.081" y2="1.852" gradientTransform="scale(3.7796)" gradientUnits="userSpaceOnUse"><stop offset="0" stop-color="#f1efeb"/><stop offset="1" stop-color="#fdfcfc"/></linearGradient><filter id="b" width="1.091" height="1.101" x="-.046" y="-.051" color-interpolation-filters="sRGB"><feGaussianBlur stdDeviation=".4"/></filter></defs><rect width="56" height="56" x="4" y="4" fill="url(#a)" rx="13" ry="13"/><path fill="#88219c" d="M30.286 8 9.714 20v24l20.572 12z"/><path fill="#eb743b" d="M33.715 8v48l20.571-12V20z"/><path d="M34.5 22a1.5 1.5 0 0 0-1.396 2.047l-1.27.953h-2.83v1h2.77l1.45 1.74a1.5 1.5 0 1 0 .769-.642l-1.26-1.51 1.04-.78a1.5 1.5 0 1 0 .738-2.805zm0 1a.5.5 0 1 1 0 1 .5.5 0 0 1 0-1m-9.77 2-1.3 1.95L19 28v11l3-2 3 2V28l-.738-.492 1.01-1.51h1.73v-1h-2.27zm13.8 0a1.5 1.5 0 0 0-1.5 1.5c0 .635.401 1.2 1 1.41v2.18a1.5 1.5 0 0 0-.912.912h-8.09v1h4.29l3.86 3.86a1.5 1.5 0 1 0 .707-.707l-3.15-3.15h2.38a1.498 1.498 0 1 0 1.91-1.91v-2.18a1.498 1.498 0 0 0-.5-2.91zm0 1a.5.5 0 1 1 0 1 .5.5 0 0 1 0-1m-4 2a.5.5 0 1 1 0 1 .5.5 0 0 1 0-1m-12.5 1v1h-1a1 1 0 0 1 1-1m16.5 2a.5.5 0 1 1 0 1 .5.5 0 0 1 0-1m-5 3a1.5 1.5 0 0 0-.885 2.71L31.659 40h-2.63v1h3.3l1.99-.609a1.5 1.5 0 0 0 1.739.51l.41-.24c.339-.276.561-.69.561-1.16a1.5 1.5 0 0 0-3-.09l-1.26.36.832-2.77a1.5 1.5 0 0 0-.07-3zm0 1a.5.5 0 1 1 0 1 .5.5 0 0 1 0-1m5 1a.5.5 0 1 1 0 1 .5.5 0 0 1 0-1m-3 3a.5.5 0 1 1 0 1 .5.5 0 0 1 0-1" filter="url(#b)" opacity=".1" style="mix-blend-mode:normal" transform="translate(-16 -21.143)scale(1.7143)"/><path fill="#bf7dc9" d="m20 21.715-5.143 3.428V44L20 40.572 25.143 44V25.143zM20 26l2.572 2.572L20 31.143l-2.571-2.571z"/><path fill="#f9f9f9" d="m24.629 20-3.497 5.332a3.4 3.4 0 0 0-1.125-.194c-1.886 0-3.428 1.534-3.428 3.429s1.534 3.428 3.428 3.428 3.429-1.534 3.429-3.428a3.4 3.4 0 0 0-.875-2.28l2.983-4.578h4.68v-1.714zm-4.612 6.857a1.715 1.715 0 1 1 0 3.43 1.715 1.715 0 0 1 0-3.43m21.412-12a2.572 2.572 0 0 0-2.393 3.51L36.859 20h-3.137v1.714h3.034l2.486 2.983a2.6 2.6 0 0 0-.362 1.31 2.572 2.572 0 0 0 5.143 0 2.572 2.572 0 0 0-3.463-2.41l-2.16-2.59 1.783-1.335c.385.22.82.335 1.265.335a2.572 2.572 0 0 0 0-5.143zm0 1.715a.857.857 0 1 1 0 1.715.857.857 0 0 1 0-1.715M48.286 20a2.57 2.57 0 0 0-2.571 2.572 2.56 2.56 0 0 0 1.714 2.417v3.737a2.57 2.57 0 0 0-1.563 1.563H33.71v1.715h5.64l6.618 6.617a2.55 2.55 0 0 0-.254 1.106 2.572 2.572 0 1 0 2.571-2.572c-.382 0-.76.089-1.105.254l-5.4-5.4h4.08a2.568 2.568 0 1 0 3.274-3.274v-3.738a2.568 2.568 0 0 0-.857-4.988zm0 1.714a.857.857 0 1 1 0 1.715.857.857 0 0 1 0-1.715m-6.857 3.43a.857.857 0 1 1 0 1.714.857.857 0 0 1 0-1.715m6.857 5.142a.857.857 0 1 1 0 1.715.857.857 0 0 1 0-1.715m-8.571 5.143A2.57 2.57 0 0 0 37.143 38a2.58 2.58 0 0 0 1.055 2.075l-1.69 5.64h-2.795v1.714h3.943l3.411-1.044a2.57 2.57 0 0 0 2.075 1.044 2.572 2.572 0 0 0 0-5.143 2.58 2.58 0 0 0-2.572 2.417l-2.16.62 1.426-4.75a2.572 2.572 0 0 0-.12-5.143zm0 1.714a.857.857 0 1 1 0 1.715.857.857 0 0 1 0-1.715m8.571 1.714a.857.857 0 1 1 0 1.715.857.857 0 0 1 0-1.715M43.143 44a.857.857 0 1 1 0 1.715.857.857 0 0 1 0-1.715"/></svg>