<svg xmlns="http://www.w3.org/2000/svg" width="64" height="64"><defs><clipPath id="e"><rect width="56.002" height="56.002" x="4.174" y="3.824" fill="#b94b4b" stroke-width="3.78" opacity=".586" rx="13.002" ry="13.002"/></clipPath><clipPath id="d"><rect width="56.002" height="56.002" x="4.174" y="3.824" fill="#b94b4b" stroke-width="3.78" opacity=".586" rx="13.002" ry="13.002"/></clipPath><clipPath id="c"><rect width="56.002" height="56.002" x="4.174" y="3.824" fill="#b94b4b" stroke-width="3.78" opacity=".586" rx="13.002" ry="13.002"/></clipPath><clipPath id="b"><rect width="56.002" height="56.002" x="4.174" y="3.824" fill="#b94b4b" stroke-width="3.78" opacity=".586" rx="13.002" ry="13.002"/></clipPath><linearGradient id="a" x1="12" x2="116" y1="76" y2="76" gradientTransform="matrix(.53846 0 0 .53947 -2.462 -2.5)" gradientUnits="userSpaceOnUse"><stop offset="0" stop-color="#b5b5b5"/><stop offset=".212" stop-color="#d7d7d7"/><stop offset=".792" stop-color="#d7d7d7"/><stop offset=".998" stop-color="#969696"/></linearGradient></defs><rect width="56" height="56" x="4" y="4" fill="#3a3545" rx="13.002" ry="12.999"/><rect width="56" height="56" x="4" y="4" fill="#3a3545" rx="13.002" ry="12.999"/><rect width="56" height="41" x="4" y="18" fill="url(#a)" rx="13.084" ry="13.108" style="paint-order:fill markers stroke"/><rect width="55.986" height="48.463" x="4.174" y="3.824" fill="#3a3545" clip-path="url(#b)" rx="12.997" ry="12.997" style="paint-order:fill markers stroke" transform="matrix(1.0002 0 0 .99044 -.175 .213)"/><path fill="#5c5c63" d="M34.16 27.693v23.693h13.677c6.145 0 12.163-5.26 12.163-11.13V27.692z"/><path fill="#dedcd9" d="M34.16 4v23.693H60V16.998A12.97 12.97 0 0 0 46.998 4z"/><path fill="#5c5c63" d="M17.002 4c-2.385 0-4.61.646-6.528 1.758v21.936H34.16V4z"/><path fill="#dedcd9" d="M28.912 13.741c0-1.954-1.59-3.54-3.552-3.54a3.55 3.55 0 0 0-3.043 1.716 3.55 3.55 0 0 0-3.042-1.716 3.546 3.546 0 0 0-3.552 3.54c0 1.018.43 1.936 1.12 2.581h-.002l5.394 5.179 5.558-5.179h-.002a3.52 3.52 0 0 0 1.12-2.58m-18.436 13.95H34.16v23.693H16.47c-4.413 0-5.997-1.986-5.997-1.986z"/><path fill="none" stroke="#5c5c63" stroke-linecap="round" stroke-linejoin="round" stroke-width="4.307" d="M51.547 15.67a4.307 4.308 0 1 1-8.613 0 4.307 4.307 0 0 1 8.613 0m0 0" clip-path="url(#c)" transform="translate(-.16 .176)"/><path fill="none" stroke="#dedcd9" stroke-linecap="round" stroke-width="3.23" d="m47.24 33.979 4.845 4.846-4.845 4.847m4.845-4.847H41.318" clip-path="url(#d)" transform="translate(-.16 .176)"/><path fill="#5c5c63" d="M18.709 32.902a2.692 2.692 0 1 1 0 5.385 2.692 2.692 0 0 1 0-5.385m7.537 0a2.692 2.692 0 1 1 0 5.385 2.692 2.692 0 0 1 0-5.385m-7.537 7.539a2.692 2.692 0 1 1 0 5.384 2.692 2.692 0 0 1 0-5.384m7.537 0a2.692 2.692 0 1 1 0 5.384 2.692 2.692 0 0 1 0-5.384" clip-path="url(#e)" transform="translate(-.16 .176)"/><path fill="#f5614f" d="M18 55h8v8l-4-3-3.999 3z"/><path fill="#3a3545" d="M4.03 39.089h.81v11.86S4 48.875 4 47s.03-7.911.03-7.911" style="paint-order:fill markers stroke"/></svg>