<svg xmlns="http://www.w3.org/2000/svg" width="64" height="64"><defs><linearGradient id="b" x1="17" x2="47" y1="40.5" y2="40.5" gradientUnits="userSpaceOnUse"><stop offset="0" stop-color="#fea"/><stop offset="1" stop-color="#ffdaaa"/></linearGradient><linearGradient id="c" x1="14.857" x2="49.143" y1="37.443" y2="37.443" gradientUnits="userSpaceOnUse"><stop offset="0" stop-color="#343434"/><stop offset="1" stop-color="#5e5e5e"/></linearGradient><linearGradient id="a" x1="7.937" x2="7.937" y1="15.081" y2="1.852" gradientTransform="scale(3.7796)" gradientUnits="userSpaceOnUse"><stop offset="0" stop-color="#f1efeb"/><stop offset="1" stop-color="#fdfcfc"/></linearGradient></defs><rect width="56.002" height="56.002" x="4" y="3.969" fill="url(#a)" rx="13.002" ry="13.002"/><rect width="56.002" height="56.002" x="4" y="3.969" fill="url(#b)" rx="13.002" ry="13.002"/><path fill="url(#c)" d="M12.465 44.299c-.574 0-1.036.462-1.036 1.036v6.186c0 2.171 1.75 3.92 3.92 3.92h33.302c2.17 0 3.92-1.749 3.92-3.92v-6.186c0-.574-.462-1.036-1.036-1.036z" transform="translate(4 4)scale(.87501)"/><path fill="#664930" d="M14.907 40.512a.905.905 0 0 0-.907.907v5.412c0 1.9 1.53 3.431 3.43 3.431h29.14c1.9 0 3.43-1.53 3.43-3.43v-5.413a.905.905 0 0 0-.906-.907z"/><rect width="30" height="21" x="17" y="30" fill="url(#b)" fill-rule="evenodd" rx=".5" ry=".525" style="paint-order:stroke fill markers"/><path fill="url(#d)" d="M15.821 28.013h32.357c.532 0 .964.464.964 1.036v23.642c0 .573-.432 1.037-.964 1.037H15.821c-.532 0-.964-.464-.964-1.037V29.05c0-.572.432-1.036.964-1.036z" transform="translate(4 4)scale(.87501)"/><path fill="url(#c)" d="M14.857 34.87v.857h7.714A4.284 4.284 0 0 0 29 39.44a4.3 4.3 0 0 0 2.054-2.885v.042c.089-1.147 1.803-1.138 1.892 0v-.049A4.3 4.3 0 0 0 35 39.44a4.288 4.288 0 0 0 6.428-3.712h7.715v-.857z" filter="url(#e)" transform="translate(4 4)scale(.87501)"/><path fill="#b5835a" d="m14 42.012 1.68 1.26a7.45 7.45 0 0 0 2.935 1.33l11.052 2.326c.96.202 1.708.958 1.901 1.92L32 51.012H16.31a2.31 2.31 0 0 1-2.31-2.31z"/><path fill="#9e6e47" d="m50 42.012-1.68 1.26a7.45 7.45 0 0 1-2.934 1.33l-11.052 2.326a2.46 2.46 0 0 0-1.902 1.92L32 51.012h15.69a2.31 2.31 0 0 0 2.31-2.31z"/><path fill="#986a44" d="m14 30.012 8.116-17.583a1.62 1.62 0 0 1 2.508-.565l5.754 4.796c.94.784 2.305.784 3.246 0l5.754-4.796a1.618 1.618 0 0 1 2.508.565L50 30.012z"/><path fill="url(#f)" d="M41.723 12.804c.723.003 1.39.392 1.748 1.02l9.088 15.904H32.013V19.42a2.9 2.9 0 0 0 1.831-.666l6.576-5.48a2.03 2.03 0 0 1 1.304-.47z" opacity=".75" transform="translate(4 4)scale(.87501)"/><path fill="url(#i)" d="m46.899 30.021-29.887-.026-.052 3.079 30.06 4.512z"/><path fill="url(#l)" d="M17 33.761v.75h6.75a3.749 3.749 0 0 0 5.625 3.248 3.76 3.76 0 0 0 1.797-2.524v.036c.078-1.003 1.578-.996 1.656 0v-.042a3.75 3.75 0 0 0 1.797 2.53 3.752 3.752 0 0 0 5.625-3.248H47v-.75z"/><path fill="#b5835a" d="M12.5 28.511h39a1.5 1.5 0 1 1 0 3h-39a1.5 1.5 0 1 1 0-3"/></svg>