<svg xmlns="http://www.w3.org/2000/svg" xmlns:xlink="http://www.w3.org/1999/xlink" width="64" height="64"><defs><linearGradient id="d" x1="24.705" x2="25.061" y1="43.939" y2="4.405" gradientTransform="translate(8.503 9.223)" gradientUnits="userSpaceOnUse"><stop offset="0" stop-color="#279646"/><stop offset="1" stop-color="#76ff68"/></linearGradient><linearGradient xlink:href="#a" id="e" x1="31" x2="31" y1="34" y2="24" gradientTransform="translate(8.503 9.223)" gradientUnits="userSpaceOnUse"/><linearGradient id="a"><stop offset="0" stop-color="#272b2d"/><stop offset="1" stop-color="#33393e"/></linearGradient><linearGradient xlink:href="#a" id="f" x1="18" x2="18" y1="34" y2="24" gradientTransform="translate(8.503 9.223)" gradientUnits="userSpaceOnUse"/><linearGradient id="b" x1="7.937" x2="7.937" y1="15.081" y2="1.852" gradientTransform="scale(3.7796)" gradientUnits="userSpaceOnUse"><stop offset="0" stop-color="#363636"/><stop offset="1" stop-color="#6c6c6c"/></linearGradient><filter id="c" width="1.135" height="1.108" x="-.068" y="-.054" color-interpolation-filters="sRGB"><feGaussianBlur stdDeviation=".9"/></filter></defs><rect width="56.002" height="56.002" x="4" y="3.969" fill="url(#b)" rx="13.002" ry="13.002"/><g filter="url(#c)" opacity=".5" transform="translate(-.503 -1.223)"><path d="M16.503 28.701c0 10.29 8.496 24.521 16 24.521 7.064 0 16-14.232 16-24.521s-7.163-15.479-16-15.479-16 5.189-16 15.479"/><path d="M36.885 35.605a8.13 8.13 0 0 1 7.441-2.205 8.13 8.13 0 0 1-2.205 7.44 8.13 8.13 0 0 1-7.441 2.206 8.13 8.13 0 0 1 2.205-7.441m-16.206-2.069c2.602-.542 5.42.182 7.441 2.175a7.94 7.94 0 0 1 2.206 7.338c-2.602.542-5.421-.182-7.442-2.175a7.94 7.94 0 0 1-2.205-7.338"/></g><path fill="url(#d)" d="M16.503 28.701c0 10.29 8.496 24.521 16 24.521 7.064 0 16-14.232 16-24.521s-7.163-15.479-16-15.479-16 5.189-16 15.479" transform="translate(-.503 -1.223)"/><path fill="url(#e)" d="M36.885 35.605a8.13 8.13 0 0 1 7.441-2.205 8.13 8.13 0 0 1-2.205 7.44 8.13 8.13 0 0 1-7.441 2.206 8.13 8.13 0 0 1 2.205-7.441" transform="translate(-.503 -1.223)"/><path fill="url(#f)" d="M20.679 33.536c2.602-.542 5.42.182 7.441 2.175a7.94 7.94 0 0 1 2.206 7.338c-2.602.542-5.421-.182-7.442-2.175a7.94 7.94 0 0 1-2.205-7.338" transform="translate(-.503 -1.223)"/></svg>