<svg xmlns="http://www.w3.org/2000/svg" xmlns:xlink="http://www.w3.org/1999/xlink" width="64" height="64"><defs><linearGradient id="a"><stop offset="0" style="stop-color:#ccc;stop-opacity:1"/><stop offset="1" style="stop-color:#797979;stop-opacity:1"/></linearGradient><linearGradient xlink:href="#a" id="b" x1="4" x2="60.002" y1="31.97" y2="31.97" gradientTransform="translate(-.031 -63.971)" gradientUnits="userSpaceOnUse"/><filter id="c" width="1.331" height="1.265" x="-.165" y="-.132" style="color-interpolation-filters:sRGB"><feGaussianBlur stdDeviation="3.032"/></filter></defs><rect width="56.002" height="56.002" x="3.969" y="-60.002" fill="#4d4d4d" rx="13.002" ry="13.002" style="fill:url(#b)" transform="rotate(90)"/><g style="opacity:.15;fill:#000;fill-opacity:1;filter:url(#c)" transform="translate(6.1 5.696)scale(.80935)"><path fill="#ffc107" d="M32 5a21.93 21.93 0 0 0-15.555 6.445l9.902 9.903A8 8 0 0 1 32 19Z" style="fill:#000;fill-opacity:1"/><path fill="#53dd22" d="M32 5v14a8 8 0 0 1 5.652 2.348l9.903-9.903A21.93 21.93 0 0 0 32 5" style="fill:#000;fill-opacity:1"/><path fill="#ab47bc" d="m26.348 32.652-9.902 9.902A21.93 21.93 0 0 0 32 49v-4h-8l4.754-10.695a8 8 0 0 1-2.407-1.653z" style="fill:#000;fill-opacity:1"/><path fill="#3f51b5" d="M37.652 32.652a8 8 0 0 1-2.406 1.648L40 45h-8v4a21.93 21.93 0 0 0 15.555-6.446z" style="fill:#000;fill-opacity:1"/><path fill="#42fffd" d="m47.555 11.445-9.902 9.902A8 8 0 0 1 40 27h14a21.93 21.93 0 0 0-6.445-15.555" style="fill:#000;fill-opacity:1"/><path fill="#039af4" d="M40 27a8 8 0 0 1-2.348 5.652l9.903 9.903A21.93 21.93 0 0 0 54 27Z" style="fill:#000;fill-opacity:1"/><path fill="#ff8e13" d="M16.445 11.445A21.93 21.93 0 0 0 10 27h14a8 8 0 0 1 2.347-5.652z" style="fill:#000;fill-opacity:1"/><path fill="#fd3b2d" d="M10 27a21.93 21.93 0 0 0 6.445 15.555l9.903-9.902A8 8 0 0 1 24 27Z" style="fill:#000;fill-opacity:1"/><rect width="16" height="14" x="24" y="43" fill="#666" rx="2.667" ry="2.8" style="fill:#000;fill-opacity:1"/><rect width="8" height="8" x="28" y="52" fill="#666" rx="1.333" ry="1.333" style="fill:#000;fill-opacity:1"/></g><g transform="translate(6.1 5.696)scale(.80935)"><path fill="#ffc107" d="M32 5a21.93 21.93 0 0 0-15.555 6.445l9.902 9.903A8 8 0 0 1 32 19Z"/><path fill="#53dd22" d="M32 5v14a8 8 0 0 1 5.652 2.348l9.903-9.903A21.93 21.93 0 0 0 32 5"/><path fill="#ab47bc" d="m26.348 32.652-9.902 9.902A21.93 21.93 0 0 0 32 49v-4h-8l4.754-10.695a8 8 0 0 1-2.407-1.653z"/><path fill="#3f51b5" d="M37.652 32.652a8 8 0 0 1-2.406 1.648L40 45h-8v4a21.93 21.93 0 0 0 15.555-6.446z"/><path fill="#42fffd" d="m47.555 11.445-9.902 9.902A8 8 0 0 1 40 27h14a21.93 21.93 0 0 0-6.445-15.555"/><path fill="#039af4" d="M40 27a8 8 0 0 1-2.348 5.652l9.903 9.903A21.93 21.93 0 0 0 54 27Z"/><path fill="#ff8e13" d="M16.445 11.445A21.93 21.93 0 0 0 10 27h14a8 8 0 0 1 2.347-5.652z"/><path fill="#fd3b2d" d="M10 27a21.93 21.93 0 0 0 6.445 15.555l9.903-9.902A8 8 0 0 1 24 27Z"/><rect width="8" height="8" x="28" y="52" fill="#666" rx="1.333" ry="1.333" style="fill:#af9a6a;fill-opacity:1"/><rect width="16" height="14" x="24" y="43" fill="#666" rx="2.667" ry="2.8" style="fill:#c4c4c4;fill-opacity:1"/></g></svg>