<svg xmlns="http://www.w3.org/2000/svg" width="64" height="64"><defs><linearGradient id="c" x1="756" x2="756" y1="-860.64" y2="-876.64" gradientTransform="translate(-989.36 1215.4)scale(1.3636)" gradientUnits="userSpaceOnUse"><stop offset="0" stop-color="#d36118"/><stop offset="1" stop-color="#f09e6f"/></linearGradient><linearGradient id="d" x1="812" x2="812" y1="-1075.6" y2="-1115.6" gradientTransform="matrix(.5 0 0 .54998 -362 633.59)" gradientUnits="userSpaceOnUse"><stop offset="0" stop-color="#ebad00"/><stop offset="1" stop-color="#ff633a"/></linearGradient><linearGradient id="f" x1="523" x2="523" y1="-1064.6" y2="-1088.6" gradientTransform="matrix(.28571 0 0 .41667 -115.43 481.6)" gradientUnits="userSpaceOnUse"><stop offset="0" stop-color="#b3b3b3"/><stop offset="1" stop-color="#e6e6e6"/></linearGradient><linearGradient id="g" x1="714" x2="714" y1="-1063.6" y2="-1083.6" gradientTransform="matrix(.25641 0 0 .5 -149.08 569.82)" gradientUnits="userSpaceOnUse"><stop offset="0" stop-color="#fff" stop-opacity=".588"/><stop offset="1" stop-color="#fff" stop-opacity=".863"/></linearGradient><linearGradient id="h" x1="889" x2="881.77" y1="-1054.6" y2="-1044.6" gradientTransform="matrix(.64237 0 0 .63876 -531.09 704.24)" gradientUnits="userSpaceOnUse"><stop offset="0" stop-color="#18a303"/><stop offset="1" stop-color="#106802"/></linearGradient><linearGradient id="a" x1="7.937" x2="7.937" y1="15.417" y2="1.058" gradientTransform="scale(3.7796)" gradientUnits="userSpaceOnUse"><stop offset="0" stop-color="#f55b00"/><stop offset="1" stop-color="#ffa627"/></linearGradient><linearGradient id="b" x1="30" x2="30" y1="54" y2="9" gradientUnits="userSpaceOnUse"><stop offset="0" stop-color="#fff"/><stop offset="1" stop-color="#f5f5f5"/></linearGradient><linearGradient id="i" x1="45" x2="60.076" y1="19" y2="3.924" gradientTransform="translate(3.429 3.456)scale(.89283)" gradientUnits="userSpaceOnUse"><stop offset="0" stop-color="#fff"/><stop offset="1" stop-color="#ffefcc"/></linearGradient><radialGradient id="e" cx="152.33" cy="-754.64" r="15" gradientTransform="matrix(0 .09025 -1.0693 0 -775 34.566)" gradientUnits="userSpaceOnUse"><stop offset="0" stop-opacity=".502"/><stop offset="1" stop-opacity="0"/></radialGradient></defs><rect width="56.002" height="56.002" x="4" y="3.969" fill="url(#a)" rx="13.002" ry="13.002"/><path fill="#fff" d="M17.002 8.97c-4.432 0-8 3.569-8 8v30c0 4.432 3.568 8 8 8H47c4.432 0 8-3.568 8-8v-30c0-4.432-3.568-8-8-8zm0 1.03H45v3H12.969v1H45v3H13.568v1H45v35.26h1V18h3v32.193h1V18h3.97v28.969a6.956 6.956 0 0 1-6.97 6.97H17.002a6.956 6.956 0 0 1-6.97-6.97V16.971a6.956 6.956 0 0 1 6.97-6.97zM46 10h1a7 7 0 0 1 2 .293V13h-3zm4 .682A6.96 6.96 0 0 1 52.732 13H50zM46 14h3v3h-3zm4 0h3.303a7 7 0 0 1 .668 2.97V17H50z" opacity=".25"/><path d="M17.002 6A10.947 10.947 0 0 0 6.031 16.971v29.998A10.947 10.947 0 0 0 17.002 57.94H47a10.947 10.947 0 0 0 10.971-10.971V28.922C57.971 22 41.443 6 34.785 6H18.074z" opacity=".1"/><path fill="url(#b)" d="M17 7C11.46 7 7 11.46 7 17v30a9.976 9.976 0 0 0 8.969 9.947c.58-.02 1.133-.037 1.449-.006h.002q.586.06 1.19.059H47c5.54 0 10-4.46 10-10V29.348C57 23.991 40.035 7 34.678 7H18.61z"/><path d="m33.012 39-1.484 1.484-.54-.484h-2.57l1.762 1.83-.17.17H29v1.01L23.008 49h3.902l4.336-5h1.026l4.818 5h3.902L35 43.61V42h-1.789l-.129-.117 2.5-2.883z" opacity=".5"/><path fill="url(#c)" d="M18.364 20h24.732C43.851 20 47 23.245 47 24v16.455a1.36 1.36 0 0 1-1.363 1.364H18.364A1.36 1.36 0 0 1 17 40.455V21.364A1.36 1.36 0 0 1 18.364 20"/><path fill="url(#d)" d="M18.364 20h24.732C43.851 20 47 23.272 47 24.033v16.592c0 .762-.608 1.375-1.363 1.375H18.364A1.366 1.366 0 0 1 17 40.625v-19.25c0-.761.608-1.375 1.364-1.375"/><path fill="url(#e)" d="M16.914 47h30.171c.506 0 .914.402.914.902v.863c0 .5-.407.902-.914.902H16.914a.906.906 0 0 1-.914-.902v-.863c0-.5.408-.902.914-.902" opacity=".4"/><g fill="#fff"><path d="M20 23h24v3H20zm4 5h8v2h-8z" opacity=".35"/><circle cx="21" cy="29" r="1" opacity=".35"/><path d="M24 32h8v2h-8z" opacity=".35"/><circle cx="21" cy="33" r="1" opacity=".35"/><path d="M24 36h8v2h-8z" opacity=".35"/><circle cx="21" cy="37" r="1" opacity=".35"/></g><path fill="url(#f)" d="M34 28h10v10H34z"/><path fill="url(#g)" d="M34 28h10v10H34z"/><path fill="none" stroke="url(#h)" stroke-linecap="round" stroke-linejoin="round" d="m36 36.353 2-4 2.667 1.333 2-4"/><path fill="url(#i)" d="M34.678 7.028c3.571.893 4.464 6.25 5.357 9.82.866 3.466 2.838 5.844 8.036 7.144 3.57.892 7.142.571 8.928 5.357 0-.022-.004-.044-.004-.065C56.898 23.038 42.17 8.09 35.381 7.059a10 10 0 0 0-.702-.031z"/></svg>