<svg xmlns="http://www.w3.org/2000/svg" xmlns:xlink="http://www.w3.org/1999/xlink" width="64" height="64" viewBox="0 0 16.933 16.933"><defs><linearGradient id="c"><stop offset="0"/><stop offset="1" stop-opacity="0"/></linearGradient><linearGradient xlink:href="#a" id="l" x1="103.3" x2="103.3" y1="33.303" y2="61.044" gradientTransform="translate(-34.261 2.301)" gradientUnits="userSpaceOnUse"/><linearGradient id="a"><stop offset="0" stop-color="#eee"/><stop offset=".468" stop-color="#cacaca"/><stop offset=".505" stop-color="#b3b3b3"/><stop offset=".578" stop-color="#b0b0b0"/><stop offset="1" stop-color="#454646"/></linearGradient><linearGradient xlink:href="#b" id="m" x1="100.34" x2="100.34" y1="56.953" y2="35.604" gradientTransform="translate(-34.261 2.301)" gradientUnits="userSpaceOnUse"/><linearGradient id="b"><stop offset="0" stop-color="#484847"/><stop offset="1" stop-color="#828280"/></linearGradient><linearGradient xlink:href="#c" id="n" x1="98.436" x2="67.627" y1="50.305" y2="50.305" gradientUnits="userSpaceOnUse"/><linearGradient xlink:href="#d" id="o" x1="13.907" x2="20.312" y1="33.066" y2="57.654" gradientTransform="translate(-63.418 -9.884)" gradientUnits="userSpaceOnUse"/><linearGradient id="d"><stop offset="0" stop-color="#b32418" stop-opacity=".996"/><stop offset=".087" stop-color="#d42b1d"/><stop offset="1" stop-color="#c72318"/></linearGradient><linearGradient xlink:href="#e" id="p" x1="15.715" x2="19.408" y1="78.625" y2="42.829" gradientTransform="translate(-63.418 -9.884)" gradientUnits="userSpaceOnUse"/><linearGradient id="e"><stop offset="0" stop-color="#46120e"/><stop offset=".311" stop-color="#8b150d"/><stop offset="1" stop-color="#c72318" stop-opacity="0"/></linearGradient><linearGradient xlink:href="#f" id="q" x1="-31.29" x2="-11.868" y1="56.027" y2="56.027" gradientTransform="translate(-63.418 -9.884)" gradientUnits="userSpaceOnUse"/><linearGradient id="f"><stop offset="0" stop-color="#46120e"/><stop offset="1" stop-color="#46120e" stop-opacity="0"/></linearGradient><linearGradient id="g"><stop offset="0" stop-color="#b52117" stop-opacity=".118"/><stop offset=".82" stop-color="#b22117" stop-opacity="0"/><stop offset="1" stop-color="#841810"/></linearGradient><linearGradient xlink:href="#f" id="s" x1="-.155" x2="-26.654" y1="45.781" y2="42.527" gradientUnits="userSpaceOnUse"/><linearGradient id="t" x1="535.64" x2="535.64" y1="161.77" y2="200.46" gradientTransform="translate(-20.371 -.65)scale(.05408)" gradientUnits="userSpaceOnUse"><stop offset="0" stop-color="#0d0d0d"/><stop offset="1" stop-color="#2c2c2c" stop-opacity="0"/></linearGradient><linearGradient id="u" x1="353.61" x2="353.61" y1="34.476" y2="194.3" gradientTransform="translate(-10.717 -1.577)scale(.05408)" gradientUnits="userSpaceOnUse"><stop offset="0" stop-color="#c3c3c3" stop-opacity=".996"/><stop offset=".042" stop-color="#c4c4c4"/><stop offset=".085" stop-color="#999"/><stop offset=".139" stop-color="#9f9f9f"/><stop offset=".201" stop-color="#dedede"/><stop offset=".23" stop-color="#e9e9e9"/><stop offset=".275" stop-color="#bebdbd"/><stop offset=".309" stop-color="#888686"/><stop offset=".456" stop-color="#545353"/><stop offset=".535" stop-color="#4e4e4e"/><stop offset=".857" stop-color="#a1a1a1"/><stop offset="1" stop-color="#737373"/></linearGradient><linearGradient id="i" x1="17.751" x2="17.751" y1="4.29" y2="28.983" gradientTransform="translate(-.162 -.224)scale(.50938)" gradientUnits="userSpaceOnUse"><stop offset="0" stop-color="#bbbfc3"/><stop offset="1" stop-color="#f3f4f7" stop-opacity=".941"/></linearGradient><linearGradient id="h" x1="7.937" x2="7.937" y1="15.081" y2="1.852" gradientTransform="scale(.99998)" gradientUnits="userSpaceOnUse"><stop offset="0" stop-color="#a1abb2"/><stop offset="1" stop-color="#73858c"/></linearGradient><radialGradient xlink:href="#g" id="r" cx="3.512" cy="47.23" r="12.017" gradientTransform="matrix(2.5424 0 0 1.4791 -60.842 -28.344)" gradientUnits="userSpaceOnUse"/><radialGradient id="k" cx="16.993" cy="1.557" r="19.382" gradientTransform="matrix(.37938 0 0 .16095 1.834 1.714)" gradientUnits="userSpaceOnUse"><stop offset="0" stop-color="#c12b2b"/><stop offset="1" stop-color="#c12b2b" stop-opacity="0"/></radialGradient><radialGradient id="j" cx="16.994" cy="4.308" r="6.579" gradientTransform="matrix(.50938 0 0 1.241 -.162 -3.377)" gradientUnits="userSpaceOnUse"><stop offset="0"/><stop offset="1" stop-opacity="0"/></radialGradient></defs><rect width="14.817" height="14.817" x="1.058" y="1.05" fill="url(#h)" rx="3.44" ry="3.44"/><rect width="13.404" height="13.389" x="1.765" y="1.772" fill="url(#i)" rx="2.836" ry="2.836"/><path fill="#fff" stroke="#fff" stroke-linecap="round" stroke-linejoin="round" stroke-opacity=".355" stroke-width=".324" d="M8.472 3.406c-.08 0-.16.031-.226.094L5.949 5.7c-.253.243-.178.47 0 .475h.905v5.02h-.905c-.178.005-.253.231 0 .474l2.297 2.2a.33.33 0 0 0 .226.094c.08 0 .16-.031.225-.094l2.297-2.2c.253-.243.179-.47 0-.475h-.905v-5.02h.905c.179-.005.253-.231 0-.474L8.697 3.5a.33.33 0 0 0-.225-.094"/><path fill="#484848" d="M8.472 3.406c-.08 0-.16.031-.226.094L5.949 5.7c-.253.243-.178.47 0 .475h.905v5.02h-.905c-.178.005-.253.231 0 .474l2.297 2.2a.33.33 0 0 0 .226.094c.08 0 .16-.031.225-.094l2.297-2.2c.253-.243.179-.47 0-.475h-.905v-5.02h.905c.179-.005.253-.231 0-.474L8.697 3.5a.33.33 0 0 0-.225-.094"/><path fill="url(#j)" d="M5.165 1.058a3.351 8.165 0 0 0-.022.912 3.351 8.165 0 0 0 3.351 8.165 3.351 8.165 0 0 0 3.351-8.165 3.351 8.165 0 0 0-.024-.911z" opacity=".735"/><path fill-opacity=".128" d="M8.472 3.406c-.08 0-.16.031-.226.094L5.949 5.7c-.253.243-.179.47 0 .475h.905v5.02h-.905c-.179.005-.253.231 0 .474l2.297 2.2a.33.33 0 0 0 .226.094c.08 0 .16-.031.225-.094l2.297-2.2c.253-.243.179-.47 0-.475h-.905v-5.02h.905c.179-.005.253-.231 0-.474L8.697 3.5a.33.33 0 0 0-.225-.094m0 .44 2.008 1.923h-.39a.406.406 0 0 0-.406.406v5.02a.406.406 0 0 0 .405.405h.39l-2.007 1.924L6.463 11.6h.39a.406.406 0 0 0 .406-.406v-5.02a.406.406 0 0 0-.405-.405h-.39z" color="#000" style="font-feature-settings:normal;font-variant-alternates:normal;font-variant-caps:normal;font-variant-ligatures:normal;font-variant-numeric:normal;font-variant-position:normal;isolation:auto;mix-blend-mode:normal;shape-padding:0;text-decoration-color:#000;text-decoration-line:none;text-decoration-style:solid;text-indent:0;text-orientation:mixed;text-transform:none;white-space:normal"/><path fill="url(#k)" d="M4.344 1.058a3.28 3.28 0 0 0-3.286 3.286v.752a12.512 3.162 0 0 0 7.274.593 12.512 3.162 0 0 0 7.543-.643v-.702a3.28 3.28 0 0 0-3.285-3.285z" opacity=".747"/><path fill="url(#l)" stroke="url(#m)" stroke-linecap="round" stroke-linejoin="round" d="m58.934 41.056 15.98-7.042c.98-.432 1.918.906 1.918 2.031v25.46c0 1.125-.926 2.434-1.918 2.03l-15.98-6.5c-.992-.403-1.918-.905-1.918-2.03V43.086c0-1.125.937-1.599 1.918-2.031z" transform="translate(-.806 -.678)scale(.05408)"/><path fill="url(#n)" d="m58.934 41.056 15.98-7.042c.98-.432 1.918.906 1.918 2.031v25.46c0 1.125-.926 2.434-1.918 2.03l-15.98-6.5c-.992-.403-1.918-.905-1.918-2.03V43.086c0-1.125.937-1.599 1.918-2.031z" opacity=".654" transform="translate(-.806 -.678)scale(.05408)"/><path fill="#c72418" d="M6.572 3.446a12.6 12.6 0 0 1-3.203-.579c-.14-.046-.266-.11-.292-.285a8 8 0 0 1-.007-1.35c.017-.134.162-.186.284-.225C4.436.675 5.556.44 6.793.417z"/><path fill="url(#o)" d="M-16.643 74.14c-19.733-.845-39.643-4.586-59.227-10.692-2.583-.858-4.925-2.05-5.396-5.288-.776-7.677-.796-17.273-.128-24.95.32-2.486 2.984-3.45 5.253-4.166 20-6.145 40.722-10.484 63.589-10.897z" transform="translate(7.472 -.564)scale(.05408)"/><path fill="url(#p)" d="M-16.643 74.14c-19.733-.845-39.643-4.586-59.227-10.692-2.583-.858-4.925-2.05-5.396-5.288-.776-7.677-.796-17.273-.128-24.95.32-2.486 2.984-3.45 5.253-4.166 20-6.145 40.722-10.484 63.589-10.897z" transform="translate(7.472 -.564)scale(.05408)"/><path fill="url(#q)" d="M-16.643 74.14c-19.733-.845-39.643-4.586-59.227-10.692-2.583-.858-4.925-2.05-5.396-5.288-.776-7.677-.796-17.273-.128-24.95.32-2.486 2.984-3.45 5.253-4.166 20-6.145 40.722-10.484 63.589-10.897z" transform="translate(7.472 -.564)scale(.05408)"/><path fill="url(#r)" d="M-67.578 26.548q-4.305 1.189-8.563 2.496c-2.268.716-4.932 1.68-5.251 4.166-.337 3.863-.498 8.21-.477 12.555a12 12 0 0 0 6.434 1.883 12.017 12.017 0 0 0 12.018-12.016 12.02 12.02 0 0 0-4.16-9.084z" opacity=".392" transform="translate(7.472 -.564)scale(.05408)"/><path fill="url(#s)" d="M-16.643 74.14c-19.733-.845-39.643-4.586-59.227-10.692-2.583-.858-4.925-2.05-5.396-5.288-.776-7.677-.796-17.273-.128-24.95.32-2.486 2.984-3.45 5.253-4.166 20-6.145 40.722-10.484 63.589-10.897z" opacity=".315" transform="translate(7.472 -.564)scale(.05408)"/><path fill="url(#l)" stroke="url(#m)" stroke-linecap="round" stroke-linejoin="round" d="m58.934 41.056 15.98-7.042c.98-.432 1.918.906 1.918 2.031v25.46c0 1.125-.926 2.434-1.918 2.03l-15.98-6.5c-.992-.403-1.918-.905-1.918-2.03V43.086c0-1.125.937-1.599 1.918-2.031z" transform="matrix(-.05408 0 0 .05408 17.689 -.678)"/><path fill="url(#n)" d="m58.934 41.056 15.98-7.042c.98-.432 1.918.906 1.918 2.031v25.46c0 1.125-.926 2.434-1.918 2.03l-15.98-6.5c-.992-.403-1.918-.905-1.918-2.03V43.086c0-1.125.937-1.599 1.918-2.031z" opacity=".654" transform="matrix(-.05408 0 0 .05408 17.689 -.678)"/><path fill="#c72418" d="M10.311 3.446a12.6 12.6 0 0 0 3.203-.579c.14-.046.267-.11.292-.285.042-.416.043-.935.007-1.35-.017-.134-.161-.186-.284-.225C12.447.675 11.327.44 10.09.417z"/><path fill="url(#o)" d="M-16.643 74.14c-19.733-.845-39.643-4.586-59.227-10.692-2.583-.858-4.925-2.05-5.396-5.288-.776-7.677-.796-17.273-.128-24.95.32-2.486 2.984-3.45 5.253-4.166 20-6.145 40.722-10.484 63.589-10.897z" transform="matrix(-.05408 0 0 .05408 9.411 -.564)"/><path fill="url(#p)" d="M-16.643 74.14c-19.733-.845-39.643-4.586-59.227-10.692-2.583-.858-4.925-2.05-5.396-5.288-.776-7.677-.796-17.273-.128-24.95.32-2.486 2.984-3.45 5.253-4.166 20-6.145 40.722-10.484 63.589-10.897z" transform="matrix(-.05408 0 0 .05408 9.411 -.564)"/><path fill="url(#q)" d="M-16.643 74.14c-19.733-.845-39.643-4.586-59.227-10.692-2.583-.858-4.925-2.05-5.396-5.288-.776-7.677-.796-17.273-.128-24.95.32-2.486 2.984-3.45 5.253-4.166 20-6.145 40.722-10.484 63.589-10.897z" transform="matrix(-.05408 0 0 .05408 9.411 -.564)"/><path fill="url(#r)" d="M-67.578 26.548q-4.305 1.189-8.563 2.496c-2.268.716-4.932 1.68-5.251 4.166-.337 3.863-.498 8.21-.477 12.555a12 12 0 0 0 6.434 1.883 12.017 12.017 0 0 0 12.018-12.016 12.02 12.02 0 0 0-4.16-9.084z" opacity=".392" transform="matrix(-.05408 0 0 .05408 9.411 -.564)"/><path fill="url(#s)" d="M-16.643 74.14c-19.733-.845-39.643-4.586-59.227-10.692-2.583-.858-4.925-2.05-5.396-5.288-.776-7.677-.796-17.273-.128-24.95.32-2.486 2.984-3.45 5.253-4.166 20-6.145 40.722-10.484 63.589-10.897z" opacity=".315" transform="matrix(-.05408 0 0 .05408 9.411 -.564)"/><path fill="url(#t)" d="M6.854 7.797v3.397h-.905c-.179.006-.253.232 0 .475l2.297 2.2a.33.33 0 0 0 .226.094c.08 0 .16-.031.225-.094l2.297-2.2c.253-.243.179-.47 0-.475h-.905V7.797z"/><path fill="url(#u)" d="M6.877.261c-.83.281-.22 4.527-.056 7.395v1.053c0 .115.093.207.208.207h2.82a.207.207 0 0 0 .208-.207v-.885c-.02-1.525.926-7.299-.11-7.563z"/></svg>