<svg xmlns="http://www.w3.org/2000/svg" width="64" height="64"><defs><linearGradient id="a" x1="7.937" x2="7.937" y1="15.081" y2="1.852" gradientTransform="scale(3.7796)" gradientUnits="userSpaceOnUse"><stop offset="0" stop-color="#363636"/><stop offset="1" stop-color="#6c6c6c"/></linearGradient></defs><rect width="56.002" height="56.002" x="4" y="3.969" fill="url(#a)" rx="13.002" ry="13.002"/><path fill="#fff" d="M17.002 6a10.94 10.94 0 0 0-10.555 8h17.678V8.375h-2.813V6zM29.75 6v7.254a3.938 3.938 0 0 0 0 7.117v8.816l6.188 6.188h1.687V36.5h9v-1.125h11.346V32H46.625v-1.125h-9V32h-.563l-3.937-3.938v-7.69a3.938 3.938 0 0 0 0-7.118V6zm7.875 0v8h9v-1.125h10.553A10.94 10.94 0 0 0 47 6zm-22.5 13.625v1.125H6.031v3.375h9.094v1.125h9v-5.625zm22.5 0v5.625h9v-1.125h11.346V20.75H46.625v-1.125zM9.846 30.313a3.375 3.375 0 1 0 2.924 5.065h3.264V36.5h9v-1.125h.779l3.937 3.937V57.94h3.375V38.19l-6.187-6.188h-1.905v-1.125h-9v1.125H12.77a3.37 3.37 0 0 0-2.924-1.687zm39.029 8.44-1.125 1.125h-8.438l-1.687 1.685V57.94H47a10.947 10.947 0 0 0 10.971-10.971v-8.217h-9.096zM11.187 41l-1.125 1.125H6.031v4.843A10.947 10.947 0 0 0 17 57.94h8.247V43.813l-1.686-1.687h-7.875L14.562 41z" opacity=".35"/></svg>