<svg xmlns="http://www.w3.org/2000/svg" xmlns:xlink="http://www.w3.org/1999/xlink" width="64" height="64"><defs><linearGradient id="a" x1="399.57" x2="399.57" y1="545.8" y2="517.8" gradientTransform="translate(-826.36 -1107.5)scale(2.1429)" gradientUnits="userSpaceOnUse"><stop offset="0" stop-color="#3889e9"/><stop offset="1" stop-color="#5ea5fb"/></linearGradient><linearGradient xlink:href="#a" id="e" x1="47" x2="47" y1="17" y2="19" gradientTransform="translate(2 -2)" gradientUnits="userSpaceOnUse"/><linearGradient id="d" x1="47" x2="47" y1="17" y2="19" gradientTransform="translate(-21.899 -11.153)scale(1.5085)" gradientUnits="userSpaceOnUse"><stop offset="0" stop-color="#606060"/><stop offset=".02" stop-color="#414141"/><stop offset="1" stop-color="#1e1e1e"/></linearGradient><linearGradient id="b" x1="7.937" x2="7.937" y1="15.081" y2="1.852" gradientTransform="scale(3.7796)" gradientUnits="userSpaceOnUse"><stop offset="0" stop-color="#767574"/><stop offset="1" stop-color="#d1e7ee"/></linearGradient><linearGradient id="c" x1="7.937" x2="7.937" y1="5.861" y2="1.852" gradientTransform="scale(3.7796)" gradientUnits="userSpaceOnUse"><stop offset="0" stop-color="#bbb"/><stop offset="1" stop-color="#ececec"/></linearGradient></defs><rect width="56.002" height="56.002" x="4" y="3.969" fill="url(#b)" rx="13.002" ry="13.002"/><rect width="51.996" height="51.939" x="6.002" y="6" fill="#030000" rx="11" ry="11"/><rect width="46.002" height="46.002" x="9" y="9" fill="#262626" rx="8" ry="8"/><path fill="#fff" d="M15 34.167v-2.151L22 36v2.031l-7 3.985v-2.152l5.27-2.84z"/><rect width="8" height="2" x="25" y="43" fill="#fff" rx="0" ry="0"/><path fill="url(#c)" d="M17.002 3.969A12.973 12.973 0 0 0 4 16.97V19h56.002v-2.03A12.973 12.973 0 0 0 47 3.969z"/><circle cx="48.999" cy="16" r="1.508" fill="url(#d)" fill-rule="evenodd" style="paint-order:fill markers stroke"/><circle cx="49" cy="16" r="1" fill="url(#e)" fill-rule="evenodd" style="paint-order:fill markers stroke"/></svg>