<svg xmlns="http://www.w3.org/2000/svg" xmlns:xlink="http://www.w3.org/1999/xlink" width="64" height="64"><defs><linearGradient id="e" x1="542.64" x2="543.25" y1="507.29" y2="463.62" gradientTransform="matrix(.72559 .0036 -.00389 .67325 -360.94 -279.18)" gradientUnits="userSpaceOnUse"><stop offset="0" stop-color="#132e51"/><stop offset="1" stop-color="#2767b9"/></linearGradient><linearGradient id="f" x1="516.86" x2="518.54" y1="446.71" y2="431.85" gradientTransform="translate(-282.23 -232.37)scale(.57339)" gradientUnits="userSpaceOnUse"><stop offset="0" stop-color="#eefefe"/><stop offset="1" stop-color="#d6fefe"/></linearGradient><linearGradient xlink:href="#a" id="b" x1="7.937" x2="7.937" y1="6.879" y2="1.058" gradientTransform="scale(3.7796)" gradientUnits="userSpaceOnUse"/><linearGradient id="a"><stop offset="0" stop-color="#fff"/><stop offset="1" stop-color="#ccf0ff"/></linearGradient><linearGradient id="c" x1="7.937" x2="7.937" y1="15.081" y2="1.852" gradientTransform="scale(3.7796)" gradientUnits="userSpaceOnUse"><stop offset="0" stop-color="#82cdfb"/><stop offset="1" stop-color="#319af6"/></linearGradient><linearGradient xlink:href="#a" id="d" x1="45" x2="57.008" y1="19" y2="6.992" gradientUnits="userSpaceOnUse"/></defs><path fill="url(#b)" d="M35 3.969c6 0 25.002 19.03 25.002 25.03V16.972A12.973 12.973 0 0 0 47 3.969z"/><path fill="#fff" d="M17.002 7a9.95 9.95 0 0 0-9.97 9.97v30a9.95 9.95 0 0 0 9.97 9.97H47a9.95 9.95 0 0 0 9.97-9.97v-30A9.95 9.95 0 0 0 47 7zm0 1H47c4.97 0 8.97 4 8.97 8.97v30c0 4.97-4 8.97-8.97 8.97H17.002c-4.97 0-8.97-4-8.97-8.97v-30c0-4.97 4-8.971 8.97-8.971z"/><g fill="#fff"><path d="M48.999 8.001H50v23h-1z"/><path d="M55.999 14v1h-23v-1z"/></g><path fill="url(#c)" d="M17.002 3.969c-1.35 0-2.652.203-3.875.582a13 13 0 0 0-6.166 4.14 12.93 12.93 0 0 0-2.894 6.946v.002Q4 16.295 4 16.97v27.463l10.684-2.987 3.46 2.11 8.028-2.38 7.913 2.433 5.703 1.146 4.379-1.297 5.394-1.15 10.441-7.18V29C60.002 23 41 3.97 35 3.97z"/><path fill="url(#d)" d="M35 4c4 1 5 7 6 11 .97 3.88 3.18 6.545 9 8 4 1 8 .64 10 6 0-.024-.004-.048-.004-.072-.11-6.996-16.605-23.738-24.209-24.893C35.522 4.015 35.26 4 35 4"/><path fill="url(#e)" fill-rule="evenodd" d="m60.002 35.129-10.441 7.18-5.394 1.15-4.38 1.297-5.703-1.147-7.912-2.431-8.029 2.379-3.459-2.11L4 44.434v2.535a12.96 12.96 0 0 0 3.8 9.203 13 13 0 0 0 5.327 3.217 13 13 0 0 0 2.54.515h.003q.656.067 1.332.067H47c1.35 0 2.652-.203 3.875-.582a13 13 0 0 0 8.545-8.545c.379-1.223.582-2.524.582-3.875z"/><circle cx="14.677" cy="19.939" r="4" fill="url(#f)" opacity=".811" transform="rotate(-7.007)"/></svg>