<svg xmlns="http://www.w3.org/2000/svg" width="64" height="64"><defs><linearGradient id="c" x1="31.401" x2="31.401" y1="51.978" y2="12.392" gradientUnits="userSpaceOnUse"><stop offset="0" stop-color="#d18217"/><stop offset="1" stop-color="#eaa13e"/></linearGradient><linearGradient id="a" x1="28.309" x2="28.309" y1="3.969" y2="60.005" gradientUnits="userSpaceOnUse"><stop offset="0" stop-color="#ffd923"/><stop offset="1" stop-color="#ffa423"/></linearGradient><filter id="b" width="1.15" height="1.1" x="-.075" y="-.05" color-interpolation-filters="sRGB"><feGaussianBlur stdDeviation=".875"/></filter><filter id="d" width="1.12" height="1.12" x="-.06" y="-.06" color-interpolation-filters="sRGB"><feGaussianBlur stdDeviation=".25"/></filter></defs><rect width="56.002" height="56.002" x="4" y="3.969" fill="url(#a)" rx="13.002" ry="13.002"/><rect width="28" height="42" x="18" y="11" filter="url(#b)" opacity=".15" ry="3" style="paint-order:stroke fill markers"/><rect width="28" height="42" x="18" y="11" fill="url(#c)" ry="3" style="paint-order:stroke fill markers"/><path d="M29 40c-1.108 0-2 .892-2 2v6c0 1.108.892 2 2 2h6c1.108 0 2-.892 2-2v-6c0-1.108-.892-2-2-2zm5 1a1 1 0 0 1 1 1 1 1 0 0 1-1 1 1 1 0 0 1-1-1 1 1 0 0 1 1-1m-3 2a2 2 0 0 1 2 2 2 2 0 0 1-2 2 2 2 0 0 1-2-2 2 2 0 0 1 2-2" filter="url(#d)" opacity=".15" style="paint-order:stroke fill markers"/><rect width="8" height="6" x="28" y="41" fill="#cc8e22" ry="0" style="paint-order:stroke fill markers"/><path fill="#ffb22b" d="M29 40c-1.108 0-2 .892-2 2v6c0 1.108.892 2 2 2h6c1.108 0 2-.892 2-2v-6c0-1.108-.892-2-2-2zm5 1a1 1 0 0 1 1 1 1 1 0 0 1-1 1 1 1 0 0 1-1-1 1 1 0 0 1 1-1m-3 2a2 2 0 0 1 2 2 2 2 0 0 1-2 2 2 2 0 0 1-2-2 2 2 0 0 1 2-2" style="paint-order:stroke fill markers"/><path fill="#fff" d="M21 14v20h22V14zm2 2h18v16H23z"/><path fill="#ccc" d="M31 14v18h-4v5h10v-5h-4V14z"/></svg>