<svg xmlns="http://www.w3.org/2000/svg" xmlns:xlink="http://www.w3.org/1999/xlink" width="64" height="64"><defs><linearGradient id="a"><stop offset="0" stop-color="#fff"/><stop offset="1" stop-color="#d8f5fe"/></linearGradient><linearGradient xlink:href="#a" id="d" x1="-366.02" x2="-366.02" y1="1088.5" y2="1141.5" gradientTransform="translate(251.76 -646.22)scale(.60828)" gradientUnits="userSpaceOnUse"/><linearGradient xlink:href="#a" id="c" x1="-366.02" x2="-366.02" y1="1088.5" y2="1141.5" gradientTransform="translate(218.38 -513.31)scale(.49182)" gradientUnits="userSpaceOnUse"/><linearGradient id="b" x1="7.937" x2="7.937" y1="15.081" y2="1.852" gradientTransform="scale(3.7796)" gradientUnits="userSpaceOnUse"><stop offset="0" stop-color="#0e71de"/><stop offset="1" stop-color="#25c9ff"/></linearGradient></defs><rect width="56.002" height="56.002" x="4" y="3.969" fill="url(#b)" rx="13.002" ry="13.002"/><circle cx="32.02" cy="32.044" r="30.001" fill="none"/><circle cx="32.02" cy="32.044" r="30.001" fill="none"/><g fill-rule="evenodd"><path fill="url(#c)" d="M52.515 47.999c0-4.652-7.893-7.025-11.042-7.868 0 0 .13-2.609.435-3.565.304-.956.347-2.043.478-2.348.13-.304 1.667-1.695 1.754-2.999-.02-.778-.174-.963-.559-.963v-4.042c0-2.182-3.181-4.088-5.27-4.088s-5.27 1.906-5.27 4.088v4.042c-.384 0-.537.185-.558.963.087 1.304 1.624 2.695 1.754 3 .13.304.174 1.39.478 2.347.305.956.435 3.565.435 3.565-3.148.843-11.042 3.216-11.042 7.868z" opacity=".5"/><path fill="url(#d)" d="M46.616 47.999c0-5.753-9.762-8.688-13.656-9.732 0 0 .161-3.225.538-4.408.376-1.183.43-2.527.591-2.904s2.062-2.096 2.17-3.71c-.026-.962-.216-1.19-.691-1.19v-4.999c0-2.7-3.935-5.056-6.518-5.056s-6.518 2.357-6.518 5.056v5c-.475 0-.665.227-.691 1.19.107 1.613 2.008 3.333 2.17 3.71.16.376.215 1.72.591 2.903s.538 4.408.538 4.408c-3.894 1.044-13.656 3.98-13.656 9.732z"/></g></svg>