<svg xmlns="http://www.w3.org/2000/svg" width="64" height="64" viewBox="0 0 64 64"><defs><linearGradient id="a" x1=".5" x2=".521" y1="1" y2=".004"><stop offset="0%" style="stop-color:rgba(1,1,1,.1)"/><stop offset="100%" style="stop-color:rgba(255,255,255,.1)"/></linearGradient></defs><path d="M16 4h32c6.623 0 12 5.377 12 12v32c0 6.623-5.377 12-12 12H16C9.377 60 4 54.623 4 48V16C4 9.377 9.377 4 16 4" style="stroke:none;fill:#000;stroke-miterlimit:10"/><path d="M16 4h32c6.623 0 12 5.377 12 12v32c0 6.623-5.377 12-12 12H16C9.377 60 4 54.623 4 48V16C4 9.377 9.377 4 16 4" style="stroke:none;fill:#fff;stroke-miterlimit:10;opacity:.2"/><path d="M16 4h32c6.623 0 12 5.377 12 12v32c0 6.623-5.377 12-12 12H16C9.377 60 4 54.623 4 48V16C4 9.377 9.377 4 16 4" style="stroke:none;fill:url(#a);stroke-miterlimit:10"/><path fill="#fff" fill-rule="evenodd" d="M37 28.667v4.166h4.167v-4.166zm-13.333-7.5 3.333 5h-6.667L19.5 29.5h-3.75l1.25-5h-2.5l-2.5 10h6l-1 3.333h5.833l-4.166 5h5l3.333-5h10l3.333 5h5l-4.166-5H47L46 34.5h6l-2.5-10H47l1.25 5H44.5l-.833-3.333H37l3.333-5h-2.5l-3.333 5h-5l-3.333-5zm-.834 7.5v4.166H27v-4.166z" opacity=".9"/></svg>