<svg xmlns="http://www.w3.org/2000/svg" width="64" height="64" viewBox="0 0 16.933 16.933"><defs><linearGradient id="b" x1="24" x2="24" y1="40" y2="-3" gradientTransform="matrix(1.4118 0 0 1.3939 -1.882 -.758)" gradientUnits="userSpaceOnUse"><stop offset="0" stop-color="#f39c1f"/><stop offset="1" stop-color="#ebedee"/></linearGradient><linearGradient id="c" x1="24" x2="24" y1="29" y2="-20" gradientTransform="matrix(1.4118 0 0 1.3939 -1.882 -.758)" gradientUnits="userSpaceOnUse"><stop offset="0" stop-color="#da4453"/><stop offset="1" stop-color="#edeff0"/></linearGradient><linearGradient id="d" x1="24" x2="24" y1="20" y2="-20" gradientTransform="matrix(1.4118 0 0 1.3939 -1.882 -.758)" gradientUnits="userSpaceOnUse"><stop offset="0" stop-color="#1d99f3"/><stop offset="1" stop-color="#edeff0"/></linearGradient><linearGradient id="a" x1="7.937" x2="7.937" y1="15.081" y2="1.852" gradientTransform="scale(.99998)" gradientUnits="userSpaceOnUse"><stop offset="0" stop-color="#f1efeb"/><stop offset="1" stop-color="#fdfcfc"/></linearGradient></defs><rect width="14.817" height="14.817" x="1.058" y="1.05" fill="url(#a)" rx="3.44" ry="3.44"/><rect width="12.7" height="12.7" x="2.117" y="2.117" opacity=".15" rx="2.381" ry="2.485"/><g stroke-width="1.403"><path fill="url(#b)" d="M17 9a8.98 8.98 0 0 0-9 9v28c0 4.986 4.014 9 9 9h29.117L56 45.242V18c0-4.986-4.014-9-9-9z" style="paint-order:normal" transform="translate(0 .265)scale(.26458)"/><path fill="#f67400" d="m12.202 14.552 2.615-2.582-1.46-.025c-.622-.01-1.108.494-1.121 1.107z" style="paint-order:normal" transform="translate(0 .265)"/><path fill="url(#c)" d="M17 9a8.98 8.98 0 0 0-9 9v23.061c0 2.317 1.888 4.182 4.234 4.182h33.883L56 35.485V18c0-4.986-4.014-9-9-9z" style="paint-order:normal" transform="translate(0 .265)scale(.26458)"/><path fill="url(#d)" d="M17 7a8.98 8.98 0 0 0-9 9v15.303c0 2.317 1.888 4.182 4.234 4.182h33.883L56 25.727V16c0-4.986-4.014-9-9-9z" style="paint-order:normal" transform="translate(0 .265)scale(.26458)"/><path fill="#2980b9" d="m12.185 9.401 2.631-2.594-1.485-.013c-.62-.005-1.135.494-1.12 1.107-.006.619-.026 1.5-.026 1.5" style="paint-order:normal" transform="translate(0 .265)"/><path fill="#c0392b" d="m12.202 11.97 2.615-2.582-1.46-.025c-.622-.01-1.108.494-1.121 1.107z" style="paint-order:normal" transform="translate(0 .265)"/></g></svg>