<svg xmlns="http://www.w3.org/2000/svg" width="64" height="64"><defs><linearGradient id="a" x1="7.937" x2="7.937" y1="15.081" y2="1.852" gradientTransform="scale(3.7796)" gradientUnits="userSpaceOnUse"><stop offset="0" stop-color="#427fff"/><stop offset="1" stop-color="#59e3ff"/></linearGradient></defs><rect width="56.002" height="56.002" x="4" y="3.969" fill="url(#a)" rx="13.002" ry="13.002"/><path fill="#fff" d="M32 16c-8.825 0-16 7.175-16 16s7.175 16 16 16h.002a16 16 0 0 0 11.816-5.25 1 1 0 0 0-.068-1.412 1 1 0 0 0-1.413.068A14 14 0 0 1 32 46c-7.743 0-14-6.256-14-14s6.257-14 14-14a13.985 13.985 0 0 1 14 13.998V33.5c0 1.402-1.097 2.5-2.5 2.5S41 34.902 41 33.5V32c0-4.959-4.04-9-9-9s-9 4.041-9 9 4.042 9 9 9c3.428 0 6.417-1.931 7.936-4.762A4.5 4.5 0 0 0 43.499 38c2.476 0 4.5-2.024 4.5-4.5V32c0-8.825-7.175-16-16-16zm0 9c3.878 0 7 3.122 7 7s-3.122 7-7 7-7-3.122-7-7 3.122-7 7-7" color="#000" style="-inkscape-stroke:none;paint-order:markers fill stroke"/></svg>