<svg xmlns="http://www.w3.org/2000/svg" width="64" height="64" viewBox="0 0 16.933 16.933"><defs><linearGradient id="a" x1="7.937" x2="7.937" y1="15.081" y2="1.852" gradientUnits="userSpaceOnUse"><stop offset="0" stop-color="#7a1ea9"/><stop offset="1" stop-color="#a840de"/></linearGradient><linearGradient id="b" x1="35" x2="35" y1="10" y2="55" gradientUnits="userSpaceOnUse"><stop offset="0" stop-color="#fff"/><stop offset="1" stop-color="#e3c3f4"/></linearGradient></defs><rect width="14.817" height="14.817" x="1.058" y="1.05" fill="url(#a)" rx="3.44" ry="3.44"/><path fill="url(#b)" d="M32 8.002v4c11.069 0 19.998 8.929 19.998 19.998S43.069 51.998 32 51.998v4c13.231 0 23.998-10.767 23.998-23.998S45.231 8.002 32 8.002m0 7.994v4A11.97 11.97 0 0 1 43.996 32 11.963 11.963 0 0 1 32 43.996v4c8.813 0 15.996-7.183 15.996-15.996S40.813 15.996 32 15.996m0 8.002v16a8 8 0 0 0 7.998-8 8 8 0 0 0-7.998-8" transform="scale(.26458)"/></svg>