<svg xmlns="http://www.w3.org/2000/svg" width="64" height="64"><defs><linearGradient id="a" x1="13.926" x2="17.337" y1="28.497" y2="21.601" gradientTransform="matrix(1.7956 0 0 1.7609 -4.98 -13.299)" gradientUnits="userSpaceOnUse"><stop offset="0" stop-color="#462e7a"/><stop offset="1" stop-color="#462e7a" stop-opacity="0"/></linearGradient></defs><rect width="56.003" height="56.003" x="3.999" y="3.969" fill="#3c1d66" rx="13.003" ry="13.003"/><circle cx="45.347" cy="20.339" r="9.134" fill="#3a3670"/><path fill="#e6e6e6" d="M52.35 14.478a9.1 9.1 0 0 1 .478 2.9 9.134 9.134 0 0 1-16.135 5.861 9.133 9.133 0 1 0 15.657-8.761"/><path fill="url(#a)" d="M4 13.01s34.864 1.838 45.207 32.548l-5.378 9.827-23.758-1.096L4 43.036z"/><path fill="#ac776d" d="M58.159 31.419c-5.962-.054-19.305 2.02-30.66 19.468l19.332 5.407 10.287-1.153a12.96 12.96 0 0 0 2.883-8.173V31.516a21 21 0 0 0-1.842-.097" opacity=".5"/><path fill="#b8ad99" d="M60 35.827c-7.786.91-20.477 5.362-31.534 22.963l29.005-4.12a12.95 12.95 0 0 0 2.53-7.7z" opacity=".5"/><path fill="#574a5c" d="M52.83 44.93c-15.005.173-27.906 6.104-27.906 6.104l-.145 5.867H55.4a12.96 12.96 0 0 0 4.602-9.932v-1.646a53 53 0 0 0-7.172-.393" style="mix-blend-mode:normal"/><path d="M4 34.736v12.232A12.973 12.973 0 0 0 17.002 59.97H47a12.97 12.97 0 0 0 12.385-9.03c-15.126 6.552-27.744-3.173-27.744-3.173C13.916 35.542 8.665 35.269 4 34.736"/><path fill="#fff" d="M13.359 7.783a.717.717 0 0 0-.717.719.717.717 0 0 0 .717.717.717.717 0 0 0 .717-.717.717.717 0 0 0-.717-.719m5.111 3.422a.986.986 0 0 0-.986.986.986.986 0 0 0 .986.987.986.986 0 0 0 .987-.987.986.986 0 0 0-.987-.986m-6.634 3.274a1.883 1.883 0 0 0-1.883 1.882 1.883 1.883 0 0 0 1.883 1.883 1.883 1.883 0 0 0 1.882-1.883 1.883 1.883 0 0 0-1.882-1.883m6.09 3.96a.717.717 0 0 0-.717.72.717.717 0 0 0 .716.716.717.717 0 0 0 .717-.717.717.717 0 0 0-.717-.719m-2.637 1.36a1.21 1.21 0 0 0-1.211 1.209 1.21 1.21 0 0 0 1.21 1.21 1.21 1.21 0 0 0 1.21-1.21 1.21 1.21 0 0 0-1.21-1.21m5.681.164a.717.717 0 0 0-.717.717.717.717 0 0 0 .717.716.717.717 0 0 0 .717-.716.717.717 0 0 0-.717-.717m8.02 5.926a1.21 1.21 0 0 0-1.211 1.209 1.21 1.21 0 0 0 1.21 1.21 1.21 1.21 0 0 0 1.21-1.21 1.21 1.21 0 0 0-1.21-1.21m-9.541 4.73a.717.717 0 0 0-.717.717.717.717 0 0 0 .717.717.717.717 0 0 0 .717-.717.717.717 0 0 0-.717-.717" opacity=".5"/></svg>