<svg xmlns="http://www.w3.org/2000/svg" width="64" height="64"><defs><linearGradient id="a" x1="7.937" x2="7.937" y1="15.081" y2="1.852" gradientTransform="translate(0 .032)scale(3.7795)" gradientUnits="userSpaceOnUse"><stop offset="0" stop-color="#007a00"/><stop offset="1" stop-color="#009e55"/></linearGradient></defs><rect width="56" height="56" x="4" y="4" fill="url(#a)" rx="13.002" ry="13.002"/><path fill="#fff" d="M17.002 6c-.254 0-.502.02-.752.037v17.525l9 9v11.25l-9 6.75v7.34c.25.017.498.037.752.037H18.5v-6.252l9-6.75v-13.5l-9-9V5.999h-1.498zm3.748 0v15.312l9 9v15.75l-9 6.75v5.127H23v-4.002l9-6.75v-18l-9-9V5.999h-2.25zm6.75 0v12.5l9 9H50V23H38.75L32 16.25V6zm10.125 0v8L41 17.375h3.197C45.937 15.968 48.59 15 51 15h6.785C56.861 9.87 52.404 6 47 6zM14 6.424a11 11 0 0 0-2.25.904v18.484l9 9v6.75l-9 6.75v8.299a11 11 0 0 0 2.25.904v-8.078l9-6.75v-9l-9-9zM36.5 32l-1.125 1.125V47.75l-9 6.75v3.44H41V54.5a2.25 2.25 0 0 1 2.25-2.25h13.373a10.9 10.9 0 0 0 1.172-3.375H51V44h6.97V32.135a10.1 10.1 0 0 1-7.407 3.24A10.1 10.1 0 0 1 43.016 32zM6.031 35.375v4.5h6.844v-4.5zm36.844 2.25H46.5v4.5h-5.625v-2.5a2 2 0 0 1 2-2m8.125 0h3.625a2 2 0 0 1 2 2v2.5H51zm-10.125 6.75H46.5v4.5h-3.625a2 2 0 0 1-2-2zM44 54c-.554 0-1 .446-1 1v2.94h4c3.397 0 6.42-1.53 8.43-3.94z" opacity=".2"/><circle cx="32.02" cy="32.044" r="30.001" fill="none"/><path fill="#f29100" fill-rule="evenodd" d="M50.562 29.75a4.5 4.5 0 1 0 0-9 4.5 4.5 0 0 0 0 9M12.874 42.125a4.5 4.5 0 1 0 0-9 4.5 4.5 0 0 0 0 9" clip-rule="evenodd"/><path fill="#fff" fill-rule="evenodd" d="M50.562 26.938a1.687 1.687 0 1 0 0-3.375 1.687 1.687 0 0 0 0 3.375M12.874 39.313a1.687 1.687 0 1 0 0-3.375 1.687 1.687 0 0 0 0 3.375" clip-rule="evenodd"/><path fill="#fff" fill-rule="evenodd" d="M50.562 26.938a1.687 1.687 0 1 0 0-3.375 1.687 1.687 0 0 0 0 3.375M12.874 39.313a1.687 1.687 0 1 0 0-3.375 1.687 1.687 0 0 0 0 3.375" clip-rule="evenodd"/><rect width="11" height="6" x="43" y="40" fill="#f29100" fill-rule="evenodd" rx="1" ry="1" style="paint-order:stroke fill markers"/><rect width="7" height="2" x="45" y="42" fill="#fff" fill-rule="evenodd" opacity=".35" rx="1" ry="1" style="paint-order:stroke fill markers"/></svg>