<svg xmlns="http://www.w3.org/2000/svg" xmlns:xlink="http://www.w3.org/1999/xlink" xml:space="preserve" width="64" height="64"><defs><linearGradient id="e"><stop offset="0" style="stop-color:#000;stop-opacity:1"/><stop offset="1" style="stop-color:#000;stop-opacity:0"/></linearGradient><linearGradient id="d"><stop offset="0" style="stop-color:#a1a1a1;stop-opacity:1"/><stop offset="1" style="stop-color:#676767;stop-opacity:1"/></linearGradient><linearGradient id="c" x1="7.937" x2="7.937" y1="15.081" y2="1.852" gradientTransform="scale(3.7796)" gradientUnits="userSpaceOnUse"><stop offset="0" stop-color="#f1efeb" style="stop-color:#a51d2d;stop-opacity:1"/><stop offset=".493" stop-color="#f1efeb" style="stop-color:#e29815;stop-opacity:1"/><stop offset="1" stop-color="#fdfcfc" style="stop-color:#edcca5;stop-opacity:1"/></linearGradient><linearGradient id="b"><stop offset="0" style="stop-color:#000;stop-opacity:1"/><stop offset="1" style="stop-color:#000;stop-opacity:0"/></linearGradient><linearGradient id="a"><stop offset="0" style="stop-color:#f9f9f9;stop-opacity:1"/><stop offset="1" style="stop-color:#dbdbdb;stop-opacity:1"/></linearGradient><linearGradient id="f" x1="7.937" x2="7.937" y1="12.574" y2="4.903" gradientTransform="scale(3.7796)" gradientUnits="userSpaceOnUse"><stop offset="0" stop-color="#fdfcfc" style="stop-color:#000;stop-opacity:1"/><stop offset="1" stop-color="#f1efeb" style="stop-color:#ebc6a1;stop-opacity:1"/></linearGradient><linearGradient xlink:href="#a" id="k" x1="89.633" x2="89.633" y1="73.352" y2="31.524" gradientUnits="userSpaceOnUse"/><linearGradient xlink:href="#b" id="l" x1="41.209" x2="41.209" y1="17.266" y2="33.145" gradientTransform="matrix(1.00042 0 0 .2509 -.005 12.633)" gradientUnits="userSpaceOnUse"/><linearGradient xlink:href="#c" id="i" x1="32.542" x2="32.542" y1="17.266" y2="22.141" gradientTransform="matrix(.83851 0 0 1 5.168 0)" gradientUnits="userSpaceOnUse"/><linearGradient xlink:href="#c" id="j" x1="32.542" x2="32.542" y1="17.266" y2="22.141" gradientTransform="matrix(.83851 0 0 1 5.168 -5.212)" gradientUnits="userSpaceOnUse"/><linearGradient xlink:href="#d" id="g" x1="32.001" x2="32.001" y1="3.969" y2="58.676" gradientUnits="userSpaceOnUse"/><linearGradient xlink:href="#e" id="m" x1="8.522" x2="11.415" y1="16.95" y2="16.95" gradientTransform="matrix(.77281 0 0 1 1.936 0)" gradientUnits="userSpaceOnUse"/><linearGradient xlink:href="#e" id="n" x1="8.522" x2="11.415" y1="16.95" y2="16.95" gradientTransform="matrix(.77281 0 0 1 -62.06 .02)" gradientUnits="userSpaceOnUse"/><filter id="h" width="1" height="1.632" x="0" y="-.316" style="color-interpolation-filters:sRGB"><feGaussianBlur stdDeviation="0.001 1.368"/></filter></defs><rect width="56.002" height="56.002" x="4" y="3.969" fill="url(#f)" rx="13.002" ry="13.002" style="fill:url(#g);fill-opacity:1"/><rect width="46.958" height="10.383" x="8.522" y="11.758" rx="0" ry="10.383" style="fill:#000;fill-opacity:1;stroke:none;stroke-width:.8;stroke-linecap:round;stroke-linejoin:round;filter:url(#h)"/><rect width="46.958" height="5.172" x="8.522" y="16.97" ry="0" style="fill:url(#i);fill-opacity:1;stroke:none;stroke-width:.732563;stroke-linecap:round;stroke-linejoin:round"/><rect width="46.958" height="5.172" x="8.522" y="11.758" ry="0" style="fill:url(#j);fill-opacity:1;stroke:none;stroke-width:.732563;stroke-linecap:round;stroke-linejoin:round"/><path fill="#7a7a7a" d="M11.415 26.475h41.17V62.77h-41.17Zm0 0"/><path fill="#f9f9f9" d="M26 32h76v83H26Zm0 0" style="fill:url(#k)" transform="translate(-2.67 -.069)scale(.54171)"/><path fill="#77767b" d="M17.374 57.082h8.667v2.166h-8.667Zm23.836 0h4.875v2.166h-4.876zm-13.543 0h11.917v2.166H27.667Zm0 0"/><path fill="#c0bfbc" d="M41.21 48.143h7.583v7.043H41.21Zm0-30.877h7.583v13H41.21Zm-8.668 25.46h7.584v12.46h-7.584Zm-8.667 2.709h7.584v9.75h-7.584Zm-8.668-9.209h7.584v15.168h-7.584Zm0 15.709h7.584v3.25h-7.584Zm0-34.669h7.584v18.418h-7.584Zm17.335 0h7.584v24.919h-7.584Zm8.668 13.543h7.583v16.793H41.21ZM23.875 17.266h7.584v4.875h-7.584Zm0 5.417h7.584v22.21h-7.584Zm0 0"/><rect width="41.17" height="9.505" x="11.415" y="16.97" ry="0" style="fill:url(#l);stroke:none;stroke-width:.420363;stroke-linecap:round;stroke-linejoin:round"/><rect width="2.236" height="10.383" x="8.522" y="11.758" ry="0" style="fill:url(#m);stroke:none;stroke-width:.717913;stroke-linecap:round;stroke-linejoin:round;opacity:.5"/><rect width="2.236" height="10.383" x="-55.474" y="11.778" ry="0" style="fill:url(#n);stroke:none;stroke-width:.717913;stroke-linecap:round;stroke-linejoin:round;opacity:.5" transform="scale(-1 1)"/></svg>