<svg xmlns="http://www.w3.org/2000/svg" xmlns:xlink="http://www.w3.org/1999/xlink" width="64" height="64"><defs><linearGradient id="d"><stop offset="0" stop-color="#444b58"/><stop offset="1" stop-color="#7a8599"/></linearGradient><linearGradient id="c"><stop offset="0" stop-color="#3c3a42"/><stop offset="1" stop-color="#58565e"/></linearGradient><linearGradient id="b"><stop offset="0" stop-color="#525252"/><stop offset="1" stop-color="#a6a6a6"/></linearGradient><linearGradient id="a"><stop offset="0" stop-color="#f6c317"/><stop offset="1" stop-color="#f9f06b"/></linearGradient><linearGradient xlink:href="#a" id="j" x1="17.001" x2="17.001" y1="44.666" y2="20.667" gradientTransform="translate(9.249 5.5)scale(.75002)" gradientUnits="userSpaceOnUse"/><linearGradient xlink:href="#a" id="n" x1="34.334" x2="34.334" y1="24.667" y2="6" gradientTransform="translate(9.249 5.5)scale(.75002)" gradientUnits="userSpaceOnUse"/><linearGradient xlink:href="#a" id="k" x1="49" x2="49" y1="36.666" y2="24.667" gradientTransform="translate(9.249 5.5)scale(.75002)" gradientUnits="userSpaceOnUse"/><linearGradient xlink:href="#b" id="g" x1="7.668" x2="23.668" y1="43.333" y2="43.333" gradientTransform="translate(9.249 5.5)scale(.75002)" gradientUnits="userSpaceOnUse"/><linearGradient xlink:href="#b" id="h" x1="3.999" x2="29.001" y1="52.999" y2="52.999" gradientTransform="translate(9.249 5.5)scale(.75002)" gradientUnits="userSpaceOnUse"/><linearGradient id="f" x1="3.999" x2="29.001" y1="56" y2="56" gradientTransform="translate(9.249 5.5)scale(.75002)" gradientUnits="userSpaceOnUse"><stop offset="0" stop-color="#262626"/><stop offset="1" stop-color="#7c7c7c"/></linearGradient><linearGradient xlink:href="#c" id="p" x1="17.001" x2="17.001" y1="39.333" y2="26" gradientTransform="translate(9.249 5.5)scale(.75002)" gradientUnits="userSpaceOnUse"/><linearGradient xlink:href="#c" id="o" x1="34.334" x2="34.334" y1="20.667" y2="10" gradientTransform="translate(9.249 5.5)scale(.75002)" gradientUnits="userSpaceOnUse"/><linearGradient xlink:href="#c" id="l" x1="49" x2="49" y1="35.333" y2="27.333" gradientTransform="translate(9.249 5.5)scale(.75002)" gradientUnits="userSpaceOnUse"/><linearGradient xlink:href="#d" id="i" x1="53.659" x2="59.997" y1="42.139" y2="42.139" gradientTransform="translate(9.249 5.5)scale(.75002)" gradientUnits="userSpaceOnUse"/><linearGradient xlink:href="#d" id="m" x1="38.866" x2="45.208" y1="42.139" y2="42.139" gradientTransform="translate(9.249 5.5)scale(.75002)" gradientUnits="userSpaceOnUse"/><linearGradient id="e" x1="7.937" x2="7.937" y1="15.081" y2="1.852" gradientTransform="scale(3.7796)" gradientUnits="userSpaceOnUse"><stop offset="0" stop-color="#f1efeb"/><stop offset="1" stop-color="#f7f6f4"/></linearGradient></defs><rect width="56.002" height="56.002" x="4" y="3.969" fill="url(#e)" rx="13.002" ry="13.002"/><path fill="none" stroke="#dcb500" stroke-width="3.999" d="M33.385 14.4 17.539 30.249l4.479 4.482L37.87 18.885z" font-weight="400" overflow="visible" style="font-feature-settings:normal;font-variant-alternates:normal;font-variant-caps:normal;font-variant-ligatures:normal;font-variant-numeric:normal;font-variant-position:normal;isolation:auto;mix-blend-mode:normal;shape-padding:0;text-decoration-color:#000;text-decoration-line:none;text-decoration-style:solid;text-indent:0;text-orientation:mixed;text-transform:none;white-space:normal"/><g stroke-width="3.78"><path fill="url(#f)" d="M12.248 46H31v3.002H12.248z"/><path fill="url(#g)" d="M16.937 28.125v12.501c0 1.726-1.4 3.124-3.124 3.124h-1.565v3H31v-3h-1.562a3.124 3.124 0 0 1-3.126-3.124V28.125z" font-weight="400" overflow="visible" style="font-feature-settings:normal;font-variant-alternates:normal;font-variant-caps:normal;font-variant-ligatures:normal;font-variant-numeric:normal;font-variant-position:normal;isolation:auto;mix-blend-mode:normal;shape-padding:0;text-decoration-color:#000;text-decoration-line:none;text-decoration-style:solid;text-indent:0;text-orientation:mixed;text-transform:none;white-space:normal"/><path fill="url(#h)" d="M12.248 43.749H31v3.002H12.248z"/></g><path fill="none" stroke="#424048" stroke-width="4" d="m39.983 35.514 6.339-6.339 6.341 6.339"/><g stroke-width="3.78"><path fill="url(#i)" d="M51.87 32.348a2.38 2.38 0 0 1 2.378 2.378v4.754l-2.378 2.382h-2.376v-7.136a2.377 2.377 0 0 1 2.376-2.378"/><path fill="none" d="M33.781 14.253 17.935 30.105l4.479 4.479 15.852-15.846z" font-weight="400" overflow="visible" style="font-feature-settings:normal;font-variant-alternates:normal;font-variant-caps:normal;font-variant-ligatures:normal;font-variant-numeric:normal;font-variant-position:normal;isolation:auto;mix-blend-mode:normal;shape-padding:0;text-decoration-color:#000;text-decoration-line:none;text-decoration-style:solid;text-indent:0;text-orientation:mixed;text-transform:none;white-space:normal"/><circle cx="22" cy="30.25" r="9" fill="url(#j)"/></g><g stroke-width="3.78"><circle cx="22" cy="30.25" r="2.999" fill="#1a1723"/><circle cx="35.125" cy="17.125" r="1.874" fill="#1a1723"/><circle cx="46.002" cy="28.75" r="4.499" fill="url(#k)"/><circle cx="46.002" cy="28.75" r="2.999" fill="url(#l)"/><circle cx="46.002" cy="28.75" r="1.5" fill="#1a1723"/><circle cx="51.87" cy="34.726" r=".794" fill="#2e3436"/><path fill="url(#m)" d="M40.774 32.348a2.38 2.38 0 0 0-2.376 2.378v4.754l2.376 2.382h2.381v-7.136a2.38 2.38 0 0 0-2.381-2.378"/><circle cx="-40.774" cy="34.726" r=".794" fill="#2e3436" transform="scale(-1 1)"/><circle cx="35.125" cy="17.125" r="7.127" fill="url(#n)"/><circle cx="35.125" cy="17.125" r="4.125" fill="url(#o)"/><circle cx="22" cy="30.25" r="5.25" fill="url(#p)"/></g><circle cx="22" cy="30.25" r="2.541" fill="#1a1723"/><circle cx="35.125" cy="17.125" r="1.991" fill="#1a1723"/></svg>