<svg xmlns="http://www.w3.org/2000/svg" xmlns:xlink="http://www.w3.org/1999/xlink" width="64" height="64" fill="none"><g clip-path="url(#a)"><path fill="url(#b)" d="M1.559 2h60.882v62.001H1.559z"/><path fill="url(#c)" d="M47 3.969H17.002C9.822 3.969 4 9.79 4 16.971v29.998c0 7.18 5.821 13.002 13.002 13.002H47c7.18 0 13.002-5.821 13.002-13.002V16.971c0-7.18-5.821-13.002-13.002-13.002"/><path stroke="#eee" stroke-linecap="round" stroke-linejoin="round" stroke-width="3" d="M10 43h10.704c1.653 0 2.979-1.347 3.125-2.994.844-9.47 5.5-14.403 9.124-16.843 1.87-1.26 3.82.477 3.44 2.7C34.4 37.559 36.81 43 43.262 43H55"/></g><defs><linearGradient id="c" x1="60" x2="4" y1="60" y2="4" gradientUnits="userSpaceOnUse"><stop stop-color="#5c7ac8"/><stop offset="1" stop-color="#1a3a8e"/></linearGradient><clipPath id="a"><path fill="#fff" d="M0 0h64v64H0z"/></clipPath><pattern id="b" width="1" height="1" patternContentUnits="objectBoundingBox"><use xlink:href="#d" transform="scale(.00398)"/></pattern></defs></svg>