<svg xmlns="http://www.w3.org/2000/svg" width="64" height="64"><defs><linearGradient id="a" x1="7.937" x2="7.937" y1="15.081" y2="1.852" gradientTransform="scale(3.7796)" gradientUnits="userSpaceOnUse"><stop offset="0" stop-color="#f1efeb"/><stop offset="1" stop-color="#fdfcfc"/></linearGradient><linearGradient id="b" x1="34.127" x2="34.127" y1="20.291" y2="50.413" gradientUnits="userSpaceOnUse"><stop offset="0" stop-color="#12aded"/><stop offset="1" stop-color="#3d6bb7"/></linearGradient><linearGradient id="c" x1="30.011" x2="30.011" y1="29.208" y2="35.277" gradientUnits="userSpaceOnUse"><stop offset="0" stop-color="#585659"/><stop offset="1" stop-color="#2e2d2e"/></linearGradient></defs><rect width="64" height="64" fill="none" rx="0" ry="0" style="paint-order:stroke fill markers"/><rect width="56.002" height="56.002" x="4" y="3.969" fill="url(#a)" rx="13.002" ry="13.002"/><path fill="#fff" d="M51.81 39.312s-.066-.404-.104-.4l-7.327.707a1.19 1.19 0 0 0-1.076 1.105L43.1 43.61l-5.668.404-.385-2.614a1.2 1.2 0 0 0-1.182-1.02h-7.733a1.2 1.2 0 0 0-1.18 1.02l-.387 2.614-5.668-.404-.2-2.885a1.19 1.19 0 0 0-1.078-1.105l-7.33-.707c-.038-.004-.065.4-.103.4l-.01 1.586 6.208 1.001.203 2.91a1.2 1.2 0 0 0 1.106 1.109l7.807.556a1.2 1.2 0 0 0 1.267-1.017l.397-2.69h5.67l.397 2.69a1.2 1.2 0 0 0 1.266 1.017l7.808-.556a1.2 1.2 0 0 0 1.106-1.108l.203-2.911 6.205-1.006z"/><path fill="url(#b)" d="M27.408 10.307c-2.062.458-4.101 1.096-6.014 2.059.044 1.688.152 3.307.373 4.95-.742.477-1.523.883-2.216 1.44-.705.543-1.425 1.061-2.063 1.696a40 40 0 0 0-4.016-2.334c-1.498 1.612-2.9 3.352-4.044 5.3a43 43 0 0 0 2.732 3.938h.027v11.957l.065.002 7.33.707a.79.79 0 0 1 .71.73l.227 3.237 6.393.455.441-2.986a.79.79 0 0 1 .78-.674h7.734c.391 0 .722.286.78.674l.44 2.986 6.393-.455.227-3.237a.79.79 0 0 1 .71-.73l7.327-.707q.034-.003.066-.002v-.955h.002V27.356h.028a43 43 0 0 0 2.73-3.938c-1.144-1.948-2.546-3.687-4.045-5.3-1.39.7-2.738 1.49-4.013 2.334-.638-.635-1.357-1.153-2.063-1.696-.693-.557-1.475-.963-2.217-1.44.221-1.643.33-3.262.373-4.95-1.912-.963-3.952-1.6-6.015-2.059a43 43 0 0 0-2.233 4.348 15 15 0 0 0-2.341-.188h-.032c-.784.01-1.563.058-2.341.188a43 43 0 0 0-2.235-4.348M12.174 40.893c.003.708.014 1.484.014 1.639 0 6.96 8.828 10.307 19.799 10.346h.027c10.97-.039 19.797-3.386 19.797-10.346 0-.158.008-.93.012-1.639l-6.588.637-.227 3.252a.79.79 0 0 1-.73.732l-7.807.557a.79.79 0 0 1-.838-.672l-.447-3.037h-6.371l-.447 3.037a.787.787 0 0 1-.836.672l-7.809-.557a.79.79 0 0 1-.73-.732l-.227-3.252z"/><path fill="#fff" d="M26.027 32.209a4.416 4.416 0 1 1-8.833.002 4.416 4.416 0 0 1 8.833-.002M32 37.029c-.785 0-1.422-.579-1.422-1.292V31.67c0-.713.637-1.292 1.422-1.292s1.423.579 1.423 1.292v4.066c0 .713-.638 1.292-1.423 1.292m5.973-4.819a4.417 4.417 0 1 0 8.833.002 4.417 4.417 0 0 0-8.833-.002"/><path fill="url(#c)" d="M22.033 29.539a2.933 2.933 0 0 0-2.934 2.932 2.933 2.933 0 0 0 5.866 0 2.93 2.93 0 0 0-2.932-2.932m19.934 0a2.932 2.932 0 1 0 .001 5.864 2.932 2.932 0 0 0-.001-5.864"/></svg>