<svg xmlns="http://www.w3.org/2000/svg" xmlns:xlink="http://www.w3.org/1999/xlink" xml:space="preserve" width="64" height="64"><defs><linearGradient id="d" x1="7.937" x2="7.937" y1="15.081" y2="1.852" gradientTransform="translate(0 .032)scale(3.7795)" gradientUnits="userSpaceOnUse"><stop offset="0" stop-color="#292929"/><stop offset="1" stop-color="#4d4d4d"/></linearGradient><linearGradient xlink:href="#a" id="e" x1="237.19" x2="237.07" y1="296.2" y2="304.08" gradientTransform="matrix(.1128 0 0 .1126 -12.267 -1.908)" gradientUnits="userSpaceOnUse"/><linearGradient id="a"><stop offset="0" stop-color="#001313"/><stop offset="1" stop-color="#001313" stop-opacity="0"/></linearGradient><linearGradient xlink:href="#b" id="f" x1="994.81" x2="982.34" y1="1533.3" y2="1556.8" gradientTransform="matrix(.21205 0 0 .21167 -182.98 -309.47)" gradientUnits="userSpaceOnUse"/><linearGradient id="b"><stop offset="0" stop-color="#020202"/><stop offset="1" stop-color="#020202" stop-opacity="0"/></linearGradient><linearGradient xlink:href="#b" id="g" x1="1022.5" x2="1018.6" y1="1582.4" y2="1575.6" gradientTransform="matrix(.2177 0 0 .20617 -190.19 -305.19)" gradientUnits="userSpaceOnUse"/><linearGradient xlink:href="#b" id="h" x1="940.43" x2="930.59" y1="1612.5" y2="1594.5" gradientTransform="matrix(.21205 0 0 .21167 -182.98 -309.47)" gradientUnits="userSpaceOnUse"/><linearGradient xlink:href="#b" id="i" x1="965.6" x2="951.66" y1="1571.4" y2="1571.3" gradientTransform="matrix(.21205 0 0 .21167 -182.98 -309.47)" gradientUnits="userSpaceOnUse"/><linearGradient xlink:href="#b" id="j" x1="946.23" x2="961.37" y1="1655.9" y2="1655.8" gradientTransform="matrix(.21205 0 0 .21167 -182.98 -309.47)" gradientUnits="userSpaceOnUse"/><linearGradient xlink:href="#a" id="k" x1="366.15" x2="350.92" y1="427.32" y2="419.64" gradientTransform="matrix(.1128 0 0 .1126 -18.136 -1.416)" gradientUnits="userSpaceOnUse"/><linearGradient xlink:href="#b" id="l" x1="936.34" x2="933.38" y1="1628.8" y2="1623" gradientTransform="matrix(.21205 0 0 .21167 -182.98 -309.47)" gradientUnits="userSpaceOnUse"/><linearGradient xlink:href="#b" id="m" x1="950.33" x2="941.97" y1="1618.6" y2="1645.8" gradientTransform="matrix(.21205 0 0 .21167 -182.98 -309.47)" gradientUnits="userSpaceOnUse"/><linearGradient xlink:href="#b" id="n" x1="1008.2" x2="1015.7" y1="1681.3" y2="1668.4" gradientTransform="matrix(.21205 0 0 .21167 -182.98 -309.47)" gradientUnits="userSpaceOnUse"/><linearGradient xlink:href="#c" id="o" x1="1148.3" x2="1145.4" y1="1585.5" y2="1630" gradientTransform="translate(-282.87 -491.67)scale(.34992)" gradientUnits="userSpaceOnUse"/><linearGradient id="c"><stop offset="0" stop-color="#008066" stop-opacity="0"/><stop offset="1" stop-color="#0fc"/></linearGradient><linearGradient xlink:href="#c" id="p" x1="1148.3" x2="1145.4" y1="1585.5" y2="1630" gradientTransform="translate(-211.15 -375.49)scale(.26565)" gradientUnits="userSpaceOnUse"/><linearGradient xlink:href="#c" id="q" x1="1148.3" x2="1145.4" y1="1585.5" y2="1630" gradientTransform="translate(-53.624 -195.03)scale(.13679)" gradientUnits="userSpaceOnUse"/><linearGradient xlink:href="#a" id="r" x1="348.05" x2="361.21" y1="194.78" y2="187.24" gradientTransform="matrix(.1128 0 0 .1126 -18.136 -1.416)" gradientUnits="userSpaceOnUse"/></defs><rect width="56" height="56" x="4" y="4" fill="url(#d)" rx="13.002" ry="13.002"/><path fill="#fff" d="M20.296 14.61h21.033l-5.324 9.206H24.599l-4.753 8.217 4.819 8.332h22.25l-5.46 9.44h-21.61L9.419 31.777 19.4 14.521z" style="stroke-width:2.5202"/><path fill="#0a8" d="m19.399 14.522 16.605 9.294 5.324-9.205zm5.265 25.844-4.82 9.44h21.61l5.46-9.44z" style="stroke-width:2.5202"/><path fill="#0cf" d="m19.399 14.522 16.605 9.294H24.598l-4.753 8.217 4.819 8.332-4.82 9.44L9.418 31.779z" style="stroke-width:2.5202"/><path fill="url(#e)" d="m9.418 31.779 10.427.254.292.499-10.391-.209z" style="fill:url(#e);stroke-width:2.5202"/><path fill="url(#f)" d="M36.005 23.816 19.4 14.522l-1.263 2.273 12.588 6.968z" style="fill:url(#f);stroke-width:2.5202"/><path fill="url(#g)" d="m24.515 23.729 16.913-9.534-5.466 8.966z" style="fill:url(#g);stroke-width:2.5202"/><path fill="#0a8" d="m24.598 23.816 16.731-9.206-5.324 9.206zm-15.18 7.963 15.18-7.963-4.754 8.217z" style="stroke-width:2.5202"/><path fill="url(#h)" d="m9.418 31.779 15.18-7.963-1.026-1.601-13.082 7.57z" style="fill:url(#h);stroke-width:2.5202"/><path fill="#0a8" d="M24.598 23.816 19.4 14.522l.445 17.51z" style="stroke-width:2.5202"/><path fill="#0cf" d="m24.664 40.366 16.79 9.44 5.46-9.44z" style="stroke-width:2.5202"/><path fill="url(#i)" d="m19.399 14.522-1.263 2.274.121 15.163 1.587.074z" style="fill:url(#i);stroke-width:2.5202"/><path fill="#0a8" d="m19.845 32.033-7.96 3.985 7.96 13.787z" style="stroke-width:2.5202"/><path fill="url(#j)" d="M19.845 32.033v17.771l1.95-3.8.151-10.418z" style="fill:url(#j);stroke-width:2.5202"/><path fill="url(#k)" d="m19.844 49.804-.751-1.35 4.836-9.323.735 1.233z" style="fill:url(#k);stroke-width:2.5202"/><path fill="url(#l)" d="m11.885 36.018 7.96-3.985-1.587-.074-6.906 3.294z" style="fill:url(#l);stroke-width:2.5202"/><path fill="#0a8" d="m11.885 36.018 12.779 4.347-4.819-8.332z" style="stroke-width:2.5202"/><path fill="url(#m)" d="m24.664 40.366-12.779-4.347 1.388 2.392 10.502 3.808z" style="fill:url(#m);stroke-width:2.5202"/><path fill="url(#n)" d="m24.664 40.366 16.79 9.44 2.012-3.576-10.806-5.956z" style="fill:url(#n);stroke-width:2.5202"/><g transform="matrix(.37044 0 0 .36976 7.25 8.687)"><circle cx="117.95" cy="75.441" r="9.689" fill="#0cf"/><circle cx="118.08" cy="75.341" r="9.689" fill="url(#o)" style="fill:url(#o)"/></g><g transform="matrix(.37044 0 0 .36976 8.881 7.871)"><circle cx="93.138" cy="55.045" r="7.356" fill="#0cf"/><circle cx="93.239" cy="54.969" r="7.356" fill="url(#p)" style="fill:url(#p)"/></g><g transform="matrix(.37044 0 0 .36976 8.957 8.938)"><circle cx="103.06" cy="26.657" r="3.788" fill="#0cf"/><circle cx="103.11" cy="26.618" r="3.788" fill="url(#q)" style="fill:url(#q)"/></g><path fill="url(#r)" d="M24.598 23.816 19.4 14.522l1.324-.019 4.886 8.686z" style="fill:url(#r);stroke-width:2.5202"/></svg>