<svg xmlns="http://www.w3.org/2000/svg" xml:space="preserve" id="svg2" width="64" height="64"><defs id="defs2"><linearGradient id="linearGradient862-3" x1="7.937" x2="7.937" y1="15.081" y2="1.852" gradientTransform="scale(3.7796)" gradientUnits="userSpaceOnUse"><stop id="stop1" offset="0" stop-color="#f1efeb"/><stop id="stop2" offset="1" stop-color="#fdfcfc"/></linearGradient><style id="style1">.c{fill:none;stroke:#000;stroke-linecap:round;stroke-linejoin:round}</style></defs><g id="g4"><rect id="rect2" width="56.002" height="56.002" x="4" y="3.969" fill="url(#linearGradient862-3)" stroke-width="3.78" rx="13.002" ry="13.002" style="fill:url(#linearGradient862-3)"/><g id="g8" style="fill:teal;fill-opacity:1;stroke:teal;stroke-opacity:1;stroke-width:.9999;stroke-dasharray:none" transform="translate(10.183 10.151)scale(.90909)"><circle id="circle1" cx="24" cy="24" r="11.6" class="c" style="fill:teal;fill-opacity:1;stroke:teal;stroke-opacity:1;stroke-width:.9999;stroke-dasharray:none"/><path id="path1" d="M3.3 18.1C2.8 20 2.5 22 2.5 24s.3 4 .8 5.8v0c.3 0 2.2-.6 2.3-2.6.1-.6 0-2.4 0-3.2-.1-.9.1-2.5 0-3.1-.2-2.1-2-2.8-2.3-2.8" class="c" style="fill:teal;fill-opacity:1;stroke:teal;stroke-opacity:1;stroke-width:.9999;stroke-dasharray:none"/><path id="path2" d="M44.7 18.2c.5 1.9.8 3.8.8 5.9 0 2-.3 4-.8 5.8v0c-.3 0-2.2-.6-2.3-2.6-.1-.6 0-2.4 0-3.2.1-.9-.1-2.5 0-3.1.2-2.2 2-2.8 2.3-2.8" class="c" style="fill:teal;fill-opacity:1;stroke:teal;stroke-opacity:1;stroke-width:.9999;stroke-dasharray:none"/><path id="path3" d="M29.8 3.3C28 2.8 26 2.5 24 2.5s-4 .3-5.8.8v0c0 .3.6 2.2 2.6 2.3.6.1 2.4 0 3.2 0 .9-.1 2.5.1 3.1 0 2.1-.2 2.7-2 2.7-2.3" class="c" style="fill:teal;fill-opacity:1;stroke:teal;stroke-opacity:1;stroke-width:.9999;stroke-dasharray:none"/><path id="path4" d="M29.8 44.7c-1.9.5-3.8.8-5.9.8-2 0-4-.3-5.8-.8v0c0-.3.6-2.2 2.6-2.3.6-.1 2.4 0 3.2 0 .9.1 2.5-.1 3.1 0 2.2.2 2.8 2 2.8 2.3" class="c" style="fill:teal;fill-opacity:1;stroke:teal;stroke-opacity:1;stroke-width:.9999;stroke-dasharray:none"/><path id="path5" d="M13.5 5.2c-1.7.9-3.3 2.1-4.7 3.6-1.4 1.4-2.6 3-3.5 4.7v0c.2.2 2 1.1 3.5-.2.5-.4 1.7-1.6 2.3-2.3.6-.6 1.8-1.7 2.2-2.2 1.3-1.6.4-3.3.2-3.6" class="c" style="fill:teal;fill-opacity:1;stroke:teal;stroke-opacity:1;stroke-width:.9999;stroke-dasharray:none"/><path id="path6" d="M42.7 34.5c-.9 1.7-2.1 3.3-3.6 4.7-1.4 1.4-3 2.6-4.7 3.5v0c-.2-.2-1.1-2 .2-3.5.4-.5 1.6-1.7 2.3-2.3.6-.6 1.7-1.8 2.2-2.2 1.7-1.2 3.4-.4 3.6-.2" class="c" style="fill:teal;fill-opacity:1;stroke:teal;stroke-opacity:1;stroke-width:.9999;stroke-dasharray:none"/><path id="path7" d="M34.5 5.2c1.7.9 3.3 2.1 4.7 3.6 1.4 1.4 2.6 3 3.5 4.7v0c-.2.2-2 1.1-3.5-.2-.5-.4-1.7-1.6-2.3-2.3-.6-.6-1.8-1.7-2.2-2.2-1.3-1.6-.4-3.3-.2-3.6" class="c" style="fill:teal;fill-opacity:1;stroke:teal;stroke-opacity:1;stroke-width:.9999;stroke-dasharray:none"/><path id="path8" d="M5.3 34.5c.9 1.7 2.1 3.3 3.6 4.7 1.4 1.4 3 2.6 4.7 3.5v0c.2-.2 1.1-2-.2-3.5-.4-.5-1.6-1.7-2.3-2.3-.6-.6-1.7-1.8-2.2-2.2-1.7-1.3-3.4-.4-3.6-.2" class="c" style="fill:teal;fill-opacity:1;stroke:teal;stroke-opacity:1;stroke-width:.9999;stroke-dasharray:none"/></g></g></svg>