<svg xmlns="http://www.w3.org/2000/svg" width="64" height="64"><defs><linearGradient id="a" x1="7.937" x2="7.937" y1="15.081" y2="1.852" gradientTransform="scale(3.7796)" gradientUnits="userSpaceOnUse"><stop offset="0" stop-color="#767574"/><stop offset="1" stop-color="#d1e7ee"/></linearGradient><filter id="b" width="1.119" height="1.121" x="-.059" y="-.061" color-interpolation-filters="sRGB"><feGaussianBlur stdDeviation=".207"/></filter></defs><rect width="56.002" height="56.002" x="4" y="3.969" fill="url(#a)" rx="13.002" ry="13.002"/><rect width="51.996" height="51.939" x="6.002" y="6" fill="#030000" rx="11" ry="11"/><rect width="46.002" height="46.002" x="9" y="9" fill="#262626" rx="8" ry="8"/><circle cx="32.02" cy="32.044" r="30.001" fill="none"/><g stroke-width="1.612"><path d="m3.631 285.09-.985 2.125c.159-.09.332-.155.511-.197l.478 4.637.477-4.638c.178.042.349.107.504.198zm5.261 6.237q.134.24.197.511l-4.802.478 4.803.478a1.8 1.8 0 0 1-.198.503l2.125-.985z" filter="url(#b)" opacity=".75" transform="translate(5.38 -1061.9)scale(3.7796)"/><path fill="#fff" d="M15.38 36.64h10v10.002h-10z" opacity=".1"/><path fill="#fff" d="m19.103 15.626-3.723 8.032a7.3 7.3 0 0 1 1.931-.745l1.807 17.526 1.803-17.53c.673.16 1.32.405 1.905.749zM38.988 39.2c.34.6.585 1.254.744 1.93l-18.15 1.808 18.154 1.806a7 7 0 0 1-.748 1.901l8.031-3.723z"/><path fill="none" stroke="#fff" stroke-dasharray="3.224 3.224" stroke-dashoffset="3.78" stroke-width="1.999" d="M16 28.666h17.371v17.37H16z" opacity=".2"/></g></svg>