<svg xmlns="http://www.w3.org/2000/svg" width="64" height="64" viewBox="0 0 16.933 16.933"><defs><linearGradient id="c" x1="146.18" x2="639.59" y1="155.65" y2="615.87" gradientTransform="translate(1.925 -14.734)scale(.01675)" gradientUnits="userSpaceOnUse"><stop offset="0" stop-color="#1b91f3"/><stop offset="1" stop-color="#0b68cb"/></linearGradient><linearGradient id="f" x1="283.48" x2="461.02" y1="273.46" y2="75.818" gradientTransform="translate(1.925 -14.734)scale(.01675)" gradientUnits="userSpaceOnUse"><stop offset="0" stop-color="#0f5db0"/><stop offset="1" stop-color="#0f5db0" stop-opacity="0"/></linearGradient><linearGradient id="h" x1="594.62" x2="512.08" y1="416.56" y2="619.25" gradientTransform="translate(1.925 -14.734)scale(.01675)" gradientUnits="userSpaceOnUse"><stop offset="0" stop-color="#a69bf6" stop-opacity="0"/><stop offset="1" stop-color="#f4a1f6" stop-opacity=".667"/></linearGradient><linearGradient id="i" x1="82.716" x2="140.4" y1="234.79" y2="546.58" gradientTransform="translate(1.925 -14.734)scale(.01675)" gradientUnits="userSpaceOnUse"><stop offset=".492" stop-color="#f4a1f6" stop-opacity=".665"/><stop offset="1" stop-color="#a69bf6" stop-opacity="0"/></linearGradient><linearGradient id="j" x1="374.7" x2="374.7" y1="273.95" y2="569.95" gradientTransform="translate(1.925 -14.734)scale(.01675)" gradientUnits="userSpaceOnUse"><stop offset="0" stop-color="#fff"/><stop offset=".91" stop-color="#bee1fe"/><stop offset="1" stop-color="#96cefd"/></linearGradient><linearGradient id="l" x1="380.24" x2="380.24" y1="441.45" y2="565.45" gradientUnits="userSpaceOnUse"><stop offset="0" stop-color="#bce0fd"/><stop offset="1" stop-color="#88ccfc"/></linearGradient><linearGradient id="a" x1="7.937" x2="7.937" y1="15.081" y2="1.852" gradientUnits="userSpaceOnUse"><stop offset="0" stop-color="#f1efeb"/><stop offset="1" stop-color="#fdfcfc"/></linearGradient><radialGradient id="d" cx="0" cy="0" r="1" gradientTransform="rotate(66.517 9.401 -1.413)scale(4.9587 4.7502)" gradientUnits="userSpaceOnUse"><stop offset=".53" stop-color="#0b4186" stop-opacity="0"/><stop offset="1" stop-color="#0b4186" stop-opacity=".45"/></radialGradient><radialGradient id="e" cx="0" cy="0" r="1" gradientTransform="rotate(232.004 1.37 -7.792)scale(1.06007 1.7542)" gradientUnits="userSpaceOnUse"><stop offset="0" stop-color="#a69bf6" stop-opacity="0"/><stop offset="1" stop-color="#f4a1f6" stop-opacity=".639"/></radialGradient><radialGradient id="g" cx="0" cy="0" r="1" gradientTransform="matrix(3.3593 -6.9684 8.608 4.1497 5.991 -5.5)" gradientUnits="userSpaceOnUse"><stop offset=".02" stop-color="#094188"/><stop offset=".97" stop-color="#0b4186" stop-opacity="0"/></radialGradient><filter id="b" width="1.286" height="1.299" x="-.143" y="-.149" color-interpolation-filters="sRGB"><feGaussianBlur stdDeviation=".716"/></filter><filter id="m" width="341.88" height="198.42" x="201.48" y="276.16" color-interpolation-filters="sRGB" filterUnits="userSpaceOnUse"><feFlood flood-opacity="0" result="BackgroundImageFix"/><feBlend in="SourceGraphic" in2="BackgroundImageFix" result="shape"/><feGaussianBlur result="effect1_foregroundBlur_106_1002" stdDeviation="16"/></filter><mask id="k" width="345" height="276" x="202" y="297" maskUnits="userSpaceOnUse"/></defs><rect width="14.817" height="14.817" x="1.058" y="1.05" fill="url(#a)" rx="3.44" ry="3.44"/><path d="M11.146 3.487c-1.68 0-3.328.645-3.706 1.968h-.003c-.955.392-1.066 1.27-.91 1.752v.014a2.7 2.7 0 0 0-.474.422c.014.002.004 0 0 0h-.007c.058-.973-.277-2.636-1.27-2.961l-.023-.005c-.053-.004-.1.04-.107.096-.115.963-.365 1.297-.633 1.657-.252.338-.46.71-.58 1.107-.07.239-.108.487-.103.744a5.5 5.5 0 0 1-.353-.956c-.015-.056-.097-.176-.167-.136-.065.036-.114.137-.149.242a6 6 0 0 0-.202 1.551v.028l.005.147a5.8 5.8 0 0 0 .558 2.326 6 6 0 0 0 1.173 1.685c.687.7 1.411 1.11 1.957 1.344a5.9 5.9 0 0 0 2.315.478 6 6 0 0 0 4.247-1.76 6 6 0 0 0 .702-7.655q.421-.008.84.064a3.64 3.64 0 0 0-1.441-.953 4.3 4.3 0 0 1 1.249-.248c-.715-.583-1.757-.95-2.918-.95" filter="url(#b)" opacity=".15"/><path fill="url(#c)" d="M7.2-12.138c.37-1.29 1.979-1.921 3.619-1.921 1.133 0 2.15.359 2.847.928-.416.02-.827.101-1.219.242a3.55 3.55 0 0 1 1.406.93 4.3 4.3 0 0 0-.82-.061 5.864 5.864 0 0 1-4.83 9.19c-3.189 0-5.864-2.67-5.864-5.865 0-.504.067-1.025.197-1.514.034-.102.082-.2.145-.237.08-.045.151.09.163.133q.128.483.344.934c-.012-.67.274-1.28.667-1.807.263-.352.506-.677.618-1.618.008-.063.067-.108.128-.089.854.28 1.31 1.702 1.24 2.89.47.068.469-.425.469-.425-.151-.463-.05-1.325.888-1.71z" transform="translate(.04 17.134)scale(1.0273)"/><path fill="url(#d)" d="M13.875-10.189c.143 3.225-2.509 6.006-5.742 6.006a5.75 5.75 0 0 1-5.731-5.309q-.06.418-.063.84c.023 3.177 2.692 5.82 5.864 5.82a5.864 5.864 0 0 0 5.672-7.357" opacity=".9" transform="translate(.04 17.134)scale(1.0273)"/><path fill="url(#e)" d="M8.06-11.711c-.063-.112-.355-.277-.482-.306.482-1.546 2.94-2.02 4.445-1.747.626.114 1.406.455 1.643.633-.697-.57-1.715-.929-2.847-.929-1.64 0-3.25.63-3.619 1.922h-.002c-.939.385-1.04 1.247-.888 1.71.144-.553.833-1.232 1.75-1.283" style="mix-blend-mode:normal" transform="translate(.04 17.134)scale(1.0273)"/><path fill="url(#f)" d="M9.764-12.778c-1.317.26-1.747.344-2.188.763.495-1.31 1.759-1.576 3.265-.979q-.538.111-1.077.216" transform="translate(.04 17.134)scale(1.0273)"/><path fill="url(#g)" d="M2.657-10.389c-.36 1.473-.082 3.205 1.553 4.659-.486-.533-1.08-2.498.23-3.902.089-.095.24-.025.246.104.108 2.918 2.462 4.7 5.177 4.367-.841-.047-3.623-1.021-1.553-1.407 1.081-.201 2.777-.517 2.777-2.039 0-2.466-1.907-3.188-3.064-3.08-.791.073-1.496.575-1.713 1.258.083.27-.248.458-.47.426.071-1.188-.385-2.61-1.24-2.89-.06-.02-.12.025-.127.088-.112.94-.355 1.267-.618 1.618-.393.528-.68 1.138-.667 1.807a5.4 5.4 0 0 1-.344-.933c-.01-.036-.062-.138-.126-.142-.034-.003-.052.03-.06.066z" transform="translate(.04 17.134)scale(1.0273)"/><path fill="url(#h)" d="M7.583-6.418c1.592 1.293 4.795.323 4.795-2.82-1.293 1.96-2.94 3.311-4.795 2.82" style="mix-blend-mode:normal" transform="translate(.04 17.134)scale(1.0273)"/><path fill="url(#i)" d="M4.44-9.632a.13.13 0 0 1 .118-.043C3.384-8.243 4.33-5.729 4.98-5.11c.037.103-.616-.432-.706-.557-.494-.42-1.203-2.498.167-3.964" style="mix-blend-mode:normal" transform="translate(.04 17.134)scale(1.0273)"/><path fill="url(#j)" d="M8.203-6.3c1.593 0 2.884-1.053 2.884-2.353s-1.291-2.353-2.884-2.353c-1.359 0-2.885.884-2.884 2.387 0 2.324 2.455 3.66 4.547 3.458-.157-.018-1.137-.07-1.8-.82-.06-.068-.163-.186-.116-.262s.176-.057.253-.057" transform="translate(.04 17.134)scale(1.0273)"/><path fill="#fff" d="M11.107 7.146 8.765 9.387a.55.55 0 0 1-.647.024L5.821 7.155a2.4 2.4 0 0 1 .22-.3l.242.226A47 47 0 0 0 8.06 8.689c.31.265.406.26.71 0a115 115 0 0 0 2.11-1.846q.124.143.226.303z" opacity=".6"/><g mask="url(#k)" transform="translate(2.017 1.998)scale(.01721)"><path fill="url(#l)" d="M162.7 200.98h435.07v394.47H162.7z" opacity=".7"/><g filter="url(#m)"><path fill="#458fcd" fill-rule="evenodd" d="M334.74 422.3c-25.35-26.38-101.27-114.03-101.27-114.03l5.87.26L358.2 397.3c8.9 6.47 21.6 6.4 30.42-.15l116.55-88.5 6.18-.49s-73.44 85.57-101.57 113.76-49.69 26.76-75.04.38" clip-rule="evenodd"/></g></g><path fill="#fff" d="M8.882 4.618c.317-.1.29-.413.29-.413s-.16-.187-.473-.084c-.294.097-.34.307-.34.307s.16.305.523.19"/></svg>