<svg xmlns="http://www.w3.org/2000/svg" width="64" height="64"><defs><linearGradient id="a" x1="9.696" x2="9.696" y1="1.05" y2="15.867" gradientTransform="scale(3.7796)" gradientUnits="userSpaceOnUse"><stop offset="0" stop-color="#a743ff"/><stop offset="1" stop-color="#7158e0"/></linearGradient><filter id="b" width="1.196" height="1.588" x="-.098" y="-.294" color-interpolation-filters="sRGB"><feGaussianBlur stdDeviation="1.715"/></filter></defs><rect width="56.002" height="56.002" x="4" y="3.969" fill="url(#a)" rx="13.002" ry="13.002"/><path d="M22.579 39.883c1.092-.313 3.584-1.588 5.71-2.922 1.78-1.116 3.485-2.066 3.709-2.066s1.265.58 3.77 2.1c2.692 1.636 4.706 2.656 5.767 2.92.613.153 1.04.105 1.608-.182 1.107-.558 2.636-1.786 4.55-3.657 2.586-2.526 4.967-5.49 5.27-6.559.103-.363.013-.436-.54-.423-.885.02-2.016.327-6.648 1.8-1.933.614-3.306.994-3.597.994-.456 0-2.059-.925-4.332-2.5-1.1-.763-3.356-2.233-4.053-2.643-.985-.58-1.497-.778-1.903-.74-.689.064-1.922.798-6.267 3.728-2.076 1.4-3.204 2.059-3.66 2.135-.38.064-.905-.083-5.99-1.68-1.632-.512-2.881-.86-3.587-.997-.502-.098-1.2-.132-1.308-.062-.385.245.682 1.974 2.506 4.063 3.014 3.45 6.223 6.253 7.735 6.753.258.086.846.057 1.26-.062" filter="url(#b)" opacity=".1"/><path fill="#fff" d="M22.579 38.883c1.092-.313 3.584-1.588 5.71-2.922 1.78-1.116 3.485-2.066 3.709-2.066s1.265.58 3.77 2.1c2.692 1.636 4.706 2.656 5.767 2.92.613.153 1.04.105 1.608-.182 1.107-.558 2.636-1.786 4.55-3.657 2.586-2.526 4.967-5.49 5.27-6.559.103-.363.013-.436-.54-.423-.885.02-2.016.327-6.648 1.8-1.933.614-3.306.994-3.597.994-.456 0-2.059-.925-4.332-2.5-1.1-.763-3.356-2.233-4.053-2.643-.985-.58-1.497-.778-1.903-.74-.689.064-1.922.798-6.267 3.728-2.076 1.4-3.204 2.059-3.66 2.135-.38.064-.905-.083-5.99-1.68-1.632-.512-2.881-.86-3.587-.997-.502-.098-1.2-.132-1.308-.062-.385.245.682 1.974 2.506 4.063 3.014 3.45 6.223 6.253 7.735 6.753.258.086.846.057 1.26-.062"/></svg>