<svg xmlns="http://www.w3.org/2000/svg" width="64" height="64" viewBox="0 0 64 64"><defs><linearGradient id="a" x1=".5" x2=".521" y1="1" y2=".004"><stop offset="0%" style="stop-color:rgba(1,1,1,.1)"/><stop offset="100%" style="stop-color:rgba(255,255,255,.1)"/></linearGradient></defs><path d="M16 4h32c6.623 0 12 5.377 12 12v32c0 6.623-5.377 12-12 12H16C9.377 60 4 54.623 4 48V16C4 9.377 9.377 4 16 4" style="stroke:none;fill:#fff;stroke-miterlimit:10"/><path d="M16 4h32c6.623 0 12 5.377 12 12v32c0 6.623-5.377 12-12 12H16C9.377 60 4 54.623 4 48V16C4 9.377 9.377 4 16 4" style="stroke:none;fill:url(#a);stroke-miterlimit:10"/><linearGradient id="b" x1=".419" x2=".419" y1="2.327" y2=".278" gradientTransform="matrix(18.772 0 0 13.483 30.872 12.38)" gradientUnits="userSpaceOnUse"><stop offset="0%" style="stop-color:#cd7223"/><stop offset="100%" style="stop-color:#ffc169"/></linearGradient><path fill="url(#b)" d="m35.64 12.38-4.768 13.483 18.772-3.138A19.99 19.99 0 0 0 35.635 12.38"/><linearGradient id="c" x1=".613" x2=".613" y1="1.185" y2="-.372" gradientTransform="matrix(15.259 0 0 17.224 36.741 25.663)" gradientUnits="userSpaceOnUse"><stop offset="0%" style="stop-color:#ffa92d"/><stop offset="100%" style="stop-color:#edf573"/></linearGradient><path fill="url(#c)" d="m50.879 25.664-14.138 2.64 12.124 14.583c3.236-5.044 4.072-11.402 2.014-17.224"/><linearGradient id="d" x1=".538" x2=".538" y1="1.218" y2="-.126" gradientTransform="matrix(16.024 0 0 17.741 31.016 34.258)" gradientUnits="userSpaceOnUse"><stop offset="0%" style="stop-color:#2b4d37"/><stop offset="100%" style="stop-color:#3bb566"/></linearGradient><path fill="url(#d)" d="M47.039 45.101 37.67 34.258 31.016 51.98c6.016.26 11.978-2.199 16.024-6.88"/><linearGradient id="e" x1=".694" x2=".694" y1="1.272" y2="-.183" gradientTransform="matrix(18.772 0 0 13.483 14.233 38.147)" gradientUnits="userSpaceOnUse"><stop offset="0%" style="stop-color:#375a7d"/><stop offset="100%" style="stop-color:#54a3d8"/></linearGradient><path fill="url(#e)" d="m28.237 51.63 4.768-13.483-18.772 3.138A19.99 19.99 0 0 0 28.242 51.63"/><linearGradient id="f" x1=".686" x2=".686" y1="1.279" y2="-.016" gradientTransform="matrix(15.26 0 0 17.224 12 21.103)" gradientUnits="userSpaceOnUse"><stop offset="0%" style="stop-color:#68377d"/><stop offset="100%" style="stop-color:#cb7cec"/></linearGradient><path fill="url(#f)" d="m13.122 38.326 14.138-2.64-12.124-14.583c-3.236 5.044-4.074 11.402-2.015 17.224"/><linearGradient id="g" x1=".774" x2=".774" y1="1.651" y2="-.838" gradientTransform="matrix(6 0 0 6 29 29)" gradientUnits="userSpaceOnUse"><stop offset="0%" style="stop-color:#b0b0b0"/><stop offset="100%" style="stop-color:#fff"/></linearGradient><circle cx="32" cy="32" r="3" fill="url(#g)" vector-effect="non-scaling-stroke"/><linearGradient id="h" x1=".773" x2=".773" y1="1.813" y2=".128" gradientTransform="matrix(16.024 0 0 17.741 16.915 12.001)" gradientUnits="userSpaceOnUse"><stop offset="0%" style="stop-color:#bf4231"/><stop offset="100%" style="stop-color:#f58273"/></linearGradient><path fill="url(#h)" d="m16.917 18.899 9.369 10.843 6.653-17.722c-6.016-.26-11.977 2.199-16.024 6.88"/></svg>