<svg xmlns="http://www.w3.org/2000/svg" width="64" height="64"><defs><linearGradient id="a" x1="7.937" x2="7.937" y1="15.081" y2="1.852" gradientTransform="scale(3.7796)" gradientUnits="userSpaceOnUse"><stop offset="0" stop-color="#2d910a"/><stop offset="1" stop-color="#2c78e0"/></linearGradient><linearGradient id="b" x1="6" x2="58" gradientUnits="userSpaceOnUse"><stop offset="0" stop-opacity="0"/><stop offset=".5" stop-opacity=".25"/><stop offset="1" stop-opacity="0"/></linearGradient><linearGradient id="c" x2="0" y1="70" y2="122" gradientUnits="userSpaceOnUse"><stop offset="0" stop-opacity="0"/><stop offset=".5" stop-opacity=".25"/><stop offset="1" stop-opacity="0"/></linearGradient><linearGradient id="d" x1="70" x2="122" gradientUnits="userSpaceOnUse"><stop offset="0" stop-opacity="0"/><stop offset=".5" stop-opacity=".25"/><stop offset="1" stop-opacity="0"/></linearGradient><linearGradient id="e" x1="64" x2="60" gradientUnits="userSpaceOnUse"><stop offset="0" stop-opacity=".75"/><stop offset="1" stop-opacity="0"/></linearGradient><linearGradient id="f" x1="128" x2="124" gradientUnits="userSpaceOnUse"><stop offset="0" stop-opacity=".75"/><stop offset="1" stop-opacity="0"/></linearGradient><linearGradient id="g" x2="0" y1="192" y2="188" gradientUnits="userSpaceOnUse"><stop offset="0" stop-opacity=".75"/><stop offset="1" stop-opacity="0"/></linearGradient><linearGradient id="h" x2="0" y1="128" y2="124" gradientUnits="userSpaceOnUse"><stop offset="0" stop-opacity=".75"/><stop offset="1" stop-opacity="0"/></linearGradient><linearGradient id="i" x2="0" y1="64" y2="68" gradientUnits="userSpaceOnUse"><stop offset="0" stop-color="#fff" stop-opacity="0"/><stop offset="1" stop-color="#fff" stop-opacity=".75"/></linearGradient><linearGradient id="j" x1="64" x2="68" gradientUnits="userSpaceOnUse"><stop offset="0" stop-color="#fff" stop-opacity=".75"/><stop offset="1" stop-color="#fff" stop-opacity="0"/></linearGradient><linearGradient id="k" x2="0" y1="198" y2="250" gradientUnits="userSpaceOnUse"><stop offset="0" stop-opacity="0"/><stop offset=".5" stop-opacity=".25"/><stop offset="1" stop-opacity="0"/></linearGradient><linearGradient id="l" x1="192" x2="188" gradientUnits="userSpaceOnUse"><stop offset="0" stop-opacity=".75"/><stop offset="1" stop-opacity="0"/></linearGradient><linearGradient id="m" x2="0" y1="128" y2="132" gradientUnits="userSpaceOnUse"><stop offset="0" stop-color="#fff" stop-opacity=".75"/><stop offset="1" stop-color="#fff" stop-opacity="0"/></linearGradient><linearGradient id="n" x2="0" y1="192" y2="196" gradientUnits="userSpaceOnUse"><stop offset="0" stop-color="#fff" stop-opacity=".75"/><stop offset="1" stop-color="#fff" stop-opacity="0"/></linearGradient><linearGradient id="o" x1="198" x2="250" gradientUnits="userSpaceOnUse"><stop offset="0" stop-opacity="0"/><stop offset=".5" stop-opacity=".25"/><stop offset="1" stop-opacity="0"/></linearGradient><linearGradient id="p" x2="0" y1="134" y2="186" gradientUnits="userSpaceOnUse"><stop offset="0" stop-opacity="0"/><stop offset=".5" stop-opacity=".25"/><stop offset="1" stop-opacity="0"/></linearGradient><linearGradient id="q" x1="128" x2="132" gradientUnits="userSpaceOnUse"><stop offset="0" stop-color="#fff" stop-opacity=".75"/><stop offset="1" stop-color="#fff" stop-opacity="0"/></linearGradient><linearGradient id="r" x1="192" x2="196" gradientUnits="userSpaceOnUse"><stop offset="0" stop-color="#fff" stop-opacity=".75"/><stop offset="1" stop-color="#fff" stop-opacity="0"/></linearGradient></defs><rect width="64" height="64" fill="none" rx="0" ry="0" style="paint-order:stroke fill markers"/><rect width="56.002" height="56.002" x="4" y="3.969" fill="url(#a)" rx="13.002" ry="13.002"/><path fill="#b3d9ff" d="M17 8a8.977 8.977 0 0 0-8.994 8.8l.007 15.194-.007 15.205a8.977 8.977 0 0 0 8.994 8.8h30c4.986 0 9-4.013 9-9V20H44v12H32V20H20V8z"/><path fill="#99cdff" d="M19.8 8c-.108 0-.145.084-.081.187.064.104.154.188.2.188.045 0 .067-.084.067-.188S19.91 8 19.801 8zm-3.163.01A8.977 8.977 0 0 0 8 17v30c0 4.986 4.014 9 9 9h30a8.977 8.977 0 0 0 8.99-8.614l-.004-3.468c-.018-9.132-.064-12.105-.232-12.174-.164-.067-.156-.139.031-.27.14-.098.182-.222.092-.277-.24-.149-.76.288-.846.713-.06.3-.205.36-.761.316-.538-.042-.732.033-.897.342-.159.297-.154.46.02.67s.176.33.012.494a.9.9 0 0 0-.217.555.326.326 0 0 1-.328.34c-.18.001-.514.052-.74.113-.377.1-.425.026-.544-.865-.114-.86-.2-1.007-.703-1.219-.315-.132-.687-.197-.828-.143s-.501-.139-.803-.427c-.501-.48-.576-.501-.879-.237-.388.34-1.553.58-1.85.381-.113-.075-.265-.515-.337-.978-.142-.907-.726-1.69-1.26-1.69-.435 0-.916.704-.916 1.34 0 .487.163.95-.014 1.104s-.707 0-1.281 0c-1.17 0-1.507.197-1.535.922l-.02.478-.13-.469-.13-.468-4.453-.094c-3.526-.074-4.485-.149-4.613-.356-.089-.143-.17-2.795-.182-5.892s-.042-5.65-.066-5.674c-.025-.024-2.619-.1-5.764-.172-3.418-.078-5.873-.16-6.013-.275-.13-.106-.174-.37-.174-.528 0-.251-.041-.249-.336.018-.278.251-.453.27-1 .101-.74-.227-1.246-.84-.944-1.142.104-.103.636-.197 1.186-.21.55-.011 1.063-.108 1.139-.212.195-.27.17-7.823-.028-8.135-.09-.142-.244-.209-.341-.148-.258.159-.989-.405-.989-.762 0-.166.14-.456.31-.644.222-.245.17-.314-1.986-.334z"/><g fill-rule="evenodd" stroke-linecap="square" stroke-linejoin="bevel"><path fill="url(#b)" d="M6 63h52v1H6zm0 1h52v1H6z" transform="translate(7.999 8)scale(.1875)"/><path fill="url(#c)" d="M63 70v52h1V70zm1 0v52h1V70z" transform="translate(7.999 8)scale(.1875)"/><path fill="url(#d)" d="M70 127h52v1H70zm0 1h52v1H70z" transform="translate(7.999 8)scale(.1875)"/><path fill="url(#e)" d="M64 0v64l-4 4V4z" transform="translate(7.999 8)scale(.1875)"/><path fill="url(#f)" d="M128 64v128l-4-4V68z" transform="translate(7.999 8)scale(.1875)"/><path fill="url(#g)" d="M128 192H64l4-4h56z" transform="translate(7.999 8)scale(.1875)"/><path fill="url(#h)" d="M0 128h64l4-4H4z" transform="translate(7.999 8)scale(.1875)"/><path fill="url(#i)" d="M64 64h64l-4 4H60z" transform="translate(7.999 8)scale(.1875)"/><path fill="url(#j)" d="M64 128v64l4-4v-64z" transform="translate(7.999 8)scale(.1875)"/><path fill="url(#b)" d="M6 191h52v1H6zm0 1h52v1H6z" transform="translate(7.999 8)scale(.1875)"/><path fill="url(#k)" d="M63 198v52h1v-52zm1 0v52h1v-52zm63 0v52h1v-52zm1 0v52h1v-52z" transform="translate(7.999 8)scale(.1875)"/><path fill="url(#e)" d="M64 128v64l-4 4v-64z" transform="translate(7.999 8)scale(.1875)"/><path fill="url(#l)" d="M192 192v64l-4-4v-56z" transform="translate(7.999 8)scale(.1875)"/><path fill="url(#m)" d="M0 128h64l-4 4H4z" transform="translate(7.999 8)scale(.1875)"/><path fill="url(#n)" d="M64 192h128l-4 4H60z" transform="translate(7.999 8)scale(.1875)"/><path fill="url(#o)" d="M198 127h52v1h-52zm0 1h52v1h-52zm0 63h52v1h-52zm0 1h52v1h-52z" transform="translate(7.999 8)scale(.1875)"/><path fill="url(#p)" d="M191 134v52h1v-52zm1 0v52h1v-52z" transform="translate(7.999 8)scale(.1875)"/><path fill="url(#g)" d="M128 192h64l4-4h-64z" transform="translate(7.999 8)scale(.1875)"/><path fill="url(#q)" d="m128 128 4 4v56l-4 4z" transform="translate(7.999 8)scale(.1875)"/><path fill="url(#m)" d="M128 128h64l4 4h-64z" transform="translate(7.999 8)scale(.1875)"/><path fill="url(#i)" d="M192 64h64l-4 4h-56z" transform="translate(7.999 8)scale(.1875)"/><path fill="url(#r)" d="m192 64 4 4v64l-4-4zm0 128 4-4v64l-4 4z" transform="translate(7.999 8)scale(.1875)"/></g></svg>