<svg xmlns="http://www.w3.org/2000/svg" xmlns:xlink="http://www.w3.org/1999/xlink" width="64" height="64"><defs><linearGradient id="d"><stop offset="0" style="stop-color:#3d3846;stop-opacity:1"/><stop offset="1" style="stop-color:#0a090b;stop-opacity:1"/></linearGradient><linearGradient id="b"><stop offset="0" style="stop-color:#a347ba;stop-opacity:1"/><stop offset="1" style="stop-color:#613583;stop-opacity:1"/></linearGradient><linearGradient id="e" x1="7.937" x2="7.937" y1="15.081" y2="1.852" gradientTransform="scale(3.7796)" gradientUnits="userSpaceOnUse"><stop offset="0" stop-color="#f1efeb"/><stop offset="1" stop-color="#fdfcfc"/></linearGradient><linearGradient xlink:href="#a" id="h" x1="60" x2="68" y1="199.856" y2="199.856" gradientTransform="matrix(.45133 0 0 .42124 -21.605 -41.515)"/><linearGradient id="a" gradientUnits="userSpaceOnUse"><stop offset="0" stop-color="#3d3846"/><stop offset=".351" stop-color="#9a9996"/><stop offset=".602" stop-color="#77767b"/><stop offset="1" stop-color="#3d3846"/></linearGradient><linearGradient xlink:href="#a" id="i" x1="60" x2="68" y1="199.856" y2="199.856" gradientTransform="matrix(.45133 0 0 .42124 -21.605 -61.373)"/><linearGradient id="c" x1="-254" x2="-206" y1="64" y2="64" gradientTransform="rotate(-90 -156.743 -41.286)" gradientUnits="userSpaceOnUse"><stop offset="0" stop-color="#deddda"/><stop offset="1" stop-color="#f6f5f4"/></linearGradient><linearGradient xlink:href="#b" id="f" x1="32.001" x2="32.001" y1="3.969" y2="59.971" gradientUnits="userSpaceOnUse"/><linearGradient xlink:href="#c" id="g" x1="32.001" x2="32.001" y1="56.186" y2="7.814" gradientUnits="userSpaceOnUse"/><linearGradient xlink:href="#c" id="l" x1="-254" x2="-206" y1="64" y2="64" gradientTransform="rotate(-90 -63.03 -53.166)scale(.64433)" gradientUnits="userSpaceOnUse"/><linearGradient xlink:href="#b" id="k" x1="31.372" x2="31.372" y1="13.959" y2="50.041" gradientUnits="userSpaceOnUse"/><linearGradient xlink:href="#d" id="m" x1="28.795" x2="33.95" y1="32" y2="32" gradientUnits="userSpaceOnUse"/><radialGradient id="j" cx="-223" cy="64" r="24" gradientTransform="rotate(-90 -115.525 -82.751)scale(1.0023)" gradientUnits="userSpaceOnUse"><stop offset="0" stop-color="#c061cb"/><stop offset="1" stop-color="#a347ba"/></radialGradient></defs><rect width="56.002" height="56.002" x="4" y="3.969" fill="url(#e)" rx="13.002" ry="13.002" style="fill:url(#f);fill-opacity:1"/><rect width="48.372" height="48.372" x="7.815" y="7.814" fill="url(#e)" rx="9.228" ry="9.228" style="fill:url(#g);fill-opacity:1"/><path fill="url(#h)" d="M7.28 37.918c-.997 0-1.806.27-1.806.602v8.425h3.611V38.52c0-.331-.809-.602-1.805-.602m0 0" style="fill:url(#h);stroke-width:.601767" transform="translate(-.084 -.237)"/><path fill="#3d3846" d="M7.28 46.343c-.997 0-1.806.27-1.806.602 0 .33.81.601 1.806.601.204 0 .409-.012.601-.035v-.566h1.204c0-.331-.809-.602-1.805-.602m0-4.814c-.997 0-1.806.27-1.806.601v1.204c0-.331.81-.602 1.806-.602s1.805.271 1.805.602V42.13c0-.33-.809-.601-1.805-.601m.722 1.753" style="stroke-width:.601767" transform="translate(-.084 -.237)"/><path fill="url(#i)" d="M7.28 18.06c-.997 0-1.806.27-1.806.602v8.424h3.611v-8.424c0-.331-.809-.602-1.805-.602m0 0" style="fill:url(#i);stroke-width:.601767" transform="translate(-.084 -.237)"/><path fill="#3d3846" d="M7.28 26.485c-.997 0-1.806.27-1.806.601s.81.602 1.806.602c.204 0 .409-.012.601-.035v-.567h1.204c0-.33-.809-.601-1.805-.601m0-4.815c-.997 0-1.806.271-1.806.602v1.204c0-.331.81-.602 1.806-.602s1.805.27 1.805.602v-1.204c0-.33-.809-.602-1.805-.602m.722 1.754" style="stroke-width:.601767" transform="translate(-.084 -.237)"/><path fill="url(#j)" d="M31.372 13.959c9.965 0 18.042 8.076 18.042 18.041s-8.077 18.041-18.042 18.041c-9.964 0-18.04-8.076-18.04-18.041s8.076-18.041 18.04-18.041m0 0" style="fill:url(#k);stroke-width:.644329" transform="translate(.628)"/><path fill="url(#c)" d="M31.372 16.536c8.54 0 15.464 6.924 15.464 15.464s-6.924 15.464-15.464 15.464S15.91 40.54 15.91 32s6.924-15.464 15.463-15.464" style="fill:url(#l);stroke-width:.644329" transform="translate(.628)"/><path fill="#3d3846" d="M33.95 21.69h-5.155v6.444h2.577v1.289l-2.577 1.288V42.31h5.155v-6.443l-2.578-1.289 2.578-1.288z" style="stroke-width:.644329;fill:url(#m)" transform="translate(.628)"/></svg>