<svg xmlns="http://www.w3.org/2000/svg" width="64" height="64" fill="none"><defs><linearGradient id="a" x1="101.74" x2="101.6" y1="33.726" y2="135.47" gradientTransform="translate(11.993 11.994)scale(.29538)" gradientUnits="userSpaceOnUse"><stop offset="0" stop-color="#afccfb"/><stop offset="1" stop-color="#8bb5f8"/></linearGradient><linearGradient id="b" x1=".465" x2=".557" y1="-.674" y2=".811" gradientTransform="translate(20.677 24.497)scale(18.102)" gradientUnits="userSpaceOnUse"><stop offset="0" stop-color="#1972e7"/><stop offset="1" stop-color="#1969d5"/></linearGradient><linearGradient id="c" x1=".018" x2="1.77" y1="-.512" y2=".499" gradientTransform="rotate(60 -12.328 29.77)scale(14.839 14.8389)" gradientUnits="userSpaceOnUse"><stop offset="0" stop-color="#659cf6"/><stop offset="1" stop-color="#4285f4"/></linearGradient><linearGradient id="d" x1="67.452" x2="67.733" y1="40.321" y2="95.25" gradientTransform="translate(11.993 11.994)scale(.29538)" gradientUnits="userSpaceOnUse"><stop offset="0" stop-color="#3680f0"/><stop offset="1" stop-color="#2678ec"/></linearGradient></defs><rect width="56.002" height="56.002" x="4" y="3.969" fill="#fff" rx="13.002" ry="13.002"/><path fill="url(#a)" d="m32 32 8.663 5.001L32 52.006c11.05 0 20.007-8.957 20.007-20.006 0-3.645-.98-7.06-2.683-10.004H32z" class="fills"/><path fill="url(#b)" d="M32 11.994c-7.405 0-13.866 4.026-17.325 10.006l8.661 15.002L32 32.001V21.997h17.324c-3.46-5.978-9.92-10.003-17.324-10.003" class="fills"/><path fill="url(#c)" d="M11.993 32c0 11.049 8.957 20.006 20.007 20.006l8.663-15.005L32 32l-8.663 5.001-8.662-15.002A19.9 19.9 0 0 0 11.993 32" class="fills"/><path fill="#fff" d="M42.004 32c0 5.524-4.479 10.003-10.004 10.003S21.996 37.524 21.996 32c0-5.525 4.479-10.004 10.004-10.004S42.004 26.475 42.004 32" class="fills"/><path fill="url(#d)" d="M40.128 32a8.128 8.128 0 1 1-16.256 0 8.128 8.128 0 0 1 16.256 0" class="fills"/></svg>