<svg xmlns="http://www.w3.org/2000/svg" width="64" height="64" image-rendering="optimizeSpeed"><defs><linearGradient id="a" x1="7.937" x2="7.937" y1="15.081" y2="1.852" gradientTransform="scale(3.7796)" gradientUnits="userSpaceOnUse"><stop offset="0" stop-color="#0e71de"/><stop offset="1" stop-color="#25c9ff"/></linearGradient></defs><rect width="56.002" height="56.002" x="4" y="3.969" fill="url(#a)" rx="13.002" ry="13.002"/><circle cx="32.02" cy="32.044" r="30.001" fill="none"/><path fill="#fff" d="M30.675 12.148a1.862 1.862 0 0 0-2.072 1.85v13.37l-5.572-4.503a1.861 1.861 0 1 0-2.339 2.897l7.722 6.242-7.722 6.241a1.861 1.861 0 1 0 2.34 2.894l5.57-4.503v13.367a1.862 1.862 0 0 0 3.027 1.452l11.674-9.36a1.86 1.86 0 0 0 0-2.904l-8.969-7.19 8.969-7.19a1.86 1.86 0 0 0 0-2.908l-11.674-9.357a1.87 1.87 0 0 0-.954-.398m1.649 5.729 6.84 5.482-6.84 5.479zm0 17.285 6.84 5.482-6.84 5.479z"/></svg>