<svg xmlns="http://www.w3.org/2000/svg" width="64" height="64" enable-background="new 0 0 1024 1024" image-rendering="optimizeSpeed"><defs><linearGradient id="c" x1="32" x2="32" y1="14.666" y2="49.334" gradientUnits="userSpaceOnUse"><stop offset="0" stop-color="#e7e7e7"/><stop offset="1" stop-color="#fff"/></linearGradient><linearGradient id="a" x1="7.937" x2="7.937" y1="15.081" y2="1.852" gradientTransform="scale(3.7796)" gradientUnits="userSpaceOnUse"><stop offset="0" stop-color="#373737"/><stop offset="1" stop-color="#6b6b6b"/></linearGradient><filter id="b" width="1.125" height="1.115" x="-.063" y="-.058" color-interpolation-filters="sRGB"><feGaussianBlur stdDeviation=".833"/></filter></defs><rect width="56.002" height="56.002" x="4" y="3.969" fill="url(#a)" rx="13.002" ry="13.002"/><path fill-rule="evenodd" d="M46.324 26.187a15.7 15.7 0 0 0-4.719-5.625 2.6 2.6 0 0 0-1.979-.52 2.47 2.47 0 0 0-1.75 1.04 2.54 2.54 0 0 0-.51 1.97q.156 1.095 1.031 1.76a10.64 10.64 0 0 1 3.156 3.771 10.5 10.5 0 0 1 1.114 4.75q0 2.167-.843 4.135a10.8 10.8 0 0 1-2.282 3.407 10.8 10.8 0 0 1-3.406 2.28 10.4 10.4 0 0 1-4.135.845q-2.167 0-4.136-.844a10.8 10.8 0 0 1-3.406-2.281 10.8 10.8 0 0 1-2.281-3.407 10.4 10.4 0 0 1-.844-4.135q0-2.52 1.115-4.75a10.64 10.64 0 0 1 3.156-3.771 2.6 2.6 0 0 0 1.031-1.76 2.54 2.54 0 0 0-.51-1.97 2.46 2.46 0 0 0-1.74-1.04 2.63 2.63 0 0 0-1.99.52 15.7 15.7 0 0 0-4.718 5.625A15.76 15.76 0 0 0 16 33.333q0 3.25 1.27 6.208 1.272 2.959 3.417 5.104 2.146 2.146 5.104 3.417T32 49.333c3.25.001 4.236-.424 6.208-1.271q2.96-1.27 5.104-3.417c2.144-2.147 2.57-3.132 3.417-5.104A15.6 15.6 0 0 0 48 33.333q0-3.792-1.676-7.146M32 33.333q1.084 0 1.875-.792.792-.79.792-1.874V17.333q0-1.084-.792-1.875-.791-.792-1.875-.792c-1.084 0-1.347.264-1.875.792q-.792.79-.792 1.875v13.334q0 1.083.792 1.874t1.875.792" filter="url(#b)" opacity=".35"/><path fill="url(#c)" fill-rule="evenodd" d="M46.324 26.187a15.7 15.7 0 0 0-4.719-5.625 2.6 2.6 0 0 0-1.979-.52 2.47 2.47 0 0 0-1.75 1.04 2.54 2.54 0 0 0-.51 1.97q.156 1.095 1.031 1.76a10.64 10.64 0 0 1 3.156 3.771 10.5 10.5 0 0 1 1.114 4.75q0 2.167-.843 4.135a10.8 10.8 0 0 1-2.282 3.407 10.8 10.8 0 0 1-3.406 2.28 10.4 10.4 0 0 1-4.135.845q-2.167 0-4.136-.844a10.8 10.8 0 0 1-3.406-2.281 10.8 10.8 0 0 1-2.281-3.407 10.4 10.4 0 0 1-.844-4.135q0-2.52 1.115-4.75a10.64 10.64 0 0 1 3.156-3.771 2.6 2.6 0 0 0 1.031-1.76 2.54 2.54 0 0 0-.51-1.97 2.46 2.46 0 0 0-1.74-1.04 2.63 2.63 0 0 0-1.99.52 15.7 15.7 0 0 0-4.718 5.625A15.76 15.76 0 0 0 16 33.333q0 3.25 1.27 6.208 1.272 2.959 3.417 5.104 2.146 2.146 5.104 3.417T32 49.333c3.25.001 4.236-.424 6.208-1.271q2.96-1.27 5.104-3.417c2.144-2.147 2.57-3.132 3.417-5.104A15.6 15.6 0 0 0 48 33.333q0-3.792-1.676-7.146M32 33.333q1.084 0 1.875-.792.792-.79.792-1.874V17.333q0-1.084-.792-1.875-.791-.792-1.875-.792c-1.084 0-1.347.264-1.875.792q-.792.79-.792 1.875v13.334q0 1.083.792 1.874t1.875.792"/></svg>