<svg xmlns="http://www.w3.org/2000/svg" xmlns:xlink="http://www.w3.org/1999/xlink" width="64" height="64" enable-background="new 0 0 1024 1024" image-rendering="optimizeSpeed"><defs><linearGradient id="a"><stop offset="0" stop-color="#ecebec"/><stop offset="1" stop-color="#54595d"/></linearGradient><linearGradient id="d" x1="67" x2="67" y1="18" y2="46" gradientTransform="translate(-35)" gradientUnits="userSpaceOnUse"><stop offset="0" stop-color="#363b3c"/><stop offset="1" stop-color="#212120"/></linearGradient><linearGradient id="e" x1="66" x2="66" y1="19" y2="45" gradientTransform="translate(-35)" gradientUnits="userSpaceOnUse"><stop offset="0" stop-color="#151617"/><stop offset="1" stop-color="#0c0c0c"/></linearGradient><linearGradient id="f" x1="67" x2="67" y1="18.9" y2="45.1" gradientTransform="translate(-35)" gradientUnits="userSpaceOnUse"><stop offset="0" stop-color="#131515"/><stop offset="1" stop-color="#080c0c"/></linearGradient><linearGradient id="h" x1="67" x2="67" y1="18" y2="46" gradientTransform="matrix(.57141 0 0 .57139 -6.284 13.716)" gradientUnits="userSpaceOnUse"><stop offset="0" stop-color="#e9f5f8"/><stop offset="1" stop-color="#4b4c48"/></linearGradient><linearGradient id="j" x1="67" x2="67" y1="18" y2="46" gradientTransform="matrix(.42859 0 0 .42857 3.285 18.286)" gradientUnits="userSpaceOnUse"><stop offset="0" stop-color="#cce2ea"/><stop offset="1" stop-color="#777"/></linearGradient><linearGradient id="k" x1="67" x2="67" y1="26" y2="38" gradientTransform="translate(-35)" gradientUnits="userSpaceOnUse"><stop offset="0" stop-color="#fff"/><stop offset="1" stop-color="#fff" stop-opacity=".152"/></linearGradient><linearGradient id="c" x1="67" x2="67" y1="18" y2="46" gradientTransform="matrix(1.5 0 0 1.5 -68.5 -16)" gradientUnits="userSpaceOnUse"><stop offset="0" stop-color="#cadee4"/><stop offset="1" stop-color="#767574"/></linearGradient><linearGradient xlink:href="#a" id="l" x1="8" x2="8" y1="30" y2="32" gradientUnits="userSpaceOnUse"/><linearGradient xlink:href="#a" id="m" x1="8" x2="8" y1="30" y2="32" gradientTransform="translate(48)" gradientUnits="userSpaceOnUse"/><linearGradient xlink:href="#a" id="n" x1="8" x2="8" y1="30" y2="32" gradientTransform="translate(24 -23)" gradientUnits="userSpaceOnUse"/><linearGradient xlink:href="#a" id="o" x1="8" x2="8" y1="30" y2="32" gradientTransform="translate(24 25)" gradientUnits="userSpaceOnUse"/><linearGradient id="b" x1="7.937" x2="7.937" y1="15.081" y2="1.852" gradientTransform="scale(3.7796)" gradientUnits="userSpaceOnUse"><stop offset="0" stop-color="#242424"/><stop offset="1" stop-color="#4d4d4d"/></linearGradient><filter id="i" width="1.12" height="1.12" x="-.06" y="-.06" color-interpolation-filters="sRGB"><feGaussianBlur stdDeviation=".3"/></filter><filter id="g" width="1.12" height="1.12" x="-.06" y="-.06" color-interpolation-filters="sRGB"><feGaussianBlur stdDeviation=".4"/></filter></defs><rect width="56.002" height="56.002" x="4" y="3.969" fill="url(#b)" rx="13.002" ry="13.002"/><g fill-rule="evenodd"><circle cx="32" cy="32" r="21" fill="url(#c)" style="paint-order:normal"/><circle cx="32" cy="32" r="15" opacity=".9" style="paint-order:normal"/><circle cx="32" cy="32" r="14" fill="url(#d)" style="paint-order:normal"/><path fill="url(#e)" stroke="url(#f)" stroke-linecap="round" stroke-linejoin="round" stroke-width=".1" d="M32 19a.3.3 0 0 0-.3.3v2.4a.3.3 0 1 0 .6 0v-2.4a.3.3 0 0 0-.3-.3m-3.365.443a.3.3 0 0 0-.211.368l.361 1.351a.3.3 0 1 0 .58-.154l-.363-1.354a.3.3 0 0 0-.367-.21zm6.73 0a.3.3 0 0 0-.367.211l-.363 1.354a.3.3 0 1 0 .58.154l.361-1.352a.3.3 0 0 0-.21-.367zm-9.636 1.268a.301.301 0 0 0-.338.441l.699 1.211a.3.3 0 1 0 .52-.299l-.7-1.212a.3.3 0 0 0-.181-.141m12.543 0a.3.3 0 0 0-.182.14l-.7 1.213a.3.3 0 1 0 .52.3l.7-1.212a.301.301 0 0 0-.338-.441M23.02 22.719a.3.3 0 0 0-.213.513l.99.99a.301.301 0 0 0 .426-.425l-.99-.99a.3.3 0 0 0-.213-.088m17.96 0a.3.3 0 0 0-.212.088l-.99.99a.301.301 0 0 0 .425.426l.989-.99a.301.301 0 0 0-.211-.514zm-20.056 2.64a.3.3 0 0 0-.182.141.3.3 0 0 0 .11.41l1.212.7a.3.3 0 1 0 .3-.52l-1.212-.7a.3.3 0 0 0-.228-.03zm22.152 0a.3.3 0 0 0-.229.032l-1.21.699a.3.3 0 1 0 .298.52l1.213-.7a.3.3 0 0 0 .11-.41.3.3 0 0 0-.182-.14zM19.81 28.424a.299.299 0 1 0-.156.578l1.353.363a.3.3 0 1 0 .154-.58zm24.379 0-1.352.361a.3.3 0 1 0 .154.58l1.354-.363a.3.3 0 0 0 .21-.367.3.3 0 0 0-.366-.211m-24.89 3.275a.3.3 0 1 0 0 .602h2.399a.3.3 0 1 0 0-.602zm23 0a.3.3 0 1 0 0 .602h2.399a.3.3 0 1 0 0-.602zm-21.292 2.936-1.354.363a.3.3 0 0 0-.21.367c.042.16.206.254.366.211l1.352-.361a.3.3 0 1 0-.154-.58m21.984 0a.3.3 0 1 0-.155.58l1.352.361a.299.299 0 1 0 .156-.578zM22.29 37.359a.3.3 0 0 0-.227.032l-1.213.699a.3.3 0 1 0 .3.52l1.212-.7a.3.3 0 0 0-.072-.55zm19.418 0a.3.3 0 0 0-.072.55l1.21.7a.3.3 0 1 0 .301-.52l-1.213-.698a.3.3 0 0 0-.226-.032m-17.7 2.33a.3.3 0 0 0-.212.088l-.99.99a.301.301 0 0 0 .425.426l.99-.99a.301.301 0 0 0-.212-.514zm15.98 0a.3.3 0 0 0-.212.514l.99.99a.3.3 0 0 0 .424-.426l-.989-.99a.3.3 0 0 0-.212-.088zM26.27 41.496a.3.3 0 0 0-.182.14l-.7 1.212a.3.3 0 1 0 .52.3l.7-1.213a.3.3 0 0 0-.338-.439m11.457 0a.3.3 0 0 0-.338.44l.699 1.212a.3.3 0 1 0 .52-.3l-.7-1.211a.3.3 0 0 0-.181-.14zM31.998 42a.3.3 0 0 0-.3.3v2.4a.3.3 0 1 0 .6 0v-2.4a.3.3 0 0 0-.3-.3m-2.848.625a.3.3 0 0 0-.367.213l-.361 1.351a.299.299 0 1 0 .578.156l.363-1.353a.3.3 0 0 0-.213-.367m5.696 0a.3.3 0 0 0-.213.367l.363 1.354c.043.16.207.254.367.21a.3.3 0 0 0 .211-.367l-.361-1.351a.3.3 0 0 0-.367-.213" style="paint-order:normal"/><ellipse cx="32" cy="32" filter="url(#g)" rx="8" ry="7.999" style="paint-order:normal"/><ellipse cx="32" cy="32" fill="url(#h)" rx="8" ry="7.999" style="paint-order:normal"/><circle cx="32" cy="32" r="6" filter="url(#i)" opacity=".15" style="paint-order:normal"/><circle cx="32" cy="32" r="6" fill="url(#j)" style="paint-order:normal"/><path fill="url(#k)" d="M32 26a6 6 0 0 0-6 6 6 6 0 0 0 6 6 6 6 0 0 0 6-6 6 6 0 0 0-6-6m0 .344A5.657 5.656 0 0 1 37.656 32 5.657 5.656 0 0 1 32 37.656 5.657 5.656 0 0 1 26.344 32 5.657 5.656 0 0 1 32 26.344" opacity=".19" style="paint-order:normal"/><circle cx="8" cy="31" r="1" fill="url(#l)" opacity=".9" style="paint-order:normal"/><circle cx="56" cy="31" r="1" fill="url(#m)" opacity=".9" style="paint-order:normal"/><circle cx="32" cy="8" r="1" fill="url(#n)" opacity=".9" style="paint-order:normal"/><circle cx="32" cy="56" r="1" fill="url(#o)" opacity=".9" style="paint-order:normal"/><path fill="#9fadb1" stroke="#697e86" stroke-linecap="round" stroke-linejoin="round" stroke-width=".2" d="M29 13h6l-3 3v0z" opacity=".9" style="paint-order:normal"/></g></svg>