<svg xmlns="http://www.w3.org/2000/svg" width="64" height="64"><defs><linearGradient id="c" x1="7.937" x2="7.937" y1="7.408" y2="1.852" gradientTransform="scale(3.7796)" gradientUnits="userSpaceOnUse"><stop offset="0" stop-color="#4d93ff"/><stop offset="1" stop-color="#60c3ff"/></linearGradient><linearGradient id="b" x1="30" x2="30" y1="54" y2="10.876" gradientUnits="userSpaceOnUse"><stop offset="0" stop-color="#343434"/><stop offset="1" stop-color="#585858"/></linearGradient><linearGradient id="a" x1="7.937" x2="7.937" y1="15.081" y2="1.852" gradientTransform="scale(3.7796)" gradientUnits="userSpaceOnUse"><stop offset="0" stop-color="#1759f2"/><stop offset="1" stop-color="#39b4ff"/></linearGradient><filter id="d" width="1.294" height="1.294" x="-.147" y="-.147" color-interpolation-filters="sRGB"><feGaussianBlur stdDeviation="2.205"/></filter></defs><linearGradient id="e" x1="16" x2="16" y1="28" y2="4" gradientTransform="scale(2)" gradientUnits="userSpaceOnUse"><stop offset="0" stop-color="#eff0f1"/><stop offset="1" stop-color="#fcfcfc"/></linearGradient><rect width="56.002" height="56.002" x="4" y="3.969" fill="url(#a)" rx="13.002" ry="13.002"/><rect width="49.998" height="49.939" x="7.002" y="7" fill="url(#b)" rx="10" ry="10"/><rect width="50" height="1" x="7" y="31.5" opacity=".35" rx="0" ry="0"/><rect width="50" height="1" x="7" y="-32.5" opacity=".35" rx="0" ry="0" transform="rotate(90)"/><path fill="url(#c)" d="M17.002 3.969A12.973 12.973 0 0 0 4 16.97V30h26V3.969Z"/><path d="M44 15v2H20a3.98 3.98 0 0 0-3.132 1.512A4 4 0 0 0 16 21v10a4 4 0 0 0 .06.68 4 4 0 0 0 .374 1.132A4 4 0 0 0 20 35h22a2 2 0 0 1 .98.26 2 2 0 0 1 .388.284A2 2 0 0 1 44 37v6a2 2 0 0 1-2 2H20v-2l-6 4 6 4v-2h24a3.98 3.98 0 0 0 2.872-1.214 4 4 0 0 0 .984-1.716A4 4 0 0 0 48 45V35a4 4 0 0 0-.06-.68 4 4 0 0 0-.374-1.132A4 4 0 0 0 44 31H22a2 2 0 0 1-.98-.26 2 2 0 0 1-.388-.284A2 2 0 0 1 20 29v-6a2 2 0 0 1 2-2h22v2l6-4z" filter="url(#d)" opacity=".15"/><path fill="url(#e)" d="M44 14v2H20a3.98 3.98 0 0 0-3.132 1.512A4 4 0 0 0 16 20v10a4 4 0 0 0 .06.68 4 4 0 0 0 .374 1.132A4 4 0 0 0 20 34h22a2 2 0 0 1 .98.26 2 2 0 0 1 .388.284A2 2 0 0 1 44 36v6a2 2 0 0 1-2 2H20v-2l-6 4 6 4v-2h24a3.98 3.98 0 0 0 2.872-1.214 4 4 0 0 0 .984-1.716A4 4 0 0 0 48 44V34a4 4 0 0 0-.06-.68 4 4 0 0 0-.374-1.132A4 4 0 0 0 44 30H22a2 2 0 0 1-.98-.26 2 2 0 0 1-.388-.284A2 2 0 0 1 20 28v-6a2 2 0 0 1 2-2h22v2l6-4z"/></svg>