<svg xmlns="http://www.w3.org/2000/svg" width="64" height="64"><defs><linearGradient id="a" x1="7.937" x2="7.937" y1="15.081" y2="1.852" gradientTransform="scale(3.7796)" gradientUnits="userSpaceOnUse"><stop offset="0" stop-color="#363636"/><stop offset="1" stop-color="#6c6c6c"/></linearGradient><filter id="b" width="1.216" height="1.216" x="-.108" y="-.108" color-interpolation-filters="sRGB"><feGaussianBlur stdDeviation="1.08"/></filter></defs><rect width="56.002" height="56.002" x="4" y="3.969" fill="url(#a)" rx="13.002" ry="13.002"/><rect width="24" height="24" x="13" y="13" filter="url(#b)" opacity=".1" rx="2" style="paint-order:normal" transform="translate(.696 .696)scale(1.3043)"/><path fill="#33d17a" d="M18.755 16.348a2.4 2.4 0 0 0-1.705.704l18.861 29.295 11.034-29.295a2.4 2.4 0 0 0-1.703-.704z" enable-background="new"/><path fill="#5799e9" d="M17.052 17.052a2.4 2.4 0 0 0-.704 1.705v26.488c0 .666.268 1.269.704 1.703l29.295-1.904L32 32z" enable-background="new"/><path fill="#837f8a" d="m46.946 17.052-7.122 7.122 2.61 5.217 5.216 2.608V18.755a2.4 2.4 0 0 0-.704-1.703" enable-background="new"/><path fill="#f8db51" d="m31.999 31.999 7.826-7.826L47.65 32l-6.522 11.739z" enable-background="new" style="paint-order:normal"/><path fill="#b78860" d="M47.651 31.999 31.999 47.651h13.244a2.4 2.4 0 0 0 2.408-2.408z" enable-background="new"/><path fill="#ff9536" d="M39.825 39.825H24.173l7.826-7.826z" enable-background="new"/><path fill="#f65960" d="m24.173 39.825-7.122 7.122a2.4 2.4 0 0 0 1.704.704h13.244l7.826-7.826z" enable-background="new"/></svg>