<svg xmlns="http://www.w3.org/2000/svg" xmlns:xlink="http://www.w3.org/1999/xlink" width="64" height="64"><defs><linearGradient id="e" x1="23" x2="23" y1="238" y2="222" gradientTransform="rotate(90 184 149)scale(1.5)" gradientUnits="userSpaceOnUse"><stop offset="0" stop-color="#2ec27e"/><stop offset=".5" stop-color="#8ff0a4"/><stop offset="1" stop-color="#2ec27e"/></linearGradient><linearGradient id="g" x1="15" x2="33" y1="58" y2="58" gradientTransform="translate(-36 -35)" gradientUnits="userSpaceOnUse"><stop offset="0" stop-color="#2ec27e"/><stop offset=".5" stop-color="#57e389"/><stop offset="1" stop-color="#2ec27e"/></linearGradient><linearGradient id="h" x1="46" x2="46" y1="232" y2="228" gradientTransform="matrix(0 -1.1875 -2 0 448 108.5)" gradientUnits="userSpaceOnUse"><stop offset="0" stop-color="#9a9996"/><stop offset=".5" stop-color="#fff"/><stop offset="1" stop-color="#c0bfbc"/></linearGradient><linearGradient xlink:href="#a" id="i" x1="81" x2="81" y1="47" y2="65" gradientTransform="matrix(1.5 0 0 1.5556 -98 -94.11)"/><linearGradient id="a" gradientUnits="userSpaceOnUse"><stop offset="0" stop-color="#c0bfbc"/><stop offset=".5" stop-color="#deddda"/><stop offset="1" stop-color="#9a9996"/></linearGradient><linearGradient xlink:href="#a" id="j" x1="92" x2="104" y1="244" y2="244" gradientTransform="matrix(.83333 0 0 .82143 -26.667 -178.43)"/><linearGradient id="k" x1="92" x2="104" y1="244" y2="244" gradientTransform="matrix(1.5 0 0 .92857 -92 -183.57)" gradientUnits="userSpaceOnUse"><stop offset="0" stop-color="#ff7800"/><stop offset=".25" stop-color="#ffa348"/><stop offset=".75" stop-color="#ff7800"/><stop offset="1" stop-color="#c64600"/></linearGradient><linearGradient id="c" x1="32.001" x2="32.001" y1="59.971" y2="3.969" gradientTransform="translate(-.001 .03)" gradientUnits="userSpaceOnUse"><stop offset="0" stop-color="#4c3f2d"/><stop offset="1" stop-color="#927154"/></linearGradient><clipPath id="p"/><clipPath id="l"/><clipPath id="n"/><mask id="q" maskUnits="userSpaceOnUse"><g filter="url(#b)" transform="scale(1.00001)"><path fill-opacity=".4" d="M0 0h128v128H0z"/></g></mask><mask id="m" maskUnits="userSpaceOnUse"><g filter="url(#b)" transform="scale(1.00001)"><path fill-opacity=".4" d="M0 0h128v128H0z"/></g></mask><mask id="o" maskUnits="userSpaceOnUse"><g filter="url(#b)" transform="scale(1.00001)"><path fill-opacity=".4" d="M0 0h128v128H0z"/></g></mask><filter id="b" width="1" height="1" x="0" y="0"><feColorMatrix in="SourceGraphic" values="0 0 0 0 1 0 0 0 0 1 0 0 0 0 1 0 0 0 1 0"/></filter><filter id="d" width="1.161" height="1.163" x="-.081" y="-.082" color-interpolation-filters="sRGB"><feGaussianBlur stdDeviation="1.664"/></filter><radialGradient id="f" cx="24" cy="53" r="14" gradientTransform="translate(-36 -35)" gradientUnits="userSpaceOnUse"><stop offset="0" stop-color="#26a269"/><stop offset=".7" stop-color="#26a269" stop-opacity=".478"/><stop offset="1" stop-color="#26a269" stop-opacity="0"/></radialGradient></defs><rect width="56.002" height="56.002" x="3.999" y="3.999" fill="url(#c)" rx="13.002" ry="13.002"/><path d="M16.775 8.994a5 5 0 0 0-.447.02 5.12 5.12 0 0 0-3.36 1.671q-.173.191-.328.399l-.012.016a5 5 0 0 0-.242.359q-.034.054-.066.11a5 5 0 0 0-.111.2l-.028.057a5 5 0 0 0-.287.676l-.004.012q-.034.105-.064.213l-.022.072q-.026.102-.049.205l-.01.043q-.024.112-.044.226l-.006.036q-.019.112-.031.226l-.008.059-.002.021a5 5 0 0 0-.028.526v12.012a5.13 5.13 0 0 0 1.176 3.275q.055.065.112.129v.027q0 .361.064.705a4 4 0 0 0-.064.582 3.86 3.86 0 0 0 2.144 3.327v8.257h-.43a.317.317 0 0 0-.304.409l.045.148a.33.33 0 0 0-.057.285l1.121 4.104a.27.27 0 0 0 .26.2h2.162a.27.27 0 0 0 .26-.198l1.12-4.106a.33.33 0 0 0-.056-.285l.045-.149a.317.317 0 0 0-.305-.408h-.43v-8.258a3.86 3.86 0 0 0 2.145-3.326 4 4 0 0 0-.064-.58q.064-.344.064-.707v-.027q.057-.064.112-.13a5.2 5.2 0 0 0 .771-1.27c.26-.616.404-1.294.404-2.004V14.14a5.2 5.2 0 0 0-.177-1.342l-.008-.032-.012-.039a5 5 0 0 0-.158-.464l-.002-.008-.002-.006q-.04-.097-.082-.192a5 5 0 0 0-.121-.25l-.02-.039a5 5 0 0 0-.111-.2q-.037-.063-.076-.124a5 5 0 0 0-.223-.332l-.012-.017-.021-.03a5 5 0 0 0-.69-.752 5.12 5.12 0 0 0-2.984-1.3h-.002a5 5 0 0 0-.445-.02m13.297 1.715c-.71 0-1.287.599-1.287 1.336v9.342c0 .737.577 1.334 1.287 1.334h5.148c.71 0 1.287-.597 1.287-1.334v-1.24h2.573v.43c0 .71.577 1.286 1.287 1.286h3.004v5.297a2.57 2.57 0 0 0-1.717 2.424v17.16c0 .24.036.47.098.691a2.25 2.25 0 0 0 2.154 1.881h3.219a2.25 2.25 0 0 0 2.135-1.808c.075-.242.117-.498.117-.764v-17.16c0-1.12-.718-2.07-1.717-2.424v-5.297h3.004c.71 0 1.287-.577 1.287-1.287v-2.992c3.555.052 6.29.404 7.934 2.777l1.287-.642v-1.717c-1.026-4.105-5.783-6.243-10.324-6.42h-.006a1 1 0 0 0-.178-.014H40.367c-.71 0-1.287.56-1.287 1.248v.467h-2.572v-1.238c0-.737-.577-1.336-1.287-1.336zm-2.144 14.229a6.866 6.866 0 0 0-4.215 7.375q-.017.228-.018.46a6.8 6.8 0 0 0 3.373 5.874v15.818a3.423 3.423 0 0 0 3.434 3.431 3.423 3.423 0 0 0 3.431-3.431V38.647a6.8 6.8 0 0 0 3.358-6.334q.074-.495.074-1.012a6.87 6.87 0 0 0-4.291-6.363v1.537l-.022-.01v4.846L30.5 32.588l-2.551-1.275v-4.848l-.022.01zm2.574 27.812a1.29 1.29 0 0 1 1.191.857 1.29 1.29 0 0 1-1.191.858 1.29 1.29 0 0 1-1.194-.858 1.29 1.29 0 0 1 1.194-.857" filter="url(#d)" opacity=".15"/><path fill="url(#e)" d="M-12-25c-6.629 0-12 5.371-12 12v28c0 6.629 5.371 12 12 12S0 21.629 0 15v-28c0-6.629-5.371-12-12-12" transform="translate(23.268 18.349)scale(.42897)"/><path fill="url(#f)" d="M0 15c0 6.629-5.371 12-12 12s-12-5.371-12-12 5.371-12 12-12S0 8.371 0 15" transform="translate(23.268 18.349)scale(.42897)"/><path fill="url(#g)" d="M-3 23c0 4.969-4.031 9-9 9s-9-4.031-9-9 4.031-9 9-9 9 4.031 9 9" transform="translate(23.268 18.349)scale(.42897)"/><path fill="#26a269" d="M21.98 29.502a3.862 3.862 0 0 1-7.72 0 3.862 3.862 0 0 1 7.72 0"/><path fill="url(#h)" d="M-8 57V27c0-2.21-1.79-4-4-4s-4 1.79-4 4v30c0 2.21 1.79 4 4 4s4-1.79 4-4" transform="translate(23.268 18.349)scale(.42897)"/><path fill="#c0bfbc" d="m20.582 41.927-1.121 4.106a.27.27 0 0 1-.26.199h-2.162a.27.27 0 0 1-.26-.2l-1.12-4.105a.33.33 0 0 1 .056-.285.32.32 0 0 1 .26-.129h4.29c.102 0 .198.047.26.13.062.08.083.185.057.284m0 0"/><path fill="#deddda" d="m20.57 41.495-1.104 3.681a.28.28 0 0 1-.265.198h-2.162a.28.28 0 0 1-.264-.198l-1.105-3.681a.317.317 0 0 1 .305-.41h4.29a.317.317 0 0 1 .305.41m0 0"/><path fill="#2ec27e" d="M18.121 7.625a5.1 5.1 0 0 0-1.717.299v8.709a1.717 1.717 0 0 0 3.432 0v-8.71a5.1 5.1 0 0 0-1.715-.298"/><path fill="#26a269" d="M21.553 8.945v10.262c0 .948.767 1.715 1.715 1.715v-8.15a5.13 5.13 0 0 0-1.715-3.826zm-6.864-.002a5.13 5.13 0 0 0-1.717 3.829v8.15c.948 0 1.717-.767 1.717-1.715z"/><path fill="#9a9996" d="M62.518 18.349v-1.716l-.98-.332.038 1.753zm-25.952-6.434h7.721v6.863h-7.721z"/><path fill="url(#i)" d="M19-21h12c1.656 0 3 1.395 3 3.113V3.891C34 5.609 32.656 7 31 7H19c-1.656 0-3-1.39-3-3.11v-21.777C16-19.605 17.344-21 19-21m0 0" transform="translate(23.268 18.349)scale(.42897)"/><path fill="#9a9996" d="M41.713 10.199H52.01c.71 0 1.286.576 1.286 1.287v7.721c0 .71-.576 1.287-1.286 1.287H41.713c-.71 0-1.287-.577-1.287-1.287v-7.721c0-.71.577-1.287 1.287-1.287m0 0"/><path fill="#9a9996" d="M51.365 16.204c4.504 0 7.936 0 9.866 2.788l1.287-.643c-1.072-4.29-4.504-6.434-9.223-6.434h-3.217z"/><path fill="#c0bfbc" d="M51.365 14.488c4.528 0 7.936 0 9.866 2.789l1.287-.644c-1.072-4.29-6.22-6.434-10.938-6.434h-1.502z"/><path fill="#c0bfbc" d="M41.713 10.199H52.01c.71 0 1.286.56 1.286 1.248v4.367c0 .69-.576 1.248-1.286 1.248H41.713c-.71 0-1.287-.558-1.287-1.248v-4.367c0-.689.577-1.248 1.287-1.248m0 0"/><path fill="url(#j)" d="M55-1a5 5 0 0 1 5 5v36a5 5 0 1 1-10 0V4a5 5 0 0 1 5-5" transform="translate(23.268 18.349)scale(.42897)"/><path fill="url(#k)" d="M52 17h6c3.313 0 6 2.688 6 6v40c0 3.313-2.688 6-6 6h-6c-3.313 0-6-2.688-6-6V23c0-3.313 2.688-6 6-6" transform="translate(23.268 18.349)scale(.42897)"/><path fill="#c64600" d="M45.252 43.444h3.218a2.253 2.253 0 0 1 0 4.504h-3.218a2.253 2.253 0 0 1 0-4.504"/><path fill="#8f3200" d="M96 96h6c.55 0 1 .45 1 1s-.45 1-1 1h-6c-.55 0-1-.45-1-1s.45-1 1-1" clip-path="url(#l)" mask="url(#m)" transform="translate(4.393 -3.528)scale(.42897)"/><path fill="#8f3200" d="M96 100h6c.55 0 1 .45 1 1s-.45 1-1 1h-6c-.55 0-1-.45-1-1s.45-1 1-1" clip-path="url(#n)" mask="url(#o)" transform="translate(4.393 -3.528)scale(.42897)"/><path fill="#8f3200" d="M96 104h6c.55 0 1 .45 1 1s-.45 1-1 1h-6c-.55 0-1-.45-1-1s.45-1 1-1" clip-path="url(#p)" mask="url(#q)" transform="translate(4.393 -3.528)scale(.42897)"/><path fill="#a7a6a4" d="M29.296 25.095a6.805 6.805 0 0 0 2.55 13.114 6.806 6.806 0 0 0 6.807-6.805c0-2.855-1.76-5.3-4.255-6.309v6.309l-2.552 1.276-2.55-1.276z"/><path fill="#deddda" d="M29.274 23.568a6.864 6.864 0 0 0 2.573 13.226 6.865 6.865 0 0 0 6.865-6.863 6.87 6.87 0 0 0-4.291-6.363v6.363l-2.574 1.287-2.573-1.287z"/><path fill="#9a9996" d="M31.847 33.363a3.423 3.423 0 0 0-3.432 3.432v16.3a3.423 3.423 0 0 0 3.432 3.432 3.423 3.423 0 0 0 3.432-3.432v-16.3a3.423 3.423 0 0 0-3.432-3.432m0 18.017a1.287 1.287 0 1 1 0 2.574 1.287 1.287 0 0 1 0-2.574"/><path fill="#deddda" d="M31.847 32.505a3.423 3.423 0 0 0-3.432 3.432v16.3a3.423 3.423 0 0 0 3.432 3.432 3.423 3.423 0 0 0 3.432-3.432v-16.3a3.423 3.423 0 0 0-3.432-3.432m0 18.017a1.287 1.287 0 1 1 0 2.574 1.287 1.287 0 0 1 0-2.574"/><path fill="#a7a6a4" d="M31.847 35.937c.948 0 1.716.767 1.716 1.716v7.721a1.715 1.715 0 1 1-3.432 0v-7.721c0-.949.768-1.716 1.716-1.716m0 0"/></svg>