<svg xmlns="http://www.w3.org/2000/svg" width="64" height="64"><defs><linearGradient id="a" x1="7.937" x2="7.937" y1="15.081" y2="1.852" gradientTransform="scale(3.7796)" gradientUnits="userSpaceOnUse"><stop offset="0" stop-color="#f1efeb"/><stop offset="1" stop-color="#fdfcfc"/></linearGradient><linearGradient id="b" x1="33" x2="33" y1="17" y2="47" gradientUnits="userSpaceOnUse"><stop offset="0" stop-color="#4300c0"/><stop offset="1" stop-color="#7000de"/></linearGradient></defs><rect width="56.002" height="56.002" x="4" y="3.969" fill="url(#a)" rx="13.002" ry="13.002"/><path fill="url(#b)" d="M31.91 14a18 18 0 0 0-6.766 1.357A7 7 0 0 1 28 21a7 7 0 0 1-7 7 7 7 0 0 1-5.64-2.857A18 18 0 0 0 14 32a18 18 0 0 0 18 18 18 18 0 0 0 18-18 18 18 0 0 0-18-18z"/></svg>