<svg xmlns="http://www.w3.org/2000/svg" width="64" height="64" viewBox="0 0 64 64"><defs><linearGradient id="a" x1=".5" x2=".521" y1="1" y2=".004"><stop offset="0%" style="stop-color:rgba(1,1,1,.1)"/><stop offset="100%" style="stop-color:rgba(255,255,255,.1)"/></linearGradient></defs><path d="M16 4h32c6.623 0 12 5.377 12 12v32c0 6.623-5.377 12-12 12H16C9.377 60 4 54.623 4 48V16C4 9.377 9.377 4 16 4" style="stroke:none;fill:#fff;stroke-miterlimit:10"/><path d="M16 4h32c6.623 0 12 5.377 12 12v32c0 6.623-5.377 12-12 12H16C9.377 60 4 54.623 4 48V16C4 9.377 9.377 4 16 4" style="stroke:none;fill:url(#a);stroke-miterlimit:10"/><defs><linearGradient id="b" x1=".5" x2=".5" y1="0" y2="1"><stop offset="0%" style="stop-color:#46bac6"/><stop offset="100%" style="stop-color:#1497a5"/></linearGradient></defs><path d="M16 4h32c6.623 0 12 5.377 12 12v32c0 6.623-5.377 12-12 12H16C9.377 60 4 54.623 4 48V16C4 9.377 9.377 4 16 4" style="stroke:none;fill:url(#b);stroke-miterlimit:10"/><g fill="#fff" style="opacity:.9"><path d="M18.262 39.203c-.488-.206-.971-.399-1.443-.612-1.501-.679-2.914-1.497-4.1-2.66-1.138-1.117-1.866-2.418-1.796-4.075.054-1.277.598-2.33 1.431-3.255 1.337-1.486 3.035-2.436 4.833-3.233.228-.101.459-.194.688-.291-.134-.704-.305-1.383-.384-2.073-.052-.462-.214-.736-.622-.997-1.317-.841-1.848-2.435-1.387-3.926.453-1.462 1.797-2.438 3.355-2.452a.7.7 0 0 0 .412-.148c1.107-.946 2.401-1.205 3.805-1.053 2.247.243 4.21 1.216 6.069 2.421.944.612 1.841 1.294 2.777 1.958.61-.452 1.243-.944 1.899-1.403 1.626-1.138 3.339-2.109 5.261-2.654 1.268-.359 2.556-.543 3.855-.137 1.614.505 2.603 1.646 3.128 3.203.583 1.728.496 3.498.217 5.268-.097.617-.223 1.228-.328 1.803 1.003.501 2.02.958 2.987 1.504 1.386.781 2.629 1.749 3.451 3.152.961 1.641.938 3.298-.014 4.929-.173.295-.213.534-.141.861a3.45 3.45 0 0 1-1.477 3.655c-1.212.8-2.722.767-3.948-.07a.53.53 0 0 0-.384-.051c-.221.055-.425.173-.644.241-.203.063-.245.148-.187.362.335 1.241.591 2.498.665 3.785.083 1.47.042 2.929-.57 4.304-.947 2.125-2.868 3.178-5.193 2.898-2.299-.277-4.293-1.287-6.194-2.52-.752-.488-1.461-1.042-2.18-1.578-.158-.117-.257-.138-.429-.007-.665.505-1.358.974-2.014 1.491-.143.113-.219.365-.245.563-.09.713-.339 1.351-.791 1.911-1.226 1.514-3.529 1.711-4.974.408a.83.83 0 0 0-.669-.236c-.843.056-1.679-.024-2.448-.387-1.336-.632-2.204-1.695-2.648-3.094-.403-1.272-.453-2.578-.341-3.903.107-1.272.353-2.513.684-3.741.013-.048.021-.098.034-.161m13.646-16.031c-1.201.063-2.409.118-3.617.195a.72.72 0 0 0-.448.208c-1.944 2.155-3.626 4.501-5.114 6.99-.111.186-.118.335-.013.517.547.949 1.07 1.911 1.637 2.848 1 1.655 2.142 3.213 3.369 4.706.102.123.276.254.424.262 1.178.068 2.357.147 3.535.146 1.23 0 2.461-.082 3.691-.139.278-.013.518-.071.727-.33a46 46 0 0 0 4.959-7.512c.097-.183.09-.32-.021-.488-.202-.304-.379-.624-.572-.934a44 44 0 0 0-4.494-6.016c-.101-.115-.258-.246-.397-.255-1.218-.081-2.438-.134-3.669-.198zm11.824 1.022c.12-.911.273-1.783.343-2.661.093-1.161.027-2.312-.386-3.425-.465-1.247-1.326-2.016-2.643-2.264-1.145-.215-2.245-.002-3.323.361-1.76.593-3.321 1.554-4.804 2.65-.173.128-.34.263-.553.428.108.084.185.137.251.2 1.039 1.012 2.086 2.016 3.107 3.045.223.224.448.349.751.369.29.018.584.034.87.08 1.356.214 2.716.421 4.067.668.745.135 1.475.347 2.32.549m1.029 15.286c-.088.023-.136.034-.184.049-2.4.775-4.857 1.272-7.36 1.562-.107.012-.223.099-.302.182-.656.699-1.299 1.411-1.956 2.109-.378.4-.775.782-1.172 1.182.049.044.085.08.125.11 1.067.808 2.19 1.532 3.401 2.103 1.283.604 2.608 1.057 4.057 1.035 1.712-.025 2.984-.982 3.468-2.629.557-1.895.318-3.778-.078-5.703zM21.15 16.531c2.07 2.053 1.101 5.212-1.395 5.971l.336 1.784c.076-.005.107 0 .137-.01a37.6 37.6 0 0 1 6.839-1.321c.334-.033.643-.076.923-.363 1.018-1.048 2.078-2.055 3.123-3.076.085-.083.173-.164.271-.256-1.379-1.071-2.797-2.004-4.365-2.685-1.206-.524-2.454-.896-3.792-.803-.75.053-1.455.259-2.076.758zm-3.132 9.265c-1.397.536-3.296 1.728-4.267 3.035-.52.699-.896 1.463-.887 2.357.009.906.385 1.683.939 2.372 1.357 1.687 3.227 2.593 5.177 3.399.038-.079.067-.132.092-.188.588-1.319 1.181-2.636 1.759-3.959.048-.11.024-.284-.029-.397-.384-.823-.822-1.62-1.169-2.458-.566-1.366-1.074-2.756-1.615-4.161m1.006 13.717c-.016.046-.06.131-.07.221-.121 1.055-.294 2.11-.336 3.168-.048 1.235.188 2.43.879 3.497.564.87 1.968 1.537 2.959 1.376.209-1.412.936-2.45 2.298-2.945 1.378-.502 2.604-.147 3.7.83l1.539-1.077c-.043-.064-.06-.102-.088-.131a620 620 0 0 0-3.074-3.208.67.67 0 0 0-.351-.16c-1.24-.213-2.492-.372-3.722-.632-1.25-.262-2.48-.62-3.734-.94zM45.68 25.732c-.688 2.372-1.639 4.602-2.763 6.763-.045.086-.015.239.031.337.379.825.777 1.64 1.151 2.467.231.508.43 1.032.642 1.545q.608-.164.602-.731c-.028-2.438 2.392-4.145 4.677-3.301.074.027.154.04.227.059.571-.974.719-1.963.281-3.009a5.3 5.3 0 0 0-1.107-1.656c-1.055-1.091-2.344-1.83-3.741-2.474m-9.056-2.217c1.813 2.084 3.402 4.305 4.847 6.657.624-1.039 1.957-4.588 1.987-5.264-.93-.475-5.889-1.496-6.833-1.394zm-14.377 6.666c.803-1.184 1.541-2.335 2.343-3.441.799-1.101 1.662-2.157 2.533-3.278-.619.091-1.193.176-1.768.257-1.631.231-3.23.606-4.807 1.089-.258.078-.28.191-.206.405.302.877.574 1.766.905 2.631.3.785.661 1.547 1.001 2.336zm2.276 8.26-3.313-5.134-1.601 3.876c1.654.585 3.261.974 4.914 1.258m14.76-.056c.407-.083.805-.142 1.191-.247 1.133-.308 2.261-.635 3.392-.951.195-.055.206-.16.139-.327-.121-.299-.217-.609-.341-.906-.369-.881-.746-1.758-1.121-2.636zm-4.187-15.652.07-.085c-1.052-.957-2.102-1.917-3.163-2.864-.05-.045-.236-.016-.299.043-.989.912-1.967 1.834-2.946 2.756-.047.044-.073.108-.1.151h6.44zm-4.962 18.634c.552.528 1.046.989 1.526 1.462.166.164.28.151.437-.01.278-.282.578-.542.864-.816.204-.193.403-.393.65-.637z"/><path d="M31.906 24.882a6.226 6.226 0 0 1 6.193 6.28c-.028 3.427-2.84 6.185-6.282 6.163-3.431-.021-6.18-2.842-6.156-6.316.023-3.368 2.858-6.149 6.245-6.127"/></g></svg>