<svg xmlns="http://www.w3.org/2000/svg" xmlns:xlink="http://www.w3.org/1999/xlink" width="64" height="64"><defs><linearGradient id="c"><stop offset="0" style="stop-color:#2e7ddd;stop-opacity:1"/><stop offset=".183" style="stop-color:#62a0ea;stop-opacity:1"/><stop offset=".75" style="stop-color:#62a0ea;stop-opacity:1"/><stop offset="1" style="stop-color:#2a7bdc;stop-opacity:1"/></linearGradient><linearGradient id="e"><stop offset="0" style="stop-color:#cac8c2;stop-opacity:1"/><stop offset=".183" style="stop-color:#fcf8f4;stop-opacity:1"/><stop offset=".75" style="stop-color:#fbf8f6;stop-opacity:1"/><stop offset="1" style="stop-color:#dbd9d4;stop-opacity:1"/></linearGradient><linearGradient id="b"><stop offset="0" style="stop-color:#f9f9f9;stop-opacity:1"/><stop offset="1" style="stop-color:#fdfaf2;stop-opacity:1"/></linearGradient><linearGradient xlink:href="#a" id="m" x1="7.937" x2="7.937" y1="15.081" y2="1.852" gradientTransform="scale(3.7796)" gradientUnits="userSpaceOnUse"><stop offset="0" stop-color="#ffc30d"/><stop offset="1" stop-color="#fff63f"/></linearGradient><linearGradient id="a" x1="7.937" x2="7.937" y1="15.081" y2="1.852" gradientTransform="scale(3.7796)" gradientUnits="userSpaceOnUse" spreadMethod="pad"><stop offset="0" stop-color="#ffc30d" style="stop-color:#d9a300;stop-opacity:1"/><stop offset="1" stop-color="#fff63f"/></linearGradient><linearGradient xlink:href="#b" id="n" x1="199.441" x2="199.441" y1="-3.03" y2="39.97" gradientUnits="userSpaceOnUse"/><linearGradient xlink:href="#c" id="k" x1="7.213" x2="60.002" y1="53.188" y2="53.188" gradientUnits="userSpaceOnUse"/><linearGradient xlink:href="#d" id="f" x1="-287.972" x2="-287.972" y1="114.64" y2="92.859" gradientTransform="matrix(.32423 0 0 .3413 98.435 -18.114)"/><linearGradient id="d" gradientUnits="userSpaceOnUse"><stop offset="0" stop-color="#1c71d8"/><stop offset="1" stop-color="#62a0ea"/></linearGradient><linearGradient xlink:href="#d" id="g" x1="-287.972" x2="-287.972" y1="114.64" y2="92.859" gradientTransform="matrix(.32423 0 0 .3413 98.435 -9.99)"/><linearGradient xlink:href="#d" id="h" x1="-287.972" x2="-287.972" y1="114.64" y2="92.859" gradientTransform="matrix(.32423 0 0 .3413 98.435 -1.868)"/><linearGradient xlink:href="#d" id="i" x1="-287.972" x2="-287.972" y1="114.64" y2="92.859" gradientTransform="matrix(.32423 0 0 .3413 98.435 6.255)"/><linearGradient xlink:href="#d" id="j" x1="-287.972" x2="-287.972" y1="114.64" y2="92.859" gradientTransform="matrix(.32423 0 0 .3413 98.435 14.378)"/><linearGradient xlink:href="#e" id="l" x1="7.213" x2="60.002" y1="53.188" y2="53.188" gradientTransform="translate(0 -1.353)" gradientUnits="userSpaceOnUse"/></defs><path fill="none" stroke="url(#f)" stroke-linecap="round" stroke-width="2.321" d="M6.125 8.187h1.36a3.963 3.963 0 0 1 3.962 3.962v3.68a3.963 3.963 0 0 1-3.962 3.962h-1.36a3.963 3.963 0 0 1-3.962-3.962v-3.68a3.963 3.963 0 0 1 3.962-3.962zm0 0" style="stroke:url(#f)"/><path fill="none" stroke="url(#g)" stroke-linecap="round" stroke-width="2.321" d="M6.125 16.31h1.36a3.963 3.963 0 0 1 3.962 3.962v3.68a3.963 3.963 0 0 1-3.962 3.962h-1.36a3.963 3.963 0 0 1-3.962-3.962v-3.68a3.963 3.963 0 0 1 3.962-3.962zm0 0" style="stroke:url(#g)"/><path fill="none" stroke="url(#h)" stroke-linecap="round" stroke-width="2.321" d="M6.125 24.433h1.36a3.963 3.963 0 0 1 3.962 3.962v3.68a3.963 3.963 0 0 1-3.962 3.962h-1.36a3.963 3.963 0 0 1-3.962-3.962v-3.68a3.963 3.963 0 0 1 3.962-3.962zm0 0" style="stroke:url(#h)"/><path fill="none" stroke="url(#i)" stroke-linecap="round" stroke-width="2.321" d="M6.125 32.556h1.36a3.963 3.963 0 0 1 3.962 3.962v3.68a3.963 3.963 0 0 1-3.962 3.962h-1.36a3.963 3.963 0 0 1-3.962-3.962v-3.68a3.963 3.963 0 0 1 3.962-3.962zm0 0" style="stroke:url(#i)"/><path fill="none" stroke="url(#j)" stroke-linecap="round" stroke-width="2.321" d="M6.125 40.679h1.36a3.963 3.963 0 0 1 3.962 3.962v3.68a3.963 3.963 0 0 1-3.962 3.962h-1.36a3.963 3.963 0 0 1-3.962-3.962v-3.68a3.963 3.963 0 0 1 3.962-3.962zm0 0" style="stroke:url(#j)"/><path d="M4 34.537v12.717C4 54.299 9.799 59.97 17.002 59.97H47c7.203 0 13.002-5.672 13.002-12.717V34.537c0 7.045-5.799 12.717-13.002 12.717H17.002C9.799 47.254 4 41.582 4 34.537" style="display:inline;fill:url(#k);stroke-width:.98898"/><path d="M4 33.184V45.9c0 7.045 5.799 12.717 13.002 12.717H47c7.203 0 13.002-5.672 13.002-12.717V33.184C60.002 40.229 54.203 45.9 47 45.9H17.002C9.799 45.9 4 40.229 4 33.184" style="display:inline;fill:url(#l);stroke-width:.98898"/><rect width="56.002" height="48.668" x="156.441" y="-3.03" fill="url(#m)" rx="13.002" ry="13.002" style="display:inline;fill:url(#n)" transform="translate(-152.44 6.999)"/><path fill="none" stroke="#62a0ea" stroke-linecap="round" stroke-width="1.852" d="M18.975 34.649a44 44 0 0 1 1.145-3.21c1.443-3.595 3.745-7.765 6.664-7.822 6.59-.126 5.1 15.372 10.955 14.352 6.02-1.05 8.216-15.74 15.861-2.778" style="display:inline"/><path fill="none" stroke="#c0bfbc" stroke-width="1.852" d="M17.954 40.746h33.332m-32.406.926V19.451" style="display:inline"/><path fill="#c0bfbc" d="m18.88 14.822-2.778 5.555h5.555zm36.11 25.924-5.556 2.778V37.97zm0 0" style="display:inline;stroke-width:.462944"/><path fill="#c0bfbc" stroke="#c0bfbc" stroke-linecap="round" stroke-width="1.16" d="M13.188 12.248a1.741 1.741 0 1 1-3.483 0 1.741 1.741 0 0 1 3.483 0zm0 16.246a1.741 1.741 0 1 1-3.483 0 1.741 1.741 0 0 1 3.483 0zm0 8.123a1.741 1.741 0 1 1-3.483 0 1.741 1.741 0 0 1 3.483 0zm0 8.123a1.741 1.741 0 1 1-3.483 0 1.741 1.741 0 0 1 3.483 0zm0-24.369a1.741 1.741 0 1 1-3.483 0 1.741 1.741 0 0 1 3.483 0zm0 0" style="display:inline"/><path fill="none" stroke="#62a0ea" stroke-linecap="round" stroke-width="2.321" d="M2.163 44.64a3.954 3.954 0 0 1 3.962-3.961h1.36a3.954 3.954 0 0 1 3.962 3.962m-9.284-8.123a3.954 3.954 0 0 1 3.962-3.962h1.36a3.954 3.954 0 0 1 3.962 3.962m-9.284-8.123a3.954 3.954 0 0 1 3.962-3.962h1.36a3.954 3.954 0 0 1 3.962 3.962m-9.284-8.123a3.954 3.954 0 0 1 3.962-3.962h1.36a3.954 3.954 0 0 1 3.962 3.962m-9.284-8.123a3.954 3.954 0 0 1 3.962-3.962h1.36a3.954 3.954 0 0 1 3.962 3.962" style="display:inline"/><g fill="none" style="display:inline;fill:#c0bfbc;fill-opacity:1"><path d="M42 96v-6m12 6v-6m12 6v-6m12 6v-6m12 6v-6" style="fill:#c0bfbc;fill-opacity:1" transform="translate(1.003 -9.8)scale(.58022)"/><path d="M58 272v-6m12 6v-6m12 6v-6" style="fill:#c0bfbc;fill-opacity:1" transform="rotate(90 92.434 82.634)scale(.58022)"/></g></svg>