<svg xmlns="http://www.w3.org/2000/svg" width="64" height="64" image-rendering="optimizeSpeed"><defs><linearGradient id="b" x1="32" x2="32" y1="13.511" y2="49.511" gradientUnits="userSpaceOnUse"><stop offset="0" stop-color="#fff"/><stop offset="1" stop-color="#dbf6f8"/></linearGradient><linearGradient id="a" x1="7.937" x2="7.937" y1="15.081" y2="1.852" gradientTransform="scale(3.7796)" gradientUnits="userSpaceOnUse"><stop offset="0" stop-color="#1866ee"/><stop offset="1" stop-color="#15c2fc"/></linearGradient></defs><rect width="56.002" height="56.002" x="4" y="3.969" fill="url(#a)" rx="13.002" ry="13.002"/><path fill="url(#b)" d="M43.852 13.512a32 32 0 0 0-1.119.03c-5.402.238-10.556 1.494-13.154 3.206-1.166.768-1.577 1.289-2.021 2.555-.75 2.14-1.215 5.679-1.229 9.345-.005 1.258.017 2.35.048 2.426s.09.138.13.138.39-.381.778-.848c3.854-4.64 11.831-10.631 18.92-14.209 1.877-.947 2.28-1.292 2.093-1.787-.21-.554-1.94-.876-4.446-.856m-19.186 6.366c-.44-.001-1.604.701-2.52 1.557-2.2 2.055-3.285 5.038-2.883 7.928.107.77.324 1.254.917 2.047 1.178 1.575 4.037 3.871 6.28 5.043.706.37.88.42.963.286.026-.042-.113-.62-.308-1.283-1.606-5.454-2.178-8.939-2.204-13.413-.008-1.419-.04-2.055-.103-2.12q-.047-.044-.142-.044zm14.478 2.589c-.217.003-.419.049-.802.141-1.474.356-3.238 1.352-5.323 3.004-.692.548-1.963 1.736-2.35 2.197-.463.55-.427.715.159.715 5.161-.006 7.51.145 10.585.68 1.567.271 2.846.579 4.628 1.11.646.194 1.232.335 1.302.315s.147-.16.17-.314c.07-.46-.534-2.283-1.044-3.149-1.433-2.432-3.74-4.074-6.433-4.577-.443-.083-.675-.125-.892-.122m-3.365 6.595c-.403.005-.429.16-.16.553 2.91 4.262 4.109 6.288 5.4 9.13.657 1.448 1.123 2.678 1.687 4.45.205.643.418 1.207.474 1.253.056.048.215.031.356-.036.42-.202 1.585-1.727 2.013-2.637 1.203-2.553 1.26-5.385.16-7.893-.363-.826-.386-.86-.971-1.39-1.124-1.017-2.94-1.914-5.48-2.706-.842-.263-2.54-.644-3.138-.705a3 3 0 0 0-.341-.019M16.3 29.95c-.505 0-.824 2.592-.523 4.26a9.3 9.3 0 0 0 3.59 5.799c.74.552 1.093.72 1.794.858 1.822.359 5.188-.077 8.157-1.057.986-.325 1.49-.575 1.445-.714-.015-.044-.787-.433-1.715-.863-4.995-2.317-8.52-4.572-11.862-7.589-.423-.382-.821-.694-.885-.694zm20.873 3.472c-.112-.006-.194.132-.273.414-1.399 4.969-2.182 7.188-3.532 10.002-.688 1.434-1.331 2.582-2.328 4.152-.36.569-.657 1.094-.657 1.167 0 .074.115.185.257.25.424.192 2.342.106 3.314-.15 2.73-.717 4.938-2.492 6.154-4.946.4-.808.411-.848.441-1.636.059-1.515-.42-3.483-1.443-5.939-.339-.814-1.137-2.361-1.475-2.858-.202-.298-.345-.45-.458-.456m-2.04 4.34c-.091 0-.637.217-1.215.483-5.628 2.59-8.904 3.584-14.582 4.428l-.67.1.011.254c.024.532 1.073 1.716 2.267 2.559a9.6 9.6 0 0 0 4.271 1.687c1.181.165 2.768.032 3.92-.329 1.272-.399 2.563-1.734 3.988-4.123 1.028-1.723 2.016-3.906 2.124-4.692.046-.336.036-.367-.114-.367"/></svg>