<svg xmlns="http://www.w3.org/2000/svg" xmlns:xlink="http://www.w3.org/1999/xlink" width="64" height="64" viewBox="0 0 16.933 16.933"><defs><filter id="k" width="1.109" height="1.133" x="-.055" y="-.066" color-interpolation-filters="sRGB"><feGaussianBlur stdDeviation=".302"/></filter><filter id="g" width="1.174" height="1.848" x="-.087" y="-.424" color-interpolation-filters="sRGB"><feGaussianBlur stdDeviation=".707"/></filter><filter id="n" width="1.04" height="1.476" x="-.02" y="-.238" color-interpolation-filters="sRGB"><feGaussianBlur stdDeviation=".105"/></filter><filter id="f" width="1.04" height="1.353" x="-.02" y="-.176" color-interpolation-filters="sRGB"><feGaussianBlur stdDeviation=".44"/></filter><filter id="l" width="1.083" height="1.22" x="-.041" y="-.11" color-interpolation-filters="sRGB"><feGaussianBlur stdDeviation=".341"/></filter><filter id="p" width="1.364" height="1.364" x="-.182" y="-.182" color-interpolation-filters="sRGB"><feGaussianBlur stdDeviation=".041"/></filter><filter id="d" width="1.119" height="1.121" x="-.059" y="-.061" color-interpolation-filters="sRGB"><feGaussianBlur stdDeviation="1.338"/></filter><linearGradient id="b"><stop offset="0" stop-color="#bebebe"/><stop offset="1" stop-color="#464646"/></linearGradient><linearGradient id="e" x1="8.466" x2="8.466" y1="12.477" y2="15.356" gradientTransform="matrix(.73771 0 0 .74145 2.221 1.842)" gradientUnits="userSpaceOnUse"><stop offset="0" stop-color="#f3f3f3"/><stop offset="1" stop-color="#e4e4e4"/></linearGradient><linearGradient xlink:href="#a" id="s" x1="408.56" x2="408.57" y1="-521.5" y2="-518.81" gradientTransform="matrix(.26458 0 0 .30867 -114.79 154.05)" gradientUnits="userSpaceOnUse"/><linearGradient id="a" x2="0" y1="-521.8" y2="-518.8" gradientTransform="matrix(1 0 0 1.6667 0 347.87)" gradientUnits="userSpaceOnUse"><stop offset="0" stop-color="#84cbfe"/><stop offset="1" stop-color="#84cbfe" stop-opacity="0"/></linearGradient><linearGradient xlink:href="#a" id="t" x1="408.56" x2="408.57" y1="-521.5" y2="-518.81" gradientTransform="matrix(.26458 0 0 .30867 -101.41 168.09)" gradientUnits="userSpaceOnUse"/><linearGradient id="c" x1="7.937" x2="7.937" y1="15.081" y2="1.852" gradientUnits="userSpaceOnUse"><stop offset="0" stop-color="#363636"/><stop offset="1" stop-color="#6c6c6c"/></linearGradient><radialGradient id="i" cx="32" cy="53.196" r="9.909" gradientTransform="matrix(.27715 0 0 .09654 -.402 6.087)" gradientUnits="userSpaceOnUse"><stop offset="0" stop-color="#fdfdfd"/><stop offset=".473" stop-color="#f5f5f5"/><stop offset="1" stop-color="#cecece"/></radialGradient><radialGradient id="m" cx="7.937" cy="13.903" r="7.142" gradientTransform="matrix(.82404 0 0 .96136 1.535 -2.032)" gradientUnits="userSpaceOnUse"><stop offset="0" stop-color="#fff"/><stop offset="1" stop-color="#fff" stop-opacity="0"/></radialGradient><radialGradient xlink:href="#b" id="o" cx="14.155" cy="14.42" r=".397" gradientUnits="userSpaceOnUse"/><radialGradient xlink:href="#b" id="q" cx="14.155" cy="14.42" r=".397" gradientTransform="translate(3.528 4.806)scale(.66667)" gradientUnits="userSpaceOnUse"/><radialGradient xlink:href="#b" id="r" cx="14.155" cy="14.42" r=".397" gradientTransform="translate(2.47 4.806)scale(.66667)" gradientUnits="userSpaceOnUse"/><clipPath id="j"><path fill="#929292" d="M3.814 1.38a.9.9 0 0 0-.36.065c-.16.053-.229.153-.275.316l-1.687 9.643a.45.45 0 0 0 .038.233.6.6 0 0 0 .169.21.7.7 0 0 0 .165.097c.09.038.192.06.296.06h3.746a3.496 5.043 0 0 1 2.56-1.619 3.496 5.043 0 0 1 2.562 1.619h3.744c.243 0 .47-.116.588-.29l.043-.077.012-.027a.5.5 0 0 0 .026-.206L13.495 1.76c-.046-.162-.114-.262-.274-.316a.9.9 0 0 0-.36-.064H8.465z"/></clipPath></defs><rect width="14.816" height="14.816" x="1.058" y="1.058" fill="url(#c)" rx="3.439" ry="3.439"/><path d="M14 5c-.543-.001-1.013.09-1.395.28-.62.23-.883.663-1.062 1.368L5.016 48.394a2.2 2.2 0 0 0 .037.647l.01.037c-.007.418.006.859.037 1.312.037 1.99.142 2.467.318 4.538.097 1.72 1.15 3.112 2.576 3.11L56.006 58c1.427-.001 2.48-1.352 2.576-3.072.177-2.071.282-2.55.319-4.54.03-.45.041-.888.035-1.304l.012-.043a2.2 2.2 0 0 0 .037-.649L51.457 6.65c-.179-.705-.441-1.138-1.062-1.369-.381-.19-.852-.28-1.395-.28H32zm18 38.982a13.526 21.831 0 0 1 6.977 3.176h-13.96A13.526 21.831 0 0 1 32 43.982" filter="url(#d)" opacity=".35" transform="translate(2.19 1.842)scale(.19617)"/><path fill="url(#e)" stroke="#000" stroke-opacity=".196" stroke-width=".265" d="M3.376 11.093c-.184.032-.18.334-.16.634.008.39.028.484.063.89.018.338.225.61.503.61l9.37-.007c.278 0 .484-.265.503-.603.034-.406.055-.5.063-.89.02-.301.024-.602-.16-.634H4.113z"/><path fill-rule="evenodd" d="M6.771 45.307c-.607 0-1.097.746-1.097 1.672v2.646c0 .926.49 1.672 1.097 1.672h15.867A9.864 5.113 0 0 1 32 47.786a9.864 5.113 0 0 1 9.353 3.511h15.875c.608 0 1.098-.746 1.098-1.672V46.98c0-.926-.49-1.672-1.098-1.672z" filter="url(#f)" opacity=".35" style="paint-order:stroke fill markers" transform="translate(2.19 1.842)scale(.19617)"/><path fill-rule="evenodd" d="M31.855 47a10.294 5.798 0 0 0-9.771 4h2.502a10.294 5.798 0 0 1 7.269-1.7 10.294 5.798 0 0 1 7.258 1.7h2.521a10.294 5.798 0 0 0-9.779-4" filter="url(#g)" opacity=".35" style="paint-order:stroke fill markers" transform="translate(2.19 1.646)scale(.19617)"/><path fill="url(#i)" d="M8.467 10.385a2.653 4.546 0 0 0-1.943 1.459h.172a2.02 1.209 0 0 1 1.772-.628 2.02 1.209 0 0 1 1.768.628h.175a2.653 4.546 0 0 0-1.943-1.459z"/><path fill="#b2b2b2" d="M4.936 2.824a.64.64 0 0 0-.273.054c-.123.045-.174.13-.21.27l-1.28 8.187a.43.43 0 0 0 .061.263.5.5 0 0 0 .222.195.5.5 0 0 0 .224.051h2.844a2.652 4.282 0 0 1 1.943-1.374 2.652 4.282 0 0 1 1.944 1.374h2.842a.52.52 0 0 0 .479-.312l.009-.022a.4.4 0 0 0 .019-.175l-1.476-8.189c-.035-.139-.088-.225-.209-.27a.64.64 0 0 0-.273-.053z"/><path fill="#d8d8d8" d="M4.054 1.78a.8.8 0 0 0-.342.067c-.152.055-.216.158-.26.325l-1.6 9.912a.5.5 0 0 0 .077.319.6.6 0 0 0 .119.137.7.7 0 0 0 .157.099.7.7 0 0 0 .28.06h3.553a3.316 5.183 0 0 1 2.429-1.663 3.316 5.183 0 0 1 2.43 1.664h3.55c.23 0 .446-.12.557-.297a1 1 0 0 0 .041-.08l.011-.028a.5.5 0 0 0 .025-.212l-1.845-9.91c-.044-.168-.108-.27-.26-.326a.8.8 0 0 0-.342-.066H8.467z" clip-path="url(#j)" filter="url(#k)" transform="matrix(.75902 0 0 .84917 2.04 1.651)"/><path d="M32 43.549a13.526 23.175 0 0 0-9.906 7.438h.297a13.526 23.175 0 0 1 9.61-6.92 13.526 23.175 0 0 1 9.603 6.92h.308A13.526 23.175 0 0 0 32 43.548z" filter="url(#l)" opacity=".15" transform="translate(2.19 1.842)scale(.19617)"/><path fill="url(#m)" d="M4.936 2.822a.64.64 0 0 0-.273.056c-.122.043-.173.128-.209.267l-1.28 8.19a.43.43 0 0 0 .062.264.5.5 0 0 0 .198.184l.021.01a.5.5 0 0 0 .226.05h2.843a2.653 4.282 0 0 1 1.943-1.373 2.653 4.282 0 0 1 1.944 1.374h2.843a.52.52 0 0 0 .445-.246.4.4 0 0 0 .034-.066l.007-.022a.4.4 0 0 0 .02-.175l-1.475-8.189c-.036-.139-.087-.225-.209-.268a.64.64 0 0 0-.275-.056H8.468z"/><g fill-rule="evenodd" transform="translate(2.19 1.842)scale(.74145)"><rect width="12.7" height="1.058" x="2.117" y="14.023" filter="url(#n)" opacity=".1" rx=".265" ry=".295" style="paint-order:stroke fill markers" transform="matrix(1.0417 0 0 .96682 -.353 .5)"/><circle cx="14.155" cy="14.42" r=".397" fill="url(#o)" style="paint-order:stroke fill markers"/><circle cx="14.155" cy="14.328" r=".27" fill="#fff" filter="url(#p)" opacity=".36" style="paint-order:stroke fill markers"/><circle cx="12.964" cy="14.42" r=".265" fill="url(#q)" style="paint-order:stroke fill markers"/><circle cx="11.906" cy="14.42" r=".265" fill="url(#r)" style="paint-order:stroke fill markers"/></g><path fill="#eff0f1" stroke="gray" stroke-linecap="round" stroke-width=".276" d="M8.038 3.418h2.834l1.418 1.417v4.25H8.038z"/><path fill="#eff0f1" stroke="gray" stroke-linecap="round" stroke-width=".276" d="M4.642 4.833h2.835l1.417 1.416v4.25H4.642z"/><path fill="url(#s)" d="M-11.021-7.021h8.562l-.167.926h-8.25z" transform="matrix(1.0695 0 0 -1.0695 15.624 -.409)"/><path fill="#84cbfe" d="M3.862 6.959h9.11l.046.282H3.812z"/><path fill="url(#t)" d="M2.46 7.021h8.569l.137.926h-8.87z" transform="matrix(-1.0695 0 0 1.0695 15.624 -.409)"/></svg>