<svg xmlns="http://www.w3.org/2000/svg" width="16" height="16" viewBox="0 0 16 16"><path fill="#f55" d="M5.232 5.732a.499.499 0 0 0-.354.854L6.294 8 4.879 9.414a.499.499 0 1 0 .707.707L7 8.707l1.414 1.414a.499.499 0 1 0 .707-.707L7.707 8l1.414-1.414a.499.499 0 1 0-.707-.707L7 7.293 5.586 5.879a.5.5 0 0 0-.354-.147" class="error"/><path fill="#f55" d="M3 3C1.338 3 0 4.338 0 6v4c0 1.662 1.338 3 3 3h9c1.662 0 3-1.338 3-3V9h1V7h-1V6c0-1.662-1.338-3-3-3zm0 1h9c1.108 0 1.925.895 2 2v4c0 1.108-.892 2-2 2H3c-1.108 0-2-.892-2-2V6c0-1.108.892-2 2-2" class="error"/></svg>