<svg xmlns="http://www.w3.org/2000/svg" width="16pt" height="16pt" viewBox="0 0 16 16"><defs><clipPath id="a"><path d="M0 0h16v16H0z"/></clipPath></defs><g clip-path="url(#a)"><path d="M3.225 5h.55C4.451 5 5 5.549 5 6.225v3.55C5 10.451 4.451 11 3.775 11h-.55A1.226 1.226 0 0 1 2 9.775v-3.55C2 5.549 2.549 5 3.225 5" style="stroke:none;fill:gray;stroke-miterlimit:10"/><path fill="gray" d="M3 3C1.338 3 0 4.338 0 6v4c0 1.662 1.338 3 3 3h9c1.662 0 3-1.338 3-3V9h1V7h-1V6c0-1.662-1.338-3-3-3zm0 1h9c1.108 0 1.925.895 2 2v4c0 1.108-.892 2-2 2H3c-1.108 0-2-.892-2-2V6c0-1.108.892-2 2-2"/></g></svg>