<svg xmlns="http://www.w3.org/2000/svg" width="16pt" height="16pt" viewBox="0 0 16 16"><defs><clipPath id="a"><path d="M0 0h16v16H0z"/></clipPath></defs><g fill="gray" clip-path="url(#a)"><path d="M13 12.828v-4c0-1.108-.892-2-2-2H5.67l1.977 1.977a.5.5 0 0 1-.707.707L4.111 6.684a.5.5 0 0 1-.109-.541v-.002a.5.5 0 0 1 .109-.164l2.829-2.83a.5.5 0 0 1 .707.707L5.674 5.829H11c1.662 0 3 1.338 3 3v4z"/><path d="m3.272 6.381 2.374 2.424a.499.499 0 0 1-.353.854.5.5 0 0 1-.354-.147L2.111 6.684a.5.5 0 0 1-.109-.541v-.002a.5.5 0 0 1 .109-.164l2.828-2.83a.5.5 0 0 1 .707 0 .5.5 0 0 1 0 .707z"/></g></svg>