<svg xmlns="http://www.w3.org/2000/svg" width="16" height="16.001"><path fill="gray" d="M13.5 0c-.277 0-.5.223-.5.5v14c0 .277.223.5.5.5h1c.277 0 .5-.223.5-.5V.5c0-.277-.223-.5-.5-.5zm-3 3c-.277 0-.5.223-.5.5v11c0 .277.223.5.5.5h1c.277 0 .5-.223.5-.5v-11c0-.277-.223-.5-.5-.5zm-3 3c-.277 0-.5.223-.5.5v8c0 .277.223.5.5.5h1c.277 0 .5-.223.5-.5v-8c0-.277-.223-.5-.5-.5zm-3 3c-.277 0-.5.223-.5.5v5c0 .277.223.5.5.5h1c.277 0 .5-.223.5-.5v-5c0-.277-.223-.5-.5-.5zm-3 3c-.277 0-.5.223-.5.5v2c0 .277.223.5.5.5h1c.277 0 .5-.223.5-.5v-2c0-.277-.223-.5-.5-.5z" color="gray" opacity=".35" overflow="visible"/><rect width="20" height="1" x="1.314" y="-.5" fill="gray" rx=".5" ry=".5" style="paint-order:markers stroke fill" transform="rotate(45)"/></svg>