<svg xmlns="http://www.w3.org/2000/svg" width="16" height="16" viewBox="0 0 16 16"><path fill="gray" d="M7.98 1.055q-.14 0-.27.027c-3 .156-5.628 2.219-6.452 5.129-.762 3.016.57 6.23 3.242 7.828a7.14 7.14 0 0 0 8.402-1.105 7.14 7.14 0 0 0 1.106-8.403c1.504 2.727 1.031 6.164-1.137 8.371-2.226 2.149-5.652 2.578-8.328 1.067C1.922 12.39.625 9.234 1.363 6.297c-.71 2.945.621 6.07 3.219 7.601 2.652 1.47 6.027 1.004 8.176-1.109 2.094-2.168 2.512-5.531 1.035-8.133 1.453 2.617.992 5.953-1.094 8.074-2.14 2.067-5.465 2.48-8.035 1.024-2.52-1.508-3.777-4.57-3.062-7.395-.688 2.828.601 5.86 3.101 7.325 2.547 1.418 5.82.964 7.879-1.07 2.016-2.079 2.422-5.34 1-7.837 1.398 2.512.95 5.75-1.059 7.778-2.046 1.988-5.277 2.39-7.734.988-2.422-1.445-3.64-4.418-2.95-7.125-.663 2.715.587 5.656 2.99 7.055 2.437 1.363 5.612.922 7.581-1.032 1.934-1.988 2.328-5.152.957-7.543 1.348 2.403.91 5.543-1.015 7.485-1.961 1.906-5.09 2.297-7.442.945C2.59 11.95 1.41 9.07 2.078 6.48c-.64 2.598.57 5.446 2.871 6.778 2.332 1.308 5.406.883 7.285-.992 1.856-1.899 2.235-4.965.922-7.243 1.29 2.293.867 5.336-.98 7.184-1.867 1.828-4.899 2.207-7.145.91-2.218-1.312-3.36-4.101-2.718-6.574-.618 2.48.558 5.234 2.761 6.504 2.223 1.254 5.2.84 6.989-.953 1.773-1.809 2.14-4.778.878-6.95 1.239 2.188.829 5.133-.937 6.891-1.777 1.746-4.711 2.113-6.848.867-2.12-1.246-3.226-3.941-2.605-6.297-.594 2.364.543 5.028 2.644 6.227 2.118 1.203 4.993.8 6.692-.914 1.695-1.719 2.05-4.586.843-6.648 1.184 2.078.786 4.921-.902 6.59s-4.52 2.019-6.55.831c-2.02-1.18-3.087-3.789-2.489-6.027-.57 2.246.527 4.82 2.531 5.957 2.008 1.149 4.785.758 6.395-.875 1.613-1.629 1.957-4.398.8-6.355 1.133 1.972.747 4.718-.859 6.297-1.597 1.585-4.332 1.925-6.254.789-1.922-1.114-2.949-3.63-2.375-5.75-.547 2.128.512 4.613 2.414 5.68 1.899 1.093 4.582.718 6.098-.837 1.535-1.535 1.863-4.207.766-6.054 1.074 1.863.707 4.507-.825 5.996-1.507 1.511-4.14 1.836-5.957.754-1.82-1.051-2.808-3.473-2.257-5.477-.524 2.012.496 4.402 2.3 5.406 1.79 1.04 4.372.676 5.801-.797 1.457-1.449 1.77-4.02.723-5.761 1.023 1.758.668 4.304-.781 5.703-1.418 1.43-3.957 1.742-5.66.71-1.723-.98-2.672-3.312-2.145-5.202-.504 1.894.484 4.199 2.184 5.132 1.683.989 4.167.641 5.503-.757 1.38-1.356 1.68-3.828.688-5.461.969 1.648.625 4.093-.746 5.402-1.328 1.352-3.766 1.649-5.363.676-1.622-.918-2.536-3.156-2.028-4.93-.48 1.781.469 3.988 2.07 4.86 1.575.933 3.958.597 5.208-.72 1.296-1.269 1.585-3.64.644-5.167.918 1.543.586 3.89-.703 5.11-1.238 1.269-3.578 1.554-5.066.632-1.524-.848-2.399-3-1.915-4.652-.457 1.66.454 3.777 1.954 4.582 1.468.879 3.754.554 4.91-.68 1.215-1.176 1.492-3.45.605-4.867.875 1.426.578 3.683-.636 4.836-1.149 1.215-3.41 1.511-4.836.636-1.47-.796-2.344-2.906-1.868-4.507.391-1.625 2.2-3.012 3.871-2.97V4a1.474 1.474 0 0 0 0-2.945m0 0"/></svg>