<svg xmlns="http://www.w3.org/2000/svg" width="16" height="16"><path fill="gray" d="M8.002 0a2.5 2.5 0 0 1 .852.17c1.134.447 3.767 1.319 5.19 1.887q.014.004.024.01c.23.098.557.309.739.638.182.33.189.619.19.848L15 8.895c.001 1.494-.474 2.739-1.473 3.709-.996.968-2.395 1.77-4.47 3.035q-.003 0-.004.002-.003 0-.004.002c-.315.194-.677.354-1.04.355V16h-.002l-.002-.002c-.358-.001-.737-.163-1.053-.36H6.95c-2.047-1.237-3.445-2.033-4.447-3.005-1.004-.974-1.497-2.228-1.498-3.736L1 3.555c0-.23.004-.522.191-.858.188-.335.535-.552.784-.646l.02-.006C3.358 1.56 5.978.628 7.14.17l.04-.014A2.5 2.5 0 0 1 8.002 0m0 1c-.137 0-.284.028-.494.102-1.208.476-3.815 1.4-5.178 1.884-.265.101-.33.237-.33.567l.004 5.342c.002 2.681 1.355 3.404 5.473 5.894.264.164.392.21.529.211.127 0 .26-.047.523-.21 4.173-2.545 5.473-3.232 5.471-5.895l-.004-5.342c0-.33-.064-.457-.32-.567-1.354-.54-3.982-1.408-5.19-1.884A1.5 1.5 0 0 0 8.002 1"/><path fill="gray" d="M8 2v11.938l-.006-.004c-2.063-1.248-3.4-2.057-4.102-2.738-.702-.68-.887-1.128-.888-2.301L3 3.807c1.4-.497 3.653-1.295 4.836-1.76A.6.6 0 0 1 8 2" style="-inkscape-stroke:none"/></svg>