<svg xmlns="http://www.w3.org/2000/svg" width="16" height="16" viewBox="0 0 16 16"><path fill="gray" d="M9.5 1A3.5 3.5 0 0 1 13 4.5a3.5 3.5 0 0 1-1.2 2.63A2 2 0 0 1 12 8v.898L14.848 7H16v6h-1.152L12 11.102V13c0 1.108-.892 2-2 2H3c-1.108 0-2-.892-2-2v-2l-1-1V8h1c0-.311.071-.605.197-.867A3.5 3.5 0 0 1 0 4.5 3.5 3.5 0 0 1 3.5 1a3.5 3.5 0 0 1 2.998 1.701 3.5 3.5 0 0 1 3.002-1.7m0 1A2.5 2.5 0 0 0 7 4.5 2.5 2.5 0 0 0 7.51 6H10c.432 0 .83.136 1.156.367A2.5 2.5 0 0 0 12 4.5 2.5 2.5 0 0 0 9.5 2m0 4A1.5 1.5 0 0 1 8 4.5 1.5 1.5 0 0 1 9.5 3 1.5 1.5 0 0 1 11 4.5 1.5 1.5 0 0 1 9.5 6m-6-4A2.5 2.5 0 0 0 1 4.5a2.5 2.5 0 0 0 .844 1.867A2 2 0 0 1 3 6h2.49A2.5 2.5 0 0 0 6 4.5 2.5 2.5 0 0 0 3.5 2m0 4A1.5 1.5 0 0 1 2 4.5 1.5 1.5 0 0 1 3.5 3 1.5 1.5 0 0 1 5 4.5 1.5 1.5 0 0 1 3.5 6m6-2a.5.5 0 0 0-.5.5.5.5 0 0 0 .5.5.5.5 0 0 0 .5-.5.5.5 0 0 0-.5-.5m-6 0a.5.5 0 0 0-.5.5.5.5 0 0 0 .5.5.5.5 0 0 0 .5-.5.5.5 0 0 0-.5-.5M10 7H3l-.082.004-.02.002q-.03.002-.06.008l-.008.002-.059.011-.013.002-.031.01q-.023.005-.043.012l-.075.027q-.044.02-.086.043l-.05.03-.002.001q-.03.018-.057.037l-.006.004a1 1 0 0 0-.168.157l-.006.007-.043.053-.007.01-.028.043-.008.012-.025.046-.012.02-.017.035A1 1 0 0 0 2 8v5c0 .554.446 1 1 1h7c.554 0 1-.446 1-1V8c0-.554-.446-1-1-1M3.5 8a.5.5 0 0 1 .5.5.5.5 0 0 1-.5.5.5.5 0 0 1-.5-.5.5.5 0 0 1 .5-.5m11.5.102-2.5 1.666v.464l2.5 1.666z" style="paint-order:stroke fill markers"/></svg>