<svg xmlns="http://www.w3.org/2000/svg" width="16" height="16" viewBox="0 0 16 16"><path fill="gray" d="m3.52 4.028-.66 1.97H6v-3H4.94a1.5 1.5 0 0 0-1.42 1.03m-1 2.97-.26.08-.12.03A1.5 1.5 0 0 0 1 8.558v1.69c0 .16.05.31.14.43a2.5 2.5 0 0 1 4.81.32h4.1a2.5 2.5 0 0 1 4.81-.32.74.74 0 0 0 .14-.43v-1.21a1.5 1.5 0 0 0-1.11-1.45l-2.2-.59zm8.35-1-1.24-2.23a1.5 1.5 0 0 0-1.3-.77H7v3zm5.13 4.25c0 .7-.42 1.32-1.02 1.6a2.5 2.5 0 0 1-4.93.15h-4.1a2.5 2.5 0 0 1-4.93-.16A1.75 1.75 0 0 1 0 10.248v-1.69c0-1.1.71-2.06 1.75-2.38l.82-2.47a2.5 2.5 0 0 1 2.37-1.71h3.38c.91 0 1.75.5 2.19 1.29l1.54 2.77 2.1.56A2.5 2.5 0 0 1 16 9.038zm-12.5-.25a1.5 1.5 0 1 0 .001 3.001A1.5 1.5 0 0 0 3.5 9.998m9 0a1.5 1.5 0 1 0 .001 3.001 1.5 1.5 0 0 0-.001-3.001"/></svg>
