<svg xmlns="http://www.w3.org/2000/svg" width="16" height="16" viewBox="0 0 16 16"><path fill="gray" d="M8 .89A7.09 7.09 0 0 0 .89 8h.887A6.21 6.21 0 0 1 8 1.777 6.21 6.21 0 0 1 14.223 8h.886A7.09 7.09 0 0 0 8 .89m0 1.778A5.32 5.32 0 0 0 2.668 8h2.664A2.664 2.664 0 0 1 8 5.332Zm0 3.555c-.984 0-1.777.793-1.777 1.777h.886a.89.89 0 1 1 1.782 0h.886c0-.984-.793-1.777-1.777-1.777m.89 2.668-1.78 1.332 1.78 1.332v-.887h4.442c.492 0 .89.395.89.887h.887c0-.985-.793-1.778-1.777-1.778H8.891Zm-7.113.886v.891H.891v.887h.886v1.777H.891v.89h.886v.887h.891v-.886h1.777v.886h.887v-.886h.89v-.891h-.89v-1.777h.89v-.887h-.89v-.89h-.887v.89H2.668v-.89Zm.891 1.778h1.777v1.777H2.668Zm4.441.89c0 .985.793 1.778 1.782 1.778h4.441v.886l1.777-1.332-1.777-1.332v.887H8.891A.884.884 0 0 1 8 12.445Zm0 0"/></svg>