<svg xmlns="http://www.w3.org/2000/svg" xmlns:xlink="http://www.w3.org/1999/xlink" width="16" height="16" viewBox="0 0 16 16"><defs><clipPath id="b"><path d="M0 0h16v16H0z"/></clipPath><filter id="a" width="100%" height="100%" x="0%" y="0%"><feColorMatrix color-interpolation-filters="sRGB" values="0 0 0 0 1 0 0 0 0 1 0 0 0 0 1 0 0 0 1 0"/></filter><mask id="c"><g filter="url(#a)"><path fill-opacity=".15" d="M-1.6-1.6h19.2v19.2H-1.6z"/></g></mask><g id="d" clip-path="url(#b)"><path fill="gray" d="M11.555 8a2.666 2.666 0 1 1-5.332 0 2.666 2.666 0 1 1 5.332 0m0 0"/></g></defs><g mask="url(#c)"><use xlink:href="#d"/></g><path fill="gray" d="M2.668.89A2.66 2.66 0 0 0 0 3.556v8.89a2.66 2.66 0 0 0 2.668 2.664h10.664A2.66 2.66 0 0 0 16 12.445v-8.89A2.66 2.66 0 0 0 13.332.89Zm0 .887h10.664c.984 0 1.777.793 1.777 1.778v8.89c0 .985-.793 1.778-1.777 1.778H2.668Zm-.89.239v11.968a1.77 1.77 0 0 1-.887-1.539v-8.89c0-.66.355-1.23.886-1.54m7.114.653A5.335 5.335 0 0 0 3.555 8a5.335 5.335 0 0 0 10.668 0A5.33 5.33 0 0 0 8.89 2.668m0 .887A4.444 4.444 0 0 1 13.332 8a4.444 4.444 0 1 1-4.441-4.445m0 3.554a.89.89 0 1 0 0 1.782A.89.89 0 0 0 9.777 8a.89.89 0 0 0-.886-.89"/></svg>