<svg xmlns="http://www.w3.org/2000/svg" width="16" height="16" viewBox="0 0 16 16"><path fill="gray" d="M2.223.89A1.33 1.33 0 0 0 .89 2.224a1.331 1.331 0 1 0 2.664 0A1.33 1.33 0 0 0 2.222.892m2.222.886v.891h.887v-.89Zm1.778 0v.891h8.886v-.89Zm0 1.778v.89H8.89v-.89Zm-4 2.668A1.33 1.33 0 0 0 .89 7.555a1.332 1.332 0 1 0 2.664 0c0-.735-.598-1.332-1.332-1.332m2.222.886V8h.887v-.89ZM13.332 8v.89h-.906a2.643 2.643 0 0 0-2.648 2.645v.02c0 .984-.794 1.777-1.778 1.777H5.332v.89H8.02c.703 0 1.378-.277 1.875-.773a2.65 2.65 0 0 0 .773-1.875v-.02c0-.984.793-1.777 1.777-1.777h.887v.891l1.777-1.336Zm-8 .89v.887H8c.355 0 .684.106.957.282a2.7 2.7 0 0 1 .348-.825 2.6 2.6 0 0 0-1.285-.343Zm-3.11 2.665a1.33 1.33 0 0 0-1.331 1.336 1.331 1.331 0 1 0 2.664 0c0-.739-.598-1.336-1.332-1.336m11.109.89v.887h-.887c-.355 0-.683-.105-.96-.281q-.102.451-.344.828c.39.223.832.34 1.285.344h.906v.886l1.777-1.332Zm0 0"/></svg>