<svg xmlns="http://www.w3.org/2000/svg" width="16" height="16" viewBox="0 0 16 16"><path fill="gray" d="M0 .89v14.22h6.223v-.887h-.891a.89.89 0 1 0-1.777 0h-.887V1.777h.887a.89.89 0 1 0 1.777 0h7.113a.89.89 0 1 0 1.778 0h.886v7.114H16v-8ZM15.11 8A6.22 6.22 0 1 0 2.667 8a6.21 6.21 0 0 0 3.555 5.613v-1A5.34 5.34 0 0 1 3.555 8a5.335 5.335 0 0 1 10.668 0 5.3 5.3 0 0 1-.082.89h.902q.065-.444.066-.89M.891 1.777h.886v12.446H.891Zm8 7.114-1.782 1.332 1.782 1.332v-.887h4.441c.492 0 .89.395.89.887h.887c0-.985-.793-1.778-1.777-1.778H8.891Zm-1.782 3.554c0 .985.793 1.778 1.782 1.778h4.441v.886l1.777-1.332-1.777-1.332v.887H8.891A.884.884 0 0 1 8 12.445Zm0 0"/></svg>