<svg xmlns="http://www.w3.org/2000/svg" width="16" height="16"><path fill="gray" d="M8 0a8 8 0 0 0-8 7.887c.03-2.283 2.3-4.403 5-4.403.219 0 1.466.021 2.625.63 1.021.536 1.556 1.457 1.928 2.099.54 1.02.563 1.956-.034 2.734-.05.066-.205.156-.205.354 0 .163.107.321.295.453.899.625 2.593.541 2.598.541a3.7 3.7 0 0 0 1.89-.522c1.176-.686 1.9-1.588 1.903-2.949.016-1.4-.5-2.332-.709-2.744C13.967 1.49 11.108 0 8 0m0 1c2.789 0 5.27 1.326 6.4 3.535.235.463.613 1.13.6 2.277v.01c-.002 1.007-.407 1.504-1.406 2.088l-.006.004c-.418.248-.895.38-1.38.38-.003 0-.403.018-.858-.03-.333-.036-.607-.145-.856-.243a3.58 3.58 0 0 0-.058-3.277l-.018-.033c-.372-.642-1.017-1.794-2.328-2.482-1.412-.741-2.806-.745-3.09-.745-.55 0-1.055.16-1.566.293C4.664 1.704 6.234 1 8 1" color="#000" style="-inkscape-stroke:none"/><path fill="gray" d="M7.031 6.254c-2.81 1.384-3.93 4.968-2.084 7.498a5 5 0 0 0 1.42 1.334l.006.002c1.008.63 2.388.853 3.594.639q.091-.018.18-.038.212-.05.382-.103l.082-.027a8.02 8.02 0 0 0 4.162-3.3c.139-.218-.107-.477-.334-.353-.766.754-1.954.933-2.9.938-2.957 0-5.535-2.273-5.535-4.883A1.97 1.97 0 0 1 7.03 6.254M5.367 9.525c.802 2.481 3.293 4.319 6.172 4.319h.006c.055 0 .128-.02.185-.022-.463.297-.918.61-1.445.791l-.072.024c-.078.024-.18.052-.297.08l-.125.025h-.002c-.958.17-2.137-.033-2.887-.502l-.008-.004a4 4 0 0 1-1.132-1.064l-.006-.01c-.806-1.104-.847-2.445-.389-3.637" color="#000" opacity=".5" style="-inkscape-stroke:none"/><path fill="gray" d="M5.006 3.008c-2.744 0-5 2.602-5 4.887a8.1 8.1 0 0 0 .758 3.5 8 8 0 0 0 9.773 4.193c-1.318.415-2.992.233-4.164-.5l-.006-.002a5 5 0 0 1-1.42-1.334c-1.847-2.53-.726-6.114 2.084-7.498.195-.092.53-.258.973-.25a2.02 2.02 0 0 1 1.605.812 2 2 0 0 1 .397 1.166c0-.013 1.529-4.974-5-4.974m0 1c1.505 0 2.446.287 3.021.633.224.134.243.31.383.459-.135-.02-.256-.093-.394-.094-.698-.01-1.24.26-1.41.342l-.016.007c-3.032 1.493-4.274 5.155-2.82 8.106-.852-.66-1.614-1.45-2.101-2.488v-.002l-.002-.002a7.1 7.1 0 0 1-.662-3.065v-.01c0-.812.44-1.83 1.19-2.603.748-.773 1.754-1.283 2.81-1.283zm-.873 10.324.004.002.002.008z" color="#000" opacity=".75" style="-inkscape-stroke:none"/></svg>