<svg xmlns="http://www.w3.org/2000/svg" width="16" height="16" viewBox="0 0 16 16"><path fill="gray" d="M5 6c-2.197 0-4 1.803-4 4a4 4 0 0 0 1.172 2.828c.3.301.597.468 1.006.713.408.245.897.516 1.414.795 1.034.557 2.183 1.144 2.937 1.547a1 1 0 0 0 .942 0c.755-.403 1.903-.99 2.937-1.547.517-.279 1.006-.55 1.414-.795.409-.245.705-.412 1.006-.713A4 4 0 0 0 15 10c0-2.197-1.802-4-4-4-.757 0-1.937.384-3 1.295C6.938 6.385 5.757 6 5 6m0 1c.828 0 2.016.152 2.998 1.525L8 10l.002-1.475C8.984 7.152 10.172 7 11 7a3 3 0 0 1 2.121 5.121C12.578 12.664 9.541 14.178 8 15c-1.541-.821-4.578-2.336-5.121-2.879A3 3 0 0 1 5 7" color="#000" style="-inkscape-stroke:none;paint-order:stroke fill markers"/><path fill="gray" d="M8 0a3 3 0 0 0-3 3 3 3 0 0 0 3 3 3 3 0 0 0 3-3 3 3 0 0 0-3-3m0 1a2 2 0 0 1 2 2 2 2 0 0 1-2 2 2 2 0 0 1-2-2 2 2 0 0 1 2-2" style="paint-order:stroke fill markers"/></svg>