<svg xmlns="http://www.w3.org/2000/svg" width="16" height="16"><path fill="gray" d="M3 1a2 2 0 1 0 0 4 2 2 0 0 0 0-4m0 1c.564 0 1 .436 1 1s-.436 1-1 1-1-.436-1-1 .436-1 1-1m8.307 6.998V9c-.19-.006-.214.097-.27.371-.28 1.804 1.354 2.804 3.502 3.584.256.091.278.046.434-.148.284-.368.452-.757.591-1.162.125-.364.225-.74.364-1.13.139-.327.089-.322-.26-.412L11.557 9.04a1.4 1.4 0 0 0-.25-.041m1.021 1.275 2.426.627c-.041.135-.095.303-.135.42h-.002c-.062.181-.15.3-.22.444-.746-.31-1.481-.63-1.854-.963-.194-.174-.127-.372-.215-.528" color="#000" style="-inkscape-stroke:none"/><path fill="gray" d="M8 0a8 8 0 0 0-3.143.654c.28.223.519.494.705.801A7 7 0 0 1 8 1a7 7 0 0 1 7 7 7 7 0 0 1-.068.88l.986.257v-.002A8 8 0 0 0 8 0m0 4a4 4 0 0 0 0 8 4 4 0 0 0 2.373-.799 3.4 3.4 0 0 1-.328-1.03A3 3 0 0 1 8 11a3 3 0 1 1 3-3l-.004.035c.132-.031.25-.038.342-.035l-.027.027.07-.025q.214.016.424.07h.002l.181.047L12 8a4 4 0 0 0-4-4m-7.346.857A8 8 0 0 0 0 8a8 8 0 0 0 8 8 8 8 0 0 0 5.613-2.328 12 12 0 0 1-.99-.441A7 7 0 0 1 8 15a7 7 0 0 1-7-7 7 7 0 0 1 .455-2.437 3 3 0 0 1-.8-.706" style="paint-order:stroke fill markers"/><circle cx="8" cy="2.5" r=".5" fill="gray" style="paint-order:stroke fill markers"/><circle cx="8" cy="13.5" r=".5" fill="gray" style="paint-order:stroke fill markers"/><circle cx="10.928" cy="-2.572" r=".5" fill="gray" style="paint-order:stroke fill markers" transform="rotate(30)"/><circle cx="10.928" cy="8.428" r=".5" fill="gray" style="paint-order:stroke fill markers" transform="rotate(30)"/><circle cx="10.928" cy="-8.428" r=".5" fill="gray" style="paint-order:stroke fill markers" transform="rotate(60)"/><circle cx="10.928" cy="2.572" r=".5" fill="gray" style="paint-order:stroke fill markers" transform="rotate(60)"/><circle cx="8" cy="-13.5" r=".5" fill="gray" style="paint-order:stroke fill markers" transform="rotate(90)"/><circle cx="8" cy="-2.5" r=".5" fill="gray" style="paint-order:stroke fill markers" transform="rotate(90)"/><circle cx="-2.928" cy="-16.428" r=".5" fill="gray" style="paint-order:stroke fill markers" transform="rotate(150)"/></svg>