<svg xmlns="http://www.w3.org/2000/svg" width="16" height="16" viewBox="0 0 16 16"><path fill="gray" d="M8.484 4a.5.5 0 0 0-.457.344L6.5 8.918l-.527-1.574A.495.495 0 0 0 5.5 7H1v1h4.14l.887 2.656a.496.496 0 0 0 .946 0l1.57-4.699 1.492 3.73a.5.5 0 0 0 .457.313.5.5 0 0 0 .465-.3l.73-1.7H15V7h-3.64c-.2 0-.38.121-.458.3l-.386.895-1.551-3.882A.5.5 0 0 0 8.485 4M4.5 14h7a.499.499 0 1 1 0 1h-7a.499.499 0 1 1 0-1"/><path fill="gray" d="M2 2C.892 2 0 2.892 0 4v7c0 1.108.892 2 2 2h12c1.108 0 2-.892 2-2V4c0-1.108-.892-2-2-2zm0 1h12c.554 0 1 .446 1 1v7c0 .554-.446 1-1 1H2c-.554 0-1-.446-1-1V4c0-.554.446-1 1-1"/></svg>