<svg xmlns="http://www.w3.org/2000/svg" width="16" height="16"><path fill="gray" d="M6.647 1.156c-.217 0-.266.01-.41.08a1.03 1.03 0 0 0-.474.475c-.098.21-.116.532-.04.73.028.075.29.549.582 1.052.291.503.53.934.531.957S6.118 5.738 5.24 7.26l-1.599 2.77-2.903.016-.164.076c-.213.1-.4.286-.497.495-.065.142-.077.203-.077.4s.011.257.077.396c.13.278.386.492.668.559.057.013 2.158.025 4.741.026l4.64.003.051-.058c.044-.048.052-.099.05-.321-.003-.674-.392-1.318-.924-1.53-.1-.04-.312-.048-1.756-.06l-1.642-.014.469-.807c2.917-5.02 3.86-6.653 3.904-6.769a.76.76 0 0 0 .041-.355.95.95 0 0 0-.556-.85c-.143-.07-.192-.08-.409-.08-.214 0-.269.01-.418.079-.237.11-.38.278-.674.792-.134.235-.253.428-.263.428s-.128-.192-.262-.427c-.294-.518-.417-.662-.661-.783-.165-.081-.206-.09-.43-.09M9.459 5c-.058-.002-.208.145-.312.306-.361.559-.505 1.707-.304 2.428.038.136.511.977 2.058 3.65 1.104 1.911 2.05 3.521 2.102 3.578a.977.977 0 0 0 1.69-.743c-.008-.1-.04-.237-.07-.304-.03-.068-.288-.523-.571-1.012l-.516-.89 1.726-.026.164-.077c.214-.1.4-.286.497-.495.065-.142.077-.202.077-.4 0-.197-.011-.257-.076-.396-.1-.214-.286-.4-.495-.497l-.167-.077-2.873-.016-1.45-2.514C10.144 6.132 9.477 5 9.46 5zm-6.844 7.45c-.156 0-.287.014-.342.042-.058.03-.163.185-.406.601-.487.837-.524.92-.523 1.188 0 .425.232.76.635.922.184.075.567.058.756-.032.253-.12.37-.278.904-1.202l.497-.862-.044-.078c-.117-.208-.467-.415-.872-.516a2.8 2.8 0 0 0-.605-.063"/></svg>