<svg xmlns="http://www.w3.org/2000/svg" width="16" height="16" viewBox="0 0 16 16"><path fill="gray" d="M3 1C1.338 1 0 2.338 0 4v7c0 1.662 1.338 3 3 3h3v-1H3c-1.108 0-2-.892-2-2V4c0-1.108.892-2 2-2h9c1.108 0 2 .892 2 2v3h1V4c0-1.662-1.338-3-3-3z" style="paint-order:stroke fill markers"/><path fill="gray" d="M7.033 6.002a1 1 0 0 0-.969 1.35l3 8a1 1 0 0 0 1.854.045l1.37-3.165 3.1-1.31a1 1 0 0 0-.036-1.857l-8-3a1 1 0 0 0-.319-.063M7 7l8 3-3.47 1.467L10 15z" color="#000" style="-inkscape-stroke:none;paint-order:stroke fill markers"/></svg>