<svg xmlns="http://www.w3.org/2000/svg" width="16" height="16"><path fill="gray" d="M9.85.768a2.62 2.62 0 0 0-3.699 0L.768 6.151a2.62 2.62 0 0 0 0 3.699l5.382 5.382a2.62 2.62 0 0 0 3.698 0l5.384-5.383a2.62 2.62 0 0 0 0-3.699zm-.707.707 5.382 5.382a1.6 1.6 0 0 1 0 2.284L9.14 14.525a1.6 1.6 0 0 1-2.284 0L1.475 9.143a1.6 1.6 0 0 1 0-2.284l5.383-5.384a1.6 1.6 0 0 1 2.285 0" color="#000" style="-inkscape-stroke:none;paint-order:stroke fill markers"/><rect width="1" height="6" x="7.5" y="4" fill="gray" rx=".5" ry=".5" style="paint-order:stroke fill markers"/><circle cx="8" cy="11.5" r=".5" fill="gray" style="paint-order:stroke fill markers"/></svg>