<svg xmlns="http://www.w3.org/2000/svg" width="16" height="16"><path fill="gray" d="M3 0C1.338 0 0 1.338 0 3v7c0 1.662 1.338 3 3 3h10c1.662 0 3-1.338 3-3V3c0-1.662-1.338-3-3-3zm0 1h10c1.108 0 2 .892 2 2v7c0 1.108-.892 2-2 2H3c-1.108 0-2-.892-2-2V3c0-1.108.892-2 2-2m2 13c-1.108 0-2 .892-2 2h1c0-.554.446-1 1-1h6c.554 0 1 .446 1 1h1c0-1.108-.892-2-2-2z"/><path fill="gray" d="M4 5c-.554 0-1 .446-1 1v3c0 .554.446 1 1 1h3c.554 0 1-.446 1-1V6c0-.554-.446-1-1-1zm0 1h3v3H4zm7-3c-.554 0-1 .446-1 1v1c0 .554.446 1 1 1h1c.554 0 1-.446 1-1V4c0-.554-.446-1-1-1zm0 1h1v1h-1z" style="paint-order:stroke fill markers"/></svg>