<svg xmlns="http://www.w3.org/2000/svg" width="16" height="16"><style id="current-color-scheme" type="text/css">.ColorScheme-Text{color:gray}</style><path fill="currentColor" d="M4.295 1.045A.5.5 0 0 0 4 1.5v5.285L1.266 5.076a.5.5 0 0 0-.69.158.5.5 0 0 0 .158.69L4 7.964v.071L.734 10.076a.5.5 0 0 0-.158.69.5.5 0 0 0 .69.158L4 9.214V14.5a.5.5 0 0 0 .832.373l4.5-4a.5.5 0 0 0-.066-.797L5.943 8l3.323-2.076a.5.5 0 0 0 .066-.797l-4.5-4a.5.5 0 0 0-.537-.082M5 2.613 8.17 5.43 5 7.41zM5 8.59l3.17 1.98L5 13.387z" class="ColorScheme-Text"/><path fill="currentColor" d="M13 0c-1.662 0-3 1.338-3 3v10c0 1.662 1.338 3 3 3s3-1.338 3-3V3c0-1.662-1.338-3-3-3m0 1c1.108 0 2 .892 2 2v10c0 1.108-.892 2-2 2s-2-.892-2-2V3c0-1.108.892-2 2-2" class="ColorScheme-Text" opacity=".45"/><rect width="2" height="12" x="12" y="2" fill="currentColor" class="ColorScheme-Text" rx="1" ry="1"/></svg>