<svg xmlns="http://www.w3.org/2000/svg" width="16" height="16" viewBox="0 0 4.233 4.233"><path fill="gray" d="M2.947.266A.26.26 0 0 0 2.83.31c.102-.056.21-.004.21.182V3.74c0 .18-.102.235-.202.187a.26.26 0 0 0 .15.04.2.2 0 0 0 .052-.015l.762-.374c.083-.04.167-.074.167-.166V.822c0-.093-.084-.126-.167-.167L3.04.281a.16.16 0 0 0-.093-.015m.358.44.38.186.018.01v2.43l-.018.01-.38.185z"/><path fill="gray" d="M2.897.288a.2.2 0 0 0-.115.056L1.345 1.672l.58.444 1.116-.853V.492c0-.134-.057-.2-.128-.204zm-.122.423v.422l-.85.65-.17-.129zM.865 2.116l-.562.519c-.048.044-.082.122-.021.18l.231.22c.091.087.195.012.236-.02l.596-.455zm0 .36.069.065-.31.236-.04-.04z" opacity=".7"/><path fill="gray" d="M.6 1.157a.14.14 0 0 0-.087.04l-.231.22c-.061.058-.027.136.021.18l2.48 2.292c.112.104.257.067.257-.149v-.77L.75 1.215c-.028-.021-.086-.063-.15-.06m.027.298L2.775 3.1v.423L.584 1.496z" opacity=".85"/></svg>