<svg xmlns="http://www.w3.org/2000/svg" width="64" height="64"  viewBox="0 0 64 64">
    <path d="M16 4h32c4.415 0 8 3.585 8 8v40c0 4.415-3.585 8-8 8H16c-4.415 0-8-3.585-8-8V12c0-4.415 3.585-8 8-8" style="stroke:none;fill:#e9ecf2;stroke-miterlimit:10"/>
    <path fill="#808080" d="M18 32a7 7 0 0 1 7-7h4a1 1 0 0 1 0 2h-4a5 5 0 0 0 0 10h4a1 1 0 0 1 0 2h-4a7 7 0 0 1-7-7m28 0a7 7 0 0 0-7-7h-4a1 1 0 0 0 0 2h4a5 5 0 0 1 0 10h-4a1 1 0 0 0 0 2h4a7 7 0 0 0 7-7m-20.5-1a1 1 0 0 0 0 2h13a1 1 0 0 0 0-2z"/>
</svg>
