<svg xmlns="http://www.w3.org/2000/svg" width="64" height="64"  viewBox="0 0 64 64"><path fill="#ff9230" d="M16 4h32c4.415 0 8 3.585 8 8v40c0 4.415-3.585 8-8 8H16c-4.415 0-8-3.585-8-8V12c0-4.415 3.585-8 8-8"/><linearGradient id="a" x1=".517" x2=".517" y1=".005" y2=".998" gradientTransform="matrix(48 0 0 56 8 4)" gradientUnits="userSpaceOnUse"><stop offset="0" stop-opacity=".1" style="stop-color:#fff"/><stop offset="98.333%" stop-opacity=".1" style="stop-color:#000"/></linearGradient><path fill="url(#a)" d="M16 4h32c4.415 0 8 3.585 8 8v40c0 4.415-3.585 8-8 8H16c-4.415 0-8-3.585-8-8V12c0-4.415 3.585-8 8-8"/><path fill="#fff" d="M15.128 50.804q0-.926.643-1.549a2.1 2.1 0 0 1 1.549-.635q.904 0 1.524.635.634.623.634 1.549a2.08 2.08 0 0 1-.634 1.535 2.08 2.08 0 0 1-1.524.623 2.1 2.1 0 0 1-1.549-.623 2.1 2.1 0 0 1-.643-1.535m-.124-9.864v3.636c4.641 0 8.409 3.775 8.409 8.424h3.643c0-6.659-5.404-12.056-12.056-12.056zm.004-7.944v4.018c8.819.012 15.963 7.166 15.963 15.986H35c-.002-11.042-8.95-19.995-19.992-20.004" opacity=".9"/></svg>