<svg xmlns="http://www.w3.org/2000/svg" width="16" height="16"><path fill="gray" d="M5.5 0q-.312 0-.586.117c-.274.117-.341.185-.476.32A1.5 1.5 0 0 0 4 1.5v.379l1 1V1.5q0-.203.148-.352C5.296 1 5.365 1 5.5 1h4q.203 0 .352.148c.149.148.148.217.148.352v6.379l1 1V1.5q0-.312-.117-.586a1.5 1.5 0 0 0-.797-.797A1.5 1.5 0 0 0 9.5 0zM4 3.293V10.5q0 .313.117.586a1.5 1.5 0 0 0 .797.797Q5.188 12 5.5 12h4q.313 0 .586-.117a1.5 1.5 0 0 0 .797-.797Q11 10.812 11 10.5v-.207l-1-1V10.5a.48.48 0 0 1-.148.352A.48.48 0 0 1 9.5 11h-4a.48.48 0 0 1-.352-.148A.48.48 0 0 1 5 10.5V4.293zM2 8v2.613A3.38 3.38 0 0 0 5.387 14H7v1H5v1h5v-1H8v-1h1.613a3.38 3.38 0 0 0 3.094-2l-.78-.78A2.36 2.36 0 0 1 9.636 13h-4.27A2.36 2.36 0 0 1 3 10.635V8zm10 0v1.879l.99.99q.01-.126.01-.256V8z"/><rect width="20" height="1" x="1.314" y="-.5" fill="gray" rx=".5" ry=".5" transform="rotate(45)"/></svg>