<svg xmlns="http://www.w3.org/2000/svg" width="16" height="16" viewBox="0 0 16 16"><path fill="gray" d="M6 4c-.55 0-1 .45-1 1s.45 1 1 1 1-.45 1-1-.45-1-1-1m4 0c-.55 0-1 .45-1 1s.45 1 1 1 1-.45 1-1-.45-1-1-1M8 7a4 4 0 0 0-3.465 2 .503.503 0 0 0 .184.684.503.503 0 0 0 .683-.184C5.938 8.57 6.926 8 8 8s2.063.57 2.598 1.5c.136.238.445.32.683.184A.503.503 0 0 0 11.465 9 4 4 0 0 0 8 7"/><path fill="gray" d="M3 0C1.338 0 0 1.338 0 3v7c0 1.662 1.338 3 3 3h10c1.662 0 3-1.338 3-3V3c0-1.662-1.338-3-3-3zm0 1h10c1.108 0 2 .892 2 2v7c0 1.108-.892 2-2 2H3c-1.108 0-2-.892-2-2V3c0-1.108.892-2 2-2m2 13c-1.108 0-2 .892-2 2h1c0-.554.446-1 1-1h6c.554 0 1 .446 1 1h1c0-1.108-.892-2-2-2z"/></svg>