<svg xmlns="http://www.w3.org/2000/svg" width="16" height="16" viewBox="0 0 16 16"><path fill="gray" d="M5.85 6.15a.5.5 0 0 0-.7 0l-.65.64-.65-.64a.5.5 0 1 0-.701.699l.001.001.64.65-.64.65a.5.5 0 0 0 .701.699l-.001.001.65-.64.65.64a.5.5 0 0 0 .699-.701l.001.001-.64-.65.64-.65a.5.5 0 0 0 0-.7m3.3 0a.5.5 0 0 1 .699.701l.001-.001-.64.65.64.65a.5.5 0 0 1-.701.699l.001.001-.65-.64-.65.64a.5.5 0 0 1-.699-.701l-.001.001.64-.65-.64-.65a.5.5 0 1 1 .699-.701l.001.001.65.64zM11.5 8a.5.5 0 0 0 0 1h2a.5.5 0 0 0 0-1zM2.75 2A2.75 2.75 0 0 0 0 4.75v5.5A2.75 2.75 0 0 0 2.75 13h10.5A2.75 2.75 0 0 0 16 10.25v-5.5A2.75 2.75 0 0 0 13.25 2zM1 4.75C1 3.78 1.78 3 2.75 3h10.5c.97 0 1.75.78 1.75 1.75v5.5c0 .97-.78 1.75-1.75 1.75H2.75C1.78 12 1 11.22 1 10.25z"/></svg>