<svg xmlns="http://www.w3.org/2000/svg" width="16" height="16" viewBox="0 0 16 16"><path fill="gray" d="M2.988 0A2.98 2.98 0 0 0 0 2.988v10.023A2.98 2.98 0 0 0 2.988 16h10.023A2.98 2.98 0 0 0 16 13.01V2.988A2.98 2.98 0 0 0 13.01 0zM4 3.5a.5.5 0 0 1 .354.146L8 7.293l3.647-3.647A.5.5 0 0 1 12 3.5a.5.5 0 0 1 .354.146.5.5 0 0 1 0 .708L8.707 8l3.647 3.647a.5.5 0 0 1 0 .707.5.5 0 0 1-.707 0L8 8.707l-3.646 3.647a.5.5 0 0 1-.708 0 .5.5 0 0 1 0-.707L7.293 8 3.646 4.354a.5.5 0 0 1 0-.708A.5.5 0 0 1 4 3.5"/></svg>