<svg width="16.007" height="16"><g fill="gray"><path d="M7.32 2q-.301.032-.594.094c-.392.08-.764.19-1.125.343a6.06 6.06 0 0 0-3.5 4.094l.031.031c.324.346 1.216.836 1.844 1.063.344.124.983.313 1.438.406s.763.184.718.188c-.044.004-.235.13-.437.312-.385.347-.583.67-.75 1.219-.091.3-.088.369.031.531.072.098.4.334.719.531.32.198.68.496.812.626.496.48.813 1.32.813 2.156 0 .213.016.357.031.406.04.004.084-.004.125 0 .092-.035.219-.078.438-.188 1.833-.917 2.707-2.146 2.625-3.718-.066-1.254-.679-1.683-3.063-2.188C5.721 7.534 4.79 6.92 4.79 6.125c0-.21.052-.333.28-.563.247-.246.31-.256.5-.218.122.024.416.184.657.375.542.429.814.593 1.094.593.12 0 .219-.013.219-.03a2 2 0 0 0-.188-.313c-.54-.798-.49-2.32.094-3.594.091-.2.134-.337.125-.375-.081.005-.17-.008-.25 0m5.625 2.844c-.11-.068-.984.871-1.188 1.281-.404.813-.246 1.325.72 2.344.334.353.717.84.843 1.062s.252.376.281.344.087-.288.156-.562c.182-.72.197-1.963 0-2.688-.151-.562-.671-1.694-.812-1.781"/><path d="M8.01 0a8 8 0 1 0 0 16 8 8 0 0 0 0-16m0 1a7 7 0 1 1 0 14 7 7 0 0 1 0-14"/></g></svg>