<svg xmlns="http://www.w3.org/2000/svg" width="16" height="16" viewBox="0 0 16 16"><path fill="gray" d="M3 0C1.34 0 0 1.34 0 3v10c0 1.66 1.34 3 3 3h10c1.66 0 3-1.34 3-3V3c0-1.66-1.34-3-3-3zM1.977 3H7v2H4.008v2H5c1.004.004 2.008 1 2.008 2H7v2h.008c0 1-1.008 2-2.012 2h-3.02v-2h3.012V9H1.977zM10 3h2c.832 0 1.523.563 1.77 1.05.246.493.23.95.23.95v1h-2V5h-2v6h2V9h-1V7h3v4s.016.457-.23.95c-.247.488-.938 1.05-1.77 1.05h-2s-.457.016-.95-.23C8.563 12.523 8 11.832 8 11V5s-.016-.457.23-.95C8.477 3.563 9.168 3 10 3m0 0"/></svg>