<svg xmlns="http://www.w3.org/2000/svg" width="16" height="16" viewBox="0 0 16 16"><path fill="currentColor" d="M8 0a6.01 6.01 0 0 0-5.998 6.057c.014 2.321.86 3.509 1.62 4.394C4.385 11.344 5 11.893 5 13.5V15h2v1h2v-1h2v-1.5c0-1.607.634-2.304 1.39-3.25.75-.936 1.589-2.104 1.606-4.188L14 6c0-3.308-2.692-6-6-6m0 1c2.767 0 5 2.233 5 5 0 1.875-.647 2.696-1.39 3.625-.663.828-1.337 1.843-1.495 3.375H5.881c-.164-1.504-.85-2.44-1.502-3.201-.735-.857-1.38-1.66-1.38-3.799 0-2.767 2.234-5 5-5M6.147 6.147l-1.5 1.5.707.707L6.5 7.207l1.147 1.147h.707L9.5 7.207l1.147 1.147.707-.707-1.5-1.5h-.707L8 7.292 6.854 6.146z" opacity=".3" style="color:gray"/></svg>