<svg xmlns="http://www.w3.org/2000/svg" width="16" height="16"><defs><style id="current-color-scheme" type="text/css">.ColorScheme-Text{color:gray}</style></defs><path fill="currentColor" d="M8 1a8 8 0 0 0-8 8 8 8 0 0 0 3.35 6.51l.582-.815A7 7 0 0 1 1 9a7 7 0 0 1 6.906-7H8a7 7 0 0 1 7 7 7 7 0 0 1-2.932 5.697l.58.813A8 8 0 0 0 16 9a8 8 0 0 0-8-8m.006 3c-.277 0-.5.223-.5.5v3.633A1 1 0 0 0 7 9a1 1 0 0 0 1 1 1 1 0 0 0 1-1 1 1 0 0 0-.494-.861V4.5c0-.277-.223-.5-.5-.5" class="ColorScheme-Text"/><path fill="currentColor" d="M11.992 9c-.26 1.502-.631 2.471-1.848 3.389l2.497 3.12c2.16-1.676 3.09-3.788 3.367-6.509z" class="ColorScheme-Text" opacity=".25"/></svg>