<svg xmlns="http://www.w3.org/2000/svg" width="64" height="64" style="isolation:isolate" viewBox="0 0 64 64"><path d="M6.698 11.04h50.604A3.7 3.7 0 0 1 61 14.737v36.606a3.7 3.7 0 0 1-3.698 3.697H6.698A3.7 3.7 0 0 1 3 51.343V14.737a3.7 3.7 0 0 1 3.698-3.697" style="stroke:none;fill:#8ce99a;stroke-miterlimit:10"/><path d="M6.698 11.04h50.604A3.7 3.7 0 0 1 61 14.737v36.606a3.7 3.7 0 0 1-3.698 3.697H6.698A3.7 3.7 0 0 1 3 51.343V14.737a3.7 3.7 0 0 1 3.698-3.697" style="stroke:none;fill:#000;stroke-miterlimit:10;opacity:.4"/><path d="M3 13.5v38c0 2.208 1.792 4 4 4h50c2.216 0 4-1.784 4-4V17.786a3.1 3.1 0 0 0-3.107-3.107H32c-2.627 0-4.766-5.179-7.393-5.179H7c-2.208 0-4 1.792-4 4" opacity=".2"/><path fill="#8ce99a" d="M3 14v38c0 2.208 1.792 4 4 4h50c2.208 0 4-1.792 4-4V18.286a3.1 3.1 0 0 0-3.107-3.107H32c-2.627 0-4.766-5.179-7.393-5.179H7c-2.208 0-4 1.792-4 4"/><linearGradient id="a" x1=".5" x2=".5" y1="-.009" y2="1.017" gradientTransform="matrix(58 0 0 46 3 10)" gradientUnits="userSpaceOnUse"><stop offset="0%" style="stop-color:#ff9"/><stop offset="100%" style="stop-color:#009"/></linearGradient><path fill="url(#a)" fill-opacity=".2" d="M3 14v38c0 2.208 1.792 4 4 4h50c2.208 0 4-1.792 4-4V18.286a3.1 3.1 0 0 0-3.107-3.107H32c-2.627 0-4.766-5.179-7.393-5.179H7c-2.208 0-4 1.792-4 4"/><path fill="#fff" fill-opacity=".1" d="M3 50.5h58v1H3z"/><path fill-opacity=".4" d="M3 50h58v.5H3z"/></svg>