<svg xmlns="http://www.w3.org/2000/svg" viewBox="2 2 18 18"><defs><style id="current-color-scheme" type="text/css">.ColorScheme-Text{color:gray}</style></defs><path fill="currentColor" d="M11 3a8 8 0 0 0-8 8 8 8 0 0 0 8 8 8 8 0 0 0 8-8 8 8 0 0 0-8-8m0 1a7 7 0 0 1 7 7 7 7 0 0 1-7 7 7 7 0 0 1-7-7 7 7 0 0 1 7-7" class="ColorScheme-Text"/><path fill="currentColor" d="M9.498 7.572c-.266.012-.498.184-.498.47v5.905c0 .415.466.618.863.381l4.873-2.869a.535.535 0 0 0 0-.922L9.863 7.66a.7.7 0 0 0-.365-.088" class="ColorScheme-Text"/></svg>