<svg xmlns="http://www.w3.org/2000/svg" width="16" height="16" viewBox="0 0 16 16"><path fill="gray" d="M2.223.89A1.33 1.33 0 0 0 .89 2.224a1.331 1.331 0 1 0 2.664 0A1.33 1.33 0 0 0 2.222.892m2.222.886v.891h.887v-.89Zm1.778 0v.891h8.886v-.89Zm0 1.778v.89H8.89v-.89Zm-4 2.668A1.33 1.33 0 0 0 .89 7.555a1.332 1.332 0 1 0 2.664 0c0-.735-.598-1.332-1.332-1.332m2.222.886V8h.887v-.89Zm1.778 0V8h8.886v-.89ZM8.89 8.891l-1.782 1.332 1.782 1.332v-.887h4.441c.492 0 .89.395.89.887h.887c0-.985-.793-1.778-1.777-1.778h-4.44Zm-6.668 2.664c-.739 0-1.332.597-1.332 1.336a1.331 1.331 0 1 0 2.664 0c0-.739-.598-1.336-1.332-1.336m2.222.89v.887h.887v-.887Zm2.664 0c0 .985.793 1.778 1.782 1.778h4.441v.886l1.777-1.332-1.777-1.332v.887h-4.44A.884.884 0 0 1 8 12.445Zm0 0"/></svg>