<svg xmlns="http://www.w3.org/2000/svg" width="16" height="16" viewBox="0 0 16 16"><path fill="gray" d="M8 .89a7.11 7.11 0 1 0 .002 14.221A7.11 7.11 0 0 0 8 .891m0 .886A6.22 6.22 0 0 1 14.223 8 6.22 6.22 0 0 1 8 14.223 6.22 6.22 0 0 1 1.777 8 6.22 6.22 0 0 1 8 1.777"/><path fill="gray" d="M8 9.777a.6.6 0 0 1-.223-.039.7.7 0 0 1-.363-.27L4.57 5.564a.67.67 0 0 1-.117-.493.7.7 0 0 1 .234-.445.68.68 0 0 1 .47-.18h5.683a.7.7 0 0 1 .476.18.704.704 0 0 1 .114.934L8.586 9.465a.7.7 0 0 1-.36.273.6.6 0 0 1-.226.04m-3.11 1.777h6.22a.444.444 0 1 0 0-.887H4.89a.444.444 0 1 0 0 .887m0 0"/></svg>