<svg xmlns="http://www.w3.org/2000/svg" width="16" height="16" viewBox="0 0 16 16"><path fill="gray" d="M6.668 5.332c-.246 0-.445.2-.445.445v4.446a.442.442 0 1 0 .886 0V5.777a.44.44 0 0 0-.441-.445m2.664 0c-.246 0-.441.2-.441.445v4.446c0 .246.195.445.441.445s.445-.2.445-.445V5.777a.445.445 0 0 0-.445-.445"/><path fill="gray" d="M8 .89a7.11 7.11 0 1 0 .002 14.221A7.11 7.11 0 0 0 8 .891m0 .886A6.22 6.22 0 0 1 14.223 8 6.22 6.22 0 0 1 8 14.223 6.22 6.22 0 0 1 1.777 8 6.22 6.22 0 0 1 8 1.777"/></svg>