<svg xmlns="http://www.w3.org/2000/svg" width="16" height="16"><path fill="currentColor" d="M2 1c-.554 0-1 .446-1 1v4c0 .554.446 1 1 1h4c.554 0 1-.446 1-1V2c0-.554-.446-1-1-1zm8 0c-.554 0-1 .446-1 1v4c0 .554.446 1 1 1h4c.554 0 1-.446 1-1V2c0-.554-.446-1-1-1zM2 2h4v4H2zm8 0h4v4h-4zM2 9c-.554 0-1 .446-1 1v4c0 .554.446 1 1 1h4c.554 0 1-.446 1-1v-4c0-.554-.446-1-1-1zm10 0c-.277 0-.5.223-.5.5v3.836l-1.31-1.31a.499.499 0 1 0-.708.706l2.122 2.122a.5.5 0 0 0 .375.146H12a.5.5 0 0 0 .453-.289l1.979-1.979a.499.499 0 1 0-.707-.707L12.5 13.25V9.5c0-.277-.223-.5-.5-.5M2 10h4v4H2z" style="color:gray"/></svg>